<?xml version="1.0" encoding="UTF-8"?><svg xmlns="http://www.w3.org/2000/svg" xmlns:xlink="http://www.w3.org/1999/xlink" viewBox="0 0 154.9 154.9"><defs><style>.e,.f{fill:#fff;}.g,.f{stroke:#000;}.g,.f,.h{stroke-miterlimit:10;stroke-width:.25px;}.i{clip-path:url(#d);}.j{opacity:.58;}.h{fill:none;stroke:#fff;}</style><clipPath id="d"><circle class="e" cx="77.45" cy="77.45" r="77.45"/></clipPath></defs><g id="a"/><g id="b"><g id="c"><circle class="e" cx="77.45" cy="77.45" r="77.45"/><g class="i"><path d="M68.51,146.59c.9-4.84,1.78-9.95,.13-14.59-1.65-4.64-6.8-8.42-11.44-6.75-2.82,1.01-4.73,3.76-5.52,6.65s-.65,5.94-.49,8.93l1.97,38.32c.19,3.65,.94,8.1,4.38,9.34,2.71,.97,5.78-.83,7.23-3.31s1.67-5.48,1.85-8.35c.73-11.4,.53-22.91,1.89-30.23Z"/><path d="M95.06,145.42c.9-4.84,1.78-9.95,.13-14.59-1.65-4.64-6.8-8.42-11.44-6.75-2.82,1.01-4.73,3.76-5.52,6.65-.79,2.89-.65,5.94-.49,8.93l1.97,38.32c.19,3.65,.94,8.1,4.38,9.34,2.71,.97,5.78-.83,7.23-3.31,1.45-2.49,1.67-5.48,1.85-8.35,.73-11.4,.53-22.91,1.89-30.23Z"/><path class="g" d="M39.73,137.99c.05-1.85-.08-3.79-1.01-5.4s-2.86-2.77-4.64-2.26c-1.36,.38-2.34,1.63-2.78,2.97s-.44,2.78-.44,4.19c.04,10.26,.08,20.58,1.78,30.71,.56,3.34,1.36,6.79,3.47,9.43,2.12,2.65,5.9,4.24,9,2.87-2.65-.89-4.91-2.85-6.15-5.35,2.4,.96,5.28,.63,7.4-.86-2.35,.06-4.69-1.21-5.91-3.22,2.11,1.64,5.64,.89,6.89-1.48-2.23,1.09-5.05-.1-6.54-2.09-1.49-1.99-1.95-4.55-2.23-7.01-.98-8.51,1.05-16.96,1.18-22.49Z"/><path class="g" d="M39.44,136.15c.89-1.09,1.01-13.59,1.51-20.65,.5-7.07,.32-9.36-.62-18.12-.2-1.83-1.59-4.89-5.29-4.62-3.09,.23-4.03,4.02-4.03,6.68,0,10.62-.91,18.11-.68,28.72,.08,3.44,.17,7.51,3.19,9.16,2.81,1.53,4.68,.35,5.91-1.17Z"/><path class="g" d="M112.16,128.75c-1.66-1.07-4.01-.18-5.18,1.41s-1.43,3.65-1.59,5.62c-.86,10.48,.28,21.09,3,31.25,1.38,5.15,3.54,10.65,8.25,13.16,4.35,2.32,10.25,1.15,13.39-2.65l-5.87-.26c2.74-.92,4.88-3.44,5.34-6.29-1.52,1.88-3.79,3.15-6.19,3.45,2.42-1.88,3.68-5.14,3.16-8.15,.03,2.33-2.56,4.1-4.87,3.75s-4.12-2.28-4.99-4.44c-.87-2.16-.96-4.55-1.05-6.87l-.75-20.86c-.12-3.34,.02-7.38-2.64-9.1Z"/><path class="g" d="M114.45,137.36c.89-1.09,1.01-13.59,1.51-20.65,.5-7.07,.32-9.36-.62-18.12-.2-1.83-1.59-4.89-5.29-4.62-3.09,.23-4.03,4.02-4.03,6.68,0,10.62-.91,18.11-.68,28.72,.08,3.44,.17,7.51,3.19,9.16,2.81,1.53,4.68,.35,5.91-1.17Z"/><path d="M81.31,18.56c-1.42-3.5-5.64-5.59-9.28-4.59s-6.22,4.93-5.67,8.67c-3.13-1.81-7.16-1.94-10.4-.35s-5.6,4.87-6.08,8.45c-4.84-2.28-10.95-1.53-15.1,1.83-4.15,3.37-6.14,9.19-4.91,14.4-3.27-.21-6.6,1.52-8.31,4.32-1.71,2.8-1.74,6.54-.07,9.36-5.07,.49-9.56,4.64-10.43,9.66s1.95,10.44,6.56,12.61c-2.69,2.28-4.06,6.03-3.48,9.51s3.11,6.57,6.4,7.85c-2.87,3.57-3.24,8.95-.89,12.88s7.27,6.14,11.77,5.3c-1.41,4.1,2.36,9.03,6.68,8.74,2-.14,4.01-1.17,5.93-.61,1.96,.58,3.08,2.61,3.82,4.51s1.4,4,3.04,5.22,4.61,.77,4.97-1.25c3.78,7.58,14.88,10.25,21.7,5.22,3.57,2.47,8.57,2.69,12.34,.55s6.15-6.54,5.86-10.88c5.16,1.14,10.91-1.5,13.41-6.15,4.92,2.39,11.67-1.31,12.3-6.75,2.84,.76,6.07-.26,7.97-2.5,1.9-2.24,2.36-5.6,1.14-8.27,3.05,.06,6.08-1.69,7.55-4.37,1.47-2.68,1.32-6.17-.37-8.71,3.6-.27,5.35-4.8,4.7-8.35-.65-3.55-2.76-6.69-3.49-10.22-.9-4.35,.39-8.89-.18-13.29s-4.52-9.09-8.74-7.71c2.86-7.51-2.94-16.96-10.93-17.8,.37-5.78-2.64-11.65-7.54-14.72-4.9-3.08-11.5-3.23-16.54-.38-.76-3.29-3.77-5.92-7.12-6.25-3.36-.33-6.82,1.67-6.59,4.09Z"/><path class="h" d="M63.54,30.08c-3.44,1.46-7.07,3.07-9.16,6.17s-1.7,8.15,1.7,9.7c1.73,.79,3.76,.5,5.59-.04,4.06-1.19,7.86-3.5,12.09-3.71s9.11,3.06,8.34,7.22c-.39,2.11-2.13,3.75-4.05,4.7s-4.07,1.33-6.13,1.92c-4.94,1.4-9.54,3.98-13.31,7.46-3.57,3.3-6.5,7.73-6.5,12.59,0,6.47,5.97,12.3,12.45,12.25,6.47-.05,12.33-5.85,12.55-12.32,.12-3.49-1.16-7.1-.02-10.4,1.15-3.36,4.52-5.45,7.88-6.61,5.53-1.91,12.89-1.34,15.65,3.82,2.01,3.76,.68,8.57-1.92,11.95s-6.28,5.73-9.64,8.36c-5.41,4.24-10.13,9.36-13.92,15.09-3.21,4.86-5.73,11.39-2.58,16.29,2.65,4.13,8.26,5.23,13.14,4.76,8.75-.84,17.05-5.65,22.13-12.83,2.67-3.78,4.33-9.29,1.29-12.78-2.61-2.98-7.22-2.84-11.15-2.28-9.38,1.34-18.62,3.69-27.5,7.01-5.33,1.99-10.59,4.34-16.21,5.18-5.62,.84-11.82-.04-16.04-3.85-3.79-3.42-5.43-8.65-5.95-13.73-.65-6.34,.33-13.15,4.28-18.15,3.31-4.18,8.47-6.71,13.78-7.26,4.05-.42,8.44,.38,11.44,3.14,4.63,4.27,4.51,11.76,2.2,17.61-2.31,5.86-6.34,10.9-8.74,16.71-2.1,5.09-2.87,10.9-1.14,16.12s6.24,9.68,11.7,10.41,11.41-2.99,12.35-8.41c.91-5.23-2.54-10.09-5.61-14.42-3.06-4.33-6.03-9.73-4.12-14.68,1.59-4.12,6.07-6.36,10.35-7.44,4.2-1.06,9.53-.95,11.82,2.74,2.34,3.76-.02,8.58-2.27,12.4-3.8,6.46-7.33,13.07-10.59,19.81-1.27,2.63-2.52,5.35-2.82,8.26-.3,2.91,.52,6.09,2.77,7.95,2.07,1.71,5.06,2.03,7.63,1.26,2.57-.77,4.76-2.52,6.52-4.55,4.83-5.55,6.7-13.12,7.15-20.46,.44-7.33-.19-15.34,4.07-21.32,2.81-3.94,8.93-6.22,12.46-2.9,3.45,3.24,2.09,9.33,5.02,13.04,2.88,3.64,9.1,3.15,12.26-.25,3.16-3.4,3.59-8.67,2.25-13.11-1.57-5.18-5.36-9.64-10.22-12.03s-10.71-2.66-15.77-.74c-2.3,.87-4.43,2.17-6.76,2.95s-5.04,.98-7.14-.3c-4.03-2.45-3.45-8.84-.38-12.42s7.68-5.36,11.63-7.93,7.61-6.81,6.83-11.46c-.92-5.45-7.23-8.09-12.72-8.69-4.04-.44-8.51-.18-11.59,2.48-2.44,2.11-3.57,5.37-5.68,7.81s-6.31,3.83-8.4,1.37c-1.54-1.81-.93-4.69,.54-6.56,1.48-1.86,3.61-3.06,5.44-4.58,1.83-1.52,3.46-3.66,3.26-6.03-.33-3.97-5.86-5.7-9.32-3.73-3.46,1.96-5.08,6.06-5.95,9.95-.87,3.89-1.3,8-3.39,11.38s-6.6,5.75-10.12,3.9c-4.14-2.18-4.73-8.76-9.15-10.29-2.16-.75-4.63,.06-6.36,1.55s-2.85,3.57-3.76,5.66c-1.42,3.24-2.27,7.51,.34,9.9,1.84,1.68,4.93,1.84,6.23,3.97,.94,1.53,.53,3.62-.61,5.02-1.13,1.4-2.84,2.2-4.56,2.72-4.05,1.23-8.48,1.15-12.35,2.86s-7.05,6.41-5,10.12c1.3,2.35,4.14,3.34,6.79,3.74s5.44,.44,7.82,1.68c2.38,1.24,4.15,4.25,2.91,6.62-1.53,2.94-5.93,2.56-8.63,4.47-2.73,1.93-3.12,6.22-1.18,8.94s5.69,3.79,8.95,3.06,6.01-3.04,7.85-5.83c1.21-1.83,2.09-3.91,3.63-5.48,1.54-1.57,4.05-2.51,5.95-1.41,2.14,1.24,2.35,4.35,1.42,6.63-.94,2.29-2.7,4.14-3.79,6.35-2.59,5.25-.83,12.06,3.54,15.95s10.86,4.94,16.49,3.36c4.23-1.19,8.39-4.31,8.87-8.67,.28-2.56-.75-5.06-1.75-7.43-2.36-5.57-4.81-11.28-8.98-15.67-2.8-2.94-6.42-5.36-7.89-9.15-1.5-3.83-.38-8.29,1.91-11.69,2.29-3.41,5.63-5.96,8.95-8.37,3.63-2.64,7.78-5.32,12.24-4.78,3.47,.42,6.38,2.72,9.03,4.99s5.41,4.7,8.82,5.45,7.63-.9,8.38-4.32c.83-3.82-2.89-7.43-2.4-11.3,.47-3.67,4.86-5.88,8.47-5.04s6.32,3.88,8.02,7.18c1.68,3.26,2.56,7.3,.85,10.55-1.46,2.77-4.47,4.34-7.39,5.47-2.92,1.13-6.04,2.04-8.39,4.11s-3.67,5.76-1.98,8.39"/><path class="h" d="M109.09,114.9c2.59-2.7,5.29-5.61,5.98-9.28,.69-3.67-1.65-8.16-5.39-8.24-1.91-.04-3.66,1.03-5.12,2.24-3.26,2.7-5.84,6.32-9.64,8.18s-9.57,.79-10.51-3.34c-.48-2.09,.47-4.29,1.87-5.91,1.4-1.63,3.21-2.83,4.88-4.18,3.99-3.23,7.2-7.42,9.29-12.11,1.98-4.44,2.92-9.67,1-14.14-2.55-5.95-10.34-8.95-16.27-6.35-5.93,2.6-9.02,10.24-6.67,16.27,1.27,3.25,3.86,6.06,4.12,9.55,.26,3.54-2.01,6.79-4.63,9.18-4.33,3.94-11.32,6.32-15.89,2.66-3.33-2.66-4.01-7.6-2.95-11.74,1.06-4.13,3.51-7.74,5.56-11.48,3.3-6.03,5.61-12.59,6.83-19.36,1.03-5.74,.77-12.72-4.05-15.99-4.06-2.75-9.65-1.55-13.96,.81-7.71,4.22-13.44,11.92-15.27,20.52-.96,4.52-.31,10.25,3.86,12.25,3.57,1.71,7.76-.24,11.14-2.3,8.09-4.93,15.65-10.74,22.51-17.29,4.11-3.93,8.02-8.16,12.85-11.16s10.88-4.63,16.26-2.79c4.83,1.65,8.4,5.81,10.88,10.27,3.1,5.57,4.89,12.22,3.23,18.37-1.39,5.15-5.14,9.51-9.8,12.1-3.56,1.98-7.91,2.98-11.75,1.63-5.94-2.09-8.78-9.03-8.97-15.32-.19-6.29,1.53-12.51,1.44-18.81-.08-5.5-1.67-11.14-5.31-15.26-3.65-4.12-9.56-6.43-14.86-4.95-5.3,1.49-9.31,7.25-8.03,12.6,1.23,5.16,6.32,8.27,10.84,11.04,4.52,2.77,9.38,6.56,9.58,11.86,.17,4.42-3.07,8.23-6.58,10.92-3.45,2.63-8.39,4.63-11.94,2.15-3.64-2.54-3.37-7.89-2.81-12.29,.94-7.43,1.58-14.9,1.92-22.39,.13-2.92,.21-5.91-.67-8.7s-2.88-5.39-5.69-6.21c-2.58-.76-5.45,.13-7.51,1.85s-3.38,4.19-4.2,6.75c-2.25,7.01-.98,14.7,1.51,21.62,2.49,6.91,6.23,14.02,4.67,21.2-1.03,4.73-5.76,9.24-10.3,7.58-4.44-1.62-5.6-7.75-9.76-10-4.08-2.21-9.61,.69-11.17,5.06-1.56,4.37,.12,9.38,3.11,12.93,3.49,4.14,8.73,6.75,14.14,7.02s10.89-1.78,14.78-5.55c1.77-1.71,3.21-3.74,5.05-5.38,1.84-1.64,4.24-2.89,6.68-2.54,4.67,.66,6.66,6.76,5.25,11.26s-4.94,7.95-7.56,11.87-4.31,9.27-1.75,13.23c2.99,4.64,9.83,4.58,15.12,2.97,3.89-1.19,7.89-3.2,9.67-6.86,1.41-2.91,1.16-6.34,2.13-9.42s4.29-6.01,7.18-4.57c2.13,1.06,2.71,3.94,2.09,6.24s-2.11,4.24-3.19,6.36c-1.08,2.12-1.73,4.73-.61,6.83,1.87,3.51,7.63,2.92,10.04-.25s2.28-7.57,1.54-11.49c-.73-3.91-1.96-7.86-1.38-11.8,.59-3.94,3.79-7.89,7.76-7.58,4.67,.37,7.8,6.18,12.47,5.84,2.28-.16,4.23-1.88,5.23-3.93s1.21-4.4,1.23-6.69c.03-3.53-.88-7.8-4.22-8.96-2.36-.82-5.26,.25-7.3-1.19-1.47-1.04-1.91-3.12-1.42-4.85s1.74-3.14,3.12-4.3c3.24-2.73,7.34-4.4,10.22-7.5,2.88-3.1,3.95-8.67,.61-11.27-2.12-1.64-5.12-1.43-7.72-.76s-5.17,1.74-7.85,1.54-5.48-2.27-5.28-4.94c.25-3.31,4.44-4.69,6.17-7.52,1.74-2.85,.42-6.95-2.44-8.68s-6.73-1.24-9.43,.72c-2.7,1.96-4.32,5.17-4.91,8.46-.39,2.16-.38,4.42-1.17,6.46-.79,2.05-2.73,3.9-4.91,3.64-2.45-.29-3.88-3.06-3.92-5.53s.85-4.87,.98-7.33c.31-5.84-3.99-11.41-9.54-13.26s-11.92-.26-16.48,3.42c-3.42,2.76-6.01,7.27-4.73,11.47,.75,2.46,2.68,4.36,4.54,6.14,4.37,4.19,8.87,8.47,14.43,10.85,3.73,1.6,8.01,2.4,10.86,5.29,2.88,2.93,3.62,7.46,2.86,11.5s-2.82,7.7-4.92,11.23c-2.3,3.86-5.05,7.95-9.36,9.22-3.35,.98-6.94,.02-10.27-1.03s-6.82-2.18-10.25-1.53-6.66,3.84-6,7.27c.74,3.84,5.59,5.68,6.66,9.44,1.02,3.56-2.15,7.32-5.8,7.97s-7.34-1.07-10.2-3.43c-2.83-2.33-5.24-5.7-4.94-9.36,.25-3.12,2.39-5.75,4.63-7.94s4.74-4.26,6.09-7.09c1.35-2.83,1.1-6.74-1.5-8.49"/><path class="h" d="M21.54,53.96c7.93-1.37,17.08,5.08,24.19-.76,1.65-1.36,2.87-3.32,2.82-5.51"/><path class="h" d="M119.13,30.52c-5.05-2.67-12-3.94-17.16-.85-2.83,1.69-4.33,4.56-5.06,7.69-.87,3.7-1.28,7.58-1.68,11.35-.42,3.98-.58,8.01-.11,12,.46,3.86,1.83,7.49,2.66,11.27,.81,3.68,.8,7.42-1.05,10.78-1.6,2.92-4.2,5.22-7.11,6.78-5.68,3.05-12.68,3.67-19.02,3.98-6.39,.31-12.96-.92-16.62-6.67-3.19-5.02-3.75-11.2-6.8-16.29-1.56-2.6-3.82-4.69-6.78-5.54-3.11-.89-6.61-.2-8.37,2.71-1.65,2.71-1.53,6.02-2.31,9.01-.82,3.17-2.92,5.53-6.27,5.97-6.32,.82-10.52-4.7-11.49-10.34-.32-1.87-.38-3.78-.2-5.67"/><path class="h" d="M137.9,72.18c-5.52-1.48-10.39,1.59-15.26,3.89-2.82,1.54-6.15,2.05-8.96,.26-3.59-2.31-1.79-7.43,1.54-9.73,3.33-2.05,7.17-2.82,9.99-5.63,3.33-3.33,5.89-7.43,5.46-12.27"/><path class="h" d="M134.07,105.89c-4-2.93-8.87-6.26-8.87-11.63-.26-3.07,2.56-5.63,5.89-5.38,3.59,.26,6.92,2.05,10.39,1.31"/><path class="h" d="M103.7,127.34c-1.29-2.09-3.34-3.89-2.82-6.7,.51-2.05,1.79-3.33,3.59-4.1,5.38-2.05,10.5,1.28,15.41,3.17"/><path class="h" d="M51.83,135.69c5.74-4.35,9.46-11.52,16.52-14.03,3.02-1.08,6.59-1.04,9.33,.78,2.56,1.7,3.68,4.53,3.76,7.51,.1,3.79-.85,8.06,1.5,11.39"/><path class="h" d="M18.55,110.13c3.5,3.38,7.95,6.47,12.88,7.09,5.2,.65,8.99-2.51,13.57-4.25,3.19-1.22,8.1-1.54,10.44,1.53,2.63,3.46-.46,7.06-3.66,8.52-4.61,2.11-10.17,.55-14.5,3.54"/><path class="h" d="M21.03,56.13c3.72,5.04,9.15,8.38,15.23,9.74,5.22,1.17,12.21,.52,15.95,5.12,4.33,5.32-.1,12.02-5.43,14.35-5.16,2.26-10.9,1.54-16.36,1.47-5.04-.06-10.62,.31-14.51,3.91-.49,.45-.93,.94-1.34,1.46"/><path class="h" d="M92.11,15.69c-8.14,2.76-14.29,8.39-19.41,15.82-4.1,6.4-7.43,12.29-12.81,17.42-5.38,5.12-14.09,7.68-19.98,2.05-2.05-2.31-2.31-5.38-1.79-8.2,1.02-4.1,3.33-7.94,3.22-12.04"/><path class="h" d="M59.64,138.45c3.77,.57,7.71,1.28,11.48,.3,2.94-.76,5.66-2.7,7.03-5.46,1.02-2.05,1.29-4.69,.06-6.72-1.02-1.68-2.84-2.67-4.62-3.35-4.33-1.63-9.07-1.6-13.46-3.04-3.14-1.03-6.13-2.81-7.9-5.68-1.66-2.68-2.1-6.17,.09-8.7,1.91-2.2,5.04-2.82,7.82-2.54,3.84,.38,7.52,1.95,11.31,2.65,6.8,1.27,14.17,1.08,20.63-1.58,5.74-2.36,10.77-6.95,11.75-13.33,.89-5.78-1.78-11.82-6.61-15.09-5.1-3.46-11.9-3.4-17.13-.23-3.01,1.83-4.97,4.49-6.54,7.58-1.45,2.87-2.72,5.93-5.23,8.06-5.19,4.4-13.16,2.9-18.71-.02-5.01-2.64-9.27-7.63-8.18-13.64,.98-5.42,6.14-8.89,11.01-10.58,3.34-1.16,6.9-1.56,10.39-1.95,3.98-.44,7.95-.89,11.89-1.68,7.45-1.49,15.02-3.98,21.48-8.06,5.71-3.61,10.75-9.95,8.16-17.05-2.32-6.35-9.36-10.25-15.45-12.14-6.26-1.94-13.05-2.21-19.49-1.05-5.69,1.03-11.68,3.36-15.18,8.2-2.04,2.81-2.94,6.44-1.16,9.61,1.65,2.93,4.78,4.88,7.68,6.41,3.18,1.68,6.57,2.91,9.97,4.07,3.63,1.24,7.28,2.46,10.97,3.51,7.56,2.15,15.23,3.52,22.93,5.03,7,1.38,14.14,3.33,19.92,7.71,5.86,4.45,9.09,11.03,8.47,18.43-.58,6.94-3.64,13.66-8.09,18.97-4.23,5.06-10.03,8.71-16.62,9.65-6.29,.89-13.03-.71-18.15-4.5-5.42-4.01-8.27-10.33-6.39-16.97,1.89-6.66,7.42-11.35,13.11-14.85,5.75-3.54,11.98-6.27,17.32-10.46,5.34-4.19,9.48-9.85,10.68-16.64,1.13-6.38-.67-13.34-5.89-17.47-4.59-3.64-11.22-4.53-16.29-1.32-4.88,3.09-6.18,9.11-6.22,14.52-.05,6.74,1.75,13.94-1.24,20.32-2.56,5.45-8.23,7.66-13.99,7.2-5.26-.42-11.72-2.68-14.91-7.11-1.56-2.17-2.18-4.95-1.24-7.51,.9-2.42,2.88-4.3,4.9-5.82,2.25-1.69,4.73-3.06,7.18-4.44,3.45-1.95,6.94-3.85,10.39-5.79,5.88-3.31,12.05-6.66,17.2-11.08,4.02-3.46,7.28-8.3,5.34-13.77"/><path class="h" d="M121.02,64.19c2.39-3.78,4.77-7.81,5.05-12.27s-2.29-9.43-6.67-10.32c-1.76-.36-3.6-.04-5.36-.36s-3.6-1.68-3.47-3.47c.13-1.73,1.94-2.76,2.93-4.19,2.25-3.26-.36-7.91-3.86-9.74-5.41-2.82-13.04-.84-15.78,4.61-2.74,5.45,.89,13.24,6.94,14.03,3.33,.44,6.59-1.03,9.64-2.42,3.06-1.4,6.36-2.79,9.67-2.22s6.32,4.02,5.14,7.17c-.86,2.3-3.39,3.39-5.58,4.5s-4.52,2.95-4.33,5.4c.18,2.35,2.75,3.88,5.11,3.95s4.62-.85,6.92-1.36,4.97-.53,6.73,1.05c2.41,2.18,1.78,6.29-.21,8.86-1.99,2.57-4.95,4.17-7.41,6.3-2.46,2.13-4.54,5.3-3.77,8.46,.93,3.82,6.29,5.49,9.47,3.18s3.49-7.48,.92-10.45-7.33-3.55-10.78-1.67-5.53,5.82-5.62,9.75c-.08,3.32,1.26,6.78,3.95,8.73s6.76,2.03,9.19-.24c1.71-1.6,2.73-4.25,5.02-4.68,3.06-.57,5.01,3.9,3.41,6.57-1.6,2.67-4.97,3.61-8.06,4.02-2.18,.29-4.55,.49-6.16,1.99-1.61,1.5-1.51,4.82,.62,5.35,1.04,.26,2.16-.24,3.2,.01,1.97,.48,2.31,3.47,.91,4.93-1.4,1.46-3.67,1.65-5.67,1.36s-3.96-.98-5.98-.91-4.22,1.2-4.65,3.17c-.62,2.86,2.44,6.53,.13,8.32-1.53,1.19-3.71-.12-5.1-1.47s-3.26-2.9-5.03-2.1c-3.27,1.47-.28,7.79-3.4,9.56-2.1,1.19-4.48-1.14-5.45-3.35s-1.93-4.96-4.3-5.45c-2.24-.46-4.38,1.8-4.39,4.09s1.61,4.32,3.55,5.53c1.37,.86,3.03,1.51,3.74,2.95,1.11,2.22-.7,4.82-2.73,6.25-3.39,2.4-8.79,3.07-11.19-.32-1.09-1.54-1.27-3.54-1.44-5.42s-.39-3.88-1.56-5.37-3.62-2.13-4.96-.8c-1.37,1.36-.78,3.7,.28,5.31s2.54,3.07,2.81,4.98c.54,3.77-4.56,6.45-7.98,4.77-3.41-1.68-4.83-5.94-4.56-9.73,.23-3.29,.88-7.68-2.18-8.92-2.79-1.13-5.65,2.38-5.14,5.35s2.98,5.15,5.3,7.07c-.29,1.25-2.22,1.36-3.15,.46-.93-.9-1.15-2.27-1.46-3.52-.31-1.25-.91-2.61-2.13-3.03s-2.79,1.07-2.01,2.09c-2.17-.61-2.26-3.58-2.26-5.84,0-2.26-1.54-5.25-3.63-4.4-.93,.38-1.39,1.4-2.05,2.15-1.31,1.5-3.67,1.95-5.44,1.05s-2.8-3.07-2.36-5.01c.35-1.58,1.51-2.84,2.2-4.3s.73-3.54-.67-4.36c-1.49-.87-3.36,.37-4.33,1.8s-1.67,3.18-3.2,3.99c-1.94,1.03-4.5-.07-5.66-1.93-1.16-1.86-1.18-4.23-.75-6.38,.74-3.7,2.91-7.31,6.36-8.83,3.45-1.52,8.16-.26,9.65,3.21s-1.77,8.2-5.45,7.37c-2.53-.57-4.05-3.12-4.97-5.54-.91-2.42-1.6-5.09-3.52-6.83-1.14-1.02-2.6-1.61-3.79-2.58-2.36-1.93-3.22-5.8-1.25-8.14,1.97-2.34,6.66-1.53,7.16,1.48,.17,1.01-.11,2.05,.05,3.06,.42,2.54,3.85,3.82,6.08,2.53s3.03-4.35,2.18-6.79c-.84-2.44-3-4.24-5.37-5.25-3.02-1.29-6.53-1.52-9.15-3.48-3.71-2.78-4.2-8.95-.91-12.22,3.28-3.26,9.54-2.67,12.08,1.2,1.7,2.59,1.58,6.31-.44,8.66s-5.86,2.97-8.41,1.21-3.3-5.75-1.39-8.19c1.51-1.94,4.09-2.61,6.24-3.81,2.15-1.2,4.11-3.74,3.03-5.95-.7-1.43-2.38-2.07-3.38-3.32-1.87-2.35,.01-6.52,3.01-6.66s5.27,3.83,3.63,6.34c-1.12,1.71-3.39,2.43-4.42,4.2-1.5,2.55,.79,6.17,3.74,6.45s5.68-2.17,6.39-5.04c.71-2.87-.28-5.94-1.94-8.39-1.38-2.03-3.26-3.81-3.92-6.18-1.09-3.92,1.58-7.9,4.61-10.62,1.56-1.4,3.34-2.68,5.39-3.09s4.45,.26,5.54,2.05c1.55,2.52-.09,5.88-2.34,7.81s-5.1,3.15-7.02,5.4c-3.19,3.74-2.86,9.77,.26,13.56,3.12,3.79,8.5,5.33,13.33,4.42,3.73-.7,7.6-3.46,7.54-7.25-.06-3.73-3.68-6.23-6.73-8.38s-6.23-5.62-4.95-9.13c.8-2.18,3.05-3.42,5.15-4.4,2.1-.99,4.39-2.07,5.41-4.15s-.33-5.31-2.64-5.06c2.02-1.31,4.12-2.64,6.5-3.03s5.13,.43,6.27,2.55c.94,1.75,.63,3.98,1.58,5.72,1.12,2.05,4.06,2.84,6.06,1.63,2-1.21,2.66-4.19,1.36-6.13-1.67-2.5-5.48-2.75-7.27-5.16-1.67-2.24-.5-6.05,2.2-6.76,2.7-.72,5.66,2.32,4.69,4.94-1.31,3.56-6.8,3.15-9.31,5.99-2.02,2.28-1.24,6.24,1.25,7.99,2.49,1.75,6.07,1.41,8.54-.37,2.47-1.77,3.9-4.73,4.38-7.73,.36-2.3,.26-4.75,1.39-6.78,1.13-2.03,4.24-3.19,5.77-1.44,1.54,1.76,.07,4.57-1.82,5.94-1.9,1.37-4.31,2.25-5.45,4.29-1.77,3.16,.78,7.33,4.18,8.59,3.39,1.26,7.16,.49,10.7-.29l7.06-1.57c2.07-.46,4.43-1.15,5.25-3.11,1.03-2.47-1.29-5.22-3.86-5.97-4.61-1.33-9.4,1.44-12.93,4.7-3.52,3.26-6.62,7.22-11.03,9.12-6.32,2.72-14.37,.76-19.79,4.99-1.27,.99-2.36,2.45-2.24,4.06,.17,2.22,2.59,3.63,4.81,3.76s4.39-.63,6.6-.84,4.77,.32,5.9,2.24c1.2,2.04,.17,4.78-1.58,6.38s-4.07,2.38-6.23,3.37c-3.48,1.61-6.65,3.88-9.3,6.65-1.2,1.26-2.36,2.79-2.31,4.53,.1,3.06,3.79,4.71,6.85,4.56s6.09-1.33,9.1-.78c5.86,1.07,8.67,8.82,6.1,14.19s-8.81,8.18-14.76,8.42c-4.6,.18-9.74-1.3-11.96-5.33-1.86-3.37-1.22-7.72-3.15-11.05-2.04-3.51-6.98-4.96-10.6-3.11-2.49,1.28-4.18,3.85-4.78,6.58-1.6,7.33,4.36,14.62,11.44,17.1,7.08,2.48,14.86,1.34,22.24-.03,7.38-1.37,14.98-2.96,22.3-1.3"/><path class="h" d="M66.57,22.79c3.81,5.64,4.96,14.62,12.31,16.99,2.15,.69,4.64,.63,6.5-.75"/><path class="h" d="M140.08,91.85c.45-5.31-.77-11.02-4.11-15.27-1.84-2.34-4.36-4.29-7.35-4.8-3.41-.58-6.71,.68-9.73,2.13-6.58,3.16-13.06,6.63-18.34,11.75-4.62,4.47-8.19,11.14-14.86,12.76-6.06,1.47-11.83-1.58-16.3-5.44-2.26-1.95-4.3-4.15-6.21-6.44-2.13-2.54-4.29-5.13-5.84-8.08-1.57-2.99-2.38-6.33-1.71-9.69,.66-3.29,2.48-6.21,4.42-8.89,3.49-4.81,8.1-9.93,6.79-16.35-.49-2.42-1.83-4.79-4.13-5.89-2.92-1.4-5.96-.19-8.67,1.1-2.63,1.26-5.37,2.73-8.36,1.91-2.65-.73-4.62-2.95-5.38-5.54-.51-1.76-.5-3.64-.07-5.42"/><path class="h" d="M134.72,104.24c1.62-1.68,2.95-3.65,3.83-5.82"/><path class="h" d="M114.34,122.63c-2.68-3.32-6.36-4.75-9.94-6.83-2.94-1.7-6.61-5.47-4.53-9.14,1.83-3.25,6.21-3.05,9.19-1.79,3.45,1.46,6.36,3.91,10.12,4.64,4.33,.85,8.87-.28,12.5-2.73"/><path class="h" d="M86.87,141.36c.43-3.3-.08-6.89,1.71-9.96,2.05-3.33,6.4-5.38,9.45-2.3"/><path class="h" d="M49.07,133.61c3.33-2.57,2.89-8.41,7.31-9.84,5.24-1.69,8.29,4.41,9.44,8.4,.92,3.21,1.4,6.54,2.45,9.71"/><path class="h" d="M15.34,92.2c6.25,1.99,13.14,1.48,19.08,4.51,2.41,1.23,4.61,3.04,5.75,5.55,1.3,2.87,.97,6.11-.9,8.65-2.22,3.01-5.97,4.25-8.55,6.86"/><path class="h" d="M17.44,61.75c1.19,4.05,3.85,6.76,7.35,8.97,3.06,1.92,6.78,3.48,8.82,6.62s1.34,7.73-2.57,8.77-7.38-2.26-9.71-5.09c-2.3-2.8-4.89-6.32-8.9-6.34"/><path class="h" d="M62.68,21.31c-1.51,3.8-1.76,7.64-1.25,11.74,1.02,5.12,3.84,9.22,6.15,13.83,2.05,4.61,2.05,11.01-3.07,13.32-6.66,3.07-13.32-1.54-17.42-7.17-4.35-6.15-7.68-13.32-15.22-15.74"/><path class="h" d="M135.11,55.21c-5.57-3.52-12.22-4.86-18.71-5.31-7.21-.51-14.47,.61-21.67-.29-5.67-.71-11.41-2.96-14.98-7.63-3.19-4.18-3.01-10.17,1.75-13.08,4.47-2.73,10.55-2.39,14.26-6.43,.49-.54,.92-1.13,1.26-1.78"/><path class="h" d="M94.24,134.17c-9.83,2.99-21.31,2.05-29.29-4.89-7.09-6.16-11.19-17.2-7.06-26.14,1.9-4.11,5.62-6.96,9.94-8.16,5.19-1.44,10.69-.45,15.67,1.33s9.91,4.6,14.91,6.8,10.43,3.87,15.98,3.85c9.67-.02,19.76-6.07,20.93-16.37,.5-4.42-.95-9.06-4.21-12.15-3.72-3.53-8.83-3.97-13.53-2.35-9.29,3.22-15.61,14.53-26.31,13.7-4.79-.37-8.6-3.64-10.93-7.66-2.38-4.11-3.97-9.45-3.11-14.2,.77-4.29,4.06-7.26,8.42-7.54,5.02-.32,9.85,2.5,14.11,4.78,4.98,2.66,10.08,5.09,15.2,7.47,4.89,2.27,9.85,4.84,15.24,5.63,2.54,.37,5.22,.35,7.64-.61"/><path class="h" d="M19.34,103.83c1.86,3.29,4.25,6.67,7.93,8.04,3.11,1.16,7.18,.8,9.57-1.71,3.74-3.94,.07-10.58-1.81-14.52-2.76-5.78-5.77-14.36,.64-18.97,2.89-2.08,6.53-1.46,8.94,1.03,2.72,2.82,3.7,6.89,5.01,10.46,2.6,7.1,7.07,13.88,13.28,18.32,5.56,3.98,13.04,5.85,19.34,2.38,6.2-3.41,9.41-11.12,7.4-17.91-1.03-3.48-3.4-6.5-6.36-8.56-3.52-2.45-7.51-3.05-11.71-2.59-3.84,.42-7.67,1.44-11.44,.08-3.6-1.29-6.1-4.44-7.68-7.81-2.64-5.6-3.72-13.51,.44-18.68,5.08-6.31,13.53-4.01,19.13,.18,3.25,2.43,5.87,5.6,8.52,8.64,2.83,3.25,5.8,6.36,9.04,9.21,5.88,5.18,12.71,10.41,20.46,12.29,3.62,.88,7.57,1,10.97-.74,3.41-1.75,5.41-5.17,6.23-8.82,1.75-7.75-.84-16.01-4.85-22.63-3.8-6.26-9.34-12.34-16.33-14.97-3.21-1.2-6.99-1.75-10.23-.33-3.52,1.55-5.01,5.17-5.12,8.83-.13,4.16,.91,8.44,1.87,12.46,1.03,4.33,2.34,8.59,3.78,12.81,2.86,8.36,6.72,16.22,10.12,24.36,3.1,7.41,5.79,15.63,3.97,23.72-.81,3.63-2.58,6.98-5.2,9.63"/><g class="j"><path d="M79.82,96.13c-.01-.1-.02-.2-.03-.29-.06-1.67-.03-1.37-.24-2.82h0c-.12-1.14-.33-2.43-1.47-2.96-1.51-.8-2.35,.41-2.75,1.74-.15,.71-.14,1.45-.14,2.17-.04,1.5,.08,3.01-.07,4.51-.09,.48-.21,.96-.36,1.43-.01-.01-.03-.03-.04-.04-.01-.02-.03-.04-.04-.06-.41-.72-.11-.05-.45-.99-.28-.91-.16-.53-.29-1.63-.12-1.41-.24-2.81-.39-4.22-.07-.61-.25-1.21-.47-1.78-.08-.22-.14-.47-.32-.64-.1-.07-.13-.09-.14-.1h0c-.27-.23-.74-.26-.98,0-.42,.58-.58,1.35-.58,2.06v.04c-.49,1.62-.75,3.3-.53,4.98,.04,.5,.11,1,.2,1.5-.01-.03-.03-.06-.04-.08-.4-1.07-.65-1.4-.8-1.8-.58-1.25-1.12-2.53-1.77-3.75-.12-.21-.25-.42-.35-.64-.5-1.17-.5-1.01-.78-1.9-.25-1-.66-2.02-1.52-2.64-.48-.41-1.15-.46-1.76-.34-.54,.12-.95,.57-1.13,1.08-.24,.52-.28,.45-.43,1.55l.05-.37c-.06,.24-.12,.48-.14,.73-.14,.75-.13,.74-.19,.96-.15,.81-.44,1.58-.6,2.39-.05,.11,0,0,.05-.1-.2,.45-.32,.93-.43,1.42-.16,.47-.27,.96-.35,1.45-.25,.89-.43,1.79-.67,2.69-.22,.66-.37,1.35-.43,2.04,0,.03,0,0,0-.07-.04,.52-.13,1.04-.09,1.56,.08,1.24,1.23,1.95,2.11,2.66-.54-.8-1.43-1.59-1.3-2.64,.28-1.08,.5-1.84,1.02-2.8,.67-1.34,.75-1.7,1.28-2.83,.04-.13,.08-.24,.12-.34,0,.1,.02,.21,.03,.31,.01,.38-.27,.98-.45,1.42-.54,1.07,.4,1.51,1.35,1.36,.73-.1,1.12-.43,1.65-.62,.1-.03,.24-.06,.4-.09,.36,.99,.6,1.41,.76,1.82,.36,.81,.15,.41,.69,1.57,.1,.16,.22,.3,.33,.45,.04,.06,.09,.12,.13,.18-.02-.03-.02-.03,.02,.03,.54,.85,1.2,1.77,2.21,2.07,1.14,.33,2.43-.54,2.43-1.75-.01-.32-.06-.64-.15-.94-.03-.29-.1-.57-.18-.85,.14,.24,.3,.47,.47,.7,.5,.58,1.14,1.04,1.89,1.2,.76,.13,1.56,.2,2.3-.05,.76-.25,1.41-.81,1.9-1.43,.43-.5,.81-1.04,1.03-1.67,.28-.73,.44-1.49,.47-2.27,0-.84,.06-1.7-.05-2.53Zm-15.34-3.76c.07,.17,.14,.34,.21,.51-.12-.04-.23-.07-.34-.08,.04-.12,.08-.26,.13-.43Zm.4,6.74c-.44,.07-1.01,.2-1.13,.21-.08,.02-.19,0-.29,0,.24-.36,.49-.71,.64-1.12,.18-.43,.17-.91,.22-1.37v-.16c.09,.26,.2,.58,.36,.97l.04,.08c.38,.94,.34,.74,.62,1.38-.15,0-.31,0-.45,.02Zm7.24-8.09s.02,.03,.03,.05c0,.05,0,.02,.01,.14,.29,1.38-.11,3.51-.22,5.27,0,.05-.01,.11-.02,.16-.07-.28-.14-.58-.23-.91-.19-.96-.16-2.88,0-4.42,.09-.13,.19-.26,.3-.37h.06s.02,.04,.02,.05c.02,.02,.04,.03,.04,.04Z"/><path d="M72.64,90.46h-.02c.09,.05,.06,.02,.02,0Z"/><path d="M72.61,90.44h0Z"/></g><path class="j" d="M88.27,90.78c.61-1.16-.72-1.8-1.62-2.12-.63-.22-1.31-.1-1.96-.04-.46,.04-.9,.18-1.34,.33-.37,.08-.75,.13-1.12,.24-.4,.12-.7,.24-.98,.35l.03-.05s-.05,.05-.07,.07c-.39,.16-.72,.32-1.19,.47-.28,.2-.3,.57-.25,.88,0,.3,.09,.53,.37,.65,.17,.44,.82,.72,1.74,1.03,.08,.13,.07,.1,.12,.21,.04,0-.04,.68-.06,.97-.06,.79,0,1.58-.1,2.37-.12,.39-.26,1.98-.36,2.44-.2,1.36-.45,2.86,.19,4.14l.03,.07c.26,.61,.67,1.18,1.27,1.5,1.34,.64,2.59-.06,2.99-1.45,.4-1.69,.14-3.43-.24-5.1-.01-.08-.02-.14-.03-.17-.17-1.32-.17-2.87-.25-4.8,.21-.02,.42-.04,.63-.1,.65-.21,1.21-.63,1.67-1.13,.08-.08,.14-.17,.21-.26,.03-.04,.07-.09,.11-.14,.03-.05,.07-.12,.1-.18,.02-.04,.04-.07,.04-.08,.03-.03,.05-.07,.08-.1Zm-8.19,.52c-.07-.17,0-.29,.01-.44,.02-.14,.05-.32,.15-.39,.03,0,.13,0,.19,0-.24,.35-.34,.63-.33,.86,0,0-.02-.02-.03-.03Zm1.37,.25c-.25-.06-.59-.09-.77-.23-.08-.06-.07-.16-.06-.25,.04-.23,.11-.45,.2-.66,.35-.06,.7-.12,1.04-.17,.69-.09,1.38,0,2.07-.09,.52-.07,1.04,0,1.55,.05h.08c.09,.03,.18,.05,.26,.07-.01,0-.03,.01-.04,.02-.05,.02-.11,.05-.17,.07-.02,0-.04,.01-.06,.02-.12,0-.45,0-.6-.03-1.55-.15-2,.6-2.13,1.69-.12-.13-.26-.24-.41-.32-.34-.18-.91-.13-.97-.17Z"/><path class="j" d="M98.65,95.58c-.06-.71-.25-1.39-.56-2.04-.25-.64-.41-1.33-.81-1.89-.6-.77-1.28-1.5-2.08-2.07-1.2-.68-2.69-.75-4.04-.61-1.14,.29-1.64,1.46-2.17,2.38-.03,.05-.06,.1-.08,.15-.09,.06-.17,.13-.25,.19-1.53,1.42-2.43,3.48-2.64,5.55-.1,.59,.03,1.19,.12,1.77,.1,.66,.21,1.33,.52,1.93,.54,.93,.53,.73,.84,1.2,.72,1.06,1.94,1.64,3.2,1.75,.23-.03,.79,.28,2.04,.12,.85-.2,1.69-.53,2.48-.9,.96-.61,1.85-1.4,2.44-2.38,.12-.17,.39-.83,.5-1.1,.39-.82,.55-1.7,.55-2.61,.02-.48,0-.96-.06-1.44Zm-4.31,2.13l.03-.22c-.14,.65-.04,.47-.48,1.11-.06,.07-.14,.17-.2,.22-.06,.07-.17,.17-.25,.23-.17,.13-.36,.24-.55,.33-.06,.02-.12,.03-.17,.04-.19,.02-.39,.02-.58,.02h-.02c-.26-.06-.52-.14-.78-.21l-.07-.03c-.16-.07-.31-.15-.46-.24-.07-.06-.17-.16-.24-.24-.21-.28-.35-.6-.5-.92-.05-.14-.09-.28-.12-.42-.03-.12-.05-.25-.07-.37,0-.04,0-.07,0-.11v-.06c.08-.43,.13-.87,.29-1.28,.12-.28,.43-.98,.51-1.18,.1-.33,.64-1.25,1.23-2.38,.04-.08,.08-.16,.13-.23,.63,0,.97,.04,1.18,.08,.13,.18,.25,.36,.39,.54,.38,.48,.42,1.11,.58,1.68,.43,1.23,.35,2.29,.15,3.64Zm.56-4.49c.03,.05,.08,.12,.12,.2,0,.02,.02,.04,.03,.06,.48,1.39,.76,1.78,.81,2.56h0c0-.06-.01-.12-.02-.15,0,.03,0,.05,0,.08-.12-.66-.34-1.3-.68-1.89-.26-.43-.43-.9-.7-1.32,.06,.06,.12,.13,.2,.2,.08,.09,.16,.17,.24,.26Z"/><g class="j"><path d="M103.89,122.38l-.04,.02c-.06,.03-.13,.06-.2,.08,.09-.03,.21-.07,.23-.1Z"/><polygon points="97.13 108.71 97.12 108.72 97.13 108.71 97.13 108.71"/><path d="M121.42,111.85c-.17-.26-1.18-1.54-.69-.89l-.14-.17s.01,.01-.05-.07c-.67-.97-.66-.73-1-1.26-.07-.09-.13-.19-.2-.28,.48-.21,.59-.35,.7-.44,.61-.45,1.15-1.02,1.47-1.71,.54-1.13,.35-2.47-.03-3.63-.5-1.46-1.5-1.87-2.91-1.56h0c-1.67,.08-3.97-.4-4.95,1.33-.34,.71-.45,1.49-.53,2.27-.03,.36-.07,.73-.09,1.09-.04-.05-.08-.09-.12-.14-1.15-1.47-3.04-1.78-4.39-.47-.14,.03-.28,.08-.42,.16-.42,.17-.67,.55-.94,.89-.53,.64-.85,1.4-1.19,2.14-.24,.48-.41,.98-.53,1.49-.17-.67-.38-1.33-.82-1.86-1.38-2.11-3.71-1.98-5.79-.99-.59,.26-1.16,.56-1.68,.96-.02,.02-.05,.04-.07,.06l.07-.05c-.06,.04-.12,.09-.18,.13-.05,.04-.07,.06-.08,.06-.16,.12-.31,.24-.47,.36-.55,.53-.55,1.49,0,2.02,.19,.2,.41,.31,.65,.36-.18,.83-.32,1.66-.42,2.5-.04,1.4-.23,2.79-.29,4.18,0,.25,0,.47,0,.67-.22-.46-.27-.65-.69-1.75-.5-1.21-.36-.83-.65-1.68-.12-.42-.3-.83-.41-1.25-.09-.39-.14-.78-.26-1.15-.3-.84-.46-1.76-.99-2.5-1.15-1.74-3.28-2.02-3.75,.36-.24,1.26-.1,2.52,.13,3.77-.21,.58-.43,1.16-.67,1.74-.36,1.27-.71,2.55-1.02,3.84-.12,.44-.18,.9-.24,1.35-.07,.33-.12,.66-.17,1-.23-.67-.88-1.17-2.02-1.25-1.12-.16-2.18,.26-3.21,.63-.83,.24-.95,.29-1.16,.29h-.01c-.12-.07-.25-.14-.36-.21-.1-.07-.2-.13-.3-.2l-.02-.02c-.05-.05-.11-.1-.16-.16l-.02-.03c0-.07,0-.14,0-.21,.01-.02,.03-.05,.04-.07,.32-.38,.73-.67,1.08-1.02,.08-.08,.16-.16,.24-.24,.42-.01,.83-.02,1.24-.08,.59-.07,1.2-.02,1.79-.12,.41-.08,.79-.28,1.16-.47,.7-.38,.98-1.17,.96-1.94,0-.88-.38-1.78-1.18-2.22-.82-.47-1.8-.4-2.66-.08-.75,.24-1.49,.53-2.19,.89-.09,.05-.19,.1-.28,.15-.07-.34-.07-.44-.06-1.24l.03-.22v-.04c.08-.35,.14-.71,.26-1.06,.14-.26,.12-.19,.49-.38,.44-.14,.9-.17,1.35-.25,.51-.15,1.01-.33,1.49-.56,.12-.07,.25-.14,.38-.2,.62,.05,1.23,.13,1.83,.22-.4-.19-.81-.36-1.23-.51,.22-.12,.42-.25,.59-.44,.17-.2-.08,.03-.19,.08-.24,.12-.51,.16-.77,.22h-.04c-.56-.18-1.13-.35-1.7-.51-.78-.17-1.6-.41-2.39-.2-.71,.24-1.34,.7-1.91,1.18-.45,.46-.7,1.07-.79,1.69-.18,1.44-.29,2.89-.23,4.33-.03,.83-.06,1.66-.09,2.49-.1,.43-.12,.87-.04,1.3,0,.09,0,.17,0,.26,0,.63-.04,.31-.13,1.5-.02,.48-.05,.99,.17,1.43,.5,1.24,1.86,1.7,3.11,1.65,.91,.08,1.76-.25,2.56-.64h.01c.46-.12,2.44-.08,3.48-1.05,.23-.23,.41-.48,.56-.73v.08c-.28,1.03,.4,1.94,1.4,2.17,1.52,.28,2.65-1.22,3.04-2.52,.21-.91,.18-1.38,.21-1.73h.03c.24,.04,.67,.1,.84,.1,.03,0,.06,0,.09,0,.11,.39,.21,.79,.39,1.16l.02,.06,.03,.08c.21,.56,.4,1.15,.81,1.61,1.29,1.32,3.33,.52,3.7-1.19,.21,.08,.45,.12,.72,.13,1.42,.25,2.4-.26,3.4-1.23,.12-.1,.24-.21,.36-.31l.07-.05c.19-.11,.38-.21,.58-.3,.19-.07,.36-.12,.59-.23h.01l.04-.02h0c.07-.03,.14-.05,.2-.08,.46-.22,.86-.56,1.16-.97,.24-.27,.35-.62,.49-.95,.17-.41,.33-.83,.4-1.27,.21-.82,.3-1.66,.32-2.5,.64,.73,1.59,1.16,2.56,1.21,1.07,.13,2.2-.01,3.13-.59,.96-.61,1.56-1.51,1.93-2.53,.09,.28,.18,.56,.27,.85,.14,.35,.17,.77,.43,1.06,.28,.41,.81,.55,1.28,.44,.02,.07,.04,.15,.02,.23-.03,.15-.22,.27-.37,.25,.24,.12,.56-.04,.63-.3,.02-.1,.03-.2,.04-.31,.09-.05,.17-.11,.24-.18,.55-.54,.3-1.33,.29-2.02-.02-.77-.18-1.52-.36-2.26,0-.07,0-.14-.01-.21,.14,.04,.29,.06,.45,.05,.03,0,.18,0,.31,0,.2,1.18,.51,2.37,1.41,3.22,.96,.9,2.5,.46,3.26-.49,.71-.96,.33-2.35-.3-3.26Zm-27.95,8.09c.02-.09,.04-.19,.05-.28v.03c.05,.09,.09,.18,.12,.27-.06,0-.12-.01-.17-.01Zm5.08-7.72c-.14,.8-.11,1.05-.31,1.86-.11,.57-.17,1.16-.23,1.74v-.04c-.06-.57-.17-1.13-.25-1.69-.06-.79-.11-1.58-.13-2.37,.22,0,.43,0,.64,0,.1,0,.17,.01,.22,.01,.06,.01,.12,.02,.18,.03-.04,.15-.08,.31-.12,.46Zm.79,9.75h-.02c-.1,0-.26,.01-.42,.02-.04-.19-.05-.39-.08-.77,.1,.11,.2,.22,.32,.32,.13,.11,.26,.21,.39,.3-.07,.05-.13,.1-.19,.13Zm1.96-3.35c0,.06-.01,.11-.02,.17,0,.02,0,.04-.01,.05-.26,.49-.4,.77-.53,.97-.26-.13-.18-.11-.41-.31-.48-.48-.56-.84-.67-1.98-.11-1.36-.3-2.72-.3-4.09-.06-.51-.1-1.01-.1-1.52,.04,.01,.07,.02,.11,.04,.14,.08,.28,.16,.41,.26l.02,.02c.07,.06,.13,.13,.2,.2,.07,.08,.15,.15,.23,.22,.18,.27,.31,.57,.45,.86,.21,.56,.36,1.13,.45,1.72v.02c.15,1.17,.19,1.58,.18,3.37Zm.15-8.71h.02s.07,0,.11,0c.09,.02,.19,.04,.28,.07,.04,.02,.08,.04,.12,.07l.05,.04c.06,.07,.09,.1,.1,.11,.06,.08,.12,.15,.18,.23,.05,.07,.1,.14,.14,.22,.04,.13,.09,.26,.12,.39-.31-.43-.69-.82-1.11-1.13Zm8.77-1.86c.24,.24,.37,.59,.46,.94-.08-.14-.15-.28-.24-.42,.12,1.12,.25,2.31,.24,3.51h0c-.04,.08-.12,.23-.16,.29-.01,.02-.03,.04-.04,.06-.06,.07-.2,.22-.27,.28h0c-.08,.05-.18,.1-.26,.14-.04-.04-.07-.08-.1-.12-.13-.2-.31-.53-.37-.63-.05-.17-.08-.34-.11-.52-.02-.13-.07-.38-.09-.5-.01-.11-.02-.22-.01-.34,.1-1.11,.43-2.18,.95-2.69Zm.81,6.06c-.1,.18-.21,.36-.32,.53-.07,.08-.15,.15-.24,.22-.1,.07-.2,.13-.31,.18h-.01c-.75,.2-.29,.13-1.45,.14-.05,0-.09,0-.14-.01-.05-.01-.1-.02-.14-.04-.09-.04-.21-.11-.3-.16-.04-.04-.08-.08-.12-.12-.13-.18-.24-.38-.32-.58-.03-.07-.05-.12-.06-.15-.3-.75-.2-.83-.29-1.89,.1,.29,.21,.58,.37,.84,.32,.49,.8,1.04,1.34,1.34-.1,.07-.21,.12-.33,.16,.14,.01,.27,0,.41-.02,.05-.01,.1-.02,.15-.03,.42,.17,.88,.17,1.34-.13,.18-.11,.33-.23,.47-.35-.01,.03-.03,.06-.04,.09Zm5.23-2.09c-.04-.47-.09-.92-.15-1.38,.02-.03,.12-.12,.09-.1-.02,.01-.02,.01,0,0,0,0,.03-.02,.04-.03,.44,.1,.57,.42,.69,1.11,.03,.23,.07,.47,.11,.71-.29-.05-.57-.15-.77-.31Zm2.19-5.63s-.07,.06-.09,.08c-.04,.03-.09,.07-.13,.1h0l.07-.05s-.06,.04-.08,.06c-.51,.18-.96,.46-1.39,.79-.02,.01-.04,.03-.09,.05-.38,.18-.64,.51-.76,.91,0,.03,0,.06-.01,.09-.03-1.25,.02-2.5,.34-3.7,.86-.04,1.73,.03,2.59-.05,.04,.14,.07,.29,.09,.43,.02,.19,.02,.39,.01,.58,0,.03-.02,.06-.02,.09-.04,.08-.09,.16-.14,.24-.12,.13-.24,.26-.37,.38Zm1.23,7.55s-.03,.02-.05,.03c-.07-.06-.14-.12-.2-.2-.38-.46-.54-.72-.7-1.12,.19,.2,.37,.4,.55,.6,.06,.06,.11,.13,.17,.2,.08,.12,.16,.24,.22,.36,.01,.04,.02,.07,.03,.11l-.02,.02Z"/></g><path class="j" d="M75.51,111.95c-1.22-.13-1.42,.02-2.24-.28-.9-.51-1.94-.63-2.94-.75-.44-.01-.93-.29-2.06,0-2.24,.81-1.58,4.61,1.01,4,.16-.02,.32-.06,.48-.1,0,1.83,.07,3.66-.09,5.48-.17,2.14-.62,4.26-.51,6.42,.01,.97,.06,2.04,.76,2.79,1.23,1.3,2.94,.48,3.4-1.08,.3-1.04,.07-2.14,.06-3.21-.01-1.38-.02-2.45-.17-3.85-.14-1.55-.26-3.14-.58-4.67,0-.52,0-1.04,0-1.56,0-.06,0-.13,0-.2,.69,.03,1.39-.05,2.08-.07,.81-.08,1.85-.07,2.27-.9,.58-1.41-.03-1.97-1.45-2.02Zm-1.23,2.21c-.55,.14-1.1,.34-1.66,.47,0-.34,.01-.69-.02-1.03,.2,.04,.42,.08,.53,.09,.34,.06,.69,.07,1.03,.02,.5-.05,.89-.16,1.62-.17-.01,.02-.02,.04-.03,.05-.39,.26-.93,.39-1.48,.56Z"/><path class="j" d="M67.87,118.72c-.21-.74-.47-1.46-.82-2.15-.14-.24-.3-.45-.46-.67,.01,.01,.03,.03,.04,.04-1.13-1.75-1.5-4.76-4.01-4.99-.74-.11-1.46,.22-2.09,.57-.59,.38-1.14,.83-1.55,1.41-.53,.65-.95,1.38-1.34,2.12-.55,1.21-.88,2.51-.98,3.83-.38-.89-.9-1.73-1.48-2.5-.57-.68-1.37-1.16-2.19-1.49-.02,0-.03-.01-.05-.02,.42-.18,.82-.41,1.16-.73,.35-.35,.51-.8,.5-1.25,.23-.99,.17-2.09-.52-2.85-.33-.29-.79-.34-1.21-.42-1.03-.17-2.09-.17-3.07,.18-.11,.04-.36,.1-.48,.13-2.04,.07-2.7,1.74-3.06,3.51-.24,.86-.17,1.74-.07,2.62,.02,1.34,.06,2.67,.16,4,.04,1.05,.02,2.1,.03,3.15,.03,.81-.09,1.66,.2,2.43,.82,2.35,3.36,3.06,5.54,2.16,.72-.25,1.35-.69,1.95-1.16,0,0,.04-.03,.12-.09,.48-.35,.95-.73,1.28-1.22,.54-.83,1.17-1.62,1.53-2.55,.03-.09,.05-.18,.07-.27,.07,.27,.14,.54,.19,.82,.67,2.77,2.45,5.64,5.69,5.29,1.85-.11,3.4-1.38,4.39-2.88,.44-.81,.68-1.72,.99-2.59,.43-1.49,.16-3.04-.45-4.44Zm-17.49,6.61c-.12,0-.25,0-.37-.01l-.16-.03-.12-.04c-.06-.03-.11-.06-.16-.09-.04-.04-.07-.08-.11-.12v-.02c-.08-.1-.14-.2-.2-.31,0-.02-.01-.05-.02-.07,0-.04,0-.08,0-.12,.5,.06,1,.09,1.51,.09,.39,.02,.77,.07,1.16,.08-.29,.21-.71,.48-1.38,.61-.05,.01-.1,.02-.15,.03Zm3.15-3.86c0,.31-.04,.62-.07,.93v.04c-.08,.49-.31,.81-.44,1.02-.56,.33-1.59,.5-2.39,.63-.46,.11-.93,.2-1.39,.27,0-.19,0-.39,0-.58,.01-1.53,.02-3.06-.1-4.59,.79,.36,1.69,.44,2.53,.21,.15-.04,.49-.1,.64-.13,.08,0,.16-.01,.24-.01,.1,.03,.29,.08,.43,.13,.04,.02,.08,.05,.12,.08,.07,.06,.13,.13,.2,.2l.04,.06c.08,.23,.13,.46,.16,.69,.04,.35,.04,.71,.03,1.06Zm.06-10.69c.32,.26,.51,.62,.62,1.01-.08-.1-.17-.2-.27-.28-.46-.39-1.02-.62-1.6-.73,.14-.01,.28-.03,.43-.04,.34-.02,.8-.04,.83,.04Zm10.11,1.89c.41,.31,.81,.76,1.22,1.26-.87-.85-1.67-1.06-3.34-1,.58-.51,1.33-.83,2.12-.27Zm2.47,8.8c-.24,1.14-.19,.71-.64,1.81-.35,.83-.62,1.18-.64,1.18-1.23,1.25-1.55,1.2-2.11,1.32-.19,.01-.39,.01-.58,0-.03,0-.07-.01-.1-.02-.09-.03-.18-.06-.27-.1-.1-.05-.2-.1-.3-.16-.15-.13-.3-.27-.43-.43-.18-.33-.66-.94-.9-1.91-.19-.58-.29-1.17-.44-1.76-.11-.35-.24-.69-.31-1.05-.05-.73-.08-1.46-.06-2.18v-.05c.04-.14,.12-.59,.14-.76,.2-1.22,.27-1.33,.55-2.02,.14-.4,.33-.8,.85-1.7,.14-.19,.32-.4,.52-.59,.7,.18,1.42,.34,2.05,.71,.83,.65,1.14,1.78,1.74,2.71,.06,.09,.19,.38,.26,.53,.39,1.17,.31,1.34,.47,2.27,.17,.89,.26,1.14,.25,1.43,.02,.15,0,.52-.03,.75Z"/><path class="j" d="M44.63,106.67c-.13-.69-.25-1.43-.72-1.98-.51-.53-1.4-.59-1.97-.12-.56,.43-.82,1.13-1.25,1.68-.44,.74-1.03,1.39-1.36,2.18-.6,1.5-.32,1.21-.61,2.57-.16,.6-.3,.72-.77,1.92-.54,1.37-.41,1.14-1.11,2.65-.5,.96-.94,1.98-1.01,3.07-.05,.59-.08,1.2,.21,1.73,.57,1.02,1.9,1.3,2.86,.67,1.2-.88,2.06-2.22,2.54-3.63,0-.03,.01-.06,.02-.09,.08-.03,.16-.08,.22-.14,.09-.07,.16-.14,.23-.23,0,.02,0,.05,0,.07,.04,.39,.11,.78,.23,1.15,.02,.09,.07,.19,.17,.23,.09,.02,.08-.12,.07-.17-.02-.28-.02-.06-.05,.05-.2-.49,.18-2.3,.25-3.26,.06-.31,.09-.63,.11-.95l.05-.09c0,.43,0,.87,0,1.3,.1,1.79,.17,3.58,.49,5.35,.14-1.7,.47-3.32,.75-5.14,.27-1.31,.53-2.62,.6-3.96,.1-1.62,.39-3.25,.04-4.85Zm-2.72,2.97s.02-.04,.02-.06c.16-.27,.33-.54,.5-.81,.05,.52,.08,1.16,.12,1.82-.26-.13-.56-.16-.86-.13,.05-.31,.11-.59,.21-.83Z"/><path class="j" d="M37.91,101.98c-.75-.42-1.58-.63-2.42-.73-.68-.13-1.38-.2-2.07-.05-2.5,.44-3.09,3.31-3.17,5.46-.1,1.25,.7,2.28,1.68,2.99,.13,.17,.27,.33,.41,.49,.57,.67,1.31,1.15,1.91,1.79,.07,.11,.13,.24,.19,.36,.04,.1,.09,.24,.12,.35,0,.15,0,.31,.01,.46,0,.02,0,.04,0,.06l-.03,.11c-.03,.08-.05,.14-.06,.17h0c-.1,.24-.18,.42-.25,.58-.03,.03-.05,.05-.08,.08l-.04,.03c-.42,.26-.84,.52-1.29,.73-.11,.04-.23,.07-.35,.1-.07,0-.14,0-.2,0-.03,0-.08-.02-.14-.04-.25-.11-.43-.16-.75-.44-.2-.09-.58-.92-.65-1.12-.02-.04-.03-.07-.05-.11l-.03-.06c-.29-.7-.12-1.43-.41-2.5-.22-.42-.85-.64-1.21-.27-.76,.86-.91,2.19-.45,3.24-.13,.54-.18,1.09-.11,1.63,.2,1.5,1.74,2.35,3.12,2.53,1.75,.38,2.54-.52,3.73-1.52l.03-.02c1.56-.77,2.13-2.54,2.28-4.17,.04-.84,.08-1.76-.4-2.49-.57-.79-1.46-1.31-2.35-1.68-.25-.1-.5-.18-.75-.28-.05-.02-.1-.05-.17-.09-.01,0-.03-.02-.04-.03-.05-.06-.1-.13-.16-.2l-.05-.07c-.02-.07-.04-.14-.06-.22v-.04c.1-.47,.22-.93,.38-1.38,.01-.02,.02-.04,.03-.06,.03,0,.06,0,.09,0,.19-.02,.69,0,.89,0,.15,.04,.3,.09,.45,.13,.09,.03,.18,.05,.26,.08l.08,.05c.11,.08,.22,.16,.32,.24,.11,.1,.21,.21,.32,.31,.42,.69,.22,.44,.49,.97,.17,.27,.33,.5,.62,.68,1.29,.65,2.2-.1,2.6-1.35,.63-2.06-.63-3.59-2.26-4.69Zm-9.31,11.14c.01-.64,.28-1.35,.68-1.8-.03,.26-.06,.52-.08,.78-.25,.42-.45,.88-.59,1.36-.01-.11-.02-.23-.01-.34Zm.56-.61c-.04,.5-.01,1,.12,1.48,.13,.7,.37,1.38,.86,1.91,.04,.04,.08,.08,.13,.13-.32-.14-.58-.35-.83-.61-.45-.76-.49-1.91-.28-2.91Z"/><path class="h" d="M60.84,104.73l3.14-13.81c2.23,3.98,4.17,8.13,5.77,12.4"/><path class="h" d="M71.83,91.2c-.14,2.82,.16,5.66,.89,8.38,.16,.61,.35,1.22,.72,1.73s.94,.91,1.57,.92c.66,0,1.27-.43,1.63-.99s.51-1.22,.62-1.87c.47-2.79,.27-5.65,.07-8.47"/><path class="h" d="M83.09,90.52l.58,12.17"/><path class="h" d="M79.98,90.79l7.51-.38"/><path class="h" d="M93.51,90.96c-1.66-.47-3.51,.44-4.47,1.87s-1.16,3.27-.94,4.98c.15,1.13,.5,2.31,1.35,3.07,1.3,1.18,3.47,.98,4.83-.13,1.36-1.11,1.99-2.92,2.08-4.67,.06-1.18-.1-2.39-.66-3.43s-1.56-1.87-2.19-1.69Z"/><path class="h" d="M37.86,106.15c.01-1.49-1.12-2.92-2.58-3.25s-3.09,.48-3.72,1.83-.19,3.12,1.01,4.02c.65,.49,1.45,.73,2.1,1.2,1.35,.99,1.79,3.03,.97,4.49s-2.8,2.13-4.35,1.48-2.44-2.54-1.97-4.15"/><path class="h" d="M37.25,119.24c1.65-3.64,3.29-7.27,5.14-10.9l.35,13"/><path class="h" d="M39.94,114.39l2.64,1.11"/><path class="h" d="M48.6,125.91c-.31-4.83-.61-9.67-.7-13.8,1.48-.53,3.06-.79,4.63-.76,.58,.01,1.22,.09,1.58,.54,.3,.38,.31,.93,.13,1.38s-.54,.81-.91,1.12c-1.28,1.08-2.92,1.73-4.59,2.57,1.78-1.07,4.31-.68,5.68,.88,1.37,1.56,1.43,4.12,.14,5.74-1.29,1.63-3.79,2.14-5.95,2.33Z"/><path class="h" d="M64.24,113.89c-.63-.92-2-1.1-3.01-.64s-1.72,1.41-2.22,2.41c-1.39,2.8-1.35,6.26,.09,9.03,.71,1.37,1.97,2.67,3.51,2.61,1.39-.06,2.5-1.22,3.16-2.46,1.91-3.55,.63-7.83-1.53-10.95Z"/><path class="h" d="M71.48,113.07l.03,16.08"/><path class="h" d="M68.26,113.01l7.81-.04"/><path class="h" d="M79.75,112.69c-.16,4.16-.33,8.31-.44,12.09l7.44-.65"/><path class="h" d="M80.06,118.62l5.18-.68"/><path class="h" d="M79.9,112.89l6.16-.83"/><path class="h" d="M89.26,125.03c.53-4.51,1.06-9.02,2.31-12.99l4.41,13.31"/><path class="h" d="M90.2,120.5l4.28-.53"/><path class="h" d="M62.85,98.43l4.59-1.02"/><path class="h" d="M98.92,122.22c-.79-4.28-1.05-8.65-.66-12.23,.73-.34,1.48-.69,2.28-.78s1.68,.13,2.2,.75c.48,.58,.56,1.38,.62,2.13l.43,5.44c.05,.68,.1,1.38-.13,2.02-.31,.85-1.1,1.45-1.96,1.76s-1.77,.37-2.78,.91Z"/><path class="h" d="M110.53,106.98c-.87-.43-1.98,.09-2.52,.91s-.65,1.83-.73,2.8c-.09,.96-.16,1.96,.12,2.88s1.01,1.78,1.97,1.92c1.29,.19,2.43-.94,2.89-2.16,.85-2.25,.23-5.37-1.73-6.35Z"/><path class="h" d="M115.98,116.6c-.08-4.13-.16-8.27-.01-11.94,1.12-.61,2.49-1.23,3.61-.61,1.14,.62,1.34,2.29,.71,3.43-.76,1.38-2.53,2.12-4.05,1.67"/><path class="h" d="M118.38,109.08c.65,1.99,1.7,3.84,3.08,5.41"/><path class="f" d="M95.05,46.72c-2.14-.32-4.4,.21-6.17,1.46s-3.04,3.19-3.46,5.32c-.31,1.54-.15,3.24,.79,4.5,.88,1.19,2.36,1.84,3.83,2.02s2.97-.09,4.41-.42c2.21-.5,4.47-1.22,6.14-2.76s2.6-4.08,1.67-6.15c-.58-1.29-1.78-2.21-3.09-2.76s-2.66-1-4.12-1.22Z"/><path class="g" d="M94.53,51.51c-.96-.08-1.95,.28-2.65,.94-.37,.36-.68,.88-.54,1.38,.1,.36,.41,.63,.76,.76s.73,.14,1.1,.12c.63-.03,1.28-.16,1.8-.51s.9-.98,.82-1.61-.72-1.17-1.28-1.09Z"/><path class="f" d="M64.07,54.26c-.77-1.88-2.55-3.41-4.38-4.24s-3.92-.96-5.92-.7c-2.51,.33-5.19,1.52-6.12,3.88-.79,2.01-.03,4.39,1.47,5.94,1.5,1.55,3.62,2.35,5.75,2.72,1.66,.29,3.39,.32,5-.16s3.1-1.54,3.86-3.04c.76-1.5,.84-3.09,.33-4.4Z"/><path class="g" d="M57.44,54.81c-.5-.46-1.18-.71-1.85-.69s-1.34,.3-1.82,.78c-.39,.39-.66,.98-.48,1.5,.18,.5,.7,.79,1.2,.97,.63,.23,1.32,.36,1.98,.24s1.29-.55,1.52-1.18-.15-1.24-.56-1.61Z"/><path class="f" d="M104.14,77.45c1.76-.27,2.11-2.5,.66-2.86-1.31-.32-6.38-.73-10.02-.58-14.85,.63-29.7,1.25-44.55,1.88-1.23,.05-2.52,.12-3.56,.78s-1.66,2.13-.99,3.16c.67,1.03,2.13,1.07,3.35,1.01,18.47-.99,36.42-.57,55.11-3.39Z"/><path class="f" d="M47.61,78.33c18.86-.81,56.58-2.42,56.58-2.42"/></g></g></g></svg>