<?xml version="1.0" encoding="UTF-8"?><svg xmlns="http://www.w3.org/2000/svg" xmlns:xlink="http://www.w3.org/1999/xlink" viewBox="0 0 184.63 170.52"><defs><style>.e{fill:#fff;}.f{clip-path:url(#d);}.g{fill:none;}</style><clipPath id="d"><circle class="g" cx="104.74" cy="77.45" r="77.45"/></clipPath></defs><g id="a"/><g id="b"><g id="c"><g class="f"><circle class="e" cx="104.74" cy="77.45" r="77.45"/><g><path class="e" d="M82.37,60.54c-.58,.6-1.15,1.23-1.76,1.81-2.42,2.31-4.97,4.44-7.81,6.21-.17,.11-.37,.15-.56,.23,1.5-1.42,2.98-2.82,4.62-3.99,1.74-1.25,3.13-2.82,4.58-4.35,.47-.49,.93-1.07,1.15-1.7,1.16-3.19,1.84-6.48,1.95-9.88,0-.29-.08-.59-.15-1.15-.64,.82-1.07,1.45-1.57,2.01-1.88,2.07-3.61,4.26-5.93,5.92-1.57,1.13-2.91,2.59-4.35,3.9-.66,.6-1.39,1.14-1.99,1.79-1.68,1.82-3.34,3.63-4.73,5.71-1.25,1.86-2,3.89-2.64,5.99-.26,.85-.6,1.75-.55,2.6,.09,1.4-.46,2.22-1.45,3.17-2.56,2.44-4.89,5.12-6.87,8.06-2.02,3-4.22,5.88-5.88,9.11-1,1.95-2.19,3.81-2.54,6.03-.13,.8-.26,1.6-.44,2.4-.45,1.99-.2,3.87,.69,5.69,.17,.34,.3,.7,.4,.93-.81,.3-1.59,.4-2.11,.82-1.1,.89-2.16,1.87-3.07,2.95-2.57,3.01-4.76,6.29-6.64,9.76-.47,.88-.82,1.75-1.99,1.79-.15,0-.29,.13-.44,.2-2.22,.91-4.41,1.89-6.66,2.72-4.92,1.82-9.85,3.61-14.44,6.17-1.81,1.01-3.59,2.09-4.97,3.69-1.75,2.03-3.53,4.04-5.23,6.11-.89,1.08-1.27,2.36-.71,3.76,.8,2,1.97,3.7,4.04,4.63-.12,1.15-.24,2.32-.38,3.48-.06,.5,.08,.82,.53,1.11,1.34,.83,2.62,1.78,3.99,2.57,2.96,1.72,6.13,3.01,9.41,3.98,2.8,.83,5.65,1.51,8.51,2.13,2.57,.56,5.13,1.18,7.75,1.55,4.6,.66,9.23,.78,13.85,1.16,.69,.06,1.38-.02,2.07,.03,.63,.05,1.26,.18,1.89,.28,1.52,.22,3.05,.64,4.56,.6,1.08-.03,2.15-.66,3.2-1.09,1.16-.48,2.28-1.06,3.44-1.56,1.75-.76,3.5-1.53,5.28-2.23,1.14-.45,1.86-1.29,2.41-2.33,.47,.63,.84,1.27,1.35,1.78,4.37,4.32,11.62,3.17,15.24-.17,.15-.14,.28-.3,.4-.46,1.68-2.25,2.86-4.71,3.22-7.52,.04-.34,.15-.66,.22-.95,.57,0,1.02,.09,1.41-.02,1.64-.46,3.27-.98,4.9-1.47,.31-.1,.7-.12,.91-.32,.41-.39,.86-.38,1.35-.37,1.22,.03,2.34-.29,3.29-1.08,.62-.52,1.34-.72,2.1-.89,1.61-.36,3.23-.67,4.78-1.3,2.63-1.06,5.32-1.99,7.98-3,7.27-2.76,14.78-4.72,22.33-6.5,.86-.2,1.68-.49,2.33-1.09,.51,.21,.63,.54,.33,.97-.38,.53-.78,1.03-1.18,1.55-.42,.55-.92,1.05-1.24,1.65-.6,1.09-.23,2.11,.9,2.61,.52,.22,1.08,.37,1.63,.48,1.34,.29,2.68,.23,3.98-.19,1.97-.64,3.92-1.32,5.86-2.02,.46-.17,.98-.43,.84-1.17-2.56,.08-5.05,.65-7.56,.49-.21-1.09,.44-1.65,.94-2.27,.42-.52,.99-.18,1.49-.18,2.36-.02,4.7-.04,6.94-.98,2.97-1.26,5.53-3.11,7.76-5.39,1.88-1.92,3.11-4.18,2.73-7.02l-.02,.02c.5-.12,1.04-.16,1.49-.38,2.38-1.14,4.75-2.31,7.11-3.48,.18-.09,.48-.21,.48-.33,.04-.68,.6-.64,1.01-.82,2.18-.97,3.77-2.53,4.57-4.8,.17-.49,.54-1.1,.07-1.62-.51-.56-1.04,.03-1.67,.09,0-.64,.03-1.25,0-1.85-.09-1.42-.17-2.84-.33-4.25-.15-1.33-.83-2.27-2.22-2.55-.83-.16-1.67-.32-2.51-.44-.95-.13-1.9-.22-3-.34,.58-.8,1.25-1.03,1.93-1.06,2.98-.14,5.64,.57,7.55,3.1,.71,.94,1.44,1.86,2.14,2.8,.3,.4,.58,.87,1.15,.75,.59-.12,.58-.7,.71-1.17,.22-.8,.16-1.59,.02-2.41-.29-1.64-.99-3.1-1.83-4.49-1.06-1.73-2.43-3.14-4.41-3.84-.96-.34-1.89-.74-2.83-1.11-1.28-.51-2.61-.93-3.84-1.54-2.71-1.35-4.62-3.5-5.98-6.2-1.04-2.06-2.05-4.15-3.76-5.8-1.38-1.33-2.71-2.66-4.73-2.9,.84-3.1,.82-6.18,.22-9.22-.8-4.07-2.29-7.95-3.82-11.81-1.4-3.55-3.43-6.72-5.72-9.75-.93-1.23-1.79-2.54-2.86-3.63-.62-.62-.93-1.25-1.12-2.05-.16-.66-.39-1.31-.67-1.93-.44-.96-1.08-1.84-1.43-2.82-.85-2.4-2.47-4.26-4.03-6.18-.27-.33-.66-.57-1.1-.93-.31,.45-.55,.81-.79,1.17-.96,1.41-1.9,2.83-2.88,4.22-.32,.46-.73,.82-1.42,.86,.72-.85,1.43-1.57,1.99-2.4,.59-.87,1.05-1.83,1.54-2.76,.15-.28,.27-.6,.31-.91,.37-2.74-.17-5.17-2.44-7-.06-.05-.12-.11-.19-.16-1.29-1.06-2.58-2.11-3.86-3.17-2.84-2.36-5.63-4.79-8.55-7.05-2.27-1.76-4.67-3.38-7.09-4.93-4.14-2.64-8.7-4.18-13.59-4.66-.87-.09-1.77-.04-2.65,.05-1.01,.11-1.99,.38-3,.49-3.18,.37-6.19,1.32-9.12,2.55-.52,.22-1.01,.53-1.47,.86-1.69,1.22-2.66,2.93-3.17,4.91-.22,.85-.33,1.74-.5,2.65-.38,0-.74,.02-1.1,0-1.72-.12-3.18,.47-4.45,1.62-1.59,1.43-2.56,3.24-3.13,5.27-.16,.57-.26,1.31-.01,1.78,.29,.57,.31,1.03,.19,1.59-.06,.29-.01,.61-.01,.84,.65,.11,1.29,.03,1.63,.31,1.13,.93,2.49,1.36,3.78,1.93,1.83,.81,3.7,1.19,5.75,.25l.31,1.41c-2.99-.13-3.73,.48-5.27,1.53-2.07,1.42-3.42,3.03-3.54,4.1,.92,.32,1.92,.46,2.95,1.21l-1.66-.29c1.44,1.37,2.55,2.67,4.28,3.13,1.81,.48,3.52,.08,5.2-.73,.76,5.73-.19,11.13-2.33,16.37l.04-.04Zm61.32,88.32l.34,.28,.49-.67-.28-.22-.56,.61Z"/><path d="M166.04,128.45c.38,2.84-.85,5.1-2.73,7.02-2.23,2.28-4.8,4.13-7.76,5.39-2.23,.94-4.58,.97-6.94,.98-.5,0-1.07-.34-1.49,.18-.5,.62-1.15,1.18-.94,2.27,2.51,.16,5.01-.41,7.56-.49,.14,.75-.38,1.01-.84,1.17-1.94,.71-3.9,1.39-5.86,2.02-1.3,.42-2.64,.48-3.98,.19-.55-.12-1.11-.26-1.63-.48-1.14-.5-1.51-1.51-.9-2.61,.33-.6,.83-1.1,1.24-1.65,.39-.51,.8-1.02,1.18-1.55,.3-.43,.18-.76-.33-.97-.65,.61-1.47,.89-2.33,1.09-7.56,1.79-15.06,3.74-22.33,6.5-2.66,1.01-5.35,1.94-7.98,3-1.55,.63-3.17,.94-4.78,1.3-.76,.17-1.48,.38-2.1,.89-.94,.79-2.06,1.11-3.29,1.08-.49-.01-.94-.02-1.35,.37-.21,.2-.6,.22-.91,.32-1.63,.5-3.25,1.02-4.9,1.47-.39,.11-.84,.02-1.41,.02-.07,.28-.18,.61-.22,.95-.37,2.81-1.55,5.27-3.22,7.52-.12,.16-.25,.32-.4,.46-3.62,3.34-10.87,4.49-15.24,.17-.51-.51-.88-1.15-1.35-1.78-.55,1.04-1.27,1.88-2.41,2.33-1.78,.7-3.53,1.47-5.28,2.23-1.15,.5-2.28,1.08-3.44,1.56-1.05,.43-2.12,1.06-3.2,1.09-1.51,.05-3.04-.37-4.56-.6-.63-.09-1.26-.23-1.89-.28-.69-.05-1.38,.03-2.07-.03-4.62-.38-9.25-.5-13.85-1.16-2.62-.37-5.18-1-7.75-1.55-2.86-.62-5.71-1.3-8.51-2.13-3.27-.97-6.44-2.26-9.41-3.98-1.37-.79-2.64-1.74-3.99-2.57-.45-.28-.59-.61-.53-1.11,.14-1.16,.26-2.33,.38-3.48-2.07-.93-3.24-2.62-4.04-4.63-.56-1.4-.18-2.68,.71-3.76,1.7-2.08,3.48-4.08,5.23-6.11,1.38-1.6,3.16-2.69,4.97-3.69,4.59-2.56,9.52-4.35,14.44-6.17,2.25-.83,4.44-1.81,6.66-2.72,.15-.06,.29-.19,.44-.2,1.17-.05,1.52-.91,1.99-1.79,1.88-3.48,4.07-6.76,6.64-9.76,.92-1.08,1.97-2.06,3.07-2.95,.52-.42,1.3-.52,2.11-.82-.1-.23-.23-.59-.4-.93-.89-1.82-1.14-3.71-.69-5.69,.18-.79,.32-1.59,.44-2.4,.35-2.22,1.54-4.09,2.54-6.03,1.66-3.23,3.86-6.11,5.88-9.11,1.98-2.94,4.31-5.62,6.87-8.06,.99-.94,1.55-1.77,1.45-3.17-.06-.85,.29-1.75,.55-2.6,.64-2.1,1.38-4.12,2.64-5.99,1.39-2.08,3.06-3.89,4.73-5.71,.6-.65,1.33-1.19,1.99-1.79,1.44-1.31,2.78-2.77,4.35-3.9,2.32-1.66,4.05-3.86,5.93-5.92,.51-.56,.93-1.18,1.57-2.01,.08,.56,.16,.86,.15,1.15-.11,3.4-.79,6.69-1.95,9.88-.23,.63-.69,1.21-1.15,1.7-1.45,1.53-2.84,3.1-4.58,4.35-1.64,1.18-3.12,2.58-4.62,3.99,.19-.07,.39-.12,.56-.23,2.84-1.77,5.39-3.9,7.81-6.21,.61-.58,1.17-1.2,1.76-1.81-.15,.58-.29,1.17-.47,1.75-.67,2.25,.02,4.99,1.67,6.08,.87,.57,1.85,1.08,2.85,1.33,2.3,.57,4.66,.75,7.01,.4,1.36-.2,2.69-.67,4.05-.78,4.15-.36,7.73-2.15,11.06-4.44,2-1.37,3.84-3,5.6-4.67,.89-.84,1.63-1.96,2.11-3.09,1.64-3.9,2.81-7.95,3.47-12.14,.37-2.33,.67-4.66,.49-7.02-.03-.35,.01-.78-.17-1.04-.42-.59-.31-1.11-.08-1.66,2.01-.23,3.67-1.8,3.6-3.39-.39,.54-.73,1.07-1.13,1.57-1.08,1.35-3.05,1.37-3.98,.03-.77-1.11-1.13-3.65,.14-4.9,.51-.5,.86-1.18,1.21-1.81,.48-.87,.55-1.76-.08-2.63-.87-1.22-1.63-2.53-2.56-3.7-1.7-2.13-3.67-3.91-6.44-4.55-1.59-.37-3.18-.83-4.79-.25-1.75,.63-3.42,1.43-4.53,3.02-.53,.77-1.14,1.49-1.58,2.31-.5,.92-.89,1.91-1.25,2.9-.37,1.02-.63,2.09-.94,3.13l.03-.03-.64,2.54c-.35-.31-.69-.59-.99-.9-2.25-2.27-5.58-2.01-7.52-.84-2.02,1.21-3.4,2.98-4.53,4.97-.37,.66-.61,1.39-1,2.3,.34-.21,.44-.26,.54-.33,.13-.09,.25-.2,.37-.3-.27,.67-.55,1.34-.82,2l.03-.03c-1.15-.44-2.32-.41-3.45,0-1.89,.7-3.29,2.03-4.5,3.6-.03,.04,.01,.15,.03,.31,1.29-.23,2.44,.17,3.58,.74,.59,.3,1.33,.44,1.99,.42,1.19-.04,2.43-.12,3.28-1.13-.22-.92-.42-1.77-.62-2.63,3.97,5.27,7.89,5.45,11.19,4.21,1.74-.65,2.9-1.91,3.86-3.39,1.06-1.65,2.2-3.31,1.61-5.45-1.29-.81-2.55-1.71-3.9-2.43-1.62-.85-3.3-1.55-5.23-1.28-2.22,.31-3.93,1.45-5.36,3.1-.58,.67-1.17,1.33-1.75,1.99,1.01-2.77,2.66-4.99,5.35-6.33,2.23-1.11,4.31-.89,6.25,.68,.32,.25,.6,.54,.92,.8,1.13,.93,2.25,1.86,3.4,2.77,.21,.16,.5,.22,.76,.32l.12-.22-2.7-2.21c.53-.12,.92-.01,1.32,.01,1.7,.1,3.22,.78,4.73,1.47,.76,.35,.77,.86,.04,1.32-.41,.26-.86,.47-1.26,.74-1.55,1.03-2.73,2.35-3.15,4.02,.85,.6,1.56,1.09,2.26,1.6,.85,.63,1.66,1.31,2.53,1.9,.67,.45,1.37,1,2.12,1.13,2.53,.41,5.21-.65,6.25-2.96,.46-1.02,1.19-1.91,1.81-2.88-1.04-1.1-2.06-2.16-3.51-2.69l2.48,2.24-.75,.85,.68,.27c-.55,.96-1.04,1.9-1.61,2.78-.3,.46-.68,.92-1.13,1.23-1.39,.97-2.99,1.29-4.5,.51-1.58-.81-3.07-1.83-4.44-2.96-.5-.42-.88-1.04-1.57-1.28,.26-1.31,1.12-2.11,2.01-2.88,2.22-1.91,4.76-2.3,7.51-1.55l.29-.56c.95-.1,1.81-.11,2.62-.3,1.28-.3,2.42-.93,3.46-1.73,.2-.15,.46-.23,.73-.37,.54,1.87,.61,3.86,2.7,4.87-.51,.88-.95,1.7-1.44,2.48-.26,.41-.59,.78-.9,1.15-.39,.45-.27,.78,.3,1.16l1.46-2.43c-.13,1.72-.47,3.16-1.28,4.46-.21,.34-.26,.59,.28,.8,1.14-1.07,.86-2.78,1.64-4.15,.16,1.99,.09,3.83-.49,5.65-.52,0-.97,0-1.41,0,.06-.45,.31-.96-.38-1.16-1.61,1.05-1.65,1.72-.21,2.55l.61-1.43,1.32,.46c.05,2.41-1.04,4.56-1.39,6.78-.88-.25-1.6-.45-2.32-.64-.82-.9-1.64-1.8-2.52-2.76l-2.2,2.4c.68,1.26,1.32,2.45,2.03,3.77,.48-.62,.87-1.04,1.17-1.52,.33-.53,.75-.57,1.25-.33,.42,.2,.83,.42,1.25,.64l.11-.18-1.96-1.19,.91-.85,1.94,1.04c-.75,5.51-3.9,9.18-8.36,12.02-.46-1.23-1.16-2.24-2.29-2.89,1.27-1.24,1.38-1.24,3.42-.01-.39-.8-1.05-1.03-1.81-1.23l.82-.96c-.77-1.84-1.51-3.61-2.3-5.5l-2.99,1.81c1.11,2.07,1.88,4.08,2.43,6.27,1.11,.49,1.76,1.23,2.36,2.8-.92,.92-2.09,1.5-3.26,2.04-2.79,1.27-5.73,2.02-8.74,2.57-2.62,.48-5.23,.67-7.86,.2-2.05-.37-3.89-1.07-5.2-2.83-1.1-1.48-1.14-2.81,.02-4.16l-.52-.14c.08-.46,.56-.97-.07-1.45l-.71,.35c2.14-5.24,3.09-10.64,2.33-16.37-1.68,.81-3.39,1.21-5.2,.73-1.73-.46-2.84-1.76-4.28-3.13l1.66,.29c-1.04-.76-2.04-.89-2.95-1.21,.12-1.07,1.46-2.68,3.54-4.1,1.54-1.05,2.27-1.67,5.27-1.53l-.31-1.41c-2.05,.94-3.92,.56-5.75-.25-1.29-.57-2.65-1-3.78-1.93-.34-.28-.98-.2-1.63-.31,0-.23-.05-.55,.01-.84,.12-.56,.1-1.02-.19-1.59-.24-.48-.14-1.22,.01-1.78,.56-2.03,1.54-3.84,3.13-5.27,1.26-1.14,2.72-1.73,4.45-1.62,.36,.02,.73,0,1.1,0,.17-.91,.28-1.8,.5-2.65,.51-1.98,1.48-3.69,3.17-4.91,.46-.33,.95-.64,1.47-.86,2.93-1.23,5.94-2.19,9.12-2.55,1.01-.12,1.99-.39,3-.49,.88-.09,1.78-.14,2.65-.05,4.89,.48,9.45,2.02,13.59,4.66,2.43,1.55,4.82,3.17,7.09,4.93,2.92,2.26,5.7,4.7,8.55,7.05,1.28,1.06,2.57,2.11,3.86,3.17,.06,.05,.12,.11,.19,.16,2.27,1.83,2.81,4.26,2.44,7-.04,.31-.16,.63-.31,.91-.49,.93-.95,1.89-1.54,2.76-.56,.82-1.27,1.55-1.99,2.4,.69-.04,1.1-.41,1.42-.86,.98-1.4,1.92-2.81,2.88-4.22,.24-.36,.48-.72,.79-1.17,.44,.36,.83,.6,1.1,.93,1.55,1.92,3.18,3.78,4.03,6.18,.35,.99,.98,1.87,1.43,2.82,.29,.62,.51,1.27,.67,1.93,.19,.8,.5,1.42,1.12,2.05,1.08,1.09,1.93,2.4,2.86,3.63,2.29,3.02,4.32,6.2,5.72,9.75,1.52,3.85,3.01,7.73,3.82,11.81,.6,3.04,.62,6.13-.22,9.22,2.03,.24,3.36,1.57,4.73,2.9,1.71,1.65,2.72,3.74,3.76,5.8,1.37,2.7,3.27,4.85,5.98,6.2,1.23,.61,2.56,1.03,3.84,1.54,.94,.37,1.88,.77,2.83,1.11,1.98,.7,3.36,2.11,4.41,3.84,.85,1.39,1.54,2.85,1.83,4.49,.14,.82,.2,1.6-.02,2.41-.13,.46-.12,1.04-.71,1.17-.57,.12-.85-.35-1.15-.75-.71-.94-1.43-1.87-2.14-2.8-1.91-2.52-4.56-3.23-7.55-3.1-.68,.03-1.35,.26-1.93,1.06,1.1,.12,2.05,.21,3,.34,.84,.12,1.68,.28,2.51,.44,1.39,.27,2.07,1.22,2.22,2.55,.16,1.41,.24,2.83,.33,4.25,.04,.6,0,1.21,0,1.85,.63-.06,1.17-.65,1.67-.09,.47,.52,.1,1.13-.07,1.62-.8,2.26-2.39,3.82-4.57,4.8-.41,.18-.97,.14-1.01,.82,0,.12-.3,.24-.48,.33-2.37,1.17-4.73,2.35-7.11,3.48-.45,.22-.99,.26-1.49,.37,.08-.42,.02-.82,.57-1.08,1.98-.92,3.93-1.91,5.89-2.88,.22-.11,.43-.26,.52-.32-1.59-.37-3.2-.73-4.8-1.11-1.69-.4-3.37-.83-5.06-1.21-.36-.08-.76,.02-1.1,.04-.11,.73,.4,.76,.73,.92,1.26,.62,2.16,1.56,2.55,2.93,.25,.89,.48,1.79,.72,2.69Zm-96.45-54.07c-.58,.99-.66,1.46-.31,2.46,.07-.48,.11-.72,.14-.97,.06-.5,.12-1,.18-1.5l.73-2.66c-.55,.81-1.02,1.64-.73,2.67Zm12.75,3.79q-.13,.74,.63,1.31l-.63-1.31c-.17-.08-.38-.12-.52-.24-1.21-1.07-1.99-2.41-2.37-3.84l-2.69-1.39c.56,1.39,1.16,2.68,1.97,3.83,.85,1.21,1.61,2.63,3.38,2.93-.07-.5-.6-1.07,.24-1.29ZM2.28,150.05l-.03-.03c-.09,.4-.12,.78,.36,.97,.34,.14,.65,.32,1,.44,.82,.3,2.03,.03,2.47-.53,.43-.55,.39-1.63-.09-2.41-.06-.1-.14-.2-.21-.29-.95-1.14-2.2-1.75-3.62-2.03-.77-.15-1.36,.27-1.53,.99-.18,.78,.51,2.49,1.19,2.9,.11,.07,.31-.01,.47-.02ZM113.67,41.43l-.81,.97,.51,1.57c1.14-1.09,2.16-2.07,3.18-3.04,.47-.45,.34-.86-.18-1.31-.37,.27-.75,.55-1.15,.82-.52,.35-1.06,.68-1.59,1.02,.38-.35,.76-.71,1.15-1.04,.94-.81,1.82-1.66,2.04-2.99-.2,.09-.34,.25-.42,.43-.51,1.06-1.39,1.77-2.28,2.5-1.82,1.49-3.99,2.31-6.11,3.23-2.04,.88-4.16,1.43-6.39,1.26-1.5-.11-3-.28-4.47-.59-.84-.18-1.4,0-1.95,.57-.49,.52-1.01,1-1.55,1.53-.43-.49-.76-.9-1.12-1.27-.67-.69-1.2-.72-2.06-.25-.74,.41-1.51,.79-2.27,1.17-.97,.48-1.95,.95-3.02,1.47,.23,.14,.35,.27,.49,.3,2.11,.4,4.22,.93,6.35,1.13,2.34,.22,4.71,.21,6.95-.77,2.42-1.06,4.89-1.97,7.29-3.07,2.32-1.07,4.57-2.29,6.85-3.44,.18-.09,.38-.14,.57-.2Zm5.53,58.1c-.65,.27-.57,.92-.66,1.43-.37,2.26-.36,4.52-.12,6.8,.14,1.29,.52,2.45,1.11,3.57,.1,.19,.13,.41,.2,.65-.95-.07-1-.07-1.59-.62-.79-.75-1.59-1.51-2.33-2.32-2.9-3.18-4.13-6.9-3.55-11.19,.15-1.12,.27-2.2,0-3.36-.33-1.4-.16-2.81,.81-4.03,.59-.74,1.35-1.16,2.2-1.44,.49-.16,.83-.42,1.14-.83,.79-1.03,1.6-2.05,2.46-3.01,.85-.93,1.74-1.83,2.68-2.67,1.84-1.66,2.98-3.69,3.64-6.06,.83-2.98,.87-5.92-.04-8.88-.86-2.78-2.17-5.36-3.73-7.78-1.27-1.97-1.42-3.95-.95-6.16,.49-2.27,1.1-4.48,2.14-6.57,0-.02-.04-.07-.14-.21-.26,.39-.52,.72-.72,1.09-.93,1.77-1.53,3.66-2.07,5.59-.78,2.8-.31,5.37,1.21,7.8,.3,.48,.63,.95,.9,1.45,1.12,2.03,2.27,4.04,2.46,6.43,.07,.89,.19,1.78,.26,2.67,.24,2.88-.22,5.61-1.86,8.03-.89,1.3-1.9,2.53-2.94,3.72-.99,1.13-2.15,2.11-3.12,3.24-.84,.98-1.89,1.69-2.98,2.26-1.99,1.04-2.9,3.43-2.2,5.11,.43,1.04,.38,2.12,.12,3.23-.47,2.05-.51,4.11,.16,6.14,.55,1.66,1.03,3.4,2.21,4.71,1.21,1.35,2.64,2.52,4.02,3.71,.41,.35,.99,.55,1.52,.72,.26,.08,.65,.03,.87-.13,.12-.08,.05-.53-.03-.77-.38-1.2-.8-2.38-1.21-3.57-.41-1.17-.49-2.38-.41-3.61,.1-1.54,.21-3.08,.32-4.62,.01-.19,.12-.36,.17-.55,.37-.66,.59-1.5,1.13-1.94,1.16-.94,1.77-2.17,2.44-3.42,.28-.51,.75-.94,1.17-1.35,.29-.28,.66-.47,.99-.7,3.62-2.61,7.18-5.31,10.89-7.78,2.41-1.61,4.76-3.26,6.69-5.43,1.33-1.5,2.47-3.14,2.87-5.15,.63-3.19,1.05-6.41,.89-9.68-.13-2.63-.22-5.27-.41-7.9-.09-1.16-.19-2.36-.82-3.42,.12,2.31,.44,4.6,.52,6.9,.15,4.26,.07,8.49-.87,12.71-.71,3.2-2.36,5.69-4.82,7.65-3.08,2.45-6.31,4.71-9.46,7.07-2.31,1.73-4.62,3.44-6.88,5.23-.69,.55-1.49,1.15-1.33,2.26,.02,.13-.09,.32-.2,.43-.62,.63-1.22,1.28-1.9,1.85-.71,.59-1.15,1.74-.88,2.67Zm-29.27,48.88c1,2.08,.93,4.39,1.41,6.88,.52-1.44,0-2.63,.09-3.79h.26l.37,3c1.32-.47,2.54-.91,3.8-1.36-.12-.13-.16-.22-.23-.24-1.91-.64-3.37-1.9-4.67-3.39-.33-.38-.71-.72-1.07-1.07-.19-.65-.34-1.31-.59-1.93-1.48-3.78-.28-7.65,2.57-10.19,1.29-1.15,2.87-1.96,4.31-2.94,1.17-.79,2.49-1.45,3.47-2.44,2.16-2.2,2.74-5.09,2.91-8.06,.02-.31-.11-.64-.22-.94-.39-1.1-1.27-1.73-2.17-2.34-2.69,2.56-5.18,5.2-7.2,8.28-2.79,4.26-4.79,8.21-4.73,9.76l2.17-.5c-.8,1.55-2.29,1.96-3.62,.99,2.29-7.49,6.82-13.49,12.54-18.69-.71-.17-1.45-.37-2.19-.53-.63-.14-1.08-.04-1.57,.54-1.24,1.45-2.59,2.81-3.97,4.13-3.05,2.96-5.62,6.3-8,9.81-.93,1.37-1.82,2.78-3.16,3.93-.59-.27-1.18-.53-1.76-.82-.91-.45-1.8-.94-2.71-1.39-2.68-1.31-5.56-2.06-8.38-2.96-2.99-.95-6.02-1.69-9.13-2.14-.76-.11-1.51-.35-2.36-.55-.99,1.92-2.71,3.24-4.74,4.17-.65,.3-1.38,.46-2.09,.6-1.75,.33-3.51,.64-5.27,.91-1.36,.21-2.73,.35-4.09,.56-.92,.14-1.21,.77-.79,1.58,.44,.87,1.01,1.56,2.08,1.66,.17,.02,.32,.19,.48,.28-.2,.53-.59,.45-.94,.44-1.69-.08-3.07-.76-4.36-1.9-1.36-1.19-1.52-3.76-.17-5.28,1.21-1.36,2.71-2.06,4.4-2.4,1.69-.34,2.66-1.57,3.95-2.58-.23-.13-.33-.24-.43-.24-2.56-.04-5.12-.13-7.67-.07-1.16,.03-2.38,.17-3.47,.56-3.94,1.39-7.84,2.9-11.76,4.36-.76,.28-1.57,.44-2.3,.78-3.98,1.85-7.99,3.64-11.3,6.65-1.59,1.45-3.12,2.93-4.43,4.47,1.11,.62,2.18,1.17,3.2,1.8,.98,.61,1.71,1.49,2.22,2.54,.83,1.74,.26,3.46-1.45,4.33-.57,.29-1.19,.5-1.84,.76-.17,.88-.32,1.8-.53,2.7-.24,1.06,.14,1.77,1.05,2.34,3.74,2.34,7.68,4.3,11.92,5.51,3.12,.89,6.33,1.49,9.5,2.17,2.3,.49,4.63,.87,6.94,1.35,3.19,.67,6.39,1.22,9.66,1.15,2.07-.04,4.15,.18,6.2-.28,.82-.18,1.39-.48,1.61-1.38,.13-.54,.27-1.16,.94-1.57,.07,.28,.18,.47,.14,.63-.08,.35-.24,.69-.34,1.04-.46,1.61-.17,2.04,1.46,2.29,2.06,.31,4.04,.24,5.84-.96,.2-.13,.43-.22,.66-.32,2.57-1.21,5.15-2.41,7.72-3.63,.54-.26,1.07-.55,1.6-.82-.1-.62-.22-1.13-.26-1.65-.03-.49-.33-1.02,.17-1.59l.49,1.43c.11-.5,.2-.85,.27-1.21,.4-2.05,1.03-4.03,2.13-5.81,.91-1.48,1.88-2.95,2.99-4.29,2.39-2.88,5.35-4.85,9.18-5.22,1.34-.13,2.59,.07,3.53,1.22,.54,.66,1.15,1.25,1.74,1.87Zm25.98-30.74c.17,.09,.34,.18,.5,.29,1.1,.7,2.23,1.39,2.96,2.5,1.46,2.22,2.36,4.61,2.11,7.33-.02,.26,.03,.52,.05,.84,.33-.08,.57-.12,.79-.2,.22-.07,.43-.18,.7-.3-.08-.73-.21-1.41-.23-2.09-.01-.64-.48-1.42,.53-1.97,.45,1.55,.33,3.06,.6,4.62-1-.06-1.59,1.18-2.63,.4-.38,.89-.77,1.66-1.04,2.46-1.29,3.78-3.62,6.76-6.86,9.06-2.17,1.54-4.62,2.38-7.23,2.62-1.81,.17-3.65,.15-5.48,.05-1.4-.07-2.1,.7-2.64,1.75-.23,.45-.3,1.01-.34,1.53-.08,1.19,.4,2.24,1.13,3.13,.59,.73,1.84,.83,2.68,.29,.94-.61,.17-1.19-.08-1.76-.32-.72-.18-1.15,.51-1.5,.87-.44,1.98-.02,2.41,.94,.37,.85,.37,1.73,.18,2.63-.07,.32-.1,.65-.15,.98,12.13-4.95,24.3-9.26,37.25-11.87-1.66-1.7-2.7-3.45-2.64-5.74,.06-2.18,.57-4.16,2.09-5.8-1.62-1.69-3.44-2.92-5.32-4.03-.93-.55-1.97-.95-3.01-1.28-2.04-.65-4.16-.58-6.26-.51-.66,.02-1.34,.31-1.97,.57-.92,.38-1.8,.85-2.81,1.34-.05-1.72-.43-3.22-1.58-4.36-1.14-1.13-2.5-1.91-4.21-1.94Zm-22.65,3.12c-2.42-.62-4.56-1.23-6.74-1.71-2.26-.49-4.54-.87-6.82-1.25-3.2-.54-6.41-1.03-9.61-1.57-.64-.11-1.41,.09-1.87-.66-.06-.1-.47-.07-.68,.01-2.24,.93-4.53,1.71-6.68,2.9-2.34,1.29-3.34,3.15-3.42,5.71-.03,.96-.25,1.92-.4,2.88-.07,.43-.2,.84-.32,1.32,8.51,1.11,16.22,4.35,24.09,7.55,3.73-5.33,6.98-11.06,12.45-15.19Zm-6.28,35.32c-.22-1.11-.31-2.26-.68-3.31-.62-1.76-2.06-2.46-3.92-2.4-1.46,.05-2.42,.99-3.33,1.79-1.89,1.67-2.9,3.89-3.03,6.45-.12,2.5,.67,3.94,2.96,4.92,1.93,.83,4.08,.68,5.66-1.15,1.57-1.82,2.29-3.9,2.34-6.31Zm-41.72-29.77c.93-1.68,1.61-5.48,.94-8.29-.36-1.52-.14-2.98,.47-4.4,.2-.47,.44-.93,.66-1.39-1.41-.48-1.51-.45-2.45,.42-3.92,3.64-6.84,8.02-9.34,12.7-.11,.2-.13,.43-.23,.74,3.38,.08,6.66,.16,9.94,.23ZM99.97,16.15c-1.28-1.04-2.37-2-3.55-2.85-.47-.34-1.11-.59-1.68-.61-1.04-.04-2.1,.06-3.13,.21-.71,.1-1.42,.31-2.09,.59-2.02,.85-3.36,2.46-4.6,4.19,1.01,.42,1.97,.83,2.94,1.22,.41,.16,.83,.34,1.26,.42,4.03,.73,7.47-.62,10.85-3.17Zm-31.03,61.6c.11,1.48,.58,3.02,1.06,4.57,.33,1.06,.64,2.13,.93,3.12l8.39-6.7c-1.25-2.14-2.53-4.35-3.8-6.52-2.17,1.82-4.28,3.59-6.59,5.53Zm88.12,49.76l-.25-.26c.17-.82,.56-1.58,1.06-2.24,.48-.64,1.1-1.17,1.72-1.81-1.64,.14-2.99,1.95-3.95,5.17,.25,.02,.48,.03,.72,.05,1.8,.12,2.76,1.61,2.05,3.27-.23,.55-.63,1.04-1.02,1.5-1.07,1.24-2.5,1.92-4.03,2.4-.33,.1-.78,.23-.98-.33,2.11-.42,3.88-1.31,5.17-3.02,.44-.58,.68-1.2,.56-1.93-.12-.73-.75-1.33-1.48-1.43-.75-.11-1.45,.26-1.79,.9-.75,1.44-1.52,2.87-2.27,4.31-.69,1.31-1.37,2.63-2.13,4.1,.64-.09,1.12-.12,1.59-.22,2.03-.42,3.76-1.39,5.41-2.65,1.42-1.08,2.47-2.35,3.16-3.93,.49-1.11,.54-2.28-.02-3.42-.51-1.04-1.05-1.27-2.17-.9-.45,.15-.9,.28-1.36,.42ZM71.83,30.82c.95,.11,1.76,.17,2.55,.3,.96,.15,1.9,.39,2.86,.54,1.46,.22,2.91,.11,4.43-.3-.09-.38-.14-.73-.25-1.07-.61-1.9-1.11-3.81-1.32-5.8-.13-1.23-.55-1.5-1.79-1.35-.24,.03-.48,.09-.7,.18-2.35,1.04-4.24,2.56-5.12,5.07-.27,.75-.42,1.55-.66,2.43Zm98.02,77.64c-.23,.31-.5,.51-.55,.75-.35,1.57-.67,3.15-.96,4.74-.04,.22,.11,.47,.16,.7,.3,1.36,1.31,2.22,2.24,3.11,2.21,2.13,4.33,2.29,6.83,.73,.56-.35,.66-.73,.35-1.27-1.42,.21-1.79,.17-2.9-.64-1.45-1.06-2.64-2.3-2.61-4.28,.01-1.04,0-2.08,0-3.02-.67-.93-1.87,.36-2.56-.83ZM100.82,37.16c4.86,3.04,9.51,2.11,11.75-1.01-.65-.54-1.35-1.03-1.96-1.62-1.5-1.44-4.58-1.32-5.96-.51-1.4,.83-2.61,1.89-3.83,3.14Zm-30.78,49.44c-1.75-.17-2.39-1.6-3.6-2.3-.3,1.03,.73,1.05,1.09,1.56-1.32,.37-1.9-.45-1.66-2.23l-1.95-2.36c-1.29,1.54-3.03,2.46-4.35,3.93,1.94,1.96,4.01,3.63,5.27,6.16,1.75-1.61,3.38-3.1,5.19-4.76Zm22.03-22.03c.33-2.75,.88-5.4,.46-8.23l-3.53-.45c-.45,2.61-.87,5.07-1.3,7.59,.42,.15,.83,.35,1.25,.45,1.02,.23,2.04,.42,3.12,.64Zm1.42-7.92c-.26,2.86-.5,5.46-.74,8.07l1.2,.37c.05,.96,.1,1.86,.15,2.75h.26v-2.69c.83-.4,1.5-.17,1.99,.3,.48,.45,.79,1.08,1.23,1.71-.02-.94-.47-1.59-.85-1.97l.21-8.26-3.46-.29Zm8.61,6.61c-.11-.66-.19-1.14-.28-1.62-.26-1.44-.5-2.88-.8-4.31-.2-.95-.26-.96-1.25-.76-.56,.11-1.11,.24-1.66,.38-.4,.1-.58,.35-.59,.8,0,1.99-.06,3.98-.06,5.97,0,.37,.11,.82,.33,1.1,.36,.45,.86,.79,1.31,1.17l.15-.16-1.16-1.27c1.87-.58,2.79,.55,3.77,1.61-.16-.99-1.16-1.34-1.63-2.1l1.86-.81Zm-20.31,16.9c-.89-.33-1.5-1.05-2.44-.38-1.47,1.05-2.63,2.51-4.34,3.23-.1,.04-.16,.18-.25,.26-1.9,1.7-3.8,3.39-5.7,5.09-.51,.46-1.02,.93-1.53,1.39-.48,.45-.96,.9-1.44,1.36l2.15,.86c3.72-4.77,8.62-8.19,13.54-11.81Zm3.16-13.83c.44-1.06,1-2.03,1.99-2.69,.16-.1,.21-.41,.25-.63,.32-1.75,.62-3.51,.92-5.27,.07-.44,.14-.89,.13-1.33,0-.25-.09-.62-.27-.73-.77-.49-1.53-1.03-2.51-1.24-.52,2.01-1.02,3.96-1.53,5.92l1.23,1.45c-.58,.53-1.21,.92-1.3,1.83,1.72-1.85,1.82-1.86,3.11-.43-1.1,.75-1.93,1.7-2.01,3.13Zm-15.77,48.42l.02,.38c.91,.15,1.82,.28,2.72,.45,4.11,.78,8.22,1.54,12.31,2.38,2.82,.58,5.63,1.23,8.42,1.92,1.31,.32,1.77,.18,2.44-1.17-.48-.09-.95-.19-1.42-.27-2.68-.44-5.35-.95-8.04-1.31-3.62-.47-7.25-.85-10.82-1.66-1.54-.35-3.1-.59-4.66-.84-.31-.05-.65,.07-.97,.11Zm14.14-98.39l.21,.22c.27-.34,.54-.69,.82-1.03,.67-.81,1.31-1.65,2.03-2.41,2.96-3.08,7.65-3.49,11.04-.92,.76,.57,1.34,1.37,2.02,2.08l-.49,.41,1.72,1.41c-.09,.68,0,1.46-.84,1.88-.22,.11-.35,.45-.45,.7-.52,1.29-1.48,2.26-2.54,3.06-1.53,1.17-3.27,1.8-5.25,1.23-.49-.14-1-.19-1.5-.29,1.39,1.05,2.84,1.63,4.59,1.02,1.81-.64,3.08-1.89,4.22-3.35,.83-1.05,1.7-2.06,2.62-3.04,.43-.46,.99-.78,1.73-1.35-.48,.04-.57-.47-.89,.02-.36,.54-.76,.5-1.21,0l.39-.66c-.84-.7-1.6-1.3-2.33-1.94-.64-.55-1.23-1.16-1.89-1.69-2.74-2.21-5.75-2.04-8.73-.71-2.41,1.08-3.91,3.18-5.26,5.35Zm24.17,36.6c.37,.94,.66,1.78,1.02,2.59,.37,.83,.55,1.75,1.22,2.55,1.02-1.42,2.31-1.43,3.81-.8-.57-.89-1.39-.85-2.13-.97,.56-1.06,1.06-1.23,2.06-.75,.32,.15,.63,.35,.94,.52-.26-.43-.6-.83-.99-.87-.93-.1-1.25-.76-1.62-1.43-.33-.61-.62-1.23-.95-1.83-.24-.45-.52-.88-.87-1.47l-2.5,2.46Zm8.93,40.05c.19,1.41,.55,2.22,1.53,2.97,.3,.23,.83,.51,1.07,.39,.77-.38,1.67-.66,2.1-1.51,.57-1.1,.25-3.22-.6-4.13-1.08-1.16-3.01-.89-3.65,.55-.24,.54-.3,1.15-.45,1.73Zm-13.21-37.83c-.48,.22-.88,.4-1.28,.59-.41,.2-.55,.48-.45,.98,.36,1.7,.65,3.42,.96,5.13,.14,.74,.33,1.41,1.24,1.58,.26,.05,.48,.4,.7,.63,.17,.17,.32,.37,.48,.55-.08-.5-.27-.91-.57-1.21-.28-.28-.68-.43-1.06-.66,1.25-.85,1.7,.42,2.55,.69l-1.16-1.38c.21-.13,.37-.25,.54-.35,.2-.12,.4-.24,.66-.4-.81-2.06-1.31-4.2-2.62-6.15Zm-6.06-2.5c.55-.09,.87-.11,1.18-.21,1.27-.38,2.54-.76,3.81-1.17,.36-.12,.67-.34,.6-.79-.15-.94-.21-1.92-.86-2.78l-4.91,1.63c.07,1.08,.13,2.15,.2,3.31Zm-5.82,.67c1.95,.29,3.54-.24,5.22-.58l-.28-3.3-4.7,.36-.24,3.52Zm-5.31-1.07c1.24,.38,2.35,.74,3.47,1.07,.41,.12,.88,.13,.98-.41,.18-1.05,.57-2.09,.39-3.16-1.55-.4-3.01-.77-4.54-1.16-.1,1.26-.2,2.38-.3,3.66Zm-17.13,44.71c.68,1.04,1.43,1.83,1.78,2.78,.65,1.74,1.71,3.07,3.14,4.22,2.6,2.1,5.57,2.9,8.85,2.68,.17-.01,.33-.14,.66-.29-.32-.13-.45-.2-.59-.24-1.6-.42-3.24-.75-4.81-1.29-2.62-.91-4.84-2.41-6.35-4.83-.55-.89-1.19-1.73-1.84-2.56-.16-.2-.48-.27-.85-.47Zm105.51,12.27c-1.37,2.94,.2,5.71,3.39,5.97-.07-1.18-.11-2.35-.21-3.52-.22-2.65-.38-2.32-2.36-2.46-.28-.02-.56,0-.82,0ZM107.59,45.28c-1.66,.81-3.26,1.58-4.8,2.32l.66,3.02c1.27-.3,2.22-1.08,3.27-1.69,1.21-.69,1.65-1.57,1.02-2.88-.08-.17-.08-.39-.15-.78ZM1.65,145.42c1.06,.38,1.89,.59,2.64,.96,1.18,.59,2.18,1.41,2.54,2.78,.38,1.46-.31,2.61-1.8,2.86-.65,.11-1.34,.02-2.01,.02,.09,.08,.22,.29,.36,.3,1,.07,2.05,.3,2.99,.09,1.67-.38,2.17-1.59,1.77-3.27-.47-2.04-2.89-4.06-5.71-4.12-.19,0-.39,.19-.78,.39ZM108.04,45l.76,2.29c1.11-.71,2.1-1.26,3-1.94,1.14-.86,1.16-1.35,.27-2.64-.61,.39-1.21,.8-1.84,1.16-.67,.38-1.36,.71-2.19,1.13Zm7.42,.27c-.77,.43-1.24,1.24-1.76,2-.08,.11-.1,.36-.03,.45,.54,.72,.87,1.69,2.06,1.79,.32-.7,.7-1.37,.93-2.1,.2-.64,.6-.91,1.02-.92l-2.22-1.23Zm-2.59,48.63c.71-.71,1.44-1.23,2.41-.97,.25-.65,.44-1.23,.71-1.78,.25-.52,.58-1,.89-1.52-2.63-.33-4.26,1.4-4.01,4.27Zm-14.1-75.86c-1.91,1.04-3.8,2.16-6.03,2.39-2.25,.23-4.26-.68-6.27-1.52,2.92,2.81,8.86,3.22,12.3-.87ZM59.46,112.78c-1.64-1.77-3.7-1.9-5.85-1.66-1.76,.19-2.71,.54-3.19,1.16,.35,0,.78-.13,.93,.03,.24,.25,.32,.41,.75,.27,2.22-.7,4.46-.77,6.68,.04,.22,.08,.45,.11,.68,.16Zm91.66-19.82l.14,.11c.93-.83,1.84-1.69,2.81-2.48,1.4-1.15,2.18-2.68,2.82-4.32,.17-.44,.3-.91-.15-1.51-.86,1.54-1.56,3.03-2.48,4.37-.93,1.35-2.08,2.56-3.13,3.83ZM86.48,14.81l-.14-.13-2.98,2.96-.07,1.02c.09,.1,.15,.21,.25,.28,1.46,1.07,2.92,2.15,4.41,3.19,.31,.22,.77,.24,1.16,.35-1.71-1.41-3.15-3.11-5.49-3.72,.28-.24,.6-.41,.58-.51-.2-1.09,.88-1.4,1.27-2.13,.26-.48,.68-.87,1.03-1.31Zm63.48,78.88c-1.33,1.94-3.75,2.46-5.27,4.14,2.09-.93,4.27-1.77,5.27-4.14Zm-38.21-55.69c-1.17,.55-2.09,1.13-3.1,1.43-1.03,.31-2.15,.34-3.19,.49,1.73,.75,4.78-.1,6.29-1.92Zm-33.04,3.88c1.73,.9,4.13,.62,5.58-.71-.99,.32-1.83,.71-2.7,.82-.9,.11-1.84-.06-2.88-.11Zm8.94-28.34c1.72-.92,3.49-1.67,5.67-1.7-2.7-.28-4.47,.13-5.67,1.7Zm34.49,78.77c0-2.01-1.12-3.32-2.82-3.32,1.48,.66,2.26,1.89,2.82,3.32Zm21.32,39.16c-.41-1.2-.89-2.34-1.97-3.15-.28,.31-.42,.57-.14,.88,.7,.76,1.41,1.51,2.11,2.27Zm25.42-27.97c.19-1.71-.14-3.26-1.08-4.67,.36,1.56,.72,3.12,1.08,4.67Zm-24.73,32.44c.3-1.58,.15-2.49-.45-3.09-.33,1.11-.1,2.12,.45,3.09Zm3.67,5.37c1.13-.37,2.07-1.64,2.13-2.64l-2.13,2.64Zm-29.32-44.1c-.4-.27-.81-.52-1.2-.8-.36-.26-.69-.55-1.04-.83,.61,1.17,1.03,1.48,2.24,1.63ZM79.82,32.85l-3.41-.62c1.02,.67,2.13,.71,3.41,.62Zm59.77,10.16c-1.05-1.23-1.59-1.42-2.29-.9l2.29,.9Zm-49.3,22.04c-.65,.27-.85,.87-.65,2.63l.65-2.63Zm-2.88,2.39c.14-.49,.24-1,.44-1.47,.2-.49,.49-.95,.74-1.42-1.07,.67-1.26,1.73-1.18,2.9Zm-1.36,38.7c.79,.51,.81,.5,1.45-.23-.57-.32-1.02-.29-1.45,.23Zm42.98-63.76c.74,.39,1.14,.22,1.51-.38-.62-.32-1.02-.14-1.51,.38Zm14.23,97.17l.24,.06c.56-.97,.58-1.04,.46-2.08l-.69,2.02Zm-39.51-73.88c-.23-1.57-.64-2.01-1.58-1.84q.83,.45,1.58,1.84Zm-11.28-.88c-.74,.99-.66,1.83-.46,2.97l.46-2.97Zm13.2-2.95l1.66,1.58c-.33-.75-.75-1.4-1.66-1.58Zm37.24,37.07l.63-1.44-.16-.1-.89,.78,.42,.76Zm-31.23-39.89c-.63-.73-1.26-.78-2.08-.63l2.08,.63Zm-6.43,48.16l.2,.02,.23-1.7-.28-.03-.15,1.71ZM72.9,26.03l-.27-.13-.77,1.57,.23,.11,.81-1.55Zm3.33-3.3l.08,.21,1.59-.57-.07-.2-1.6,.56Zm-13.16,56.78q0,1,.52,1.33l-.52-1.33Zm51.84-25.3l.1-.22-1.11-.52-.09,.2,1.11,.53ZM79.8,22.16l-.06-.4-.93,.24,.04,.22,.94-.07Zm27.2,46.11q.5,.54,1.26,.35l-1.26-.35Zm7.53,25.44l1.14,.79c-.21-.79-.58-.95-1.14-.79Zm2.4-45.09l-.04,.2,.81,.2,.05-.22-.82-.18Zm-32.97-5.52l.04,.25,.53-.06-.05-.33-.52,.13Zm-1.31-25.31c-.26-.11-.41-.19-.58-.22-.04,0-.18,.21-.16,.24,.09,.13,.21,.27,.36,.33,.05,.02,.19-.17,.38-.34Zm12.53-5.65l.1-.24-.69-.16-.04,.17,.63,.22Zm22.52,76.92l.13,.27,.6-.3-.07-.18-.66,.2Z"/><path d="M143.68,148.86l.56-.61,.28,.22-.49,.67-.34-.28Z"/><path class="e" d="M89.92,148.4c-.58-.62-1.2-1.21-1.73-1.87-.94-1.15-2.19-1.35-3.53-1.22-3.83,.37-6.79,2.34-9.18,5.22-1.11,1.34-2.08,2.81-2.99,4.29-1.1,1.78-1.73,3.76-2.13,5.81-.07,.36-.16,.71-.27,1.21l-.49-1.43c-.5,.57-.21,1.1-.17,1.59,.04,.52,.16,1.04,.26,1.65-.54,.28-1.06,.56-1.6,.82-2.57,1.21-5.15,2.42-7.72,3.63-.22,.1-.45,.19-.66,.32-1.8,1.2-3.79,1.27-5.84,.96-1.63-.25-1.92-.68-1.46-2.29,.1-.35,.26-.69,.34-1.04,.03-.16-.07-.35-.14-.63-.67,.41-.81,1.03-.94,1.57-.22,.9-.79,1.2-1.61,1.38-2.05,.46-4.13,.24-6.2,.28-3.26,.06-6.47-.48-9.66-1.15-2.3-.49-4.63-.86-6.94-1.35-3.18-.68-6.38-1.28-9.5-2.17-4.24-1.21-8.18-3.16-11.92-5.51-.91-.57-1.3-1.27-1.05-2.34,.21-.91,.36-1.82,.53-2.7,.65-.27,1.27-.47,1.84-.76,1.71-.87,2.28-2.6,1.45-4.33-.5-1.05-1.23-1.93-2.22-2.54-1.02-.63-2.09-1.18-3.2-1.8,1.31-1.54,2.85-3.03,4.43-4.47,3.3-3.01,7.32-4.8,11.3-6.65,.73-.34,1.54-.5,2.3-.78,3.92-1.46,7.81-2.97,11.76-4.36,1.09-.38,2.31-.53,3.47-.56,2.56-.06,5.12,.03,7.67,.07,.1,0,.2,.11,.43,.24-1.28,1-2.26,2.24-3.95,2.58-1.69,.34-3.19,1.04-4.4,2.4-1.35,1.52-1.19,4.08,.17,5.28,1.29,1.13,2.67,1.81,4.36,1.9,.35,.02,.74,.1,.94-.44-.16-.1-.31-.27-.48-.28-1.07-.1-1.64-.79-2.08-1.66-.42-.82-.13-1.44,.79-1.58,1.36-.21,2.73-.35,4.09-.56,1.76-.28,3.52-.58,5.27-.91,.71-.14,1.44-.3,2.09-.6,2.03-.93,3.75-2.25,4.74-4.17,.84,.2,1.59,.43,2.36,.55,3.1,.46,6.14,1.19,9.13,2.14,2.83,.9,5.7,1.65,8.38,2.96,.91,.45,1.8,.94,2.71,1.39,.58,.29,1.17,.54,1.76,.82,1.34-1.15,2.23-2.57,3.16-3.93,2.38-3.5,4.95-6.85,8-9.81,1.37-1.33,2.73-2.68,3.97-4.13,.49-.58,.94-.68,1.57-.54,.74,.17,1.48,.36,2.19,.53-5.72,5.2-10.25,11.2-12.54,18.69,1.32,.96,2.82,.56,3.62-.99l-2.17,.5c-.07-1.55,1.93-5.49,4.73-9.76,2.02-3.08,4.51-5.73,7.2-8.28,.89,.61,1.77,1.24,2.17,2.34,.11,.3,.24,.63,.22,.94-.17,2.97-.75,5.86-2.91,8.06-.98,.99-2.3,1.65-3.47,2.44-1.44,.98-3.03,1.79-4.31,2.94-2.85,2.54-4.05,6.41-2.57,10.19,.25,.62,.39,1.29,.59,1.93l.03-.03Zm-43.74,6.58c-.36-.25-.6-.48-.88-.59-1.66-.63-3.14-1.61-4.79-2.27-3.24-1.3-6.44-2.63-9.89-3.39-4.92-1.07-9.87-1.55-14.88-1.52-1.25,0-2.51,.17-3.76,.36-1.3,.19-1.33,.29-1.37,1.55-.01,.37-.03,.73,0,1.1,.32,3.03,.47,3.11,3.11,3.86,5.08,1.44,10.23,2.64,15.43,3.55,4.24,.74,8.48,1.51,12.82,1.53,.49,0,.97,.22,1.6,.37,.54-1.58,1.19-3.24,2.61-4.53Zm9.02-1.26c-.28,0-.57,.01-.85,0-2.25-.1-4.23,.62-5.96,2.03-2.44,1.97-2.4,5.95,.05,7.88,1.19,.94,2.59,1.2,4.06,1.46,3.1,.54,5.8-.33,8.26-2.07,.88-.62,1.67-1.45,2.26-2.35,1.13-1.7,.23-4.37-1.73-5.56-1.88-1.14-3.95-1.4-6.09-1.39Zm19.14-12.84l-.12-.31c-.31,.04-.63,.06-.94,.12-3.5,.7-6.7,2.22-9.96,3.57-3.58,1.48-6.92,3.44-10.03,5.73-1.36,1.01-2.56,2.24-3.81,3.39-.13,.12-.15,.36-.22,.54,7.55-5.98,16.02-10.07,25.08-13.05ZM7.3,156.28c.14,.2,.18,.34,.27,.38,1.93,.95,3.84,1.93,5.79,2.84,2.1,.98,4.28,1.77,6.5,2.42,.47,.14,.92,.33,1.38,.48,1.9,.6,3.76,1.38,5.7,1.73,4.19,.77,8.42,1.39,12.65,1.93,2.13,.27,4.3,.26,6.45,.35,.4,.02,.89,.13,1.24-.43-.32-.04-.55-.09-.78-.09-3.9-.09-7.8-.3-11.66-.91-3.69-.59-7.42-.94-10.97-2.24-1.6-.59-3.22-1.12-4.85-1.62-2.22-.67-4.35-1.58-6.44-2.57-1.58-.75-3.16-1.47-4.75-2.19-.13-.06-.29-.04-.54-.07Zm2.57-11.72l.28,.17c.47-.57,.94-1.13,1.4-1.71,.48-.6,.93-1.24,1.43-1.82,.5-.59,1.03-1.15,1.58-1.69,.54-.55,1.11-1.07,1.68-1.59,.57-.52,1.13-1.05,1.73-1.54,.59-.49,1.2-.97,1.83-1.42,.63-.45,1.28-.87,1.93-1.28,.65-.41,1.31-.82,1.99-1.19,.68-.37,1.39-.67,2.08-1.02,.63-.32,1.39-.44,2.06-1.05-.29-.04-.37-.07-.44-.05-.16,.04-.31,.11-.46,.17-3.07,1.22-6.01,2.66-8.61,4.74-.67,.53-1.37,1.02-2.04,1.54-2.36,1.84-4.43,3.95-5.86,6.61-.2,.37-.37,.76-.55,1.14Zm33.98,15.85v-.4c-11.09-.92-22.17-1.98-32.71-6.01,1.3,.65,2.63,1.19,4,1.63,1.51,.48,3.03,.91,4.57,1.28,2.49,.59,4.96,1.27,7.49,1.64,4.09,.6,8.22,.99,12.33,1.45,1.44,.16,2.89,.27,4.33,.41Zm-15.56-13.37l.38,.06,.33-1.44c1.52-.6,2.09-1.38,1.94-2.66-.13-1.12-.85-1.78-2.14-1.95-1.05-.14-1.77,.29-2.2,1.33-.44,1.04,0,1.91,1.57,3.08,0,.25-.01,.53,0,.81,.02,.26,.07,.52,.11,.78Zm59.75-1.57l.1-.28c-.5-.25-.98-.56-1.5-.73-3.29-1.09-6.26-.18-9.01,1.6-3.45,2.23-5.46,5.61-7.11,9.23-.29,.64-.44,1.36-.65,2.04,.28-.07,.36-.2,.4-.34,1.04-3.13,2.66-5.94,4.88-8.36,2.15-2.34,4.78-3.88,8.02-4.19,1.45-.14,2.83,.03,4.13,.73,.23,.13,.5,.19,.75,.29Z"/><path class="e" d="M115.9,117.66c1.71,.03,3.07,.81,4.21,1.94,1.15,1.14,1.53,2.64,1.58,4.36,1.02-.49,1.9-.96,2.81-1.34,.63-.26,1.31-.54,1.97-.57,2.1-.08,4.23-.14,6.26,.51,1.03,.33,2.07,.73,3.01,1.28,1.89,1.11,3.7,2.34,5.32,4.03-1.52,1.64-2.03,3.61-2.09,5.8-.06,2.28,.98,4.03,2.64,5.74-12.96,2.61-25.12,6.92-37.25,11.87,.05-.34,.08-.66,.15-.98,.19-.9,.19-1.78-.18-2.63-.42-.96-1.54-1.38-2.41-.94-.69,.35-.83,.77-.51,1.5,.25,.57,1.02,1.15,.08,1.76-.84,.55-2.08,.44-2.68-.29-.73-.9-1.21-1.94-1.13-3.13,.03-.52,.11-1.08,.34-1.53,.54-1.05,1.24-1.82,2.64-1.75,1.82,.1,3.66,.11,5.48-.05,2.61-.24,5.06-1.07,7.23-2.62,3.24-2.3,5.57-5.28,6.86-9.06,.27-.8,.66-1.56,1.04-2.46,1.04,.79,1.63-.45,2.63-.4-.27-1.56-.15-3.07-.6-4.62-1,.55-.54,1.33-.53,1.97,.02,.68,.14,1.37,.23,2.09-.27,.12-.48,.22-.7,.3-.23,.08-.46,.12-.79,.2-.02-.32-.07-.59-.05-.84,.25-2.72-.65-5.11-2.11-7.33-.73-1.11-1.86-1.81-2.96-2.5-.16-.1-.34-.19-.5-.29Zm10.04,24.55c-.17-2.1-.35-3.95-.58-5.79-.23-1.84-.04-3.75-.87-5.57-.56,.79-.57,.79-.43,1.62,.23,1.43,.51,2.86,.69,4.3,.17,1.28,.23,2.58,.36,3.87,.05,.49,.02,1.04,.84,1.57Zm-3.78,.42l-.09-.28c-4.34,1.06-8.24,3.3-12.48,4.63-.15,.05-.29,.16-.4,.27-.07,.07-.09,.2-.18,.44,.4-.08,.72-.1,1-.22,4.05-1.61,8.1-3.23,12.15-4.85Zm6.22-2.11c.7-.05,1.42,0,2.09-.18,2.31-.6,4.6-1.26,6.89-1.92,.2-.06,.38-.19,.72-.37-1.83-.05-8.61,1.56-9.7,2.47Z"/><path class="e" d="M93.25,120.78c-5.47,4.13-8.72,9.86-12.45,15.19-7.87-3.2-15.58-6.45-24.09-7.55,.12-.48,.25-.9,.32-1.32,.16-.96,.37-1.92,.4-2.88,.08-2.56,1.08-4.42,3.42-5.71,2.15-1.18,4.44-1.96,6.68-2.9,.2-.08,.61-.11,.68-.01,.46,.75,1.22,.55,1.87,.66,3.2,.54,6.41,1.03,9.61,1.57,2.28,.38,4.57,.76,6.82,1.25,2.17,.47,4.31,1.09,6.74,1.71Zm-13.44,3.57l-1.96,.69c.68-.15,1.46-.04,1.95-.69l1.5-.12-.03-.22-1.46,.34Zm-2.3,3.55l.09,.23c1.66-.52,3.32-1.03,4.98-1.55l-.06-.21-5.01,1.52Zm2.14-9.85l-.04,.28c1.18,.63,2.37,.94,3.38,.75l-3.35-1.04Zm-3.23,4.04l.04,.18c.88-.19,1.76-.38,2.64-.56l-.04-.18-2.64,.55Z"/><path class="e" d="M82.32,60.58l.71-.35c.63,.49,.14,.99,.07,1.45l.52,.14c-1.16,1.34-1.13,2.67-.02,4.16,1.31,1.76,3.16,2.46,5.2,2.83,2.63,.47,5.24,.28,7.86-.2,3.01-.55,5.95-1.3,8.74-2.57,1.17-.53,2.34-1.12,3.26-2.04-.61-1.57-1.26-2.31-2.36-2.8-.55-2.19-1.32-4.2-2.43-6.27l2.99-1.81c.79,1.89,1.53,3.67,2.3,5.5l-.82,.96c.75,.2,1.42,.43,1.81,1.23-2.04-1.23-2.15-1.23-3.42,.01,1.13,.65,1.83,1.66,2.29,2.89,4.46-2.84,7.6-6.51,8.36-12.02l-1.94-1.04-.04,.03,2.32,.65c.34-2.22,1.44-4.37,1.39-6.78l-1.32-.46-.02,.03h1.41c.57-1.81,.65-3.65,.49-5.65-.79,1.36-.5,3.07-1.64,4.15-.54-.21-.49-.46-.28-.8,.81-1.3,1.15-2.73,1.28-4.46l-1.46,2.43c-.57-.38-.69-.72-.3-1.16,.32-.37,.65-.74,.9-1.15,.49-.78,.93-1.59,1.44-2.48-2.09-1.01-2.16-3-2.7-4.87-.27,.13-.53,.21-.73,.37-1.04,.8-2.19,1.43-3.46,1.73-.82,.19-1.68,.2-2.62,.3l-.29,.56c-2.75-.76-5.29-.36-7.51,1.55-.9,.77-1.75,1.57-2.01,2.88,.68,.25,1.06,.87,1.57,1.28,1.37,1.13,2.86,2.15,4.44,2.96,1.51,.77,3.11,.45,4.5-.51,.45-.31,.83-.77,1.13-1.23,.57-.88,1.06-1.82,1.61-2.78l-.68-.27,.75-.85-2.48-2.24c1.45,.53,2.46,1.59,3.51,2.69-.62,.97-1.35,1.86-1.81,2.88-1.04,2.31-3.71,3.37-6.25,2.96-.75-.12-1.46-.68-2.12-1.13-.88-.59-1.68-1.27-2.53-1.9-.7-.51-1.41-1-2.26-1.6,.42-1.67,1.59-2.99,3.15-4.02,.4-.27,.85-.47,1.26-.74,.73-.47,.72-.97-.04-1.32-1.51-.7-3.03-1.37-4.73-1.47-.4-.02-.79-.13-1.32-.01l2.7,2.21-.12,.22c-.26-.1-.55-.16-.76-.32-1.15-.91-2.27-1.84-3.4-2.77-.31-.26-.6-.55-.92-.8-1.94-1.56-4.02-1.78-6.25-.68-2.7,1.34-4.35,3.56-5.35,6.33l.04-.05c-.12,.1-.24,.2-.37,.3-.09,.07-.2,.12-.54,.33,.39-.91,.63-1.65,1-2.3,1.13-1.99,2.51-3.77,4.53-4.97,1.94-1.16,5.27-1.43,7.52,.84,.31,.31,.65,.59,.99,.9,.22-.89,.43-1.71,.65-2.54,.16,.12,.31,.23,.59,.45,.58-.75,1.17-1.46,1.72-2.2,.99-1.34,1.9-2.74,2.96-4.02,2.04-2.48,4.79-3.09,7.8-2.59,1.52,.26,2.91,.99,4.1,2.04-.37-.15-.77-.25-1.11-.45-2.71-1.62-5.48-1.48-8.27-.3-1.76,.74-2.92,2.15-3.91,3.7-.94,1.47-1.79,2.99-3.15,4.14-.19,.16-.26,.47-.47,.87,.52,.08,.9,.14,1.28,.19,.83,.12,1.72,.09,2.49,.38,2.4,.9,4.91,.99,7.41,1.09,.92,.04,1.85-.15,2.78-.23l-.03-.03c-.13,.08-.26,.21-.4,.24-1.85,.38-3.71,.48-5.57,.13-1.67-.32-3.34-.67-5.01-.99-.4-.08-.81-.12-1.21-.13-.2,0-.4,.09-.85,.21,.48,.19,.69,.28,.91,.35,1.55,.47,3.15,.82,4.65,1.41,2.57,1.01,5.17,1.39,7.87,.77,1.69-.39,3.25-1.03,4.36-2.46,.5-.64,1.08-1.22,1.53-1.89,.43-.62,.88-1.27,1.04-2.25l-.8,.39c.06-.68,.06-.67-.35-1.24-.16-.23-.31-.46-.47-.69l1.3,.67c-.85-1.67-1.8-3.21-2.76-4.75-.08-.13-.23-.23-.35-.34-1.65-1.56-3.5-2.69-5.77-3.18-2.06-.45-3.93-.21-5.72,.86-1.98,1.18-3.46,2.81-4.35,4.92-.44,1.04-.8,2.12-1.13,3.2-.22,.72-.46,1.38-1.15,1.77,.31-1.05,.58-2.11,.94-3.13,.35-.99,.75-1.98,1.25-2.9,.44-.82,1.05-1.54,1.58-2.31,1.11-1.6,2.78-2.4,4.53-3.02,1.61-.58,3.21-.12,4.79,.25,2.77,.65,4.74,2.43,6.44,4.55,.93,1.17,1.69,2.48,2.56,3.7,.62,.88,.56,1.76,.08,2.63-.35,.64-.7,1.31-1.21,1.81-1.27,1.24-.91,3.79-.14,4.9,.94,1.35,2.9,1.32,3.98-.03,.4-.5,.74-1.03,1.13-1.57,.07,1.59-1.59,3.16-3.6,3.39-.23,.55-.34,1.07,.08,1.66,.18,.26,.14,.69,.17,1.04,.18,2.37-.12,4.69-.49,7.02-.66,4.2-1.83,8.24-3.47,12.14-.48,1.13-1.22,2.25-2.11,3.09-1.76,1.67-3.6,3.3-5.6,4.67-3.33,2.29-6.91,4.09-11.06,4.44-1.36,.12-2.69,.58-4.05,.78-2.36,.35-4.72,.17-7.01-.4-1-.25-1.98-.76-2.85-1.33-1.65-1.09-2.34-3.83-1.67-6.08,.17-.58,.31-1.17,.47-1.75l-.04,.04Zm16.37-30.94l.1-.42-.7-.12c-.02,.14-.08,.39-.06,.4,.21,.07,.44,.1,.66,.14Z"/><path class="e" d="M83.07,36.37c.27-.67,.55-1.34,.82-2l-.04,.05c.58-.66,1.17-1.32,1.75-1.99,1.43-1.65,3.13-2.79,5.36-3.1,1.93-.27,3.62,.42,5.23,1.28,1.36,.71,2.61,1.62,3.9,2.43,.6,2.14-.54,3.8-1.61,5.45-.96,1.48-2.12,2.74-3.86,3.39-3.3,1.24-7.23,1.06-11.19-4.21,.2,.85,.4,1.71,.62,2.63-.85,1.01-2.09,1.09-3.28,1.13-.66,.02-1.4-.12-1.99-.42-1.15-.58-2.3-.97-3.58-.74-.02-.16-.06-.27-.03-.31,1.21-1.56,2.61-2.9,4.5-3.6,1.13-.42,2.3-.45,3.45,0,.09,.22,.12,.49,.27,.65,.37,.4,.86,.7,1.19,1.13,.79,1.05,1.8,1.86,2.83,2.65,2.65,2.04,7.51,1.4,9.27-.83,.9-1.14,1.67-2.37,2.48-3.58,.16-.24,.2-.55,.29-.83-1.02,1.26-2.27,2.15-3.7,2.78-2.98,1.33-6.01,1.69-9.04,.21-1.26-.62-2.42-1.43-3.63-2.15Zm4.65,2.08c2.52,.96,4.93,.61,7.28-.3,2.26-.87,3.98-2.33,4.68-4.84-.8-.49-1.6-1.03-2.45-1.5-1.06-.59-2.12-1.21-3.24-1.65-2.21-.88-4.31-.44-6.25,.85-1.77,1.18-2.84,2.97-3.99,4.68-.08,.12-.07,.31-.11,.51l3.46,2.05c.08-.28,.16-.47,.13-.49-.96-.63-1.93-1.24-2.93-1.88,.85-1.8,2.14-3.26,3.79-4.45,1.92-1.39,4.05-1.65,6.14-.82,1.69,.68,3.17,1.86,4.89,2.9-.88,1-1.59,1.89-2.4,2.68-1.27,1.25-2.81,1.93-4.62,1.87-1.13-.03-2.27-.12-3.4-.19-.39-.02-.83-.21-.98,.59Zm4.53-1.52c.24-.91-.52-1.28-.62-1.87-.11-.63-.2-1.26-.32-1.89-.11-.59,.39-1.22-.04-1.85-1.13,1.41-.71,4.04,.98,5.61Zm-11.71,3.51c-.09-1.15-.17-2.2-.26-3.28-.87,.36-.73,1.12-.67,1.83,.06,.61,.11,1.27,.93,1.46Z"/><path class="e" d="M86.97,156.1c-.05,2.42-.77,4.49-2.34,6.31-1.57,1.83-3.73,1.97-5.66,1.15-2.29-.98-3.08-2.43-2.96-4.92,.13-2.56,1.14-4.78,3.03-6.45,.91-.8,1.87-1.74,3.33-1.79,1.85-.06,3.3,.64,3.92,2.4,.37,1.05,.47,2.2,.68,3.31Zm-3.69,1.22c0-1.06-.41-1.7-1.02-1.84-.65-.15-1.32,.17-1.72,.85-.35,.61-.56,1.24-.37,1.96,.19,.71,.62,1.13,1.32,1.2,.62,.06,1.17-.24,1.43-.89,.2-.48,.28-1,.35-1.28Z"/><path class="e" d="M45.25,126.33c-3.28-.08-6.56-.15-9.94-.23,.09-.3,.12-.54,.23-.74,2.51-4.68,5.42-9.06,9.34-12.7,.93-.87,1.04-.89,2.45-.42-.22,.47-.46,.92-.66,1.39-.61,1.42-.83,2.88-.47,4.4,.67,2.81-.01,6.62-.94,8.29Z"/><path class="e" d="M119.19,99.52c-.06,.18-.16,.36-.18,.55-.12,1.54-.22,3.08-.32,4.62-.08,1.23,0,2.44,.41,3.61,.41,1.19,.82,2.37,1.21,3.57,.08,.25,.15,.69,.03,.77-.22,.15-.61,.21-.87,.13-.53-.17-1.11-.37-1.52-.72-1.39-1.19-2.81-2.36-4.02-3.71-1.18-1.31-1.66-3.05-2.21-4.71-.67-2.03-.63-4.09-.16-6.14,.25-1.11,.31-2.19-.12-3.23-.7-1.68,.21-4.07,2.2-5.11,1.1-.57,2.14-1.28,2.98-2.26,.98-1.14,2.14-2.11,3.12-3.24,1.04-1.19,2.05-2.42,2.94-3.72,1.64-2.42,2.1-5.15,1.86-8.03-.08-.89-.19-1.78-.26-2.67-.19-2.39-1.34-4.4-2.46-6.43-.27-.5-.6-.97-.9-1.45-1.52-2.43-1.99-5-1.21-7.8,.54-1.92,1.13-3.82,2.07-5.59,.19-.37,.46-.7,.72-1.09,.1,.15,.15,.19,.14,.21-1.04,2.08-1.66,4.29-2.14,6.57-.47,2.21-.32,4.19,.95,6.16,1.56,2.42,2.87,5,3.73,7.78,.92,2.96,.87,5.9,.04,8.88-.66,2.38-1.8,4.41-3.64,6.06-.94,.84-1.83,1.74-2.68,2.67-.87,.96-1.68,1.98-2.46,3.01-.31,.41-.65,.66-1.14,.83-.85,.29-1.62,.71-2.2,1.44-.97,1.22-1.14,2.63-.81,4.03,.27,1.16,.15,2.24,0,3.36-.58,4.29,.65,8.01,3.55,11.19,.74,.81,1.53,1.57,2.33,2.32,.58,.55,.64,.55,1.59,.62-.07-.24-.1-.47-.2-.65-.6-1.12-.98-2.28-1.11-3.57-.24-2.28-.25-4.54,.12-6.8,.08-.51,0-1.16,.66-1.43h0Z"/><path class="e" d="M99.97,16.15c-3.38,2.55-6.82,3.9-10.85,3.17-.43-.08-.85-.26-1.26-.42-.97-.39-1.93-.8-2.94-1.22,1.24-1.73,2.59-3.34,4.6-4.19,.66-.28,1.38-.49,2.09-.59,1.03-.15,2.09-.25,3.13-.21,.57,.02,1.21,.27,1.68,.61,1.17,.85,2.26,1.81,3.55,2.85Zm-7.64,2.57c.07-.16,.14-.25,.12-.3-.56-1.18-.98-2.38-.58-3.72,.04-.12-.17-.31-.26-.47-.2,.15-.53,.26-.57,.44-.29,1.39-.22,2.73,.81,3.85,.11,.11,.31,.13,.47,.2Z"/><path class="e" d="M68.94,77.74c2.31-1.94,4.42-3.71,6.59-5.53,1.26,2.17,2.55,4.38,3.8,6.52l-8.39,6.7c-.29-.99-.61-2.05-.93-3.12-.47-1.55-.94-3.09-1.06-4.57Zm5.4-.09l.13,.22c.54-.22,1.14-.36,1.59-.69,.27-.19,.41-.7,.42-1.06,0-.45-.39-.66-.83-.73-.26-.04-.51-.1-.8-.16l.41-.9-1.25,.2c-.16,.33-.29,.62-.44,.9-.26,.45-.41,.94,.03,1.32,.36,.32,.75,.11,1.08-.19,.29-.27,.5-.17,.65,.21l-.99,.87Zm-4.69,2.03c1.02,.05,1.63,.64,2.13,1.43,.6,.94-.32,1.57-.56,2.46,1.19-.82,1.49-1.58,1.1-2.52-.5-1.18-1.55-1.77-2.67-1.38Z"/><path class="e" d="M157.05,127.51c.45-.14,.91-.28,1.36-.42,1.12-.37,1.66-.13,2.17,.9,.56,1.14,.51,2.31,.02,3.42-.69,1.58-1.74,2.86-3.16,3.93-1.66,1.26-3.38,2.22-5.41,2.65-.47,.1-.95,.13-1.59,.22,.77-1.47,1.45-2.79,2.13-4.1,.75-1.44,1.52-2.87,2.27-4.31,.34-.65,1.04-1.01,1.79-.9,.73,.1,1.36,.7,1.48,1.43,.12,.73-.12,1.35-.56,1.93-1.29,1.71-3.06,2.6-5.17,3.02,.21,.56,.65,.44,.98,.33,1.53-.48,2.96-1.16,4.03-2.4,.39-.46,.79-.95,1.02-1.5,.71-1.67-.25-3.15-2.05-3.27-.23-.02-.47-.03-.72-.05,.96-3.22,2.31-5.03,3.95-5.17-.61,.64-1.23,1.17-1.72,1.81-.5,.66-.9,1.41-1.06,2.24l.25,.26Z"/><path class="e" d="M71.83,30.82c.24-.88,.39-1.68,.66-2.43,.88-2.51,2.77-4.03,5.12-5.07,.22-.1,.46-.15,.7-.18,1.25-.16,1.67,.11,1.79,1.35,.2,1.99,.71,3.91,1.32,5.8,.11,.33,.16,.69,.25,1.07-1.52,.42-2.97,.52-4.43,.3-.96-.14-1.9-.38-2.86-.54-.8-.13-1.6-.19-2.55-.3Zm5.3-5.72c-1.19,.47-1.51,1.14-1.36,2.52,.14,1.35,.86,2.54,1.74,2.71-1.14-1.62-1.35-3.29-.38-5.23Z"/><path class="e" d="M169.84,108.46c.69,1.19,1.89-.1,2.56,.83,0,.94,.01,1.98,0,3.02-.03,1.98,1.16,3.22,2.61,4.28,1.12,.81,1.48,.85,2.9,.64,.31,.54,.22,.92-.35,1.27-2.49,1.56-4.61,1.4-6.83-.73-.93-.9-1.94-1.76-2.24-3.11-.05-.24-.2-.49-.16-.7,.29-1.58,.61-3.17,.96-4.74,.05-.25,.32-.45,.55-.75Z"/><path class="e" d="M119.2,99.52c-.27-.92,.16-2.08,.88-2.67,.68-.56,1.28-1.22,1.9-1.85,.11-.11,.22-.3,.2-.43-.16-1.12,.64-1.72,1.33-2.26,2.26-1.79,4.57-3.51,6.88-5.23,3.15-2.36,6.38-4.62,9.46-7.07,2.46-1.96,4.11-4.46,4.82-7.65,.94-4.22,1.03-8.45,.87-12.71-.08-2.3-.4-4.59-.52-6.9,.63,1.06,.73,2.26,.82,3.42,.19,2.63,.29,5.27,.41,7.9,.16,3.27-.26,6.48-.89,9.68-.4,2.02-1.54,3.66-2.87,5.15-1.93,2.17-4.28,3.82-6.69,5.43-3.71,2.48-7.27,5.18-10.89,7.78-.33,.24-.7,.42-.99,.7-.43,.42-.9,.84-1.17,1.35-.67,1.25-1.28,2.49-2.44,3.42-.54,.44-.76,1.28-1.12,1.94h.01Z"/><path class="e" d="M100.82,37.16c1.22-1.25,2.42-2.31,3.83-3.14,1.38-.81,4.46-.93,5.96,.51,.61,.59,1.31,1.08,1.96,1.62-2.24,3.12-6.88,4.05-11.75,1.01Zm6.24-2.7c-1.15,.61-.81,1.57-.72,2.44,.05,.5,.31,.92,1.2,.71-1.21-.95-.36-2.07-.48-3.14Z"/><path class="e" d="M70.04,86.6c-1.81,1.66-3.43,3.15-5.19,4.76-1.26-2.53-3.33-4.2-5.27-6.16,1.32-1.47,3.06-2.4,4.35-3.93l1.95,2.36c-.24,1.78,.34,2.6,1.66,2.23-.36-.51-1.4-.53-1.09-1.56,1.21,.7,1.84,2.12,3.6,2.3Zm-6.74-2.46l-1.14,.2c-.55,1.62-.51,1.68,1.32,1.94l-.74,.75c1.44,.05,1.99-.23,1.99-.98,0-.3-.11-.76-.32-.86-.38-.19-.87-.18-1.37-.26l.26-.8Z"/><path class="e" d="M113.67,41.42c-.19,.07-.39,.11-.57,.2-2.28,1.15-4.53,2.38-6.85,3.44-2.39,1.1-4.87,2.02-7.29,3.07-2.25,.98-4.61,.99-6.95,.77-2.13-.2-4.24-.73-6.35-1.13-.14-.03-.26-.16-.49-.3,1.07-.52,2.05-.99,3.02-1.47,.76-.38,1.53-.75,2.27-1.17,.86-.47,1.39-.44,2.06,.25,.37,.37,.7,.78,1.12,1.27,.54-.53,1.06-1.02,1.55-1.53,.55-.57,1.11-.75,1.95-.57,1.47,.31,2.97,.48,4.47,.59,2.23,.16,4.35-.38,6.39-1.26,2.12-.92,4.29-1.73,6.11-3.23,.88-.72,1.76-1.44,2.28-2.5,.09-.18,.22-.34,.42-.43-.22,1.33-1.1,2.18-2.04,2.99-.39,.34-.77,.7-1.15,1.04l.04-.04Zm-16.29,6.38c1.29,.06,1.42-1.03,2-1.66l-.1,1.09,.32,.23,1.15-1.13s0,.2,0,.56c.65-.31,1.17-.54,1.16-1.34-1.61-.24-3.16-.42-4.69-.72-.76-.15-1.22,.11-1.66,.66-.55,.68-1.14,1.32-1.79,2.05,.07,.31,.01,.86,.73,.88,.7,.02,.88-.45,1.02-.98,.08-.29,.13-.59,.2-.89,.17,.27,.18,.52,.17,.77,0,.3-.03,.6-.04,.89,.79,0,1.13-.36,1.26-1,.11-.52,.29-1.03,.44-1.54l.22,.06c-.12,.66-.24,1.32-.38,2.09Zm-6.78-2.26c.13,1.01,.5,1.92,1.17,2.7,.1,.12,.42,.05,.75,.07-.17-.37-.31-.61-.4-.87-.09-.25-.14-.52-.21-.78,.55,.47,.57,1.27,1.31,1.56,.22-1.29-.16-2.1-1.27-2.86-.49-.34-.9-.23-1.34,.18Zm-1.06,1.36q.53,1.26,1.48,1.19l-.86-2.46c-1.08,.64-2.27,.93-3.2,1.8,.45,.11,.88,0,1.27,.07,.39,.07,.74,.31,1.16,.5l.15-1.1Zm12.99-.72l1.28-.62q-1.1-.1-1.28,.62Z"/><path class="e" d="M92.07,64.57c-1.08-.22-2.11-.41-3.12-.64-.43-.1-.83-.29-1.25-.45,.43-2.52,.85-4.98,1.3-7.59l3.53,.45c.43,2.83-.13,5.48-.46,8.23Z"/><path class="e" d="M93.5,56.65l3.46,.29-.21,8.26c.37,.38,.83,1.03,.85,1.97-.44-.63-.75-1.25-1.23-1.71-.5-.47-1.16-.71-1.99-.3v2.68h-.26c-.05-.89-.1-1.78-.15-2.74l-1.2-.37c.24-2.61,.48-5.21,.74-8.07Z"/><path class="e" d="M102.11,63.25l-1.86,.81c.46,.76,1.47,1.11,1.63,2.1-.97-1.06-1.89-2.19-3.77-1.61l1.16,1.27-.15,.16c-.44-.38-.94-.72-1.31-1.17-.22-.28-.33-.73-.33-1.1,0-1.99,.05-3.98,.06-5.97,0-.45,.19-.69,.59-.8,.55-.14,1.11-.27,1.66-.38,.98-.2,1.05-.19,1.25,.76,.3,1.43,.54,2.87,.8,4.31,.09,.48,.17,.96,.28,1.62Z"/><path class="e" d="M81.8,80.15c-4.92,3.62-9.82,7.04-13.54,11.81l-2.15-.86c.48-.45,.96-.91,1.44-1.36,.51-.47,1.01-.93,1.53-1.39,1.9-1.7,3.8-3.39,5.7-5.09,.09-.08,.15-.22,.25-.26,1.71-.72,2.88-2.18,4.34-3.23,.94-.67,1.54,.05,2.44,.38Z"/><path class="e" d="M166.04,128.45c-.24-.9-.46-1.8-.72-2.69-.39-1.37-1.29-2.31-2.55-2.93-.33-.16-.84-.19-.73-.92,.35-.02,.75-.12,1.1-.04,1.69,.38,3.37,.81,5.06,1.21,1.61,.38,3.22,.74,4.8,1.11-.1,.06-.3,.21-.52,.32-1.96,.97-3.91,1.97-5.89,2.88-.55,.25-.49,.66-.57,1.08l.02-.02Z"/><path class="e" d="M84.96,66.32c.08-1.43,.91-2.38,2.01-3.13-1.29-1.43-1.39-1.42-3.11,.43,.09-.91,.72-1.31,1.3-1.83l-1.23-1.45c.51-1.96,1.01-3.9,1.53-5.92,.99,.21,1.75,.75,2.51,1.24,.18,.11,.27,.48,.27,.73,0,.44-.05,.89-.13,1.33-.3,1.76-.6,3.51-.92,5.27-.04,.22-.09,.53-.25,.63-1,.67-1.56,1.63-1.99,2.69Z"/><path class="e" d="M69.19,114.75c.32-.04,.66-.16,.97-.11,1.56,.25,3.12,.49,4.66,.84,3.57,.81,7.2,1.18,10.82,1.66,2.69,.35,5.36,.86,8.04,1.31,.47,.08,.95,.18,1.42,.27-.68,1.35-1.14,1.49-2.44,1.17-2.79-.69-5.6-1.34-8.42-1.92-4.09-.84-8.2-1.6-12.31-2.38-.9-.17-1.81-.3-2.72-.45l-.02-.38Z"/><path class="e" d="M83.34,16.36c1.35-2.17,2.85-4.28,5.26-5.35,2.97-1.33,5.99-1.49,8.73,.71,.66,.53,1.25,1.14,1.89,1.69,.74,.63,1.49,1.24,2.33,1.94l-.39,.66c.44,.49,.85,.53,1.21,0,.32-.49,.42,.02,.89-.02-.74,.57-1.3,.9-1.73,1.35-.91,.97-1.79,1.99-2.62,3.04-1.15,1.46-2.42,2.71-4.22,3.35-1.75,.62-3.2,.03-4.59-1.02,.5,.09,1.01,.15,1.5,.29,1.98,.57,3.72-.06,5.25-1.23,1.06-.81,2.02-1.77,2.54-3.06,.1-.26,.24-.6,.45-.7,.84-.42,.75-1.2,.84-1.88l-1.72-1.41,.49-.41c-.68-.71-1.26-1.51-2.02-2.08-3.39-2.57-8.09-2.16-11.04,.92-.73,.76-1.36,1.6-2.03,2.41-.28,.34-.55,.69-.82,1.03l-.21-.22Z"/><path class="e" d="M107.51,52.95l2.5-2.46c.35,.59,.63,1.02,.87,1.47,.33,.6,.62,1.23,.95,1.83,.36,.67,.69,1.33,1.62,1.43,.39,.04,.73,.44,.99,.87-.31-.18-.62-.37-.94-.52-1-.48-1.5-.3-2.06,.75,.75,.13,1.56,.08,2.13,.97-1.5-.63-2.79-.62-3.81,.8-.67-.8-.85-1.73-1.22-2.55-.36-.81-.65-1.65-1.02-2.59Z"/><path class="e" d="M116.44,93c.14-.58,.21-1.2,.45-1.73,.64-1.44,2.57-1.71,3.65-.55,.85,.91,1.17,3.03,.6,4.13-.44,.85-1.33,1.14-2.1,1.51-.24,.12-.77-.17-1.07-.39-.98-.75-1.33-1.56-1.53-2.97Zm3.2,2.61c.04-.54,.17-1.01,.07-1.06-.61-.31-.5-.69-.25-1.17,.06-.11-.13-.35-.2-.53-.07-.18-.27-.45-.2-.54,.48-.71-.19-.91-.54-1.29-.1,.39-.2,.82-.04,1.12,.21,.39,.16,.73,.18,1.13,.03,.57,.52,1.08,.29,1.74-.03,.08,.32,.28,.68,.59Z"/><path class="e" d="M103.23,55.17c1.3,1.95,1.81,4.08,2.62,6.15-.26,.16-.46,.28-.66,.4-.17,.1-.33,.22-.54,.35l1.16,1.38c-.85-.27-1.3-1.54-2.55-.69,.38,.23,.78,.38,1.06,.66,.3,.3,.49,.72,.57,1.21-.16-.18-.31-.38-.48-.55-.22-.23-.44-.58-.7-.63-.92-.17-1.11-.84-1.24-1.58-.32-1.71-.61-3.43-.96-5.13-.1-.5,.03-.78,.45-.98,.4-.19,.8-.37,1.28-.59Z"/><path class="e" d="M2.28,150.05c-.16,.01-.36,.09-.47,.02-.69-.41-1.37-2.12-1.19-2.9,.17-.72,.76-1.15,1.53-.99,1.42,.28,2.68,.89,3.62,2.03,.08,.09,.15,.19,.21,.29,.48,.78,.52,1.86,.09,2.41-.44,.56-1.64,.83-2.47,.53-.34-.12-.66-.31-1-.44-.48-.2-.45-.57-.36-.97,.92-.12,1.2-.28,1.78-1.14-.59,.39-1.17,.78-1.76,1.17Zm3.14-.18l-.19-.25-1.58,1.18,.17,.22,1.6-1.16Zm-2.44-1.53l-.13-.18-.89,.63,.14,.19,.88-.64Z"/><path class="e" d="M97.17,52.68c-.07-1.17-.14-2.24-.2-3.31l4.91-1.63c.65,.86,.71,1.84,.86,2.78,.07,.45-.23,.68-.6,.79-1.26,.4-2.53,.79-3.81,1.17-.3,.09-.63,.11-1.18,.21Z"/><path class="e" d="M91.35,53.35l.24-3.52,4.7-.36,.28,3.3c-1.68,.34-3.27,.87-5.22,.58Z"/><path class="e" d="M86.04,52.28c.11-1.28,.2-2.41,.3-3.66,1.53,.39,2.99,.76,4.54,1.16,.18,1.07-.21,2.11-.39,3.16-.09,.54-.57,.53-.98,.41-1.12-.32-2.23-.68-3.47-1.07Z"/><path class="e" d="M68.92,96.99c.37,.2,.69,.27,.85,.47,.64,.83,1.29,1.67,1.84,2.56,1.5,2.43,3.72,3.93,6.35,4.83,1.56,.54,3.2,.86,4.81,1.29,.14,.04,.27,.11,.59,.24-.33,.15-.49,.28-.66,.29-3.28,.22-6.24-.58-8.85-2.68-1.43-1.15-2.49-2.48-3.14-4.22-.35-.94-1.09-1.74-1.78-2.78Z"/><path class="e" d="M174.43,109.26c.26,0,.54-.02,.82,0,1.98,.14,2.14-.2,2.36,2.46,.1,1.17,.14,2.34,.21,3.52-3.19-.26-4.76-3.03-3.39-5.97Zm1.59,4.75c.67-1.2,.81-1.96,.56-3.13-.2,1.09-.35,1.98-.56,3.13Zm.03-3.38l-.3-.16c-.21,.82-.41,1.64-.62,2.46l.29,.08,.63-2.38Z"/><path class="e" d="M107.59,45.28c.07,.39,.07,.6,.15,.78,.64,1.31,.19,2.18-1.02,2.88-1.05,.6-2,1.38-3.27,1.69l-.66-3.02c1.54-.75,3.13-1.52,4.8-2.32Z"/><path class="e" d="M115.43,50.68l-.91,.85,1.96,1.19-.11,.18c-.42-.21-.83-.44-1.25-.64-.5-.24-.91-.19-1.25,.33-.3,.47-.68,.9-1.17,1.52-.71-1.32-1.35-2.51-2.03-3.77l2.2-2.4c.87,.96,1.69,1.86,2.52,2.76l.04-.03Z"/><path class="e" d="M1.65,145.42c.39-.2,.59-.39,.78-.39,2.82,.06,5.23,2.08,5.71,4.12,.39,1.69-.1,2.89-1.77,3.27-.94,.21-1.99-.02-2.99-.09-.14,0-.27-.22-.36-.3,.67,0,1.36,.09,2.01-.02,1.49-.24,2.18-1.4,1.8-2.86-.36-1.37-1.35-2.19-2.54-2.78-.75-.37-1.58-.58-2.64-.96Z"/><path class="e" d="M89.89,148.43c.36,.36,.74,.69,1.07,1.07,1.3,1.49,2.76,2.74,4.67,3.39,.07,.02,.11,.11,.23,.24-1.26,.45-2.48,.89-3.8,1.36l-.37-3.02h-.26c-.09,1.18,.44,2.37-.09,3.81-.47-2.49-.4-4.8-1.41-6.88l-.03,.03Z"/><path class="e" d="M82.34,78.17c-.85,.22-.32,.79-.25,1.29-1.78-.3-2.53-1.71-3.38-2.93-.81-1.15-1.41-2.45-1.97-3.83l2.69,1.39c.38,1.43,1.16,2.78,2.37,3.84,.14,.12,.34,.16,.52,.24h.01Z"/><path class="e" d="M108.04,45c.83-.43,1.52-.75,2.19-1.13,.63-.36,1.23-.77,1.84-1.16,.89,1.29,.87,1.78-.27,2.64-.89,.68-1.89,1.23-3,1.94l-.76-2.29Z"/><path class="e" d="M115.46,45.28l2.22,1.23c-.42,0-.81,.27-1.02,.92-.23,.73-.62,1.4-.93,2.1-1.19-.1-1.52-1.07-2.06-1.79-.07-.1-.05-.34,.03-.45,.53-.76,1-1.57,1.76-2Z"/><path class="e" d="M112.87,93.91c-.25-2.87,1.38-4.59,4.01-4.27-.31,.53-.64,1.01-.89,1.52-.26,.55-.45,1.13-.71,1.78-.97-.26-1.7,.26-2.41,.97Z"/><path class="e" d="M98.78,18.05c-3.44,4.08-9.38,3.68-12.3,.87,2.01,.85,4.01,1.75,6.27,1.52,2.23-.23,4.12-1.35,6.03-2.39Z"/><path class="e" d="M59.46,112.78c-.23-.05-.46-.08-.68-.16-2.22-.81-4.46-.74-6.68-.04-.43,.14-.51-.02-.75-.27-.15-.15-.59-.03-.93-.03,.49-.62,1.43-.97,3.19-1.16,2.15-.24,4.21-.1,5.85,1.66Z"/><path class="e" d="M151.12,92.96c1.05-1.27,2.2-2.48,3.13-3.83,.92-1.34,1.62-2.83,2.48-4.37,.45,.61,.32,1.08,.15,1.51-.64,1.63-1.42,3.17-2.82,4.32-.97,.79-1.87,1.65-2.81,2.48l-.14-.11Z"/><path class="e" d="M113.63,41.47c.53-.34,1.06-.67,1.59-1.02,.4-.27,.78-.55,1.15-.82,.52,.45,.65,.86,.18,1.31-1.02,.97-2.03,1.95-3.18,3.04l-.51-1.57c.31-.38,.56-.67,.81-.97l-.04,.04Z"/><path class="e" d="M86.48,14.81c-.35,.43-.77,.83-1.03,1.31-.39,.72-1.46,1.04-1.27,2.13,.02,.11-.3,.27-.58,.51,2.34,.6,3.78,2.31,5.49,3.72-.39-.11-.84-.13-1.16-.35-1.49-1.03-2.95-2.12-4.41-3.19-.09-.07-.16-.18-.25-.28l.07-1.02,2.98-2.96,.14,.13Z"/><path class="e" d="M149.96,93.69c-1,2.37-3.17,3.2-5.27,4.14,1.52-1.68,3.94-2.2,5.27-4.14Z"/><path class="e" d="M117.78,44.12l-.61,1.43c-1.45-.83-1.4-1.51,.21-2.55,.69,.2,.43,.71,.38,1.16l.02-.03Z"/><path class="e" d="M111.76,38.01c-1.52,1.82-4.56,2.68-6.29,1.92,1.05-.15,2.16-.18,3.19-.49,1.01-.3,1.93-.88,3.1-1.43Z"/><path class="e" d="M78.72,41.89c1.04,.05,1.97,.22,2.88,.11,.87-.11,1.71-.51,2.7-.82-1.45,1.33-3.84,1.61-5.58,.71Z"/><path class="e" d="M87.66,13.55c1.2-1.57,2.97-1.98,5.67-1.7-2.19,.04-3.95,.78-5.67,1.7Z"/><path class="e" d="M122.15,92.32c-.56-1.43-1.34-2.67-2.82-3.32,1.7,0,2.83,1.31,2.82,3.32Z"/><path class="e" d="M143.47,131.48c-.7-.76-1.41-1.51-2.11-2.27-.28-.31-.15-.57,.14-.88,1.09,.81,1.57,1.94,1.97,3.15Z"/><path class="e" d="M168.89,103.51c-.36-1.56-.72-3.12-1.08-4.67,.95,1.41,1.27,2.97,1.08,4.67Z"/><path class="e" d="M144.15,135.95c-.55-.97-.77-1.98-.45-3.09,.59,.6,.74,1.51,.45,3.09Z"/><path class="e" d="M147.82,141.32l2.13-2.64c-.06,1-1,2.27-2.13,2.64Z"/><path class="e" d="M118.5,97.22c-1.21-.16-1.62-.46-2.24-1.63,.35,.28,.68,.57,1.04,.83,.39,.28,.8,.54,1.2,.8Z"/><path class="e" d="M79.82,32.85c-1.28,.09-2.39,.05-3.41-.62l3.41,.62Z"/><path class="e" d="M139.59,43.01l-2.29-.9c.7-.53,1.24-.33,2.29,.9Z"/><path class="e" d="M90.3,65.05l-.65,2.63c-.2-1.76,0-2.36,.65-2.63Z"/><path class="e" d="M87.42,67.45c-.08-1.17,.11-2.23,1.18-2.9-.25,.47-.54,.93-.74,1.42-.19,.47-.29,.98-.44,1.47Z"/><path class="e" d="M86.06,106.14c.43-.52,.88-.55,1.45-.23-.63,.74-.66,.74-1.45,.23Z"/><path class="e" d="M129.04,42.38c.49-.52,.89-.7,1.51-.38-.37,.6-.77,.77-1.51,.38Z"/><path class="e" d="M143.27,139.54l.69-2.02c.12,1.04,.1,1.11-.46,2.08l-.24-.06Z"/><path class="e" d="M103.77,65.66q-.75-1.39-1.58-1.84c.95-.17,1.35,.27,1.58,1.84Z"/><path class="e" d="M69.58,74.37c-.06,.5-.11,1-.18,1.5-.03,.25-.07,.49-.14,.97-.35-1.01-.26-1.48,.31-2.46h0Z"/><path class="e" d="M92.48,64.78l-.46,2.97c-.2-1.14-.28-1.97,.46-2.97Z"/><path class="e" d="M69.58,74.38c-.29-1.02,.18-1.85,.73-2.67-.24,.89-.49,1.77-.73,2.66h0Z"/><path class="e" d="M105.68,61.83c.91,.18,1.33,.83,1.66,1.58l-1.66-1.58Z"/><path class="e" d="M142.93,98.89l-.42-.76,.89-.78,.16,.1-.63,1.44Z"/><path class="e" d="M111.69,59.01l-2.08-.63c.82-.16,1.46-.1,2.08,.63Z"/><path class="e" d="M105.27,107.16l.15-1.71,.28,.03-.23,1.7-.2-.02Z"/><path class="e" d="M72.9,26.03l-.81,1.55-.23-.11,.77-1.57,.27,.13Z"/><path class="e" d="M76.23,22.74l1.6-.56,.07,.2-1.59,.57-.08-.21Z"/><path class="e" d="M63.07,79.52l.52,1.33q-.52-.33-.52-1.33Z"/><path class="e" d="M114.91,54.21l-1.11-.53,.09-.2,1.11,.52-.1,.22Z"/><path class="e" d="M79.8,22.16l-.94,.07-.04-.22,.93-.24,.06,.4Z"/><path class="e" d="M107,68.26l1.26,.35q-.75,.18-1.26-.35Z"/><path class="e" d="M114.53,93.71c.56-.16,.93,0,1.14,.79l-1.14-.79Z"/><path class="e" d="M82.32,78.17l.63,1.31q-.76-.56-.62-1.31h-.01Z"/><path class="e" d="M116.94,48.62l.82,.18-.05,.22-.81-.2,.04-.2Z"/><path class="e" d="M83.96,43.1l.52-.13,.05,.33-.53,.06-.04-.25Z"/><path class="e" d="M82.65,17.79c-.19,.18-.33,.37-.38,.34-.14-.06-.26-.2-.36-.33-.02-.03,.12-.24,.16-.24,.16,.03,.31,.11,.58,.22Z"/><path class="e" d="M95.18,12.14l-.63-.22,.04-.17,.69,.16-.1,.24Z"/><path class="e" d="M117.7,89.06l.66-.2,.07,.18-.6,.3-.13-.27Z"/><path d="M46.18,154.98c-1.42,1.3-2.07,2.95-2.61,4.53-.63-.15-1.11-.36-1.6-.37-4.33-.02-8.57-.78-12.82-1.53-5.2-.91-10.35-2.11-15.43-3.55-2.64-.74-2.79-.83-3.11-3.86-.04-.36-.02-.73,0-1.1,.04-1.26,.08-1.36,1.37-1.55,1.24-.18,2.5-.35,3.76-.36,5.01-.04,9.96,.44,14.88,1.52,3.45,.75,6.65,2.09,9.89,3.39,1.65,.66,3.13,1.64,4.79,2.27,.28,.11,.52,.34,.88,.59Zm-18.84,1.71c.65-2.34,.84-4.59,.58-6.95l-3.22-.6c-.34,2.43-.05,4.71-.13,7.06l2.78,.49Zm4.72-6.02c-1.1-.18-2.18-.65-3.28-.65-.25,2.3-.49,4.49-.73,6.73,.89,.2,1.77,.52,2.68,.38,1.07-2.25,1.64-5,1.32-6.45Zm-10.7-1.97c-.05,.81-.13,1.53-.13,2.24,0,1.25,.03,2.51,.12,3.75,.02,.29,.28,.72,.54,.82,.62,.25,1.3,.35,2.08,.54v-7.01l-2.61-.34Zm13.43,9.03c.94,.12,1.84,.41,2.81,.24,.28-1.28,.55-2.46,.78-3.64,.07-.39,.09-.81,.02-1.2-.04-.23-.25-.53-.46-.62-.74-.29-1.51-.5-2.29-.75-.29,2.04-.57,3.94-.86,5.97Zm-.56,.02c.24-1.63,.48-3.1,.67-4.57,.22-1.71,.2-1.72-1.45-2.13-.17-.04-.36-.06-.41-.07l-1.6,6.44,2.8,.33Zm-13.49-2.62v-6.62l-2.22-.13c-.39,1.67-.26,3.19-.1,4.72,.22,2.03,0,1.72,2.17,2.09,.03,0,.07-.03,.15-.06Zm18.41-2.22l-.95,5.23c.61,.07,1.17,.2,1.72,.18,.26,0,.62-.24,.73-.47,.61-1.19,1-2.46,.99-3.94l-2.49-1Zm-23.38-4.48c-.23,1.66-.33,3.18-.05,4.72,.08,.44,.13,.91,.65,1.06,.49,.15,.99,.27,1.58,.43l-.21-6.21h-1.96Zm-2.45,.06c-.04,1.75-.31,3.36,.36,4.97l1.45,.35v-5.33h-1.8Zm29.75,10.16c.47-1.19,.88-2.26,1.34-3.41-.77-.36-1.41-.66-2.09-.97-.19,.84-.32,1.52-.51,2.17-.19,.64-.46,1.27-.75,2.05l2.02,.16Zm-30.32-5.62v-4.51l-1.11,.2v3.81l1.11,.5Z"/><path d="M55.2,153.71c2.14-.02,4.21,.24,6.09,1.39,1.96,1.19,2.87,3.86,1.73,5.56-.6,.89-1.39,1.73-2.26,2.35-2.46,1.74-5.16,2.61-8.26,2.07-1.47-.25-2.86-.52-4.06-1.46-2.45-1.93-2.49-5.91-.05-7.88,1.73-1.4,3.71-2.13,5.96-2.03,.28,.01,.57,0,.85,0Zm3.21,1.23l.04,.04c-.89-.57-1.89-.67-2.9-.72-1.44-.08-2.8,.26-4.19,.63-1.29,.34-2.28,1.01-3.15,1.95-2.45,2.64-.2,6.87,2.37,7.27,2.37,.37,4.71,.42,7.01-.22,1.9-.53,3.67-1.36,4.43-3.44,.06-.18,.22-.34,.36-.46,.68-.56,.74-1.32,.36-1.98-.97-1.66-2.17-3.08-4.34-3.07Z"/><path d="M74.34,140.87c-9.06,2.98-17.53,7.06-25.08,13.05,.07-.18,.09-.42,.22-.54,1.26-1.15,2.45-2.38,3.81-3.39,3.11-2.3,6.45-4.25,10.03-5.73,3.26-1.35,6.46-2.88,9.96-3.57,.31-.06,.63-.08,.94-.12l.12,.31Z"/><path d="M7.3,156.28c.25,.03,.41,.01,.54,.07,1.59,.72,3.18,1.44,4.75,2.19,2.09,.99,4.22,1.9,6.44,2.57,1.63,.49,3.25,1.03,4.85,1.62,3.55,1.3,7.28,1.65,10.97,2.24,3.86,.61,7.75,.82,11.66,.91,.23,0,.46,.05,.78,.09-.35,.55-.84,.44-1.24,.43-2.15-.08-4.32-.07-6.45-.35-4.23-.54-8.46-1.16-12.65-1.93-1.94-.36-3.8-1.14-5.7-1.73-.46-.15-.91-.34-1.38-.48-2.23-.65-4.4-1.44-6.5-2.42-1.95-.91-3.87-1.88-5.79-2.84-.09-.04-.13-.18-.27-.38Z"/><path d="M9.87,144.55c.18-.38,.35-.77,.55-1.14,1.44-2.66,3.51-4.76,5.86-6.61,.67-.53,1.37-1.01,2.04-1.54,2.6-2.08,5.54-3.52,8.61-4.74,.15-.06,.3-.13,.46-.17,.07-.02,.15,.01,.44,.05-.66,.61-1.42,.73-2.06,1.05-.69,.35-1.4,.65-2.08,1.02-.68,.37-1.33,.78-1.99,1.19-.65,.41-1.3,.83-1.93,1.28-.63,.45-1.24,.93-1.83,1.42-.59,.49-1.16,1.02-1.73,1.54-.57,.52-1.14,1.05-1.68,1.59-.54,.55-1.08,1.11-1.58,1.69-.5,.59-.95,1.22-1.43,1.82-.46,.58-.93,1.14-1.4,1.71l-.28-.17Z"/><path d="M43.85,160.4c-1.44-.14-2.89-.25-4.33-.41-4.11-.46-8.24-.85-12.33-1.45-2.52-.37-5-1.04-7.49-1.64-1.54-.37-3.06-.8-4.57-1.28-1.37-.44-2.7-.98-4-1.63,10.54,4.02,21.62,5.08,32.72,6.01v.4Z"/><path d="M28.3,147.03c-.04-.26-.09-.52-.11-.78-.02-.28,0-.56,0-.81-1.57-1.17-2.01-2.04-1.57-3.08,.43-1.03,1.15-1.46,2.2-1.33,1.29,.17,2.01,.83,2.14,1.95,.15,1.28-.42,2.07-1.94,2.66l-.33,1.44-.38-.06Zm-.2-5.49c0,1.14,.01,2.07,.43,3.11,.58-.93,1.05-1.75,1.19-2.78l-1.62-.33Zm2.2,1.07c-.63,.69-.95,1.4-1.09,2.34,1.18-.7,1.29-.94,1.09-2.34Zm-2.76-.62c-.79,1.23-.7,1.73,.33,2.3l-.33-2.3Z"/><path d="M88.05,145.46c-.25-.09-.51-.16-.75-.29-1.3-.7-2.69-.87-4.13-.73-3.24,.31-5.87,1.85-8.02,4.19-2.22,2.42-3.84,5.23-4.88,8.36-.05,.14-.12,.27-.4,.34,.21-.68,.35-1.39,.65-2.04,1.65-3.63,3.67-7.01,7.11-9.23,2.76-1.78,5.73-2.69,9.01-1.6,.52,.17,1,.48,1.5,.73l-.1,.28Z"/><path d="M125.95,142.21c-.82-.53-.79-1.07-.84-1.57-.13-1.29-.19-2.58-.36-3.87-.19-1.44-.46-2.87-.69-4.3-.13-.83-.13-.83,.43-1.62,.83,1.82,.65,3.73,.87,5.57,.23,1.85,.41,3.69,.58,5.79Z"/><path d="M122.17,142.63c-4.05,1.62-8.09,3.24-12.15,4.85-.28,.11-.6,.13-1,.22,.09-.24,.11-.37,.18-.44,.11-.11,.25-.22,.4-.27,4.24-1.33,8.14-3.57,12.48-4.63l.09,.28Z"/><path d="M128.39,140.51c1.09-.91,7.87-2.52,9.7-2.47-.34,.18-.52,.32-.72,.37-2.29,.65-4.58,1.32-6.89,1.92-.67,.17-1.39,.13-2.09,.18Z"/><path d="M77.51,127.9l5.01-1.52,.06,.21c-1.66,.52-3.32,1.03-4.98,1.55l-.09-.23Z"/><path d="M79.66,118.05l3.35,1.04c-1.01,.19-2.21-.12-3.38-.75l.04-.28Z"/><path d="M76.42,122.09l2.64-.55,.04,.18c-.88,.19-1.76,.38-2.64,.56l-.04-.18Z"/><path d="M79.8,124.34c-.47,.66-1.26,.55-1.94,.7l1.96-.69-.02-.02Z"/><path d="M79.82,124.36l1.46-.34,.03,.22c-.5,.04-1,.08-1.5,.11,0,0,.02,.01,.02,.01Z"/><path d="M111.89,29.99c-.93,.08-1.86,.27-2.78,.23-2.5-.1-5.01-.19-7.41-1.09-.77-.29-1.66-.26-2.49-.38-.38-.05-.76-.11-1.28-.19,.21-.4,.28-.71,.47-.87,1.36-1.15,2.21-2.68,3.15-4.14,.99-1.56,2.15-2.97,3.91-3.7,2.8-1.17,5.57-1.31,8.27,.3,.34,.2,.74,.3,1.11,.45h0c.07,.61,.61,.72,1.01,.98,.57,.74,1.15,1.48,1.72,2.22,.16,.23,.31,.47,.47,.69,.4,.56,.41,.56,.35,1.24l.8-.39c-.16,.98-.61,1.63-1.04,2.25-.46,.67-1.03,1.25-1.53,1.89-1.12,1.43-2.67,2.08-4.36,2.46-2.7,.62-5.3,.24-7.87-.77-1.5-.59-3.1-.94-4.65-1.41-.22-.07-.43-.17-.91-.35,.45-.12,.66-.22,.85-.21,.4,.01,.81,.06,1.21,.13,1.67,.32,3.34,.68,5.01,.99,1.86,.35,3.72,.26,5.57-.13,.14-.03,.27-.16,.4-.24,2.06,.08,4.37-1.18,5.64-3.37-1.47,1.66-3.4,2.55-5.44,3.24-.07,.02-.12,.1-.17,.16Zm-12.74-2.07c.35,.14,.53,.24,.72,.28,2.22,.46,4.36,1.22,6.65,1.4,2.44,.19,4.79,.12,7.01-.95,1.78-.86,3.25-2.08,4.29-3.81-.56-.71-1.05-1.37-1.57-1.99-2.14-2.55-4.86-3.72-8.2-3.32-1.84,.23-3.5,.95-4.65,2.41-1.48,1.88-2.79,3.89-4.26,5.97Z"/><path d="M114.84,20.6h0c-1.18-1.05-2.58-1.79-4.1-2.04-3.01-.51-5.76,.1-7.8,2.59-1.05,1.28-1.96,2.68-2.96,4.02-.55,.74-1.13,1.46-1.72,2.2-.27-.21-.43-.33-.59-.45l-.03,.03c.69-.39,.93-1.05,1.15-1.77,.33-1.08,.69-2.16,1.13-3.2,.89-2.12,2.37-3.75,4.35-4.92,1.8-1.07,3.67-1.31,5.72-.86,2.27,.49,4.12,1.62,5.77,3.18,.12,.11,.26,.21,.35,.34,.96,1.54,1.91,3.08,2.76,4.75l-1.3-.67c-.57-.74-1.15-1.48-1.72-2.22-.34-.33-.67-.65-1.01-.98Z"/><path d="M98.69,29.64c-.22-.04-.45-.07-.66-.14-.02,0,.04-.26,.06-.4l.7,.12-.1,.42Z"/><path d="M83.07,36.37c1.21,.72,2.37,1.53,3.63,2.15,3.03,1.48,6.06,1.11,9.04-.21,1.43-.63,2.68-1.52,3.7-2.78-.09,.28-.14,.59-.29,.83-.81,1.21-1.58,2.44-2.48,3.58-1.76,2.24-6.62,2.87-9.27,.83-1.03-.79-2.04-1.6-2.83-2.65-.33-.43-.82-.73-1.19-1.13-.15-.16-.18-.43-.27-.65l-.03,.03Zm3.07,2.5c1.52,1.61,4.47,2.61,5.89,2.01-2.07-.12-3.81-1.22-5.89-2.01Z"/><path d="M87.73,38.46c.15-.79,.59-.61,.98-.59,1.13,.07,2.27,.15,3.4,.19,1.81,.05,3.35-.62,4.62-1.87,.8-.79,1.51-1.69,2.4-2.68-1.71-1.04-3.2-2.23-4.89-2.9-2.08-.83-4.22-.56-6.14,.82-1.65,1.19-2.94,2.65-3.79,4.45,1.01,.64,1.98,1.25,2.93,1.88,.03,.02-.05,.21-.13,.49l-3.46-2.05c.04-.2,.02-.38,.11-.51,1.15-1.71,2.22-3.5,3.99-4.68,1.94-1.29,4.04-1.73,6.25-.85,1.12,.44,2.18,1.07,3.24,1.65,.84,.47,1.64,1,2.45,1.5-.7,2.51-2.43,3.97-4.68,4.84-2.36,.91-4.77,1.26-7.28,.3Z"/><path d="M92.26,36.94c-1.69-1.57-2.11-4.2-.98-5.61,.43,.63-.06,1.25,.04,1.85,.12,.63,.21,1.26,.32,1.89,.1,.59,.85,.96,.62,1.87Z"/><path d="M80.55,40.45c-.82-.19-.87-.85-.93-1.46-.06-.7-.2-1.47,.67-1.83,.09,1.09,.17,2.14,.26,3.28Z"/><path d="M83.29,157.32c-.07,.28-.15,.8-.35,1.28-.27,.65-.82,.95-1.43,.89-.7-.07-1.13-.48-1.32-1.2-.19-.72,.02-1.36,.37-1.96,.39-.68,1.07-1,1.72-.85,.61,.14,1.02,.78,1.02,1.84Zm-.6,.08c0-.31,.04-.46,0-.55-.17-.29-.32-.67-.58-.79-.17-.08-.67,.17-.76,.38-.23,.53-.38,1.12-.45,1.7-.05,.4,.25,.66,.67,.7,.39,.04,.74-.06,.88-.46,.13-.38,.2-.77,.25-.98Z"/><path d="M92.33,18.72c-.16-.06-.37-.08-.47-.2-1.03-1.12-1.11-2.46-.81-3.85,.04-.18,.37-.3,.57-.44,.09,.16,.29,.35,.26,.47-.41,1.34,.01,2.54,.58,3.72,.02,.05-.05,.14-.12,.3Z"/><path d="M74.34,77.65l.99-.87c-.16-.38-.36-.48-.65-.21-.32,.3-.71,.51-1.08,.19-.44-.38-.29-.87-.03-1.32,.16-.28,.28-.57,.44-.9l1.25-.2-.41,.9c.29,.06,.54,.12,.8,.16,.44,.07,.84,.28,.83,.73,0,.37-.15,.87-.42,1.06-.46,.33-1.06,.47-1.59,.69l-.13-.22Zm-.47-1.42l.19,.11c.16-.19,.35-.36,.48-.57,.03-.04-.15-.21-.34-.46l-.33,.91Z"/><path d="M69.65,79.68c1.13-.39,2.17,.2,2.67,1.38,.4,.93,.1,1.69-1.1,2.52,.24-.89,1.16-1.52,.56-2.46-.51-.79-1.12-1.38-2.13-1.43Z"/><path d="M77.12,25.1c-.98,1.94-.76,3.61,.38,5.23-.88-.17-1.6-1.36-1.74-2.71-.14-1.38,.17-2.05,1.36-2.52Z"/><path d="M107.06,34.45c.12,1.07-.73,2.19,.48,3.14-.9,.21-1.15-.21-1.2-.71-.09-.87-.43-1.83,.72-2.44Z"/><path d="M63.3,84.14l-.26,.8c.5,.08,.99,.06,1.37,.26,.2,.1,.31,.56,.32,.86,0,.76-.54,1.03-1.99,.98l.74-.75c-1.83-.26-1.87-.32-1.32-1.94l1.14-.2Zm.67,1.94l.2-.08-.21-.52c-.07,.03-.2,.08-.19,.08,.06,.18,.13,.35,.2,.52Z"/><path d="M97.38,47.8c.14-.77,.26-1.43,.38-2.09l-.22-.06c-.15,.51-.33,1.02-.44,1.54-.14,.65-.48,1.01-1.26,1,.02-.29,.04-.59,.04-.89,0-.25,0-.5-.17-.77-.06,.3-.12,.59-.2,.89-.14,.53-.32,1.01-1.02,.98-.72-.02-.66-.56-.73-.88,.64-.73,1.24-1.37,1.79-2.05,.44-.55,.9-.81,1.66-.66,1.53,.3,3.09,.48,4.69,.72,.02,.81-.51,1.04-1.16,1.34,0-.36,0-.6,0-.56l-1.15,1.13-.32-.23,.1-1.09c-.58,.64-.71,1.72-2,1.66Z"/><path d="M90.61,45.54c.45-.41,.85-.52,1.34-.18,1.11,.76,1.49,1.57,1.27,2.86-.75-.29-.76-1.09-1.31-1.56,.07,.26,.12,.53,.21,.78,.1,.26,.23,.5,.4,.87-.32-.03-.64,.04-.75-.07-.67-.77-1.04-1.69-1.17-2.7Z"/><path d="M89.54,46.9l-.15,1.1c-.42-.19-.77-.44-1.16-.5-.4-.07-.82,.04-1.27-.07,.92-.87,2.12-1.16,3.2-1.8l.86,2.46q-.95,.07-1.48-1.19Z"/><path d="M102.53,46.17q.18-.72,1.28-.62l-1.28,.62Z"/><path d="M119.64,95.61c-.37-.31-.71-.51-.68-.59,.22-.66-.26-1.17-.29-1.74-.02-.4,.03-.74-.18-1.13-.16-.3-.06-.73,.04-1.12,.35,.38,1.02,.58,.54,1.29-.06,.09,.13,.35,.2,.54,.07,.18,.26,.42,.2,.53-.25,.48-.36,.85,.25,1.17,.09,.05-.03,.52-.07,1.06Z"/><path d="M5.43,149.87l-1.6,1.16-.17-.22,1.58-1.18,.19,.25Z"/><path d="M2.28,150.05l1.76-1.17c-.58,.86-.87,1.02-1.78,1.14l.02,.03Z"/><path d="M2.98,148.34l-.88,.64-.14-.19,.89-.63,.13,.18Z"/><path d="M176.01,114.01c.21-1.15,.37-2.04,.56-3.13,.24,1.17,.11,1.93-.56,3.13Z"/><path d="M176.05,110.63l-.63,2.38-.29-.08c.21-.82,.41-1.64,.62-2.46l.3,.16Z"/><path class="e" d="M27.34,156.68l-2.78-.49c.08-2.35-.21-4.63,.13-7.06l3.22,.6c.27,2.37,.07,4.61-.58,6.95Z"/><path class="e" d="M32.06,150.66c.32,1.45-.25,4.2-1.32,6.45-.92,.15-1.79-.18-2.68-.38,.24-2.23,.48-4.43,.73-6.73,1.1,0,2.18,.47,3.28,.65Z"/><path class="e" d="M21.36,148.69l2.61,.34v7.01c-.78-.19-1.46-.29-2.08-.54-.26-.1-.52-.52-.54-.82-.09-1.25-.11-2.5-.12-3.75,0-.71,.08-1.43,.13-2.24Z"/><path class="e" d="M34.79,157.71c.29-2.03,.57-3.93,.86-5.97,.78,.25,1.55,.46,2.29,.75,.21,.08,.42,.38,.46,.62,.07,.39,.06,.81-.02,1.2-.23,1.19-.5,2.37-.78,3.64-.97,.17-1.87-.12-2.81-.24Z"/><path class="e" d="M34.23,157.73l-2.8-.33,1.6-6.44c.06,0,.24,.02,.41,.07,1.65,.42,1.67,.42,1.45,2.13-.19,1.47-.43,2.94-.67,4.57Z"/><path class="e" d="M20.74,155.1c-.08,.04-.11,.07-.15,.06-2.17-.38-1.95-.06-2.17-2.09-.16-1.53-.3-3.05,.1-4.72l2.22,.13v6.62Z"/><path class="e" d="M39.14,152.88l2.49,1c0,1.48-.38,2.75-.99,3.94-.12,.23-.48,.46-.73,.47-.55,.02-1.1-.11-1.72-.18l.95-5.23Z"/><path class="e" d="M15.76,148.4h1.96l.21,6.21c-.59-.16-1.08-.28-1.58-.43-.52-.16-.57-.62-.65-1.06-.28-1.53-.18-3.06,.05-4.72Z"/><path class="e" d="M13.31,148.46h1.8v5.33l-1.45-.35c-.67-1.62-.4-3.22-.36-4.97Z"/><path class="e" d="M43.07,158.62l-2.02-.16c.29-.78,.56-1.4,.75-2.05,.2-.66,.32-1.34,.51-2.17,.68,.32,1.32,.61,2.09,.97-.45,1.15-.87,2.22-1.34,3.41Z"/><path class="e" d="M12.75,152.99l-1.11-.5v-3.81l1.11-.2v4.51Z"/><path class="e" d="M58.41,154.94c2.17-.01,3.37,1.41,4.34,3.07,.38,.65,.32,1.41-.36,1.98-.15,.12-.3,.29-.36,.46-.76,2.07-2.53,2.91-4.43,3.44-2.3,.64-4.63,.59-7.01,.22-2.57-.4-4.82-4.63-2.37-7.27,.87-.94,1.86-1.6,3.15-1.95,1.39-.37,2.75-.71,4.19-.63,1.01,.06,2.02,.15,2.9,.72-.61-.02-1.22-.1-1.82-.04-1.29,.13-2.57,.33-3.86,.49-2.04,.25-3.26,1.54-4.08,3.27-.48,1.02,.01,2.65,.91,3.28,3.55,2.48,8.02,1.9,11.01-1.13,1.76-1.78,1.19-4.01-.64-5.06-.52-.29-1.05-.57-1.57-.85Z"/><path class="e" d="M28.1,141.55l1.62,.33c-.13,1.04-.61,1.85-1.19,2.78-.42-1.03-.44-1.97-.43-3.11Z"/><path class="e" d="M30.3,142.62c.2,1.4,.09,1.64-1.09,2.34,.14-.95,.46-1.65,1.09-2.34Z"/><path class="e" d="M27.55,142l.33,2.3c-1.03-.57-1.13-1.07-.33-2.3Z"/><path class="e" d="M99.15,27.93c1.47-2.08,2.78-4.09,4.26-5.97,1.15-1.46,2.81-2.19,4.65-2.41,3.34-.41,6.06,.76,8.2,3.32,.52,.62,1.01,1.27,1.57,1.99-1.04,1.73-2.51,2.96-4.29,3.81-2.23,1.07-4.57,1.14-7.01,.95-2.3-.18-4.44-.94-6.65-1.4-.19-.04-.38-.14-.72-.28Zm11.17,.13c-.24-.37-.4-.59-.53-.83-.3-.57-.65-1.12-.85-1.72-.44-1.31-.42-2.64,.1-3.94,.13-.32,.34-.65-.02-1.03-.14,.09-.31,.14-.4,.25-1.15,1.55-1.13,4.94,.05,6.49,.34,.45,.73,.87,1.65,.77Z"/><path class="e" d="M111.89,29.99c.06-.05,.11-.13,.17-.16,2.04-.69,3.97-1.58,5.44-3.24-1.27,2.2-3.58,3.45-5.64,3.37l.02,.03Z"/><path class="e" d="M114.84,20.6c.34,.33,.67,.65,1.01,.98-.4-.26-.94-.37-1.01-.98Z"/><path class="e" d="M86.15,38.88c2.08,.8,3.82,1.89,5.89,2.01-1.42,.59-4.37-.41-5.89-2.01Z"/><path class="e" d="M82.69,157.4c-.05,.21-.12,.6-.25,.98-.14,.4-.49,.5-.88,.46-.43-.04-.72-.3-.67-.7,.07-.58,.21-1.17,.45-1.7,.09-.21,.59-.46,.76-.38,.26,.12,.41,.51,.58,.79,.05,.09,0,.24,0,.55Z"/><path class="e" d="M73.87,76.23l.33-.91c.19,.24,.37,.41,.34,.46-.13,.21-.31,.38-.48,.57l-.19-.11Z"/><path class="e" d="M63.96,86.09c-.07-.17-.14-.35-.2-.52,0,0,.13-.05,.19-.08l.21,.52-.2,.08Z"/><path d="M58.41,154.94c.52,.28,1.05,.56,1.57,.85,1.84,1.05,2.4,3.27,.64,5.06-2.99,3.04-7.47,3.62-11.01,1.13-.9-.63-1.4-2.26-.91-3.28,.82-1.73,2.05-3.02,4.08-3.27,1.29-.16,2.57-.36,3.86-.49,.6-.06,1.21,.02,1.82,.04l-.04-.04Zm-8.73,5.67l-.03-.03c.04,.23,0,.56,.14,.67,.6,.47,1.2,1.05,1.9,1.27,2.96,.92,5.69,.36,8.05-1.67,.92-.79,1.37-1.87,1.08-3.05-.29-1.17-1.26-1.72-2.39-2.01-.16-.04-.32-.06-.48-.09-1.55-.28-3.06-.21-4.54,.36-.37,.14-.77,.25-1.15,.36-1.58,.43-2.57,1.48-3.06,3-.15,.47-.15,.98,.47,1.21Z"/><path d="M110.32,28.06c-.92,.09-1.31-.32-1.65-.77-1.17-1.55-1.19-4.94-.05-6.49,.08-.11,.25-.17,.4-.25,.36,.38,.15,.72,.02,1.03-.52,1.3-.53,2.63-.1,3.94,.2,.6,.55,1.16,.85,1.72,.12,.24,.29,.45,.53,.83Z"/><path class="e" d="M49.69,160.61c-.61-.22-.62-.74-.47-1.21,.49-1.52,1.48-2.57,3.06-3,.39-.11,.78-.21,1.15-.36,1.48-.57,3-.63,4.54-.36,.16,.03,.32,.05,.48,.09,1.12,.28,2.09,.84,2.39,2.01,.3,1.19-.16,2.27-1.08,3.05-2.37,2.03-5.09,2.59-8.05,1.67-.7-.22-1.3-.8-1.9-1.27-.14-.11-.1-.44-.14-.67,.8-.58,1.61-1.17,2.41-1.75,.98-.2,1.44-.46,2.13-1.3l-2.11,1.33c-.9,.44-1.82,.88-2.41,1.75Zm9.52-2.37l-.18-.25c-1.83,1.33-3.67,2.67-5.5,4l.18,.25,5.5-4Zm-1.6-.83l-.18-.2-2.78,1.95,.15,.21c.94-.65,1.88-1.31,2.82-1.96Zm-3.89,2.66c-1.15,.25-2.03,.8-2.48,1.5l2.48-1.5Zm2.29-3.36l-.11-.16-.63,.46,.09,.13,.66-.42Z"/><path d="M59.21,158.24l-5.5,4-.18-.25c1.83-1.33,3.67-2.67,5.5-4l.18,.25Z"/><path d="M57.61,157.4c-.94,.65-1.88,1.31-2.82,1.96l-.15-.21,2.78-1.95,.18,.2Z"/><path d="M53.71,160.06l-2.48,1.5c.45-.71,1.32-1.26,2.48-1.5Z"/><path d="M52.07,158.83c-.8,.58-1.61,1.17-2.41,1.75l.03,.03c.59-.87,1.5-1.31,2.41-1.75l-.02-.03Z"/><path d="M52.09,158.86l2.11-1.33c-.7,.85-1.15,1.1-2.13,1.3l.02,.03Z"/><path d="M56,156.7l-.66,.42-.09-.13,.63-.46,.11,.16Z"/></g></g></g></g></svg>