<svg xmlns="http://www.w3.org/2000/svg" viewBox="0 0 147.8 186.72"><defs><style>.cls-1{fill:#efc5b9;}.cls-2{fill:#fff;}</style></defs><g id="Capa_2" data-name="Capa 2"><g id="responsive"><rect class="cls-1" width="147.8" height="186.72" rx="14.95"/><path class="cls-2" d="M66.33,93.22c-.43.44-.84.89-1.28,1.31A34.57,34.57,0,0,1,59.4,99a2.5,2.5,0,0,1-.41.16,33.38,33.38,0,0,1,3.34-2.89,24.16,24.16,0,0,0,3.32-3.15,3.71,3.71,0,0,0,.83-1.23,23,23,0,0,0,1.42-7.15,7.06,7.06,0,0,0-.12-.83c-.46.59-.77,1-1.13,1.45a29.07,29.07,0,0,1-4.3,4.29A38,38,0,0,0,59.2,92.5c-.48.44-1,.83-1.44,1.3a35.78,35.78,0,0,0-3.43,4.13,16.31,16.31,0,0,0-1.91,4.34,5.69,5.69,0,0,0-.39,1.88A2.66,2.66,0,0,1,51,106.44a35.12,35.12,0,0,0-5,5.84,66.13,66.13,0,0,0-4.26,6.59,14.74,14.74,0,0,0-1.83,4.37c-.09.58-.19,1.16-.32,1.73a6,6,0,0,0,.5,4.13c.12.24.21.51.28.67a5.53,5.53,0,0,0-1.52.6,16.63,16.63,0,0,0-2.23,2.13,40.42,40.42,0,0,0-4.81,7.07c-.34.64-.59,1.27-1.44,1.3-.11,0-.21.1-.32.14-1.61.66-3.2,1.37-4.82,2a73.59,73.59,0,0,0-10.46,4.47,12.55,12.55,0,0,0-3.59,2.67c-1.27,1.48-2.56,2.93-3.79,4.43a2.6,2.6,0,0,0-.51,2.72,5.7,5.7,0,0,0,2.93,3.35c-.09.84-.17,1.68-.28,2.52a.73.73,0,0,0,.39.8c1,.61,1.9,1.29,2.89,1.87a31.65,31.65,0,0,0,6.81,2.88c2,.6,4.09,1.09,6.16,1.54,1.86.41,3.71.86,5.61,1.13,3.33.47,6.68.56,10,.83.49,0,1,0,1.49,0s.92.14,1.37.2a18.77,18.77,0,0,0,3.3.43,7.07,7.07,0,0,0,2.32-.78c.84-.35,1.66-.77,2.49-1.14,1.27-.55,2.54-1.11,3.82-1.61A3.38,3.38,0,0,0,58,167.63a11,11,0,0,0,1,1.28c3.16,3.13,8.41,2.3,11-.12a3,3,0,0,0,.29-.33A11.51,11.51,0,0,0,72.59,163c0-.24.12-.48.17-.69a4.16,4.16,0,0,0,1,0c1.19-.33,2.37-.7,3.55-1.07A1.57,1.57,0,0,0,78,161a1.19,1.19,0,0,1,1-.26,3.47,3.47,0,0,0,2.38-.79,3.42,3.42,0,0,1,1.52-.64,22.3,22.3,0,0,0,3.47-.95c1.9-.77,3.85-1.44,5.77-2.17a130,130,0,0,1,16.17-4.71,3.6,3.6,0,0,0,1.69-.78c.37.15.46.39.24.69s-.57.75-.85,1.13a9.29,9.29,0,0,0-.9,1.19,1.25,1.25,0,0,0,.65,1.89,7,7,0,0,0,1.18.35,5.52,5.52,0,0,0,2.88-.14c1.42-.46,2.84-1,4.24-1.47.34-.12.71-.31.61-.85-1.85.06-3.66.47-5.48.36-.15-.79.32-1.2.69-1.65s.72-.13,1.08-.13a12.83,12.83,0,0,0,5-.71,17.2,17.2,0,0,0,5.62-3.9,6,6,0,0,0,2-5.08l0,0a5.53,5.53,0,0,0,1.08-.28c1.73-.82,3.44-1.67,5.15-2.52.13-.06.35-.15.35-.23,0-.5.43-.47.73-.6a5.84,5.84,0,0,0,3.31-3.47c.13-.35.39-.8.05-1.17s-.76,0-1.21.06c0-.47,0-.91,0-1.34-.06-1-.12-2.06-.23-3.08a1.9,1.9,0,0,0-1.61-1.84c-.6-.12-1.21-.24-1.82-.32s-1.38-.16-2.17-.25a1.69,1.69,0,0,1,1.4-.76,6,6,0,0,1,5.46,2.24c.51.68,1,1.35,1.55,2,.22.28.42.62.83.54s.42-.51.51-.85a3.79,3.79,0,0,0,0-1.74,9.27,9.27,0,0,0-1.33-3.25,6.17,6.17,0,0,0-3.19-2.78c-.7-.24-1.37-.54-2-.81-.93-.36-1.9-.67-2.79-1.11a9.67,9.67,0,0,1-4.33-4.49,14.78,14.78,0,0,0-2.72-4.2,6.09,6.09,0,0,0-3.43-2.1,14.48,14.48,0,0,0,.16-6.67,49.56,49.56,0,0,0-2.76-8.55,30.49,30.49,0,0,0-4.14-7.06,26.71,26.71,0,0,0-2.08-2.63,2.88,2.88,0,0,1-.8-1.48,7.39,7.39,0,0,0-.49-1.39c-.32-.7-.78-1.34-1-2a15.83,15.83,0,0,0-2.92-4.47,5.71,5.71,0,0,0-.79-.67c-.23.32-.4.58-.58.84-.69,1-1.38,2.05-2.08,3.06a1.29,1.29,0,0,1-1,.62c.52-.61,1-1.14,1.44-1.73a19.53,19.53,0,0,0,1.11-2,2.05,2.05,0,0,0,.23-.67,5.12,5.12,0,0,0-1.77-5.06l-.13-.12L100,67.77c-2.06-1.71-4.07-3.47-6.18-5.11-1.65-1.27-3.38-2.44-5.14-3.57a22.15,22.15,0,0,0-9.84-3.37,9.5,9.5,0,0,0-1.92,0c-.73.07-1.44.27-2.17.35A24.38,24.38,0,0,0,68.13,58a5.35,5.35,0,0,0-1.06.62,6.06,6.06,0,0,0-2.3,3.56c-.16.62-.24,1.26-.36,1.92h-.8a4.17,4.17,0,0,0-3.22,1.17A7.78,7.78,0,0,0,58.12,69a2,2,0,0,0,0,1.29,1.59,1.59,0,0,1,.14,1.16,3.15,3.15,0,0,0,0,.61c.48.08.94,0,1.19.22a11.2,11.2,0,0,0,2.73,1.4,4.79,4.79,0,0,0,4.17.18l.22,1A4.82,4.82,0,0,0,62.74,76c-1.5,1-2.47,2.19-2.56,3a6.84,6.84,0,0,1,2.14.88l-1.2-.22c1,1,1.85,1.93,3.1,2.27A5.27,5.27,0,0,0,68,81.4,22.92,22.92,0,0,1,66.3,93.25Zm44.39,63.95.25.2.35-.48-.2-.16Z"/><path d="M126.91,142.39a6,6,0,0,1-2,5.08,17.2,17.2,0,0,1-5.62,3.9,12.83,12.83,0,0,1-5,.71c-.36,0-.78-.24-1.08.13s-.84.86-.69,1.65c1.82.11,3.63-.3,5.48-.36.1.54-.27.73-.61.85-1.4.51-2.82,1-4.24,1.47a5.52,5.52,0,0,1-2.88.14,7,7,0,0,1-1.18-.35,1.25,1.25,0,0,1-.65-1.89,9.29,9.29,0,0,1,.9-1.19c.28-.38.58-.74.85-1.13s.13-.54-.24-.69a3.6,3.6,0,0,1-1.69.78,130,130,0,0,0-16.17,4.71c-1.92.73-3.87,1.4-5.77,2.17a22.3,22.3,0,0,1-3.47.95,3.42,3.42,0,0,0-1.52.64,3.47,3.47,0,0,1-2.38.79,1.19,1.19,0,0,0-1,.26,1.57,1.57,0,0,1-.66.23c-1.18.37-2.36.74-3.55,1.07a4.16,4.16,0,0,1-1,0c-.05.21-.13.45-.17.69a11.51,11.51,0,0,1-2.33,5.45,3,3,0,0,1-.29.33c-2.62,2.42-7.87,3.25-11,.12a11,11,0,0,1-1-1.28,3.38,3.38,0,0,1-1.75,1.68c-1.28.5-2.55,1.06-3.82,1.61-.83.37-1.65.79-2.49,1.14a7.07,7.07,0,0,1-2.32.78,18.77,18.77,0,0,1-3.3-.43c-.45-.06-.91-.16-1.37-.2s-1,0-1.49,0c-3.35-.27-6.7-.36-10-.83-1.9-.27-3.75-.72-5.61-1.13-2.07-.45-4.14-.94-6.16-1.54a31.65,31.65,0,0,1-6.81-2.88c-1-.58-1.92-1.26-2.89-1.87a.73.73,0,0,1-.39-.8c.11-.84.19-1.68.28-2.52a5.7,5.7,0,0,1-2.93-3.35,2.6,2.6,0,0,1,.51-2.72c1.23-1.5,2.52-3,3.79-4.43a12.55,12.55,0,0,1,3.59-2.67A73.59,73.59,0,0,1,25.23,143c1.62-.6,3.21-1.31,4.82-2,.11,0,.21-.14.32-.14.85,0,1.1-.66,1.44-1.3a40.42,40.42,0,0,1,4.81-7.07,16.63,16.63,0,0,1,2.23-2.13,5.53,5.53,0,0,1,1.52-.6c-.07-.16-.16-.43-.28-.67a6,6,0,0,1-.5-4.13c.13-.57.23-1.15.32-1.73a14.74,14.74,0,0,1,1.83-4.37A66.13,66.13,0,0,1,46,112.28a35.12,35.12,0,0,1,5-5.84A2.66,2.66,0,0,0,52,104.15a5.69,5.69,0,0,1,.39-1.88,16.31,16.31,0,0,1,1.91-4.34,35.78,35.78,0,0,1,3.43-4.13c.44-.47,1-.86,1.44-1.3a38,38,0,0,1,3.15-2.82,29.07,29.07,0,0,0,4.3-4.29c.36-.4.67-.86,1.13-1.45a7.06,7.06,0,0,1,.12.83,23,23,0,0,1-1.42,7.15,3.71,3.71,0,0,1-.83,1.23,24.16,24.16,0,0,1-3.32,3.15A33.38,33.38,0,0,0,59,99.19,2.5,2.5,0,0,0,59.4,99a34.57,34.57,0,0,0,5.65-4.5c.44-.42.85-.87,1.28-1.31-.11.42-.22.85-.34,1.27a4.12,4.12,0,0,0,1.21,4.4,7,7,0,0,0,2.06,1,13.18,13.18,0,0,0,5.08.29c1-.14,2-.48,2.94-.57a16.57,16.57,0,0,0,8-3.21,32.62,32.62,0,0,0,4-3.39,6.88,6.88,0,0,0,1.53-2.23A37.76,37.76,0,0,0,93.38,82a21.75,21.75,0,0,0,.36-5.09,1.48,1.48,0,0,0-.13-.75,1.11,1.11,0,0,1,0-1.2c1.45-.17,2.66-1.31,2.6-2.46-.27.39-.53.78-.81,1.14a1.79,1.79,0,0,1-2.89,0c-.55-.8-.81-2.65.11-3.55a5.64,5.64,0,0,0,.87-1.31,1.67,1.67,0,0,0,0-1.91c-.63-.88-1.18-1.83-1.86-2.68a8.43,8.43,0,0,0-4.66-3.29,6,6,0,0,0-3.47-.19,6.35,6.35,0,0,0-3.28,2.19A18.37,18.37,0,0,0,79,64.54a16.18,16.18,0,0,0-.9,2.1c-.26.75-.46,1.51-.68,2.27l0,0L77,70.72c-.25-.22-.5-.42-.72-.65a4.55,4.55,0,0,0-5.45-.61,9.35,9.35,0,0,0-3.27,3.6,17.52,17.52,0,0,0-.73,1.67l.39-.24a2.75,2.75,0,0,0,.26-.22c-.19.49-.39,1-.59,1.45l0,0a3.5,3.5,0,0,0-2.49,0,7.41,7.41,0,0,0-3.26,2.6s0,.11,0,.23a4,4,0,0,1,2.59.54,3.11,3.11,0,0,0,1.44.3,3,3,0,0,0,2.38-.82l-.45-1.9c2.88,3.81,5.72,3.94,8.11,3A5.71,5.71,0,0,0,78,77.25c.77-1.2,1.6-2.4,1.16-4-.93-.58-1.84-1.24-2.82-1.75a5.62,5.62,0,0,0-7.67,1.31l-1.26,1.45a7.76,7.76,0,0,1,3.87-4.59,3.93,3.93,0,0,1,4.53.49c.23.19.43.4.66.58.82.68,1.63,1.35,2.46,2a2.06,2.06,0,0,0,.55.23l.09-.16-1.95-1.6a3,3,0,0,1,.95,0A9.66,9.66,0,0,1,82,72.35c.55.25.55.62,0,1-.29.19-.62.33-.91.53a5,5,0,0,0-2.28,2.91l1.64,1.16c.61.46,1.2,1,1.83,1.38a4.19,4.19,0,0,0,1.54.82A4.14,4.14,0,0,0,88.36,78a17.16,17.16,0,0,1,1.31-2.08,6.72,6.72,0,0,0-2.54-1.95l1.8,1.62-.55.61.5.2c-.4.7-.75,1.38-1.16,2a3.48,3.48,0,0,1-.82.89,3.08,3.08,0,0,1-3.26.37,17.59,17.59,0,0,1-3.21-2.14c-.37-.3-.64-.75-1.14-.93a3.7,3.7,0,0,1,1.46-2.08,5.6,5.6,0,0,1,5.44-1.12l.21-.4a17.14,17.14,0,0,0,1.9-.22,6.73,6.73,0,0,0,2.51-1.25,2.81,2.81,0,0,1,.52-.27c.39,1.35.44,2.8,2,3.53-.37.64-.69,1.23-1.05,1.79a5.8,5.8,0,0,1-.65.83c-.28.33-.2.57.22.84l1-1.76a6.75,6.75,0,0,1-.93,3.23c-.15.25-.19.43.21.58.82-.78.62-2,1.19-3A10.47,10.47,0,0,1,93,81.35H92c0-.32.23-.69-.27-.84-1.16.76-1.2,1.25-.15,1.85l.44-1,1,.33c0,1.75-.76,3.31-1,4.91l-1.68-.46-1.82-2-1.59,1.74,1.47,2.73c.35-.45.62-.76.84-1.1a.61.61,0,0,1,.9-.24c.31.14.61.3.91.46l.08-.14-1.42-.86.66-.62,1.41.76c-.55,4-2.83,6.65-6.06,8.7A3.79,3.79,0,0,0,84,93.45c.92-.9,1-.9,2.48,0a1.73,1.73,0,0,0-1.31-.89l.59-.7-1.66-4L81.9,89.17a19.13,19.13,0,0,1,1.76,4.54,3.14,3.14,0,0,1,1.71,2A7.61,7.61,0,0,1,83,97.21a26.31,26.31,0,0,1-6.33,1.86,15.77,15.77,0,0,1-5.69.15,5.64,5.64,0,0,1-3.77-2,2.15,2.15,0,0,1,0-3l-.38-.1c.06-.34.41-.7,0-1.06l-.51.25A22.92,22.92,0,0,0,68,81.4a5.27,5.27,0,0,1-3.76.53c-1.25-.34-2.06-1.28-3.1-2.27l1.2.22A6.84,6.84,0,0,0,60.18,79c.09-.78,1.06-1.94,2.56-3a4.82,4.82,0,0,1,3.81-1.11l-.22-1a4.79,4.79,0,0,1-4.17-.18,11.2,11.2,0,0,1-2.73-1.4c-.25-.2-.71-.14-1.19-.22a3.15,3.15,0,0,1,0-.61,1.59,1.59,0,0,0-.14-1.16,2,2,0,0,1,0-1.29,7.78,7.78,0,0,1,2.27-3.81,4.17,4.17,0,0,1,3.22-1.17h.8c.12-.66.2-1.3.36-1.92a6.06,6.06,0,0,1,2.3-3.56A5.35,5.35,0,0,1,68.13,58a24.38,24.38,0,0,1,6.6-1.85c.73-.08,1.44-.28,2.17-.35a9.5,9.5,0,0,1,1.92,0,22.15,22.15,0,0,1,9.84,3.37c1.76,1.13,3.49,2.3,5.14,3.57,2.11,1.64,4.12,3.4,6.18,5.11l2.8,2.29.13.12a5.12,5.12,0,0,1,1.77,5.06,2.05,2.05,0,0,1-.23.67,19.53,19.53,0,0,1-1.11,2c-.41.59-.92,1.12-1.44,1.73a1.29,1.29,0,0,0,1-.62c.7-1,1.39-2,2.08-3.06.18-.26.35-.52.58-.84a5.71,5.71,0,0,1,.79.67,15.83,15.83,0,0,1,2.92,4.47c.25.71.71,1.35,1,2a7.39,7.39,0,0,1,.49,1.39,2.88,2.88,0,0,0,.8,1.48,26.71,26.71,0,0,1,2.08,2.63,30.49,30.49,0,0,1,4.14,7.06,49.56,49.56,0,0,1,2.76,8.55,14.48,14.48,0,0,1-.16,6.67,6.09,6.09,0,0,1,3.43,2.1,14.78,14.78,0,0,1,2.72,4.2,9.67,9.67,0,0,0,4.33,4.49c.89.44,1.86.75,2.79,1.11.68.27,1.35.57,2,.81a6.17,6.17,0,0,1,3.19,2.78,9.27,9.27,0,0,1,1.33,3.25,3.79,3.79,0,0,1,0,1.74c-.09.34-.08.76-.51.85s-.61-.26-.83-.54c-.51-.68-1-1.35-1.55-2a6,6,0,0,0-5.46-2.24,1.69,1.69,0,0,0-1.4.76c.79.09,1.48.15,2.17.25s1.22.2,1.82.32a1.9,1.9,0,0,1,1.61,1.84c.11,1,.17,2.05.23,3.08,0,.43,0,.87,0,1.34.45,0,.84-.47,1.21-.06s.08.82-.05,1.17a5.84,5.84,0,0,1-3.31,3.47c-.3.13-.7.1-.73.6,0,.08-.22.17-.35.23-1.71.85-3.42,1.7-5.15,2.52a5.53,5.53,0,0,1-1.08.28c.06-.31,0-.6.42-.78,1.43-.67,2.84-1.39,4.26-2.09a2.9,2.9,0,0,0,.38-.24c-1.15-.26-2.32-.52-3.48-.8s-2.44-.6-3.66-.87a2.67,2.67,0,0,0-.8,0c-.08.53.29.54.53.66a3.36,3.36,0,0,1,1.85,2.12C126.57,141.09,126.73,141.74,126.91,142.39ZM57.07,103.24a1.74,1.74,0,0,0-.23,1.78c0-.34.08-.52.11-.7l.12-1.08.53-1.93A2.24,2.24,0,0,0,57.07,103.24ZM66.3,106c-.09.54-.09.54.45.94L66.3,106a1.48,1.48,0,0,1-.38-.18A5.49,5.49,0,0,1,64.21,103l-1.95-1a13.45,13.45,0,0,0,1.42,2.78c.61.88,1.16,1.9,2.45,2.12C66.07,106.56,65.69,106.15,66.3,106ZM8.35,158l0,0c-.07.29-.09.56.26.7s.47.23.72.32a1.78,1.78,0,0,0,1.79-.38,1.66,1.66,0,0,0-.07-1.74l-.15-.21a4.36,4.36,0,0,0-2.63-1.47.9.9,0,0,0-1.11.72A2.62,2.62,0,0,0,8,158C8.09,158.09,8.23,158,8.35,158ZM89,79.38l-.59.71.37,1.13c.83-.79,1.57-1.49,2.3-2.2.34-.32.25-.62-.13-.94-.27.19-.54.4-.83.59s-.76.5-1.15.74c.28-.25.55-.51.84-.75a3.66,3.66,0,0,0,1.47-2.17.6.6,0,0,0-.3.31,5.71,5.71,0,0,1-1.65,1.81,17.7,17.7,0,0,1-4.43,2.33,9.72,9.72,0,0,1-4.62.92A25,25,0,0,1,77,81.43a1.34,1.34,0,0,0-1.41.42c-.35.37-.73.72-1.12,1.11-.31-.35-.55-.65-.82-.92a1,1,0,0,0-1.49-.18c-.54.3-1.09.57-1.64.84l-2.19,1.07c.17.1.25.19.36.21,1.53.29,3,.67,4.59.82a9.88,9.88,0,0,0,5-.56c1.75-.76,3.54-1.42,5.28-2.22s3.3-1.66,5-2.49A3.39,3.39,0,0,1,89,79.38Zm4,42.06c-.47.2-.41.67-.47,1a18.85,18.85,0,0,0-.09,4.92,7,7,0,0,0,.81,2.59,2.89,2.89,0,0,1,.14.47c-.68-.05-.72,0-1.14-.44-.58-.55-1.15-1.1-1.69-1.68a9.6,9.6,0,0,1-2.57-8.1,6.46,6.46,0,0,0,0-2.44,3.19,3.19,0,0,1,2.18-4,1.59,1.59,0,0,0,.82-.6c.57-.74,1.16-1.48,1.79-2.17a25.36,25.36,0,0,1,1.94-1.94,8.87,8.87,0,0,0,2.63-4.39,11.06,11.06,0,0,0,0-6.42,22.82,22.82,0,0,0-2.7-5.63,5.58,5.58,0,0,1-.69-4.46,20,20,0,0,1,1.55-4.75s0,0-.09-.16a8.22,8.22,0,0,0-.52.79,20.1,20.1,0,0,0-1.5,4,6.8,6.8,0,0,0,.88,5.65c.22.35.45.69.65,1a11.43,11.43,0,0,1,1.78,4.65c0,.65.14,1.29.19,1.93a8.7,8.7,0,0,1-1.34,5.82A30.67,30.67,0,0,1,93.39,110c-.72.82-1.56,1.52-2.26,2.35A7.08,7.08,0,0,1,89,113.93a3.1,3.1,0,0,0-1.6,3.7,3.81,3.81,0,0,1,.09,2.34,8.21,8.21,0,0,0,.11,4.45,9.17,9.17,0,0,0,1.61,3.41,29.62,29.62,0,0,0,2.91,2.68,3.1,3.1,0,0,0,1.1.52.81.81,0,0,0,.63-.09c.09-.06,0-.38,0-.56-.28-.86-.58-1.72-.88-2.58a6.64,6.64,0,0,1-.29-2.62c.07-1.11.15-2.23.23-3.34a3.57,3.57,0,0,1,.12-.4,4.92,4.92,0,0,1,.82-1.4,7.47,7.47,0,0,0,1.77-2.48,4.37,4.37,0,0,1,.85-1,6,6,0,0,1,.71-.5c2.63-1.89,5.2-3.85,7.89-5.64a24.21,24.21,0,0,0,4.84-3.93,8,8,0,0,0,2.08-3.73,28.93,28.93,0,0,0,.65-7c-.1-1.9-.16-3.81-.3-5.72a5.49,5.49,0,0,0-.6-2.47c.08,1.67.32,3.33.38,5a36,36,0,0,1-.64,9.2,9.52,9.52,0,0,1-3.49,5.54c-2.23,1.78-4.56,3.41-6.85,5.12-1.67,1.25-3.34,2.49-5,3.79-.5.39-1.08.83-1,1.64a.51.51,0,0,1-.14.31c-.45.45-.89.93-1.38,1.33A2,2,0,0,0,93,121.44ZM71.8,156.83c.73,1.51.68,3.18,1,5,.38-1,0-1.91.06-2.75h.19l.27,2.19,2.75-1c-.09-.1-.12-.16-.16-.18a7.73,7.73,0,0,1-3.38-2.45c-.24-.27-.52-.52-.78-.77a13.29,13.29,0,0,0-.42-1.4,6.54,6.54,0,0,1,1.86-7.38A29.55,29.55,0,0,1,76.33,146a15.69,15.69,0,0,0,2.51-1.77A8.54,8.54,0,0,0,81,138.34a1.87,1.87,0,0,0-.16-.68A3.58,3.58,0,0,0,79.22,136,35,35,0,0,0,74,142c-2,3.08-3.47,5.94-3.42,7.06l1.57-.36a1.68,1.68,0,0,1-2.62.72,30.22,30.22,0,0,1,9.08-13.53c-.52-.13-1.05-.27-1.59-.39a1,1,0,0,0-1.13.39c-.9,1-1.88,2-2.88,3a45.35,45.35,0,0,0-5.79,7.1,13.15,13.15,0,0,1-2.29,2.85c-.42-.19-.85-.38-1.27-.59-.66-.32-1.31-.68-2-1a43.28,43.28,0,0,0-6.07-2.14A41.48,41.48,0,0,0,49,143.52c-.55-.09-1.09-.25-1.7-.4a6.89,6.89,0,0,1-3.44,3,6,6,0,0,1-1.51.43c-1.27.25-2.54.46-3.81.66-1,.16-2,.26-3,.41-.67.1-.87.56-.57,1.15a1.85,1.85,0,0,0,1.5,1.2c.12,0,.23.14.35.21-.15.38-.43.32-.68.31A5,5,0,0,1,33,149.14a2.83,2.83,0,0,1-.13-3.82,5.63,5.63,0,0,1,3.19-1.74c1.22-.24,1.93-1.13,2.86-1.86-.17-.1-.24-.18-.31-.18-1.86,0-3.71-.09-5.56,0a8.5,8.5,0,0,0-2.51.4c-2.86,1-5.68,2.11-8.51,3.16-.55.2-1.14.32-1.67.57-2.88,1.34-5.79,2.63-8.18,4.81A36.27,36.27,0,0,0,9,153.67c.8.45,1.58.84,2.32,1.3a4.33,4.33,0,0,1,1.6,1.84A2.24,2.24,0,0,1,11.87,160c-.41.21-.86.36-1.33.55-.13.64-.24,1.31-.39,2a1.44,1.44,0,0,0,.77,1.69,33.66,33.66,0,0,0,8.63,4c2.26.64,4.58,1.08,6.88,1.57,1.66.35,3.35.62,5,1a31.13,31.13,0,0,0,7,.83,22.49,22.49,0,0,0,4.49-.2,1.31,1.31,0,0,0,1.17-1,1.57,1.57,0,0,1,.68-1.14c0,.21.13.34.1.46a7.32,7.32,0,0,1-.25.75c-.33,1.17-.12,1.48,1.06,1.66a5.75,5.75,0,0,0,4.23-.7,2.92,2.92,0,0,1,.47-.23L56,168.48c.4-.18.78-.39,1.17-.59-.08-.45-.16-.82-.19-1.2s-.24-.74.13-1.15l.35,1c.08-.36.14-.62.19-.88a12.51,12.51,0,0,1,1.55-4.2,26.92,26.92,0,0,1,2.16-3.11A9.66,9.66,0,0,1,68,154.6a2.69,2.69,0,0,1,2.55.88C70.93,156,71.38,156.38,71.8,156.83Zm18.81-22.25.37.2a6.7,6.7,0,0,1,2.14,1.82,8.1,8.1,0,0,1,1.52,5.31,4.77,4.77,0,0,0,0,.61c.23-.06.41-.09.57-.15s.31-.13.51-.21c-.06-.53-.16-1-.17-1.51s-.34-1,.38-1.43a29,29,0,0,1,.44,3.35c-.73,0-1.16.85-1.91.28-.28.65-.56,1.2-.75,1.78a13.14,13.14,0,0,1-5,6.56,10.65,10.65,0,0,1-5.24,1.9,27.55,27.55,0,0,1-4,0,1.9,1.9,0,0,0-1.91,1.27,2.9,2.9,0,0,0-.25,1.1,3.2,3.2,0,0,0,.82,2.27,1.52,1.52,0,0,0,1.93.21c.68-.44.12-.86-.06-1.27s-.12-.84.37-1.09a1.31,1.31,0,0,1,1.75.69,3,3,0,0,1,.13,1.9c0,.23-.07.47-.11.71a149.68,149.68,0,0,1,27-8.59,5.56,5.56,0,0,1-1.92-4.15,6.07,6.07,0,0,1,1.52-4.2,17.15,17.15,0,0,0-3.86-2.92,10.44,10.44,0,0,0-2.17-.93,13.36,13.36,0,0,0-4.54-.37,4.27,4.27,0,0,0-1.42.41c-.67.28-1.3.62-2,1a4.34,4.34,0,0,0-4.19-4.55Zm-16.4,2.26c-1.75-.45-3.3-.89-4.88-1.24s-3.29-.63-4.94-.9l-7-1.14c-.46-.08-1,.07-1.35-.47,0-.08-.34-.06-.49,0a51.63,51.63,0,0,0-4.84,2.1,4.49,4.49,0,0,0-2.47,4.14,18.57,18.57,0,0,1-.29,2.08c-.05.31-.15.61-.24,1,6.16.8,11.75,3.15,17.45,5.47C67.9,144,70.25,139.83,74.21,136.84Zm-4.55,25.57a17.16,17.16,0,0,0-.49-2.39,2.61,2.61,0,0,0-2.84-1.74,3.88,3.88,0,0,0-2.41,1.3,6.43,6.43,0,0,0-2.19,4.67,3.18,3.18,0,0,0,2.14,3.56A3.36,3.36,0,0,0,68,167,6.92,6.92,0,0,0,69.66,162.41ZM39.45,140.86a10,10,0,0,0,.69-6,4.84,4.84,0,0,1,.34-3.18c.14-.34.31-.67.48-1-1-.35-1.1-.33-1.78.3a34.66,34.66,0,0,0-6.76,9.19,2.7,2.7,0,0,0-.16.54ZM79.07,61.08c-.93-.75-1.72-1.45-2.56-2.06a2.36,2.36,0,0,0-1.22-.45,13.32,13.32,0,0,0-2.27.15,6.67,6.67,0,0,0-1.51.43,8.13,8.13,0,0,0-3.33,3c.73.3,1.42.6,2.13.88a4,4,0,0,0,.91.3C74.14,63.9,76.63,62.92,79.07,61.08ZM56.6,105.68a16.62,16.62,0,0,0,.77,3.31c.24.77.46,1.54.68,2.25l6.07-4.85-2.75-4.72Zm63.8,36-.18-.19a4,4,0,0,1,.77-1.62,15.11,15.11,0,0,1,1.25-1.31c-1.19.1-2.17,1.41-2.86,3.75l.52,0a1.62,1.62,0,0,1,1.48,2.37,3.92,3.92,0,0,1-.74,1.08,6.11,6.11,0,0,1-2.91,1.75c-.24.07-.56.16-.71-.24a5.87,5.87,0,0,0,3.74-2.19,1.74,1.74,0,0,0,.4-1.4,1.29,1.29,0,0,0-1.07-1,1.24,1.24,0,0,0-1.29.65l-1.65,3.13-1.54,3c.46-.06.81-.09,1.15-.16a9.63,9.63,0,0,0,3.92-1.91,7,7,0,0,0,2.29-2.85,2.87,2.87,0,0,0,0-2.48,1.08,1.08,0,0,0-1.57-.65Zm-61.7-70c.69.08,1.27.13,1.85.22s1.37.28,2.07.39a7.61,7.61,0,0,0,3.2-.22,7.29,7.29,0,0,0-.18-.77,20.27,20.27,0,0,1-1-4.2c-.09-.9-.4-1.09-1.3-1a1.82,1.82,0,0,0-.51.13,6.34,6.34,0,0,0-3.71,3.67C59,70.49,58.87,71.06,58.7,71.7Zm71,56.22c-.17.22-.36.37-.4.54-.25,1.14-.48,2.29-.69,3.43,0,.16.08.34.11.51a4.63,4.63,0,0,0,1.63,2.26,3.59,3.59,0,0,0,4.94.53c.41-.26.48-.53.25-.92a2.15,2.15,0,0,1-2.1-.47,3.7,3.7,0,0,1-1.89-3.1c0-.75,0-1.5,0-2.18C131,127.84,130.16,128.78,129.66,127.92Zm-50-51.63c3.52,2.21,6.89,1.53,8.51-.73a17.64,17.64,0,0,1-1.42-1.17A4.17,4.17,0,0,0,82.46,74,13.65,13.65,0,0,0,79.69,76.29ZM57.4,112.09c-1.27-.12-1.73-1.16-2.6-1.66-.22.74.53.76.79,1.13-1,.27-1.37-.33-1.2-1.62L53,108.23c-.93,1.11-2.19,1.79-3.15,2.85,1.4,1.42,2.9,2.63,3.82,4.46C54.91,114.37,56.09,113.29,57.4,112.09Zm15.95-16a21.22,21.22,0,0,0,.33-6l-2.55-.32c-.33,1.89-.63,3.66-.94,5.49a8.08,8.08,0,0,0,.9.32C71.83,95.84,72.57,96,73.35,96.14Zm1-5.74c-.2,2.07-.37,4-.54,5.85l.87.26.11,2H75V96.56a1.19,1.19,0,0,1,1.45.22A8.88,8.88,0,0,1,77.35,98a2,2,0,0,0-.61-1.42l.15-6Zm6.23,4.79L80.42,94c-.19-1-.36-2.08-.58-3.11-.15-.69-.19-.7-.9-.56-.41.08-.81.17-1.21.28a.52.52,0,0,0-.42.57c0,1.45,0,2.89,0,4.33a1.33,1.33,0,0,0,.24.8,7.67,7.67,0,0,0,.94.85l.11-.12-.84-.92c1.36-.42,2,.4,2.73,1.16-.12-.71-.84-1-1.18-1.52Zm-14.7,12.23c-.65-.24-1.09-.76-1.77-.27A17.93,17.93,0,0,1,61,109.49c-.08,0-.12.13-.19.18l-4.12,3.69-1.11,1-1,1,1.56.62C58.81,112.52,62.35,110,65.92,107.42Zm2.29-10a4,4,0,0,1,1.44-2c.11-.07.15-.3.18-.46q.35-1.91.66-3.81a5.21,5.21,0,0,0,.1-1,.73.73,0,0,0-.2-.53,5.44,5.44,0,0,0-1.82-.9c-.38,1.45-.74,2.86-1.11,4.28l.89,1c-.42.38-.87.67-.94,1.33,1.25-1.34,1.32-1.35,2.25-.32A2.87,2.87,0,0,0,68.21,97.41ZM56.79,132.47v.27c.66.11,1.32.2,2,.33,3,.56,5.95,1.12,8.92,1.72,2,.42,4.07.89,6.09,1.39,1,.24,1.28.14,1.77-.84l-1-.2c-1.94-.32-3.87-.69-5.82-.94-2.62-.35-5.25-.62-7.83-1.2-1.12-.25-2.25-.42-3.38-.61A2.84,2.84,0,0,0,56.79,132.47ZM67,61.23l.15.16.59-.75c.49-.58,1-1.19,1.48-1.74a6,6,0,0,1,8-.67,12.32,12.32,0,0,1,1.46,1.51l-.36.29,1.25,1c-.07.5,0,1.06-.61,1.37-.16.07-.26.32-.33.5a5.33,5.33,0,0,1-1.84,2.22A4.15,4.15,0,0,1,73,66c-.36-.1-.73-.14-1.09-.21a3.37,3.37,0,0,0,3.33.74,6.79,6.79,0,0,0,3-2.43c.6-.76,1.24-1.49,1.9-2.2a12.82,12.82,0,0,1,1.25-1c-.34,0-.41-.34-.64,0s-.56.36-.88,0l.28-.48c-.61-.5-1.15-.94-1.69-1.4s-.89-.84-1.36-1.22c-2-1.6-4.17-1.48-6.32-.52A9.2,9.2,0,0,0,67,61.23Zm17.5,26.5c.26.68.48,1.29.74,1.87a7.09,7.09,0,0,0,.88,1.85,2,2,0,0,1,2.76-.58c-.41-.64-1-.61-1.54-.7.41-.77.76-.89,1.49-.55.23.11.45.25.68.38-.18-.31-.44-.6-.71-.63-.68-.07-.91-.55-1.17-1S87.21,87.45,87,87s-.38-.63-.63-1.06Zm6.46,29a2.8,2.8,0,0,0,1.11,2.15c.22.17.6.37.78.29a2.85,2.85,0,0,0,1.52-1.1,3.12,3.12,0,0,0-.44-3,1.6,1.6,0,0,0-2.64.4A8.5,8.5,0,0,0,91,116.72ZM81.43,89.34l-.93.43a.54.54,0,0,0-.32.71c.26,1.23.47,2.47.7,3.71.1.53.23,1,.9,1.14.19,0,.34.3.5.46s.23.26.35.4a1.57,1.57,0,0,0-.41-.88,4.05,4.05,0,0,0-.77-.48c.9-.61,1.23.3,1.85.5l-.84-1a3.6,3.6,0,0,1,.39-.25l.48-.29A21.91,21.91,0,0,0,81.43,89.34ZM77,87.53a8.52,8.52,0,0,0,.86-.15c.92-.27,1.84-.55,2.75-.84.26-.09.48-.25.43-.58a4.14,4.14,0,0,0-.62-2L76.9,85.13ZM72.83,88a10.41,10.41,0,0,0,3.79-.42l-.21-2.39-3.4.26ZM69,87.24c.9.28,1.7.54,2.51.77.3.09.64.09.71-.3a6.86,6.86,0,0,0,.28-2.29l-3.28-.84Zm-12.4,32.37a12.2,12.2,0,0,1,1.29,2,6.88,6.88,0,0,0,2.27,3,8.85,8.85,0,0,0,6.4,1.94c.13,0,.24-.1.48-.2-.23-.1-.32-.15-.42-.18-1.17-.3-2.35-.54-3.48-.93a8.36,8.36,0,0,1-4.6-3.5A21.6,21.6,0,0,0,57.2,120C57.09,119.8,56.86,119.75,56.59,119.61ZM133,128.49a2.88,2.88,0,0,0,2.45,4.33c-.05-.85-.08-1.7-.15-2.55-.16-1.92-.28-1.68-1.71-1.77A5.86,5.86,0,0,0,133,128.49ZM84.59,82.18l-3.47,1.68L81.6,86A8.8,8.8,0,0,0,84,84.82a1.41,1.41,0,0,0,.74-2.08A2.86,2.86,0,0,1,84.59,82.18ZM7.88,154.67a20,20,0,0,1,1.92.7,3.16,3.16,0,0,1,1.83,2,1.53,1.53,0,0,1-1.3,2.07,8.88,8.88,0,0,1-1.46,0c.07.06.16.21.26.22a7.57,7.57,0,0,0,2.17.06c1.21-.27,1.57-1.14,1.28-2.36a4.39,4.39,0,0,0-4.13-3C8.31,154.39,8.17,154.53,7.88,154.67Zm77-72.7.55,1.66c.8-.52,1.52-.92,2.17-1.41.82-.62.83-1,.19-1.91-.44.28-.87.58-1.33.84S85.52,81.66,84.92,82Zm5.37.2A4.52,4.52,0,0,0,89,83.62.39.39,0,0,0,89,84c.4.52.64,1.22,1.5,1.29a13.74,13.74,0,0,0,.67-1.52c.15-.46.44-.66.74-.66Zm-1.87,35.21a1.76,1.76,0,0,1,1.74-.7c.18-.47.32-.89.51-1.29s.42-.72.65-1.1C89.42,114.05,88.23,115.3,88.42,117.38ZM78.21,62.46a12,12,0,0,1-4.37,1.73,9.27,9.27,0,0,1-4.54-1.11A6.28,6.28,0,0,0,78.21,62.46ZM49.74,131a4.62,4.62,0,0,0-4.23-1.2,3.35,3.35,0,0,0-2.32.84c.25,0,.57-.09.68,0s.23.3.54.2a7.31,7.31,0,0,1,4.84,0A4.31,4.31,0,0,0,49.74,131Zm66.37-14.35.1.08c.67-.6,1.33-1.22,2-1.8a7.14,7.14,0,0,0,2-3.12,1,1,0,0,0-.11-1.1c-.62,1.12-1.13,2.2-1.8,3.17S116.87,115.77,116.11,116.69ZM69.31,60.12,69.2,60,67,62.17,67,62.9a1.3,1.3,0,0,0,.18.21c1.06.77,2.12,1.56,3.2,2.3a2.68,2.68,0,0,0,.83.25c-1.24-1-2.28-2.25-4-2.69.21-.17.44-.29.42-.37-.14-.79.64-1,.92-1.54A6.07,6.07,0,0,1,69.31,60.12Zm46,57.11c-1,1.4-2.71,1.78-3.81,3C113,119.54,114.54,118.94,115.27,117.23ZM87.61,76.91a16.51,16.51,0,0,1-2.24,1,16.69,16.69,0,0,1-2.32.36A4.48,4.48,0,0,0,87.61,76.91ZM63.69,79.72a3.68,3.68,0,0,0,4-.52,11.58,11.58,0,0,1-2,.6A12.45,12.45,0,0,1,63.69,79.72ZM70.16,59.2A8.8,8.8,0,0,1,74.27,58C72.31,57.76,71,58.06,70.16,59.2Zm25,57a2.12,2.12,0,0,0-2-2.41A4,4,0,0,1,95.13,116.23Zm15.44,28.35a4.39,4.39,0,0,0-1.43-2.28c-.21.23-.31.42-.1.64ZM129,124.33a4.9,4.9,0,0,0-.79-3.38Zm-17.91,23.49c.22-1.14.11-1.8-.32-2.24A2.76,2.76,0,0,0,111.06,147.82Zm2.66,3.89a2.42,2.42,0,0,0,1.54-1.91ZM92.49,119.78c-.29-.19-.59-.37-.87-.58s-.5-.4-.75-.6A1.72,1.72,0,0,0,92.49,119.78Zm-28-46.61L62,72.72A3.69,3.69,0,0,0,64.49,73.17Zm43.27,7.36c-.76-.89-1.15-1-1.66-.65Zm-35.69,16c-.48.19-.62.63-.47,1.9ZM70,98.22c.11-.36.18-.72.32-1.07s.36-.68.54-1A2.06,2.06,0,0,0,70,98.22Zm-1,28c.57.37.59.36,1-.17A.73.73,0,0,0,69,126.24Zm31.12-46.17a.69.69,0,0,0,1.09-.27C100.76,79.57,100.47,79.69,100.12,80.07Zm10.3,70.35.18,0a1.73,1.73,0,0,0,.33-1.5ZM81.82,96.93c-.17-1.14-.46-1.46-1.14-1.33C81.28,95.92,81.28,95.92,81.82,96.93Zm-8.17-.64a2.42,2.42,0,0,0-.33,2.15Zm9.56-2.14,1.2,1.15A1.68,1.68,0,0,0,83.21,94.15Zm27,26.84.46-1-.11-.07-.65.56ZM87.56,92.11a1.37,1.37,0,0,0-1.51-.45ZM82.91,127h.14l.17-1.23-.2,0ZM59.48,68.24l-.2-.1-.56,1.14.17.08Zm2.41-2.39,0,.16,1.15-.41L63,65.45ZM52.36,107c0,.72,0,.72.38,1ZM89.89,88.64l.07-.15-.8-.38-.07.15ZM64.47,65.43l0-.29-.68.18,0,.16ZM84.16,98.81c.37.39.37.39.91.26Zm5.46,18.43.82.57C90.29,117.23,90,117.12,89.62,117.24Zm1.74-32.65,0,.15.58.14,0-.16Zm-23.88-4,0,.18.38,0,0-.23Zm-1-18.33a2.35,2.35,0,0,0-.41-.16s-.14.15-.12.17a.75.75,0,0,0,.26.24S66.39,62.4,66.53,62.27Zm9.07-4.09.08-.17-.5-.12,0,.13Zm16.31,55.69.09.2.44-.22,0-.12Z"/><path d="M110.72,157.17l.4-.44.2.16-.35.48Z"/><path class="cls-2" d="M71.8,156.84c-.42-.46-.87-.88-1.26-1.36A2.69,2.69,0,0,0,68,154.6a9.66,9.66,0,0,0-6.65,3.78,26.92,26.92,0,0,0-2.16,3.11,12.51,12.51,0,0,0-1.55,4.2c-.05.26-.11.52-.19.88l-.35-1c-.37.41-.16.79-.13,1.15s.11.75.19,1.2c-.39.2-.77.41-1.17.59l-5.59,2.63a2.92,2.92,0,0,0-.47.23,5.75,5.75,0,0,1-4.23.7c-1.18-.18-1.39-.49-1.06-1.66a7.32,7.32,0,0,0,.25-.75c0-.12-.05-.25-.1-.46a1.57,1.57,0,0,0-.68,1.14,1.31,1.31,0,0,1-1.17,1,22.49,22.49,0,0,1-4.49.2,31.13,31.13,0,0,1-7-.83c-1.67-.36-3.36-.63-5-1-2.3-.49-4.62-.93-6.88-1.57a33.66,33.66,0,0,1-8.63-4,1.44,1.44,0,0,1-.77-1.69c.15-.65.26-1.32.39-2,.47-.19.92-.34,1.33-.55a2.24,2.24,0,0,0,1.05-3.14,4.33,4.33,0,0,0-1.6-1.84c-.74-.46-1.52-.85-2.32-1.3a36.27,36.27,0,0,1,3.21-3.24c2.39-2.18,5.3-3.47,8.18-4.81.53-.25,1.12-.37,1.67-.57,2.83-1.05,5.65-2.15,8.51-3.16a8.5,8.5,0,0,1,2.51-.4c1.85,0,3.7,0,5.56,0,.07,0,.14.08.31.18-.93.73-1.64,1.62-2.86,1.86a5.63,5.63,0,0,0-3.19,1.74,2.83,2.83,0,0,0,.13,3.82,5,5,0,0,0,3.16,1.37c.25,0,.53.07.68-.31-.12-.07-.23-.2-.35-.21a1.85,1.85,0,0,1-1.5-1.2c-.3-.59-.1-1,.57-1.15,1-.15,2-.25,3-.41,1.27-.2,2.54-.41,3.81-.66a6,6,0,0,0,1.51-.43,6.89,6.89,0,0,0,3.44-3c.61.15,1.15.31,1.7.4a41.48,41.48,0,0,1,6.61,1.55,43.28,43.28,0,0,1,6.07,2.14c.66.32,1.31.68,2,1,.42.21.85.4,1.27.59A13.15,13.15,0,0,0,67.23,146a45.35,45.35,0,0,1,5.79-7.1c1-1,2-1.94,2.88-3a1,1,0,0,1,1.13-.39c.54.12,1.07.26,1.59.39a30.22,30.22,0,0,0-9.08,13.53,1.68,1.68,0,0,0,2.62-.72l-1.57.36c0-1.12,1.4-4,3.42-7.06a35,35,0,0,1,5.21-6,3.58,3.58,0,0,1,1.57,1.69,1.87,1.87,0,0,1,.16.68,8.54,8.54,0,0,1-2.11,5.84A15.69,15.69,0,0,1,76.33,146a29.55,29.55,0,0,0-3.12,2.13,6.54,6.54,0,0,0-1.86,7.38,13.29,13.29,0,0,1,.42,1.4ZM40.13,161.6a4.46,4.46,0,0,0-.64-.43c-1.2-.46-2.28-1.17-3.47-1.65a45.56,45.56,0,0,0-7.17-2.45A48.8,48.8,0,0,0,18.08,156a20.69,20.69,0,0,0-2.72.26c-.94.14-1,.21-1,1.12a7.12,7.12,0,0,0,0,.8c.23,2.19.34,2.25,2.25,2.79a112.4,112.4,0,0,0,11.18,2.57,54.56,54.56,0,0,0,9.28,1.1,5.5,5.5,0,0,1,1.15.27A7.48,7.48,0,0,1,40.13,161.6Zm6.53-.92H46a6.2,6.2,0,0,0-4.31,1.47,3.72,3.72,0,0,0,0,5.7,6.19,6.19,0,0,0,2.94,1.06,7.72,7.72,0,0,0,6-1.5,6.47,6.47,0,0,0,1.64-1.7c.82-1.23.17-3.16-1.25-4A8.16,8.16,0,0,0,46.66,160.68Zm13.86-9.3-.09-.22c-.23,0-.45,0-.68.09a39.2,39.2,0,0,0-7.21,2.58A34.4,34.4,0,0,0,45.28,158a33.56,33.56,0,0,0-2.76,2.45,1.14,1.14,0,0,0-.16.39A58,58,0,0,1,60.52,151.38ZM12,162.54c.1.14.13.24.2.27,1.39.69,2.78,1.4,4.19,2.05a34.17,34.17,0,0,0,4.71,1.76c.34.1.66.24,1,.34a34.24,34.24,0,0,0,4.12,1.26c3,.56,6.1,1,9.16,1.4,1.54.19,3.11.19,4.67.25.29,0,.64.09.9-.31a4.86,4.86,0,0,0-.57-.07,64.43,64.43,0,0,1-8.44-.66A42.22,42.22,0,0,1,24,167.21q-1.74-.65-3.51-1.17a33.57,33.57,0,0,1-4.66-1.87c-1.14-.54-2.29-1.06-3.44-1.58A1.27,1.27,0,0,0,12,162.54Zm1.86-8.49.2.12,1-1.23c.34-.44.67-.9,1-1.32s.75-.83,1.14-1.23.81-.77,1.22-1.15.82-.76,1.25-1.12.87-.7,1.32-1,.93-.63,1.4-.92.94-.6,1.44-.86,1-.49,1.5-.74a5.26,5.26,0,0,0,1.49-.76,1.5,1.5,0,0,0-.32,0l-.33.13A23.9,23.9,0,0,0,20,147.33c-.48.38-1,.73-1.47,1.11a15.48,15.48,0,0,0-4.25,4.79C14.1,153.49,14,153.78,13.84,154.05Zm24.6,11.47v-.29c-8-.67-16.06-1.43-23.69-4.35a20.67,20.67,0,0,0,2.89,1.19c1.09.35,2.2.66,3.31.92,1.8.43,3.6.92,5.42,1.19,3,.43,5.95.71,8.93,1C36.35,165.34,37.4,165.43,38.44,165.52Zm-11.26-9.67.27,0,.24-1c1.1-.43,1.51-1,1.41-1.92a1.58,1.58,0,0,0-1.55-1.42,1.39,1.39,0,0,0-1.59,1c-.32.76,0,1.39,1.14,2.24a4.15,4.15,0,0,0,.08,1.15Zm43.26-1.14.07-.2a7.82,7.82,0,0,0-1.09-.53,7.3,7.3,0,0,0-6.52,1.16c-2.5,1.61-4,4.06-5.15,6.68a10.62,10.62,0,0,0-.47,1.48.35.35,0,0,0,.29-.25A16.83,16.83,0,0,1,61.1,157a8.85,8.85,0,0,1,5.81-3,5,5,0,0,1,3,.53A5,5,0,0,0,70.44,154.71Z"/><path class="cls-2" d="M90.61,134.58a4.34,4.34,0,0,1,4.19,4.55c.74-.35,1.37-.69,2-1a4.27,4.27,0,0,1,1.42-.41,13.36,13.36,0,0,1,4.54.37,10.44,10.44,0,0,1,2.17.93,17.15,17.15,0,0,1,3.86,2.92,6.07,6.07,0,0,0-1.52,4.2,5.56,5.56,0,0,0,1.92,4.15,149.68,149.68,0,0,0-27,8.59c0-.24.06-.48.11-.71a3,3,0,0,0-.13-1.9,1.31,1.31,0,0,0-1.75-.69c-.49.25-.59.56-.37,1.09s.74.83.06,1.27a1.52,1.52,0,0,1-1.93-.21,3.2,3.2,0,0,1-.82-2.27,2.9,2.9,0,0,1,.25-1.1,1.9,1.9,0,0,1,1.91-1.27,27.55,27.55,0,0,0,4,0,10.65,10.65,0,0,0,5.24-1.9,13.14,13.14,0,0,0,5-6.56c.19-.58.47-1.13.75-1.78.75.57,1.18-.33,1.91-.28a29,29,0,0,0-.44-3.35c-.72.4-.39,1-.38,1.43s.11,1,.17,1.51c-.2.08-.35.16-.51.21s-.34.09-.57.15a4.77,4.77,0,0,1,0-.61,8.1,8.1,0,0,0-1.52-5.31A6.7,6.7,0,0,0,91,134.78Zm7.27,17.77c-.12-1.52-.25-2.86-.42-4.19a12.7,12.7,0,0,0-.63-4c-.41.57-.41.57-.32,1.17.17,1,.37,2.07.51,3.11s.16,1.87.25,2.8A1.24,1.24,0,0,0,97.88,152.35Zm-2.74.3-.06-.2c-3.14.77-6,2.39-9,3.36a.77.77,0,0,0-.29.19c0,.05-.06.15-.13.32a5.06,5.06,0,0,0,.73-.16Q90.75,154.42,95.14,152.65Zm4.51-1.53a7.51,7.51,0,0,0,1.51-.13c1.67-.43,3.33-.91,5-1.38a2.92,2.92,0,0,0,.52-.27C105.35,149.3,100.44,150.47,99.65,151.12Z"/><path class="cls-2" d="M74.21,136.84c-4,3-6.31,7.14-9,11-5.7-2.32-11.29-4.67-17.45-5.47.09-.35.19-.65.24-1a18.57,18.57,0,0,0,.29-2.08,4.49,4.49,0,0,1,2.47-4.14,51.63,51.63,0,0,1,4.84-2.1c.15-.06.45-.08.49,0,.33.54.89.39,1.35.47l7,1.14c1.65.27,3.31.55,4.94.9S72.46,136.39,74.21,136.84Zm-9.73,2.59-1.42.49c.49-.11,1.06,0,1.41-.5l1.09-.08,0-.16ZM62.81,142l.07.17L66.49,141l0-.15Zm1.56-7.13,0,.2a3.84,3.84,0,0,0,2.45.55ZM62,137.79l0,.13,1.91-.41,0-.13Z"/><path class="cls-2" d="M66.3,93.25l.51-.25c.46.36.11.72,0,1.06l.38.1a2.15,2.15,0,0,0,0,3,5.64,5.64,0,0,0,3.77,2,15.77,15.77,0,0,0,5.69-.15A26.31,26.31,0,0,0,83,97.21a7.61,7.61,0,0,0,2.36-1.47,3.14,3.14,0,0,0-1.71-2,19.13,19.13,0,0,0-1.76-4.54l2.17-1.31,1.66,4-.59.7a1.73,1.73,0,0,1,1.31.89c-1.48-.89-1.56-.89-2.48,0a3.79,3.79,0,0,1,1.65,2.09c3.23-2.05,5.51-4.71,6.06-8.7l-1.41-.76,0,0,1.68.46c.25-1.6,1-3.16,1-4.91l-1-.33,0,0h1a10.47,10.47,0,0,0,.36-4.08c-.57,1-.37,2.22-1.19,3-.4-.15-.36-.33-.21-.58a6.75,6.75,0,0,0,.93-3.23l-1,1.76c-.42-.27-.5-.51-.22-.84a5.8,5.8,0,0,0,.65-.83c.36-.56.68-1.15,1.05-1.79-1.52-.73-1.57-2.18-2-3.53a2.81,2.81,0,0,0-.52.27,6.73,6.73,0,0,1-2.51,1.25,17.14,17.14,0,0,1-1.9.22l-.21.4a5.6,5.6,0,0,0-5.44,1.12,3.7,3.7,0,0,0-1.46,2.08c.5.18.77.63,1.14.93a17.59,17.59,0,0,0,3.21,2.14,3.08,3.08,0,0,0,3.26-.37,3.48,3.48,0,0,0,.82-.89c.41-.64.76-1.32,1.16-2l-.5-.2.55-.61-1.8-1.62a6.72,6.72,0,0,1,2.54,1.95A17.16,17.16,0,0,0,88.36,78a4.14,4.14,0,0,1-4.52,2.15,4.19,4.19,0,0,1-1.54-.82c-.63-.42-1.22-.92-1.83-1.38l-1.64-1.16a5,5,0,0,1,2.28-2.91c.29-.2.62-.34.91-.53.53-.34.53-.71,0-1a9.66,9.66,0,0,0-3.43-1.07,3,3,0,0,0-.95,0l1.95,1.6-.09.16a2.06,2.06,0,0,1-.55-.23c-.83-.66-1.64-1.33-2.46-2-.23-.18-.43-.39-.66-.58a3.93,3.93,0,0,0-4.53-.49,7.76,7.76,0,0,0-3.87,4.59l0,0a2.75,2.75,0,0,1-.26.22l-.39.24a17.52,17.52,0,0,1,.73-1.67,9.35,9.35,0,0,1,3.27-3.6,4.55,4.55,0,0,1,5.45.61c.22.23.47.43.72.65.16-.64.31-1.24.47-1.84l.42.33c.43-.55.85-1.06,1.25-1.6.71-1,1.37-2,2.14-2.91a5.58,5.58,0,0,1,5.64-1.87,6,6,0,0,1,3,1.47A5.13,5.13,0,0,1,89,64a6.43,6.43,0,0,0-8.83,2.46,12.33,12.33,0,0,1-2.28,3,2.33,2.33,0,0,0-.34.63l.93.14a8.24,8.24,0,0,1,1.8.27,16.56,16.56,0,0,0,7.38.63l0,0a1.08,1.08,0,0,1-.29.18,10.51,10.51,0,0,1-4,.09c-1.21-.23-2.41-.49-3.62-.72a5.27,5.27,0,0,0-.88-.1,3.87,3.87,0,0,0-.62.15c.35.14.5.21.66.26,1.12.34,2.28.59,3.37,1a9.53,9.53,0,0,0,5.7.56,5.25,5.25,0,0,0,3.16-1.79c.36-.46.78-.88,1.11-1.36A3.91,3.91,0,0,0,93,67.74l-.58.28a.92.92,0,0,0-.25-.9c-.12-.16-.23-.33-.34-.5l.94.49c-.62-1.21-1.3-2.33-2-3.44a1.48,1.48,0,0,0-.25-.25,8.71,8.71,0,0,0-4.18-2.3,5.49,5.49,0,0,0-4.14.62A7.54,7.54,0,0,0,79,65.31a22.76,22.76,0,0,0-.82,2.32,2,2,0,0,1-.83,1.28c.22-.76.42-1.52.68-2.27a16.18,16.18,0,0,1,.9-2.1,18.37,18.37,0,0,1,1.15-1.67,6.35,6.35,0,0,1,3.28-2.19,6,6,0,0,1,3.47.19,8.43,8.43,0,0,1,4.66,3.29c.68.85,1.23,1.8,1.86,2.68a1.67,1.67,0,0,1,0,1.91,5.64,5.64,0,0,1-.87,1.31c-.92.9-.66,2.75-.11,3.55a1.79,1.79,0,0,0,2.89,0c.28-.36.54-.75.81-1.14.06,1.15-1.15,2.29-2.6,2.46a1.11,1.11,0,0,0,0,1.2,1.48,1.48,0,0,1,.13.75A21.75,21.75,0,0,1,93.38,82a37.76,37.76,0,0,1-2.51,8.79A6.88,6.88,0,0,1,89.34,93a32.62,32.62,0,0,1-4,3.39,16.57,16.57,0,0,1-8,3.21c-1,.09-2,.43-2.94.57a13.18,13.18,0,0,1-5.08-.29,7,7,0,0,1-2.06-1A4.12,4.12,0,0,1,66,94.49c.12-.42.23-.85.34-1.27Zm11.85-22.4.07-.3-.51-.09a1,1,0,0,0,0,.29A3.39,3.39,0,0,0,78.15,70.85Z"/><path class="cls-2" d="M66.84,75.72c.2-.48.4-1,.59-1.45l0,0,1.26-1.45a5.62,5.62,0,0,1,7.67-1.31c1,.51,1.89,1.17,2.82,1.75.44,1.55-.39,2.75-1.16,4a5.71,5.71,0,0,1-2.79,2.45c-2.39.9-5.23.77-8.11-3l.45,1.9a3,3,0,0,1-2.38.82,3.11,3.11,0,0,1-1.44-.3,4,4,0,0,0-2.59-.54c0-.12,0-.2,0-.23a7.41,7.41,0,0,1,3.26-2.6,3.53,3.53,0,0,1,2.5,0,1.33,1.33,0,0,0,.19.47,11.19,11.19,0,0,1,.86.82,10.08,10.08,0,0,0,2,1.92c1.92,1.48,5.44,1,6.71-.6.65-.83,1.21-1.72,1.8-2.6a2.83,2.83,0,0,0,.21-.6,7,7,0,0,1-2.68,2,7.41,7.41,0,0,1-6.54.15C68.56,76.84,67.71,76.25,66.84,75.72Zm3.37,1.51A7.06,7.06,0,0,0,75.48,77a5.13,5.13,0,0,0,3.39-3.5c-.58-.36-1.16-.75-1.77-1.09a20.71,20.71,0,0,0-2.35-1.19,4.68,4.68,0,0,0-4.52.61,11.2,11.2,0,0,0-2.89,3.39,1.13,1.13,0,0,0-.08.37l2.51,1.48a1.61,1.61,0,0,0,.09-.36l-2.13-1.36a8.36,8.36,0,0,1,2.75-3.22,4.45,4.45,0,0,1,4.44-.59,25.46,25.46,0,0,1,3.54,2.1c-.64.72-1.15,1.36-1.74,1.94a4.43,4.43,0,0,1-3.34,1.35c-.82,0-1.64-.08-2.46-.13C70.63,76.79,70.31,76.66,70.21,77.23Zm3.28-1.1c.17-.66-.38-.92-.45-1.35s-.15-.91-.23-1.37.28-.88,0-1.34C72,73.1,72.26,75,73.49,76.13ZM65,78.68c-.06-.83-.12-1.59-.19-2.38-.62.26-.52.81-.48,1.32S64.42,78.54,65,78.68Z"/><path class="cls-2" d="M69.66,162.41A6.92,6.92,0,0,1,68,167a3.36,3.36,0,0,1-4.1.83,3.18,3.18,0,0,1-2.14-3.56,6.43,6.43,0,0,1,2.19-4.67,3.88,3.88,0,0,1,2.41-1.3A2.61,2.61,0,0,1,69.17,160,17.16,17.16,0,0,1,69.66,162.41ZM67,163.3c0-.78-.29-1.24-.74-1.34a1.14,1.14,0,0,0-1.24.61,1.88,1.88,0,0,0-.27,1.43,1,1,0,0,0,1,.86,1,1,0,0,0,1-.64A6,6,0,0,0,67,163.3Z"/><path class="cls-2" d="M39.45,140.86l-7.19-.17a2.7,2.7,0,0,1,.16-.54A34.66,34.66,0,0,1,39.18,131c.68-.63.76-.65,1.78-.3-.17.34-.34.67-.48,1a4.84,4.84,0,0,0-.34,3.18A10,10,0,0,1,39.45,140.86Z"/><path class="cls-2" d="M93,121.45a2,2,0,0,0-.13.39c-.08,1.11-.16,2.23-.23,3.34a6.64,6.64,0,0,0,.29,2.62c.3.86.6,1.72.88,2.58.06.18.11.5,0,.56a.81.81,0,0,1-.63.09,3.1,3.1,0,0,1-1.1-.52,29.62,29.62,0,0,1-2.91-2.68,9.17,9.17,0,0,1-1.61-3.41,8.21,8.21,0,0,1-.11-4.45,3.81,3.81,0,0,0-.09-2.34,3.1,3.1,0,0,1,1.6-3.7,7.08,7.08,0,0,0,2.16-1.63c.7-.83,1.54-1.53,2.26-2.35a30.67,30.67,0,0,0,2.13-2.69,8.7,8.7,0,0,0,1.34-5.82c0-.64-.14-1.28-.19-1.93a11.43,11.43,0,0,0-1.78-4.65c-.2-.36-.43-.7-.65-1a6.8,6.8,0,0,1-.88-5.65,20.1,20.1,0,0,1,1.5-4,8.22,8.22,0,0,1,.52-.79c.06.11.1.14.09.16a20,20,0,0,0-1.55,4.75,5.58,5.58,0,0,0,.69,4.46,22.82,22.82,0,0,1,2.7,5.63,11.06,11.06,0,0,1,0,6.42,8.87,8.87,0,0,1-2.63,4.39,25.36,25.36,0,0,0-1.94,1.94c-.63.69-1.22,1.43-1.79,2.17a1.59,1.59,0,0,1-.82.6,3.19,3.19,0,0,0-2.18,4,6.46,6.46,0,0,1,0,2.44,9.6,9.6,0,0,0,2.57,8.1c.54.58,1.11,1.13,1.69,1.68.42.4.46.39,1.14.44a2.89,2.89,0,0,0-.14-.47,7,7,0,0,1-.81-2.59,18.85,18.85,0,0,1,.09-4.92c.06-.37,0-.84.47-1Z"/><path class="cls-2" d="M79.07,61.08c-2.44,1.84-4.93,2.82-7.85,2.29a4,4,0,0,1-.91-.3c-.71-.28-1.4-.58-2.13-.88a8.13,8.13,0,0,1,3.33-3A6.67,6.67,0,0,1,73,58.72a13.32,13.32,0,0,1,2.27-.15,2.36,2.36,0,0,1,1.22.45C77.35,59.63,78.14,60.33,79.07,61.08Zm-5.53,1.86c0-.11.11-.18.09-.21a3.65,3.65,0,0,1-.42-2.7c0-.08-.12-.22-.18-.34-.15.11-.39.19-.42.32a3,3,0,0,0,.59,2.79A.94.94,0,0,0,73.54,62.94Z"/><path class="cls-2" d="M56.6,105.68l4.77-4,2.75,4.72-6.07,4.85c-.22-.71-.44-1.48-.68-2.25A16.62,16.62,0,0,1,56.6,105.68Zm3.91-.07.1.16a5.72,5.72,0,0,0,1.16-.5,1.1,1.1,0,0,0,.3-.77c0-.33-.28-.48-.6-.53l-.58-.12.3-.65-.91.15c-.12.24-.21.45-.32.65s-.3.68,0,1,.54.08.78-.13.36-.13.47.15Zm-3.39,1.47a1.9,1.9,0,0,1,1.54,1c.44.68-.23,1.14-.4,1.78.86-.6,1.08-1.15.79-1.82A1.52,1.52,0,0,0,57.12,107.08Z"/><path class="cls-2" d="M120.4,141.71l1-.31a1.08,1.08,0,0,1,1.57.65,2.87,2.87,0,0,1,0,2.48,7,7,0,0,1-2.29,2.85,9.63,9.63,0,0,1-3.92,1.91c-.34.07-.69.1-1.15.16l1.54-3,1.65-3.13a1.24,1.24,0,0,1,1.29-.65,1.29,1.29,0,0,1,1.07,1,1.74,1.74,0,0,1-.4,1.4,5.87,5.87,0,0,1-3.74,2.19c.15.4.47.31.71.24a6.11,6.11,0,0,0,2.91-1.75,3.92,3.92,0,0,0,.74-1.08,1.62,1.62,0,0,0-1.48-2.37l-.52,0c.69-2.34,1.67-3.65,2.86-3.75A15.11,15.11,0,0,0,121,139.9a4,4,0,0,0-.77,1.62Z"/><path class="cls-2" d="M58.7,71.7c.17-.64.28-1.21.47-1.76a6.34,6.34,0,0,1,3.71-3.67,1.82,1.82,0,0,1,.51-.13c.9-.11,1.21.08,1.3,1a20.27,20.27,0,0,0,1,4.2,7.29,7.29,0,0,1,.18.77,7.61,7.61,0,0,1-3.2.22c-.7-.11-1.38-.28-2.07-.39S59.39,71.78,58.7,71.7Zm3.83-4.14c-.86.34-1.09.82-1,1.83s.62,1.83,1.26,2A3.41,3.41,0,0,1,62.53,67.56Z"/><path class="cls-2" d="M129.66,127.92c.5.86,1.37-.08,1.85.6,0,.68,0,1.43,0,2.18a3.7,3.7,0,0,0,1.89,3.1,2.15,2.15,0,0,0,2.1.47c.23.39.16.66-.25.92a3.59,3.59,0,0,1-4.94-.53,4.63,4.63,0,0,1-1.63-2.26c0-.17-.14-.35-.11-.51.21-1.14.44-2.29.69-3.43C129.3,128.29,129.49,128.14,129.66,127.92Z"/><path class="cls-2" d="M93,121.44a2,2,0,0,1,.64-1.93c.49-.4.93-.88,1.38-1.33a.51.51,0,0,0,.14-.31c-.12-.81.46-1.25,1-1.64,1.64-1.3,3.31-2.54,5-3.79,2.29-1.71,4.62-3.34,6.85-5.12a9.52,9.52,0,0,0,3.49-5.54,36,36,0,0,0,.64-9.2c-.06-1.67-.3-3.33-.38-5a5.49,5.49,0,0,1,.6,2.47c.14,1.91.2,3.82.3,5.72a28.93,28.93,0,0,1-.65,7,8,8,0,0,1-2.08,3.73,24.21,24.21,0,0,1-4.84,3.93c-2.69,1.79-5.26,3.75-7.89,5.64a6,6,0,0,0-.71.5,4.37,4.37,0,0,0-.85,1A7.47,7.47,0,0,1,93.8,120a4.68,4.68,0,0,0-.81,1.4Z"/><path class="cls-2" d="M79.69,76.29A13.65,13.65,0,0,1,82.46,74a4.17,4.17,0,0,1,4.32.37,17.64,17.64,0,0,0,1.42,1.17C86.58,77.82,83.21,78.5,79.69,76.29Zm4.52-2c-.83.45-.59,1.14-.52,1.77,0,.36.22.66.87.51C83.68,75.92,84.3,75.11,84.21,74.33Z"/><path class="cls-2" d="M57.4,112.09c-1.31,1.2-2.49,2.28-3.75,3.45-.92-1.83-2.42-3-3.82-4.46,1-1.06,2.22-1.74,3.15-2.85l1.41,1.71c-.17,1.29.24,1.89,1.2,1.62-.26-.37-1-.39-.79-1.13C55.67,110.93,56.13,112,57.4,112.09Zm-4.88-1.78-.82.15c-.4,1.17-.37,1.22.95,1.4l-.53.55c1.05,0,1.44-.17,1.44-.71,0-.22-.08-.55-.23-.63a4.06,4.06,0,0,0-1-.18Z"/><path class="cls-2" d="M89,79.38a3.39,3.39,0,0,0-.41.15c-1.65.83-3.27,1.72-5,2.49s-3.53,1.46-5.28,2.22a9.88,9.88,0,0,1-5,.56c-1.54-.15-3.06-.53-4.59-.82-.11,0-.19-.11-.36-.21l2.19-1.07c.55-.27,1.1-.54,1.64-.84a1,1,0,0,1,1.49.18c.27.27.51.57.82.92.39-.39.77-.74,1.12-1.11A1.34,1.34,0,0,1,77,81.43a25,25,0,0,0,3.24.43,9.72,9.72,0,0,0,4.62-.92,17.7,17.7,0,0,0,4.43-2.33A5.71,5.71,0,0,0,91,76.8a.6.6,0,0,1,.3-.31,3.66,3.66,0,0,1-1.47,2.17c-.29.24-.56.5-.84.75ZM77.2,84c.93,0,1-.74,1.44-1.2l-.07.78.23.17.84-.81v.4c.47-.22.85-.39.83-1-1.16-.18-2.29-.31-3.4-.53a1.1,1.1,0,0,0-1.2.48c-.39.49-.83,1-1.29,1.48,0,.23,0,.62.53.64s.64-.33.73-.72c.06-.21.1-.42.15-.64a.91.91,0,0,1,.12.56c0,.22,0,.43,0,.65a.8.8,0,0,0,.91-.73c.08-.38.22-.74.32-1.11l.16,0Zm-4.91-1.64a3.63,3.63,0,0,0,.85,2c.08.09.31,0,.54.06-.12-.27-.22-.45-.29-.63s-.1-.38-.15-.57c.4.34.41.92,1,1.14a1.86,1.86,0,0,0-.92-2.08A.7.7,0,0,0,72.29,82.36Zm-.77,1c.39.92.39.92,1.08.87L72,82.42a12.19,12.19,0,0,0-2.31,1.31c.32.08.63,0,.92,0a3.48,3.48,0,0,1,.84.36Zm9.41-.52.93-.45C81.06,82.3,81.06,82.3,80.93,82.82Z"/><path class="cls-2" d="M73.35,96.14c-.78-.16-1.52-.3-2.26-.47a8.08,8.08,0,0,1-.9-.32c.31-1.83.61-3.6.94-5.49l2.55.32A21.22,21.22,0,0,1,73.35,96.14Z"/><path class="cls-2" d="M74.39,90.4l2.5.21-.15,6A2,2,0,0,1,77.35,98a8.88,8.88,0,0,0-.89-1.23A1.19,1.19,0,0,0,75,96.56V98.5h-.18l-.11-2-.87-.26C74,94.36,74.19,92.47,74.39,90.4Z"/><path class="cls-2" d="M80.62,95.19l-1.35.58c.34.56,1.06.81,1.18,1.52-.71-.76-1.37-1.58-2.73-1.16l.84.92-.11.12a7.67,7.67,0,0,1-.94-.85,1.33,1.33,0,0,1-.24-.8c0-1.44,0-2.88,0-4.33a.52.52,0,0,1,.42-.57c.4-.11.8-.2,1.21-.28.71-.14.75-.13.9.56.22,1,.39,2.07.58,3.11Z"/><path class="cls-2" d="M65.92,107.42c-3.57,2.62-7.11,5.1-9.81,8.56l-1.56-.62,1-1,1.11-1,4.12-3.69c.07,0,.11-.15.19-.18a17.93,17.93,0,0,0,3.14-2.34C64.83,106.66,65.27,107.18,65.92,107.42Z"/><path class="cls-2" d="M126.91,142.39c-.18-.65-.34-1.3-.52-1.95a3.36,3.36,0,0,0-1.85-2.12c-.24-.12-.61-.13-.53-.66a2.67,2.67,0,0,1,.8,0c1.22.27,2.44.58,3.66.87s2.33.54,3.48.8a2.9,2.9,0,0,1-.38.24c-1.42.7-2.83,1.42-4.26,2.09-.4.18-.36.47-.42.78Z"/><path class="cls-2" d="M68.21,97.41a2.87,2.87,0,0,1,1.45-2.27c-.93-1-1-1-2.25.32.07-.66.52-.95.94-1.33l-.89-1c.37-1.42.73-2.83,1.11-4.28a5.44,5.44,0,0,1,1.82.9.73.73,0,0,1,.2.53,5.21,5.21,0,0,1-.1,1q-.31,1.91-.66,3.81c0,.16-.07.39-.18.46A4,4,0,0,0,68.21,97.41Z"/><path class="cls-2" d="M56.79,132.47a2.84,2.84,0,0,1,.7-.08c1.13.19,2.26.36,3.38.61,2.58.58,5.21.85,7.83,1.2,2,.25,3.88.62,5.82.94l1,.2c-.49,1-.82,1.08-1.77.84-2-.5-4-1-6.09-1.39-3-.6-5.95-1.16-8.92-1.72-.65-.13-1.31-.22-2-.33Z"/><path class="cls-2" d="M67,61.23a9.2,9.2,0,0,1,3.81-3.88c2.15-1,4.33-1.08,6.32.52.47.38.9.82,1.36,1.22s1.08.9,1.69,1.4l-.28.48c.32.36.62.39.88,0s.3,0,.64,0a12.82,12.82,0,0,0-1.25,1c-.66.71-1.3,1.44-1.9,2.2a6.79,6.79,0,0,1-3,2.43,3.37,3.37,0,0,1-3.33-.74c.36.07.73.11,1.09.21a4.15,4.15,0,0,0,3.8-.89,5.33,5.33,0,0,0,1.84-2.22c.07-.18.17-.43.33-.5.61-.31.54-.87.61-1.37l-1.25-1,.36-.29a12.32,12.32,0,0,0-1.46-1.51,6,6,0,0,0-8,.67c-.53.55-1,1.16-1.48,1.74l-.59.75Z"/><path class="cls-2" d="M84.53,87.73,86.34,86c.25.43.45.74.63,1.06s.45.89.69,1.33.49,1,1.17,1c.27,0,.53.32.71.63-.23-.13-.45-.27-.68-.38-.73-.34-1.08-.22-1.49.55.54.09,1.13.06,1.54.7a2,2,0,0,0-2.76.58,7.09,7.09,0,0,1-.88-1.85C85,89,84.79,88.41,84.53,87.73Z"/><path class="cls-2" d="M91,116.72a8.5,8.5,0,0,1,.33-1.25,1.6,1.6,0,0,1,2.64-.4,3.12,3.12,0,0,1,.44,3,2.85,2.85,0,0,1-1.52,1.1c-.18.08-.56-.12-.78-.29A2.8,2.8,0,0,1,91,116.72Zm2.32,1.89c0-.39.12-.73.06-.76-.44-.23-.36-.5-.19-.85,0-.08-.09-.25-.14-.38s-.19-.33-.15-.39c.35-.51-.14-.66-.39-.93a1.26,1.26,0,0,0,0,.81,1.66,1.66,0,0,1,.14.81c0,.42.37.79.21,1.26C92.8,118.24,93.05,118.39,93.31,118.61Z"/><path class="cls-2" d="M81.43,89.34a21.91,21.91,0,0,1,1.9,4.45l-.48.29a3.6,3.6,0,0,0-.39.25l.84,1c-.62-.2-1-1.11-1.85-.5a4.05,4.05,0,0,1,.77.48,1.57,1.57,0,0,1,.41.88c-.12-.14-.23-.28-.35-.4s-.31-.42-.5-.46c-.67-.12-.8-.61-.9-1.14-.23-1.24-.44-2.48-.7-3.71a.54.54,0,0,1,.32-.71Z"/><path class="cls-2" d="M8.35,158c-.12,0-.26.06-.34,0A2.62,2.62,0,0,1,7.14,156a.9.9,0,0,1,1.11-.72,4.36,4.36,0,0,1,2.63,1.47l.15.21a1.66,1.66,0,0,1,.07,1.74,1.78,1.78,0,0,1-1.79.38c-.25-.09-.48-.22-.72-.32s-.33-.41-.26-.7a1.45,1.45,0,0,0,1.29-.83Zm2.27-.13-.13-.18-1.15.85.13.17Zm-1.77-1.11-.09-.13-.65.45.1.14Z"/><path class="cls-2" d="M77,87.53l-.14-2.4L80.46,84a4.14,4.14,0,0,1,.62,2c0,.33-.17.49-.43.58-.91.29-1.83.57-2.75.84A8.52,8.52,0,0,1,77,87.53Z"/><path class="cls-2" d="M72.83,88,73,85.47l3.4-.26.21,2.39A10.41,10.41,0,0,1,72.83,88Z"/><path class="cls-2" d="M69,87.24l.22-2.66,3.28.84a6.86,6.86,0,0,1-.28,2.29c-.07.39-.41.39-.71.3C70.69,87.78,69.89,87.52,69,87.24Z"/><path class="cls-2" d="M56.59,119.61c.27.14.5.19.61.34a21.6,21.6,0,0,1,1.33,1.85,8.36,8.36,0,0,0,4.6,3.5c1.13.39,2.31.63,3.48.93.1,0,.19.08.42.18-.24.1-.35.2-.48.2a8.85,8.85,0,0,1-6.4-1.94,6.88,6.88,0,0,1-2.27-3A12.2,12.2,0,0,0,56.59,119.61Z"/><path class="cls-2" d="M133,128.49a5.86,5.86,0,0,1,.59,0c1.43.09,1.55-.15,1.71,1.77.07.85.1,1.7.15,2.55A2.88,2.88,0,0,1,133,128.49Zm1.15,3.44a2.83,2.83,0,0,0,.41-2.26Zm0-2.44-.22-.11-.45,1.78.21.05Z"/><path class="cls-2" d="M84.59,82.18a2.86,2.86,0,0,0,.11.56A1.41,1.41,0,0,1,84,84.82,8.8,8.8,0,0,1,81.6,86l-.48-2.18Z"/><path class="cls-2" d="M90.27,86.08l-.66.62,1.42.86L91,87.7c-.3-.16-.6-.32-.91-.46a.61.61,0,0,0-.9.24c-.22.34-.49.65-.84,1.1l-1.47-2.73,1.59-1.74,1.82,2Z"/><path class="cls-2" d="M7.88,154.67c.29-.14.43-.28.57-.28a4.39,4.39,0,0,1,4.13,3c.29,1.22-.07,2.09-1.28,2.36a7.57,7.57,0,0,1-2.17-.06c-.1,0-.19-.16-.26-.22a8.88,8.88,0,0,0,1.46,0,1.53,1.53,0,0,0,1.3-2.07,3.16,3.16,0,0,0-1.83-2A20,20,0,0,0,7.88,154.67Z"/><path class="cls-2" d="M71.77,156.86c.26.25.54.5.78.77a7.73,7.73,0,0,0,3.38,2.45s.07.08.16.18l-2.75,1-.27-2.19h-.19c-.07.84.32,1.71-.06,2.75-.34-1.81-.29-3.48-1-5Z"/><path class="cls-2" d="M66.31,106c-.62.17-.24.58-.18.94-1.29-.22-1.84-1.24-2.45-2.12A13.45,13.45,0,0,1,62.26,102l1.95,1a5.49,5.49,0,0,0,1.71,2.78,1.48,1.48,0,0,0,.38.18Z"/><path class="cls-2" d="M84.92,82c.6-.31,1.1-.54,1.58-.82s.89-.56,1.33-.84c.64.94.63,1.29-.19,1.91-.65.49-1.37.89-2.17,1.41Z"/><path class="cls-2" d="M90.29,82.17l1.61.89c-.3,0-.59.2-.74.66a13.74,13.74,0,0,1-.67,1.52c-.86-.07-1.1-.77-1.5-1.29a.39.39,0,0,1,0-.33A4.52,4.52,0,0,1,90.29,82.17Z"/><path class="cls-2" d="M88.42,117.38c-.19-2.08,1-3.33,2.9-3.09-.23.38-.47.73-.65,1.1s-.33.82-.51,1.29A1.76,1.76,0,0,0,88.42,117.38Z"/><path class="cls-2" d="M78.21,62.46a6.28,6.28,0,0,1-8.91.62,9.27,9.27,0,0,0,4.54,1.11A12,12,0,0,0,78.21,62.46Z"/><path class="cls-2" d="M49.74,131a4.31,4.31,0,0,1-.49-.11,7.31,7.31,0,0,0-4.84,0c-.31.1-.36,0-.54-.2s-.43,0-.68,0a3.35,3.35,0,0,1,2.32-.84A4.62,4.62,0,0,1,49.74,131Z"/><path class="cls-2" d="M116.11,116.69c.76-.92,1.59-1.79,2.26-2.77s1.18-2,1.8-3.17a1,1,0,0,1,.11,1.1,7.14,7.14,0,0,1-2,3.12c-.7.58-1.36,1.2-2,1.8Z"/><path class="cls-2" d="M89,79.41c.39-.24.77-.49,1.15-.74s.56-.4.83-.59c.38.32.47.62.13.94-.73.71-1.47,1.41-2.3,2.2l-.37-1.13.59-.71Z"/><path class="cls-2" d="M69.31,60.12a6.07,6.07,0,0,0-.75.94c-.28.53-1.06.75-.92,1.54,0,.08-.21.2-.42.37,1.7.44,2.74,1.67,4,2.69a2.68,2.68,0,0,1-.83-.25c-1.08-.74-2.14-1.53-3.2-2.3A1.3,1.3,0,0,1,67,62.9l.05-.73L69.2,60Z"/><path class="cls-2" d="M115.27,117.23c-.73,1.71-2.3,2.31-3.81,3C112.56,119,114.31,118.63,115.27,117.23Z"/><path class="cls-2" d="M92,81.33l-.44,1c-1-.6-1-1.09.15-1.85.5.15.31.52.27.84Z"/><path class="cls-2" d="M87.61,76.91a4.48,4.48,0,0,1-4.56,1.39,16.69,16.69,0,0,0,2.32-.36A16.51,16.51,0,0,0,87.61,76.91Z"/><path class="cls-2" d="M63.69,79.72a12.45,12.45,0,0,0,2.08.08,11.58,11.58,0,0,0,2-.6A3.68,3.68,0,0,1,63.69,79.72Z"/><path class="cls-2" d="M70.16,59.2c.87-1.14,2.15-1.44,4.11-1.24A8.8,8.8,0,0,0,70.16,59.2Z"/><path class="cls-2" d="M95.13,116.23a4,4,0,0,0-2-2.41A2.12,2.12,0,0,1,95.13,116.23Z"/><path class="cls-2" d="M110.57,144.58,109,142.94c-.21-.22-.11-.41.1-.64A4.39,4.39,0,0,1,110.57,144.58Z"/><path class="cls-2" d="M129,124.33l-.79-3.38A4.9,4.9,0,0,1,129,124.33Z"/><path class="cls-2" d="M111.06,147.82a2.76,2.76,0,0,1-.32-2.24C111.17,146,111.28,146.68,111.06,147.82Z"/><path class="cls-2" d="M113.72,151.71l1.54-1.91A2.42,2.42,0,0,1,113.72,151.71Z"/><path class="cls-2" d="M92.49,119.78a1.72,1.72,0,0,1-1.62-1.18c.25.2.49.41.75.6S92.2,119.59,92.49,119.78Z"/><path class="cls-2" d="M64.49,73.17A3.69,3.69,0,0,1,62,72.72Z"/><path class="cls-2" d="M107.76,80.53l-1.66-.65C106.61,79.5,107,79.64,107.76,80.53Z"/><path class="cls-2" d="M72.07,96.49l-.47,1.9C71.45,97.12,71.59,96.68,72.07,96.49Z"/><path class="cls-2" d="M70,98.22a2.06,2.06,0,0,1,.86-2.1c-.18.35-.39.68-.54,1S70.09,97.86,70,98.22Z"/><path class="cls-2" d="M69,126.24a.73.73,0,0,1,1-.17C69.59,126.6,69.57,126.61,69,126.24Z"/><path class="cls-2" d="M100.12,80.07c.35-.38.64-.5,1.09-.27A.69.69,0,0,1,100.12,80.07Z"/><path class="cls-2" d="M110.42,150.42l.51-1.46a1.73,1.73,0,0,1-.33,1.5Z"/><path class="cls-2" d="M81.82,96.93c-.54-1-.54-1-1.14-1.33C81.36,95.47,81.65,95.79,81.82,96.93Z"/><path class="cls-2" d="M57.07,103.24,57,104.32c0,.18-.06.36-.11.7a1.74,1.74,0,0,1,.23-1.78Z"/><path class="cls-2" d="M73.65,96.29l-.33,2.15A2.42,2.42,0,0,1,73.65,96.29Z"/><path class="cls-2" d="M57.07,103.24a2.24,2.24,0,0,1,.53-1.93c-.17.64-.35,1.29-.53,1.93Z"/><path class="cls-2" d="M83.21,94.15a1.68,1.68,0,0,1,1.2,1.15Z"/><path class="cls-2" d="M110.17,121l-.3-.55.65-.56.11.07Z"/><path class="cls-2" d="M87.56,92.11l-1.51-.45A1.37,1.37,0,0,1,87.56,92.11Z"/><path class="cls-2" d="M82.91,127l.11-1.24.2,0L83.05,127Z"/><path class="cls-2" d="M59.48,68.24l-.59,1.12-.17-.08.56-1.14Z"/><path class="cls-2" d="M61.89,65.85l1.15-.4.05.15L61.94,66Z"/><path class="cls-2" d="M52.36,107l.38,1C52.36,107.68,52.36,107.68,52.36,107Z"/><path class="cls-2" d="M89.89,88.64l-.8-.38.07-.15.8.38Z"/><path class="cls-2" d="M64.47,65.43l-.69,0,0-.16.68-.18Z"/><path class="cls-2" d="M84.16,98.81l.91.26C84.53,99.2,84.53,99.2,84.16,98.81Z"/><path class="cls-2" d="M89.62,117.24c.4-.12.67,0,.82.57Z"/><path class="cls-2" d="M66.3,106l.45.94c-.54-.4-.54-.4-.45-.94Z"/><path class="cls-2" d="M91.36,84.59l.59.13,0,.16-.58-.14Z"/><path class="cls-2" d="M67.48,80.6l.38-.1,0,.23-.38,0Z"/><path class="cls-2" d="M66.53,62.27c-.14.13-.24.26-.27.25a.75.75,0,0,1-.26-.24s.09-.18.12-.17A2.35,2.35,0,0,1,66.53,62.27Z"/><path class="cls-2" d="M75.6,58.18,75.15,58l0-.13.5.12Z"/><path class="cls-2" d="M91.91,113.87l.48-.14,0,.12-.44.22Z"/><path d="M40.13,161.6a7.48,7.48,0,0,0-1.9,3.28,5.5,5.5,0,0,0-1.15-.27,54.56,54.56,0,0,1-9.28-1.1,112.4,112.4,0,0,1-11.18-2.57c-1.91-.54-2-.6-2.25-2.79a7.12,7.12,0,0,1,0-.8c0-.91.06-1,1-1.12a20.69,20.69,0,0,1,2.72-.26,48.8,48.8,0,0,1,10.77,1.1A45.56,45.56,0,0,1,36,159.52c1.19.48,2.27,1.19,3.47,1.65A4.46,4.46,0,0,1,40.13,161.6Zm-13.64,1.23a13,13,0,0,0,.41-5l-2.33-.44a46.29,46.29,0,0,0-.1,5.12Zm3.41-4.36a15.05,15.05,0,0,0-2.37-.47L27,162.87a5.13,5.13,0,0,0,1.94.27A8.7,8.7,0,0,0,29.9,158.47ZM22.16,157c0,.59-.09,1.11-.09,1.63,0,.9,0,1.81.08,2.71a.83.83,0,0,0,.4.6,11.6,11.6,0,0,0,1.5.39v-5.08Zm9.72,6.54a6.64,6.64,0,0,0,2,.17c.2-.92.4-1.78.56-2.64a2.54,2.54,0,0,0,0-.87.68.68,0,0,0-.33-.44c-.53-.21-1.09-.37-1.65-.54Zm-.41,0c.18-1.18.35-2.25.49-3.31.16-1.24.14-1.24-1.05-1.55a1.62,1.62,0,0,0-.3,0l-1.16,4.66Zm-9.76-1.9V156.9l-1.61-.1a9.63,9.63,0,0,0-.07,3.42c.16,1.47,0,1.24,1.57,1.52ZM35,160.08l-.69,3.79a8.1,8.1,0,0,0,1.25.12.74.74,0,0,0,.53-.33,6.15,6.15,0,0,0,.72-2.86ZM18.1,156.83a10.92,10.92,0,0,0,0,3.42c.05.32.09.65.47.77l1.14.31-.15-4.5Zm-1.77,0a8.53,8.53,0,0,0,.26,3.6l1.05.25v-3.85Zm21.54,7.35,1-2.47-1.51-.7c-.14.6-.23,1.1-.37,1.57s-.34.92-.55,1.49Zm-21.95-4.07V156.9l-.8.14v2.76Z"/><path d="M46.66,160.68a8.16,8.16,0,0,1,4.41,1c1.42.87,2.07,2.8,1.25,4a6.47,6.47,0,0,1-1.64,1.7,7.72,7.72,0,0,1-6,1.5,6.19,6.19,0,0,1-2.94-1.06,3.72,3.72,0,0,1,0-5.7A6.2,6.2,0,0,1,46,160.68Zm2.32.89,0,0a4.05,4.05,0,0,0-2.1-.53,9.77,9.77,0,0,0-3,.46,4.67,4.67,0,0,0-2.28,1.41c-1.77,1.91-.14,5,1.72,5.27a12,12,0,0,0,5.07-.16,4.23,4.23,0,0,0,3.21-2.49,1,1,0,0,1,.26-.34,1.07,1.07,0,0,0,.27-1.43C51.42,162.59,50.56,161.56,49,161.57Z"/><path d="M60.52,151.38a58,58,0,0,0-18.16,9.45,1.14,1.14,0,0,1,.16-.39A33.56,33.56,0,0,1,45.28,158a34.4,34.4,0,0,1,7.26-4.16,39.2,39.2,0,0,1,7.21-2.58c.23-.05.45-.06.68-.09Z"/><path d="M12,162.54a1.27,1.27,0,0,1,.39.05c1.15.52,2.3,1,3.44,1.58A33.57,33.57,0,0,0,20.47,166q1.77.53,3.51,1.17a42.22,42.22,0,0,0,7.94,1.62,64.43,64.43,0,0,0,8.44.66,4.86,4.86,0,0,1,.57.07c-.26.4-.61.32-.9.31-1.56-.06-3.13-.06-4.67-.25-3.06-.4-6.12-.84-9.16-1.4A34.24,34.24,0,0,1,22.08,167c-.34-.1-.66-.24-1-.34a34.17,34.17,0,0,1-4.71-1.76c-1.41-.65-2.8-1.36-4.19-2.05C12.11,162.78,12.08,162.68,12,162.54Z"/><path d="M13.84,154.05c.13-.27.26-.56.4-.82a15.48,15.48,0,0,1,4.25-4.79c.48-.38,1-.73,1.47-1.11a23.9,23.9,0,0,1,6.24-3.43l.33-.13a1.5,1.5,0,0,1,.32,0,5.26,5.26,0,0,1-1.49.76c-.5.25-1,.47-1.5.74s-1,.56-1.44.86-1,.59-1.4.92-.89.67-1.32,1-.84.74-1.25,1.12-.82.75-1.22,1.15-.78.8-1.14,1.23-.69.88-1,1.32l-1,1.23Z"/><path d="M38.44,165.52c-1-.09-2.09-.18-3.13-.29-3-.34-6-.62-8.93-1-1.82-.27-3.62-.76-5.42-1.19-1.11-.26-2.22-.57-3.31-.92a20.67,20.67,0,0,1-2.89-1.19c7.63,2.92,15.65,3.68,23.69,4.35Z"/><path d="M27.18,155.85a4.15,4.15,0,0,1-.08-1.15c-1.14-.85-1.46-1.48-1.14-2.24a1.39,1.39,0,0,1,1.59-1,1.58,1.58,0,0,1,1.55,1.42c.1.92-.31,1.49-1.41,1.92l-.24,1Zm-.14-4a5.47,5.47,0,0,0,.31,2.25,5,5,0,0,0,.86-2Zm1.59.78a3,3,0,0,0-.79,1.7C28.7,153.84,28.78,153.66,28.63,152.65Zm-2-.45c-.58.89-.51,1.26.24,1.67Z"/><path d="M70.44,154.71a5,5,0,0,1-.54-.21,5,5,0,0,0-3-.53,8.85,8.85,0,0,0-5.81,3,16.83,16.83,0,0,0-3.53,6.05.35.35,0,0,1-.29.25,10.62,10.62,0,0,1,.47-1.48c1.19-2.62,2.65-5.07,5.15-6.68A7.3,7.3,0,0,1,69.42,154a7.82,7.82,0,0,1,1.09.53Z"/><path d="M97.88,152.35a1.24,1.24,0,0,1-.61-1.14c-.09-.93-.13-1.87-.25-2.8s-.34-2.07-.51-3.11c-.09-.6-.09-.6.32-1.17a12.7,12.7,0,0,1,.63,4C97.63,149.49,97.76,150.83,97.88,152.35Z"/><path d="M95.14,152.65q-4.4,1.77-8.79,3.51a5.06,5.06,0,0,1-.73.16c.07-.17.08-.27.13-.32a.77.77,0,0,1,.29-.19c3.07-1,5.9-2.59,9-3.36Z"/><path d="M99.65,151.12c.79-.65,5.7-1.82,7-1.78a2.92,2.92,0,0,1-.52.27c-1.66.47-3.32.95-5,1.38A7.51,7.51,0,0,1,99.65,151.12Z"/><path d="M62.81,142l3.63-1.1,0,.15-3.61,1.12Z"/><path d="M64.37,134.86l2.42.75a3.84,3.84,0,0,1-2.45-.55Z"/><path d="M62,137.79l1.91-.41,0,.13-1.91.41Z"/><path d="M64.47,139.41c-.35.48-.92.4-1.41.51l1.42-.49Z"/><path d="M64.48,139.43l1.06-.25,0,.16-1.09.08Z"/><path d="M87.7,71.11a16.56,16.56,0,0,1-7.38-.63,8.24,8.24,0,0,0-1.8-.27l-.93-.14a2.33,2.33,0,0,1,.34-.63,12.33,12.33,0,0,0,2.28-3A6.43,6.43,0,0,1,89,64a5.13,5.13,0,0,0,.8.32h0c0,.43.44.51.73.7l1.25,1.61c.11.17.22.34.34.5a.92.92,0,0,1,.25.9l.58-.28a3.91,3.91,0,0,1-.75,1.63c-.33.48-.75.9-1.11,1.36A5.25,5.25,0,0,1,88,72.52a9.53,9.53,0,0,1-5.7-.56c-1.09-.43-2.25-.68-3.37-1-.16,0-.31-.12-.66-.26a3.87,3.87,0,0,1,.62-.15,5.27,5.27,0,0,1,.88.1c1.21.23,2.41.49,3.62.72a10.51,10.51,0,0,0,4-.09,1.78,1.78,0,0,0,.3-.17,4.76,4.76,0,0,0,4.08-2.45A8.8,8.8,0,0,1,87.83,71S87.74,71.07,87.7,71.11Zm-9.22-1.5a3.89,3.89,0,0,0,.52.2,38.54,38.54,0,0,0,4.82,1,9.69,9.69,0,0,0,5.08-.69A7.08,7.08,0,0,0,92,67.38c-.41-.52-.76-1-1.14-1.44a6.33,6.33,0,0,0-5.93-2.4,4.87,4.87,0,0,0-3.37,1.74C80.49,66.64,79.54,68.1,78.48,69.61Z"/><path d="M89.84,64.31h0a6,6,0,0,0-3-1.47,5.58,5.58,0,0,0-5.64,1.87c-.77.93-1.43,1.94-2.14,2.91-.4.54-.82,1-1.25,1.6l-.42-.33,0,0a2,2,0,0,0,.83-1.28A22.76,22.76,0,0,1,79,65.31a7.54,7.54,0,0,1,3.15-3.57,5.49,5.49,0,0,1,4.14-.62,8.71,8.71,0,0,1,4.18,2.3,1.48,1.48,0,0,1,.25.25c.7,1.11,1.38,2.23,2,3.44l-.94-.49c-.42-.53-.84-1.07-1.25-1.61Z"/><path d="M78.15,70.85a3.39,3.39,0,0,1-.48-.1,1,1,0,0,1,0-.29l.51.09Z"/><path d="M66.84,75.72c.87.53,1.72,1.12,2.63,1.56A7.41,7.41,0,0,0,76,77.13a7,7,0,0,0,2.68-2,2.83,2.83,0,0,1-.21.6c-.59.88-1.15,1.77-1.8,2.6-1.27,1.62-4.79,2.08-6.71.6a10.08,10.08,0,0,1-2-1.92,11.19,11.19,0,0,0-.86-.82,1.33,1.33,0,0,1-.19-.47Zm2.23,1.82c1.1,1.16,3.24,1.89,4.26,1.46C71.83,78.91,70.57,78.11,69.07,77.54Z"/><path d="M70.21,77.23c.1-.57.42-.44.71-.42.82,0,1.64.11,2.46.13a4.43,4.43,0,0,0,3.34-1.35c.59-.58,1.1-1.22,1.74-1.94a25.46,25.46,0,0,0-3.54-2.1,4.45,4.45,0,0,0-4.44.59,8.36,8.36,0,0,0-2.75,3.22l2.13,1.36a1.61,1.61,0,0,1-.09.36L67.26,75.6a1.13,1.13,0,0,1,.08-.37,11.2,11.2,0,0,1,2.89-3.39,4.68,4.68,0,0,1,4.52-.61,20.71,20.71,0,0,1,2.35,1.19c.61.34,1.19.73,1.77,1.09A5.13,5.13,0,0,1,75.48,77,7.06,7.06,0,0,1,70.21,77.23Z"/><path d="M73.49,76.13c-1.23-1.13-1.53-3-.71-4.06.31.46,0,.91,0,1.34s.16.91.23,1.37S73.66,75.47,73.49,76.13Z"/><path d="M65,78.68c-.59-.14-.63-.62-.67-1.06s-.14-1.06.48-1.32C64.89,77.09,65,77.85,65,78.68Z"/><path d="M67,163.3a6,6,0,0,1-.25.92,1,1,0,0,1-1,.64,1,1,0,0,1-1-.86,1.88,1.88,0,0,1,.27-1.43,1.14,1.14,0,0,1,1.24-.61C66.7,162.06,67,162.52,67,163.3Zm-.43,0c0-.22,0-.33,0-.39-.12-.21-.23-.49-.42-.58s-.48.12-.55.28a4.29,4.29,0,0,0-.32,1.23c0,.29.17.48.48.51a.55.55,0,0,0,.64-.34C66.47,163.79,66.52,163.5,66.56,163.35Z"/><path d="M73.54,62.94a.94.94,0,0,1-.34-.14A3,3,0,0,1,72.61,60c0-.13.27-.21.42-.32.06.12.21.26.18.34a3.65,3.65,0,0,0,.42,2.7S73.59,62.83,73.54,62.94Z"/><path d="M60.51,105.61l.72-.63c-.11-.28-.26-.35-.47-.15s-.52.36-.78.13-.21-.63,0-1,.2-.41.32-.65l.91-.15-.3.65.58.12c.32,0,.61.2.6.53a1.1,1.1,0,0,1-.3.77,5.72,5.72,0,0,1-1.16.5Zm-.34-1,.14.08a2.71,2.71,0,0,0,.35-.41s-.11-.15-.25-.33Z"/><path d="M57.12,107.08a1.52,1.52,0,0,1,1.93,1c.29.67.07,1.22-.79,1.82.17-.64.84-1.1.4-1.78A1.9,1.9,0,0,0,57.12,107.08Z"/><path d="M62.53,67.56a3.41,3.41,0,0,0,.27,3.79c-.64-.13-1.16-1-1.26-2S61.67,67.9,62.53,67.56Z"/><path d="M84.21,74.33c.09.78-.53,1.59.35,2.28-.65.15-.83-.15-.87-.51C83.62,75.47,83.38,74.78,84.21,74.33Z"/><path d="M52.52,110.31l-.19.58a4.06,4.06,0,0,1,1,.18c.15.08.23.41.23.63,0,.54-.39.74-1.44.71l.53-.55c-1.32-.18-1.35-.23-.95-1.4Zm.48,1.41.15-.06-.15-.38-.14.06C52.9,111.47,53,111.59,53,111.72Z"/><path d="M77.2,84l.27-1.51-.16,0c-.1.37-.24.73-.32,1.11a.8.8,0,0,1-.91.73c0-.22,0-.43,0-.65a.91.91,0,0,0-.12-.56c0,.22-.09.43-.15.64-.09.39-.23.73-.73.72s-.48-.41-.53-.64c.46-.53.9-1,1.29-1.48a1.1,1.1,0,0,1,1.2-.48c1.11.22,2.24.35,3.4.53,0,.58-.36.75-.83,1v-.4l-.84.81-.23-.17.07-.78C78.22,83.26,78.13,84,77.2,84Z"/><path d="M72.29,82.36a.7.7,0,0,1,1-.13,1.86,1.86,0,0,1,.92,2.08c-.54-.22-.55-.8-1-1.14.05.19.08.38.15.57s.17.36.29.63c-.23,0-.46,0-.54-.06A3.63,3.63,0,0,1,72.29,82.36Z"/><path d="M71.52,83.34l-.1.8a3.48,3.48,0,0,0-.84-.36c-.29,0-.6,0-.92,0A12.19,12.19,0,0,1,72,82.42l.63,1.79C71.91,84.26,71.91,84.26,71.52,83.34Z"/><path d="M80.93,82.82c.13-.52.13-.52.93-.45Z"/><path d="M93.31,118.61c-.26-.22-.51-.37-.49-.43.16-.47-.19-.84-.21-1.26a1.66,1.66,0,0,0-.14-.81,1.26,1.26,0,0,1,0-.81c.25.27.74.42.39.93,0,.06.1.25.15.39s.19.3.14.38c-.17.35-.25.62.19.85C93.43,117.88,93.35,118.22,93.31,118.61Z"/><path d="M10.62,157.9l-1.15.84-.13-.17,1.15-.85Z"/><path d="M8.35,158l1.27-.85a1.45,1.45,0,0,1-1.29.83Z"/><path d="M8.85,156.79l-.64.46-.1-.14.65-.45Z"/><path d="M134.13,131.93l.41-2.26A2.83,2.83,0,0,1,134.13,131.93Z"/><path d="M134.15,129.49l-.46,1.72-.21-.05.45-1.78Z"/><path class="cls-2" d="M26.49,162.83l-2-.35a46.29,46.29,0,0,1,.1-5.12l2.33.44A13,13,0,0,1,26.49,162.83Z"/><path class="cls-2" d="M29.9,158.47a8.7,8.7,0,0,1-.95,4.67,5.13,5.13,0,0,1-1.94-.27l.52-4.87A15.05,15.05,0,0,1,29.9,158.47Z"/><path class="cls-2" d="M22.16,157l1.89.25v5.08a11.6,11.6,0,0,1-1.5-.39.83.83,0,0,1-.4-.6c-.06-.9-.08-1.81-.08-2.71C22.07,158.15,22.13,157.63,22.16,157Z"/><path class="cls-2" d="M31.88,163.58l.63-4.32c.56.17,1.12.33,1.65.54a.68.68,0,0,1,.33.44,2.54,2.54,0,0,1,0,.87c-.16.86-.36,1.72-.56,2.64A6.64,6.64,0,0,1,31.88,163.58Z"/><path class="cls-2" d="M31.47,163.59l-2-.24,1.16-4.66a1.62,1.62,0,0,1,.3,0c1.19.31,1.21.31,1.05,1.55C31.82,161.34,31.65,162.41,31.47,163.59Z"/><path class="cls-2" d="M21.71,161.69l-.11.05c-1.57-.28-1.41-.05-1.57-1.52a9.63,9.63,0,0,1,.07-3.42l1.61.1Z"/><path class="cls-2" d="M35,160.08l1.81.72a6.15,6.15,0,0,1-.72,2.86.74.74,0,0,1-.53.33,8.1,8.1,0,0,1-1.25-.12Z"/><path class="cls-2" d="M18.1,156.83h1.43l.15,4.5L18.54,161c-.38-.12-.42-.45-.47-.77A10.92,10.92,0,0,1,18.1,156.83Z"/><path class="cls-2" d="M16.33,156.88h1.31v3.85l-1.05-.25A8.53,8.53,0,0,1,16.33,156.88Z"/><path class="cls-2" d="M37.87,164.23l-1.46-.11c.21-.57.41-1,.55-1.49s.23-1,.37-1.57l1.51.7Z"/><path class="cls-2" d="M15.92,160.16l-.8-.36V157l.8-.14Z"/><path class="cls-2" d="M49,161.57c1.58,0,2.44,1,3.15,2.22a1.07,1.07,0,0,1-.27,1.43,1,1,0,0,0-.26.34,4.23,4.23,0,0,1-3.21,2.49,12,12,0,0,1-5.07.16c-1.86-.3-3.49-3.36-1.72-5.27a4.67,4.67,0,0,1,2.28-1.41,9.77,9.77,0,0,1,3-.46,4.11,4.11,0,0,1,2.11.53,9.74,9.74,0,0,0-1.32,0c-.93.09-1.86.24-2.79.36a3.71,3.71,0,0,0-3,2.36,2.15,2.15,0,0,0,.66,2.38,6.11,6.11,0,0,0,8-.82,2.22,2.22,0,0,0-.47-3.67C49.75,162,49.36,161.77,49,161.57Z"/><path class="cls-2" d="M27,151.87l1.17.24a5,5,0,0,1-.86,2A5.47,5.47,0,0,1,27,151.87Z"/><path class="cls-2" d="M28.63,152.65c.15,1,.07,1.19-.79,1.7A3,3,0,0,1,28.63,152.65Z"/><path class="cls-2" d="M26.64,152.2l.24,1.67C26.13,153.46,26.06,153.09,26.64,152.2Z"/><path class="cls-2" d="M78.48,69.61c1.06-1.51,2-3,3.08-4.33a4.87,4.87,0,0,1,3.37-1.74,6.33,6.33,0,0,1,5.93,2.4c.38.45.73.92,1.14,1.44a7.08,7.08,0,0,1-3.1,2.76,9.69,9.69,0,0,1-5.08.69,38.54,38.54,0,0,1-4.82-1A3.89,3.89,0,0,1,78.48,69.61Zm8.08.1c-.17-.27-.29-.43-.38-.6a8.49,8.49,0,0,1-.61-1.25A4,4,0,0,1,85.64,65c.09-.23.25-.47,0-.75-.1.07-.22.1-.28.19a4.67,4.67,0,0,0,0,4.7A1.2,1.2,0,0,0,86.56,69.71Z"/><path class="cls-2" d="M87.7,71.11s.08-.1.13-.12a8.8,8.8,0,0,0,3.94-2.35,4.76,4.76,0,0,1-4.08,2.45Z"/><path class="cls-2" d="M89.84,64.31l.73.7C90.28,64.82,89.89,64.74,89.84,64.31Z"/><path class="cls-2" d="M69.07,77.54c1.5.57,2.76,1.37,4.26,1.46C72.31,79.43,70.17,78.7,69.07,77.54Z"/><path class="cls-2" d="M66.56,163.35c0,.15-.09.44-.18.71a.55.55,0,0,1-.64.34c-.31,0-.52-.22-.48-.51a4.29,4.29,0,0,1,.32-1.23c.07-.16.43-.34.55-.28s.3.37.42.58C66.59,163,66.56,163.13,66.56,163.35Z"/><path class="cls-2" d="M60.17,104.58l.24-.66c.14.18.27.3.25.33a2.71,2.71,0,0,1-.35.41Z"/><path class="cls-2" d="M53,111.72c0-.13-.1-.25-.14-.38l.14-.06.15.38Z"/><path d="M49,161.57c.38.2.77.4,1.14.61a2.22,2.22,0,0,1,.47,3.67,6.11,6.11,0,0,1-8,.82,2.15,2.15,0,0,1-.66-2.38,3.71,3.71,0,0,1,3-2.36c.93-.12,1.86-.27,2.79-.36a9.74,9.74,0,0,1,1.32,0Zm-6.31,4.1,0,0c0,.17,0,.41.1.49a5.08,5.08,0,0,0,1.38.91A5.83,5.83,0,0,0,50,165.84a2.17,2.17,0,0,0,.78-2.21A2.09,2.09,0,0,0,49,162.18l-.34-.07a6,6,0,0,0-3.29.26c-.28.1-.56.18-.84.26a3.07,3.07,0,0,0-2.21,2.17C42.22,165.13,42.22,165.51,42.67,165.67Z"/><path d="M86.56,69.71a1.2,1.2,0,0,1-1.19-.56,4.67,4.67,0,0,1,0-4.7c.06-.09.18-.12.28-.19.27.28.11.52,0,.75a4,4,0,0,0-.07,2.85,8.49,8.49,0,0,0,.61,1.25C86.27,69.28,86.39,69.44,86.56,69.71Z"/><path class="cls-2" d="M42.67,165.67c-.45-.16-.45-.54-.34-.87a3.07,3.07,0,0,1,2.21-2.17c.28-.08.56-.16.84-.26a6,6,0,0,1,3.29-.26l.34.07a2.09,2.09,0,0,1,1.73,1.45,2.17,2.17,0,0,1-.78,2.21,5.83,5.83,0,0,1-5.83,1.21,5.08,5.08,0,0,1-1.38-.91c-.1-.08-.07-.32-.1-.49l1.74-1.26a2.27,2.27,0,0,0,1.55-.95l-1.53,1A4.1,4.1,0,0,0,42.67,165.67ZM49.56,164l-.13-.18-4,2.89.13.18Zm-1.16-.61-.13-.14-2,1.41.1.15Zm-2.82,1.93a2.69,2.69,0,0,0-1.79,1.08Zm1.66-2.44-.08-.11-.46.33.06.09Z"/><path d="M49.56,164l-4,2.89-.13-.18,4-2.89Z"/><path d="M48.4,163.35l-2,1.42-.1-.15,2-1.41Z"/><path d="M45.58,165.28l-1.79,1.08A2.69,2.69,0,0,1,45.58,165.28Z"/><path d="M44.39,164.39l-1.74,1.26,0,0a4.1,4.1,0,0,1,1.74-1.27Z"/><path d="M44.41,164.4l1.53-1a2.27,2.27,0,0,1-1.55.95Z"/><path d="M47.24,162.84l-.48.31-.06-.09.46-.33Z"/></g></g></svg>