<svg xmlns="http://www.w3.org/2000/svg" viewBox="0 0 146.98 259.34"><defs><style>.cls-1{fill:#dbcfc3;}.cls-2,.cls-6{stroke:#000;}.cls-2,.cls-3,.cls-6{stroke-miterlimit:10;stroke-width:0.5px;}.cls-3{fill:none;stroke:#fff;}.cls-4,.cls-5{opacity:0.58;}.cls-6{fill:#fff;}</style></defs><g id="Capa_2" data-name="Capa 2"><g id="responsive"><rect class="cls-1" width="146.98" height="259.34" rx="14.95"/><path d="M65.59,222.57c.1-12.82.28-16.72.38-29.54,0-1.5-.13-7.52-.35-12.23a4.32,4.32,0,0,0-4.76-4.12c-2.27.15-3.77,2.56-3.77,4.84,0,5.43,1.06,11.15,1.06,16.78,0,4,.4,8-.06,12s-2.6,8.13-6.37,9.55c-1.85.71-3.89.68-5.86.93s-4,.87-5.23,2.46-.89,4.33,1,5.05a5,5,0,0,0,3-.11c4.52-1.08,9-2.17,13.56-2.82A15.88,15.88,0,0,0,66,223.91C66.06,223.69,66.13,223.47,65.59,222.57Z"/><path d="M67.23,155.29c.63-3.37,1.24-6.93.09-10.16s-4.74-5.87-8-4.71a6.69,6.69,0,0,0-3.85,4.63,19.7,19.7,0,0,0-.34,6.23L56.54,178c.13,2.55.65,5.65,3.05,6.51,1.88.67,4-.58,5-2.31a13,13,0,0,0,1.29-5.82C66.43,168.42,66.29,160.4,67.23,155.29Z"/><path d="M83.63,180.89c.1-2.39-1.13-5.16-3.49-5.53-1.9-.3-3.73,1.17-4.5,2.95A13.32,13.32,0,0,0,75,184l1.13,32.52c.08,2.32.53,7.27.53,7.27a34.32,34.32,0,0,0,6.84,1.43l.16-.87,11.78,3.69c1.58.49,3.89,1.43,4.51-.11.55-1.36-.8-6.08-2-6.95-2.51-1.86-5.09-1.05-7.61-2.91-2.06-1.52-4.18-3.12-5.41-5.37a17,17,0,0,1-1.56-7.1C82.83,197.06,83.32,188.51,83.63,180.89Z"/><path d="M85.73,154.48c.63-3.37,1.24-6.93.09-10.17s-4.74-5.86-8-4.7A6.67,6.67,0,0,0,74,144.24a19.7,19.7,0,0,0-.34,6.23L75,177.17c.14,2.54.66,5.65,3.06,6.51,1.88.67,4-.58,5-2.31a13.11,13.11,0,0,0,1.29-5.82C84.93,167.61,84.78,159.58,85.73,154.48Z"/><path class="cls-2" d="M47.18,149.3a7.2,7.2,0,0,0-.7-3.76A3,3,0,0,0,43.24,144,3.06,3.06,0,0,0,41.3,146,9.29,9.29,0,0,0,41,149c0,7.15.06,14.34,1.24,21.39a14.11,14.11,0,0,0,2.42,6.58c1.47,1.84,4.11,3,6.27,2a7.55,7.55,0,0,1-4.29-3.73,5.55,5.55,0,0,0,5.16-.6,4.77,4.77,0,0,1-4.12-2.24,3.36,3.36,0,0,0,4.8-1,3.88,3.88,0,0,1-4.56-1.46A9.89,9.89,0,0,1,46.35,165C45.67,159.05,47.08,153.16,47.18,149.3Z"/><path class="cls-2" d="M47,148c.62-.76.71-9.47,1.06-14.39s.22-6.52-.44-12.63a3.42,3.42,0,0,0-3.68-3.22c-2.16.16-2.81,2.81-2.81,4.66,0,7.4-.64,12.62-.47,20,0,2.4.12,5.24,2.22,6.39A3,3,0,0,0,47,148Z"/><path class="cls-2" d="M97.64,142.86a2.83,2.83,0,0,0-3.6,1,7.58,7.58,0,0,0-1.12,3.92A64.56,64.56,0,0,0,95,169.54c1,3.58,2.47,7.42,5.75,9.16a7.76,7.76,0,0,0,9.33-1.84l-4.09-.18a5.68,5.68,0,0,0,3.72-4.39,6.69,6.69,0,0,1-4.31,2.4,6.06,6.06,0,0,0,2.2-5.68,2.94,2.94,0,0,1-3.4,2.61,4.76,4.76,0,0,1-3.47-3.09,14.07,14.07,0,0,1-.73-4.79l-.53-14.54C99.4,146.88,99.5,144.06,97.64,142.86Z"/><path class="cls-2" d="M99.25,148.86c.61-.76.7-9.46,1-14.39s.22-6.52-.43-12.63a3.43,3.43,0,0,0-3.69-3.22c-2.16.16-2.81,2.81-2.81,4.66,0,7.4-.63,12.62-.47,20,0,2.4.12,5.23,2.23,6.38A3,3,0,0,0,99.25,148.86Z"/><path d="M76.15,66.07a5.44,5.44,0,0,0-10.42,2.84,7.71,7.71,0,0,0-11.49,5.65A10,10,0,0,0,40.3,85.87a6.32,6.32,0,0,0-5.84,9.53,8.17,8.17,0,0,0-2.69,15.52,7.12,7.12,0,0,0,2,12.09,7.87,7.87,0,0,0,7.59,12.67A4.83,4.83,0,0,0,46,141.77c1.4-.1,2.79-.82,4.13-.43s2.15,1.82,2.67,3.15,1,2.79,2.12,3.64,3.21.53,3.46-.87c2.63,5.28,10.37,7.14,15.11,3.64a8.1,8.1,0,0,0,12.69-7.2,8.77,8.77,0,0,0,9.34-4.29c3.43,1.67,8.14-.91,8.57-4.7a5.43,5.43,0,0,0,6.35-7.51,5.86,5.86,0,0,0,5-9.11c2.5-.19,3.73-3.35,3.28-5.82s-1.93-4.66-2.44-7.12c-.62-3,.28-6.2-.12-9.27s-3.15-6.33-6.09-5.37c2-5.23-2-11.81-7.62-12.4A11.26,11.26,0,0,0,85.71,67.58a5.82,5.82,0,0,0-5-4.36C78.41,63,76,64.39,76.15,66.07Z"/><path class="cls-3" d="M63.77,74.1c-2.4,1-4.93,2.14-6.38,4.3s-1.19,5.68,1.18,6.76a5.63,5.63,0,0,0,3.9,0c2.83-.83,5.48-2.44,8.42-2.58s6.35,2.13,5.82,5a4.91,4.91,0,0,1-2.83,3.27,24,24,0,0,1-4.27,1.33,23,23,0,0,0-9.28,5.2c-2.49,2.3-4.53,5.39-4.53,8.78a8.92,8.92,0,0,0,8.68,8.54,9.19,9.19,0,0,0,8.74-8.59c.09-2.43-.8-4.94,0-7.24s3.15-3.8,5.49-4.61c3.85-1.33,9-.93,10.9,2.67,1.41,2.62.48,6-1.33,8.32s-4.38,4-6.72,5.83a44.69,44.69,0,0,0-9.7,10.51c-2.24,3.39-4,7.94-1.8,11.36,1.85,2.88,5.76,3.64,9.16,3.32a21.72,21.72,0,0,0,15.42-8.94c1.87-2.63,3-6.48.9-8.9-1.82-2.08-5-2-7.77-1.6a92.28,92.28,0,0,0-19.16,4.89c-3.72,1.38-7.38,3-11.3,3.61s-8.24,0-11.18-2.68c-2.64-2.38-3.78-6-4.15-9.57-.45-4.42.23-9.17,3-12.65a14.12,14.12,0,0,1,9.6-5.06,10.22,10.22,0,0,1,8,2.19c3.23,3,3.14,8.19,1.53,12.28s-4.42,7.59-6.09,11.64a16.35,16.35,0,0,0-.79,11.24c1.2,3.64,4.35,6.75,8.15,7.25s8-2.08,8.61-5.86-1.77-7-3.91-10.05-4.2-6.78-2.87-10.23c1.11-2.87,4.23-4.43,7.21-5.18s6.65-.66,8.24,1.91,0,6-1.58,8.64q-4,6.75-7.38,13.81a17.52,17.52,0,0,0-2,5.75,6.36,6.36,0,0,0,1.94,5.54,5.79,5.79,0,0,0,5.32.88A10,10,0,0,0,83.48,142c3.37-3.87,4.67-9.14,5-14.26s-.13-10.69,2.84-14.86c2-2.74,6.23-4.33,8.68-2s1.46,6.5,3.5,9.09,6.34,2.19,8.55-.17,2.5-6,1.56-9.14a13.81,13.81,0,0,0-18.11-8.9c-1.6.61-3.08,1.52-4.71,2.06a6,6,0,0,1-5-.21c-2.8-1.7-2.4-6.16-.26-8.65s5.35-3.74,8.1-5.52,5.31-4.75,4.76-8c-.63-3.8-5-5.64-8.86-6.06-2.82-.31-5.93-.12-8.08,1.73-1.7,1.47-2.48,3.74-4,5.45s-4.4,2.66-5.86,1c-1.07-1.26-.65-3.27.38-4.57a24.25,24.25,0,0,1,3.79-3.19c1.28-1.06,2.41-2.55,2.27-4.21-.23-2.76-4.08-4-6.49-2.6s-3.54,4.23-4.15,6.94-.9,5.57-2.36,7.93-4.6,4-7,2.72c-2.89-1.52-3.3-6.11-6.38-7.18a4.66,4.66,0,0,0-4.43,1.09,10.63,10.63,0,0,0-2.63,3.94c-1,2.25-1.58,5.23.24,6.9,1.28,1.17,3.43,1.28,4.34,2.76a3.13,3.13,0,0,1-.42,3.5,6.44,6.44,0,0,1-3.18,1.9c-2.82.86-5.91.8-8.61,2s-4.91,4.47-3.48,7c.9,1.64,2.89,2.33,4.73,2.61s3.79.31,5.45,1.17,2.89,3,2,4.62c-1.07,2.05-4.13,1.78-6,3.11a4.6,4.6,0,0,0-.82,6.23,6.09,6.09,0,0,0,6.24,2.13,9.22,9.22,0,0,0,5.47-4.06,23.59,23.59,0,0,1,2.52-3.82c1.08-1.09,2.83-1.75,4.15-1,1.49.86,1.64,3,1,4.62s-1.88,2.89-2.65,4.43c-1.8,3.65-.58,8.4,2.47,11.11A12.46,12.46,0,0,0,69.53,142c3-.83,5.85-3,6.18-6.05a10.59,10.59,0,0,0-1.22-5.18c-1.64-3.88-3.35-7.86-6.26-10.92-2-2-4.47-3.73-5.5-6.37a9.07,9.07,0,0,1,1.33-8.15,25,25,0,0,1,6.24-5.84c2.53-1.83,5.43-3.7,8.53-3.33,2.42.3,4.45,1.9,6.29,3.49s3.77,3.27,6.15,3.79,5.32-.63,5.84-3c.58-2.66-2-5.17-1.67-7.87s3.39-4.1,5.9-3.51,4.41,2.7,5.59,5,1.79,5.09.6,7.35c-1,1.93-3.12,3-5.15,3.81s-4.21,1.42-5.85,2.86-2.56,4-1.38,5.85"/><path class="cls-3" d="M95.51,133.21c1.8-1.88,3.69-3.91,4.17-6.47s-1.16-5.68-3.76-5.74a5.61,5.61,0,0,0-3.57,1.56c-2.27,1.88-4.07,4.4-6.72,5.7s-6.67.55-7.33-2.33a4.87,4.87,0,0,1,1.31-4.12A25,25,0,0,1,83,118.9a23,23,0,0,0,6.47-8.44c1.38-3.09,2-6.74.7-9.85a8.91,8.91,0,0,0-11.34-4.42,9.18,9.18,0,0,0-4.65,11.33c.88,2.27,2.69,4.23,2.87,6.65s-1.39,4.74-3.23,6.4c-3,2.75-7.88,4.41-11.07,1.86-2.32-1.86-2.79-5.3-2-8.18s2.44-5.39,3.87-8a44.67,44.67,0,0,0,4.76-13.49c.72-4,.54-8.87-2.82-11.14-2.84-1.92-6.73-1.08-9.73.56a21.63,21.63,0,0,0-10.64,14.3c-.68,3.15-.22,7.14,2.69,8.53,2.49,1.19,5.4-.16,7.76-1.6a92.18,92.18,0,0,0,15.68-12c2.87-2.74,5.59-5.69,9-7.78s7.58-3.22,11.33-1.94c3.37,1.14,5.86,4,7.59,7.15,2.16,3.88,3.4,8.51,2.24,12.8A14.11,14.11,0,0,1,95.58,110a10.19,10.19,0,0,1-8.19,1.13c-4.14-1.46-6.12-6.29-6.25-10.67s1.06-8.72,1-13.11a16.43,16.43,0,0,0-3.7-10.64c-2.54-2.87-6.66-4.48-10.36-3.44s-6.48,5-5.59,8.78,4.4,5.76,7.55,7.69,6.54,4.58,6.68,8.27c.11,3.08-2.14,5.74-4.59,7.61s-5.84,3.22-8.32,1.5-2.35-5.5-2-8.57q1-7.77,1.34-15.6a17.58,17.58,0,0,0-.47-6.06,6.31,6.31,0,0,0-4-4.33,5.8,5.8,0,0,0-5.23,1.29,10,10,0,0,0-2.93,4.7c-1.57,4.89-.68,10.25,1,15.07s4.34,9.77,3.26,14.77c-.72,3.3-4,6.44-7.18,5.29s-3.91-5.4-6.81-7-6.69.48-7.78,3.53.08,6.54,2.17,9a13.78,13.78,0,0,0,20.15,1c1.23-1.19,2.24-2.61,3.52-3.75a6,6,0,0,1,4.65-1.77c3.25.46,4.64,4.71,3.66,7.85s-3.44,5.54-5.27,8.27-3,6.46-1.22,9.22c2.08,3.24,6.85,3.19,10.53,2.07,2.71-.83,5.5-2.23,6.74-4.78,1-2,.81-4.42,1.49-6.56s3-4.19,5-3.19c1.48.73,1.89,2.75,1.45,4.35a24.15,24.15,0,0,1-2.22,4.43c-.75,1.47-1.2,3.29-.43,4.76,1.31,2.44,5.32,2,7-.18s1.58-5.28,1.07-8-1.37-5.48-1-8.23,2.65-5.49,5.41-5.27c3.25.25,5.44,4.3,8.69,4.07a4.69,4.69,0,0,0,3.65-2.74,10.7,10.7,0,0,0,.85-4.66c0-2.46-.61-5.44-2.94-6.25-1.64-.57-3.66.18-5.08-.82a3.15,3.15,0,0,1-1-3.38,6.34,6.34,0,0,1,2.17-3c2.26-1.91,5.11-3.07,7.12-5.23s2.76-6,.43-7.85c-1.48-1.15-3.58-1-5.38-.53s-3.61,1.21-5.47,1.07-3.82-1.58-3.68-3.44c.17-2.31,3.09-3.27,4.29-5.24a4.61,4.61,0,0,0-1.7-6,6.11,6.11,0,0,0-6.57.51,9.18,9.18,0,0,0-3.42,5.89A24.22,24.22,0,0,1,87,86.39c-.55,1.42-1.9,2.71-3.42,2.53-1.71-.2-2.7-2.13-2.73-3.86s.59-3.39.68-5.11c.22-4.07-2.78-8-6.65-9.24A12.45,12.45,0,0,0,63.43,73.1c-2.38,1.92-4.19,5.06-3.3,8a10.76,10.76,0,0,0,3.17,4.28c3,2.92,6.18,5.9,10,7.56C76,94,78.94,94.6,80.92,96.62s2.53,5.2,2,8a24.71,24.71,0,0,1-3.44,7.82C77.88,115.14,76,118,73,118.88c-2.33.68-4.83,0-7.15-.72s-4.76-1.52-7.15-1.06-4.64,2.68-4.18,5.07c.52,2.67,3.9,4,4.65,6.57s-1.5,5.11-4,5.56S50,133.55,48,131.91s-3.65-4-3.45-6.52c.18-2.18,1.67-4,3.23-5.53s3.3-3,4.24-4.94.77-4.7-1-5.92"/><path class="cls-3" d="M34.5,90.75c5.52-1,11.9,3.54,16.86-.54a4.91,4.91,0,0,0,2-3.84"/><path class="cls-3" d="M102.51,74.41c-3.52-1.86-8.36-2.75-12-.6A8.08,8.08,0,0,0,87,79.17a61.82,61.82,0,0,0-1.17,7.91,37.69,37.69,0,0,0-.08,8.36c.33,2.69,1.28,5.22,1.86,7.85a10.51,10.51,0,0,1-.73,7.52,12.15,12.15,0,0,1-5,4.73c-4,2.12-8.84,2.55-13.25,2.77s-9-.64-11.59-4.65c-2.22-3.5-2.61-7.81-4.74-11.35a8.21,8.21,0,0,0-4.72-3.86,5,5,0,0,0-5.83,1.89c-1.15,1.89-1.07,4.2-1.61,6.28a5.17,5.17,0,0,1-4.37,4.16c-4.4.57-7.33-3.28-8-7.21a15.36,15.36,0,0,1-.14-3.95"/><path class="cls-3" d="M115.59,103.44c-3.85-1-7.25,1.11-10.64,2.72a6,6,0,0,1-6.24.17c-2.5-1.6-1.25-5.17,1.07-6.78,2.32-1.43,5-2,7-3.93,2.32-2.32,4.1-5.17,3.8-8.54"/><path class="cls-3" d="M112.92,126.94c-2.79-2-6.18-4.36-6.18-8.11a3.66,3.66,0,0,1,4.1-3.75c2.5.18,4.82,1.43,7.24.91"/><path class="cls-3" d="M91.75,141.88c-.9-1.46-2.32-2.71-2-4.67a4.06,4.06,0,0,1,2.5-2.86c3.75-1.42,7.32.9,10.74,2.22"/><path class="cls-3" d="M55.6,147.7c4-3,6.6-8,11.52-9.78a7.37,7.37,0,0,1,6.5.55,6.24,6.24,0,0,1,2.62,5.23c.07,2.64-.6,5.62,1,7.94"/><path class="cls-3" d="M32.41,129.89c2.44,2.35,5.54,4.5,9,4.93,3.62.46,6.26-1.74,9.45-3,2.23-.85,5.65-1.07,7.28,1.07,1.83,2.41-.33,4.92-2.55,5.94-3.22,1.47-7.09.38-10.11,2.47"/><path class="cls-3" d="M34.14,92.25A17.91,17.91,0,0,0,44.76,99c3.64.82,8.5.37,11.11,3.57,3,3.71-.06,8.38-3.78,10s-7.59,1.07-11.4,1c-3.51,0-7.4.21-10.11,2.72a10.05,10.05,0,0,0-.94,1"/><path class="cls-3" d="M83.67,64.07c-5.67,1.93-10,5.85-13.52,11-2.86,4.46-5.18,8.57-8.92,12.14s-9.82,5.35-13.93,1.42A6.64,6.64,0,0,1,46.05,83c.72-2.85,2.33-5.53,2.25-8.39"/><path class="cls-3" d="M61.05,149.62c2.63.4,5.37.89,8,.21a7.54,7.54,0,0,0,4.9-3.8,4.92,4.92,0,0,0,0-4.68A6.15,6.15,0,0,0,70.76,139c-3-1.14-6.31-1.12-9.37-2.12a9.93,9.93,0,0,1-5.51-4c-1.16-1.87-1.46-4.3.07-6.06a6.31,6.31,0,0,1,5.44-1.78c2.68.27,5.24,1.36,7.89,1.85a25.78,25.78,0,0,0,14.37-1.09c4-1.65,7.51-4.85,8.19-9.29a10.92,10.92,0,0,0-4.6-10.52,11.15,11.15,0,0,0-11.94-.16,12.3,12.3,0,0,0-4.56,5.28c-1,2-1.89,4.13-3.65,5.62-3.62,3.06-9.17,2-13,0-3.48-1.84-6.45-5.31-5.7-9.5.68-3.78,4.28-6.2,7.67-7.37a33,33,0,0,1,7.24-1.36c2.78-.31,5.55-.62,8.29-1.17a44.36,44.36,0,0,0,15-5.62c4-2.51,7.49-6.93,5.69-11.88-1.62-4.43-6.52-7.15-10.77-8.46a28.82,28.82,0,0,0-13.59-.73c-4,.71-8.13,2.34-10.58,5.71-1.42,2-2,4.49-.8,6.7,1.15,2,3.33,3.4,5.35,4.47a46.65,46.65,0,0,0,6.95,2.83c2.53.87,5.07,1.72,7.64,2.45,5.27,1.5,10.62,2.45,16,3.51,4.88,1,9.86,2.32,13.88,5.37a14.37,14.37,0,0,1,5.91,12.85,24.15,24.15,0,0,1-5.64,13.22A18.7,18.7,0,0,1,95,134.51a17.53,17.53,0,0,1-12.65-3.13c-3.77-2.8-5.76-7.2-4.45-11.83S83,111.64,87,109.2s8.34-4.37,12.07-7.29a19.23,19.23,0,0,0,7.44-11.59c.79-4.45-.47-9.3-4.1-12.18a9.94,9.94,0,0,0-11.35-.92c-3.4,2.15-4.31,6.35-4.34,10.12,0,4.69,1.22,9.71-.86,14.16-1.78,3.8-5.73,5.33-9.75,5-3.66-.29-8.17-1.88-10.39-5a5.62,5.62,0,0,1-.86-5.23,9.47,9.47,0,0,1,3.41-4.06,45.12,45.12,0,0,1,5-3.09c2.41-1.36,4.83-2.69,7.24-4,4.1-2.31,8.4-4.64,12-7.72,2.8-2.41,5.07-5.79,3.72-9.6"/><path class="cls-3" d="M103.82,97.87c1.67-2.64,3.33-5.44,3.52-8.55s-1.6-6.57-4.65-7.19c-1.22-.25-2.51,0-3.74-.26s-2.51-1.17-2.41-2.42,1.35-1.92,2-2.92c1.57-2.27-.25-5.51-2.69-6.79-3.77-2-9.09-.58-11,3.21s.62,9.23,4.84,9.78C92.05,83,94.32,82,96.45,81s4.43-1.94,6.74-1.54,4.4,2.8,3.58,5c-.6,1.6-2.37,2.36-3.89,3.13s-3.15,2.06-3,3.76,1.92,2.7,3.57,2.76a19.79,19.79,0,0,0,4.82-1c1.6-.36,3.47-.37,4.69.73,1.68,1.52,1.24,4.38-.15,6.17s-3.45,2.91-5.16,4.39-3.17,3.69-2.63,5.89c.65,2.66,4.39,3.83,6.6,2.22a5.17,5.17,0,0,0,.64-7.28,6.25,6.25,0,0,0-7.51-1.16,8,8,0,0,0-3.92,6.79,7.34,7.34,0,0,0,2.75,6.09,5.21,5.21,0,0,0,6.41-.17c1.19-1.12,1.89-3,3.5-3.27,2.13-.39,3.49,2.72,2.37,4.58s-3.46,2.52-5.61,2.8c-1.52.2-3.17.34-4.29,1.39s-1,3.36.43,3.72c.73.18,1.51-.16,2.23,0,1.37.33,1.61,2.42.64,3.44a4.49,4.49,0,0,1-3.95.94,24,24,0,0,0-4.17-.63c-1.41.05-3,.84-3.25,2.21-.43,2,1.71,4.55.1,5.8-1.07.83-2.59-.08-3.56-1s-2.27-2-3.51-1.47c-2.27,1-.19,5.43-2.36,6.66-1.47.83-3.13-.79-3.8-2.33s-1.35-3.46-3-3.8-3.06,1.26-3.06,2.86a4.81,4.81,0,0,0,2.47,3.85c1,.6,2.11,1,2.61,2.06.77,1.55-.49,3.35-1.9,4.35-2.36,1.68-6.13,2.14-7.8-.22a7.52,7.52,0,0,1-1-3.78A6.91,6.91,0,0,0,72,141.28c-.81-1-2.52-1.48-3.46-.56s-.54,2.59.2,3.71,1.76,2.14,2,3.46c.38,2.63-3.18,4.5-5.56,3.33s-3.36-4.14-3.17-6.78c.16-2.3.61-5.36-1.52-6.22-1.94-.79-3.94,1.66-3.58,3.72s2.07,3.59,3.69,4.93c-.21.87-1.55.94-2.2.32a5,5,0,0,1-1-2.45,2.74,2.74,0,0,0-1.49-2.11c-.85-.29-1.94.74-1.4,1.45-1.51-.43-1.57-2.5-1.57-4.07s-1.07-3.66-2.53-3.06c-.64.26-1,1-1.43,1.5a3.14,3.14,0,0,1-5.43-2.77,15.36,15.36,0,0,1,1.53-3c.48-1,.51-2.47-.47-3s-2.34.26-3,1.26-1.16,2.21-2.22,2.78a3.19,3.19,0,0,1-3.95-1.35,6.23,6.23,0,0,1-.52-4.44,8.4,8.4,0,0,1,4.43-6.16c2.41-1.06,5.69-.18,6.73,2.24s-1.23,5.71-3.8,5.13c-1.76-.39-2.82-2.17-3.46-3.86s-1.11-3.55-2.45-4.76c-.79-.71-1.82-1.12-2.64-1.8-1.65-1.34-2.25-4-.88-5.67s4.64-1.06,5,1c.12.7-.08,1.43,0,2.13.29,1.77,2.68,2.66,4.24,1.77a4,4,0,0,0,1.52-4.74,6.57,6.57,0,0,0-3.74-3.66c-2.11-.89-4.55-1-6.38-2.42a5.9,5.9,0,0,1-.64-8.52,5.71,5.71,0,0,1,8.42.84,5.17,5.17,0,0,1-.3,6,4.61,4.61,0,0,1-5.87.84,4.14,4.14,0,0,1-1-5.71c1.06-1.35,2.86-1.82,4.36-2.65s2.86-2.6,2.11-4.15c-.49-1-1.66-1.44-2.35-2.31a3,3,0,0,1,2.1-4.64,3,3,0,0,1,2.53,4.42c-.78,1.2-2.36,1.7-3.09,2.93-1,1.77.56,4.3,2.61,4.49a4.48,4.48,0,0,0,4.45-3.51,7.49,7.49,0,0,0-1.35-5.85c-1-1.41-2.28-2.65-2.73-4.3-.76-2.73,1.1-5.51,3.21-7.4a8.15,8.15,0,0,1,3.76-2.15,3.68,3.68,0,0,1,3.86,1.43c1.08,1.75-.06,4.09-1.63,5.44S48.35,84.57,47,86.14a7.61,7.61,0,0,0,.18,9.45,9.79,9.79,0,0,0,9.29,3.08c2.6-.49,5.3-2.41,5.25-5S59.17,89.28,57,87.78s-4.34-3.92-3.45-6.36c.56-1.52,2.13-2.38,3.59-3.07s3.06-1.44,3.77-2.89-.23-3.7-1.84-3.53a12.27,12.27,0,0,1,4.53-2.11A4.18,4.18,0,0,1,68,71.6c.66,1.22.43,2.77,1.1,4a3,3,0,1,0,5.17-3.14c-1.17-1.74-3.82-1.92-5.07-3.6a3.14,3.14,0,0,1,1.53-4.71c1.89-.5,4,1.61,3.27,3.44-.91,2.48-4.73,2.2-6.48,4.18a3.93,3.93,0,0,0,.87,5.56,5.29,5.29,0,0,0,5.95-.25,8.16,8.16,0,0,0,3.05-5.39c.26-1.6.18-3.32,1-4.73s2.95-2.22,4-1,0,3.18-1.27,4.13-3,1.57-3.81,3c-1.23,2.2.55,5.11,2.92,6s5,.34,7.45-.2l4.92-1.09c1.44-.32,3.09-.81,3.66-2.17.72-1.72-.9-3.64-2.69-4.16-3.21-.93-6.55,1-9,3.27s-4.61,5-7.69,6.36c-4.4,1.89-10,.53-13.79,3.47a3.54,3.54,0,0,0-1.56,2.83c.12,1.55,1.81,2.54,3.35,2.62a31.27,31.27,0,0,0,4.6-.58c1.54-.15,3.33.22,4.11,1.56s.12,3.33-1.1,4.44a16.69,16.69,0,0,1-4.34,2.35,21.74,21.74,0,0,0-6.48,4.64,4.62,4.62,0,0,0-1.61,3.15c.07,2.13,2.64,3.28,4.77,3.18s4.25-.93,6.35-.55c4.08.75,6,6.15,4.25,9.89s-6.14,5.7-10.29,5.87c-3.2.12-6.79-.91-8.33-3.72-1.29-2.35-.85-5.37-2.2-7.7a5.8,5.8,0,0,0-7.38-2.16A6.74,6.74,0,0,0,43.89,115c-1.11,5.1,3,10.19,8,11.92s10.36.93,15.5,0,10.45-2.07,15.54-.91"/><path class="cls-3" d="M65.88,69c2.65,3.93,3.45,10.19,8.57,11.84A5.07,5.07,0,0,0,79,80.34"/><path class="cls-3" d="M117.11,117.15a15.28,15.28,0,0,0-2.87-10.64,8.54,8.54,0,0,0-5.12-3.34c-2.38-.41-4.67.47-6.78,1.48-4.58,2.2-9.1,4.62-12.78,8.19-3.21,3.12-5.7,7.76-10.36,8.89-4.22,1-8.24-1.1-11.36-3.79a38.2,38.2,0,0,1-4.32-4.49,32.18,32.18,0,0,1-4.08-5.63,10.2,10.2,0,0,1-1.19-6.75,16.42,16.42,0,0,1,3.08-6.2C63.77,91.52,67,88,66.07,83.48a5.7,5.7,0,0,0-2.88-4.11c-2-1-4.16-.13-6,.77s-3.74,1.91-5.83,1.33a5.56,5.56,0,0,1-3.75-3.86,7.41,7.41,0,0,1,0-3.77"/><path class="cls-3" d="M113.37,125.79a12.76,12.76,0,0,0,2.66-4.06"/><path class="cls-3" d="M99.17,138.6c-1.87-2.32-4.44-3.31-6.93-4.76-2-1.19-4.6-3.81-3.16-6.37,1.28-2.26,4.33-2.12,6.4-1.24,2.41,1,4.43,2.72,7,3.23a11.74,11.74,0,0,0,8.72-1.9"/><path class="cls-3" d="M80,151.65c.3-2.3,0-4.8,1.2-6.94,1.42-2.32,4.46-3.75,6.58-1.6"/><path class="cls-3" d="M53.68,146.25c2.32-1.79,2-5.87,5.09-6.86,3.65-1.18,5.78,3.07,6.58,5.85.64,2.24,1,4.56,1.71,6.77"/><path class="cls-3" d="M30.18,117.39c4.35,1.39,9.15,1,13.29,3.14a8.46,8.46,0,0,1,4,3.87,5.93,5.93,0,0,1-.63,6c-1.54,2.1-4.16,3-6,4.78"/><path class="cls-3" d="M31.64,96.17a10.87,10.87,0,0,0,5.12,6.25c2.13,1.34,4.72,2.43,6.15,4.61s.93,5.39-1.79,6.12-5.14-1.58-6.76-3.55-3.41-4.41-6.2-4.42"/><path class="cls-3" d="M63.17,68a16.1,16.1,0,0,0-.87,8.18C63,79.74,65,82.6,66.58,85.81,68,89,68,93.48,64.44,95.09c-4.64,2.14-9.28-1.07-12.14-5-3-4.28-5.35-9.28-10.61-11"/><path class="cls-3" d="M113.64,91.61c-3.88-2.45-8.51-3.38-13-3.7-5-.35-10.08.42-15.1-.2-4-.5-8-2.06-10.44-5.32-2.22-2.91-2.1-7.09,1.22-9.12,3.12-1.9,7.36-1.66,10-4.48a6,6,0,0,0,.87-1.24"/><path class="cls-3" d="M85.16,146.64c-6.85,2.08-14.85,1.43-20.41-3.41-4.94-4.3-7.8-12-4.92-18.22a10.63,10.63,0,0,1,6.93-5.68c3.61-1,7.45-.32,10.91.92s6.91,3.21,10.4,4.75a27.55,27.55,0,0,0,11.13,2.68c6.74,0,13.77-4.23,14.58-11.4a10.15,10.15,0,0,0-2.93-8.47c-2.59-2.46-6.15-2.77-9.43-1.64-6.48,2.24-10.88,10.13-18.33,9.55-3.34-.26-6-2.54-7.62-5.34s-2.76-6.59-2.17-9.89a6.23,6.23,0,0,1,5.87-5.26C82.66,95,86,97,89,98.57c3.47,1.85,7,3.54,10.59,5.2,3.4,1.59,6.86,3.38,10.62,3.93a10.45,10.45,0,0,0,5.32-.43"/><path class="cls-3" d="M33,125.5c1.29,2.29,3,4.65,5.53,5.6a6.34,6.34,0,0,0,6.66-1.19c2.61-2.74.05-7.37-1.26-10.12-1.93-4-4-10,.45-13.22a4.69,4.69,0,0,1,6.23.72c1.89,2,2.58,4.8,3.49,7.29a27.17,27.17,0,0,0,9.25,12.77c3.88,2.77,9.09,4.07,13.48,1.66A11,11,0,0,0,82,116.53a11.37,11.37,0,0,0-4.43-6,11.58,11.58,0,0,0-8.17-1.8c-2.67.29-5.34,1-8,0A9.94,9.94,0,0,1,56,103.37c-1.84-3.9-2.6-9.41.31-13,3.53-4.39,9.42-2.79,13.33.13a40.74,40.74,0,0,1,5.94,6,67,67,0,0,0,6.3,6.42c4.09,3.61,8.85,7.26,14.25,8.56a11.07,11.07,0,0,0,7.65-.51,8.85,8.85,0,0,0,4.34-6.15c1.23-5.4-.58-11.16-3.38-15.77-2.64-4.36-6.51-8.6-11.38-10.43a9.61,9.61,0,0,0-7.13-.23c-2.45,1.08-3.49,3.6-3.57,6.15A33.73,33.73,0,0,0,84,93.23c.72,3,1.62,6,2.63,8.92,2,5.82,4.68,11.31,7.05,17,2.16,5.17,4,10.89,2.77,16.54a13.93,13.93,0,0,1-3.62,6.71"/><g class="cls-4"><path d="M75.11,120.13a1.5,1.5,0,0,1,0-.2,11.48,11.48,0,0,0-.17-2h0a2.28,2.28,0,0,0-1-2.06c-1-.56-1.63.29-1.91,1.21a7.68,7.68,0,0,0-.11,1.51c0,1,.06,2.1,0,3.14-.07.34-.15.67-.25,1l0,0,0,0a1.93,1.93,0,0,1-.32-.69,3.44,3.44,0,0,1-.19-1.14c-.09-1-.17-2-.27-2.94a5.41,5.41,0,0,0-.33-1.24,1.1,1.1,0,0,0-.23-.44c-.07,0-.09-.06-.09-.07h0a.52.52,0,0,0-.68,0A2.56,2.56,0,0,0,69,117.6v0a8.38,8.38,0,0,0-.37,3.48c0,.34.08.69.14,1l0-.05c-.28-.75-.45-1-.55-1.26-.41-.87-.79-1.76-1.24-2.61-.08-.15-.17-.29-.24-.45a10.91,10.91,0,0,1-.55-1.32,3.11,3.11,0,0,0-1.06-1.85,1.43,1.43,0,0,0-1.22-.23,1.13,1.13,0,0,0-.79.75,2.42,2.42,0,0,0-.3,1.08l0-.26a4.59,4.59,0,0,0-.1.51,6,6,0,0,1-.13.67c-.1.57-.3,1.1-.41,1.67,0,.08,0,0,0-.08a5.65,5.65,0,0,0-.3,1,7.06,7.06,0,0,0-.24,1c-.17.62-.3,1.25-.46,1.87a6.3,6.3,0,0,0-.3,1.42V124a8.11,8.11,0,0,0-.06,1.1c.06.86.86,1.35,1.48,1.85-.38-.56-1-1.11-.91-1.84a7.71,7.71,0,0,1,.71-1.95c.46-.94.52-1.18.89-2l.08-.24a1.64,1.64,0,0,1,0,.22,3,3,0,0,1-.32,1c-.37.75.29,1.05,1,1a4.52,4.52,0,0,0,1.15-.44l.28-.06c.25.69.41,1,.53,1.27.25.56.1.28.47,1.09l.24.32.09.12s0,0,0,0a3.1,3.1,0,0,0,1.54,1.45,1.34,1.34,0,0,0,1.7-1.22,2.94,2.94,0,0,0-.11-.66,3.86,3.86,0,0,0-.12-.59,4,4,0,0,0,.32.48,2.43,2.43,0,0,0,1.32.84,3.37,3.37,0,0,0,1.61,0,3,3,0,0,0,1.33-1,3.66,3.66,0,0,0,.71-1.16,4.8,4.8,0,0,0,.33-1.58A13,13,0,0,0,75.11,120.13Zm-10.69-2.62.15.35a1.05,1.05,0,0,0-.24-.06C64.35,117.72,64.39,117.62,64.42,117.51Zm.28,4.69c-.31.06-.7.15-.79.15a.67.67,0,0,1-.2,0,3.84,3.84,0,0,0,.45-.79,3.37,3.37,0,0,0,.15-1v-.11a6.39,6.39,0,0,0,.24.67l0,.06c.27.65.23.52.43,1Zm5-5.63,0,0a.58.58,0,0,1,0,.1,17.4,17.4,0,0,1-.15,3.67s0,.08,0,.11q-.08-.28-.15-.63a13,13,0,0,1,0-3.08,2.65,2.65,0,0,1,.21-.26h0l0,0Z"/><path d="M70.11,116.18h0C70.15,116.22,70.13,116.2,70.11,116.18Z"/><polygon points="70.08 116.17 70.09 116.17 70.09 116.17 70.08 116.17"/></g><path class="cls-5" d="M81,116.4c.42-.81-.5-1.25-1.13-1.48a3.16,3.16,0,0,0-1.37,0,4.22,4.22,0,0,0-.93.23c-.26.06-.53.09-.78.17a5.6,5.6,0,0,0-.68.25l0,0,0,0c-.27.11-.5.22-.83.33a.58.58,0,0,0-.17.61.42.42,0,0,0,.26.45c.12.31.57.5,1.21.72a.74.74,0,0,1,.08.15,5.22,5.22,0,0,1,0,.68c0,.55,0,1.1-.07,1.65-.08.27-.19,1.38-.25,1.7a4.9,4.9,0,0,0,.13,2.89l0,0a2.12,2.12,0,0,0,.88,1,1.45,1.45,0,0,0,2.09-1,8.09,8.09,0,0,0-.17-3.56l0-.11c-.12-.92-.12-2-.18-3.35a2.24,2.24,0,0,0,.44-.07,2.8,2.8,0,0,0,1.16-.79l.15-.18.07-.1a.54.54,0,0,0,.07-.13l0,0Zm-5.71.36c-.05-.11,0-.2,0-.3s0-.23.1-.28h.14a1,1,0,0,0-.23.6A0,0,0,0,1,75.29,116.76Zm.95.18a1.48,1.48,0,0,1-.54-.16.17.17,0,0,1,0-.17,2.54,2.54,0,0,1,.14-.47c.25,0,.49-.08.73-.12.48-.06,1,0,1.44-.06a4.41,4.41,0,0,1,1.09,0h0l.19,0h0l-.12,0,0,0-.42,0c-1.08-.11-1.39.42-1.48,1.17a1.23,1.23,0,0,0-.29-.22A2.37,2.37,0,0,0,76.24,116.94Z"/><path class="cls-5" d="M88.23,119.75a4.1,4.1,0,0,0-.38-1.42,6,6,0,0,0-.57-1.32,6.83,6.83,0,0,0-1.45-1.44,4.75,4.75,0,0,0-2.81-.43c-.79.2-1.14,1-1.51,1.66l-.06.11a1.09,1.09,0,0,0-.17.13,6.23,6.23,0,0,0-1.85,3.87,4.33,4.33,0,0,0,.09,1.24,4.44,4.44,0,0,0,.36,1.34,6.47,6.47,0,0,0,.58.84,2.93,2.93,0,0,0,2.23,1.21,4.19,4.19,0,0,0,1.42.08,9.37,9.37,0,0,0,1.73-.62,5.22,5.22,0,0,0,1.7-1.67c.08-.12.27-.58.35-.76a4.22,4.22,0,0,0,.38-1.82A4.79,4.79,0,0,0,88.23,119.75Zm-3,1.48,0-.15a1.28,1.28,0,0,1-.33.77l-.14.16-.17.16a2.5,2.5,0,0,1-.39.23l-.11,0a2.88,2.88,0,0,1-.41,0h0c-.18,0-.36-.1-.54-.15l0,0a3.18,3.18,0,0,1-.32-.16l-.17-.17a3.64,3.64,0,0,1-.34-.65,1.4,1.4,0,0,1-.09-.29c0-.08,0-.17,0-.25v-.12a5.23,5.23,0,0,1,.2-.89c.08-.19.3-.68.35-.82s.45-.87.86-1.66l.09-.16a4.41,4.41,0,0,1,.82.05l.27.38a3,3,0,0,1,.41,1.17A4.91,4.91,0,0,1,85.23,121.23Zm.39-3.13.08.15,0,0a6.71,6.71,0,0,1,.56,1.78h0s0-.08,0-.11V120a4.17,4.17,0,0,0-.47-1.32c-.18-.29-.3-.63-.49-.92a1.85,1.85,0,0,1,.14.14Z"/><g class="cls-4"><path d="M91.88,138.42h0l-.14.06A.62.62,0,0,0,91.88,138.42Z"/><polygon points="87.17 128.9 87.17 128.9 87.17 128.9 87.17 128.9"/><path d="M104.1,131.08c-.11-.18-.82-1.07-.48-.62l-.09-.12,0-.05c-.47-.67-.45-.51-.7-.88,0-.06-.09-.12-.13-.19a1.58,1.58,0,0,0,.49-.3,3.12,3.12,0,0,0,1-1.2,3.43,3.43,0,0,0,0-2.52,1.53,1.53,0,0,0-2-1.09h0c-1.17,0-2.77-.28-3.45.93a4.74,4.74,0,0,0-.37,1.58l-.06.76-.08-.1A2,2,0,0,0,95.1,127a1.21,1.21,0,0,0-.3.11,1.68,1.68,0,0,0-.65.62,6.39,6.39,0,0,0-.83,1.49,4.46,4.46,0,0,0-.37,1,3.34,3.34,0,0,0-.57-1.29c-1-1.48-2.59-1.38-4-.69a5.41,5.41,0,0,0-1.17.66l0,0,0,0-.12.09L87,129a3.92,3.92,0,0,0-.32.25,1,1,0,0,0,0,1.41.85.85,0,0,0,.45.25,17.54,17.54,0,0,0-.29,1.74c0,1-.16,1.95-.21,2.92v.46c-.15-.32-.19-.45-.48-1.22a12.44,12.44,0,0,1-.45-1.17c-.08-.29-.21-.57-.29-.87s-.1-.54-.18-.81a6.87,6.87,0,0,0-.69-1.74c-.8-1.21-2.28-1.41-2.61.25a7.05,7.05,0,0,0,.09,2.63c-.15.41-.3.81-.47,1.21-.25.89-.5,1.77-.71,2.67a7.73,7.73,0,0,0-.17.94c0,.23-.08.47-.11.7a1.44,1.44,0,0,0-1.41-.87,4.59,4.59,0,0,0-2.24.44,3.13,3.13,0,0,1-.81.2h0l-.26-.14-.21-.14h0L75.5,138l0,0a.71.71,0,0,1,0-.14l0,0a8.39,8.39,0,0,1,.75-.71l.17-.17a6.35,6.35,0,0,0,.87,0c.41-.05.83,0,1.24-.09a3,3,0,0,0,.81-.32,1.44,1.44,0,0,0,.66-1.35,1.74,1.74,0,0,0-.82-1.55,2.18,2.18,0,0,0-1.85-.06,10.2,10.2,0,0,0-1.53.62l-.2.1a3.53,3.53,0,0,1,0-.86l0-.16v0a4.81,4.81,0,0,1,.17-.73c.1-.18.09-.14.35-.27a9.2,9.2,0,0,1,.94-.17,8.18,8.18,0,0,0,1-.39l.26-.14c.43,0,.86.09,1.28.16-.29-.14-.57-.25-.86-.36a1.53,1.53,0,0,0,.41-.31c.12-.13-.06,0-.13,0a2.57,2.57,0,0,1-.54.16h0c-.4-.13-.79-.25-1.19-.36a3.65,3.65,0,0,0-1.67-.14,4.08,4.08,0,0,0-1.33.83,2.09,2.09,0,0,0-.55,1.18,19,19,0,0,0-.16,3l-.06,1.73a2,2,0,0,0,0,.91v.18c0,.44,0,.21-.09,1a2,2,0,0,0,.11,1,2.12,2.12,0,0,0,2.17,1.15,3.4,3.4,0,0,0,1.79-.44h0a4.67,4.67,0,0,0,2.42-.72,2.31,2.31,0,0,0,.39-.51v.06a1.24,1.24,0,0,0,1,1.51c1.06.19,1.85-.85,2.12-1.76a6.56,6.56,0,0,0,.15-1.21h0a4.54,4.54,0,0,0,.58.07h.06a5.37,5.37,0,0,0,.27.8l0,0,0,.06a3.39,3.39,0,0,0,.57,1.12,1.52,1.52,0,0,0,2.58-.83,1.86,1.86,0,0,0,.5.09,2.54,2.54,0,0,0,2.37-.86l.26-.22.05,0a3,3,0,0,1,.4-.21l.41-.16h0l.15-.06a2,2,0,0,0,.8-.67,2.38,2.38,0,0,0,.35-.67,3.89,3.89,0,0,0,.27-.88,8,8,0,0,0,.23-1.74,2.63,2.63,0,0,0,1.79.84,3.34,3.34,0,0,0,2.17-.41,3.44,3.44,0,0,0,1.35-1.76c.06.19.12.39.19.59a2.32,2.32,0,0,0,.29.73.83.83,0,0,0,.89.31.26.26,0,0,1,0,.15.25.25,0,0,1-.26.18.32.32,0,0,0,.44-.21l0-.21a.7.7,0,0,0,.16-.13c.39-.38.22-.93.21-1.41a8.42,8.42,0,0,0-.25-1.57s0-.1,0-.15a1,1,0,0,0,.31,0h.22a3.85,3.85,0,0,0,1,2.24,1.59,1.59,0,0,0,2.27-.34A2,2,0,0,0,104.1,131.08Zm-19.47,5.64,0-.19v0a1.42,1.42,0,0,0,.08.18Zm3.54-5.38c-.1.57-.08.74-.22,1.3a12.12,12.12,0,0,0-.15,1.21v0c0-.39-.11-.78-.17-1.18s-.08-1.1-.09-1.65h.6l.12,0C88.22,131.13,88.19,131.24,88.17,131.34Zm.55,6.8h-.31c0-.13,0-.28-.06-.54a2.39,2.39,0,0,0,.22.23l.28.2Zm1.36-2.34s0,.08,0,.12,0,0,0,0c-.18.34-.28.54-.37.68-.19-.1-.12-.08-.29-.22-.33-.33-.39-.58-.47-1.37-.08-1-.21-1.9-.21-2.86a9.28,9.28,0,0,1-.07-1.06l.08,0a1.75,1.75,0,0,1,.29.18h0a.93.93,0,0,1,.14.14l.16.15a5.7,5.7,0,0,1,.32.6,6.22,6.22,0,0,1,.31,1.2v0A13.58,13.58,0,0,1,90.08,135.8Zm.11-6.07h.09l.19.05.08,0,0,0,.07.08.12.16a.86.86,0,0,1,.1.16l.09.27A3.65,3.65,0,0,0,90.19,129.73Zm6.11-1.3a1.41,1.41,0,0,1,.32.66c-.05-.1-.1-.2-.16-.3a19.36,19.36,0,0,1,.17,2.45h0a1.43,1.43,0,0,1-.12.21l0,0s-.13.15-.18.19h0a1,1,0,0,1-.18.1L96,131.7c-.09-.14-.21-.37-.25-.44a2.21,2.21,0,0,1-.08-.37,3.43,3.43,0,0,0-.06-.34,1.93,1.93,0,0,1,0-.24A3.27,3.27,0,0,1,96.3,128.43Zm.57,4.22c-.07.13-.15.25-.23.37a.75.75,0,0,1-.16.15l-.22.13h0c-.53.14-.21.09-1,.1h-.1l-.1,0-.21-.11-.08-.09a2,2,0,0,1-.23-.4l0-.11a3.24,3.24,0,0,1-.21-1.31,3,3,0,0,0,.26.58,3,3,0,0,0,.93.94l-.22.11a1.31,1.31,0,0,0,.28,0l.1,0a1,1,0,0,0,.94-.09,2.85,2.85,0,0,0,.33-.25Zm3.64-1.45c0-.33-.06-.65-.1-1,0,0,.08-.08.06-.07h0l0,0c.3.07.39.29.48.77,0,.16,0,.33.07.49A1.22,1.22,0,0,1,100.51,131.2Zm1.53-3.93-.06.06-.09.07h0l.05,0-.06,0a3.47,3.47,0,0,0-1,.55l-.06,0a1,1,0,0,0-.53.63s0,0,0,.06a9.19,9.19,0,0,1,.23-2.57c.6,0,1.21,0,1.81,0l.06.3a2.67,2.67,0,0,1,0,.4s0,0,0,.06l-.09.17Zm.86,5.27a.05.05,0,0,0,0,0,1.85,1.85,0,0,1-.14-.14,2.62,2.62,0,0,1-.48-.78l.38.42.12.14a1.28,1.28,0,0,1,.15.25.19.19,0,0,1,0,.07Z"/></g><path class="cls-5" d="M72.1,131.15a5.69,5.69,0,0,1-1.56-.19,5.19,5.19,0,0,0-2.05-.53,3.12,3.12,0,0,0-1.44,0c-1.56.57-1.1,3.21.71,2.79l.33-.08A37.61,37.61,0,0,1,68,137a33.51,33.51,0,0,0-.35,4.47,2.76,2.76,0,0,0,.52,1.94,1.38,1.38,0,0,0,2.37-.75,7.24,7.24,0,0,0,0-2.23,21.85,21.85,0,0,0-.12-2.68,29.91,29.91,0,0,0-.4-3.26c0-.36,0-.72,0-1.08v-.14c.48,0,1,0,1.44-.05s1.29-.05,1.58-.63C73.52,131.58,73.1,131.19,72.1,131.15Zm-.85,1.54c-.39.1-.77.24-1.16.33,0-.24,0-.48,0-.72l.36.07a2.18,2.18,0,0,0,.72,0c.36,0,.62-.11,1.14-.12l0,0A4.34,4.34,0,0,1,71.25,132.69Z"/><path class="cls-5" d="M66.78,135.88a8,8,0,0,0-.57-1.5,3.88,3.88,0,0,0-.32-.47l0,0c-.79-1.22-1-3.31-2.8-3.47a2.41,2.41,0,0,0-1.46.39,3.86,3.86,0,0,0-1.07,1,10,10,0,0,0-.94,1.48A8,8,0,0,0,59,136a8.1,8.1,0,0,0-1-1.74,3.73,3.73,0,0,0-1.52-1h0a2.79,2.79,0,0,0,.8-.51,1.16,1.16,0,0,0,.35-.87,2.17,2.17,0,0,0-.36-2,1.58,1.58,0,0,0-.85-.29,4.31,4.31,0,0,0-2.14.12,3.18,3.18,0,0,1-.33.09c-1.42.05-1.88,1.21-2.14,2.45a4.64,4.64,0,0,0,0,1.82c0,.93,0,1.86.11,2.79,0,.73,0,1.47,0,2.2a4.79,4.79,0,0,0,.14,1.69,2.79,2.79,0,0,0,3.86,1.51,5,5,0,0,0,1.36-.81l.08-.06a3.68,3.68,0,0,0,.9-.86,9.88,9.88,0,0,0,1.06-1.77,1.33,1.33,0,0,0,0-.19c0,.19.1.38.13.57.47,1.93,1.71,3.93,4,3.69a4.16,4.16,0,0,0,3.06-2,11.15,11.15,0,0,0,.69-1.8A4.46,4.46,0,0,0,66.78,135.88Zm-12.19,4.6a1.13,1.13,0,0,1-.26,0l-.11,0-.08,0-.11-.07-.08-.08h0a1.59,1.59,0,0,1-.13-.22.43.43,0,0,1,0-.05.25.25,0,0,0,0-.08c.35,0,.7.06,1.06.07l.81,0a2.33,2.33,0,0,1-1,.42Zm2.19-2.69a4.87,4.87,0,0,1-.05.65v0a1.77,1.77,0,0,1-.3.71,5.9,5.9,0,0,1-1.67.43c-.32.08-.65.14-1,.19v-.41c0-1.07,0-2.13-.07-3.19a2.67,2.67,0,0,0,1.76.14l.45-.09h.17l.3.09.09,0,.13.14,0,0a2.68,2.68,0,0,1,.11.49A4.54,4.54,0,0,1,56.78,137.79Zm0-7.45a1.26,1.26,0,0,1,.43.7,1.19,1.19,0,0,0-.19-.2,2.33,2.33,0,0,0-1.12-.5l.31,0C56.48,130.29,56.8,130.28,56.82,130.34Zm7,1.31a5.21,5.21,0,0,1,.85.89,2.66,2.66,0,0,0-2.32-.7A1.11,1.11,0,0,1,63.87,131.65Zm1.73,6.14a4.33,4.33,0,0,1-.45,1.26,3.21,3.21,0,0,1-.45.82c-.86.87-1.09.84-1.47.93h-.41l-.07,0-.19-.07-.21-.11a2.83,2.83,0,0,1-.3-.3,4.43,4.43,0,0,1-.63-1.33c-.13-.4-.2-.81-.3-1.22a6.14,6.14,0,0,1-.22-.73c0-.51,0-1,0-1.52v0c0-.1.08-.41.1-.53a4.31,4.31,0,0,1,.38-1.41,7.19,7.19,0,0,1,.59-1.18,2.71,2.71,0,0,1,.36-.41,5.17,5.17,0,0,1,1.43.5c.58.45.79,1.24,1.21,1.89,0,.06.13.26.18.37a6.9,6.9,0,0,1,.32,1.58,7.31,7.31,0,0,1,.18,1A3.33,3.33,0,0,1,65.6,137.79Z"/><path class="cls-5" d="M50.59,127.48a2.81,2.81,0,0,0-.5-1.38,1,1,0,0,0-1.37-.08,6,6,0,0,0-.88,1.17,12.42,12.42,0,0,0-.94,1.52,6.18,6.18,0,0,0-.43,1.79,14.08,14.08,0,0,1-.54,1.33c-.38.95-.29.8-.77,1.85a5.42,5.42,0,0,0-.71,2.14,2.06,2.06,0,0,0,.15,1.2,1.4,1.4,0,0,0,2,.47A5.16,5.16,0,0,0,48.36,135s0,0,0-.06l.15-.1.16-.16v.05a3.16,3.16,0,0,0,.16.8.22.22,0,0,0,.12.16c.06,0,.05-.08,0-.12,0-.19,0,0,0,0a11,11,0,0,1,.17-2.26,4.91,4.91,0,0,0,.08-.67l0-.06c0,.3,0,.6,0,.91a29.06,29.06,0,0,0,.34,3.72c.1-1.18.33-2.31.52-3.58a18.4,18.4,0,0,0,.42-2.76A12.35,12.35,0,0,0,50.59,127.48Zm-1.9,2.07,0,0,.34-.57c0,.37.06.81.09,1.27a1.21,1.21,0,0,0-.6-.09A2.77,2.77,0,0,1,48.69,129.55Z"/><path class="cls-5" d="M45.91,124.21a4.54,4.54,0,0,0-1.69-.51,3.34,3.34,0,0,0-1.44,0c-1.75.3-2.16,2.3-2.22,3.8a2.41,2.41,0,0,0,1.18,2.08,3.17,3.17,0,0,0,.28.34c.4.47.91.81,1.33,1.25a1.19,1.19,0,0,1,.13.25,1.84,1.84,0,0,1,.09.25V132l0,.08,0,.12h0l-.18.4s0,0,0,.05l0,0a9.93,9.93,0,0,1-.9.51l-.24.07H42l-.1,0a1.7,1.7,0,0,1-.52-.3,2.29,2.29,0,0,1-.45-.79s0,0,0-.07l0,0c-.2-.49-.08-1-.29-1.74a.55.55,0,0,0-.84-.19,2.19,2.19,0,0,0-.32,2.25,3.14,3.14,0,0,0-.07,1.14,2.36,2.36,0,0,0,2.17,1.76c1.22.27,1.77-.36,2.6-1.06h0a3.4,3.4,0,0,0,1.59-2.9,2.89,2.89,0,0,0-.29-1.74,3.76,3.76,0,0,0-1.63-1.17l-.53-.2-.12-.06,0,0a1.71,1.71,0,0,1-.11-.14l0,0a.83.83,0,0,1,0-.15v0a8,8,0,0,1,.26-1l0,0h.68l.31.09.19.06.06,0,.22.17.22.21a4.45,4.45,0,0,1,.35.68,1.14,1.14,0,0,0,.43.47c.9.45,1.53-.07,1.81-.94C47.92,126,47,125,45.91,124.21ZM39.42,132a2,2,0,0,1,.47-1.25c0,.18,0,.36,0,.54a3.5,3.5,0,0,0-.41,1A1.93,1.93,0,0,1,39.42,132Zm.39-.42a2.78,2.78,0,0,0,.09,1,2.65,2.65,0,0,0,.6,1.33l.09.09a1.76,1.76,0,0,1-.58-.43A3,3,0,0,1,39.81,131.55Z"/><path class="cls-3" d="M61.89,126.12l2.19-9.62a64,64,0,0,1,4,8.65"/><path class="cls-3" d="M69.54,116.69a18.84,18.84,0,0,0,.62,5.84,3.6,3.6,0,0,0,.5,1.21,1.42,1.42,0,0,0,1.1.64,1.4,1.4,0,0,0,1.13-.69,3.46,3.46,0,0,0,.44-1.3,25.39,25.39,0,0,0,0-5.91"/><path class="cls-3" d="M77.39,116.22l.4,8.49"/><path class="cls-3" d="M75.22,116.41l5.24-.27"/><path class="cls-3" d="M84.65,116.53a3,3,0,0,0-3.12,1.3,5.06,5.06,0,0,0-.65,3.48,3.42,3.42,0,0,0,.94,2.14,2.67,2.67,0,0,0,3.37-.1,4.46,4.46,0,0,0,1.45-3.25,4.56,4.56,0,0,0-.46-2.39C85.79,117,85.09,116.4,84.65,116.53Z"/><path class="cls-3" d="M45.87,127.11a2.3,2.3,0,1,0-3.69,1.82c.45.34,1,.51,1.47.84A2.41,2.41,0,1,1,39.92,131"/><path class="cls-3" d="M45.44,136.23c1.15-2.53,2.3-5.06,3.58-7.6l.25,9.06"/><path class="cls-3" d="M47.32,132.85l1.84.78"/><path class="cls-3" d="M53.36,140.89c-.22-3.37-.43-6.74-.49-9.62a8.86,8.86,0,0,1,3.22-.54,1.42,1.42,0,0,1,1.1.38,1,1,0,0,1,.09,1,2.15,2.15,0,0,1-.63.78,16.32,16.32,0,0,1-3.2,1.79,3.13,3.13,0,0,1,4.06,4.62C56.6,140.4,54.86,140.75,53.36,140.89Z"/><path class="cls-3" d="M64.25,132.51a1.72,1.72,0,0,0-2.09-.45,3.39,3.39,0,0,0-1.55,1.68,7.06,7.06,0,0,0,.06,6.29,3,3,0,0,0,2.45,1.82,2.89,2.89,0,0,0,2.2-1.71C66.65,137.66,65.76,134.68,64.25,132.51Z"/><path class="cls-3" d="M69.3,131.93l0,11.21"/><path class="cls-3" d="M67.05,131.89l5.45,0"/><path class="cls-3" d="M75.06,131.67c-.11,2.9-.23,5.79-.3,8.42l5.18-.45"/><path class="cls-3" d="M75.27,135.81l3.62-.48"/><path class="cls-3" d="M75.17,131.81l4.29-.58"/><path class="cls-3" d="M81.69,140.27a48.88,48.88,0,0,1,1.61-9.06l3.07,9.28"/><path class="cls-3" d="M82.34,137.12l3-.37"/><path class="cls-3" d="M63.29,121.73l3.19-.71"/><path class="cls-3" d="M88.42,138.31a30.71,30.71,0,0,1-.46-8.52,5.07,5.07,0,0,1,1.59-.54,1.75,1.75,0,0,1,1.53.52,2.54,2.54,0,0,1,.43,1.48l.3,3.8a3.29,3.29,0,0,1-.09,1.4,2.23,2.23,0,0,1-1.37,1.23A12.65,12.65,0,0,0,88.42,138.31Z"/><path class="cls-3" d="M96.51,127.7a1.45,1.45,0,0,0-1.76.63,4.18,4.18,0,0,0-.5,1.95,5.22,5.22,0,0,0,.08,2,1.86,1.86,0,0,0,1.37,1.34,2.08,2.08,0,0,0,2-1.51C98.31,130.55,97.88,128.38,96.51,127.7Z"/><path class="cls-3" d="M100.31,134.39c-.06-2.88-.12-5.76,0-8.32a2.73,2.73,0,0,1,2.51-.42,1.78,1.78,0,0,1,.5,2.39,2.52,2.52,0,0,1-2.82,1.16"/><path class="cls-3" d="M102,129.16a10.9,10.9,0,0,0,2.15,3.77"/><path class="cls-6" d="M85.72,85.7A6,6,0,0,0,79,90.42a4,4,0,0,0,.55,3.14A3.83,3.83,0,0,0,82.23,95a9.11,9.11,0,0,0,3.07-.29,9.14,9.14,0,0,0,4.28-1.92,3.89,3.89,0,0,0,1.17-4.28,4,4,0,0,0-2.16-1.92A11.91,11.91,0,0,0,85.72,85.7Z"/><path class="cls-2" d="M85.36,89a2.4,2.4,0,0,0-1.85.66,1,1,0,0,0-.38,1,.85.85,0,0,0,.53.53,1.81,1.81,0,0,0,.77.08,2.45,2.45,0,0,0,1.25-.35,1.25,1.25,0,0,0,.58-1.12A.89.89,0,0,0,85.36,89Z"/><path class="cls-6" d="M64.13,91a5.93,5.93,0,0,0-3-3A7.62,7.62,0,0,0,57,87.51c-1.76.23-3.62,1.06-4.27,2.71a4,4,0,0,0,1,4.14,7.25,7.25,0,0,0,4,1.89,7.57,7.57,0,0,0,3.48-.11A4.38,4.38,0,0,0,63.9,94,3.72,3.72,0,0,0,64.13,91Z"/><path class="cls-2" d="M59.51,91.33a1.89,1.89,0,0,0-1.29-.48,1.86,1.86,0,0,0-1.26.54,1.07,1.07,0,0,0-.33,1,1.25,1.25,0,0,0,.84.67,2.62,2.62,0,0,0,1.38.17,1.39,1.39,0,0,0,1.06-.82A1.08,1.08,0,0,0,59.51,91.33Z"/><path class="cls-6" d="M92.06,107.11c1.23-.18,1.47-1.74.46-2a37.48,37.48,0,0,0-7-.4L54.5,106a4.86,4.86,0,0,0-2.48.54,1.69,1.69,0,0,0-.69,2.2c.46.72,1.48.75,2.33.71C66.53,108.79,79,109.08,92.06,107.11Z"/><path class="cls-6" d="M52.67,107.72,92.1,106"/></g></g></svg>