<svg xmlns="http://www.w3.org/2000/svg" viewBox="0 0 147.8 222.35"><defs><style>.cls-1{fill:#f5eee8;}.cls-2{fill:none;}.cls-2,.cls-3,.cls-4{stroke:#fff;stroke-miterlimit:10;stroke-width:0.5px;}.cls-3{fill:#fff;}</style></defs><g id="Capa_2" data-name="Capa 2"><g id="responsive"><rect class="cls-1" width="147.8" height="222.35" rx="14.95"/><path d="M112.62,83.35a18.83,18.83,0,0,0-3.3-4.19,13.12,13.12,0,0,1-1.5-1.57,4.82,4.82,0,0,0-1.5-1.38,1.67,1.67,0,0,1,.5-.53,6.46,6.46,0,0,1,1.18-.77l1.78-.87a1.7,1.7,0,0,1,.71-.26c0-.35-1.56,0-1.73.07a7,7,0,0,0-2.25,1.09,4.3,4.3,0,0,0-.63.47c-.1.09-.22.3-.35.35s-.62-.14-.84-.22c-.66-.23-1.34-.36-2-.58a15.73,15.73,0,0,0-2.91-.88c-1-.12-2-.45-3,.16a12.07,12.07,0,0,1,3.84-2.13,19.74,19.74,0,0,1,2-.42c.37-.07.76,0,1.12-.1-.15-.18-.6-.22-.8-.23a9,9,0,0,0-2.42.24,9.63,9.63,0,0,0-3.09,1.15,7.14,7.14,0,0,0-2.06,1.46c-.09.13-.14.31-.23.42s-.33.14-.52.19a10.48,10.48,0,0,0-2.46,1.05,11.7,11.7,0,0,0-1.19.91,20.66,20.66,0,0,0-1.72,1.37,11.17,11.17,0,0,0-2.93,3.67,7,7,0,0,1,.09-1.64A6.06,6.06,0,0,1,87,77.89c.31-.68.73-1.27,1.08-1.92a6.27,6.27,0,0,1,.36-.62,4.26,4.26,0,0,0-1.37,1.43c-.22.35-.38.73-.61,1.07a6.9,6.9,0,0,0-.75,1.25,10.12,10.12,0,0,0-.37,2.12,7.28,7.28,0,0,0,0,1.32,7.08,7.08,0,0,1,0,.92c-.07.41-.63.64-.93.87A18.23,18.23,0,0,0,82.94,86a5.59,5.59,0,0,0-.62.57c-.08.11-.09.27-.24.3a2.7,2.7,0,0,1,.12-1.51,20,20,0,0,1,.52-2.56,19.31,19.31,0,0,1,1-2.3,13.22,13.22,0,0,0,.75-1.38,3.93,3.93,0,0,0-1,1.26c-.43.8-.75,1.64-1.19,2.43a12.53,12.53,0,0,0-1,4c0,.19,0,.51-.07.67a1.52,1.52,0,0,1-.82.46,7.47,7.47,0,0,1-1.5.07,10.19,10.19,0,0,1-1.46-.06c-.59-.07-1.15-.25-1.73-.33a6,6,0,0,1-1.76-.5,8.78,8.78,0,0,1-2.31-1.56,17.51,17.51,0,0,0-1.68-1.44,18.58,18.58,0,0,1-1.6-1c.34-.55,1.17-.84,1.69-1.18a19.26,19.26,0,0,1,2.06-1.3,14.5,14.5,0,0,1,2-.89,1.29,1.29,0,0,0,.62-.3c-1.74-.36-3.49.85-5,1.55a3.54,3.54,0,0,0-1.32.87c-.15.18-.53.69-.79.69a2.39,2.39,0,0,0-1.38-1.12,9.29,9.29,0,0,0-.93-.33c-.38-.08-.53,0-.58-.42,0-.2,0-.42,0-.62a6.22,6.22,0,0,0-.15-.75c-.14-.76,0-1.53-.11-2.28a6.34,6.34,0,0,0-.61-1.42,1.85,1.85,0,0,0-.21-.45c0,.21.12.39.14.6s0,.32,0,.48c0,.53,0,1.07,0,1.6a4,4,0,0,1-.16,1.24c-.09.3-.13.82-.34,1a11.94,11.94,0,0,1-1.13-.82c-.39-.22-.83-.35-1.22-.57s-.66-.46-1-.67a8.9,8.9,0,0,0-1.1-.66c-.44-.19-.92-.29-1.37-.46-.76-.3-1.61-.31-2.34-.68A6.84,6.84,0,0,1,54,75.67a4.2,4.2,0,0,1-.89-1.38,4.71,4.71,0,0,1-.37-.94c-.15-.46-.19-1-.34-1.41a3.69,3.69,0,0,1-.36-1,2.39,2.39,0,0,0-.23.87,8.31,8.31,0,0,0,0,1.32,7.26,7.26,0,0,0,.55,2c.07.26.16.37-.1.45A3,3,0,0,1,51,75.46,4.54,4.54,0,0,1,49.82,75c-1-.55-1.44-1.74-2.58-2.16a7.46,7.46,0,0,0-1.94-.29c-.26,0-1.32-.45-1.5-.13a8.4,8.4,0,0,0,1.61.38c.27.08.46.27.72.36a5,5,0,0,1,.64.26c.28.16,1.79,1.53,1,1.62a3.72,3.72,0,0,1-.81-.09,4.78,4.78,0,0,0-1,0,6.41,6.41,0,0,1-2.47-.06c-.71-.19-1.41-.24-2.12-.38-.31-.06-.6-.18-.92-.21s-.51,0-.64,0a6.73,6.73,0,0,0,1.06.66,5,5,0,0,0,1.06.4,3.91,3.91,0,0,1,1.55.36,7.33,7.33,0,0,1-1.27.59,16.42,16.42,0,0,0-1.9,1,40.72,40.72,0,0,0-3.78,2.59c-.67.55-1.29,1.16-2,1.71a15.57,15.57,0,0,0-1.82,1.72c-.29.34-.45.74-.73,1.08s-.75.93-1.08,1.42a25.32,25.32,0,0,0-2,3.76,7.78,7.78,0,0,0-.55,1.58,8.29,8.29,0,0,0-.19,1.09,4.14,4.14,0,0,1,0,.61c-.09-.11,0-.28-.05-.42,0-.32-.06-.62-.09-.94-.08-.74-.1-1.49-.17-2.24A9,9,0,0,1,28,87a4.71,4.71,0,0,1,.21-1c0-.11.11-.17.09-.3a3.76,3.76,0,0,1-.38,1.16,6.39,6.39,0,0,0-.3,1.31c-.09,1-.07,1.92-.07,2.88a18.83,18.83,0,0,0,.13,2c0,.23,0,.46.05.69a2.6,2.6,0,0,1-.11.62,29.38,29.38,0,0,0-.7,4.76c0,.93,0,1.87,0,2.8,0,.48.13.93.17,1.4a2.52,2.52,0,0,1,.07.6,3.62,3.62,0,0,1-1-.45,7.13,7.13,0,0,1-1.24-.74,5.06,5.06,0,0,1-1.39-2.23c-.3,1.61,1.15,2.93,2.29,3.79a6.79,6.79,0,0,0,1.06.64c.28.13.38.22.39.56s0,.75,0,1.12c0,.57.1,1.12.12,1.68a6.23,6.23,0,0,0,.36,1.52c.16.52.28,1.08.39,1.61a6.1,6.1,0,0,0,.44,1.24,11.89,11.89,0,0,0,.59,1.31c.21.35.43.66.61,1,.1.2.18.41.28.61a6,6,0,0,1-.85.27,3,3,0,0,0-1.59,1.3c-.18.37-.27.76-.45,1.13a3.85,3.85,0,0,0-.31.86,3,3,0,0,0-.08,1c.13-.28.19-.57.34-.85s.49-.71.71-1.1a6.78,6.78,0,0,1,.92-1.21,1.55,1.55,0,0,1,.85-.48,2.69,2.69,0,0,1,.61-.19c.1,0,.08-.07.18,0s.18.5.22.62a11.52,11.52,0,0,0,1.66,3.21,26.28,26.28,0,0,0,2.59,2.58A18.33,18.33,0,0,0,38,124.9a6.25,6.25,0,0,0,1.46.67c.61.19,1.17.47,1.77.7s1.11.37,1.68.55a6.43,6.43,0,0,1,1.16.33c-.32.86-1.8,1-2.5,1.35a3.64,3.64,0,0,1-1.76.52,3.75,3.75,0,0,0-.67,0,3,3,0,0,0,1.81.14c.43-.08.83-.22,1.25-.34s1-.13,1.52-.24a5.9,5.9,0,0,0,1.58-.47,2.45,2.45,0,0,1,.52-.24,3.52,3.52,0,0,1,1.65.26c1,.21,1.87.75,2.83,1,2,.59,4.28,1.07,6.17,0a14.91,14.91,0,0,1,3.4-1.48c.73-.2,1.5-.31,2.25-.45a6.78,6.78,0,0,1,1.25-.2c.3,0,.32.17.27.44a5.2,5.2,0,0,1-.43.89,4.08,4.08,0,0,0-.21.78,6.87,6.87,0,0,0-.12,2.39.94.94,0,0,0,.23.57c.1.1.21.15.27.29a8.7,8.7,0,0,1,0-2.28,7.47,7.47,0,0,1,1.28-2.41c.44-.63,1-1.46,1.84-1.48.37,0,.73-.08,1.1-.06s.68.06,1,.06c1,0,2,0,2.92,0a11.89,11.89,0,0,0,1.2-.1,6.91,6.91,0,0,0,1-.1c.37-.1.73-.16,1.11-.23.53-.1,1-.34,1.53-.41a20.22,20.22,0,0,1,2.32-.22,18.44,18.44,0,0,0,2.78-.16,24.75,24.75,0,0,1,4.39,0c.59,0,1.14.21,1.73.25a7.89,7.89,0,0,1,1.34.25,9.3,9.3,0,0,1,1.92.67,3.81,3.81,0,0,1,1.34,1.18,2.14,2.14,0,0,1,.34,1.42,10.34,10.34,0,0,1,0,1.93c-.1.56-.48,1-.62,1.54.81-.6,1.06-1.95,1.28-2.88a6.52,6.52,0,0,0,.25-1.53,5.07,5.07,0,0,0,0-1.1s-.14-.34-.08-.4c.2-.22,1,.25,1.22.32a7.9,7.9,0,0,0,1.69.21c1.18.09,2.35-.18,3.53-.1a9.74,9.74,0,0,0,4-.58c.82-.3,1.56-.79,2.36-1.12a19.18,19.18,0,0,0,2.77-1.54,13.39,13.39,0,0,0,1.88-1.65c.24-.21.51-.39.74-.62s.65-.77,1-1.15a23.94,23.94,0,0,0,1.73-1.76c.44-.61,1.09-1.06,1.57-1.65a11.5,11.5,0,0,0,1.43-2.62c.25-.54.66-1,.89-1.53.09-.24.11-.47.2-.7a3.13,3.13,0,0,0,.36-1.08,22.09,22.09,0,0,1,.37-2.28c.1-.93.13-1.87.2-2.8a29.29,29.29,0,0,0-.14-6.21A24.44,24.44,0,0,0,117.7,94c-.45-1.11-.68-2.31-1.13-3.43-.34-.86-.61-1.77-1-2.61A23.69,23.69,0,0,0,114,85.27c-.18-.29-.37-.55-.53-.84a2.1,2.1,0,0,0-.32-.46c-.05-.08-.13-.16-.18-.25S112.9,83.79,112.62,83.35Z"/><path class="cls-2" d="M40.41,95.19a12.14,12.14,0,0,1,0,2c-.07.53-.17,1-.22,1.57a21,21,0,0,1-.5,2.63,7.2,7.2,0,0,0,0,3.63,3.28,3.28,0,0,0,1.81,2.09,1.88,1.88,0,0,0,1.43.08c.73-.44.84-1.76.94-2.5a30.65,30.65,0,0,0,.11-4.07V99.25a1.23,1.23,0,0,1,.09-.66"/><path class="cls-2" d="M66.26,100.35a7.42,7.42,0,0,1,1.11-2.6,10.07,10.07,0,0,1,.86-1.17,7.23,7.23,0,0,1,2-1.57,4.05,4.05,0,0,1,1-.25,1.58,1.58,0,0,1,.94.08,2,2,0,0,1,.88,1.59,4.79,4.79,0,0,1-.36,2.3,12.09,12.09,0,0,1-1,1.81,17.93,17.93,0,0,1-1.06,1.71,24.57,24.57,0,0,0-1.5,2.39,13,13,0,0,0-.67,1.35c-.21.49-.46,1-.65,1.49a17.87,17.87,0,0,0-.79,2.58,4.78,4.78,0,0,0-.23,1.45,1,1,0,0,0,.39,0l1-.19c.42-.09.84-.18,1.25-.25a16.91,16.91,0,0,0,1.73-.3,8.8,8.8,0,0,1,1.33-.3,8.58,8.58,0,0,0,1.24-.16,1.21,1.21,0,0,1,.7-.07v0"/><path class="cls-2" d="M80.35,92c-.51,2-1.36,4-1.72,6.09-.07.4-.1.8-.19,1.19s-.17.57-.24.86-.13.36-.16.54,0,.14,0,.2c.26.27.92.17,1.25.17s.77,0,1.16,0,.91,0,1.36,0c.7-.09,1.4-.1,2.09-.17a4,4,0,0,1,.76-.07,1,1,0,0,0,.14-.21"/><path class="cls-2" d="M88.14,90.59c-.27.7-.51,1.38-.72,2.09-.12.42-.21.84-.3,1.26a12,12,0,0,1-.47,1.31c-.15.43-.28.87-.41,1.3-.28.88-.36,1.83-.6,2.73-.17.61-.29,1.23-.45,1.84s-.34,1.17-.47,1.77c-.4,1.82-.73,3.66-1.14,5.48-.2.85-.36,1.7-.52,2.57,0,.27-.07.55-.12.83a.73.73,0,0,0,0,.25"/><path class="cls-2" d="M51.63,91.42a7.8,7.8,0,0,0-2.19,2.39,4.37,4.37,0,0,0-.36,1.33A4.69,4.69,0,0,0,49.47,98,5.56,5.56,0,0,0,51,99.81a3.44,3.44,0,0,0,2,.87,3.93,3.93,0,0,0,2.42-.45c.22-.12.42-.29.65-.41a2.67,2.67,0,0,0,.7-.39,8,8,0,0,0,1.09-1.16,5.67,5.67,0,0,0,.85-2,7.42,7.42,0,0,0,.06-.94,4.5,4.5,0,0,0,0-1.1,2.14,2.14,0,0,0-.17-.84,6.1,6.1,0,0,0-.54-.82,4.34,4.34,0,0,0-1.14-1.12,5.47,5.47,0,0,0-3.43-.64A3.75,3.75,0,0,0,52,91.2C51.83,91.29,51.45,91.61,51.63,91.42Z"/><path class="cls-3" d="M49.26,95.43a1.75,1.75,0,0,0,.55-.12,1,1,0,0,1,.25-.08c.24-.07.47-.18.71-.23a2.49,2.49,0,0,1,.37-.09H52.2a3.73,3.73,0,0,1,.47,0l.93.14c.4.06.81.17,1.22.24.14,0,.3,0,.44.08l.31.07c.21,0,.42.12.63.18a5.26,5.26,0,0,1,1,.42,1.71,1.71,0,0,1,.66.46A1.08,1.08,0,0,1,58,97a1.41,1.41,0,0,1,0,.41,2.25,2.25,0,0,1-.29.58,4.4,4.4,0,0,1-.76,1c-.15.12-.28.27-.43.4a2.91,2.91,0,0,1-.46.32,5.5,5.5,0,0,1-1.25.52,4.38,4.38,0,0,1-.72.15l-.32.05a2.68,2.68,0,0,1-.4,0,2,2,0,0,1-.6-.07c-.18,0-.37-.12-.55-.19a4.44,4.44,0,0,1-1-.55,7.21,7.21,0,0,1-.67-.57,3.18,3.18,0,0,1-.26-.35,5.11,5.11,0,0,1-.48-.73,5.77,5.77,0,0,1-.36-.7,2.63,2.63,0,0,1-.13-.69c0-.2,0-.4,0-.6s0-.35,0-.53C49.27,95.47,49.29,95.47,49.26,95.43Z"/><path class="cls-3" d="M36.4,95.23a2.55,2.55,0,0,0-.5-.58c-.12-.1-.23-.21-.36-.3a3.19,3.19,0,0,0-.38-.26l-.45-.22a2.59,2.59,0,0,0-.38-.17,4.56,4.56,0,0,0-.53-.13,5.56,5.56,0,0,0-1.15-.14,3.13,3.13,0,0,0-.53,0l-.51.11a7.67,7.67,0,0,0-1.07.29,7,7,0,0,0-.79.35,2.24,2.24,0,0,0-.58.38.83.83,0,0,0-.22.57,1.53,1.53,0,0,0,0,.37,5.77,5.77,0,0,0,.09.6c.05.23.16.45.23.67a5.72,5.72,0,0,0,.32.66,3,3,0,0,0,.32.45,1.37,1.37,0,0,0,.23.25l.27.17.25.19.19.08c.16.09.3.2.46.29a1.82,1.82,0,0,0,1,.31,3.82,3.82,0,0,0,1-.08,2,2,0,0,0,.34-.13,2.71,2.71,0,0,0,.39-.17c.08-.06.15-.13.23-.18s.36-.25.52-.41l.64-.62c.06-.07.12-.12.18-.18a2.33,2.33,0,0,0,.26-.38l.15-.19a1,1,0,0,0,.17-.32,4.17,4.17,0,0,0,.19-.44,1.09,1.09,0,0,0,.06-.36c0-.07,0-.15,0-.23S36.32,95.3,36.4,95.23Z"/><path class="cls-2" d="M31.44,89.45c-.12,0-.64.29-.76.34a2.85,2.85,0,0,0-.58.4,4.07,4.07,0,0,0-.77,1.15A5.57,5.57,0,0,0,28.67,94a7.16,7.16,0,0,0,.43,2.55,5.64,5.64,0,0,0,1.2,1.94,3.29,3.29,0,0,0,2.12.88,2.56,2.56,0,0,0,1.26-.15,3.63,3.63,0,0,0,1.43-1,6.5,6.5,0,0,0,1.43-2.61,4.31,4.31,0,0,0-.65-3.57,8.86,8.86,0,0,0-1.15-1.44,7.54,7.54,0,0,0-1.31-.85,2.84,2.84,0,0,0-1.29-.4A4.62,4.62,0,0,0,31.44,89.45Z"/><path class="cls-3" d="M51.4,110.43a15.43,15.43,0,0,1-1.9.6,1.69,1.69,0,0,0-.36.12c-.33.18-.26.8-.25,1.13a8.12,8.12,0,0,0,.09,1.56c0,.13,0,.4.18.45s.26-.15.34-.23a8.55,8.55,0,0,0,.65-.7,9.12,9.12,0,0,0,1.16-1.81,1.61,1.61,0,0,0,.23-.7C51.54,110.69,51.49,110.32,51.4,110.43Z"/><path class="cls-3" d="M48.05,111.73a19.24,19.24,0,0,0,0,2.84c0,.14.09.26,0,.39s-.44.3-.62.37a8.09,8.09,0,0,0-.83.28,5.36,5.36,0,0,1-1,.27.67.67,0,0,1-.77-.36,3.62,3.62,0,0,1-.29-1.52c0-.37,0-.73-.1-1.1a1.32,1.32,0,0,1-.06-.47c0-.08.24-.05.31-.06s.29-.09.44-.12c.46-.08.92,0,1.38-.06a7,7,0,0,0,.8-.1A2,2,0,0,0,48.05,111.73Z"/><path class="cls-3" d="M43.53,112.33l.18,2.57a2.17,2.17,0,0,1,0,.51,1.64,1.64,0,0,1-.43-.13,3.72,3.72,0,0,0-.48-.11,7.44,7.44,0,0,1-1-.46c-.27-.11-.75-.14-1-.34a1,1,0,0,1-.23-.53c0-.22,0-.45,0-.67s-.08-.2,0-.32a19,19,0,0,0,2.51-.19c.18,0,.28-.23.43,0S43.47,113,43.53,112.33Z"/><path class="cls-3" d="M39.71,112.75c0,.34-.06.67-.11,1-.16-.22-2.39-.75-2.17-1.14s1.21,0,1.45,0,.33,0,.51,0S39.6,112.73,39.71,112.75Z"/><path class="cls-3" d="M99.36,109.37a.32.32,0,0,0-.3,0,8.72,8.72,0,0,1-2.88,1.3c-.27,0-.55,0-.83.09-.51.1-1,.25-1.53.35-.32.06-.65.11-1,.14-.13,0-.45,0-.54.1s0,.47,0,.61a9.81,9.81,0,0,0,.37,1.28,11.29,11.29,0,0,0,1.57,2.87,6.42,6.42,0,0,0,1.08,1.13,10,10,0,0,0,1.24,1,5.59,5.59,0,0,0,1.77.72,7.3,7.3,0,0,0,1.46.31c.41,0,1.16.19,1.23-.36a4.3,4.3,0,0,0-.19-1.51c-.07-.32-.1-.65-.15-1s-.18-.85-.25-1.27c-.13-.78-.23-1.57-.39-2.35a11.46,11.46,0,0,1-.21-1.17c0-.31-.15-.58-.2-.88s-.15-.72-.18-1.08a2.3,2.3,0,0,0,0-.28S99.39,109.38,99.36,109.37Z"/><path class="cls-3" d="M100.59,109.12s.56,3,.85,4.71c.15.83.26,1.66.41,2.49s.3,1.38.44,2.08a4.11,4.11,0,0,0,.2.84,5.47,5.47,0,0,0,.65-.41c.31-.18.64-.29,1-.47a7,7,0,0,1,1.09-.63,4.32,4.32,0,0,0,.89-.5,5.52,5.52,0,0,0,1-.88,2.61,2.61,0,0,0,.57-.8,2.13,2.13,0,0,0,.06-.87c-.13-1.39-.45-2.75-.61-4.14a31,31,0,0,0-.82-4.38c-.26,0-.59.28-.82.39a6,6,0,0,0-.7.4,11.33,11.33,0,0,1-2.29,1.06c-.55.2-1.33.52-1.88.73,0,0,0,.39,0,.38S100.61,109.13,100.59,109.12Z"/><path class="cls-3" d="M107.09,105.68v0c.19.94.4,1.9.56,2.85.06.31.06.64.12,1,.11.61.27,1.22.41,1.82a9,9,0,0,1,.17,1.16c0,.28.17.54.19.82h0a2.58,2.58,0,0,0,.73-1.37,16.28,16.28,0,0,0,.74-2.56,13.45,13.45,0,0,0,.2-2.61,3.28,3.28,0,0,0-.2-.94c-.08-.26-.11-.54-.2-.8a2.51,2.51,0,0,0-.31-.71c-.16-.23-.2-.14-.36,0a5.63,5.63,0,0,1-1.2.92,3.6,3.6,0,0,1-.83.36S107.09,105.65,107.09,105.68Z"/><path class="cls-2" d="M103.71,98.64a5.8,5.8,0,0,1,2.49.07,5.43,5.43,0,0,1,1,.38c.38.21.8.35,1.17.58a7.15,7.15,0,0,1,1,.89c.62.55,1.06,1.26,1.63,1.82s.75,1,1.34,1.32a1.44,1.44,0,0,0,1.59-.09,3.24,3.24,0,0,0,.7-.82,2,2,0,0,0,.24-.71,6.32,6.32,0,0,0,.21-1,10.8,10.8,0,0,0-.48-4.45c-.21-.58-.58-1.06-.84-1.62a3.71,3.71,0,0,0-1.09-1.5,9.55,9.55,0,0,0-1.37-.65,4.25,4.25,0,0,0-1.18-.22,12.94,12.94,0,0,0-1.63-.29"/><path class="cls-3" d="M92.54,99.38a11.35,11.35,0,0,0,1.8-1.46c.17-.18.35-.35.53-.52a10.92,10.92,0,0,0,1.37-1.51,13.32,13.32,0,0,1,1.49-2c.5-.5.82-1.07,1.5-1.33a3.14,3.14,0,0,1,1.35-.27,2.19,2.19,0,0,1,.82.38,1.41,1.41,0,0,1,.54.57,2.12,2.12,0,0,1,0,1.9,3.51,3.51,0,0,1-.89,1.1c-.2.17-.33.4-.53.57a3.64,3.64,0,0,1-.75.47c-.49.24-1,.4-1.52.67a5.39,5.39,0,0,1-1.61.55c-.55.11-1.08.34-1.64.45-.34.07-.68,0-1,.09A6.15,6.15,0,0,0,92.54,99.38Z"/><path class="cls-3" d="M107.45,89.49c.51-.69,1-1.42,1.5-2.09.31-.39.52-.85.79-1.27a6.2,6.2,0,0,1,1.06-1.33,2.69,2.69,0,0,1,.68-.43,1.7,1.7,0,0,1,.64-.05c.53,0,.83.44,1,.91a2.7,2.7,0,0,1,.08,1.38,3.18,3.18,0,0,1-1.51,1.54,18,18,0,0,1-2.37.84,9.89,9.89,0,0,1-1.84.6S107.39,89.57,107.45,89.49Z"/><path class="cls-4" d="M32.2,96.08c-.13.13-.54.44-.5.71a2.45,2.45,0,0,0,.08.29.55.55,0,0,0,.53.3.58.58,0,0,0,.53-.33.53.53,0,0,0,.07-.54.83.83,0,0,0-.48-.37C32.34,96.12,32.12,96.12,32.2,96.08Z"/><path d="M53.13,97.81l-.29.18-.11.09s0,.07,0,.09a.86.86,0,0,0,0,.28.67.67,0,0,0,.13.25c0,.06.06.1.13.13a.67.67,0,0,0,.81-.48.48.48,0,0,0-.34-.5,1,1,0,0,0-.25,0S53.08,97.83,53.13,97.81Z"/><path class="cls-4" d="M100.34,92.94a2.65,2.65,0,0,0-.89.66c0,.1,0,.2,0,.3a1.21,1.21,0,0,0,0,.5,1.75,1.75,0,0,0,.73.86,1.17,1.17,0,0,0,1.52-.74,1.39,1.39,0,0,0-.66-1.65,1.29,1.29,0,0,0-.75-.12C100.06,92.77,99.71,93,100.34,92.94Z"/><path class="cls-4" d="M111.55,84.93a2,2,0,0,0-.65.71,1.82,1.82,0,0,0,0,.33,1.13,1.13,0,0,0,0,.41,1.17,1.17,0,0,0,.69.56c.52.1,1-.74,1-1.17A.67.67,0,0,0,112,85C111.79,85,111.42,84.83,111.55,84.93Z"/><path d="M45.89,192.15c-.44-5.84-1.48-11.62-1.92-17.48a70,70,0,0,1,.13-11.49,34.67,34.67,0,0,0,.44-3.67,19.81,19.81,0,0,1,.16-2.33c.19-1.69-.11-3.51.17-5.19.78.6.82,2.14,1.76,2.83a3.59,3.59,0,0,0,2.27.76c-.25-.48-1-.71-1.44-1.1a6.64,6.64,0,0,1-1.12-1.74,5.18,5.18,0,0,1-.6-2.55c0-1.94-.27-4.52-2.53-5.09s-3.68,2.7-4.08,4.3c-.65,2.57-.86,5.22-1.28,7.86a75.08,75.08,0,0,0-.68,11.42c0,3.22-.21,6.63.46,9.79a30.87,30.87,0,0,1,.43,4.61,9.89,9.89,0,0,1-1.73,0c-.94.08-2,.37-2.92.53a15.78,15.78,0,0,0-3,1,12,12,0,0,0-2.68,1.19c-2.3,1.65-3.73,6.47-.93,8.36,1.63,1.1,4.18.67,6.05.67a29.92,29.92,0,0,0,5.8-.75A28.44,28.44,0,0,0,45.89,192.15Z"/><path d="M51,135.6c-1.34,2.19-2.56,3.66-2.27,6.19.14,1.19,1,2.24,1.35,3.39a5,5,0,0,1-2.73-3.82,9.36,9.36,0,0,0-.53,3.42,15.19,15.19,0,0,1-.6,3.35c-.45,1.46-.74,3.44-2.71,3.27-4.11-.37-3.48-5.3-2.58-8,.29-.88.82-1.68,1.16-2.53.46-1.15.86-2.31,1.39-3.43,1.5-3.18,3.35-6.11,5.07-9.16,1.42-2.53,2.5-5.06,5-6.75.69-.48,1.83-1.27,2.72-1.1s1.37,1.26,1.56,2.11c.53,2.35-.79,4.55-2.26,6.28-.73.87-1.34,1.84-2,2.73-.28.36-.6.69-.86,1.08S52.25,133.58,51,135.6Z"/><path d="M128,195a19.54,19.54,0,0,0-2.16-4.87c-.35-.51-.65-1.06-1-1.57a16.89,16.89,0,0,0-2.08-2.37c-1.17-1.12-2.42-2.22-3.64-3.3-2.44-2.18-2.67-5.56-2.7-8.61,0-3.29.25-6.68-.12-9.93-.12-1.08-.24-2.16-.34-3.25s.1-2.39,0-3.57c-.19-1.74-.23-3.57-.27-5.32,0-.46-.11-.85-.16-1.3s.1-1.15,0-1.71a5.61,5.61,0,0,1-.29-1.83c.89.53,1.65,1.18,2.56,1.69.48.28,1.5.84,2.09.66-.22-.4-1.36-1-1.8-1.25a8.8,8.8,0,0,1-1.74-1,4.82,4.82,0,0,1-1.15-2.78,2.55,2.55,0,0,0-2.23-2.14,3.74,3.74,0,0,0-2.85.31c-1.5,1-.87,3.69-.91,5.26a6.19,6.19,0,0,1-3,5.27c1.19.06,3.6-1.67,3.6-3a4.74,4.74,0,0,1,.25,1.68c0,.48,0,.95,0,1.43,0,.73.31,1.41.33,2.14,0,1.4,0,2.8,0,4.2,0,1.81.21,3.57.08,5.39-.24,3.52.08,7,.08,10.55v9.86c0,2.48.09,4.94.15,7.41a6.32,6.32,0,0,0,.85,2.74A2.41,2.41,0,0,0,114,197a38.55,38.55,0,0,0,4.81-.08,35.82,35.82,0,0,1,5.58-.07,16.26,16.26,0,0,0,3,.12A8.51,8.51,0,0,1,128,195Z"/><path d="M111.31,126.73c.61,1.24,1.26,2.82,2,4.08a7.28,7.28,0,0,1,.59,1,15.63,15.63,0,0,1,.47,2.18,21.71,21.71,0,0,1,.57,4.74c0,1.52,0,3,0,4.55,0,1.18.29,2.95-.3,4.05s-1.63,2.12-2.85,1.66-2.2-2.27-2.48-3.6c-.23-1.09-.39-2.23-.53-3.32a21.41,21.41,0,0,1-.3-3.09c-.32,1.71-1.84,3.48-3.74,3.37,1.63-1.27,4.12-3.09,3.36-5.54a16.3,16.3,0,0,0-.82-2.1,10.57,10.57,0,0,0-2.09-3.45,31.54,31.54,0,0,0-4.75-3.8c-.73-.47-1.48-.84-2.18-1.36a2.4,2.4,0,0,1-1.52-2.46,2.77,2.77,0,0,1,.86-2.33,6.82,6.82,0,0,1,3.25-1.68,5.7,5.7,0,0,1,5,.41c2.5,1.65,3.44,4.39,5,6.83a25.82,25.82,0,0,1,3,5.61,19.69,19.69,0,0,1,.94,6.43"/></g></g></svg>