<svg xmlns="http://www.w3.org/2000/svg" viewBox="0 0 147.8 292.41"><defs><style>.cls-1{fill:#dbcfc3;}.cls-2{fill:#fff;}</style></defs><g id="Capa_2" data-name="Capa 2"><g id="responsive"><rect class="cls-1" width="147.8" height="292.41" rx="14.95"/><path d="M11.53,203.53a23.1,23.1,0,0,1-1.2-6.07c-.08-2.61-.35-5.23-.48-7.84a148.18,148.18,0,0,1,.25-16.46,166.83,166.83,0,0,1,2.07-17.56A135.71,135.71,0,0,1,17.28,135,75.13,75.13,0,0,1,25,118.35a34.07,34.07,0,0,1,4.89-6.15,17.7,17.7,0,0,1,5.32-3.75,10.23,10.23,0,0,1,7.36-.45,6.28,6.28,0,0,1,.9.27c.61.31,1.19.68,1.78,1a.61.61,0,0,0,.37.14,7.62,7.62,0,0,1,3.55.76c.8.31,1.56.73,2.32,1.1-.22-3.32-.09-4.54.57-5.43.21.69.13,1.47.75,2a4.93,4.93,0,0,1-.34-3.1,1,1,0,0,0,0-.48,7.36,7.36,0,0,1-.17-3,.64.64,0,0,1,.54-.61,2,2,0,0,0,1.2-1,27,27,0,0,1,1.76-2.85c.83-1.22,1.77-2.36,2.56-3.6,1.78-2.79,3.5-5.6,5.24-8.41.53-.86,1-1.77,1.55-2.6.69-1,1.4-1.93,2-3,.88-1.53,2-3,2.89-4.45a23.74,23.74,0,0,0,2.47-3.92c0-.11.17-.19.26-.29a.88.88,0,0,1,.2,1,12.55,12.55,0,0,0-.11,3.72,67.32,67.32,0,0,0,.92,8.38c.12.78.23,1.57.42,2.33a18.09,18.09,0,0,1,.48,4.46,36,36,0,0,0,.33,4.4c.18,1.62.42,3.25.71,4.86a26.24,26.24,0,0,0,.77,3,1.54,1.54,0,0,1,0,1,4.55,4.55,0,0,0-.43,1.62,5.68,5.68,0,0,0,.75,1.63c.14.29.29.58.46.86a8.11,8.11,0,0,1,1.06,3.16c.13.86.19,1.74.28,2.61,0,.39.1.79.14,1.17a2.17,2.17,0,0,0,2.46-1,12.6,12.6,0,0,1,1.53-1.61c.14.69-.29,1-.58,1.29s-.6.75-.91,1.13c.11.08.15.14.2.14l6,.09c.49,0,1,0,1.47,0,.92.08,1.84.23,2.77.29,1.25.08,2.5.16,3.76.13,2.07,0,4.14-.18,6.21-.27a48.28,48.28,0,0,1,7.11.39c2.22.24,4.45.47,6.67.78q3,.44,5.87,1.06a3.34,3.34,0,0,0,2.35,0c.81-.39,1.46.07,1.65.94l3,.81,2.2.6c1.51.38,3,.68,4.52,1.15s2.8,1.08,4.19,1.64c.61.24.7.22,1.13-.26a2.35,2.35,0,0,0,.56-1.59c0-.23-.09-.55.31-.67a2.75,2.75,0,0,1-.84,2.89,6,6,0,0,1,.56.27,3.21,3.21,0,0,1,1.56,1.8,7.08,7.08,0,0,1,.18,1.78,3.38,3.38,0,0,1-2.26,3.19c-.62.2-1.25.37-1.88.55-.46,7.76-.57,15.5-.35,23.3a6.07,6.07,0,0,1,.79.22,6.73,6.73,0,0,1,1.2.5,5.19,5.19,0,0,1,1.54,6.95,3.62,3.62,0,0,1-5,1.13,4.91,4.91,0,0,1-2.25-3.38,4.37,4.37,0,0,1,2.89-5.23,2,2,0,0,0,.29-.15v-.77c0-1.88,0-3.76,0-5.65,0-1.12,0-2.24,0-3.36.07-3.35.12-6.71.22-10.07,0-1.06.17-2.11.26-3.17a1.45,1.45,0,0,0,0-.3,2.61,2.61,0,0,1-2.4-2.49,1.53,1.53,0,0,1,.28-1.15,3,3,0,0,1,2.18-1.12c-.12-.69.59-.83.76-1.29s.33-1,.51-1.48a25.49,25.49,0,0,0-5.95-2.21c-1.91-.45-3.8-1-5.7-1.45-.82-.2-1.65-.37-2.48-.55a.57.57,0,0,0-.72.36c-.07.16-.13.3-.19.46a18.7,18.7,0,0,0-.8,4.82s0,.09.09.19l.52,0c1.22.07,2.45.1,3.67.21s2.44.28,3.64.47a16.44,16.44,0,0,1,4,1.13,2.82,2.82,0,0,1,.31.21,1.12,1.12,0,0,1-.64,0c-.89-.25-1.77-.54-2.67-.73s-1.95-.25-2.9-.48a31,31,0,0,0-5.61-.42.7.7,0,0,0-.64.26c-.46.51-.74.49-1.31,0a.94.94,0,0,0-.47-.27,19.61,19.61,0,0,0-2-.17q-5.28-.1-10.56-.18c-1,0-2.09,0-3.12-.07a28.35,28.35,0,0,0-7.47.56.44.44,0,0,0-.22.09c-.2.23-.42.17-.68.12a2.24,2.24,0,0,0-.73,0c-2.45.36-4.91.72-7.36,1.1a13.22,13.22,0,0,0-1.34.35c-1.13.28-2.28.51-3.4.86-2,.62-3.93,1.33-5.9,1.95a24.92,24.92,0,0,0-4.89,1.87c-1.28.72-2.47,1.59-3.74,2.33a17.59,17.59,0,0,0-4.54,4,11,11,0,0,1-1,1.44,3.12,3.12,0,0,0-.8,1.71c0,.16-.11.31-.17.46a11,11,0,0,0-1.18,4.22,1.33,1.33,0,0,1-.1.56,11,11,0,0,0-.48,3.06c-.31,2.77-.64,5.53-.94,8.3a32.89,32.89,0,0,0-.38,4c.07,3.09.1,6.18,0,9.26a32.71,32.71,0,0,0,1.27,9.54,8.2,8.2,0,0,1,.31,1.18c.08.78,0,1.57.16,2.34.22,1.45.54,2.89.74,4.35.23,1.7.42,3.41.53,5.12.09,1.39.06,2.79,0,4.18a16.71,16.71,0,0,1-.2,2.12c-.08.47-.35.59-.77.38a3.62,3.62,0,0,1-.41-.27,6,6,0,0,0-2.5-1,28.55,28.55,0,0,0-3.34-.26,16.82,16.82,0,0,1-6-1.09,3.49,3.49,0,0,0-.54-.15c-.06.36-.13.65-.15.95-.18,3.21-.36,6.43-.52,9.65-.13,2.94-.23,5.88-.34,8.83a2.19,2.19,0,0,1-.55,1.42,1.86,1.86,0,0,0-.46,1.19c-.08,1.33-.21,2.66-.31,4-.15,2-.39,4.07-.43,6.11a114.29,114.29,0,0,0,.58,11.7,59.85,59.85,0,0,0,.9,6.81,22.21,22.21,0,0,1,.45,5.2c0,.3,0,.6,0,.9a1.16,1.16,0,0,0,.77,1.28,45.75,45.75,0,0,0,6,2.37c.74.25,1.5.49,2.24.75l2.45.92c.82.3,1.65.57,2.46.89.55.21.6.49.35,1a.87.87,0,0,1-.89.59,8.58,8.58,0,0,1-1.52-.23c-.5-.13-1-.39-1.46-.53-2.26-.62-4.54-1.16-6.77-1.86a43,43,0,0,0-4.71-1,4.27,4.27,0,0,1-1.78-.74,2.51,2.51,0,0,1-.32-2.87,1.7,1.7,0,0,0,.24-.91,48,48,0,0,0-.28-5.88c0-.66-.1-1.31-.18-2-.2-1.51-.42-3-.61-4.54-.08-.62-.1-1.25-.17-1.87-.31-2.74-.61-5.48-.94-8.21-.15-1.27-.41-2.53-.56-3.8a30.41,30.41,0,0,1-.49-5c.07-1.48.18-2.94.39-4.4a23.41,23.41,0,0,1,1.14-5,2.78,2.78,0,0,0,.2-1c0-1.17-.12-2.33-.19-3.5-.07-1.36-.09-2.73-.25-4.08-.3-2.44-.68-4.87-1-7.3,0-.23-.11-.46-.18-.75-.2.14-.36.24-.5.35-.58.46-1.13.95-1.73,1.38a6.07,6.07,0,0,1-1.93,1.15c-.7.2-1.38.5-2.07.77-.3.11-.62.24-.67.63-.16,1.19-.32,2.37-.49,3.55a25.62,25.62,0,0,0,.31,9.36,6.45,6.45,0,0,1,0,1.46c0,.38-.12.76-.12,1.14a36.67,36.67,0,0,1-.4,5.63,15.4,15.4,0,0,0-.1,2c-.09,3-.06,6.07-.3,9.08-.27,3.38-.19,6.77-.33,10.15-.05,1.28.11,2.56.15,3.84a38.45,38.45,0,0,1,0,6.87,2.26,2.26,0,0,0,.06.73c.14.72.29,1.44.47,2.16a1,1,0,0,0,.3.54c1.23,1.08,2.48,2.13,3.72,3.21s2.24,2,3.38,3,2.22,1.84,3.34,2.76a2.25,2.25,0,0,1,1,1.24,1.08,1.08,0,0,1-1.12,0A15.42,15.42,0,0,1,42,265.22c-1-.72-1.85-1.53-2.8-2.27s-2-1.47-3-2.26c-1.18-1-2.3-2-3.47-3a2.24,2.24,0,0,0-1.51-.71.72.72,0,0,1-.78-.69,3.53,3.53,0,0,1,0-.65c.07-2.9.16-5.79.22-8.68.06-2.27.08-4.54.14-6.8,0-1.75.14-3.5.16-5.24,0-2,0-4,0-6.06a50.65,50.65,0,0,0-.59-7.59,37.13,37.13,0,0,1-.52-5.36,2.48,2.48,0,0,1,.33-1.33,1.9,1.9,0,0,0,.29-1c-.11-1.58-.26-3.15-.43-4.73-.19-1.76-.42-3.52-.64-5.28-.06-.51-.12-1-.2-1.62-.71.18-1.35.31-2,.51-1.27.42-2.52.91-3.79,1.31-.75.24-1.54.36-2.31.55-1.27.31-2.53.66-3.8.93s-2.52.49-3.78.7c-.53.08-1.07.08-1.68.11A6.11,6.11,0,0,0,11.53,203.53ZM75.21,102.85c.25.26.53.51.82.8.2-.51.2-.51-.44-1.85a1.77,1.77,0,0,0,.12-.58c-.19-1.29-.42-2.56-.63-3.84,0-.26-.11-.52-.18-.82l-.72.18.11-.49h.64l-.16-1.12-.83.31a1.7,1.7,0,0,0,.67-1.56c-.13-1.71-.15-3.44-.38-5.14a27.88,27.88,0,0,0-.94-3.89,5.37,5.37,0,0,0-.78-1.19c.59-.39.56-1,.47-1.77-.17-1.21-.26-2.44-.4-3.66,0-.32.08-.69-.38-.9-.15-.07-.09-.59-.12-.9l.37.8,0-.9-.42.13a1.78,1.78,0,0,0,.26-1.5,16.84,16.84,0,0,1,0-1.88,4.8,4.8,0,0,0-.06-.91c-.28.37-.82.55-.6,1.23a.6.6,0,0,1-.55.74.7.7,0,0,0-.43.31c-.31.47-.58,1-.9,1.46-.66,1-1.35,2-2,3-.09.14-.23.25-.3.39a27.9,27.9,0,0,1-2.64,3.82c-.59.87-.52,1.25.34,1.88a1.85,1.85,0,0,1,.18.25l-.81.18-.14,1-.61-1a8.6,8.6,0,0,0-.92,1.09q-2.11,3.36-4.17,6.76a7.64,7.64,0,0,0-.45,1.26c-.61-.12-.88.39-1.18.87l-2.53,3.92c-.13.22-.25.45-.46.82.46,0,.77.12,1.07.12,1,0,2,0,3,0a7.78,7.78,0,0,0,2.14-.45c1.26-.5,2.48-1.14,3.72-1.7a7.77,7.77,0,0,1,1-.31,16,16,0,0,1-3.08,1.78c-.37.17-.76.32-1.13.48a5.8,5.8,0,0,1-2.46.54l-3.84-.08A1.83,1.83,0,0,0,52.54,102a1.22,1.22,0,0,0,.3.87A13.46,13.46,0,0,0,54.32,104a8,8,0,0,0,2.55,1.27c.93.23,1.86.41,2.8.58s1.71.25,2.53.37l3-4c-.35-.26-.77-.12-1.18-.07s-.8.07-1.21.11c-1,.08-1.95.18-2.92.22a19.92,19.92,0,0,1-2.44,0,2.31,2.31,0,0,1,1.37-.21c.4,0,.8-.06,1.2-.11.67-.08,1.34-.22,2-.27a8.49,8.49,0,0,0,2.18-.25,1.86,1.86,0,0,1,1.11.09,1.27,1.27,0,0,0,1.08-.07A13.62,13.62,0,0,1,68,101a4.42,4.42,0,0,1,4.07.35c.33.22.63.47,1,.71a6.39,6.39,0,0,1-.94-.48,3.87,3.87,0,0,0-3.29-.51,13.55,13.55,0,0,0-3,1.24,2.38,2.38,0,0,0-1.26,1.53,1.62,1.62,0,0,1-.53.8,7.32,7.32,0,0,0-1.48,2,23.22,23.22,0,0,0-1.37,3.22,5.92,5.92,0,0,0-.28,1c-.23.95-.45,1.9-.69,2.92a21.88,21.88,0,0,1-5.42-3.35,14,14,0,0,0,5.9,3.88c.17-.19.33-.46.41-.44.35.1.44.35.25.7H60.24a13.13,13.13,0,0,0-.12,3.47c.09.08.13.14.17.14a15.81,15.81,0,0,1,4.12,1,3.07,3.07,0,0,0,1.75.17,3,3,0,0,1,2,.44,6.19,6.19,0,0,1,1.89,1.74c.31.36.13.68,0,1a1,1,0,0,1-1,.4,6.45,6.45,0,0,1-1-.47,24.86,24.86,0,0,0-5.2-2.36c-.91-.28-1.77-.7-2.65-1.06a3.66,3.66,0,0,1-.44-.44c-.07-.08-.05-.23-.07-.36l-3.47-.79,0,.12,4,1.45c0,.67,0,1.34,0,2v1.13l-1-.34-.92-.94c.09.56.49.77.93.92l-.51.92,1,1.47.34.4c.25.39.53.7,1,.51a17.71,17.71,0,0,0,2.53,4.21,6.38,6.38,0,0,0,4.28,1.92c2.68.21,4.49-1.2,6.2-2.93a15,15,0,0,0,3-4.36,16.11,16.11,0,0,0,.61-2l-3.08-.74a.71.71,0,0,1-.49.79c-.66.31-1.26.76-1.91,1.11-.28.16-.6.59-.92.22s.21-.59.35-.89c0-.05,0-.11,0-.14-.73-.6-.74-.61.06-1.11.19-.12.41-.18.3-.58l-1.82-.44c-.65-.16-.71-.23-.73-.87a2.4,2.4,0,0,1,.82-1.9.79.79,0,0,1,1.09-.14,18.75,18.75,0,0,0,2.22,1,.9.9,0,0,0,.45.08,15,15,0,0,1,1.58-.36,4.49,4.49,0,0,0,2.74-1.65.75.75,0,0,0,.13-.52c-.12-2.15,0-4.36-.76-6.4a19.75,19.75,0,0,0-3-5.75c-.48-.59-1-1.1-1.58-1.64a2.8,2.8,0,0,1,.64.41c.71.74,1.39,1.5,2.1,2.28l.23-.45a8.45,8.45,0,0,1-1.83-2.61l0,0C74.48,102.06,74.84,102.46,75.21,102.85Zm-4.58,30c1.1-.65,2.14-1.39,3.26-2a24.69,24.69,0,0,1,4.49-1.74c2.08-.67,4.12-1.44,6.2-2.11,1-.33,2.12-.49,3.17-.8a51.11,51.11,0,0,1,8.61-1.45c.28,0,.28,0,.54-.32-.7-.21-.82-.2-1.18.21l-.35-.56a1.6,1.6,0,0,0,1.78-.77c0,.37,0,.55,0,.72,0,.48.08.6.56.53.91-.12,1.82-.3,2.74-.41s1.85-.16,2.77-.21c.65,0,1.3,0,2,0-.16-.71-.16-.71-1.23-.71l.48-.72-.33-.81a1.93,1.93,0,0,0,1.77-.55l-.05.88.92.73-1,.15L105.6,124c5.33.18,10.58-.08,15.9.48,0-.46-.06-.77-.08-1.09,0-1-.12-2-.13-2.94a4.39,4.39,0,0,1,.85-2.44c-.89-.65-5.43-1.56-7.58-1.51l-.22.93-.58-.86-.81.06a1.27,1.27,0,0,0-.26-.39,1,1,0,0,0-.47-.11c-1.69-.18-3.37-.32-5-.52-3.91-.48-7.8,0-11.7,0-1,0-1.91.05-2.86,0-1.36-.1-2.72-.3-4.08-.41-.62,0-1.25.06-1.87,0-1.45,0-2.89-.09-4.34-.14l-.65,0c-1,0-1.42.29-1.62,1.35a1.8,1.8,0,0,0-1.33,1.77c-.06.67-.19,1.34-.29,2.08l6.18,2.92.44-.69.13.06v.79l.95.86-1.06.1-.21,1.2-.63-.91-1,.13.56-.9a2.62,2.62,0,0,0-.58-.36c-1.7-.5-3.41-1-5.18-1.48a4.3,4.3,0,0,0-.3.68,10.83,10.83,0,0,1-2.2,4.34,13.8,13.8,0,0,1-4.12,3.82,5.6,5.6,0,0,1-2.72.74,16.16,16.16,0,0,1-4.6-.62,28.38,28.38,0,0,1-4.34-1.17c-.31-.13-.79.07-1.18.16s-.49.21-.83.35l.75.7-1,.17-.16,1-.51-.24a9.4,9.4,0,0,0-.31,1c-.29,1.28-.6,2.55-.81,3.84-.42,2.64-.77,5.29-1.16,7.94-.06.43-.18.85-.29,1.38l.63-.34,0,1,.92.71-1,.16-.17,1.07a2,2,0,0,1-.29-.23c-.09-.09-.16-.19-.32-.39-.22,1.18-.48,2.24-.61,3.32-.22,1.78-.43,3.58-.52,5.37-.13,2.42-.13,4.84-.21,7.26-.07,2-.19,3.92-.25,5.88,0,1,0,2.07,0,3.11.65.37,1-.15,1.45-.58v1l.9.71-1,.15-.24,1.23a5.22,5.22,0,0,0-.46-.75.53.53,0,0,0-.4-.17c-.12,0-.19.21-.28.33s0,.06,0,.08c-.06,1.56-.15,3.11-.15,4.66,0,1.31.17,2.62.13,3.93a20.39,20.39,0,0,1-.44,2.89c-.09.53-.3,1.05-.34,1.58A23.71,23.71,0,0,1,50,194.87a1.86,1.86,0,0,0-.12.38c0,.3-.07.6-.1,1a12.6,12.6,0,0,0,3.46,1.16,17.74,17.74,0,0,0,3.91.3,10.4,10.4,0,0,1,3.63.55c.66.22,1.27.58,2,.92A54.18,54.18,0,0,0,62.34,186l-.16,0-.14.51-1.22-.17.09.91.69.38.23-.45.12,0-.18,1.34-.63-.9-1,.06.5-.76-.34-.83c.88.25,1.36-.21,1.89-.82L61,179.76h-.18l-.09.87c-.28-.42-.74-.33-1.24-.27l.08.83.69.38.18-.41.12,0-.08,1.16c-.44-.07-.39-.52-.69-.73l-.94,0,.48-.75-.3-.76c.17,0,.29,0,.41,0,1,0,1.39-.62,1.27-1.52a52.55,52.55,0,0,1-.82-6.74c0-3.87-.06-7.75,0-11.63a29,29,0,0,1,.36-3.08c.29-2.47.58-4.93.86-7.4,0-.21,0-.42,0-.67-.87,0-.37.75-.67,1l-1.18-.9-.15-1.39a1.21,1.21,0,0,0,1.55-.56c.4.35-.3,1,.5,1.17.5-2.78.87-5.6,2.15-8.14l-.71-1.08-1,.14.52-.79-.29-.77c.63-.07,1.31.07,1.59-.79.32.53-.25,1.22.56,1.33l2.61-2.44v0A26.23,26.23,0,0,1,70.63,132.84Zm-44.94,27.9c.19,1.6.32,3.21.57,4.8.31,1.93.66,3.87,1.13,5.77.33,1.32.9,2.58,1.36,3.86,0,.07.06.19.11.2,1,.24,1.07,1.25,1.51,1.92.7,1.07,1.27,2.22,1.9,3.34a1.49,1.49,0,0,0,.31.3,15.44,15.44,0,0,1,4-5c-.48-1-1-2-1.42-3a17.74,17.74,0,0,1-.78-2.67,3.57,3.57,0,0,1-.34-1.74c0-.09-.18-.24-.4-.5l-.26,1.44-.63-.93-.94.11c.29-.53.73-1,0-1.59.46,0,.67,0,.88,0a1.06,1.06,0,0,0,.9-1.14,73.72,73.72,0,0,1-.13-8.67,44,44,0,0,1,1.27-8.07,2,2,0,0,0-.48-2.11l-.93.11.52-.82-.34-.73a1.93,1.93,0,0,0,1.74-.61l0,.65c.05,0,.12,0,.13-.07.66-2.33,1.29-4.67,2-7a1.61,1.61,0,0,0-.34-1.69l-1,.11.51-.82-.33-.72c.4,0,.73-.05,1.06-.11s.33-.68.87-.44c.24-.93.5-1.89.74-2.86.29-1.19.57-2.38.86-3.57l.27-1.19c0-.08,0-.18.06-.24a4.25,4.25,0,0,1,.35-.39c.07.15.23.31.21.45a12.54,12.54,0,0,1-.26,1.36c-.12.53-.26,1.05-.4,1.61.65-.15,1-.76,1.8-.74a2.39,2.39,0,0,1-.34.33l-1,.63a2.15,2.15,0,0,0-.94,1.54c-.23,1.28-.6,2.54-.89,3.82a3.82,3.82,0,0,0,0,.76,3.71,3.71,0,0,0-.4.74q-.87,3-1.71,6.06a25.72,25.72,0,0,1-.7,2.61c-.13.35.36.66-.09,1-.24.18-.22.7-.3,1.07s-.15.75-.23,1.12-.18.74-.26,1.12a1.1,1.1,0,0,0,0,.28c.65.44,1-.09,1.46-.66v1.12l1,.73-1,.16L36.1,153l-.56-.84c-.95,0-.93,0-1.12.86a48.45,48.45,0,0,0-.61,10.76,13,13,0,0,0,.25,3.25,33,33,0,0,0,2,6.08c.35.75.73,1.5,1.1,2.25.85-.29.44-.8.33-1.29a1.65,1.65,0,0,0,1.66-.6v.88l.93.76-1,.16-.2,1.19-.61-.92-.85.11c.26.26.41.39.54.55a1.84,1.84,0,0,1,.57,1.23.89.89,0,0,0,.07.4c.42.71.85,1.42,1.37,2.27l.38-.72c.12.2.2.26.19.32,0,.24,0,.48,0,.72l.9.73-.79.23c.72,1.18,1.36,2.36,2.15,3.41a5.36,5.36,0,0,0,1.56,1,.48.48,0,0,0,.24,0,9.12,9.12,0,0,1,1.28-.15,10.24,10.24,0,0,1,1.39.21c0-.37.11-.73.14-1.1.21-2.56.38-5.11.63-7.66.42-4.16.91-8.3,1.31-12.46.15-1.63.09-3.27.2-4.91.15-2.2.37-4.4.55-6.61a2.61,2.61,0,0,0,.05-.48c0-.53-.25-.68-.8-.59l-.48,0,.52-.78-.28-.7c.08-.05.12-.1.16-.1,1.13,0,1.19-.08,1.35-1.17.3-2,.6-4.1.92-6.15.09-.57.27-1.12.38-1.68a8.26,8.26,0,0,0,.07-.89,1.53,1.53,0,0,0,.33-.42,36,36,0,0,0,1.83-5h-.71l-.17,1.17-.63-.87-.95,0,.48-.75-.32-.8a1.85,1.85,0,0,0,1.76-.56l0,.9.68.48a2.69,2.69,0,0,0,.23-.44,25.18,25.18,0,0,0,1.22-6,5.9,5.9,0,0,0-.37-2.35c-.51.29-.2.81-.5,1.17l-.57-.83-1,.13.52-.79-.3-.77.58,0c.68,0,.88-.27.74-.93-.25-1.18-.54-2.34-.81-3.51a.53.53,0,0,0-.24-.35l-.21,1.09-.62-.9-1,.13.52-.79-.29-.77c.63-.06,1.35.07,1.54-.83-.45-1.08-.92-2.24-1.42-3.38,0-.08-.24-.08-.27-.09a5.32,5.32,0,0,0-.21-1,3.72,3.72,0,0,1-.7-1.89c0-.18-.28-.47-.49-.58a14,14,0,0,0-2-.84c-.87-.29-1.78-.49-2.67-.73l-.08.15L47.36,111l.64-.55v1l.47.37c.17.13.33.21.29.51s.22.41.36.6a5.73,5.73,0,0,1,.89,1.4c-.75-.6-1.21-1.49-2.12-2.16l-.23,1.33-.59-.87-1,0,.47-.78-.31-.67.48-.27a12.92,12.92,0,0,0-3.4-2.21c-.08.66.65.59.72,1.09l-.88.1L43,111.13l-.65-.92-1,.12c.39-.51.61-1,.18-1.54l1.08-.12,0-.14a5,5,0,0,0-.47-.22,9.18,9.18,0,0,0-5.79.13A14.66,14.66,0,0,0,31.89,111a29.52,29.52,0,0,0-5.77,6.45,66.32,66.32,0,0,0-7.22,14.47,131.76,131.76,0,0,0-6.41,25c-.13.8-.26,1.61-.38,2.42a3.84,3.84,0,0,0,0,.48c.65.38.92-.23,1.37-.58v1l.91.74-1,.19-.19,1.18-.57-.86c-.79,0-.83,0-.9.76-.35,3.61-.73,7.22-1,10.84a144.26,144.26,0,0,0-.25,17.52c.12,2.81.42,5.61.51,8.42a13.43,13.43,0,0,0,.81,3.05c.22.79.4,1.58.6,2.37.08.34.17.68.26,1.07.43-.06.81-.09,1.18-.16,1.53-.27,3.06-.54,4.58-.84.48-.1.94-.3,1.41-.42,1.09-.26,2.18-.49,3.26-.77.82-.22,1.62-.52,2.43-.75,1.36-.38,2.72-.81,4.1-1.1a25.72,25.72,0,0,0,5.21-1.67c.89-.4,1.82-.71,2.75-1.07.13-.54,1-1,.23-1.77a1.49,1.49,0,0,0,1.76-.8l.07,1.33a9.5,9.5,0,0,0,.9-.52A18.11,18.11,0,0,0,44,193.47a22.31,22.31,0,0,0,1.65-2.63c.46-.85.32-1.06-.63-1.05a8.8,8.8,0,0,1-3.44-.64,19,19,0,0,1-5.69-3.65c-.54-.51-1.05-1-1.57-1.56-.3-.29-.52-.65-1.05-.68-.22,0-.44-.43-.61-.69s-.19-.72-.7-.89c-.28-.1-.42-.67-.58-1a2.25,2.25,0,0,0-.94-1.08,2.59,2.59,0,0,1-.84-.87,32.41,32.41,0,0,1-3-7.59c-.35-1.28-.5-2.62-.74-3.94-.17-.93-.33-1.87-.51-2.84h-1l-.23,1.21-.63-.93-.91.14c.24-.5.64-1,.08-1.55a2.1,2.1,0,0,0,1.78-.62v.94l.82.53a2.6,2.6,0,0,0,.06-.41,73.37,73.37,0,0,1-.51-8.25c0-1.5.06-3,.13-4.49a2.48,2.48,0,0,0-.54-1.69l-1,.14.52-.79-.26-.7c.06,0,.09-.11.13-.11,1.18,0,1.3-.12,1.38-1.32.14-2,.24-4,.33-6s.1-3.87.18-5.81c.05-1,.18-2,.27-3,0-.52.06-1,.1-1.55a1.1,1.1,0,0,1,.2-.58,5.24,5.24,0,0,1,.18,2.19c.68.47,1-.09,1.52-.56v1l.9.72-1,.2-.19,1.14a5.72,5.72,0,0,1-.41-.63.38.38,0,0,0-.53-.23.75.75,0,0,0-.44.39,7,7,0,0,0-.13,1.21c-.13,3.8-.24,7.59-.38,11.38-.09,2.23-.21,4.47-.32,6.7,0,.25,0,.49,0,.7.64.41.78-.33,1.23-.48v1l.9.7-1,.16-.18,1.12-.71-.88c-.33.66-.3,3.35,0,5.51Zm10.32,20c-.53.84-1.21,1.59-1.87,2.44a28.43,28.43,0,0,0,3.17,3,14.38,14.38,0,0,0,4.17,2.53,7.21,7.21,0,0,0,3.43.57,1.28,1.28,0,0,1,.47.07c.41.12.81.28,1.22.37a.62.62,0,0,0,.82-.47c.09-.37.15-.74.2-1a4.15,4.15,0,0,0,.83-.66.53.53,0,0,0-.19-.83,5.77,5.77,0,0,0-2.22-.66l-1.2.15c-.18,0-.4.1-.54,0A4.54,4.54,0,0,1,42,184.59c-1-1.73-2.07-3.46-3.1-5.19l-.52-.84A6.77,6.77,0,0,0,36,180.73ZM139.56,124.3c.09.11-.39.29-.14.57s.33.36.16.66l-.31-.36-.33.68c-.69.08-1.43-.09-2.07.41a1.81,1.81,0,0,0,1.57,1.5c-.87.17-1.24-.09-1.81-1.21a1.25,1.25,0,0,0-.67,1.73c.48,1.17,1.06,1.88,2.54,1.6a5,5,0,0,0,2.9-1.18,3,3,0,0,0,.92-2,8,8,0,0,0,0-1,2.83,2.83,0,0,0-2.48-2.7C139.59,123.43,139.08,123.74,139.56,124.3Zm-55.94-1.22c-.29-.17-.46-.29-.64-.37-1.72-.82-3.44-1.65-5.17-2.43-.92-.41-1.89-.71-2.82-1.1-.72-.3-1.42-.65-2.14-1-.44-.21-.88-.42-1.34-.6a.83.83,0,0,0-1.14.27,1.78,1.78,0,0,0-.48,1.7Zm52.07,32.09a4.54,4.54,0,0,0,1.93,7.13,2.94,2.94,0,0,0,3.25-1,4.49,4.49,0,0,0-2-7,5,5,0,0,0-1-.13A2.9,2.9,0,0,0,135.69,155.17Zm-11.4-36.74-.88-.25c-.56-.13-.81-.08-1.06.45a4.6,4.6,0,0,0-.55,1.69,32.74,32.74,0,0,0,.1,3.43c0,.69.18.74,1,.61C123.34,122.41,123.11,120.31,124.29,118.43ZM36.94,177.32a3.29,3.29,0,0,1-.16-.7,13.8,13.8,0,0,0-2.22,2.24,16.05,16.05,0,0,0-1.17,1.78,2.67,2.67,0,0,0-.29,1.08.76.76,0,0,0,.38.55c.11.06.41-.09.53-.23.52-.56,1-1.17,1.48-1.75.66-.76,1.34-1.5,2-2.3C37.37,177.8,37.46,177.35,36.94,177.32Zm41-57.24a4.44,4.44,0,0,0,.38-2.57,3.45,3.45,0,0,0-1.93,2Zm-25.55,15,.63.36.66-.66-.43-.53h-1ZM38,174.27l.08.86.61.31.68-.6-.43-.57ZM26.83,132.85l.6.33.68-.61a1.05,1.05,0,0,0-1.38-.54ZM12.25,160.18l.09.86.58.3.69-.59-.4-.57Zm23.89-9.34H35.2l.07.86.61.31.68-.61Zm6.61-40.72.68-.58L43,109h-1l.11.85ZM23.22,163.37l.09.84.59.32.68-.58-.38-.58ZM63,139.15l.7-.61-.43-.57h-.93l.06.83ZM32.4,167.3l.09.84.59.32.67-.58-.37-.58Zm73.13-45.39h-.94l.07.84.6.34.7-.6ZM52.66,174.22l.58.31.68-.59-.39-.56h-1Zm2-47.83.56-.65-.31-.56H54L54,126Zm-1.3-6.06.54-.67-.29-.54h-1l.08.85ZM34.68,147l.51-.67-.26-.54H34l.07.83ZM26.8,154.6l-.43-.58-.84,0v.79l.58.36Zm33.68-6.46h-.92a1,1,0,0,0,.63,1.12l.72-.54Zm-23-11.23c0-.42.75-.71.14-1.23h-.91l.08.83ZM24.2,148.81l.72.39L25.1,148l-1-.09Zm22.55-37.45.06.82.68.39.3-.64C47.48,111.64,47.27,111.24,46.75,111.36Zm-7.43,85.87h-1l.13.94C38.8,197.83,39.45,198,39.32,197.23Zm10.21-46.49.07.87.64.25.17-1ZM55,147.23l-.44-.58c-.51.3-.57.57-.28,1.17Zm9.68-62.18-.52-.78-.45.81.5.41Zm20.25,39c-.72-.31-.72-.31-.94.15l.71.43Zm-27.07,6.64c-.25-.06-.51-.2-.64-.13-.34.2-.28.54-.14.84Zm-4.29-21.36.09,0-.35-.55-.1.06Zm70.95,8.74,0-.19-.8-.25-.07.25ZM35,151.19l-.17-.06-.18.5.21.08Z"/><path class="cls-2" d="M26.86,160.84l.58.86.18-1.17,1-.18-.88-.73v-1c-.5.48-1,.88-1.74.62.32.69.35,1.21-.32,1.52-.34-2.17-.37-4.86,0-5.52l.71.88.18-1.12,1-.16-.9-.7v-1c-.45.15-.59.89-1.23.48,0-.21,0-.45,0-.7.11-2.23.23-4.47.32-6.7.14-3.79.25-7.58.38-11.38a7,7,0,0,1,.13-1.21.75.75,0,0,1,.44-.39.38.38,0,0,1,.53.23,5.72,5.72,0,0,0,.41.63l.19-1.14,1-.2-.9-.72v-1c-.48.47-.84,1-1.52.56a5.24,5.24,0,0,0-.18-2.19,1.1,1.1,0,0,0-.2.58c0,.51-.06,1-.1,1.55-.09,1-.22,2-.27,3-.08,1.94-.1,3.88-.18,5.81s-.19,4-.33,6c-.08,1.2-.2,1.28-1.38,1.32,0,0-.07.06-.13.11l.26.7-.52.79,1-.14a2.48,2.48,0,0,1,.54,1.69c-.07,1.49-.13,3-.13,4.49a73.37,73.37,0,0,0,.51,8.25,2.6,2.6,0,0,1-.06.41l-.82-.53v-.94a2.1,2.1,0,0,1-1.78.62c.56.59.16,1.05-.08,1.55l.91-.14.63.93.23-1.21h1c.18,1,.34,1.91.51,2.84.24,1.32.39,2.66.74,3.94a32.41,32.41,0,0,0,3,7.59,2.59,2.59,0,0,0,.84.87,2.25,2.25,0,0,1,.94,1.08c.16.37.3.94.58,1,.51.17.49.57.7.89s.39.68.61.69c.53,0,.75.39,1.05.68.52.52,1,1.05,1.57,1.56a19,19,0,0,0,5.69,3.65,8.8,8.8,0,0,0,3.44.64c1,0,1.09.2.63,1.05A22.31,22.31,0,0,1,44,193.47,18.11,18.11,0,0,1,40.5,197a9.5,9.5,0,0,1-.9.52l-.07-1.33a1.49,1.49,0,0,1-1.76.8c.72.81-.1,1.23-.23,1.77-.93.36-1.86.67-2.75,1.07a25.72,25.72,0,0,1-5.21,1.67c-1.38.29-2.74.72-4.1,1.1-.81.23-1.61.53-2.43.75-1.08.28-2.17.51-3.26.77-.47.12-.93.32-1.41.42-1.52.3-3,.57-4.58.84-.37.07-.75.1-1.18.16-.09-.39-.18-.73-.26-1.07-.2-.79-.38-1.58-.6-2.37A13.43,13.43,0,0,1,11,199c-.09-2.81-.39-5.61-.51-8.42a144.26,144.26,0,0,1,.25-17.52c.29-3.62.67-7.23,1-10.84.07-.79.11-.8.9-.76.15.24.31.47.57.86l.19-1.18,1-.19-.91-.74v-1c-.45.35-.72,1-1.37.58a3.84,3.84,0,0,1,0-.48c.12-.81.25-1.62.38-2.42a131.76,131.76,0,0,1,6.41-25,66.32,66.32,0,0,1,7.22-14.47A29.52,29.52,0,0,1,31.89,111a14.66,14.66,0,0,1,4.54-2.56,9.18,9.18,0,0,1,5.79-.13,5,5,0,0,1,.47.22l0,.14-1.08.12c.43.56.21,1-.18,1.54l1-.12.65.92.18-1.21.88-.1c-.07-.5-.8-.43-.72-1.09a12.92,12.92,0,0,1,3.4,2.21l-.48.27.31.67-.47.78,1,0,.59.87.23-1.33c.91.67,1.37,1.56,2.12,2.16a5.73,5.73,0,0,0-.89-1.4c-.14-.19-.38-.42-.36-.6s-.12-.38-.29-.51l-.47-.37v-1l-.64.55-1.43-1.23.08-.15c.89.24,1.8.44,2.67.73a14,14,0,0,1,2,.84c.21.11.5.4.49.58a3.72,3.72,0,0,0,.7,1.89,5.32,5.32,0,0,1,.21,1s.24,0,.27.09c.5,1.14,1,2.3,1.42,3.38-.19.9-.91.77-1.54.83l.29.77-.52.79,1-.13.62.9.21-1.09a.53.53,0,0,1,.24.35c.27,1.17.56,2.33.81,3.51.14.66-.06.89-.74.93l-.58,0,.3.77-.52.79,1-.13.57.83c.3-.36,0-.88.5-1.17a5.9,5.9,0,0,1,.37,2.35,25.18,25.18,0,0,1-1.22,6,2.69,2.69,0,0,1-.23.44l-.68-.48,0-.9a1.85,1.85,0,0,1-1.76.56l.32.8-.48.75.95,0,.63.87.17-1.17h.71a36,36,0,0,1-1.83,5,1.53,1.53,0,0,1-.33.42,8.26,8.26,0,0,1-.07.89c-.11.56-.29,1.11-.38,1.68-.32,2.05-.62,4.1-.92,6.15-.16,1.09-.22,1.14-1.35,1.17,0,0-.08,0-.16.1l.28.7-.52.78.48,0c.55-.09.76.06.8.59a2.61,2.61,0,0,1-.05.48c-.18,2.21-.4,4.41-.55,6.61-.11,1.64-.05,3.28-.2,4.91-.4,4.16-.89,8.3-1.31,12.46-.25,2.55-.42,5.1-.63,7.66,0,.37-.09.73-.14,1.1a10.24,10.24,0,0,0-1.39-.21,9.12,9.12,0,0,0-1.28.15.48.48,0,0,1-.24,0,5.36,5.36,0,0,1-1.56-1c-.79-1.05-1.43-2.23-2.15-3.41l.79-.23-.9-.73c0-.24,0-.48,0-.72,0-.06-.07-.12-.19-.32l-.38.72c-.52-.85-1-1.56-1.37-2.27a.89.89,0,0,1-.07-.4,1.84,1.84,0,0,0-.57-1.23c-.13-.16-.28-.29-.54-.55l.85-.11.61.92.2-1.19,1-.16-.93-.76v-.88a1.65,1.65,0,0,1-1.66.6c.11.49.52,1-.33,1.29-.37-.75-.75-1.5-1.1-2.25a33,33,0,0,1-2-6.08,13,13,0,0,1-.25-3.25A48.45,48.45,0,0,1,34.42,153c.19-.87.17-.89,1.12-.86l.56.84.24-1.17,1-.16-1-.73v-1.12c-.45.57-.81,1.1-1.46.66a1.1,1.1,0,0,1,0-.28c.08-.38.18-.75.26-1.12s.14-.75.23-1.12.06-.89.3-1.07c.45-.36,0-.67.09-1a25.72,25.72,0,0,0,.7-2.61q.84-3,1.71-6.06a3.71,3.71,0,0,1,.4-.74,3.82,3.82,0,0,1,0-.76c.29-1.28.66-2.54.89-3.82a2.15,2.15,0,0,1,.94-1.54l1-.63a2.39,2.39,0,0,0,.34-.33c-.79,0-1.15.59-1.8.74.14-.56.28-1.08.4-1.61a12.54,12.54,0,0,0,.26-1.36c0-.14-.14-.3-.21-.45a4.25,4.25,0,0,0-.35.39c0,.06,0,.16-.06.24l-.27,1.19c-.29,1.19-.57,2.38-.86,3.57-.24,1-.5,1.93-.74,2.86-.54-.24-.56.39-.87.44s-.66.07-1.06.11l.33.72-.51.82,1-.11a1.61,1.61,0,0,1,.34,1.69c-.69,2.33-1.32,4.67-2,7,0,0-.08,0-.13.07l0-.65a1.93,1.93,0,0,1-1.74.61l.34.73-.52.82.93-.11a2,2,0,0,1,.48,2.11,44,44,0,0,0-1.27,8.07,73.72,73.72,0,0,0,.13,8.67,1.06,1.06,0,0,1-.9,1.14c-.21,0-.42,0-.88,0,.71.62.27,1.06,0,1.59l.94-.11.63.93.26-1.44c.22.26.42.41.4.5a3.57,3.57,0,0,0,.34,1.74,17.74,17.74,0,0,0,.78,2.67c.4,1,.94,2,1.42,3a15.44,15.44,0,0,0-4,5,1.49,1.49,0,0,1-.31-.3c-.63-1.12-1.2-2.27-1.9-3.34-.44-.67-.49-1.68-1.51-1.92-.05,0-.08-.13-.11-.2-.46-1.28-1-2.54-1.36-3.86-.47-1.9-.82-3.84-1.13-5.77-.25-1.59-.38-3.2-.57-4.8ZM18,140.16l.15,1,1,1.07.17-1,1.05-.18-.92-.74.06-.88c-.11,0-.22,0-.25,0a1,1,0,0,1-1.25.52s-.12.12-.19.18l.06,0a.12.12,0,0,0,.08,0Zm16.51-27.74-.93-.75.08-1a1.68,1.68,0,0,1-1.78.7l.31.85-.54.76,1-.1.61.89.24-1.18Zm-6.11,60.06,1.06-.06.62.9.21-1.18,1-.12c-.43-.54-1.29-.8-.78-1.74-.54.48-1,.85-1.73.67A1.09,1.09,0,0,1,28.37,172.48Zm-5.68,15.61.17-1.17,1-.18L23,186v-1c-.53.39-.92,1-1.82.47.4.75.39,1.25-.2,1.75l1.06-.09Zm14.38-17.45,1-.14.63.94.2-1.19,1-.14-.86-.74v-1c-.51.48-1,.9-1.81.55A1.21,1.21,0,0,1,37.07,170.64Zm-23.13,2.78.49-.09.41,0,.63.94.2-1.2.89-.12c-.07-.42-.52-.43-.75-.8v-1a1.64,1.64,0,0,1-1.66.73A1.63,1.63,0,0,1,13.94,173.42ZM33.25,184.2l-.89-.73v-1c-.51.43-.95.91-1.79.52a1.2,1.2,0,0,1-.24,1.72l1.06-.12.63,1,.21-1.25ZM46,182.9l-.91-.76v-1.09a1.49,1.49,0,0,1-1.69.75,1.15,1.15,0,0,1-.35,1.61l1.09-.12.54.81c.36-.31.09-.76.37-1.1Zm-11.46,7.38c-.6-.48-1.2-.86-.91-1.7a1.58,1.58,0,0,1-1.67.57c.16.6.38,1.14-.34,1.54l.21.08.84-.1.64.94.19-1.24Zm-5.06-75.59a1.52,1.52,0,0,1-1.75.71l.3.85-.52.79,1-.12.63.93.18-1.19,1.05-.14-.92-.75Zm7.28,43.45.63.93.21-1.17,1.07-.19c-.72-.42-1.18-.84-1-1.65a2.67,2.67,0,0,1-.64.54,3.25,3.25,0,0,1-.93.11c.07.49.45,1-.38,1.39l.24.14Zm-16.4-28,.29.83-.51.8.95-.14.65.9.2-1.16,1-.13-.9-.74v-1.11A1.47,1.47,0,0,1,20.39,130.17ZM20,179.47c.27.7.39,1.21-.32,1.7l1.11-.07.62.91.2-1.19.94-.11c-.19-.4-.56-.49-.82-.77v-1C21.2,179.41,20.79,179.9,20,179.47Zm12.51,15.44c.13.65.46,1.19-.34,1.55l.2.1.87-.05.62.91.2-1.19.94-.12c-.18-.39-.55-.49-.85-.81v-1.06C33.65,194.91,33.22,195.25,32.47,194.91ZM20.72,174.75l.56.83c.35-.31.09-.76.36-1.1l.95-.1-.9-.76v-1.09a1.51,1.51,0,0,1-1.69.75c.26.59.31,1.09-.22,1.5l.14.11Zm23.19-37.48v-1.08a1.51,1.51,0,0,1-1.73.68l.3.85-.52.79,1-.13.63.93.18-1.19,1.08-.14Zm-2.06,14.57c-.48.59-.94.93-1.7.67.24.62.35,1.13-.35,1.62l1.11-.07.62.92.19-1.2,1-.11c-.2-.4-.56-.49-.82-.78ZM45,126.75l.3.83-.54.76,1-.11.61.89.24-1.17,1-.12-.93-.75.06-.86-.15-.11A1.4,1.4,0,0,1,45,126.75ZM25.88,199l-.9-.73v-1a1.64,1.64,0,0,1-1.71.67c.23.59.4,1.11-.3,1.51l.18.08.86-.11.64,1,.2-1.24Zm-1.62-71.26,1-.12.63.92.19-1.18,1.06-.14-.91-.72v-1.06a1.39,1.39,0,0,1-1.75.6l.32.92ZM26,177.44l.21-1.19,1-.17-.91-.75,0-1c-.53.5-1,1-1.86.55.45.72.43,1.19-.2,1.69l1.11,0Zm19.17-2.66c-.47.59-.93.93-1.69.67.24.62.35,1.13-.36,1.63l1.11-.08.63.92.19-1.19,1-.12c-.2-.39-.57-.49-.83-.77ZM30.45,123.92l.19-1.2,1.05-.14-.92-.75.06-1.07a1.52,1.52,0,0,1-1.81.68l.36.87-.53.79,1-.12Zm7.12,17.52.33.88-.55.77,1-.11.6.9.24-1.18,1-.13-.92-.75.06-.86-.15-.09A1.31,1.31,0,0,1,37.57,141.44Zm8.72,24c.18.77.18.77-.26,1.46l1,0,.48.76h.15l.16-1,1-.17-.91-.75,0-1A2,2,0,0,1,46.29,165.43ZM40.67,192c.2.57.33,1.08-.16,1.58l.88-.08.63.93.2-1.21,1-.13c-.58-.46-1.16-.85-.93-1.69A1.5,1.5,0,0,1,40.67,192ZM29,140.21l.2-1.15,1-.18-.92-.75.08-1c-.55.47-1,.94-1.79.62l.32.87-.48.71h1Zm-8.12,5.08c-.54.54-1,1-1.79.67l.31.87-.48.7h1l.59.87.19-1.15,1.05-.18-.93-.75ZM39.08,119l.3.74-.51.74,1,0,.62.88.19-1.16,1.07-.14-.91-.73v-.93A2.57,2.57,0,0,1,39.08,119ZM11.85,188.26l-.49.72h1l.58.89.19-1.16,1.05-.18-.92-.74.07-1c-.54.45-1,.94-1.68.65l-.08.15Zm32.93-38.67-.5.76,1,0,.62.88.18-1.16,1.06-.14-.91-.74v-1.08a1.57,1.57,0,0,1-1.75.73ZM38,129.46l.05-.92c-1,.6-1,.6-1.73.66l.29.75-.51.73,1-.05.62.88.19-1.16.88-.11,0-.15Zm-13.5,7.47-.9-.74V135.1a1.57,1.57,0,0,1-1.75.75l.34.79-.5.77,1-.06.58.91.2-1.19Zm25.73-18.68-.9-.74v-1.09a1.57,1.57,0,0,1-1.75.75l.33.79-.49.77,1-.06.58.91.2-1.19Zm-37,76.09-.52.75,1-.06.61.88.19-1.15,1.08-.14-.92-.74v-1.07a1.57,1.57,0,0,1-1.76.7Zm23.91-70.11.51-.09-.91-.75.06-1c-.54.45-1,.94-1.69.64l.21,1.26,1.14,1,.14-1Zm0-11a3.66,3.66,0,0,1,.23.78,2.27,2.27,0,0,1-.21.62l1.41.31.17-.45,1-.11c-.61-.47-1.17-.86-.94-1.7A1.41,1.41,0,0,1,37,113.25ZM15.64,152c-.15-.23-.75-.13-.65-.91l-.65,1,.91-.07.62.89.19-1.16,1.05-.14-.92-.76.06-1-1.07.86.67,0,.49.54Z"/><path class="cls-2" d="M66.6,134.83l1.06-.12-.89-.73v-1a1.67,1.67,0,0,1-1.73.67c.27.6.4,1.11-.28,1.52l.19.08.79-.1c.41.18.26.89.87.76L64,138.32c-.81-.11-.24-.8-.56-1.33-.28.86-1,.72-1.59.79l.29.77-.52.79,1-.14.71,1.08c-1.28,2.54-1.65,5.36-2.15,8.14-.8-.13-.1-.82-.5-1.17a1.21,1.21,0,0,1-1.55.56l.15,1.39,1.18.9c.3-.28-.2-1,.67-1,0,.25,0,.46,0,.67-.28,2.47-.57,4.93-.86,7.4a29,29,0,0,0-.36,3.08c0,3.88,0,7.76,0,11.63a52.55,52.55,0,0,0,.82,6.74c.12.9-.32,1.54-1.27,1.52-.12,0-.24,0-.41,0l.3.76-.48.75.94,0c.3.21.25.66.69.73l.08-1.16-.12,0-.18.41-.69-.38-.08-.83c.5-.06,1-.15,1.24.27l.09-.87H61l1.2,5.55c-.53.61-1,1.07-1.89.82l.34.83-.5.76,1-.06.63.9.18-1.34-.12,0-.23.45-.69-.38-.09-.91,1.22.17.14-.51.16,0a54.18,54.18,0,0,1,.45,13.11c-.75-.34-1.36-.7-2-.92a10.4,10.4,0,0,0-3.63-.55,17.74,17.74,0,0,1-3.91-.3,12.6,12.6,0,0,1-3.46-1.16c0-.36.06-.66.1-1a1.86,1.86,0,0,1,.12-.38,23.71,23.71,0,0,0,1.53-6.76c0-.53.25-1.05.34-1.58a20.39,20.39,0,0,0,.44-2.89c0-1.31-.14-2.62-.13-3.93,0-1.55.09-3.1.15-4.66,0,0,0-.06,0-.08s.16-.3.28-.33a.53.53,0,0,1,.4.17,5.22,5.22,0,0,1,.46.75l.24-1.23,1-.15-.9-.71v-1c-.46.43-.8.95-1.45.58,0-1,0-2.08,0-3.11.06-2,.18-3.92.25-5.88.08-2.42.08-4.84.21-7.26.09-1.79.3-3.59.52-5.37.13-1.08.39-2.14.61-3.32.16.2.23.3.32.39a2,2,0,0,0,.29.23l.17-1.07,1-.16-.92-.71,0-1-.63.34c.11-.53.23-1,.29-1.38.39-2.65.74-5.3,1.16-7.94.21-1.29.52-2.56.81-3.84a9.4,9.4,0,0,1,.31-1l.51.24.16-1,1-.17-.75-.7c.34-.14.58-.28.83-.35s.87-.29,1.18-.16A28.38,28.38,0,0,0,64.13,131a16.16,16.16,0,0,0,4.6.62,5.6,5.6,0,0,0,2.72-.74A13.8,13.8,0,0,0,75.57,127a10.83,10.83,0,0,0,2.2-4.34,4.3,4.3,0,0,1,.3-.68c1.77.5,3.48,1,5.18,1.48a2.62,2.62,0,0,1,.58.36l-.56.9,1-.13.63.91.21-1.2,1.06-.1-.95-.86v-.79l-.13-.06-.44.69-6.18-2.92c.1-.74.23-1.41.29-2.08a1.8,1.8,0,0,1,1.33-1.77c.2-1.06.58-1.37,1.62-1.35l.65,0c1.45,0,2.89.11,4.34.14.62,0,1.25-.09,1.87,0,1.36.11,2.72.31,4.08.41,1,.07,1.91,0,2.86,0,3.9-.07,7.79-.53,11.7,0,1.68.2,3.36.34,5,.52a1,1,0,0,1,.47.11,1.27,1.27,0,0,1,.26.39l.81-.06.58.86.22-.93c2.15,0,6.69.86,7.58,1.51a4.39,4.39,0,0,0-.85,2.44c0,1,.08,2,.13,2.94,0,.32,0,.63.08,1.09-5.32-.56-10.57-.3-15.9-.48l.09-1.09,1-.15-.92-.73.05-.88a1.93,1.93,0,0,1-1.77.55l.33.81-.48.72c1.07,0,1.07,0,1.23.71-.66,0-1.31,0-2,0-.92,0-1.85.11-2.77.21s-1.83.29-2.74.41c-.48.07-.58-.05-.56-.53,0-.17,0-.35,0-.72a1.6,1.6,0,0,1-1.78.77l.35.56c.36-.41.48-.42,1.18-.21-.26.29-.26.29-.54.32a51.11,51.11,0,0,0-8.61,1.45c-1,.31-2.14.47-3.17.8-2.08.67-4.12,1.44-6.2,2.11a24.69,24.69,0,0,0-4.49,1.74c-1.12.62-2.16,1.36-3.26,2a26.23,26.23,0,0,0-4,3.06Zm-9.33,7.64.61.11-.2.82c.56.07,1.15,0,1.48.66l.17-1,1-.14-.92-.75.06-1.05c-.51.56-1,1-1.6.61Zm-.17,11.1-.91-.75v-.94a2.05,2.05,0,0,1-1.69.64l.26.77-.5.8,1-.14.62.91.21-1.2Zm26.76-36.16.07-1c-.54.51-1,.94-1.8.59l.34.93-.54.76,1-.11.61.9.24-1.18,1-.12ZM57.28,170.5l.63,1,.2-1.21,1-.16-.87-.71v-1a1.67,1.67,0,0,1-1.75.67,1.41,1.41,0,0,1,0,1.62Zm-4.2,10.28,1.09-.11.63.94.2-1.22,1-.12c-.6-.46-1.17-.85-.9-1.69a1.62,1.62,0,0,1-1.81.54A1.07,1.07,0,0,1,53.08,180.78Zm4.67-18.17c-.48.44-.92.82-1.69.55.21.61.35,1.12-.14,1.61l.88-.05.62.9.2-1.17,1.07-.19C58,163.85,57.51,163.43,57.75,162.61ZM116,121.41l.09-1c-.55.5-1,.95-1.79.64l.31.87-.47.71h1l.58.88.19-1.16,1.05-.18Zm-26.46,1.15.33.81-.49.76,1,0,.62.88.18-1.16,1.07-.14-.92-.74v-1.08A1.55,1.55,0,0,1,89.51,122.56ZM55.59,192.27h1l.6.86.19-1.15,1-.15-.94-.78.08-1c-.53.56-1,.94-1.78.69l.31.86Zm55.91-72.06-.92-.75.06-1a3.64,3.64,0,0,1-.78.61,3.73,3.73,0,0,1-1,.11l.33.73-.49.72h1l.58.9.2-1.18Zm-15.6-2.94c-.54.54-1,1-1.78.67l.31.87-.48.7h1l.6.86.19-1.14,1-.18-.92-.75ZM59,136.37v-1.08a1.54,1.54,0,0,1-1.75.7l.34.83-.51.75,1-.06.62.88.19-1.16.89-.11.05-.16Z"/><path class="cls-2" d="M59.23,121.81l1,.34V121c0-.67,0-1.34,0-2v0c.88.36,1.74.78,2.65,1.06a24.86,24.86,0,0,1,5.2,2.36,6.45,6.45,0,0,0,1,.47,1,1,0,0,0,1-.4c.13-.3.31-.62,0-1a6.19,6.19,0,0,0-1.89-1.74,3,3,0,0,0-2-.44,3.07,3.07,0,0,1-1.75-.17,15.81,15.81,0,0,0-4.12-1s-.08-.06-.17-.14a13.13,13.13,0,0,1,.12-3.47h1.07c.19-.35.1-.6-.25-.7-.08,0-.24.25-.41.44a14,14,0,0,1-5.9-3.88,21.88,21.88,0,0,0,5.42,3.35c.24-1,.46-2,.69-2.92a5.92,5.92,0,0,1,.28-1,23.22,23.22,0,0,1,1.37-3.22,7.32,7.32,0,0,1,1.48-2,1.62,1.62,0,0,0,.53-.8,2.38,2.38,0,0,1,1.26-1.53,13.55,13.55,0,0,1,3-1.24,3.87,3.87,0,0,1,3.29.51A6.39,6.39,0,0,0,73,102l0,0c.53.55,1.1,1.06,1.58,1.65a19.75,19.75,0,0,1,3,5.75c.74,2,.64,4.25.76,6.4a.75.75,0,0,1-.13.52A4.49,4.49,0,0,1,75.52,118a15,15,0,0,0-1.58.36.9.9,0,0,1-.45-.08,18.75,18.75,0,0,1-2.22-1,.79.79,0,0,0-1.09.14,2.4,2.4,0,0,0-.82,1.9c0,.64.08.71.73.87l1.82.44c.11.4-.11.46-.3.58-.8.5-.79.51-.06,1.11,0,0,0,.09,0,.14-.14.3-.67.52-.35.89s.64-.06.92-.22c.65-.35,1.25-.8,1.91-1.11a.71.71,0,0,0,.49-.79l3.08.74a16.11,16.11,0,0,1-.61,2,15,15,0,0,1-3,4.36c-1.71,1.73-3.52,3.14-6.2,2.93a6.38,6.38,0,0,1-4.28-1.92A17.71,17.71,0,0,1,61,125.09c-.47.19-.75-.12-1-.51l.32.15c-.14-.31-.29-.57-.66-.55l-1-1.47.52-.92Zm6-6.07a1.53,1.53,0,0,0,2-.56,3.59,3.59,0,0,0-.31-4,1.48,1.48,0,0,0-2.56.13,4.24,4.24,0,0,0-.59,2.43C63.75,114.52,64.38,115.21,65.22,115.74Zm8.51-.47a1.39,1.39,0,0,0,1.28,1c.6.07.94-.34,1.21-.8a3.08,3.08,0,0,0,.16-2.68,1.76,1.76,0,0,0-.33-.56c-1-1.08-2-.68-2.34.36-.14.4-.21.83-.31,1.23A13.92,13.92,0,0,0,73.73,115.27Zm-9.92-6.36a.62.62,0,0,1,.31-.21,21.13,21.13,0,0,1,2.73-.31,4.16,4.16,0,0,1,1.33.44,1.45,1.45,0,0,0-.74-1.49c-1.12-.74-2.14-.29-3.15.22a2.52,2.52,0,0,0-.73.51,4.23,4.23,0,0,0-.49.75C63.3,109.06,63.52,109.21,63.81,108.91Zm11.63.43.25.47,1.2-.3c0-.09.08-.22,0-.29a3.14,3.14,0,0,0-2.15-1.48.57.57,0,0,0-.74.44c-.1.39-.16.79-.26,1.25C74.42,109.58,74.94,109.83,75.44,109.34Zm-8.31,14.45c1.42.32,2.85.68,4.28,1a3.19,3.19,0,0,0,1.92-.27,3.32,3.32,0,0,0,.56-.47c-.31,0-.46-.11-.56-.07a5.33,5.33,0,0,1-3.44-.07c-.9-.19-1.78-.47-2.76-.74Zm-6.79,0c-.52-.43.51-.86,0-1.29l-.37.71c-.52-.23-.16-.62-.29-.9l-.47.41a4.08,4.08,0,0,0,1.73,1.83l-.16-.88Z"/><path class="cls-2" d="M72.08,76.43c0,.31,0,.83.12.9.46.21.34.58.38.9.14,1.22.23,2.45.4,3.66.09.72.12,1.38-.47,1.77a5.37,5.37,0,0,1,.78,1.19,27.88,27.88,0,0,1,.94,3.89c.23,1.7.25,3.43.38,5.14a1.7,1.7,0,0,1-.67,1.56l0,0-.26.08c.18.3.7.31.58.77v0l-.11.49.72-.18c.07.3.13.56.18.82.21,1.28.44,2.55.63,3.84a1.77,1.77,0,0,1-.12.58l-1-1.36-.51-.93,0,0c-.37-.46-.7-1-1.11-1.38a1.16,1.16,0,0,0-.74-.25c-.7,0-1.41,0-2.22,0l.37-.44c-.55-.22-1-.53-.87-1.3a1.37,1.37,0,0,1-1.51.61c.07.17.1.26.14.35.19.4.1.62-.32.65a11.06,11.06,0,0,1-1.15,0h0a2.42,2.42,0,0,0-1.83,0l0,0A7.77,7.77,0,0,0,64,98c-1.24.56-2.46,1.2-3.72,1.7a7.78,7.78,0,0,1-2.14.45c-1,.08-2,0-3,0-.3,0-.61-.07-1.07-.12.21-.37.33-.6.46-.82l2.53-3.92c.3-.48.57-1,1.18-.87a7.64,7.64,0,0,1,.45-1.26q2.05-3.41,4.17-6.76a8.6,8.6,0,0,1,.92-1.09l.61,1,.14-1,.81-.18a1.85,1.85,0,0,0-.18-.25c-.86-.63-.93-1-.34-1.88a27.9,27.9,0,0,0,2.64-3.82c.07-.14.21-.25.3-.39.68-1,1.37-2,2-3,.32-.48.59-1,.9-1.46a.7.7,0,0,1,.43-.31.6.6,0,0,0,.55-.74c-.22-.68.32-.86.6-1.23a4.8,4.8,0,0,1,.06.91,16.84,16.84,0,0,0,0,1.88,1.75,1.75,0,0,1-.26,1.49ZM57.69,99l.31.48c0-.65.06-1.11.87-1.23l-.93-.4-.09-.6-1,.76v1.09l.84-.1ZM69.63,83l.12-.07-.09-.85.69-.4v-.14l-.89-.13-.65-1.2c-.37.71-.49,1.41-1.37,1.62l.73.57.13.91.55-.87h.26Zm1.63,6.43c-.58-.5-1.18-.88-.89-1.72a1.49,1.49,0,0,1-1.7.56c.22.61.35,1.13-.13,1.61l.88,0,.62.9.2-1.2Zm-8.46,4-1.24.63-.29,1.29.8-.22.45.8.18-.69.72-.1C62.87,94.68,62.92,94,62.8,93.46Z"/><path class="cls-2" d="M76,103.65c-.29-.29-.57-.54-.82-.8s-.73-.79-1.09-1.18l-.32-.61c0,.3,0,.52.34.59A8.45,8.45,0,0,0,76,104.26l-.23.45c-.71-.78-1.39-1.54-2.1-2.28A3.22,3.22,0,0,0,73,102l0,0c-.32-.24-.62-.49-1-.71A4.42,4.42,0,0,0,68,101a13.62,13.62,0,0,0-1.6.63,1.27,1.27,0,0,1-1.08.07,1.86,1.86,0,0,0-1.11-.09,8.49,8.49,0,0,1-2.18.25c-.68,0-1.35.19-2,.27-.4,0-.8.1-1.2.11a2.31,2.31,0,0,0-1.37.21,19.92,19.92,0,0,0,2.44,0c1,0,1.95-.14,2.92-.22.41,0,.81-.06,1.21-.11s.83-.19,1.18.07l-3,4c-.82-.12-1.68-.22-2.53-.37s-1.87-.35-2.8-.58A8,8,0,0,1,54.32,104a13.46,13.46,0,0,1-1.48-1.13,1.22,1.22,0,0,1-.3-.87,1.83,1.83,0,0,1,1.91-1.59l3.84.08a5.8,5.8,0,0,0,2.46-.54c.37-.16.76-.31,1.13-.48A16,16,0,0,0,65,97.71l0,0h1.8l2.24.39,0,0c.51,0,1,.09,1.53.12.22,0,.44,0,.66,0a2.72,2.72,0,0,1,2.8,1.22s.14.07.21.1l0,0,.51.93,1,1.36C76.23,103.14,76.23,103.14,76,103.65Zm-20-.6.16.18a1.37,1.37,0,0,0,.18.16,9.83,9.83,0,0,0,2.9,1.44c.25.09.53.16.65-.3A14.84,14.84,0,0,1,56,103.05Zm12.39-2.88c-.85.15-1.63-.62-2.5-.19,1,.24,2,.86,3.16.42v-.18A2.56,2.56,0,0,0,68.42,100.17Z"/><path class="cls-2" d="M38.35,178.56A6.77,6.77,0,0,0,36,180.73c-.53.84-1.21,1.59-1.87,2.44a28.43,28.43,0,0,0,3.17,3,14.38,14.38,0,0,0,4.17,2.53,7.21,7.21,0,0,0,3.43.57,1.28,1.28,0,0,1,.47.07c.41.12.81.28,1.22.37a.62.62,0,0,0,.82-.47c.09-.37.15-.74.2-1a4.15,4.15,0,0,0,.83-.66.53.53,0,0,0-.19-.83,5.77,5.77,0,0,0-2.22-.66l-1.2.15c-.18,0-.4.1-.54,0A4.54,4.54,0,0,1,42,184.59c-1-1.73-2.07-3.46-3.1-5.19Z"/><path class="cls-2" d="M142.29,125.69a8,8,0,0,1,0,1,3,3,0,0,1-.92,2,5,5,0,0,1-2.9,1.18c-1.48.28-2.06-.43-2.54-1.6a1.25,1.25,0,0,1,.67-1.73c.57,1.12.94,1.38,1.81,1.21a1.81,1.81,0,0,1-1.57-1.5c.64-.5,1.38-.33,2.07-.41l.33-.68.31.36c.17-.3,0-.48-.16-.66s.23-.46.14-.57c-.48-.56,0-.87.25-1.31A2.83,2.83,0,0,1,142.29,125.69Zm-4.44,3.39-1.17-.84C137.07,128.9,137.23,129,137.85,129.08Z"/><path class="cls-2" d="M69.89,119.57l13.73,3.51c-.29-.17-.46-.29-.64-.37-1.72-.82-3.44-1.65-5.17-2.43-.92-.41-1.89-.71-2.82-1.1-.72-.3-1.42-.65-2.14-1-.44-.21-.88-.42-1.34-.6a.83.83,0,0,0-1.14.27A1.78,1.78,0,0,0,69.89,119.57Z"/><path class="cls-2" d="M138.85,154.36a4.49,4.49,0,0,1,2,7,2.94,2.94,0,0,1-3.25,1,4.54,4.54,0,0,1-1.93-7.13,2.9,2.9,0,0,1,2.2-.94A5,5,0,0,1,138.85,154.36Zm-1.74,6.87a2.42,2.42,0,0,0,3.76-1.18,3.93,3.93,0,0,0-2.36-5.24,2,2,0,0,0-2,.51,3.51,3.51,0,0,0-1.07,2.85A3.8,3.8,0,0,0,137.11,161.23Z"/><path class="cls-2" d="M122.91,124.36c.43-2,.2-4,1.38-5.93l-.88-.25c-.56-.13-.81-.08-1.06.45a4.6,4.6,0,0,0-.55,1.69,32.74,32.74,0,0,0,.1,3.43C122,124.44,122.08,124.49,122.91,124.36Z"/><path class="cls-2" d="M37.53,178c-.16-.19-.07-.64-.59-.67a3.29,3.29,0,0,1-.16-.7,13.8,13.8,0,0,0-2.22,2.24,16.05,16.05,0,0,0-1.17,1.78,2.67,2.67,0,0,0-.29,1.08.76.76,0,0,0,.38.55c.11.06.41-.09.53-.23.52-.56,1-1.17,1.48-1.75C36.15,179.53,36.83,178.79,37.53,178Z"/><path class="cls-2" d="M76.39,119.52l1.55.56a4.44,4.44,0,0,0,.38-2.57A3.45,3.45,0,0,0,76.39,119.52Z"/><path class="cls-2" d="M60.21,119a3.66,3.66,0,0,1-.44-.44c-.07-.08-.05-.23-.07-.36l-3.47-.79,0,.12,4,1.45Z"/><path class="cls-2" d="M52.3,134.3l.09.83.63.36.66-.66-.43-.53Z"/><path class="cls-2" d="M38.92,174.27H38l.08.86.61.31.68-.6Z"/><path class="cls-2" d="M26.73,132l.1.82.6.33.68-.61A1.05,1.05,0,0,0,26.73,132Z"/><path class="cls-2" d="M13.21,160.18h-1l.09.86.58.3.69-.59Z"/><path class="cls-2" d="M36.56,151.4l-.42-.56H35.2l.07.86.61.31Z"/><path class="cls-2" d="M42.17,109.82l.58.3.68-.58L43,109h-1Z"/><path class="cls-2" d="M24.2,163.37h-1l.09.84.59.32.68-.58Z"/><path class="cls-2" d="M62.38,138.8l.6.35.7-.61-.43-.57h-.93Z"/><path class="cls-2" d="M33.38,167.3h-1l.09.84.59.32.67-.58Z"/><path class="cls-2" d="M106,122.49l-.43-.58h-.94l.07.84.6.34Z"/><path class="cls-2" d="M52.55,173.38l.11.84.58.31.68-.59-.39-.56Z"/><path class="cls-2" d="M54,126l.63.37.56-.65-.31-.56H54Z"/><path class="cls-2" d="M52.72,120l.64.36.54-.67-.29-.54h-1Z"/><path class="cls-2" d="M34,146.66l.65.38.51-.67-.26-.54H34Z"/><path class="cls-2" d="M26.11,155.22l.69-.62-.43-.58-.84,0v.79Z"/><path class="cls-2" d="M60.91,148.72l-.43-.58h-.92a1,1,0,0,0,.63,1.12Z"/><path class="cls-2" d="M36.82,136.51l.69.4c0-.42.75-.71.14-1.23h-.91Z"/><path class="cls-2" d="M24.12,148l.08.86.72.39L25.1,148Z"/><path class="cls-2" d="M47.79,111.93c-.31-.29-.52-.69-1-.57l.06.82.68.39Z"/><path class="cls-2" d="M38.43,198.17c.37-.34,1-.22.89-.94h-1Z"/><path class="cls-2" d="M50.41,150.82l-.88-.08.07.87.64.25Z"/><path class="cls-2" d="M54.28,147.82l.72-.59-.44-.58C54.05,147,54,147.22,54.28,147.82Z"/><path class="cls-2" d="M64.21,85.49l.47-.44-.52-.78-.45.81Z"/><path class="cls-2" d="M74.29,96.25h.64l-.16-1.12-.83.31,0,0,.36.32a.31.31,0,0,1,0,.53Z"/><path class="cls-2" d="M84.7,124.62l.23-.58c-.72-.31-.72-.31-.94.15Z"/><path class="cls-2" d="M57.08,131.39l.78-.71c-.25-.06-.51-.2-.64-.13C56.88,130.75,56.94,131.09,57.08,131.39Z"/><path class="cls-2" d="M59.23,121.81l-.92-.94c.09.56.49.77.93.92Z"/><path d="M60,124.58l.32.15c-.14-.31-.29-.57-.66-.55Z"/><path class="cls-2" d="M53.21,108.78l.36.54.09,0-.35-.55Z"/><path class="cls-2" d="M123.7,117.87l.82.19,0-.19-.8-.25Z"/><path class="cls-2" d="M34.86,151.71l.14-.52-.17-.06-.18.5Z"/><path class="cls-2" d="M72.08,76.43l.37.8,0-.9-.42.12Z"/><path d="M33.22,113.72l-.61-.89-1,.1.54-.76-.31-.85a1.68,1.68,0,0,0,1.78-.7l-.08,1,.93.75-1,.12Zm-.23-1,.71-.59-.43-.59h-1l.08.84Z"/><path d="M30.44,170.28c-.51.94.35,1.2.78,1.74l-1,.12-.21,1.18-.62-.9-1.06.06a1.09,1.09,0,0,0,.34-1.53C29.45,171.13,29.9,170.76,30.44,170.28Zm-.36.89h-.94l.06.86.61.29.69-.61Z"/><path d="M21,187.25c.59-.5.6-1,.2-1.75.9.5,1.29-.08,1.82-.47v1l.87.73-1,.18-.17,1.17-.63-.93Zm.84-.48.59.3.67-.58c-.22-.7-.78-.63-1.35-.57Z"/><path d="M39.08,168.37v1l.86.74-1,.14-.2,1.19-.63-.94-1,.14a1.21,1.21,0,0,0,.2-1.72C38.11,169.27,38.57,168.85,39.08,168.37Zm-.3.91h-1l.11.84.58.31.69-.59Z"/><path d="M15.81,171.1v1c.23.37.68.38.75.8l-.89.12-.2,1.2-.63-.94-.41,0-.49.09a1.63,1.63,0,0,0,.21-1.59A1.64,1.64,0,0,0,15.81,171.1Zm.11,1.55-.41-.6h-1l.09.84.57.32Z"/><path d="M32,185.56l-.63-1-1.06.12a1.2,1.2,0,0,0,.24-1.72c.84.39,1.28-.09,1.79-.52v1l.89.73-1,.11Zm-.24-1,.67-.58-.38-.57h-1l.11.85Z"/><path d="M44.71,184.1l-.54-.81-1.09.12a1.15,1.15,0,0,0,.35-1.61,1.49,1.49,0,0,0,1.69-.75v1.09l.91.76-1,.1C44.8,183.34,45.07,183.79,44.71,184.1Zm.14-2h-1l.1.84.58.31.69-.59Z"/><path d="M33.34,191.61l-.64-.94-.84.1-.21-.08c.72-.4.5-.94.34-1.54a1.58,1.58,0,0,0,1.67-.57c-.29.84.31,1.22.91,1.7l-1,.09Zm-1-2.18.11.85.58.31.68-.59-.38-.57Z"/><path d="M30.38,116.52l-1.05.14-.18,1.19-.63-.93-1,.12.52-.79-.3-.85a1.52,1.52,0,0,0,1.75-.71l-.05,1.08Zm-1.22-.83h-.94l.08.83.6.35.69-.63Z"/><path d="M35.73,158.1c.83-.35.45-.9.38-1.39a3.25,3.25,0,0,0,.93-.11,2.67,2.67,0,0,0,.64-.54c-.16.81.3,1.23,1,1.65l-1.07.19-.21,1.17-.63-.93-.82.1Zm1.73-1.19h-1l.07.86.6.3.69-.62Z"/><path d="M22.1,130.53l.9.74-1,.13-.2,1.16-.65-.9-.95.14.51-.8-.29-.83a1.47,1.47,0,0,0,1.71-.75Zm-.31-.1h-.94l.07.83.7.41c.07-.3.16-.64.79-.43Z"/><path d="M21.69,179.94c.26.28.63.37.82.77l-.94.11-.2,1.19-.62-.91-1.11.07c.71-.49.59-1,.32-1.7.83.43,1.24-.06,1.73-.57Zm.11.47-.39-.56h-1l.09.85.59.3Z"/><path d="M34.11,195.3c.3.32.67.42.85.81l-.94.12-.2,1.19-.62-.91-.87.05-.2-.1c.8-.36.47-.9.34-1.55.75.34,1.18,0,1.64-.67Zm-.27-.05H32.9l.08.86.61.31.68-.61Z"/><path d="M19.78,174.78c.53-.41.48-.91.22-1.5a1.51,1.51,0,0,0,1.69-.75v1.09l.9.76-.95.1c-.27.34,0,.79-.36,1.1l-.56-.83-.8.14Zm.75-.4.58.31.7-.57-.39-.57h-1Z"/><path d="M43.75,138.12l-.18,1.19-.63-.93-1,.13.52-.79-.3-.85a1.51,1.51,0,0,0,1.73-.68v1.08l.92.71Zm-1.11-1,.08.83.6.36.69-.63-.42-.56Z"/><path d="M42.67,153.67l-1,.11-.19,1.2-.62-.92-1.11.07c.7-.49.59-1,.35-1.62.76.26,1.22-.08,1.7-.67v1C42.11,153.18,42.47,153.27,42.67,153.67Zm-2,0,.59.3.67-.58c-.23-.7-.79-.64-1.35-.57Z"/><path d="M46.72,126.22l-.06.86.93.75-1,.12-.24,1.17-.61-.89-1,.11.54-.76-.3-.83a1.4,1.4,0,0,0,1.6-.64Zm-.35.77h-.94l.07.84.6.34.7-.6Z"/><path d="M24.65,200.3l-.64-1-.86.11-.18-.08c.7-.4.53-.92.3-1.51a1.64,1.64,0,0,0,1.71-.67v1l.9.73-1,.11Zm0-2.19h-1l.09.84.59.33.7-.58Z"/><path d="M24.46,126a1.39,1.39,0,0,0,1.75-.6v1.06l.91.72-1.06.14-.19,1.18-.63-.92-1,.12.52-.78Zm1.85.92-.42-.58H25l.05.84.61.35Z"/><path d="M24.25,176.57c.63-.5.65-1,.2-1.69.9.41,1.33,0,1.86-.55l0,1,.91.75-1,.17L26,177.44l-.59-.92ZM26,175.25H25l.07.86.61.31.68-.6Z"/><path d="M46,176.61l-1,.12-.19,1.19-.63-.92-1.11.08c.71-.5.6-1,.36-1.63.76.26,1.22-.08,1.69-.67v1.06C45.38,176.12,45.75,176.22,46,176.61Zm-1.4.3.68-.6-.38-.56h-1l.08.87Z"/><path d="M25.71,160.76c.67-.31.64-.83.32-1.52.78.26,1.24-.14,1.74-.62v1l.88.73-1,.18-.18,1.17-.58-.86-1.17-.1Zm1.75-1.23h-.95l.08.85.59.3.7-.6Z"/><path d="M28.85,123.1l.53-.79-.36-.87a1.52,1.52,0,0,0,1.81-.68l-.06,1.07.92.75-1.05.14-.19,1.2-.61-.94Zm2-.79-.41-.57h-.95l.08.84.59.35Z"/><path d="M39.35,141l-.06.86.92.75-1,.13L39,143.88l-.6-.9-1,.11.55-.77-.33-.88a1.31,1.31,0,0,0,1.63-.57Zm-1.3.77.08.84.62.37.65-.65-.4-.56Z"/><path d="M47.9,165.66l.91.75-1,.17-.16,1h-.15l-.48-.76-1,0c.44-.69.44-.69.26-1.46a2,2,0,0,0,1.65-.76Zm-1.16.79.61.3.68-.6-.42-.57h-1Z"/><path d="M43.23,193.05l-1,.13-.2,1.21-.63-.93-.88.08c.49-.5.36-1,.16-1.58a1.5,1.5,0,0,0,1.63-.6C42.07,192.2,42.65,192.59,43.23,193.05Zm-2.14-.84.09.84.59.33.67-.59-.37-.58Z"/><path d="M27.42,139.33l.48-.71-.32-.87c.8.32,1.24-.15,1.79-.62l-.08,1,.92.75-1,.18-.2,1.15-.58-.88ZM29,138.07h-.95l.08.83.64.35.66-.65Z"/><path d="M21.69,147.07l-1.05.18-.19,1.15-.59-.87h-1l.48-.7-.31-.87c.78.28,1.25-.13,1.79-.67l-.09,1Zm-2.08,0,.64.35.66-.66-.43-.53h-.95Z"/><path d="M40.8,119.32l.91.73-1.07.14-.19,1.16-.62-.88-1,0,.51-.74-.3-.74a2.57,2.57,0,0,0,1.72-.65Zm-1.19.74.61.35.67-.64-.42-.56h-1Z"/><path d="M11.62,187.44c.71.29,1.14-.2,1.68-.65l-.07,1,.92.74-1.05.18-.19,1.16-.58-.89h-1l.49-.72-.31-.67Zm1.09,1.47.65-.66-.44-.55H12l.06.86Z"/><path d="M46.2,148.06v1.08l.91.74-1.06.14-.18,1.16-.62-.88-1,0,.5-.76-.33-.8A1.57,1.57,0,0,0,46.2,148.06ZM45,149.89l.6.33.69-.62-.43-.56h-1Z"/><path d="M38.74,130.24l-.88.11-.19,1.16-.62-.88-1,.05.51-.73-.29-.75c.78-.06.78-.06,1.73-.66l-.05.92.81.63Zm-1.29.33.66-.66-.44-.55h-.92l.07.86Z"/><path d="M23.23,138.26l-.58-.91-1,.06.5-.77-.34-.79a1.57,1.57,0,0,0,1.75-.75v1.09l.9.74-1.05.14Zm-.83-1.32.62.35.66-.65-.42-.55h-1Z"/><path d="M49,119.58l-.58-.91-1,.06.49-.77-.33-.79a1.57,1.57,0,0,0,1.75-.75v1.09l.9.74-1.05.14Zm-.9-2.18.06.85.64.36.64-.65L49,117.4Z"/><path d="M14.58,192.81v1.07l.92.74-1.08.14-.19,1.15-.61-.88-1,.06.52-.75-.34-.83A1.57,1.57,0,0,0,14.58,192.81Zm-.34,1h-.93l.07.85L14,195l.69-.65Z"/><path d="M36.39,125.33l-1.14-1L35,123c.72.3,1.15-.19,1.69-.64l-.06,1,.91.75-.51.09-.54,0Zm.42-1.46-.45-.56h-.93l.08.85.61.33Z"/><path d="M39.64,114.4l-1,.11-.17.45-1.41-.31a2.27,2.27,0,0,0,.21-.62,3.66,3.66,0,0,0-.23-.78,1.41,1.41,0,0,0,1.66-.55C38.47,113.54,39,113.93,39.64,114.4Zm-1.18-.84h-1l.11.84.58.32.69-.6Z"/><path d="M18,140.16l.15,1,1,1.07.17-1,1.05-.18-.92-.74.06-.88c-.11,0-.22,0-.25,0a1,1,0,0,1-1.25.52s-.12.12-.19.18l.06,0s.05,0,.08,0h1.17l.45.56-.66.66-.48-.27Z"/><path d="M16.34,151.38l-.7.64c-.15-.23-.75-.13-.65-.91l-.65,1,.91-.07.62.89.19-1.16,1.05-.14-.92-.76.06-1-1.07.86.67,0Z"/><path d="M59.51,141.1l-.06,1.05.92.75-1,.14-.17,1c-.33-.62-.92-.59-1.48-.66l.2-.82-.61-.11.64-.76C58.55,142.06,59,141.66,59.51,141.1Zm.07,1.56-.4-.58h-.92a.94.94,0,0,0,.6,1.11Z"/><path d="M66.61,135.88c-.61.13-.46-.58-.87-.76l-.79.1-.19-.08c.68-.41.55-.92.28-1.52a1.67,1.67,0,0,0,1.73-.67v1l.89.73-1.06.12v1Zm-1-1.15.57.29.69-.57-.39-.57h-1Z"/><path d="M55.85,154.86l-.62-.91-1,.14.5-.8-.26-.77a2.05,2.05,0,0,0,1.69-.64v.94l.91.75-1,.09Zm0-2.14h-.94l.08.83.6.36.69-.63Z"/><path d="M83.77,118.28l-.24,1.18-.61-.9-1,.11.54-.76-.34-.93c.79.35,1.26-.08,1.8-.59l-.07,1,.93.75Zm-.2-1h-.94l.08.83.69.41c.07-.3.16-.64.79-.43Z"/><path d="M56.5,169a1.67,1.67,0,0,0,1.75-.67v1l.87.71-1,.16-.2,1.21-.63-1-.81.13A1.41,1.41,0,0,0,56.5,169Zm1.15,1.42.71-.57-.41-.59H57l.09.84Z"/><path d="M55.12,178.58c-.27.84.3,1.23.9,1.69l-1,.12-.2,1.22-.63-.94-1.09.11a1.07,1.07,0,0,0,.23-1.66A1.62,1.62,0,0,0,55.12,178.58Zm.11,1.43-.38-.58h-1l.1.83.58.33Z"/><path d="M57.62,164.45l-.2,1.17-.62-.9-.88.05c.49-.49.35-1,.14-1.61.77.27,1.21-.11,1.69-.55-.24.82.22,1.24.94,1.65Zm-.45.17.68-.6-.38-.56h-1l.08.87Z"/><path d="M115.85,122.34l-.19,1.16-.58-.88h-1l.47-.71-.31-.87c.8.31,1.24-.14,1.79-.64l-.09,1,.93.75Zm-.16-1h-1l.09.86.63.32.66-.64Z"/><path d="M91.26,122.92l.92.74-1.07.14L90.93,125l-.62-.88-1,0,.49-.76-.33-.81a1.55,1.55,0,0,0,1.75-.72Zm-.55,1.1.66-.66-.44-.55H90l0,.85Z"/><path d="M55.77,190.71c.77.25,1.25-.13,1.78-.69l-.08,1,.94.78-1,.15-.19,1.15-.6-.86h-1l.49-.7Zm1.85.84-.45-.56h-.93l.08.82.61.37Z"/><path d="M110.25,121.54l-.58-.9h-1l.49-.72-.33-.73a3.73,3.73,0,0,0,1-.11,3.64,3.64,0,0,0,.78-.61l-.06,1,.92.75-1,.15Zm-.9-2.17.06.85.64.36.64-.66-.41-.55Z"/><path d="M96.74,119.05l-1,.18-.19,1.14-.6-.86H94l.48-.7-.31-.87c.78.28,1.24-.13,1.78-.67l-.08,1Zm-2.14-.83.06.85.64.36.64-.65-.41-.56Z"/><path d="M59.72,137.12l-.89.11-.19,1.16-.62-.88-1,.06.51-.75-.34-.83a1.54,1.54,0,0,0,1.75-.7v1.08l.79.59Zm-1.08-.86h-.92l.08.85.61.33.7-.64Z"/><path d="M64.4,111.33A1.48,1.48,0,0,1,67,111.2a3.59,3.59,0,0,1,.31,4,1.53,1.53,0,0,1-2,.56c-.84-.53-1.47-1.22-1.41-2A4.24,4.24,0,0,1,64.4,111.33Zm.38,3.69a1,1,0,0,0,1.49-.16,3.07,3.07,0,0,0,.1-3.11,1.41,1.41,0,0,0-.44-.47c-.59-.39-1-.31-1.33.33a15.13,15.13,0,0,0-.55,1.77A2.75,2.75,0,0,0,64.78,115Z"/><path d="M73.71,112.57c.39-1,1.39-1.44,2.34-.36a1.76,1.76,0,0,1,.33.56,3.08,3.08,0,0,1-.16,2.68c-.27.46-.61.87-1.21.8a1.39,1.39,0,0,1-1.28-1,13.92,13.92,0,0,1-.33-1.47C73.5,113.4,73.57,113,73.71,112.57Zm1.59.17a1.22,1.22,0,0,0-.47-.54.47.47,0,0,0-.8.22,3.41,3.41,0,0,0-.06,2.71c.19.47.32.48.88.25a1.52,1.52,0,0,1-.31-.42.46.46,0,0,1,.06-.43c.07-.07.31,0,.42,0s.1.25.14.38A2.21,2.21,0,0,0,75.3,112.74Z"/><path d="M63.07,108.82c.23.24.45.39.74.09a.62.62,0,0,1,.31-.21,21.13,21.13,0,0,1,2.73-.31,4.16,4.16,0,0,1,1.33.44,1.45,1.45,0,0,0-.74-1.49c-1.12-.74-2.14-.29-3.15.22a2.52,2.52,0,0,0-.73.51A4.23,4.23,0,0,0,63.07,108.82Z"/><path d="M73.77,109.43c.65.15,1.17.4,1.67-.09l.25.47,1.2-.3c0-.09.08-.22,0-.29a3.14,3.14,0,0,0-2.15-1.48.57.57,0,0,0-.74.44C73.93,108.57,73.87,109,73.77,109.43Z"/><path d="M67.13,123.13v.66c1.42.32,2.85.68,4.28,1a3.19,3.19,0,0,0,1.92-.27,3.32,3.32,0,0,0,.56-.47c-.31,0-.46-.11-.56-.07a5.33,5.33,0,0,1-3.44-.07C69,123.68,68.11,123.4,67.13,123.13Z"/><path d="M60.74,123.7l-.4.12c-.52-.43.51-.86,0-1.29l-.37.71c-.52-.23-.16-.62-.29-.9l-.47.41a4.08,4.08,0,0,0,1.73,1.83Z"/><path d="M66.73,97.72l2.24.39-.47-.29.2-.73.57-.29.54.67c0,.63-.54.47-.87.62.51,0,1,.09,1.53.12.22,0,.44,0,.66,0a2.72,2.72,0,0,1,2.8,1.22s.14.07.21.1c-.37-.46-.7-1-1.11-1.38a1.16,1.16,0,0,0-.74-.25c-.7,0-1.41,0-2.22,0l.37-.44c-.55-.22-1-.53-.87-1.3a1.37,1.37,0,0,1-1.51.61c.07.17.1.26.14.35.19.4.1.62-.32.65A11.06,11.06,0,0,1,66.73,97.72Z"/><path d="M70,90.73l-.62-.9-.88,0c.48-.48.35-1,.13-1.61a1.49,1.49,0,0,0,1.7-.56c-.29.84.31,1.22.89,1.72l-1,.1Zm0-2.15h-1l.07.85.61.3.68-.6Z"/><path d="M69.1,82.45l.53.55.12-.07-.09-.85.69-.4v-.14l-.89-.13-.65-1.2c-.37.71-.49,1.41-1.37,1.62l.73.57.13.91.55-.87c-.52.16-.44-.39-.65-.51l.63-.84.61.7C69.35,82.22,69.35,82.22,69.1,82.45Z"/><path d="M62.7,95.27l-.18.69-.45-.8-.8.22.29-1.29,1.24-.63c.12.57.07,1.22.62,1.71ZM62.64,94c-.74.49-.74.49-.79.89L63,95Z"/><path d="M57.69,99l.31.48c0-.65.06-1.11.87-1.23l-.93-.4-.09-.6-1,.76v1.09l.84-.1-.57-.69c.51-.28.51-.28.86-.1Z"/><path class="cls-2" d="M69.1,82.45c.25-.23.25-.23.33-.66l-.61-.7-.63.84c.21.12.13.67.65.51Z"/><path d="M64.93,97.74h1.83A2.42,2.42,0,0,0,64.93,97.74Z"/><path d="M74.28,96.27a.31.31,0,0,0,0-.53L74,95.42l-.26.08C73.88,95.8,74.4,95.81,74.28,96.27Z"/><path d="M74.11,99.51l.51.93Z"/><path d="M59.92,104.53A14.84,14.84,0,0,1,56,103.05l.16.18a1.37,1.37,0,0,0,.18.16,9.83,9.83,0,0,0,2.9,1.44C59.52,104.92,59.8,105,59.92,104.53Z"/><path d="M69.09,100.22a2.56,2.56,0,0,0-.67,0c-.85.15-1.63-.62-2.5-.19,1,.24,2,.86,3.16.42Z"/><path d="M74.12,101.67l-.32-.61c0,.3,0,.52.34.59Z"/><path d="M136.68,128.24c.39.66.55.77,1.17.84Z"/><path d="M136.46,155.32a2,2,0,0,1,2-.51,3.93,3.93,0,0,1,2.36,5.24,2.42,2.42,0,0,1-3.76,1.18,3.8,3.8,0,0,1-1.72-3.06A3.51,3.51,0,0,1,136.46,155.32Zm-.64,2.35a3.51,3.51,0,0,0,1.14,3,2.11,2.11,0,0,0,2.49.4,2.4,2.4,0,0,0,1.22-2.51c0-.07,0-.15,0-.23a3,3,0,0,0-2.52-3A2.26,2.26,0,0,0,135.82,157.67Z"/><path class="cls-2" d="M32.4,112.42l.59.34.71-.59-.43-.59h-1Z"/><path class="cls-2" d="M30.5,171.71l-.42-.54h-.94l.06.86.61.29Z"/><path class="cls-2" d="M21.75,185.92l.09.85.59.3.67-.58C22.88,185.79,22.32,185.86,21.75,185.92Z"/><path class="cls-2" d="M39.18,169.84l-.4-.56h-1l.11.84.58.31Z"/><path class="cls-2" d="M15.2,173.21l.72-.56-.41-.6h-1l.09.84Z"/><path class="cls-2" d="M31.19,184.22l.59.3.67-.58-.38-.57h-1Z"/><path class="cls-2" d="M45.24,182.62l-.39-.56h-1l.1.84.58.31Z"/><path class="cls-2" d="M33.38,189.43h-1l.11.85.58.31.68-.59Z"/><path class="cls-2" d="M29.59,116.24l-.43-.55h-.94l.08.83.6.35Z"/><path class="cls-2" d="M37.87,157.45l-.41-.54h-1l.07.86.6.3Z"/><path class="cls-2" d="M22.41,131.24l-.62-.81h-.94l.07.83.7.41C21.69,131.37,21.78,131,22.41,131.24Z"/><path class="cls-2" d="M21.12,181l.68-.59-.39-.56h-1l.09.85Z"/><path class="cls-2" d="M34.27,195.81l-.43-.56H32.9l.08.86.61.31Z"/><path class="cls-2" d="M20.43,173.55l.1.83.58.31.7-.57-.39-.57Z"/><path class="cls-2" d="M43.59,137.15h-1l.08.83.6.36.69-.63Z"/><path class="cls-2" d="M40.6,152.82l.09.85.59.3.67-.58C41.72,152.69,41.16,152.75,40.6,152.82Z"/><path class="cls-2" d="M46.8,127.57l-.43-.58h-.94l.07.84.6.34Z"/><path class="cls-2" d="M25.09,198.7l-.4-.59h-1l.09.84.59.33Z"/><path class="cls-2" d="M25.62,127.52l.69-.61-.42-.58H25l.05.84Z"/><path class="cls-2" d="M26.4,175.82l-.42-.57H25l.07.86.61.31Z"/><path class="cls-2" d="M44,176.62l.59.29.68-.6-.38-.56h-1C43.91,176.05,43.93,176.34,44,176.62Z"/><path class="cls-2" d="M27.88,160.08l-.42-.55h-.95l.08.85.59.3Z"/><path class="cls-2" d="M30.2,122.93l.69-.62-.41-.57h-.95l.08.84Z"/><path class="cls-2" d="M39,141.73h-1l.08.84.62.37.65-.65Z"/><path class="cls-2" d="M46.66,165.58l.08.87.61.3.68-.6-.42-.57Z"/><path class="cls-2" d="M42.07,192.21h-1l.09.84.59.33.67-.59Z"/><path class="cls-2" d="M29.43,138.6l-.43-.53h-.95l.08.83.64.35Z"/><path class="cls-2" d="M19.53,146.26l.08.84.64.35.66-.66-.43-.53Z"/><path class="cls-2" d="M39.51,119.21l.1.85.61.35.67-.64c-.11-.16-.27-.36-.42-.56Z"/><path class="cls-2" d="M12.07,188.56l.64.35.65-.66-.44-.55H12Z"/><path class="cls-2" d="M44.93,149l.09.85.6.33.69-.62-.43-.56Z"/><path class="cls-2" d="M36.82,130.22l.63.35.66-.66-.44-.55h-.92Z"/><path class="cls-2" d="M22.31,136.09l.09.85.62.35.66-.65-.42-.55Z"/><path class="cls-2" d="M49,117.4h-.93l.06.85.64.36.64-.65Z"/><path class="cls-2" d="M14.69,194.32l-.45-.55h-.93l.07.85L14,195Z"/><path class="cls-2" d="M36.12,124.49l.69-.62-.45-.56h-.93l.08.85Z"/><path class="cls-2" d="M38.85,114.12l-.39-.56h-1l.11.84.58.32Z"/><path class="cls-2" d="M18,140.16l.48,1,.48.27.66-.66-.45-.56H18Z"/><path class="cls-2" d="M58.86,143.19l.72-.53-.4-.58h-.92A.94.94,0,0,0,58.86,143.19Z"/><path class="cls-2" d="M65.48,133.88l.13.85.57.29.69-.57-.39-.57Z"/><path class="cls-2" d="M56.3,153.28l-.43-.56h-.94l.08.83.6.36Z"/><path class="cls-2" d="M84.19,118.13l-.62-.81h-.94l.08.83.69.41C83.47,118.26,83.56,117.92,84.19,118.13Z"/><path class="cls-2" d="M57.07,170.11l.58.32.71-.57-.41-.59H57Z"/><path class="cls-2" d="M54.54,180.59l.69-.58-.38-.58h-1l.1.83Z"/><path class="cls-2" d="M56.58,164.33l.59.29.68-.6-.38-.56h-1C56.53,163.76,56.55,164.05,56.58,164.33Z"/><path class="cls-2" d="M116.12,121.89l-.43-.54h-1l.09.86.63.32Z"/><path class="cls-2" d="M90.07,123.66l.64.36.66-.66-.44-.55H90Z"/><path class="cls-2" d="M56.93,192.18l.69-.63-.45-.56h-.93l.08.82Z"/><path class="cls-2" d="M110.28,119.37h-.93l.06.85.64.36.64-.66Z"/><path class="cls-2" d="M95.53,118.22H94.6l.06.85.64.36.64-.65Z"/><path class="cls-2" d="M59.11,136.8l-.47-.54h-.92l.08.85.61.33Z"/><path class="cls-2" d="M64.6,111.61c.3-.64.74-.72,1.33-.33a1.41,1.41,0,0,1,.44.47,3.07,3.07,0,0,1-.1,3.11,1,1,0,0,1-1.49.16,2.75,2.75,0,0,1-.73-1.64A15.13,15.13,0,0,1,64.6,111.61Zm1.38,3c.27.06.4-.17.35-.39s-.22-.31-.33-.47l-.56.44C65.68,114.37,65.81,114.55,66,114.59Z"/><path class="cls-2" d="M75.16,115a2.21,2.21,0,0,0,.14-2.21,1.22,1.22,0,0,0-.47-.54.47.47,0,0,0-.8.22,3.41,3.41,0,0,0-.06,2.71c.19.47.32.48.88.25a1.52,1.52,0,0,1-.31-.42.46.46,0,0,1,.06-.43c.07-.07.31,0,.42,0S75.12,114.82,75.16,115Z"/><path class="cls-2" d="M68.94,98.09c.33-.15.88,0,.87-.62l-.54-.67-.57.29-.2.73.47.29Z"/><path class="cls-2" d="M70.48,89.13l-.39-.55h-1l.07.85.61.3Z"/><path class="cls-2" d="M63,95l-.32-1c-.74.49-.74.49-.79.89Z"/><path class="cls-2" d="M57.69,99l.29-.79c-.35-.18-.35-.18-.86.1l.57.69Z"/><path class="cls-2" d="M140.71,158.28c0,.08-.06.16,0,.23a2.4,2.4,0,0,1-1.22,2.51,2.11,2.11,0,0,1-2.49-.4,3.51,3.51,0,0,1-1.14-3,2.26,2.26,0,0,1,2.37-2.38A3,3,0,0,1,140.71,158.28Zm-2.65.7c-.69.15-.87.33-1.1,1A1.77,1.77,0,0,0,138.06,159Zm.41-1.54c.32-.48.32-.72.06-1.38h-.18Zm.39,1.22c.07-.24.12-.49-.16-.63a.31.31,0,0,0-.28.07.46.46,0,0,0,.29.73C138.79,158.74,138.84,158.71,138.86,158.66Z"/><path d="M65.44,114.17c.24.2.37.38.54.42s.4-.17.35-.39-.22-.31-.33-.47Z"/><path d="M137,160a1.77,1.77,0,0,0,1.1-1C137.37,159.13,137.19,159.31,137,160Z"/><path d="M138.35,156.05l.12,1.39c.32-.48.32-.72.06-1.38Z"/><path d="M138.71,158.83c.08-.09.13-.12.15-.17.07-.24.12-.49-.16-.63a.31.31,0,0,0-.28.07A.46.46,0,0,0,138.71,158.83Z"/></g></g></svg>