<svg xmlns="http://www.w3.org/2000/svg" viewBox="0 0 147.8 216.47"><defs><style>.cls-1{fill:#d3e3d6;}.cls-2,.cls-6{fill:#fff;}.cls-3{opacity:0.91;}.cls-4{opacity:0.99;}.cls-5{fill:none;}.cls-5,.cls-6,.cls-7{stroke:#fff;stroke-miterlimit:10;stroke-width:0.25px;}</style></defs><g id="Capa_2" data-name="Capa 2"><g id="responsive"><rect class="cls-1" width="147.8" height="216.47" rx="14.95"/><path d="M82,177.27a20.73,20.73,0,0,1,1.14-5.61,45.5,45.5,0,0,1,1.78-4.43c.95-1.83,2-3.6,3.12-5.38a50.82,50.82,0,0,1,3.41-5c.31-.41.72-.74,1-1.15a11.73,11.73,0,0,0,.65-1.07,27.11,27.11,0,0,1,2-2.91c.69-.89,1.31-1.82,2-2.69s1.52-1.84,2.2-2.8c1.41-2,2.82-3.94,4.17-6s2.82-4.1,4.33-6.08c.61-.79,1.19-1.6,1.81-2.39s1.09-1.48,1.65-2.23a18,18,0,0,1,1.36-1.54,5.83,5.83,0,0,1,1.46-1.34,2.17,2.17,0,0,1,3,1,12.22,12.22,0,0,1,.22,3.36,10,10,0,0,1-1.37,4.5c-.62,1.18-1.35,2.36-2.09,3.49-.36.54-.75,1-1.14,1.53s-.66,1.07-1,1.58a16.43,16.43,0,0,0-1.75,3.18c-.75,1.74-1.47,3.51-2.11,5.3a18.92,18.92,0,0,0-1.14,4.85,31.6,31.6,0,0,1-1,6.17c-.92,3.34-1.78,6.71-3,10-.37,1-.86,2-1.33,3.05s-.76,1.87-1.21,2.77a15.82,15.82,0,0,1-2.77,4.08c-.57.56-1.19,1.08-1.8,1.61-.34.29-.65.6-1,.89a9.9,9.9,0,0,1-1.29.85,5.15,5.15,0,0,1-2.53.57,11.87,11.87,0,0,1-3.09-.29,6.93,6.93,0,0,1-4.25-2.31,13.72,13.72,0,0,1-1.24-2.41,3.65,3.65,0,0,1-.27-2.34C81.94,177.91,82.22,177.32,82,177.27Z"/><path class="cls-2" d="M115,137.23a35.82,35.82,0,0,1-2.81,4.93,15.67,15.67,0,0,0-1.52,3.2c-.3.59-.7,1.16-1,1.76-.37.81-.67,1.65-1,2.49a11.64,11.64,0,0,0-.44,2,16.66,16.66,0,0,1-.46,1.85,18.12,18.12,0,0,0-.67,3.63,31.11,31.11,0,0,1-.55,3.3,23.37,23.37,0,0,1-.52,3,37.43,37.43,0,0,1-1.13,3.74c-.52,1.32-.86,2.67-1.37,4a18.2,18.2,0,0,1-.77,1.75c-.16.33-.26.68-.44,1s-.4.63-.58,1a30.24,30.24,0,0,1-1.41,2.71c-.69,1.05-1.19,2.19-1.84,3.26A13.72,13.72,0,0,1,97.7,182c-.43.58-.83,1.17-1.31,1.72a10.41,10.41,0,0,1-2.77,2.24,5.4,5.4,0,0,1-1.81.67,10.5,10.5,0,0,1-1.86.1,12.53,12.53,0,0,1-3.88-.74,5,5,0,0,1-2.45-1.85c-.3-.42-.62-.81-.89-1.25l-.87-1.41a2.58,2.58,0,0,1-.5-1.19c0-.2-.12-.39-.14-.6s-.09-.56-.14-.85,0-.46,0-.68-.11-.43-.14-.65,0-.43,0-.65a6.54,6.54,0,0,1,0-1,8.29,8.29,0,0,1,.53-2,7,7,0,0,0,.37-1,8.16,8.16,0,0,1,.33-1.17,9.71,9.71,0,0,0,.47-1.16,7.39,7.39,0,0,1,.26-1.13c.34-.81.92-1.52,1.31-2.31.29-.6.65-1.16.94-1.76.12-.24.29-.45.43-.69s.29-.66.46-1a10.49,10.49,0,0,1,1-1.7,6.84,6.84,0,0,0,.47-.72,10.37,10.37,0,0,1,.77-1c.84-1.08,1.4-2.31,2.22-3.4a13.49,13.49,0,0,0,1.2-1.64,13.7,13.7,0,0,1,1.19-1.77c.39-.51.91-.94,1.33-1.45s.84-1.16,1.28-1.73.75-1.05,1.18-1.54c.24-.28.49-.52.71-.81a9.53,9.53,0,0,1,.61-.81,11.25,11.25,0,0,0,1.15-1.43l1-1.44c.38-.58.8-1.14,1.19-1.71s.77-1.33,1.22-2a15.71,15.71,0,0,1,1.15-1.3,14.21,14.21,0,0,0,1.29-1.52,29,29,0,0,1,1.83-2.46,22.25,22.25,0,0,0,1.87-2.47c.75-1.19,1.47-2.41,2.32-3.54a7.44,7.44,0,0,1,1-1.15,9.86,9.86,0,0,1,.79-.66,3.28,3.28,0,0,1,.88-.56c-.2.12-.41.53-.57.68a8,8,0,0,0-.79.86c-.43.58-.85,1.15-1.3,1.71a14.41,14.41,0,0,0-1.19,2.31,17.91,17.91,0,0,1-1.37,2.24c-.56.74-1,1.54-1.52,2.3-.65.92-1.43,1.76-2.1,2.67s-1.45,1.91-2.11,2.9c-.3.46-.66.85-1,1.29s-.6,1-.93,1.45c-1.34,1.91-2.91,3.66-4.17,5.61-.33.51-.7,1-1,1.48a11.29,11.29,0,0,1-1.24,1.67c-.34.33-.63.7-1,1a14.15,14.15,0,0,0-1.25,1.32c-1.75,2.43-3.29,5-4.94,7.51a15.18,15.18,0,0,0-1,1.75c-.37.77-.85,1.48-1.26,2.22a22.37,22.37,0,0,0-.95,2.05,15,15,0,0,0-.74,1.93,8.32,8.32,0,0,0-.33,1.65,14.09,14.09,0,0,1-.39,1.68,7.07,7.07,0,0,0-.15,1.45c0,.46,0,.93,0,1.39a7.12,7.12,0,0,0,.62,2.51c.19.44.48.82.71,1.24a5.5,5.5,0,0,0,1,1.37,6.5,6.5,0,0,0,2.43,1.59,15.8,15.8,0,0,0,2.53.61,7.49,7.49,0,0,0,3-.41,7.82,7.82,0,0,0,1.33-.48,4.41,4.41,0,0,0,1.25-1c.43-.41.83-.89,1.22-1.34a11.63,11.63,0,0,0,1-1.42c.56-.9,1-1.86,1.53-2.79.22-.39.37-.82.58-1.22s.54-1,.83-1.49a19.11,19.11,0,0,0,1.47-2.93c.19-.48.47-.94.62-1.44s.3-1.21.51-1.81a41,41,0,0,0,1.12-4.22c.27-1.24.51-2.47.88-3.69s.47-2.38.74-3.57c.11-.52.33-1,.42-1.55s.1-1.13.2-1.69c.17-1,.39-1.95.62-2.92a54.91,54.91,0,0,1,1.86-5.27,12.43,12.43,0,0,1,1.18-2.22,10,10,0,0,1,.58-.86c.29-.4.53-.84.84-1.24.46-.6.76-1.19,1.27-1.74s.74-1,1.18-1.45C114,138.56,114.8,137.47,115,137.23Z"/><path class="cls-3" d="M110.59,183.07c.07.22.72,1.74.56,2.25,0,0-.09.14-.11.19a2.66,2.66,0,0,0-.24,1,2.08,2.08,0,0,0,.51,1.33,10.6,10.6,0,0,1,1.3,2c.42,1,.74,2,1.13,2.94a12.48,12.48,0,0,1,.75,2.67c.08.51.13,1,.22,1.56s.28.89.4,1.34c.19.71.26,1.73,1.12,2,1,.35,1.65-.79,2-1.51a6.39,6.39,0,0,0,.34-3.35c-.16-.89-.69-1.91-.38-2.81a1,1,0,0,1,1.23-.74,2.2,2.2,0,0,1,1,.33,4.74,4.74,0,0,1,1.06,1.31,14.16,14.16,0,0,1,1,1.95,10.41,10.41,0,0,0,.9,1.91,12.28,12.28,0,0,0,1.1,1.6,9.92,9.92,0,0,0,1.5,1.12c.29.21.67.6,1.06.6a1.45,1.45,0,0,0,.9-.46,1.72,1.72,0,0,0,.35-1.31,6.88,6.88,0,0,0-.51-2.49,8.27,8.27,0,0,0-2-3.22c-.8-.69-1.71-1.24-2.45-2-.42-.42-1.11-1.21-.64-1.81a1.09,1.09,0,0,1,1.17-.28c.88.26,1.34,1.16,1.94,1.75a20.52,20.52,0,0,0,3.47,2.27,9.19,9.19,0,0,0,1.53.93c.58.24.86,0,1.13-.45a3.29,3.29,0,0,0-.54-3.53,9.43,9.43,0,0,0-3.67-2.39,32.6,32.6,0,0,0-3.5-1.45c-1.19-.4-2.4-.7-3.61-1.06a18.69,18.69,0,0,1-3.62-1.43c-.58-.32-1.48-1.07-1.45-1.74a1.06,1.06,0,0,1,.17-.66,1.39,1.39,0,0,0,.23-1,8.31,8.31,0,0,0-.1-2.23c-.09-.27-.35-.34-.42-.62a3.38,3.38,0,0,1,0-1.45c.13-.74,0-1.49.05-2.23.06-.53-.07-1,0-1.58s.19-1.23.21-1.87c0-1.18.11-2.37.15-3.56,0-.45.11-.89.13-1.34,0-.83,0-1.66.13-2.48.06-.59.26-1.15.36-1.73.15-.79.29-1.59.43-2.38a13.18,13.18,0,0,0,.1-2.43c0-.9,0-1.79.11-2.67.1-1.23.36-2.46.39-3.69.05-1.74,0-3.45.25-5.19a14.33,14.33,0,0,1,.33-1.83c.2-.81.31-1.63.52-2.42a16,16,0,0,0,.51-2c.11-.84.24-1.67.41-2.51.4-2,1.2-4,1.22-6a5.29,5.29,0,0,0-.93-2.86,4,4,0,0,0-1.94-1.83,2.13,2.13,0,0,0-2.29.07,7.18,7.18,0,0,0-2.34,2.44c-1.29,2-1.64,4-2.45,6.1-.54,1.39-1,2.8-1.72,4.14a14.37,14.37,0,0,0-1.31,3.5c-.15.67-.24,1.35-.36,2-.16.9-.21,1.85-.43,2.74a22,22,0,0,0-.39,2.41,19,19,0,0,0-.23,2.49c0,1.46-.07,2.92,0,4.37,0,.46.11.91.15,1.36a11,11,0,0,0,.33,2c.2.72.31,1.45.45,2.17a25.29,25.29,0,0,0,.62,2.57,21.57,21.57,0,0,1,.68,2.38c.13.74.29,1.47.49,2.21s.26,1.48.4,2.24c.1.51.21,1,.31,1.55s.14,1.07.23,1.61a12,12,0,0,1,.27,1.87c0,.69.07,1.38.13,2.06,0,.26.13.5-.08.7s-.21.09-.3.19a1.65,1.65,0,0,0-.18.61,7.64,7.64,0,0,0,.36,2.88,2,2,0,0,0,.51,1c.33.25.67.12.85.51a1.69,1.69,0,0,1,0,1.11C111.39,185,111.35,185.46,110.59,183.07Z"/><path class="cls-2" d="M116.62,124.87a3.53,3.53,0,0,1,1.51.35,5,5,0,0,1,.59.38c.15.2.32.43.46.66s.45.75.68,1.14a5.79,5.79,0,0,1,.76,2.14,10.57,10.57,0,0,1,0,1.78,17,17,0,0,1-.49,2.64c-.29,1.94-.74,3.89-1.12,5.82s-.79,4.06-1,6.11c-.15,1.25-.29,2.5-.43,3.75s-.3,2.4-.34,3.59c0,1.41-.11,2.83-.18,4.23-.06,1.24-.23,2.47-.26,3.71,0,1.54-.22,3.08-.28,4.6a7.85,7.85,0,0,1,0,.84c0,.24-.09.48-.12.74-.06.64-.11,1.27-.18,1.91-.19,2-.33,3.94-.46,5.9,0,.41-.1.82-.1,1.21s.07.73,0,1.09l0,.12c.06,0,.06.08,0,.13.32,0,.58.69.64.95s-.17.77-.17,1.14a5.27,5.27,0,0,0-.06,1,2.21,2.21,0,0,1-.09,1.08c-.21.66-.32,1.32-1.12,1.53-.39.1-.83.11-1.21.18a5.43,5.43,0,0,1-1.27.08,7,7,0,0,0-1-.06c-.41,0-.65,0-.85-.36s-.18-.54-.29-.8a3.47,3.47,0,0,1-.2-.75,5,5,0,0,1-.35-1.66,3.19,3.19,0,0,1,.2-1.3c.18-.32.45-.4.41-.78s0-.62-.06-.94c-.07-.51-.13-1-.17-1.5a14.12,14.12,0,0,0-.37-1.83,25.58,25.58,0,0,1-.58-3.78c0-.64-.27-1.26-.34-1.9a12.34,12.34,0,0,0-.29-2.1c-.3-1.07-.68-2.13-.93-3.2a29.26,29.26,0,0,0-.77-3.17,11.39,11.39,0,0,1-.36-1.83,35.48,35.48,0,0,1-.21-4c0-.71-.07-1.43-.09-2.14s.1-1.56.1-2.33a15.39,15.39,0,0,1,.24-2.54,21.58,21.58,0,0,1,.33-2.28c.18-.64.13-1.34.37-2a12.32,12.32,0,0,0,.53-1.55,12.7,12.7,0,0,1,1-2.51c.4-.82.81-1.61,1.16-2.46.28-.69.63-1.36.92-2.05a4.44,4.44,0,0,0,.38-1.15,2.76,2.76,0,0,1,.23-1.18.35.35,0,0,1,.49-.08c.16.12.12.36.12.54a5.25,5.25,0,0,1-.26,1.31,52.85,52.85,0,0,1-2.81,6.86,24.34,24.34,0,0,0-1,3.95c-.12.56-.21,1.14-.3,1.7-.13.8-.28,1.61-.36,2.42a19,19,0,0,0-.08,3.92c.07.73.12,1.45.16,2.18s0,1.58.11,2.35c.21,1.39.3,2.78.58,4.16a17.39,17.39,0,0,0,.73,2.1c.26.8.44,1.61.69,2.4a35.51,35.51,0,0,1,.85,5.82c.13.9.19,1.81.39,2.69a16.37,16.37,0,0,1,.18,2.1,2.2,2.2,0,0,0,1,1.87,4,4,0,0,0,2.45.15c.9-.19.87-1.33.82-2a24.22,24.22,0,0,1,0-4.74,47.08,47.08,0,0,0,.52-5.18c0-1.15.12-2.31.14-3.47,0-.54.1-1.08.15-1.62s0-1.36,0-2,.09-1.38.12-2.06.08-1.4.08-2.1.06-1.13.07-1.69c0-.35.13-.69.11-1a5.29,5.29,0,0,1,0-.89c.13-1.35.08-2.69.34-4,.2-1,.43-2,.53-3.06,0-.53.12-1.06.19-1.59,0-.28.11-.57.14-.86a3.75,3.75,0,0,1,.09-.94c.15-.46.16-1,.29-1.47s.25-1,.35-1.51c.17-.83.41-1.66.58-2.49.11-.58.32-1.11.47-1.66.5-1.78.86-3.69-.15-5.38a6.32,6.32,0,0,0-1.5-2.23,2.11,2.11,0,0,0-2.22,0,4.19,4.19,0,0,0-1.61,1.49,6.7,6.7,0,0,1,1.08-1.74,2.58,2.58,0,0,1,.93-.55A7.47,7.47,0,0,1,116.62,124.87Z"/><path class="cls-2" d="M115.8,184a4.8,4.8,0,0,0,1,.83,9.32,9.32,0,0,0,.89.48,7.18,7.18,0,0,0,1.09.33,8.89,8.89,0,0,0,1.53.19,13.8,13.8,0,0,1,1.44.17,18.89,18.89,0,0,1,3.34,1.09,22.05,22.05,0,0,1,3.3,1.32,7.45,7.45,0,0,1,2.77,2.57c.38.66,1,2,0,2.63-.58.33-1.71-.57-2.17-1a8.29,8.29,0,0,0-1.91-1.19,6.77,6.77,0,0,1-1.73-1.77,2.5,2.5,0,0,0-1.28-.92c-.83-.28-1.93-.2-2.25.68-.21.59.27,1.22.53,1.72a6.33,6.33,0,0,0,1.66,1.6c.56.41,1.11.84,1.66,1.28a3.42,3.42,0,0,1,1,1.26,7.7,7.7,0,0,1,1.11,2.63,5.06,5.06,0,0,1,0,1.29c-.07.42,0,.94-.6.9a3.83,3.83,0,0,1-2.68-1.76,9.24,9.24,0,0,1-.71-1.16c-.1-.24-.31-.4-.43-.63s-.25-.61-.38-.9-.4-.81-.57-1.2a9.2,9.2,0,0,0-.77-1.24,6.82,6.82,0,0,0-.41-.68,3.62,3.62,0,0,0-.71-.7,3.88,3.88,0,0,0-1.58-.73,1.49,1.49,0,0,0-1,.46,1.79,1.79,0,0,0-.41,1.37,4.84,4.84,0,0,0,.3,1.68,5.16,5.16,0,0,1,.29,1.68,9.48,9.48,0,0,1,0,1.41,7.07,7.07,0,0,1-.51,1.51c-.19.47-.48.68-1,.5a1.52,1.52,0,0,1-.63-.29,2.19,2.19,0,0,1-.43-1.37,6.31,6.31,0,0,0-.32-1.6c-.16-.57,0-.9-.13-1.46-.28-.93-.47-1.72-.78-2.65-.16-.47-.33-.82-.5-1.29a6.34,6.34,0,0,0-.56-1.14c-.15-.25-.26-.56-.44-.81a10.06,10.06,0,0,0-.74-1,2.28,2.28,0,0,1-.67-1.66c0-.47.24-1.26.23-1.73a4.63,4.63,0,0,0-.18-1.16c-.1-.54-.4-.5-.55,0s.35.92.31,1.3-.41.9-.43,1.29a3.1,3.1,0,0,0,.36,1.36,7.53,7.53,0,0,0,1,1.65,6.11,6.11,0,0,1,.89,1.62c.22.72.55,1.39.82,2.08a20,20,0,0,1,.84,3.65c0,.33.26,1.56.31,1.88a3.45,3.45,0,0,0,.55,1.44,1.63,1.63,0,0,0,1.75.66c.38-.09.68-.58.87-.91a12.47,12.47,0,0,0,.55-1.17,4.82,4.82,0,0,0,0-3,10.54,10.54,0,0,1-.36-1.55c0-.45-.16-1,.1-1.37.5-.71.62-.77,1.4-.43.93.4,1.15,1.36,1.57,2.13.25.44.53.85.77,1.29a10.93,10.93,0,0,1,.85,1.67,6.5,6.5,0,0,0,1.58,2.36,4.6,4.6,0,0,0,2.29,1.19c1,.17,1.4-1.11,1.5-1.77a3,3,0,0,0-.15-1.41,14.22,14.22,0,0,0-.84-2,9.8,9.8,0,0,0-.76-1.24,4.88,4.88,0,0,0-.9-1.08c-.38-.3-.8-.57-1.18-.87s-.86-.85-1.29-1.26-.85-1.06-.3-1.71a.86.86,0,0,1,1.11-.06,5.83,5.83,0,0,1,1.22,1.16,10.21,10.21,0,0,0,2.65,2.08,3.56,3.56,0,0,1,.83.56,3.79,3.79,0,0,0,1.27.78c.36.13.86.45,1.22.35s.61-.49.76-.77a1.38,1.38,0,0,0,.22-1,6.82,6.82,0,0,0-.49-1.61,6.47,6.47,0,0,0-2.46-2.38,23.35,23.35,0,0,0-6.75-2.91c-1.18-.31-2.43-.5-3.6-.86a9.94,9.94,0,0,1-1-.35c-.37-.16-.73-.34-1.07-.52s-.27-.24-.58-.56-.29-.73-.6-.92-.49.42-.46.66a1.9,1.9,0,0,0,.17.56S115.67,183.89,115.8,184Z"/><path class="cls-2" d="M125.93,197.31a10.6,10.6,0,0,1,1.43.82c-.08.28,0,.59-.26.82a1.16,1.16,0,0,1-.81.19,1.28,1.28,0,0,1-.8-.55c-.23-.34-.14-.54,0-.88.23-.56.68-.65,1.27-.42a.94.94,0,0,1,.55.52C127.37,198,127.34,198.5,125.93,197.31Z"/><path class="cls-2" d="M130.15,191.12c.15,0,.46,0,.57.11s.09.14.14.2a.94.94,0,0,1,.18,1.2.59.59,0,0,1-.31.29.76.76,0,0,1-.45.09.77.77,0,0,1-.4-.11,1.37,1.37,0,0,1-.34-.38,1.8,1.8,0,0,1-.16-.38.8.8,0,0,1,0-.34c.05-.18.07-.37.25-.47s.23-.1.33-.16a.15.15,0,0,1,.11,0Z"/><path class="cls-2" d="M116.64,197.3a1.77,1.77,0,0,1,.68.19l.06.17a2,2,0,0,1,0,.24,1.23,1.23,0,0,1-.12.68.51.51,0,0,1-.44.28.85.85,0,0,1-.61-.36.76.76,0,0,1,0-1C116.41,197.4,116.71,197.22,116.64,197.3Z"/><path class="cls-4" d="M96.27,111.46c.7-.86,1.65-2.44,3-2.63a9.48,9.48,0,0,1,7.07,3.61c.51.6,1.11,1.11,1.67,1.68s1.2,1.28,1.78,1.94a26.05,26.05,0,0,0,2.53,2.62,16.16,16.16,0,0,0,2.82,2.26,4.13,4.13,0,0,0,1.15.4c.21,0,.43.07.64.11a3.73,3.73,0,0,1,.86.33,5.58,5.58,0,0,1,1.28.67,5.36,5.36,0,0,1,1.2,1.32,5.45,5.45,0,0,1,.82,3.19,3.37,3.37,0,0,1-2.86,3.53,6.9,6.9,0,0,1-3.09-.62,13.17,13.17,0,0,1-3.31-2,24.55,24.55,0,0,0-3.34-2.18c-.68-.34-1.34-.72-2-1.07a14.15,14.15,0,0,1-1.92-1.12c-1.21-.88-2.54-1.55-3.81-2.33-.88-.55-1.75-1.09-2.63-1.62a6.52,6.52,0,0,1-2.41-2.25,5.33,5.33,0,0,1-.47-1.26,9.89,9.89,0,0,1-.29-1.61,3.37,3.37,0,0,1,.55-2.12,5.87,5.87,0,0,1,.46-.65C96.11,111.5,96.33,111.23,96.27,111.46Z"/><path class="cls-2" d="M95.45,116.49a1.74,1.74,0,0,0,.19.79c.06.08.09.15.14.23s.18.31.27.46a4.56,4.56,0,0,0,.51.65,5.89,5.89,0,0,0,.81.67c.21.14.4.3.61.44s.35.32.55.44l.77.48c.29.18.62.31.91.5a16.41,16.41,0,0,0,1.64.92c.31.15.59.34.89.51l1.1.59c.33.18.62.42.93.63a8.53,8.53,0,0,0,.76.46c.5.3,1,.62,1.47.93s.85.4,1.23.66c.21.13.44.22.64.36a6.1,6.1,0,0,0,.57.29,4.74,4.74,0,0,1,.5.26c.22.15.42.32.62.48a18.4,18.4,0,0,0,2.94,2c.43.24.88.44,1.28.71a3.29,3.29,0,0,0,.42.21c.17.08.35.15.52.24s.36.13.51.21a2.82,2.82,0,0,0,1,.37,3.18,3.18,0,0,0,1-.09c.13,0,.25-.09.37-.12s.28-.05.42-.08a4.8,4.8,0,0,0,.87-.32,1.85,1.85,0,0,0,.54-.37c.18-.17.3-.38.46-.56a4.26,4.26,0,0,0,.65-1,2.08,2.08,0,0,0,.23-.63,3,3,0,0,0,0-.6c0-.23,0-.46-.06-.7a1.51,1.51,0,0,0,0-.3c-.1-.42-.28-.81-.4-1.23a4.26,4.26,0,0,0-.78-1.47,7.51,7.51,0,0,0-1.6-1.53,6.59,6.59,0,0,0-1.67-.74c-.31-.11-.63-.19-.93-.32l-1-.49c-.3-.15-.58-.3-.86-.47a10.07,10.07,0,0,1-1-.85c-.31-.26-.61-.54-.93-.79a6.6,6.6,0,0,1-.89-.94c-.27-.32-.59-.6-.87-.9a14.88,14.88,0,0,1-1-1.17,7.86,7.86,0,0,1-.51-.89c-.25-.41-.63-.73-.91-1.11a8.63,8.63,0,0,0-.71-.77,8.31,8.31,0,0,0-1-.82c-.29-.21-.58-.41-.85-.63s-.44-.39-.67-.58a5.91,5.91,0,0,0-.77-.54c-.3-.16-.62-.28-.92-.43a5.67,5.67,0,0,0-1.4-.55,3.74,3.74,0,0,0-1-.06,1.67,1.67,0,0,0-.64.15c0,.09.12.12.21.16l.55.19c.44.16.91.24,1.35.41a10.2,10.2,0,0,1,1.07.47,12,12,0,0,1,1.15.68c.19.14.39.27.57.41s.37.25.53.4c.34.31.68.61,1,.93s.49.52.75.78a6.08,6.08,0,0,1,.76.85c.22.32.45.63.67,1s.43.64.66.94.5.71.76,1a9.53,9.53,0,0,0,.92,1.08,16.36,16.36,0,0,0,1.48,1.28c.26.21.54.4.81.58s.29.21.44.3a3.87,3.87,0,0,1,.43.27c.28.21.59.37.89.56a6.35,6.35,0,0,0,.84.38,8.26,8.26,0,0,0,.82.33,3.25,3.25,0,0,1,.7.26c.36.22.73.41,1.09.64a4.11,4.11,0,0,1,1.12,1.08,4.76,4.76,0,0,1,.92,1.6,4.49,4.49,0,0,1,.2,1.58,3.86,3.86,0,0,1-.24.75,2.24,2.24,0,0,1-.24.55,2.34,2.34,0,0,1-.53.51c-.21.14-.4.32-.62.47a3.54,3.54,0,0,1-2.27.39,5.51,5.51,0,0,1-.57-.06c-.24-.05-.47-.15-.7-.22l-.56-.18c-.25-.1-.51-.18-.76-.29a9.46,9.46,0,0,1-1.3-.68c-.23-.14-.46-.29-.7-.41a4,4,0,0,1-.74-.53,9.65,9.65,0,0,0-1.25-.93c-.47-.26-1-.48-1.45-.75a3.84,3.84,0,0,0-.49-.27,2.06,2.06,0,0,1-.33-.17l-.48-.32c-.17-.1-.3-.23-.46-.34s-.29-.15-.44-.23-.29-.19-.44-.28l-.8-.47c-.17-.11-.36-.18-.55-.28s-.33-.21-.5-.31c-.33-.19-.68-.37-1-.58s-.58-.39-.87-.57l-.8-.48a9.8,9.8,0,0,0-.85-.58c-.32-.16-.63-.35-1-.52a7,7,0,0,1-.66-.37l-.41-.24c-.13-.07-.29-.11-.42-.18a9.73,9.73,0,0,1-1.15-.73c-.14-.11-.25-.23-.37-.34s-.41-.31-.59-.5-.55-.46-.8-.72a1.38,1.38,0,0,1-.27-.45,1.66,1.66,0,0,0-.18-.38S95.44,116.52,95.45,116.49Z"/><path d="M141.19,124.94q-.76,0-1.53-.09c0-.24-.43-.58-.57-.79a2.62,2.62,0,0,1-.48-1.08,7,7,0,0,0-.16-1.65c-.2-.48-.66-.45-1.13-.61s-.85-.23-1.26-.38a5.45,5.45,0,0,1-1.34-.68,5.18,5.18,0,0,1-.75-.73c-.16-.17-.45-.56-.71-.63s-.74.3-1,.44a3.75,3.75,0,0,0-.85.61,8.9,8.9,0,0,1-.67.94,13.42,13.42,0,0,0-1.34,1.16L129,122a10.55,10.55,0,0,0-1.25,1.61,19,19,0,0,1-4.57,5.15,13.72,13.72,0,0,1-1.6,1.1,6.12,6.12,0,0,1-2.66.85,3.64,3.64,0,0,1-2.27-.45,9.4,9.4,0,0,1-2-1.66c-1.17-1.29-.64-3,0-4.47a6.34,6.34,0,0,1,2.25-2.5c1.19-.89,2.66-1.37,3.94-2.15a22.27,22.27,0,0,0,2.48-1.71c.72-.59,1.33-1.27,2.07-1.83s1.52-1.18,2.26-1.78a13.18,13.18,0,0,1,5.9-2.15c1.05-.08,2.1,0,3.15,0,.81,0,1.61,0,2.42,0,.56,0,1.09-.13,1.66-.13a5,5,0,0,1,2.3.35,3.34,3.34,0,0,1,1.15,1.61,7.85,7.85,0,0,0,1.3,2c.26.29.48.6.76.89a7.31,7.31,0,0,1,.83.84c.52.76-.63,1.1-1.27,1a4.61,4.61,0,0,1-2.55-1.69,12.15,12.15,0,0,0-1.29-1.56c-.27-.22-.83-.44-.89.1s.41.69.71.94c.5.4,1,.81,1.51,1.18a7.77,7.77,0,0,1,1.55,1.42A4.34,4.34,0,0,1,146,121.7a1.16,1.16,0,0,1-1.62,1.11c-1.16-.44-1.62-1.89-2.17-2.83a5.65,5.65,0,0,0-2-2c-.37-.21-1.26-.43-1.33.22,0,.23.28.6.46.76a4.47,4.47,0,0,0,1,.59,2.94,2.94,0,0,1,1.59,3.5,7,7,0,0,1-.71,1c-.21.33,0,.6-.3.86S140.25,125.07,141.19,124.94Z"/><path class="cls-2" d="M116.29,122.49c.43-.3.85-.59,1.29-.87a5.48,5.48,0,0,1,.52-.31c.33-.13.64-.3,1-.44s.54-.15.8-.26a6,6,0,0,0,.61-.34,4.75,4.75,0,0,0,.76-.5c.4-.29.85-.51,1.24-.82s.6-.44.91-.65a9.76,9.76,0,0,0,.84-.73l1.49-1.38c.46-.42,1-.78,1.47-1.2a9.32,9.32,0,0,1,1.69-1.22,7,7,0,0,1,.85-.46l.85-.31.88-.31a6.17,6.17,0,0,1,.77-.16,7.64,7.64,0,0,1,1.51-.13c1,0,2,0,3.07-.05.58,0,1.17,0,1.75,0a14.22,14.22,0,0,1,1.46,0l1.65.13a2.1,2.1,0,0,1,1.17.42,2.65,2.65,0,0,1,.46.49c.15.21.24.44.38.66.27.42.57.81.81,1.25a4.45,4.45,0,0,0,.48.66,6.69,6.69,0,0,0,.5.58c.18.18.38.32.57.48a3.16,3.16,0,0,1,.51.45.38.38,0,0,1-.26.61,2.25,2.25,0,0,1-1.17-.28,1.91,1.91,0,0,1-.5-.44c-.16-.19-.36-.38-.51-.58-.28-.38-.5-.79-.8-1.15a2.86,2.86,0,0,0-1.49-1.15,1.3,1.3,0,0,0-1.23.4,1.07,1.07,0,0,0-.13,1.26,1.81,1.81,0,0,0,.58.52c.31.21.64.41,1,.59a7.82,7.82,0,0,1,2.15,2.06,10.38,10.38,0,0,1,1.18,1.73c.14.27.23,1.29,0,1.5-.47.38-1.12-.56-1.38-1a7.7,7.7,0,0,1-.54-1,8.18,8.18,0,0,0-.67-1.32,4,4,0,0,0-1-1,5.14,5.14,0,0,0-1.21-.5,2.65,2.65,0,0,0-.85-.1c-.37,0-1-.2-1.17.14-.32.63.7,1,1.12,1.34a8.2,8.2,0,0,1,1.52,2.18,2.39,2.39,0,0,1,.28.49,2.29,2.29,0,0,1,.07.36,1.42,1.42,0,0,1-.05.5,3.29,3.29,0,0,1-.36,1c-.3.31-.69.69-1.05.49a2.66,2.66,0,0,1-.88-1.67c-.05-.29-.18-.52-.22-.81s-.18-.38-.23-.57a2.76,2.76,0,0,0-.25-.52c-.06-.15-.44-.34-.58-.43a1.82,1.82,0,0,0-.61-.2c-.5-.08-.81-.2-1.31-.3a11.58,11.58,0,0,1-1.54-.76,7.91,7.91,0,0,1-.82-.42,2.33,2.33,0,0,1-.26-.17,1.19,1.19,0,0,0-.38-.11,1.28,1.28,0,0,0-.9.09,4.49,4.49,0,0,0-.49.37c-.26.22-.42.52-.68.74a12.24,12.24,0,0,1-.93.83c-.43.33-.75.76-1.15,1.12a14.65,14.65,0,0,0-1,1.2,5.73,5.73,0,0,0-.47.63c-.18.27-.41.53-.61.79-.43.57-.88,1.15-1.36,1.69-.21.24-.48.42-.68.67a8.31,8.31,0,0,1-1,1.09c-.36.31-.81.52-1.17.84a7.94,7.94,0,0,1-.72.58c-.18.11-.32.25-.49.37a8.34,8.34,0,0,1-1,.63,3.15,3.15,0,0,1-.86.19,4.3,4.3,0,0,0-.73.16c-.11,0-.23.05-.26.15-.09.26.34.31.51.33a3.26,3.26,0,0,0,1.16-.21c.25-.08.51-.11.76-.2a4.39,4.39,0,0,0,.86-.45c.16-.11.3-.23.46-.33a2.55,2.55,0,0,0,.48-.29c.34-.29.69-.57,1-.85s.78-.69,1.17-1c.14-.13.3-.24.44-.37s.35-.39.53-.58a8.39,8.39,0,0,0,.84-1c.24-.36.53-.7.75-1.07s.44-.71.69-1.05a4.09,4.09,0,0,1,.4-.53c.22-.25.41-.52.64-.76s.71-.74,1-1.13a5.11,5.11,0,0,1,.72-.75,8.16,8.16,0,0,0,.71-.73l.49-.44a1.11,1.11,0,0,1,.72-.41,1.75,1.75,0,0,1,.9.45c.16.1.3.23.45.34a2,2,0,0,0,.33.16l.5.27a6.36,6.36,0,0,0,1.1.52,10.31,10.31,0,0,1,1,.29,1.63,1.63,0,0,1,.86.67,10.24,10.24,0,0,1,.73,1.7c.08.23.1.48.18.72a2.36,2.36,0,0,0,.29.48,1.74,1.74,0,0,0,1.09.71,1,1,0,0,0,.68-.07,1.4,1.4,0,0,0,.47-.56c.13-.26.53-.63.56-.92s.1-.48.13-.76a6.05,6.05,0,0,0,.06-1c0-.3-.34-.45-.44-.72a5.8,5.8,0,0,0-.86-1.38,5,5,0,0,0-.37-.43c-.05-.06-.09-.14-.16-.17a1.27,1.27,0,0,1,.58.14,3.18,3.18,0,0,1,.83.4,4.9,4.9,0,0,1,.76.75,8.43,8.43,0,0,1,.69,1.1c.23.38.53.72.77,1.09a2.46,2.46,0,0,0,.65.79,1.09,1.09,0,0,0,1,.15c.42-.15.46-.58.5-1a3.28,3.28,0,0,0,0-1.62c-.12-.25-.37-.49-.49-.74a7.22,7.22,0,0,0-.55-.81,16.8,16.8,0,0,0-2.95-3,3.37,3.37,0,0,1-.62-.69c-.1-.17-.2-.37.12-.3s.42.27.58.4a4.45,4.45,0,0,1,.65.72,5.93,5.93,0,0,0,.61.62,8.25,8.25,0,0,1,.67.65,3.56,3.56,0,0,0,1.17.81c.35.14.73.26,1.1.37a.58.58,0,0,0,.41,0,1.33,1.33,0,0,0,.37-.34,1,1,0,0,0-.07-1.22,5,5,0,0,0-.49-.43,6.87,6.87,0,0,1-.68-.75,12.86,12.86,0,0,1-1.07-1.39,12.13,12.13,0,0,0-1.72-2.32,2.41,2.41,0,0,0-1.33-.39c-.77-.09-1.55-.14-2.33-.21-.31,0-.63-.08-.94-.09l-1.38,0a23.08,23.08,0,0,0-2.76.12c-.42,0-.83.13-1.24.18s-1,.18-1.44.27a12,12,0,0,0-1.79.56l-1.11.39c-.28.11-.53.26-.8.39s-.44.3-.66.44-.47.34-.69.52c-.7.59-1.38,1.18-2,1.8l-.47.42c-.17.15-.31.34-.5.48-.35.28-.74.5-1.07.79s-.72.5-1,.78c-.12.1-.23.16-.36.25s-.37.28-.58.39-.68.28-1,.47-.54.35-.83.51-.69.35-1,.55a3.51,3.51,0,0,0-1.18,1.15C116.45,122.16,116.16,122.6,116.29,122.49Z"/><path class="cls-2" d="M115.42,125.18a5,5,0,0,1,1.15.23,6.44,6.44,0,0,0,.61.24c.37.1.72.24,1.09.34a3,3,0,0,0,1.27.07,6.74,6.74,0,0,0,.88-.24,2.75,2.75,0,0,0,.45-.17,2.79,2.79,0,0,0,.42-.28,3.27,3.27,0,0,0,.62-.56,7,7,0,0,0,.6-.83c.1-.16.22-.3.31-.47a4,4,0,0,0,.2-.48,8.51,8.51,0,0,0,.29-.85,6.92,6.92,0,0,1,.37-.84,4,4,0,0,1,.6-1,3.45,3.45,0,0,1,.64-.5,2.36,2.36,0,0,1,.67-.42c0,.1-.2.18-.28.27s-.18.24-.29.36a1.58,1.58,0,0,0-.27.31,2.64,2.64,0,0,1-.15.29,4.83,4.83,0,0,0-.4.94,2.48,2.48,0,0,0-.17.37c0,.17-.09.34-.15.51a6,6,0,0,1-.36.82c-.14.31-.33.61-.49.91a4.55,4.55,0,0,1-.44.64,3.71,3.71,0,0,1-.61.58c-.11.1-.19.21-.29.32a2.13,2.13,0,0,1-.34.25,3.76,3.76,0,0,1-.85.49,3.82,3.82,0,0,1-1.61.23,3.18,3.18,0,0,1-.43-.06,1.92,1.92,0,0,1-.33-.14c-.09,0-.18-.06-.27-.09a2,2,0,0,1-.4-.23c-.22-.13-.41-.29-.64-.43s-.31-.16-.46-.24a5,5,0,0,0-.58-.22.92.92,0,0,0-.29,0S115.5,125.28,115.42,125.18Z"/><path class="cls-2" d="M139.05,113.58a3.28,3.28,0,0,1,.7,0,.13.13,0,0,1,.16.06.65.65,0,0,1,.15.1.59.59,0,0,1,.18.49.44.44,0,0,1-.05.28c-.06.08-.17.11-.22.19a1.12,1.12,0,0,0,.61-.34.53.53,0,0,0-.09-1,1.36,1.36,0,0,0-1.05-.09,3.05,3.05,0,0,0-.32.13.41.41,0,0,0-.15.07S139,113.53,139.05,113.58Z"/><path class="cls-2" d="M138.75,115.72l.5.25a.3.3,0,0,1,.2.14,1.13,1.13,0,0,1,.12.18,1,1,0,0,1,.13.54.41.41,0,0,1-.06.34c-.07.09-.19.12-.26.2.1.14.46-.12.53-.2a.84.84,0,0,0,0-.89,1.55,1.55,0,0,0-.73-.43C139,115.78,138.82,115.75,138.75,115.72Z"/><path class="cls-2" d="M137.52,118a1.46,1.46,0,0,1,.41.41.85.85,0,0,0,0,.16c0,.09,0,.2,0,.3a.6.6,0,0,1-.42.41.86.86,0,0,1-1-.09,3.36,3.36,0,0,1,.49.27,1,1,0,0,0,.62.11.77.77,0,0,0,.59-.69c0-.28.07-.54-.22-.71a.83.83,0,0,0-.3-.14A.64.64,0,0,0,137.52,118Z"/><path class="cls-2" d="M140.09,123.43a2,2,0,0,1,.1-.87.51.51,0,0,1,.18-.09.84.84,0,0,1,.31,0,.51.51,0,0,1,.39.38,1.77,1.77,0,0,1,0,.56.72.72,0,0,1-.28.42.44.44,0,0,1-.55,0C140.13,123.64,140.18,123.37,140.09,123.43Z"/><path class="cls-2" d="M144.61,121.76a1.35,1.35,0,0,1-.1-.56c.14,0,.23-.1.39-.08a.32.32,0,0,1,.31.29,1.08,1.08,0,0,1,0,.18,1.6,1.6,0,0,1,0,.21c0,.17-.06.24-.22.27a.58.58,0,0,1-.32,0c-.12-.06-.14-.19-.17-.3a1.91,1.91,0,0,1-.1-.34S144.48,121.29,144.61,121.76Z"/><path class="cls-2" d="M144.85,117.05c.17-.1.39-.29.6-.18a.75.75,0,0,0,.18.07c.18.07.25.19.4.3s.18.14.15.27-.15.13-.25.14a.87.87,0,0,1-.85-.25C145,117.33,144.77,117,144.85,117.05Z"/><path d="M7,159.5c1.09-1.9,2.13-3.9,3.37-5.73.73-1.06,1.48-2.06,2.14-3.16a35.44,35.44,0,0,1,2.73-3.86,9.86,9.86,0,0,0,.85-1,3.71,3.71,0,0,0,.22-1.62c0-.87,0-1.75,0-2.63a17.77,17.77,0,0,0,0-2.73,2.16,2.16,0,0,1,0-1.42,24.32,24.32,0,0,1,2-2.43,7.59,7.59,0,0,0,1.2-3.11c.12-.62.32-1.16.41-1.77a22.6,22.6,0,0,1,.49-2.73,51.33,51.33,0,0,1,1.73-5.07c.43-1.09,1-2.17,1.46-3.25a29.72,29.72,0,0,1,1.57-3.08c.53-.89.86-1.86,1.42-2.74a23,23,0,0,0,1.54-2.84c.49-1.09.86-2.21,1.3-3.31a14.29,14.29,0,0,0,.54-4.65,14.08,14.08,0,0,0-.35-3c-.13-.74-.17-1.49-.31-2.23a5.23,5.23,0,0,1-.12-2.63c.57-2.07,1.88-3.89,2.64-5.89a24.6,24.6,0,0,0,.91-2.62c.13-.45.2-.9.37-1.34a4,4,0,0,1,.77-1.24c.77-.86,1.76-1.64,2.61-2.43,1.06-1,2-2.08,3.11-3a5.31,5.31,0,0,1,.66-.48,7.41,7.41,0,0,1,1-.61c.24.43.25.82.61,1.19a3.31,3.31,0,0,0,1.57,1.06,6.06,6.06,0,0,0,2-.17l2.86-.36c1.46-.19,2.92-.35,4.38-.55a45.91,45.91,0,0,0,4.56-.65A13.64,13.64,0,0,1,59.78,77c1-.06,1.95-.28,2.94-.28a6.48,6.48,0,0,1,1.46,0,5,5,0,0,0,3-.45c.9-.4,1.77-.82,2.67-1.22,1.25-.55,2.54-1,3.81-1.52,1-.4,1.82-1.08,2.75-1.56A8.72,8.72,0,0,1,79,70.82c.63-.08.84.33,1.36.56s1.22.27,1.78.46c.36.12.72.2,1.09.29,1,.26,2.07.59,3.12.85,1.31.32,2.58.71,3.9,1,2.11.45,4.14,1.23,6.28,1.56.14.67.44,1.32.64,2a22.74,22.74,0,0,0,1.41,3.3,22,22,0,0,0,1.57,2.9c.7,1,1.09,2.2,1.81,3.22a20,20,0,0,1,2.6,3.93,2.37,2.37,0,0,1,.12,1c0,.73-.1,1.44-.1,2.18a16.78,16.78,0,0,0,.1,3.09,19.94,19.94,0,0,0,.78,3,12.52,12.52,0,0,0,.85,1.77c.26.47.63.86.9,1.35.51,1-.14,1.59-.58,2.48-.76,1.51-1.62,3-2.23,4.55a23.86,23.86,0,0,0-.72,2.73,8.16,8.16,0,0,0-.37,2.51,29.76,29.76,0,0,0,.88,5.84c.4,1.79.86,3.56,1.23,5.35a5.23,5.23,0,0,1,0,2.72c-.5,1.43-1,2.84-1.52,4.25a34.66,34.66,0,0,1-1.44,3.44,17.45,17.45,0,0,0-1.64,3.67,15.34,15.34,0,0,0-.31,2.53,3.75,3.75,0,0,0-.09.82,6.18,6.18,0,0,0,.21.79c.13.55.19,1.1.35,1.65.3,1,.65,2,1,3s.51,2.28,1,3.38a29.52,29.52,0,0,1,1.15,3.52c.19.71.46,1.4.67,2.11a1.18,1.18,0,0,1,0,.94,8.41,8.41,0,0,1-1.14,1.59c-.4.53-.91,1-1.3,1.51-.55.74-1,1.59-1.47,2.37A37.53,37.53,0,0,1,93,173.54c-1,.83-1.95,1.71-3,2.53-.62.5-1.28.94-1.88,1.47s-1.45,1.35-2.23,2a41.29,41.29,0,0,0-4,3.6,31.45,31.45,0,0,1-2.66,2.63,6.45,6.45,0,0,1-3.35.85c-1.38.11-2.8.3-4.17.52-2.17.34-4.3.52-6.49.7-1.22.1-2.44,0-3.66.18a34.55,34.55,0,0,1-4.32.26c-2.11,0-4.21.08-6.32.09-1.53,0-3.07.2-4.6.3a35.75,35.75,0,0,0-3.88.2c-.49.09-1,.22-1.48.28-1.28.15-2.6.18-3.87.34a24.58,24.58,0,0,1-2.66.44c-.77,0-1.51.23-2.27.27a3.49,3.49,0,0,1-1.15-.25c-.47-.12-1-.18-1.44-.3-1-.24-2,0-2.94-.27a4.12,4.12,0,0,1-2.17-1.19A28.54,28.54,0,0,1,21,184c-1.06-1.68-2.12-3.35-3.33-4.93A23.69,23.69,0,0,0,16,177.22a18.49,18.49,0,0,1-1.57-2.35,9.9,9.9,0,0,1-.7-1.47c-.31-.68-.74-1.32-1.1-2s-.5-1.26-.84-1.86a19.12,19.12,0,0,1-1-1.81c-.4-1-1.07-1.9-1.53-2.9a20.22,20.22,0,0,1-1-2.68A13.91,13.91,0,0,0,7,159.69C6.91,159.67,6.84,159.69,7,159.5Z"/><path class="cls-5" d="M44.16,80.18c.6,1.16,1.19,2.41,1.89,3.51a1.76,1.76,0,0,1,.36.71v.09A27.9,27.9,0,0,1,45,88.17c-.37.75-.61,1.55-1,2.3-.23.48-.57.92-.83,1.38a42.42,42.42,0,0,0-2.06,4,4.21,4.21,0,0,0-.2,3,4.1,4.1,0,0,1,.42,1.76,6.23,6.23,0,0,1-.49,1.37,6.73,6.73,0,0,0-.88,2.38c0,.5-.1,1-.1,1.45a3.9,3.9,0,0,1-.13,1.49,14,14,0,0,1-2,2.73c-.29.4-.49.85-.74,1.26-.37.62-.57,1.27-.92,1.88-.72,1.26-1.43,2.59-2.06,3.87-.19.39-.32.8-.49,1.18a7.35,7.35,0,0,0-.64,1.16,6.78,6.78,0,0,0-.25,1.79,8.83,8.83,0,0,1,0,1,4.65,4.65,0,0,1-.1,1.06c-.12.31-.63.51-.89.75a11,11,0,0,0-1.35,1.19,3.54,3.54,0,0,0-.61,1.19,9.39,9.39,0,0,0,0,1.5c0,.39.1.72.1,1.11a2.21,2.21,0,0,1-.32,1.25c-.24.46-.52.91-.76,1.38s-.44,1.11-.71,1.65c-.65,1.3-1,2.68-1.76,3.95-.63,1-1.93,1.37-2.82,2.2a2.27,2.27,0,0,0-.88,1.26,16.77,16.77,0,0,1-.81,2.58c-.45,1-.79,2.12-1.25,3.16a14.12,14.12,0,0,0-1.18,2.64"/><path class="cls-5" d="M28.22,140.48a75.77,75.77,0,0,0,1.28-12"/><path class="cls-5" d="M16.75,170.26c.18-1.4.46-2.8.56-4.21a20.51,20.51,0,0,1,.35-2.46c.3-1.56.59-3.11.95-4.65.11-.5.27-1.05.34-1.54a4.17,4.17,0,0,0-.61-1.9c-.25-.61-.49-1.21-.72-1.82a20.17,20.17,0,0,1-.79-2.08c-.29-1.14-.6-2.26-.86-3.41-.11-.51-.16-1-.32-1.5a2.62,2.62,0,0,1-.12-.68"/><path class="cls-5" d="M104.63,160.54a37.74,37.74,0,0,0-4.52-1.57c-.78-.21-1.6-.33-2.38-.54a43.62,43.62,0,0,0-4.66-1.2,26.23,26.23,0,0,1-3.64-.68,14.26,14.26,0,0,1-2.37-1.36,3.42,3.42,0,0,0-1.92-.56c-1,0-2.1,0-3.12.1-3.1.25-6.24-.17-9.35-.19a7.84,7.84,0,0,0-2.09.37,7.75,7.75,0,0,1-3.18-.09c-1.56-.33-3-1-4.51-1.48"/><path class="cls-5" d="M58.94,156.48a24.63,24.63,0,0,0,4.14.46h1.79c.78,0,1.5.14,2.27.19,1.53.09,3.08.18,4.62.18a10.43,10.43,0,0,0,2.56-.09,11.57,11.57,0,0,0,2-.65,9.92,9.92,0,0,0,1.46-.91c.18-.12.8-.44.91-.38"/><path class="cls-5" d="M59.24,160.63c-2.21-.34-4.43-.65-6.62-1a2.87,2.87,0,0,1-1.17-.34"/><path class="cls-5" d="M63.19,110.46c-.73-1.56-1.39-3.29-2.25-4.82-.21-.38-.47-.71-.67-1.09a5.76,5.76,0,0,1-.66-1.58,11,11,0,0,1-.18-1.91,17.45,17.45,0,0,0-.06-1.77,12.6,12.6,0,0,0-.47-1.59c-.23-.92-.46-2.18-1.43-2.7a5.73,5.73,0,0,0-3.28-.42c-.62.09-1.23.24-1.85.33a10.71,10.71,0,0,0-2.12.39c-.62.21-1.26,1.29-1.52,1.85a7.8,7.8,0,0,1-2.26,2.43,7.24,7.24,0,0,0-1.57,2.19,14.64,14.64,0,0,1-2.56,3.33,10.28,10.28,0,0,1-1.6,1.56,6.85,6.85,0,0,0-1.3.94"/><path class="cls-5" d="M78.58,72.11a17.78,17.78,0,0,0-1.78,6.66,10.48,10.48,0,0,0,.08,2c.07.37.07.78.32.93a58.39,58.39,0,0,0-4.62,4c-.54.51-.94,1.14-1.49,1.65A39.37,39.37,0,0,1,67,90.93c-1.47,1-2.81,2.21-4.26,3.27a8.19,8.19,0,0,1-4.86,1.2"/><path class="cls-6" d="M81.14,81.91a18.7,18.7,0,0,0,3.56-1.49c.51-.3,1-.67,1.48-1a22.71,22.71,0,0,0,2-1.17c.84-.6,1.65-.35,2.67-.34a5.45,5.45,0,0,0,1.62-.09,3.52,3.52,0,0,0,1.08-.74A8.44,8.44,0,0,0,95,75.62"/><path class="cls-6" d="M58.76,118.85a1.6,1.6,0,0,1,.45.52,3.05,3.05,0,0,1,.13.32,4,4,0,0,1,.14.69,2.6,2.6,0,0,1-.07,1.27c-.09.22-.17.44-.27.65s-.08.19-.12.28a2.06,2.06,0,0,0-.17.33,2.78,2.78,0,0,1-.3.53c-.08.15-.18.3-.27.44a1.83,1.83,0,0,1-.33.35c-.14.12-.27.23-.42.34a2.16,2.16,0,0,1-.92.39,3.42,3.42,0,0,1-1.15,0,5.12,5.12,0,0,1-.68-.14,3,3,0,0,1-.66-.23,3.35,3.35,0,0,1-.52-.41,1.25,1.25,0,0,1-.31-.47,2.49,2.49,0,0,1-.18-.85.74.74,0,0,0,0,.33,4.21,4.21,0,0,0,.06.79,1.84,1.84,0,0,0,.23.72.81.81,0,0,0,.28.24l.37.25a5.28,5.28,0,0,0,.76.36,2.79,2.79,0,0,0,.87.23,4.71,4.71,0,0,0,.84,0,5.45,5.45,0,0,0,1-.1,2.2,2.2,0,0,0,1.38-.81c.2-.27.35-.56.53-.84a3.31,3.31,0,0,0,.38-.91,6.07,6.07,0,0,0,.25-1.75,3.2,3.2,0,0,0,0-.69,4.09,4.09,0,0,0-.17-.69,2.94,2.94,0,0,0-.26-.57,1.22,1.22,0,0,0-.15-.17,1,1,0,0,0-.17-.19A1.25,1.25,0,0,0,58.76,118.85Z"/><path class="cls-6" d="M104.63,126.87c-1.25-.37-2.47-.78-3.74-1.09a16.34,16.34,0,0,0-2.39-.49c-.83-.07-1.64-.2-2.46-.28-.42-.05-.82-.14-1.24-.19s-.86-.07-1.28-.11-.88,0-1.32-.1l-1.12-.13a7.23,7.23,0,0,1-1-.21c-.44-.13-.9-.22-1.34-.35a12.27,12.27,0,0,0-2.45-.71,12.94,12.94,0,0,0-2.33-.06,5.3,5.3,0,0,0-2,.32,6.85,6.85,0,0,0-1.16.55,12.49,12.49,0,0,1-1.13.77,9,9,0,0,1-1.35.57,5.39,5.39,0,0,1-1,.27,9.25,9.25,0,0,1-2.73.08,8.43,8.43,0,0,1-1.31-.26,7.71,7.71,0,0,0-1.65-.36,6.41,6.41,0,0,0-1.24,0,3.87,3.87,0,0,0-1.31.21c-.29.14-.55.36-.84.51a7.17,7.17,0,0,1-1,.54,8.36,8.36,0,0,1-2.78.27c-.56,0-1.11,0-1.67,0a4.28,4.28,0,0,1-1.33-.29c-.36-.14-.71-.28-1.05-.44a7.91,7.91,0,0,1-.79-.35c-.32-.18-.5-.5-.79-.71s-.5,0-.7.19c-.38.33,0,.69.37.89a16.33,16.33,0,0,0,1.64.91,6.91,6.91,0,0,0,3.08.86c1.15,0,2.3-.17,3.44-.3.38,0,.74-.15,1.11-.21a2.82,2.82,0,0,0,.91-.27c.28-.17.52-.37.82-.53a2.93,2.93,0,0,1,1.06-.34,3.69,3.69,0,0,1,.94,0,7,7,0,0,1,1.11.3c.63.17,1.25.4,1.89.53a4.81,4.81,0,0,0,2.41-.13c.46-.15,1-.16,1.42-.31a9.23,9.23,0,0,0,1.52-.64c.37-.19.7-.45,1.09-.63s.89-.39,1.35-.56a5.31,5.31,0,0,1,.87-.23,4.66,4.66,0,0,1,1.44-.12c.85.13,1.7.22,2.55.4.48.11.94.26,1.42.39s1.14.25,1.72.36c1.23.23,2.47.35,3.71.52a16.38,16.38,0,0,1,2.61.56,9,9,0,0,0,1.54.35c.49.06,1,.17,1.46.25a14.57,14.57,0,0,1,1.57.32l.57.13c.25.06.49.17.75.22a9.74,9.74,0,0,1,1,.31l.84.27c.2.06.35,0,.55,0A11.4,11.4,0,0,1,104.63,126.87Z"/><path class="cls-6" d="M65.15,121.88a8.29,8.29,0,0,0-.31,1.56,4.75,4.75,0,0,1,0,.53c-.05.28-.18.54-.22.83s-.08.44-.11.66-.07.28,0,.37.59.27.75.29a3,3,0,0,0,1.55-.3c.1-.06.15-.08.12-.19s-.12-.16-.16-.22-.16-.3-.25-.45a13.44,13.44,0,0,1-.78-1.68,11,11,0,0,1-.41-1C65.23,122.16,65.16,121.92,65.15,121.88Z"/><path class="cls-6" d="M73.16,124.61a7.18,7.18,0,0,0,3.3.39,2.72,2.72,0,0,0,.65-.19,1.24,1.24,0,0,0,.23-.12c.1-.11-.11-.26-.2-.39-.27-.38-.5-.79-.75-1.18s-.49-.77-.76-1.15c-.1-.14-.16-.31-.27-.44a6.36,6.36,0,0,1-1.17,2.07c-.09.12-.22.22-.3.33s-.12.24-.2.35A1,1,0,0,1,73.16,124.61Z"/><path class="cls-6" d="M78,124.57c.07-.76.08-1.48.12-2.23,0-.43,0-.86,0-1.29,0-.27,0-.54,0-.81a1,1,0,0,0,0-.35,1.8,1.8,0,0,1,.46.53,7.48,7.48,0,0,0,1.06,1.32l.91.92a3.48,3.48,0,0,0,.44.42c0,.21-.34.23-.49.33a6.93,6.93,0,0,1-.91.56c-.39.16-.77.31-1.14.5A.94.94,0,0,1,78,124.57Z"/><path class="cls-6" d="M82.84,122.63a5.16,5.16,0,0,1,2-.13,8.33,8.33,0,0,0,.86.22c.17,0,.32.13.49.15s.14,0,.22,0c.31-.49,0-1.15-.18-1.61s-.38-1-.58-1.57q-.12-.35-.27-.69a2,2,0,0,0-.17-.43A1.78,1.78,0,0,0,85,119c-.15.32-.35.61-.5.93a14,14,0,0,1-.76,1.43c-.11.18-.29.29-.38.47a2.11,2.11,0,0,1-.18.33C83.08,122.29,83,122.45,82.84,122.63Z"/><path class="cls-6" d="M88.62,123.44a9,9,0,0,0,2.12.51,11.74,11.74,0,0,0,1.19.16,16.4,16.4,0,0,0,1.88-.18,14.16,14.16,0,0,1-1.31-2.61c-.19-.56-.36-1.11-.55-1.67a4.32,4.32,0,0,0-.29-.88,3.68,3.68,0,0,0-.23.49c-.14.3-.34.57-.5.86s-.35.57-.54.87-.36.74-.61,1.09-.41.56-.63.83c-.09.1-.15.24-.25.34S88.68,123.34,88.62,123.44Z"/><path class="cls-6" d="M95.37,124.11c.66.1,1.32.22,2,.3a9.94,9.94,0,0,1,1.52.29c.21.06.43,0,.65.1a5.62,5.62,0,0,0,.58.19,1,1,0,0,0,.42.07c0-.09-.08-.17-.13-.24a6.43,6.43,0,0,1-.32-.71c-.16-.32-.35-.62-.51-.93a9.07,9.07,0,0,1-.32-.87,12.1,12.1,0,0,1-.59-1.62c0-.21-.11-.42-.15-.63a.74.74,0,0,0-.08-.29,3.83,3.83,0,0,0-.28.42c-.18.28-.37.54-.58.81-.39.5-.6,1.1-1,1.62-.25.33-.51.66-.74,1A2.24,2.24,0,0,1,95.37,124.11Z"/><path class="cls-6" d="M101.33,125.26a6.15,6.15,0,0,1,2.28.69,1.08,1.08,0,0,0,.24.18l-.3-.7a9.55,9.55,0,0,1-.41-1.48c-.09-.35-.19-.71-.29-1.06,0-.19,0-.51-.13-.67a14.49,14.49,0,0,0-.62,1.32c-.11.2-.2.42-.33.62a3.47,3.47,0,0,0-.29.38c-.07.13-.11.27-.18.39s-.16.16-.13.23A.16.16,0,0,0,101.33,125.26Z"/><path class="cls-6" d="M59.25,152.41a7.74,7.74,0,0,1,1.27.08l.49.1c.24,0,.49.07.73.13l.66.23c.15.05.29.08.43.14s.33.15.48.24.22.09.24.14,0,.29-.09.31-.18-.06-.23-.08-.33-.14-.5-.19l-.74-.26c-.27-.08-.56-.14-.82-.24-.46-.17-1-.3-1.4-.49C59.67,152.49,59.21,152.3,59.25,152.41Z"/><path class="cls-6" d="M59.25,156.41a6.3,6.3,0,0,0-1.52-.5l-1.06-.12c-.35,0-.67-.08-1-.08a.81.81,0,0,0-.35,0,1.21,1.21,0,0,0,.18.05,3.61,3.61,0,0,1,.42.16,6,6,0,0,0,.94.29c.56.13,1.13.2,1.69.31.34.06.67.12,1,.16S60.13,156.78,59.25,156.41Z"/><path class="cls-6" d="M73.52,99c.44-.75.79-1.55,1.18-2.33.12-.26.22-.52.36-.78a2.39,2.39,0,0,0,.18-.44c.11-.32.29-.61.4-.93s.18-.35.26-.52a6.07,6.07,0,0,1,.31-.69,3.63,3.63,0,0,0,.28-.51,3.12,3.12,0,0,1,.23-.49c.2-.32.43-.63.66-.93a6.22,6.22,0,0,1,.64-.72c.29-.27.49-.61.78-.89s.53-.59.84-.84l.43-.38a3.47,3.47,0,0,1,.38-.29,6.69,6.69,0,0,1,1.13-.78,12.76,12.76,0,0,1,2.4-1,9.75,9.75,0,0,1,1.21-.31c.45-.06.91-.09,1.36-.11s.8-.1,1.21-.08a10.1,10.1,0,0,1,1.35.11l.71.1c.21,0,.41.11.63.16a4.67,4.67,0,0,1,1.14.45c.38.19.78.32,1.14.54a13,13,0,0,1,1.41.79c.66.48,1.36.91,2,1.45a14.86,14.86,0,0,1,1.73,1.82,14.58,14.58,0,0,1,1.59,2.09c.35.61.7,1.23,1,1.87a10.46,10.46,0,0,1,.68,1.79,10.75,10.75,0,0,1,.29,1.48c0,.21,0,.42,0,.62a1.37,1.37,0,0,1,0,.35.33.33,0,0,1-.17.31.81.81,0,0,1-.15-.31,2.64,2.64,0,0,1-.15-.45c-.09-.38-.16-.77-.28-1.14a14.22,14.22,0,0,0-1.32-2.72,18,18,0,0,0-1.29-2.08c-.27-.34-.56-.67-.86-1A8.94,8.94,0,0,0,96.14,91c-.44-.36-.9-.68-1.36-1s-.9-.5-1.35-.77a11.8,11.8,0,0,0-1.66-.74,11.12,11.12,0,0,0-2-.56c-.51-.09-1-.11-1.54-.2a5.64,5.64,0,0,0-1.48,0c-.46,0-.94,0-1.4.08a14.33,14.33,0,0,0-1.46.24c-.4.1-.83.21-1.22.35s-.67.28-1,.43l-.78.4a5,5,0,0,0-.63.48,3.48,3.48,0,0,0-.52.41,9,9,0,0,1-.65.72,1.7,1.7,0,0,0-.29.31l-.29.27c-.23.25-.44.51-.66.76l-.54.62c-.19.24-.33.5-.5.74s-.46.65-.66,1-.41.61-.58.93-.33.61-.51.91a7.06,7.06,0,0,0-.5,1c-.1.25-.27.49-.37.74a1.9,1.9,0,0,1-.31.62c-.07.06-.18.09-.25.14l-.16.12S73.53,99,73.52,99Z"/><path class="cls-6" d="M74.58,102.43a4.07,4.07,0,0,1,1.08.74,2,2,0,0,0,.19.22,5.89,5.89,0,0,1,.57.65,9.77,9.77,0,0,1,1.07,1.85,8.8,8.8,0,0,0,1,1.69c.16.23.33.47.51.69s.51.49.76.74a4.61,4.61,0,0,0,1,.78,9.67,9.67,0,0,0,1.53.8l.7.23a3.65,3.65,0,0,0,.56.18l.41.06a5.61,5.61,0,0,0,1,.17c.37,0,.73.1,1.1.13.84.07,1.68.11,2.53.11a10.87,10.87,0,0,0,2.28-.21,6.69,6.69,0,0,0,1.63-.62c.43-.24.84-.5,1.3-.71a5.91,5.91,0,0,0,1.11-.66c.39-.28.74-.61,1.13-.88.17-.12.31-.25.47-.37s.4-.27.58-.43a11.91,11.91,0,0,0,1.08-.92,5.86,5.86,0,0,1,1.07-.78c.29-.18.59-.39.9-.55a6.07,6.07,0,0,1,1-.39,1.55,1.55,0,0,0-.36.19c-.19.11-.39.17-.56.29s-.45.43-.69.63a2.78,2.78,0,0,0-.42.42c-.24.25-.52.47-.76.73-.45.5-.87,1-1.36,1.47A15.33,15.33,0,0,1,93,111.15c-.47.23-1,.42-1.48.62-.15,0-.28.11-.44.15l-.53.19a1.43,1.43,0,0,1-.36,0c-.1,0-.22,0-.33,0a1.7,1.7,0,0,1-.39,0c-.26,0-.5,0-.77,0l-.46,0-.58-.06c-.18,0-.36-.06-.54-.06h-.42l-.77-.08a4.06,4.06,0,0,1-.77-.1c-.3-.06-.62-.08-.92-.17a6.91,6.91,0,0,1-1.28-.35,4.74,4.74,0,0,0-.74-.29c-.32-.1-.61-.21-.92-.34a1.3,1.3,0,0,1-.26-.14c-.14-.1-.3-.14-.44-.23s-.18-.15-.3-.21a2.22,2.22,0,0,1-.35-.25,7.37,7.37,0,0,0-.61-.5,6.54,6.54,0,0,1-.71-.68c-.25-.25-.39-.58-.62-.85a4.35,4.35,0,0,1-.45-.61,4.74,4.74,0,0,1-.24-.58c-.14-.33-.29-.65-.45-1s-.31-.67-.48-1-.3-.55-.47-.81a6.64,6.64,0,0,0-.56-.75,5.37,5.37,0,0,0-.51-.44,1.78,1.78,0,0,0-.31-.23S74.6,102.45,74.58,102.43Z"/><path class="cls-6" d="M77.64,108.92a7,7,0,0,1,.73.81l.37.54a8,8,0,0,0,.62.69,7.15,7.15,0,0,0,.87.87c.35.29.65.62,1,.93a5,5,0,0,0,.91.58c.17.1.32.23.48.33a9.89,9.89,0,0,0,1.24.57c.26.11.5.24.77.33s.48.14.71.23a5.3,5.3,0,0,0,1.24.28,7.8,7.8,0,0,0,4.49-.88l.5-.2c.2-.07.39-.19.59-.27a3.66,3.66,0,0,0,.85-.33c.24-.15.51-.26.75-.42a5.94,5.94,0,0,1,.78-.34,5.24,5.24,0,0,1,.65-.27,2.11,2.11,0,0,0-.4.26,5,5,0,0,1-.68.39A20.76,20.76,0,0,1,92,114.15c-.21.09-.4.21-.61.3s-.35.11-.52.17-.4.19-.6.28a4.35,4.35,0,0,1-.61.2,9.35,9.35,0,0,1-1.07.29c-.19,0-.39,0-.59,0a3.1,3.1,0,0,1-.61,0,2.41,2.41,0,0,1-.6-.08,3,3,0,0,0-.32-.1c-.1,0-.21,0-.31,0a4.92,4.92,0,0,1-.55-.14c-.2,0-.4-.07-.6-.11a12.46,12.46,0,0,1-2.48-.83,6.09,6.09,0,0,1-1.83-1.47,8.53,8.53,0,0,1-1.19-1.36c-.16-.25-.37-.48-.54-.73s-.3-.45-.46-.67S78,109.35,77.64,108.92Z"/><path class="cls-6" d="M75.85,99.35a8.35,8.35,0,0,0,.18,1.22c.06.2.14.4.2.59a7.48,7.48,0,0,0,.51,1A16.06,16.06,0,0,0,77.87,104c.34.51.65,1,1,1.54a6,6,0,0,0,1.34,1.27,11.83,11.83,0,0,0,1.55,1c.51.27,1.06.47,1.59.69a6.3,6.3,0,0,0,1.67.42c.44.06.89.08,1.34.1s1,.07,1.51.06a24.38,24.38,0,0,0,2.7-.23,17.13,17.13,0,0,0,2.66-.52,12,12,0,0,0,1.77-.63,12.15,12.15,0,0,0,1.47-.79,5.58,5.58,0,0,0,.56-.39,8.22,8.22,0,0,0,.67-.49,10.4,10.4,0,0,1,.76-.72c.16-.13.29-.27.46-.39s.45-.3.68-.45a4.9,4.9,0,0,1,.48-.31c.15-.07.31-.11.45-.19a2.29,2.29,0,0,1,1.47-.31.82.82,0,0,0-.45-.16,2.32,2.32,0,0,0-.91.08,4.27,4.27,0,0,0-.61.29c-.21.12-.42.2-.61.33s-.64.45-1,.69a4.6,4.6,0,0,0-.62.55,2.64,2.64,0,0,1-.59.51c-.22.15-.42.33-.63.49a10.13,10.13,0,0,1-.85.61c-.25.16-.55.26-.81.41a5.28,5.28,0,0,1-1,.33,10.05,10.05,0,0,1-1.34.32c-.8.11-1.59.3-2.41.38-.28,0-.56,0-.84,0s-.73.07-1.1.08H87.16a9.67,9.67,0,0,1-1.07-.1c-.32,0-.61-.15-.92-.21a7.72,7.72,0,0,1-1-.19,12.68,12.68,0,0,1-2-.75c-.28-.14-.53-.34-.81-.5a6.71,6.71,0,0,1-.92-.57,12.05,12.05,0,0,1-1.19-1.18,9.36,9.36,0,0,1-1-1.35l-.42-.73c-.13-.22-.28-.44-.41-.67a2.27,2.27,0,0,0-.26-.35c-.07-.08-.11-.18-.18-.26s-.21-.26-.31-.4a4.39,4.39,0,0,1-.44-.68,5.3,5.3,0,0,1-.26-.7A5.56,5.56,0,0,1,75.85,99.35Z"/><path class="cls-6" d="M74.6,100.35a2.92,2.92,0,0,0,.6-.42l.15-.16a1.37,1.37,0,0,0,.29-.38c.21-.38.44-.73.62-1.12a5.07,5.07,0,0,1,.37-.64c.16-.22.32-.47.5-.68.48-.55,1.11-1,1.55-1.57.29-.39.61-.75.92-1.12A16.45,16.45,0,0,1,80.94,93a10.91,10.91,0,0,1,2-1.47c.32-.17.61-.4.95-.54A8.84,8.84,0,0,1,85,90.51c.25-.08.52-.14.78-.2a6.53,6.53,0,0,1,1.17-.22c.45,0,.88-.09,1.33-.08s.79.07,1.19.11.78.14,1.18.21a5,5,0,0,1,1.15.32,8.37,8.37,0,0,1,1,.45c.29.18.56.37.83.57a7.21,7.21,0,0,1,.75.59c.23.21.44.42.65.63a12.89,12.89,0,0,1,1.32,1.45c.14.18.3.35.44.53s.46.47.64.75c.3.46.62.9.89,1.37a34.16,34.16,0,0,1,1.62,3.12c.13.3.31.57.43.88s.29.61.42.93a6.52,6.52,0,0,0,.45.92,5.79,5.79,0,0,0,.38.58,2.2,2.2,0,0,0-.22-.53c-.14-.31-.22-.64-.37-1-.35-.78-.54-1.62-.88-2.41-.16-.37-.3-.75-.48-1.11s-.39-.91-.63-1.35-.46-.95-.73-1.41a16.84,16.84,0,0,0-1.1-1.6c-.2-.25-.43-.48-.65-.72s-.39-.47-.6-.68a20,20,0,0,0-1.62-1.26c-.25-.19-.51-.33-.77-.5s-.44-.32-.66-.46a8.57,8.57,0,0,0-1.74-.8,7.4,7.4,0,0,0-.81-.21c-.23-.06-.45-.14-.68-.19a7.87,7.87,0,0,0-1.94-.09,13.77,13.77,0,0,0-1.7.16,10.73,10.73,0,0,0-1.5.42,5.61,5.61,0,0,0-1,.52c-.36.21-.72.43-1.06.67s-.61.42-.89.65-.55.5-.84.74a11.81,11.81,0,0,0-.91.82c-.2.21-.37.46-.57.66a5.11,5.11,0,0,0-.45.48,6.27,6.27,0,0,0-.62.84,9.3,9.3,0,0,1-.67,1c-.17.22-.37.38-.56.59l-.41.5a2.66,2.66,0,0,0-.48.72c-.14.31-.37.57-.51.89a3.47,3.47,0,0,1-.31.81,2.86,2.86,0,0,1-.46.46l-.18.14a2.29,2.29,0,0,1-.23.1c0,.08.13,0,.19,0S74.67,100.38,74.6,100.35Z"/><path class="cls-6" d="M70.79,93.3l1.5.41A6.35,6.35,0,0,1,73,94a3.44,3.44,0,0,1,.69.35,2.3,2.3,0,0,0,.49.26c.18.05.57.07.6-.16s-.35-.6-.6-.74a4.9,4.9,0,0,0-1.39-.54A6.15,6.15,0,0,0,71.4,93C71.19,93,70.66,93,70.79,93.3Z"/><path class="cls-6" d="M73.83,88.19c.61.42,1.26.77,1.88,1.17a2.25,2.25,0,0,0,.85.38c.1,0,.22.06.29,0s.05-.15,0-.22c0-.37-.47-.61-.77-.81a3.38,3.38,0,0,0-2.05-.86C73.8,87.88,73.86,88.06,73.83,88.19Z"/><path class="cls-6" d="M79,83.57c.36.5.77,1,1.16,1.43a5.29,5.29,0,0,0,.74.9c.09.07.41.22.48.06s-.05-.26-.07-.34a3.27,3.27,0,0,0-.35-.56,5.8,5.8,0,0,0-.68-.82,4.18,4.18,0,0,0-.72-.67.49.49,0,0,0-.42-.09C79,83.53,79,83.57,79,83.57Z"/><path class="cls-6" d="M87.55,81.92a10.23,10.23,0,0,1,.19,1.46c0,.31,0,.62,0,.92,0,.14-.05.48.17.5l.24,0c.12-.06.08-.27.09-.4A9,9,0,0,0,88.2,83,2,2,0,0,0,88,82c0-.08-.23-.24-.35-.2S87.46,82,87.55,81.92Z"/><path class="cls-6" d="M93.09,85.85a1.59,1.59,0,0,1-.16-.64l0,0a.54.54,0,0,0,.09-.15c.07-.15.17-.28.25-.43s.27-.59.42-.88a.82.82,0,0,1,.37-.45c.18-.08.27.11.27.27a2,2,0,0,1-.1.41l-.15.44a2.34,2.34,0,0,1-.19.46c-.07.13-.17.23-.25.36S93.31,86,93.09,85.85Z"/><path class="cls-6" d="M96.52,88.38a2.33,2.33,0,0,1,.17-.69.45.45,0,0,0,.3-.16c.11-.11.25-.2.35-.32s.46-.54.72-.79c.09-.07.27-.28.41-.23s.11.17.12.23a.68.68,0,0,1-.09.39,4.41,4.41,0,0,1-.67.77,2.9,2.9,0,0,1-.34.36c-.13.11-.28.18-.4.28a.82.82,0,0,1-.41.22C96.48,88.43,96.48,88.18,96.52,88.38Z"/><path class="cls-6" d="M99.28,91.13c-.11-.23-.28-.44,0-.63a2.23,2.23,0,0,1,.33-.2,4.3,4.3,0,0,0,.68-.59c.13-.13.74-.62.81-.17s-.24.58-.44.8a1.88,1.88,0,0,1-.78.58C99.57,91,99.24,91,99.28,91.13Z"/><path class="cls-6" d="M77.25,98.66a7.17,7.17,0,0,0,.66-.93,1.14,1.14,0,0,1,.18-.32,5.79,5.79,0,0,1,.48-.51c.34-.36.64-.74,1-1.11s.53-.5.77-.77.51-.61.78-.9A13.88,13.88,0,0,1,82.21,93,8.67,8.67,0,0,1,84,91.78a9.48,9.48,0,0,1,1.76-.84,5.74,5.74,0,0,1,1.15-.24,6.79,6.79,0,0,1,.78,0c.24,0,.46,0,.7,0a10.17,10.17,0,0,1,2.79.56A11.35,11.35,0,0,1,94,92.88a15.33,15.33,0,0,1,4,4.69c.46.78.82,1.63,1.21,2.43a4.41,4.41,0,0,1,.64,1.69,2.55,2.55,0,0,1-.88,1.64,5.55,5.55,0,0,1-.49.48c-.17.13-.37.24-.54.38-.41.33-.76.73-1.19,1-.18.12-.32.26-.51.38s-.38.36-.61.53a5.1,5.1,0,0,1-.67.43c-.19.11-.42.16-.61.27s-.1.09-.19.12-.16.05-.25.09a1.9,1.9,0,0,1-.48.14c-.68.15-1.26.48-1.92.68a11.53,11.53,0,0,1-3.56.35,15,15,0,0,1-1.5-.16,11,11,0,0,1-1.15-.16,9,9,0,0,1-2.95-1.18,4.7,4.7,0,0,1-.87-.72c-.24-.28-.5-.53-.74-.8a13.9,13.9,0,0,1-1.55-1.89,12.47,12.47,0,0,1-1.07-1.64,12.27,12.27,0,0,0-.64-1.11,2,2,0,0,1-.18-.79,6,6,0,0,1-.07-.72A.87.87,0,0,1,77.25,98.66Z"/><path class="cls-7" d="M88.82,91.39a6,6,0,0,1,1.9.08,4,4,0,0,1,.93.45,6.19,6.19,0,0,1,1.75,1.27A8.91,8.91,0,0,1,94.71,95a9.71,9.71,0,0,1,.64,1.78,11.49,11.49,0,0,1,.23,1.75,6.45,6.45,0,0,1,0,1.7c-.12.6-.33,1.21-.51,1.8a4.18,4.18,0,0,1-.31.76c-.16.29-.25.59-.43.86A7.49,7.49,0,0,1,92.87,105a4.28,4.28,0,0,1-1.64.73,5.53,5.53,0,0,1-3.79-.39A7.16,7.16,0,0,1,85.33,104a4.21,4.21,0,0,1-.79-1,5.44,5.44,0,0,1-.47-1.41,13.15,13.15,0,0,1-.14-3.07,8,8,0,0,1,.39-2.74,10.25,10.25,0,0,1,1.16-2.46A5.85,5.85,0,0,1,86.94,92a2.8,2.8,0,0,1,1.21-.56C88.31,91.42,88.84,91.54,88.82,91.39Z"/><path class="cls-6" d="M89.8,91.87a6.37,6.37,0,0,1,2.13.81c.22.16.48.28.69.45a6.89,6.89,0,0,1,1.27,1.43,4.39,4.39,0,0,1,.82,1.68c.09.46.19.93.26,1.39a8.85,8.85,0,0,1-.22,2.9,7.13,7.13,0,0,1-.73,2.29,4.24,4.24,0,0,1-1,1.08,8.47,8.47,0,0,1-1.21.88,3.38,3.38,0,0,1-1.46.42,6.63,6.63,0,0,1-.9,0,3.63,3.63,0,0,1-.93-.16,6.8,6.8,0,0,1-1.84-.94,4.09,4.09,0,0,1-.87-.79,7,7,0,0,1-.64-1.08,4.45,4.45,0,0,1-.39-1.32,7.45,7.45,0,0,1-.16-1.48,18.49,18.49,0,0,1,.15-3,12,12,0,0,1,.34-1.21,5.22,5.22,0,0,1,.72-1.14,5.39,5.39,0,0,1,1.24-1.53A3.6,3.6,0,0,1,88.38,92a5.44,5.44,0,0,1,1-.09C89.56,91.86,89.78,91.87,89.8,91.87Z"/><path class="cls-7" d="M89.28,92.86a3,3,0,0,1,1.4.43l.27.24a3.43,3.43,0,0,1,.4.54,4,4,0,0,1,.36.6c.14.28.21.59.34.88a3.28,3.28,0,0,1,.24.75c0,.21.15.4.19.61.09.41.16.82.22,1.22a6.64,6.64,0,0,1-1,4.32,1.66,1.66,0,0,1-2,.77,2.57,2.57,0,0,1-1.17-1,6,6,0,0,1-.89-1.81,5.25,5.25,0,0,1-.32-2c.08-.72,0-1.45.12-2.18a6.78,6.78,0,0,1,.45-1.7,3.37,3.37,0,0,1,.69-1.13C88.82,93.13,89,92.89,89.28,92.86Z"/><path d="M87.88,93.23a5.52,5.52,0,0,0-.9,1.16c-.06.13-.1.27-.16.4-.13.32-.28.62-.4.94A9,9,0,0,0,86,97.49a9.21,9.21,0,0,0,.45,4.35,3.28,3.28,0,0,0,1,1.77,8.34,8.34,0,0,0,.92.41,3.11,3.11,0,0,0,.84.35,4.12,4.12,0,0,0,3.42-1.18c-.13.49-.77.8-1.2,1a4.48,4.48,0,0,1-1.6.45,5.06,5.06,0,0,1-.87,0,2.49,2.49,0,0,1-1-.37,5.16,5.16,0,0,1-1.45-1.34,5.05,5.05,0,0,1-1.21-3,10.08,10.08,0,0,1,.25-3.33,5.45,5.45,0,0,1,1-2.26c.19-.21.41-.41.61-.6a4,4,0,0,1,.33-.24A2,2,0,0,1,87.88,93.23Z"/><path class="cls-2" d="M89.33,93.74a1.4,1.4,0,0,1,.8.33c-.07.2,0,.3-.11.47a.63.63,0,0,1-.28.2.52.52,0,0,1-.53-.19C89.1,94.37,89.1,93.87,89.33,93.74Z"/><path class="cls-2" d="M90.17,95.65a2.94,2.94,0,0,1,.47-.73c0,.12.2.22.27.34a1.46,1.46,0,0,1,.16.41,2.23,2.23,0,0,1,.08.89c0,.24,0,.65-.33.78a.55.55,0,0,1-.7-.27,3.47,3.47,0,0,1-.16-.55,1.23,1.23,0,0,1,0-.54,2.11,2.11,0,0,1,.12-.75c.08-.16.14-.32.34-.36S90.78,94.92,90.17,95.65Z"/><path d="M25.39,189.28a22.41,22.41,0,0,1-1.1-5.83,47.47,47.47,0,0,1-.05-4.92c.18-2.11.52-4.2.83-6.3a51.51,51.51,0,0,1,1.25-6c.13-.51.38-1,.51-1.48s.13-.84.19-1.26a26.47,26.47,0,0,1,.72-3.52c.3-1.1.51-2.22.84-3.31s.71-2.32,1-3.48c.55-2.41,1.11-4.82,1.59-7.24s1-5,1.69-7.41c.26-1,.48-2,.76-2.95s.44-1.82.67-2.74c.18-.68.44-1.31.68-2a5.75,5.75,0,0,1,.84-1.81,2.16,2.16,0,0,1,3.24-.07,14,14,0,0,1,1.51,3.18A10.58,10.58,0,0,1,41,137a40.69,40.69,0,0,1-.6,4.11c-.13.65-.31,1.25-.47,1.89s-.2,1.27-.35,1.9a16.3,16.3,0,0,0-.4,3.69c0,1.95,0,3.92.07,5.87a20.56,20.56,0,0,0,.81,5.1,34.37,34.37,0,0,1,1.41,6.34c.43,3.56.92,7.12,1.07,10.71,0,1.14,0,2.28-.07,3.42s0,2.08-.06,3.11a16.26,16.26,0,0,1-1,4.92c-.31.75-.7,1.47-1.06,2.19-.2.4-.37.82-.57,1.22a11,11,0,0,1-.87,1.27,4.93,4.93,0,0,1-2.14,1.44,11.41,11.41,0,0,1-3,.81,7.06,7.06,0,0,1-4.86-.74,15.73,15.73,0,0,1-2.09-1.91,4,4,0,0,1-1.15-2.16C25.63,189.9,25.67,189.23,25.39,189.28Z"/><path class="cls-2" d="M40.75,138.89a37,37,0,0,1-.72,5.76,16.84,16.84,0,0,0-.18,3.63c-.05.68-.2,1.37-.22,2,0,.92,0,1.83.07,2.75a12.31,12.31,0,0,0,.37,2.1,18.72,18.72,0,0,1,.29,2,18.91,18.91,0,0,0,.77,3.75c.4,1.11.47,2.27.76,3.4a23.69,23.69,0,0,1,.68,3.09,38.78,38.78,0,0,1,.39,4c0,1.46.23,2.89.26,4.34a18.45,18.45,0,0,1,0,2c0,.38,0,.75,0,1.12S43,179.57,43,180c-.1,1-.08,2.1-.27,3.12-.24,1.26-.27,2.54-.46,3.8-.07.48-.25.94-.37,1.42-.18.7-.32,1.42-.55,2.12a10.35,10.35,0,0,1-1.72,3.14,5,5,0,0,1-1.44,1.28,9.45,9.45,0,0,1-1.69.75,11.75,11.75,0,0,1-3.9.66,5.11,5.11,0,0,1-3-.94c-.44-.3-.89-.56-1.32-.89l-1.35-1.07a2.78,2.78,0,0,1-.93-1c-.09-.19-.26-.34-.36-.53s-.3-.51-.45-.77-.19-.44-.31-.65-.27-.37-.38-.58a4.88,4.88,0,0,1-.23-.64,6.44,6.44,0,0,1-.37-.95,9.11,9.11,0,0,1-.26-2.08,9.33,9.33,0,0,0,0-1.06,7.49,7.49,0,0,1-.15-1.25,11.1,11.1,0,0,0,0-1.29,7.84,7.84,0,0,1-.19-1.18c0-.91.27-1.8.32-2.7,0-.69.17-1.35.21-2a7,7,0,0,1,.13-.82c0-.37,0-.74,0-1.11a12.21,12.21,0,0,1,.29-2,6.54,6.54,0,0,0,.17-.86,10,10,0,0,1,.33-1.22c.37-1.34.42-2.73.77-4.07a14.12,14.12,0,0,0,.48-2,14,14,0,0,1,.43-2.12c.16-.65.48-1.24.67-1.88s.34-1.42.53-2.13.3-1.28.51-1.91c.11-.35.25-.67.34-1s.14-.68.26-1a11.89,11.89,0,0,0,.52-1.79c.11-.57.23-1.15.34-1.73s.31-1.38.45-2.07.21-1.56.38-2.33A15.63,15.63,0,0,1,31,144.9a14.41,14.41,0,0,0,.61-1.93,31,31,0,0,1,.76-3,21.34,21.34,0,0,0,.79-3c.24-1.42.44-2.85.8-4.24a7.15,7.15,0,0,1,.44-1.45,7.28,7.28,0,0,1,.48-.92,3.51,3.51,0,0,1,.6-.85,8.57,8.57,0,0,0-.27.86,9.21,9.21,0,0,0-.4,1.11c-.18.71-.35,1.41-.55,2.11a15.83,15.83,0,0,0-.22,2.66,18.46,18.46,0,0,1-.41,2.65c-.24.91-.32,1.84-.53,2.76-.25,1.12-.65,2.21-.93,3.33s-.61,2.36-.84,3.55c-.11.54-.3,1.05-.42,1.58s-.19,1.16-.31,1.74c-.51,2.32-1.3,4.56-1.72,6.9-.11.61-.27,1.2-.41,1.8a11.28,11.28,0,0,1-.51,2.06c-.19.44-.32.89-.49,1.33a12.49,12.49,0,0,0-.65,1.73c-.71,3-1.14,6-1.72,9a14.3,14.3,0,0,0-.25,2.06c-.05.86-.22,1.72-.32,2.58s-.07,1.55-.1,2.32a15.16,15.16,0,0,0,.06,2.13,9.91,9.91,0,0,0,.32,1.71,13.63,13.63,0,0,1,.3,1.77,6.68,6.68,0,0,0,.42,1.45c.17.45.32.92.52,1.35a7.72,7.72,0,0,0,1.53,2.22c.35.36.78.63,1.16,1a5.48,5.48,0,0,0,1.44,1,6.6,6.6,0,0,0,2.88.69,14.2,14.2,0,0,0,2.6-.31,6.88,6.88,0,0,0,2.59-1.43,8.7,8.7,0,0,0,1.07-.93,4.44,4.44,0,0,0,.78-1.39,17.64,17.64,0,0,0,.62-1.72,11.33,11.33,0,0,0,.37-1.73c.18-1.07.23-2.16.36-3.24,0-.46,0-.92.06-1.39s.13-1.15.21-1.73a20.93,20.93,0,0,0,.23-3.36c0-.53.07-1.07,0-1.61s-.19-1.28-.23-1.93a42,42,0,0,0-.58-4.47c-.23-1.3-.48-2.58-.61-3.89s-.48-2.47-.69-3.72c-.1-.54-.09-1.11-.21-1.65s-.34-1.13-.46-1.71c-.22-1-.39-2-.54-3a55.42,55.42,0,0,1-.31-5.76,14.51,14.51,0,0,1,.24-2.56c0-.35.13-.69.21-1s.17-1,.31-1.49c.2-.75.25-1.42.51-2.14s.28-1.27.54-1.81C40.28,140.54,40.66,139.19,40.75,138.89Z"/><path class="cls-3" d="M54.34,184.82c.15.19,1.34,1.44,1.39,2,0,0,0,.17,0,.23a3.14,3.14,0,0,0,.15,1.05,2.36,2.36,0,0,0,1,1.1,11.72,11.72,0,0,1,2,1.51c.77.78,1.45,1.65,2.19,2.45a13.09,13.09,0,0,1,1.73,2.32c.28.47.52,1,.81,1.43s.6.76.89,1.15c.45.63.91,1.59,1.82,1.57,1.09,0,1.24-1.35,1.24-2.15a6.89,6.89,0,0,0-1-3.36c-.49-.81-1.38-1.61-1.44-2.59a1,1,0,0,1,.86-1.15,2.29,2.29,0,0,1,1.07,0,4.79,4.79,0,0,1,1.49.9,16.28,16.28,0,0,1,1.66,1.55,12.59,12.59,0,0,0,1.57,1.53,13.59,13.59,0,0,0,1.65,1.16,10.21,10.21,0,0,0,1.83.56c.35.1.86.35,1.23.21a1.43,1.43,0,0,0,.65-.76,1.86,1.86,0,0,0-.18-1.4,7.67,7.67,0,0,0-1.43-2.22,8.7,8.7,0,0,0-3.13-2.42c-1-.39-2.07-.6-3-1.07-.55-.26-1.49-.78-1.29-1.53a1.06,1.06,0,0,1,1-.69c.92,0,1.7.66,2.49,1a20.67,20.67,0,0,0,4.11,1,9.86,9.86,0,0,0,1.78.36c.64,0,.83-.25.88-.83a3.54,3.54,0,0,0-1.87-3.23,9.49,9.49,0,0,0-4.34-1,32.46,32.46,0,0,0-3.82-.18c-1.26,0-2.51.17-3.78.24a18.44,18.44,0,0,1-3.93-.11c-.65-.1-1.78-.51-2-1.17a1.08,1.08,0,0,1-.09-.7,1.5,1.5,0,0,0-.17-1,9.69,9.69,0,0,0-.95-2.13c-.19-.22-.46-.2-.64-.45a3.78,3.78,0,0,1-.56-1.4c-.15-.76-.61-1.43-.81-2.18-.15-.53-.47-1-.64-1.52s-.3-1.26-.52-1.88c-.43-1.16-.82-2.33-1.24-3.5-.16-.44-.24-.9-.39-1.35-.29-.81-.61-1.62-.84-2.44-.17-.59-.2-1.2-.33-1.8-.17-.82-.35-1.64-.52-2.46A14.46,14.46,0,0,0,50,157c-.35-.86-.65-1.74-.93-2.63-.37-1.22-.61-2.5-1-3.71-.63-1.7-1.3-3.35-1.78-5.1a17.78,17.78,0,0,1-.39-1.9c-.13-.84-.34-1.68-.45-2.53a17.55,17.55,0,0,0-.32-2.14c-.21-.86-.42-1.71-.59-2.58-.39-2.07-.41-4.28-1.19-6.27a5.76,5.76,0,0,0-2-2.44,4.16,4.16,0,0,0-2.52-1.08,2,2,0,0,0-2.11.86,7.4,7.4,0,0,0-1.24,3.19c-.44,2.35,0,4.44.07,6.77a44.31,44.31,0,0,1,0,4.61,15.51,15.51,0,0,0,.14,3.85c.12.71.3,1.39.45,2.09.2.93.51,1.87.65,2.81a25.3,25.3,0,0,0,.57,2.47,23.92,23.92,0,0,0,.74,2.5c.54,1.41,1.07,2.84,1.68,4.23.19.44.45.84.66,1.26a12.56,12.56,0,0,0,1.07,1.8c.46.62.85,1.29,1.26,1.94s1,1.53,1.56,2.27a23.71,23.71,0,0,1,1.56,2.06c.41.68.84,1.33,1.3,2s.83,1.35,1.25,2c.28.46.59.93.88,1.39s.55,1,.84,1.48a14.64,14.64,0,0,1,1,1.72c.28.65.59,1.31.91,1.94.12.24.31.45.2.71-.05.11-.17.16-.2.29a1.43,1.43,0,0,0,.06.65,8.23,8.23,0,0,0,1.45,2.66,2,2,0,0,0,.84.74c.4.14.67-.11,1,.2a1.88,1.88,0,0,1,.43,1.07C55.81,186.38,56,186.87,54.34,184.82Z"/><path class="cls-2" d="M37.49,126.35a3.7,3.7,0,0,1,1.55-.2,4.83,4.83,0,0,1,.68.17c.22.14.47.3.69.47.37.29.71.58,1.07.87a6.15,6.15,0,0,1,1.54,1.8,12.2,12.2,0,0,1,.66,1.74,19.17,19.17,0,0,1,.57,2.73c.47,2,.8,4,1.19,6s.83,4.21,1.39,6.3c.34,1.26.7,2.51,1,3.77s.65,2.44,1.07,3.6c.5,1.38,1,2.78,1.47,4.16.42,1.22.74,2.47,1.18,3.68.56,1.5,1,3.06,1.52,4.55a6.38,6.38,0,0,1,.33.82c.06.25.1.5.18.75l.57,1.91c.58,2,1.22,3.93,1.85,5.88.13.41.22.83.37,1.21s.35.69.46,1v.13c.07,0,.09.06.06.13.32-.07.8.46,1,.69s.14.8.28,1.17a6.24,6.24,0,0,0,.32.95,2.39,2.39,0,0,1,.33,1.07c.07.72.21,1.39-.46,1.88-.31.23-.72.4-1,.6a4.84,4.84,0,0,1-1.16.52,8.35,8.35,0,0,0-1,.3c-.38.17-.6.25-.92-.05s-.39-.46-.59-.67a4,4,0,0,1-.48-.65,5.92,5.92,0,0,1-1-1.49,3.5,3.5,0,0,1-.32-1.33c.05-.37.27-.54.09-.9s-.26-.6-.43-.89c-.26-.46-.5-.91-.74-1.39a13.42,13.42,0,0,0-1-1.64,30.47,30.47,0,0,1-2-3.46c-.29-.6-.74-1.13-1-1.72a14.07,14.07,0,0,0-1.09-1.93c-.68-.93-1.45-1.82-2.09-2.77a31.82,31.82,0,0,0-2-2.8,12.35,12.35,0,0,1-1-1.65,40.91,40.91,0,0,1-1.74-3.8c-.31-.67-.61-1.35-.91-2s-.51-1.55-.8-2.3a16.48,16.48,0,0,1-.77-2.54c-.16-.77-.48-1.55-.57-2.32s-.4-1.35-.41-2a11.84,11.84,0,0,0-.1-1.68,12.73,12.73,0,0,1-.09-2.76c.07-.94.14-1.85.13-2.79,0-.77.07-1.54.07-2.31a5.31,5.31,0,0,0-.08-1.26c-.09-.33-.35-.86-.25-1.21a.33.33,0,0,1,.43-.25c.19,0,.25.31.32.48a5.28,5.28,0,0,1,.26,1.35,55.51,55.51,0,0,1,0,7.63,24.87,24.87,0,0,0,.59,4.19c.1.58.23,1.17.37,1.75.19.82.36,1.66.6,2.47a21.39,21.39,0,0,0,1.43,3.82c.36.68.68,1.36,1,2.06s.61,1.53,1,2.24c.73,1.27,1.35,2.58,2.14,3.82A21.27,21.27,0,0,0,44.72,166c.55.68,1,1.4,1.58,2.08a39.48,39.48,0,0,1,3,5.34c.47.81.88,1.68,1.4,2.46a15.05,15.05,0,0,1,1,2,2.35,2.35,0,0,0,1.65,1.46,3.8,3.8,0,0,0,2.34-.71c.76-.5.3-1.6,0-2.27a24.93,24.93,0,0,1-1.82-4.59,49.68,49.68,0,0,0-1.52-5.19c-.41-1.14-.78-2.28-1.21-3.42-.2-.53-.32-1.08-.48-1.62s-.57-1.3-.76-2-.44-1.37-.68-2-.47-1.37-.74-2-.38-1.12-.58-1.67c-.13-.34-.15-.71-.3-1a5.35,5.35,0,0,1-.35-.86c-.4-1.35-1-2.63-1.23-4-.21-1.05-.39-2.11-.69-3.14-.15-.53-.29-1.07-.43-1.61-.08-.29-.12-.59-.21-.88a4.42,4.42,0,0,1-.28-.94c0-.51-.23-1-.29-1.53s-.16-1.05-.26-1.58c-.16-.87-.26-1.75-.42-2.62-.12-.6-.13-1.18-.2-1.78-.23-1.89-.62-3.87-2.22-5.15A6.8,6.8,0,0,0,38.75,127a2,2,0,0,0-2.07.77,4.14,4.14,0,0,0-.93,2,6.62,6.62,0,0,1,.34-2,2.42,2.42,0,0,1,.66-.86A4.54,4.54,0,0,1,37.49,126.35Z"/><path class="cls-2" d="M59.56,183.9a4.65,4.65,0,0,0,1.25.45,9.92,9.92,0,0,0,1,.16,8.62,8.62,0,0,0,1.14-.06,10.92,10.92,0,0,0,1.5-.36,13.59,13.59,0,0,1,1.4-.34,19,19,0,0,1,3.54-.13,22.6,22.6,0,0,1,3.59.13,7.61,7.61,0,0,1,3.57,1.52c.61.49,1.73,1.6,1,2.54-.41.53-1.81.05-2.41-.21a9.21,9.21,0,0,0-2.24-.48,7.07,7.07,0,0,1-2.3-1.1,2.49,2.49,0,0,0-1.55-.44c-.88,0-1.87.48-1.83,1.45,0,.65.72,1.09,1.16,1.47a6.31,6.31,0,0,0,2.16,1l2,.65A3.7,3.7,0,0,1,74,191a8.29,8.29,0,0,1,2.06,2.16,5.29,5.29,0,0,1,.48,1.25c.1.43.32.93-.21,1.08a3.88,3.88,0,0,1-3.18-.76,9.35,9.35,0,0,1-1.1-.87c-.19-.2-.45-.28-.65-.46s-.47-.5-.71-.74l-1-1a9.64,9.64,0,0,0-1.2-.93,5.57,5.57,0,0,0-.64-.52,5.23,5.23,0,0,0-.93-.43,4,4,0,0,0-1.75-.14,1.43,1.43,0,0,0-.76.79,1.89,1.89,0,0,0,.15,1.47,5.42,5.42,0,0,0,.92,1.53,5.42,5.42,0,0,1,.92,1.52,9.46,9.46,0,0,1,.53,1.37,7.55,7.55,0,0,1,.11,1.65c0,.51-.19.82-.75.83a1.46,1.46,0,0,1-.69-.06,2.31,2.31,0,0,1-.93-1.18,7.32,7.32,0,0,0-.92-1.44c-.37-.48-.31-.87-.69-1.35-.62-.81-1.09-1.51-1.75-2.3-.33-.4-.62-.68-1-1.07a6.35,6.35,0,0,0-1-.91c-.24-.19-.46-.45-.73-.63a9.78,9.78,0,0,0-1.07-.69,2.46,2.46,0,0,1-1.25-1.37c-.19-.45-.27-1.31-.46-1.76a5.4,5.4,0,0,0-.62-1.06c-.3-.49-.56-.34-.51.18s.68.76.78,1.15,0,1,.1,1.4a3.38,3.38,0,0,0,.86,1.18,8.28,8.28,0,0,0,1.56,1.26,6.23,6.23,0,0,1,1.45,1.26c.49.61,1.06,1.14,1.58,1.72a21.06,21.06,0,0,1,2.19,3.24c.15.3.84,1.42,1,1.7a3.74,3.74,0,0,0,1.07,1.21,1.62,1.62,0,0,0,1.89,0,1.77,1.77,0,0,0,.45-1.19,9.79,9.79,0,0,0,.06-1.33,5.16,5.16,0,0,0-1.11-2.9,11.47,11.47,0,0,1-.94-1.37c-.2-.42-.53-.9-.43-1.36.19-.86.27-1,1.13-.91,1,.06,1.61.91,2.29,1.5.4.34.83.65,1.22,1a11.19,11.19,0,0,1,1.43,1.32,6.87,6.87,0,0,0,2.39,1.72,4.72,4.72,0,0,0,2.6.36c.94-.18.87-1.57.71-2.25a3.07,3.07,0,0,0-.69-1.31A18,18,0,0,0,74.83,191c-.38-.32-.77-.65-1.18-.93a5.73,5.73,0,0,0-1.27-.73c-.47-.15-1-.27-1.43-.42s-1.12-.52-1.69-.77-1.2-.72-.94-1.55c.15-.45.62-.5,1-.45a5.93,5.93,0,0,1,1.59.7,10.62,10.62,0,0,0,3.28,1.07,4.28,4.28,0,0,1,1,.25,3.7,3.7,0,0,0,1.49.32c.38,0,1,.14,1.27-.09a1.56,1.56,0,0,0,.42-1,1.52,1.52,0,0,0-.19-1A7.3,7.3,0,0,0,77.09,185a6.81,6.81,0,0,0-3.21-1.44,23,23,0,0,0-7.41-.44c-1.23.11-2.46.37-3.7.43-.35,0-.68,0-1,0a11.9,11.9,0,0,1-1.2-.13c-.33-.05-.34-.13-.76-.34s-.55-.6-.9-.67-.3.57-.18.79a1.75,1.75,0,0,0,.38.48A2.51,2.51,0,0,0,59.56,183.9Z"/><path class="cls-2" d="M74.14,193.22a9.87,9.87,0,0,1,1.64.29c0,.3.21.58.08.88a1.08,1.08,0,0,1-.68.48,1.32,1.32,0,0,1-1-.26c-.35-.25-.34-.47-.34-.85,0-.62.39-.87,1-.86a1,1,0,0,1,.71.32C75.73,193.35,75.91,193.88,74.14,193.22Z"/><path class="cls-2" d="M75.68,185.74c.15,0,.43-.16.57-.09a1.1,1.1,0,0,1,.21.14,1.67,1.67,0,0,1,.38.25,1.35,1.35,0,0,1,.25.85.54.54,0,0,1-.17.39.7.7,0,0,1-.39.24.75.75,0,0,1-.42,0,1.24,1.24,0,0,1-.45-.25,1.47,1.47,0,0,1-.3-.31.7.7,0,0,1-.09-.35.68.68,0,0,1,0-.54c.07-.1.18-.17.25-.27l.09-.07Z"/><path class="cls-2" d="M65.47,196.48a1.67,1.67,0,0,1,.7-.06l.12.14.14.22a1.43,1.43,0,0,1,.15.7.5.5,0,0,1-.31.43.84.84,0,0,1-.7-.14.8.8,0,0,1-.35-1C65.29,196.66,65.5,196.38,65.47,196.48Z"/><path class="cls-4" d="M41.25,109.88c1.12-.26,2.92-.91,4.12-.24a7.7,7.7,0,0,1,1.73,2,7.55,7.55,0,0,1,1.31,5c0,.76.11,1.52.15,2.28s.07,1.71.07,2.56a23.27,23.27,0,0,0,.19,3.54,14.1,14.1,0,0,0,.66,3.41,3.48,3.48,0,0,0,.61,1c.13.17.29.31.43.47a3.27,3.27,0,0,1,.44.77,4.91,4.91,0,0,1,.54,1.27,4.84,4.84,0,0,1,0,1.74,5.62,5.62,0,0,1-1.51,3,3.71,3.71,0,0,1-4.61,1,6.14,6.14,0,0,1-2-2.32,11.55,11.55,0,0,1-1.2-3.52,21.27,21.27,0,0,0-1.11-3.67c-.3-.66-.55-1.35-.84-2a13.32,13.32,0,0,1-.73-2c-.35-1.4-.92-2.71-1.37-4.07-.32-.94-.62-1.88-.95-2.81a5.93,5.93,0,0,1-.34-3.17,5.23,5.23,0,0,1,.49-1.26,10.32,10.32,0,0,1,.86-1.42,3.81,3.81,0,0,1,1.86-1.31,5.26,5.26,0,0,1,.8-.23C41.1,109.82,41.45,109.74,41.25,109.88Z"/><path class="cls-2" d="M37.22,113.29a1.73,1.73,0,0,0-.39.73,1.84,1.84,0,0,1,0,.25c0,.17-.07.35-.1.52a4.36,4.36,0,0,0,0,.81,4.28,4.28,0,0,0,.17,1c.06.24.11.47.17.71s.06.45.13.67l.27.82c.11.31.27.61.37.92a14.37,14.37,0,0,0,.65,1.69c.13.3.22.62.35.93s.3.73.45,1.1.19.7.29,1,.18.55.28.82c.19.52.34,1,.51,1.58s.38.81.51,1.24c.07.23.18.43.25.66a5.55,5.55,0,0,0,.24.56,4.4,4.4,0,0,1,.21.5,6.06,6.06,0,0,1,.15.74,17,17,0,0,0,1,3.27c.17.43.38.85.52,1.31a3.56,3.56,0,0,0,.17.41c.08.16.17.32.25.49s.19.31.25.47a2.43,2.43,0,0,0,.52.87,2.65,2.65,0,0,0,.85.53l.37.13c.13,0,.25.13.38.18a5,5,0,0,0,.88.28,2.16,2.16,0,0,0,.67,0c.26,0,.49-.12.73-.16a5.57,5.57,0,0,0,1.21-.41,2.28,2.28,0,0,0,.6-.36,2.5,2.5,0,0,0,.39-.47c.15-.19.28-.39.43-.57a1.06,1.06,0,0,0,.19-.24c.22-.38.34-.8.53-1.19a4,4,0,0,0,.39-1.6,7,7,0,0,0-.2-2.14,6.36,6.36,0,0,0-.79-1.56,8.33,8.33,0,0,1-.51-.8c-.16-.32-.3-.64-.45-1s-.24-.57-.34-.87a9,9,0,0,1-.19-1.25c-.07-.38-.11-.77-.19-1.15a6,6,0,0,1,0-1.27c0-.4-.06-.81-.07-1.21a14.34,14.34,0,0,1,0-1.47c0-.35.14-.66.2-1a10.86,10.86,0,0,0,0-1.4,6.82,6.82,0,0,0,0-1,7,7,0,0,0-.18-1.2c-.09-.33-.18-.66-.24-1s-.08-.56-.13-.84a4.56,4.56,0,0,0-.23-.88c-.12-.3-.29-.58-.42-.87a5,5,0,0,0-.72-1.26,3.2,3.2,0,0,0-.73-.64,1.47,1.47,0,0,0-.6-.26c0,.08,0,.16.06.24s.21.32.3.47c.23.39.54.73.77,1.13a7.18,7.18,0,0,1,.5,1,8.63,8.63,0,0,1,.44,1.2c.05.22.12.44.16.66s.12.41.15.62c0,.44.1.88.14,1.32s0,.69,0,1a5.88,5.88,0,0,1,0,1.11c0,.38-.07.76-.12,1.14s-.1.75-.13,1.12-.09.84-.12,1.27a9.07,9.07,0,0,0,0,1.38,17.23,17.23,0,0,0,.28,1.87c.06.31.15.62.24.92s.08.34.14.5.11.3.15.46a8.25,8.25,0,0,0,.31,1,4.93,4.93,0,0,0,.39.8c.13.25.27.49.42.74a3.15,3.15,0,0,1,.36.61c.13.38.29.76.41,1.14a3.63,3.63,0,0,1,.14,1.5,4.43,4.43,0,0,1-.38,1.79,3,3,0,0,1-1.6,1.78,2.38,2.38,0,0,1-.55.28,2.43,2.43,0,0,1-.76.08H47.1a3.37,3.37,0,0,1-2-1.05,4.86,4.86,0,0,1-.41-.38,6,6,0,0,1-.39-.59,4.76,4.76,0,0,1-.31-.47c-.14-.22-.28-.44-.4-.67a9.93,9.93,0,0,1-.55-1.3,5.32,5.32,0,0,0-.26-.73,4.08,4.08,0,0,1-.22-.85,7.51,7.51,0,0,0-.33-1.46c-.19-.49-.43-1-.62-1.44a2.37,2.37,0,0,0-.2-.5,1.33,1.33,0,0,1-.13-.33c0-.18-.1-.36-.16-.53S41,127,41,126.79a2.89,2.89,0,0,0-.18-.44c-.07-.16-.1-.33-.16-.48s-.2-.56-.29-.84-.16-.36-.24-.55-.11-.35-.18-.53c-.13-.35-.28-.69-.39-1s-.18-.64-.28-1-.2-.56-.29-.85a8.53,8.53,0,0,0-.28-.95c-.13-.32-.24-.64-.38-1s-.18-.45-.26-.68-.09-.29-.15-.43-.15-.25-.21-.39a7.87,7.87,0,0,1-.39-1.25,2.61,2.61,0,0,1,0-.48c0-.25-.12-.48-.13-.74s-.11-.68-.13-1a1.54,1.54,0,0,1,.09-.52,1.15,1.15,0,0,0,.12-.4S37.19,113.3,37.22,113.29Z"/><path d="M66.92,147c-.39-.31-.77-.64-1.13-1,.19-.17.06-.71.09-.95a2.64,2.64,0,0,1,.36-1.12,7.28,7.28,0,0,0,1-1.38c.17-.48-.21-.73-.46-1.14s-.5-.67-.72-1a4,4,0,0,1-.67-2.33,1.79,1.79,0,0,0-.12-.91c-.17-.22-.77-.21-1-.23a4.34,4.34,0,0,0-1.08,0,8.88,8.88,0,0,1-1.15.32c-.6,0-1.22,0-1.82.11-.25,0-.5.11-.76.15a11,11,0,0,0-2,.51,21.05,21.05,0,0,1-7,1.27,13.07,13.07,0,0,1-2-.09,6.06,6.06,0,0,1-2.64-.93,3.25,3.25,0,0,1-1.46-1.69,8.59,8.59,0,0,1-.42-2.47c0-1.69,1.55-2.72,3-3.47a7,7,0,0,1,3.43-.61c1.52,0,3,.52,4.5.68a24.34,24.34,0,0,0,3.08.14c1,0,1.89-.19,2.84-.19s2,0,2.95,0a11.3,11.3,0,0,1,3.46.67,10.21,10.21,0,0,1,2.56,1.16c.87.57,1.64,1.24,2.47,1.84.63.47,1.24,1,1.86,1.45.43.34.93.55,1.37.88a4.58,4.58,0,0,1,1.55,1.64,3.18,3.18,0,0,1-.2,1.92,7.62,7.62,0,0,0-.34,2.32c0,.38,0,.75,0,1.14a6.25,6.25,0,0,1,.08,1.14c-.11.9-1.24.48-1.65,0a4.17,4.17,0,0,1-.84-2.82,11,11,0,0,0,.06-2c-.06-.32-.34-.83-.76-.45s-.15.78-.08,1.16c.11.6.22,1.2.37,1.8a6.9,6.9,0,0,1,.24,2,4.36,4.36,0,0,1-.92,2.88,1.22,1.22,0,0,1-2-.11c-.6-1,0-2.42.24-3.47a5.19,5.19,0,0,0-.26-2.73c-.14-.38-.68-1.08-1.18-.63a1.28,1.28,0,0,0-.15.87,3.7,3.7,0,0,0,.37,1A2.92,2.92,0,0,1,68.73,146a7.5,7.5,0,0,1-1.25.37c-.38.14-.38.49-.81.49S66.1,146.48,66.92,147Z"/><path class="cls-2" d="M49.29,130.29c.55,0,1.06.05,1.59.09a4.07,4.07,0,0,1,.61.07l1,.24c.28.07.52.19.79.26s.48.07.71.11a7.11,7.11,0,0,0,.92.06c.51,0,1,.1,1.52.09s.76,0,1.14,0a10.73,10.73,0,0,0,1.14-.07l2.09-.18c.65-.05,1.3,0,1.95-.06a10.24,10.24,0,0,1,2.14.06,7.67,7.67,0,0,1,1,.15l.87.26.89.28a4.52,4.52,0,0,1,.7.34,7,7,0,0,1,1.26.79c.79.62,1.59,1.21,2.41,1.78.47.33.91.69,1.38,1s.76.57,1.11.88.8.71,1.19,1.08a1.91,1.91,0,0,1,.63,1,2.92,2.92,0,0,1,0,.66c0,.25-.11.48-.15.73-.08.49-.11,1-.22,1.45a4.29,4.29,0,0,0-.07.79,6.26,6.26,0,0,0,0,.75c0,.24.08.48.12.71a2.83,2.83,0,0,1,.09.65.42.42,0,0,1-.62.32,2,2,0,0,1-.71-.91,1.69,1.69,0,0,1-.09-.63c0-.25,0-.51,0-.76,0-.46.14-.91.16-1.37a2.55,2.55,0,0,0-.38-1.76,1.27,1.27,0,0,0-1.22-.42,1.14,1.14,0,0,0-1,.89,1.6,1.6,0,0,0,.09.75c.1.34.22.69.35,1a7.14,7.14,0,0,1,.27,2.87,10,10,0,0,1-.26,2c-.08.28-.69,1.13-1,1.14-.62,0-.48-1.09-.42-1.55a8.32,8.32,0,0,1,.23-1.08,7.73,7.73,0,0,0,.38-1.41,3.47,3.47,0,0,0-.13-1.36,4.49,4.49,0,0,0-.6-1.12c-.2-.31-.31-.3-.59-.57s-.64-.75-1-.59c-.67.3-.11,1.17,0,1.7a7.69,7.69,0,0,1-.3,2.59,2.07,2.07,0,0,1-.11.55c-.05.09-.13.23-.19.32a1.42,1.42,0,0,1-.38.35,3.32,3.32,0,0,1-1,.58c-.45.07-1,.13-1.15-.24a2.6,2.6,0,0,1,.45-1.81c.16-.26.21-.51.38-.77s.11-.4.2-.57a2.69,2.69,0,0,0,.17-.55,1.55,1.55,0,0,0-.17-.68,1.4,1.4,0,0,0-.33-.51c-.33-.36-.5-.64-.81-1s-.4-1-.68-1.5a8.5,8.5,0,0,1-.36-.82,2.76,2.76,0,0,1-.08-.27,1,1,0,0,0-.22-.32,1.19,1.19,0,0,0-.76-.46,3.32,3.32,0,0,0-.63,0c-.35,0-.67.15-1,.17s-.85.1-1.28.1a15.41,15.41,0,0,0-1.65.18,14.92,14.92,0,0,0-1.62.31,6.9,6.9,0,0,0-.78.21c-.33.11-.68.17-1,.25-.72.18-1.46.37-2.2.51-.32.06-.66,0-1,.1a9.12,9.12,0,0,1-1.49.28c-.49,0-1-.08-1.47-.05a7.53,7.53,0,0,1-1,0c-.21,0-.42,0-.62,0a8.41,8.41,0,0,1-1.23-.13,2.89,2.89,0,0,1-.8-.36,5.11,5.11,0,0,0-.67-.31c-.1,0-.21-.09-.3,0-.24.15,0,.44.18.56a3.13,3.13,0,0,0,1,.52c.25.09.47.22.72.29a4,4,0,0,0,1,.17c.19,0,.38,0,.57,0a3.68,3.68,0,0,0,.57.06c.46,0,.92,0,1.38,0s1.07-.08,1.61-.12c.2,0,.4,0,.59,0s.54-.1.8-.14a9.17,9.17,0,0,0,1.29-.24c.43-.13.89-.22,1.31-.38s.82-.28,1.24-.41c.22-.06.44-.13.67-.17s.67-.15,1-.2c.52-.08,1-.16,1.56-.27a4.84,4.84,0,0,1,1.07-.15,9.65,9.65,0,0,0,1-.15c.23,0,.45,0,.68-.05a1.19,1.19,0,0,1,.83.11,1.78,1.78,0,0,1,.4.88c0,.18.07.36.11.53a3.13,3.13,0,0,0,.15.32l.21.51a6,6,0,0,0,.49,1.05c.17.27.43.54.57.82a1.46,1.46,0,0,1,.22,1,11.26,11.26,0,0,1-.59,1.75c-.09.23-.25.44-.34.66a2.15,2.15,0,0,0-.11.55,1.53,1.53,0,0,0,.37,1.19.89.89,0,0,0,.57.35,1.66,1.66,0,0,0,.74-.15,4.68,4.68,0,0,0,1.07-.38c.21-.2.39-.31.61-.51a6.7,6.7,0,0,0,.74-.77c.19-.24,0-.55.15-.82a5.28,5.28,0,0,0,.27-1.57c0-.19,0-.38,0-.56s0-.16,0-.23a1.37,1.37,0,0,1,.35.45A2.68,2.68,0,0,1,71,143a4.44,4.44,0,0,1,.09,1,9,9,0,0,1-.21,1.26c-.08.43-.07.87-.13,1.3a2.25,2.25,0,0,0,0,1,1,1,0,0,0,.67.69c.41.14.75-.17,1-.43s.94-.79,1.08-1.27c.08-.27,0-.6.13-.87a6,6,0,0,0,.11-.95,15.52,15.52,0,0,0-.25-4.08,3,3,0,0,1,0-.9c0-.2.09-.4.3-.16a1.57,1.57,0,0,1,.18.65,4.92,4.92,0,0,1,0,.94,4,4,0,0,0,.06.84c0,.3,0,.6.08.91a2.92,2.92,0,0,0,.35,1.32c.18.31.39.63.6.94.06.09.17.24.3.26a1.56,1.56,0,0,0,.52-.05,1,1,0,0,0,.76-1,3.29,3.29,0,0,0-.08-.62,5.46,5.46,0,0,1,0-1,14,14,0,0,1,.1-1.71,11.06,11.06,0,0,0,.25-2.81c0-.44-.46-.79-.77-1.09-.54-.53-1.11-1-1.66-1.55a8.07,8.07,0,0,0-.68-.62c-.35-.28-.72-.53-1.07-.81a21.39,21.39,0,0,0-2.22-1.54c-.35-.21-.73-.39-1.08-.59s-.87-.44-1.3-.65a12,12,0,0,0-1.77-.63c-.38-.11-.73-.24-1.12-.35a8.55,8.55,0,0,0-.88-.17,5.29,5.29,0,0,0-.8-.05,8.81,8.81,0,0,0-.89,0c-.94,0-1.87.09-2.81.18l-.64,0c-.24,0-.47.08-.72.08-.45,0-.9,0-1.36,0s-.89-.05-1.33,0a3.17,3.17,0,0,1-.44,0c-.25,0-.48,0-.72,0s-.71-.18-1.08-.22l-1-.09c-.4-.06-.78-.14-1.17-.19a3.9,3.9,0,0,0-1.7.19C49.64,130.13,49.12,130.29,49.29,130.29Z"/><path class="cls-2" d="M46.81,131.86a4,4,0,0,1,.72.86c.11.18.2.38.32.55s.39.61.61.9a2.83,2.83,0,0,0,.94.81,6.1,6.1,0,0,0,.84.33,2.44,2.44,0,0,0,.46.14,4.41,4.41,0,0,0,.52,0,3,3,0,0,0,.85-.07,7.47,7.47,0,0,0,1-.28c.18-.07.37-.11.56-.18a3.2,3.2,0,0,0,.48-.26,8.06,8.06,0,0,0,.8-.48,7.51,7.51,0,0,1,.85-.43,4.49,4.49,0,0,1,1.13-.41,3.37,3.37,0,0,1,.84,0,2.65,2.65,0,0,1,.8.07,1.75,1.75,0,0,1-.4,0c-.15,0-.3.09-.46.11a1.57,1.57,0,0,0-.43.09c-.1,0-.19.09-.31.13a5.6,5.6,0,0,0-.94.49,2.69,2.69,0,0,0-.38.19l-.46.31c-.27.16-.55.27-.84.41s-.66.28-1,.41a4.33,4.33,0,0,1-1.64.33c-.15,0-.29.05-.44.07a1.55,1.55,0,0,1-.43,0,4.71,4.71,0,0,1-1-.13,3.72,3.72,0,0,1-1.4-.78,2,2,0,0,1-.29-.29,1.37,1.37,0,0,1-.16-.32c0-.08-.11-.15-.15-.22a2.14,2.14,0,0,1-.16-.42c-.08-.23-.12-.47-.2-.71s-.13-.3-.2-.46a3.78,3.78,0,0,0-.3-.51.64.64,0,0,0-.2-.2Z"/><path class="cls-2" d="M72.94,136.88a3.69,3.69,0,0,1,.53.43.13.13,0,0,1,.08.14.85.85,0,0,1,0,.17c0,.19-.07.34-.19.49a.48.48,0,0,1-.22.18c-.1,0-.21,0-.3,0a1.23,1.23,0,0,0,.71.1.79.79,0,0,0,.58-.26.7.7,0,0,0,0-.55,1.3,1.3,0,0,0-.76-.69,2,2,0,0,0-.33-.09.35.35,0,0,0-.17,0S72.9,136.8,72.94,136.88Z"/><path class="cls-2" d="M71.26,138.36l.21.49a.26.26,0,0,1,.07.23.78.78,0,0,1,0,.21,1.08,1.08,0,0,1-.25.5A.56.56,0,0,1,71,140a1.93,1.93,0,0,1-.34,0c0,.17.44.18.55.16a.9.9,0,0,0,.6-.68,1.42,1.42,0,0,0-.26-.77C71.42,138.57,71.3,138.43,71.26,138.36Z"/><path class="cls-2" d="M68.75,139.42a1.52,1.52,0,0,1,0,.56l-.12.12-.22.22a.64.64,0,0,1-.6.07,1.23,1.23,0,0,1-.56-.31,1.54,1.54,0,0,1-.15-.35,3.07,3.07,0,0,1,.2.5.92.92,0,0,0,.4.45.88.88,0,0,0,.93-.18c.2-.2.42-.38.31-.68a.86.86,0,0,0-.14-.29S68.76,139.42,68.75,139.42Z"/><path class="cls-2" d="M67.09,145.12a2.06,2.06,0,0,1,.66-.62.65.65,0,0,1,.2.05.7.7,0,0,1,.27.14.47.47,0,0,1,0,.53,1.82,1.82,0,0,1-.42.41.79.79,0,0,1-.5.16c-.17,0-.41-.17-.39-.36S67.19,145.13,67.09,145.12Z"/><path class="cls-2" d="M71.71,146.51a1.71,1.71,0,0,1,.3-.5c.13.08.25.07.36.18a.3.3,0,0,1,0,.41,1.49,1.49,0,0,1-.12.14,1.74,1.74,0,0,1-.1.19.28.28,0,0,1-.36.08.47.47,0,0,1-.23-.21.39.39,0,0,1,.07-.33,1.91,1.91,0,0,1,.16-.32S71.93,146.07,71.71,146.51Z"/><path class="cls-2" d="M75.08,143c.2,0,.5,0,.59.22a.8.8,0,0,0,.08.16,1.36,1.36,0,0,1,.12.47.3.3,0,0,1-.06.3c-.1.08-.22,0-.3,0a.8.8,0,0,1-.49-.69C75,143.33,75,143,75.08,143Z"/></g></g></svg>