<svg xmlns="http://www.w3.org/2000/svg" viewBox="0 0 147.8 260.12"><defs><style>.cls-1{fill:#d3e3d6;}.cls-2{fill:#fff;}.cls-3{fill:#010101;}.cls-4{fill:#070808;}.cls-5{fill:#0f1010;}.cls-6{fill:#1f1f1f;}.cls-7{fill:#171718;}.cls-8{fill:#303030;}.cls-9{fill:#f9f9f9;}.cls-10{fill:#393a3a;}.cls-11{fill:#040404;}.cls-12{fill:#e8e7e8;}.cls-13{fill:#4d4d4d;}.cls-14{fill:#dedddd;}.cls-15{fill:#d3d2d3;}.cls-16{fill:#f1f1f1;}.cls-17{fill:#c5c4c4;}</style></defs><g id="Capa_2" data-name="Capa 2"><g id="responsive"><rect class="cls-1" width="147.8" height="260.12" rx="14.95"/><path class="cls-2" d="M101.58,142.43l0,0c0-.19-.09-.29-.29-.26l-.67-.49a26.36,26.36,0,0,0-4.31-4A5.06,5.06,0,0,0,93,135l-.31.25-.37.29c-.83-.27-.28-.66-.11-1.06,2.53-5.73,2-11.57.42-17.38-1.1-3.91-3.57-7.16-5.47-10.68a10.82,10.82,0,0,0-7.73-5.92c-.9-.65-1.92-.13-2.87-.29-.88-.66-.95-2-2-2.5a.39.39,0,0,0-.16-.28L74.19,97c0-.12,0-.19-.15-.22C73,95.6,72,94.43,70.17,94.56l0-1.18,0-.68c.77-1.52,2.3-2.15,3.6-3A1,1,0,0,0,74.07,88c.44-.5.73.06,1.06.17,3.08,1.09,6,.94,8.63-1.17,3.2-2.22,3.68-2.49,1.72-5.69-.15-1.41-1.46-2.28-1.73-3.64.83-.41,1.68-.8,2.49-1.24a.55.55,0,0,0,.29-.74.6.6,0,0,0-.4-.21c-.78.73-2.46.54-2.33,2.22a5.15,5.15,0,0,1-2.94-2.52c1.49-.59,2.09-1.81,2.48-3.43a8.19,8.19,0,0,0-2.5,3.42c-.74.6-1.4-.09-2.08-.17-2.85-.38-7,1.7-7.86,4.08a17.48,17.48,0,0,0-3.09,2.74c-.48.54-.8,1,0,1.4,2.22,1,3.69,3.12,5.85,4.22-.59.33-1.4-.21-1.9.44-1,1.27-2.41,2.15-3,3.72a.57.57,0,0,0-.33.72,4.4,4.4,0,0,0-.65,1.78l-.08.43-.4-.07c0-.36.16-.75-.18-1.06-.88-.59-1.76-.16-2.64,0l-.74.09c-.29-.08-.44.11-.59.3l-.58.29-.1,0-.06.1-.47.15-.34.18c-2.79.77-4.87,2.69-7.14,4.29H54a7,7,0,0,1-.32-1.17c-.47-4.83-1.9-9.17-6-12.19-.31-.22-1-.21-.73-.93,1.7-.33,1.76-2.39,3.17-3l-.69-.76a2,2,0,0,0,0-.26,1,1,0,0,1-.39-.94c1.08-.61,2.75.24,3.51-1.38-1-.24-1.84.23-2.72.22s-.76.64-.75,1.2a4.85,4.85,0,0,1-2.21-3.28c1-.3,2.14-.49,2.37-1.83-.77.64-2.06.59-2.37,1.83-.18.27-.37.19-.54,0-3-3.39-7.81-3.21-11.34.1-2.11,2-2.67,4.62-2.9,7.36-.08.09-.22.19-.21.26.15,1,1.16.8,1.72,1.28C36.74,88,40.2,88.58,44,86.68c.62-.31,1.27-.53,1.76,0,1.61,1.76,3.71,3.13,4.48,5.6A52.61,52.61,0,0,1,52.36,102H52c-.26-1.27-.93-.57-1.34-.19a21.52,21.52,0,0,0-2.78,2.87c-1.29,1.7-2.86,3.26-3.16,5.54a.91.91,0,0,0-.25,1.11V112s-.08.08-.07.11a1,1,0,0,0,.11.23l.26.57v0a5.35,5.35,0,0,0-3.59,2.69l-.32.39a3.53,3.53,0,0,0-1,1.82v0a1,1,0,0,0-.35,1,16,16,0,0,0,.43,6.35,3.75,3.75,0,0,0,.7-2c0-1.11,1.49,0,1.48-1.1,0-.19-.14-2.8,1.56-.81.25.29.7-.16.75-.5.27-1.62,1-1.12,1.82-.44.31.42.78.17,1.17.27,0,.24.12.3.31.33,1,.65.82,1.23-.22,1.46-.48.11-.5.31-.6.66-1,3.47-1,3.48-4.56,3.27-.06,0-.14.14-.29.3,1.78,1.8,4,2.06,6.34,1.79,1.44-.31,2.89-.57,4-1.73,1.76-1.47,4.05-2.61,3.33-5.58-.06-.25.37-.1.57-.15.19,1.87,1.35,2,2.88,1.71,1.74-.26,3.41-.86,5.18-1.26.07.85-.71,1.07-.56,1.66l-.17.36-.17,1.12c-.6,0-1.1.08-1.1.85h0c-.69.18-.69.71-.64,1.27l0,.4-.23,1-.12,1.17a10.2,10.2,0,0,0,0,4.91l.15,1.46.22,1.38.1,4.69a2.17,2.17,0,0,0,.25,1.39l.13,2.55a1.66,1.66,0,0,0-.12.31,2.09,2.09,0,0,0,.25,1.82l.14.35v1.06c-.86.7.21,1.45,0,2.17L62,152.46l-.26.62-.1,1.16-.25.62-.13.74-.23.69-.09,1.11a5.69,5.69,0,0,0-.25,2.46,2.49,2.49,0,0,0,0,1.48l.21,4.23,0,.75v.76a1.61,1.61,0,0,0,.11,1.14,1.58,1.58,0,0,0,.19,1.32l0,.71.12,1.45.18.7.07,1.78a1.43,1.43,0,0,0,.15,1.11l.14.69,0,.35.09,1.08.25.66.07.4.17.41.1.29.07.38a1.24,1.24,0,0,0,.3,1,2.36,2.36,0,0,0,.42,1.84l.82,2.17.17.34a3.28,3.28,0,0,0,.87,2.14l.22.33.27.45,0,.14.11.08a1.87,1.87,0,0,0,1,1.55v.14l.13,0,.06.1.27.4.2.33.33.3c.39.43.49,1.15,1.23,1.21.17.51.9.72.76,1.4-.61.09-.87-.54-1.37-.68A3.27,3.27,0,0,0,68,194.4c-.78,5.18-.5,10.45-1.37,15.62a13.06,13.06,0,0,0,.07,4.45q1.52,8.31,2.93,16.64c.36,2.17.22,4.15-1.77,5.71-1.13.88-1.84,2.27-3.14,3a.67.67,0,0,0-.26.93c.23.38.52,0,.76-.07,1.51-.53,3-1.05,4.5-1.61.64-.24,1.24-.63,1.46.46a.78.78,0,0,0,1,.69c.53-.17.4-.68.37-1.08a17,17,0,0,1-.3-4.08c.75-4.64.08-9.25-.28-13.86-.27-3.49-1-7-.39-10.48.73-4.2.94-8.49,2.15-12.6.38-1.3.1-1.92-1.12-2.26l.37-.3,1.4.38.29.11.41.16.77.07.62.19.82.17,1.34.25,1.09.08h.72l.71-.06.41-.14.34-.1,1-.05.73-.06.63-.28c.32,0,.71.15.77-.38l.2-.29.18-.72.13-.33a3.49,3.49,0,0,0,.2-1.89l.24-1,.17-.37c.41.26.2.72.33,1.06-.29,3-.54,5.91-.88,8.85a100.5,100.5,0,0,0-.29,19.39c.31,4.08,1.17,8.11,1.24,12.22a4.81,4.81,0,0,1-2,4.08c-1.37,1.1-2.52,2.48-4.18,3.22-.48.21-1,.68-.8,1.2s1,.32,1.45.23a33.66,33.66,0,0,1,3.5-.61c1.71-.1,3-.67,2.8-2.79,0-.3,0-.73.57-.7,0,.42,0,.83.06,1.23,0,.63-.06,1.62.67,1.59.92,0,.82-1.08.69-1.73-.79-3.83.08-7.54.67-11.29.52-3.28,1-6.59-.23-9.85a10.87,10.87,0,0,1,.54-8.77,63.17,63.17,0,0,0,4.5-13.39c.37.26.08.91.63,1.06a2.83,2.83,0,0,0,2.62-1l.11,0,0-.11.09,0a4.77,4.77,0,0,0,2.57-1.71.27.27,0,0,0,.31-.11c2-1.66,4.07-3.25,5.27-5.66l.06,0a19.09,19.09,0,0,0,3.6-8.85h0l.2-.68.15-.79.2-.63.14-1.12.23-1.39a4.86,4.86,0,0,0,.13-2.18,2.43,2.43,0,0,0,0-1.78,22.68,22.68,0,0,0-.1-4.66,2.17,2.17,0,0,0-.23-1.39l-.11-1.11-.25-1-.1-.75-.23-.73a3.56,3.56,0,0,0-.23-1.8l-.14-.34-.11-.71-.29-.59v-.09a4,4,0,0,0-.66-2.17l-.13-.72-1-2.12a.85.85,0,0,0-.33-.84l.06-.08-.11-.05-.23-.53,0-.14-.14-.07-.33-.67v.06l0,0,0-.1-.1-.06-.3-.62-.17-.5-.17-.25-.33-.62v0l0,0,0-.14-.13,0-.21-.25-.05-.11-.27-.41-.17-.34-.22-.25-.59-.85,0-.1h-.12l-.34-.28a.24.24,0,0,0-.11-.28c-.22-.82-1.06-1.14-1.47-1.79C101.87,142.52,101.77,142.44,101.58,142.43ZM86.14,80.74c1.24,0,2.54.46,4.06-.62C88.49,79.77,87.24,79.63,86.14,80.74Zm-13.21-9.2a6.63,6.63,0,0,0,1.48,3.84A3.88,3.88,0,0,0,72.93,71.54ZM69.85,78l-2.13-2.75C67.79,76.65,68.3,77.74,69.85,78Zm8-7.2c-.19,1-.71,1.86-.43,2.87a.59.59,0,0,0,.45,0A3.2,3.2,0,0,0,78.33,71S78.23,71,77.89,70.8ZM70,73.5a3.92,3.92,0,0,0,1.73,2.68A2.94,2.94,0,0,0,70,73.5ZM30.54,75.19c.21,1.31,1.42,1.39,1.92,2.14a.48.48,0,0,0,.45,0,.38.38,0,0,0,0-.6C32.13,76.27,31.67,75.43,30.54,75.19Zm4.31-2.83-.43.25c.29.58.56,1.17.88,1.74.14.26.42.54.69.35s.25-.6,0-.91C35.6,73.32,35.23,72.84,34.85,72.36Z"/><path class="cls-3" d="M81.22,197l-.71.06c0-.24-.06-.52-.36-.51s-.32.28-.36.51l-1.09-.08c-.39-.37-.88-.22-1.34-.25l-.82-.17-.62-.19-.77-.07c-.14-1.66-1-1.6-2.17-.93-.58-.17-1-.88-1.79-.42l0,0c.15-.64,0-.94-.74-.76l0,0c.29-.79-.32-.68-.75-.75l0,.07c.14-.68-.59-.89-.76-1.4a18.3,18.3,0,0,0-2.12-4.52,1.28,1.28,0,0,0-1.4-.52.38.38,0,0,0-.23,0,3.28,3.28,0,0,1-.87-2.14l-.17-.34-.82-2.17a2.55,2.55,0,0,0-1.06-3.93l-.07-.4-.25-.66L62,176.33c.22,0,.5-.05.53-.33s-.24-.34-.47-.39l-.24-.32a1.43,1.43,0,0,1-.15-1.11c1.36-.52,1.36-1,0-2.14l-.28-.34-.12-1.45c1-.45,1-.93,0-1.43l-.28-.6a1.61,1.61,0,0,1-.11-1.14l.52-.39-.53-.37,0-.75.1-2.82c.64-.12.56-.63.62-1.1.69-5.59,1.5-11.15,4-16.29a13.91,13.91,0,0,0,1.67-4l1.45.28,2.48.51a.64.64,0,0,0,.36.62v2.15c0,.89-1.21,2.07.59,2.55l-.25,1c-.23,0-.51,0-.54.34s.26.34.49.38L71.45,152l-.18.48-.06,1.63a23.07,23.07,0,0,0-1,3.38c-.41,3-1,6.11.9,8.92a3.47,3.47,0,0,0,3.75,1.68c1.5-.29,1.35-1.85,2-2.79.3-.43-.11-.87-.7-.91,0-.09,0-.19,0-.29l.1-1.77c.21-.38.37-.79-.19-1s-.56.25-.62.61a1.4,1.4,0,0,1-1.91.62c-.69-.42-.52-1.31-.21-2.05.83-.55,1.77-1.1.13-1.83l.27-1.38c.7-.19.77-.45.08-.78l.36-3.51c1.53-.3.89-1.68,1.29-2.55,1.52-3.31.43-8.23,5.68-9.24.46.38.31.88.26,1.36-.58.27-.6.55,0,.84q-.32,4.26-.65,8.51c-.7.22-.71.48,0,.78l-1,6.73c-.86.31-.81.69-.1,1.13L79.38,162a.94.94,0,0,0-.86,1c0,.49.43.45.76.52l-.56,3.87c-.48.78-.21,1.69-.42,2.51-.23,0-.5.07-.5.36s.27.32.5.36c.13,2.89-.37,5.87,1.35,8.5-.24.13-.6.24-.33.58s.39,0,.51-.22l.69.28,0,0c.64,2,2.25,1.69,3.79,1.53.88,0,1,0,.91-.61v-1.47l0,.05c1.31-.91,1.34-1,.34-1.81-.4-.32.06-.48,0-.71a.84.84,0,0,0,.44-1.17c-.24-.47-.74-.3-1.12-.24-1.68.26-2.38-.8-2.93-2.1l-.22-.42a4.55,4.55,0,0,1,0-2.17l.17-.43.2-2.43.12-.55c.21-1-.17-2.07.46-3,.31,0,.74.09.87-.27s-.25-.65-.6-.83l.18-1c.52-.13.76-.33.2-.74l.88-3.57.22-.38c.5-3.27,1.92-6.33,2.3-9.63l.12-.58.23-2.28.14-.56.23-2.31c.45-1,.11-2.07.21-3.1l1.09-.75c.54-.3,1.23-.39,1.43-1.13l0,0a.68.68,0,0,0,.75-.75l-.06.05c.47.13.75-.28,1.14-.38l.33-.43h0l.37-.29L93,135a5.06,5.06,0,0,1,3.26,2.65l0,1.21-.31-.16c-1-.68-2.07-1.59-3.14,0a2.62,2.62,0,0,0,.59,3.78,27.24,27.24,0,0,1,7.35,8.28c.59.94,1.24,1.85,1.91,2.75.22.3.48.83,1,.55s.24-.77.13-1.14a23.85,23.85,0,0,0-1.26-3.86c-1.08-2.16-2-4.37-3.06-6.56a1.25,1.25,0,0,1,1.19-.86l.67.49.29.26,0,0,.26.3c.41.65,1.25,1,1.47,1.79-.71.15-.75.57-.43,1.29l.54-1,.34.28.09.11.59.85a.35.35,0,0,0,.22.25l.17.34.27.41.05.11a.63.63,0,0,0,.21.25l.13,0,0,.14,0,0,.33.62a.37.37,0,0,0,.17.25l.17.5.3.62.1.06,0,.1,0,0,.33.67a.33.33,0,0,0,.12.21l.23.53,0,.13a.85.85,0,0,1,.33.84c-.07.48.18,1.05-.35,1.41l-.09-.15-.06.07.15.08c0,1,1.08.07,1.3.71l.13.72c-.45.93-1,1.9.66,2.17v.09l.29.59.11.71.14.34a3.56,3.56,0,0,1,.23,1.8l.23.73.1.75c0,.37-.06.74.25,1l.11,1.11c0,.47-.13,1,.23,1.39a22.68,22.68,0,0,1,.1,4.66c-1.08.6-1.1,1.2,0,1.78a4.86,4.86,0,0,1-.13,2.18c-.18.45-.81.82-.23,1.39l-.14,1.12-.2.63-.15.79-.2.68h0c-1.42,0-1.2,1.4-1.44,2.11-.74,2.23-2.49,4.16-2.16,6.74l-.06,0c-2.27-.2-2.56,2.29-4.15,3.08a2.28,2.28,0,0,0-1.12,2.58.27.27,0,0,1-.31.11,2.17,2.17,0,0,0-2.57,1.71l-.09,0-.16.07a2.83,2.83,0,0,1-2.62,1l-.06-.73c1.13-.08.54-.72.39-1.21a36,36,0,0,0,1.6-8.79c.91-.6.92-1.19,0-1.79l-.18-1.41a6,6,0,0,0-.59-2.53,7.33,7.33,0,0,0-.84-3c-.26-1.63-1.11-1.88-2.42-1a6.44,6.44,0,0,0-2.87,2.62c-.29.94-1.47,1.36-1.44,2.48l-.28.52c-.1-.2-.22-.39-.48-.34-.06,0-.1.17-.15.25l.52.31c.07.47-.31.76-.48,1.13-.28,0-.64-.11-.73.27s.23.34.46.39l-.13.71a.61.61,0,0,0-.18.26l0,.08c-.78-.05-1.1.33-1,1.09,0,.41-.06.84.39,1.09-.08.37,0,.79-.38,1-.26.05-.6,0-.56.4,0,.12.31.21.47.32a1.73,1.73,0,0,1-.16,1.3,3.72,3.72,0,0,0-.48-.41s-.27.19-.28.31c0,.45.29.54.64.59l0,1.08-.17.37c-.29.28-.24.64-.24,1a3.49,3.49,0,0,1-.2,1.89l-.13.33-.18.72-.2.29c-.06.53-.45.38-.77.38l-.63.28-.73.06C82.25,195.69,81.6,195.45,81.22,197Zm25.89-37a6.88,6.88,0,0,0-1.44-3.18c-.32-.32-.66-.75-1.19-.51s-.37.7-.39,1.1c-.12,2.2.83,4.12,1.64,6.07a.74.74,0,0,0,.82.53.82.82,0,0,0,.63-.77c.09-.94.08-1.89.11-2.83Z"/><path class="cls-4" d="M92.33,135.53h0c-1.08-.81-1.2.19-1.52.81l.06-.05c-.46,0-1,0-.75.75l0,0c-.78-.43-1,.43-1.47.66-.72-.06-1.23.72-2.11.45.26-1.41-.2-2.75-1.67-3-1.69-.22-2,1.41-2.6,2.63-.36.78-.07,1.75-.75,2.43l-.7.08c-.71.08-1.41.2-2.12.24-2.12.12-2.25-.06-1.44-2a54.25,54.25,0,0,0,3-9.81,2.56,2.56,0,0,0-1.2-3.15c-2.42-.87-4.34.61-4.21,3.25a84.84,84.84,0,0,0-1.55,10.27c-.14,1.14-.27,1.89-1.66,2-.6,0-1.25.23-1.89.27-1.89-.5-3.63-1.23-4.57-3.12-.18-.36-.33-.76-.83-.8l0,0a.61.61,0,0,0-.34-.68,3.21,3.21,0,0,0-.1-1.57,23.47,23.47,0,0,1-.82-9.57l.22-1,.17-1.11.17-.37c-.15-.59.63-.81.56-1.66-1.77.4-3.44,1-5.18,1.26-1.53.24-2.69.16-2.88-1.71a1.5,1.5,0,0,0-1.74-1.44,4,4,0,0,0-3.81-1c-.1,0-.08-.35-.29-.12l.25.17-.14.76c-1.3-.11-1.51,1.68-2.8,1.59-.19,0-.34-.09-.31-.33.9-1.29,2-2.5,1.63-4.28.71-.92.1-1.22-.68-1.44-.93-1.13-1.57-2.79-3.58-2l-.26-.57s.07-.08.06-.11a2.29,2.29,0,0,0-.1-.23v-.66l.25-1.11c.3-2.28,1.87-3.84,3.16-5.54a21.52,21.52,0,0,1,2.78-2.87c.41-.38,1.08-1.08,1.34.19-.27,1.36.25,2.65.3,4,0,.73.44,1,1.11,1.06l0,0c.71,1.1,1.6,1,2.56.37l0,0c1.82-1.21-.28-2-.35-2.94v-.67l-1.06-5c2.27-1.6,4.35-3.52,7.14-4.29l.34-.18.47-.15h.09l.07-.05.58-.29.59-.3.74-.09h2.64c.34.31.17.7.18,1.06-.38,1.07-1.19,2-1,3.25l-.67,3.54c-.63,2-.44,4.19-1.51,6.07-.39,0-.83-.06-1.06.39-.6.48-.36,1,0,1.43l0,0c0,.31-.09.67.37.76l0,0c.48.57,1,1.17,1.73.38.81,0,1.69.12,2.22-.74l.67-.1L69,110.75c.8-1.36.16-1.66-1-1.61a25.87,25.87,0,0,1,.59-6.8,39.57,39.57,0,0,0,1.55-7.78C72,94.43,73,95.6,74,96.75a.16.16,0,0,0,.15.22l.22.45.16.28c1.05.52,1.12,1.84,2,2.5a6.09,6.09,0,0,0,.17.87,10.78,10.78,0,0,1-1,9.85c-1,1.65-2.35,3-3.22,4.73a15.73,15.73,0,0,0,5.18-6.32,8.92,8.92,0,0,0-.5-8.72l2.29-.12a10.82,10.82,0,0,1,7.73,5.92c1.9,3.52,4.37,6.77,5.47,10.68,1.63,5.81,2.11,11.65-.42,17.38C92.05,134.87,91.5,135.26,92.33,135.53ZM69.58,118.19l-5.34,3.35a8,8,0,0,0,5.63-3c.74-.22,1.36-.54,1.27-1.52C70.26,117.07,69.93,117.65,69.58,118.19Zm17.91-3.78c.49-2.13-.32-3.69-1-5.15-1.08-2.48-2.42-4.88-4.85-6.37-.38-.24-.81-.58-1.29-.16a1.5,1.5,0,0,0-.49,1.61A2.37,2.37,0,0,0,81,105.72c1.79,1.24,2.94,3,4.37,4.62C86.36,111.47,86.24,113.08,87.49,114.41ZM75,106.47a8.84,8.84,0,0,0-.91-7.81c-.28-.47-.79-.91-1.29-.5s-.13,1,.24,1.39A6.54,6.54,0,0,1,74.49,104,3.76,3.76,0,0,0,75,106.47ZM89,117.05c-.32-.43.1-1.36-.82-1.47-.48-.06-.52.37-.49.72.06.63.17,1.3.93,1.42C88.88,117.77,89,117.44,89,117.05ZM72.63,96.74c0-.38-.09-.75-.51-.79-.71-.07-.54.59-.7,1s-.13.76.35.75S72.55,97.24,72.63,96.74ZM64,126.27l-.09-.12-.1.1.14.14Z"/><path class="cls-5" d="M87.63,184.45a.61.61,0,0,1,.18-.26A2.9,2.9,0,0,0,89.08,181c0-1.12,1.15-1.54,1.44-2.48a1.11,1.11,0,0,0,1-.2c2.67-1.58,3.41-1.32,4.8,1.62l.4,2.87v.72c0,1.31,0,2.62,0,3.93l-1.79,7.88a63.17,63.17,0,0,1-4.5,13.39,10.87,10.87,0,0,0-.54,8.77c1.25,3.26.75,6.57.23,9.85-.59,3.75-1.46,7.46-.67,11.29.13.65.23,1.7-.69,1.73-.73,0-.62-1-.67-1.59,0-.4,0-.81-.06-1.23-.61,0-.6.4-.57.7.24,2.12-1.09,2.69-2.8,2.79a33.66,33.66,0,0,0-3.5.61c-.5.09-1.21.35-1.45-.23s.32-1,.8-1.2c1.66-.74,2.81-2.12,4.18-3.22a4.81,4.81,0,0,0,2-4.08c-.07-4.11-.93-8.14-1.24-12.22a100.5,100.5,0,0,1,.29-19.39c.34-2.94.59-5.9.88-8.85.49-2.38,1-4.77,1.45-7.16C88.09,185,88.45,184.36,87.63,184.45Zm6.18,1.3h0c0,.82,0,1.65,0,2.47a.84.84,0,0,0,.36.55c.23.16.43,0,.57-.23.86-1.22.87-4.52.13-5.78-.3-.51-.67-.42-1-.38-.68.06-.19.46-.17.73C93.7,184,93.75,184.87,93.81,185.75Z"/><path class="cls-5" d="M72.68,195.9c1.22.34,1.5,1,1.12,2.26-1.21,4.11-1.42,8.4-2.15,12.6-.62,3.53.12,7,.39,10.48.36,4.61,1,9.22.28,13.86a17,17,0,0,0,.3,4.08c0,.4.16.91-.37,1.08a.78.78,0,0,1-1-.69c-.22-1.09-.82-.7-1.46-.46-1.49.56-3,1.08-4.5,1.61-.24.08-.53.45-.76.07a.67.67,0,0,1,.26-.93c1.3-.77,2-2.16,3.14-3,2-1.56,2.13-3.54,1.77-5.71q-1.42-8.33-2.93-16.64a13.06,13.06,0,0,1-.07-4.45c.87-5.17.59-10.44,1.37-15.62a3.27,3.27,0,0,1,.39-1.55c.5.14.76.77,1.37.68l0-.07c0,.46.25.75.75.75l0,0c0,.48.37.63.74.76l0,0A2.56,2.56,0,0,0,72.68,195.9Z"/><path class="cls-6" d="M55.49,103.77v.67c-.43,1,.56,1.92.35,2.94l0,0L53.32,107l0,0c-.48-1.66-.3-3.44-1-5a52.61,52.61,0,0,0-2.16-9.69c-.77-2.47-2.87-3.84-4.48-5.6-.49-.53-1.14-.31-1.76,0-3.76,1.9-7.22,1.27-10.33-1.41-.56-.48-1.57-.32-1.72-1.28,0-.07.13-.17.2-.26l1.15-1C33.14,84,34.4,84,35.08,84.46a1,1,0,0,0,.93-.62c.73.85,1.71.68,2.65.62l.78,0c.71.78,1.62.1,2.4.32a2.83,2.83,0,0,0,.88.45c1,.15.27-.45.27-.73a13.8,13.8,0,0,1,3.17-1.14l.18,0h.17c-.34.55-.23.92.43,1.08-.29.72.42.71.73.93,4.14,3,5.57,7.36,6,12.19A7,7,0,0,0,54,98.78a24.69,24.69,0,0,0,.76,4.44C54.88,103.6,55,103.88,55.49,103.77ZM38.31,86c1.25-.4,2.74,1,4.1-.68l-4.13.2a1.32,1.32,0,0,0-2,.51A2,2,0,0,0,38.31,86Zm7.88-.74c-.3,0-.34.24-.35.46a.86.86,0,0,0,.09.3,2.65,2.65,0,0,0,.41-.41C46.44,85.46,46.39,85.31,46.19,85.25Z"/><path class="cls-7" d="M54.46,119.5a1.5,1.5,0,0,1,1.74,1.44c-.2,0-.63-.1-.57.15.72,3-1.57,4.11-3.33,5.58l-.4-.42c0-.32.47-.62.14-.93a.57.57,0,0,0-.79.13,6.8,6.8,0,0,1-2.81,1.63c-.33.12-.65.38-.11.7v.62c-2.36.27-4.56,0-6.34-1.79.15-.16.23-.3.29-.3,3.53.21,3.56.2,4.56-3.27.1-.35.12-.55.6-.66,1-.23,1.24-.81.22-1.46,1.29.09,1.5-1.7,2.8-1.59a3.45,3.45,0,0,1,3.21.4C54,120,54.34,120.05,54.46,119.5Z"/><path class="cls-7" d="M41.15,115.53a5.35,5.35,0,0,1,3.59-2.69,6.85,6.85,0,0,1,2,1.32c1.79,1.55,2.11,5.33-.6,6.16-.8-.68-1.55-1.18-1.82.44,0,.34-.5.79-.75.5-1.7-2-1.56.62-1.56.81,0,1.13-1.5,0-1.48,1.1a3.75,3.75,0,0,1-.7,2,16,16,0,0,1-.43-6.35l.16,0h.16c0,.19-.05.46.27.46.07,0,.2-.14.2-.2,0-.32-.3-.22-.48-.24l0-1v0l.32.34c.29.62.51.45.79,0,.54-.94,1.11-1.85,1.71-2.83-.65,0-.86.38-1.21.57Z"/><path class="cls-8" d="M33.26,82.7l-1.15,1c.24-2.74.8-5.38,2.91-7.36,3.53-3.31,8.35-3.49,11.34-.1.17.19.36.27.54,0h0a4.85,4.85,0,0,0,2.21,3.28l0,0a1,1,0,0,0,.39.94c-.6.89-1.05.1-1.41-.2-.63-.53-1.14-1.19-1.72-1.78C44.57,76.63,41,75.74,39.1,77q3.54,3.6.34,7.47l-.78,0a4.89,4.89,0,0,0,1.42-4.37c-.1-.81-.36-1.72-1.26-2a2.57,2.57,0,0,0-2.44.6c-.71.57-1,1.51-1.91,1.87-.12-.34-.27-.24-.42,0A5.7,5.7,0,0,0,33.26,82.7ZM38,76.28c1.62-.37,3.17-1.19,5-.56a4.8,4.8,0,0,0-5.13.34c-.23.22-.68.14-.82.87C37.38,76.53,37.81,76.75,38,76.28Z"/><path class="cls-9" d="M39.44,84.49q3.21-3.87-.34-7.47c1.9-1.28,5.47-.39,7.23,1.45.58.59,1.09,1.25,1.72,1.78.36.3.81,1.09,1.41.2a2,2,0,0,1,0,.26c-.78.05-.4,1.14-1.12,1.25a7.3,7.3,0,0,0-2.14,1.43A13.8,13.8,0,0,0,43,84.53a1.53,1.53,0,0,0-1.15.28C41.06,84.59,40.15,85.27,39.44,84.49Z"/><path class="cls-5" d="M61.68,141.67l-.1-4.69c0-.47.13-1-.22-1.38l-.15-1.46c0-.69,0-1.38,0-2.07s.25-1.2,1.08-1.14l1.43,5.69c0,.46.17.74.67.72l0,0,.06,1.64c.19.51-1,1.21.22,1.58l.17,3-.15.68c-1.61.79-1.47,2.42-1.84,3.81h-.55l-.14-.35v-1.56l-.13-.57-.13-2.55C61.93,142.58,62.07,142.08,61.68,141.67Z"/><path class="cls-10" d="M83.76,87c-2.65,2.11-5.55,2.26-8.63,1.17-.33-.11-.62-.67-1.06-.17l0,0c.29-.46-.23-.41-.38-.59h-.09c-2.16-1.11-3.63-3.18-5.85-4.23-.76-.36-.44-.86,0-1.4a17.48,17.48,0,0,1,3.09-2.74c.57,0,.73.43.76.92.09,1-.56.25-.8.38-.81.44-1.77.87-1.76,2,0,1.37,1.25,1.25,2.05,1.73.22-.55-.14-1,.31-1.43a2.64,2.64,0,0,0,3.33,2.11.43.43,0,0,0,0,.25c-.08.29-1.4,0-.42.74a4.07,4.07,0,0,0,1.53.42c1.76.42,3.57.17,5.34.36-.06.25-.12.51-.19.77l-5.75-.47a7.62,7.62,0,0,0,5.73.46C82,87.79,82.73,86.22,83.76,87Z"/><path class="cls-4" d="M68.4,92.35a.57.57,0,0,1,.33-.72l1.42,1.07,0,.68c-.67.72-.23,1.78-.79,2.53-1.25.74-1.26,1.74-.59,2.87l-.2,1.08-.19.36-.09,2.11c-1,2.16-.85,4.51-1.11,6.8-.86,1-1.71.23-2.56,0l1.06-5,.17-.41.11-1.71c1.33-.5,1.31-1.27.45-2.2l.27-1.74c1.1-.94.72-2.32,1-3.5l.08-.43A1.22,1.22,0,0,0,68.4,92.35Z"/><path class="cls-6" d="M71.66,80c0-.49-.19-.87-.76-.92.91-2.38,5-4.46,7.86-4.08.68.08,1.34.77,2.08.17h0a5.15,5.15,0,0,0,2.94,2.52l0,0c.26,1.36,1.57,2.23,1.72,3.64-.24.88-.39.61-.76,0-.71-1.17-1-1.24-1.79-.87l-2-1.78c.11-.3.8-.64.48-.76-.79-.28-1-1.47-2-1.28S77.08,76.52,76,77c-.41.16-1-.5-1.24.21s.92.44.83,1.08c-.91-.67-1.53.51-2.36.39-.17-.26-.07-.77-.58-.68-.19,0-.47.24-.49.39,0,.45.4.46.68.62Z"/><path class="cls-11" d="M64.72,144.28l.15-.68c.71-.46.87-1.31,1.34-1.94.26-.35.44-1.09,1.07-.34a13.91,13.91,0,0,1-1.67,4c-2.53,5.14-3.34,10.7-4,16.29-.06.47,0,1-.62,1.1-.11-.47-.21-.94-.31-1.41a2.49,2.49,0,0,1,0-1.48c.09-.82.89-1.57.25-2.46l.09-1.11.23-.69.13-.74.25-.62.1-1.16.26-.62.33-1.14a6.15,6.15,0,0,0,.74-2.68l0,0A21.13,21.13,0,0,0,64.72,144.28Z"/><path class="cls-12" d="M79.44,100.49l-2.29.12a8.92,8.92,0,0,1,.5,8.72,15.73,15.73,0,0,1-5.18,6.32c.87-1.73,2.24-3.08,3.22-4.73a10.78,10.78,0,0,0,1-9.85,6.09,6.09,0,0,1-.17-.87C77.52,100.36,78.54,99.84,79.44,100.49Z"/><path class="cls-8" d="M70.15,92.7l-1.42-1.07c.58-1.57,2-2.45,3-3.72.5-.65,1.31-.11,1.9-.44l.09,0c-.4.52.1.49.38.59l0,0a1,1,0,0,1-.32,1.63C72.45,90.55,70.92,91.18,70.15,92.7Z"/><path class="cls-13" d="M82.93,80.48c.81-.37,1.08-.3,1.79.87.37.6.52.87.76,0,2,3.2,1.48,3.47-1.72,5.69-1-.81-1.76.76-2.74.33h0l.19-.77c.6-.23,1.19-.48,1.79-.68,3.42-1.15,3.45-1.27,1.08-3.92C83.68,81.52,83.32,81,82.93,80.48Z"/><path class="cls-5" d="M106.57,187.68c-.33-2.58,1.42-4.51,2.16-6.74.24-.71,0-2.08,1.44-2.11A19.09,19.09,0,0,1,106.57,187.68Z"/><path class="cls-14" d="M96.7,183.48v-.72l.55-.34.18,1.41v1.79a36,36,0,0,1-1.6,8.79,1.19,1.19,0,0,0-.39,1.21l.06.73c-.55-.15-.26-.8-.63-1.06l1.79-7.88A5.65,5.65,0,0,0,96.7,183.48Z"/><path class="cls-5" d="M101.24,193.39a2.28,2.28,0,0,1,1.12-2.58c1.59-.79,1.88-3.28,4.15-3.08C105.31,190.14,103.24,191.73,101.24,193.39Z"/><path class="cls-12" d="M63.73,136.62l-1.43-5.69-.08-1.07V127c-.05-.53.84-1,0-1.61h0c.25.3.65-.29.88.14a23.47,23.47,0,0,0,.82,9.57,3.21,3.21,0,0,1,.1,1.57A.63.63,0,0,1,63.73,136.62Z"/><path class="cls-15" d="M46.19,120.32c2.71-.83,2.39-4.61.6-6.16a6.85,6.85,0,0,0-2-1.32v0c2-.8,2.65.86,3.58,2l.68,1.44c.38,1.78-.73,3-1.63,4.28C47,120.49,46.5,120.74,46.19,120.32Z"/><path class="cls-5" d="M96.22,138.85l0-1.21a26.36,26.36,0,0,1,4.31,4,1.25,1.25,0,0,0-1.19.86A18.4,18.4,0,0,0,96.22,138.85Z"/><path class="cls-11" d="M65.52,187.09a1.28,1.28,0,0,1,1.4.52A18.3,18.3,0,0,1,69,192.13c-.74-.06-.84-.78-1.23-1.21l-.33-.3-.2-.33-.27-.4-.06-.1a.35.35,0,0,0-.12-.19,1.87,1.87,0,0,1-1-1.55.43.43,0,0,0-.09-.22l-.27-.45A2.71,2.71,0,0,1,65.52,187.09Z"/><path class="cls-14" d="M87.63,184.45c.82-.09.46.53.41.8-.46,2.39-1,4.78-1.45,7.16-.13-.34.08-.8-.33-1.06l0-1.08.12-.49a1.73,1.73,0,0,0,.16-1.3l.09-.72c.37-.26.3-.68.38-1,.51-.37.28-1,.41-1.42a.7.7,0,0,0,.22-.76Z"/><path class="cls-15" d="M69.34,95.91c.56-.75.12-1.81.79-2.53l0,1.18a39.57,39.57,0,0,1-1.55,7.78,1.36,1.36,0,0,0-.35,0l.09-2.11.19-.36.2-1.08A7.06,7.06,0,0,0,69.34,95.91Z"/><path class="cls-14" d="M52.36,102c.71,1.61.53,3.39,1,5-.67,0-1.08-.33-1.11-1.06,0-1.33-.57-2.62-.3-4Z"/><path class="cls-13" d="M48.3,82c.72-.11.34-1.2,1.12-1.25l.69.76c-1.41.63-1.47,2.69-3.17,3-.66-.16-.77-.53-.43-1.08C47.48,83.38,48.27,83.14,48.3,82Z"/><path class="cls-8" d="M49.11,79.55c0-.56-.21-1.21.75-1.2s1.72-.46,2.72-.22c-.76,1.62-2.43.77-3.51,1.38Z"/><path class="cls-13" d="M86.14,80.74c1.1-1.11,2.35-1,4.06-.62C88.68,81.2,87.38,80.71,86.14,80.74Z"/><path class="cls-10" d="M72.93,71.54a3.88,3.88,0,0,1,1.48,3.84A6.63,6.63,0,0,1,72.93,71.54Z"/><path class="cls-8" d="M80.84,75.2a8.19,8.19,0,0,1,2.5-3.42c-.39,1.62-1,2.84-2.48,3.43Z"/><path class="cls-11" d="M62.37,178.47a2.55,2.55,0,0,1,1.06,3.93,2.36,2.36,0,0,1-.42-1.84c0-.36.05-.75-.3-1l-.07-.38a.45.45,0,0,0-.1-.29Z"/><path class="cls-8" d="M83.8,77.73c-.13-1.68,1.55-1.49,2.33-2.22a.6.6,0,0,1,.4.21.55.55,0,0,1-.29.74c-.81.44-1.66.83-2.49,1.24Z"/><path class="cls-15" d="M55.49,103.77c-.47.11-.61-.17-.7-.55A24.69,24.69,0,0,1,54,98.78h.4C54.78,100.44,55.13,102.1,55.49,103.77Z"/><path class="cls-10" d="M48.34,128.4v-.62c1.35-.14,2.39-1,3.57-1.53l.4.42C51.23,127.83,49.78,128.09,48.34,128.4Z"/><path class="cls-13" d="M69.85,78c-1.55-.26-2.06-1.35-2.13-2.75Z"/><path class="cls-6" d="M67.67,94.56c-.29,1.18.09,2.56-1,3.5l-.43-.32c-.15-1.24.66-2.18,1-3.25Z"/><path class="cls-10" d="M77.89,70.8c.34.15.44.16.44.19a3.2,3.2,0,0,1-.42,2.66.59.59,0,0,1-.45,0C77.18,72.66,77.7,71.81,77.89,70.8Z"/><path class="cls-6" d="M62.22,129.86l.08,1.07c-.83-.06-1.12.35-1.08,1.14s0,1.38,0,2.07a10.2,10.2,0,0,1,0-4.91C61.28,129.88,61.75,129.88,62.22,129.86Z"/><path class="cls-5" d="M62.22,129.86c-.47,0-.94,0-1-.63l.12-1.17c.3-.29.24-.65.23-1l0-.4.6.34Z"/><path class="cls-10" d="M70,73.5a2.94,2.94,0,0,1,1.73,2.68A3.92,3.92,0,0,1,70,73.5Z"/><path class="cls-10" d="M46.9,76.27c.31-1.24,1.6-1.19,2.37-1.83C49,75.78,47.93,76,46.9,76.27Z"/><path class="cls-13" d="M30.54,75.19c1.13.24,1.59,1.08,2.32,1.52a.38.38,0,0,1,0,.6.48.48,0,0,1-.45,0C32,76.58,30.75,76.5,30.54,75.19Z"/><path class="cls-13" d="M34.85,72.36c.38.48.75,1,1.14,1.43.25.31.36.68,0,.91s-.55-.09-.69-.35c-.32-.57-.59-1.16-.88-1.74Z"/><path class="cls-5" d="M98.36,195.21a2.17,2.17,0,0,1,2.57-1.71A4.77,4.77,0,0,1,98.36,195.21Z"/><path class="cls-11" d="M73,195.32c1.15-.67,2-.73,2.17.93l-.41-.16a.44.44,0,0,0-.29-.11l-1.4-.38A2.29,2.29,0,0,1,73,195.32Z"/><path class="cls-11" d="M61.66,172c1.33,1.15,1.33,1.62,0,2.14l-.07-1.78Z"/><path class="cls-5" d="M109.41,157.05c-1.69-.27-1.11-1.24-.66-2.17A4,4,0,0,1,109.41,157.05Z"/><path class="cls-5" d="M111.22,172c-1.11-.58-1.09-1.18,0-1.78A2.43,2.43,0,0,1,111.22,172Z"/><path class="cls-5" d="M107.32,153.45c.53-.36.28-.93.35-1.41.32.71.64,1.41,1,2.12C108.4,153.52,107.34,154.45,107.32,153.45Z"/><path class="cls-5" d="M60.65,161.34c.1.47.2.94.31,1.41,0,.94-.06,1.88-.1,2.82Z"/><path class="cls-14" d="M63,148.64a6.15,6.15,0,0,1-.74,2.68c.26-.72-.81-1.47,0-2.17Z"/><path class="cls-13" d="M40.13,118.08l-.32-.34a3.53,3.53,0,0,1,1-1.82l0,.43A2.39,2.39,0,0,1,40.13,118.08Z"/><path class="cls-11" d="M81.22,197c.38-1.5,1-1.26,1.79-.29l-1,.05-.34.1Z"/><path class="cls-5" d="M60.89,157.4c.64.89-.16,1.64-.25,2.46A5.69,5.69,0,0,1,60.89,157.4Z"/><path class="cls-15" d="M73,195.32a2.29,2.29,0,0,0,.07.28l-.37.3a2.56,2.56,0,0,1-1.49-1C71.93,194.44,72.4,195.15,73,195.32Z"/><path class="cls-6" d="M68.4,92.35a1.22,1.22,0,0,1-.65,1.78A4.4,4.4,0,0,1,68.4,92.35Z"/><path class="cls-11" d="M61.3,168.82c.91.5.91,1,0,1.43l0-.71Z"/><path class="cls-6" d="M67.09,93.43H64.45C65.33,93.27,66.21,92.84,67.09,93.43Z"/><path class="cls-6" d="M62.21,127l-.6-.34c0-.56,0-1.09.64-1.27C63.05,126,62.16,126.47,62.21,127Z"/><path class="cls-5" d="M110.86,175.6c-.58-.57,0-.94.23-1.39Z"/><path class="cls-5" d="M103.42,144.8l-.54,1c-.32-.72-.28-1.14.43-1.29A.24.24,0,0,1,103.42,144.8Z"/><path class="cls-6" d="M63.14,125.52c-.23-.43-.63.16-.88-.14,0-.77.5-.88,1.1-.85Z"/><path class="cls-14" d="M62.19,146.18v1.56a2.09,2.09,0,0,1-.25-1.82Z"/><path class="cls-6" d="M63,148.64l-.69.51v-1.06h.55l.11.57Z"/><path class="cls-5" d="M77.36,196.68c.46,0,1-.12,1.34.25Z"/><path class="cls-5" d="M111.11,165.59c-.36-.42-.21-.92-.23-1.39A2.17,2.17,0,0,1,111.11,165.59Z"/><path class="cls-11" d="M60.9,166.32l.53.37-.52.39Z"/><path class="cls-5" d="M79.79,197c0-.23.06-.51.36-.51s.33.27.36.51Z"/><path class="cls-6" d="M61.68,141.67c.39.41.25.91.25,1.39A2.17,2.17,0,0,1,61.68,141.67Z"/><path class="cls-11" d="M62,175.61c.23,0,.49.09.47.39s-.31.3-.53.33l0-.35Z"/><path class="cls-6" d="M61.36,135.6c.35.42.22.91.22,1.38Z"/><path class="cls-6" d="M61.58,127.06c0,.35.07.71-.23,1Z"/><path class="cls-5" d="M85.85,192.71c0-.35,0-.71.24-1Z"/><path class="cls-13" d="M39.77,118.78h-.16l-.16,0a1,1,0,0,1,.35-1l0,1Z"/><path class="cls-5" d="M61.3,168.82l-.09.72a1.58,1.58,0,0,1-.19-1.32C61.11,168.42,61.2,168.62,61.3,168.82Z"/><path class="cls-5" d="M62.71,179.55c.35.26.3.65.3,1A1.24,1.24,0,0,1,62.71,179.55Z"/><path class="cls-15" d="M44.68,110.2l-.25,1.11A.91.91,0,0,1,44.68,110.2Z"/><path class="cls-5" d="M110.77,163.09c-.31-.29-.26-.66-.25-1Z"/><path class="cls-5" d="M61.21,155.6l-.23.69Z"/><path class="cls-5" d="M110.17,178.82l.2-.68Z"/><path class="cls-5" d="M110.42,161.31l-.23-.73Z"/><path class="cls-5" d="M109.71,157.73l-.29-.59Z"/><path class="cls-5" d="M62.05,177.41l.25.66Z"/><path class="cls-6" d="M63.71,93.51l-.59.3C63.27,93.62,63.42,93.43,63.71,93.51Z"/><path class="cls-5" d="M110.52,177.35l.2-.63Z"/><path class="cls-5" d="M106.51,149.54l-.3-.62Z"/><path class="cls-5" d="M83.74,196.6l.63-.28Z"/><path class="cls-5" d="M75.92,196.32l.62.19Z"/><path class="cls-5" d="M61.59,154.24l-.25.62Z"/><path class="cls-7" d="M40.85,116.35l0-.43.32-.39.27.26Z"/><path class="cls-5" d="M62,175.61l-.1.37-.14-.69Z"/><path class="cls-5" d="M62,152.46l-.26.62Z"/><path class="cls-5" d="M61.66,172l-.1.36-.18-.7Z"/><path class="cls-5" d="M65.52,187.09a2.71,2.71,0,0,0,0,.29l-.22-.33A.38.38,0,0,1,65.52,187.09Z"/><path class="cls-5" d="M65.78,187.83a.43.43,0,0,1,.09.22l-.11-.08Z"/><path class="cls-6" d="M63.7,123.05l-.17.37Z"/><path class="cls-5" d="M105.1,147l-.27-.41Z"/><path class="cls-5" d="M66.83,189.6a.35.35,0,0,1,.12.19l-.13,0Z"/><path class="cls-5" d="M67,189.89l.27.4Z"/><path class="cls-5" d="M67.48,190.62l.33.3Z"/><path class="cls-5" d="M104.66,146.29a.35.35,0,0,1-.22-.25Z"/><path class="cls-5" d="M105.36,147.4a.63.63,0,0,1-.21-.25Z"/><path class="cls-5" d="M85.52,194.93l.13-.33Z"/><path class="cls-5" d="M93,135l-.31.25Z"/><path class="cls-5" d="M62.54,178.88a.45.45,0,0,1,.1.29Z"/><path class="cls-15" d="M44.43,112a2.29,2.29,0,0,1,.1.23s0,.07-.06.11a1,1,0,0,1-.11-.23S44.4,112,44.43,112Z"/><polygon class="cls-5" points="98.11 195.31 98.27 195.24 98.22 195.35 98.11 195.31"/><path class="cls-5" d="M85.14,195.94l.2-.29Z"/><path class="cls-5" d="M74.45,196a.44.44,0,0,1,.29.11Z"/><polygon class="cls-5" points="105.54 147.55 105.52 147.58 105.55 147.6 105.54 147.55"/><path class="cls-5" d="M110,158.78l-.14-.34Z"/><path class="cls-5" d="M81.63,196.81l.34-.1Z"/><path class="cls-6" d="M62.19,146.18l-.25-.26a1.66,1.66,0,0,1,.12-.31Z"/><path class="cls-10" d="M74.57,97.7l-.16-.28A.39.39,0,0,1,74.57,97.7Z"/><path class="cls-10" d="M74.19,97a.16.16,0,0,1-.15-.22C74.17,96.78,74.22,96.85,74.19,97Z"/><path class="cls-6" d="M61.91,94.3l-.34.18Z"/><polygon class="cls-6" points="62.54 94.1 62.47 94.15 62.38 94.15 62.44 94.05 62.54 94.1"/><path class="cls-5" d="M106,148.42a.37.37,0,0,1-.17-.25Z"/><polygon class="cls-5" points="103.85 145.19 103.76 145.08 103.88 145.09 103.85 145.19"/><path class="cls-5" d="M101.54,142.39l-.29-.26C101.45,142.1,101.53,142.2,101.54,142.39Z"/><polygon class="cls-5" points="106.61 149.66 106.58 149.7 106.61 149.72 106.61 149.66"/><path class="cls-5" d="M107.06,150.54a.33.33,0,0,1-.12-.21l.14.07Z"/><polygon class="cls-5" points="107.34 151.2 107.29 151.07 107.4 151.12 107.34 151.2"/><path class="cls-5" d="M101.84,142.73l-.26-.3C101.77,142.44,101.87,142.52,101.84,142.73Z"/><path class="cls-5" d="M64.25,184.57l.17.34Z"/><path class="cls-6" d="M80.49,179.71l0,0A14.62,14.62,0,0,1,79,170.24a38.28,38.28,0,0,0,1-6.65c.71-6.21,2.25-12.33,2.32-18.62a1.24,1.24,0,0,0,.21-1.17,7.18,7.18,0,0,0,0-2.49l0-1.08a5.35,5.35,0,0,1,.78-3.35c.36-.57.8-1.25,1.43-1.14a1.79,1.79,0,0,1,1.31,1.65c.11.62,0,1.3.42,1.85A54.35,54.35,0,0,1,84,154.64a94,94,0,0,0-3.15,16c-.38,3.4.45,4.62,3.55,6,.14,1.58-1.21.37-1.74,1,.63.34,1,1.14,1.89.85s.44.41.55.71l0-.05c-.23.37-1,.11-.93.83H84s.07-.06.1-.05a.94.94,0,0,1,.15.06l1,.63c0,.61,0,.66-.91.61A13.29,13.29,0,0,1,80.49,179.71Zm4.44-37.06a8.06,8.06,0,0,0-.08-4.41c-.11-.3-.29-.54-.64-.42s-.27.36-.18.58C84.62,139.75,84.22,141.28,84.93,142.65Z"/><path class="cls-9" d="M96.22,138.85a18.4,18.4,0,0,1,3.17,3.65c1,2.19,2,4.4,3.06,6.56a23.85,23.85,0,0,1,1.26,3.86c.11.37.29.89-.13,1.14s-.74-.25-1-.55c-.67-.9-1.32-1.81-1.91-2.75a27.24,27.24,0,0,0-7.35-8.28,2.62,2.62,0,0,1-.59-3.78c1.07-1.6,2.09-.69,3.14,0Z"/><path class="cls-12" d="M84.44,176.66c-3.1-1.4-3.93-2.62-3.55-6a94,94,0,0,1,3.15-16,54.35,54.35,0,0,0,2.51-15.4c.11-.42.15-1,.78-.38l.12,3.13c-.07.77-.15,1.54-.23,2.31,0,.19-.09.37-.14.56-.08.76-.15,1.52-.23,2.28l-.12.58c-.38,3.3-1.8,6.36-2.3,9.63l-.22.38-.88,3.57c-.32.18-.26.46-.2.74l-.18,1a1.36,1.36,0,0,0-.27,1.1c-.63.93-.25,2-.46,3l-.12.55-.2,2.43-.17.43a4.55,4.55,0,0,0,0,2.17l.22.42c.55,1.3,1.25,2.36,2.93,2.1.38-.06.88-.23,1.12.24a.84.84,0,0,1-.44,1.17H85.2a3.89,3.89,0,0,0-.15-.59.76.76,0,0,0-.63.58Z"/><path class="cls-12" d="M82.35,145c-.07,6.29-1.61,12.41-2.32,18.62a38.28,38.28,0,0,1-1,6.65c-.67-.89-.09-1.92-.31-2.86.18-1.29.37-2.58.56-3.87l.1-1.48.24-1.37.1-1.13,1-6.73,0-.78q.33-4.25.65-8.51l0-.84c0-.48.2-1-.26-1.36a1,1,0,0,1,0-.35l-.34-.65.7-.08h.78c0,.38-.14.77.22,1.07a7.18,7.18,0,0,1,0,2.49A1.21,1.21,0,0,0,82.35,145Z"/><path class="cls-12" d="M69.82,141.29c.64,0,1.29-.25,1.89-.27,1.39-.06,1.52-.81,1.66-2a84.84,84.84,0,0,1,1.55-10.27l.56-.71a5.17,5.17,0,0,1,0,.88c-.59,4-1.08,8.08-1.5,12.14a90.74,90.74,0,0,1-2.47,13.77l-.31-.73.06-1.63.18-.48.41-2.87,0-.72.25-1a13.08,13.08,0,0,0,.51-4.7c0-1.41-.93-.5-1.46-.62l-2.48-.51C69,141.23,69.45,141.35,69.82,141.29Z"/><path class="cls-14" d="M71.21,154.15l.31.73c-.23,2-.52,4-.67,6a10.27,10.27,0,0,0,.83,5.22,2.39,2.39,0,0,0,2.61,1.38c1.26-.09.87-1.08,1.3-1.72-.77-.25-1.61,0-2.14-.83l2-.77h.41c0,.2.09.35.33.25.59,0,1,.48.7.91-.67.94-.52,2.5-2,2.79a3.47,3.47,0,0,1-3.75-1.68c-1.94-2.81-1.31-5.89-.9-8.92A23.07,23.07,0,0,1,71.21,154.15Z"/><path class="cls-16" d="M107.29,160.31c0,.94,0,1.89-.11,2.83a.82.82,0,0,1-.63.77.74.74,0,0,1-.82-.53c-.81-1.95-1.76-3.87-1.64-6.07,0-.4-.07-.89.39-1.1s.87.19,1.19.51a6.88,6.88,0,0,1,1.44,3.18Z"/><path class="cls-11" d="M81.22,141a1,1,0,0,0,0,.35c-5.25,1-4.16,5.93-5.68,9.24-.4.87.24,2.25-1.29,2.55l.14-1.44c1-2.84,1-5.91,1.9-8.77.15-.49.16-1.17.83-1.21C78.5,141.61,79.78,140.81,81.22,141Z"/><path class="cls-15" d="M74.36,151.66l-.14,1.44-.36,3.51-.08.78-.27,1.38-.13,1.83c-.31.74-.48,1.63.21,2.05A1.4,1.4,0,0,0,75.5,162c.35-.08.58.13.81.34,0,.59-.07,1.18-.1,1.77a1.17,1.17,0,0,1-.32,0h-.41c.28-.44.62-.86.3-1.41-.86.63-1.59,1.49-2.82.82s-.41-1.55-.38-2.36c0-.47,0-.94,0-1.41a36.71,36.71,0,0,1,1.45-8.51Z"/><path class="cls-14" d="M69.82,141.29c-.37.06-.8-.06-1.09.31l-1.45-.28c-.63-.75-.81,0-1.07.34-.47.63-.63,1.48-1.34,1.94l-.17-3a2.47,2.47,0,0,0-.22-1.58l-.06-1.64c.5,0,.65.44.83.8C66.19,140.06,67.93,140.79,69.82,141.29Z"/><path class="cls-15" d="M82.36,140.24h-.78c.68-.68.39-1.65.75-2.43.56-1.22.91-2.85,2.6-2.63,1.47.2,1.93,1.54,1.67,3,.88.27,1.39-.51,2.11-.45l0,.47-1.09.75a.32.32,0,0,0-.33,0c-.63-.63-.67,0-.78.38-.45-.55-.31-1.23-.42-1.85a1.79,1.79,0,0,0-1.31-1.65c-.63-.11-1.07.57-1.43,1.14a5.35,5.35,0,0,0-.78,3.35Z"/><path class="cls-12" d="M96.29,179.89c-1.39-2.94-2.13-3.2-4.8-1.62a1.11,1.11,0,0,1-1,.2,6.44,6.44,0,0,1,2.87-2.62c1-.16,1.63.65,2.42,1a7.33,7.33,0,0,1,.84,3Z"/><path class="cls-15" d="M78.72,167.38c.22.94-.36,2,.31,2.86a14.62,14.62,0,0,0,1.49,9.51l-.69-.28-.18-.36c-1.72-2.63-1.22-5.61-1.35-8.5v-.72C78.51,169.07,78.24,168.16,78.72,167.38Z"/><path class="cls-11" d="M72.67,142.73a13.08,13.08,0,0,1-.51,4.7c-1.8-.48-.59-1.66-.59-2.55q.71-.54,0-1.08v-1.07Z"/><path class="cls-14" d="M85.2,176.69h.32c0,.23-.44.39,0,.71,1,.81,1,.9-.34,1.81-.11-.3.27-1-.55-.71s-1.26-.51-1.89-.85c.53-.62,1.88.59,1.74-1l0,0C84.67,177.18,84.93,176.8,85.2,176.69Z"/><path class="cls-17" d="M80.49,179.71a13.29,13.29,0,0,0,3.79,1.53C82.74,181.4,81.13,181.76,80.49,179.71Z"/><path class="cls-17" d="M96.29,179.89h.36a6,6,0,0,1,.59,2.53l-.55.34Z"/><path class="cls-17" d="M89.08,181a2.9,2.9,0,0,1-1.27,3.24l.13-.71.27-.66c.17-.37.55-.66.48-1.13a.16.16,0,0,0,.11-.22Z"/><path class="cls-5" d="M95.81,176.88c-.79-.38-1.4-1.19-2.42-1C94.7,175,95.55,175.25,95.81,176.88Z"/><path class="cls-11" d="M73.38,160.6l.13-1.83C75.15,159.5,74.21,160.05,73.38,160.6Z"/><path class="cls-5" d="M97.42,185.62v-1.79C98.34,184.43,98.33,185,97.42,185.62Z"/><path class="cls-11" d="M79.38,162l-.1,1.48c-.33-.07-.81,0-.76-.52A.94.94,0,0,1,79.38,162Z"/><path class="cls-5" d="M87.33,138.86a.32.32,0,0,1,.33,0c-.1,1,.24,2.09-.21,3.1Z"/><path class="cls-5" d="M82.68,164.18a1.36,1.36,0,0,1,.27-1.1c.35.18.78.36.6.83S83,164.15,82.68,164.18Z"/><path class="cls-5" d="M72.67,142.73h-1.1a.64.64,0,0,1-.36-.62C71.74,142.23,72.7,141.32,72.67,142.73Z"/><path class="cls-5" d="M87.39,185.29c-.13.47.1,1.05-.41,1.42-.45-.25-.38-.68-.39-1.09Z"/><path class="cls-14" d="M85.19,180.63l-1-.63h0c-.09-.72.7-.46.93-.83Z"/><path class="cls-11" d="M87.39,185.29l-.8.33c-.08-.76.24-1.14,1-1.09A.7.7,0,0,1,87.39,185.29Z"/><path class="cls-14" d="M88.75,138.14l0-.47c.48-.23.69-1.09,1.47-.66C90,137.75,89.29,137.84,88.75,138.14Z"/><path class="cls-11" d="M86.35,189.78l-.12.49c-.35-.05-.69-.14-.64-.59,0-.12.26-.32.28-.31A3.72,3.72,0,0,1,86.35,189.78Z"/><path class="cls-11" d="M76.31,162.37c-.23-.21-.46-.42-.81-.34.06-.36.18-.73.62-.61S76.52,162,76.31,162.37Z"/><path class="cls-11" d="M79.72,159.53l-.1,1.13C78.91,160.22,78.86,159.84,79.72,159.53Z"/><path class="cls-5" d="M95.43,195.62a1.19,1.19,0,0,1,.39-1.21C96,194.9,96.56,195.54,95.43,195.62Z"/><path class="cls-11" d="M80.78,152l0,.78C80.07,152.5,80.08,152.24,80.78,152Z"/><path class="cls-11" d="M88.21,182.82l-.27.66c-.23,0-.52-.12-.46-.39S87.93,182.83,88.21,182.82Z"/><path class="cls-11" d="M73.78,157.39l.08-.78C74.55,156.94,74.48,157.2,73.78,157.39Z"/><path class="cls-5" d="M83.13,162c-.06-.28-.12-.56.2-.74C83.89,161.71,83.65,161.91,83.13,162Z"/><path class="cls-11" d="M79.65,179.11l.18.36c-.12.2-.34.42-.51.22S79.41,179.24,79.65,179.11Z"/><path class="cls-11" d="M71.91,148.45l0,.72c-.23,0-.51-.08-.49-.38S71.68,148.48,71.91,148.45Z"/><path class="cls-11" d="M81.45,142.67l0,.84C80.85,143.22,80.87,142.94,81.45,142.67Z"/><path class="cls-11" d="M88.8,181.47a.16.16,0,0,1-.11.22l-.52-.31c0-.08.09-.23.15-.25C88.58,181.08,88.7,181.27,88.8,181.47Z"/><path class="cls-11" d="M78.3,169.89v.72c-.23,0-.5-.07-.5-.36S78.07,169.93,78.3,169.89Z"/><path class="cls-15" d="M70.52,194.21c-.5,0-.71-.29-.75-.75C70.2,193.53,70.81,193.42,70.52,194.21Z"/><path class="cls-2" d="M90.84,136.33c.32-.62.44-1.62,1.51-.81-.12.14-.24.29-.37.43C91.59,136.05,91.31,136.46,90.84,136.33Z"/><path class="cls-11" d="M86.6,187.76l-.09.72c-.16-.11-.46-.2-.47-.32C86,187.8,86.34,187.81,86.6,187.76Z"/><path class="cls-14" d="M90.15,137c-.27-.76.29-.71.75-.75A.68.68,0,0,1,90.15,137Z"/><path class="cls-15" d="M71.23,194.94c-.37-.13-.72-.28-.74-.76C71.18,194,71.38,194.3,71.23,194.94Z"/><path class="cls-5" d="M71.57,143.8q.71.54,0,1.08Z"/><path class="cls-5" d="M81.91,173.18l-.22-.42Z"/><path class="cls-5" d="M81.73,170.59l.17-.43Z"/><path class="cls-5" d="M86.73,147.72l.12-.58Z"/><path class="cls-5" d="M82.1,167.73l.12-.55Z"/><path class="cls-5" d="M92,136c.13-.14.25-.29.37-.43h0Z"/><path class="cls-11" d="M75.89,164.18a1.17,1.17,0,0,0,.32,0c0,.1,0,.2,0,.29C76,164.53,75.91,164.38,75.89,164.18Z"/><path class="cls-5" d="M84.21,157.73l.22-.38Z"/><path class="cls-5" d="M87.08,144.86c0-.19.1-.37.14-.56C87.18,144.48,87.13,144.67,87.08,144.86Z"/><polygon class="cls-5" points="107.32 153.46 107.17 153.37 107.23 153.3 107.32 153.46"/><path class="cls-5" d="M107.29,160.31l-.18-.41Z"/><path class="cls-5" d="M71.45,152l-.18.48Z"/><path class="cls-16" d="M87.49,114.41c-1.25-1.33-1.13-2.94-2.15-4.07-1.43-1.57-2.58-3.38-4.37-4.62a2.37,2.37,0,0,1-1.07-1.38,1.5,1.5,0,0,1,.49-1.61c.48-.42.91-.08,1.29.16,2.43,1.49,3.77,3.89,4.85,6.37C87.17,110.72,88,112.28,87.49,114.41Z"/><path class="cls-14" d="M74.36,151.66l-.29-.36c0-3.3,1-6.43,1.73-9.59.93-4.2,2.43-8.28,3.71-12.4a2.85,2.85,0,0,0-.78-3.39l.4-.37a2.56,2.56,0,0,1,1.2,3.15,54.25,54.25,0,0,1-3,9.81c-.81,2-.68,2.16,1.44,2,.71,0,1.41-.16,2.12-.24l.34.65c-1.44-.15-2.72.65-4.13.72-.67,0-.68.72-.83,1.21C75.33,145.75,75.39,148.82,74.36,151.66Z"/><path class="cls-12" d="M75,106.47a3.76,3.76,0,0,1-.52-2.5,6.54,6.54,0,0,0-1.44-4.42c-.37-.41-.74-1-.24-1.39s1,0,1.29.5A8.84,8.84,0,0,1,75,106.47Z"/><path class="cls-14" d="M65.66,104.12l-1.06,5c-.14.12-.25.54-.47.19a1.82,1.82,0,0,1-.08-2c1.07-1.88.88-4.08,1.51-6.07h.34l0,.71-.11,1.71Z"/><path class="cls-17" d="M68.27,102.33a1.36,1.36,0,0,1,.35,0,25.87,25.87,0,0,0-.59,6.8.19.19,0,0,0-.08.26l-.67.1-.12-.37C67.42,106.84,67.28,104.49,68.27,102.33Z"/><path class="cls-2" d="M69.87,118.52a8,8,0,0,1-5.63,3l5.34-3.35Z"/><path class="cls-6" d="M67.16,109.13l.12.37c-.53.86-1.41.71-2.22.74-.66.23-1-.77-1.73-.38l0,0c.32-.47.07-.67-.37-.76l0,0,0-1.43c.23-.45.67-.37,1.06-.39a1.82,1.82,0,0,0,.08,2c.22.35.33-.07.47-.19C65.45,109.36,66.3,110.15,67.16,109.13Z"/><path class="cls-17" d="M79.13,125.55l-.4.37c-2.12-.83-2.38,1.13-3.25,2.17l-.56.71C74.79,126.16,76.71,124.68,79.13,125.55Z"/><path class="cls-15" d="M54.46,119.5c-.12.55-.5.45-.78.23a3.45,3.45,0,0,0-3.21-.4c0-.25.09-.5.14-.76l0,0A4,4,0,0,1,54.46,119.5Z"/><path class="cls-12" d="M89,117.05c.08.39-.08.72-.38.67-.76-.12-.87-.79-.93-1.42,0-.35,0-.78.49-.72C89.06,115.69,88.64,116.62,89,117.05Z"/><path class="cls-15" d="M65.9,101.29h-.34l.67-3.54.43.32-.27,1.74C66.1,100.25,66.39,100.9,65.9,101.29Z"/><path class="cls-10" d="M72.63,96.74c-.08.5-.34.91-.86.92s-.5-.38-.35-.75,0-1,.7-1C72.54,96,72.63,96.36,72.63,96.74Z"/><path class="cls-15" d="M55.84,107.38c.21-1-.78-1.9-.35-2.94C55.56,105.42,57.66,106.17,55.84,107.38Z"/><path class="cls-7" d="M68,109.4a.19.19,0,0,1,.08-.26c1.17,0,1.81.25,1,1.61Z"/><path class="cls-2" d="M69.58,118.19c.35-.54.68-1.12,1.56-1.19.09,1-.53,1.3-1.27,1.52Z"/><path class="cls-15" d="M53.32,107l2.56.37C54.92,108,54,108.08,53.32,107Z"/><path class="cls-7" d="M49,116.31l-.68-1.44C49.09,115.09,49.7,115.39,49,116.31Z"/><path class="cls-17" d="M63.33,109.86c.69-.39,1.07.61,1.73.38C64.28,111,63.81,110.43,63.33,109.86Z"/><path class="cls-17" d="M63,107.74l0,1.43C62.63,108.7,62.39,108.22,63,107.74Z"/><path class="cls-6" d="M63.73,136.62a.63.63,0,0,0,.33,0,.61.61,0,0,1,.34.68C63.9,137.36,63.72,137.08,63.73,136.62Z"/><path class="cls-17" d="M63,109.12c.44.09.69.29.37.76C62.89,109.79,63,109.43,63,109.12Z"/><path class="cls-6" d="M64,126.27l-.05.12-.14-.14.1-.1Z"/><path class="cls-7" d="M50.61,118.57l-.25-.17c.21-.23.19.09.29.12Z"/><path class="cls-14" d="M93.81,185.75c-.06-.88-.11-1.76-.18-2.64,0-.27-.51-.67.17-.73.37,0,.74-.13,1,.38.74,1.26.73,4.56-.13,5.78-.14.2-.34.39-.57.23a.84.84,0,0,1-.36-.55c0-.82,0-1.65,0-2.47Z"/><path class="cls-17" d="M96.7,183.48a5.65,5.65,0,0,1,0,3.93Z"/><path class="cls-9" d="M34.47,80.58c.88-.36,1.2-1.3,1.91-1.87a2.57,2.57,0,0,1,2.44-.6c.9.26,1.16,1.17,1.26,2a4.89,4.89,0,0,1-1.42,4.37c-.94.06-1.92.23-2.65-.62l-.87-1.19c-.41-.65.75-1.86-.76-2.12l0,0Zm3.66.83c-.81-.16-.94-.39-.9-1.14a.84.84,0,0,0-.21-.46c-.25-.34-.55-.17-.75,0-.5.5-1.12,1.12-.53,1.82S37.25,82.4,38.13,81.41Z"/><path class="cls-16" d="M33.26,82.7a5.7,5.7,0,0,1,.79-2.15h.37l0,0a3.76,3.76,0,0,0,.44,2.5c.12.47.48.9.26,1.43C34.4,84,33.14,84,33.26,82.7Z"/><path class="cls-13" d="M38.28,85.51l4.13-.2c-1.36,1.69-2.85.28-4.1.68Z"/><path class="cls-8" d="M38.28,85.51l0,.48a2,2,0,0,1-2.05,0A1.32,1.32,0,0,1,38.28,85.51Z"/><path class="cls-8" d="M48.3,82c0,1.18-.82,1.42-1.79,1.45h-.17l-.18,0A7.3,7.3,0,0,1,48.3,82Z"/><path class="cls-13" d="M35.08,84.46c.22-.53-.14-1-.26-1.43l.32-.38L36,83.84A1,1,0,0,1,35.08,84.46Z"/><path class="cls-8" d="M41.84,84.81A1.53,1.53,0,0,1,43,84.53c0,.28.76.88-.27.73A2.83,2.83,0,0,1,41.84,84.81Z"/><path class="cls-13" d="M46.19,85.25c.2.06.25.21.15.35a2.65,2.65,0,0,1-.41.41.86.86,0,0,1-.09-.3C45.85,85.49,45.89,85.26,46.19,85.25Z"/><path class="cls-14" d="M51.9,126.25c-1.18.54-2.22,1.39-3.57,1.53-.54-.32-.22-.58.11-.7a6.8,6.8,0,0,0,2.81-1.63.57.57,0,0,1,.79-.13C52.37,125.63,51.9,125.93,51.9,126.25Z"/><path class="cls-14" d="M40.85,116.35l.57-.56c.35-.19.56-.62,1.21-.57-.6,1-1.17,1.89-1.71,2.83-.28.48-.5.65-.79,0A2.39,2.39,0,0,0,40.85,116.35Z"/><path class="cls-13" d="M39.76,118.8c.18,0,.45-.08.48.24,0,.06-.13.2-.2.2-.32,0-.23-.27-.27-.46Z"/><path class="cls-15" d="M37.82,76.06A4.8,4.8,0,0,1,43,75.72c-1.78-.63-3.33.19-5,.56Z"/><path class="cls-15" d="M38,76.28c-.19.47-.62.25-1,.65.14-.73.59-.65.82-.87Z"/><path class="cls-13" d="M34.42,80.55h-.37c.15-.21.3-.31.42,0Z"/><path class="cls-14" d="M63,148.66l-.11-.57c.37-1.39.23-3,1.84-3.81A21.13,21.13,0,0,1,63,148.66Z"/><path class="cls-6" d="M64.48,139a2.47,2.47,0,0,1,.22,1.58C63.52,140.22,64.67,139.52,64.48,139Z"/><path class="cls-9" d="M82.93,80.48c.39.5.75,1,1.17,1.52,2.37,2.65,2.34,2.77-1.08,3.92-.6.2-1.19.45-1.79.68-1.77-.19-3.58.06-5.34-.36a4.07,4.07,0,0,1-1.53-.42c-1-.78.34-.45.42-.74a2.45,2.45,0,0,0,1.83-1.57c1.47-2,1-3.93-.33-5.79h2l2.59,1Z"/><path class="cls-16" d="M73.2,78.63c.83.12,1.45-1.06,2.36-.39A4.93,4.93,0,0,1,76.2,83l-1.41,1.79a2.64,2.64,0,0,1-3.33-2.11c-.45.47-.09.88-.31,1.43-.8-.48-2-.36-2.05-1.73,0-1.14,1-1.57,1.76-2,.24-.13.89.58.8-.38L72.81,79v0l.35-.31Zm1.45,2.07a3.11,3.11,0,0,0-.61-.49.93.93,0,0,0-1.13.23,1.88,1.88,0,0,0-.28,2,.94.94,0,0,0,1.82,0c.14-.42-.24-.43-.54-.44s-.49-.08-.48-.38.25-.49.61-.38S74.57,81.17,74.65,80.7Z"/><path class="cls-15" d="M81,87.36a7.62,7.62,0,0,1-5.73-.46l5.75.47Z"/><path class="cls-13" d="M74.79,84.83,76.2,83l.41.47a2.45,2.45,0,0,1-1.83,1.57A.43.43,0,0,1,74.79,84.83Z"/><path class="cls-2" d="M74.09,88.08c-.28-.1-.78-.07-.38-.59C73.86,87.67,74.38,87.62,74.09,88.08Z"/><path class="cls-6" d="M69.34,95.91a7.06,7.06,0,0,1-.59,2.87C68.08,97.65,68.09,96.65,69.34,95.91Z"/><path class="cls-6" d="M65.9,101.29c.49-.39.2-1,.49-1.49.86.93.88,1.7-.45,2.2Z"/><path class="cls-6" d="M65.66,104.12l.17-.41Z"/><path class="cls-6" d="M68.55,99.86l-.19.36Z"/><path class="cls-10" d="M76.61,83.51,76.2,83a4.93,4.93,0,0,0-.64-4.8c.09-.64-1.15-.28-.83-1.08s.83,0,1.24-.21c1.11-.43,2.3-.08,3.44-.29s1.18,1,2,1.28c.32.12-.37.46-.48.76l-2.59-1a1.89,1.89,0,0,0,.33-.13s0-.09,0-.13c-.81,0-1.68-.52-2.4.26C77.58,79.58,78.08,81.49,76.61,83.51Z"/><path class="cls-10" d="M72.81,79c-.28-.16-.73-.17-.68-.62,0-.15.3-.36.49-.39.51-.09.41.42.58.68h0c-.32-.12-.38.05-.35.31Z"/><path class="cls-12" d="M84.93,142.65c-.71-1.37-.31-2.9-.9-4.25-.09-.22-.1-.49.18-.58s.53.12.64.42A8.06,8.06,0,0,1,84.93,142.65Z"/><path class="cls-17" d="M82.36,140.24h.25l0,1.08C82.22,141,82.32,140.62,82.36,140.24Z"/><path class="cls-17" d="M82.35,145a1.21,1.21,0,0,1,.21-1.17A1.24,1.24,0,0,1,82.35,145Z"/><path class="cls-14" d="M84.22,180a.94.94,0,0,0-.15-.06s-.07,0-.1.05h.25Z"/><path class="cls-6" d="M85.2,176.69c-.27.11-.53.49-.78,0a.76.76,0,0,1,.63-.58A3.89,3.89,0,0,1,85.2,176.69Z"/><path class="cls-6" d="M75.48,128.09c.87-1,1.13-3,3.25-2.17a2.85,2.85,0,0,1,.78,3.39c-1.28,4.12-2.78,8.2-3.71,12.4-.7,3.16-1.73,6.29-1.73,9.59a36.71,36.71,0,0,0-1.45,8.51c0,.47,0,.94,0,1.41,0,.81-.78,1.72.38,2.36s2-.19,2.82-.82c.32.55,0,1-.3,1.41l-2,.77c.53.81,1.37.58,2.14.83-.43.64,0,1.63-1.3,1.72a2.39,2.39,0,0,1-2.61-1.38,10.27,10.27,0,0,1-.83-5.22c.15-2,.44-4,.67-6A90.74,90.74,0,0,0,74,141.11c.42-4.06.91-8.1,1.5-12.14A5.17,5.17,0,0,0,75.48,128.09Zm2.2,3.88c1.36-2.05,1.35-3.69-.14-5A8.17,8.17,0,0,1,77.68,132Z"/><path class="cls-10" d="M38.13,81.41c-.88,1-1.72,1-2.39.25s0-1.32.53-1.82c.2-.2.5-.37.75,0a.84.84,0,0,1,.21.46C37.19,81,37.32,81.25,38.13,81.41Z"/><path class="cls-8" d="M35.14,82.65l-.32.38a3.76,3.76,0,0,1-.44-2.5C35.89,80.79,34.73,82,35.14,82.65Z"/><path class="cls-6" d="M76.28,77.72c.72-.78,1.59-.27,2.4-.26,0,0,0,.12,0,.13a1.89,1.89,0,0,1-.33.13Z"/><path class="cls-8" d="M74.65,80.7c-.08.47-.23.67-.61.54s-.59,0-.61.38.24.36.48.38.68,0,.54.44a.94.94,0,0,1-1.82,0,1.88,1.88,0,0,1,.28-2A.93.93,0,0,1,74,80.21,3.11,3.11,0,0,1,74.65,80.7Z"/><path class="cls-6" d="M72.81,78.94c0-.26,0-.43.35-.31Z"/><path class="cls-15" d="M77.68,132a8.17,8.17,0,0,0-.14-5C79,128.28,79,129.92,77.68,132Z"/></g></g></svg>