<svg xmlns="http://www.w3.org/2000/svg" viewBox="0 0 147.8 209.79"><defs><style>.cls-1{fill:#dbcfc3;}.cls-2,.cls-3,.cls-8{stroke:#000;}.cls-2,.cls-3,.cls-4,.cls-5,.cls-6,.cls-7,.cls-8{stroke-miterlimit:10;stroke-width:0.25px;}.cls-3,.cls-6,.cls-9{fill:#fff;}.cls-4,.cls-8{fill:none;}.cls-4,.cls-5,.cls-6,.cls-7{stroke:#fff;}.cls-5{opacity:0.53;}</style></defs><g id="Capa_2" data-name="Capa 2"><g id="responsive"><rect class="cls-1" width="147.8" height="209.79" rx="14.95"/><path class="cls-2" d="M49.36,135.18c-4.54,3.66-5.84,10.43-3.92,15.93s6.6,9.74,11.89,12.19c11.45,5.32,25.47,2.73,36-4.23,3.63-2.39,7.07-5.47,8.5-9.57,1.09-3.13.9-6.55.6-9.85s-.72-6.79-1.24-10.16c-1-6.22-2.4-12.68-6.46-17.49a19.43,19.43,0,0,0-12-6.66l1.69-5a4.67,4.67,0,1,0,2.89-8.82,58.93,58.93,0,0,0,4.57-4.78c.54-.64,1.1-1.52.68-2.25s-1.39-.7-2.17-.55A13.67,13.67,0,0,0,84,87.11a7.47,7.47,0,0,0-12,4.13c-2.42.16-3.69,2.57-3.74,5s2.44,4.78,4.6,3.85A23.89,23.89,0,0,1,75,103.85c.45,1-3.12,2.32-3.12,3.44a19.21,19.21,0,0,0-4.09-3.56,6.45,6.45,0,0,0-5.22-.76c-2.17.74-3.49,2.88-4.52,4.92a139.92,139.92,0,0,0-6.7,16.33c-1.37,3.77-2.76,7.83-1.74,11.72,1.4,5.37,6.81,8.53,11.8,10.95"/><path class="cls-3" d="M86.43,91.57a19.1,19.1,0,0,0-1.89,7.82,2,2,0,0,0,.27,1.22,1.72,1.72,0,0,0,1.31.51,5,5,0,0,0,.57-10A7.62,7.62,0,0,0,76,85.79a7.19,7.19,0,0,0-4.18,4.82,5.86,5.86,0,0,0-4.07,4.86,5.69,5.69,0,0,0,2.75,5.47c.58.33,1.66.54,2.14.06.14-.15.11-.16,0-.66a19.26,19.26,0,0,1-.29-9.22A8,8,0,0,1,75,87.21a6.26,6.26,0,0,1,4.29-1.52,7,7,0,0,1,4.35,1.92,12.74,12.74,0,0,1,2.75,4Z"/><path class="cls-3" d="M80.63,93.64a2.7,2.7,0,0,0,2.15.36,6.13,6.13,0,0,0,2-1,4.53,4.53,0,0,1-.39,1.62,2,2,0,0,1-.93,1,1.7,1.7,0,0,1-1.75-.42A6.42,6.42,0,0,1,80.63,93.64Z"/><path class="cls-3" d="M72.72,93.45a.61.61,0,0,1,.33.13l.35.27a1.74,1.74,0,0,0,1.66.19,4.28,4.28,0,0,1,1.25-.49c.08.28-.12.56-.3.79a3.36,3.36,0,0,1-1,1,1.66,1.66,0,0,1-2.39-1.61.59.59,0,0,1,0-.17S72.68,93.47,72.72,93.45Z"/><path class="cls-2" d="M74.25,94.61a.3.3,0,0,0-.4.06.29.29,0,0,0,.07.4.28.28,0,0,0,.39-.1A.35.35,0,0,0,74.25,94.61Z"/><path class="cls-2" d="M82.81,94.51h0a.27.27,0,0,0-.2.39.26.26,0,0,0,.09.09.32.32,0,0,0,.44-.14s0,0,0,0A.27.27,0,0,0,82.81,94.51Z"/><path class="cls-4" d="M86.18,91.44C82.09,93.38,75.32,93,72.4,92l-.12,0"/><path class="cls-5" d="M82.2,97.3h0a2.09,2.09,0,0,1-1.39.88,8.55,8.55,0,0,1-3,.23,2.29,2.29,0,0,1-1.72-.76,3.69,3.69,0,0,0,.56,2.49,2.83,2.83,0,0,0,2.3.9,2.8,2.8,0,0,0,2.79-2A14.54,14.54,0,0,0,82.2,97.3Z"/><path class="cls-6" d="M79.73,99.11l0,.79a.24.24,0,0,0,0,.15.23.23,0,0,0,.23,0,1.87,1.87,0,0,0,1.21-1.32A4.17,4.17,0,0,1,79.73,99.11Z"/><path class="cls-6" d="M79.09,99.11c0,.35,0,.56,0,.91a2.15,2.15,0,0,1-.8.06.27.27,0,0,1-.18-.07.32.32,0,0,1,0-.16c0-.24,0-.58-.07-.82C78.39,99.07,78.76,99.09,79.09,99.11Z"/><path class="cls-6" d="M77.53,99a0,0,0,0,1,0,0c0,.29,0,.43,0,.67,0,0,0,0,0,.06a.09.09,0,0,1-.07,0,1.49,1.49,0,0,1-.81-.86C76.9,98.94,77.4,99,77.53,99Z"/><path class="cls-7" d="M79,94.7a5,5,0,0,0-3.61,3A1.81,1.81,0,0,0,75.27,99a.81.81,0,0,0,1,.52c.41-.18.49-.71.6-1.14a3.16,3.16,0,0,1,3.87-2.22"/><path class="cls-4" d="M76.26,91.47a4.21,4.21,0,0,1,.92-1.67,1.57,1.57,0,0,1,1.76-.36,4,4,0,0,1,.94.93,2,2,0,0,1,.49,1.16A12.6,12.6,0,0,1,76.26,91.47Z"/><path class="cls-3" d="M12.76,102.58a20.88,20.88,0,0,0-2.49-1.28,1.71,1.71,0,0,0-.93-.18,1.71,1.71,0,0,0-1,.86,1.79,1.79,0,0,0-.4,1.21,1.55,1.55,0,0,0,.44.71,9.31,9.31,0,0,0,2.38,1.9Z"/><path d="M43,133.07a4.07,4.07,0,0,0,1.39-3.9,9.13,9.13,0,0,0-1.83-3.91c-4.89-6.81-12.68-11-18.22-17.28-1.59-1.81-3-3.81-5-5.15s-4.79-1.86-6.77-.48A7.63,7.63,0,0,0,10,106.4a6.23,6.23,0,0,0-.37,3.7c.44,1.46,1.77,2.43,3,3.27A11.68,11.68,0,0,0,16,115.06a4.31,4.31,0,0,0,3.61-.48,2.5,2.5,0,0,0,.84-3.26c-.39-.2-.87.2-.92.64a2.07,2.07,0,0,0,.4,1.22l2.63,4.58c2.84,4.93,5.75,9.94,9.94,13.79a11.64,11.64,0,0,0,4.78,2.89A6.78,6.78,0,0,0,43,133.07Z"/><path class="cls-6" d="M25.08,107.4a1.24,1.24,0,0,0-1.47.27c-.39.54-.1,1.28.19,1.87l-3,3.16a2.19,2.19,0,0,0-.57.78.72.72,0,0,0,1,1,2.35,2.35,0,0,0,.68-.54l2.45-2.5a1.66,1.66,0,0,1,.67-.48c.5-.14,1,.23,1.54.1a1.12,1.12,0,0,0,.63-1.38,2.16,2.16,0,0,0-.81-1.14h0A5.36,5.36,0,0,0,25.08,107.4Z"/><path class="cls-3" d="M24.22,107.56a.58.58,0,0,0-.43.49,1.45,1.45,0,0,0,.12.67,3.2,3.2,0,0,0,1.85,1.91.91.91,0,0,0,.76,0,.73.73,0,0,0,.27-.48,1.25,1.25,0,0,0-.13-.78,2.37,2.37,0,0,0-.46-.66,5.38,5.38,0,0,0-1.07-.9,1.8,1.8,0,0,0-.46-.23A1,1,0,0,0,24.22,107.56Z"/><path class="cls-3" d="M26.32,113.42,23,116.05a3.49,3.49,0,0,0-.68.65,1.12,1.12,0,0,0-.22.88.7.7,0,0,0,.64.57,1.18,1.18,0,0,0,.68-.35c1.29-1.08,2.59-2.17,3.93-3.2v0"/><path class="cls-3" d="M28.52,110.8a2,2,0,0,0-2.2,1.41,2.23,2.23,0,0,0,1.12,2.43,1.93,1.93,0,0,0,1.52.14,1.91,1.91,0,0,0,1.11-2.08,2.66,2.66,0,0,0-1.55-1.9Z"/><path class="cls-3" d="M28.55,111.25a1.31,1.31,0,0,0-1,.13,1.22,1.22,0,0,0-.57.71,1.64,1.64,0,0,0,.17,1.46,1.39,1.39,0,0,0,1.32.58,1.36,1.36,0,0,0,1-.86,1.63,1.63,0,0,0-.12-1.33A1.53,1.53,0,0,0,28.55,111.25Z"/><path class="cls-4" d="M13.76,103.52A7.7,7.7,0,0,0,12.53,113"/><path class="cls-4" d="M15.39,104.36a2.61,2.61,0,0,0-2,1.47,6.11,6.11,0,0,0-.57,2.51,11.3,11.3,0,0,0,.17,3.18,6.16,6.16,0,0,0,1.41,2.83v0"/><path class="cls-4" d="M17.33,105.05a3.88,3.88,0,0,0-2.23,2.11,7.59,7.59,0,0,0-.6,3.06,7.81,7.81,0,0,0,.34,2.68,4.28,4.28,0,0,0,1.55,2.16"/><path class="cls-3" d="M19.56,107.75a1.53,1.53,0,0,0-1.55.52,1.55,1.55,0,0,0-.16,1.63,3.31,3.31,0,0,0,.77.86l2.2,1.9a1.9,1.9,0,0,0,1.05.58,1.59,1.59,0,0,0,1.31-.75,2,2,0,0,0,.46-1.8,2.58,2.58,0,0,0-1.08-1.14A10.78,10.78,0,0,0,19.56,107.75Z"/><path class="cls-8" d="M22.82,110.34a1.46,1.46,0,0,0-1.73,2.09"/><path class="cls-3" d="M28,112.05c.07.28.14.56.22.8l.66-.78"/><path class="cls-3" d="M24.55,108.57a2.48,2.48,0,0,1,.93.18,2.13,2.13,0,0,0-.15.79"/><path class="cls-2" d="M37.45,130.06c-.12-4.1.09-8.4,2-12s6.17-6.3,10.16-5.31a14.44,14.44,0,0,1,25.71-3.39,4.53,4.53,0,0,1,.95,2.77c-.18,2.28-3,3.28-5.23,3.52s-5,.51-6,2.55c-.74,1.46-.25,3.2-.26,4.84A7.59,7.59,0,0,1,52.53,129,7.83,7.83,0,0,1,41,138.17C38.31,136.5,37.55,133.1,37.45,130.06Z"/><path class="cls-3" d="M10.77,179.69a23.34,23.34,0,0,1-.17-3.59c0-12,1.68-27.19,1.49-39.16a2.78,2.78,0,0,1,.38-2,2.37,2.37,0,0,1,1.72-1,5.11,5.11,0,0,1,3.35,1,1.45,1.45,0,0,1,.49,1c-.85,12.49-1.94,28.54-2.39,40.85q3.51,3.13,6.69,6.6c-.88.45-2.49,1.21-2.79,1.32C19.35,184.58,13.84,181.26,10.77,179.69Z"/><path class="cls-3" d="M10.7,179.71l5-3.07"/><path class="cls-3" d="M21.33,182.6,18.45,184"/><path class="cls-3" d="M16.75,134.51A5.93,5.93,0,0,0,14,134a1.91,1.91,0,0,0-1.77,1.74A1.73,1.73,0,0,0,13,137a3.24,3.24,0,0,0,1.44.54,3.54,3.54,0,0,0,2-.17,1.91,1.91,0,0,0,1.17-1.58A1.24,1.24,0,0,0,16.75,134.51Z"/><path class="cls-2" d="M16.15,114.73c-.49,7.13-1,14.25-1.37,21.38"/><path d="M88.9,112.39a3,3,0,0,0-4.46-.39c-1.47,1.25-2,3.68-1.07,5.06.52.79,1.45,1.3,1.55,2.34s-.73,2.09-1.23,3.13c-1,2-.79,4.26-.57,6.31.27,2.41.62,5,2.28,6.39.82.68,1.93,1,2.48,2a9.91,9.91,0,0,1,.64,2.9c.52,2.6,2.59,4.19,4.54,5.59l15.35,11c1.29.93,2.28,2.12,3.94,2.23s4.56-3.48,5.27-5.29-1.13-1.35-2.33-2.31a19.66,19.66,0,0,0-3.89-2.59c-3.42-1.57-5.25-4.65-7.57-7.7-2-2.63-4.37-4.66-5-8.21-.47-2.9,0-6.3-1.41-8.62-.77-1.25-2.1-2.12-2.34-3.69-.18-1.11.24-2.37.19-3.53a4.37,4.37,0,0,0-2.43-3.64A12.08,12.08,0,0,0,88.9,112.39Z"/><path d="M115.82,154.48q10.77.66,21.47,2.06a3.79,3.79,0,0,1,1.56.44,3.93,3.93,0,0,1,1.35,1.92l5.35,12.4c.12.27.23.61,0,.84a.87.87,0,0,1-.74.18l-24.35-2a2.85,2.85,0,0,1-3.06-2.67,47.63,47.63,0,0,1-2.52-11.32,2.11,2.11,0,0,1,.13-1.06A2.17,2.17,0,0,1,115.82,154.48Z"/><path class="cls-9" d="M136.74,157.78c-6.58-.87-13.11-1.26-19.74-1.82l2.15,10.72a2.35,2.35,0,0,0,2.92,2.24c7,.26,14.25,1.37,21.09,1.62a.31.31,0,0,0,.29-.46c-1.76-3.4-3.78-7.82-5.16-11.11A2,2,0,0,0,136.74,157.78Z"/><path class="cls-7" d="M111.88,158.66a2.81,2.81,0,0,1,2,1.11c.52.61.9,1.32,1.38,2,1.89,2.48,5.13,3.43,8.15,4.24a3.19,3.19,0,0,0,1.3.16,1.11,1.11,0,0,0,1-.79,1.09,1.09,0,0,0-.4-1,3.28,3.28,0,0,0-1-.54l-4-1.62a3.25,3.25,0,0,0,4-.31,4.12,4.12,0,0,0,2.61,3.53c.41.15,1,.18,1.18-.22a.8.8,0,0,0-.18-.82c-.18-.23-.43-.4-.62-.63-.59-.74-.34-1.81-.54-2.73a2.88,2.88,0,0,0-2-2.1,3.42,3.42,0,0,0-2.89.58,7.19,7.19,0,0,1,2.41-.53,2.4,2.4,0,0,1,2.08,1.12c.31.59.29,1.38.8,1.81a2.14,2.14,0,0,0,1.36.34c.6,0,1.36-.12,1.48-.7s-.61-1-1.15-1.32a4.06,4.06,0,0,1-1.75-2.14,3.94,3.94,0,0,0-.6-1.39,1.79,1.79,0,0,0-1.7-.47,5.59,5.59,0,0,0-1.68.78,2.18,2.18,0,0,1,3.78.57,7.48,7.48,0,0,0,.45,1.41c.26.42.95.63,1.23.22a.77.77,0,0,0-.21-1,6.05,6.05,0,0,0-.93-.53,2.73,2.73,0,0,1-1.34-2.48c0-.37.13-.74.12-1.12a1.07,1.07,0,0,0-.5-1,1.43,1.43,0,0,0-1.07.08l-2.75.93a2.69,2.69,0,0,1,1.58-.63c.57-.12,1.21-.43,1.28-1a1.09,1.09,0,0,0-.74-1,3,3,0,0,0-1.37-.1c-1.64.12-3.87.28-5.62.34.25.81-.2,1.29-.67,2s-.81,1.16-1.65,1.24C114,156.33,113.25,157.93,111.88,158.66Z"/><path class="cls-7" d="M107.69,156.41a5.69,5.69,0,0,0,2.46,1.9,2.7,2.7,0,0,0,1.62.43,2.67,2.67,0,0,0,1.07-.52,6.64,6.64,0,0,0,1.34-1.36,3.43,3.43,0,0,0,.77-1.65,2.33,2.33,0,0,0,2-1.41,3.92,3.92,0,0,0,.31-2.81,15.87,15.87,0,0,0-3.19-1.8.67.67,0,0,0-.86.12,5.38,5.38,0,0,0-1,1.45c-.41.84-.94,2.15-.62,2.63s2.83,1.6,3.33,1.83a20.59,20.59,0,0,1-2.61-1.25,3.81,3.81,0,0,1-1.82,2.38A3.07,3.07,0,0,1,107.69,156.41Z"/><path class="cls-6" d="M115.48,150.27l-.07,0-1-.44a1.21,1.21,0,0,0-1.06-.09,1.4,1.4,0,0,0-.5.6,12.24,12.24,0,0,0-.82,1.9,1.39,1.39,0,0,0-.09.75,1.31,1.31,0,0,0,.65.74,8.45,8.45,0,0,0,1.61.83,1.69,1.69,0,0,0,1.08.14,1.78,1.78,0,0,0,.93-.92,7.11,7.11,0,0,0,.68-1.58,1.33,1.33,0,0,0,0-.81,1.31,1.31,0,0,0-.7-.67A7,7,0,0,1,115.48,150.27Z"/><path class="cls-3" d="M103,153.52c-.83-.77-.6-1.19.51-.93a1.47,1.47,0,0,0,.75,0,8.16,8.16,0,0,0,2.38-1.94l2,1.64a7.36,7.36,0,0,1-2.11,1.83,4.18,4.18,0,0,1-2.85-.14A2.18,2.18,0,0,1,103,153.52Z"/><path class="cls-3" d="M111.39,146.93a3.18,3.18,0,0,1-2.61,5.46,3.19,3.19,0,0,1-1.15-5.94A3.28,3.28,0,0,1,111.39,146.93Z"/><path class="cls-3" d="M110.68,147.33a2.39,2.39,0,1,1-2.85-.08A2.47,2.47,0,0,1,110.68,147.33Z"/><path d="M117.12,121.25c-2.15-2.89-4.4-5.87-7.57-7.6s-7.51-1.84-10,.73a8.08,8.08,0,0,0-6.31-8.4,8.91,8.91,0,0,0-9.49,4.91,6.94,6.94,0,0,0-.45,5.13c1,2.81,3.94,4.3,6.07,6.38,2.69,2.61,4.1,6.26,6.44,9.18a17.77,17.77,0,0,0,24.2,3.34,10.17,10.17,0,0,0,3.64-4.22,5.49,5.49,0,0,0-.49-5.37C121.52,123.24,118.33,122.87,117.12,121.25Z"/><path d="M125.64,93c2.18.6,4.48-.18,6.6-1a3,3,0,0,0,2.52-2.86,16.64,16.64,0,0,0,.31-5.92,6.11,6.11,0,0,0-3.33-4.64c-1.77-.73-3.77-.28-5.63.17a3.68,3.68,0,0,0-2.45,1.37,7.76,7.76,0,0,0,0,3.86,2.59,2.59,0,0,1,.12,1.45,1.88,1.88,0,0,1-1.11,1,23.65,23.65,0,0,1-2.52.76,4.56,4.56,0,0,0-2.26,1.28,1.58,1.58,0,0,0-.26,1.9,1.39,1.39,0,0,0,1.16.49,4,4,0,0,0,1.27-.29c1.93-.67,3.86-1.33,5.83-1.92l-.46,3a1.89,1.89,0,0,0,0,.58A2.84,2.84,0,0,0,125.64,93Z"/><path class="cls-9" d="M128.76,86.66a1.23,1.23,0,0,1-.59,1,3.24,3.24,0,0,1-1.1.41,5,5,0,0,0-1.14.32l0,.21a5.59,5.59,0,0,0,1.76-.47A1.79,1.79,0,0,0,128.76,86.66Z"/><path class="cls-9" d="M125.67,84.93a4.15,4.15,0,0,1,1.41-.37,1.4,1.4,0,0,1,1.26.61,2,2,0,0,1,.14,1.23,1.46,1.46,0,0,1-.31.92,1.65,1.65,0,0,1-.7.35,6.31,6.31,0,0,1-2.53.37C125.19,87,125.45,86,125.67,84.93Z"/><path class="cls-7" d="M114.17,119.12a20.51,20.51,0,0,0,1.36,9.89,4.92,4.92,0,0,0,2.26,2.87,4.18,4.18,0,0,0,4.08-.85c2.89-2.23,3.78-6.2,4-9.85.62-10.17-2.38-20.54-.08-30.47.62-2.69,1.58-5.71.09-8a4.56,4.56,0,0,0-5.26-1.77,1.73,1.73,0,0,0-2.38,1.41,2.51,2.51,0,0,0-2.95,1.87,5.54,5.54,0,0,0,.62,3.78,20.72,20.72,0,0,1,1.62,3.56,12.37,12.37,0,0,1-.06,4.81C116.35,104,115,111.72,114.17,119.12Z"/><path d="M115,119.81a.78.78,0,0,0-1-.38,1.25,1.25,0,0,0-.71.88,3.53,3.53,0,0,0,0,1.17,27.13,27.13,0,0,0,.67,4.83,11.07,11.07,0,0,0,2.09,4.37,4.43,4.43,0,0,0,4.05,1.87c1.48-.3,2.47-1.63,3.32-2.87a4.16,4.16,0,0,0,1-2.71,2.74,2.74,0,0,0-.85-1.6,8,8,0,0,0-1.49-1.08C119.62,122.78,117.2,121.27,115,119.81Z"/><path class="cls-7" d="M114.88,83.14c-2.33-.12-4.88-.18-6.71,1.25A6.87,6.87,0,0,0,106,87.61a11.32,11.32,0,0,0,.28,8.1A5.68,5.68,0,0,0,109.44,99a6.3,6.3,0,0,0,3.83-.25,7.72,7.72,0,0,0,3.18-1.73,7.14,7.14,0,0,0,1.71-3.52,11.9,11.9,0,0,0,0-5.69A8.33,8.33,0,0,0,114.88,83.14Z"/><path class="cls-9" d="M110.74,83.77a6.56,6.56,0,0,1,4.2,3.63,11.75,11.75,0,0,1,.38,5.63,9.15,9.15,0,0,1-.94,3.49,5.81,5.81,0,0,1-3,2.54,4.52,4.52,0,0,0,2.86-1.82,6.73,6.73,0,0,0,1.18-2.81c.37-2.36.7-4.91-.22-7.11a5.76,5.76,0,0,0-5.2-3.71c.17.1.58.1.75.2C110.76,83.82,110.76,83.83,110.74,83.77Z"/><path class="cls-9" d="M109.91,90.06a1.32,1.32,0,0,0-1.1.74,2.51,2.51,0,0,0-.18,1.51,1.48,1.48,0,0,0,1.13,1.14,1,1,0,0,0,1-.46,2.29,2.29,0,0,0,.25-2C110.78,90.42,110.57,90.06,109.91,90.06Z"/><path class="cls-9" d="M128.41,84.1a2.41,2.41,0,0,1,1,2.22,2.36,2.36,0,0,1-1.52,1.88c-.08,0-.08.14,0,.19a.26.26,0,0,0,.23,0,2,2,0,0,0,1.39-1.25,3.39,3.39,0,0,0,.11-1.92,1.81,1.81,0,0,0-.33-.81A1,1,0,0,0,128.41,84.1Z"/><path class="cls-9" d="M123.87,80.3a4.53,4.53,0,0,1,3-1.17,3.83,3.83,0,0,1,2.9,1.42,6.11,6.11,0,0,1,1,2.84A18.53,18.53,0,0,1,131,89a4.9,4.9,0,0,1-1.4,3.11,4.76,4.76,0,0,1-4,.71.48.48,0,0,0,.32.53,1.41,1.41,0,0,0,.68.05,5.9,5.9,0,0,0,3.21-1,4.93,4.93,0,0,0,1.5-2.82,14.28,14.28,0,0,0-.39-7.72,5,5,0,0,0-1.16-2,4.58,4.58,0,0,0-3.54-.9,4.67,4.67,0,0,0-1.49.32,2.26,2.26,0,0,0-1.13,1C123.66,80.41,123.87,80.4,123.87,80.3Z"/><path class="cls-9" d="M133.35,80.21a3.68,3.68,0,0,1,1.12,1.49,6,6,0,0,1,.43,1.82l-.15,0-.12-.34-.06.15-.19-.14a.19.19,0,0,1-.18-.06.51.51,0,0,1-.09-.18,4.45,4.45,0,0,0-.69-1.17,2.19,2.19,0,0,1,.46,1.3l-.24,0a.91.91,0,0,0-.2-.52.81.81,0,0,1,.06.61,1.17,1.17,0,0,0-.41-.69,1.26,1.26,0,0,1,.1.69l-.15,0a2.73,2.73,0,0,0-.3-.56,4,4,0,0,1,.2,1.22,2.67,2.67,0,0,0-.51-1.17,2.16,2.16,0,0,1,.11.76,2.35,2.35,0,0,0-.23-.57,2.14,2.14,0,0,1,0,.67l-.17-.58a3.35,3.35,0,0,1,0,.95,1.88,1.88,0,0,0-.16-.69l0,.35a1,1,0,0,0-.11-.55,2.38,2.38,0,0,0,0,.59l-.12-.35a2.57,2.57,0,0,1-.1,1.62,19.08,19.08,0,0,0-1-3.74,1.62,1.62,0,0,1,.84.94,2.66,2.66,0,0,0-.42-.8,1.58,1.58,0,0,1,.7.7,1.11,1.11,0,0,0-.22-.45.3.3,0,0,1,.22.23l-.13-.25a.69.69,0,0,1,.26.3l-.11-.34a1.64,1.64,0,0,1,.31.48,3,3,0,0,0-.32-.86,3.87,3.87,0,0,1,.73,1.15,4.06,4.06,0,0,0-.41-1.32.86.86,0,0,1,.33.42l-.15-.42.19.29-.11-.36a4.51,4.51,0,0,1,.62,1,2.43,2.43,0,0,0-.36-.9,1.73,1.73,0,0,1,.46.55,1.81,1.81,0,0,0-.31-.62,1.64,1.64,0,0,1,.75.83,4.82,4.82,0,0,0-.9-1.42.41.41,0,0,1,.41.19,2.62,2.62,0,0,1,.61,1.09,3.88,3.88,0,0,0-.52-1.11,1.57,1.57,0,0,1,.61.76,4,4,0,0,0-.48-.85l.44.56Z"/><path class="cls-9" d="M134.86,87.17a10.7,10.7,0,0,0-.09-4A19.35,19.35,0,0,1,134.86,87.17Z"/><path class="cls-9" d="M134.14,81.08a5.77,5.77,0,0,0-1.86-1.85,5.7,5.7,0,0,1,1.14,1.16C133.63,80.66,133.82,81,134.14,81.08Z"/><path class="cls-4" d="M112.28,91.26c-.18-2.3-1-3.12-2.27-3.12s-2.39,1.15-2.39,3.33c0,3.51,1.69,3.78,2.39,3.76S112.5,94.15,112.28,91.26Z"/><path class="cls-4" d="M102.39,116.86A2.83,2.83,0,0,1,105,119a8.25,8.25,0,0,1,0,3.6"/><path class="cls-4" d="M103.88,115.68a1.54,1.54,0,0,0,3.05-.05"/><path class="cls-4" d="M108,116.91a3.43,3.43,0,0,0-.86,5.47"/><path d="M59.55,116c-1.17-.12-2,1.14-2.2,2.3a29,29,0,0,1-.23,3.51,6,6,0,0,1-3,3.33,28.42,28.42,0,0,0-3.9,2.35,7.35,7.35,0,0,0-.14,11.17c.73.65,1.71,1.46,1.37,2.38a2.57,2.57,0,0,1-.76.92,7.56,7.56,0,0,0-2.09,6.17A14.6,14.6,0,0,0,51,154.38a15.31,15.31,0,0,0,5,5.27,8,8,0,0,0,7,.71,5.49,5.49,0,0,0,3.34-5.88c-.65-3-4.12-4.72-5.08-7.67s1-6.21,2.29-9.2A20.5,20.5,0,0,0,59.55,116Z"/><path class="cls-7" d="M79.45,117.3l-1.57-13.06a1.85,1.85,0,0,0-.51-1.28,1.88,1.88,0,0,0-1.44-.15l-3.82.67a4.81,4.81,0,0,0-2.83,1.15,4.52,4.52,0,0,0-.92,2.84,55.82,55.82,0,0,0,.44,9.75,5.87,5.87,0,0,0,1.07,3.37,3.92,3.92,0,0,0,3.07,1.15,11.71,11.71,0,0,0,3.29-.74,6.58,6.58,0,0,0,2.65-1.37C79.59,118.92,79.93,117.73,79.45,117.3Z"/><path class="cls-9" d="M74.81,103.68c-1.8.32-3.74.95-4.69,2.51a7.45,7.45,0,0,0-.61,4.49l.48,6.58a4.55,4.55,0,0,0,.62,2.36l-.72-8.8a7.46,7.46,0,0,1,.57-4.52c.92-1.51,2.75-2.16,4.49-2.45A1.19,1.19,0,0,0,74.81,103.68Z"/><path class="cls-7" d="M63.89,123.07a25.76,25.76,0,0,1,.59-6.08c.52-2,1.83-4.71,3.8-5.21.06,0,.13,2.69.27,3.7.11.7.33,1.49,1,1.7a3.88,3.88,0,0,0,2.11,0,8.47,8.47,0,0,0,4.8-3.12,8.88,8.88,0,0,0,2-5.48c.75.19.75,1.1.82,1.88a8.6,8.6,0,0,1-2.59,6.93,6.84,6.84,0,0,0,2.47-4c.79,2-.15,4.83-2.17,5.64a3.09,3.09,0,0,0,2-1.89,6.47,6.47,0,0,0,.43-2.94c.71,2.61,1.32,5.07-1,6.49-1.33.82-4.29,2-5.2,3.26a4,4,0,0,1-.9,1.16,2.42,2.42,0,0,1-1.8.12A33.31,33.31,0,0,1,63.89,123.07Z"/><path d="M64,122.78c-2.67,9.36-4.23,17.48-6.91,26.85-1.09,3.83-2,8.57,1,11.28,2.15,2,5.68,1.89,8.18.36a13.8,13.8,0,0,0,5.21-6.89c3.9-9.71,3.09-19.75,1.34-30.07C72.85,124.31,70.74,124.66,64,122.78Z"/><path class="cls-8" d="M94.6,154.23A21,21,0,0,1,88,169.62h0"/><path class="cls-8" d="M93.13,150.76a19.89,19.89,0,0,1-5,17"/><path class="cls-3" d="M89.42,145.61c-5.16-3.79-11.64-5.51-18-5.74-5.75-.22-11.67.75-16.6,3.72a22.5,22.5,0,0,0-9.64,26.8,11.34,11.34,0,0,0,4.5,6.19c1.55.91,4.32,3.73,6.09,4a62.28,62.28,0,0,0,18,1.06c6.66-1.11,13.88-4.82,17-10.18s5.82-11.73,3.87-17.71C93.39,150.35,91.39,147.05,89.42,145.61Z"/><path class="cls-3" d="M33.56,126c2.57-1.59,8.76-1.53,12.56.79s6.23,6.36,7.42,10.55,1.29,8.6,1.39,12.94.21,8.75,1.42,12.94c.64,2.23,1.6,4.49,1.19,6.77-.63,3.55-4.3,5.76-7.8,7-3,1-6.41,1.71-9.45.67-4.45-1.53-6.88-6.19-7.95-10.63-2.76-11.52.7-23.47,1.11-35.28C33.53,129.4,32.58,127.37,33.56,126Z"/><path class="cls-6" d="M53.16,175c2.26-.76,4.41-2.28,5.15-4.48a9,9,0,0,0-.06-4.77c-.31-1.4-.71-2.77-1.11-4.14a2.35,2.35,0,0,0-.85-1.43,1.64,1.64,0,0,0-2,.4,3.39,3.39,0,0,0-.28,3.55,28.61,28.61,0,0,1,1.54,3.45,5.11,5.11,0,0,1-1.64,5.08,3.14,3.14,0,0,0-1,1A1.41,1.41,0,0,0,53.16,175Z"/><path class="cls-3" d="M24.38,167.9l3.19-30.07c.31-2.89.65-5.88,2.09-8.43s4.3-4.58,7.29-4.21c3.31.41,5.64,3.64,6,6.86s-.65,6.4-1.7,9.46l-5,14.5A109,109,0,0,0,33,167a14,14,0,0,1-1.76,5A4.41,4.41,0,0,1,26.54,174a3.91,3.91,0,0,1-2.42-2.8A8.39,8.39,0,0,1,24.38,167.9Z"/><path class="cls-3" d="M24.69,167.05a5.49,5.49,0,0,0,3.82,2.27A5.56,5.56,0,0,0,32.77,168"/><path class="cls-9" d="M37.11,125a7.23,7.23,0,0,0-2.36.51c-.77.29-.6,1.61,0,2.19a3,3,0,0,0,1.91.63l3,.25c1,.08,1.54.13,2.11.89A2.84,2.84,0,0,1,42,132c-.3.76-.41,1.35-.7,2.12a2.36,2.36,0,0,0,.21,2.33c.67.79.38,1,1.22.34S44.32,134,44.47,133a5.72,5.72,0,0,0-1.28-4.91C42,126.43,38,125,37.11,125Z"/><path class="cls-9" d="M53.8,138.54l-.73.17"/><path class="cls-3" d="M35.86,179.89a9.83,9.83,0,0,0,1.6-4.79A6.74,6.74,0,0,0,36,170.5c-1.14-1.3-2.93-2-4.37-1.07-.74.5-1.22,1.31-1.93,1.85a3.63,3.63,0,0,1-5.38-1.76c-.21-.77-.12-1.59-.3-2.36a1.88,1.88,0,0,0-1.59-1.58,1.82,1.82,0,0,0-1.59,1.35c-.23.7-.22,1.46-.41,2.17a6.58,6.58,0,0,1-3.55,3.71,33.14,33.14,0,0,0-4.72,2.49c-1.41,1.06-2.5,2.79-2.1,4.49.57,2.42,3.72,3.37,6.26,3s5-1.44,7.53-1.33a21.68,21.68,0,0,1,4.48.95,8.63,8.63,0,0,0,4.53.21A4.62,4.62,0,0,0,35.86,179.89Z"/><path d="M37.52,174.38a9.51,9.51,0,0,0-1.49-4A3.51,3.51,0,0,0,32.15,169c-1.26.51-1.9,1.91-3.09,2.57a3.15,3.15,0,0,1-4.21-1.37,21.31,21.31,0,0,1-.56-3c-.26-1-1.27-2-2.25-1.61a2.25,2.25,0,0,0-1.15,1.62,11.79,11.79,0,0,1-1.32,3.43c-1.82,2.62-6.34,2.64-8.09,5.3.45-.77,1.91-.76,2.75-.41,1,.42,1.45,1.58,2.3,2.26a4.17,4.17,0,0,0,4.11.28,27.25,27.25,0,0,0,3.68-2.19,5.83,5.83,0,0,1,4.1-1c1.42.31,2.61,1.79,2.12,3.1a7.74,7.74,0,0,1,2.85-3.1A5.12,5.12,0,0,1,37.52,174.38Z"/><path class="cls-3" d="M36.92,177.54a22.63,22.63,0,0,1-6.17,2.39c-3.29.57-6.69-.31-10,0a50.44,50.44,0,0,0-5,.95,12.27,12.27,0,0,1-5.08.14"/><path class="cls-3" d="M59.18,122.34c2.74-2,9.61-2.36,14,0s7.32,6.86,8.93,11.58,2,9.76,2.4,14.73.67,10.06,2.43,14.72c1.32,3.49,1.6,5.5,1.3,8.13-.47,4.11-3.91,6.44-7.71,8.08-3.29,1.41-7,2.4-10.43,1.41-5-1.44-8-6.61-9.52-11.63-3.82-13-.78-26.93-1.12-40.48C59.38,126.24,58.19,124,59.18,122.34Z"/><path class="cls-6" d="M83.11,178.05c2.46-1,4.74-2.92,5.42-5.49a10.7,10.7,0,0,0-.39-5.46c-.43-1.58-1-3.12-1.51-4.67a2.71,2.71,0,0,0-1-1.58,1.8,1.8,0,0,0-2.17.6c-.89,1.12-.67,2.78-.07,4.09a36.35,36.35,0,0,1,1.94,3.84,6,6,0,0,1-1.49,5.93,3.73,3.73,0,0,0-1,1.24A1.67,1.67,0,0,0,83.11,178.05Z"/><path class="cls-8" d="M88.48,167.35l-.27.34c-1.34,1.71-5.7,2.3-7.48.94a8.21,8.21,0,0,1-3.51-6,87.26,87.26,0,0,1,.87-19.11,62.53,62.53,0,0,0,1.13-7.32c.13-2.47.08-4.79-1.1-7a7.75,7.75,0,0,0-6-3.73"/><path class="cls-8" d="M72.23,127.16a5.58,5.58,0,0,1,4.06,2.21,10.41,10.41,0,0,1,1.1,3.71c.71,5.29-1.52,11.06-2.32,16.34s-1.38,10.75.08,15.88A10.46,10.46,0,0,0,78,170.4a7.1,7.1,0,0,0,5.7,1.71c2-.29,5-3.24,5.07-3.24"/><path class="cls-3" d="M51.65,171.35l1.55-34.67c.15-3.34.32-6.78,1.76-9.8s4.45-5.54,7.79-5.32c3.7.24,6.5,3.78,7.17,7.43s-.3,7.38-1.26,11L64.12,156.9c-1.13,4.25-2.27,8.5-3,12.84a16.39,16.39,0,0,1-1.62,5.84c-1,1.75-3.1,3.08-5.06,2.54a4.37,4.37,0,0,1-2.87-3A10,10,0,0,1,51.65,171.35Z"/><path class="cls-3" d="M52,170.35a5.95,5.95,0,0,0,9,.54"/><path class="cls-3" d="M57.77,172.65l3-32.58a27.58,27.58,0,0,1,1.73-8.56c1.18-2.68,3.44-5.06,6.33-5.36l.84,2A9.82,9.82,0,0,0,64,133.92a28.77,28.77,0,0,0-1.68,8.19c-1.07,10-2.13,20-3.09,30A7.71,7.71,0,0,1,57.77,172.65Z"/><path class="cls-9" d="M62.93,121.35a7.88,7.88,0,0,0-2.6.75c-.82.39-.55,1.88.11,2.51a3.23,3.23,0,0,0,2.17.59l3.33.08c1.07,0,1.72,0,2.4.87a3.35,3.35,0,0,1,.43,2.89c-.28.9-.36,1.58-.63,2.48a2.79,2.79,0,0,0,.39,2.66c.79.86.48,1.07,1.37.31s1.6-3.35,1.71-4.52a6.73,6.73,0,0,0-1.75-5.54C68.38,122.64,63.87,121.22,62.93,121.35Z"/><path class="cls-9" d="M82.32,135.7l-.8.23"/><path class="cls-3" d="M68.8,128.51a11.12,11.12,0,0,1,3.2-.63"/><path class="cls-3" d="M68.21,126.25a16,16,0,0,1,3.75-.52"/><path class="cls-3" d="M65.19,184.3c.79-1.78,1.62-3.66,1.45-5.6s-.55-3.77-1.89-5.18-3.38-2.13-4.91-.92c-.8.62-1.27,1.58-2,2.25a4,4,0,0,1-6.07-1.65c-.29-.86-.25-1.8-.5-2.68s-1-1.75-1.86-1.7a2,2,0,0,0-1.67,1.66c-.22.82-.16,1.68-.32,2.51-.39,1.95-2,3.44-3.69,4.5a37.06,37.06,0,0,0-5.06,3.17c-1.5,1.32-2.59,3.37-2,5.29.79,2.73,4.34,3.6,7.14,3.06s5.42-2,8.26-2a24,24,0,0,1,5,.78,9.24,9.24,0,0,0,5-.07A5.31,5.31,0,0,0,65.19,184.3Z"/><path d="M66.66,177.87a11.29,11.29,0,0,0-1.92-4.51,3.85,3.85,0,0,0-4.4-1.29c-1.36.67-2,2.32-3.24,3.16A3.44,3.44,0,0,1,52.34,174c-.53-1-.46-2.3-.82-3.41s-1.55-2.18-2.61-1.69a2.66,2.66,0,0,0-1.17,1.94,13.74,13.74,0,0,1-1.23,4c-1.84,3.13-6.85,3.47-8.62,6.63.45-.91,2.07-1,3-.66,1.15.41,1.71,1.71,2.7,2.43a4.54,4.54,0,0,0,4.58.05,31.41,31.41,0,0,0,3.94-2.77,6.31,6.31,0,0,1,4.48-1.42c1.58.25,3,1.86,2.55,3.4a8.93,8.93,0,0,1,3-3.75A5.53,5.53,0,0,1,66.66,177.87Z"/><path class="cls-3" d="M66.2,181.53a24.24,24.24,0,0,1-6.67,3.15c-3.62.89-7.44.12-11.12.7a53,53,0,0,0-5.5,1.44,13.1,13.1,0,0,1-5.62.5"/></g></g></svg>