<svg xmlns="http://www.w3.org/2000/svg" viewBox="0 0 147.8 313.96"><defs><style>.cls-1{fill:#f5eee8;}.cls-2,.cls-4{fill:none;}.cls-2{stroke:#fff;}.cls-2,.cls-3,.cls-4,.cls-5,.cls-6{stroke-miterlimit:10;stroke-width:0.5px;}.cls-3,.cls-7{fill:#fff;}.cls-3,.cls-4,.cls-5,.cls-6{stroke:#000;}.cls-6{fill:#c9c9c9;}</style></defs><g id="Capa_2" data-name="Capa 2"><g id="responsive"><rect class="cls-1" width="147.8" height="313.96" rx="14.95"/><path d="M15.45,286a8.52,8.52,0,0,1-9.28-2.48c3.83.1,7.15-3.57,9-7.77s2.64-9,4-13.46c4.59-14.82,15.56-25.57,19.75-40.57a49.52,49.52,0,0,0-2.46-32.95c-2.59-5.63-6.32-10.58-7.68-16.85-1.54-7.14.34-14.91,3.68-21s8-10.85,12.67-15.44c5.65-5.59,11.54-11.21,18.46-13.75s15.17-1.39,20.13,5.14c5.31,7,5.54,17.82,9.37,26.17,3,6.47,8.08,11.36,10.12,18.37,2.1,7.22.55,15.18-.52,22.75s-1.43,16.15,2.44,22.12c2.66,4.1,6.89,6.2,9.65,10.2,2.4,3.46,3.6,8.2,6.53,10.94,3.62,3.39,9.19,3,12,7.39,3.47,5.33.45,13.15.45,20s3.63,13.59,8.75,16.17c-5.74,6.43-14.41,6.36-22,4.75s-15.42-4.35-22.9-2c-4.87,1.52-9.3,5.16-14.31,5.73-7.87.89-15-5.91-22.84-7.23s-15.73,3.08-23.46,5.88S20,291.66,15.45,286Z"/><path class="cls-2" d="M86,255.47c-4.63-3.37-7.57-8.68-9.27-14.18s-2.29-11.28-3.09-17A330.31,330.31,0,0,0,62.2,174.53"/><path class="cls-2" d="M89.52,146.86c-3-2.5-7.51-2.46-11-.73s-6.09,4.87-8.17,8.18a47.52,47.52,0,0,0-6,14.31c-.6,2.56-1.16,5.44-3.28,7a6.49,6.49,0,0,1-5.08.83,19.4,19.4,0,0,1-4.88-2c-3-1.55-6.19-3.4-7.26-6.59-.76-2.28-.34-5.05-1.89-6.87a4.8,4.8,0,0,0-5.58-.95,8.73,8.73,0,0,0-4,4.45A41.86,41.86,0,0,1,54.2,130.76c5.19-2.72,11.41-4.28,16.89-2.22,3.61,1.35,6.5,4.1,9.21,6.86q5.28,5.37,10.15,11.11C90,146.74,89.61,146.93,89.52,146.86Z"/><path class="cls-2" d="M51.2,197a43.25,43.25,0,0,1-8.47,41.62"/><path class="cls-2" d="M45.48,203a26,26,0,0,1-9.61,21.78c-2.51,2-5.42,3.51-7.4,6s-2.67,6.52-.4,8.78"/><path class="cls-2" d="M90.59,173c-.84,9-1.12,18.18,1,26.95s7,17.16,14.55,22"/><path class="cls-2" d="M96.63,179a35.81,35.81,0,0,0,12.94,31.44c5.3,4.23,12.09,7.18,15.16,13.26"/><path class="cls-2" d="M59.33,151.06c-.24,8.23,1.2,16.25,2.87,23.47-.7-1.58-2.6-2.57-4-3.65a30,30,0,0,1-3.92-3.37,6.4,6.4,0,0,1-1.77-4.73"/><path d="M103.07,139.69a24.59,24.59,0,0,1-3.52,14.55c-2.76,4.23-7.44,7.33-12.46,7.46-7,.18-13.3-5.53-15.59-12.26s-1.3-14.19.76-21c2.68-8.82,7.06-17,11.42-25.1l14-26.15c2.07-3.85,4.85-8.19,9.19-8.49,3-.2,5.74,1.71,7.58,4.09,3.77,4.87,4.42,11.62,3.27,17.69s-3.88,11.71-6.36,17.37C106.57,118.92,102.66,130.74,103.07,139.69Z"/><path class="cls-2" d="M79.38,134.58c.36-4.34,3.79-7.74,7.31-10.26s7.45-4.71,9.81-8.35c2.23-3.46,2.73-7.76,2.76-11.89s-.34-8.3.4-12.36c1-5.59,4.08-10.56,7.08-15.37"/><path d="M43.44,104.86c-.07,6.46-7.71,14.51-7,20.93,1.26,10.93,11.2,19,14.44,29.52,1.57,5.06,1.39,10.89-1.65,15.21s-9.35,6.46-14,3.89c-3.37-1.85-5.23-5.59-6.3-9.26s-1.59-7.53-3.24-11c-3.2-6.65-10.41-11.27-11.92-18.48-1.32-6.23,2.09-12.41,5.83-17.55s6-8.72,5.71-12.89.11-8.71,2.88-11.84S43.52,98.4,43.44,104.86Z"/><path class="cls-2" d="M37.78,165.1c2-3.64,1.13-8.25-.9-11.89s-5.06-6.59-7.72-9.81-5-7-5.25-11.09c-.22-4,1.56-7.77,3.82-11s4.22-3.53,6.35-6.88c4.78-7.5,5.31-10.41,2.69-18.94"/><path class="cls-3" d="M47.73,124.47c-4.56-.44-8.9,2.94-10.67,7.19s-1.38,9.14-.14,13.57l-4.2-5.69a109.16,109.16,0,0,0,5.62,14.2,8.74,8.74,0,0,0,1.5,2.4A18.7,18.7,0,0,0,42,157.75,8.74,8.74,0,0,1,45.24,163c.27,1.42.2,3,.86,4.24a4.78,4.78,0,0,0,4.55,2.38,7.15,7.15,0,0,0,4.67-2.49,14.36,14.36,0,0,0,2.61-4.74,29.47,29.47,0,0,0,1.12-16,5.45,5.45,0,0,0,2.45-5A17.28,17.28,0,0,0,60,135.77a13.9,13.9,0,0,1-1.2-5.68,10.55,10.55,0,0,0-.79,4.81,11.24,11.24,0,0,0-3.37-7.44A10.37,10.37,0,0,0,47.73,124.47Z"/><path class="cls-4" d="M53.12,143.37a1.76,1.76,0,0,0-.72-.08.81.81,0,0,0-.58.4.51.51,0,0,0,.15.65c.24.15.55,0,.81-.06a1.5,1.5,0,0,1,1.06,0,.73.73,0,0,1,.44.88,1,1,0,0,1-.81.52,2.12,2.12,0,0,1-.83.08,1.06,1.06,0,0,1-.73-.37"/><path class="cls-4" d="M51.86,143.05a15.43,15.43,0,0,1,1.35,3.19"/><path class="cls-4" d="M52.52,142.83a11.38,11.38,0,0,1,1.21,3"/><path class="cls-4" d="M40.56,147.28a13.7,13.7,0,0,1,1,2.69"/><path class="cls-4" d="M41.13,147.1a14,14,0,0,1,1,2.49"/><path class="cls-4" d="M41.81,147.29a1.45,1.45,0,0,0-1.13.46.66.66,0,0,0-.2.35.35.35,0,0,0,.16.35.5.5,0,0,0,.41-.06,3.35,3.35,0,0,1,.62-.25.91.91,0,0,1,.65.05.53.53,0,0,1,.28.56c-.05.25-.31.39-.55.47a1.18,1.18,0,0,1-1.21-.13"/><path class="cls-4" d="M46,159.52a1.56,1.56,0,0,0-.41.64.9.9,0,0,0,.09.75.65.65,0,0,0,.68.26"/><path class="cls-5" d="M54.88,156.31a2,2,0,0,0-1.5-.17,6.15,6.15,0,0,0-1.42.61l-5.41,2.9a1.16,1.16,0,0,0-.44.32.44.44,0,0,0,0,.5.65.65,0,0,0,.54.19,13.43,13.43,0,0,0,7-1.89,3.07,3.07,0,0,0,1.18-1.08C55.08,157.22,55.14,156.47,54.88,156.31Z"/><path class="cls-3" d="M53.45,161.2a27.06,27.06,0,0,1-2.08-3.95A3.91,3.91,0,0,1,53,156.4,24.57,24.57,0,0,0,53.45,161.2Z"/><path class="cls-3" d="M48.89,158.63c-.24.35-.89.29-1,.69a.74.74,0,0,0,.06.44,7.06,7.06,0,0,0,1.87,2.76C49.46,161.24,49.18,159.94,48.89,158.63Z"/><path class="cls-6" d="M45.7,143.42c-.08-.12-.2-.33-.35-.32a33.4,33.4,0,0,0,3.18,12.25,3.83,3.83,0,0,0,.78,1.15,1.46,1.46,0,0,0,1.27.42,1.54,1.54,0,0,0,1-1.63,4.58,4.58,0,0,0-.75-1.95C49,150,47.65,146.57,45.7,143.42Z"/><path d="M37.2,128.84A9.14,9.14,0,0,0,33,127.67a11,11,0,0,1,3.31,1.94,6.12,6.12,0,0,0-3.13,7.15,6.71,6.71,0,0,1,3.92-5.15,6.11,6.11,0,0,0-1,6,10.36,10.36,0,0,1,3.19-6,3.66,3.66,0,0,1,1.12,3.25,8.19,8.19,0,0,0,.6-5.59,4.46,4.46,0,0,1,3,2.76,3.93,3.93,0,0,0-1.56-4A8,8,0,0,1,52.43,133a6.35,6.35,0,0,0-4-5.85,9.68,9.68,0,0,1,5.51,3.71A7.67,7.67,0,0,0,51.16,126a8.58,8.58,0,0,1,6,5,6.42,6.42,0,0,0-2.52-5.3,6.53,6.53,0,0,1,4.43,2.16,4.41,4.41,0,0,0-2.95-3.68,10.43,10.43,0,0,0-4.91-.4,4.93,4.93,0,0,1,5.59-1,7.32,7.32,0,0,0-9.71-1.16,6.31,6.31,0,0,1,5.06-2.79,6.4,6.4,0,0,0-8.4,4.28,4.23,4.23,0,0,1,0-4,8.67,8.67,0,0,1,2.75-3.06A8.67,8.67,0,0,0,41,119.46a8.78,8.78,0,0,0-1.59,6.22,6.41,6.41,0,0,1,.38-6.19,11,11,0,0,0-3.19,4.33A5,5,0,0,0,37.2,128.84Z"/><path d="M47,141.08a4.12,4.12,0,0,1,1.39,1.62,7.8,7.8,0,0,0,4.68-3.8,7.9,7.9,0,0,0,.52-6l0,.66-.21-.75c0,.33.09,1.1,0,.63-.08-.63-.14-.35-.4-1.11a7.16,7.16,0,0,1-1.16,6.27l.08-1-.78,1.54a2.8,2.8,0,0,1,.32-1.58,7.84,7.84,0,0,1-.9,2.05l.05-.84L50,140l.07-.75-.35.89.06-.67-.67,1,.23-.58-.5.9-.05-.46-.31.77-.67-.58,0,.5-.28-.3.26.62-.46-.39.22.42-.49-.45.53.62Z"/><path d="M44,142a1.4,1.4,0,0,1-.9,1.67,3.08,3.08,0,0,1-2.07-.1,9.34,9.34,0,0,1-6-6.18l1,1.6-.47-.92a9.57,9.57,0,0,0,2.93,3.2l-.71-1,.66.59-.31-.4,2,1.48-.49-.64a2.19,2.19,0,0,0,1.06.73l-.23-.3.62.33-.1-.38.29.28-.05-.27.41.52-.11-.57.45.62a.92.92,0,0,0-.2-.62l.52.74-.12-.73.27.6v-.56l.23.37,0-.49.15.3-.05-.71.49.93,0-.51.21.55.07-.41.12.35,0-.8C43.81,141.66,43.93,142,44,142Z"/><path d="M58.29,149.42c.13,1.06-.72,1.94-1.28,2.84a5.78,5.78,0,0,0,.54,6.62,6,6,0,0,1-.11-6.55,9.48,9.48,0,0,0,.82-1.27A1.9,1.9,0,0,0,58.29,149.42Z"/><path d="M54.38,155.64a2.21,2.21,0,0,1,1.36,2.14,1.62,1.62,0,0,0-.13-1.39A1.64,1.64,0,0,0,54.38,155.64Z"/><path d="M54.83,155.23a7.09,7.09,0,0,1,1.3,1.54A2,2,0,0,0,54.83,155.23Z"/><path d="M58.26,145.35a5.33,5.33,0,0,1-1.6-4.65,22.4,22.4,0,0,1,1.39-4.92,10,10,0,0,0,.66-5,8,8,0,0,1,0,4.54c-.36,1.49-.89,3-1.1,4.47A11.86,11.86,0,0,0,58.26,145.35Z"/><path d="M59.29,133.8a9.08,9.08,0,0,1-.42,3.86,17.46,17.46,0,0,0-.85,3.81,4.56,4.56,0,0,0,1.21,3.59,5.47,5.47,0,0,1-.81-3.72,33.17,33.17,0,0,1,.8-3.79A7.36,7.36,0,0,0,59.29,133.8Z"/><path d="M59.27,138.51a1.91,1.91,0,0,1-.1,1.53,5.47,5.47,0,0,1-.92,1.28,1.79,1.79,0,0,1,.68-.33.6.6,0,0,1,.64.29.94.94,0,0,1-.1.69l-.81,1.83a5.28,5.28,0,0,0,1.24-2.16,1.1,1.1,0,0,0-.07-.82.48.48,0,0,0-.71-.15,4.55,4.55,0,0,0,.58-1.51.77.77,0,0,0-.05-.54C59.56,138.47,59.31,138.4,59.27,138.51Z"/><path d="M56.39,143.5a4.7,4.7,0,0,0-2-2.2,3.33,3.33,0,0,0-2.89-.13,3.66,3.66,0,0,0-1.76,1.93,8,8,0,0,0-.54,2.61,10,10,0,0,1,1.11-2.87,3.3,3.3,0,0,1,2.5-1.58,3.23,3.23,0,0,1,2,.69A12.84,12.84,0,0,1,56.39,143.5Z"/><path d="M54.2,142.05a2.19,2.19,0,0,0-2.06-.44,3.11,3.11,0,0,0-1.71,1.32,5.37,5.37,0,0,0-.77,2,5.22,5.22,0,0,1,1.64-2.54A2.71,2.71,0,0,1,54.2,142.05Z"/><path d="M56.44,144a6.77,6.77,0,0,1-1.87,2.88,2.8,2.8,0,0,1-3.21.35,2.45,2.45,0,0,0,2.27.5,3.34,3.34,0,0,0,1.91-1.43A6.36,6.36,0,0,0,56.44,144Z"/><path d="M57.09,143.86a2.32,2.32,0,0,0-.89,1.58,5.47,5.47,0,0,1-.49,1.79,2.77,2.77,0,0,1-3,1.08,8.31,8.31,0,0,1-3-1.54,7.19,7.19,0,0,0,3,1.89,2.72,2.72,0,0,0,3.08-1.13,4.89,4.89,0,0,0,.37-1.82A2.45,2.45,0,0,1,57.09,143.86Z"/><path d="M52.92,148.9a1.6,1.6,0,0,1-1.28-.28,7.08,7.08,0,0,1-1-.91,3,3,0,0,0-1.1-.75,2.6,2.6,0,0,1,1.1.93,3.92,3.92,0,0,0,1,1.05C52.09,149.2,52.67,149.25,52.92,148.9Z"/><path d="M45.29,148a6.66,6.66,0,0,0-1.68-2.46,3.39,3.39,0,0,0-2.78-.86,3.33,3.33,0,0,0-2.22,1.76,6,6,0,0,0-.6,2.86,5.32,5.32,0,0,1,1.12-2.79,3.61,3.61,0,0,1,2.61-1.36,2.73,2.73,0,0,1,2.49,1.43,3.53,3.53,0,0,0-2.44-1.19,6.47,6.47,0,0,1,2.11,1.07,5,5,0,0,0-2.37-.69l2.27.9a3.65,3.65,0,0,0-3.93.05,3.72,3.72,0,0,0-1.49,3.66A4,4,0,0,1,41,146.83,4.1,4.1,0,0,1,45.29,148Z"/><path d="M41,145.65a4.18,4.18,0,0,0-2.83,3.59,3.68,3.68,0,0,1,.74-2.33A3.25,3.25,0,0,1,41,145.65Z"/><path d="M45.56,148.43a2.18,2.18,0,0,0-1.33,1.62,6,6,0,0,1-.77,2,2.51,2.51,0,0,1-2.57.74,4.33,4.33,0,0,1-2.25-1.64,7.61,7.61,0,0,0,2.24,1,2.57,2.57,0,0,0,2.32-.54,5.13,5.13,0,0,0,1-1.84A2.14,2.14,0,0,1,45.56,148.43Z"/><path d="M44.16,149.73a3.43,3.43,0,0,1-2.23,1.59,3.37,3.37,0,0,1-2.66-.6A4.65,4.65,0,0,0,44.16,149.73Z"/><path d="M47.49,139a6.53,6.53,0,0,1-.8.68,2.89,2.89,0,0,0-.75.73,1.19,1.19,0,0,0-.16,1,.74.74,0,0,0,.81.5,1.45,1.45,0,0,1-.54-.94,1.32,1.32,0,0,1,.59-.93A2.8,2.8,0,0,0,47.49,139Z"/><path d="M45.17,140.46A1.87,1.87,0,0,0,44,138.73a2.9,2.9,0,0,1,.82,1.49.86.86,0,0,0,.09.27.22.22,0,0,0,.24.09C45.19,140.54,45.2,140.39,45.17,140.46Z"/><path d="M44.58,142.32A1.08,1.08,0,0,0,44.8,141a1.45,1.45,0,0,0-.95-.4l-.69-.1c0,.23.31.33.54.33a1.25,1.25,0,0,1,.67.11.9.9,0,0,1,.25.75A2.3,2.3,0,0,1,44.58,142.32Z"/><path d="M57.84,133.1a11.77,11.77,0,0,1-1.1,4.23,9.4,9.4,0,0,0,1.35-3.51.85.85,0,0,0,0-.42A1,1,0,0,0,57.84,133.1Z"/><path d="M57.33,132.07a5.88,5.88,0,0,1-.77,3.69,18.61,18.61,0,0,1,.68-1.75A2.85,2.85,0,0,0,57.33,132.07Z"/><path d="M57,131.24a6.06,6.06,0,0,1-1,3.49,9.75,9.75,0,0,0,.78-3.61C56.82,131.1,57,131.18,57,131.24Z"/><path d="M56.34,130.52a3.93,3.93,0,0,1-.92,2.67,7.15,7.15,0,0,0,.69-2.84C56.29,130.39,56.43,130.59,56.34,130.52Z"/><path d="M56.46,143.64a6.67,6.67,0,0,0-2-1.35,3.16,3.16,0,0,0-2.38,0,3.32,3.32,0,0,0-1.31,1.07,9.43,9.43,0,0,0-.88,1.46,1.78,1.78,0,0,0-.31,1.36,1.44,1.44,0,0,0,.74.74,4,4,0,0,0,3.72-.2,6,6,0,0,0,2.43-3c-.4.13-.63.54-.85.9a4.84,4.84,0,0,1-2.39,2,3.52,3.52,0,0,1-3.05-.27.83.83,0,0,1-.43-.53,1,1,0,0,1,.13-.52A6.16,6.16,0,0,1,51.67,143a3,3,0,0,1,2.84-.41C55.19,142.86,55.7,143.5,56.46,143.64Z"/><path d="M49.38,145.61a.62.62,0,0,1-.08.48,1.18,1.18,0,0,0-.17.22.23.23,0,0,0,0,.26c.07.11.23.09.35.06l.61-.13a.44.44,0,0,0-.43-.16c-.08,0-.18,0-.24,0a.14.14,0,0,1,0-.14.57.57,0,0,1,.08-.13,1.29,1.29,0,0,0,.17-.33s0-.11,0-.15a.13.13,0,0,0-.21,0C49.38,145.65,49.37,145.74,49.38,145.61Z"/><path d="M44.93,147.94a5,5,0,0,1-6.71,2.16c0,.17.13.32.29.39a5.13,5.13,0,0,0,3.54.22,4.42,4.42,0,0,0,1.85-1,7.44,7.44,0,0,0,.83-.94l.49-.63a.91.91,0,0,0,.11-.16.33.33,0,0,0-.06-.33.24.24,0,0,0-.32,0C44.86,147.76,44.85,147.91,44.93,147.94Z"/><path class="cls-4" d="M43.93,153l0,1.86"/><path class="cls-4" d="M42.73,153.37l-.08,1.92"/><path class="cls-4" d="M41.81,153.4l-.06,2.11"/><path class="cls-4" d="M52.44,149.65l-.08,2.12"/><path class="cls-4" d="M53.4,149.6a7.53,7.53,0,0,1-.08,2.12"/><path class="cls-4" d="M54.66,149.42a9.22,9.22,0,0,1-.31,2.15"/><path class="cls-4" d="M52.06,155l.44.91"/><path class="cls-4" d="M53.23,154.71l.38.83"/><path class="cls-4" d="M54.17,154.5l.39.61"/><path class="cls-4" d="M55,154.26l.36.65"/><path class="cls-4" d="M48.67,157l.32.85"/><path class="cls-4" d="M47.59,157.45l.41,1"/><path class="cls-4" d="M46.66,157.9l.12,1"/><path class="cls-4" d="M45.69,158.46l-.14.81"/><path class="cls-4" d="M46.6,162.34v1.11"/><path class="cls-4" d="M47.94,162.25l.17,1.22"/><path class="cls-4" d="M46.64,164.37l.08.93"/><path class="cls-4" d="M48.05,164.15,48,165.39"/><path class="cls-4" d="M47.18,166l.11,1.14"/><path class="cls-4" d="M48.54,167.53l.12.83"/><path class="cls-4" d="M49.24,166.58v.89"/><path class="cls-4" d="M50.33,166.07l.09,1.16"/><path class="cls-4" d="M50.33,167.92l.08.75"/><path class="cls-4" d="M49.51,164.37l.06.95"/><path class="cls-4" d="M50.4,164.18l0,.86"/><path class="cls-4" d="M50.38,162.51l.16.89"/><path class="cls-4" d="M52,162.31l.18,1"/><path class="cls-4" d="M52,161.1l.1.72"/><path class="cls-4" d="M53.15,163.14l.26,1.14"/><path class="cls-4" d="M51.86,164.4l0,.75"/><path class="cls-4" d="M53,165l.12,1.09"/><path class="cls-4" d="M51.65,166.5l.06,1"/><path class="cls-4" d="M52.68,167.13v.7"/><path class="cls-4" d="M54.67,164.51l.1.91"/><path class="cls-4" d="M54.42,162.93l.25.8"/><path class="cls-4" d="M54.57,161.32l.35.88"/><path class="cls-4" d="M55.15,161l.34.79"/><path class="cls-4" d="M55,159.64l.27.6"/><path class="cls-4" d="M56,162.51l.32.8"/><path class="cls-4" d="M55.57,163.42l.32,1"/><path class="cls-4" d="M57,161.35l.31.83"/><path class="cls-4" d="M56.5,159.91l.29.84"/><path class="cls-4" d="M56.22,158.12l.43.76"/><path class="cls-4" d="M57.33,159.62l.35.93"/><path class="cls-4" d="M58.14,158.75l.3.86"/><path class="cls-4" d="M58.46,157.66l.38.76"/><path class="cls-4" d="M36.94,145.17a63,63,0,0,0,1.74,9.24"/><path class="cls-7" d="M28.62,100.06c1.07,1.94,3.61,2.74,5.81,2.39a13.46,13.46,0,0,0,5.88-3,27.39,27.39,0,0,1,5.51-3.7c4.45-1.94,9.63-.74,14.47-1.34.92-.11,2.12-.82,1.67-1.63a1.51,1.51,0,0,0-1.3-.55A58.64,58.64,0,0,0,41.72,94c2.76-2.81,6.75-4,10.64-4.78s7.9-1.16,11.51-2.75A42.24,42.24,0,0,0,39.4,91.16c2.36-3.45,6.43-5.34,10.47-6.51S58.14,82.87,62,81.18A39.51,39.51,0,0,0,37.21,88a27.44,27.44,0,0,1,13.66-7.65,3.31,3.31,0,0,0,1.37-.52,1,1,0,0,0,.34-1.3c-.32-.52-1.1-.46-1.71-.32a36.22,36.22,0,0,0-20.18,13,13,13,0,0,0-2.48,4.55A6.37,6.37,0,0,0,28.62,100.06Z"/><path class="cls-4" d="M28.29,100.91a6.72,6.72,0,0,0,5.8,1.37,15.68,15.68,0,0,0,5.55-2.56,40.2,40.2,0,0,1,5.23-3.23c5-2.29,10.74-1.64,16.17-2.43.47-.07,1.07-.31,1-.78s-.61-.59-1.05-.62a60.74,60.74,0,0,0-7.63.16c-4.52.29-9.2.62-13.19,2.12,2.71-3.13,6.85-4.65,10.93-5.48s8.29-1.08,12.28-2.28a1.1,1.1,0,0,0-.79-.82,3.23,3.23,0,0,0-1.2,0q-5.59.51-11.14,1.43c-4.11.7-8.45,1.7-11.39,3.93a19.55,19.55,0,0,1,12.52-8c2.73-.49,5.55-.38,8.28-.88.34-.06.75-.21.77-.55s-.58-.6-1-.59a50.21,50.21,0,0,0-12,1.66,28.07,28.07,0,0,0-10.63,5.56,26.92,26.92,0,0,1,15.16-9.44c.33-.07.76-.3.64-.61s-.43-.26-.68-.23c-6.34.78-11.92,4.46-16.74,8.6-3.05,2.63-6,5.63-7.33,9.42a5.25,5.25,0,0,0-.35,2.5A4,4,0,0,0,28.29,100.91Z"/><path class="cls-4" d="M32.31,100a23.5,23.5,0,0,0,5.48-2.59"/><path class="cls-4" d="M30.69,97.53a42.45,42.45,0,0,0,5.85-4.29"/><path class="cls-4" d="M30,95.73a32.34,32.34,0,0,0,4-3.61"/><path class="cls-4" d="M35.7,89.6a.7.7,0,0,0,.32-.82.74.74,0,0,0-.73-.49"/><path class="cls-4" d="M37.33,92.09a1,1,0,0,0,.26-.69.78.78,0,0,0-.34-.65.67.67,0,0,0-.72,0"/><path class="cls-4" d="M38.8,95a.87.87,0,0,0,.41-.73.9.9,0,0,0-.41-.75.91.91,0,0,0-.85,0"/><path class="cls-4" d="M40.23,97.92a2.43,2.43,0,0,0,.51-.6.68.68,0,0,0-.61-1,2.19,2.19,0,0,0-.67.11"/><path class="cls-4" d="M49.78,93.25a.77.77,0,0,0-.58.44,1,1,0,0,0,0,.73,1.4,1.4,0,0,0,.45.6"/><path class="cls-4" d="M50.58,94.77a1,1,0,0,0,.61-.52.83.83,0,0,0,0-.78.7.7,0,0,0-.73-.29"/><path class="cls-4" d="M50.13,93.25a.93.93,0,0,0-.36.62.7.7,0,0,0,.41.71.64.64,0,0,0,.3-.54C50.49,93.83,50.37,93.62,50.13,93.25Z"/><path class="cls-4" d="M50.5,89.45a.82.82,0,0,1-.8-.7.8.8,0,0,1,.65-.83"/><path class="cls-4" d="M50.84,89.17a.61.61,0,0,1-.29-.4.64.64,0,0,1,.08-.49"/><path class="cls-4" d="M51.14,89.3a1,1,0,0,0,.48-.47.79.79,0,0,0,0-.67.67.67,0,0,0-.55-.35"/><path class="cls-4" d="M50.72,89.15a.47.47,0,0,0,.4-.45.48.48,0,0,0-.39-.46"/><path class="cls-4" d="M47.09,83.57a.52.52,0,0,0-.3.69.72.72,0,0,0,.42.36.62.62,0,0,0,.62-.11.61.61,0,0,0-.74-.94Z"/><path class="cls-4" d="M48.14,84.47a.63.63,0,0,0,.33-.73.66.66,0,0,0-.68-.46"/><path class="cls-4" d="M41.82,82.29a.71.71,0,0,0,0,.9.73.73,0,0,0,.91.1"/><path class="cls-4" d="M43.12,83a1,1,0,0,1-.82-.23A.92.92,0,0,1,42,82"/><path class="cls-4" d="M43.45,82.75a.88.88,0,0,0-.31-.66.9.9,0,0,0-.7-.22"/><path class="cls-4" d="M52.14,78.65a4.87,4.87,0,0,0-2,.29,1,1,0,0,0-.36.2.39.39,0,0,0-.1.37c.09.21.37.24.6.22a4.81,4.81,0,0,0,1.64-.4.59.59,0,0,0,.28-.18.28.28,0,0,0,.07-.31C52.24,78.68,52,78.65,52.14,78.65Z"/><path class="cls-4" d="M58.65,82.82a1.58,1.58,0,0,0,1.13-.15.6.6,0,0,0,.35-.47c0-.28-.3-.46-.58-.53a5,5,0,0,0-1.81,0,1.73,1.73,0,0,0-.45.1.57.57,0,0,0-.32.31.56.56,0,0,0,.31.62,1.66,1.66,0,0,0,.74.14C58.51,82.85,59,82.86,58.65,82.82Z"/><path class="cls-4" d="M61.09,86.47a1.82,1.82,0,0,0-.84.15.61.61,0,0,0-.32.71c.12.29.49.37.81.38a6.3,6.3,0,0,0,2-.25.64.64,0,0,0,.42-.28.45.45,0,0,0-.12-.5,1.13,1.13,0,0,0-.5-.22A2.6,2.6,0,0,0,61.09,86.47Z"/><path class="cls-4" d="M60.94,92.69c-.26,0-.51,0-.77,0a1.26,1.26,0,0,0-.71.24.58.58,0,0,0-.18.69.81.81,0,0,0,.62.35,3.12,3.12,0,0,0,2-.29.4.4,0,0,0,.25-.26c0-.19-.17-.32-.35-.39C61.28,92.9,60.77,92.79,60.94,92.69Z"/><path class="cls-7" d="M108.47,70.62C107,72.3,107.12,75,108.2,76.9A13.52,13.52,0,0,0,113,81.43a28,28,0,0,1,5.36,3.91c3.34,3.53,4,8.81,6.18,13.15.42.83,1.49,1.72,2.1,1a1.54,1.54,0,0,0,.08-1.41,58.62,58.62,0,0,0-8.1-17.21c3.57,1.64,6.08,5,8.11,8.37s3.77,7,6.5,9.89A42.19,42.19,0,0,0,120.5,77.74c4,1,7.22,4.23,9.69,7.63s4.48,7.17,7.38,10.21a39.5,39.5,0,0,0-14.86-21,27.44,27.44,0,0,1,11.83,10.24,3.37,3.37,0,0,0,1,1.12,1,1,0,0,0,1.33-.12c.39-.49.07-1.2-.27-1.73a36.25,36.25,0,0,0-19.07-14.55,13.23,13.23,0,0,0-5.12-.79A6.38,6.38,0,0,0,108.47,70.62Z"/><path class="cls-4" d="M107.55,70.6a6.79,6.79,0,0,0,.69,5.93,15.89,15.89,0,0,0,4.3,4.35,40.24,40.24,0,0,1,4.81,3.81c3.85,3.89,5.2,9.55,7.79,14.38.23.42.66.9,1.08.69s.35-.77.22-1.19a56.83,56.83,0,0,0-2.74-7.12c-1.81-4.16-3.72-8.44-6.48-11.69,3.86,1.49,6.7,4.86,8.87,8.42s3.84,7.43,6.32,10.77a1.06,1.06,0,0,0,.5-1,3.15,3.15,0,0,0-.36-1.15c-1.58-3.39-3.3-6.73-5.14-10-2-3.63-4.46-7.36-7.56-9.37a19.54,19.54,0,0,1,11.77,9c1.39,2.41,2.25,5.09,3.65,7.49.17.3.45.63.78.54s.37-.76.2-1.18a50.15,50.15,0,0,0-5.66-10.75,28.22,28.22,0,0,0-8.84-8.1,26.86,26.86,0,0,1,14,11c.18.29.54.62.8.39s.09-.48,0-.72c-2.89-5.69-8.26-9.68-13.79-12.8-3.51-2-7.33-3.74-11.35-3.69a5.23,5.23,0,0,0-2.47.52A4,4,0,0,0,107.55,70.6Z"/><path class="cls-4" d="M109.82,74.07a23.44,23.44,0,0,0,4.3,4.26"/><path class="cls-4" d="M111.55,71.72a44.25,44.25,0,0,0,6,4"/><path class="cls-4" d="M113,70.44a32.58,32.58,0,0,0,4.75,2.5"/><path class="cls-4" d="M120.71,73.73a.72.72,0,0,0,.88,0,.74.74,0,0,0,.21-.86"/><path class="cls-4" d="M118.92,76.11a1,1,0,0,0,.74,0,.79.79,0,0,0,.5-.54.65.65,0,0,0-.24-.68"/><path class="cls-4" d="M116.7,78.47a.86.86,0,0,0,.83.14.9.9,0,0,0,.56-.64.9.9,0,0,0-.25-.81"/><path class="cls-4" d="M114.43,80.82a2.28,2.28,0,0,0,.74.27.68.68,0,0,0,.78-.93,1.75,1.75,0,0,0-.34-.59"/><path class="cls-4" d="M122.07,88.2a.73.73,0,0,0-.61-.38,1,1,0,0,0-.69.24,1.41,1.41,0,0,0-.41.63"/><path class="cls-4" d="M120.91,89.48a1,1,0,0,0,.7.39.8.8,0,0,0,.72-.31.71.71,0,0,0,0-.78"/><path class="cls-4" d="M122.19,88.54a.89.89,0,0,0-.71-.13A.68.68,0,0,0,121,89a.65.65,0,0,0,.6.1C121.77,89.07,121.93,88.89,122.19,88.54Z"/><path class="cls-4" d="M125.89,87.59a.82.82,0,0,1,.39-1,.8.8,0,0,1,1,.33"/><path class="cls-4" d="M126.27,87.82a.65.65,0,0,1,.28-.42.64.64,0,0,1,.49-.08"/><path class="cls-4" d="M126.25,88.14a.9.9,0,0,0,.61.29.78.78,0,0,0,.61-.24.66.66,0,0,0,.15-.64"/><path class="cls-4" d="M126.25,87.7a.46.46,0,0,0,.55.22.47.47,0,0,0,.3-.52"/><path class="cls-4" d="M130.25,82.38a.53.53,0,0,0-.75,0,.71.71,0,0,0-.18.52.53.53,0,0,0,.92.42A.61.61,0,0,0,130.25,82.38Z"/><path class="cls-4" d="M129.77,83.68a.64.64,0,0,0,.8.06.67.67,0,0,0,.2-.8"/><path class="cls-4" d="M129.67,77a.71.71,0,0,0-.84.33.73.73,0,0,0,.22.89"/><path class="cls-4" d="M129.42,78.46a.92.92,0,0,1-.06-.84.88.88,0,0,1,.65-.52"/><path class="cls-4" d="M129.79,78.68a.89.89,0,0,0,.48-1.25"/><path class="cls-4" d="M136.61,85.46a4.94,4.94,0,0,0-1-1.76,1,1,0,0,0-.31-.26.35.35,0,0,0-.38,0c-.17.15-.1.43,0,.64a5.11,5.11,0,0,0,.94,1.41.73.73,0,0,0,.26.2.33.33,0,0,0,.32,0C136.61,85.56,136.56,85.34,136.61,85.46Z"/><path class="cls-4" d="M134.89,93a1.58,1.58,0,0,0,.54,1,.57.57,0,0,0,.56.17c.26-.09.32-.44.29-.72a5,5,0,0,0-.6-1.71,1.44,1.44,0,0,0-.25-.39.54.54,0,0,0-.4-.2.57.57,0,0,0-.48.51,1.89,1.89,0,0,0,.12.74C134.83,92.88,135,93.37,134.89,93Z"/><path class="cls-4" d="M132.29,96.54a1.81,1.81,0,0,0-.42-.74.6.6,0,0,0-.78-.06c-.23.21-.17.59-.08.89a6,6,0,0,0,.91,1.77.69.69,0,0,0,.41.31.44.44,0,0,0,.42-.29,1,1,0,0,0,0-.55A2.58,2.58,0,0,0,132.29,96.54Z"/><path class="cls-4" d="M126.4,98.51a6.21,6.21,0,0,1-.31-.7,1.26,1.26,0,0,0-.47-.59.58.58,0,0,0-.71.06.83.83,0,0,0-.12.71,3.12,3.12,0,0,0,.94,1.73.41.41,0,0,0,.33.15c.18,0,.24-.27.24-.46C126.32,98.9,126.24,98.39,126.4,98.51Z"/></g></g></svg>