<svg xmlns="http://www.w3.org/2000/svg" viewBox="0 0 147.8 293.92"><defs><style>.cls-1{fill:#efc5b9;}.cls-11,.cls-2,.cls-4,.cls-7{fill:#fff;}.cls-2,.cls-3,.cls-5{stroke:#000;}.cls-10,.cls-2,.cls-3,.cls-5,.cls-6,.cls-7,.cls-8,.cls-9{stroke-miterlimit:10;stroke-width:0.5px;}.cls-5,.cls-6{fill:none;}.cls-10,.cls-6,.cls-7,.cls-8,.cls-9{stroke:#fff;}.cls-9{opacity:0.81;}.cls-10{opacity:0.87;}.cls-11{opacity:0.94;}</style></defs><g id="Capa_2" data-name="Capa 2"><g id="home"><rect class="cls-1" width="147.8" height="293.92" rx="14.95"/><path d="M66.11,64.54c-1.9-.49-2.78-2.6-3.53-4.41s-2-3.83-4-3.78a3.5,3.5,0,0,0-2.86,2.07A9.55,9.55,0,0,0,55,62c-1.42,18.72,2.13,37.42,5.67,55.86.08.39,1,.89,1.2,1.2.68.85,2.61.92,2.27-3.6l-3.2-42.72c-.09-1.17,0-2.68,1.17-3,1.53-.45,2.35,1.79,3.71,2.64A2.92,2.92,0,0,0,69.74,71a4.41,4.41,0,0,0-.69-4.45A4.94,4.94,0,0,0,66.11,64.54Z"/><path d="M64.28,118c.07-1.26.11-2.72-1-3.37a2.4,2.4,0,0,0-3.07,1,7,7,0,0,0-.75,3.47l-1.84,46.17a7.84,7.84,0,0,0,.38,3.41,2.35,2.35,0,0,0,4.58-.12,8.13,8.13,0,0,0,.22-2.74c-.5-15.55,1.41-44.65,1.28-43.66"/><path d="M67.16,191.31c-1.5-1.13-3.19-6.78-3.55-10.51s-.23-7.49-.7-11.2a6.52,6.52,0,0,0-.74-2.57,2.2,2.2,0,0,0-4.09.25,7.06,7.06,0,0,0-.51,2.46,74.86,74.86,0,0,0-.34,12.7,27.94,27.94,0,0,0,3.55,12.1c.79,1.31,2.18,2.74,3.7,2.53A8.19,8.19,0,0,1,62,193.39a7.61,7.61,0,0,1-.47-2.31,2.76,2.76,0,0,1,.47-1.51,10.16,10.16,0,0,0,1.2,3.3,4.86,4.86,0,0,0,2.94,2.78,9.65,9.65,0,0,1-2.66-7c.51-.09.61.24.9.67a5.64,5.64,0,0,1,.58,1.44,2.4,2.4,0,0,0,.89,1.17c.41.32,1.21.85,1.58.48S67.45,191.53,67.16,191.31Z"/><path class="cls-2" d="M71.67,271.82a2.48,2.48,0,0,0-1.12-2.95,1.6,1.6,0,0,1-2.37.95c-.57-.39-.82-1.15-1.42-1.5a2.63,2.63,0,0,0-1.71-.16c-7.27,1.06-13.73,5.07-20.71,7.34-1.26.41-2.81.7-3.79-.19l.62,1.08a.68.68,0,0,0-.63,1,6.3,6.3,0,0,0-5.17,1.91L66,273.89C68.07,273.52,71,273.61,71.67,271.82Z"/><path class="cls-3" d="M41.17,275.87a7.91,7.91,0,0,1-4.22-.51c-.81-.34-1.72-.81-2.5-.41a1.51,1.51,0,0,0-.72,1.63A2.22,2.22,0,0,0,34.89,278a4.33,4.33,0,0,0,1.84.44A4.38,4.38,0,0,0,41.17,275.87Z"/><path class="cls-4" d="M36.24,275.41a3.15,3.15,0,0,0-.67-.32,1.07,1.07,0,0,0-.73,0,1.5,1.5,0,0,0-.51.49.42.42,0,0,0-.13.34.38.38,0,0,0,.15.2l.42.37a.54.54,0,0,0,.33.16.5.5,0,0,0,.33-.18A5.21,5.21,0,0,0,36.24,275.41Z"/><path class="cls-4" d="M36.79,275.53A1.78,1.78,0,0,0,35.73,277,3.2,3.2,0,0,1,36.79,275.53Z"/><path class="cls-4" d="M37.22,275.63a1.67,1.67,0,0,0-1,1.21A3.5,3.5,0,0,1,37.22,275.63Z"/><path class="cls-5" d="M65.07,274.3a4.1,4.1,0,0,0-3.17-5.86"/><path class="cls-5" d="M62.72,268.79a6.74,6.74,0,0,1,3.09-.27c.38.05.85.26.81.64s-.42.49-.76.52A5.81,5.81,0,0,1,62.72,268.79Z"/><path class="cls-5" d="M64,269.2a3,3,0,0,0-2.16-3.37A3.74,3.74,0,0,0,64,269.2Z"/><path class="cls-5" d="M62.54,268.44a7.07,7.07,0,0,1,1.6,3.24"/><path class="cls-5" d="M60.42,269.8a5,5,0,0,1,1.45,2"/><path class="cls-5" d="M58.51,270.56l1.37,2"/><path class="cls-5" d="M55.9,271.55l1.45,1.71"/><path class="cls-5" d="M53.25,272.33a5.27,5.27,0,0,1,2,1.59"/><path class="cls-5" d="M51.67,273.05a4.05,4.05,0,0,1,1.26,1.69"/><path class="cls-5" d="M50.1,273.43l1.36,1.49"/><path class="cls-5" d="M47.37,275.47a5.16,5.16,0,0,1-2.17.61"/><path class="cls-5" d="M41.18,276.08l-.86-.84Z"/><path d="M72.2,271.2c-6.07,1.46-12.4,3-18.52,4.29-5.73,1.19-12.59,2.43-18.33,3.61-.54.11-.8.47-.25.39,11-1.62,22.24-3.2,33.24-5.78a20,20,0,0,0,3.54-1.49C72.25,272,72.2,271.67,72.2,271.2Z"/><path d="M67.08,269.52,47.23,216.07a3.73,3.73,0,1,1,2.94-6.72c1.7,1.14,2.16,3.37,2.54,5.38,2.31,12.05,6.71,23.58,11.09,35.05l6,15.74a7.26,7.26,0,0,1,.68,3.12A2.47,2.47,0,0,1,68.62,271C67.56,271.14,66.45,269.91,67.08,269.52Z"/><path class="cls-6" d="M49,214.47l1.31,4"/><path class="cls-6" d="M52.39,220.21l.93,3.3"/><path class="cls-6" d="M51.49,224.56l1,2.63"/><path class="cls-6" d="M54.21,227a15.88,15.88,0,0,0,1.34,3.47"/><path class="cls-6" d="M54.5,232.23l1.17,2.59"/><path class="cls-6" d="M56.55,232.77a8.59,8.59,0,0,0,1.28,2.84"/><path class="cls-6" d="M56.29,237.61l1.42,3.13"/><path class="cls-6" d="M58.22,239,59.47,241"/><path class="cls-6" d="M58.55,243l1.21,2.63"/><path class="cls-6" d="M60.34,243.66l1.09,2.46"/><path class="cls-6" d="M60.34,248a14.29,14.29,0,0,0,1.17,2.8"/><path class="cls-6" d="M62.1,248.62l.95,2.21"/><path class="cls-6" d="M62.68,252.58l1,2.38"/><path class="cls-6" d="M64.81,254l.46,1.67"/><path class="cls-6" d="M63.18,256.34l.88,2"/><path class="cls-6" d="M65.22,260.18l.71,2"/><path class="cls-6" d="M66.14,259.26l.88,2"/><path class="cls-6" d="M67.1,263.93l.71,1.83"/><path class="cls-6" d="M68.6,264.93l.46,1.79"/><path d="M50.76,212.78a161.67,161.67,0,0,1,15.35-44.15l.56,1.6.29-1.68.21,1.17A31.73,31.73,0,0,1,74.92,156a31.07,31.07,0,0,0,4.47-5c1.17-1.91,1.66-4.44.52-6.37a6.07,6.07,0,0,0-5.67-2.58,17.85,17.85,0,0,0-6.22,2c-.11,3.27-1.58,6.32-3,9.28a265,265,0,0,0-18.55,54.88,9,9,0,0,0-.28,3.64,3.11,3.11,0,0,0,2.31,2.56C49.75,214.66,51.09,213.49,50.76,212.78Z"/><path class="cls-6" d="M57.6,179l-1.92,4.08"/><path class="cls-6" d="M58.57,180.65l-1.11,3.56"/><path class="cls-6" d="M59.21,171.51l-1.56,3.38"/><path class="cls-6" d="M53.91,184.79l-1,3.67"/><path class="cls-6" d="M56.06,186.19l-.87,3.09"/><path class="cls-6" d="M53.44,191.43,52.68,195"/><path class="cls-6" d="M52,192.08l-1.22,3.79"/><path class="cls-6" d="M52.45,197.2l-.82,3.61"/><path class="cls-6" d="M50.76,199l-.64,2.8"/><path class="cls-6" d="M48.84,201.05l-.53,2.73"/><path class="cls-6" d="M50,204l-.52,3.32"/><path class="cls-6" d="M48,206.46l-.23,1.81"/><path class="cls-6" d="M51.23,205.24l-.59,2.8"/><path class="cls-2" d="M75.94,155.42A14.41,14.41,0,0,0,80,151.23a6.41,6.41,0,0,0,.59-5.65A6.91,6.91,0,0,0,75.76,142c-2.48-.61-5.37-.2-7.1,1.68a10.87,10.87,0,0,0-1.9,3.61l-7.3,19.62,1-.66L60.27,168l1.09-.93-.11,1.86,1-1.11.38,1.71,1.18-1.72.12,1.5,1.14-1.85.08,1.35.71-1.7a3.78,3.78,0,0,0,1,2.83C69,164.25,71.81,158.47,75.94,155.42Z"/><path class="cls-2" d="M69.58,145.17a4.68,4.68,0,0,1-1.69,1.92"/><path class="cls-2" d="M73.54,154.9l-1.05,1.4"/><path class="cls-2" d="M71.91,157.58,70.75,159"/><path class="cls-2" d="M70.16,160.2l-.64,1.05"/><path class="cls-2" d="M68.88,162.82c-.31.45-.62.9-1.46,2.28C67.27,165.52,67.11,166,68.88,162.82Z"/><path d="M68.27,216a2.7,2.7,0,0,0-3.79-.41,4.36,4.36,0,0,0-1.41,3.87,12.87,12.87,0,0,0,1.31,4.06L81.93,262.4c1.77,3.92,3.54,7.84,5.52,11.66.67,1.31,1.66,2.79,3.14,2.79s2.52-1.66,2.44-3.14a8.7,8.7,0,0,0-1.73-4C80.56,253.06,78.63,232.06,68.27,216Z"/><path class="cls-6" d="M66.7,225.44l1.77,3.63"/><path class="cls-6" d="M70.53,229.91A24.21,24.21,0,0,0,72.41,234"/><path class="cls-6" d="M70.79,225.66a16.4,16.4,0,0,0,1.33,2.73"/><path class="cls-6" d="M66.84,222l.84,2.28"/><path class="cls-6" d="M73.63,232.46,75,236.07"/><path class="cls-6" d="M71.27,235.73,73,238.88"/><path class="cls-6" d="M75,239.26l1.56,3.61"/><path class="cls-6" d="M76.9,238.27l1.37,3.53"/><path class="cls-6" d="M75.53,244.05l2,3.45"/><path class="cls-6" d="M78.61,245.22l1.48,4"/><path class="cls-6" d="M77.69,249.84l1.83,4.35"/><path class="cls-6" d="M80.37,252.71l1.7,3.74"/><path class="cls-6" d="M82.44,253.1l1.91,4.15"/><path class="cls-6" d="M81.63,258.13l2.17,4.55"/><path class="cls-6" d="M84.35,261.26l1.83,3.33"/><path class="cls-6" d="M85.41,266l2.17,3.74"/><path class="cls-6" d="M87.74,271.72,89,274"/><path class="cls-6" d="M87.74,267.1,89,268.94"/><path class="cls-6" d="M89.44,270.77l1.16,1.84"/><path d="M75.05,171.78l-12,43c-.53,1.88-1.05,3.89-.43,5.73s2.89,3.26,4.56,2.26c1.45-.87,1.61-2.85,1.69-4.53.63-13.17,6.15-25.53,11-37.76a14.26,14.26,0,0,0,1.29-4.83,5,5,0,0,0-2-4.36C77.75,170.37,75.35,170.71,75.05,171.78Z"/><path class="cls-2" d="M80.28,182.17l9.87-22.23a39.44,39.44,0,0,0,3.45-10.23,4.42,4.42,0,0,0-.7-3.47c-1.59-1.88-1.91-2.21-4.23-2.38a6.23,6.23,0,0,0-5.59,2.64,39.49,39.49,0,0,0-4.14,8.73l-7.41,19.66,2-1.69-.73,4.89,3.73-4.31-.84,5.05,2.13-2.5-.76,2.79,2.26-2.47L79,179.84l1.58-2.18A44.28,44.28,0,0,1,80.28,182.17Z"/><path class="cls-5" d="M65,212l1-3"/><path class="cls-6" d="M67.94,209.91l1-4.15"/><path class="cls-6" d="M66.84,206l.92-3.52"/><path class="cls-6" d="M69.38,202.53l1-2.65"/><path class="cls-6" d="M69.32,197.63l1-3.23"/><path class="cls-6" d="M72.09,195.27l1-2.77"/><path class="cls-6" d="M75,188.7l1.21-3.35"/><path class="cls-6" d="M73.53,185.76l.4-1.91"/><path class="cls-6" d="M76.93,181.72l.75-2"/><path class="cls-6" d="M75.49,180.86,76,179"/><path class="cls-6" d="M72.26,188.75l-.52,2"/><path class="cls-6" d="M75.78,177.34l.46-3.17"/><path class="cls-6" d="M79.18,177.91l.57-2.88"/><path class="cls-6" d="M65.69,209.28l-1.44,4"/><path class="cls-6" d="M67.88,212l-.41,1.56"/><path class="cls-5" d="M80.11,155.28a4.26,4.26,0,0,1,4-2.9"/><path class="cls-5" d="M78.94,162.8l1.72-1.09"/><path class="cls-5" d="M78.68,163.82l2.15-1.27"/><path class="cls-5" d="M77.88,164.58A18.74,18.74,0,0,1,81,162.75"/><path class="cls-5" d="M77.69,165.1a33.45,33.45,0,0,1,3.8-2.42"/><path class="cls-5" d="M81.48,162.75a28.6,28.6,0,0,0-3.89,2.77C78.81,164.58,80.09,163.71,81.48,162.75Z"/><path class="cls-5" d="M81,163.65a10.8,10.8,0,0,0-3.2,2C78.86,164.9,80,164.22,81,163.65Z"/><path class="cls-5" d="M80.68,164.19a10.23,10.23,0,0,0-2.47,1.6C78.93,165.3,79.69,164.88,80.68,164.19Z"/><path class="cls-5" d="M76.59,166.94l4.27-2.37"/><path class="cls-5" d="M79.58,165.45a25.13,25.13,0,0,0-4,2.68A37.43,37.43,0,0,1,79.58,165.45Z"/><path class="cls-5" d="M79.75,165.75a16,16,0,0,0-4,2.84C77,167.57,78.43,166.69,79.75,165.75Z"/><path class="cls-5" d="M76.37,168.32a17.58,17.58,0,0,1,3.87-2.3"/><path class="cls-5" d="M77.64,167.63a21.09,21.09,0,0,1,3.82-2"/><path class="cls-5" d="M78.49,167.51A23.3,23.3,0,0,1,81.42,166"/><path class="cls-5" d="M78.54,166.86a7,7,0,0,1,1.91-1"/><path class="cls-5" d="M79.19,166.56l1.18-.69"/><path class="cls-5" d="M92.48,150.11a14.64,14.64,0,0,1-.66,1.82"/><path class="cls-5" d="M91.25,153.26a8.71,8.71,0,0,1-1,2"/><path class="cls-5" d="M89.79,156.71l-1.1,2.39"/><path class="cls-5" d="M87.47,161.59l-1.1,2.58"/><path class="cls-5" d="M86.06,165.45a25.77,25.77,0,0,0-1.51,2.9"/><path class="cls-5" d="M83.59,170.55a9.17,9.17,0,0,1-1,2.06"/><path class="cls-5" d="M81.76,174.64l-.92,1.79"/><path class="cls-2" d="M87.39,273.51a172,172,0,0,0-38,9.93,3.65,3.65,0,0,0-1.83,1.17,1.31,1.31,0,0,0,.33,1.9,1.9,1.9,0,0,0,1.06,0l44-6.77a4.61,4.61,0,0,0,2.52-.93,3.11,3.11,0,0,0,.25-3.76,9,9,0,0,0-3-2.72,2.77,2.77,0,0,1-2,3.26A2.85,2.85,0,0,1,87.39,273.51Z"/><path d="M95.39,279.19c.37-.2,1-1.3.56-1.2-10.81,2.58-32.65,5.14-48.82,7.54a.94.94,0,0,0,.69.92,2.69,2.69,0,0,0,1.23,0l28.74-4.09C83.65,281.54,91.45,281.3,95.39,279.19Z"/><path class="cls-5" d="M89,276.23a6.47,6.47,0,0,1-2.22,2.37"/><path class="cls-5" d="M90.17,276.27a4.82,4.82,0,0,1-1.67,2"/><path class="cls-5" d="M87.35,276.89l4-.27"/><path class="cls-5" d="M86.82,277.57a23.52,23.52,0,0,1,4-.23"/><path class="cls-5" d="M83.21,278.28a10.85,10.85,0,0,0-.11-3.64A3.7,3.7,0,0,0,80.85,272a1.59,1.59,0,0,0-1,0,.91.91,0,0,0-.63.73c0,.51.45.9.93,1.08a7.5,7.5,0,0,0,3.17.11,4.58,4.58,0,0,1,3.08.51A1.29,1.29,0,0,1,87,275.5a1.13,1.13,0,0,1-1.19.85,2.74,2.74,0,0,1-1.47-.61,12.71,12.71,0,0,1-2.56-2.35"/><path class="cls-5" d="M81.44,273.87a4.8,4.8,0,0,1,.57,3.66"/><path class="cls-5" d="M81.49,276.17a10.44,10.44,0,0,0-2.63-2.46"/><path class="cls-5" d="M77.29,275.15a6.78,6.78,0,0,1,2.58,2.73"/><path class="cls-5" d="M74.73,275.9a2.74,2.74,0,0,1,1.94,1.6,2.22,2.22,0,0,0,.61,1.09"/><path class="cls-5" d="M71.88,276.24a5.58,5.58,0,0,1,2.18,3"/><path class="cls-5" d="M69.59,277a5.15,5.15,0,0,1,2.33,2.12"/><path class="cls-5" d="M67.36,277.69A4.13,4.13,0,0,1,69.77,280"/><path class="cls-5" d="M66.75,281.74a8.44,8.44,0,0,1-3.2.73,4.78,4.78,0,0,1,2.18-1.3,2.2,2.2,0,0,0,.76-.3.57.57,0,0,0,.17-.73c-.22-.29-.67-.15-1,0-1.57.81-3.13,1.64-4.66,2.51"/><path class="cls-5" d="M62,281.06a11.74,11.74,0,0,1,3.65,1.67"/><path class="cls-5" d="M63.88,280.35a22.5,22.5,0,0,0,3.35,1.88,59.48,59.48,0,0,1,9.07-1.73"/><path class="cls-5" d="M68.82,281.36a70.82,70.82,0,0,1,7.55-1.12"/><path class="cls-5" d="M59.87,280.46a66.33,66.33,0,0,0-7.46,2.17"/><path class="cls-5" d="M57.3,283.72l-8.42,1.14"/><path class="cls-7" d="M93.2,140.84c.21-.84.34-1.91-.36-2.42s-1.76.9-2.57,1.47a18.3,18.3,0,0,1-9.93,3.22,34,34,0,0,1-10.11-1.87c-.88-.28-1.37-1.66-2-1a1.81,1.81,0,0,0-.06,2.11A10,10,0,0,0,69.67,144a14,14,0,0,1,2.68,4.82,19.58,19.58,0,0,0,2.38,5,5.94,5.94,0,0,0,4.65,2.63c1.89,0,3.51-1.28,4.93-2.52s2.88-2.6,4.73-3c.9-.18,1.84-.1,2.75-.23a3,3,0,0,0,2.29-1.33,3.84,3.84,0,0,0,.25-2L94,142C94,141.33,93.69,140.43,93.2,140.84Z"/><path class="cls-2" d="M86.35,76a56.67,56.67,0,0,1-2.29-19.67l-4.29,2.6c-2.76,1.67-5.58,3.37-8.74,4s-6.78-.07-8.86-2.53C65,65.61,61.9,72.05,62.11,78c.29,8.1,6.59,14.62,9.25,22.27,2.21,6.37,2.87,13.19-.2,19.13a16.42,16.42,0,0,1-1.2,2.31c-.15.21-2.52,2.63-2.52,2.63a10.58,10.58,0,0,1,1.81-.72c.24,0-1,1.61-1,1.61a8.62,8.62,0,0,1,1.5-.65c-1.49,5.51-4.68,10.91-1.44,14.88a22.53,22.53,0,0,0,15.89,2.85c2.79-.52,5.6-1.6,7.43-3.77s2.34-5.59.59-7.82l1.19.09c-.94-9.35-.57-18.78-1.13-28.17S86.68,77.1,86.35,76Z"/><path d="M83.82,65.61c.73.81,1.61,1.48,2.36,2.28a4.92,4.92,0,0,1,1.47,2.86l-1.81-2.43a11.49,11.49,0,0,1,1,3.77,8,8,0,0,0-1.25-2.26,7.62,7.62,0,0,1,.84,2.53,5.27,5.27,0,0,1-1.72-3.19A15.72,15.72,0,0,0,83.82,65.61Z"/><path class="cls-8" d="M82.82,57.4a3.75,3.75,0,0,1,1-1.29,1.24,1.24,0,0,1,1.54.07,1.35,1.35,0,0,1,.18,1.28c0-.18-.23-.26-.39-.21a.78.78,0,0,0-.36.36,7.12,7.12,0,0,0-.52,6.53c.38.89.94,1.69,1.27,2.6a3,3,0,0,1-.17,2.77c.09-2-1.2-3.66-1.86-5.5C82.81,61.9,82.91,59.59,82.82,57.4Z"/><path d="M84.46,72.15a2,2,0,0,0,.23,1.45A2.44,2.44,0,0,1,85,75a4.11,4.11,0,0,0-.12-1.68C84.75,72.91,84.44,72.51,84.46,72.15Z"/><path d="M84.64,71.52a2.18,2.18,0,0,0-4.06.11,6.47,6.47,0,0,1,1.55-.79,2.15,2.15,0,0,1,1.69.12C84.09,71.11,84.35,71.36,84.64,71.52Z"/><path d="M84.7,71.2a6.53,6.53,0,0,1-1-1.17,4.82,4.82,0,0,0-1-1.11,1.81,1.81,0,0,0-1.45-.32,1.85,1.85,0,0,1,1.36.58,13.57,13.57,0,0,1,1,1.17A2.2,2.2,0,0,0,84.7,71.2Z"/><path d="M85,71.85a2,2,0,0,0-3,1.79,4.14,4.14,0,0,1,1.21-1.45A2.24,2.24,0,0,1,85,71.85Z"/><path d="M72.84,101.33a4.11,4.11,0,0,0,2.24.61.8.8,0,0,0,.67-.26,4,4,0,0,1-2.83-.57A.42.42,0,0,0,72.84,101.33Z"/><path d="M72.54,104.77c.38.34.71.74,1.08,1.09a3.05,3.05,0,0,0,1.27.83,1.52,1.52,0,0,0,1.44-.26A21.23,21.23,0,0,1,72.54,104.77Z"/><path d="M73.49,107.17a6.57,6.57,0,0,0,3.66,3.09,5.65,5.65,0,0,1-4.1-3.27A.44.44,0,0,1,73.49,107.17Z"/><path d="M88.06,88.05a13.85,13.85,0,0,1-5.24,11.44,7.11,7.11,0,0,1-5,1.75,11.9,11.9,0,0,0,7.1-5.1A21.2,21.2,0,0,0,88.06,88.05Z"/><path d="M88.63,93.34a14.49,14.49,0,0,1-7,10.79,2.66,2.66,0,0,1-2.09.47,9.91,9.91,0,0,0,5.92-4.34A30.74,30.74,0,0,0,88.63,93.34Z"/><path d="M89.36,98.8c-.89,3.41-3.55,6-6.1,8.44a9.9,9.9,0,0,0,6.3-8.86C89.43,98.72,89.3,99.05,89.36,98.8Z"/><path class="cls-4" d="M91.93,129.07l-3.42-2.93-14.91-4.5-2.7-1.19-1.16,1.6-2.5,2.38a4.79,4.79,0,0,0,2.55-1.49,9.59,9.59,0,0,1-2,2.63,8.09,8.09,0,0,1,5.06-1.83,19.5,19.5,0,0,1,5.41.74,21.53,21.53,0,0,1,8.57,3.75,1.19,1.19,0,0,1-.33-.61c0-.23.14-.5.37-.49s.37.24.46.45l.8,1.76c-.34,0-.2-.65.14-.68s.62.25.84.51l.8.94-.11-.87a5.36,5.36,0,0,0,3.61,1.51Z"/><path class="cls-3" d="M69.78,124.62c-.6,2.64-1.76,4.88-2.32,7.52s-.35,5.71,1.53,7.65a10.26,10.26,0,0,0,5.1,2.41,21.53,21.53,0,0,0,8.87.69A26,26,0,0,0,91,139.48a3.33,3.33,0,0,0,1.49-1.3,13.72,13.72,0,0,0,.72-1.73,7.33,7.33,0,0,0,0-3.72,8,8,0,0,0-.93-2,4.7,4.7,0,0,0-2-1.88,41.69,41.69,0,0,0-14-5.07C74,123.42,71.31,123.54,69.78,124.62Z"/><path d="M77.73,146.91a7.15,7.15,0,0,0-1.22,5.49,11.23,11.23,0,0,1,1-4.57A1.93,1.93,0,0,0,77.73,146.91Z"/><path d="M82.55,152.45a1.93,1.93,0,0,0-1.62.52,5.07,5.07,0,0,0-1,1.43c-.09.16-.17.4,0,.52a.29.29,0,0,0,.36,0,1.08,1.08,0,0,0,.21-.34A3.05,3.05,0,0,1,82.08,153a.79.79,0,0,0,.4-.22A.39.39,0,0,0,82.55,152.45Z"/><path d="M92.93,148.91a.48.48,0,0,0,0-.61,1.58,1.58,0,0,0-.54-.37,6.75,6.75,0,0,1-3-3.37c-.32.33-.17.88.05,1.29a6.28,6.28,0,0,0,3.23,2.91.68.68,0,0,0,.37.06C93.09,148.78,93.18,148.64,92.93,148.91Z"/><path d="M93.53,150.12a1.24,1.24,0,0,0,.84-1,3.56,3.56,0,0,0,0-1.34c-.32-1.91-.83-3.88-.3-5.74a1.83,1.83,0,0,0,.13-.92c-.07-.3-.41-.57-.69-.42.31-.19.29-.66.12-1s-.46-.57-.6-.91a1.88,1.88,0,0,0-.16-.39.61.61,0,0,0-.92-.08.64.64,0,0,0,.09.93c.32.24.83.17,1.06.49a.68.68,0,0,1-.31.92,2.56,2.56,0,0,1-1.07.22,6,6,0,0,0-3.47,1.49,25.12,25.12,0,0,1,4.46-1,.93.93,0,0,1,.88.18c.25.29.07.73-.07,1.09a4.79,4.79,0,0,0-.31,2.43c.12.88.48,1.7.66,2.57A3.1,3.1,0,0,1,93.53,150.12Z"/><path d="M86.82,142.29a24.67,24.67,0,0,1-9.29,1.44,19.56,19.56,0,0,0,4.88.46A6.52,6.52,0,0,0,86.82,142.29Z"/><path d="M89.68,143.49a36.64,36.64,0,0,1-17.93.32,3.87,3.87,0,0,0,2.31,1,37.39,37.39,0,0,0,12.88-.05A4.32,4.32,0,0,0,89.68,143.49Z"/><path d="M77.65,145.68a1,1,0,0,0-.84,0,.58.58,0,0,0-.07.87.61.61,0,0,0,.88-.09C77.82,146.17,77.75,145.71,77.65,145.68Z"/><path class="cls-4" d="M72,133.42c-.4-.32-.13-.7.17-1.37s.93-.55,1.45-.27.21.6-.06,1.12S72.78,134,72,133.42Z"/><path class="cls-4" d="M71.67,133.68a.78.78,0,0,0,.58.41A1.41,1.41,0,0,0,73,134a2.31,2.31,0,0,0,1.23-1.23,1.92,1.92,0,0,1-1.59,1.57,1,1,0,0,1-.67-.09A.5.5,0,0,1,71.67,133.68Z"/><path d="M74.52,143a8.79,8.79,0,0,1-5.43-1.27,7,7,0,0,0,2.62,1.59A3.22,3.22,0,0,0,74.52,143Z"/><path d="M71,143.55a5.8,5.8,0,0,1-1.37-1,1.32,1.32,0,0,0,1,1.27.57.57,0,0,0,.29,0,.25.25,0,0,0,.17-.22C71,143.52,70.89,143.44,71,143.55Z"/><path d="M71.77,141.8c-.72-.35-1.46-.67-2.22-1a1.19,1.19,0,0,0-.88-.1.79.79,0,0,0-.43.79,1.83,1.83,0,0,0,.34.87,6.37,6.37,0,0,0,4,2.78,3,3,0,0,1-2.27-.44,8.87,8.87,0,0,1-1.77-1.58,3.13,3.13,0,0,1-.91-1.4,1.09,1.09,0,0,1,.74-1.33.65.65,0,0,1,0-1,4.27,4.27,0,0,0,2.26,1.6,6.55,6.55,0,0,1,2.44,1.35C72.58,142.12,72.1,142,71.77,141.8Z"/><path d="M73.72,150.89a6.67,6.67,0,0,0,4.43,4.35,2,2,0,0,1,.68.26.63.63,0,0,1,.29.63c-.1.37-.6.45-1,.4a5.11,5.11,0,0,1-3.41-1.87A4.76,4.76,0,0,1,73.72,150.89Z"/><path d="M73.25,150a9.68,9.68,0,0,0-.39-1.52,1.44,1.44,0,0,0,.21,1.66C73.08,150.05,73.17,150,73.25,150Z"/><path d="M85.45,56.81A10.29,10.29,0,0,0,81,59.41a5.74,5.74,0,0,0-1.6,4.74,4,4,0,0,0,3.46,3.33c1.45.1,2.9-.75,4.32-.4,2,.51,2.66,3,2.92,5.12C92,87.59,93.51,102.5,94,118c0,1.44,1,2.85,2.1,2.81s1.86-1,1.86-2.69c0-20,.2-38.57-3.46-58.26A6.27,6.27,0,0,0,92.78,56,4.29,4.29,0,0,0,89,55.4C87.65,55.77,86.5,56.47,85.45,56.81Z"/><path d="M97.92,117.38c-.06-.9-.22-2.51-2.18-2.51-1.66,0-1.74,1.86-1.73,2.4.11,15.84,1.09,31.37,1.2,47.21a8.19,8.19,0,0,0,.6,3.68,2.83,2.83,0,0,0,3,1.66c1.81-.5,2-2.93,1.92-4.8C99.69,149,99.21,136.47,97.92,117.38Z"/><path d="M114.6,183.49a15.43,15.43,0,0,1-12.43-13.19,17.9,17.9,0,0,0-.58-4.14,3.38,3.38,0,0,0-3-2.45c-2.12.1-3,2.7-3.28,4.8a80.39,80.39,0,0,0,.82,25.71c.62,3.17,1.5,6.44,3.67,8.82s6,3.55,8.72,1.82a1.4,1.4,0,0,0,.76-1.05c0-1-1.44-1-2.43-1a6.31,6.31,0,0,1-6.48-5,1.89,1.89,0,0,1,.61-2c1-.56,2,.63,2.76,1.52a8.54,8.54,0,0,0,8.74,2.77c.68-.2,1.44-.6,1.55-1.3a1.56,1.56,0,0,0-1.23-1.55,9,9,0,0,0-2.15-.11,6.43,6.43,0,0,1-6-6.65c.07-.82.52-1.81,1.35-1.79s1.18.87,1.52,1.56A9,9,0,0,0,113.6,195a3.19,3.19,0,0,0,2.16-.15,1.43,1.43,0,0,0,.67-1.86c-.36-.6-1.16-.7-1.85-.82a9.79,9.79,0,0,1-7.9-9.87c1.31.06,2.35,1.06,3.28,2s2.06,1.87,3.36,1.79S115.88,183.71,114.6,183.49Z"/><path class="cls-8" d="M61,125.5l2-7.86.75,1.88,1.63-9.19.73,3.61,2.16-6.49.43,4.26.61-7.28,1,3.44,1.89-9.08a2.22,2.22,0,0,0,2.68-2.68,5.7,5.7,0,0,0-1.77-2.46c-.52-.32-.58-3.31-.26-3.31,2.44,0,3.13-1.66,4.07-2.83.71-.87,1.94-1.25,2.46-2.25s1-1.81.09-2.4a5.69,5.69,0,0,0-3.88-.36A9.31,9.31,0,0,0,73,84.11c.44-1.24-1-3.5-2.08-4.27-6.32-4.64-9.76-4.13-12.63-2.67-3.37,1.71-11.3,8.36-11.3,10,.73-.83,1.29-1.67,2.39-1.73-.39.74-.16,1.19-.07,2-1.09-.27-3.22.14-3.69,1.16a1.59,1.59,0,0,0,.94,2.19c.92.36,2.54.38,3,1.23s1.22,1,1.93,1.66a7.43,7.43,0,0,0-2.18,2.07,2.55,2.55,0,0,0,0,2.85,2.38,2.38,0,0,0,3.08,0,78.37,78.37,0,0,1,2.94,14.94l1.39-2.73.36,5.88A6,6,0,0,0,58.24,114l.22,6.65,1.31-1.74a15.87,15.87,0,0,0,1.17,7C61,125.76,61.15,125.56,61,125.5Z"/><path class="cls-4" d="M79,84.61a1.49,1.49,0,0,1-.65,1.06c-.33.27-.72.45-1.08.69A11.92,11.92,0,0,0,75,88.91a1.88,1.88,0,0,1-.64.55.65.65,0,0,1-.77-.15c-.28-.35,0-.87.44-1.09a5.55,5.55,0,0,0,1.2-.58c.51-.47.52-1.36,1.11-1.72a2.15,2.15,0,0,1,.8-.21,1.4,1.4,0,0,0,.77-.26.55.55,0,0,0,.14-.73.72.72,0,0,0-.57-.2,3.91,3.91,0,0,0-2.29,1,12,12,0,0,1-2,1.52.46.46,0,0,1-.45,0c-.12-.09,0-.36.11-.29l1.61-1.22a6.56,6.56,0,0,1,2.19-1.25A3.42,3.42,0,0,1,79,84.61Z"/><path class="cls-4" d="M72.35,90.32a15.44,15.44,0,0,0,.11-3.19l.58,2a1.06,1.06,0,0,1,.07.46.79.79,0,0,1-.31.47C72.64,90.18,72.46,90.25,72.35,90.32Z"/><path class="cls-4" d="M51.6,93.41l.49,0a9.54,9.54,0,0,0-1.2-4.14,6,6,0,0,1,.54,3.19,1.88,1.88,0,0,0-.08.52.53.53,0,0,0,.25.45C51.76,93.48,52,93.38,51.6,93.41Z"/><path class="cls-4" d="M51,92.85a2,2,0,0,0-.34-2.09,4.44,4.44,0,0,0-1.84-1.22,3,3,0,0,0-1.91-.24.78.78,0,0,0-.57.51.69.69,0,0,0,.42.72,2.63,2.63,0,0,0,.88.2,4.55,4.55,0,0,1,3,1.94,5.92,5.92,0,0,0-.71-1.34,2,2,0,0,0-1.24-.83c-.42-.07-.86,0-1.28,0a.89.89,0,0,1-.42-.15.4.4,0,0,1-.17-.39c.05-.28.41-.36.7-.35a4.41,4.41,0,0,1,2.42.83c.44.31.85.81.71,1.32,0,.1-.07.19-.08.29C50.54,92.37,50.82,92.63,51,92.85Z"/><path class="cls-4" d="M57.15,97.67l1.45,4.43a2.82,2.82,0,0,1,.54-1.56c.46,1.66.84,3.33,1.15,5a5.77,5.77,0,0,1,1.1-3.83l.88,4.68a13.65,13.65,0,0,1,.42-4c.07-.29.22-.64.52-.67s.54.36.58.7a1.65,1.65,0,0,0,.22,1,9.73,9.73,0,0,1,.44-5.1,2.82,2.82,0,0,1,1.15,1.86,4.27,4.27,0,0,1,.21-1.65,1.58,1.58,0,0,0-.33-1.55,1.69,1.69,0,0,0-1-.32,20.45,20.45,0,0,0-5.47.23A3,3,0,0,0,57.15,97.67Z"/><path class="cls-4" d="M69.53,99.14a56.62,56.62,0,0,0-3.85,9.06,5.93,5.93,0,0,1-1-3.3A46,46,0,0,0,63,115.67a10.72,10.72,0,0,1-1.52-5.83,23,23,0,0,0-.6,10.39,27.24,27.24,0,0,1-.15-12.57,43.52,43.52,0,0,0-1.61,6c-.2-4.15-.09-7.6-1.26-11.41a15.68,15.68,0,0,1-1.5,4.16A14.14,14.14,0,0,0,55,99a19,19,0,0,1,1,8.46,8,8,0,0,0,1.8-4.23c.73,4,.79,7.9,1.28,11.93,0-1.74.72-3.38,1-5.09a22.73,22.73,0,0,0,1,11.15,34.3,34.3,0,0,1,0-9.33,16.41,16.41,0,0,0,2,4.91,45.51,45.51,0,0,1,1.4-9.78c.5.83.75,1,1.26,1.87C67.06,105.63,68.3,102.36,69.53,99.14Z"/><path class="cls-9" d="M63.86,90.63A29.18,29.18,0,0,1,71.55,93a6.83,6.83,0,0,1,2.31,1.54,2.75,2.75,0,0,1,.7,2.58,3,3,0,0,1-2.82,1.82,12.13,12.13,0,0,1-3.5-.68c-5.34-1.41-11-.55-16.43.45a2.66,2.66,0,0,1-2.35-.31,2,2,0,0,1-.24-2.12c.61-1.56,2.17-2.53,3.68-3.28C56.32,91.31,60.17,90,63.86,90.63Z"/><path class="cls-4" d="M55.19,93.42a2.23,2.23,0,0,0-2.5.94c-.07.12-.13.27,0,.38s.36.1.53,0l1.4-.72a1.33,1.33,0,0,0,.41-.29C55.09,93.61,55.14,93.43,55.19,93.42Z"/><path class="cls-4" d="M52.12,95.15a.49.49,0,0,0-.51,0,.33.33,0,0,0-.16.3.26.26,0,0,0,.28.21.36.36,0,0,0,.3-.2A.75.75,0,0,0,52.12,95.15Z"/><path class="cls-4" d="M72.31,96.46a.53.53,0,0,0,0-.61,1.38,1.38,0,0,0-.5-.43,15.11,15.11,0,0,0-7.89-2,41.59,41.59,0,0,0-8.15,1,5.6,5.6,0,0,0-3.08,1.3c-.2.22-.36.6-.12.78a.67.67,0,0,0,.4.08c3.07-.15,6.12-.67,9.18-.91a23.07,23.07,0,0,1,9.14.8,1.29,1.29,0,0,0,.72.11C72.28,96.58,72.49,96.31,72.31,96.46Z"/><path d="M72.4,75.52a11.1,11.1,0,0,1,8.67-5.86,7.49,7.49,0,0,0-6.17,1c1.41-2.77,2.88-5.63,5.3-7.59A7,7,0,0,0,76,65.25a17.06,17.06,0,0,1,6.72-8.94,29.52,29.52,0,0,0-8.24,3.33A31.68,31.68,0,0,1,80,55.72,13.12,13.12,0,0,0,72,58.32l4.54-4.38A13.41,13.41,0,0,0,67.85,62a5.42,5.42,0,0,1,.87-3.19,16.51,16.51,0,0,1,2.11-2.61,11.53,11.53,0,0,0-6.14,6.55,7.65,7.65,0,0,1,1.2-5.18c-1.51,1.06-2.19,3-2.57,4.77a19.65,19.65,0,0,1-1.45,5.33c-.57,1-1.43,2-1.44,3.2a3.13,3.13,0,0,0,1.35,2.42,7.29,7.29,0,0,0,2.63,1.1c1.68.43.85,1.26,2.55.93s2.76,2.31,3.66.82C69.88,77.3,72.57,74.46,72.4,75.52Z"/><path class="cls-4" d="M69.65,66l3.9-3.38L71.62,67a13.37,13.37,0,0,1,.94-3.22A17.33,17.33,0,0,1,69.65,66Z"/><path class="cls-4" d="M67.69,66.34a15.41,15.41,0,0,0,1.46-3.9,14.73,14.73,0,0,1-3.57,2.86,13.46,13.46,0,0,0,2.93-1.83A13,13,0,0,0,67.69,66.34Z"/><path class="cls-8" d="M63.7,85.35c1,1.27,1.73,2.91,3.16,3.72a3.9,3.9,0,0,0,4.21-.33,4.34,4.34,0,0,0,1.57-4,4.46,4.46,0,0,0-6.83-3.1A4.78,4.78,0,0,0,63.7,85.35Z"/><path class="cls-10" d="M58.21,86.18a4.61,4.61,0,0,0-2.29-2.68,4.05,4.05,0,0,0-3.5,0,3.63,3.63,0,0,0-2,2.82,4.55,4.55,0,0,0,.52,2.47,4.08,4.08,0,0,0,3.25,2.41,3.64,3.64,0,0,0,3-1.72C57.86,88.41,58.53,87.13,58.21,86.18Z"/><path class="cls-4" d="M71.68,83.54A2.53,2.53,0,0,0,70,82.24a2.54,2.54,0,0,1,.86.71A1.76,1.76,0,0,0,71.68,83.54Z"/><path class="cls-4" d="M69.64,81.93a5.81,5.81,0,0,0-3.23.15,3.53,3.53,0,0,0-2.19,2.28A6.11,6.11,0,0,1,69.64,81.93Z"/><path class="cls-4" d="M71.35,86.08a3.12,3.12,0,0,1-2.26,1.24,2.19,2.19,0,0,0,1.42-.23A1.61,1.61,0,0,0,71.35,86.08Z"/><path class="cls-4" d="M69.78,87.47a5.93,5.93,0,0,1-4.62-.8,8.43,8.43,0,0,0,2.23,1A3.15,3.15,0,0,0,69.78,87.47Z"/><path class="cls-4" d="M72.12,85.25a3.35,3.35,0,0,1-2,3.26,4,4,0,0,1-3.85-.45,3.46,3.46,0,0,0,4,.78A3.41,3.41,0,0,0,72.12,85.25Z"/><path class="cls-11" d="M72.08,84.68a4.15,4.15,0,0,0-6.48-1,11.62,11.62,0,0,1-1.27,1.26c-.22.16-.5.37-.4.62s.36.23.58.27a4,4,0,0,1,1.11.5,5.11,5.11,0,0,0,3.62.45A4.41,4.41,0,0,0,72.08,84.68Z"/><path class="cls-4" d="M57.82,87a.3.3,0,0,0,.32-.23.46.46,0,0,0-.11-.4,1.14,1.14,0,0,0-.35-.26A4.85,4.85,0,0,0,55,85.62a5.63,5.63,0,0,0-2.56.9,2.65,2.65,0,0,0-1.11,1.21.87.87,0,0,0,0,.69.83.83,0,0,0,.68.4,3.87,3.87,0,0,0,.83-.06c.44,0,.9,0,1.34,0A5.17,5.17,0,0,0,56.11,88,15.08,15.08,0,0,1,57.82,87Z"/><path d="M71.07,83.7a3.54,3.54,0,0,0-1.34-.6A4.71,4.71,0,0,0,67.35,83a5.65,5.65,0,0,0-1.91,1.14l-1.35,1.07a.48.48,0,0,0-.24.35.33.33,0,0,0,.22.28,1.23,1.23,0,0,0,.38.08,7.72,7.72,0,0,1,1.48.47,6.37,6.37,0,0,0,5.45-1.11.41.41,0,0,0,.18-.37,6.23,6.23,0,0,1-3.3,1.48,6.15,6.15,0,0,1-3.55-.63c-.14-.07-.31-.2-.28-.36s.1-.17.17-.23a7.29,7.29,0,0,1,3.72-1.94c1.3-.11,2.91.32,3.23,1.59A2.07,2.07,0,0,0,71.07,83.7Z"/><path d="M67.93,83.79a.59.59,0,0,0-.63-.25.83.83,0,0,0-.54.43,1.54,1.54,0,0,0-.17.7,2.77,2.77,0,0,0,.1,1,.94.94,0,0,0,.23.43.68.68,0,0,0,.76.09,1.18,1.18,0,0,0,.53-.61A1.8,1.8,0,0,0,68.12,84c-.05-.08-.12-.16-.21-.15a.18.18,0,0,0-.11.15.42.42,0,0,0,0,.19,2.59,2.59,0,0,1,.07.92.89.89,0,0,1-.14.47.42.42,0,0,1-.42.19.47.47,0,0,1-.28-.24,1.27,1.27,0,0,1-.1-.37,1.63,1.63,0,0,1,0-.85.6.6,0,0,1,.65-.42c.08,0,.15,0,.22,0S68,83.8,67.93,83.79Z"/><path d="M55.32,87.31a2.22,2.22,0,0,0,0-.89.85.85,0,0,0-.61-.59,1,1,0,0,0-.88.44,2,2,0,0,0-.4,1.39,1.11,1.11,0,0,0,.58,1,.92.92,0,0,0,1-.28,1.51,1.51,0,0,0,.32-1c0-.07,0-.16-.09-.19s-.19.09-.22.2a5.8,5.8,0,0,1-.13.6.58.58,0,0,1-.43.39.49.49,0,0,1-.42-.19.85.85,0,0,1-.17-.43,1.62,1.62,0,0,1,.13-1,.9.9,0,0,1,.46-.46.44.44,0,0,1,.55.23.65.65,0,0,1,0,.31,1,1,0,0,0,0,.3.27.27,0,0,0,.18.23C55.22,87.35,55.34,87.27,55.32,87.31Z"/><path d="M58.08,86.94a.32.32,0,0,0,.16-.34.71.71,0,0,0-.19-.35,2.62,2.62,0,0,0-1-.61,5,5,0,0,0-2.63-.26,5.07,5.07,0,0,0-2.39,1.14,3.44,3.44,0,0,0-.93,1.25,1.31,1.31,0,0,0-.09.58.65.65,0,0,0,.29.5,1.27,1.27,0,0,0,.84,0c.71-.09,1.42.11,2.12,0a4.42,4.42,0,0,0,1.86-.74l1.66-1,.25-.19a1.68,1.68,0,0,0-.3.09,16.11,16.11,0,0,0-1.93,1,4.15,4.15,0,0,1-2.21.59,5.44,5.44,0,0,0-1.5-.13c-.2,0-.44.12-.6,0s-.09-.41,0-.61a3.79,3.79,0,0,1,1.71-1.6,5.07,5.07,0,0,1,2.31-.48A4.19,4.19,0,0,1,57,86a2.05,2.05,0,0,1,1.08.68S58.18,86.85,58.08,86.94Z"/><path class="cls-4" d="M58,85.93a4.11,4.11,0,0,0-7,.77,2.75,2.75,0,0,0-.28,1.08.18.18,0,0,0,.05.15c.09,0,.16-.07.19-.15a5.29,5.29,0,0,1,.87-1.62,3.41,3.41,0,0,1,1.48-1.06,4.85,4.85,0,0,1,2.67,0A5.92,5.92,0,0,1,58,85.93Z"/><path class="cls-4" d="M53.79,84.09a3.78,3.78,0,0,0-3,2.11,2.85,2.85,0,0,1,1.13-1.7A2.39,2.39,0,0,1,53.79,84.09Z"/><path class="cls-4" d="M58,87.15a2,2,0,0,0-1,.52,7.78,7.78,0,0,1-1.49,1,4.09,4.09,0,0,1-1.71.44c-.66,0-1.32-.16-2-.08a.07.07,0,0,0,0,.09s.06,0,.1,0l.85.11a6.07,6.07,0,0,0,1.7,0,4.32,4.32,0,0,0,2-1A8,8,0,0,1,58,87.15Z"/><path class="cls-4" d="M57.91,87.42a.49.49,0,0,0-.37.16,1.68,1.68,0,0,0-.25.33,4.05,4.05,0,0,1-1.4,1.33A1.78,1.78,0,0,0,57,88.48,6.66,6.66,0,0,1,57.91,87.42Z"/><path class="cls-4" d="M55.29,89.56a1.5,1.5,0,0,1-.92.31,4,4,0,0,1-1-.13A4.44,4.44,0,0,1,52,89.25a2.28,2.28,0,0,0,1.63.89A2.24,2.24,0,0,0,55.29,89.56Z"/><path class="cls-8" d="M69.76,78.41c1.53-.18,2.65-1.45,3.64-2.62s2.18-2.42,3.72-2.49a10.3,10.3,0,0,0-6.62,1.91,8.48,8.48,0,0,1,3.56-4.08,12.13,12.13,0,0,0-5.37,2.35,8.28,8.28,0,0,1,3.57-5,17.16,17.16,0,0,0-7.62,3,7.18,7.18,0,0,1,1.71-5.1A12.8,12.8,0,0,0,61,70.63a12.1,12.1,0,0,1,.83-5.95,10.94,10.94,0,0,0-5.19,7.26,7.48,7.48,0,0,0-4.43-1,5.75,5.75,0,0,1,3.21,4.18,3.74,3.74,0,0,1-2.86-1.38,6,6,0,0,0,2.71,2.79,6.18,6.18,0,0,0-6.09.94,3.73,3.73,0,0,1,3.68,1.47,3.23,3.23,0,0,0-4.27,2c1.55-1.07,3.59-1,5.45-1.26a36.89,36.89,0,0,0,4.71-1.29,12.54,12.54,0,0,1,4.81-.66A6.5,6.5,0,0,1,67.94,80C68.34,80,68.74,80,69.76,78.41Z"/><path class="cls-8" d="M62.07,77.72a6.37,6.37,0,0,0-3.36,5.5,5.66,5.66,0,0,1,.14-4.68,7.08,7.08,0,0,0-1.94,5.62,6.34,6.34,0,0,1-.74-4.85A7.14,7.14,0,0,0,53.89,83a4.2,4.2,0,0,1,.81-4.74,6.71,6.71,0,0,0-3.22,4.89,5.24,5.24,0,0,1,.37-3.69c0-.06-.07-.11-.1-.06s0,.12.08.08a3.29,3.29,0,0,0-2.52,1.47,5.83,5.83,0,0,1,2.9-2.46,9.06,9.06,0,0,1,4.07-3.35,4.92,4.92,0,0,0-1.4-.73,5.55,5.55,0,0,1,5.32.46,6.58,6.58,0,0,1,3.14-3.17,11,11,0,0,0-1.76,3.23A7.36,7.36,0,0,1,68.1,76a3.15,3.15,0,0,1,2.41-.2,3.11,3.11,0,0,1,1.82,1.59,15.56,15.56,0,0,0-5.14,0,6.13,6.13,0,0,1,6.71,3.95,20.54,20.54,0,0,0-5.3-1.55,3.9,3.9,0,0,1,3,2.42,17.57,17.57,0,0,0-5.26-3.34,2.39,2.39,0,0,1,1.43,2.59,9.83,9.83,0,0,0-2.65-2.84,3.4,3.4,0,0,1,0,3.15,5.15,5.15,0,0,0-.93-3.4A4.51,4.51,0,0,1,64,82.7,9.92,9.92,0,0,0,62.07,77.72Z"/><path class="cls-3" d="M54.62,94.67a10,10,0,0,1,.19,2"/><path class="cls-3" d="M56.44,94.05a17.22,17.22,0,0,1,.26,2.59"/><path class="cls-3" d="M58.71,93.43a7.66,7.66,0,0,1,.39,2.85"/><path class="cls-3" d="M60.64,93.29A7.45,7.45,0,0,1,61,96.1"/><path class="cls-3" d="M63.48,92.64a5.82,5.82,0,0,1,.32,3.17"/><path class="cls-3" d="M65.37,92.94a5.61,5.61,0,0,1,.16,3"/><path class="cls-3" d="M67.71,93.16a7.94,7.94,0,0,1,.09,3.22"/><path class="cls-3" d="M70,93.82a5.27,5.27,0,0,1,0,2.92"/><path class="cls-3" d="M71.18,94.61A4.15,4.15,0,0,1,70.85,97"/><path class="cls-8" d="M60.78,80.4a25.75,25.75,0,0,0-2.26,6.26,9.36,9.36,0,0,0,.25,6c.54,1.15,1.73,2.18,2.95,1.88a2.46,2.46,0,0,0,1.66-1.8,7,7,0,0,0,.08-2.54A24.42,24.42,0,0,0,60.78,80.4Z"/></g></g></svg>