<?xml version="1.0" encoding="UTF-8"?><svg xmlns="http://www.w3.org/2000/svg" viewBox="0 0 621.02 581.24"><defs><style>.f,.g{fill:#fff;}.h{font-family:Avenir-Medium, Avenir;font-size:28px;}.i{fill:none;}.i,.j,.g{stroke:#fff;stroke-miterlimit:10;stroke-width:.75px;}.k{opacity:.91;}.l{fill:#f6c67b;}.m{font-family:Moonlights-on-the-Beach, Moonlights on the Beach;font-size:88px;}.n{fill:#eb566a;}.o{opacity:.99;}</style></defs><g id="a"/><g id="b"><g id="c"><circle class="n" cx="289.79" cy="287.85" r="283.24"/></g><g id="d"><g><circle class="n" cx="290.62" cy="290.62" r="290.62"/><g><path d="M264.14,404.85c-.53-5.5-1.22-10.89-3.26-16.1-1.67-4.25-2.98-8.62-5.11-12.71-2.74-5.27-5.89-10.33-8.95-15.44-2.98-4.98-6.24-9.75-9.79-14.38-.9-1.17-2.07-2.13-2.95-3.31-.72-.96-1.24-2.04-1.85-3.06-1.74-2.94-3.56-5.65-5.69-8.37-1.99-2.54-3.75-5.22-5.78-7.73s-4.37-5.28-6.32-8.01c-4.04-5.68-8.09-11.34-11.98-17.12-3.98-5.92-8.07-11.78-12.43-17.46-1.74-2.27-3.4-4.61-5.18-6.85-1.67-2.1-3.13-4.27-4.73-6.41-1.19-1.6-2.57-2.95-3.92-4.43s-2.38-2.83-4.18-3.85c-3.02-1.7-7.78-.34-8.74,2.98-.86,2.99-.66,6.6-.64,9.66,.04,4.57,1.82,8.85,3.94,12.91,1.78,3.41,3.87,6.79,6.01,10.02,1.03,1.55,2.16,2.91,3.26,4.4,1.08,1.46,1.9,3.08,2.97,4.55,2.06,2.83,3.63,5.94,5.01,9.12,2.17,5,4.24,10.08,6.05,15.21,1.58,4.46,2.94,9.23,3.28,13.93,.44,6.03,1.4,11.86,3.01,17.71,2.64,9.61,5.13,19.27,8.55,28.67,1.09,2.99,2.47,5.86,3.84,8.73,1.24,2.62,2.18,5.37,3.47,7.96,2.04,4.1,4.64,8.38,7.95,11.71,1.62,1.63,3.42,3.11,5.16,4.62,.96,.84,1.86,1.74,2.82,2.57,1.14,.99,2.43,1.62,3.69,2.45,2.13,1.39,4.71,1.43,7.26,1.62,3,.22,5.93-.26,8.87-.81,4.4-.83,9.62-3.02,12.21-6.64,1.53-2.14,2.49-4.58,3.56-6.93,.9-1.96,1.37-4.62,.78-6.71-.18-.62-.99-2.32-.21-2.47Z"/><path class="f" d="M169.27,289.92c2.28,4.18,5.03,10.39,8.07,14.13,2.17,2.66,2.83,6.17,4.36,9.2,.86,1.7,1.99,3.32,2.76,5.04,1.05,2.35,1.91,4.74,2.74,7.17,.64,1.86,.98,3.83,1.25,5.77,.25,1.83,.89,3.52,1.33,5.3,.83,3.36,1.81,6.97,1.92,10.42,.1,3.23,1.15,6.3,1.6,9.49,.4,2.86,.7,5.84,1.48,8.63,1.01,3.6,1.87,7.24,3.25,10.74,1.48,3.77,2.46,7.67,3.93,11.44,.67,1.72,1.39,3.39,2.21,5.04,.47,.95,.75,1.93,1.28,2.85s1.15,1.83,1.65,2.77c1.36,2.56,2.44,5.34,4.04,7.78,1.98,3,3.42,6.27,5.28,9.34,.71,1.18,1.69,2.19,2.52,3.29,1.24,1.65,2.38,3.36,3.74,4.93,2.16,2.48,5.01,4.81,7.96,6.42,1.71,.94,3.23,1.58,5.2,1.92,1.81,.31,3.51,.29,5.33,.28,3.83-.02,7.55-.89,11.13-2.1,2.92-.99,5.33-2.91,7.03-5.32,.86-1.22,1.8-2.31,2.58-3.59,.83-1.36,1.66-2.71,2.49-4.06,.74-1.2,1.3-2.07,1.43-3.41,.05-.57,.34-1.13,.41-1.71,.1-.83,.25-1.62,.38-2.44,.11-.65,.05-1.32,.15-1.97s.32-1.23,.4-1.86-.07-1.24-.07-1.87c0-.99,.12-1.83-.02-2.83-.27-1.92-.81-3.79-1.53-5.61-.36-.92-.83-1.79-1.07-2.76-.29-1.17-.48-2.22-.93-3.35-.44-1.1-1.06-2.19-1.35-3.34s-.32-2.16-.76-3.23c-.97-2.33-2.64-4.38-3.74-6.65-.84-1.72-1.88-3.31-2.72-5.04-.35-.71-.84-1.31-1.23-1.98-.52-.89-.82-1.89-1.32-2.79-.92-1.65-1.69-3.4-2.9-4.87-.55-.67-.91-1.36-1.36-2.08-.62-1-1.48-1.88-2.21-2.81-2.42-3.09-4.02-6.63-6.39-9.75-1.18-1.55-2.51-3.03-3.43-4.73-.93-1.73-2.23-3.49-3.43-5.06-1.13-1.49-2.61-2.73-3.81-4.17-1.33-1.6-2.42-3.34-3.69-4.97-1.14-1.47-2.15-3.03-3.38-4.44-.69-.79-1.39-1.48-2.03-2.32-.58-.76-1.1-1.62-1.75-2.33-1.22-1.34-2.32-2.59-3.32-4.1-.91-1.39-1.84-2.75-2.75-4.14-1.09-1.66-2.31-3.25-3.42-4.91-1.24-1.85-2.21-3.83-3.51-5.64-.93-1.3-2.21-2.55-3.3-3.74-1.3-1.41-2.61-2.81-3.68-4.38-1.65-2.42-3.37-4.79-5.27-7.05-1.93-2.3-3.79-4.56-5.38-7.08-2.16-3.43-4.21-6.92-6.66-10.16-.9-1.18-1.61-2.31-2.72-3.3-.74-.66-1.47-1.37-2.27-1.91-.68-.46-1.72-1.42-2.52-1.6,.55,.34,1.16,1.51,1.63,1.96,.8,.76,1.61,1.59,2.26,2.47,1.23,1.65,2.44,3.3,3.72,4.91,1.59,1.99,2.24,4.44,3.44,6.62,1.18,2.16,2.41,4.43,3.92,6.42,1.61,2.13,2.82,4.43,4.37,6.61,1.88,2.65,4.11,5.06,6.04,7.67,2.04,2.75,4.14,5.49,6.04,8.33,.86,1.29,1.91,2.42,2.82,3.68,.97,1.35,1.74,2.81,2.68,4.17,3.82,5.49,8.33,10.5,11.96,16.11,.95,1.46,2.01,2.83,3.02,4.25,1.18,1.66,2.08,3.35,3.56,4.81,.97,.95,1.81,1.99,2.74,2.96,1.18,1.24,2.59,2.43,3.58,3.8,5.05,6.97,9.46,14.37,14.2,21.55,1.06,1.61,2.04,3.32,2.87,5.05,1.06,2.18,2.42,4.24,3.61,6.36,1.05,1.88,1.85,3.93,2.74,5.89,.8,1.78,1.57,3.67,2.13,5.53,.47,1.59,.77,3.1,.95,4.74s.7,3.2,1.11,4.84c.33,1.31,.41,2.8,.42,4.14,.01,1.32,.12,2.67,.06,3.99-.11,2.5-.75,4.88-1.76,7.21-.55,1.27-1.4,2.36-2.07,3.57-.81,1.47-1.58,2.72-2.82,3.93-1.94,1.9-4.34,3.68-6.99,4.57-2.41,.8-4.76,1.34-7.27,1.74-2.81,.44-5.8-.46-8.48-1.19-1.27-.34-2.65-.79-3.83-1.35-1.47-.7-2.47-1.71-3.59-2.81-1.21-1.2-2.39-2.55-3.49-3.85-1.11-1.31-1.93-2.64-2.83-4.08-1.62-2.58-2.92-5.36-4.42-8.02-.63-1.13-1.06-2.34-1.65-3.5-.75-1.48-1.57-2.85-2.4-4.28-1.59-2.74-3.08-5.47-4.21-8.41-.53-1.39-1.34-2.7-1.79-4.13-.54-1.72-.86-3.49-1.44-5.2-1.34-3.98-2.33-8.01-3.23-12.1-.78-3.57-1.46-7.1-2.52-10.6s-1.37-6.85-2.12-10.27c-.33-1.49-.96-2.95-1.21-4.45-.27-1.61-.29-3.25-.57-4.85-.49-2.81-1.13-5.58-1.81-8.37-1.26-5.23-3.53-10.08-5.33-15.15-.82-2.3-2.17-4.27-3.38-6.36-.5-.86-1.09-1.67-1.67-2.48-.83-1.16-1.52-2.42-2.41-3.56-1.34-1.71-2.19-3.4-3.66-5-1.17-1.27-2.11-3-3.38-4.15-.53-.47-2.98-3.59-3.54-4.27Z"/><path class="k" d="M181.92,421.51c-.21,.63-2.08,5.01-1.62,6.45,.04,.12,.26,.41,.33,.56,.42,.86,.62,1.92,.7,2.85,.12,1.3-.7,2.76-1.49,3.82-1.39,1.86-2.78,3.7-3.72,5.82-1.21,2.76-2.13,5.65-3.26,8.44-1.03,2.54-1.69,4.95-2.14,7.64-.25,1.49-.37,3-.65,4.48-.25,1.3-.79,2.56-1.14,3.84-.56,2.05-.75,4.97-3.21,5.81-2.94,1-4.74-2.27-5.62-4.33-1.22-2.86-1.49-6.6-.98-9.62,.44-2.55,1.96-5.49,1.09-8.07-.54-1.6-1.77-2.47-3.53-2.12-1.02,.2-2.11,.3-2.92,.94-1.2,.94-2.32,2.51-3.03,3.77-1.03,1.85-2.04,3.63-2.79,5.59-.69,1.81-1.52,3.85-2.57,5.49-.99,1.55-1.94,3.19-3.17,4.58-1.15,1.3-2.9,2.17-4.31,3.22-.82,.61-1.92,1.73-3.04,1.74-.88,.01-2.02-.77-2.56-1.34-1.01-1.07-1.03-2.41-1.02-3.77,.02-2.36,.58-4.92,1.48-7.13,1.34-3.31,2.98-6.84,5.78-9.26,2.29-1.98,4.91-3.55,7.03-5.72,1.19-1.22,3.17-3.48,1.84-5.21-.76-.98-2.23-1.16-3.37-.82-2.53,.75-3.85,3.35-5.58,5.04-2.92,2.87-6.56,4.3-9.97,6.52-1.38,.9-2.84,2.01-4.38,2.65-1.67,.69-2.47,.16-3.24-1.28-1.78-3.31-.7-7.23,1.56-10.14,2.64-3.41,6.67-5,10.54-6.85,3.21-1.54,6.63-3.03,10.03-4.18,3.42-1.16,6.92-2.02,10.38-3.05,3.52-1.05,7.23-2.36,10.4-4.11,1.65-.91,4.23-3.07,4.16-4.98-.03-.81-.05-1.27-.48-1.9-.64-.94-.72-1.63-.66-2.85,.1-2.03-.4-4.43,.27-6.41,.26-.76,1.01-.97,1.22-1.78,.33-1.27,.25-2.89,.01-4.16-.4-2.11,.09-4.28-.15-6.4-.18-1.51,.18-3.02,.07-4.53-.13-1.8-.54-3.54-.59-5.36-.11-3.41-.32-6.81-.42-10.22-.04-1.3-.34-2.56-.39-3.86-.1-2.36-.1-4.76-.36-7.11-.18-1.69-.74-3.29-1.05-4.96-.42-2.28-.82-4.57-1.22-6.84-.42-2.34-.3-4.63-.28-6.99,.01-2.56-.1-5.12-.32-7.67-.3-3.53-1.03-7.05-1.13-10.59-.14-4.99-.09-9.91-.7-14.88-.21-1.76-.54-3.55-.96-5.27-.56-2.3-.9-4.66-1.5-6.95-.52-1.97-1.16-3.81-1.44-5.84-.33-2.42-.69-4.81-1.17-7.21-1.15-5.73-3.46-11.44-3.51-17.33-.03-3,1.09-5.65,2.66-8.19,1.59-2.56,2.64-3.82,5.58-5.25,2.24-1.09,4.39-1.28,6.58,.18,3.23,2.15,4.63,3.88,6.7,7.03,3.71,5.63,4.71,11.44,7.05,17.5,1.54,4,2.98,8.03,4.93,11.87,1.63,3.2,3.01,6.58,3.76,10.07,.42,1.93,.67,3.87,1.01,5.81,.46,2.6,.62,5.32,1.25,7.88,.58,2.34,.8,4.57,1.12,6.93,.33,2.41,.62,4.72,.67,7.15,.08,4.18,.18,8.37,.04,12.55-.04,1.3-.31,2.6-.43,3.89-.18,1.91-.43,3.82-.95,5.67-.58,2.04-.89,4.15-1.28,6.23-.46,2.49-1.07,4.92-1.78,7.36-.65,2.25-1.55,4.52-1.96,6.83-.37,2.14-.83,4.23-1.4,6.35s-.76,4.27-1.16,6.43c-.27,1.48-.59,2.97-.89,4.44-.32,1.57-.4,3.09-.67,4.65-.31,1.79-.73,3.55-.78,5.36-.05,1.97-.18,3.95-.36,5.91-.07,.73-.36,1.45,.22,2.01,.25,.24,.62,.26,.85,.56,.35,.44,.43,1.22,.52,1.75,.44,2.65-.38,5.66-1.03,8.25-.21,.85-.72,2.15-1.46,2.73-.95,.74-1.93,.35-2.44,1.46s-.22,2.08,0,3.18c.13,.65,.24,2.07,2.42-4.79Z"/><path class="f" d="M164.62,254.42c-1.32,.07-2.97,.27-4.35,1.01-.2,.1-1.56,.94-1.67,1.09-.43,.58-.92,1.24-1.33,1.9-.69,1.1-1.29,2.17-1.94,3.28-1.2,2.06-1.85,3.83-2.2,6.14-.26,1.74,.07,3.37,.08,5.1,.01,2.64,1.02,4.99,1.42,7.59,.84,5.57,2.13,11.15,3.22,16.69,1.15,5.85,2.27,11.66,3.01,17.56,.45,3.58,.82,7.17,1.24,10.76s.86,6.9,.97,10.32c.14,4.04,.31,8.1,.51,12.14,.17,3.55,.67,7.08,.76,10.63,.12,4.42,.62,8.85,.8,13.21,.03,.81-.15,1.61-.02,2.42,.11,.69,.26,1.38,.33,2.11,.17,1.83,.33,3.65,.51,5.48,.56,5.64,.94,11.32,1.32,16.96,.08,1.17,.29,2.34,.29,3.48,0,1.03-.19,2.1-.1,3.13l.13,.33c-.17,.09-.18,.23-.04,.39-.91,.13-1.65,1.97-1.83,2.72-.27,1.12,.48,2.19,.5,3.28,.02,.92,.31,1.84,.16,2.75-.18,1.14-.08,1.98,.26,3.09,.59,1.91,.92,3.79,3.23,4.4,1.09,.29,2.37,.32,3.47,.52s2.49,.31,3.65,.22c1.01-.08,1.89-.23,2.92-.17,1.18,.06,1.87,.05,2.42-1.02,.35-.67,.53-1.57,.85-2.31,.34-.79,.41-1.39,.58-2.15,.36-1.6,1.16-3.12,.99-4.77-.12-1.19,.07-2.65-.56-3.73-.54-.91-1.31-1.14-1.19-2.23,.1-.9,.05-1.8,.18-2.71,.2-1.45,.37-2.85,.49-4.3,.15-1.81,.65-3.5,1.06-5.26,.82-3.56,1.37-7.22,1.67-10.86,.15-1.84,.77-3.62,.97-5.44,.21-1.99,.29-4.1,.83-6.05,.85-3.05,1.95-6.09,2.66-9.17,.69-3.01,1.19-6.15,2.22-9.11,.61-1.76,.73-3.45,1.02-5.24,.63-3.81,.4-7.64,.61-11.5,.11-2.04,.19-4.09,.27-6.14,.09-2.23-.3-4.47-.31-6.7-.02-2.47-.23-4.85-.67-7.29-.38-2.13-.36-4.46-.94-6.53-.52-1.85-.37-3.85-1.09-5.64-.58-1.45-1.13-2.93-1.51-4.43-.66-2.59-1.54-4.8-2.73-7.21s-2.33-4.62-3.32-7.06c-.8-1.98-1.81-3.9-2.64-5.89-.46-1.11-.95-2.13-1.12-3.31-.14-.96,0-2.55-.63-3.36-.32-.42-.89-.61-1.42-.24-.46,.33-.35,1.04-.34,1.56,.02,1.36,.4,2.45,.74,3.74,1.8,6.87,5.33,13.16,8.06,19.7,1.49,3.57,2.09,7.61,2.9,11.35,.35,1.62,.63,3.26,.88,4.89,.36,2.3,.8,4.61,1.02,6.93,.35,3.81,.66,7.44,.25,11.26-.22,2.1-.37,4.16-.48,6.27-.12,2.24,0,4.54-.32,6.75-.59,3.99-.86,7.97-1.65,11.92-.42,2.11-1.43,4.02-2.1,6.05-.75,2.28-1.26,4.61-1.99,6.88-1.72,5.36-1.61,11.17-2.43,16.71-.38,2.56-.55,5.2-1.11,7.71-.45,2.02-.36,4-.53,6.03s-.82,4.33-2.85,5.37c-1.98,1.01-4.87,.89-7.01,.44-2.58-.55-2.51-3.82-2.38-5.85,.28-4.45,.62-9.13-.02-13.6-.71-4.93-1.31-9.88-1.48-14.87-.12-3.32-.34-6.64-.4-9.97-.03-1.56-.3-3.1-.44-4.66-.17-1.95,.12-3.91-.09-5.84s-.26-3.96-.34-5.92c-.08-2-.21-4.01-.23-6.01-.01-1.62-.16-3.25-.21-4.87-.03-1-.35-1.97-.3-2.97,.04-.87,.09-1.66,0-2.55-.37-3.87-.23-7.72-.98-11.56-.57-2.93-1.23-5.81-1.53-8.77-.15-1.52-.36-3.04-.56-4.56-.11-.82-.32-1.65-.39-2.47-.08-.99,.06-1.75-.26-2.7-.45-1.34-.47-2.85-.84-4.24-.4-1.46-.7-2.84-1.01-4.32-.49-2.39-1.17-4.76-1.65-7.16-.33-1.65-.91-3.17-1.36-4.77-1.42-5.08-2.47-10.58,.44-15.44,1.33-2.23,2.11-4.81,4.31-6.38,1.93-1.39,4.13-1.08,6.37-.05,1.58,.73,3.46,2.42,4.62,4.28-.52-1.46-2.07-3.93-3.09-4.97-.68-.69-1.76-1.26-2.67-1.58-.63-.22-1.46-.4-2.54-.62Z"/><path class="f" d="M166.96,424.2c-1.03,1.19-1.54,1.42-2.86,2.38-.55,.28-1.91,1.15-2.56,1.39-1.05,.38-2.04,.73-3.14,.96-1.42,.3-2.94,.46-4.39,.54-1.44,.08-2.69,.25-4.12,.48-3.31,.54-6.46,1.97-9.6,3.11-3.04,1.1-6.68,2.23-9.47,3.81-3.24,1.83-6.1,4.26-7.94,7.38-1.1,1.87-2.91,5.8,.02,7.52,1.66,.97,4.9-1.61,6.22-2.86,1.78-1.68,3.33-2.17,5.49-3.41,1.89-1.08,3.68-3.36,4.97-5.07,1.01-1.34,2.04-2.09,3.68-2.65,2.38-.81,5.54-.58,6.45,1.96,.61,1.7-.76,3.5-1.53,4.92-.94,1.74-3.14,3.37-4.76,4.59s-3.18,2.43-4.75,3.67c-1.34,1.06-2.09,2.17-2.83,3.63-1.21,2.42-2.97,4.82-3.2,7.56-.11,1.26-.17,2.47,.04,3.71,.21,1.2,.16,2.7,1.72,2.57,3.1-.25,6.17-2.6,7.7-5.04,.7-1.12,1.52-2.13,2.02-3.34,.29-.7,.91-1.16,1.25-1.81,.42-.8,.72-1.76,1.1-2.6,.53-1.17,1.13-2.31,1.63-3.44,.6-1.36,1.43-2.32,2.23-3.55,.42-.66,.64-1.32,1.15-1.96,.57-.71,1.32-1.47,2.05-2.02,1.05-.79,3.09-1.93,4.54-2.07,.97-.09,2.26,.67,2.86,1.3,1.11,1.16,1.18,2.45,1.18,3.93,0,1.81-.29,3.12-.84,4.84-.51,1.59-.89,3.16-.85,4.8,.03,1.35-.16,2.72,.06,4.05,.24,1.47,.88,2.95,1.46,4.35,.54,1.33,1.4,1.93,2.89,1.43,.63-.21,1.33-.38,1.8-.82,.93-.89,1.22-2.81,1.23-3.95,.01-1.36,.53-3.27,.91-4.59,.48-1.62-.09-2.56,.39-4.17,.8-2.68,1.33-4.96,2.23-7.62,.46-1.35,.94-2.36,1.43-3.7,.46-1.28,.92-2.1,1.61-3.26,.44-.74,.76-1.62,1.27-2.35,.65-.91,1.35-1.98,2.13-2.81,1.37-1.49,1.89-2.85,1.9-4.75,.01-1.35-.67-3.63-.66-4.99,.01-1.58,.32-2.28,.53-3.33,.3-1.55,1.15-1.43,1.57-.03,.31,1.05-1,2.63-.87,3.72s1.17,2.59,1.23,3.69c.08,1.4-.51,2.56-1.04,3.9-.67,1.7-1.77,3.26-2.84,4.76s-1.99,2.88-2.55,4.65c-.65,2.05-1.6,3.99-2.37,5.97-1.38,3.56-2.35,9.78-2.41,10.47-.07,.94-.73,4.49-.9,5.39-.27,1.46-.63,2.86-1.57,4.14-1.17,1.6-3.01,2.43-5.02,1.92-1.09-.28-1.96-1.69-2.48-2.62-.61-1.09-1.1-2.2-1.58-3.36-1.14-2.73-.78-5.75-.1-8.56,.37-1.52,.9-2.88,1.03-4.45,.1-1.28,.47-2.84-.29-3.92-1.42-2.03-1.76-2.23-4.01-1.25-2.67,1.17-3.31,3.92-4.52,6.11-.7,1.26-1.51,2.45-2.21,3.72-.81,1.47-1.89,3.22-2.42,4.8-.8,2.37-2.68,4.97-4.56,6.77-1.66,1.6-4.16,3.01-6.57,3.43-2.71,.47-4.01-3.19-4.31-5.1-.2-1.27-.02-2.83,.45-4.03,.75-1.95,1.38-3.82,2.41-5.68,.67-1.21,1.36-2.42,2.17-3.55,.77-1.06,1.54-2.28,2.6-3.11s2.29-1.62,3.38-2.49c1.37-1.08,2.45-2.44,3.7-3.63,1.49-1.41,2.43-3.03,.86-4.9-.87-1.03-2.18-.69-3.18-.18-1.36,.7-2.48,2.29-3.52,3.33-2.25,2.26-4.6,4.48-7.61,5.96-.92,.45-1.6,.95-2.37,1.61-1.21,1.04-2.15,1.7-3.65,2.25-1.02,.37-2.46,1.31-3.5,1.02-.96-.27-1.74-1.42-2.19-2.21-.52-.91-.83-1.88-.6-2.88,.35-1.52,.65-3.24,1.4-4.62,1.76-3.27,3.97-4.73,7.07-6.84,5.42-3.69,12.92-6.64,19.36-8.35,3.41-.9,6.97-1.44,10.34-2.49,.96-.3,1.86-.6,2.77-.99,1.04-.45,2.09-.97,3.07-1.5,.83-.45,.77-.68,1.67-1.61,.59-.61,.83-2.09,1.71-2.62,1.15-.7,1.39,1.19,1.32,1.87-.07,.61-.26,1.04-.5,1.61-.03,.07-.61,.81-1,1.15Z"/><path class="f" d="M137.88,462.4c-1.45,.67-2.81,1.45-4.1,2.36,.23,.78,.07,1.68,.73,2.34,.48,.48,1.7,.64,2.33,.56,.91-.11,1.83-.9,2.3-1.59,.65-.97,.4-1.55,0-2.54-.65-1.59-1.96-1.85-3.66-1.2-.71,.27-1.31,.82-1.57,1.5-.16,.44-.09,1.98,3.96-1.43Z"/><path class="f" d="M125.77,444.63c-.44,.05-1.33,0-1.64,.31-.16,.16-.27,.4-.41,.57-.25,.32-.59,.63-.73,1.01-.28,.79-.1,1.69,.22,2.44,.19,.44,.45,.6,.88,.83s.78,.3,1.29,.26c.42-.04,.82-.07,1.15-.32,.38-.28,.75-.67,.96-1.08,.18-.34,.38-.72,.45-1.09,.07-.35-.03-.65-.11-.98-.13-.5-.19-1.05-.7-1.36-.3-.18-.66-.27-.95-.44-.14-.08-.17-.08-.33-.1-.1-.01-.19-.07-.1-.04Z"/><path class="f" d="M164.56,462.36c-.7,.05-1.35,.24-1.94,.55-.06,.16-.12,.31-.17,.48-.06,.22-.11,.46-.13,.69-.09,.71,.08,1.29,.36,1.94,.2,.47,.72,.8,1.27,.81,.76,0,1.31-.52,1.75-1.03,.65-.75,.68-2.24-.14-2.89-.32-.26-1.19-.78-.99-.55Z"/><path class="o" d="M223.04,215.92c-2.01-2.48-4.74-7-8.7-7.54-2.44-.34-5.27,.89-7.63,1.39-5.3,1.11-9.41,5.12-12.68,8.98-1.46,1.72-3.2,3.19-4.78,4.8-1.77,1.81-3.46,3.67-5.12,5.58-2.29,2.63-4.6,5.24-7.27,7.54-2.69,2.32-4.89,4.74-8.1,6.47-1.12,.6-2.03,.86-3.29,1.15-.61,.14-1.24,.2-1.85,.31-.94,.18-1.61,.58-2.47,.95-1.35,.58-2.49,1.03-3.67,1.93-1.4,1.06-2.48,2.37-3.43,3.8-1.86,2.78-2.41,5.92-2.37,9.14,.06,4.88,2.77,9.32,8.23,10.14,2.97,.45,6.1-.84,8.86-1.78,3.5-1.19,6.6-3.67,9.51-5.79,2.99-2.19,6.25-4.58,9.59-6.25,1.95-.97,3.84-2.09,5.79-3.08,1.84-.94,3.86-2.02,5.51-3.22,3.49-2.52,7.29-4.45,10.95-6.7,2.52-1.55,5-3.12,7.54-4.64,2.87-1.73,5.23-3.61,6.92-6.45,.63-1.06,1.04-2.46,1.34-3.63,.36-1.42,.74-3.14,.85-4.6,.16-2.15-.42-4.3-1.59-6.1-.43-.66-.8-1.25-1.33-1.86-.37-.41-.99-1.18-.81-.52Z"/><path class="f" d="M225.38,230.38c-.1,.74-.07,1.65-.53,2.26-.16,.21-.27,.42-.4,.66-.24,.44-.52,.88-.78,1.31-.42,.69-.94,1.26-1.48,1.86-.66,.74-1.48,1.35-2.31,1.93-.6,.42-1.16,.86-1.75,1.29-.55,.4-1.01,.9-1.59,1.26-.73,.46-1.46,.91-2.2,1.36-.85,.51-1.78,.9-2.61,1.43-1.52,.98-3.09,1.84-4.71,2.65-.89,.44-1.7,.99-2.57,1.46-1.05,.57-2.11,1.13-3.15,1.7-.95,.52-1.77,1.21-2.66,1.81-.7,.47-1.47,.9-2.2,1.33-1.43,.84-2.81,1.76-4.21,2.65-1.14,.72-2.43,1.16-3.55,1.89-.59,.39-1.24,.65-1.83,1.04-.5,.32-1.09,.57-1.63,.85-.49,.25-.99,.43-1.44,.74-.61,.43-1.19,.91-1.76,1.38-2.63,2.13-5.43,4.04-8.44,5.66-1.24,.67-2.52,1.24-3.69,2.02-.35,.24-.8,.44-1.19,.62-.5,.23-1.02,.43-1.51,.67s-1.01,.37-1.46,.62c-.87,.49-1.82,.91-2.84,1.04-.97,.12-1.98-.04-2.92-.25-.37-.09-.71-.24-1.08-.34-.39-.11-.8-.14-1.2-.23-.81-.2-1.72-.55-2.48-.9-.58-.27-1.13-.63-1.57-1.06-.51-.5-.85-1.09-1.32-1.61-.8-.87-1.33-1.94-1.87-2.97-.32-.6-.54-1.16-.65-1.82-.09-.58-.01-1.12,.03-1.71,.05-.67,.14-1.34,.16-2.01,0-.29-.02-.58,.04-.86,.27-1.21,.81-2.35,1.14-3.55,.44-1.55,1.22-2.93,2.23-4.21,1.27-1.62,2.86-3.2,4.6-4.41,1.42-.98,3.17-1.55,4.8-2.13,.89-.31,1.81-.53,2.66-.91,.98-.44,1.94-.92,2.89-1.41,.84-.43,1.65-.85,2.45-1.35,1.1-.69,1.87-1.63,2.85-2.44,.89-.74,1.75-1.52,2.67-2.24,.98-.77,1.77-1.78,2.56-2.71,.78-.91,1.69-1.72,2.51-2.6,.99-1.07,1.88-2.19,2.75-3.35,.6-.81,.97-1.7,1.48-2.55,.7-1.17,1.78-2.11,2.61-3.2,.6-.79,1.34-1.49,2.05-2.2,.84-.85,1.75-1.66,2.74-2.36,.83-.59,1.67-1.16,2.46-1.8,.66-.53,1.25-1.12,1.91-1.66s1.44-1.14,2.22-1.57c.84-.46,1.77-.79,2.62-1.23,1.28-.66,2.6-1.28,4.04-1.57,.97-.2,1.88-.23,2.87-.17,.57,.03,1.37,.13,1.84,.43-.09,.25-.36,.34-.6,.44-.51,.21-1.06,.35-1.58,.55-1.26,.47-2.61,.71-3.88,1.19-1.07,.41-2.06,.82-3.07,1.36-1.13,.6-2.27,1.22-3.3,1.95-.55,.39-1.12,.76-1.64,1.18s-1.05,.69-1.52,1.12c-.97,.89-1.94,1.77-2.88,2.69-.74,.73-1.41,1.49-2.15,2.22-.76,.75-1.56,1.58-2.17,2.45-.64,.91-1.3,1.81-1.92,2.74-.61,.91-1.23,1.84-1.91,2.7-.77,.98-1.42,2.04-2.18,3.02-.83,1.07-1.65,2.14-2.62,3.11-1.32,1.31-2.8,2.51-4.26,3.68-.74,.59-1.54,1.12-2.33,1.65-.42,.28-.83,.6-1.26,.87s-.84,.46-1.23,.77c-.79,.61-1.7,1.08-2.55,1.62-.77,.49-1.59,.72-2.41,1.09-.78,.35-1.55,.65-2.36,.94-.65,.23-1.42,.38-2,.74-1.03,.63-2.1,1.19-3.13,1.84-1.26,.8-2.36,1.91-3.21,3.1-1.02,1.44-2.25,2.87-2.64,4.61-.32,1.42-.8,3.07-.56,4.53,.12,.74,.38,1.46,.67,2.16,.23,.54,.31,1.08,.69,1.56,.44,.55,.92,1.07,1.52,1.47s1.16,.92,1.77,1.34c1.81,1.23,4.38,1.34,6.52,1.12,.55-.06,1.09-.06,1.63-.17,.7-.14,1.35-.43,2.03-.63,.54-.16,1.08-.33,1.6-.52,.73-.26,1.47-.5,2.17-.82,1.28-.59,2.57-1.18,3.75-1.94,.65-.42,1.31-.84,2.02-1.19,.79-.39,1.45-.97,2.12-1.51,1.17-.94,2.22-1.95,3.57-2.69,1.37-.75,2.81-1.38,4.17-2.15,.47-.27,.9-.58,1.42-.77,.35-.13,.64-.29,.94-.5,.45-.32,.91-.62,1.38-.91s.87-.65,1.32-.96c.39-.27,.84-.44,1.26-.66,.45-.24,.83-.56,1.27-.8,.77-.44,1.52-.9,2.28-1.36,.52-.31,1.06-.53,1.59-.81,.5-.26,.94-.61,1.42-.88,.97-.55,1.95-1.05,2.89-1.66,.84-.54,1.64-1.12,2.49-1.64,.76-.47,1.53-.92,2.29-1.39,.84-.53,1.56-1.18,2.46-1.64s1.8-1.02,2.72-1.49c.65-.33,1.28-.7,1.9-1.08,.39-.24,.77-.47,1.17-.69s.83-.31,1.21-.52c1.12-.64,2.3-1.32,3.31-2.1,.38-.29,.69-.65,1.04-.97,.54-.51,1.19-.88,1.71-1.44,.69-.74,1.58-1.32,2.28-2.05,.35-.36,.61-.87,.8-1.31,.14-.34,.27-.8,.51-1.09-.02,.03-.04,.05-.08,0Z"/><path d="M94.07,254.63c1.47-.03,2.93-.11,4.39-.25-.09-.69,1.24-1.68,1.65-2.28,.64-.95,1.21-1.97,1.37-3.1,.21-1.52-.11-3.3,.47-4.74,.56-1.37,1.88-1.28,3.24-1.76,1.19-.42,2.43-.64,3.61-1.08,1.36-.51,2.66-1.12,3.84-1.97,.82-.59,1.5-1.34,2.17-2.07,.45-.5,1.29-1.63,2.04-1.82,.8-.2,2.12,.85,2.77,1.26,.83,.54,1.81,1.01,2.46,1.76,.72,.83,1.08,1.93,1.93,2.68,1.27,1.11,2.69,2.09,3.83,3.35,.48,.53,.92,1.09,1.4,1.62,1.31,1.45,2.6,2.96,3.59,4.62,3.36,5.67,7.82,10.54,13.11,14.77,1.44,1.15,2.98,2.22,4.59,3.15,2.44,1.41,4.83,2.22,7.65,2.44,2.36,.18,4.48-.06,6.51-1.28,2.07-1.25,4.13-3.02,5.73-4.78,3.36-3.7,1.86-8.69,.09-12.82-1.33-3.11-3.7-5.13-6.46-7.18-3.41-2.55-7.64-3.94-11.29-6.16-2.49-1.51-4.91-3.1-7.14-4.93-2.05-1.68-3.83-3.65-5.94-5.25-2.2-1.67-4.35-3.37-6.49-5.11-2.52-2.05-5.9-3.28-8.98-4.41-2.47-.9-5.29-1.56-7.94-1.76-3.03-.23-6.04-.05-9.07-.11-2.31-.05-4.62,.03-6.93,.05-1.63,0-3.14-.36-4.78-.37-2.04-.01-4.78,.02-6.61,1.01-1.67,.91-2.55,3.05-3.29,4.62-.96,2.04-2.2,4.02-3.73,5.72-.76,.84-1.38,1.74-2.18,2.56s-1.72,1.46-2.38,2.41c-1.51,2.18,1.8,3.17,3.62,2.85,2.89-.51,5.6-2.71,7.35-4.85,1.18-1.45,2.25-3.28,3.7-4.49,.75-.63,2.36-1.26,2.56,.28,.17,1.31-1.18,2-2.06,2.71-1.43,1.16-2.82,2.31-4.32,3.4-1.61,1.17-3.25,2.52-4.45,4.06-1.78,2.29-3.74,5-3.54,7.97,.16,2.37,2.07,4.16,4.65,3.18,3.35-1.27,4.64-5.44,6.23-8.13,1.36-2.31,3.47-4.24,5.86-5.63,1.05-.6,3.62-1.23,3.83,.61,.07,.66-.8,1.72-1.32,2.19-.82,.74-1.86,1.18-2.85,1.69-3.73,1.92-5.99,6.24-4.57,10.06,.43,1.16,1.4,1.91,2.04,2.95,.59,.96-.11,1.74,.86,2.46s1.9,.26-.81-.1Z"/><path class="f" d="M165.55,247.6c-1.24-.88-2.44-1.7-3.71-2.49-.48-.3-.96-.68-1.49-.9-.95-.38-1.83-.87-2.78-1.26-.74-.31-1.54-.45-2.28-.75-.63-.25-1.18-.67-1.77-.98-.78-.41-1.47-.9-2.17-1.42-1.15-.86-2.45-1.48-3.57-2.38-.84-.67-1.73-1.24-2.61-1.86s-1.65-1.39-2.4-2.1c-1.42-1.32-2.86-2.63-4.29-3.95-1.34-1.23-2.86-2.26-4.21-3.46-1.47-1.31-3.12-2.51-4.86-3.5-.77-.44-1.62-.97-2.44-1.3s-1.63-.59-2.45-.9c-.84-.32-1.67-.61-2.51-.9-.7-.24-1.47-.32-2.21-.46-1.42-.26-2.9-.39-4.34-.37-2.94,.04-5.86-.02-8.81-.14-1.68-.07-3.36-.02-5.03-.07-1.38-.05-2.8-.05-4.19,.05-1.58,.11-3.16,.22-4.74,.37-1.2,.11-2.44,.43-3.36,1.2-.5,.42-.95,.89-1.33,1.42-.43,.59-.67,1.26-1.06,1.88-.78,1.22-1.65,2.34-2.35,3.6-.38,.68-.88,1.28-1.37,1.88-.46,.57-.9,1.16-1.43,1.68s-1.09,.92-1.64,1.38c-.46,.38-1.12,.78-1.46,1.27-.46,.66-.17,1.72,.75,1.77,1.18,.06,2.35-.27,3.34-.8,.58-.31,1.02-.78,1.43-1.26,.49-.56,1.04-1.08,1.48-1.67,.81-1.08,1.45-2.26,2.29-3.32,1.13-1.43,2.36-2.76,4.27-3.28,1.28-.35,2.66,.23,3.53,1.14,.92,.97,1.06,2.48,.38,3.61-.36,.6-1.07,1.11-1.66,1.5-.89,.59-1.83,1.16-2.77,1.7-2.48,1.43-4.48,3.72-6.17,5.9-1.2,1.54-2.55,3.25-3.39,4.97-.38,.77-.66,3.7,.08,4.3,1.33,1.09,3.2-1.61,3.95-2.73,.6-.89,1.08-1.84,1.56-2.79,.66-1.29,1.02-2.62,1.9-3.8,.82-1.1,1.75-2.02,2.92-2.8,1.06-.7,2.3-1.05,3.5-1.45,1.06-.36,1.29-.15,2.42-.26,1.06-.1,2.88-.59,3.38,.38,.92,1.81-2.02,2.79-3.22,3.86-1.95,1.73-3.04,4-4.36,6.26-.26,.44-.67,.92-.81,1.41-.08,.29-.17,.73-.21,1.03-.06,.39,.04,1.04,.15,1.43,.27,.91,.51,2.4,1.02,2.93,.88,.91,1.97,1.98,3.02,1.42,1.41-.75,2.26-3.39,2.52-4.8,.16-.85,.53-1.49,.64-2.35,.07-.56,.53-1.08,.67-1.62,.18-.71,.41-.82,.7-1.5,.18-.42,1.26-.99,1.68-1.22,.6-.33,1.06-.48,1.74-.59,1.43-.23,2.34-.57,3.76-.86,1.64-.34,2.87-1.61,4.43-2.18,.83-.3,1.57-.83,2.36-1.2,.27-.13,.47-.33,.72-.48,.36-.2,.7-.26,1.1-.32,.93-.15,1.73-.25,2.59,.26,.52,.3,.95,.68,1.4,1.06,.75,.62,1.2,1.49,1.95,2.13,.91,.79,1.7,1.67,2.66,2.39,1.25,.94,2.16,2.16,3.31,3.2s1.97,2.31,3,3.45c.53,.59,.89,1.15,1.32,1.8,.52,.78,1.18,1.51,1.75,2.26,1.25,1.64,2.55,3.31,3.91,4.87,.6,.69,1.39,1.2,1.96,1.9,.89,1.09,1.69,2.2,2.78,3.14s2.32,1.49,3.36,2.39c.7,.61,1.29,1.15,2.08,1.67,.49,.32,.91,.72,1.39,1.06,.91,.64,1.96,1.32,2.97,1.81,.8,.39,1.6,.4,2.47,.55,.69,.12,1.43,.24,2.1,.45,.29,.09,.64,.15,.74,.43,.25,.76-.98,.91-1.48,.95-1.15,.09-2.23-.27-3.31-.6-.72-.22-1.47-.31-2.18-.57-.9-.33-1.71-.76-2.49-1.3-.44-.31-.86-.64-1.32-.93s-.96-.47-1.38-.83c-.96-.83-1.97-1.66-2.98-2.45-1.19-.94-2.23-2-3.36-3-.41-.36-.87-.68-1.26-1.06-.53-.51-1-1.12-1.51-1.66-.84-.89-1.72-1.73-2.41-2.73s-1.53-2-2.16-3.06c-.62-1.03-1.27-2.03-1.97-3.03-.36-.52-.73-1.04-1.15-1.52-.63-.71-1.2-1.48-1.85-2.17-1.01-1.06-2.02-2.12-2.95-3.24-.63-.77-1.28-1.54-2.08-2.15s-1.33-1.44-2.03-2.09c-.46-.43-.96-.84-1.41-1.28-.55-.53-1.22-1.16-2.06-1.15-.95,0-1.86,.78-2.6,1.27-.45,.3-.85,.66-1.28,.99-.29,.22-.63,.28-.95,.44-.4,.21-1.03,.56-1.44,.78-1.4,.72-1.82,1.08-3.15,1.51-.89,.29-2,.46-2.85,.83-1.08,.47-1.93,.96-2.46,1.91-.86,1.55-1.53,3.21-2.1,4.88-.23,.68-.29,1.4-.53,2.06-.18,.5-.51,.96-.83,1.4-.71,1-1.83,1.8-3.12,2.02-.62,.11-1.42,.15-1.96-.2-.62-.4-1.02-1.01-1.34-1.61-.39-.73-1.52-1.82-1.63-2.65s-.29-1.36-.37-2.16c-.1-1-.23-1.99-.16-2.99,.06-.85,.97-1.29,1.27-2.08,.53-1.44,1.54-2.72,2.46-3.94,.33-.44,.69-.85,1.06-1.25,.15-.16,.26-.39,.46-.49-.61-.05-1.11,.2-1.66,.4-.85,.31-1.64,.62-2.37,1.17-.83,.62-1.51,1.36-2.18,2.14-.83,.96-1.33,2.1-1.98,3.17-.66,1.09-1.52,2.04-2.23,3.1-.55,.83-.98,1.7-1.86,2.27s-1.76,.78-2.83,.42c-1.2-.4-1.34-1.66-1.44-2.73-.14-1.45-.57-3.35,.06-4.66,.35-.72,1.05-1.4,1.39-2.13,.4-.87,1.07-1.53,1.6-2.33,2.21-3.34,5.47-5.94,8.48-8.64,.65-.58,1.32-1.25,1.76-1.98,.31-.5,.58-1.05-.34-.86-.62,.13-1.2,.76-1.67,1.15-.72,.59-1.28,1.35-1.85,2.06-.5,.62-1.15,1.26-1.77,1.78-.7,.58-1.29,1.23-1.93,1.87-.97,.97-2.01,1.83-3.34,2.34-1.02,.39-2.09,.76-3.15,1.07-.33,.1-.87,.24-1.19,.08-.37-.19-.79-.68-1.06-.99-.84-.98-.58-2.56,.21-3.49,.39-.46,.93-.82,1.39-1.23,.75-.67,1.32-1.41,1.97-2.17,1.11-1.3,2.14-2.56,3.08-3.97,1.53-2.3,2.84-4.75,4.92-6.67,.96-.89,2.55-.96,3.82-1.11,2.22-.26,4.46-.41,6.68-.62,.9-.08,1.82-.22,2.72-.24,1.32-.02,2.64,.06,3.96,.03,2.67-.05,5.27,.09,7.92,.36,1.19,.12,2.37,.38,3.55,.53,1.41,.18,2.76,.5,4.15,.77,1.79,.35,3.44,.97,5.14,1.61,1.08,.4,2.12,.71,3.18,1.11,.81,.31,1.52,.75,2.29,1.13,.66,.32,1.28,.85,1.89,1.25,.71,.47,1.35,.97,1.99,1.51,2.01,1.67,3.97,3.39,5.88,5.16,.44,.41,.91,.79,1.35,1.19,.5,.46,.9,.97,1.44,1.4,1.01,.79,2.11,1.43,3.08,2.28s2.07,1.41,3,2.24c.32,.29,.65,.46,1.02,.7,.58,.38,1.06,.81,1.68,1.13,.92,.48,1.93,.81,2.81,1.35,.8,.5,1.56,1,2.38,1.47,.97,.55,1.99,1.01,2.96,1.57,1.39,.8,2.57,2.02,3.4,3.3,.13,.2,.98,1.47,.59,1.16Z"/><path class="f" d="M168.04,255.31c-1.12,.13-2.23,.28-3.28,.68-.59,.22-1.17,.51-1.78,.68-1.04,.29-2.05,.69-3.11,.97-1.19,.31-2.44,.41-3.66,.21-.88-.15-1.67-.42-2.51-.69-.45-.14-.88-.27-1.3-.48-.44-.23-.8-.54-1.2-.82-.68-.49-1.25-.95-1.77-1.6-.61-.78-1.24-1.52-1.74-2.37-.27-.46-.62-.89-.89-1.35-.25-.44-.38-.93-.57-1.39-.33-.81-.61-1.6-.85-2.44s-.68-1.6-1.04-2.4c-.45-.99-1-2.01-1.74-2.85-.52-.59-1.19-1.01-1.84-1.46-.56-.39-1.23-1.02-1.91-1.2,.15,.3,.57,.52,.8,.77,.29,.33,.52,.71,.83,1.03,.28,.3,.57,.55,.77,.92,.15,.28,.26,.55,.44,.82,.57,.85,.77,1.77,1.16,2.7,.15,.35,.36,.69,.46,1.06,.14,.49,.28,.99,.43,1.48,.26,.82,.68,1.55,1.04,2.34,.4,.88,.94,1.75,1.4,2.6,.35,.65,.81,1.27,1.27,1.85,.51,.64,1.1,1.14,1.73,1.67,.33,.28,.56,.6,.84,.91s.62,.5,.97,.73c.79,.51,1.53,1.08,2.45,1.4,1.47,.51,3.05,.8,4.61,.65,.41-.04,.83-.05,1.23-.15,.36-.09,.64-.28,.96-.43,.25-.11,.52-.16,.78-.25,.42-.15,.76-.43,1.13-.65,.64-.38,1.19-.85,1.84-1.23,.43-.26,.88-.45,1.33-.68,.52-.27,1.1-.44,1.66-.63,.26-.09,.56-.14,.84-.12-.01,.02-.03,.04,.18-.27Z"/><path class="f" d="M100.22,222.01c-.68-.05-1.36-.04-2.03,.05-.2-.04-.35,.01-.45,.17-.14,.08-.29,.2-.42,.29-.47,.36-.51,.88-.52,1.42,0,.27-.03,.58,.13,.8s.48,.33,.63,.55c-.7-.11-1.27-.53-1.76-.99-.41-.39-.89-.98-.81-1.57,.07-.5,.66-.99,1.07-1.24,.94-.56,1.99-.49,3.02-.25,.34,.08,.6,.25,.92,.37,.16,.06,.32,.08,.44,.2,.02,.04,0,.07-.23,.2Z"/><path class="f" d="M101.07,228.16l-1.42,.73c-.28,.05-.47,.18-.6,.38-.13,.16-.23,.35-.32,.53-.29,.52-.38,.96-.39,1.54-.01,.35-.07,.68,.18,.98,.21,.25,.54,.35,.77,.58-.31,.4-1.33-.35-1.53-.58-.52-.58-.49-1.93-.03-2.54,.48-.64,1.33-.98,2.08-1.25,.5-.18,1.06-.28,1.27-.36Z"/><path class="f" d="M104.6,234.78c-.47,.33-.86,.73-1.17,1.18,.01,.15,.02,.3,.02,.45,0,.28,.02,.59,.07,.86,.12,.59,.62,.99,1.2,1.19,.51,.17,1.3,.4,1.84,.26,.36-.1,.71-.33,1.02-.52-.52,.15-.94,.53-1.43,.76-.51,.24-1.17,.46-1.76,.33-.98-.22-1.6-1.11-1.69-1.99-.08-.79-.21-1.56,.61-2.05,.28-.17,.55-.32,.87-.38,.16-.03,.39-.12,.42-.1Z"/><path class="f" d="M97.24,250.28c.09-.86,0-1.69-.28-2.5-.16-.11-.34-.19-.53-.24-.27-.09-.58-.18-.88-.15-.52,.06-1.06,.6-1.14,1.07-.09,.5,.04,1.13,.14,1.63,.09,.46,.39,.93,.81,1.21s1.24,.33,1.56-.11c.2-.29,.07-1.06,.33-.91Z"/><path class="f" d="M84.25,245.5c.21-.53,.31-1.07,.3-1.63-.42-.04-.68-.27-1.12-.22-.51,.05-.82,.35-.89,.84-.03,.17,0,.34-.01,.51-.03,.22-.13,.38-.12,.6,0,.48,.16,.68,.64,.79,.27,.06,.65,.05,.91-.08,.35-.17,.39-.53,.5-.85s.23-.64,.27-.97c.01-.14-.08-.34-.46,1.01Z"/><path d="M479.48,353.85c-3.14-5.46-6.14-11.19-9.7-16.45-2.07-3.06-4.24-5.92-6.14-9.09-2.27-3.78-5.04-7.6-7.83-11.08-.74-.92-1.88-2.01-2.44-2.96-.69-1.19-.62-3.32-.63-4.64-.02-2.52,0-5.04,0-7.55s-.41-5.34,0-7.83c.23-1.38,.58-2.75-.12-4.08-1.39-2.62-4.03-4.58-5.79-6.98-1.99-2.71-2.79-5.72-3.44-8.95-.35-1.76-.93-3.31-1.18-5.08-.37-2.62-.72-5.27-1.41-7.83-1.32-4.89-3.12-9.8-4.98-14.55-1.23-3.14-2.8-6.25-4.18-9.34-1.34-3-2.82-6-4.5-8.85-1.51-2.55-2.46-5.32-4.07-7.85-1.7-2.66-3.14-5.34-4.43-8.18-1.42-3.12-2.48-6.32-3.73-9.49-1.61-4.07-1.42-9.08-1.56-13.35-.1-2.99,.49-5.77,1.01-8.7,.37-2.13,.5-4.29,.9-6.4,.53-2.8,1.11-4.76,.35-7.55-1.63-5.93-5.39-11.17-7.59-16.91-.96-2.5-1.9-4.94-2.6-7.52-.36-1.31-.58-2.59-1.06-3.85s-1.22-2.46-2.22-3.57c-2.2-2.45-5.04-4.69-7.48-6.95-3.04-2.81-5.8-5.98-8.94-8.67-.58-.5-1.22-1-1.89-1.38-.9-.51-1.79-1.42-2.76-1.76-.68,1.24-.71,2.34-1.74,3.4-1.18,1.22-2.69,2.67-4.51,3.05s-3.99-.22-5.83-.47c-2.74-.38-5.48-.69-8.21-1.05-4.19-.55-8.39-.99-12.58-1.58-4.37-.61-8.81-.79-13.08-1.86-2.4-.6-4.82-.88-7.28-1.03-2.83-.17-5.61-.81-8.45-.8-1.61,0-2.59-.32-4.19,0-3.08,.62-5.92-.08-8.76-1.31-2.59-1.12-5.09-2.35-7.66-3.48-3.59-1.59-7.31-2.88-10.95-4.38-2.77-1.14-5.23-3.08-7.91-4.47-2.13-1.1-4.76-2.92-7.25-3.24-1.82-.23-2.41,.94-3.91,1.61-1.57,.69-3.49,.78-5.12,1.31-1.03,.34-2.05,.57-3.11,.83-3,.75-5.94,1.71-8.98,2.45-3.75,.91-7.39,2.02-11.18,2.84-6.07,1.3-11.89,3.54-18.04,4.49-.4,1.92-1.26,3.79-1.84,5.67-1.02,3.32-2.5,6.35-4.03,9.48-1.37,2.8-2.75,5.74-4.53,8.33-2.01,2.93-3.12,6.33-5.2,9.24-2.55,3.57-5.87,7.26-7.47,11.31-.36,.91-.37,1.86-.34,2.83,.07,2.09,.28,4.14,.28,6.25,0,2.94,.26,5.98-.27,8.87-.57,3.11-1.2,5.75-2.26,8.74-.64,1.81-1.51,3.41-2.42,5.07-.75,1.36-1.82,2.47-2.58,3.89-1.48,2.76,.38,4.55,1.67,7.12,2.16,4.32,4.65,8.57,6.38,13.06,1,2.59,1.39,5.2,2.09,7.83s1.1,4.53,1.06,7.2c-.07,5.52-1.35,11.37-2.55,16.78-1.13,5.12-2.47,10.23-3.52,15.35-.53,2.58-.73,5.29,.14,7.81,1.42,4.09,2.81,8.14,4.35,12.19,1.29,3.37,2.5,6.69,4.15,9.89,1.82,3.52,3.68,6.69,4.7,10.53,.65,2.48,.62,4.75,.88,7.25,.08,.81,.39,1.53,.28,2.37s-.4,1.43-.6,2.25c-.37,1.59-.56,3.15-1.03,4.74-.85,2.91-1.84,5.78-2.74,8.69-1,3.23-1.46,6.56-2.74,9.71-1.35,3.32-2.4,6.68-3.32,10.12-.55,2.04-1.31,4.02-1.91,6.04-.3,1.02-.42,1.66,.02,2.71,.71,1.66,2.17,3.14,3.27,4.57,1.16,1.51,2.6,2.81,3.74,4.33,1.58,2.12,2.82,4.57,4.23,6.79,5.96,9.38,13.6,17.1,22.25,24.36,2.85,2.39,5.58,4.91,8.48,7.25,1.79,1.44,3.68,2.72,5.4,4.24,2.12,1.87,4.15,3.88,6.4,5.61,4.08,3.15,7.85,6.72,11.45,10.34,2.45,2.47,4.89,5.38,7.66,7.55,2.46,1.94,6.48,2.2,9.6,2.45,3.98,.32,8.04,.85,11.98,1.47,6.24,.99,12.33,1.49,18.63,2.02,3.51,.3,7.01,.09,10.5,.51,4.17,.51,8.19,.73,12.4,.73,6.06,0,12.09,.26,18.16,.26,4.39,0,8.81,.58,13.18,.86,3.63,.23,7.59-.04,11.14,.6,1.41,.25,2.76,.62,4.25,.79,3.7,.43,7.47,.54,11.14,.98,2.65,.32,4.94,1.25,7.62,1.27,2.22,.02,4.33,.68,6.53,.79,1.27,.06,2.13-.44,3.31-.73,1.35-.34,2.77-.51,4.13-.85,2.77-.69,5.66,.05,8.45-.79s4.28-1.36,6.22-3.42c3.58-3.81,7.38-7.52,10.16-11.93,3.05-4.83,6.07-9.61,9.57-14.17,1.44-1.88,3.07-3.51,4.71-5.26,1.95-2.09,2.88-4.47,4.49-6.76,.94-1.34,1.34-2.77,2.01-4.22,.9-1.94,2.14-3.77,3.16-5.66,.94-1.74,1.44-3.62,2.42-5.34,1.02-1.79,2.17-3.29,2.95-5.2,1.17-2.88,3.09-5.46,4.4-8.31,1.18-2.56,2.13-5.04,2.95-7.71,.75-2.44,2.21-4.91,3.44-7.14,.24-.07,.45-.02,.15-.55Z"/><path class="i" d="M372.64,126.12c-1.73,3.34-3.4,6.93-5.42,10.08-.31,.48-.94,1.23-1.05,2.04v.26c1.18,3.65,2.53,7.13,4.21,10.56,1.05,2.15,1.74,4.45,2.76,6.6,.64,1.37,1.61,2.63,2.37,3.95,2.14,3.71,4.18,7.66,5.93,11.58,1.23,2.76,1.47,5.78,.56,8.68-.5,1.61-1.49,3.32-1.22,5.03,.21,1.29,.91,2.72,1.42,3.94,1,2.39,2.41,4.18,2.53,6.84,.06,1.41,.28,2.72,.28,4.15s-.19,2.93,.36,4.29c1.21,2.97,3.93,5.24,5.84,7.84,.83,1.14,1.41,2.41,2.13,3.61,1.06,1.77,1.63,3.64,2.64,5.39,2.06,3.61,4.11,7.44,5.92,11.12,.54,1.1,.9,2.27,1.41,3.39,.53,1.17,1.51,2.1,1.83,3.31,.45,1.72,.71,3.36,.7,5.13,0,.97-.1,2-.01,2.96,.07,.76,0,2.36,.28,3.06,.35,.88,1.82,1.45,2.55,2.14,1.25,1.18,2.88,2.06,3.88,3.43,.7,.95,1.54,2.29,1.75,3.4,.25,1.33-.01,2.94,0,4.31,0,1.13-.29,2.07-.28,3.2,.01,1.56,.21,2.18,.92,3.58s1.48,2.63,2.17,3.96c.78,1.51,1.28,3.19,2.05,4.74,1.85,3.75,2.87,7.71,5.06,11.35,1.81,3,5.52,3.95,8.08,6.31,1.31,1.21,2.16,2,2.53,3.62,.56,2.42,1.33,5.12,2.32,7.41,1.29,2.97,2.26,6.1,3.59,9.08,1,2.24,2.93,5.17,3.38,7.57"/><path class="i" d="M418.4,299.23c-1.84-11.43-3.66-22.83-3.66-34.43"/><path class="i" d="M451.33,384.75c-.51-4.04-1.32-8.04-1.62-12.1-.18-2.38-.55-4.71-1.01-7.06-.87-4.47-1.68-8.92-2.71-13.36-.33-1.44-.78-3.02-.99-4.4-.26-1.75,1.09-3.92,1.74-5.47,.73-1.73,1.41-3.48,2.09-5.23,.77-1.98,1.72-3.9,2.25-5.95,.85-3.27,1.74-6.51,2.47-9.8,.32-1.45,.46-2.88,.91-4.31,.21-.66,.34-1.26,.35-1.95"/><path class="i" d="M199.04,356.84c4.25-1.74,8.5-3.35,12.96-4.52,2.26-.59,4.61-.93,6.85-1.56,4.34-1.21,8.86-2.7,13.36-3.43,3.51-.57,7.07-.92,10.47-1.96,2.49-.76,4.54-2.7,6.78-3.91,1.96-1.06,3.23-1.63,5.54-1.6,2.92,.04,6.02,.05,8.95,.29,8.89,.72,17.91-.48,26.83-.56,2.18-.02,3.96,.57,6.02,1.08,2.82,.7,6.34,.31,9.12-.27,4.47-.94,8.63-2.89,12.95-4.25"/><path class="i" d="M330.19,345.16c-4.17,.68-7.76,1.37-11.88,1.32-1.71-.02-3.43,0-5.14,0-2.24,0-4.29,.41-6.5,.54-4.41,.27-8.85,.52-13.27,.52-2.39,0-5.03,.35-7.34-.25-2.03-.53-3.82-.99-5.72-1.88-1.63-.76-2.74-1.61-4.19-2.6-.51-.35-2.3-1.25-2.61-1.1"/><path class="i" d="M329.34,357.1c6.35-.99,12.71-1.87,19-2.99,1.05-.19,2.69-.4,3.37-.99"/><path class="i" d="M318.01,213.05c2.1-4.48,3.99-9.45,6.44-13.84,.6-1.07,1.36-2.04,1.94-3.13,.79-1.49,1.53-2.88,1.89-4.52,.39-1.76,.43-3.69,.51-5.49,.07-1.69-.05-3.37,.17-5.07,.21-1.64,.96-3,1.35-4.58,.65-2.63,1.33-6.26,4.11-7.74,2.65-1.41,6.44-1.64,9.41-1.21,1.78,.26,3.55,.68,5.33,.94,2.03,.3,4.14,.44,6.08,1.11,1.76,.61,3.62,3.72,4.36,5.33,1.39,3.05,3.97,4.69,6.49,6.96,1.98,1.78,3.39,4.05,4.51,6.31,1.72,3.48,4.63,6.69,7.33,9.56,1.58,1.68,2.66,3.07,4.62,4.46,1.22,.86,2.73,1.62,3.73,2.7"/><path class="i" d="M273.83,102.96c2.52,6.05,5.11,12.5,5.1,19.1,0,1.94,.16,3.92-.21,5.82-.2,1.04-.21,2.23-.92,2.66,4.65,3.65,9.05,7.29,13.26,11.35,1.54,1.49,2.68,3.28,4.28,4.75,3.87,3.54,7.38,7.31,11.79,10.33,4.24,2.91,8.06,6.36,12.24,9.39,3.97,2.87,9.08,3.44,13.95,3.44"/><path class="g" d="M266.46,131.08c-3.61-1.24-6.99-2.38-10.21-4.26-1.47-.86-2.79-1.94-4.25-2.79-1.91-1.11-3.87-2.08-5.66-3.35-2.42-1.72-4.74-1.02-7.66-.99-1.52,.02-3.24,.21-4.66-.24-1.22-.38-2.14-1.39-3.09-2.14-1.49-1.2-3.04-2.77-4.13-4.26"/><path class="g" d="M330.73,237.13c-.51,.47-1.01,.87-1.3,1.49-.14,.3-.26,.6-.36,.92-.22,.65-.33,1.32-.41,1.99-.14,1.19-.24,2.51,.22,3.66,.25,.63,.46,1.24,.77,1.85,.13,.27,.21,.55,.35,.81,.16,.32,.36,.61,.48,.94,.19,.54,.57,1.02,.85,1.53,.24,.43,.52,.85,.79,1.27s.59,.68,.96,.99c.39,.34,.78,.66,1.19,.98,.78,.59,1.66,.93,2.64,1.11,1.08,.2,2.24,.28,3.33,.11,.65-.1,1.31-.19,1.94-.38,.62-.19,1.32-.35,1.89-.67,.53-.3,1.04-.77,1.49-1.17,.38-.34,.73-.88,.9-1.35,.28-.79,.52-1.61,.51-2.44,.14,.27,.1,.66,.1,.95,0,.76-.03,1.5-.19,2.25-.15,.7-.23,1.48-.66,2.07-.23,.32-.45,.5-.79,.7-.37,.22-.7,.49-1.06,.71-.68,.43-1.45,.7-2.18,1.04-.79,.37-1.62,.54-2.49,.64-.81,.09-1.61,.07-2.41,.02-.93-.06-1.95-.08-2.86-.29-1.6-.37-3.01-1.01-3.96-2.32-.56-.77-1.01-1.61-1.52-2.41-.51-.82-.83-1.71-1.1-2.62-.49-1.62-.7-3.33-.7-5.02,0-.67-.03-1.32,.1-1.98s.26-1.33,.49-2c.2-.57,.44-1.11,.76-1.64,.12-.2,.28-.32,.44-.49,.17-.18,.28-.4,.49-.55,.39-.27,.8-.58,1.34-.72Z"/><path class="g" d="M199.03,260.16c3.58-1.07,7.1-2.25,10.74-3.13,2.25-.54,4.54-1.2,6.86-1.39s4.7-.59,7.07-.83c1.2-.12,2.35-.38,3.54-.54s2.46-.19,3.69-.3c1.27-.12,2.52-.14,3.79-.3,1.07-.13,2.14-.25,3.21-.38,.99-.12,2-.33,2.96-.6,1.27-.36,2.58-.62,3.84-1,2.29-.7,4.61-1.82,7.04-2.03,2.22-.19,4.45-.36,6.68-.19,1.97,.15,3.95,.05,5.77,.93,1.08,.52,2.4,.86,3.34,1.58,1.04,.79,2.12,1.55,3.26,2.21,1.2,.7,2.55,1.16,3.86,1.64,.88,.32,1.81,.64,2.74,.79,2.56,.41,5.24,.6,7.82,.23,1.28-.19,2.53-.37,3.77-.75,1.49-.46,3.17-.93,4.74-1.03,1.25-.09,2.31-.05,3.54,.09s2.67,.01,3.79,.59c.83,.43,1.56,1.04,2.4,1.48,.93,.48,1.81,1.19,2.8,1.54,2.43,.85,5.45,.85,8,.78,1.59-.04,3.19,.11,4.79,.03,1.38-.07,2.56-.33,3.82-.83,1.03-.4,2.03-.81,3.03-1.27,.74-.34,1.55-.59,2.26-1,.92-.53,1.43-1.44,2.26-2.05,.75-.55,1.45,.03,2.03,.54,1.09,.95-.11,2-1.07,2.57-1.53,.91-3.09,1.85-4.71,2.61-2.68,1.25-5.78,2.57-8.84,2.47-3.31-.11-6.61-.48-9.89-.88-1.09-.13-2.11-.42-3.18-.58-.82-.12-1.9-.38-2.6-.8-.81-.48-1.51-1.06-2.35-1.51-.93-.5-1.97-.84-3.04-.97-.87-.11-1.83-.25-2.71-.15-1.06,.12-2.18,.59-3.2,.87-1.8,.49-3.58,1.14-5.4,1.53-2.33,.49-4.64,.3-6.92-.4-1.34-.41-2.75-.44-4.1-.87-1.53-.49-2.94-1.1-4.35-1.83-1.08-.56-2.03-1.3-3.13-1.81-1.28-.6-2.56-1.13-3.89-1.63-.82-.31-1.63-.47-2.49-.64-1.31-.26-2.78-.53-4.13-.34-2.44,.35-4.89,.63-7.31,1.15-1.38,.3-2.72,.75-4.08,1.11-1.63,.44-3.28,.72-4.94,1.03-3.54,.67-7.1,1.02-10.66,1.5-2.55,.35-5.05,.86-7.5,1.6-1.48,.44-2.88,.83-4.42,1.01-1.4,.16-2.79,.48-4.18,.71-1.51,.25-3.03,.52-4.51,.92-.54,.15-1.1,.22-1.64,.36-.73,.19-1.42,.49-2.17,.63-.98,.19-1.93,.62-2.9,.89-.82,.22-1.6,.55-2.42,.78-.58,.16-1-.04-1.57-.04,.01,.03,.02,.05,.86-4.09Z"/><path class="g" d="M312.37,245.84c.37,1.5,.82,2.94,.9,4.47,.02,.51,.06,1.03,.15,1.53,.15,.81,.51,1.56,.64,2.37,.1,.63,.23,1.27,.3,1.91,.03,.25,.2,.79,.06,1.05-.26,.46-1.68,.79-2.15,.84-1.41,.13-3.2-.17-4.45-.86-.29-.16-.44-.22-.35-.52,.05-.18,.36-.46,.47-.64,.25-.43,.46-.87,.72-1.3,.91-1.53,1.56-3.19,2.26-4.81,.41-.97,.84-1.97,1.16-2.96,.08-.24,.29-.96,.3-1.06Z"/><path class="g" d="M289.37,253.67c-3.11,.78-6.25,1.85-9.48,1.11-.61-.14-1.31-.26-1.87-.54-.12-.06-.58-.24-.65-.33-.29-.33,.32-.74,.58-1.12,.75-1.11,1.43-2.27,2.14-3.4s1.42-2.21,2.19-3.28c.29-.4,.44-.91,.77-1.28,.72,2.16,1.87,4.17,3.35,5.96,.27,.32,.63,.61,.88,.94s.33,.7,.57,1.01c.2,.26,.59,.61,1.51,.93Z"/><path class="g" d="M275.55,253.56c-.21-2.17-.24-4.24-.35-6.39-.06-1.24,.01-2.48-.07-3.71-.05-.78-.08-1.56-.13-2.33-.03-.36-.14-.65-.06-1.01-.55,.38-.96,.99-1.31,1.52-.89,1.37-1.86,2.64-3.05,3.81-.88,.87-1.74,1.76-2.63,2.64-.39,.39-.78,.88-1.24,1.2,.1,.6,.96,.66,1.41,.93,.89,.54,1.59,1.23,2.59,1.63,1.12,.45,2.21,.88,3.28,1.42,.42,.21,.96,.38,1.56,.29Z"/><path class="g" d="M261.59,248c-1.92-.32-3.77-.83-5.69-.37-.84,.2-1.62,.49-2.47,.63-.51,.08-.94,.35-1.43,.43-.21,.03-.4-.04-.61,.01-.9-1.4-.04-3.29,.52-4.62,.63-1.49,1.08-3.01,1.65-4.51,.25-.66,.5-1.32,.78-1.97,.15-.34,.25-.95,.5-1.24,.31,.34,.41,.87,.59,1.27,.43,.91,1.01,1.74,1.43,2.66,.64,1.39,1.4,2.79,2.2,4.11,.3,.5,.81,.82,1.08,1.35,.17,.35,.29,.63,.52,.94,.26,.33,.58,.78,.94,1.31Z"/><path class="g" d="M245,250.31c-2.21,.68-3.85,1.31-6.08,1.46-1.14,.08-2.26,.51-3.43,.45-1.85-.09-3.6-.2-5.4-.51,1.43-2.39,2.89-4.85,3.78-7.49,.54-1.59,1.03-3.19,1.56-4.78,.26-.78,.41-1.83,.86-2.54,.29,.42,.42,.95,.64,1.41,.41,.86,.99,1.63,1.44,2.47,.47,.88,1.03,1.65,1.55,2.5,.64,1.04,1.03,2.12,1.75,3.12,.58,.81,1.18,1.61,1.83,2.38,.25,.3,.42,.71,.69,.98s.65,.27,.82,.55Z"/><path class="g" d="M225.62,252.25c-1.91,.28-3.8,.63-5.71,.85-1.51,.18-2.9,.43-4.36,.83-.61,.17-1.25,.11-1.87,.28-.57,.16-1.08,.43-1.67,.55-.35,.07-.87,.3-1.23,.2-.07-.26,.25-.48,.39-.7,.4-.62,.6-1.38,.93-2.03,.45-.91,1-1.77,1.45-2.68,.39-.79,.62-1.65,.91-2.48,.54-1.55,1.38-3.07,1.7-4.67,.12-.6,.33-1.18,.45-1.79,.05-.28,.06-.61,.22-.84,.33,.35,.54,.82,.8,1.22,.51,.8,1.07,1.55,1.66,2.3,1.13,1.44,1.74,3.16,2.81,4.65,.69,.96,1.46,1.9,2.12,2.88,.31,.46,.72,.87,1.41,1.42Z"/><path class="g" d="M208.52,255.54c-2.03,.41-4.78,.73-6.55,1.99-.24,.17-.41,.4-.69,.51,.29-.67,.57-1.35,.86-2.02,.59-1.36,.81-2.8,1.17-4.22,.26-1.02,.54-2.04,.81-3.06,.15-.54,.07-1.44,.38-1.92,.74,1.15,1.15,2.58,1.78,3.79,.31,.59,.57,1.22,.96,1.78,.27,.38,.6,.69,.82,1.1,.2,.37,.31,.77,.53,1.12,.09,.15,.44,.47,.37,.67-.12,.33-.59,.28-.46,.27Z"/><path class="g" d="M329.31,333.49c-1.15,.05-2.49-.02-3.64,.22-.47,.1-.94,.18-1.4,.29-.69,.15-1.41,.2-2.08,.39s-1.28,.45-1.92,.66c-.42,.13-.82,.22-1.23,.41-.46,.22-.93,.42-1.37,.68-.17,.1-.64,.24-.7,.41-.07,.19,.11,.83,.27,.87s.51-.16,.65-.21c.47-.18,.94-.39,1.43-.55,.72-.23,1.41-.51,2.13-.74,.78-.24,1.6-.4,2.37-.69,1.32-.5,2.72-.88,4.02-1.41,.27-.11,1.59-.64,1.48-.33Z"/><path class="g" d="M329.32,344.98c1.4-.58,2.83-1.23,4.37-1.44,1.01-.14,2.01-.24,3.03-.33s1.93-.23,2.93-.23c.31,0,.75-.11,1,.04-.16,.1-.32,.09-.5,.14-.42,.11-.81,.3-1.21,.45-.88,.35-1.78,.65-2.71,.85-1.61,.35-3.23,.56-4.85,.88-.97,.19-1.92,.35-2.89,.47-.83,.1-1.71,.23,.83-.84Z"/><path class="g" d="M288.36,180c-1.28-2.14-2.28-4.43-3.38-6.67-.37-.75-.66-1.51-1.05-2.25-.22-.42-.37-.84-.52-1.28-.31-.91-.81-1.75-1.15-2.65-.19-.51-.5-1-.73-1.5-.3-.66-.54-1.35-.91-1.97-.29-.49-.57-.97-.8-1.48-.21-.46-.37-.97-.64-1.41-.58-.91-1.24-1.8-1.9-2.66-.55-.72-1.18-1.44-1.85-2.07-.82-.78-1.4-1.76-2.22-2.54s-1.53-1.69-2.42-2.43c-.42-.35-.85-.7-1.23-1.09-.33-.34-.75-.54-1.12-.83-1.02-.81-2.06-1.63-3.23-2.24-2.16-1.14-4.5-2.26-6.88-2.94-1.15-.33-2.28-.73-3.48-.9-1.29-.18-2.6-.25-3.91-.32-1.17-.06-2.3-.28-3.48-.23-1.28,.06-2.6,.09-3.87,.31-.67,.12-1.36,.18-2.03,.3-.61,.11-1.2,.32-1.81,.44-1.22,.25-2.19,.77-3.29,1.31s-2.23,.91-3.27,1.53c-1.34,.79-2.78,1.33-4.04,2.26-1.89,1.4-3.9,2.63-5.66,4.17s-3.43,3.38-4.96,5.24c-1.61,1.95-3.33,3.79-4.57,5.98-.99,1.77-1.99,3.54-2.84,5.38-.77,1.66-1.5,3.38-1.95,5.15-.35,1.38-.69,2.84-.82,4.25-.06,.59,0,1.2-.11,1.78-.06,.34-.11,.65-.08,.99s.11,.77,.5,.89c.21-.21,.32-.64,.43-.9,.18-.41,.31-.84,.41-1.28,.26-1.1,.45-2.21,.81-3.28,.91-2.72,2.31-5.31,3.78-7.79,1.19-2.01,2.25-4.12,3.72-5.98,.78-.99,1.61-1.94,2.45-2.88,.99-1.11,1.97-2.29,3.14-3.25,1.26-1.02,2.59-1.95,3.91-2.9,1.2-.87,2.59-1.43,3.87-2.18,1.47-.86,3.16-1.52,4.77-2.13,1.81-.69,3.7-1.28,5.62-1.62,1.46-.26,2.95-.31,4.41-.56,1.35-.24,2.88-.25,4.25-.11,1.33,.14,2.69,.07,4.02,.23,1.4,.17,2.81,.38,4.18,.7,1.17,.27,2.39,.6,3.51,1.01,.99,.37,1.92,.79,2.87,1.23,.76,.36,1.49,.75,2.23,1.15,.69,.37,1.21,.91,1.83,1.37,.52,.39,1.02,.72,1.48,1.18,.66,.66,1.15,1.48,1.88,2.06,.33,.26,.55,.58,.83,.89,.25,.28,.56,.52,.82,.79,.67,.7,1.25,1.46,1.9,2.18,.53,.58,1.03,1.18,1.54,1.78,.56,.67,.95,1.42,1.44,2.13,.66,.95,1.33,1.86,1.91,2.85,.53,.9,1.18,1.76,1.67,2.68s.93,1.75,1.44,2.6c.56,.93,1.04,1.85,1.44,2.84,.3,.73,.77,1.41,1.08,2.14,.24,.56,.43,1.34,.89,1.78,.18,.17,.5,.25,.71,.39,.16,.11,.29,.24,.45,.35,0,.04-.03,.06,.01-.01Z"/><path class="g" d="M285.32,190.01c-.84,.5-2.46,1.24-3.12,2.12-.17,.22-.33,.43-.53,.63-.62,.63-1.14,1.13-1.65,1.87-1.17,1.71-2.31,3.39-3.08,5.3-.69,1.7-1.65,3.32-2.71,4.84-.47,.67-.96,1.35-1.48,1.98-.63,.77-1.47,1.41-2.16,2.13-.8,.82-1.79,1.63-2.79,2.22-1.46,.86-2.78,1.72-4.41,2.31-.66,.24-1.35,.43-2.01,.67-.54,.19-1.03,.4-1.6,.49-.39,.07-.78,.1-1.17,.19-.99,.22-1.87,.42-2.89,.5-1.06,.08-2.11,.27-3.17,.36-2.41,.2-4.83,.33-7.25,.32-2.2-.01-4.43-.1-6.57-.6-1.63-.39-3.21-.97-4.65-1.77-1.24-.69-2.43-1.44-3.73-2.03-1.19-.54-2.17-1.16-3.21-1.91-1.12-.81-2.12-1.74-3.24-2.53-.47-.33-.9-.71-1.35-1.06-.55-.42-1.14-.77-1.67-1.22-1.05-.88-2.13-1.67-3.1-2.64-.9-.89-1.96-1.59-3.05-2.26-.85-.52-1.7-1.11-2.58-1.57-.94-.48-1.94-.81-2.98-1.11,.39,.09,.72,.34,1.06,.53,.52,.31,1.1,.5,1.6,.84,.74,.51,1.3,1.21,1.99,1.78,.44,.36,.82,.8,1.2,1.21,.69,.74,1.49,1.37,2.17,2.11,1.29,1.41,2.51,2.89,3.91,4.21,3.19,3.02,7.22,5.14,11.21,7.09,1.37,.67,2.83,1.21,4.25,1.77,.42,.17,.83,.32,1.27,.45,.52,.15,1.01,.37,1.51,.53,.34,.11,.7,.05,1.03,.04,.32,0,.65,.13,.97,.16,.36,.03,.74,0,1.1-.03,.76-.08,1.45-.1,2.21-.1,.44,0,.89,.06,1.33,.05,.54,0,1.12-.12,1.66-.16s1.02-.17,1.54-.19c.4-.01,.81-.01,1.22-.03,.74-.03,1.47-.17,2.21-.21,.75-.05,1.47-.13,2.2-.29,.88-.18,1.78-.24,2.65-.49,1.18-.34,2.59-.42,3.68-1,.68-.36,1.39-.62,2.13-.85,.91-.28,1.75-.59,2.63-.95,.28-.12,.5-.24,.75-.41,.4-.28,.87-.39,1.27-.65,.3-.2,.51-.45,.84-.63,.39-.21,.7-.42,1.02-.72,.55-.52,1.15-.96,1.76-1.43,.77-.59,1.36-1.26,2.04-1.94,.72-.72,1.12-1.66,1.77-2.43,.48-.57,.94-1.13,1.31-1.77,.3-.53,.44-1.11,.68-1.67,.39-.94,.84-1.85,1.28-2.76,.47-.96,.89-1.95,1.4-2.89,.42-.79,.85-1.56,1.34-2.32,.5-.77,.99-1.45,1.61-2.15,.44-.5,.97-.85,1.47-1.29,.26-.23,.58-.49,.88-.64-.03,0-.05,.01,.02-.02Z"/><path class="g" d="M276.52,208.63c-.73,.75-1.51,1.46-2.09,2.32-.36,.52-.7,1.06-1.06,1.57-.49,.71-1.21,1.3-1.78,1.96-.76,.89-1.6,1.74-2.51,2.5-1,.84-1.87,1.78-2.8,2.68-.75,.72-1.72,1.12-2.61,1.66-.49,.3-.92,.66-1.4,.95-1.1,.68-2.37,1.11-3.56,1.63-.73,.32-1.43,.69-2.2,.93-.69,.22-1.37,.43-2.05,.67-1.13,.4-2.36,.71-3.56,.82-3.02,.29-6.15-.17-9.05-.94-1.37-.36-2.56-1.01-3.84-1.58-.47-.21-.93-.4-1.42-.58-.59-.22-1.12-.55-1.71-.78-.86-.33-1.65-.45-2.43-.95-.7-.45-1.46-.77-2.17-1.21s-1.47-.68-2.24-.99c-.64-.26-1.19-.55-1.86-.76,.41,.19,.79,.46,1.15,.73,.58,.44,1.28,.79,1.94,1.15,1.98,1.08,3.85,2.38,5.94,3.24,.61,.25,1.15,.6,1.75,.85,.49,.2,1,.3,1.5,.49,.6,.22,1.16,.53,1.73,.8s1.15,.4,1.74,.58c1.03,.31,2,.63,3.07,.82,.56,.1,1.14,.08,1.71,.14s1.16,.1,1.74,.05,1.19-.06,1.72-.23c.32-.1,.57-.24,.92-.29,.29-.05,.6-.03,.89-.07,.53-.09,1.06-.28,1.58-.41,.57-.14,1.14-.21,1.71-.33,2.44-.47,4.87-1.4,7.14-2.38,2.15-.93,3.66-2.63,5.23-4.21,1.24-1.25,2.47-2.45,3.42-3.91,.48-.73,1.07-1.39,1.57-2.1,.44-.63,.86-1.28,1.3-1.93,.64-.94,1.58-1.66,2.57-2.9Z"/><path class="g" d="M281.67,181.17c-.15,1.13-.21,2.37-.53,3.49-.16,.57-.39,1.14-.57,1.71-.32,1-1.01,1.84-1.47,2.78-.89,1.84-2.08,3.59-3.23,5.3-.99,1.47-1.87,3.01-2.92,4.44-1.05,1.43-2.42,2.56-3.86,3.63-1.39,1.03-2.89,1.97-4.44,2.79-1.46,.77-3.04,1.34-4.57,1.98s-3.17,.99-4.8,1.22c-1.27,.18-2.57,.21-3.85,.28-1.45,.08-2.88,.19-4.33,.16-2.6-.05-5.17-.32-7.75-.65-2.61-.34-5.12-.75-7.64-1.49-1.74-.52-3.46-1.03-5.1-1.8-1.47-.69-2.85-1.42-4.22-2.29-.56-.35-1.08-.73-1.59-1.13-.63-.49-1.36-.84-1.93-1.39-.72-.69-1.39-1.45-2.18-2.08-.46-.36-.85-.78-1.33-1.12-.64-.45-1.29-.87-1.95-1.29-.46-.29-.89-.66-1.38-.89-.42-.2-.89-.32-1.3-.54-1.31-.7-2.68-1.14-4.19-.9,.33-.29,.85-.43,1.29-.45,.81-.05,1.84-.05,2.61,.23,.6,.22,1.19,.53,1.75,.84,.6,.33,1.21,.56,1.76,.96,.91,.66,1.83,1.27,2.72,1.96,.63,.5,1.24,.99,1.78,1.58,.53,.57,1.02,1.05,1.69,1.48s1.21,.94,1.82,1.41c.81,.62,1.57,1.21,2.44,1.76,.72,.45,1.57,.75,2.33,1.15,.82,.44,1.87,.7,2.78,.96,1.28,.37,2.52,.72,3.84,.91,2.32,.33,4.59,.87,6.92,1.1,.8,.08,1.61,.05,2.41,.11,1.05,.08,2.12,.2,3.17,.22,1.11,.01,2.23,.02,3.34,.04,1.02,.02,2.07-.16,3.09-.27,.9-.09,1.74-.45,2.63-.61,.99-.18,2.06-.24,3-.54,1.92-.62,3.88-1.23,5.67-2.15,.81-.41,1.53-.98,2.31-1.45,.87-.53,1.89-.97,2.65-1.64,1.2-1.05,2.38-2.17,3.42-3.38,1.07-1.25,2-2.47,2.83-3.87,.41-.69,.82-1.4,1.23-2.1,.38-.65,.79-1.27,1.16-1.92,.22-.38,.48-.69,.76-1.02,.2-.24,.31-.51,.5-.75,.31-.38,.62-.73,.9-1.13,.44-.62,.92-1.27,1.24-1.95s.53-1.32,.76-2.01c.16-.47,.15-.91,.32-1.66Z"/><path class="g" d="M285.26,184.02c-.62-.38-1.27-.67-1.74-1.18-.14-.16-.27-.31-.42-.46-.35-.33-.6-.68-.83-1.1-.6-1.09-1.28-2.1-1.8-3.22-.3-.65-.64-1.23-1.05-1.83-.46-.65-.9-1.37-1.42-1.97-1.38-1.58-3.21-2.83-4.46-4.51-.83-1.11-1.75-2.15-2.65-3.2-1.16-1.35-2.5-2.53-3.83-3.73-1.68-1.53-3.6-3.11-5.63-4.22-.92-.5-1.76-1.16-2.73-1.58-1.05-.46-2.08-.93-3.19-1.26-.73-.22-1.49-.4-2.24-.57-1.09-.25-2.23-.58-3.35-.63-1.29-.06-2.53-.25-3.83-.23-1.17,.02-2.28,.2-3.43,.32s-2.23,.4-3.36,.6c-1.16,.2-2.25,.46-3.32,.92-1,.42-1.96,.74-2.88,1.3-.82,.5-1.61,1.07-2.38,1.64-.74,.55-1.5,1.06-2.17,1.69s-1.24,1.21-1.86,1.82c-1.36,1.32-2.62,2.66-3.78,4.15-.41,.52-.86,1.01-1.26,1.53-.58,.76-1.32,1.35-1.84,2.15-.85,1.31-1.77,2.57-2.55,3.93-1.66,2.92-3.29,5.88-4.64,8.94-.38,.87-.89,1.66-1.24,2.54s-.85,1.75-1.2,2.65-.8,1.82-1.31,2.66c-.33,.54-.68,1.18-1.09,1.68,.05-.51,.44-1.07,.64-1.54,.39-.89,.64-1.82,1.04-2.71,1.02-2.25,1.57-4.66,2.55-6.93,.46-1.06,.86-2.14,1.36-3.18,.63-1.29,1.12-2.63,1.81-3.89,.73-1.34,1.34-2.71,2.11-4.04,.92-1.6,2.03-3.11,3.16-4.59,.56-.73,1.24-1.38,1.85-2.08,.57-.65,1.12-1.34,1.74-1.94,1.41-1.36,3.1-2.42,4.65-3.63,.7-.54,1.46-.96,2.21-1.44,.65-.42,1.25-.91,1.91-1.32,1.53-.96,3.27-1.68,4.99-2.28,.74-.26,1.54-.45,2.31-.62,.67-.15,1.31-.39,1.97-.54,1.8-.4,3.74-.32,5.57-.24,1.62,.07,3.28,.16,4.88,.43,1.45,.24,2.92,.79,4.31,1.22,1.09,.33,2.01,.95,2.98,1.49,1.04,.59,2.07,1.24,3.04,1.93,.86,.61,1.76,1.19,2.57,1.86,.82,.68,1.57,1.45,2.39,2.13,.9,.75,1.81,1.5,2.62,2.34,.58,.6,1.05,1.32,1.64,1.91,.46,.45,.88,.85,1.29,1.36,.63,.78,1.28,1.56,1.77,2.41,.58,1,1.22,1.97,1.92,2.9,.48,.63,1.07,1.1,1.6,1.71,.41,.47,.79,.95,1.19,1.42,.55,.64,1.05,1.29,1.38,2.07,.39,.9,1.05,1.65,1.45,2.57,.33,.75,.39,1.64,.89,2.31,.36,.48,.84,.94,1.32,1.34,.17,.14,.35,.29,.53,.41,.21,.13,.44,.17,.66,.27-.13,.22-.37,.06-.57,.04-.22-.02-.44,.11-.24,0Z"/><path class="g" d="M296.19,163.79c-1.44,.38-2.86,.8-4.3,1.17-.68,.17-1.28,.56-1.94,.8-.75,.28-1.32,.62-1.99,1.01-.47,.27-.86,.6-1.4,.75s-1.62,.21-1.72-.46c-.14-.92,1-1.72,1.73-2.13,1.23-.67,2.56-1.3,3.97-1.54,1.25-.21,2.61-.57,3.9-.48,.6,.04,2.11,.13,1.74,.87Z"/><path class="g" d="M287.47,149.12c-1.77,1.19-3.64,2.2-5.42,3.36-.7,.46-1.57,.95-2.42,1.07-.28,.04-.64,.19-.84,.03-.18-.15-.15-.44-.13-.63,.14-1.06,1.37-1.74,2.21-2.32,1.74-1.19,3.59-2.62,5.89-2.47,.8,.05,.61,.55,.71,.94Z"/><path class="g" d="M272.55,135.85c-1.03,1.44-2.21,2.73-3.33,4.1-.68,.83-1.22,1.91-2.1,2.58-.27,.21-1.18,.63-1.4,.19-.11-.23,.15-.76,.23-.97,.22-.59,.64-1.1,.99-1.62,.56-.84,1.24-1.61,1.94-2.34,.63-.66,1.29-1.42,2.08-1.94,.36-.23,.79-.41,1.21-.26s.38,.27,.39,.26Z"/><path class="g" d="M248.06,131.11c-.24,1.4-.5,2.8-.55,4.21-.03,.88,.01,1.78-.05,2.64-.03,.38,.14,1.38-.49,1.41-.07,0-.6-.1-.67-.14-.35-.16-.24-.77-.26-1.14-.07-1.33,.02-2.63,.15-3.95,.09-.85,.1-1.95,.61-2.7,.15-.22,.66-.69,1.02-.57,.17,.06,.49,.49,.24,.23Z"/><path class="g" d="M232.15,142.41c.29-.59,.44-1.21,.47-1.85l-.16-.11c-.1-.16-.16-.25-.24-.42-.21-.43-.5-.83-.73-1.25-.45-.82-.76-1.71-1.19-2.53-.28-.52-.5-1.02-1.07-1.28-.52-.23-.78,.31-.78,.77,0,.37,.2,.81,.31,1.16,.12,.43,.28,.86,.43,1.28s.28,.92,.53,1.32c.22,.35,.5,.66,.72,1.01s1.09,2.2,1.73,1.89Z"/><path class="g" d="M222.31,149.67c-.04-.69-.21-1.35-.48-1.98-.36,0-.61-.25-.85-.47-.33-.31-.72-.56-1.01-.9-.66-.79-1.31-1.56-2.08-2.26-.23-.21-.77-.82-1.16-.68-.2,.07-.31,.49-.35,.67-.07,.38,.08,.77,.27,1.11,.46,.85,1.26,1.51,1.9,2.22,.33,.36,.62,.71,1,1.04s.78,.51,1.15,.8c.28,.22,.76,.62,1.16,.61,.56-.01,.58-.73,.45-.15Z"/><path class="g" d="M214.39,157.57c.32-.68,.79-1.28,.15-1.82-.29-.25-.64-.37-.96-.58-.74-.47-1.33-1.11-1.95-1.7-.38-.36-2.11-1.78-2.31-.49-.14,.91,.66,1.67,1.25,2.29,.64,.68,1.3,1.38,2.24,1.68,.75,.24,1.71,.18,1.58,.61Z"/><path class="g" d="M277.65,179.18c-.64-.86-1.44-1.75-1.89-2.68-.16-.33-.28-.61-.52-.92-.41-.54-.93-.99-1.4-1.48-.98-1.02-1.84-2.1-2.73-3.18-.65-.79-1.51-1.44-2.2-2.21-.77-.85-1.46-1.75-2.23-2.59-1.05-1.16-2.15-2.28-3.29-3.33-1.47-1.37-3.24-2.4-5.03-3.36-1.69-.91-3.16-1.88-5.05-2.43-1.08-.31-2.16-.61-3.29-.67-.75-.04-1.5-.18-2.25-.14-.69,.04-1.31-.11-1.99-.07-2.8,.18-5.39,.65-8.01,1.59-3.04,1.09-5.67,2.98-8.18,4.85-4.85,3.6-8.41,8.41-11.36,13.46-1.32,2.25-2.33,4.69-3.47,7-.75,1.53-1.78,3.1-1.82,4.85-.04,1.62,1.32,3.62,2.52,4.71,.49,.45,.88,.98,1.41,1.38,.5,.37,1.06,.68,1.54,1.07,1.18,.96,2.19,2.1,3.43,2.99,.51,.36,.92,.76,1.45,1.09,.68,.43,1.11,1.05,1.75,1.52s1.26,.9,1.93,1.26c.57,.3,1.22,.45,1.76,.75,.21,.12,.28,.27,.53,.37s.46,.13,.72,.25c.47,.23,.88,.28,1.39,.4,1.94,.43,3.63,1.39,5.5,1.94,3.28,.96,6.84,1.12,10.24,1.02,1.45-.04,2.88-.3,4.3-.47,1.12-.14,2.21-.19,3.31-.46,2.92-.74,6.01-1.66,8.47-3.37,.84-.58,1.85-1.31,2.5-2.08,.68-.8,1.42-1.51,2.12-2.3,1.55-1.75,3.23-3.43,4.46-5.41,.97-1.56,2.35-3.03,3.05-4.72,.48-1.14,1.28-2.09,1.85-3.19,.35-.68,.5-1.52,.52-2.27,.02-.7,.25-1.39,.2-2.08-.04-.53-.11-.95-.22-1.1Z"/><path class="j" d="M244.42,158.31c-1.85-.07-3.69-.28-5.47,.24-.97,.28-1.81,.76-2.66,1.27-1.8,1.09-3.71,2.03-5.04,3.66-1.34,1.65-2.85,3.17-3.75,5.08-.77,1.65-1.39,3.36-1.83,5.12-.41,1.63-.52,3.36-.67,5.02-.14,1.55-.16,3.35,.13,4.88,.33,1.73,.93,3.46,1.44,5.15,.23,.75,.53,1.52,.91,2.2,.45,.81,.69,1.69,1.22,2.47,1.1,1.61,2.58,2.7,4.08,3.97,1.33,1.13,3,1.63,4.69,2.09,3.58,1,7.57,.5,10.88-1.09,2.1-1.01,4.5-2.12,6.08-3.79,.82-.87,1.71-1.69,2.24-2.74,.66-1.32,1.08-2.61,1.37-4.04,.58-2.89,.47-5.88,.38-8.8-.08-2.55-.1-5.46-1.1-7.88-.96-2.34-1.77-4.99-3.34-7.05-1.2-1.57-2.5-2.92-4.2-4-1.05-.67-2.16-1.5-3.47-1.61-.45-.04-1.96,.3-1.92-.13Z"/><path class="g" d="M241.62,159.68c-2.23,.62-4.3,1.01-6.12,2.33-.63,.46-1.37,.82-1.97,1.31-1.45,1.19-2.61,2.56-3.66,4.08-1.01,1.46-2.02,3.08-2.35,4.82-.26,1.34-.54,2.67-.73,4-.39,2.72,.11,5.66,.63,8.34,.43,2.26,.92,4.52,2.1,6.55,.67,1.16,1.65,2.24,2.73,3.1,1.12,.89,2.23,1.87,3.47,2.53s2.74,1.19,4.19,1.22c.88,.02,1.68,.18,2.58,.11,.93-.08,1.81-.14,2.69-.47,1.92-.73,3.66-1.42,5.26-2.69,.92-.73,1.83-1.32,2.51-2.27,.73-1.01,1.28-2,1.82-3.09,.6-1.21,.93-2.49,1.14-3.8,.23-1.46,.52-2.78,.46-4.26-.12-2.82,.14-5.75-.44-8.55-.25-1.18-.59-2.34-.98-3.47-.43-1.26-1.34-2.18-2.07-3.28-1.06-1.62-1.95-3.18-3.56-4.39-1.1-.83-2.25-1.51-3.6-1.84-.91-.23-1.94-.22-2.85-.26-.55-.03-1.16,0-1.22,0Z"/><path class="j" d="M243.1,162.54c-1.4,.28-2.96,.31-4.02,1.22-.25,.21-.55,.48-.79,.7-.45,.44-.78,1.02-1.14,1.53-.39,.56-.75,1.11-1.03,1.72-.39,.83-.59,1.71-.98,2.54-.34,.72-.52,1.39-.69,2.16-.13,.6-.43,1.15-.55,1.75-.24,1.16-.44,2.34-.61,3.51-.3,1.99-.06,4.48,.41,6.44,.53,2.18,1.34,4.07,2.61,5.95,1.24,1.84,3.4,3.16,5.73,2.23,1.39-.55,2.54-1.59,3.35-2.76,1.11-1.6,2.07-3.33,2.57-5.19,.53-1.92,1.12-3.75,.91-5.76s-.1-4.16-.34-6.25c-.18-1.64-.68-3.35-1.31-4.89-.48-1.2-1.06-2.29-1.96-3.24-.83-.88-1.41-1.59-2.17-1.65Z"/><path d="M247.11,163.58c.72,.86,2.1,2.16,2.6,3.33,.16,.38,.27,.78,.44,1.16,.39,.9,.81,1.78,1.17,2.7,.63,1.6,1.06,3.35,1.33,5.04,.66,4.16,.06,8.5-1.29,12.49-.61,1.8-1.26,3.93-2.98,5.09-.83,.56-1.77,.73-2.65,1.18-.8,.41-1.48,.84-2.4,1.01-3.63,.66-7.29-1.04-9.81-3.38,.37,1.39,2.19,2.28,3.42,2.84,1.45,.66,2.92,1.17,4.59,1.3,.86,.07,1.66,.08,2.52,0,1.05-.08,1.9-.58,2.81-1.05,1.84-.97,2.85-2.35,4.15-3.84,2.12-2.43,3.25-5.41,3.49-8.54,.23-3.17,.11-6.46-.71-9.56-.59-2.25-1.35-4.66-2.95-6.49-.52-.6-1.16-1.18-1.75-1.71-.29-.26-.63-.46-.93-.7-.22-.18-.42-.43-1.06-.86Z"/><path class="f" d="M242.97,165.06c-.9,.08-1.67,.39-2.3,.94,.18,.56-.13,.85,.3,1.34,.2,.23,.48,.49,.79,.57,.56,.13,1.27-.09,1.54-.53,.31-.51,.32-1.97-.34-2.32Z"/><path class="f" d="M240.54,170.53c-.34-.76-.79-1.45-1.35-2.08-.13,.33-.58,.63-.77,.97-.22,.39-.33,.76-.46,1.18-.26,.83-.3,1.68-.22,2.55,.06,.69,.12,1.87,.94,2.23,.81,.36,1.65-.09,2.02-.77,.25-.45,.3-1.09,.46-1.58,.18-.54,.15-.98,.1-1.53-.07-.72-.03-1.51-.35-2.17-.22-.46-.41-.9-.98-1.02-.54-.11-1.12,.15,.63,2.23Z"/><path d="M426.51,439.33c1.63-5.51,3.07-10.97,3.17-16.74,.09-4.7,.55-9.39,.14-14.11-.52-6.07-1.5-12.07-2.38-18.1-.85-5.87-2.05-11.64-3.58-17.37-.39-1.45-1.11-2.79-1.47-4.25-.3-1.18-.37-2.41-.54-3.62-.49-3.46-1.14-6.72-2.07-10.11-.87-3.16-1.48-6.37-2.41-9.51-.97-3.29-2.04-6.65-2.8-9.98-1.58-6.92-3.17-13.82-4.56-20.79-1.42-7.13-2.98-14.24-4.85-21.28-.75-2.81-1.39-5.66-2.19-8.45-.75-2.62-1.27-5.24-1.93-7.87-.49-1.97-1.26-3.77-1.95-5.67-.68-1.88-1.13-3.58-2.41-5.2-2.16-2.71-7.13-3.06-9.3-.19-1.96,2.59-3.17,6.16-4.32,9.13-1.73,4.44-1.72,9.21-1.31,13.89,.35,3.93,.99,7.94,1.74,11.81,.36,1.86,.89,3.58,1.35,5.4,.45,1.79,.58,3.65,1.01,5.45,.83,3.46,1.09,7.03,1.15,10.59,.09,5.61,.06,11.26-.23,16.85-.25,4.87-.82,9.97-2.32,14.64-1.92,5.99-3.27,11.98-4.03,18.21-1.25,10.23-2.66,20.46-3.1,30.76-.14,3.27,.04,6.54,.21,9.81,.15,2.97-.04,5.97,.16,8.93,.32,4.69,1.09,9.74,2.89,14.13,.88,2.14,1.99,4.21,3.03,6.29,.58,1.15,1.06,2.34,1.64,3.48,.69,1.36,1.64,2.42,2.5,3.67,1.45,2.09,3.84,3.04,6.15,4.12,2.71,1.27,5.63,1.84,8.58,2.34,4.42,.75,10.13,.45,13.95-2.14,2.25-1.53,4.09-3.56,5.99-5.46,1.59-1.59,3.06-3.99,3.32-6.23,.08-.66-.03-2.6,.76-2.46Z"/><path class="f" d="M382.42,294.68c.51,4.85,.68,11.83,2.07,16.52,.99,3.34,.26,6.96,.51,10.44,.14,1.94,.57,3.92,.63,5.86,.07,2.64-.05,5.26-.21,7.9-.12,2.03-.56,4.06-1.06,6.02-.47,1.86-.53,3.72-.81,5.6-.53,3.54-1,7.38-2.23,10.76-1.15,3.17-1.36,6.51-2.18,9.75-.73,2.9-1.6,5.91-1.95,8.88-.45,3.85-1.05,7.66-1.12,11.55-.08,4.17-.67,8.29-.76,12.46-.04,1.9-.01,3.77,.11,5.66,.07,1.08-.05,2.13,.09,3.21s.37,2.17,.47,3.27c.28,2.96,.21,6.03,.77,8.95,.69,3.61,.77,7.28,1.32,10.9,.21,1.39,.73,2.72,1.07,4.07,.52,2.03,.92,4.09,1.59,6.09,1.05,3.16,2.82,6.42,4.94,9.02,1.23,1.51,2.4,2.67,4.11,3.69,1.56,.94,3.16,1.52,4.86,2.15,3.58,1.33,7.39,1.79,11.19,1.88,3.1,.07,6.09-.94,8.61-2.68,1.27-.88,2.57-1.61,3.79-2.57,1.3-1.02,2.59-2.04,3.89-3.06,1.16-.91,2.01-1.55,2.65-2.8,.27-.54,.75-.97,1.04-1.51,.41-.77,.86-1.48,1.3-2.23,.35-.6,.55-1.26,.9-1.85s.78-1.08,1.09-1.66,.41-1.23,.65-1.84c.38-.95,.81-1.73,1.07-2.74,.49-1.95,.71-3.96,.74-5.97,.02-1.02-.09-2.03,.06-3.05,.18-1.23,.41-2.32,.43-3.58,.01-1.22-.15-2.49,.03-3.71s.54-2.21,.54-3.39c0-2.6-.77-5.17-.92-7.76-.12-1.96-.47-3.87-.59-5.83-.05-.81-.28-1.56-.38-2.35-.14-1.05-.04-2.12-.16-3.17-.21-1.92-.26-3.88-.83-5.73-.26-.84-.33-1.64-.47-2.5-.19-1.19-.65-2.34-.97-3.5-1.06-3.84-1.19-7.83-2.2-11.68-.5-1.92-1.17-3.81-1.37-5.78-.2-2-.74-4.16-1.24-6.11-.48-1.84-1.38-3.56-1.94-5.38-.62-2.02-.97-4.08-1.52-6.11-.5-1.82-.84-3.69-1.44-5.48-.34-1.01-.72-1.92-.99-2.96-.25-.94-.4-1.96-.73-2.87-.62-1.73-1.17-3.32-1.51-5.14-.31-1.66-.66-3.31-.97-4.97-.38-1.99-.9-3.96-1.29-5.95-.44-2.22-.59-4.48-1.1-6.7-.36-1.58-1.07-3.25-1.63-4.78-.67-1.82-1.35-3.64-1.74-5.54-.61-2.93-1.3-5.82-2.19-8.68s-1.77-5.75-2.28-8.75c-.69-4.08-1.25-8.18-2.29-12.19-.38-1.46-.61-2.8-1.26-4.15-.43-.89-.84-1.84-1.38-2.65-.46-.69-1.06-1.98-1.73-2.44,.38,.52,.5,1.87,.76,2.47,.45,1.02,.88,2.1,1.16,3.18,.51,2.03,1,4.05,1.58,6.06,.71,2.48,.38,5.09,.65,7.62,.26,2.51,.54,5.14,1.17,7.6,.68,2.63,.92,5.29,1.52,7.94,.73,3.23,1.88,6.34,2.67,9.55,.84,3.39,1.74,6.77,2.41,10.19,.3,1.56,.85,3.01,1.21,4.55,.39,1.65,.53,3.33,.89,4.98,1.44,6.66,3.71,13.1,4.93,19.81,.32,1.75,.78,3.45,1.18,5.18,.46,2.02,.64,3.98,1.47,5.91,.54,1.26,.92,2.56,1.41,3.83,.62,1.61,1.47,3.26,1.87,4.94,2.02,8.53,3.27,17.24,4.92,25.86,.37,1.93,.62,3.94,.73,5.9,.14,2.49,.62,4.95,.91,7.42,.25,2.19,.21,4.46,.28,6.66,.06,2.01,.05,4.1-.15,6.11-.17,1.71-.48,3.27-.95,4.92-.48,1.7-.58,3.34-.84,5.08-.2,1.38-.7,2.85-1.21,4.16-.5,1.29-.92,2.63-1.49,3.89-1.07,2.39-2.59,4.47-4.42,6.36-1,1.04-2.22,1.8-3.31,2.73-1.32,1.13-2.52,2.08-4.15,2.82-2.54,1.15-5.46,2.04-8.28,1.97-2.56-.07-4.95-.37-7.45-.88-2.78-.56-5.23-2.48-7.45-4.13-1.05-.78-2.17-1.7-3.05-2.66-1.1-1.2-1.64-2.52-2.26-3.99-.67-1.58-1.24-3.31-1.77-4.95-.53-1.66-.78-3.23-1.07-4.94-.52-3.07-.65-6.22-1.02-9.32-.16-1.31-.09-2.64-.19-3.97-.13-1.7-.36-3.31-.59-4.99-.43-3.21-.76-6.38-.68-9.63,.04-1.53-.2-3.09-.07-4.62,.16-1.86,.54-3.68,.67-5.54,.29-4.32,.92-8.58,1.67-12.85,.65-3.73,1.38-7.39,1.74-11.15,.35-3.62,1.37-7.11,1.99-10.68,.27-1.56,.24-3.19,.59-4.73,.37-1.65,.98-3.25,1.34-4.9,.63-2.89,1.1-5.81,1.55-8.74,.84-5.51,.6-11.01,.88-16.54,.13-2.52-.37-4.9-.7-7.34-.14-1.01-.37-2-.6-2.98-.33-1.42-.48-2.88-.87-4.3-.58-2.13-.73-4.07-1.49-6.13-.6-1.64-.81-3.65-1.56-5.2-.31-.65-1.39-4.52-1.65-5.38Z"/><path class="k" d="M343.42,426.54c-.44,.54-3.87,4.12-4,5.68-.01,.13,.08,.49,.09,.66,.06,.98-.17,2.07-.45,3.01-.39,1.3-1.72,2.43-2.86,3.17-2.01,1.32-4.02,2.6-5.71,4.33-2.2,2.25-4.17,4.72-6.3,7.03-1.94,2.1-3.48,4.2-4.94,6.65-.81,1.35-1.5,2.77-2.34,4.11-.73,1.18-1.73,2.2-2.55,3.32-1.31,1.79-2.62,4.55-5.24,4.5-3.13-.06-3.54-3.87-3.56-6.17-.03-3.2,1.15-6.91,2.8-9.66,1.39-2.32,3.95-4.63,4.13-7.43,.11-1.74-.7-3.01-2.47-3.29-1.03-.17-2.08-.45-3.09-.12-1.48,.49-3.14,1.62-4.28,2.58-1.68,1.43-3.3,2.79-4.76,4.43-1.35,1.51-2.91,3.19-4.51,4.41-1.52,1.15-3.04,2.41-4.72,3.32-1.58,.86-3.54,1.08-5.27,1.6-1,.3-2.46,1-3.51,.62-.83-.3-1.59-1.45-1.87-2.2-.53-1.39-.04-2.69,.5-4.01,.93-2.28,2.44-4.56,4.13-6.38,2.53-2.74,5.42-5.58,8.96-6.94,2.9-1.11,5.94-1.71,8.76-3.07,1.59-.77,4.3-2.25,3.73-4.39-.33-1.22-1.63-1.9-2.82-1.98-2.65-.17-4.88,1.89-7.15,2.92-3.83,1.75-7.78,1.85-11.81,2.81-1.63,.39-3.42,.95-5.11,1.02-1.82,.08-2.37-.72-2.53-2.38-.38-3.83,2.14-7.25,5.37-9.27,3.78-2.37,8.15-2.49,12.47-2.92,3.59-.36,7.35-.6,10.96-.52,3.64,.08,7.23,.48,10.85,.7,3.69,.22,7.65,.26,11.28-.32,1.89-.3,5.13-1.48,5.8-3.36,.28-.8,.44-1.25,.28-2.01-.24-1.13-.04-1.84,.49-2.99,.88-1.93,1.34-4.43,2.72-6.11,.53-.64,1.31-.58,1.82-1.29,.8-1.11,1.35-2.71,1.62-4.03,.44-2.19,1.74-4.11,2.33-6.25,.42-1.53,1.34-2.86,1.82-4.36,.57-1.79,.87-3.62,1.52-5.4,1.22-3.34,2.33-6.71,3.55-10.05,.47-1.28,.67-2.6,1.12-3.88,.82-2.32,1.74-4.64,2.41-7.01,.48-1.7,.58-3.45,.93-5.17,.48-2.35,1-4.71,1.5-7.06,.51-2.41,1.51-4.58,2.43-6.86,1-2.47,1.88-4.99,2.67-7.54,1.08-3.52,1.76-7.19,3.03-10.65,1.8-4.88,3.74-9.63,5.09-14.66,.48-1.78,.87-3.63,1.14-5.44,.36-2.43,.96-4.83,1.28-7.26,.27-2.09,.39-4.09,.91-6.16,.62-2.46,1.22-4.9,1.69-7.39,1.14-5.96,1.19-12.29,3.42-18.01,1.13-2.92,3.19-5.08,5.64-6.99s3.94-2.77,7.23-3.12c2.51-.27,4.59,.3,6.07,2.48,2.18,3.22,2.82,5.38,3.54,9.16,1.28,6.75-.02,12.73-.19,19.43-.11,4.42-.32,8.82,.01,13.23,.28,3.67,.26,7.42-.38,11.07-.36,2.02-.87,3.98-1.3,5.98-.58,2.68-1.48,5.37-1.88,8.07-.36,2.46-1.02,4.7-1.63,7.1-.62,2.45-1.24,4.79-2.14,7.16-1.54,4.07-3.06,8.17-4.8,12.16-.54,1.24-1.29,2.41-1.91,3.61-.91,1.78-1.87,3.55-3.08,5.16-1.33,1.77-2.44,3.71-3.6,5.58-1.39,2.25-2.9,4.39-4.5,6.5-1.48,1.95-3.19,3.83-4.46,5.92-1.17,1.94-2.41,3.8-3.75,5.65-1.36,1.87-2.36,3.86-3.57,5.82-.82,1.34-1.69,2.67-2.55,3.99-.9,1.4-1.57,2.86-2.41,4.27-.98,1.63-2.05,3.18-2.8,4.92-.81,1.89-1.69,3.76-2.62,5.6-.35,.69-.9,1.27-.57,2.03,.14,.32,.48,.47,.58,.84,.16,.55-.07,1.33-.19,1.87-.61,2.72-2.54,5.35-4.15,7.63-.53,.74-1.5,1.83-2.41,2.13-1.17,.38-1.94-.34-2.84,.56s-1.01,1.94-1.23,3.08c-.13,.67-.58,2.09,4.11-3.78Z"/><path class="f" d="M391.8,258.66c-1.26-.4-2.87-.78-4.45-.56-.22,.03-1.82,.36-1.98,.47-.63,.41-1.34,.88-1.98,1.37-1.07,.82-2.04,1.65-3.07,2.5-1.92,1.58-3.2,3.06-4.42,5.17-.92,1.59-1.24,3.29-1.9,4.97-1.01,2.56-.97,5.19-1.61,7.85-1.36,5.68-2.32,11.55-3.44,17.29-1.18,6.07-2.38,12.09-3.98,18.06-.97,3.62-2,7.23-3,10.85-.95,3.43-1.86,6.98-3.08,10.33-1.43,3.96-2.84,7.96-4.21,11.94-1.21,3.5-2.11,7.09-3.4,10.56-1.6,4.32-2.84,8.79-4.36,13.07-.28,.8-.76,1.51-.95,2.34-.16,.71-.28,1.43-.5,2.16-.55,1.83-1.1,3.65-1.64,5.48-1.66,5.66-3.49,11.29-5.31,16.89-.38,1.16-.63,2.37-1.07,3.47-.4,1-.98,1.97-1.3,2.99v.36c-.2,.03-.25,.16-.19,.36-.9-.2-2.3,1.33-2.76,1.99-.68,.99-.4,2.29-.8,3.35-.34,.9-.42,1.89-.91,2.72-.61,1.04-.84,1.89-.95,3.08-.19,2.06-.6,3.99,1.31,5.4,.91,.67,2.08,1.14,3.03,1.72s2.2,1.17,3.32,1.5c.98,.28,1.85,.45,2.79,.86,1.08,.48,1.72,.71,2.65-.13,.58-.53,1.1-1.33,1.68-1.93,.62-.64,.92-1.2,1.37-1.88,.95-1.42,2.28-2.62,2.77-4.27,.35-1.19,1.09-2.54,.92-3.81-.15-1.07-.78-1.56-.25-2.57,.44-.84,.74-1.72,1.22-2.56,.75-1.33,1.44-2.63,2.12-4,.84-1.7,1.96-3.16,3.02-4.72,2.14-3.16,4.07-6.51,5.75-9.93,.85-1.72,2.12-3.23,3-4.92,.97-1.85,1.85-3.87,3.11-5.56,1.97-2.65,4.17-5.21,6.02-7.95,1.81-2.67,3.48-5.54,5.59-8.04,1.25-1.48,2.01-3.09,2.98-4.72,2.06-3.46,3.32-7.26,5.01-10.92,.89-1.94,1.76-3.89,2.62-5.85,.94-2.13,1.45-4.43,2.3-6.6,.94-2.4,1.66-4.78,2.19-7.29,.46-2.2,1.39-4.44,1.65-6.66,.23-1.97,1.14-3.86,1.17-5.85,.02-1.6,.08-3.23,.3-4.82,.39-2.74,.41-5.19,.24-7.94-.17-2.67-.39-5.29-.37-8,.02-2.2-.19-4.41-.19-6.63,0-1.24-.06-2.4,.24-3.6,.24-.97,.98-2.47,.71-3.48-.14-.52-.59-.91-1.23-.73-.56,.15-.73,.88-.92,1.39-.51,1.32-.57,2.51-.75,3.88-.97,7.29-.11,14.61-.09,21.91,.01,3.99-.99,8.1-1.68,12.01-.3,1.69-.68,3.38-1.07,5.05-.55,2.35-1.03,4.75-1.73,7.07-1.15,3.82-2.26,7.44-4.11,10.99-1.02,1.95-1.95,3.9-2.87,5.9-.98,2.13-1.75,4.4-2.9,6.42-2.09,3.65-3.88,7.41-6.14,10.97-1.2,1.9-2.89,3.39-4.29,5.12-1.58,1.94-2.95,4.02-4.52,5.96-3.68,4.59-5.82,10.25-8.72,15.33-1.34,2.35-2.51,4.84-4.01,7.07-1.21,1.8-1.88,3.75-2.82,5.65-.93,1.89-2.44,3.91-4.73,4.19s-4.88-.85-6.7-2.04c-2.2-1.44-.86-4.58,.04-6.5,1.98-4.21,4.11-8.62,5.23-13.18,1.24-5.02,2.59-10.02,4.36-14.92,1.17-3.26,2.24-6.55,3.47-9.79,.58-1.52,.92-3.11,1.39-4.66,.59-1.95,1.62-3.74,2.17-5.68s1.28-3.92,1.96-5.85,1.35-3.95,2.11-5.9c.62-1.58,1.1-3.2,1.68-4.79,.36-.97,.44-2.03,.87-2.98,.38-.83,.72-1.58,.98-2.47,1.15-3.88,2.77-7.55,3.55-11.53,.6-3.04,1.1-6.06,1.96-9.03,.44-1.53,.84-3.07,1.24-4.62,.22-.83,.34-1.71,.59-2.52,.3-.98,.73-1.67,.8-2.71,.1-1.45,.67-2.93,.85-4.4,.19-1.55,.44-3,.73-4.54,.46-2.49,.75-5.01,1.22-7.51,.33-1.72,.37-3.39,.57-5.09,.64-5.42,1.78-11.12,6.37-14.8,2.1-1.69,3.82-3.91,6.48-4.67,2.34-.66,4.27,.4,5.96,2.19,1.19,1.26,2.29,3.56,2.65,5.76,.08-1.6-.42-4.54-.96-5.9-.36-.91-1.15-1.84-1.88-2.47-.5-.44-1.2-.9-2.13-1.49Z"/><path class="f" d="M328.43,423.89c-1.42,.79-1.99,.84-3.58,1.3-.62,.08-2.22,.45-2.92,.45-1.13,0-2.18-.02-3.3-.18-1.44-.21-2.92-.59-4.3-1.02-1.37-.43-2.6-.71-4.02-.98-3.3-.64-6.78-.36-10.15-.36s-7.09-.19-10.3,.36c-3.72,.64-7.33,1.97-10.25,4.35-1.75,1.42-4.95,4.6-2.89,7.29,1.17,1.53,5.19,.16,6.91-.58,2.31-1,3.94-.93,6.43-1.37,2.18-.39,4.73-1.96,6.59-3.16,1.46-.95,2.71-1.3,4.45-1.27,2.53,.05,5.39,1.38,5.26,4.16-.09,1.86-2.06,3.12-3.32,4.23-1.54,1.35-4.23,2.16-6.21,2.77-1.96,.6-3.91,1.24-5.85,1.89-1.66,.56-2.79,1.36-4.04,2.52-2.06,1.91-4.63,3.63-5.9,6.19-.58,1.18-1.11,2.33-1.39,3.61s-.9,2.67,.61,3.1c2.99,.85,6.75-.34,9.12-2.18,1.08-.84,2.24-1.53,3.18-2.52,.54-.58,1.29-.8,1.86-1.31,.7-.63,1.35-1.45,2.03-2.13,.94-.94,1.94-1.84,2.84-2.76,1.08-1.11,2.23-1.74,3.45-2.65,.65-.49,1.1-1.06,1.83-1.49,.8-.48,1.79-.96,2.69-1.23,1.29-.4,3.63-.78,5.03-.41,.94,.25,1.85,1.45,2.17,2.27,.59,1.52,.15,2.79-.42,4.22-.7,1.75-1.48,2.92-2.66,4.39-1.09,1.36-2.05,2.75-2.65,4.35-.49,1.32-1.2,2.57-1.51,3.95-.34,1.51-.31,3.17-.32,4.72,0,1.48,.56,2.36,2.15,2.4,.67,.01,1.39,.1,1.99-.16,1.21-.53,2.22-2.29,2.67-3.4,.54-1.31,1.75-2.98,2.63-4.13,1.07-1.4,.91-2.51,1.98-3.9,1.78-2.32,3.15-4.34,5.02-6.59,.95-1.15,1.79-1.96,2.76-3.08s1.67-1.71,2.76-2.59c.69-.56,1.33-1.3,2.09-1.83,.95-.66,2.03-1.44,3.07-1.98,1.86-.96,2.86-2.1,3.61-3.93,.53-1.3,.78-3.75,1.31-5.06,.62-1.52,1.18-2.1,1.78-3.04,.88-1.4,1.62-.98,1.47,.52-.11,1.12-1.95,2.2-2.25,3.3s.09,2.92-.27,4.01c-.47,1.38-1.47,2.3-2.48,3.41-1.28,1.41-2.91,2.54-4.48,3.61s-2.97,2.09-4.17,3.6c-1.4,1.75-3.03,3.3-4.52,4.95-2.67,2.97-5.97,8.64-6.29,9.29-.43,.88-2.42,4.09-2.92,4.9-.82,1.31-1.69,2.54-3.06,3.46-1.71,1.14-3.75,1.29-5.42,.09-.91-.65-1.17-2.33-1.3-3.41-.15-1.27-.17-2.52-.18-3.81,0-3.04,1.49-5.84,3.21-8.32,.93-1.35,1.95-2.47,2.68-3.95,.59-1.2,1.54-2.58,1.24-3.9-.54-2.46-.78-2.77-3.25-2.61-2.94,.19-4.6,2.63-6.58,4.33-1.14,.97-2.36,1.84-3.49,2.82-1.32,1.14-3.01,2.46-4.11,3.79-1.66,2.02-4.42,3.87-6.86,4.95-2.16,.96-5.04,1.45-7.45,1.01-2.71-.5-2.5-4.5-2.05-6.45,.3-1.3,1.08-2.74,1.97-3.75,1.45-1.63,2.77-3.21,4.44-4.65,1.09-.94,2.2-1.86,3.4-2.67,1.12-.76,2.31-1.66,3.62-2.1,1.35-.45,2.76-.77,4.12-1.22,1.7-.56,3.23-1.5,4.85-2.21,1.93-.84,3.43-2.08,2.69-4.44-.41-1.3-1.77-1.44-2.89-1.29-1.54,.2-3.2,1.34-4.57,1.99-2.97,1.4-6.02,2.72-9.4,3.09-1.03,.11-1.86,.36-2.83,.73-1.53,.58-2.66,.89-4.27,.89-1.09,0-2.8,.4-3.66-.25-.79-.59-1.07-1.99-1.19-2.91-.13-1.06-.05-2.11,.55-3,.91-1.35,1.86-2.91,3.09-3.98,2.91-2.54,5.52-3.18,9.23-4.14,6.48-1.67,14.61-1.89,21.28-1.27,3.52,.32,7.06,1.06,10.6,1.23,1.01,.05,1.97,.07,2.97,.01,1.15-.07,2.32-.2,3.44-.37,.95-.14,.98-.39,2.18-.97,.78-.38,1.58-1.73,2.61-1.94,1.34-.27,.84,1.64,.5,2.28-.3,.56-.64,.91-1.09,1.38-.06,.06-.88,.57-1.38,.76Z"/><path class="f" d="M286.57,450.66c-1.61,.14-3.18,.42-4.73,.84-.09,.84-.58,1.65-.22,2.52,.27,.64,1.34,1.21,1.96,1.36,.89,.21,2.06-.22,2.76-.73,.98-.71,.97-1.36,.97-2.46,0-1.77-1.11-2.48-2.95-2.44-.77,.01-1.54,.34-2.04,.91-.32,.37-.85,1.89,4.24,0Z"/><path class="f" d="M282.15,429.18c-.42-.11-1.24-.47-1.65-.28-.21,.1-.41,.29-.6,.41-.36,.22-.8,.4-1.07,.72-.56,.67-.74,1.6-.74,2.44,0,.49,.19,.74,.5,1.11s.61,.57,1.1,.7c.41,.11,.79,.22,1.2,.1,.46-.14,.96-.39,1.31-.71,.3-.27,.63-.56,.84-.9,.2-.31,.23-.63,.28-.99,.08-.53,.23-1.08-.13-1.56-.21-.28-.51-.49-.72-.76-.1-.13-.12-.14-.27-.22-.08-.05-.15-.14-.07-.07Z"/><path class="f" d="M311.46,460c-.67-.2-1.35-.25-2.03-.15-.12,.13-.23,.26-.34,.4-.15,.19-.28,.41-.39,.62-.35,.66-.43,1.28-.42,2,0,.52,.36,1.03,.87,1.23,.71,.27,1.43-.04,2.03-.38,.89-.5,1.5-1.93,.99-2.85-.2-.36-.81-1.17-.71-.88Z"/><path class="o" d="M381,211.39c-3.23-.73-8.4-2.61-11.83-.68-2.11,1.19-3.47,3.81-4.97,5.6-3.35,4-3.82,9.54-3.75,14.47,.03,2.19-.32,4.37-.45,6.55-.15,2.45-.2,4.9-.19,7.35,0,3.39-.02,6.78-.54,10.15-.52,3.39-.58,6.57-1.9,9.81-.46,1.13-.99,1.87-1.77,2.84-.37,.47-.83,.89-1.22,1.34-.61,.69-.85,1.4-1.26,2.2-.65,1.25-1.23,2.27-1.54,3.67-.37,1.65-.32,3.3-.09,4.97,.44,3.26,2.13,6.01,4.34,8.48,3.34,3.75,8.44,5.57,13.23,2.97,2.6-1.41,4.15-4.27,5.66-6.64,1.9-3,2.63-6.75,3.44-10.12,.84-3.46,1.74-7.25,3.2-10.52,.85-1.91,1.56-3.89,2.4-5.81,.79-1.81,1.62-3.85,2.09-5.76,1-4.02,2.64-7.77,3.95-11.68,.9-2.7,1.77-5.38,2.7-8.07,1.06-3.04,1.61-5.9,1-9.1-.23-1.19-.86-2.52-1.42-3.61-.68-1.31-1.55-2.88-2.45-4.07-1.33-1.76-3.23-3.08-5.35-3.78-.78-.26-1.46-.5-2.29-.65-.56-.1-1.57-.32-.98,.08Z"/><path class="f" d="M392.57,221.19c.42,.63,1.06,1.32,1.12,2.07,.02,.26,.08,.49,.14,.74,.11,.48,.19,.99,.28,1.47,.14,.78,.12,1.53,.11,2.32-.01,.97-.23,1.92-.48,2.86-.18,.68-.32,1.35-.48,2.03-.16,.63-.17,1.3-.38,1.92-.26,.79-.51,1.57-.79,2.36-.31,.9-.77,1.75-1.05,2.65-.52,1.66-1.15,3.26-1.86,4.85-.39,.87-.65,1.77-1,2.65-.42,1.06-.87,2.12-1.29,3.18-.39,.97-.55,1.99-.83,2.98-.22,.78-.52,1.57-.8,2.34-.54,1.5-.98,3.03-1.47,4.55-.39,1.23-1.1,2.33-1.47,3.57-.19,.65-.52,1.24-.72,1.89-.17,.55-.46,1.09-.69,1.62-.21,.49-.48,.92-.61,1.43-.19,.69-.3,1.41-.43,2.11-.6,3.21-1.47,6.34-2.71,9.39-.51,1.25-1.11,2.45-1.49,3.75-.11,.39-.32,.81-.5,1.18-.23,.47-.5,.93-.72,1.41s-.53,.89-.71,1.35c-.34,.89-.79,1.78-1.5,2.49-.67,.67-1.56,1.15-2.43,1.54-.34,.15-.71,.24-1.06,.37-.38,.15-.71,.37-1.09,.53-.76,.33-1.7,.6-2.53,.78-.63,.14-1.3,.18-1.93,.11-.73-.08-1.39-.34-2.11-.46-1.21-.2-2.34-.71-3.45-1.19-.65-.28-1.2-.58-1.73-1.03-.46-.39-.77-.86-1.13-1.34-.42-.55-.8-1.12-1.24-1.65-.19-.23-.41-.44-.55-.69-.61-1.1-.96-2.29-1.51-3.42-.71-1.46-1.03-2.99-1.12-4.58-.11-2.01,.05-4.17,.58-6.13,.43-1.6,1.41-3.07,2.28-4.49,.48-.77,1.04-1.48,1.44-2.29,.46-.92,.88-1.86,1.29-2.81,.36-.83,.7-1.64,.98-2.5,.39-1.19,.35-2.37,.56-3.58,.19-1.1,.32-2.22,.55-3.32,.24-1.17,.16-2.43,.15-3.62-.01-1.16,.15-2.33,.19-3.5,.04-1.41-.02-2.81-.14-4.22-.08-.98-.4-1.89-.58-2.85-.25-1.32-.05-2.69-.15-4.03-.07-.97,.04-1.95,.1-2.91,.08-1.15,.23-2.33,.52-3.45,.24-.95,.51-1.89,.69-2.85,.15-.8,.21-1.61,.36-2.41s.34-1.74,.66-2.53c.34-.85,.83-1.66,1.2-2.51,.55-1.27,1.15-2.53,2.06-3.61,.62-.73,1.3-1.29,2.11-1.83,.47-.31,1.14-.71,1.71-.76,.1,.25-.05,.48-.17,.69-.26,.46-.58,.9-.85,1.36-.66,1.11-1.54,2.09-2.19,3.22-.55,.95-1.04,1.86-1.46,2.87-.47,1.13-.93,2.29-1.24,3.47-.17,.63-.35,1.25-.47,1.89s-.35,1.16-.42,1.77c-.15,1.26-.31,2.52-.41,3.79-.08,1-.09,1.99-.17,3s-.14,2.15-.02,3.19c.12,1.09,.22,2.17,.36,3.26,.14,1.07,.29,2.15,.35,3.22,.07,1.21,.28,2.42,.35,3.64,.08,1.32,.17,2.63,.07,3.96-.14,1.79-.47,3.6-.81,5.37-.17,.9-.43,1.78-.7,2.66-.14,.47-.24,.95-.39,1.42s-.34,.86-.44,1.33c-.2,.94-.58,1.85-.88,2.77-.27,.83-.74,1.5-1.13,2.28-.37,.74-.76,1.43-1.2,2.13-.35,.56-.85,1.14-1.05,1.76-.37,1.1-.83,2.17-1.18,3.28-.44,1.37-.54,2.88-.39,4.31,.18,1.72,.2,3.56,1.07,5.13,.71,1.28,1.46,2.85,2.63,3.84,.59,.5,1.28,.91,1.98,1.27,.54,.28,.97,.66,1.59,.8,.72,.16,1.43,.28,2.17,.24s1.52,.03,2.28-.01c2.23-.12,4.3-1.56,5.81-3,.39-.37,.8-.69,1.15-1.1,.45-.52,.75-1.13,1.14-1.69,.31-.44,.61-.89,.89-1.36,.38-.63,.8-1.25,1.12-1.92,.6-1.22,1.19-2.44,1.59-3.73,.22-.71,.45-1.43,.76-2.12,.35-.77,.47-1.61,.62-2.43,.27-1.42,.41-2.83,.95-4.2s1.24-2.73,1.77-4.14c.18-.49,.31-.98,.57-1.44,.18-.31,.3-.6,.39-.95,.14-.51,.28-1.02,.46-1.53s.23-1.02,.37-1.53c.12-.44,.36-.84,.53-1.26,.19-.45,.27-.92,.44-1.37,.3-.8,.57-1.59,.85-2.4,.19-.55,.46-1.04,.69-1.57,.21-.5,.31-1.03,.5-1.53,.38-1,.8-1.97,1.12-3,.29-.92,.51-1.84,.82-2.75,.27-.81,.57-1.62,.83-2.43,.29-.91,.41-1.84,.79-2.73,.39-.92,.7-1.85,1.1-2.77,.28-.64,.52-1.3,.74-1.96,.14-.41,.28-.82,.44-1.22s.44-.73,.58-1.12c.43-1.16,.89-2.38,1.14-3.59,.09-.45,.1-.91,.15-1.37,.08-.72,.33-1.39,.35-2.12,.03-.98,.33-1.96,.38-2.94,.02-.48-.11-1.04-.27-1.49-.12-.35-.33-.78-.34-1.15,0,.03,0,.06-.06,.04Z"/><path d="M307.31,317.8c1.12-.89,2.19-1.83,3.23-2.8-.53-.48-.17-2.04-.26-2.74-.14-1.12-.4-2.24-1.04-3.21-.86-1.3-2.32-2.49-2.83-3.95-.49-1.39,.59-2.11,1.32-3.28,.64-1.03,1.45-1.94,2.07-2.98,.71-1.2,1.3-2.45,1.64-3.8,.24-.94,.26-1.93,.28-2.89,.01-.65-.1-2.03,.35-2.61,.48-.63,2.21-.6,3-.66,1-.08,2.09-.29,3.09-.1,1.12,.22,2.14,.86,3.3,.93,1.73,.11,3.49,.03,5.23,.32,.73,.12,1.45,.3,2.18,.42,1.99,.34,4.02,.75,5.9,1.45,6.44,2.4,13.18,3.53,20.13,3.66,1.89,.04,3.8-.05,5.68-.28,2.84-.35,5.24-1.14,7.58-2.65,1.95-1.26,3.43-2.7,4.17-4.85,.76-2.2,1.16-4.79,1.2-7.09,.1-4.86-4.43-7.83-8.6-9.98-3.13-1.61-6.33-1.77-9.86-1.73-4.36,.05-8.57,1.48-12.9,1.92-2.95,.31-5.9,.51-8.86,.42-2.72-.08-5.43-.56-8.15-.54-2.83,.01-5.64-.03-8.47-.11-3.34-.1-6.78,.96-9.93,1.91-2.52,.77-5.15,1.92-7.34,3.35-2.5,1.62-4.71,3.54-7.1,5.29-1.82,1.33-3.55,2.77-5.33,4.14-1.26,.97-2.68,1.58-3.95,2.54-1.59,1.2-3.69,2.85-4.43,4.7-.68,1.69,.09,3.88,.57,5.52,.63,2.15,1.01,4.42,.98,6.64-.02,1.1,.11,2.17,.04,3.27s-.34,2.15-.21,3.28c.31,2.58,3.54,1.39,4.73,.06,1.89-2.11,2.5-5.42,2.41-8.11-.06-1.82-.47-3.87-.17-5.67,.16-.93,.98-2.38,2.17-1.3,1.02,.92,.44,2.25,.24,3.32-.33,1.74-.62,3.46-1.05,5.19-.46,1.86-.82,3.88-.7,5.78,.17,2.82,.48,6.08,2.65,8.27,1.73,1.74,4.41,1.99,5.75-.29,1.74-2.97-.08-6.97-.67-9.98-.5-2.6-.18-5.34,.74-7.83,.4-1.09,1.97-3.1,3.38-1.79,.51,.47,.54,1.81,.46,2.48-.13,1.06-.65,2.02-1.06,2.99-1.59,3.7-.42,8.38,3.26,10.5,1.12,.64,2.37,.65,3.58,1.07,1.11,.39,1.09,1.41,2.33,1.4s1.65-.93-.7,.4Z"/><path class="f" d="M357.9,269.99c-1.56,.05-3.03,.13-4.56,.27-.58,.05-1.2,.04-1.76,.19-.99,.26-2.01,.41-3.01,.67-.78,.2-1.49,.56-2.27,.77-.65,.18-1.36,.18-2.03,.29-.88,.15-1.74,.17-2.64,.18-1.47,.02-2.9,.3-4.37,.28-1.11-.02-2.18,.06-3.28,.1-1.07,.04-2.22-.1-3.28-.2-1.99-.18-3.99-.35-5.98-.51-1.86-.16-3.74-.05-5.6-.19-2.02-.14-4.12-.09-6.13,.17-.89,.12-1.91,.21-2.77,.44s-1.66,.51-2.5,.76c-.86,.25-1.7,.52-2.55,.8-.7,.23-1.36,.63-2.02,.96-1.28,.64-2.51,1.42-3.61,2.29-2.25,1.77-4.55,3.46-6.91,5.11-1.35,.94-2.61,1.98-3.95,2.93-1.1,.78-2.2,1.63-3.21,2.52-1.15,1.02-2.3,2.04-3.42,3.09-.85,.8-1.6,1.78-1.79,2.92-.1,.63-.13,1.25-.07,1.89,.06,.71,.33,1.38,.44,2.08,.22,1.41,.3,2.79,.62,4.18,.17,.75,.18,1.51,.21,2.27,.03,.71,.09,1.43,.03,2.15s-.22,1.36-.34,2.04c-.09,.57-.34,1.27-.27,1.85,.09,.78,1.03,1.43,1.77,.93,.95-.65,1.64-1.6,2.04-2.6,.24-.58,.26-1.21,.26-1.83,0-.72,.07-1.46,.02-2.17-.11-1.32-.41-2.6-.47-3.92-.09-1.77-.04-3.54,1.09-5.07,.76-1.03,2.22-1.4,3.51-1.21,1.37,.2,2.5,1.3,2.74,2.57,.13,.68-.08,1.5-.27,2.15-.29,.99-.63,1.99-.99,2.96-.95,2.58-.95,5.54-.79,8.23,.12,1.91,.22,4.02,.74,5.86,.23,.82,2,3.26,2.96,3.28,1.77,.05,1.39-3.14,1.22-4.46-.14-1.04-.41-2.07-.67-3.08-.36-1.39-.98-2.63-1.09-4.07-.11-1.33-.01-2.6,.37-3.9,.35-1.17,1.07-2.17,1.73-3.2,.58-.91,.9-.88,1.7-1.64,.75-.71,1.83-2.17,2.87-1.71,1.93,.85,.32,3.36,.11,4.9-.34,2.5,.35,4.9,.85,7.43,.1,.5,.1,1.11,.33,1.57,.13,.27,.37,.67,.54,.92,.22,.34,.74,.78,1.08,1.01,.83,.55,2.02,1.56,2.77,1.66,1.29,.18,2.86,.36,3.3-.69,.59-1.42-.54-3.97-1.29-5.21-.45-.75-.59-1.47-1.09-2.2-.32-.47-.32-1.15-.58-1.65-.34-.66-.24-.88-.47-1.58-.14-.43,.31-1.51,.47-1.94,.24-.61,.5-1,.95-1.48,.95-1.03,1.43-1.82,2.33-2.9,1.04-1.24,1.13-2.95,1.96-4.31,.44-.72,.65-1.57,1.01-2.33,.12-.26,.14-.54,.24-.8,.14-.37,.37-.61,.64-.9,.62-.66,1.17-1.21,2.18-1.34,.6-.07,1.2-.04,1.8-.01,1,.04,1.94,.44,2.94,.5,1.24,.07,2.44,.28,3.68,.27,1.6-.02,3.13,.39,4.72,.52s3.09,.62,4.66,.89c.81,.14,1.46,.36,2.24,.61,.93,.3,1.94,.47,2.89,.71,2.08,.53,4.21,1.05,6.32,1.45,.93,.18,1.89,.1,2.81,.31,1.42,.32,2.8,.7,4.28,.78s2.8-.22,4.22-.14c.96,.05,1.78,.13,2.74,.06,.6-.04,1.2,.02,1.79,0,1.13-.04,2.41-.14,3.52-.35,.88-.17,1.51-.63,2.29-1.04,.62-.32,1.26-.66,1.92-.9,.29-.1,.6-.26,.86-.1,.71,.43-.14,1.28-.5,1.61-.83,.75-1.91,1.11-2.97,1.5-.71,.26-1.35,.63-2.08,.85-.92,.28-1.84,.43-2.8,.47-.55,.02-1.1,.02-1.64,.06s-1.06,.21-1.63,.18c-1.31-.07-2.65-.11-3.96-.13-1.56-.02-3.07-.23-4.62-.33-.56-.04-1.13-.01-1.7-.07-.76-.08-1.53-.27-2.3-.39-1.25-.19-2.5-.31-3.71-.69s-2.54-.64-3.75-1.09-2.36-.82-3.57-1.18c-.63-.19-1.27-.38-1.92-.5-.97-.18-1.93-.44-2.9-.58-1.5-.22-2.99-.44-4.47-.76-1.01-.22-2.03-.43-3.07-.43s-2-.33-2.99-.42c-.65-.06-1.31-.08-1.96-.15-.79-.09-1.73-.17-2.37,.33-.74,.57-.91,1.71-1.15,2.53-.15,.5-.21,1.02-.32,1.52-.07,.34-.3,.59-.43,.9-.17,.4-.41,1.04-.59,1.46-.6,1.39-.68,1.92-1.42,3.03-.49,.75-1.23,1.54-1.64,2.34-.52,1-.85,1.89-.61,2.93,.38,1.71,.98,3.39,1.67,5.02,.28,.66,.72,1.26,.99,1.91,.2,.49,.25,1.05,.31,1.58,.12,1.2-.2,2.48-1.05,3.42-.41,.45-.99,.96-1.65,1-.75,.05-1.48-.18-2.13-.45-.8-.34-2.41-.5-3.05-1.08s-1.14-.88-1.75-1.45c-.76-.72-1.52-1.4-2.15-2.22-.53-.69-.12-1.57-.43-2.36-.56-1.43-.64-3.01-.76-4.51-.04-.53-.04-1.06-.02-1.59,0-.21-.06-.46,.03-.65-.5,.32-.72,.81-1.01,1.29-.45,.74-.85,1.45-1.05,2.31-.22,.97-.25,1.95-.24,2.95,.01,1.24,.39,2.42,.61,3.63,.22,1.23,.2,2.48,.37,3.72,.13,.97,.39,1.9,.09,2.87-.31,1.01-.84,1.65-1.9,2-1.2,.4-2.16-.49-2.96-1.26-1.08-1.04-2.71-2.25-3.11-3.65-.22-.76-.13-1.71-.36-2.47-.27-.91-.21-1.82-.34-2.75-.55-3.9,.23-7.84,.72-11.71,.11-.84,.17-1.75,.03-2.58-.1-.57-.26-1.15-.85-.46-.39,.46-.42,1.3-.52,1.88-.16,.88-.07,1.81-.04,2.69,.03,.78-.04,1.65-.17,2.42-.15,.86-.16,1.72-.23,2.59-.1,1.33-.32,2.61-1.01,3.79-.53,.91-1.11,1.82-1.71,2.7-.19,.27-.51,.7-.87,.77-.41,.08-1.07-.06-1.49-.14-1.32-.26-2.18-1.64-2.2-2.83,0-.59,.17-1.18,.24-1.78,.13-.97,.07-1.88,.06-2.84-.02-1.66-.07-3.25-.3-4.9-.37-2.68-1.01-5.36-.7-8.08,.14-1.26,1.32-2.25,2.21-3.12,1.54-1.52,3.17-2.96,4.75-4.45,.64-.6,1.25-1.25,1.94-1.8,1.01-.8,2.08-1.52,3.09-2.32,2.03-1.62,4.14-3.06,6.37-4.42,1-.61,2.09-1.11,3.11-1.7,1.21-.7,2.48-1.25,3.73-1.86,1.63-.79,3.32-1.28,5.06-1.8,1.11-.33,2.12-.71,3.22-1.02,.84-.24,1.68-.32,2.53-.48,.73-.14,1.56-.1,2.31-.15,.86-.06,1.7-.05,2.56-.01,2.69,.1,5.36,.27,8.04,.51,.61,.06,1.23,.07,1.85,.12,.69,.06,1.36,.22,2.06,.23,1.31,.01,2.6-.14,3.92-.06,1.28,.08,2.56-.13,3.83-.05,.44,.03,.82-.03,1.26-.06,.7-.05,1.36,0,2.06-.12,1.03-.17,2.04-.52,3.09-.62,.95-.09,1.89-.15,2.84-.28,1.13-.15,2.23-.39,3.35-.54,1.62-.2,3.35,.04,4.86,.54,.23,.08,1.75,.56,1.24,.55Z"/><path class="f" d="M365.04,274.48c-.78,.76-1.53,1.54-2.08,2.47-.3,.52-.56,1.09-.91,1.58-.61,.84-1.12,1.75-1.75,2.59-.71,.95-1.61,1.77-2.69,2.33-.78,.41-1.58,.66-2.41,.96-.44,.16-.86,.31-1.33,.4-.5,.09-.98,.06-1.48,.07-.86,.02-1.61,.01-2.46-.19-1-.24-1.98-.44-2.94-.8-.52-.2-1.08-.32-1.6-.52-.49-.19-.92-.5-1.38-.74-.81-.43-1.55-.88-2.31-1.39s-1.61-.83-2.43-1.24c-1.01-.5-2.14-.96-3.27-1.17-.8-.15-1.61-.07-2.41-.04-.7,.03-1.64-.06-2.29,.2,.31,.14,.8,.06,1.14,.13,.45,.08,.88,.24,1.34,.3,.42,.06,.82,.09,1.22,.25,.31,.13,.57,.28,.89,.38,1.02,.32,1.79,.91,2.72,1.4,.35,.19,.74,.33,1.07,.54,.44,.3,.88,.6,1.33,.89,.76,.48,1.58,.8,2.39,1.2,.9,.45,1.91,.8,2.85,1.18,.71,.29,1.48,.5,2.24,.68,.83,.19,1.62,.23,2.47,.26,.44,.02,.84,.13,1.27,.2s.82,.02,1.24-.01c.96-.07,1.91-.07,2.84-.37,1.48-.47,2.91-1.19,4.01-2.23,.29-.27,.61-.53,.85-.84,.22-.28,.3-.59,.46-.9,.12-.24,.29-.43,.43-.66,.23-.37,.29-.78,.44-1.18,.24-.67,.35-1.36,.59-2.04,.16-.45,.38-.88,.57-1.32,.22-.52,.56-.99,.86-1.47,.14-.22,.34-.44,.56-.59,0,.02,0,.04-.04-.32Z"/><path class="f" d="M290.03,288.9c-.56,.36-1.07,.78-1.53,1.24-.19,.09-.26,.22-.23,.39-.05,.15-.09,.33-.13,.48-.12,.56,.2,.99,.56,1.41,.18,.21,.37,.47,.64,.54s.59-.03,.86,.06c-.62,.33-1.35,.34-2.03,.27-.58-.06-1.35-.23-1.69-.74-.29-.43-.16-1.16,0-1.59,.35-.99,1.21-1.55,2.17-1.98,.31-.14,.64-.16,.96-.26,.16-.05,.3-.13,.48-.11,.05,.02,.05,.05-.04,.29Z"/><path class="f" d="M294.84,293.16l-.61,1.4c-.18,.2-.25,.42-.2,.65,0,.2,.06,.41,.11,.6,.13,.57,.36,.97,.74,1.43,.23,.28,.41,.57,.8,.65,.33,.07,.65-.05,.98,0,.03,.49-1.27,.51-1.58,.46-.79-.14-1.68-1.21-1.74-1.95-.06-.78,.37-1.55,.77-2.2,.27-.43,.63-.84,.74-1.03Z"/><path class="f" d="M302.05,296.2c-.13,.53-.17,1.07-.11,1.61,.11,.11,.22,.22,.32,.34,.19,.21,.41,.45,.64,.63,.49,.38,1.15,.4,1.73,.21,.51-.17,1.28-.46,1.6-.89,.21-.29,.32-.68,.44-1.01-.3,.43-.37,.97-.59,1.44-.23,.49-.59,1.05-1.14,1.3-.9,.41-1.99,.09-2.66-.54-.6-.57-1.22-1.08-.91-1.95,.1-.29,.21-.57,.42-.81,.1-.12,.22-.33,.26-.33Z"/><path class="f" d="M306.82,312.56c-.51-.72-1.14-1.31-1.91-1.77-.2,.01-.39,.05-.57,.13-.27,.09-.57,.21-.78,.4-.36,.35-.41,1.09-.16,1.51,.27,.44,.79,.85,1.21,1.18,.38,.3,.93,.49,1.44,.45s1.19-.48,1.13-1.01c-.04-.34-.66-.86-.36-.9Z"/><path class="f" d="M293.54,316.56c-.19-.54-.48-1.02-.86-1.44-.35,.22-.7,.2-1.02,.5-.36,.35-.4,.75-.13,1.18,.1,.15,.24,.26,.33,.4,.13,.18,.16,.37,.31,.54,.33,.37,.58,.43,1.03,.23,.25-.11,.54-.35,.65-.6,.15-.34-.05-.64-.19-.95s-.25-.63-.45-.91c-.08-.12-.29-.21,.33,1.05Z"/><path class="f" d="M283.86,306.49c-.56,.09-1.43,.03-1.67,.62-.07,.17-.16,.31-.25,.47-.27,.47-.22,.85-.33,1.34-.06,.29-.11,.63,.18,.86s.61,.04,.86-.11c.75-.46,1.46-1.08,1.38-1.99-.02-.25,0-1.33-.17-1.19Z"/></g></g></g><g id="e"><polygon class="l" points="621.02 572.93 199.17 572.93 199.17 440.25 621.02 440.25 588.39 507.22 621.02 572.93"/><text class="h" transform="translate(289.4 544.34)"><tspan x="0" y="0">DE LAS DEUDAS</tspan></text><text class="m" transform="translate(285.26 493.88)"><tspan x="0" y="0">Monstruo</tspan></text></g></g></svg>