<?xml version="1.0" encoding="UTF-8"?><svg xmlns="http://www.w3.org/2000/svg" viewBox="0 0 620.79 581.24"><defs><style>.f{font-family:Avenir-Medium, Avenir;font-size:28px;}.g{fill:none;}.g,.h,.i{stroke:#fff;stroke-miterlimit:10;stroke-width:.75px;}.i{fill:#fff;}.j{fill:#f6c67b;}.k{font-family:Moonlights-on-the-Beach, Moonlights on the Beach;font-size:88px;}.l{fill:#eb566a;}</style></defs><g id="a"/><g id="b"><g id="c"><circle class="l" cx="289.56" cy="289.59" r="283.24"/></g><g id="d"><g><circle class="l" cx="290.62" cy="290.62" r="290.62"/><g><path d="M419.74,137.05c-2.99-4.7-6.21-9.56-10.45-13.27-1.68-1.46-3.37-3.23-4.78-4.96-1.25-1.53-2.87-3.57-4.74-4.38,.22-.62,1.05-1.26,1.59-1.68,1.16-.91,2.41-1.81,3.73-2.45,1.88-.9,3.76-1.82,5.63-2.75,.71-.35,1.46-.82,2.27-.83-.08-1.09-4.95,.09-5.48,.22-2.57,.61-4.99,2.01-7.15,3.47-.71,.48-1.38,.91-2,1.49-.31,.29-.69,.95-1.09,1.09-.69,.24-1.97-.44-2.67-.69-2.07-.74-4.23-1.14-6.33-1.82-3.07-1-5.99-2.4-9.23-2.78s-6.27-1.42-9.36,.5c3.59-2.73,7.78-5.52,12.16-6.77,2.07-.59,4.32-.92,6.44-1.32,1.17-.22,2.41-.09,3.54-.32-.47-.57-1.87-.68-2.53-.73-2.59-.19-5.11,.27-7.64,.78-3.47,.7-6.73,1.8-9.79,3.63-2.27,1.36-4.87,2.49-6.52,4.64-.31,.4-.45,.97-.75,1.32-.41,.48-1.06,.45-1.65,.61-2.67,.73-5.43,1.92-7.79,3.33-1.38,.82-2.51,1.88-3.76,2.87-1.83,1.45-3.77,2.69-5.46,4.33-3.57,3.47-7.39,6.94-9.29,11.63-.3-1.64,.21-3.54,.31-5.2,.15-2.55,.62-4.9,1.72-7.24,1.01-2.15,2.33-4.04,3.45-6.11,.35-.65,.69-1.36,1.13-1.95-1.83,1.18-3.21,2.67-4.35,4.52-.68,1.12-1.21,2.32-1.94,3.41-.87,1.3-1.77,2.49-2.36,3.96-.88,2.17-.74,4.44-1.16,6.71-.27,1.45,0,2.71,0,4.18,0,.91,.16,2.02,0,2.91-.22,1.29-2,2.01-2.94,2.76-1.89,1.49-3.13,3.53-4.79,5.24-.61,.63-1.47,1.08-1.99,1.79-.25,.35-.28,.85-.73,.96-.65-1.53,.07-3.27,.36-4.79,.51-2.72,.79-5.48,1.67-8.11,.83-2.48,1.9-4.94,3.06-7.29,.72-1.45,1.83-2.85,2.38-4.36-1.16,.73-2.48,2.79-3.12,3.99-1.34,2.53-2.37,5.19-3.76,7.7-2.04,3.68-2.48,8.5-3.17,12.6-.1,.61,.07,1.64-.23,2.14-.4,.68-1.79,1.26-2.6,1.45-1.4,.33-3.3,.23-4.74,.23-1.56,0-3.08,.01-4.63-.19-1.85-.24-3.63-.81-5.48-1.04s-3.78-.79-5.55-1.58c-2.69-1.2-5.17-2.99-7.32-4.96-1.74-1.59-3.41-3.2-5.33-4.54-1.61-1.12-3.58-1.89-5.06-3.14,1.06-1.75,3.69-2.66,5.36-3.74,2.19-1.41,4.15-2.97,6.51-4.12,1.99-.97,4.11-2.2,6.23-2.83,.7-.21,1.45-.37,1.96-.94-5.51-1.14-11.05,2.7-15.78,4.91-1.66,.77-2.99,1.4-4.16,2.76-.49,.57-1.68,2.18-2.52,2.18-1.04-1.75-2.45-2.95-4.35-3.55-.99-.31-1.91-.82-2.96-1.04-1.2-.26-1.69-.15-1.83-1.33-.08-.65,.07-1.33,.02-1.98-.06-.81-.32-1.56-.46-2.36-.44-2.42-.03-4.84-.36-7.23-.23-1.64-1.29-2.97-1.92-4.48-.2-.47-.34-1.05-.66-1.44,.05,.66,.37,1.24,.43,1.9,.05,.49-.01,1.02-.01,1.51,0,1.69,0,3.38,0,5.07,0,1.38-.08,2.61-.49,3.94-.29,.93-.4,2.6-1.09,3.29-1.28-.54-2.31-1.87-3.55-2.6-1.23-.72-2.64-1.11-3.88-1.81-1.1-.62-2.09-1.45-3.15-2.14s-2.29-1.54-3.48-2.07c-1.38-.62-2.91-.92-4.33-1.48-2.4-.94-5.09-.98-7.4-2.14-1.2-.61-2.57-.99-3.65-1.82-1.37-1.06-2.02-2.89-2.83-4.36-.53-.96-.84-1.94-1.17-2.98-.46-1.46-.59-3.02-1.09-4.44-.39-1.13-1.04-2.02-1.14-3.22-.45,.67-.61,1.98-.72,2.77-.19,1.32-.08,2.83-.04,4.16,.06,2.4,1.09,4.25,1.75,6.49,.24,.81,.51,1.15-.31,1.4-1.06,.33-2.77-.23-3.82-.46-1.35-.3-2.62-.86-3.77-1.49-3.25-1.76-4.58-5.51-8.2-6.84-2.06-.76-3.98-.7-6.13-.92-.82-.08-4.18-1.43-4.76-.41,1.4,.85,3.56,.67,5.12,1.18,.83,.27,1.45,.87,2.26,1.16,.74,.27,1.33,.42,2.02,.82,.9,.52,5.68,4.84,3.08,5.14-.69,.08-1.86-.2-2.57-.29-1.08-.13-2.09-.11-3.17,0-2.63,.26-5.24,.53-7.82-.19-2.24-.62-4.46-.77-6.7-1.2-.98-.19-1.9-.58-2.9-.67-.58-.05-1.62,.16-2.05-.14,1.14,.79,2.06,1.5,3.36,2.11,1.07,.5,2.2,1.01,3.37,1.24,1.62,.32,3.49,.18,4.9,1.17-1.17,.85-2.72,1.24-4.01,1.85-2.06,.98-4.12,1.96-6.03,3.2-4.05,2.63-8.23,5.12-11.97,8.19-2.12,1.74-4.07,3.7-6.19,5.44-2.08,1.71-4.01,3.36-5.77,5.43-.91,1.08-1.42,2.36-2.31,3.43-1.2,1.46-2.4,2.92-3.44,4.5-2.44,3.69-4.42,7.85-6.21,11.88-.7,1.58-1.39,3.32-1.73,5.02-.23,1.14-.54,2.3-.6,3.46-.03,.63,.08,1.3-.03,1.91-.29-.34-.14-.89-.15-1.32-.01-1.01-.2-1.98-.31-2.98-.26-2.36-.31-4.74-.53-7.09-.22-2.4-.05-4.59,.3-6.98,.16-1.07,.27-2.11,.64-3.12,.13-.37,.37-.54,.29-.97,.09,1.18-.86,2.6-1.2,3.68-.44,1.37-.79,2.72-.93,4.15-.3,3.05-.24,6.08-.24,9.14,0,2.16,.21,4.2,.41,6.33,.07,.73,.15,1.46,.19,2.18s-.27,1.28-.38,1.96c-.77,5.02-2.22,9.95-2.19,15.07,.02,2.95-.14,5.93,.02,8.88,.08,1.51,.41,2.95,.54,4.45,.04,.43,.34,1.48,.21,1.88-1.13-.18-2.07-.9-3.08-1.41-1.38-.69-2.71-1.41-3.93-2.37-2.29-1.81-3.36-4.44-4.41-7.04-.95,5.1,3.63,9.25,7.24,11.99,1.07,.81,2.19,1.46,3.37,2.02,.88,.42,1.19,.71,1.22,1.78,.03,1.18,0,2.37,0,3.56-.01,1.78,.33,3.53,.4,5.31s.66,3.2,1.14,4.8,.89,3.42,1.22,5.11c.28,1.42,.82,2.61,1.41,3.94,.63,1.42,1.08,2.81,1.87,4.16,.65,1.1,1.36,2.07,1.93,3.21,.32,.64,.55,1.3,.87,1.94-.78,.47-1.82,.51-2.68,.85-2.02,.82-4.07,2.15-5.06,4.13-.57,1.15-.86,2.41-1.4,3.58-.41,.87-.81,1.78-.98,2.73s-.46,2.17-.26,3.11c.4-.89,.59-1.83,1.06-2.71,.67-1.23,1.58-2.26,2.25-3.48,.84-1.51,1.81-2.57,2.94-3.84,.82-.93,1.51-1.16,2.67-1.52,.56-.17,1.37-.6,1.94-.6,.32,0,.25-.22,.58-.05,.39,.2,.56,1.56,.69,1.94,1.26,3.6,2.91,7.14,5.27,10.18s5.41,5.49,8.2,8.18c2.92,2.81,6.35,4.66,9.74,6.83,1.46,.93,3.01,1.59,4.65,2.11,1.92,.62,3.72,1.51,5.6,2.23,1.77,.68,3.51,1.17,5.32,1.74,1.15,.36,2.62,.49,3.69,1.06-1.01,2.72-5.71,3.22-7.93,4.27-1.9,.9-3.39,1.66-5.56,1.65-.69,0-1.47-.11-2.15,.02,1.15,.92,4.35,.68,5.76,.44,1.34-.24,2.63-.7,3.93-1.08,1.58-.46,3.23-.42,4.84-.77,1.7-.37,3.52-.67,4.98-1.49,.49-.28,1.11-.57,1.66-.74,1.6-.49,3.63,.47,5.23,.82,3.06,.67,5.92,2.39,8.94,3.3,6.22,1.87,13.56,3.37,19.54-.1,3.39-1.97,6.97-3.63,10.77-4.68,2.34-.65,4.76-1,7.15-1.43,1.22-.22,2.72-.7,3.96-.65,.94,.04,1.01,.53,.85,1.39-.19,1.01-.97,1.88-1.36,2.81-.33,.79-.52,1.64-.66,2.48-.43,2.53-.88,5.01-.4,7.58,.14,.74,.24,1.25,.75,1.79,.31,.34,.64,.48,.85,.92-.03-2.37-.6-4.91,0-7.23,.76-2.91,2.29-5.18,4.03-7.62,1.41-1.98,3.19-4.65,5.84-4.69,1.17-.02,2.33-.25,3.5-.2,1.1,.05,2.14,.19,3.25,.19,3.09-.01,6.17,.05,9.27,0,1.29-.02,2.51-.16,3.79-.31,1.08-.13,2.13-.04,3.19-.33,1.18-.32,2.34-.5,3.54-.73,1.68-.32,3.12-1.08,4.83-1.3,2.43-.32,4.9-.67,7.35-.69,2.89-.03,5.96-.02,8.82-.5,4.61-.78,9.21-.16,13.88-.11,1.89,.02,3.64,.69,5.5,.81,1.36,.09,2.88,.45,4.22,.78,2.07,.51,4.19,1.17,6.11,2.13,1.69,.85,3.13,2.21,4.24,3.75,1.04,1.43,1.06,2.78,1.06,4.49,0,1.99,.28,4.17-.1,6.12-.34,1.75-1.55,3.19-1.98,4.87,2.59-1.91,3.35-6.18,4.05-9.11,.39-1.64,.78-3.15,.81-4.85,.02-1.13,.08-2.36-.15-3.48-.03-.16-.42-1.07-.24-1.26,.64-.71,3.26,.79,3.86,.99,1.62,.52,3.65,.56,5.36,.68,3.75,.27,7.44-.57,11.19-.31,4.24,.29,8.52-.38,12.54-1.84,2.59-.94,4.93-2.5,7.49-3.54,3.25-1.31,5.78-3.12,8.76-4.9,2.37-1.42,3.89-3.4,5.95-5.2,.77-.68,1.63-1.24,2.36-1.96,1.14-1.11,2.04-2.45,3.09-3.65,1.74-1.99,3.95-3.41,5.49-5.57,1.4-1.96,3.45-3.38,4.98-5.24,2.07-2.53,3.17-5.37,4.51-8.3,.79-1.72,2.1-3.12,2.81-4.86,.3-.73,.38-1.48,.64-2.21,.44-1.24,1.12-2.03,1.14-3.43,.03-2.44,.91-4.8,1.18-7.22,.33-2.93,.41-5.91,.63-8.85,.48-6.46,.47-13.31-.44-19.7-.84-5.82-1.92-11.87-4.11-17.33-1.42-3.55-2.14-7.33-3.56-10.87-1.1-2.74-1.96-5.63-3.22-8.29-1.39-2.93-3.27-5.61-5.04-8.36-.58-.9-1.16-1.73-1.67-2.66-.26-.47-.63-1.06-1-1.44-.17-.27-.42-.5-.59-.79,0,.07-.1,.2-.99-1.19Z"/><path class="g" d="M190.99,174.57c.08,2.06,.35,4.27,.08,6.34-.22,1.66-.55,3.31-.71,4.97-.28,2.8-.94,5.59-1.59,8.32-.87,3.63-.95,7.9,.15,11.51,.82,2.7,2.98,5.59,5.72,6.6,1.25,.46,3.33,1,4.54,.27,2.3-1.4,2.66-5.6,2.97-7.93,.57-4.25,.35-8.58,.35-12.88,0-1.45,0-2.89,0-4.34,0-.64-.08-1.54,.29-2.09"/><path class="g" d="M272.87,190.92c.8-2.94,1.68-5.78,3.53-8.24,.93-1.25,1.61-2.62,2.73-3.72,1.91-1.88,3.97-3.85,6.45-4.97,1.03-.47,2.19-.59,3.3-.77,.98-.16,2.09-.21,2.99,.26,1.84,.95,2.54,3.07,2.78,5.01,.32,2.59-.24,4.89-1.13,7.29-.74,2.01-1.97,3.89-3.03,5.73s-2.08,3.7-3.36,5.43c-1.77,2.38-3.3,4.99-4.76,7.57-.79,1.39-1.48,2.8-2.12,4.26-.68,1.58-1.47,3.12-2.07,4.73-1,2.68-1.9,5.36-2.49,8.16-.31,1.48-.93,3.07-.74,4.6,.4,.08,.85-.08,1.25-.14,1.11-.17,2.2-.36,3.3-.59,1.31-.28,2.64-.58,3.95-.81,1.85-.32,3.65-.41,5.47-.94,1.4-.41,2.79-.75,4.24-.96,1.3-.19,2.66-.12,3.92-.49,.65-.19,1.55-.48,2.21-.24v.18"/><path class="g" d="M317.5,164.51c-1.6,6.48-4.29,12.7-5.43,19.3-.22,1.25-.33,2.52-.6,3.77-.2,.93-.54,1.81-.77,2.73-.14,.56-.41,1.14-.51,1.69-.04,.23,.05,.47-.09,.66,.84,.83,2.91,.51,3.95,.52,1.24,0,2.45-.04,3.68-.14,1.44-.11,2.88,0,4.31-.18,2.2-.27,4.43-.29,6.63-.52,.74-.08,1.68-.31,2.41-.24,.15-.19,.35-.42,.43-.65"/><path class="g" d="M342.18,159.98c-.85,2.22-1.61,4.37-2.26,6.65-.38,1.32-.69,2.63-.98,3.98-.31,1.46-.99,2.75-1.49,4.15-.47,1.34-.87,2.74-1.3,4.11-.88,2.81-1.13,5.81-1.9,8.66-.53,1.93-.91,3.9-1.43,5.84-.5,1.87-1.06,3.7-1.47,5.59-1.27,5.77-2.3,11.59-3.62,17.35-.62,2.71-1.14,5.41-1.65,8.14-.16,.87-.21,1.75-.37,2.62-.05,.27-.16,.54-.13,.82"/><path class="g" d="M226.55,162.62c-2.71,2.33-5.37,4.34-6.95,7.57-.59,1.21-1.02,2.9-1.15,4.23s-.32,2.87-.13,4.26c.22,1.6,.76,3.25,1.36,4.74,.93,2.3,2.92,4.11,4.7,5.77,1.71,1.6,3.93,2.52,6.27,2.76,2.68,.28,5.27-.05,7.68-1.41,.7-.4,1.33-.94,2.05-1.3,.79-.39,1.56-.65,2.23-1.25,1.26-1.11,2.4-2.32,3.43-3.69,1.32-1.75,2.25-4.32,2.71-6.43,.2-.95,.1-2.01,.2-2.98,.12-1.19,.15-2.29,0-3.48-.11-.91-.12-1.85-.56-2.64-.47-.86-1.08-1.82-1.7-2.6-1.02-1.28-2.17-2.73-3.61-3.56-3.04-1.75-7.43-2.64-10.89-2.03-1.47,.26-3.34,.46-4.59,1.33-.42,.29-1.63,1.3-1.05,.7Z"/><path class="i" d="M219.03,175.34c.63-.06,1.14-.18,1.73-.4,.26-.1,.54-.17,.81-.25,.76-.23,1.49-.55,2.26-.72,.39-.09,.75-.25,1.15-.27,.45-.03,.9,0,1.35,0h2c.49,0,1-.04,1.49,.04,.98,.16,1.96,.28,2.94,.43,1.29,.19,2.58,.55,3.87,.78,.47,.08,.96,.12,1.42,.23,.32,.08,.63,.18,.96,.24,.68,.13,1.35,.36,2.02,.56,1.08,.32,2.06,.81,3.06,1.33,.72,.38,1.61,.76,2.08,1.46,.34,.5,.45,1.08,.49,1.67,.03,.41,.05,.9-.04,1.29-.15,.66-.57,1.28-.92,1.84-.69,1.09-1.42,2.19-2.41,3.03-.47,.4-.89,.86-1.35,1.27s-.96,.71-1.47,1.03c-1.2,.76-2.62,1.19-3.96,1.63-.74,.24-1.52,.39-2.29,.47-.35,.04-.67,.14-1.02,.18-.42,.05-.84,.05-1.26,.05-.66,0-1.26-.02-1.9-.21-.59-.17-1.18-.39-1.74-.62-1.13-.48-2.19-.98-3.17-1.74-.72-.57-1.46-1.14-2.12-1.78-.33-.33-.56-.74-.85-1.11-.57-.73-1.06-1.5-1.5-2.32-.39-.73-.87-1.44-1.16-2.22-.26-.7-.33-1.44-.39-2.17-.06-.64-.11-1.28-.11-1.93,0-.54-.04-1.11,0-1.65,.04-.01,.08-.01,0-.13Z"/><path class="i" d="M178.29,174.69c-.49-.69-.9-1.32-1.56-1.84-.39-.31-.74-.65-1.15-.93-.4-.27-.79-.64-1.22-.83-.48-.22-.95-.44-1.41-.7-.4-.22-.75-.4-1.19-.54-.56-.18-1.12-.29-1.69-.41-1.22-.25-2.41-.45-3.65-.45-.55,0-1.11-.02-1.66,.07s-1.07,.26-1.62,.35c-1.16,.18-2.28,.57-3.4,.93-.87,.28-1.67,.7-2.49,1.1-.63,.3-1.33,.69-1.83,1.19s-.68,1.13-.72,1.8c-.03,.4,0,.8,.04,1.19,.07,.62,.16,1.28,.29,1.89,.16,.73,.5,1.41,.74,2.11s.66,1.42,1.01,2.11c.27,.53,.65,.96,1.02,1.43,.22,.28,.42,.56,.72,.77,.27,.2,.57,.36,.84,.56s.52,.42,.82,.58c.19,.1,.39,.18,.58,.28,.51,.26,.96,.62,1.46,.91,.95,.55,1.93,.98,3.04,.99,1.02,.01,2.03-.03,3.03-.27,.38-.09,.72-.25,1.08-.41,.41-.18,.85-.29,1.22-.55,.25-.18,.49-.39,.73-.57,.56-.43,1.15-.78,1.66-1.27,.68-.66,1.37-1.3,2.03-1.99,.19-.19,.38-.38,.57-.57,.35-.35,.56-.78,.83-1.18,.15-.22,.32-.41,.48-.62,.23-.31,.39-.64,.52-1.01,.18-.48,.51-.9,.61-1.4,.08-.38,.2-.72,.19-1.11,0-.24-.03-.49-.04-.73-.02-.33-.08-.66,.15-.87Z"/><path class="g" d="M162.57,156.39c-.38,.11-2.03,.91-2.38,1.08-.67,.33-1.29,.74-1.84,1.25-1.09,.99-1.79,2.39-2.45,3.66-1.43,2.75-2.08,5.37-2.08,8.48,0,2.71,.38,5.52,1.35,8.08,.82,2.15,2.15,4.54,3.81,6.14,1.82,1.75,4.2,2.67,6.71,2.8,1.38,.07,2.7,.07,3.99-.48,1.71-.73,3.34-1.76,4.52-3.21,1.99-2.44,3.85-5.16,4.54-8.27,.87-3.89,.38-8.04-2.06-11.3-1.16-1.55-2.2-3.26-3.64-4.57-1.25-1.13-2.73-1.82-4.15-2.7-1.73-1.07-3.8-1.29-4.08-1.25,.08,0-1.4,.05-2.24,.28Z"/><path class="i" d="M225.81,222.83c-2.1,.76-3.93,1.43-6.03,1.92-.38,.09-.76,.19-1.12,.38-1.06,.56-.82,2.53-.82,3.57,0,1.67-.02,3.31,.3,4.93,.08,.42,0,1.29,.58,1.45,.45,.13,.82-.5,1.06-.75,.69-.72,1.47-1.43,2.08-2.22,1.43-1.85,2.7-3.59,3.67-5.73,.35-.77,.73-1.36,.73-2.22,0-.51-.18-1.66-.45-1.34Z"/><path class="i" d="M215.19,226.96c-.14,2.9-.42,6.08-.15,9,.04,.43,.27,.82,.07,1.24-.29,.59-1.38,.95-1.97,1.16-.89,.32-1.76,.49-2.63,.89-1.02,.46-2,.58-3.07,.85s-1.83-.22-2.42-1.12c-.85-1.28-.77-3.27-.93-4.82-.12-1.19-.16-2.33-.33-3.5-.03-.23-.29-1.28-.18-1.46,.16-.26,.77-.16,.99-.19,.48-.08,.91-.3,1.39-.39,1.46-.26,2.92-.07,4.38-.21,.82-.08,1.74-.12,2.54-.29,.71-.15,1.28-.48,2.33-1.16Z"/><path class="i" d="M200.88,228.88c.21,2.71,.38,5.43,.58,8.13,.04,.48,.09,1.12-.02,1.6-.44,0-.93-.26-1.33-.4-.56-.2-.97-.22-1.53-.34-1.15-.25-2.24-1.02-3.34-1.47-.84-.34-2.37-.44-3.03-1.05-.4-.37-.67-1.16-.74-1.68-.09-.7,.07-1.44-.03-2.13-.05-.36-.25-.65-.12-1,2.56-.44,5.44,.15,7.94-.6,.57-.17,.9-.73,1.36-.16,.31,.38,.06,1.3,.25-.88Z"/><path class="i" d="M188.78,230.2c-.07,1.05-.19,2.09-.33,3.13-.53-.72-7.59-2.39-6.89-3.64,.46-.83,3.83-.01,4.58,.1,.54,.08,1.06,.06,1.61,.11,.33,.03,.7,.21,1.03,.29Z"/><path class="i" d="M377.73,219.48c-.3-.15-.66-.06-.95,.11-2.88,1.72-5.72,3.47-9.11,4.09-.87,.16-1.76,.14-2.64,.31-1.62,.3-3.21,.8-4.83,1.1-1.02,.19-2.06,.34-3.09,.44-.4,.04-1.41,0-1.71,.3-.39,.38-.14,1.52-.07,1.94,.23,1.41,.72,2.7,1.17,4.05,1.14,3.42,2.94,6.15,4.96,9.1,1.01,1.49,2.12,2.39,3.43,3.58s2.52,2.23,3.92,3.17c1.73,1.15,3.61,1.78,5.6,2.28,1.56,.4,3.01,.9,4.64,.98,1.31,.07,3.67,.6,3.91-1.13,.23-1.62-.3-3.25-.63-4.81-.21-1.01-.31-2.05-.46-3.07-.2-1.36-.58-2.67-.8-4.02-.4-2.48-.72-4.96-1.22-7.43-.26-1.26-.54-2.44-.67-3.72-.09-.97-.49-1.84-.64-2.79-.18-1.15-.47-2.27-.59-3.42-.03-.27-.03-.39-.12-.89,0,.06,0-.14-.09-.18Z"/><path class="i" d="M381.62,218.68c.02,.18,1.79,9.59,2.71,14.92,.45,2.63,.81,5.27,1.29,7.89,.4,2.22,.96,4.39,1.38,6.6,.15,.82,.35,1.88,.66,2.66,.72-.31,1.37-.89,2.05-1.29,.97-.57,2.03-.91,3-1.5,1.17-.71,2.19-1.47,3.46-2,1.06-.44,1.87-.91,2.8-1.58,1.14-.82,2.25-1.71,3.15-2.79,.7-.85,1.45-1.47,1.81-2.51,.3-.85,.26-1.88,.18-2.76-.42-4.39-1.4-8.72-1.92-13.1-.55-4.64-1.39-9.39-2.6-13.88-.84-.02-1.86,.86-2.59,1.21-.8,.38-1.5,.8-2.24,1.28-2.21,1.46-4.77,2.44-7.25,3.36-1.74,.64-4.21,1.66-5.94,2.3-.06,.02,.07,1.25,.06,1.2-.04-.13,.05,.04,0,0Z"/><path class="i" d="M402.21,207.79v.08c.59,2.97,1.26,6.02,1.78,9.01,.17,1,.19,2.03,.37,3.03,.35,1.94,.87,3.86,1.32,5.77,.29,1.2,.41,2.43,.54,3.66,.09,.89,.52,1.72,.59,2.6h0c1.38-1.02,1.76-2.78,2.31-4.33,.94-2.62,1.85-5.39,2.35-8.13s.66-5.47,.63-8.26c-.01-1.13-.35-1.91-.65-2.97-.23-.84-.32-1.7-.61-2.53-.27-.76-.52-1.62-.98-2.28-.51-.72-.65-.42-1.15,.19-1.03,1.25-2.49,1.99-3.81,2.91-.87,.61-2.56,1.08-2.63,1.12-.06,.08-.04,.04-.05,.13Z"/><path class="g" d="M391.51,185.49c2.76-.28,5.23-.63,7.88,.23,1,.33,2.18,.69,3.09,1.19,1.2,.67,2.51,1.13,3.69,1.83s2.2,1.87,3.25,2.82c1.94,1.75,3.33,3.99,5.15,5.79,1.42,1.41,2.37,3.22,4.23,4.18,1.66,.86,3.47,.85,5.04-.3,.88-.64,1.65-1.69,2.23-2.6,.46-.71,.56-1.42,.75-2.22,.24-1.03,.62-2,.68-3.06,.28-4.72,.14-9.62-1.52-14.08-.68-1.84-1.84-3.37-2.67-5.13-.74-1.59-1.93-3.76-3.47-4.74-1.32-.84-2.87-1.48-4.32-2.07-1.29-.52-2.38-.56-3.75-.71-1.75-.2-3.4-.89-5.16-.91"/><path class="i" d="M356.14,187.82c2.15-1.54,3.96-2.76,5.69-4.61,.53-.57,1.11-1.1,1.67-1.66,1.54-1.55,3.12-2.94,4.34-4.78,1.44-2.17,2.92-4.48,4.74-6.34,1.56-1.59,2.59-3.37,4.73-4.2,1.33-.52,2.83-1,4.29-.86,.88,.08,1.85,.76,2.59,1.22,.77,.47,1.27,.98,1.71,1.78,.95,1.76,.78,4.32-.15,6.04-.77,1.41-1.6,2.41-2.82,3.46-.63,.55-1.07,1.27-1.7,1.81-.65,.57-1.59,1.12-2.36,1.5-1.57,.76-3.28,1.26-4.82,2.1-1.71,.93-3.21,1.37-5.1,1.75-1.75,.36-3.43,1.08-5.19,1.43-1.07,.21-2.16,.13-3.23,.29-.61,.09-4.12,.7-4.4,1.06Z"/><path class="i" d="M403.35,156.5c1.62-2.17,3.04-4.5,4.74-6.61,.99-1.23,1.65-2.69,2.51-4.02,.98-1.51,1.99-3.05,3.38-4.22,.59-.5,1.4-1.1,2.13-1.38,.63-.24,1.34-.14,2.03-.14,1.68,0,2.63,1.38,3.04,2.88,.37,1.36,.68,2.98,.27,4.35-.66,2.17-2.92,3.78-4.78,4.89-2.36,1.41-5.05,1.58-7.52,2.67-1.93,.86-3.77,1.41-5.83,1.88-.11,0-.17-.05,.03-.32Z"/><path class="h" d="M165,177.37c-.41,.42-1.73,1.41-1.59,2.27,.05,.3,.15,.62,.26,.91,.29,.72,.94,.91,1.65,.97s1.35-.45,1.71-1.06c.29-.48,.57-1.21,.19-1.72-.34-.47-.9-1.09-1.51-1.18-.29-.04-.96-.06-.72-.19Z"/><path d="M231.3,182.87l-.94,.55-.35,.31c-.03,.06-.03,.2-.05,.27-.07,.29-.12,.58-.08,.88s.26,.54,.41,.79c.12,.2,.21,.33,.43,.41,.97,.37,2.41-.46,2.57-1.52,.1-.64-.47-1.43-1.09-1.57-.26-.06-.53-.03-.79-.03-.13,0-.28-.03-.12-.09Z"/><path class="h" d="M380.83,167.45c-1.09,.51-2.04,1.21-2.83,2.09,.02,.32,0,.64-.03,.96-.03,.53-.08,1.04,.08,1.56,.31,1.01,1.38,2.23,2.3,2.73,1.85,1,4.15-.51,4.81-2.34,.7-1.95-.26-4.26-2.06-5.23-.74-.4-1.56-.44-2.4-.37-.76,.07-1.87,.87,.13,.61Z"/><path class="h" d="M416.33,142.06c-.87,.6-1.55,1.35-2.06,2.25,0,.35,0,.69,.01,1.04,0,.41-.11,.91,.04,1.3,.26,.71,1.47,1.67,2.18,1.79,1.65,.3,3.1-2.36,3.21-3.71s-.66-2.2-1.93-2.4c-.69-.11-1.86-.59-1.45-.27Z"/><path d="M208.36,481.68c-1.41-18.48-4.71-36.8-6.08-55.36-.89-12.04-.7-24.36,.41-36.38,.37-3.95,1.41-7.64,1.39-11.64-.01-2.59,.21-4.87,.49-7.39,.61-5.34-.32-11.12,.55-16.42,2.48,1.88,2.6,6.77,5.56,8.96,1.5,1.11,5.16,2.93,7.19,2.41-.79-1.54-3.29-2.24-4.53-3.48-1.54-1.55-2.61-3.57-3.56-5.51-1.4-2.85-1.89-4.95-1.89-8.09,0-6.14-.86-14.32-8.02-16.12-6.91-1.73-11.67,8.55-12.94,13.61-2.06,8.16-2.71,16.56-4.05,24.9-1.88,11.72-2.07,24.32-2.16,36.18-.07,10.21-.67,20.99,1.46,31.02,.98,4.64,1.12,9.86,1.37,14.59-1.66,.48-3.7,0-5.46,.16-2.98,.26-6.28,1.18-9.26,1.69-3.43,.59-6.32,1.83-9.54,3.05-2.69,1.03-6.17,2.1-8.5,3.78-7.28,5.23-11.81,20.5-2.94,26.48,5.19,3.49,13.26,2.12,19.16,2.14,6.11,.02,12.39-1.2,18.39-2.39,7.36-1.46,14.96-2.37,22.97-6.18Z"/><path d="M224.56,302.58c-4.24,6.92-8.09,11.59-7.18,19.6,.43,3.78,3.24,7.09,4.27,10.73-4.84-1.89-7.87-7.37-8.63-12.1-1.6,2.9-1.43,7.65-1.69,10.86-.3,3.65-.79,7.08-1.89,10.6-1.44,4.61-2.35,10.9-8.59,10.35-13.02-1.14-11.03-16.78-8.16-25.42,.92-2.78,2.58-5.31,3.66-8.03,1.45-3.64,2.71-7.3,4.39-10.86,4.75-10.07,10.61-19.36,16.05-29.01,4.53-8.02,7.94-16.02,15.76-21.39,2.19-1.5,5.8-4.01,8.61-3.46,3.17,.62,4.36,3.97,4.97,6.68,1.67,7.45-2.5,14.41-7.16,19.9-2.32,2.74-4.25,5.82-6.44,8.62-.89,1.15-1.91,2.19-2.74,3.44-.71,1.07-1.3,3.09-5.23,9.5Z"/><path d="M468.45,490.73c-1.95-5.43-3.55-10.75-6.83-15.44-1.13-1.62-2.06-3.34-3.18-4.96-1.87-2.72-4.3-5.3-6.61-7.52-3.69-3.54-7.66-7.02-11.53-10.47-7.71-6.88-8.45-17.61-8.55-27.26-.11-10.41,.79-21.15-.36-31.46-.38-3.43-.77-6.82-1.08-10.28-.33-3.75,.31-7.58-.09-11.33-.59-5.52-.72-11.31-.83-16.85-.03-1.45-.37-2.69-.51-4.11-.17-1.77,.3-3.65,.03-5.4-.3-1.97-1.29-3.69-.92-5.8,2.81,1.67,5.22,3.71,8.09,5.34,1.52,.87,4.76,2.67,6.62,2.07-.69-1.27-4.3-3.05-5.68-3.94-1.8-1.15-3.96-1.73-5.52-3.3-2.54-2.55-3-5.5-3.66-8.8-.7-3.54-3.2-6.3-7.06-6.78-3.22-.41-6.24-.97-9.04,.98-4.72,3.28-2.75,11.71-2.86,16.68-.15,6.43-3.53,13.63-9.39,16.7,3.79,.16,11.42-5.29,11.4-9.42,.74,.98,.67,3.98,.81,5.32,.16,1.5-.07,3.01,0,4.51,.12,2.31,.96,4.46,1.02,6.79,.11,4.43-.02,8.88-.04,13.31-.02,5.73,.64,11.31,.24,17.06-.78,11.15,.24,22.29,.24,33.44,0,10.41,0,20.81,0,31.22,0,7.85,.29,15.64,.48,23.46,.07,2.97,1.32,6.17,2.72,8.7,1.75,3.18,4.43,3.72,7.77,3.72,5.04,0,10.27,.4,15.26-.24,5.67-.72,11.92-.42,17.67-.24,3.1,.1,6.24,.87,9.38,.4,.41-1.66,.56-2.95,1.99-6.12Z"/><path d="M415.57,274.47c1.94,3.93,4,8.93,6.27,12.94,.6,1.06,1.46,2.02,1.89,3.17,.79,2.12,1,4.65,1.49,6.88,1.06,4.9,1.82,10.04,1.79,15.03-.03,4.8,0,9.61,0,14.41,0,3.75,.92,9.35-.95,12.82-1.71,3.16-5.16,6.72-9.01,5.28-4.29-1.6-6.97-7.22-7.86-11.42-.74-3.45-1.25-7.06-1.67-10.5-.38-3.18-1.07-6.61-.97-9.82-1.01,5.44-5.81,11.03-11.83,10.7,5.15-4.04,13.05-9.81,10.64-17.55-.65-2.09-1.66-4.65-2.61-6.67-1.9-4.04-3.35-7.77-6.63-10.92-4.54-4.37-9.73-8.65-15.03-12.05-2.33-1.49-4.7-2.66-6.9-4.29-1.31-.97-3.02-1.79-3.81-3.22-.71-1.28-.91-3.16-1.02-4.58-.24-2.99,.64-5.2,2.73-7.37,3.08-3.19,6.29-4.05,10.3-5.35,5.32-1.72,11.1-1.82,15.84,1.3,7.93,5.22,10.89,13.92,15.88,21.63,3.63,5.61,7.32,11.45,9.44,17.79,2.25,6.72,2.97,13.25,2.98,20.36"/></g></g></g><g id="e"><polygon class="j" points="620.79 574.66 198.94 574.66 198.94 441.99 620.79 441.99 588.16 508.96 620.79 574.66"/><text class="f" transform="translate(248.76 546.08)"><tspan x="0" y="0">MESES SIN INTERESES</tspan></text><text class="k" transform="translate(285.02 495.62)"><tspan x="0" y="0">Monstruo</tspan></text></g></g></svg>