<?xml version="1.0" encoding="UTF-8"?><svg xmlns="http://www.w3.org/2000/svg" xmlns:xlink="http://www.w3.org/1999/xlink" viewBox="0 0 154.9 154.9"><defs><style>.e,.f,.g{fill:#fff;}.f,.h,.g,.i,.j,.k,.l,.m{stroke-miterlimit:10;}.f,.h,.g,.i,.j,.l,.m{stroke-width:.25px;}.f,.i,.l,.m{stroke:#fff;}.h,.g,.j{stroke:#000;}.i{opacity:.53;}.j,.n,.k,.m{fill:none;}.o{clip-path:url(#d);}.k{stroke:#f5eee8;}</style><clipPath id="d"><circle class="n" cx="77.45" cy="77.45" r="77.45"/></clipPath></defs><g id="a"/><g id="b"><g id="c"><g class="o"><circle class="k" cx="77.45" cy="77.45" r="77.45"/><g><path class="h" d="M44.13,82.07c-6.53,5.28-8.41,15.03-5.63,22.95,2.77,7.93,9.5,14.02,17.12,17.56,16.49,7.65,36.69,3.92,51.86-6.1,5.22-3.45,10.18-7.87,12.24-13.78,1.57-4.51,1.3-9.43,.87-14.19-.45-4.9-1.04-9.78-1.79-14.64-1.38-8.97-3.46-18.26-9.3-25.2-4.35-5.17-10.66-8.65-17.35-9.59l2.44-7.19c3.42,1.53,7.96-.48,9.13-4.04s-1.29-7.87-4.96-8.66c2.32-2.17,4.52-4.47,6.58-6.89,.78-.92,1.58-2.19,.98-3.23-.57-1-2-1.01-3.13-.79-3.33,.65-6.48,2.19-9.18,4.54-2.82-2.26-6.83-2.96-10.25-1.77-3.42,1.18-6.14,4.2-6.96,7.73-3.48,.23-5.32,3.71-5.39,7.2-.07,3.49,3.51,6.89,6.62,5.55,1.41,2.18,2.2,3.61,2.99,5.42,.65,1.48-4.5,3.34-4.5,4.95-1.8-1.89-3.63-3.81-5.89-5.12s-5.05-1.95-7.52-1.1c-3.11,1.07-5.01,4.16-6.51,7.09-3.85,7.55-6.76,15.55-9.65,23.52-1.97,5.44-3.97,11.29-2.51,16.88,2.02,7.73,9.81,12.28,17,15.78"/><path class="g" d="M97.54,19.25c-1.67,3.57-2.64,7.32-2.72,11.26-.01,.61,.01,1.27,.39,1.76,.43,.55,1.18,.72,1.88,.74,2.48,.09,4.97-1.2,6.32-3.29,1.35-2.09,1.51-4.89,.41-7.12-1.1-2.23-3.43-3.8-5.91-3.99-.68-3.23-2.89-6.1-5.84-7.58-2.95-1.47-6.58-1.52-9.57-.12-2.99,1.4-5.27,3.72-6.03,6.93-3.04,.68-5.47,3.92-5.86,7.01s1.26,6.31,3.95,7.87c.84,.49,2.4,.78,3.09,.09,.21-.21,.16-.24-.06-.95-1.27-4.23-1.31-9.3-.41-13.28,.49-2.18,2.25-4.18,3.95-5.63,1.7-1.45,3.94-2.29,6.18-2.19,2.32,.1,4.54,1.19,6.26,2.76,1.71,1.57,2.95,3.61,3.96,5.7,0-.01,.02,.02,0,0Z"/><path class="g" d="M89.18,22.23c.87,.64,2.04,.75,3.1,.52s2.01-.79,2.9-1.39c-.04,.81-.23,1.6-.57,2.34-.28,.63-.7,1.24-1.33,1.51-.84,.36-1.85,.02-2.52-.61s-1.07-1.48-1.57-2.36Z"/><path class="g" d="M77.79,21.97c.11-.02,.3,.06,.48,.18,.2,.14,.35,.26,.51,.39,.64,.53,1.6,.54,2.38,.27,.61-.22,1.15-.68,1.8-.7,.11,.41-.17,.81-.43,1.15-.43,.53-.87,1.08-1.48,1.38-.75,.37-1.69,.31-2.39-.16-.69-.47-1.12-1.32-1.05-2.16,0-.08,.01-.16,.06-.25,.04-.07,.07-.07,.13-.1Z"/><path class="h" d="M80,23.63c-.18-.13-.45-.09-.58,.09s-.08,.45,.1,.57,.46,.05,.56-.14,0-.47-.08-.52Z"/><path class="h" d="M92.32,23.49h-.05c-.26,.05-.43,.34-.29,.57,.03,.05,.07,.1,.13,.13,.21,.13,.54,.03,.63-.2,0-.02,.01-.04,.02-.06,.06-.25-.18-.48-.44-.44Z"/><path class="m" d="M97.18,19.06c-5.89,2.8-15.65,2.26-19.85,.78-.02,0-.17-.03-.17-.03"/><path class="i" d="M91.44,27.5s0-.01-.01,0c-.49,.77-1.21,1.07-2,1.27-1.42,.36-2.9,.48-4.35,.33-.93-.09-1.93-.34-2.48-1.1-.06,1.25,.03,2.61,.82,3.58,.77,.95,2.08,1.33,3.31,1.3,.88-.02,1.77-.23,2.48-.74,.72-.51,1.22-1.28,1.54-2.1s.47-1.65,.69-2.55Z"/><path class="f" d="M87.88,30.12l.05,1.14c0,.08,0,.16,.06,.21,.08,.09,.22,.07,.33,.04,.83-.25,1.55-1.06,1.74-1.9-.76,.31-1.5,.51-2.18,.51Z"/><path class="f" d="M86.96,30.11c.02,.51,.04,.81,.06,1.32-.37,.11-.77,.13-1.15,.09-.09-.01-.2-.03-.26-.11-.05-.06-.06-.15-.07-.23-.03-.34-.06-.83-.09-1.18,.5,.06,1.03,.08,1.51,.11Z"/><path class="f" d="M84.71,29.93s.04,.02,.04,.05c-.02,.42-.03,.63-.05,.97,0,.03,0,.07-.03,.09-.03,.02-.07,0-.1,0-.54-.22-.97-.68-1.16-1.23,.41,.06,1.12,.12,1.3,.13Z"/><path class="l" d="M86.82,23.76c-2.32,.47-4.35,2.18-5.21,4.38-.23,.58-.38,1.24-.16,1.83s.92,1.02,1.49,.76c.58-.27,.69-1.03,.86-1.65,.31-1.15,1.09-2.16,2.12-2.75,1.03-.59,2.3-.76,3.45-.45"/><path class="m" d="M82.89,19.12c.3-.87,.65-1.77,1.32-2.41s1.72-.96,2.53-.52c.52,.28,.98,.89,1.35,1.34,.39,.48,.71,1.07,.71,1.66-1.65,.25-4.25,.31-5.92-.08Z"/><path d="M34.94,79.02c1.69-1.23,2.32-3.55,2-5.62s-1.42-3.93-2.64-5.62c-7.05-9.82-18.27-15.82-26.25-24.89-2.29-2.6-4.35-5.49-7.23-7.42-2.88-1.93-6.91-2.68-9.76-.69-1.92,1.34-2.92,3.62-3.66,5.84-.58,1.72-1.06,3.6-.53,5.34,.63,2.1,2.55,3.5,4.38,4.7,1.51,.99,3.07,1.97,4.81,2.44,1.74,.47,3.73,.36,5.2-.69,1.47-1.05,2.2-3.19,1.21-4.7-.56-.28-1.25,.29-1.32,.92s.25,1.22,.57,1.76l3.8,6.6c4.09,7.1,8.27,14.32,14.31,19.85,2,1.83,4.26,3.49,6.88,4.17,2.62,.68,5.52,0,8.23-1.98Z"/><path class="f" d="M9.17,42.05c-.71-.31-1.66-.23-2.12,.4-.57,.77-.15,1.84,.28,2.69l-4.37,4.54c-.32,.34-.66,.68-.82,1.12s-.11,.99,.25,1.29c.33,.27,.82,.26,1.2,.09,.39-.17,.69-.48,.99-.79l3.53-3.6c.28-.28,.57-.58,.95-.68,.72-.2,1.49,.33,2.22,.13,.78-.21,1.13-1.2,.92-1.98s-.57-1.04-1.17-1.64c-.01,.02,0-.02,0,0,.01,0-1.14-1.26-1.85-1.57Z"/><path class="g" d="M7.92,42.28c-.33,.05-.56,.37-.61,.7s.05,.66,.17,.97c.48,1.23,1.42,2.32,2.66,2.75,.36,.12,.78,.18,1.09-.03,.22-.15,.35-.41,.4-.68,.07-.38-.02-.78-.18-1.14s-.41-.66-.67-.95c-.45-.49-.97-.93-1.53-1.29-.21-.14-.43-.26-.67-.33s-.49-.03-.65,0Z"/><path class="g" d="M10.95,50.72l-4.76,3.8c-.35,.28-.71,.57-.97,.93s-.42,.83-.33,1.27,.48,.83,.93,.82c.37,0,.69-.26,.97-.49,1.87-1.57,3.73-3.13,5.67-4.62v-.02"/><path class="g" d="M14.12,46.95c-1.36-.29-2.82,.69-3.17,2.04-.35,1.34,.4,2.85,1.62,3.5,.67,.35,1.48,.46,2.18,.2,1.16-.42,1.8-1.79,1.6-3s-1.12-2.23-2.23-2.74c0,0,0,.01,0,0Z"/><path class="g" d="M14.17,47.61c-.49-.14-1-.04-1.39,.18s-.67,.61-.82,1.03c-.24,.69-.17,1.5,.24,2.1,.42,.6,1.18,.96,1.9,.83,.65-.11,1.21-.61,1.44-1.23s.15-1.34-.17-1.91c-.3-.54-.68-.8-1.2-.99Z"/><path class="g" d="M1.22,42.55c-.81-.2-1.72,.11-2.23,.76s-.61,1.61-.23,2.35c.25,.49,.68,.87,1.1,1.23l3.17,2.74c.44,.38,.93,.79,1.52,.84,.75,.07,1.43-.48,1.89-1.08,.57-.74,.96-1.72,.66-2.6-.25-.72-.92-1.21-1.55-1.63-1.43-.96-2.77-2.21-4.32-2.6Z"/><path class="j" d="M5.91,46.29c-.8-.27-1.74,0-2.28,.65-.53,.65-.62,1.63-.21,2.36"/><path class="g" d="M13.35,48.75c.1,.4,.19,.8,.31,1.15l.96-1.13"/><path class="g" d="M8.41,43.74c.45,0,.91,.09,1.34,.26-.14,.36-.22,.74-.22,1.13"/><path class="h" d="M26.99,74.7c-.18-5.92,.12-12.1,2.95-17.3,2.83-5.2,8.88-9.08,14.62-7.65,2.47-7.33,9.33-12.97,17-13.98,7.66-1.01,15.76,2.67,20.04,9.11,.79,1.19,1.48,2.56,1.37,3.98-.26,3.29-4.26,4.73-7.54,5.07-3.28,.34-7.22,.73-8.71,3.68-1.06,2.1-.35,4.61-.37,6.97-.03,4.05-2.53,7.99-6.17,9.75-3.65,1.76-8.28,1.27-11.48-1.22,1.5,4.36,0,9.58-3.6,12.46-3.59,2.88-9.02,3.23-12.94,.82-3.93-2.41-5.04-7.3-5.17-11.68Z"/><path class="g" d="M-11.44,146.19c-.18-.09-.25-3.44-.25-5.18,0-17.24,2.42-39.16,2.15-56.4-.02-1.21-.14-1.88,.55-2.88,.54-.77,1.47-1.34,2.48-1.42,1.94-.16,3.8,.63,4.82,1.41,.46,.36,.73,1.09,.71,1.4-1.23,17.98-2.8,41.1-3.44,58.84,3.37,3,6.59,6.18,9.64,9.5-1.26,.64-3.58,1.74-4.02,1.89-.27-.14-8.21-4.92-12.63-7.18Z"/><path class="g" d="M3.76,150.38l-4.15,1.99"/><path d="M101.09,49.24c-1.21-2.08-4.3-2.34-6.42-.55-2.12,1.79-2.87,5.3-1.55,7.28,.76,1.14,2.1,1.88,2.23,3.37,.13,1.52-1.04,3.02-1.77,4.51-1.42,2.92-1.14,6.13-.81,9.09,.38,3.47,.89,7.21,3.28,9.2,1.18,.99,2.78,1.49,3.57,2.87,.67,1.18,.63,2.77,.92,4.17,.76,3.75,3.73,6.03,6.55,8.06l22.1,15.9c1.86,1.34,3.29,3.05,5.67,3.21,2.38,.16,6.58-5.02,7.6-7.63,.98-2.51-1.63-1.94-3.36-3.32-1.73-1.38-3.6-2.8-5.61-3.72-4.92-2.27-7.56-6.7-10.91-11.1-2.87-3.78-6.29-6.71-7.12-11.81-.68-4.18,.05-9.08-2.03-12.42-1.12-1.8-3.02-3.06-3.38-5.31-.26-1.61,.35-3.41,.28-5.08-.1-2.41-1.62-4.26-3.49-5.24s-4.08-1.23-5.76-1.47Z"/><path d="M139.88,109.87c10.33,.64,20.65,1.63,30.91,2.97,.78,.1,1.58,.21,2.25,.62,.98,.6,1.49,1.72,1.94,2.78l7.7,17.85c.17,.39,.33,.88,.06,1.21-.24,.3-.69,.29-1.07,.26l-35.07-2.95c-.86-.07-1.76-.16-2.49-.62-1.08-.68-1.54-2.01-1.92-3.23-1.65-5.33-3.31-10.73-3.63-16.3-.03-.52-.04-1.06,.18-1.53s.77-.83,1.12-1.06Z"/><path class="e" d="M170,114.63c-9.48-1.25-18.88-1.82-28.43-2.63l3.1,15.45c.16,.79,.34,1.62,.88,2.21,.8,.88,2.13,.97,3.32,1.01,10.06,.38,20.53,1.96,30.38,2.33,.35,.01,.58-.35,.42-.66-2.53-4.9-5.44-11.27-7.43-16-.39-.93-1.24-1.58-2.23-1.71Z"/><path class="l" d="M134.19,115.89c1.15,0,2.19,.73,2.94,1.6s1.29,1.91,1.99,2.82c2.72,3.58,7.39,4.94,11.73,6.1,.61,.16,1.25,.33,1.88,.24s1.25-.51,1.38-1.14c.11-.53-.17-1.08-.58-1.45-.41-.36-.92-.57-1.43-.77l-5.84-2.34c1.71,1.21,4.28,1.01,5.79-.45,.13,2.22,1.66,4.3,3.75,5.08,.59,.22,1.42,.26,1.7-.31,.19-.38,.02-.85-.25-1.18s-.63-.58-.9-.91c-.84-1.06-.5-2.61-.79-3.94-.3-1.41-1.42-2.62-2.81-3.03-1.38-.41-2.98,0-4.16,.84,1.12-.39,2.28-.79,3.47-.76s2.44,.56,3,1.61c.45,.85,.43,1.98,1.16,2.6,.52,.44,1.27,.47,1.96,.48,.85,.01,1.95-.16,2.12-1,.18-.88-.87-1.44-1.65-1.9-1.17-.69-2.08-1.8-2.53-3.08-.24-.69-.37-1.46-.85-2.02-.59-.67-1.59-.84-2.46-.66-.87,.18-1.65,.65-2.41,1.12,.68-.89,1.86-1.36,2.96-1.2,1.1,.17,2.09,.97,2.48,2.02,.25,.67,.27,1.43,.65,2.03s1.37,.91,1.77,.32c.29-.42,.07-1.03-.31-1.37s-.88-.51-1.33-.76c-1.24-.7-2.02-2.15-1.94-3.57,.03-.54,.18-1.08,.17-1.62-.01-.54-.23-1.14-.72-1.37-.48-.23-1.04-.07-1.54,.1l-3.96,1.34c.55-.63,1.47-.73,2.29-.9,.82-.17,1.74-.62,1.84-1.45,.08-.66-.45-1.27-1.07-1.52s-1.31-.2-1.97-.15c-2.35,.18-5.57,.4-8.08,.5,.35,1.16-.29,1.86-.97,2.86-.68,1.01-1.17,1.67-2.38,1.79-1.07,2.02-2.13,4.33-4.1,5.37Z"/><path class="l" d="M128.16,112.65c.78,1.29,2.19,2.05,3.53,2.73,.73,.37,1.52,.76,2.33,.63,.57-.09,1.07-.43,1.55-.76,.78-.54,1.34-1.22,1.93-1.96,.55-.7,.81-1.09,1.11-2.38,1.32,.07,2.28-.88,2.94-2.03,.75-1.29,.76-3.53,.45-4.05-.36-.59-4.02-2.34-4.59-2.58s-.78-.22-1.25,.16c-.36,.29-1.09,1.3-1.47,2.09-.59,1.21-1.36,3.1-.9,3.79,.56,.83,4.08,2.3,4.8,2.64-1.11-.38-2.62-1.2-3.77-1.79-.35,1.38-1.35,2.75-2.61,3.41-1.27,.66-2.81,.75-4.05,.09Z"/><path class="f" d="M139.38,103.81s-.07-.04-.11-.06c-.47-.23-.92-.41-1.38-.64s-1.06-.38-1.52-.13c-.34,.18-.55,.53-.73,.87-.46,.88-.86,1.79-1.17,2.74-.12,.35-.22,.72-.14,1.08,.11,.47,.53,.8,.94,1.07,.73,.48,1.51,.88,2.32,1.19,.5,.19,1.04,.35,1.55,.21,.62-.18,1.03-.78,1.35-1.33,.41-.72,.74-1.48,.97-2.28,.11-.38,.19-.79,.05-1.17-.16-.45-.59-.75-1.02-.95-.41-.2-.78-.4-1.12-.59Z"/><path class="g" d="M121.33,108.48c-1.19-1.11-.85-1.71,.74-1.34,.37,.09,.74,.1,1.08,0,.98-.3,2.75-2.02,3.43-2.79l2.87,2.35c-.55,.69-2.2,2.36-3.04,2.64-1.33,.45-2.81,.31-4.11-.2-.31-.12-.65-.37-.97-.67Z"/><path class="g" d="M133.48,99c1.38,1.32,1.79,3.56,.97,5.29-.82,1.73-2.82,2.82-4.72,2.58-1.9-.24-3.56-1.8-3.92-3.68-.37-1.88,.59-3.94,2.26-4.88,1.67-.94,3.96-.7,5.41,.69Z"/><path class="g" d="M132.47,99.57c1.14,.89,1.61,2.53,1.13,3.89-.49,1.36-1.9,2.32-3.34,2.29s-2.8-1.08-3.22-2.46,.14-3,1.33-3.82,2.91-.83,4.11,.11Z"/><path d="M141.75,62c-3.1-4.16-6.35-8.45-10.91-10.94-4.56-2.49-10.82-2.65-14.47,1.04,.58-5.5-3.67-10.99-9.1-12.1-5.42-1.1-11.32,2.07-13.67,7.08-1.08,2.29-1.46,4.99-.64,7.38,1.39,4.05,5.67,6.2,8.74,9.19,3.87,3.76,5.9,9.02,9.28,13.23,4.05,5.04,10.07,8.46,16.47,9.34,6.41,.88,13.13-.77,18.39-4.53,2.21-1.58,4.21-3.57,5.24-6.08s.95-5.58-.7-7.74c-2.3-3-6.89-3.53-8.63-5.87Z"/><path d="M154.01,21.35c3.14,.87,6.45-.26,9.51-1.36,1.03-.37,2.12-.79,2.77-1.66,.53-.7,.7-1.59,.85-2.45,.5-2.82,.96-5.71,.45-8.53-.51-2.82-2.16-5.58-4.81-6.68-2.54-1.06-5.43-.42-8.1,.24-1.32,.32-2.81,.77-3.53,1.97-.48,1.81-.5,3.74-.05,5.56,.17,.69,.41,1.42,.18,2.1-.24,.7-.92,1.15-1.6,1.44-1.16,.51-2.42,.73-3.64,1.09-1.21,.36-2.43,.89-3.26,1.86-.65,.76-.98,1.94-.37,2.73,.38,.5,1.05,.72,1.68,.71,.63-.01,1.24-.22,1.83-.42,2.78-.96,5.56-1.91,8.39-2.76l-.67,4.37c-.04,.28-.08,.56-.04,.83s.19,.55,.39,.97Z"/><path class="e" d="M158.5,12.18c0,.57-.37,1.09-.84,1.41s-1.04,.46-1.6,.58-1.13,.22-1.64,.47l.05,.3c.87-.13,1.75-.26,2.53-.67s1.45-1.13,1.49-2.09Z"/><path class="e" d="M154.06,9.69c.65-.26,1.33-.52,2.03-.54s1.46,.27,1.81,.88c.31,.53,.26,1.18,.2,1.78-.05,.47-.12,.99-.45,1.33-.26,.27-.64,.39-1.01,.49-1.19,.34-2.42,.69-3.64,.54,.37-1.49,.73-2.97,1.06-4.49Z"/><path class="l" d="M137.49,58.94c-.53,4.82,.15,9.76,1.96,14.25,.67,1.67,1.62,3.39,3.26,4.12,1.92,.86,4.21,.07,5.87-1.21,4.17-3.22,5.45-8.93,5.77-14.19,.89-14.65-3.44-29.6-.12-43.9,.9-3.87,2.28-8.22,.14-11.57-1.55-2.43-4.88-3.55-7.58-2.55-1.41-.71-3.38,.45-3.43,2.03-1.78-.6-3.75,.88-4.25,2.69-.5,1.81,.09,3.74,.9,5.44s1.85,3.3,2.33,5.12c.59,2.25,.26,4.63-.08,6.93-1.61,11.11-3.58,22.17-4.76,32.83Z"/><path d="M138.63,59.93c-.2-.53-.89-.75-1.42-.55s-.88,.72-1.02,1.27-.11,1.12-.07,1.68c.17,2.34,.39,4.68,.96,6.96,.58,2.27,1.52,4.48,3.01,6.29,1.43,1.74,3.63,3.14,5.84,2.7,2.12-.42,3.55-2.35,4.78-4.14,.8-1.17,1.65-2.49,1.48-3.9-.11-.88-.6-1.67-1.23-2.3s-1.39-1.1-2.14-1.56c-3.49-2.17-6.98-4.35-10.2-6.44Z"/><path class="l" d="M138.51,7.11c-3.35-.17-7.02-.25-9.67,1.81-1.48,1.15-2.45,2.86-3.06,4.63-1.31,3.76-1.16,8.01,.41,11.68,.89,2.07,2.36,4.06,4.5,4.77,1.77,.59,3.72,.21,5.51-.35,1.67-.53,3.34-1.25,4.58-2.5,1.34-1.35,2.05-3.21,2.47-5.07,.61-2.69,.68-5.54-.05-8.2-.73-2.66-2.3-5.13-4.68-6.77Z"/><path class="e" d="M132.55,8.02c2.61,.72,5,2.73,6.04,5.22,1.04,2.49,.83,5.43,.56,8.12-.18,1.74-.52,3.48-1.36,5.02s-2.65,3.14-4.32,3.67c1.49-.12,3.26-1.4,4.12-2.62,.86-1.23,1.47-2.57,1.71-4.04,.54-3.41,1-7.08-.32-10.25-1.29-3.09-4.16-5.35-7.49-5.33,.24,.14,.83,.13,1.07,.28,0,.02,0,.03-.02-.05Z"/><path class="e" d="M131.36,17.08c-.7,.01-1.24,.46-1.59,1.07s-.37,1.49-.26,2.18c.12,.78,.86,1.47,1.63,1.64,.61,.13,1.13-.16,1.49-.67,.54-.75,.74-2.1,.36-2.89s-.68-1.33-1.63-1.33Z"/><path class="e" d="M151.46,3.01c1.2-1.06,2.79-1.7,4.39-1.67s3.2,.77,4.18,2.04c.89,1.16,1.23,2.64,1.46,4.09,.44,2.67,.62,5.4,.24,8.08-.24,1.66-.75,3.39-2.02,4.49-1.54,1.33-3.81,1.4-5.81,1.01-.09,.32,.16,.65,.46,.77s.65,.1,.97,.07c1.62-.15,3.35-.35,4.63-1.37,1.22-.98,1.8-2.54,2.15-4.06,.84-3.66,.65-7.56-.56-11.12-.36-1.07-.84-2.15-1.67-2.92-1.32-1.23-3.3-1.46-5.1-1.31-.73,.06-1.47,.18-2.15,.47s-1.29,.77-1.62,1.43c.14,.17,.45,.14,.45,0Z"/><path class="m" d="M134.76,18.81c-.26-3.31-1.39-4.49-3.26-4.49-1.7,0-3.44,1.65-3.44,4.79,0,5.07,2.43,5.45,3.44,5.42,1.22-.04,3.59-1.55,3.26-5.72Z"/><path class="m" d="M120.53,55.68c1.74-.07,3.23,1.44,3.73,3.11,.5,1.67,.25,3.46,0,5.19"/><path class="m" d="M122.67,53.98c.15,1.06,1.16,1.93,2.23,1.91,1.07-.02,2.06-.92,2.16-1.99"/><path class="m" d="M128.61,55.75c-1.38,.71-2.38,2.1-2.62,3.63-.24,1.53,.29,3.16,1.39,4.26"/><path d="M58.82,54.43c-1.69-.17-2.94,1.64-3.17,3.32-.24,1.68,.11,3.42-.33,5.06-.57,2.12-2.37,3.67-4.25,4.8-1.88,1.13-3.95,1.97-5.63,3.38-2.34,1.95-3.76,4.95-3.8,8-.04,3.04,1.31,6.08,3.6,8.09,1.06,.93,2.46,2.1,1.98,3.43-.2,.54-.68,.92-1.1,1.32-2.36,2.22-3.3,5.67-3.01,8.89s1.68,6.26,3.38,9.02c1.85,2.99,4.17,5.8,7.2,7.58,3.04,1.78,6.89,2.41,10.13,1.03,3.24-1.38,5.55-5.03,4.81-8.47-.94-4.36-5.93-6.8-7.31-11.05-1.44-4.44,1.49-8.95,3.3-13.25,4.34-10.32,1.93-23.13-5.8-31.15Z"/><path class="l" d="M87.48,56.32l-2.26-18.82c-.08-.67-.2-1.42-.74-1.84-.57-.44-1.37-.34-2.08-.22l-5.49,.96c-1.47,.26-3.05,.57-4.08,1.66-1,1.07-1.23,2.63-1.34,4.09-.33,4.68,.15,9.38,.64,14.05,.18,1.72,.41,3.55,1.55,4.85,1.08,1.22,2.79,1.71,4.42,1.67,1.63-.05,3.2-.56,4.74-1.08,1.37-.46,2.8-.94,3.82-1.96,1.03-1.02,1.51-2.74,.82-3.36Z"/><path class="e" d="M80.8,36.7c-2.59,.46-5.38,1.36-6.76,3.61-1.16,1.89-1.04,4.27-.87,6.48l.69,9.47c.09,1.19,.2,2.45,.9,3.41l-1.04-12.68c-.18-2.22-.33-4.61,.83-6.52,1.31-2.17,3.96-3.11,6.46-3.53-.09-.12-.19-.24-.21-.24Z"/><path class="l" d="M65.07,64.62c.05-2.94,.1-5.91,.85-8.76,.74-2.85,2.64-6.77,5.47-7.5,.08-.02,.18,3.88,.39,5.33,.15,1.02,.47,2.14,1.44,2.45,.98,.31,2.04,.21,3.04-.03,2.73-.64,5.23-2.26,6.92-4.5,1.69-2.24,3.03-5.08,2.9-7.88,1.09,.27,1.08,1.58,1.19,2.69,.34,3.66-1.07,7.45-3.73,9.99,1.88-1.27,3.01-3.61,3.56-5.81,1.14,2.92-.22,6.96-3.13,8.12,1.39-.23,2.26-1.46,2.9-2.71s.61-2.84,.61-4.25c1.03,3.77,1.9,7.31-1.42,9.36-1.91,1.18-6.18,2.87-7.49,4.69-.41,.58-.71,1.28-1.3,1.67-.74,.49-1.72,.35-2.59,.17-3.24-.67-6.42-1.62-9.62-3.04Z"/><path d="M65.26,64.2c-3.85,13.49-6.1,25.19-9.95,38.68-1.58,5.52-2.82,12.35,1.39,16.25,3.1,2.87,8.18,2.72,11.79,.52s5.94-6.01,7.51-9.92c5.61-13.98,4.44-28.45,1.93-43.31,.06,0-2.98,.5-12.66-2.21Z"/><path class="j" d="M109.3,109.51c.08,8.28-3.41,16.53-9.47,22.17h.03"/><path class="j" d="M107.18,104.51c1.59,8.67-1.13,18.02-7.18,24.43"/><path class="g" d="M101.84,97.09c-7.44-5.46-16.76-7.93-25.98-8.27-8.28-.31-16.81,1.09-23.91,5.36-6.35,3.81-11.32,9.86-13.82,16.83-2.5,6.97-2.53,14.8-.06,21.78,1.25,3.54,3.26,7,6.48,8.91,2.22,1.32,6.23,5.38,8.77,5.83,9.05,1.59,15.57,2.36,25.86,1.53,9.59-1.6,19.99-6.95,24.42-14.67,4.51-7.85,8.38-16.89,5.58-25.5-1.61-4.96-4.5-9.7-7.33-11.78Z"/><path class="g" d="M21.38,68.84c3.7-2.3,12.61-2.21,18.1,1.13,5.48,3.34,8.96,9.16,10.68,15.2,1.72,6.04,1.87,12.38,2.01,18.64s.3,12.6,2.04,18.63c.92,3.21,2.3,6.47,1.72,9.75-.91,5.11-6.2,8.3-11.24,10.05-4.37,1.52-9.23,2.47-13.62,.97-6.4-2.19-9.91-8.91-11.44-15.31-3.98-16.6,1.01-33.8,1.59-50.81,.12-3.35-1.25-6.27,.15-8.25Z"/><path class="f" d="M49.61,139.35c3.26-1.1,6.36-3.28,7.42-6.46,.74-2.2,.42-4.6-.09-6.87-.45-2.01-1.03-3.98-1.61-5.96-.23-.78-.51-1.63-1.22-2.06-.89-.55-2.14-.18-2.85,.58-1.24,1.34-1.08,3.43-.41,5.12,.67,1.68,1.77,3.21,2.22,4.96,.68,2.61-.28,5.55-2.37,7.31-.53,.45-1.16,.85-1.44,1.48s.01,1.56,.33,1.89Z"/><path class="g" d="M8.15,129.2l4.61-43.31c.44-4.17,.93-8.47,3.01-12.15,2.08-3.67,6.19-6.6,10.49-6.07,4.78,.59,8.13,5.25,8.72,9.88s-.94,9.22-2.46,13.64l-7.14,20.88c-1.79,5.23-3.58,10.47-4.83,15.85-.57,2.49-1.06,5.08-2.53,7.19-1.47,2.11-4.25,3.61-6.75,2.8-1.79-.59-3.04-2.25-3.48-4.02-.44-1.78,.24-3.54,.36-4.68Z"/><path class="g" d="M8.61,127.98c1.24,1.78,3.3,3.01,5.5,3.27,2.2,.26,4.5-.45,6.13-1.9"/><path class="e" d="M26.5,67.43c-1.19,.08-2.07,.24-3.41,.75-1.1,.42-.86,2.31-.05,3.15,.68,.7,1.77,.82,2.75,.91l4.31,.36c1.38,.12,2.22,.19,3.04,1.28,.72,.95,.77,2.56,.34,3.66-.43,1.1-.59,1.95-1,3.05-.41,1.11-.47,2.45,.3,3.37,.96,1.14,.55,1.38,1.75,.49,1.2-.89,2.33-4.07,2.55-5.52,.44-2.89-.06-4.71-1.84-7.08-1.79-2.37-7.51-4.49-8.75-4.41Z"/><path class="e" d="M50.53,86.91l-1.05,.23"/><path class="g" d="M24.7,146.48c1.16-2.17,2.37-4.46,2.3-6.9-.08-2.59-.42-4.76-2.06-6.63s-4.21-2.93-6.29-1.54c-1.08,.72-1.76,1.89-2.79,2.67-2.53,1.91-6.92,.48-7.74-2.54-.3-1.1-.18-2.28-.44-3.4-.26-1.11-1.11-2.26-2.29-2.28-1.09-.02-1.95,.95-2.29,1.96-.34,1-.32,2.09-.6,3.11-.66,2.42-2.84,4.16-5.11,5.35s-4.75,2.05-6.79,3.58-3.6,4.03-3.03,6.47c.82,3.49,5.36,4.85,9.02,4.38,3.66-.47,7.16-2.09,10.85-1.93,2.2,.1,4.32,.82,6.45,1.37,2.13,.55,4.41,.92,6.52,.31,2.11-.62,3.41-2.07,4.29-3.99Z"/><path d="M27.09,138.54c-.42-2.03-.87-4.13-2.14-5.8-1.27-1.66-3.63-2.75-5.6-1.95-1.82,.73-2.73,2.75-4.44,3.7-2.08,1.16-5.12,.17-6.07-1.97-.6-1.35-.42-2.91-.8-4.33s-1.84-2.85-3.25-2.31c-.94,.35-1.37,1.39-1.65,2.33-.51,1.69-.89,3.47-1.9,4.94-2.62,3.77-9.13,3.81-11.66,7.63,.65-1.1,2.76-1.09,3.96-.59,1.46,.61,2.09,2.28,3.31,3.26,1.61,1.29,4.01,1.18,5.93,.41,1.92-.77,3.53-2.1,5.3-3.16,1.77-1.06,3.87-1.87,5.9-1.43,2.04,.44,3.76,2.57,3.05,4.46,.98-1.78,2.31-3.44,4.1-4.47s4.1-1.36,5.95-.7Z"/><path class="g" d="M26.22,143.09c-2.84,1.43-5.73,2.88-8.88,3.43-4.74,.83-9.64-.44-14.44,0-2.45,.23-4.82,.9-7.23,1.37s-4.92,.75-7.32,.19"/><path class="g" d="M58.29,63.57c3.95-2.89,13.83-3.4,20.14,.05,6.3,3.45,10.55,9.88,12.85,16.68s2.89,14.05,3.47,21.21c.57,7.16,.97,14.48,3.5,21.21,1.9,5.02,2.29,7.91,1.86,11.7-.67,5.92-5.63,9.28-11.1,11.63-4.74,2.04-10.07,3.46-15.03,2.04-7.24-2.07-11.58-9.52-13.7-16.75-5.51-18.74-1.13-38.79-1.61-58.32-.09-3.84-1.81-7.09-.38-9.46Z"/><path class="f" d="M92.76,143.81c3.54-1.48,6.83-4.19,7.8-7.91,.67-2.57,.16-5.3-.55-7.86-.63-2.27-1.4-4.49-2.18-6.71-.31-.88-.67-1.83-1.49-2.28-1.03-.57-2.39-.05-3.12,.86-1.29,1.62-.97,4.01-.11,5.89s2.17,3.56,2.79,5.53c.92,2.95,.06,6.38-2.14,8.54-.56,.55-1.22,1.06-1.5,1.8s.12,1.78,.49,2.15Z"/><path class="j" d="M100.48,128.41c-.05,.08-.32,.4-.39,.48-1.93,2.47-8.21,3.31-10.76,1.36-2.64-2.02-4.83-4.87-5.05-8.59-.52-8.76-.25-18.87,1.25-27.52,.61-3.51,1.43-7,1.62-10.55,.19-3.56,.13-6.89-1.58-10.02-1.33-2.45-5.1-5.41-8.67-5.37"/><path class="j" d="M77.08,70.51c1.82-.07,4.94,1.56,5.86,3.19,.92,1.63,1.32,3.5,1.57,5.35,1.03,7.62-2.19,15.92-3.33,23.53-1.14,7.6-2,15.49,.1,22.88,.78,2.74,2.01,5.45,4.14,7.34,2.2,1.96,5.29,2.89,8.21,2.47s7.26-4.67,7.31-4.67"/><path class="g" d="M47.44,134.17l2.23-49.94c.21-4.81,.46-9.77,2.53-14.12s6.42-7.99,11.23-7.67c5.33,.35,9.37,5.46,10.32,10.71,.96,5.26-.43,10.63-1.82,15.79l-6.53,24.41c-1.64,6.12-3.28,12.24-4.3,18.49-.47,2.89-.84,5.89-2.33,8.41-1.49,2.52-4.47,4.43-7.3,3.67-2.02-.55-3.52-2.37-4.13-4.37-.6-2,.03-4.07,.09-5.38Z"/><path class="g" d="M47.87,132.73c1.49,1.96,3.86,3.22,6.31,3.37,2.46,.15,4.96-.83,6.67-2.59"/><path class="g" d="M56.25,136.04l4.36-46.93c.39-4.2,.8-8.48,2.5-12.34,1.7-3.86,4.94-7.29,9.12-7.72l1.21,2.9c-3.84,1.21-6.69,4.59-8.24,8.3-1.55,3.72-1.99,7.79-2.42,11.79-1.53,14.42-3.07,28.84-4.45,43.26,.02,.02,.04,.04-2.07,.73Z"/><path class="e" d="M63.68,62.14c-1.32,.18-2.28,.41-3.73,1.09-1.19,.56-.8,2.71,.16,3.61,.8,.75,2.01,.82,3.11,.85l4.8,.12c1.54,.04,2.47,.07,3.46,1.25,.86,1.04,1.02,2.88,.62,4.17-.41,1.29-.52,2.27-.9,3.57-.38,1.3-.36,2.84,.56,3.84,1.14,1.24,.7,1.54,1.98,.44,1.28-1.1,2.31-4.82,2.46-6.5,.29-3.34-.38-5.39-2.52-7.98-2.14-2.59-8.63-4.63-9.99-4.45Z"/><path class="e" d="M91.61,82.81l-1.15,.34"/><path class="g" d="M72.14,72.46c.75-.37,3.04-.84,4.6-.9"/><path class="g" d="M71.29,69.21c1.92-.36,3.57-.84,5.4-.75"/><path class="g" d="M66.94,152.82c1.14-2.57,2.33-5.27,2.09-8.07-.26-2.96-.78-5.43-2.72-7.46s-4.87-3.07-7.07-1.33c-1.15,.9-1.82,2.28-2.92,3.25-2.68,2.37-7.63,1.02-8.75-2.38-.41-1.24-.35-2.6-.72-3.86-.36-1.26-1.38-2.52-2.69-2.46-1.21,.06-2.1,1.23-2.41,2.4-.31,1.17-.22,2.42-.46,3.61-.57,2.82-2.88,4.96-5.31,6.48-2.43,1.53-5.13,2.67-7.29,4.57-2.16,1.9-3.73,4.86-2.93,7.62,1.14,3.94,6.26,5.19,10.29,4.4,4.02-.79,7.8-2.88,11.9-2.95,2.45-.04,4.84,.65,7.24,1.13s4.95,.75,7.25-.1c2.3-.85,3.64-2.61,4.49-4.86Z"/><path d="M69.05,143.56c-.6-2.3-1.24-4.68-2.76-6.49-1.52-1.82-4.21-2.9-6.34-1.85-1.96,.96-2.85,3.34-4.68,4.54-2.23,1.47-5.66,.55-6.86-1.84-.75-1.51-.66-3.3-1.18-4.91-.52-1.61-2.23-3.13-3.76-2.43-1.02,.47-1.43,1.69-1.68,2.79-.45,1.98-.75,4.04-1.78,5.79-2.65,4.5-9.87,4.99-12.42,9.54,.65-1.3,2.98-1.44,4.35-.95,1.66,.59,2.47,2.47,3.89,3.51,1.87,1.37,4.52,1.08,6.6,.06,2.08-1.02,3.78-2.65,5.67-3.99,1.89-1.33,4.17-2.41,6.45-2.04,2.29,.36,4.34,2.69,3.68,4.9,.97-2.11,2.33-4.1,4.25-5.41,1.92-1.31,4.46-1.83,6.55-1.21Z"/><path class="g" d="M68.4,148.84c-3.05,1.83-6.16,3.69-9.62,4.54-5.2,1.28-10.72,.16-16.01,1-2.7,.43-5.29,1.36-7.93,2.07-2.64,.71-5.41,1.2-8.1,.72"/></g></g></g></g></svg>