<?xml version="1.0" encoding="UTF-8"?><svg xmlns="http://www.w3.org/2000/svg" viewBox="0 0 628.12 581.24"><defs><style>.f,.g{fill:#fff;}.h{font-family:Avenir-Medium, Avenir;font-size:28px;}.g,.i,.j{stroke:#000;stroke-miterlimit:10;stroke-width:.75px;}.i{fill:none;}.k{fill:#f6c67b;}.l{font-family:Moonlights-on-the-Beach, Moonlights on the Beach;font-size:88px;}.m{fill:#eb566a;}</style></defs><g id="a"/><g id="b"><g id="c"><circle class="m" cx="296.89" cy="286.37" r="283.24"/></g><g id="d"><g><circle class="m" cx="290.62" cy="290.62" r="290.62"/><g><path class="g" d="M354.63,217.63c-1.55,10.49-13.85,15.32-23.14,12.25-9.3-3.07-16.26-11.27-23.29-18.61-17.65-18.41-38.47-33.17-61.01-43.6-4.22-1.01-6.43-6.86-4.92-11.3,1.51-4.43,5.76-7.22,10.04-7.83s8.61,.62,12.69,2.16c11.56,4.36,22.14,11.31,32.62,18.21l48.94,32.22c3.28,2.16,6.71,4.48,8.59,8.14,1.88,3.66,1.5,9.06-.53,8.35Z"/><path class="f" d="M348.62,201.72c4.02,3.33,5.58,9.54,4.36,14.9-1.22,5.36-4.9,9.8-9.34,12.44-4.43,2.64-9.56,3.61-14.61,3.66,4.53,1.04,9.24,1.45,13.79,.52,4.55-.92,8.95-3.25,12.01-7.05,3.06-3.8,4.65-9.14,3.65-14.09-1-4.95-4.79-9.24-9.86-10.37Z"/><path class="g" d="M169.21,141.32l1.52-14.24c3.12-.67,6.47,.07,9.12,2l-3.9,15.12c-3.6,1.25-7.86-2.1-6.74-2.88Z"/><path class="f" d="M258.45,169.42c-4.07,.6-8.21-.66-12.49-2.21,4.45,.6,8.62-2.81,10.78-6.15,2.6-4-.93-10.26-4.95-12.43,4.68-.49,6.75,.65,9.18,3.11s3.71,6.27,3.14,9.83-2.9,7.44-5.66,7.85Z"/><path class="j" d="M169.12,142c-19.15-6.87-38.78-11.33-60.01-11.62-.63,5.31-3.61,10.34-8.01,12.68-4.4,2.34-10.11,1.68-13.68-1.98-3.57-3.67-4.45-10.23-1.65-14.63,3.88-6.1,12.02-5.98,18.78-5.21,21.83,2.48,43.67,4.97,65.52,7.23,.49,0,.19-1.4,.67-1.39-.15,.05,.02,2.27-1.61,14.93Z"/><path class="g" d="M97.05,227.16c6.7,2.1,11.14,10.57,9.42,17.99-1.71,7.42-9.29,12.54-16.09,10.87-6.8-1.67-11.68-9.84-10.36-17.35,1.32-7.52,8.81-14.09,17.03-11.51Z"/><path class="g" d="M90.57,230.23c-4.07,1.35-6.54,4.86-7.35,8.67-1.1,5.14,1.37,10.93,5.68,13.29,4.3,2.36,10.01,1.07,13.11-2.96,3.1-4.04,3.28-10.43,.42-14.67-2.86-4.24-6.97-5.35-11.85-4.32Z"/><path class="g" d="M93.28,241c-.12,.17-.18,.41-.13,.62s.24,.38,.44,.39,.39-.19,.38-.41-.24-.4-.43-.3c-.17,.02-.2,.32-.06,.41s.35-.06,.36-.24-.13-.35-.3-.38-.33,.04-.27-.07Z"/><path class="g" d="M93.54,240.77c-.01-1.92,.08-3.83,.25-5.74v-.03"/><path class="g" d="M93.76,241.94l4.22,5.64"/><path class="g" d="M102.41,242.51h1.94"/><path class="g" d="M83.59,242.17c.53,.12,1.08,.12,1.61,0"/><path class="g" d="M93.88,231.9l.15-1.7"/><path class="g" d="M93.49,251.05l-.09,1.47"/><path class="g" d="M93.74,225.82c-1.88-27.71-1.13-55.63,2.15-83.19v.22"/><path class="g" d="M352.37,178.8c-10.34-1.7-20.63,5.94-25.47,16.12-4.84,10.18-5.09,22.3-3.55,33.66,1.55,11.36,4.77,22.37,6.53,33.7,8.45,54.18-16.61,111.83,.06,163.67,3.54,11,11.95,22.96,22.31,20.42,8.33-2.04,12.37-12.27,14.75-21.27,14.14-53.64,14.17-110.6,9.64-166.22-2.34-28.78-6.71-59.5-24.28-80.08Z"/><path class="j" d="M314.52,208.49c3.42,3.08,8.33,3.23,12.58,1.96,4.25-1.27,8.11-3.75,12.2-5.55,3.98-1.75,31.25-7.54,34.87-10.07,7.02-4.9,9.29-24-9.16-20.7-4.36,.78-6.3-8.43-5.32-13.24,.55-2.71,1.9-5.14,2.71-7.77,2.07-6.79,.21-14.68-4.09-20.01-4.3-5.33-10.74-8.2-17.16-8.5-6.42-.29-12.81,1.83-18.47,5.23-4.21,2.53-8.19,5.91-10.49,10.59-2.17,4.42-2.67,9.65-2.4,14.69s1.24,9.98,1.84,14.98c.86,7.22,.92,14.55,.19,21.79-.33,3.23-.82,6.51-.3,9.7,.52,3.2,2.35,6.3,3.01,6.89Z"/><path class="g" d="M355,136.06c2.09-2.18,3.55-1.56,3.76-4.69,.21-3.13-1.51-5.97-3.15-8.52l-15.4-23.94c-11.94-18.56-23.97-37.31-31.96-58.35,.27,29.3-3.15,58.55-8.73,87.19-.8,4.12-1.38,9.18,1.54,11.85,1.83,1.68,4.51,1.73,6.78,.96,2.27-.76,4.3-2.22,6.44-3.35,5.49-2.9,11.89-3.6,17.78-1.97,4.63,1.28,8.93,3.95,13.66,4.67,4.72,.72,7.1-2.07,9.28-3.84Z"/><path class="i" d="M299.68,126.93c8.66-4.18,18.77-8.91,28.07-7.17,6.19,1.16,12.13,4.95,18.34,4,3.48-.53,7.49-2.38,10.13,.18"/><path class="g" d="M316.07,129.33c4.13-2.43,9.12-2.96,13.58-1.45,2.41,.82,4.64,2.18,6.94,3.34,2.3,1.15,4.76,2.11,7.27,2.01,2.52-.1,5.12-1.44,6.31-3.91"/><path class="g" d="M314.84,127.34c-8.03,1.13-14.66,8.15-18.03,16.35-3.37,8.21-3.95,17.48-3.88,26.51,.05,6.45,.44,13.06,2.8,18.95,1.89,4.72,4.94,8.72,7.95,12.65,2.62,3.42,5.36,6.95,9.05,8.77,6.31,3.11,14.04,.23,18.82-5.31,4.78-5.54,7.07-13.21,8.24-20.79,2.16-13.98,.88-28.92-5.33-41.3-2.05-4.09-4.64-7.89-7.93-10.8-3.29-2.91-7.31-4.89-11.5-5.09,0,.03,0,.06-.19,.05Z"/><path class="g" d="M335.87,152.68c2.87,9.13,3.6,19.05,2.1,28.57"/><path class="g" d="M330.94,165.65c-.82,2.38-2.41,4.41-4.42,5.62"/><path class="g" d="M307.41,166.98c-.7,2.03-2.39,3.61-4.3,4.01"/><path class="g" d="M303.82,157.15c-.71-.78-1.89-.8-2.78-.3s-1.52,1.43-2.01,2.39c-1.04,2.03-1.6,4.5-.95,6.72,.65,2.22,2.76,3.97,4.8,3.47,1.1-.27,2.03-1.13,2.68-2.16,1-1.6,1.39-3.66,1.04-5.57s-1.64-3.31-2.78-4.56Z"/><path class="g" d="M325.16,153.6c-1.37,.02-2.64,.96-3.43,2.21s-1.16,2.77-1.37,4.28c-.19,1.4-.25,2.85,.05,4.23,.3,1.38,.98,2.7,2.04,3.48,2.03,1.51,5.01,.6,6.51-1.54,1.5-2.14,1.7-5.16,1.06-7.78-.32-1.28-.83-2.54-1.69-3.47s-2.09-1.43-3.17-1.42Z"/><path class="g" d="M302.86,156.52c-1.99,1.32-3.33,3.8-3.42,6.39-.09,2.58,1.06,5.18,2.95,6.67"/><path class="g" d="M324.2,153.81c-2.06,2.94-2.79,6.97-1.92,10.57,.22,.89,.54,1.78,1.08,2.47s1.35,1.19,2.18,1.14"/><path class="j" d="M310.07,182.49l.06,9.09c12.73-9.11,25.22-18.62,37.46-28.53-12.56,6.76-25.12,13.53-37.52,19.44Z"/><path class="j" d="M306.71,182.95c0,2.25,0,4.49,.01,6.68-7.27-6.8-14.74-13.27-22.37-19.39l19.4,9.28c1.38,.66,3.03,1.81,2.93,3.72,0-.05,0-.1,.02-.29Z"/><path class="g" d="M309.56,171.54l-34.31,19.6,34.42-9.96c.85-.25,1.73-.51,2.39-1.16,1.18-1.17,1.25-3.28,.59-4.88-.66-1.6-1.88-2.81-3.09-3.6Z"/><path class="g" d="M393,160.27c-10.97,.78-20.29,10.04-25.03,20.94-4.74,10.91-5.7,23.28-6.2,35.35-1.81,43.79,1.41,87.63,4.63,131.33,2.04,27.73,4.55,56.91,19.04,79.72,6.43,10.12,15.31,18.71,25.97,22.58,10.67,3.87,23.19,2.49,31.99-5.18,8.8-7.66,12.75-20.06,16.27-31.77,7.49-24.87,15.04-50.08,16.51-76.22,2.29-40.92-10.49-81.05-26.13-118.27-5.84-13.88-12.22-27.75-21.63-39.02-9.41-11.27-22.33-20.39-35.42-19.46Z"/><path class="g" d="M418.39,185.64c-10.59-.57-18.1,12.76-17.22,24.38,.88,11.61,7.31,21.66,12.86,31.59,13.96,24.92,23.62,52.74,28.68,81.57,.03,5.19,5.24,9.11,9.91,8.35,4.67-.76,8.35-5.12,9.92-10.01,1.57-4.89,1.35-10.24,.78-15.39-1.63-14.57-6.01-28.57-10.36-42.45l-20.31-64.81c-1.36-4.35-2.85-8.9-5.99-11.94s-8.5-3.83-8.26-1.29Z"/><path class="f" d="M432.55,196.33c-2.34-5.49-8.04-8.73-13.55-8.52-5.51,.22-10.68,3.52-14.26,8.13-3.58,4.6-5.69,10.4-6.89,16.32,.02-5.56,.69-11.18,2.62-16.31s5.21-9.77,9.61-12.49c4.4-2.73,9.98-3.37,14.58-1.07,4.6,2.3,7.93,7.73,7.88,13.95Z"/><path class="g" d="M450.71,420.75l14.24,1.46c1.36-3.51,1.41-7.62,.12-11.16l-15.64,1.13c-2.04,3.94,.27,9.71,1.28,8.57Z"/><path class="g" d="M464.97,410.47c-1.53-27.47-2.03-55-1.51-82.52,.06-3.24,.13-6.53-.59-9.67-.72-3.14-2.36-6.18-4.95-7.73-3.44-2.05-7.96-.98-10.89,1.87-2.93,2.85-4.44,7.14-4.89,11.42-.45,4.27,.06,8.59,.56,12.86,1.74,14.71,3.48,29.42,5.22,44.13,1.23,10.36,2.45,20.82,1.56,31.21"/><path class="f" d="M443.57,309.57c-1.51,4.64-1.22,9.79-.68,15.17,.42-5.37,4.7-9.48,8.45-11.26,4.5-2.14,9.8,3.43,11,8.65,1.54-5.38,.9-8.08-.94-11.49-1.85-3.41-5.27-5.79-8.88-5.92s-7.92,1.71-8.94,4.85Z"/><path class="j" d="M450.02,420.7c2.35,24.06,2.24,48.11-2.3,73.11-5.33-.47-10.91,1.88-14.2,6.51-3.29,4.63-3.94,11.49-1.18,16.52,2.77,5.02,8.98,7.56,13.9,5.28,6.84-3.17,8.57-12.75,9.35-20.86,2.54-26.2,5.08-52.4,7.84-78.58,.11-.58,1.41,.1,1.51-.47-.08,.16-2.21-.54-14.93-1.51Z"/><polygon class="i" points="389.81 179.85 390.87 182 393.24 182.35 391.53 184.02 391.93 186.39 389.81 185.27 387.68 186.39 388.09 184.02 386.37 182.35 388.75 182 389.81 179.85"/><polygon class="i" points="420.8 179.85 421.87 182 424.24 182.35 422.52 184.02 422.93 186.39 420.8 185.27 418.68 186.39 419.09 184.02 417.37 182.35 419.74 182 420.8 179.85"/><polygon class="i" points="398.32 199.62 399.38 201.77 401.76 202.11 400.04 203.79 400.45 206.15 398.32 205.04 396.2 206.15 396.6 203.79 394.89 202.11 397.26 201.77 398.32 199.62"/><polygon class="i" points="420.8 207.61 421.87 209.76 424.24 210.1 422.52 211.78 422.93 214.14 420.8 213.03 418.68 214.14 419.09 211.78 417.37 210.1 419.74 209.76 420.8 207.61"/><polygon class="i" points="373.97 208.11 375.03 210.26 377.41 210.61 375.69 212.28 376.09 214.65 373.97 213.53 371.85 214.65 372.25 212.28 370.53 210.61 372.91 210.26 373.97 208.11"/><polygon class="i" points="440.65 234.58 441.71 236.73 444.08 237.08 442.36 238.75 442.77 241.12 440.65 240 438.52 241.12 438.93 238.75 437.21 237.08 439.58 236.73 440.65 234.58"/><polygon class="i" points="400.95 234.29 402.01 236.44 404.39 236.79 402.67 238.46 403.08 240.83 400.95 239.71 398.83 240.83 399.23 238.46 397.52 236.79 399.89 236.44 400.95 234.29"/><polygon class="i" points="379.72 253.27 380.78 255.42 383.15 255.77 381.43 257.44 381.84 259.81 379.72 258.69 377.59 259.81 378 257.44 376.28 255.77 378.65 255.42 379.72 253.27"/><polygon class="i" points="453.33 290 454.39 292.15 456.77 292.49 455.05 294.17 455.45 296.53 453.33 295.41 451.21 296.53 451.61 294.17 449.89 292.49 452.27 292.15 453.33 290"/><polygon class="i" points="420.8 260.48 421.87 262.63 424.24 262.97 422.52 264.65 422.93 267.01 420.8 265.89 418.68 267.01 419.09 264.65 417.37 262.97 419.74 262.63 420.8 260.48"/><polygon class="i" points="398.32 280.24 399.38 282.39 401.76 282.74 400.04 284.41 400.45 286.78 398.32 285.66 396.2 286.78 396.6 284.41 394.89 282.74 397.26 282.39 398.32 280.24"/><polygon class="i" points="420.8 288.23 421.87 290.38 424.24 290.73 422.52 292.4 422.93 294.77 420.8 293.65 418.68 294.77 419.09 292.4 417.37 290.73 419.74 290.38 420.8 288.23"/><polygon class="i" points="373.97 288.73 375.03 290.88 377.41 291.23 375.69 292.9 376.09 295.27 373.97 294.15 371.85 295.27 372.25 292.9 370.53 291.23 372.91 290.88 373.97 288.73"/><polygon class="i" points="440.65 315.21 441.71 317.36 444.08 317.7 442.36 319.38 442.77 321.74 440.65 320.63 438.52 321.74 438.93 319.38 437.21 317.7 439.58 317.36 440.65 315.21"/><polygon class="i" points="441.66 408.33 442.72 410.48 445.09 410.83 443.37 412.5 443.78 414.87 441.66 413.75 439.53 414.87 439.94 412.5 438.22 410.83 440.59 410.48 441.66 408.33"/><polygon class="i" points="379.72 333.9 380.78 336.05 383.15 336.39 381.43 338.07 381.84 340.43 379.72 339.32 377.59 340.43 378 338.07 376.28 336.39 378.65 336.05 379.72 333.9"/><polygon class="i" points="351.57 271.08 352.63 273.23 355.01 273.58 353.29 275.25 353.69 277.62 351.57 276.5 349.45 277.62 349.85 275.25 348.13 273.58 350.51 273.23 351.57 271.08"/><polygon class="i" points="336.96 256.47 338.03 258.63 340.4 258.97 338.68 260.64 339.09 263.01 336.96 261.89 334.84 263.01 335.25 260.64 333.53 258.97 335.9 258.63 336.96 256.47"/><polygon class="i" points="358.59 234.85 359.65 237 362.03 237.35 360.31 239.02 360.71 241.38 358.59 240.27 356.47 241.38 356.87 239.02 355.15 237.35 357.53 237 358.59 234.85"/><polygon class="i" points="330.24 227.25 331.31 229.4 333.68 229.75 331.96 231.42 332.37 233.79 330.24 232.67 328.12 233.79 328.53 231.42 326.81 229.75 329.18 229.4 330.24 227.25"/><polygon class="i" points="347.85 211.03 348.92 213.18 351.29 213.53 349.57 215.2 349.98 217.57 347.85 216.45 345.73 217.57 346.14 215.2 344.42 213.53 346.79 213.18 347.85 211.03"/><polygon class="i" points="360.08 290.85 361.15 293 363.52 293.34 361.8 295.02 362.21 297.38 360.08 296.27 357.96 297.38 358.37 295.02 356.65 293.34 359.02 293 360.08 290.85"/><polygon class="i" points="433.68 352.38 434.74 354.54 437.11 354.88 435.4 356.56 435.8 358.92 433.68 357.8 431.55 358.92 431.96 356.56 430.24 354.88 432.62 354.54 433.68 352.38"/><polygon class="i" points="335.73 299.34 336.79 301.49 339.17 301.83 337.45 303.51 337.85 305.87 335.73 304.76 333.61 305.87 334.01 303.51 332.29 301.83 334.67 301.49 335.73 299.34"/><polygon class="i" points="402.41 325.81 403.47 327.96 405.85 328.31 404.13 329.98 404.53 332.35 402.41 331.23 400.29 332.35 400.69 329.98 398.97 328.31 401.35 327.96 402.41 325.81"/><polygon class="i" points="362.71 325.52 363.78 327.67 366.15 328.02 364.43 329.69 364.84 332.06 362.71 330.94 360.59 332.06 361 329.69 359.28 328.02 361.65 327.67 362.71 325.52"/><polygon class="i" points="316.13 62.55 317.19 64.7 319.57 65.04 317.85 66.72 318.25 69.08 316.13 67.97 314.01 69.08 314.41 66.72 312.69 65.04 315.07 64.7 316.13 62.55"/><polygon class="i" points="344.02 111.48 345.09 113.63 347.46 113.97 345.74 115.65 346.15 118.01 344.02 116.9 341.9 118.01 342.31 115.65 340.59 113.97 342.96 113.63 344.02 111.48"/><polygon class="i" points="314.47 81.81 315.53 83.97 317.91 84.31 316.19 85.99 316.59 88.35 314.47 87.23 312.35 88.35 312.75 85.99 311.03 84.31 313.41 83.97 314.47 81.81"/><polygon class="i" points="322.98 101.58 324.05 103.73 326.42 104.08 324.7 105.75 325.11 108.12 322.98 107 320.86 108.12 321.27 105.75 319.55 104.08 321.92 103.73 322.98 101.58"/><polygon class="i" points="307.91 111.32 308.97 113.47 311.35 113.82 309.63 115.49 310.03 117.86 307.91 116.74 305.79 117.86 306.19 115.49 304.47 113.82 306.85 113.47 307.91 111.32"/><g><path class="g" d="M180.3,129.29c22.09,6.71,44.43,12.43,66.95,17.14,2.65,.55,5.35,1.11,7.77,2.42,2.42,1.31,4.59,3.49,5.35,6.32,1.02,3.76-.72,7.99-3.6,10.33-2.88,2.34-6.67,3-10.23,2.63-3.57-.37-6.99-1.69-10.37-2.99-11.65-4.5-23.31-9-34.96-13.5-8.21-3.17-16.5-6.36-25.13-7.45"/><polygon class="i" points="195.56 140.61 196.62 142.76 199 143.1 197.28 144.78 197.68 147.14 195.56 146.03 193.44 147.14 193.84 144.78 192.12 143.1 194.5 142.76 195.56 140.61"/><polygon class="i" points="240.16 147.05 241.22 149.2 243.59 149.54 241.87 151.22 242.28 153.58 240.16 152.47 238.03 153.58 238.44 151.22 236.72 149.54 239.09 149.2 240.16 147.05"/></g><polygon class="i" points="274.16 166.1 275.22 168.26 277.59 168.6 275.88 170.28 276.28 172.64 274.16 171.52 272.03 172.64 272.44 170.28 270.72 168.6 273.1 168.26 274.16 166.1"/><polygon class="i" points="341.48 344.5 342.54 346.65 344.91 347 343.2 348.67 343.6 351.04 341.48 349.92 339.35 351.04 339.76 348.67 338.04 347 340.42 346.65 341.48 344.5"/><polygon class="i" points="415.09 381.22 416.15 383.38 418.53 383.72 416.81 385.4 417.22 387.76 415.09 386.64 412.97 387.76 413.37 385.4 411.66 383.72 414.03 383.38 415.09 381.22"/><polygon class="i" points="461.49 372.61 462.55 374.76 464.93 375.11 463.21 376.78 463.62 379.15 461.49 378.03 459.37 379.15 459.77 376.78 458.06 375.11 460.43 374.76 461.49 372.61"/><polygon class="i" points="360.08 371.47 361.15 373.62 363.52 373.97 361.8 375.64 362.21 378.01 360.08 376.89 357.96 378.01 358.37 375.64 356.65 373.97 359.02 373.62 360.08 371.47"/><polygon class="i" points="382.57 379.46 383.63 381.61 386 381.96 384.28 383.63 384.69 386 382.57 384.88 380.44 386 380.85 383.63 379.13 381.96 381.5 381.61 382.57 379.46"/><polygon class="i" points="335.73 379.96 336.79 382.11 339.17 382.46 337.45 384.13 337.85 386.5 335.73 385.38 333.61 386.5 334.01 384.13 332.29 382.46 334.67 382.11 335.73 379.96"/><polygon class="i" points="402.41 406.43 403.47 408.59 405.85 408.93 404.13 410.61 404.53 412.97 402.41 411.85 400.29 412.97 400.69 410.61 398.97 408.93 401.35 408.59 402.41 406.43"/><polygon class="i" points="362.71 406.14 363.78 408.29 366.15 408.64 364.43 410.31 364.84 412.68 362.71 411.56 360.59 412.68 361 410.31 359.28 408.64 361.65 408.29 362.71 406.14"/><polygon class="i" points="341.48 425.13 342.54 427.28 344.91 427.62 343.2 429.3 343.6 431.66 341.48 430.54 339.35 431.66 339.76 429.3 338.04 427.62 340.42 427.28 341.48 425.13"/><path d="M318.64,151.89s6.23-2.79,13.44-.75c0,0,.21-5.27-6.56-5.27s-6.88,6.02-6.88,6.02Z"/><path d="M299.04,152.12s5.16,1.83,8.71-.11c0,0-3.01-4.94-6.77-4.73s-1.93,4.84-1.93,4.84Z"/><ellipse cx="302.78" cy="163.62" rx="1.13" ry="2.07"/><ellipse cx="325.97" cy="161.37" rx="1.13" ry="2.07"/><path class="i" d="M305.77,197.29s1.85,2.91,8.47,2.12c6.61-.79,7.94-7.94,7.94-7.94"/></g></g></g><g id="e"><polygon class="k" points="628.12 572.9 204.58 572.9 204.58 440.22 628.12 440.22 595.36 507.2 628.12 572.9"/><text class="h" transform="translate(332.37 544.31)"><tspan x="0" y="0">IMPOSTOR</tspan></text><text class="l" transform="translate(292.35 502.85)"><tspan x="0" y="0">Monstruo</tspan></text></g></g></svg>