<?xml version="1.0" encoding="UTF-8"?><svg xmlns="http://www.w3.org/2000/svg" viewBox="0 0 623.39 581.24"><defs><style>.f{font-family:Avenir-Medium, Avenir;font-size:28px;}.g{fill:none;stroke:#fff;}.g,.h,.i{stroke-miterlimit:10;}.h,.i{stroke:#000;}.j{fill:#f6c67b;}.k{font-family:Moonlights-on-the-Beach, Moonlights on the Beach;font-size:88px;}.l{fill:#eb566a;}.i{fill:#fff;}.m{opacity:.58;}</style></defs><g id="a"/><g id="b"><g id="c"><circle class="l" cx="292.16" cy="289.14" r="283.24"/></g><g id="d"><g><circle class="l" cx="290.62" cy="290.62" r="290.62"/><g><path d="M263.3,508.82c.3-37.07,.81-48.34,1.11-85.41,.04-4.34-.38-21.77-1-35.39-.45-9.98-9.45-12.18-13.78-11.9-6.58,.42-10.9,7.4-10.9,14,0,15.7,3.07,32.24,3.07,48.52,0,11.64,1.15,23.2-.19,34.76-1.34,11.56-7.51,23.51-18.41,27.62-5.37,2.03-11.26,1.96-16.95,2.67-5.69,.72-11.71,2.53-15.15,7.12-3.43,4.59-2.57,12.53,2.78,14.6,2.74,1.06,5.81,.38,8.66-.3,13.08-3.14,26.15-6.29,39.2-8.17,7.72,.6,15.6-.97,22.69-4.24,.22-.64,.45-1.28-1.14-3.88Z"/><path d="M268.06,314.27c1.81-9.76,3.58-20.06,.26-29.41-3.32-9.35-13.71-16.97-23.05-13.61-5.68,2.04-9.53,7.58-11.12,13.4-1.6,5.82-1.3,11.97-.99,18l3.97,77.22c.38,7.36,1.88,16.33,8.82,18.81,5.46,1.96,11.65-1.66,14.57-6.68,2.92-5.01,3.36-11.04,3.73-16.83,1.48-22.97,1.07-46.16,3.81-60.92Z"/><path d="M315.48,388.28c.28-6.9-3.26-14.91-10.08-15.99-5.52-.87-10.81,3.39-13.01,8.53-2.21,5.13-2.05,10.93-1.86,16.51,1.08,31.35,2.17,62.69,3.25,94.04,.23,6.71,1.53,21.01,1.53,21.01,0,0,13.42,4.15,19.78,4.15l.47-2.51,34.06,10.66c4.58,1.43,11.26,4.13,13.05-.32,1.58-3.92-2.32-17.58-5.72-20.09-7.28-5.38-14.74-3.02-22.01-8.41-5.96-4.41-12.1-9.02-15.65-15.52-3.39-6.21-4.06-13.49-4.52-20.55-1.62-24.71-.19-49.43,.7-71.49Z"/><path d="M321.56,311.93c1.81-9.76,3.58-20.06,.26-29.41-3.32-9.35-13.71-16.97-23.05-13.61-5.68,2.04-9.53,7.58-11.12,13.4-1.6,5.82-1.3,11.97-.99,18l3.97,77.22c.38,7.36,1.88,16.33,8.82,18.81,5.46,1.96,11.65-1.66,14.57-6.68,2.92-5.01,3.36-11.04,3.73-16.83,1.48-22.97,1.07-46.16,3.81-60.92Z"/><path class="h" d="M210.07,296.93c.09-3.74-.16-7.64-2.03-10.88s-5.76-5.57-9.36-4.56c-2.74,.77-4.71,3.28-5.61,5.98s-.9,5.6-.89,8.45c.08,20.69,.17,41.48,3.58,61.88,1.13,6.73,2.73,13.67,7,19.01,4.26,5.33,11.89,8.55,18.13,5.79-5.33-1.78-9.9-5.75-12.4-10.79,4.84,1.93,10.64,1.26,14.9-1.73-4.73,.13-9.45-2.44-11.91-6.49,4.25,3.31,11.36,1.79,13.88-2.98-4.5,2.2-10.18-.21-13.19-4.21-3.01-4-3.93-9.16-4.5-14.13-1.97-17.15,2.11-34.18,2.39-45.33Z"/><path class="h" d="M209.48,293.24c1.79-2.2,2.04-27.38,3.05-41.62,1-14.24,.65-18.86-1.25-36.52-.4-3.68-3.21-9.85-10.65-9.31-6.24,.46-8.12,8.11-8.12,13.47,0,21.4-1.84,36.49-1.37,57.88,.15,6.94,.35,15.13,6.44,18.45,5.67,3.09,9.44,.7,11.92-2.35Z"/><path class="h" d="M356.01,278.32c-3.34-2.16-8.08-.37-10.44,2.84-2.35,3.21-2.89,7.36-3.21,11.32-1.73,21.12,.55,42.51,6.04,62.98,2.78,10.37,7.14,21.46,16.62,26.51,8.76,4.67,20.66,2.31,26.98-5.34l-11.82-.53c5.52-1.85,9.83-6.93,10.75-12.68-3.06,3.8-7.63,6.34-12.47,6.94,4.87-3.79,7.41-10.35,6.36-16.43,.06,4.7-5.17,8.26-9.81,7.56-4.64-.7-8.3-4.59-10.05-8.95-1.75-4.36-1.94-9.16-2.11-13.85l-1.51-42.03c-.24-6.72,.03-14.88-5.32-18.34Z"/><path class="h" d="M360.64,295.68c1.79-2.2,2.04-27.38,3.05-41.62,1-14.24,.65-18.86-1.25-36.52-.4-3.68-3.21-9.85-10.65-9.31-6.24,.46-8.12,8.11-8.12,13.47,0,21.4-1.84,36.49-1.37,57.88,.15,6.94,.35,15.13,6.44,18.45,5.67,3.09,9.44,.7,11.92-2.35Z"/><path d="M293.86,56.26c-2.86-7.05-11.37-11.26-18.71-9.26-7.34,2-12.54,9.94-11.43,17.47-6.3-3.64-14.43-3.92-20.97-.71-6.53,3.21-11.28,9.82-12.25,17.03-9.75-4.59-22.06-3.09-30.43,3.69s-12.37,18.53-9.89,29.01c-6.6-.42-13.29,3.06-16.74,8.7-3.45,5.63-3.51,13.18-.15,18.87-10.21,.98-19.26,9.36-21.01,19.47-1.76,10.11,3.93,21.05,13.21,25.41-5.43,4.6-8.19,12.15-7.01,19.16,1.18,7.02,6.26,13.24,12.9,15.81-5.79,7.19-6.54,18.03-1.79,25.95,4.74,7.92,14.65,12.38,23.73,10.67-2.85,8.26,4.75,18.19,13.46,17.6,4.03-.27,8.07-2.37,11.95-1.22,3.95,1.17,6.21,5.25,7.7,9.09s2.82,8.07,6.13,10.52c3.3,2.46,9.29,1.54,10.01-2.51,7.62,15.27,29.99,20.65,43.72,10.51,7.2,4.98,17.26,5.43,24.87,1.11,7.61-4.32,12.39-13.19,11.8-21.92,10.39,2.29,21.99-3.02,27.03-12.39,9.91,4.82,23.52-2.65,24.78-13.6,5.72,1.53,12.24-.52,16.06-5.04,3.82-4.52,4.75-11.29,2.29-16.67,6.16,.12,12.25-3.41,15.21-8.81,2.96-5.4,2.66-12.43-.75-17.56,7.25-.55,10.78-9.67,9.48-16.82-1.3-7.15-5.57-13.48-7.04-20.6-1.8-8.77,.79-17.91-.37-26.78-1.16-8.88-9.1-18.33-17.6-15.53,5.76-15.14-5.92-34.17-22.03-35.88,.75-11.64-5.31-23.47-15.19-29.67-9.88-6.2-23.17-6.51-33.33-.77-1.54-6.62-7.59-11.94-14.35-12.6s-13.74,3.37-13.29,8.25Z"/><path class="g" d="M258.05,79.47c-6.93,2.94-14.26,6.18-18.46,12.43-4.2,6.25-3.42,16.42,3.43,19.55,3.49,1.59,7.59,1,11.27-.08,8.18-2.4,15.84-7.06,24.36-7.48,8.52-.42,18.35,6.16,16.81,14.55-.78,4.25-4.28,7.56-8.17,9.46-3.88,1.9-8.2,2.69-12.36,3.86-9.95,2.82-19.23,8.01-26.82,15.03-7.2,6.65-13.1,15.58-13.1,25.38,0,13.05,12.04,24.79,25.08,24.69,13.05-.1,24.84-11.78,25.29-24.82,.24-7.03-2.33-14.3-.05-20.96,2.33-6.77,9.12-10.98,15.89-13.32,11.15-3.85,25.98-2.7,31.54,7.7,4.05,7.58,1.38,17.27-3.87,24.08-5.25,6.81-12.65,11.54-19.42,16.85-10.9,8.54-20.41,18.86-28.04,30.41-6.48,9.8-11.55,22.95-5.21,32.84,5.34,8.33,16.64,10.55,26.49,9.6,17.64-1.69,34.36-11.38,44.6-25.85,5.38-7.61,8.72-18.73,2.59-25.75-5.25-6.01-14.56-5.73-22.46-4.6-18.91,2.7-37.53,7.44-55.43,14.12-10.73,4.01-21.34,8.74-32.67,10.44-11.33,1.7-23.83-.08-32.33-7.76-7.64-6.89-10.94-17.44-11.99-27.66-1.32-12.78,.66-26.51,8.63-36.59,6.67-8.43,17.08-13.52,27.77-14.62,8.17-.84,17.01,.76,23.05,6.33,9.33,8.6,9.08,23.69,4.43,35.49-4.65,11.8-12.78,21.96-17.62,33.68-4.23,10.25-5.77,21.96-2.3,32.49,3.47,10.53,12.58,19.51,23.58,20.97,10.99,1.46,22.99-6.02,24.89-16.94,1.83-10.53-5.13-20.33-11.3-29.06-6.17-8.73-12.15-19.61-8.3-29.59,3.2-8.31,12.22-12.81,20.86-14.98,8.47-2.14,19.21-1.91,23.83,5.51,4.72,7.59-.04,17.3-4.57,25-7.65,13.01-14.77,26.34-21.35,39.93-2.57,5.31-5.08,10.78-5.68,16.64-.6,5.86,1.04,12.27,5.59,16.03,4.17,3.45,10.2,4.1,15.38,2.54,5.18-1.56,9.59-5.08,13.15-9.16,9.73-11.19,13.5-26.43,14.4-41.23,.9-14.78-.39-30.91,8.2-42.97,5.66-7.93,18.01-12.53,25.11-5.85,6.94,6.52,4.21,18.8,10.12,26.27,5.81,7.33,18.34,6.36,24.71-.49,6.37-6.85,7.24-17.46,4.53-26.42-3.16-10.44-10.81-19.44-20.6-24.25-9.79-4.81-21.58-5.36-31.78-1.48-4.63,1.76-8.92,4.38-13.62,5.95s-10.15,1.97-14.39-.6c-8.12-4.93-6.96-17.81-.77-25.02,6.19-7.21,15.47-10.8,23.44-15.97,7.97-5.18,15.34-13.73,13.77-23.1-1.85-10.98-14.56-16.31-25.63-17.52-8.15-.89-17.16-.36-23.36,5.01-4.92,4.26-7.19,10.82-11.44,15.75-4.25,4.93-12.71,7.72-16.93,2.76-3.11-3.65-1.88-9.45,1.09-13.21,2.97-3.76,7.28-6.17,10.96-9.24s6.97-7.38,6.57-12.16c-.67-8-11.8-11.48-18.78-7.52-6.98,3.96-10.24,12.22-11.99,20.05-1.75,7.83-2.61,16.12-6.83,22.94-4.22,6.83-13.29,11.59-20.39,7.86-8.35-4.39-9.53-17.65-18.45-20.74-4.35-1.51-9.33,.12-12.82,3.12-3.49,3-5.73,7.19-7.59,11.41-2.86,6.52-4.57,15.14,.69,19.94,3.71,3.39,9.93,3.72,12.56,8,1.89,3.09,1.06,7.3-1.22,10.11-2.28,2.81-5.72,4.43-9.19,5.49-8.17,2.48-17.09,2.31-24.9,5.76-7.81,3.45-14.21,12.91-10.08,20.39,2.61,4.73,8.35,6.73,13.69,7.54,5.34,.81,10.96,.89,15.76,3.39,4.79,2.49,8.35,8.56,5.86,13.35-3.09,5.93-11.94,5.15-17.4,9.02-5.49,3.89-6.3,12.54-2.37,18.01,3.92,5.47,11.47,7.64,18.04,6.16s12.11-6.13,15.81-11.76c2.43-3.69,4.21-7.88,7.31-11.04s8.16-5.05,11.99-2.84c4.31,2.49,4.75,8.76,2.86,13.36-1.89,4.61-5.44,8.34-7.64,12.8-5.22,10.57-1.68,24.3,7.13,32.14,8.81,7.84,21.88,9.96,33.23,6.77,8.52-2.39,16.91-8.68,17.88-17.47,.56-5.16-1.5-10.2-3.53-14.98-4.76-11.23-9.69-22.73-18.1-31.57-5.64-5.93-12.93-10.81-15.91-18.44-3.01-7.71-.77-16.7,3.85-23.57,4.62-6.87,11.35-12.01,18.05-16.88,7.32-5.32,15.68-10.71,24.66-9.63,6.99,.84,12.86,5.48,18.2,10.06,5.34,4.58,10.9,9.46,17.77,10.98,6.87,1.51,15.39-1.82,16.89-8.7,1.68-7.7-5.83-14.96-4.83-22.78,.95-7.4,9.8-11.85,17.07-10.16,7.27,1.69,12.74,7.83,16.17,14.46,3.39,6.57,5.17,14.72,1.72,21.26-2.95,5.59-9,8.75-14.89,11.02-5.89,2.28-12.17,4.12-16.91,8.29-4.74,4.17-7.4,11.6-3.98,16.92"/><path class="g" d="M349.84,250.4c5.21-5.43,10.66-11.31,12.06-18.71,1.4-7.4-3.33-16.44-10.86-16.61-3.84-.09-7.37,2.07-10.33,4.52-6.58,5.43-11.77,12.74-19.44,16.48-7.66,3.75-19.29,1.58-21.19-6.73-.96-4.22,.95-8.64,3.77-11.92,2.82-3.28,6.47-5.7,9.83-8.42,8.04-6.51,14.51-14.95,18.72-24.4,3.99-8.95,5.89-19.48,2.02-28.49-5.15-11.99-20.84-18.03-32.79-12.79-11.95,5.23-18.17,20.63-13.44,32.79,2.55,6.56,7.79,12.22,8.31,19.24,.53,7.14-4.04,13.69-9.34,18.51-8.73,7.94-22.81,12.73-32.02,5.36-6.71-5.37-8.08-15.32-5.94-23.65,2.14-8.33,7.07-15.6,11.2-23.14,6.64-12.15,11.31-25.38,13.77-39.01,2.09-11.56,1.56-25.64-8.17-32.23-8.19-5.55-19.45-3.12-28.13,1.63-15.54,8.51-27.08,24.01-30.78,41.35-1.94,9.11-.63,20.65,7.78,24.68,7.2,3.45,15.64-.48,22.46-4.63,16.31-9.94,31.55-21.65,45.36-34.85,8.28-7.92,16.16-16.45,25.9-22.48,9.74-6.03,21.93-9.32,32.77-5.63,9.73,3.32,16.93,11.71,21.93,20.69,6.25,11.23,9.85,24.62,6.5,37.02-2.8,10.37-10.36,19.16-19.74,24.39-7.18,4-15.93,6.01-23.68,3.28-11.96-4.22-17.69-18.19-18.08-30.87-.39-12.68,3.08-25.22,2.9-37.9-.16-11.09-3.36-22.46-10.71-30.76-7.35-8.31-19.26-12.96-29.94-9.97-10.68,3-18.75,14.6-16.19,25.39,2.47,10.4,12.73,16.66,21.85,22.25,9.11,5.59,18.9,13.23,19.3,23.91,.33,8.9-6.18,16.59-13.25,22-6.94,5.3-16.9,9.33-24.07,4.33-7.33-5.11-6.79-15.91-5.66-24.77,1.9-14.98,3.18-30.03,3.86-45.11,.26-5.89,.42-11.91-1.34-17.53-1.76-5.62-5.8-10.86-11.46-12.52-5.19-1.52-10.99,.26-15.14,3.74-4.15,3.48-6.81,8.45-8.46,13.61-4.53,14.12-1.98,29.62,3.04,43.57,5.01,13.93,12.56,28.25,9.42,42.72-2.07,9.52-11.6,18.61-20.76,15.28-8.95-3.25-11.29-15.62-19.67-20.15-8.23-4.45-19.36,1.39-22.51,10.2-3.15,8.81,.24,18.9,6.26,26.06,7.02,8.34,17.6,13.6,28.49,14.15s21.95-3.59,29.79-11.18c3.56-3.45,6.47-7.54,10.17-10.84,3.7-3.3,8.55-5.82,13.46-5.12,9.41,1.33,13.42,13.62,10.58,22.69-2.84,9.07-9.96,16.03-15.24,23.93-5.28,7.9-8.68,18.67-3.54,26.66,6.03,9.36,19.82,9.24,30.46,5.98,7.84-2.4,15.91-6.44,19.49-13.82,2.84-5.86,2.34-12.78,4.3-18.98,1.96-6.21,8.64-12.11,14.47-9.22,4.29,2.13,5.46,7.95,4.21,12.57-1.25,4.63-4.25,8.54-6.43,12.81-2.17,4.27-3.49,9.53-1.24,13.76,3.77,7.08,15.37,5.89,20.22-.5,4.85-6.39,4.59-15.26,3.11-23.15-1.48-7.89-3.96-15.84-2.78-23.78,1.18-7.94,7.64-15.9,15.64-15.27,9.41,.74,15.72,12.45,25.13,11.78,4.59-.33,8.52-3.79,10.54-7.93s2.43-8.87,2.47-13.47c.06-7.12-1.78-15.71-8.5-18.06-4.75-1.65-10.59,.5-14.7-2.4-2.96-2.09-3.85-6.29-2.87-9.78,.99-3.48,3.51-6.33,6.28-8.67,6.53-5.5,14.79-8.87,20.6-15.12,5.81-6.25,7.96-17.47,1.22-22.71-4.27-3.31-10.33-2.89-15.56-1.53s-10.43,3.51-15.81,3.11-11.05-4.57-10.65-9.95c.5-6.67,8.94-9.45,12.43-15.15,3.51-5.74,.84-14.01-4.93-17.49-5.76-3.48-13.56-2.49-19.01,1.46-5.45,3.95-8.71,10.42-9.89,17.04-.78,4.35-.76,8.9-2.36,13.03-1.6,4.12-5.5,7.86-9.9,7.33-4.94-.59-7.82-6.18-7.9-11.15s1.7-9.81,1.97-14.78c.63-11.77-8.04-22.99-19.23-26.72-11.19-3.73-24.03-.52-33.2,6.89-6.89,5.56-12.12,14.65-9.53,23.11,1.52,4.96,5.41,8.78,9.15,12.37,8.81,8.44,17.87,17.07,29.09,21.87,7.52,3.22,16.15,4.83,21.89,10.66,5.81,5.9,7.3,15.04,5.76,23.18s-5.69,15.51-9.92,22.63c-4.63,7.77-10.18,16.03-18.86,18.58-6.75,1.98-13.98,.04-20.69-2.07-6.72-2.1-13.75-4.4-20.66-3.08-6.91,1.32-13.42,7.74-12.08,14.65,1.49,7.73,11.26,11.45,13.43,19.02,2.05,7.18-4.33,14.76-11.68,16.07-7.35,1.31-14.8-2.16-20.56-6.91-5.71-4.7-10.56-11.48-9.96-18.86,.5-6.3,4.82-11.59,9.34-16,4.51-4.42,9.56-8.58,12.27-14.29,2.71-5.7,2.22-13.58-3.01-17.11"/><path class="g" d="M173.4,127.61c15.97-2.77,34.42,10.24,48.75-1.54,3.33-2.73,5.79-6.69,5.68-11.1"/><path class="g" d="M370.07,80.35c-10.18-5.37-24.17-7.94-34.59-1.72-5.7,3.41-8.72,9.18-10.2,15.49-1.74,7.45-2.58,15.27-3.38,22.87-.84,8.03-1.18,16.15-.22,24.18,.93,7.78,3.69,15.1,5.37,22.72,1.64,7.41,1.61,14.94-2.12,21.73-3.23,5.89-8.46,10.52-14.34,13.67-11.45,6.14-25.55,7.4-38.33,8.02-12.87,.63-26.11-1.85-33.49-13.45-6.44-10.11-7.55-22.58-13.7-32.82-3.14-5.23-7.7-9.45-13.66-11.16-6.27-1.8-13.31-.41-16.87,5.46-3.32,5.47-3.09,12.14-4.65,18.16-1.66,6.38-5.88,11.15-12.63,12.03-12.73,1.66-21.2-9.48-23.15-20.83-.64-3.77-.76-7.62-.41-11.42"/><path class="g" d="M407.89,164.32c-11.13-2.99-20.94,3.2-30.75,7.85-5.68,3.1-12.39,4.13-18.06,.52-7.23-4.65-3.61-14.97,3.1-19.61,6.71-4.13,14.45-5.68,20.13-11.35,6.71-6.71,11.87-14.97,11-24.72"/><path class="g" d="M400.17,232.26c-8.06-5.9-17.87-12.61-17.87-23.45-.52-6.19,5.16-11.35,11.87-10.84,7.23,.52,13.94,4.13,20.94,2.64"/><path class="g" d="M338.97,275.48c-2.59-4.22-6.72-7.83-5.69-13.51,1.03-4.13,3.61-6.71,7.23-8.26,10.84-4.13,21.16,2.58,31.06,6.39"/><path class="g" d="M234.44,292.31c11.56-8.76,19.06-23.21,33.29-28.27,6.09-2.17,13.28-2.09,18.8,1.57,5.16,3.43,7.41,9.13,7.58,15.14,.21,7.64-1.72,16.25,3.02,22.96"/><path class="g" d="M167.37,240.79c7.05,6.8,16.02,13.03,25.96,14.28,10.48,1.32,18.12-5.05,27.35-8.57,6.44-2.45,16.33-3.11,21.03,3.08,5.3,6.98-.93,14.23-7.38,17.18-9.29,4.25-20.5,1.11-29.22,7.14"/><path class="g" d="M172.38,131.97c7.49,10.16,18.44,16.88,30.7,19.63,10.52,2.37,24.6,1.06,32.14,10.32,8.73,10.72-.19,24.22-10.94,28.92-10.41,4.55-21.96,3.1-32.97,2.97-10.15-.12-21.39,.62-29.23,7.88-.98,.91-1.88,1.89-2.71,2.94"/><path class="g" d="M315.61,50.48c-16.4,5.56-28.79,16.92-39.11,31.88-8.26,12.9-14.97,24.77-25.81,35.1s-28.39,15.48-40.26,4.13c-4.13-4.65-4.65-10.84-3.61-16.52,2.06-8.26,6.71-16,6.5-24.26"/><path class="g" d="M250.18,297.86c7.61,1.15,15.53,2.58,23.13,.61,5.93-1.54,11.4-5.44,14.17-11,2.06-4.13,2.61-9.46,.12-13.53-2.06-3.38-5.72-5.39-9.32-6.74-8.74-3.28-18.27-3.23-27.12-6.13-6.33-2.07-12.34-5.67-15.92-11.45-3.35-5.41-4.23-12.44,.19-17.53,3.84-4.43,10.15-5.68,15.75-5.12,7.73,.77,15.15,3.92,22.79,5.35,13.71,2.55,28.56,2.17,41.58-3.18,11.58-4.75,21.7-14,23.68-26.86,1.79-11.65-3.59-23.82-13.32-30.42-10.28-6.97-23.99-6.85-34.52-.46-6.07,3.68-10.02,9.04-13.18,15.29-2.93,5.79-5.48,11.94-10.55,16.24-10.47,8.86-26.52,5.85-37.7-.05-10.09-5.32-18.67-15.37-16.49-27.49,1.97-10.93,12.38-17.91,22.18-21.31,6.72-2.33,13.9-3.15,20.94-3.93,8.03-.89,16.03-1.8,23.95-3.38,15.02-3,30.28-8.01,43.29-16.24,11.5-7.27,21.67-20.05,16.45-34.37-4.67-12.79-18.86-20.65-31.15-24.46-12.62-3.91-26.31-4.45-39.28-2.11-11.47,2.07-23.53,6.77-30.59,16.52-4.11,5.67-5.92,12.99-2.33,19.37,3.32,5.91,9.64,9.84,15.47,12.91,6.41,3.38,13.25,5.87,20.09,8.21,7.32,2.5,14.66,4.95,22.11,7.07,15.23,4.34,30.7,7.09,46.22,10.14,14.11,2.78,28.5,6.71,40.14,15.55,11.81,8.98,18.32,22.22,17.07,37.14-1.17,13.98-7.34,27.53-16.3,38.24-8.53,10.19-20.21,17.56-33.49,19.44-12.67,1.8-26.25-1.44-36.57-9.07-10.91-8.07-16.68-20.81-12.87-34.2,3.82-13.42,14.96-22.87,26.41-29.92,11.59-7.13,24.14-12.64,34.91-21.08,10.77-8.44,19.11-19.85,21.53-33.53,2.28-12.85-1.36-26.88-11.86-35.21-9.25-7.33-22.61-9.12-32.83-2.66-9.84,6.23-12.46,18.37-12.54,29.25-.09,13.57,3.52,28.1-2.5,40.95-5.15,10.99-16.58,15.43-28.19,14.51-10.59-.84-23.63-5.41-30.06-14.33-3.15-4.37-4.4-9.99-2.49-15.13,1.81-4.88,5.81-8.66,9.88-11.73,4.53-3.41,9.53-6.17,14.46-8.95,6.96-3.93,13.98-7.76,20.94-11.68,11.86-6.67,24.29-13.41,34.66-22.33,8.1-6.97,14.67-16.73,10.75-27.75"/><path class="g" d="M373.88,148.21c4.81-7.62,9.61-15.73,10.17-24.73,.56-8.99-4.61-19.01-13.44-20.8-3.54-.72-7.25-.08-10.81-.73-3.56-.65-7.26-3.39-6.99-7,.27-3.49,3.91-5.57,5.9-8.45,4.53-6.56-.72-15.95-7.79-19.64-10.9-5.69-26.28-1.69-31.8,9.3-5.52,10.99,1.79,26.68,13.98,28.28,6.72,.88,13.27-2.07,19.43-4.88,6.16-2.81,12.82-5.63,19.49-4.47,6.67,1.15,12.74,8.11,10.37,14.45-1.74,4.63-6.84,6.84-11.25,9.07-4.41,2.23-9.11,5.95-8.73,10.88,.37,4.74,5.55,7.81,10.3,7.97,4.75,.16,9.31-1.7,13.95-2.74,4.64-1.04,10.03-1.07,13.56,2.12,4.87,4.39,3.6,12.67-.42,17.85-4.01,5.18-9.98,8.4-14.94,12.69s-9.15,10.68-7.6,17.04c1.88,7.69,12.68,11.07,19.09,6.41s7.04-15.07,1.85-21.05-14.76-7.14-21.73-3.37c-6.96,3.77-11.14,11.73-11.33,19.65-.16,6.69,2.54,13.66,7.95,17.6,5.42,3.93,13.63,4.09,18.52-.49,3.44-3.22,5.49-8.57,10.13-9.44,6.16-1.15,10.1,7.86,6.88,13.24-3.22,5.37-10.03,7.28-16.24,8.09-4.39,.58-9.18,.99-12.41,4.01-3.23,3.02-3.04,9.72,1.26,10.78,2.1,.52,4.35-.49,6.45,.02,3.96,.96,4.65,6.98,1.84,9.93-2.81,2.95-7.4,3.33-11.43,2.74-4.03-.6-7.99-1.97-12.06-1.83s-8.51,2.41-9.37,6.4c-1.25,5.76,4.93,13.16,.27,16.77-3.09,2.4-7.48-.25-10.29-2.96-2.81-2.72-6.58-5.85-10.14-4.24-6.58,2.97-.57,15.7-6.84,19.26-4.23,2.4-9.03-2.29-10.98-6.75-1.95-4.46-3.89-10-8.66-10.97-4.52-.93-8.84,3.64-8.84,8.25,0,4.61,3.24,8.71,7.14,11.15,2.76,1.73,6.1,3.03,7.55,5.95,2.23,4.48-1.42,9.71-5.5,12.6-6.83,4.84-17.71,6.18-22.55-.65-2.21-3.11-2.56-7.12-2.89-10.92s-.8-7.83-3.15-10.83c-2.35-3-7.29-4.29-10-1.6-2.75,2.73-1.57,7.47,.56,10.7,2.13,3.24,5.11,6.19,5.66,10.03,1.09,7.59-9.2,12.99-16.08,9.62-6.88-3.38-9.73-11.97-9.19-19.61,.47-6.64,1.78-15.48-4.39-17.99-5.62-2.29-11.38,4.79-10.36,10.77,1.02,5.98,6,10.37,10.67,14.24-.59,2.53-4.48,2.73-6.35,.93-1.86-1.81-2.31-4.58-2.94-7.09-.63-2.52-1.83-5.27-4.29-6.1s-5.63,2.15-4.04,4.2c-4.38-1.23-4.55-7.22-4.56-11.76s-3.1-10.58-7.31-8.87c-1.87,.76-2.8,2.81-4.14,4.34-2.64,3.01-7.39,3.93-10.96,2.12s-5.64-6.19-4.76-10.1c.71-3.18,3.04-5.72,4.44-8.66,1.39-2.94,1.47-7.13-1.34-8.78-3-1.76-6.77,.75-8.74,3.62-1.96,2.87-3.37,6.41-6.44,8.04-3.91,2.07-9.07-.13-11.4-3.89-2.33-3.75-2.37-8.52-1.51-12.86,1.48-7.45,5.85-14.74,12.81-17.8,6.95-3.06,16.45-.52,19.45,6.46,3.01,6.98-3.57,16.52-10.98,14.85-5.09-1.15-8.17-6.29-10.01-11.17-1.84-4.88-3.22-10.27-7.1-13.76-2.29-2.06-5.25-3.25-7.63-5.2-4.77-3.9-6.49-11.69-2.53-16.4,3.97-4.71,13.41-3.09,14.42,2.99,.34,2.03-.22,4.13,.11,6.17,.84,5.13,7.75,7.7,12.26,5.11,4.51-2.59,6.1-8.77,4.4-13.69-1.7-4.91-6.04-8.55-10.82-10.58-6.08-2.59-13.15-3.05-18.44-7.02-7.47-5.6-8.46-18.04-1.84-24.62,6.62-6.58,19.24-5.39,24.35,2.42,3.43,5.23,3.19,12.72-.89,17.46s-11.8,5.99-16.96,2.45c-5.15-3.54-6.65-11.58-2.8-16.51,3.05-3.91,8.25-5.26,12.58-7.67,4.33-2.41,8.28-7.53,6.11-11.99-1.4-2.88-4.81-4.18-6.8-6.69-3.78-4.73,.03-13.13,6.07-13.42,6.05-.29,10.63,7.71,7.32,12.78-2.25,3.45-6.83,4.9-8.92,8.46-3.02,5.14,1.6,12.44,7.53,13s11.45-4.37,12.88-10.15c1.43-5.79-.56-11.98-3.91-16.9-2.78-4.08-6.57-7.68-7.89-12.44-2.19-7.91,3.18-15.93,9.29-21.4,3.15-2.82,6.72-5.4,10.87-6.22s8.96,.53,11.17,4.13c3.12,5.08-.18,11.85-4.71,15.73-4.53,3.89-10.27,6.35-14.14,10.89-6.42,7.53-5.76,19.69,.53,27.34,6.29,7.64,17.13,10.74,26.86,8.9,7.51-1.42,15.31-6.97,15.19-14.61-.12-7.52-7.42-12.56-13.57-16.89-6.15-4.33-12.55-11.33-9.97-18.39,1.6-4.39,6.15-6.88,10.38-8.87s8.84-4.17,10.9-8.37c2.05-4.2-.67-10.71-5.32-10.19,4.07-2.63,8.3-5.33,13.09-6.11,4.79-.78,10.33,.87,12.63,5.14,1.9,3.53,1.26,8.01,3.18,11.53,2.26,4.14,8.19,5.73,12.22,3.29,4.03-2.44,5.36-8.44,2.74-12.35-3.37-5.04-11.04-5.55-14.66-10.41-3.36-4.51-1-12.18,4.44-13.63,5.44-1.45,11.4,4.67,9.46,9.95-2.64,7.17-13.7,6.36-18.77,12.07-4.07,4.59-2.49,12.57,2.52,16.1,5.01,3.53,12.24,2.84,17.22-.74,4.98-3.58,7.86-9.53,8.82-15.59,.73-4.63,.52-9.58,2.79-13.67,2.28-4.09,8.54-6.43,11.62-2.9,3.1,3.55,.15,9.22-3.68,11.97-3.82,2.75-8.69,4.53-10.99,8.64-3.57,6.36,1.58,14.77,8.42,17.32,6.84,2.55,14.44,.99,21.56-.59l14.23-3.16c4.17-.93,8.94-2.33,10.59-6.27,2.08-4.98-2.6-10.52-7.78-12.02-9.29-2.69-18.95,2.9-26.05,9.47-7.1,6.57-13.34,14.55-22.23,18.37-12.73,5.48-28.96,1.52-39.88,10.05-2.56,2-4.76,4.95-4.51,8.18,.35,4.46,5.22,7.32,9.69,7.57s8.84-1.27,13.3-1.7c4.46-.43,9.62,.65,11.88,4.51,2.42,4.12,.35,9.64-3.19,12.85-3.54,3.21-8.21,4.79-12.55,6.8-7.01,3.25-13.4,7.82-18.74,13.4-2.43,2.54-4.76,5.62-4.65,9.13,.19,6.16,7.64,9.48,13.8,9.18,6.16-.3,12.28-2.68,18.34-1.57,11.8,2.15,17.47,17.77,12.29,28.6-5.17,10.82-17.75,16.49-29.74,16.96-9.26,.37-19.64-2.62-24.1-10.74-3.74-6.8-2.45-15.55-6.35-22.26-4.11-7.08-14.07-10-21.35-6.26-5.02,2.58-8.42,7.75-9.62,13.27-3.23,14.77,8.79,29.47,23.06,34.47s29.96,2.71,44.82-.06c14.86-2.77,30.2-5.96,44.94-2.62"/><path class="g" d="M264.15,64.78c7.67,11.36,9.99,29.46,24.8,34.24,4.33,1.4,9.34,1.28,13.11-1.51"/><path class="g" d="M412.29,203.96c.9-10.71-1.55-22.21-8.28-30.77-3.7-4.71-8.78-8.65-14.8-9.67-6.88-1.17-13.51,1.36-19.6,4.29-13.25,6.37-26.32,13.37-36.96,23.68-9.3,9.02-16.5,22.44-29.95,25.71-12.22,2.97-23.83-3.18-32.85-10.96-4.56-3.93-8.66-8.37-12.52-12.98-4.29-5.13-8.65-10.33-11.78-16.28-3.17-6.03-4.8-12.76-3.44-19.53,1.33-6.63,4.99-12.52,8.91-17.92,7.04-9.7,16.31-20.01,13.69-32.96-.99-4.89-3.68-9.65-8.32-11.87-5.89-2.82-12.01-.38-17.47,2.22s-10.82,5.51-16.85,3.85c-5.34-1.46-9.31-5.94-10.84-11.17-1.03-3.54-1-7.34-.14-10.91"/><path class="g" d="M401.48,228.94c3.27-3.38,5.94-7.37,7.71-11.72"/><path class="g" d="M360.41,266c-5.41-6.7-12.82-9.58-20.04-13.76-5.93-3.44-13.31-11.02-9.13-18.42,3.7-6.55,12.51-6.14,18.51-3.61,6.96,2.94,12.82,7.88,20.39,9.36,8.73,1.71,17.88-.55,25.2-5.5"/><path class="g" d="M305.05,303.73c.87-6.66-.16-13.89,3.45-20.08,4.13-6.71,12.9-10.84,19.04-4.63"/><path class="g" d="M228.87,288.11c6.72-5.18,5.83-16.96,14.73-19.83,10.56-3.41,16.71,8.88,19.02,16.92,1.86,6.47,2.82,13.17,4.93,19.57"/><path class="g" d="M160.91,204.66c12.59,4.01,26.47,2.98,38.45,9.08,4.86,2.48,9.29,6.13,11.59,11.19,2.63,5.79,1.95,12.31-1.82,17.44-4.47,6.07-12.03,8.56-17.24,13.82"/><path class="g" d="M165.13,143.3c2.39,8.17,7.75,13.63,14.82,18.07,6.17,3.87,13.66,7.02,17.78,13.34,4,6.12,2.7,15.57-5.17,17.68-8.17,2.19-14.87-4.55-19.56-10.25-4.64-5.64-9.85-12.74-17.93-12.77"/><path class="g" d="M256.31,61.8c-3.04,7.66-3.55,15.4-2.52,23.66,2.06,10.32,7.74,18.58,12.39,27.87,4.13,9.29,4.13,22.19-6.19,26.84-13.42,6.19-26.84-3.1-35.1-14.45-8.77-12.39-15.48-26.84-30.68-31.73"/><path class="g" d="M402.28,130.11c-11.23-7.08-24.63-9.79-37.71-10.71-14.54-1.02-29.17,1.23-43.66-.58-11.42-1.43-23-5.96-30.19-15.38-6.42-8.42-6.07-20.49,3.53-26.36,9.01-5.51,21.27-4.82,28.75-12.97,.99-1.08,1.85-2.29,2.53-3.58"/><path class="g" d="M319.91,289.24c-19.8,6.03-42.95,4.13-59.03-9.86-14.28-12.42-22.54-34.66-14.22-52.68,3.82-8.27,11.33-14.03,20.03-16.45,10.46-2.91,21.55-.9,31.57,2.69,10.39,3.72,19.98,9.26,30.05,13.71,10.14,4.48,21.02,7.8,32.2,7.77,19.49-.05,39.83-12.23,42.17-32.99,1.01-8.91-1.92-18.26-8.49-24.49-7.49-7.11-17.8-8.01-27.27-4.73-18.73,6.48-31.46,29.27-53.01,27.61-9.64-.74-17.34-7.34-22.03-15.44-4.79-8.28-7.99-19.05-6.27-28.62,1.55-8.64,8.18-14.63,16.97-15.19,10.11-.64,19.84,5.04,28.44,9.64,10.04,5.37,20.31,10.26,30.63,15.06,9.85,4.58,19.84,9.76,30.71,11.34,5.12,.75,10.51,.7,15.39-1.23"/><path class="g" d="M168.96,228.11c3.74,6.62,8.57,13.45,15.98,16.21,6.27,2.34,14.47,1.61,19.28-3.45,7.53-7.93,.14-21.31-3.65-29.25-5.57-11.66-11.62-28.94,1.29-38.23,5.83-4.19,13.16-2.95,18.02,2.07,5.48,5.67,7.46,13.89,10.1,21.09,5.25,14.31,14.25,27.96,26.76,36.91,11.21,8.02,26.29,11.78,38.98,4.8,12.49-6.87,18.96-22.41,14.91-36.09-2.07-7.01-6.85-13.1-12.81-17.25-7.09-4.95-15.14-6.15-23.61-5.22-7.73,.84-15.46,2.89-23.06,.17-7.25-2.6-12.29-8.95-15.48-15.73-5.31-11.29-7.49-27.22,.9-37.65,10.23-12.72,27.26-8.08,38.56,.37,6.55,4.9,11.83,11.28,17.17,17.41,5.71,6.54,11.69,12.82,18.21,18.56,11.85,10.43,25.61,20.99,41.23,24.76,7.3,1.76,15.27,2.02,22.11-1.49,6.88-3.53,10.9-10.42,12.56-17.78,3.54-15.62-1.68-32.26-9.78-45.6-7.65-12.61-18.82-24.87-32.91-30.16-6.47-2.43-14.09-3.53-20.61-.66-7.1,3.13-10.1,10.41-10.32,17.79-.26,8.38,1.84,17.01,3.77,25.11,2.08,8.73,4.71,17.32,7.62,25.81,5.77,16.84,13.53,32.69,20.39,49.08,6.25,14.94,11.67,31.49,8.01,47.81-1.64,7.31-5.21,14.07-10.47,19.41"/><g class="m"><path d="M290.84,212.58c-.02-.2-.05-.39-.06-.59-.13-3.36-.05-2.76-.48-5.68h0c-.24-2.3-.66-4.9-2.97-5.97-3.03-1.61-4.73,.83-5.55,3.5-.31,1.44-.28,2.91-.29,4.37-.08,3.03,.16,6.08-.14,9.09-.19,.97-.42,1.93-.72,2.87-.02-.03-.05-.05-.08-.08-.03-.04-.06-.08-.09-.12-.83-1.46-.23-.11-.92-2-.56-1.83-.32-1.07-.58-3.29-.24-2.83-.48-5.67-.78-8.5-.14-1.23-.5-2.44-.95-3.58-.17-.45-.29-.94-.65-1.28-.2-.15-.25-.19-.27-.2h-.02c-.55-.47-1.49-.53-1.97,0-.84,1.18-1.17,2.72-1.18,4.15,0,.02,0,.05,0,.08-.99,3.25-1.51,6.64-1.08,10.05,.09,1,.22,2.02,.4,3.03-.02-.05-.05-.12-.07-.16-.81-2.15-1.31-2.82-1.61-3.63-1.18-2.53-2.27-5.1-3.57-7.56-.24-.43-.51-.84-.7-1.29-1.02-2.37-1-2.04-1.58-3.83-.51-2.02-1.33-4.07-3.07-5.33-.97-.83-2.33-.93-3.54-.69-1.08,.24-1.92,1.16-2.28,2.19-.48,1.05-.56,.9-.87,3.12,.03-.25,.07-.5,.1-.75-.12,.49-.24,.97-.28,1.48-.29,1.5-.26,1.5-.38,1.94-.29,1.63-.89,3.19-1.2,4.81-.1,.23,0,0,.09-.21-.4,.91-.65,1.88-.86,2.86-.33,.95-.53,1.93-.7,2.93-.5,1.79-.87,3.61-1.35,5.41-.44,1.33-.74,2.71-.86,4.1,0,.05,0,0,.02-.14-.09,1.05-.26,2.1-.17,3.15,.16,2.5,2.48,3.93,4.26,5.36-1.09-1.61-2.88-3.2-2.63-5.31,.56-2.18,1.01-3.7,2.06-5.65,1.34-2.7,1.52-3.42,2.57-5.71,.09-.26,.17-.49,.24-.69,.02,.21,.04,.41,.05,.62,.03,.76-.55,1.97-.91,2.85-1.09,2.16,.81,3.03,2.72,2.73,1.47-.19,2.25-.86,3.34-1.25,.2-.06,.48-.12,.8-.19,.73,1.99,1.21,2.85,1.53,3.66,.72,1.64,.3,.82,1.38,3.17,.21,.31,.44,.61,.67,.9,.09,.12,.18,.24,.27,.35-.04-.05-.05-.05,.04,.07,1.09,1.72,2.41,3.56,4.45,4.18,2.29,.67,4.9-1.09,4.9-3.52-.03-.64-.13-1.28-.3-1.9-.06-.58-.2-1.15-.36-1.71,.28,.48,.6,.95,.94,1.4,1,1.16,2.3,2.1,3.82,2.42,1.54,.27,3.14,.41,4.64-.09,1.54-.51,2.84-1.62,3.83-2.89,.87-1.01,1.63-2.1,2.07-3.37,.56-1.46,.89-3,.95-4.57,.01-1.7,.12-3.42-.1-5.11Zm-30.91-7.58c.14,.34,.27,.68,.42,1.02-.23-.09-.46-.14-.69-.17,.08-.24,.17-.52,.27-.86Zm.81,13.58c-.89,.15-2.03,.41-2.29,.43-.16,.03-.37,.01-.59-.02,.49-.72,.99-1.44,1.29-2.26,.35-.88,.35-1.84,.45-2.77,0-.12,.02-.22,.03-.32,.16,.53,.37,1.16,.7,1.96l.07,.16c.77,1.89,.69,1.5,1.25,2.77-.31,0-.62,.01-.91,.04Zm14.6-16.3s.03,.06,.06,.1c.01,.1,0,.03,.02,.27,.59,2.77-.23,7.07-.45,10.63-.01,.11-.02,.22-.03,.33-.14-.57-.29-1.17-.45-1.83-.38-1.93-.33-5.81-.02-8.91,.19-.27,.39-.52,.61-.75,.03,0,.07,.02,.12,.03,.02,.03,.04,.05,.05,.06,.05,.04,.07,.06,.09,.08Z"/><path d="M276.38,201.17l-.04-.03c.17,.13,.12,.07,.04,.03Z"/><path d="M276.31,201.12h.01v0Z"/></g><path class="m" d="M307.87,201.79c1.23-2.34-1.44-3.62-3.27-4.28-1.26-.45-2.64-.21-3.94-.08-.94,.08-1.82,.37-2.71,.67-.75,.16-1.52,.26-2.25,.49-.8,.24-1.42,.48-1.97,.71l.06-.11s-.09,.09-.14,.14c-.78,.32-1.46,.64-2.4,.95-.57,.41-.6,1.15-.5,1.78,.01,.61,.18,1.08,.75,1.3,.35,.89,1.65,1.45,3.5,2.08,.15,.26,.14,.2,.24,.43,.08,.02-.08,1.37-.13,1.96-.13,1.59,0,3.18-.2,4.77-.23,.79-.53,3.99-.72,4.92-.4,2.75-.91,5.76,.38,8.35l.06,.13c.53,1.23,1.36,2.38,2.55,3.02,2.7,1.28,5.21-.13,6.02-2.92,.8-3.41,.28-6.91-.49-10.28-.03-.17-.05-.28-.06-.34-.34-2.66-.34-5.79-.51-9.68,.43-.03,.85-.08,1.26-.2,1.31-.42,2.44-1.28,3.37-2.28,.15-.17,.29-.35,.42-.53,.06-.08,.14-.18,.22-.29,.07-.1,.14-.23,.2-.36,.05-.08,.08-.13,.09-.16,.05-.07,.1-.13,.15-.2Zm-16.5,1.06c-.15-.34,.02-.59,.03-.89,.04-.27,.11-.65,.3-.79,.05,.01,.26,0,.39,0-.48,.7-.69,1.26-.67,1.74-.02-.02-.04-.03-.05-.05Zm2.75,.51c-.51-.11-1.19-.19-1.55-.47-.16-.11-.15-.32-.13-.49,.08-.46,.23-.91,.41-1.34,.7-.11,1.4-.25,2.11-.35,1.39-.19,2.79,0,4.17-.18,1.04-.14,2.09-.01,3.13,.11l.16,.03c.18,.03,.35,.07,.53,.12-.03,.02-.06,.03-.09,.04-.1,.04-.22,.1-.34,.15-.04,.01-.08,.02-.11,.03-.24-.02-.9-.02-1.21-.06-3.12-.31-4.03,1.21-4.29,3.4-.24-.26-.52-.48-.83-.64-.69-.37-1.83-.26-1.96-.34Z"/><path class="m" d="M328.8,211.48c-.13-1.44-.5-2.81-1.12-4.12-.51-1.28-.83-2.67-1.64-3.81-1.21-1.55-2.57-3.03-4.18-4.17-2.42-1.37-5.42-1.5-8.13-1.23-2.29,.57-3.3,2.94-4.36,4.81-.06,.1-.11,.2-.17,.3-.17,.12-.34,.25-.51,.39-3.09,2.87-4.89,7.02-5.33,11.19-.19,1.2,.07,2.39,.24,3.57,.2,1.34,.43,2.68,1.04,3.9,1.09,1.88,1.07,1.47,1.69,2.41,1.45,2.14,3.91,3.31,6.45,3.52,.46-.06,1.59,.57,4.11,.23,1.72-.4,3.4-1.07,5-1.81,1.94-1.22,3.72-2.83,4.91-4.8,.24-.35,.8-1.68,1.01-2.21,.78-1.64,1.11-3.43,1.12-5.25,.04-.97,.01-1.94-.12-2.9Zm-8.69,4.29c.02-.15,.04-.3,.06-.45-.28,1.31-.08,.96-.96,2.23-.12,.15-.29,.34-.4,.45-.13,.14-.35,.34-.5,.47-.35,.26-.72,.47-1.11,.66-.12,.03-.23,.06-.33,.08-.39,.03-.79,.03-1.18,.04h-.05c-.53-.13-1.04-.29-1.57-.43l-.14-.05c-.32-.14-.63-.3-.93-.48-.14-.13-.33-.32-.49-.49-.42-.57-.71-1.22-1-1.86-.1-.27-.18-.55-.25-.84-.06-.25-.1-.49-.14-.74,0-.07,0-.14,0-.22v-.12c.16-.87,.27-1.75,.57-2.58,.25-.56,.87-1.97,1.03-2.38,.19-.67,1.28-2.52,2.48-4.79,.08-.16,.16-.31,.26-.47,1.26,0,1.95,.08,2.38,.16,.26,.36,.51,.73,.78,1.08,.77,.97,.85,2.23,1.17,3.38,.88,2.49,.71,4.61,.31,7.33Zm1.13-9.05c.07,.11,.15,.25,.24,.41,.02,.04,.04,.08,.06,.12,.97,2.81,1.52,3.59,1.63,5.17v-.02c-.02-.11-.03-.22-.04-.29,0,.05,0,.1,.01,.15-.24-1.33-.69-2.62-1.36-3.8-.52-.86-.88-1.82-1.41-2.67,.12,.12,.25,.25,.4,.41,.16,.17,.32,.35,.48,.53Z"/><g class="m"><path d="M339.35,265.48l-.07,.03c-.13,.06-.26,.12-.39,.17,.17-.06,.42-.14,.47-.2Z"/><polygon points="325.73 237.94 325.72 237.95 325.72 237.95 325.73 237.94"/><path d="M374.68,244.26c-.33-.53-2.39-3.1-1.39-1.8-.09-.12-.18-.23-.27-.35,.04,.04,.02,.02-.09-.14-1.36-1.95-1.32-1.48-2.02-2.54-.13-.19-.27-.37-.4-.56,.96-.42,1.18-.7,1.42-.88,1.23-.9,2.32-2.06,2.96-3.45,1.09-2.28,.7-4.99-.06-7.31-1-2.94-3.03-3.77-5.86-3.14h0c-3.37,.15-8.01-.81-9.98,2.69-.69,1.43-.9,3.01-1.06,4.58-.07,.73-.13,1.46-.18,2.2-.08-.09-.15-.19-.24-.28-2.31-2.96-6.12-3.58-8.85-.94-.29,.06-.57,.17-.85,.32-.84,.34-1.35,1.12-1.89,1.8-1.06,1.28-1.71,2.82-2.4,4.32-.49,.96-.83,1.97-1.07,3-.34-1.34-.77-2.67-1.66-3.74-2.78-4.26-7.48-3.99-11.68-2-1.19,.51-2.34,1.14-3.38,1.93-.05,.04-.1,.07-.14,.11,.06-.04,.1-.08,.14-.11-.12,.09-.24,.17-.35,.27-.1,.08-.14,.11-.15,.13-.32,.24-.63,.48-.95,.73-1.12,1.07-1.12,3,0,4.07,.37,.4,.82,.62,1.31,.73-.36,1.67-.64,3.35-.85,5.04-.08,2.82-.46,5.61-.59,8.43,0,.51,0,.94,0,1.34-.45-.93-.55-1.3-1.38-3.53-1.02-2.43-.72-1.67-1.31-3.38-.24-.86-.61-1.67-.84-2.53-.17-.78-.29-1.57-.53-2.33-.6-1.7-.93-3.55-1.99-5.04-2.31-3.51-6.61-4.07-7.56,.73-.49,2.54-.2,5.08,.25,7.59-.42,1.18-.86,2.35-1.35,3.5-.72,2.56-1.44,5.14-2.06,7.73-.24,.89-.36,1.81-.47,2.73-.13,.66-.25,1.33-.34,2.01-.46-1.35-1.78-2.36-4.07-2.52-2.25-.33-4.4,.53-6.48,1.27-1.67,.49-1.91,.58-2.33,.58h-.03c-.25-.14-.49-.28-.73-.43-.21-.13-.41-.27-.61-.41l-.04-.03c-.11-.11-.22-.21-.32-.32l-.04-.06c0-.14,0-.28,0-.42,.03-.05,.05-.1,.08-.14,.64-.77,1.47-1.35,2.18-2.05,.17-.15,.33-.32,.49-.48,.84-.02,1.67-.05,2.5-.16,1.2-.14,2.41-.04,3.6-.24,.82-.16,1.59-.56,2.33-.94,1.41-.77,1.98-2.36,1.93-3.9,0-1.78-.77-3.59-2.37-4.48-1.65-.95-3.63-.81-5.36-.17-1.52,.48-3.01,1.06-4.42,1.79-.19,.1-.38,.2-.56,.3-.15-.69-.14-.88-.12-2.5,.02-.15,.04-.3,.05-.45v-.08c.15-.71,.29-1.44,.53-2.13,.29-.52,.24-.39,.99-.77,.88-.28,1.81-.34,2.72-.51,1.03-.3,2.04-.67,3.01-1.12,.24-.15,.5-.28,.77-.4,1.25,.1,2.49,.26,3.69,.45-.81-.38-1.64-.72-2.48-1.03,.44-.24,.86-.51,1.19-.89,.34-.39-.16,.07-.39,.15-.48,.25-1.03,.32-1.55,.44h-.07c-1.13-.37-2.28-.71-3.43-1.02-1.57-.35-3.22-.82-4.82-.4-1.44,.49-2.71,1.41-3.85,2.39-.9,.92-1.41,2.15-1.59,3.41-.35,2.9-.58,5.81-.46,8.73-.05,1.67-.13,3.35-.19,5.02-.21,.86-.24,1.75-.08,2.62,0,.17-.01,.35-.01,.52-.01,1.27-.07,.62-.26,3.03-.04,.97-.1,1.99,.34,2.88,1.02,2.51,3.75,3.43,6.28,3.33,1.84,.16,3.55-.5,5.17-1.29h.02c.93-.25,4.92-.16,7.01-2.11,.45-.47,.83-.96,1.13-1.47l-.03,.16c-.54,2.07,.83,3.92,2.86,4.37,3.07,.57,5.34-2.46,6.13-5.09,.43-1.82,.36-2.79,.42-3.49,.02,0,.05,0,.07,0,.48,.07,1.34,.2,1.69,.2,.06,0,.12,0,.18,0,.23,.79,.42,1.59,.78,2.34l.05,.11,.06,.15c.41,1.14,.81,2.33,1.63,3.24,2.6,2.67,6.71,1.05,7.46-2.4,.43,.15,.91,.25,1.46,.26,2.86,.49,4.85-.53,6.86-2.48,.24-.21,.48-.42,.73-.63l.15-.1c.38-.23,.77-.43,1.18-.61,.39-.14,.72-.24,1.19-.46h.03s.05-.03,.08-.04h-.02c.14-.05,.27-.11,.41-.17,.93-.44,1.74-1.12,2.34-1.95,.49-.55,.71-1.26,.99-1.92,.34-.83,.67-1.67,.8-2.57,.43-1.65,.6-3.34,.65-5.03,1.3,1.47,3.21,2.33,5.17,2.44,2.15,.25,4.43-.03,6.3-1.19,1.94-1.23,3.15-3.05,3.89-5.09,.18,.57,.36,1.14,.54,1.7,.29,.7,.35,1.54,.86,2.13,.56,.82,1.63,1.11,2.57,.88,.04,.15,.08,.3,.05,.46-.07,.3-.43,.54-.74,.51,.48,.25,1.13-.08,1.26-.6,.04-.21,.06-.41,.08-.62,.18-.1,.34-.22,.48-.37,1.11-1.09,.61-2.69,.58-4.07-.05-1.55-.37-3.06-.72-4.56,0-.14-.02-.29-.03-.43,.27,.08,.58,.12,.91,.11,.06,0,.37-.01,.62-.02,.4,2.38,1.03,4.78,2.84,6.5,1.93,1.81,5.05,.93,6.57-.98,1.43-1.94,.66-4.73-.6-6.57Zm-56.32,16.31c.04-.19,.08-.38,.1-.57l.02,.06c.08,.19,.15,.36,.23,.54-.12-.01-.23-.02-.35-.03Zm10.24-15.56c-.27,1.62-.22,2.11-.62,3.74-.22,1.16-.35,2.33-.45,3.51v-.08c-.13-1.14-.33-2.28-.51-3.41-.13-1.59-.23-3.18-.27-4.78,.44,0,.87,0,1.29,0,.21,.01,.35,.02,.44,.03,.12,.02,.24,.04,.35,.07-.08,.31-.17,.61-.24,.92Zm1.59,19.64s-.02,0-.03,.01c-.2,0-.52,.02-.84,.02-.09-.38-.09-.8-.17-1.55,.2,.22,.41,.44,.64,.64,.27,.23,.53,.42,.79,.6-.13,.11-.26,.2-.39,.27Zm3.95-6.74c-.01,.12-.02,.23-.04,.35,0,.04-.02,.07-.03,.11-.52,.99-.81,1.56-1.07,1.95-.53-.27-.35-.23-.83-.62-.97-.97-1.14-1.69-1.36-3.99-.23-2.75-.61-5.49-.61-8.25-.12-1.02-.2-2.04-.19-3.07,.07,.02,.15,.05,.22,.07,.29,.16,.57,.32,.83,.51l.05,.03c.14,.13,.27,.27,.4,.4,.14,.16,.3,.3,.45,.45,.36,.55,.63,1.14,.91,1.73,.42,1.12,.73,2.28,.9,3.47v.04c.3,2.37,.38,3.17,.36,6.79Zm.31-17.56h.03c.07,0,.15-.01,.22-.01,.19,.04,.37,.08,.56,.14,.08,.04,.16,.09,.23,.14l.09,.08c.12,.14,.18,.21,.2,.23,.12,.16,.24,.31,.36,.46,.11,.14,.2,.29,.29,.45,.09,.26,.17,.53,.25,.79-.62-.87-1.38-1.65-2.25-2.29Zm17.67-3.76c.49,.48,.74,1.2,.93,1.89-.15-.28-.31-.57-.47-.84,.25,2.25,.51,4.65,.48,7.08h0c-.08,.17-.23,.47-.33,.59-.03,.04-.06,.08-.08,.11-.12,.14-.4,.45-.55,.56h0c-.16,.11-.36,.21-.52,.29-.07-.08-.14-.16-.2-.24-.27-.41-.62-1.08-.74-1.28-.11-.34-.16-.69-.21-1.05-.05-.26-.14-.78-.18-1.01-.02-.23-.04-.45-.03-.68,.2-2.23,.87-4.39,1.9-5.43Zm1.64,12.21c-.21,.36-.42,.72-.65,1.07-.15,.15-.31,.3-.48,.44-.2,.14-.41,.26-.62,.36h-.02c-1.51,.4-.58,.27-2.92,.28-.09,0-.19-.02-.28-.03-.1-.02-.19-.05-.29-.08-.18-.09-.42-.21-.61-.33-.08-.08-.16-.16-.24-.24-.26-.37-.48-.76-.65-1.17-.06-.15-.1-.24-.13-.31-.59-1.5-.41-1.68-.58-3.8,.19,.59,.41,1.17,.74,1.7,.65,1,1.6,2.1,2.7,2.69-.21,.13-.43,.25-.66,.33,.27,.02,.55,0,.82-.05,.11-.02,.2-.05,.31-.07,.85,.33,1.78,.34,2.71-.27,.36-.21,.66-.45,.94-.71-.03,.06-.05,.12-.08,.17Zm10.54-4.22c-.08-.94-.19-1.86-.31-2.77,.04-.06,.23-.24,.17-.2-.04,.03-.04,.02,0,0,.02-.01,.07-.04,.08-.05,.88,.2,1.15,.85,1.39,2.23,.07,.47,.14,.95,.22,1.43-.59-.11-1.15-.29-1.56-.63Zm4.41-11.35c-.09,.08-.14,.12-.17,.15-.09,.07-.18,.14-.27,.2h0l.13-.1c-.05,.04-.11,.08-.17,.12-1.02,.36-1.94,.92-2.79,1.58-.04,.02-.09,.05-.18,.11-.76,.36-1.29,1.03-1.53,1.83-.01,.07-.02,.12-.03,.19-.06-2.52,.03-5.04,.68-7.45,1.74-.08,3.49,.06,5.21-.1,.07,.29,.13,.58,.19,.87,.03,.39,.04,.78,.03,1.17-.01,.06-.03,.12-.05,.18-.08,.17-.18,.32-.28,.48-.24,.27-.49,.52-.75,.77Zm2.48,15.22s-.07,.05-.1,.07c-.14-.12-.27-.25-.39-.4-.77-.93-1.08-1.45-1.41-2.26,.38,.4,.75,.8,1.11,1.21,.12,.13,.23,.26,.34,.4,.16,.23,.32,.48,.45,.73,.02,.07,.04,.14,.05,.22-.01,.01-.03,.03-.05,.04Z"/></g><path class="m" d="M282.15,244.46c-2.46-.26-2.86,.03-4.52-.57-1.8-1.02-3.9-1.28-5.93-1.52-.88-.03-1.88-.59-4.16,0-4.51,1.63-3.18,9.29,2.04,8.06,.33-.05,.65-.12,.97-.21,0,3.69,.15,7.38-.18,11.05-.35,4.32-1.26,8.59-1.03,12.94,.03,1.96,.11,4.11,1.53,5.61,2.48,2.62,5.92,.97,6.85-2.17,.61-2.1,.14-4.31,.11-6.46-.02-2.79-.04-4.93-.35-7.75-.28-3.12-.52-6.33-1.17-9.42,0-1.05-.01-2.09,0-3.14,0-.13,0-.26,0-.39,1.39,.05,2.8-.09,4.19-.14,1.63-.16,3.72-.15,4.57-1.82,1.16-2.84-.06-3.96-2.92-4.08Zm-2.48,4.45c-1.11,.29-2.22,.69-3.35,.95,.01-.69,.03-1.39-.03-2.07,.4,.09,.85,.16,1.06,.18,.69,.12,1.39,.15,2.09,.04,1.02-.1,1.79-.32,3.27-.35-.02,.03-.05,.08-.06,.11-.78,.52-1.88,.78-2.98,1.14Z"/><path class="m" d="M266.76,258.12c-.42-1.49-.94-2.95-1.64-4.33-.28-.47-.6-.92-.94-1.35,.03,.03,.06,.06,.09,.09-2.29-3.54-3.02-9.58-8.08-10.05-1.5-.21-2.94,.45-4.22,1.15-1.19,.76-2.3,1.67-3.12,2.84-1.07,1.31-1.91,2.79-2.7,4.28-1.1,2.44-1.77,5.06-1.98,7.72-.76-1.8-1.82-3.49-2.99-5.05-1.15-1.38-2.76-2.33-4.41-3-.03-.01-.06-.02-.09-.03,.86-.36,1.66-.82,2.33-1.48,.71-.7,1.03-1.61,1.01-2.52,.47-1.99,.35-4.21-1.05-5.75-.66-.59-1.6-.7-2.45-.84-2.07-.34-4.2-.34-6.2,.37-.22,.08-.72,.19-.96,.25-4.11,.14-5.44,3.5-6.17,7.07-.47,1.74-.35,3.51-.14,5.27,.04,2.69,.12,5.38,.32,8.07,.09,2.12,.04,4.24,.05,6.36,.05,1.63-.19,3.35,.4,4.9,1.65,4.75,6.77,6.17,11.17,4.35,1.46-.51,2.72-1.39,3.93-2.33,.02,0,.09-.06,.25-.18,.96-.71,1.91-1.47,2.59-2.47,1.09-1.67,2.35-3.26,3.08-5.14,.06-.18,.1-.36,.15-.54,.14,.54,.28,1.09,.38,1.65,1.36,5.58,4.94,11.37,11.46,10.67,3.73-.23,6.84-2.79,8.85-5.8,.89-1.64,1.38-3.46,2-5.22,.87-3.01,.32-6.13-.91-8.95Zm-35.25,13.32c-.25,.01-.5,0-.74-.03l-.32-.06c-.1-.03-.18-.05-.24-.07-.11-.06-.22-.12-.33-.18-.07-.08-.15-.16-.22-.24l-.03-.03c-.13-.2-.26-.41-.37-.62-.02-.05-.03-.09-.04-.14,0-.08-.01-.16-.01-.24,1.01,.12,2.02,.18,3.04,.19,.78,.05,1.56,.14,2.34,.15-.59,.43-1.44,.96-2.78,1.23-.1,.02-.2,.03-.3,.05Zm6.34-7.79c-.02,.62-.08,1.25-.14,1.87,0,.03,0,.05-.02,.09-.14,.99-.6,1.64-.87,2.06-1.13,.66-3.21,1-4.82,1.27-.92,.22-1.87,.4-2.8,.54,0-.39,0-.79,0-1.18,.02-3.09,.03-6.17-.21-9.25,1.6,.72,3.4,.89,5.1,.42,.29-.09,.99-.21,1.29-.26,.16-.02,.32-.02,.48-.02,.2,.06,.59,.15,.87,.26,.09,.04,.17,.1,.25,.15,.14,.12,.27,.26,.4,.4,.02,.04,.05,.08,.07,.13,.15,.45,.25,.92,.33,1.4,.08,.71,.08,1.43,.06,2.15Zm.12-21.55c.65,.52,1.02,1.25,1.24,2.04-.16-.21-.35-.4-.55-.57-.92-.79-2.05-1.26-3.23-1.46,.27-.03,.56-.06,.87-.08,.69-.04,1.62-.07,1.67,.08Zm20.38,3.81c.82,.62,1.63,1.54,2.45,2.55-1.75-1.71-3.37-2.13-6.72-2.01,1.17-1.02,2.68-1.67,4.27-.54Zm4.98,17.74c-.48,2.29-.39,1.42-1.3,3.64-.71,1.68-1.25,2.38-1.3,2.38-2.48,2.52-3.13,2.41-4.26,2.67-.39,.02-.78,.02-1.17,0-.07-.02-.14-.03-.21-.05-.18-.06-.37-.12-.55-.19-.21-.1-.41-.2-.6-.32-.31-.27-.6-.55-.87-.86-.37-.67-1.33-1.9-1.82-3.85-.37-1.16-.59-2.36-.88-3.54-.22-.7-.47-1.39-.62-2.11-.11-1.46-.15-2.94-.11-4.4,0-.03,0-.07,.01-.1,.06-.28,.23-1.18,.28-1.54,.39-2.45,.54-2.67,1.1-4.06,.28-.81,.66-1.62,1.72-3.43,.29-.38,.64-.8,1.04-1.18,1.42,.36,2.86,.69,4.13,1.44,1.68,1.31,2.3,3.59,3.5,5.47,.12,.18,.38,.76,.52,1.06,.78,2.36,.63,2.7,.94,4.58,.33,1.79,.52,2.31,.51,2.87,.05,.29-.02,1.05-.07,1.51Z"/><path class="m" d="M219.94,233.83c-.27-1.39-.5-2.89-1.46-3.99-1.02-1.06-2.82-1.19-3.96-.24-1.13,.87-1.65,2.28-2.52,3.38-.88,1.49-2.07,2.8-2.74,4.4-1.2,3.03-.64,2.45-1.23,5.17-.33,1.21-.6,1.44-1.56,3.86-1.1,2.75-.83,2.31-2.24,5.34-1.01,1.93-1.89,3.99-2.05,6.18-.1,1.18-.15,2.42,.43,3.49,1.15,2.05,3.82,2.62,5.77,1.36,2.43-1.78,4.15-4.48,5.11-7.31,.02-.06,.03-.13,.04-.19,.16-.07,.31-.16,.45-.29,.18-.13,.33-.29,.46-.46,0,.05,.01,.09,.02,.14,.08,.79,.22,1.56,.47,2.32,.05,.19,.15,.39,.34,.47,.19,.05,.15-.23,.14-.35-.03-.56-.03-.13-.09,.09-.39-.98,.36-4.64,.5-6.56,.11-.63,.19-1.27,.22-1.91,.03-.06,.06-.12,.09-.19,0,.87,0,1.75,0,2.62,.2,3.6,.35,7.22,.99,10.78,.29-3.43,.95-6.7,1.51-10.36,.55-2.64,1.07-5.28,1.22-7.98,.2-3.26,.78-6.55,.08-9.78Zm-5.49,5.98s.03-.08,.05-.12c.33-.55,.66-1.09,1-1.62,.1,1.06,.16,2.33,.25,3.67-.53-.25-1.13-.33-1.73-.26,.1-.63,.21-1.19,.43-1.67Z"/><path class="m" d="M206.4,224.38c-1.51-.84-3.18-1.27-4.89-1.48-1.38-.27-2.79-.39-4.17-.09-5.05,.89-6.22,6.66-6.39,11.01-.19,2.53,1.41,4.59,3.39,6.02,.26,.34,.54,.67,.82,.98,1.15,1.34,2.64,2.33,3.85,3.6,.15,.23,.27,.48,.38,.73,.08,.21,.18,.49,.24,.71,.02,.31,.02,.62,.02,.92,0,.04,0,.09,0,.13l-.06,.22c-.06,.16-.09,.27-.12,.34h0c-.21,.48-.37,.86-.51,1.16-.05,.05-.11,.11-.16,.16l-.09,.05c-.84,.53-1.7,1.04-2.59,1.48-.23,.08-.46,.15-.7,.2-.14,0-.28,0-.41,0-.07-.02-.16-.04-.29-.07-.5-.23-.87-.33-1.51-.88-.41-.18-1.18-1.86-1.31-2.26-.04-.08-.06-.14-.09-.22l-.06-.12c-.58-1.42-.23-2.88-.84-5.03-.45-.84-1.71-1.29-2.44-.55-1.54,1.74-1.83,4.42-.91,6.53-.26,1.08-.36,2.2-.22,3.28,.4,3.02,3.52,4.73,6.29,5.11,3.52,.77,5.11-1.05,7.51-3.07,.02-.01,.04-.02,.06-.03,3.14-1.55,4.29-5.13,4.58-8.4,.07-1.69,.17-3.56-.81-5.03-1.15-1.59-2.95-2.64-4.73-3.39-.5-.2-1.01-.36-1.52-.56-.1-.05-.21-.11-.35-.18-.03-.02-.05-.04-.08-.06-.09-.12-.19-.25-.31-.41-.04-.05-.07-.1-.11-.14-.05-.14-.09-.29-.12-.44v-.08c.2-.94,.44-1.88,.78-2.78,.02-.04,.04-.08,.07-.12,.06,0,.12,0,.19,0,.39-.03,1.38,0,1.79,0,.3,.08,.6,.19,.91,.27,.18,.06,.35,.11,.53,.16l.17,.09c.22,.16,.44,.32,.65,.48,.22,.2,.43,.42,.64,.63,.85,1.4,.44,.9,.99,1.95,.34,.55,.66,1.02,1.25,1.36,2.6,1.31,4.43-.2,5.24-2.72,1.26-4.15-1.27-7.23-4.54-9.45Zm-18.76,22.44c.02-1.29,.56-2.72,1.37-3.63-.06,.52-.11,1.04-.16,1.57-.51,.85-.92,1.78-1.19,2.75-.02-.23-.03-.46-.02-.69Zm1.13-1.22c-.08,1-.03,2.01,.25,2.98,.26,1.4,.75,2.78,1.74,3.84,.08,.09,.17,.17,.25,.26-.65-.28-1.17-.7-1.68-1.22-.92-1.53-.98-3.85-.57-5.86Z"/><path class="g" d="M252.6,229.91l6.34-27.82c4.5,8.02,8.4,16.38,11.64,24.99"/><path class="g" d="M274.74,202.64c-.28,5.68,.33,11.4,1.8,16.89,.33,1.23,.71,2.46,1.45,3.5s1.9,1.84,3.17,1.84c1.34,0,2.56-.87,3.28-1.99,.73-1.12,1.03-2.46,1.26-3.77,.95-5.63,.54-11.38,.13-17.07"/><path class="g" d="M297.43,201.28l1.16,24.53"/><path class="g" d="M291.18,201.81l15.14-.76"/><path class="g" d="M318.44,202.17c-3.35-.96-7.07,.88-9.01,3.77s-2.34,6.59-1.9,10.04c.3,2.28,1.01,4.65,2.73,6.19,2.63,2.37,7,1.98,9.74-.27,2.74-2.24,4-5.89,4.19-9.42,.12-2.37-.2-4.82-1.33-6.91-1.13-2.09-3.13-3.78-4.41-3.41Z"/><path class="g" d="M206.29,232.78c.02-3.01-2.26-5.89-5.2-6.55-2.94-.66-6.23,.96-7.5,3.7-1.27,2.73-.38,6.29,2.03,8.11,1.3,.98,2.92,1.46,4.24,2.42,2.72,1.99,3.61,6.11,1.95,9.04-1.66,2.94-5.65,4.29-8.76,2.98-3.11-1.31-4.92-5.12-3.97-8.36"/><path class="g" d="M205.05,259.15c3.32-7.33,6.63-14.65,10.36-21.98l.71,26.2"/><path class="g" d="M210.49,249.38l5.31,2.24"/><path class="g" d="M227.94,272.6c-.61-9.74-1.23-19.48-1.42-27.82,2.98-1.07,6.16-1.6,9.33-1.54,1.16,.02,2.46,.19,3.18,1.09,.61,.76,.63,1.88,.26,2.78-.37,.9-1.08,1.62-1.83,2.25-2.59,2.18-5.89,3.49-9.25,5.18,3.59-2.16,8.68-1.37,11.44,1.78,2.76,3.15,2.89,8.29,.28,11.57s-7.65,4.32-12,4.7Z"/><path class="g" d="M259.45,248.38c-1.28-1.85-4.02-2.22-6.07-1.29s-3.47,2.84-4.47,4.86c-2.79,5.64-2.72,12.61,.18,18.19,1.43,2.76,3.98,5.39,7.08,5.26,2.81-.12,5.03-2.47,6.36-4.95,3.84-7.16,1.26-15.78-3.09-22.06Z"/><path class="g" d="M274.03,246.71l.06,32.41"/><path class="g" d="M267.55,246.59l15.75-.08"/><path class="g" d="M290.71,245.96c-.33,8.38-.66,16.76-.89,24.36l15-1.32"/><path class="g" d="M291.32,257.92l10.45-1.36"/><path class="g" d="M291.01,246.37l12.42-1.68"/><path class="g" d="M309.86,270.82c1.07-9.09,2.14-18.18,4.66-26.18l8.89,26.82"/><path class="g" d="M311.77,261.7l8.63-1.06"/><path class="g" d="M256.65,217.21l9.25-2.06"/><path class="g" d="M329.33,265.16c-1.6-8.62-2.11-17.44-1.33-24.64,1.47-.69,2.98-1.39,4.6-1.57,1.62-.18,3.39,.26,4.43,1.52,.96,1.17,1.12,2.78,1.24,4.29l.86,10.96c.11,1.36,.21,2.78-.27,4.06-.63,1.71-2.22,2.93-3.94,3.56s-3.57,.74-5.6,1.83Z"/><path class="g" d="M352.73,234.46c-1.76-.88-3.99,.19-5.07,1.83s-1.3,3.69-1.47,5.65c-.17,1.94-.32,3.94,.25,5.81,.57,1.86,2.04,3.59,3.97,3.87,2.59,.39,4.89-1.9,5.82-4.36,1.71-4.54,.47-10.83-3.49-12.8Z"/><path class="g" d="M363.71,253.83c-.16-8.33-.32-16.66-.03-24.06,2.26-1.23,5.03-2.47,7.28-1.24,2.29,1.26,2.69,4.62,1.43,6.91-1.53,2.79-5.1,4.26-8.15,3.37"/><path class="g" d="M368.55,238.69c1.31,4,3.43,7.74,6.21,10.9"/><path class="i" d="M321.53,113.01c-4.32-.64-8.87,.43-12.44,2.94s-6.12,6.43-6.97,10.71c-.62,3.1-.3,6.53,1.58,9.07,1.78,2.4,4.75,3.72,7.72,4.06,2.97,.35,5.98-.17,8.89-.84,4.46-1.01,9-2.46,12.37-5.56,3.37-3.09,5.24-8.22,3.37-12.39-1.17-2.6-3.59-4.46-6.22-5.55s-5.36-2.01-8.31-2.45Z"/><path class="h" d="M320.49,122.67c-1.94-.16-3.94,.56-5.34,1.9-.76,.72-1.37,1.77-1.1,2.78,.2,.72,.82,1.27,1.52,1.53s1.47,.28,2.21,.24c1.27-.07,2.58-.32,3.64-1.03s1.82-1.97,1.65-3.24c-.16-1.27-1.45-2.36-2.59-2.19Z"/><path class="i" d="M259.1,128.21c-1.54-3.8-5.13-6.87-8.83-8.54s-7.91-1.94-11.93-1.41c-5.07,.67-10.46,3.07-12.32,7.83-1.58,4.05-.06,8.85,2.97,11.97,3.03,3.11,7.31,4.74,11.59,5.48,3.34,.58,6.83,.65,10.08-.32,3.25-.98,6.24-3.1,7.78-6.12s1.7-6.23,.67-8.88Z"/><path class="h" d="M245.75,129.31c-1.01-.92-2.37-1.43-3.73-1.4s-2.7,.61-3.66,1.57c-.79,.79-1.33,1.97-.96,3.03,.36,1.01,1.42,1.58,2.43,1.95,1.28,.46,2.66,.73,3.99,.48,1.33-.25,2.6-1.11,3.07-2.38,.47-1.27-.31-2.49-1.14-3.25Z"/><path class="i" d="M339.87,174.94c3.56-.54,4.26-5.05,1.34-5.76-2.63-.64-12.85-1.48-20.19-1.17-29.93,1.26-59.86,2.52-89.78,3.78-2.47,.1-5.08,.25-7.17,1.58-2.09,1.33-3.35,4.29-2,6.37,1.34,2.07,4.28,2.16,6.75,2.03,37.22-2,73.4-1.14,111.05-6.84Z"/><path class="i" d="M225.94,176.71c38.01-1.64,114.02-4.89,114.02-4.89"/></g></g></g><g id="e"><polygon class="j" points="623.39 574.21 201.54 574.21 201.54 441.54 623.39 441.54 590.76 508.51 623.39 574.21"/><text class="f" transform="translate(265.66 545.63)"><tspan x="0" y="0">AUTOSABOTEADOR</tspan></text><text class="k" transform="translate(287.62 495.16)"><tspan x="0" y="0">Monstruo</tspan></text></g></g></svg>