<?xml version="1.0" encoding="UTF-8"?><svg xmlns="http://www.w3.org/2000/svg" xmlns:xlink="http://www.w3.org/1999/xlink" viewBox="0 0 154.9 154.9"><defs><style>.e{fill:#fff;}.e,.f,.g,.h{stroke-miterlimit:10;}.e,.g,.h{stroke:#fff;stroke-width:.25px;}.i{clip-path:url(#d);}.j,.f,.h{fill:none;}.f{stroke:#efc5b9;}</style><clipPath id="d"><circle class="j" cx="77.45" cy="77.45" r="77.45"/></clipPath></defs><g id="a"/><g id="b"><g id="c"><g class="i"><circle class="f" cx="77.45" cy="77.45" r="77.45"/><g><path d="M130.83,42.97c-1.28-2.01-2.66-4.1-4.48-5.68-.72-.63-1.44-1.38-2.05-2.12-.54-.66-1.23-1.53-2.03-1.88,.09-.27,.45-.54,.68-.72,.5-.39,1.03-.78,1.6-1.05,.81-.39,1.61-.78,2.41-1.18,.3-.15,.63-.35,.97-.36-.03-.47-2.12,.04-2.35,.09-1.1,.26-2.14,.86-3.06,1.49-.3,.21-.59,.39-.86,.64-.13,.12-.3,.41-.47,.46-.29,.1-.85-.19-1.14-.29-.89-.32-1.81-.49-2.71-.78-1.32-.43-2.57-1.03-3.95-1.19s-2.68-.61-4.01,.22c1.54-1.17,3.33-2.36,5.21-2.9,.89-.25,1.85-.4,2.76-.56,.5-.09,1.03-.04,1.52-.14-.2-.24-.8-.29-1.09-.31-1.11-.08-2.19,.11-3.27,.33-1.49,.3-2.88,.77-4.19,1.56-.97,.58-2.08,1.07-2.79,1.99-.13,.17-.19,.41-.32,.56-.17,.21-.45,.19-.71,.26-1.14,.31-2.32,.82-3.34,1.42-.59,.35-1.08,.81-1.61,1.23-.79,.62-1.62,1.15-2.34,1.86-1.53,1.49-3.17,2.97-3.98,4.98-.13-.7,.09-1.52,.13-2.23,.06-1.09,.27-2.1,.74-3.1,.43-.92,1-1.73,1.48-2.62,.15-.28,.3-.58,.48-.84-.78,.51-1.38,1.14-1.86,1.94-.29,.48-.52,.99-.83,1.46-.37,.56-.76,1.07-1.01,1.7-.38,.93-.32,1.9-.5,2.88-.11,.62,0,1.16,0,1.79,0,.39,.07,.86,0,1.25-.09,.55-.85,.86-1.26,1.18-.81,.64-1.34,1.51-2.05,2.24-.26,.27-.63,.46-.85,.77-.11,.15-.12,.36-.31,.41-.28-.65,.03-1.4,.15-2.05,.22-1.16,.34-2.35,.72-3.47,.36-1.06,.81-2.12,1.31-3.12,.31-.62,.78-1.22,1.02-1.87-.5,.31-1.06,1.19-1.34,1.71-.57,1.08-1.02,2.22-1.61,3.3-.87,1.58-1.06,3.64-1.36,5.39-.04,.26,.03,.7-.1,.92-.17,.29-.77,.54-1.11,.62-.6,.14-1.41,.1-2.03,.1-.67,0-1.32,0-1.98-.08-.79-.1-1.55-.35-2.35-.45s-1.62-.34-2.38-.68c-1.15-.51-2.21-1.28-3.14-2.13-.75-.68-1.46-1.37-2.28-1.95-.69-.48-1.53-.81-2.17-1.35,.45-.75,1.58-1.14,2.3-1.6,.94-.61,1.78-1.27,2.79-1.76,.85-.41,1.76-.94,2.67-1.21,.3-.09,.62-.16,.84-.4-2.36-.49-4.73,1.16-6.76,2.1-.71,.33-1.28,.6-1.78,1.18-.21,.24-.72,.93-1.08,.93-.44-.75-1.05-1.27-1.86-1.52-.42-.13-.82-.35-1.27-.45-.52-.11-.73-.06-.79-.57-.03-.28,.03-.57,0-.85-.03-.35-.14-.67-.2-1.01-.19-1.03-.01-2.07-.16-3.1-.1-.7-.55-1.27-.82-1.92-.08-.2-.15-.45-.28-.62,.02,.28,.16,.53,.19,.81,.02,.21,0,.44,0,.65,0,.72,0,1.45,0,2.17,0,.59-.03,1.12-.21,1.69-.12,.4-.17,1.11-.47,1.41-.55-.23-.99-.8-1.52-1.11s-1.13-.47-1.66-.77c-.47-.27-.9-.62-1.35-.92s-.98-.66-1.49-.89c-.59-.26-1.25-.39-1.85-.63-1.03-.4-2.18-.42-3.17-.92-.52-.26-1.1-.42-1.56-.78-.59-.45-.86-1.24-1.21-1.87-.23-.41-.36-.83-.5-1.28-.2-.62-.25-1.29-.47-1.9-.17-.48-.45-.86-.49-1.38-.19,.29-.26,.85-.31,1.19-.08,.57-.03,1.21-.02,1.78,.02,1.03,.47,1.82,.75,2.78,.1,.35,.22,.49-.13,.6-.46,.14-1.19-.1-1.64-.2-.58-.13-1.12-.37-1.61-.64-1.39-.75-1.96-2.36-3.51-2.93-.88-.33-1.7-.3-2.62-.39-.35-.04-1.79-.61-2.04-.18,.6,.36,1.53,.29,2.19,.51,.36,.12,.62,.37,.97,.5,.32,.11,.57,.18,.87,.35,.39,.22,2.43,2.07,1.32,2.2-.3,.03-.8-.09-1.1-.12-.46-.06-.9-.05-1.36,0-1.13,.11-2.24,.23-3.35-.08-.96-.27-1.91-.33-2.87-.52-.42-.08-.81-.25-1.24-.29-.25-.02-.69,.07-.88-.06,.49,.34,.88,.64,1.44,.9,.46,.22,.94,.43,1.44,.53,.69,.14,1.49,.08,2.1,.5-.5,.36-1.17,.53-1.72,.79-.88,.42-1.76,.84-2.58,1.37-1.73,1.13-3.53,2.19-5.13,3.51-.91,.75-1.74,1.58-2.65,2.33s-1.72,1.44-2.47,2.33c-.39,.46-.61,1.01-.99,1.47-.51,.62-1.03,1.25-1.48,1.93-1.05,1.58-1.89,3.36-2.66,5.09-.3,.68-.59,1.42-.74,2.15-.1,.49-.23,.98-.26,1.48-.01,.27,.04,.56-.01,.82-.12-.15-.06-.38-.06-.56,0-.43-.08-.85-.13-1.27-.11-1.01-.13-2.03-.23-3.04s-.02-1.97,.13-2.99c.07-.46,.12-.9,.28-1.34,.06-.16,.16-.23,.13-.41,.04,.5-.37,1.11-.51,1.57-.19,.59-.34,1.16-.4,1.78-.13,1.31-.1,2.6-.1,3.92,0,.93,.09,1.8,.17,2.71,.03,.31,.06,.62,.08,.93s-.12,.55-.16,.84c-.33,2.15-.95,4.26-.94,6.45,0,1.26-.06,2.54,0,3.8,.03,.65,.17,1.27,.23,1.9,.02,.18,.15,.64,.09,.81-.48-.08-.89-.39-1.32-.6-.59-.3-1.16-.6-1.68-1.02-.98-.78-1.44-1.9-1.89-3.01-.41,2.18,1.56,3.96,3.1,5.13,.46,.35,.94,.63,1.44,.87,.38,.18,.51,.3,.52,.76,.01,.51,0,1.02,0,1.52,0,.76,.14,1.51,.17,2.28s.28,1.37,.49,2.06,.38,1.46,.52,2.19c.12,.61,.35,1.12,.61,1.69,.27,.61,.46,1.21,.8,1.78,.28,.47,.58,.89,.83,1.37,.14,.27,.24,.56,.37,.83-.34,.2-.78,.22-1.15,.37-.87,.35-1.74,.92-2.17,1.77-.24,.49-.37,1.03-.6,1.53-.18,.37-.35,.76-.42,1.17s-.2,.93-.11,1.33c.17-.38,.25-.78,.46-1.16,.29-.53,.67-.97,.96-1.49,.36-.65,.78-1.1,1.26-1.65,.35-.4,.65-.5,1.14-.65,.24-.07,.59-.26,.83-.26,.14,0,.11-.09,.25-.02,.17,.08,.24,.67,.3,.83,.54,1.54,1.25,3.06,2.26,4.36s2.32,2.35,3.51,3.5,2.72,2,4.17,2.93c.62,.4,1.29,.68,1.99,.91,.82,.26,1.59,.65,2.4,.95,.76,.29,1.5,.5,2.28,.74,.49,.15,1.12,.21,1.58,.45-.43,1.17-2.45,1.38-3.4,1.83-.81,.38-1.45,.71-2.38,.71-.3,0-.63-.05-.92,0,.49,.39,1.86,.29,2.47,.19s1.13-.3,1.68-.46c.68-.2,1.38-.18,2.07-.33,.73-.16,1.51-.29,2.13-.64,.21-.12,.47-.25,.71-.32,.69-.21,1.55,.2,2.24,.35,1.31,.28,2.53,1.02,3.83,1.41,2.66,.8,5.81,1.44,8.37-.04,1.45-.84,2.98-1.55,4.61-2,1-.28,2.04-.43,3.06-.61,.52-.09,1.16-.3,1.7-.28,.4,.02,.43,.23,.36,.59-.08,.43-.42,.81-.58,1.21-.14,.34-.22,.7-.28,1.06-.18,1.09-.38,2.15-.17,3.25,.06,.32,.1,.53,.32,.77,.13,.14,.28,.21,.37,.39-.01-1.02-.26-2.1,0-3.1,.33-1.25,.98-2.22,1.72-3.26,.61-.85,1.36-1.99,2.5-2.01,.5,0,1-.11,1.5-.08,.47,.02,.92,.08,1.39,.08,1.33,0,2.64,.02,3.97,0,.55,0,1.08-.07,1.62-.13,.46-.05,.91-.02,1.37-.14,.51-.14,1-.21,1.52-.31,.72-.14,1.34-.46,2.07-.56,1.04-.13,2.1-.29,3.15-.3,1.24-.01,2.55,0,3.78-.21,1.98-.33,3.94-.07,5.95-.05,.81,0,1.56,.29,2.36,.35,.58,.04,1.23,.19,1.81,.33,.89,.22,1.79,.5,2.61,.91,.72,.36,1.34,.95,1.82,1.6,.45,.61,.45,1.19,.45,1.93,0,.85,.12,1.79-.04,2.62-.15,.75-.66,1.37-.85,2.08,1.11-.82,1.44-2.65,1.74-3.9,.17-.7,.33-1.35,.35-2.08,0-.49,.03-1.01-.07-1.49-.01-.07-.18-.46-.1-.54,.27-.3,1.39,.34,1.65,.42,.69,.22,1.56,.24,2.3,.29,1.6,.12,3.19-.24,4.79-.13,1.82,.12,3.65-.16,5.37-.79,1.11-.4,2.11-1.07,3.21-1.51,1.39-.56,2.48-1.34,3.75-2.1,1.02-.61,1.67-1.46,2.55-2.23,.33-.29,.7-.53,1.01-.84,.49-.48,.88-1.05,1.32-1.56,.74-.85,1.69-1.46,2.35-2.38,.6-.84,1.48-1.45,2.13-2.25,.89-1.09,1.36-2.3,1.93-3.55,.34-.74,.9-1.33,1.2-2.08,.13-.31,.16-.63,.27-.94,.19-.53,.48-.87,.49-1.47,.01-1.04,.39-2.06,.5-3.09,.14-1.25,.18-2.53,.27-3.79,.21-2.76,.2-5.7-.19-8.44-.36-2.49-.82-5.08-1.76-7.42-.61-1.52-.92-3.14-1.53-4.66-.47-1.17-.84-2.41-1.38-3.55-.59-1.26-1.4-2.4-2.16-3.58-.25-.39-.5-.74-.72-1.14-.11-.2-.27-.46-.43-.61-.07-.12-.18-.22-.25-.34,0,.03-.04,.09-.42-.51Z"/><path class="h" d="M32.85,59.04c.03,.88,.15,1.83,.03,2.72-.09,.71-.23,1.42-.3,2.13-.12,1.2-.4,2.39-.68,3.56-.37,1.56-.41,3.38,.06,4.93,.35,1.16,1.27,2.39,2.45,2.83,.54,.2,1.43,.43,1.94,.12,.99-.6,1.14-2.4,1.27-3.4,.25-1.82,.15-3.68,.15-5.52,0-.62,0-1.24,0-1.86,0-.28-.04-.66,.13-.89"/><path class="h" d="M67.92,66.04c.34-1.26,.72-2.48,1.51-3.53,.4-.53,.69-1.12,1.17-1.59,.82-.8,1.7-1.65,2.76-2.13,.44-.2,.94-.25,1.41-.33,.42-.07,.89-.09,1.28,.11,.79,.41,1.09,1.31,1.19,2.15,.14,1.11-.1,2.09-.48,3.12-.32,.86-.84,1.66-1.3,2.45s-.89,1.58-1.44,2.33c-.76,1.02-1.41,2.14-2.04,3.24-.34,.59-.63,1.2-.91,1.83-.29,.67-.63,1.34-.89,2.03-.43,1.15-.81,2.29-1.06,3.5-.13,.63-.4,1.32-.32,1.97,.17,.04,.36-.03,.53-.06,.48-.07,.94-.15,1.41-.25,.56-.12,1.13-.25,1.69-.35,.79-.14,1.56-.18,2.34-.4,.6-.17,1.19-.32,1.81-.41,.56-.08,1.14-.05,1.68-.21,.28-.08,.67-.21,.95-.1v.08"/><path class="h" d="M87.04,54.73c-.69,2.78-1.84,5.44-2.32,8.27-.09,.54-.14,1.08-.26,1.61-.09,.4-.23,.78-.33,1.17-.06,.24-.18,.49-.22,.73-.02,.1,.02,.2-.04,.28,.36,.36,1.25,.22,1.69,.22,.53,0,1.05-.02,1.58-.06,.62-.05,1.23,0,1.85-.08,.94-.12,1.9-.13,2.84-.22,.32-.03,.72-.13,1.03-.1,.07-.08,.15-.18,.18-.28"/><path class="h" d="M97.61,52.79c-.37,.95-.69,1.87-.97,2.85-.16,.57-.29,1.13-.42,1.71-.13,.63-.43,1.18-.64,1.78s-.37,1.18-.55,1.76c-.38,1.2-.48,2.49-.81,3.71-.23,.83-.39,1.67-.61,2.5s-.45,1.58-.63,2.39c-.54,2.47-.99,4.96-1.55,7.43-.27,1.16-.49,2.32-.71,3.49-.07,.37-.09,.75-.16,1.12-.02,.11-.07,.23-.06,.35"/><path class="h" d="M48.09,53.92c-1.16,1-2.3,1.86-2.97,3.24-.25,.52-.44,1.24-.49,1.81s-.14,1.23-.06,1.82c.09,.68,.33,1.39,.58,2.03,.4,.98,1.25,1.76,2.01,2.47s1.69,1.08,2.69,1.18c1.15,.12,2.26-.02,3.29-.6,.3-.17,.57-.4,.88-.56,.34-.17,.67-.28,.96-.53,.54-.48,1.03-.99,1.47-1.58,.57-.75,.96-1.85,1.16-2.75,.09-.41,.04-.86,.08-1.28,.05-.51,.07-.98,0-1.49-.05-.39-.05-.79-.24-1.13-.2-.37-.46-.78-.73-1.11-.44-.55-.93-1.17-1.55-1.53-1.3-.75-3.18-1.13-4.66-.87-.63,.11-1.43,.2-1.97,.57-.18,.12-.7,.56-.45,.3Z"/><path class="e" d="M44.86,59.37c.27-.03,.49-.08,.74-.17,.11-.04,.23-.07,.34-.11,.33-.1,.64-.24,.97-.31,.17-.04,.32-.11,.49-.12,.19-.01,.39,0,.58,0h.86c.21,0,.43-.02,.64,.02,.42,.07,.84,.12,1.26,.18,.55,.08,1.1,.23,1.66,.33,.2,.04,.41,.05,.61,.1,.14,.03,.27,.08,.41,.1,.29,.06,.58,.15,.87,.24,.46,.14,.88,.35,1.31,.57,.31,.16,.69,.33,.89,.63,.14,.22,.19,.46,.21,.72,.01,.18,.02,.38-.02,.55-.06,.28-.24,.55-.39,.79-.29,.47-.61,.94-1.03,1.3-.2,.17-.38,.37-.58,.55s-.41,.3-.63,.44c-.52,.32-1.12,.51-1.69,.7-.32,.1-.65,.17-.98,.2-.15,.02-.29,.06-.44,.08-.18,.02-.36,.02-.54,.02-.28,0-.54,0-.81-.09-.25-.07-.5-.17-.75-.27-.48-.2-.94-.42-1.36-.75-.31-.24-.62-.49-.91-.76-.14-.14-.24-.32-.36-.48-.25-.31-.45-.64-.64-.99-.17-.31-.37-.62-.5-.95-.11-.3-.14-.62-.17-.93-.02-.28-.05-.55-.05-.82,0-.23-.02-.48,0-.71,.02,0,.03,0,0-.06Z"/><path class="e" d="M27.41,59.09c-.21-.29-.39-.57-.67-.79-.17-.13-.32-.28-.49-.4s-.34-.27-.52-.36c-.21-.09-.41-.19-.61-.3-.17-.1-.32-.17-.51-.23-.24-.08-.48-.12-.72-.18-.52-.11-1.03-.19-1.56-.19-.24,0-.48,0-.71,.03s-.46,.11-.69,.15c-.5,.08-.98,.24-1.45,.4-.37,.12-.72,.3-1.07,.47-.27,.13-.57,.29-.78,.51s-.29,.49-.31,.77c-.01,.17,0,.34,.02,.51,.03,.27,.07,.55,.13,.81,.07,.31,.21,.6,.32,.91s.28,.61,.43,.9c.11,.23,.28,.41,.44,.61,.09,.12,.18,.24,.31,.33,.12,.08,.24,.16,.36,.24s.22,.18,.35,.25c.08,.04,.17,.08,.25,.12,.22,.11,.41,.27,.62,.39,.41,.24,.83,.42,1.3,.42,.44,0,.87-.01,1.3-.12,.16-.04,.31-.11,.46-.17,.17-.08,.36-.12,.52-.23,.11-.08,.21-.17,.31-.25,.24-.18,.49-.33,.71-.55,.29-.28,.59-.56,.87-.85,.08-.08,.16-.16,.24-.24,.15-.15,.24-.33,.36-.51,.06-.09,.14-.17,.2-.26,.1-.13,.16-.27,.22-.43,.08-.21,.22-.39,.26-.6,.04-.16,.09-.31,.08-.48,0-.1-.01-.21-.02-.31,0-.14-.04-.28,.06-.37Z"/><path class="h" d="M20.68,51.25c-.16,.05-.87,.39-1.02,.46-.29,.14-.55,.32-.79,.53-.47,.43-.77,1.02-1.05,1.57-.61,1.18-.89,2.3-.89,3.63,0,1.16,.16,2.36,.58,3.46,.35,.92,.92,1.94,1.63,2.63,.78,.75,1.8,1.14,2.88,1.2,.59,.03,1.16,.03,1.71-.21,.73-.31,1.43-.75,1.94-1.37,.85-1.05,1.65-2.21,1.95-3.54,.37-1.67,.16-3.44-.88-4.84-.5-.66-.94-1.4-1.56-1.96-.53-.48-1.17-.78-1.78-1.16-.74-.46-1.63-.55-1.75-.54,.04,0-.6,.02-.96,.12Z"/><path class="e" d="M47.77,79.71c-.9,.33-1.68,.61-2.58,.82-.16,.04-.32,.08-.48,.16-.45,.24-.35,1.08-.35,1.53,0,.72,0,1.42,.13,2.11,.04,.18,0,.55,.25,.62,.19,.06,.35-.21,.45-.32,.3-.31,.63-.61,.89-.95,.61-.79,1.16-1.54,1.57-2.45,.15-.33,.31-.58,.31-.95,0-.22-.08-.71-.19-.57Z"/><path class="e" d="M43.22,81.48c-.06,1.24-.18,2.6-.06,3.85,.02,.19,.12,.35,.03,.53-.12,.25-.59,.41-.84,.5-.38,.14-.75,.21-1.13,.38-.43,.2-.86,.25-1.31,.36s-.78-.09-1.04-.48c-.36-.55-.33-1.4-.4-2.07-.05-.51-.07-1-.14-1.5-.01-.1-.12-.55-.08-.63,.07-.11,.33-.07,.42-.08,.2-.03,.39-.13,.59-.17,.63-.11,1.25-.03,1.87-.09,.35-.03,.75-.05,1.09-.12,.3-.07,.55-.2,1-.49Z"/><path class="e" d="M37.09,82.3c.09,1.16,.16,2.32,.25,3.48,.02,.21,.04,.48,0,.68-.19,0-.4-.11-.57-.17-.24-.08-.42-.09-.66-.15-.49-.11-.96-.44-1.43-.63-.36-.15-1.01-.19-1.3-.45-.17-.16-.29-.5-.32-.72-.04-.3,.03-.61-.01-.91-.02-.16-.11-.28-.05-.43,1.09-.19,2.33,.06,3.4-.26,.25-.07,.38-.31,.58-.07,.13,.16,.03,.56,.11-.38Z"/><path class="e" d="M31.91,82.87c-.03,.45-.08,.9-.14,1.34-.23-.31-3.25-1.02-2.95-1.56,.2-.35,1.64,0,1.96,.04,.23,.03,.46,.02,.69,.05,.14,.01,.3,.09,.44,.13Z"/><path class="e" d="M112.83,78.27c-.13-.06-.28-.03-.41,.05-1.23,.74-2.45,1.49-3.9,1.75-.37,.07-.76,.06-1.13,.13-.7,.13-1.37,.34-2.07,.47-.44,.08-.88,.15-1.32,.19-.17,.02-.61,0-.73,.13-.17,.16-.06,.65-.03,.83,.1,.6,.31,1.16,.5,1.73,.49,1.46,1.26,2.63,2.12,3.9,.43,.64,.91,1.02,1.47,1.53s1.08,.96,1.68,1.36c.74,.49,1.55,.76,2.4,.98,.67,.17,1.29,.38,1.99,.42,.56,.03,1.57,.26,1.68-.48,.1-.7-.13-1.39-.27-2.06-.09-.43-.13-.88-.2-1.32-.09-.58-.25-1.14-.34-1.72-.17-1.06-.31-2.12-.52-3.18-.11-.54-.23-1.05-.29-1.6-.04-.42-.21-.79-.27-1.2-.08-.49-.2-.97-.25-1.46-.01-.12-.01-.17-.05-.38,0,.02,0-.06-.04-.08Z"/><path class="e" d="M114.5,77.93c0,.08,.77,4.11,1.16,6.39,.19,1.12,.35,2.26,.55,3.38,.17,.95,.41,1.88,.59,2.83,.07,.35,.15,.8,.28,1.14,.31-.13,.59-.38,.88-.55,.42-.24,.87-.39,1.29-.64,.5-.31,.94-.63,1.48-.86,.45-.19,.8-.39,1.2-.68,.49-.35,.96-.73,1.35-1.2,.3-.36,.62-.63,.78-1.08,.13-.37,.11-.8,.08-1.18-.18-1.88-.6-3.73-.82-5.61-.23-1.99-.59-4.02-1.11-5.94-.36,0-.8,.37-1.11,.52-.34,.16-.64,.34-.96,.55-.95,.62-2.04,1.05-3.11,1.44-.74,.27-1.8,.71-2.54,.98-.03,.01,.03,.53,.03,.52-.02-.06,.02,.02,0,0Z"/><path class="e" d="M123.32,73.27v.03c.25,1.27,.54,2.58,.76,3.86,.07,.43,.08,.87,.16,1.3,.15,.83,.37,1.65,.57,2.47,.12,.51,.18,1.04,.23,1.57,.04,.38,.22,.74,.25,1.11h0c.59-.44,.75-1.19,.99-1.85,.4-1.12,.79-2.31,1.01-3.48s.28-2.34,.27-3.54c0-.48-.15-.82-.28-1.27-.1-.36-.14-.73-.26-1.08-.12-.33-.22-.7-.42-.97-.22-.31-.28-.18-.49,.08-.44,.54-1.07,.85-1.63,1.25-.37,.26-1.09,.46-1.13,.48-.02,.03-.02,.02-.02,.06Z"/><path class="h" d="M118.73,63.71c1.18-.12,2.24-.27,3.37,.1,.43,.14,.93,.29,1.32,.51,.51,.29,1.08,.48,1.58,.78s.94,.8,1.39,1.21c.83,.75,1.43,1.71,2.21,2.48,.61,.6,1.02,1.38,1.81,1.79,.71,.37,1.48,.36,2.16-.13,.38-.27,.71-.73,.96-1.11,.2-.3,.24-.61,.32-.95,.1-.44,.26-.86,.29-1.31,.12-2.02,.06-4.12-.65-6.03-.29-.79-.79-1.44-1.14-2.2-.32-.68-.83-1.61-1.49-2.03-.56-.36-1.23-.64-1.85-.88-.55-.22-1.02-.24-1.6-.3-.75-.08-1.46-.38-2.21-.39"/><path class="e" d="M103.58,64.72c.92-.66,1.7-1.18,2.44-1.97,.23-.24,.48-.47,.71-.71,.66-.66,1.34-1.26,1.86-2.05,.62-.93,1.25-1.92,2.03-2.71,.67-.68,1.11-1.44,2.03-1.8,.57-.22,1.21-.43,1.84-.37,.38,.03,.79,.33,1.11,.52s.55,.42,.73,.76c.41,.75,.34,1.85-.07,2.59-.33,.61-.69,1.03-1.21,1.48-.27,.24-.46,.54-.73,.78s-.68,.48-1.01,.64c-.67,.33-1.41,.54-2.07,.9-.73,.4-1.38,.59-2.19,.75-.75,.15-1.47,.46-2.22,.61-.46,.09-.93,.06-1.38,.12-.26,.04-1.76,.3-1.88,.45Z"/><path class="e" d="M123.81,51.3c.69-.93,1.3-1.93,2.03-2.83,.42-.53,.71-1.15,1.07-1.72,.42-.64,.85-1.31,1.45-1.81,.25-.21,.6-.47,.91-.59,.27-.1,.58-.06,.87-.06,.72,0,1.13,.59,1.3,1.23,.16,.58,.29,1.28,.11,1.86-.28,.93-1.25,1.62-2.05,2.1-1.01,.6-2.16,.68-3.22,1.14-.83,.37-1.61,.6-2.5,.81-.05,0-.07-.02,.01-.14Z"/><path class="g" d="M21.72,60.24c-.18,.18-.74,.6-.68,.97,.02,.13,.06,.27,.11,.39,.13,.31,.4,.39,.71,.41s.58-.19,.73-.45c.12-.21,.24-.52,.08-.74-.15-.2-.39-.47-.65-.51-.13-.02-.41-.02-.31-.08Z"/><path d="M50.12,62.6l-.4,.23-.15,.13s-.01,.09-.02,.12c-.03,.12-.05,.25-.03,.38s.11,.23,.17,.34c.05,.08,.09,.14,.18,.18,.42,.16,1.03-.2,1.1-.65,.04-.27-.2-.61-.47-.67-.11-.02-.23-.01-.34-.01-.05,0-.12-.01-.05-.04Z"/><path class="g" d="M114.16,55.99c-.47,.22-.87,.52-1.21,.9,0,.14,0,.27-.01,.41-.01,.23-.03,.44,.03,.67,.13,.43,.59,.95,.99,1.17,.79,.43,1.78-.22,2.06-1,.3-.84-.11-1.82-.88-2.24-.32-.17-.67-.19-1.03-.16-.32,.03-.8,.37,.06,.26Z"/><path class="g" d="M129.36,45.11c-.37,.26-.67,.58-.88,.96,0,.15,0,.3,0,.45,0,.18-.05,.39,.02,.56,.11,.3,.63,.71,.93,.77,.71,.13,1.33-1.01,1.37-1.59s-.28-.94-.83-1.03c-.29-.05-.8-.25-.62-.12Z"/><path d="M40.3,190.57c-.6-7.91-2.02-15.76-2.61-23.71-.38-5.16-.3-10.43,.18-15.58,.16-1.69,.6-3.27,.59-4.98,0-1.11,.09-2.08,.21-3.17,.26-2.29-.14-4.76,.24-7.03,1.06,.81,1.11,2.9,2.38,3.84,.64,.48,2.21,1.26,3.08,1.03-.34-.66-1.41-.96-1.94-1.49-.66-.66-1.12-1.53-1.52-2.36-.6-1.22-.81-2.12-.81-3.46,0-2.63-.37-6.13-3.43-6.9s-5,3.66-5.54,5.83c-.88,3.5-1.16,7.09-1.74,10.66-.81,5.02-.89,10.42-.92,15.5-.03,4.37-.29,8.99,.62,13.29,.42,1.99,.48,4.22,.59,6.25-.71,.21-1.59,0-2.34,.07-1.28,.11-2.69,.51-3.96,.72-1.47,.25-2.71,.78-4.09,1.31-1.15,.44-2.64,.9-3.64,1.62-3.12,2.24-5.06,8.78-1.26,11.34,2.22,1.5,5.68,.91,8.21,.92,2.62,0,5.31-.52,7.88-1.02,3.15-.62,6.41-1.02,9.84-2.65Z"/><path d="M47.23,113.86c-1.82,2.96-3.46,4.96-3.07,8.39,.18,1.62,1.39,3.04,1.83,4.59-2.07-.81-3.37-3.16-3.7-5.18-.68,1.24-.61,3.28-.73,4.65-.13,1.56-.34,3.03-.81,4.54-.61,1.98-1.01,4.67-3.68,4.43-5.57-.49-4.73-7.19-3.5-10.89,.4-1.19,1.11-2.27,1.57-3.44,.62-1.56,1.16-3.13,1.88-4.65,2.03-4.31,4.54-8.29,6.88-12.42,1.94-3.44,3.4-6.86,6.75-9.16,.94-.64,2.49-1.72,3.69-1.48,1.36,.27,1.87,1.7,2.13,2.86,.72,3.19-1.07,6.17-3.07,8.52-1,1.17-1.82,2.49-2.76,3.69-.38,.49-.82,.94-1.17,1.47-.3,.46-.56,1.32-2.24,4.07Z"/><path d="M151.69,194.45c-.83-2.32-1.52-4.6-2.92-6.61-.48-.69-.88-1.43-1.36-2.12-.8-1.16-1.84-2.27-2.83-3.22-1.58-1.52-3.28-3-4.94-4.48-3.3-2.95-3.62-7.54-3.66-11.68-.05-4.46,.34-9.06-.15-13.47-.16-1.47-.33-2.92-.46-4.4-.14-1.61,.13-3.24-.04-4.85-.25-2.36-.31-4.84-.36-7.22-.01-.62-.16-1.15-.22-1.76-.07-.76,.13-1.56,.01-2.31-.13-.85-.55-1.58-.39-2.48,1.2,.71,2.24,1.59,3.46,2.29,.65,.37,2.04,1.14,2.84,.89-.3-.54-1.84-1.31-2.43-1.69-.77-.49-1.7-.74-2.36-1.41-1.09-1.09-1.29-2.35-1.57-3.77-.3-1.51-1.37-2.7-3.02-2.91-1.38-.17-2.67-.41-3.87,.42-2.02,1.4-1.18,5.02-1.23,7.14-.06,2.75-1.51,5.84-4.02,7.15,1.62,.07,4.89-2.27,4.88-4.03,.32,.42,.29,1.7,.35,2.28,.07,.64-.03,1.29,0,1.93,.05,.99,.41,1.91,.44,2.91,.05,1.9,0,3.8-.02,5.7-.01,2.45,.28,4.85,.1,7.31-.33,4.78,.1,9.55,.1,14.32,0,4.46,0,8.91,0,13.37,0,3.36,.13,6.7,.2,10.05,.03,1.27,.57,2.64,1.16,3.73,.75,1.36,1.9,1.59,3.33,1.59,2.16,0,4.4,.17,6.53-.1,2.43-.31,5.11-.18,7.57-.1,1.33,.04,2.67,.37,4.02,.17,.17-.71,.24-1.26,.85-2.62Z"/><path d="M129.04,101.83c.83,1.68,1.71,3.83,2.69,5.54,.26,.45,.62,.86,.81,1.36,.34,.91,.43,1.99,.64,2.95,.46,2.1,.78,4.3,.76,6.44-.01,2.06,0,4.11,0,6.17,0,1.61,.4,4-.41,5.49-.73,1.35-2.21,2.88-3.86,2.26-1.84-.68-2.98-3.09-3.37-4.89-.32-1.48-.54-3.03-.71-4.5-.16-1.36-.46-2.83-.42-4.2-.43,2.33-2.49,4.72-5.07,4.58,2.21-1.73,5.59-4.2,4.56-7.52-.28-.9-.71-1.99-1.12-2.86-.81-1.73-1.44-3.33-2.84-4.68-1.95-1.87-4.17-3.71-6.44-5.16-1-.64-2.01-1.14-2.95-1.84-.56-.42-1.29-.77-1.63-1.38-.3-.55-.39-1.36-.44-1.96-.1-1.28,.27-2.23,1.17-3.16,1.32-1.37,2.69-1.73,4.41-2.29,2.28-.74,4.75-.78,6.78,.56,3.39,2.24,4.66,5.96,6.8,9.26,1.56,2.4,3.14,4.9,4.05,7.62,.96,2.88,1.27,5.68,1.27,8.72"/></g></g></g></g></svg>