<?xml version="1.0" encoding="UTF-8"?><svg xmlns="http://www.w3.org/2000/svg" viewBox="0 0 623.86 587.11"><defs><style>.f,.g,.h,.i{fill:#fff;}.j{font-family:Avenir-Medium, Avenir;font-size:28px;}.k,.l,.m,.h,.i,.n{stroke-miterlimit:10;}.k,.h{stroke:#000;}.g{opacity:.94;}.l{opacity:.81;}.l,.m,.i,.n{stroke:#fff;}.o{fill:#f6c67b;}.p{font-family:Moonlights-on-the-Beach, Moonlights on the Beach;font-size:88px;}.q{fill:#eb566a;}.n{opacity:.87;}</style></defs><g id="a"/><g id="b"><g id="c"><circle class="q" cx="292.63" cy="300.58" r="283.24"/></g><g id="d"><g><circle class="q" cx="290.62" cy="290.62" r="290.62"/><path d="M229.55,99.56c-11.01-2.84-16.14-15.1-20.49-25.61-4.34-10.51-11.84-22.29-23.2-22.01-7.19,.18-13.42,5.6-16.62,12.04-3.2,6.44-3.92,13.79-4.46,20.97-8.24,108.83,12.42,217.54,32.99,324.72,.43,2.25,5.57,5.2,6.99,7,3.91,4.95,15.14,5.34,13.17-20.96l-18.62-248.32c-.51-6.8,.28-15.61,6.81-17.55,8.91-2.64,13.68,10.4,21.56,15.34,7.77,4.87,19.07,.28,23.02-8,3.95-8.28,1.56-18.56-4.02-25.84-5.58-7.28-13.84-12.02-17.12-11.77Z"/><path d="M218.94,401.41c.41-4.13,.63-8.95-5.64-11.08-5.98-2.03-14.18,.07-17.87,3.42-3.69,3.35-4.07,7.5-4.35,11.44-3.56,50.65-7.12,103.93-10.69,154.57,7.19,3.33,19.16,8.64,28.79,9.87,1.67-2.87,1.51-7.65,1.33-10.67-2.94-51.19,8.2-146.97,7.43-143.73"/><path class="h" d="M285.64,549.59c-14.4-3.51-31.21-1.17-41.22,9.75-5.39,5.88-6.74,9-9.53,16.47"/><path class="h" d="M249.74,568.32c-2.17,4.53-5.61,8.45-9.82,11.18"/><path class="i" d="M387.04,543.14c1.22-4.89,2-11.08-2.08-14.04-4.67-3.39-10.23,5.21-14.94,8.55-15.85,11.25-38.31,18.61-57.75,18.68-19.44,.08-40.22-4.94-58.74-10.84-5.14-1.64-7.97-9.66-11.73-5.79-3.07,3.14-3.64,9.32-.36,12.25,11.18,10,3.14,16.32-6.52,24.51,13.36,4.9,158.92,8.84,158.68,4.85-4.29-9.35-10.47-14.24-1.84-31.44,0,0-1.85-9.1-4.72-6.74Z"/><path class="h" d="M347.24,165.88c-11.1-36.93-15.64-75.82-13.33-114.31l-24.94,15.12c-16,9.7-32.44,19.58-50.81,23.14-18.37,3.56-39.38-.42-51.47-14.71,16.57,30.68-1.59,68.11-.34,102.95,1.68,47.07,38.31,84.95,53.75,129.45,12.85,37.03,16.7,76.69-1.18,111.24-2.28,4.4-3.82,9.03-6.96,13.38-.9,1.25-14.64,15.33-14.64,15.33,0,0,8.64-4.23,10.48-4.23,1.42,0-5.59,9.36-5.59,9.36,0,0,8.92-4.53,8.7-3.75-8.67,32.02-27.19,63.39-8.4,86.47,27.16,16.97,60.93,22.39,92.42,16.58,16.18-2.99,32.54-9.31,43.15-21.89,10.61-12.58,13.62-32.52,3.46-45.47,2.3,.18,4.6,.36,6.9,.54-5.45-54.38-3.28-109.23-6.56-163.78-3.28-54.55-32.69-148.74-34.62-155.44Z"/><path d="M332.5,105.8c4.25,4.72,9.36,8.62,13.72,13.24,4.36,4.63,8.07,10.29,8.55,16.63l-10.51-14.14c3.14,6.93,5.1,14.38,5.77,21.96-1.68-4.74-4.15-9.2-7.29-13.14,2.5,4.56,4.17,9.57,4.91,14.71-5.73-4.34-8.52-11.52-10.04-18.55-1.51-7.02-2.03-14.3-5.12-20.71Z"/><path class="m" d="M326.71,58.07c1.62-2.81,3.34-5.73,6.06-7.5,2.72-1.77,6.75-1.98,8.93,.42,1.75,1.93,1.8,4.89,1.07,7.39-.08-.99-1.36-1.5-2.29-1.17s-1.56,1.2-2.09,2.04c-7.08,11.17-8.25,25.87-3.03,38.02,2.21,5.15,5.46,9.82,7.39,15.07,1.93,5.26,2.33,11.57-.97,16.09,.5-11.34-7.02-21.25-10.81-31.95-4.35-12.29-3.74-25.71-4.26-38.43Z"/><path d="M336.25,143.84c-1.01,2.72,.1,5.73,1.3,8.38,1.2,2.64,2.53,5.49,1.93,8.33,.23-3.28,.44-6.68-.68-9.77-.91-2.52-2.69-4.85-2.56-6.94Z"/><path d="M337.28,140.13c-1.99-4.65-6.97-7.84-12.03-7.69s-9.85,3.62-11.56,8.37c2.85-1.82,5.76-3.65,8.99-4.63,3.24-.98,6.92-1,9.84,.7,1.56,.91,3.09,2.33,4.76,3.24Z"/><path d="M337.63,138.28c-2.26-1.93-4-4.39-5.78-6.78-1.78-2.39-3.65-4.76-6.1-6.46-2.44-1.7-5.57-2.65-8.44-1.87,2.94-.22,5.77,1.33,7.91,3.36,2.14,2.03,3.75,4.54,5.62,6.82s4.11,4.42,6.79,4.93Z"/><path d="M339.57,142.06c-3.53-2.09-8.21-2.07-11.71,.05s-5.69,6.26-5.47,10.36c1.84-3.19,3.97-6.34,7.02-8.41,3.05-2.07,7.2-2.85,10.16-2Z"/><path d="M268.69,313.45c3.87,2.41,8.44,3.65,13,3.54,1.45-.04,3.08-.31,3.92-1.49-5.63,.98-11.62-.23-16.43-3.32-.54,.59-.47,1.63-.48,1.27Z"/><path d="M266.94,333.46c2.23,1.97,4.13,4.27,6.26,6.35,2.13,2.08,4.55,3.96,7.41,4.81,2.85,.84,6.19,.48,8.4-1.52-8.61-2.2-16.5-7.09-22.06-9.64Z"/><path d="M272.46,347.41c4.5,8.37,12.27,14.93,21.28,17.97-10.42-1.91-19.68-9.3-23.85-19.04,1.14-.22,2.27,.51,2.57,1.07Z"/><path d="M357.15,236.27c1.28,25.32-10.46,50.95-30.47,66.51-8.27,6.43-18.49,11.33-28.9,10.16,16.96-3.68,31.48-15.32,41.26-29.65,9.78-14.33,15.23-31.21,18.12-47.02Z"/><path d="M360.48,267.03c-2.79,25.71-18.38,49.7-40.73,62.7-3.7,2.15-8.09,4.07-12.16,2.73,14.27-2.99,26.21-13.18,34.43-25.24,8.21-12.05,13.2-25.96,18.46-40.2Z"/><path d="M364.72,298.76c-5.15,19.81-20.64,34.98-35.48,49.08,21-7.76,36.21-29.13,36.66-51.51-.77,1.93-1.55,3.85-1.18,2.43Z"/><path class="f" d="M379.65,474.74l-19.84-17.06-86.71-26.16-15.66-6.89-6.78,9.29-14.54,13.86c5.69-1.24,10.97-4.34,14.82-8.71-2.87,5.73-6.77,10.95-11.45,15.34,7.97-7.04,18.78-10.23,29.41-10.64s21.18,1.75,31.5,4.3c17.73,4.38,35.64,10.21,49.77,21.78-.86-1.06-1.75-2.2-1.89-3.55-.15-1.35,.82-2.91,2.18-2.86,1.31,.05,2.1,1.43,2.64,2.62l4.65,10.25c-1.98-.24-1.17-3.78,.81-3.98,1.98-.2,3.6,1.47,4.89,2.99l4.62,5.48-.63-5.08c5.59,5.41,13.21,8.68,20.99,8.8l-8.78-9.77Z"/><path class="k" d="M250.9,448.86c-3.48,15.35-10.22,28.34-13.5,43.74-3.29,15.39-2.04,33.14,8.92,44.44,7.72,7.96,18.89,11.38,29.66,14.01,16.87,4.13,34.46,7.08,51.57,4.04,16.77-2.97,31.97-11.49,46.8-19.87,3.38-1.91,6.97-4.03,8.65-7.53,1.31-2.72,3.33-7.17,4.17-10.07,2.48-8.51,.97-13.12-.25-21.62-.57-3.94-3.67-7.85-5.39-11.45-2.3-4.82-6.85-8.24-11.46-10.93-24.99-14.58-52.62-24.62-81.14-29.48-13.44-2.29-29.12-1.55-38.03,4.72Z"/><path d="M379.23,580.34c-.8-1-1.99-1.57-3.12-2.17-7.93-4.22-8.22-5.09-11.61-13.41-1.86,1.96-.98,5.16,.27,7.55,4,7.62,4.71,7.53,12.72,10.68,.67,.27,2.53-1.65,1.74-2.65Z"/><path d="M393.65,583.71c-1.86-11.07-4.78-22.53-1.71-33.33,.5-1.76,1.16-3.58,.76-5.36-.4-1.78-2.41-3.33-4.03-2.48,1.81-1.09,1.7-3.82,.69-5.67s-2.67-3.32-3.46-5.27c-.31-.77-.49-1.6-.94-2.3-1.12-1.73-3.94-1.96-5.37-.47s-1.15,4.23,.52,5.45c1.86,1.36,4.84,.96,6.18,2.84,1.23,1.73,.04,4.3-1.81,5.35-1.85,1.05-4.08,1.06-6.19,1.24-7.44,.62-14.65,3.73-20.21,8.7,8.44-2.83,17.13-4.87,25.95-6.09,1.81-.25,3.96-.35,5.14,1.05,1.44,1.71,.4,4.27-.44,6.34-1.81,4.45-2.43,9.38-1.78,14.15,.69,5.1,7.14,18.43,6.71,15.85Z"/><path d="M349.97,551.6c-17.24,6.19-35.68,9.04-53.99,8.35,9.36,1.68,18.84,3.36,28.32,2.69,9.49-.67,19.14-3.96,25.66-11.04Z"/><path d="M366.58,558.54c-33.83,9.43-70.02,9.73-104.25,1.86,3.3,3.73,8.55,4.95,13.46,5.8,24.71,4.26,50.17,4.18,74.86-.24,5.89-1.05,12.31-2.73,15.93-7.42Z"/><path d="M296.67,571.28c-1.59-.57-3.47-.94-4.88-.02-1.63,1.06-1.82,3.71-.41,5.04,1.42,1.33,3.99,1.02,5.11-.56,1.12-1.59,.73-4.26,.18-4.46Z"/><path class="f" d="M264.02,500.03c-2.31-1.88-.75-4.06,1-7.98,1.95-4.35,5.38-3.22,8.41-1.59s1.27,3.5-.33,6.54c-1.35,2.57-4.76,6.54-9.08,3.02Z"/><path class="f" d="M261.88,501.52c.61,1.3,1.98,2.14,3.4,2.37s2.88-.1,4.21-.64c3.2-1.31,5.83-3.93,7.14-7.13-.69,4.59-4.64,8.5-9.24,9.15-1.32,.18-2.72,.11-3.88-.54s-2.01-1.96-1.63-3.21Z"/><path d="M278.46,555.73c-10.95,1.06-22.22-1.56-31.57-7.35,4.46,4.01,9.51,7.56,15.26,9.24,5.76,1.68,12.32,1.31,16.31-1.89Z"/><path d="M257.76,558.88c-2.92-1.48-5.62-3.39-7.98-5.66-.04,3.34,2.43,6.54,5.67,7.35,.55,.14,1.15,.21,1.69,.02s1-.71,.96-1.28-.72-1.05-.33-.44Z"/><path d="M262.49,548.75c-4.23-2.04-8.53-3.93-12.91-5.65-1.66-.65-3.53-1.28-5.17-.58-1.7,.72-2.57,2.73-2.46,4.57,.11,1.84,1,3.54,1.99,5.1,5.18,8.14,13.71,14.08,23.15,16.11-4.45,1.17-9.26-.15-13.19-2.55-3.93-2.4-7.13-5.8-10.28-9.15-2.25-2.4-4.59-4.97-5.28-8.18-.69-3.22,1.05-7.19,4.3-7.68-2.1-1.24-2.14-4.82-.06-6.11,2.76,4.71,8.03,7.28,13.1,9.3,5.08,2.01,10.47,3.86,14.23,7.81-2.73-1.14-5.55-2.07-7.43-2.98Z"/><path d="M342.01,54.64c-9.55,3.1-18.82,7.79-25.66,15.13-6.84,7.34-10.98,17.65-9.27,27.54,1.71,9.89,10.08,18.74,20.09,19.38,8.44,.54,16.88-4.39,25.08-2.33,11.81,2.96,15.52,17.63,16.99,29.71,10.94,89.52,19.59,176.19,22.52,266.33,.27,8.39,5.76,16.58,12.19,16.33,6.84-.26,10.81-5.91,10.81-15.63,0-116.46,1.21-224.19-20.1-338.68-1.54-8.27-3.55-17.21-10.05-22.55-6.04-4.96-14.76-5.54-22.28-3.42s-14.24,6.21-20.32,8.19Z"/><path d="M414.47,399.18c-.35-2.5-1.25-6.99-12.64-6.99-9.66,0-10.11,5.18-10.09,6.7,.66,44.17,6.37,87.49,7.02,131.67,.05,3.5,.17,7.14,3.45,10.27,3.28,3.13,10.72,5.55,17.75,4.61,10.49-1.39,11.89-8.16,11.15-13.37-6.32-44.75-9.12-79.63-16.64-132.89Z"/><path class="m" d="M200,453.97l11.8-45.69,4.41,10.94,9.46-53.46,4.23,21.01,12.59-37.76,2.47,24.77,3.58-42.3,5.64,20.01,11.01-52.77c8.63,3.02,18.6-6.95,15.58-15.58-1.96-5.58-6.97-12.29-10.3-14.34-3.03-1.86-3.35-19.24-1.51-19.24,14.22,0,18.22-9.67,23.7-16.43,4.12-5.08,11.27-7.3,14.27-13.11,3.01-5.81,6.1-10.53,.52-13.95-5.29-3.24-16.56-4.1-22.54-2.07-5.88,1.99-10.1,5.47-15.21,9.33,2.53-7.2-5.99-20.31-12.14-24.83-36.74-26.96-56.7-24.01-73.44-15.52-19.54,9.92-65.69,48.6-65.69,58.04,4.24-4.86,7.51-9.7,13.94-10.08-2.31,4.31-.93,6.93-.44,11.79-6.34-1.56-18.71,.82-21.45,6.74-2.4,5.2,.18,10.6,5.49,12.73,5.31,2.13,14.77,2.21,17.58,7.2,2.81,4.99,7.09,6.03,11.26,9.61-4.76,3.44-9.66,7.02-12.67,12.07-3,5.05-3.62,12.01,.12,16.53s12.36,4.37,17.95,.2c8.49,28.31,14.21,57.44,17.06,86.85l8.1-15.88,2.07,34.2c3.41-4.62,5.61-10.11,6.33-15.8l1.33,38.7,7.62-10.11c-.92,13.9,1.41,28.01,6.74,40.89,.62-1.18,1.24-2.36,.53-2.7Z"/><path class="f" d="M304.52,216.24c-.16,2.48-1.82,4.64-3.78,6.19-1.96,1.54-4.23,2.62-6.29,4.02-5.52,3.76-9.17,9.61-13.39,14.78-1.04,1.27-2.17,2.55-3.68,3.2s-3.49,.47-4.5-.82c-1.6-2.05,.26-5.11,2.55-6.34,2.29-1.23,5.06-1.63,6.98-3.38,2.97-2.71,3.02-7.9,6.46-10,1.37-.84,3.03-1,4.63-1.21,1.59-.2,3.27-.5,4.5-1.52,1.24-1.03,1.81-3.02,.81-4.27-.76-.94-2.09-1.16-3.3-1.14-4.94,.05-9.45,2.79-13.32,5.87-3.87,3.08-7.45,6.63-11.89,8.81-.81,.4-1.83,.73-2.56,.21-.74-.52-.21-2.1,.6-1.71l9.36-7.08c3.93-2.97,7.98-6.01,12.74-7.29,4.75-1.29,10.43-.42,14.09,1.69Z"/><path class="f" d="M265.82,249.44c1.06-6.1,.87-12.34,.68-18.53l3.37,11.7c.25,.86,.5,1.75,.37,2.64-.16,1.1-.9,2.05-1.8,2.71-.9,.66-1.95,1.07-2.62,1.47Z"/><path class="f" d="M145.22,267.4l2.83-.19c-.43-8.41-2.82-16.72-6.95-24.06,2.16,5.97,4.36,12.32,3.12,18.54-.2,1.02-.5,2.04-.45,3.07s.52,2.14,1.46,2.58c.94,.45,2.31-.1,0,.06Z"/><path class="f" d="M141.57,264.14c1.89-3.89,.69-8.75-2.02-12.12-2.71-3.37-6.67-5.48-10.69-7.09-3.54-1.42-7.47-2.53-11.11-1.4-1.48,.46-2.96,1.43-3.3,2.94-.38,1.71,.9,3.43,2.47,4.21,1.57,.78,3.37,.89,5.11,1.16,7.09,1.11,13.65,5.3,17.64,11.27-1.14-2.72-2.31-5.47-4.09-7.82-1.79-2.35-4.29-4.29-7.2-4.78-2.47-.41-5,.24-7.49-.04-.87-.1-1.75-.32-2.44-.85s-1.16-1.42-.99-2.28c.32-1.62,2.41-2.07,4.06-2.01,5.03,.18,10,1.87,14.1,4.8,2.52,1.8,4.91,4.7,4.12,7.71-.15,.55-.4,1.08-.47,1.65-.25,1.87,1.39,3.41,2.29,4.65Z"/><path class="f" d="M177.48,292.19l8.41,25.75c.14-3.25,1.25-6.45,3.17-9.07,2.66,9.63,4.88,19.38,6.66,29.21-.6-7.85,1.71-15.89,6.38-22.23l5.15,27.18c-.36-7.87,.45-15.8,2.42-23.43,.43-1.69,1.28-3.68,3.02-3.85,1.94-.19,3.17,2.08,3.38,4.02,.2,1.94,0,4.12,1.27,5.6-1.8-9.88-.9-20.24,2.57-29.66,3.57,2.51,6.05,6.51,6.72,10.82-.65-3.17,.53-6.39,1.19-9.56,.65-3.17,.57-6.95-1.89-9.05-1.6-1.36-3.82-1.67-5.92-1.86-10.59-.98-21.31-.53-31.78,1.35-4.11,.74-8.43,1.83-10.74,4.77Z"/><path class="f" d="M249.43,300.73c-8.89,18.68-17.39,34.81-22.38,52.69-3.54-4.82-6.25-13.26-5.94-19.23-6.15,21.15-8.65,40.63-9.78,62.62-5.79-11.09-9.65-21.41-8.84-33.89-5.77,19.52-6.98,40.38-3.51,60.44-5.96-23.86-6.26-49.12-.87-73.12-5.69,16.8-6.31,21.49-9.32,34.91-1.18-24.14-.56-44.21-7.36-66.33-1.76,8.42-4.7,16.59-8.73,24.2,1.43-14.7-1.24-29.77-7.63-43.08,5.56,15.67,7.52,32.6,5.68,49.13,5.78-6.93,9.46-15.6,10.43-24.58,4.28,23.21,4.6,45.95,7.49,69.38,.03-10.11,4.17-19.63,5.87-29.6-3.43,21.66-1.34,44.18,6.03,64.84-2.38-17.99-2.3-36.3,.23-54.27,2.11,10.14,6.46,19.64,11.69,28.58,1.74-20.3,2.17-36.37,8.12-56.85,2.94,4.8,4.4,6.04,7.35,10.84,7.17-18.96,14.35-37.92,21.49-56.66Z"/><path class="l" d="M216.49,251.25c15.43,2.49,30.51,7.14,44.67,13.75,4.91,2.29,9.82,4.91,13.43,8.96,3.61,4.05,5.7,9.82,4.12,15-2.04,6.64-9.46,10.34-16.4,10.59-6.94,.24-13.66-2.16-20.38-3.93-31.06-8.19-63.92-3.18-95.51,2.61-4.69,.86-10.2,1.51-13.62-1.81-3.14-3.04-3.02-8.21-1.43-12.29,3.56-9.11,12.62-14.75,21.39-19.09,19.88-9.84,42.26-17.26,63.73-13.79Z"/><path class="f" d="M166.1,267.47c-5.32-1.69-11.65,.69-14.54,5.46-.41,.67-.75,1.55-.33,2.22,.62,.97,2.11,.55,3.13,.02l8.13-4.24c.85-.44,1.72-.9,2.35-1.63s.96-1.79,1.26-1.83Z"/><path class="f" d="M148.24,277.55c-.87-.6-2.09-.62-2.98-.06-.59,.37-1.04,1.06-.92,1.74,.13,.73,.89,1.24,1.63,1.21,.74-.04,1.4-.54,1.76-1.18s.46-1.41,.51-1.71Z"/><path class="f" d="M265.58,285.15c.88-.93,.79-2.48,.12-3.57s-1.78-1.83-2.87-2.49c-13.63-8.29-29.9-11.43-45.85-11.46-15.95-.03-31.75,2.88-47.4,5.94-6.47,1.27-13.37,2.8-17.9,7.59-1.18,1.25-2.08,3.44-.73,4.5,.64,.5,1.52,.49,2.33,.45,17.87-.84,35.57-3.89,53.4-5.28,17.84-1.39,36.15-1.05,53.1,4.66,1.37,.46,2.82,.96,4.23,.65s2.65-1.84,1.57-.99Z"/><path d="M266.1,163.38c9.72-18.78,29.36-32.06,50.41-34.06-12.04-3.39-25.55-1.12-35.83,6.02,8.18-16.13,16.75-32.77,30.8-44.15-9.19,1.22-17.91,5.72-24.23,12.51,6.68-21.05,20.68-39.7,39.03-52-16.82,4.01-33.03,10.57-47.91,19.38,9.76-8.68,20.45-16.32,31.81-22.76-16.48-.2-32.97,5.19-46.14,15.09l26.37-25.45c-22.96,6.56-42.36,24.49-50.71,46.85-.54-6.5,1.67-12.98,5.04-18.56,3.37-5.58,7.85-10.39,12.3-15.15-16.4,7.15-29.63,21.25-35.72,38.07-1.4-10.43,1.14-21.35,7-30.09-8.81,6.17-12.77,17.16-14.99,27.68-2.22,10.52-3.3,21.55-8.43,31-3.28,6.05-8.28,11.72-8.34,18.6-.04,5.57,3.36,10.74,7.82,14.07,4.47,3.33,9.9,5.07,15.3,6.44,9.76,2.47,4.93,7.28,14.81,5.4,9.89-1.88,16.06,13.39,21.29,4.77-4.29,6.76,11.34-9.79,10.32-3.64Z"/><path class="f" d="M250.17,107.85l22.63-19.7c-3.73,8.57-7.45,17.14-11.19,25.77,1.03-6.43,2.86-12.74,5.45-18.72-5.25,4.8-10.92,9.13-16.89,12.64Z"/><path class="f" d="M238.74,110.05c3.84-7.12,6.7-14.78,8.46-22.68-5.97,6.59-12.99,12.23-20.71,16.64,6.1-2.82,11.84-6.42,17.03-10.69-2.33,5.79-4.09,11.82-4.78,16.72Z"/><path class="m" d="M215.53,220.55c6.02,7.4,10.09,16.91,18.38,21.63,7.54,4.29,17.61,3.36,24.49-1.92,6.88-5.29,10.37-14.51,9.11-23.09-1.25-8.54-7.07-16.27-14.93-19.83-7.86-3.56-17.51-2.84-24.75,1.85-7.24,4.69-11.85,13.19-12.29,21.36Z"/><path class="n" d="M183.66,225.35c-2.21-6.67-7.04-12.49-13.34-15.58-6.3-3.09-14.03-3.31-20.35-.26-6.33,3.04-11.04,9.38-11.8,16.36-.54,4.94,.81,9.94,3.06,14.37,3.71,7.35,10.66,13.73,18.89,14.02,7.05,.25,13.72-4.12,17.61-10.01,3.88-5.89,7.79-13.35,5.95-18.91Z"/><path class="f" d="M261.94,210.05c-1.97-3.84-5.74-6.71-9.97-7.58,2.01,.81,3.49,2.53,4.98,4.1,1.49,1.58,3.22,3.14,5,3.47Z"/><path class="f" d="M250.1,200.68c-6.22-1.31-12.85-1.39-18.79,.87-5.94,2.26-11.09,7.09-12.75,13.22,7.17-9.85,19.93-15.31,31.54-14.09Z"/><path class="f" d="M260.05,224.77c-3.23,4.02-7.99,7.05-13.14,7.25,2.79,.49,5.75,0,8.23-1.37,2.48-1.37,4.48-3.6,4.91-5.88Z"/><path class="f" d="M250.9,232.87c-9.08,2.24-19.07,.51-26.88-4.63,4.1,2.49,8.32,4.89,12.96,6.09,4.64,1.2,9.8,1.08,13.92-1.45Z"/><path class="f" d="M264.5,219.95c.82,7.83-4.16,15.74-11.33,18.98s-16,1.99-22.4-2.6c5.64,6.27,15.55,8.21,23.14,4.52,7.58-3.69,12.18-12.68,10.59-20.91Z"/><path class="g" d="M264.28,216.65c-3.56-6.4-10.17-11.01-17.41-12.13-7.24-1.12-14.94,1.27-20.27,6.29-2.53,2.39-4.56,5.33-7.41,7.33-1.27,.89-2.89,2.14-2.33,3.58,.48,1.21,2.09,1.33,3.38,1.55,2.35,.41,4.39,1.82,6.5,2.95,6.37,3.4,14.01,4.35,21.02,2.61,7.01-1.74,13.32-6.16,16.53-12.17Z"/><path class="f" d="M181.39,230.36c.82,.15,1.65-.52,1.85-1.33s-.12-1.69-.66-2.33-1.27-1.08-2.01-1.48c-4.69-2.51-10.12-3.52-15.42-3.09-5.3,.44-10.44,2.31-14.9,5.19-2.72,1.76-5.3,4.03-6.46,7.06-.49,1.28-.7,2.77-.1,4,.71,1.44,2.37,2.19,3.97,2.33,1.6,.15,3.2-.19,4.8-.33,2.59-.23,5.21,.06,7.8-.23,3.98-.46,7.67-2.28,11.15-4.28,3.47-2,6.85-4.23,9.98-5.53Z"/><path d="M258.39,210.98c-2.2-1.83-5-2.75-7.76-3.49-4.53-1.2-9.35-1.99-13.87-.75-4.17,1.14-7.69,3.9-11.07,6.59l-7.89,6.26c-.65,.52-1.36,1.15-1.37,1.98,0,.75,.61,1.38,1.29,1.68s1.45,.33,2.2,.43c2.99,.39,5.75,1.77,8.61,2.75,10.91,3.72,25.62-1.1,31.68-6.44,.55-.49,1.23-1.32,1.05-2.18-5.31,4.68-12.17,7.72-19.19,8.6s-14.31-.4-20.61-3.62c-.86-.44-1.83-1.16-1.67-2.11,.09-.57,.58-.99,1.03-1.35,6.43-5.16,13.38-10.54,21.59-11.26,7.56-.66,16.92,1.83,18.78,9.26,0,.03-.59-4.51-2.79-6.34Z"/><path d="M240.13,211.46c-.7-1.21-2.27-1.75-3.63-1.45-1.36,.3-2.5,1.32-3.17,2.54-.67,1.22-.93,2.63-1,4.03-.1,1.87,.11,3.76,.62,5.56,.26,.92,.62,1.85,1.3,2.51,1.15,1.11,3.03,1.21,4.46,.51s2.45-2.07,3.06-3.54c1.17-2.83,.96-6.19-.54-8.85-.26-.45-.67-.94-1.18-.84-.37,.07-.62,.46-.66,.83s.07,.75,.17,1.12c.46,1.74,.61,3.56,.45,5.35-.09,.95-.28,1.93-.82,2.71-.54,.78-1.52,1.33-2.45,1.13-.73-.16-1.31-.74-1.65-1.41s-.46-1.42-.58-2.16c-.26-1.64-.47-3.36,.11-4.91s2.21-2.84,3.82-2.47c.41,.1,.83,.29,1.24,.19s.65-.75,.47-.83Z"/><path d="M166.84,231.94c.17-1.72,.27-3.49-.26-5.14s-1.82-3.15-3.52-3.45c-1.98-.36-3.9,.97-5.13,2.57-1.75,2.27-2.6,5.22-2.33,8.07,.21,2.25,1.3,4.63,3.39,5.5,1.97,.82,4.38,0,5.79-1.6,1.41-1.61,1.94-3.84,1.86-5.98-.02-.43-.11-.94-.5-1.11-.6-.26-1.13,.51-1.29,1.15-.28,1.15-.36,2.36-.78,3.48s-1.32,2.16-2.5,2.29c-.91,.1-1.83-.39-2.41-1.1-.58-.71-.87-1.62-1.02-2.53-.31-1.89-.02-3.87,.8-5.6,.55-1.16,1.42-2.26,2.63-2.67,1.22-.41,2.8,.11,3.2,1.33,.19,.57,.11,1.19,0,1.77s-.24,1.19-.16,1.78,.45,1.19,1.03,1.35,1.29-.31,1.18-.1Z"/><path d="M182.85,229.78c.71-.33,1.04-1.15,.93-1.93-.11-.78-.58-1.46-1.11-2.04-1.51-1.67-3.56-2.76-5.66-3.58-4.85-1.87-10.2-2.39-15.32-1.49-5.12,.9-9.97,3.23-13.88,6.64-2.29,2-4.29,4.42-5.37,7.26-.41,1.07-.69,2.23-.56,3.37s.7,2.28,1.69,2.87c1.44,.86,3.26,.4,4.92,.19,4.08-.52,8.22,.65,12.31,.23,3.89-.41,7.48-2.23,10.8-4.29s6.31-3.98,9.63-6.04c.31-.19,1.49-1.15,1.49-1.15,0,0-.51,.08-1.76,.56-4.2,1.62-7.25,3.69-11.2,5.84-3.96,2.15-8.38,3.81-12.86,3.45-2.92-.24-5.83-1.32-8.7-.77-1.2,.23-2.6,.69-3.51-.13-.95-.86-.54-2.42,.06-3.55,2.14-4.09,5.77-7.31,9.92-9.32,4.15-2.01,8.82-2.85,13.43-2.81,2.86,.02,5.74,.39,8.43,1.37,2.69,.98,4.52,1.66,6.29,3.91,0,.02,.65,.92,.03,1.4Z"/><path class="f" d="M182.11,223.91c-4.99-6.38-13.39-9.92-21.44-9.03-8.05,.89-15.47,6.18-18.94,13.5-.94,1.98-1.61,4.11-1.65,6.3,0,.33,.04,.72,.33,.87,.47,.25,.91-.39,1.08-.89,1.15-3.38,2.78-6.63,5.05-9.38,2.28-2.75,5.22-4.99,8.6-6.17,4.95-1.72,10.4-1.04,15.5,.18,4.1,.98,8.25,2.37,11.47,4.62Z"/><path class="f" d="M157.94,213.21c-7.43,.69-14.35,5.52-17.53,12.27,.82-3.96,3.21-7.56,6.53-9.87,3.32-2.3,7.53-3.28,11-2.4Z"/><path class="f" d="M182.53,230.99c-2.11,.26-3.86,1.71-5.52,3.04-2.7,2.15-5.54,4.14-8.65,5.64-3.11,1.5-6.49,2.49-9.94,2.58-3.85,.1-7.7-.93-11.53-.5-.13,.15-.06,.41,.1,.54s.37,.16,.58,.18l4.99,.64c3.27,.42,6.59,.83,9.84,.31,4.4-.71,8.36-3.11,11.79-5.96,2.71-2.26,5.21-4.85,8.34-6.45Z"/><path class="f" d="M181.89,232.58c-.8-.07-1.59,.35-2.16,.91s-.99,1.27-1.43,1.95c-2.06,3.17-4.89,5.84-8.18,7.71,2.74-.23,4.99-2.26,6.7-4.41,1.71-2.16,3.15-4.59,5.07-6.16Z"/><path class="f" d="M166.64,245c-1.45,1.25-3.41,1.78-5.32,1.82-1.91,.04-3.8-.35-5.67-.75-2.92-.61-5.91-1.26-8.43-2.85,2.25,2.96,5.79,4.9,9.5,5.2,3.71,.3,7.51-1.06,9.92-3.42Z"/><path class="m" d="M250.79,180.18c8.87-1.01,15.42-8.42,21.18-15.23,5.76-6.81,12.66-14.05,21.57-14.47-13.59-.82-27.42,3.17-38.48,11.11,4.1-9.87,11.5-18.34,20.73-23.72-11.31,1.93-22.13,6.67-31.23,13.66,2.82-11.94,10.43-22.67,20.77-29.28-15.92,2.22-31.27,8.37-44.33,17.73-.69-10.68,2.97-21.57,9.98-29.67-12.27,5.22-23.07,13.84-30.89,24.64-1.36-11.69,.33-23.72,4.85-34.58-15.46,8.91-26.77,24.72-30.22,42.22-7.68-4.6-16.82-6.71-25.74-5.94,9.66,4.45,16.87,13.84,18.68,24.32-6.37-.02-12.66-3.06-16.62-8.05,3.24,6.96,8.88,12.78,15.74,16.23-11.64-4.65-25.72-2.47-35.41,5.47,7.96-1.59,16.71,1.9,21.39,8.54-9.51-4.28-22.17,1.77-24.81,11.86,9.01-6.23,20.84-5.65,31.66-7.34,9.36-1.46,18.31-4.76,27.38-7.47,9.07-2.7,18.54-4.84,27.95-3.86,9.42,.97,18.88,5.5,25.24,13.21,2.34-.07,4.68-.14,10.6-9.38Z"/><path class="m" d="M206.09,176.22c-11.66,6.02-19.49,18.82-19.54,31.94-3.68-8.61-3.37-18.83,.8-27.21-8.33,8.51-12.58,20.85-11.27,32.69-5.11-8.44-6.79-18.89-4.34-28.19-6.44,5.48-11.13,12.99-13.22,21.18-4.43-8.91-2.44-20.59,4.71-27.51-10.16,5.92-17.29,16.75-18.71,28.42-1.98-7.09-1.15-14.92,2.15-21.49,.12-.31-.41-.61-.61-.33s.24,.69,.5,.48c-5.86,.37-11.48,3.59-14.68,8.53,3.83-6.43,9.78-11.58,16.87-14.31,5.73-8.63,14.08-15.5,23.66-19.45-2.46-1.85-5.22-3.28-8.14-4.24,9.84-4.48,22-3.43,30.92,2.68,3.69-8.01,10.26-14.66,18.23-18.43-4.41,5.62-7.87,11.99-10.2,18.75,12.52-3.92,26.83-1.6,37.91,6.55,4.25-2.24,9.42-2.67,13.99-1.18s8.48,4.9,10.59,9.23c-9.89-1.6-20.04-1.53-29.91,.21,8.08-1.31,16.6,.29,23.65,4.44,7.05,4.15,12.59,10.82,15.37,18.52-9.79-4.41-20.18-7.46-30.8-9.05,7.75,1.19,14.66,6.78,17.45,14.11-8.43-8.74-19.62-14.18-30.55-19.45,5.79,2.28,9.48,8.97,8.31,15.09-3.99-6.46-9.27-12.11-15.44-16.52,2.97,5.6,2.95,12.69-.06,18.28,.61-6.94-1.35-14.07-5.42-19.72,3.88,7.77,3.44,17.54-1.12,24.93-.57-10.38-5.17-20.48-11.1-28.94Z"/><path class="k" d="M162.77,274.75c.74,3.76,1.12,7.59,1.13,11.42"/><path class="k" d="M173.35,271.13c.88,4.97,1.39,10,1.53,15.04"/><path class="k" d="M186.55,267.51c1.76,5.34,2.54,11,2.28,16.61"/><path class="k" d="M197.77,266.73c1.78,5.23,2.56,10.8,2.27,16.31"/><path class="k" d="M214.3,262.91c2.29,5.83,2.93,12.3,1.82,18.46"/><path class="k" d="M225.25,264.7c1.91,5.59,2.24,11.71,.92,17.47"/><path class="k" d="M238.85,265.96c1.44,6.12,1.62,12.53,.53,18.72"/><path class="k" d="M252.11,269.77c1.64,5.5,1.69,11.47,.14,16.99"/><path class="k" d="M259.05,274.36c.73,4.68,.05,9.56-1.94,13.86"/><path class="m" d="M198.61,191.79c-5.94,11.48-10.37,23.73-13.15,36.35-2.55,11.58-3.61,24.16,1.46,34.88,3.14,6.63,10.02,12.62,17.15,10.89,4.82-1.17,8.28-5.65,9.63-10.43,1.35-4.77,.95-9.85,.47-14.79-1.8-18.37-4.69-36.64-15.56-56.91Z"/></g></g><g id="e"><polygon class="o" points="623.86 587.11 200.31 587.11 200.31 454.44 623.86 454.44 591.09 521.41 623.86 587.11"/><text class="j" transform="translate(257.29 558.52)"><tspan x="0" y="0">DE LOS IMPREVISTOS</tspan></text><text class="p" transform="translate(288.09 517.06)"><tspan x="0" y="0">Monstruo</tspan></text></g></g></svg>