<?xml version="1.0" encoding="UTF-8"?><svg xmlns="http://www.w3.org/2000/svg" viewBox="0 0 614.6 581.24"><defs><style>.f,.g{fill:#fff;}.h{font-family:Avenir-Medium, Avenir;font-size:28px;}.g,.i,.j,.k,.l{stroke-miterlimit:10;stroke-width:.75px;}.g,.j,.k,.l{stroke:#000;}.i{stroke:#fff;}.i,.j{fill:none;}.m{fill:#f6c67b;}.n{font-family:Moonlights-on-the-Beach, Moonlights on the Beach;font-size:88px;}.l{fill:#c9c9c9;}.o{fill:#eb566a;}</style></defs><g id="a"/><g id="b"><g id="c"><circle class="o" cx="283.37" cy="287.74" r="283.24"/></g><g id="d"><g><circle class="o" cx="290.62" cy="290.62" r="290.62"/><g><path d="M190,524.52c-7.83,2.41-16.82,.46-22.99-4.97,9.5,.19,17.73-7.16,22.32-15.57,4.59-8.41,6.54-18,9.97-26.96,11.37-29.68,38.53-51.21,48.9-81.26,7.42-21.51,5.14-46.24-6.09-65.99-6.41-11.27-15.65-21.21-19-33.76-3.83-14.31,.83-29.86,9.11-42.09,8.28-12.23,19.86-21.73,31.36-30.93,14.01-11.19,28.59-22.44,45.72-27.54,17.13-5.1,37.58-2.78,49.87,10.31,13.13,13.98,13.7,35.69,23.19,52.41,7.36,12.97,20.01,22.75,25.07,36.8,5.21,14.46,1.37,30.41-1.27,45.57-2.65,15.16-3.55,32.35,6.04,44.3,6.59,8.22,17.06,12.43,23.9,20.43,5.93,6.93,8.9,16.44,16.16,21.92,8.98,6.79,22.77,6,29.85,14.8,8.6,10.68,1.11,26.34,1.12,40.11,.01,13.83,8.98,27.22,21.67,32.37-14.23,12.89-35.69,12.74-54.53,9.53-18.84-3.21-38.17-8.72-56.7-4.02-12.07,3.06-23.05,10.34-35.44,11.48-19.51,1.8-37.15-11.84-56.56-14.47-19.76-2.68-38.98,6.16-58.12,11.77-19.14,5.61-42.33,7.1-53.54-4.24Z"/><path class="i" d="M364.6,527.31c-11.45-8.37-18.74-21.5-22.95-35.13-4.21-13.63-5.67-27.94-7.64-42.08-5.76-41.32-16.12-83.39-28.23-123.26"/><path class="i" d="M373.44,258.3c-7.42-6.17-18.59-6.08-27.22-1.8s-15.07,12.05-20.22,20.25c-6.83,10.88-11.85,22.91-14.8,35.45-1.49,6.34-2.86,13.48-8.13,17.24-3.57,2.55-8.3,2.94-12.58,2.04-4.28-.9-8.22-2.95-12.1-4.97-7.34-3.84-15.33-8.4-17.97-16.32-1.89-5.64-.83-12.49-4.67-17.02-3.27-3.85-9.27-4.45-13.84-2.34-4.56,2.11-7.81,6.42-9.93,11.02,2.29-34.64,23.49-67.4,53.97-83.41,12.86-6.75,28.25-10.61,41.84-5.52,8.93,3.35,16.1,10.16,22.81,17,8.7,8.86,17.09,18.05,25.13,27.53-1.07,.55-2.08,1.04-2.31,.85Z"/><path class="i" d="M278.54,382.6c11.7,34.82,3.38,75.74-20.97,103.07"/><path class="i" d="M264.37,397.28c1.4,20.44-7.82,41.33-23.8,53.95-6.2,4.9-13.43,8.7-18.33,14.92-4.9,6.22-6.6,16.16-.99,21.74"/><path class="i" d="M376.1,322.95c-2.07,22.27-2.77,45.02,2.54,66.74,5.32,21.72,17.3,42.51,36.05,54.4"/><path class="i" d="M391.06,337.84c-3.33,29.17,9.23,59.69,32.05,77.87,13.14,10.47,29.95,17.77,37.54,32.84"/><path class="i" d="M298.69,268.71c-.61,20.39,2.97,40.25,7.09,58.14-1.73-3.93-6.43-6.37-9.77-9.05-3.33-2.68-6.89-5.13-9.71-8.35-2.82-3.22-4.86-7.44-4.4-11.72"/><g><path d="M410.99,240.59c.58,12.55-1.89,25.52-8.73,36.01-6.84,10.49-18.43,18.16-30.87,18.49-17.45,.45-32.92-13.69-38.59-30.37-5.67-16.68-3.23-35.13,1.88-51.99,6.62-21.85,17.48-42.09,28.27-62.17,11.6-21.58,23.2-43.17,34.8-64.75,5.13-9.55,12.02-20.3,22.75-21.03,7.37-.5,14.24,4.23,18.78,10.11,9.33,12.08,10.94,28.77,8.1,43.83s-9.62,28.99-15.75,43.01c-11.99,27.42-21.67,56.7-20.65,78.87Z"/><path class="i" d="M352.31,227.91c.89-10.74,9.39-19.16,18.09-25.39,8.7-6.23,18.46-11.67,24.3-20.69,5.54-8.56,6.77-19.23,6.84-29.45,.07-10.23-.85-20.56,.99-30.61,2.54-13.85,10.11-26.14,17.53-38.06"/></g><g><path d="M73.26,220.19c6.05,17.1,21.61,27.94,34.55,29.03,12.94,1.09,23.97-5.23,34.81-10.94,10.85-5.71,22.54-10.96,35.74-7.71,22.45,5.54,42.62,33.66,65.07,44.43,10.79,5.17,22.43,5.86,29.88-1.39,7.46-7.25,9.25-23.65,2.21-36.62-5.08-9.36-13.33-15.08-21.12-18.67-7.8-3.6-15.75-5.73-23.35-10.84-14.64-9.86-26.8-30.01-41.88-35.5-13.05-4.75-24.09,3.1-32.93,12.05-8.83,8.95-17.38,19.54-29.6,20.9-8.02,.89-16.81-2.34-25.3-3.99s-17.45-1.44-22.63,5.31c-5.19,6.75-4.22,21.98-5.45,13.94Z"/><path class="i" d="M257.84,241.91c-6.51,4.56-16.12,1.35-24.23-4.78s-15.27-14.83-22.79-22.56c-7.52-7.72-15.96-14.78-24.37-16.22-8.05-1.38-14.99,2.62-20.64,7.98-5.66,5.36-10.39,12.13-16.26,17.14-13.17,11.24-31.95,12.76-50.13,4.06"/></g><path class="g" d="M269.95,202.87c-11.3-1.11-22.04,7.27-26.42,17.81-4.38,10.54-3.42,22.62-.34,33.61l-10.42-14.11c3.82,12.03,8.47,23.8,13.92,35.18,1.01,2.12,2.08,4.27,3.72,5.94,1.55,1.58,3.52,2.65,5.28,3.99,4.17,3.17,7.11,7.93,8.09,13.1,.67,3.53,.48,7.32,2.13,10.51,2.06,4,6.79,6.19,11.26,5.88,4.46-.31,8.58-2.82,11.57-6.17,2.99-3.35,4.95-7.5,6.48-11.74,4.56-12.63,5.53-26.55,2.77-39.69,4.22-2.31,6.19-7.52,6.08-12.35-.11-4.83-1.93-9.44-3.62-13.97-1.69-4.53-3.3-9.25-2.97-14.08-1.57,3.74-2.25,7.86-1.96,11.91-.35-6.9-3.4-13.63-8.36-18.42-4.96-4.78-11.77-7.57-17.2-7.41Z"/><path class="j" d="M283.31,249.66c-.58-.16-1.19-.27-1.78-.17s-1.18,.43-1.45,.97-.14,1.29,.37,1.61c.59,.38,1.35,.08,2.02-.14,.85-.29,1.8-.43,2.62-.08s1.42,1.33,1.1,2.17c-.3,.78-1.21,1.1-2.02,1.29-.68,.16-1.37,.28-2.06,.2s-1.38-.38-1.8-.94"/><path class="j" d="M280.19,248.89c1.39,2.5,2.52,5.15,3.34,7.9"/><path class="j" d="M281.82,248.33c1.34,2.29,2.35,4.79,2.99,7.37"/><path class="j" d="M252.19,259.36c1.09,2.12,1.94,4.35,2.55,6.65"/><path class="j" d="M253.61,258.9c.99,1.97,1.81,4.04,2.44,6.16"/><path class="j" d="M255.29,259.38c-1.04-.05-2.1,.38-2.81,1.15-.23,.24-.42,.53-.47,.86s.09,.7,.39,.85c.31,.15,.68,.01,1-.13,.5-.23,1-.49,1.53-.62s1.13-.14,1.61,.13,.83,.84,.7,1.38c-.14,.62-.78,.97-1.38,1.17-1.01,.34-2.24,.4-3-.34"/><path class="j" d="M265.65,289.67c-.46,.44-.85,.97-1.03,1.59s-.12,1.32,.24,1.84,1.06,.83,1.67,.64"/><path class="k" d="M287.67,281.72c-1.1-.66-2.48-.71-3.73-.42s-2.4,.91-3.53,1.51l-13.4,7.17c-.39,.21-.8,.43-1.07,.79s-.38,.88-.12,1.25c.28,.4,.84,.46,1.33,.47,6.09,.09,12.2-1.55,17.43-4.69,1.15-.69,2.29-1.49,2.93-2.67,.64-1.18,.79-3.03,.16-3.42Z"/><path class="g" d="M284.11,293.82c-1.97-3.11-3.7-6.38-5.15-9.77,1.16-1.01,2.56-1.75,4.06-2.11,0,3.94,.31,7.88,1.09,11.88Z"/><path class="g" d="M272.83,287.47c-.59,.86-2.2,.7-2.5,1.71-.1,.35,.01,.73,.14,1.08,.97,2.61,2.57,4.97,4.63,6.83-.86-3.17-1.57-6.38-2.27-9.61Z"/><path class="l" d="M264.92,249.79c-.19-.31-.5-.82-.86-.8,.88,10.38,3.14,21.09,7.87,30.35,.53,1.03,1.09,2.07,1.94,2.85,.85,.78,2.03,1.28,3.15,1.04,1.69-.37,2.67-2.3,2.57-4.04-.1-1.74-.99-3.32-1.85-4.83-4.69-8.26-7.99-16.76-12.82-24.57Z"/><path d="M243.88,213.67c-3.2-1.8-6.84-2.8-10.51-2.89,2.98,1.1,5.76,2.73,8.19,4.79-6.36,2.97-9.87,11-7.75,17.72,.78-5.54,4.59-10.55,9.71-12.75-3.39,4-4.42,9.88-2.58,14.8,.9-5.62,3.73-10.91,7.9-14.75,2.2,1.98,3.28,5.13,2.78,8.06,2.13-4.24,2.66-9.26,1.49-13.86,3.34,.93,6.15,3.57,7.32,6.85,.78-3.65-.81-7.7-3.85-9.83,4.87-1.64,10.38-1.28,15,.98s8.3,6.39,10.03,11.26c.06-6.25-4.1-12.32-9.92-14.5,5.43,1.32,10.36,4.64,13.66,9.18-.68-4.69-3.19-9.09-6.89-12.04,6.52,1.41,12.23,6.16,14.82,12.34,.19-5.04-2.23-10.12-6.26-13.12,4.16,.25,8.2,2.22,10.98,5.34-.18-4.13-3.48-7.61-7.31-9.12-3.82-1.51-8.08-1.39-12.16-.98,3.49-3.61,9.36-4.62,13.84-2.39-2.93-3.32-7.1-5.51-11.48-6.04-4.38-.52-8.94,.62-12.57,3.16,2.74-4.15,7.58-6.82,12.53-6.9-4.09-1.53-8.81-1.26-12.71,.72-3.9,1.98-6.91,5.64-8.11,9.87-1.8-2.93-1.54-6.8-.04-9.89,1.5-3.09,4.08-5.52,6.8-7.6-5.32,.94-10.23,4.01-13.42,8.39-3.19,4.38-4.63,10.01-3.93,15.4-2.35-4.8-1.98-10.84,.93-15.32-3.36,2.96-6.34,6.5-7.89,10.71-1.55,4.21-1.49,9.17,1.39,12.43Z"/><path d="M268.17,243.99c1.47,1.01,2.67,2.41,3.45,4.03,4.9-1.41,9.18-4.89,11.57-9.42,2.39-4.53,2.87-10.04,1.3-14.92l-.11,1.63-.5-1.86c.09,.83,.21,2.73,.08,1.57-.18-1.57-.33-.87-.98-2.75,1.54,5.1,.43,11.34-2.87,15.51l.2-2.4-1.94,3.82c-.13-1.34,.15-2.72,.79-3.91-.5,1.78-1.25,3.5-2.21,5.08l.11-2.08-1.4,2.93,.19-1.84-.88,2.2,.15-1.66-1.64,2.41,.55-1.43-1.24,2.21-.11-1.14-.77,1.9-1.65-1.43,.05,1.23-.7-.74,.65,1.53-1.14-.95,.55,1.04-1.22-1.11,1.32,1.53c-.4-.24-.8-.48-1.61-.97Z"/><path d="M260.67,246.3c.62,1.63-.62,3.53-2.24,4.15-1.63,.62-3.46,.28-5.11-.26-7-2.28-12.71-8.21-14.77-15.32l2.44,3.97-1.15-2.27c1.77,3.15,4.28,5.88,7.25,7.9l-1.75-2.45,1.63,1.47-.76-1.01,4.93,3.67-1.21-1.58c.66,.85,1.58,1.5,2.6,1.82l-.55-.74,1.52,.81-.25-.95,.73,.69-.13-.66,1.02,1.28-.27-1.42,1.11,1.55c.03-.55-.15-1.11-.5-1.54l1.3,1.84-.3-1.81,.68,1.49,.02-1.39,.57,.9,.1-1.21,.37,.75-.13-1.75,1.22,2.31-.12-1.28,.52,1.36,.17-1,.29,.84,.06-1.97c.29,.92,.58,1.85,.71,1.78Z"/><path d="M296.11,264.64c.31,2.62-1.8,4.8-3.18,7.05-3.06,5-2.49,11.97,1.34,16.4-3.27-4.7-3.39-11.41-.27-16.22,.68-1.05,1.5-2.02,2.03-3.15s.74-2.51,.08-4.07Z"/><path d="M286.43,280.06c2.07,.82,3.5,3.06,3.37,5.29,.42-1.11,.29-2.42-.33-3.44s-1.73-1.71-3.04-1.85Z"/><path d="M287.53,279.04c1.25,1.11,2.34,2.41,3.23,3.83-.33-1.72-1.54-3.25-3.23-3.83Z"/><path d="M296.02,254.57c-3.27-2.67-4.35-7.31-3.95-11.53,.41-4.21,2.07-8.18,3.43-12.19s2.44-8.29,1.65-12.45c1.29,3.57,.88,7.55,0,11.24s-2.21,7.3-2.73,11.07c-.62,4.48-.04,9.12,1.61,13.85Z"/><path d="M298.59,225.97c.52,3.19-.19,6.44-1.06,9.55s-1.91,6.21-2.09,9.44c-.18,3.23,.65,6.68,2.99,8.89-1.88-2.59-2.3-6-1.99-9.2,.31-3.19,1.29-6.28,1.97-9.41s1.08-6.43,.18-9.27Z"/><path d="M298.53,237.63c.51,1.2,.31,2.61-.24,3.8s-1.42,2.18-2.27,3.16c.51-.35,1.05-.72,1.67-.82s1.33,.14,1.58,.72c.23,.54,0,1.16-.24,1.7l-2,4.53c1.33-1.59,2.61-3.32,3.07-5.34,.16-.68,.2-1.44-.17-2.03s-1.28-.86-1.78-.38c.71-1.14,1.2-2.41,1.44-3.74,.08-.45,.12-.94-.11-1.32s-.85-.55-.96-.28Z"/><path d="M291.39,249.98c-1.05-2.26-2.74-4.27-4.94-5.43s-4.93-1.38-7.18-.34c-2,.93-3.48,2.76-4.35,4.78s-1.19,4.26-1.34,6.46c.67-2.46,1.36-4.97,2.76-7.09s3.65-3.85,6.19-3.93c1.77-.06,3.49,.68,4.92,1.73s2.61,2.4,3.94,3.82Z"/><path d="M285.96,246.4c-1.33-1.24-3.35-1.58-5.1-1.09-1.75,.49-3.22,1.74-4.23,3.26-1.01,1.52-1.57,3.29-1.91,5.09,.8-2.41,2.06-4.75,4.06-6.3,1.99-1.56,4.81-2.2,7.18-.95Z"/><path d="M291.53,251.16c-1.08,2.66-2.41,5.34-4.64,7.13-2.23,1.79-5.58,2.45-7.96,.86,1.48,1.37,3.7,1.77,5.64,1.25s3.6-1.87,4.73-3.54c1.13-1.67,1.77-3.64,2.23-5.7Z"/><path d="M293.12,250.87c-1.31,.81-1.89,2.41-2.19,3.92-.3,1.51-.44,3.11-1.21,4.44-1.41,2.4-4.61,3.23-7.33,2.67s-5.07-2.21-7.34-3.82c2.15,1.99,4.49,3.96,7.33,4.68,2.83,.72,6.29-.19,7.64-2.8,.71-1.37,.75-2.98,.91-4.51s.5-3.17,2.2-4.58Z"/><path d="M282.8,263.37c-1.07,.29-2.23-.08-3.16-.7s-1.68-1.46-2.47-2.24-1.67-1.53-2.72-1.88c1.14,.41,1.99,1.37,2.74,2.32s1.48,1.98,2.52,2.6,2.49,.75,3.09-.1Z"/><path d="M263.9,261.07c-1-2.28-2.29-4.49-4.17-6.11-1.88-1.62-4.43-2.58-6.87-2.12-2.38,.45-4.37,2.22-5.51,4.37-1.14,2.15-1.5,4.63-1.49,7.06,.31-2.49,1.18-4.96,2.77-6.9,1.59-1.94,3.96-3.3,6.46-3.37s5.06,1.28,6.17,3.54c-1.51-1.74-3.73-2.83-6.02-2.96,1.88,.55,3.66,1.47,5.21,2.67-1.76-1.06-3.8-1.66-5.85-1.73l5.61,2.23c-2.89-1.86-6.88-1.8-9.71,.14s-4.35,5.66-3.69,9.04c.17-3.83,2.82-7.42,6.4-8.72,3.59-1.29,7.9-.2,10.7,2.84Z"/><path d="M253.25,255.32c-3.8,1.2-6.7,4.88-7,8.88-.07-2.05,.59-4.13,1.83-5.76s3.06-2.81,5.17-3.12Z"/><path d="M264.57,262.19c-1.75,.44-2.76,2.28-3.28,4.02s-.79,3.63-1.91,5.05c-1.45,1.84-4.11,2.43-6.37,1.84s-4.15-2.2-5.58-4.06c1.76,1.06,3.55,2.13,5.55,2.57,2,.43,4.28,.12,5.74-1.32,1.23-1.21,1.7-2.97,2.37-4.56,.67-1.59,1.79-3.23,3.47-3.53Z"/><path d="M261.11,265.41c-1.18,2.01-3.24,3.48-5.52,3.94s-4.74-.09-6.6-1.48c4.18,1.66,9.32,.5,12.12-2.46Z"/><path d="M269.34,238.75c-.57,.65-1.29,1.15-1.98,1.67s-1.37,1.08-1.84,1.81-.69,1.66-.41,2.48c.29,.82,1.18,1.44,2.02,1.23-.65-.65-1.34-1.4-1.34-2.32,0-.94,.74-1.71,1.46-2.32s1.51-1.26,2.09-2.56Z"/><path d="M263.61,242.46c.01-1.86-1.26-3.67-3.01-4.27,1.04,.98,1.76,2.29,2.05,3.69,.05,.23,.08,.46,.21,.65s.38,.32,.59,.23,.25-.46,.16-.29Z"/><path d="M262.15,247.07c.81-.88,1.26-2.31,.53-3.26-.53-.69-1.48-.87-2.34-1l-1.71-.25c.09,.56,.77,.81,1.33,.83s1.19-.06,1.65,.27c.55,.39,.62,1.18,.64,1.86,.01,.49,.03,.99-.11,1.56Z"/><path d="M294.99,224.22c-.24,3.63-1.17,7.2-2.72,10.49,1.68-2.63,2.82-5.61,3.34-8.69,.06-.35,.11-.72-.02-1.06s-.49-.6-.59-.74Z"/><path d="M293.72,221.69c.39,3.14-.29,6.41-1.89,9.13,.39-1.5,1.14-2.88,1.67-4.34s.82-3.09,.23-4.79Z"/><path d="M292.79,219.64c.05,3.05-.87,6.12-2.58,8.64,1.21-2.82,1.86-5.89,1.91-8.96,.33-.05,.66,.16,.66,.32Z"/><path d="M291.28,217.84c.08,2.39-.75,4.8-2.3,6.62,1.06-2.18,1.65-4.6,1.72-7.02,.46,.1,.8,.59,.58,.41Z"/><path d="M291.58,250.33c-1.51-1.36-3.14-2.61-5.03-3.35s-4.05-.91-5.91-.12c-1.29,.55-2.37,1.53-3.23,2.65-.86,1.12-1.53,2.37-2.19,3.62-.55,1.04-1.12,2.24-.75,3.36,.28,.84,1.04,1.43,1.83,1.83,2.85,1.47,6.43,1.11,9.21-.5s4.8-4.34,6.02-7.32c-.99,.32-1.54,1.34-2.1,2.23-1.4,2.24-3.44,4.12-5.91,5.02-2.47,.9-5.36,.75-7.58-.67-.49-.31-.97-.74-1.05-1.32-.06-.44,.13-.88,.32-1.28,1.09-2.24,2.48-4.42,4.5-5.87,2.02-1.45,4.78-2.05,7.03-1.01,1.69,.77,2.95,2.36,4.84,2.71Z"/><path d="M274.03,255.21c.1,.4,.02,.84-.21,1.19-.13,.19-.3,.35-.41,.55s-.16,.47-.02,.65c.18,.25,.56,.21,.86,.14l1.52-.33c-.26-.3-.68-.45-1.08-.38-.2,.04-.44,.12-.59-.03-.09-.09-.1-.24-.06-.36s.12-.22,.19-.32c.18-.25,.32-.52,.42-.81,.04-.12,.08-.27,.01-.38-.11-.18-.39-.14-.53,.02s-.15,.38-.12,.06Z"/><path d="M263.01,260.98c-1.51,2.86-4.16,5.08-7.22,6.07-3.06,.99-6.5,.73-9.38-.7-.14,.41,.31,.78,.7,.96,2.71,1.28,5.89,1.33,8.79,.54,1.67-.46,3.28-1.19,4.57-2.35,.77-.69,1.42-1.51,2.06-2.33l1.22-1.56c.1-.13,.2-.26,.26-.41,.11-.27,.06-.61-.15-.81s-.57-.24-.79-.05-.24,.58-.05,.64Z"/><path class="j" d="M260.54,273.54l.03,4.61"/><path class="j" d="M257.57,274.44l-.19,4.76"/><path class="j" d="M255.29,274.51l-.14,5.22"/><path class="j" d="M281.61,265.23l-.19,5.24"/><path class="j" d="M283.99,265.1c.18,1.74,.12,3.52-.19,5.24"/><path class="j" d="M287.11,264.65c-.04,1.8-.3,3.59-.76,5.33"/><path class="j" d="M280.68,278.37l1.07,2.24"/><path class="j" d="M283.58,277.76l.94,2.05"/><path class="j" d="M285.9,277.24l.98,1.49"/><path class="j" d="M287.94,276.65l.89,1.59"/><path class="j" d="M272.27,283.48l.79,2.11"/><path class="j" d="M269.59,284.55l1.03,2.43"/><path class="j" d="M267.29,285.66l.3,2.41"/><path class="j" d="M264.89,287.05l-.33,1.99"/><path class="j" d="M267.16,296.65v2.76"/><path class="j" d="M270.48,296.42l.41,3.03"/><path class="j" d="M267.24,301.67l.21,2.32"/><path class="j" d="M270.74,301.13l-.17,3.07"/><path class="j" d="M268.58,305.66l.28,2.84"/><path class="j" d="M271.96,309.5l.29,2.05"/><path class="j" d="M273.69,307.16l.03,2.21"/><path class="j" d="M276.38,305.9l.22,2.86"/><path class="j" d="M276.38,310.47l.21,1.84"/><path class="j" d="M274.35,301.68l.16,2.34"/><path class="j" d="M276.57,301.21l.08,2.13"/><path class="j" d="M276.52,297.08l.4,2.19"/><path class="j" d="M280.39,296.58l.45,2.48"/><path class="j" d="M280.53,293.58l.24,1.77"/><path class="j" d="M283.37,298.63l.64,2.82"/><path class="j" d="M280.18,301.76l-.09,1.84"/><path class="j" d="M282.87,303.21l.3,2.71"/><path class="j" d="M279.67,306.95l.15,2.47"/><path class="j" d="M282.22,308.51v1.75"/><path class="j" d="M287.14,302.02l.24,2.25"/><path class="j" d="M286.52,298.11l.62,1.99"/><path class="j" d="M286.88,294.12l.88,2.19"/><path class="j" d="M288.32,293.34l.85,1.96"/><path class="j" d="M288.02,289.97l.68,1.49"/><path class="j" d="M290.5,297.08l.8,1.98"/><path class="j" d="M289.36,299.32l.8,2.46"/><path class="j" d="M292.88,294.2l.77,2.05"/><path class="j" d="M291.67,290.63l.71,2.07"/><path class="j" d="M290.97,286.2l1.06,1.88"/><path class="j" d="M293.73,289.91l.87,2.32"/><path class="j" d="M295.74,287.77l.73,2.13"/><path class="j" d="M296.52,285.07l.94,1.87"/><path class="j" d="M243.23,254.14c.86,7.72,2.3,15.37,4.3,22.87"/><g><path class="f" d="M107.02,224.81c.11,5.5-4.31,10.36-9.46,12.35-5.15,1.99-10.85,1.68-16.3,.99-5.45-.69-10.93-1.72-16.4-1.08-12.65,1.49-22.65,11.49-34.59,15.95-1.4,.52-3.05-.12-3.53-1.54-.54-1.55,1.65-2.06,2.83-2.87,13.05-8.89,29.71-16.38,44.89-20.59-9.39-2.58-22.48-.05-31.74,3.19-7.32,2.56-15.96,7.18-24.06,9.54-1.41,.41-2.3-1.51-1.07-2.32,16.13-10.68,36.53-18.56,55.26-19.23-9.34-4.47-19.51-4.96-29.61-2.42-8.08,2.03-17.82,7.83-25.34,9.72-1.3,.33-2.03-1.42-.89-2.11,16.63-10.03,37.12-16.16,56.62-14.64-12.57-3.56-26.56-4.42-39.09-.45-1.42,.45-5.58,.39-5.6-.54-.04-1.61,3.47-2.2,4.98-2.66,19.38-5.9,40.32-2.46,57.63,2.36,4.15,1.16,7.94,3.6,10.98,6.65,3.04,3.05,4.43,7.29,4.48,9.69Z"/><path class="j" d="M108.79,226.22c-1.51,4.87-5.91,8.46-10.72,10.15-4.81,1.69-10.01,1.73-15.08,1.44-5.07-.29-10.15-.88-15.21-.41-13.47,1.28-25.04,9.89-37.64,14.93-1.1,.44-2.68,.68-3.16-.39-.45-.99,.57-2.01,1.48-2.62,5.23-3.53,10.89-6.35,16.53-9.17,10.04-5.01,20.46-10.12,30.88-11.9-9.7-3.32-20.47-1.42-30.23,1.9-9.77,3.32-19.1,8.01-29.12,10.41-.39-.91,0-2.01,.67-2.74s1.6-1.18,2.5-1.6c8.4-3.94,16.96-7.54,25.63-10.81,9.66-3.64,20.18-6.89,29.26-5.77-11.36-5.32-24.89-5.88-36.75-1.53-6.46,2.37-12.36,6.1-18.83,8.44-.8,.29-1.85,.48-2.34-.21-.64-.91,.51-2.03,1.5-2.56,8.86-4.77,18.1-8.96,27.83-11.43,9.73-2.47,20.01-3.18,29.66-1.35-13.95-5.45-29.83-5.92-44.19-1.31-.81,.26-2.01,.31-2.14-.52-.1-.63,.59-1.08,1.18-1.33,14.54-6.24,31.07-5.29,46.53-2.43,9.82,1.82,19.87,4.55,27.43,11.03,1.59,1.37,3.09,2.94,3.86,4.91,.76,1.96,.61,4.37,.45,4.88Z"/><path class="j" d="M98.99,229.2c-4.91,1.06-9.95,1.49-14.95,1.26"/><path class="j" d="M99.43,221.99c-6-.13-11.98-.76-17.86-1.9"/><path class="j" d="M98.71,217.25c-4.4-.58-8.75-1.52-13-2.81"/><path class="j" d="M78.83,211.24c-.79,.02-1.54-.57-1.71-1.34s.26-1.63,.97-1.97"/><path class="j" d="M78.45,218.61c-.59-.21-1.13-.61-1.44-1.15s-.36-1.25-.08-1.82,.91-.97,1.53-.91"/><path class="j" d="M78.91,226.64c-.73-.01-1.44-.43-1.8-1.06s-.38-1.45-.04-2.1,1.03-1.1,1.76-1.16"/><path class="j" d="M79.49,234.69c-.64-.14-1.29-.3-1.84-.65s-.97-.97-.92-1.63c.04-.57,.43-1.07,.91-1.38s1.04-.46,1.6-.59"/><path class="j" d="M53.24,236.58c.58-.24,1.27-.13,1.78,.24s.83,.95,.93,1.56,0,1.26-.23,1.84"/><path class="j" d="M53.42,240.85c-.67,.15-1.39,.03-1.95-.35s-.91-1.07-.86-1.75,.53-1.33,1.19-1.52"/><path class="j" d="M52.48,237.04c.61,.06,1.19,.39,1.55,.88s.51,1.14,0,2.02c-.53-.01-1.04-.31-1.32-.77s-.3-1.05-.24-2.14Z"/><path class="j" d="M46.96,229.36c.85-.47,1.23-1.63,.83-2.5s-1.53-1.32-2.43-.96"/><path class="j" d="M45.88,229.18c.21-.37,.25-.83,.13-1.23s-.42-.75-.8-.93"/><path class="j" d="M45.4,229.84c-.57,.05-1.15-.09-1.61-.42s-.77-.87-.79-1.44,.26-1.15,.75-1.45"/><path class="j" d="M46.11,229c-.5,.21-1.13,0-1.41-.46s-.16-1.12,.26-1.47"/><path class="j" d="M46.95,212.53c.69-.14,1.43,.4,1.5,1.1,.05,.46-.16,.93-.47,1.29s-.7,.62-1.46,.55c-.51-.18-.89-.67-.95-1.22s.1-1.46,1.38-1.72Z"/><path class="j" d="M45.82,215.77c-.73,.06-1.45-.46-1.63-1.17s.22-1.52,.89-1.82"/><path class="j" d="M56.61,203.22c.76,.28,1.24,1.17,1.06,1.97s-1,1.41-1.81,1.34"/><path class="j" d="M54.75,206.39c.69-.22,1.25-.8,1.46-1.49s.05-1.48-.41-2.04"/><path class="j" d="M53.71,206.24c-.31-.54-.38-1.22-.17-1.81s.67-1.09,1.25-1.34"/><path class="j" d="M29.99,208.28c1.38-.93,2.96-1.56,4.59-1.84,.33-.06,.68-.1,1-.01s.62,.34,.68,.67c.09,.56-.49,.98-1,1.22-1.27,.6-2.62,1.05-4.01,1.2-.28,.03-.56,.05-.82-.04s-.5-.3-.54-.57c-.06-.45,.38-.79,.1-.62Z"/><path class="j" d="M21.26,225.33c-.7,.66-1.65,1.05-2.61,1.07-.51,.01-1.08-.12-1.34-.56-.35-.6,.09-1.36,.59-1.85,1.08-1.05,2.49-1.68,3.87-2.29,.35-.15,.71-.31,1.09-.36s.79,.02,1.07,.27c.46,.41,.43,1.18,.1,1.71s-.87,.88-1.4,1.21c-1.04,.66-2.13,1.33-1.37,.78Z"/><path class="j" d="M20.58,236.18c.62-.35,1.27-.71,1.98-.74s1.48,.42,1.57,1.13c.1,.77-.6,1.4-1.26,1.81-1.4,.89-2.94,1.54-4.55,1.93-.43,.1-.91,.18-1.27-.07-.37-.25-.48-.79-.34-1.22s.45-.79,.79-1.1c1.22-1.12,2.77-1.83,3.07-1.74Z"/><path class="j" d="M28.66,249.29c.59-.22,1.13-.57,1.7-.84s1.21-.47,1.83-.36,1.2,.6,1.24,1.23c.04,.61-.42,1.14-.89,1.54-1.27,1.07-2.89,1.71-4.55,1.81-.31,.02-.66,0-.86-.24-.3-.36-.03-.9,.27-1.27"/></g><g><path class="f" d="M424.35,69.52c-3.62,4.15-3.34,10.71-.67,15.54,2.67,4.83,7.25,8.25,11.87,11.21s9.49,5.69,13.27,9.69c8.77,9.28,10,23.4,16.34,34.5,.86,1.51,2.77,1.9,4.04,.73,1.05-.97-.35-1.79-.69-3.02-4.31-15.19-11.48-31.62-20.43-44.58,8.86,4.05,16.46,13.68,21.48,22.09,4.58,7.67,8.22,16.67,13.94,23.55,.43,.52,1.27,.09,1.1-.56-5.13-19.46-15.52-35.65-30.44-51.53,10.03,2.56,18.23,8.02,24.35,16.45,5.61,7.72,7.87,17.52,13.73,24.9,.38,.48,1.14,.07,.96-.51-6.18-19.75-16.72-36.59-33.58-48.59,11.93,5.33,23.84,13.75,30.9,24.84,.8,1.25,3.4,3.77,4.01,3.07,1.07-1.21-1.14-3.18-2-4.5-11.08-16.96-29.85-29.44-45.84-35.91-4-1.62-13.27-2.31-17.56-1.91-4.29,.39-3.2,2.72-4.78,4.53Z"/><path class="j" d="M422.08,69.47c-1.96,4.71-.89,10.29,1.71,14.67,2.61,4.38,6.57,7.75,10.64,10.78,4.07,3.03,8.35,5.83,11.92,9.44,9.52,9.62,12.87,23.65,19.29,35.6,.56,1.04,1.62,2.24,2.67,1.73,.98-.48,.85-1.91,.55-2.96-1.75-6.06-4.28-11.86-6.8-17.64-4.49-10.29-9.2-20.89-16.05-28.94,9.57,3.67,16.61,12.04,21.97,20.85,5.36,8.81,9.51,18.4,15.65,26.67,.88-.45,1.3-1.54,1.25-2.53s-.47-1.93-.89-2.83c-3.92-8.41-8.17-16.66-12.72-24.74-5.07-8.99-11.06-18.23-18.74-23.2,12.13,3.21,22.86,11.45,29.17,22.4,3.43,5.96,5.57,12.61,9.03,18.55,.43,.73,1.11,1.56,1.93,1.34,1.08-.29,.91-1.88,.49-2.93-3.74-9.34-8.14-18.48-14.02-26.62s-13.31-15.27-21.88-20.07c14.2,4.77,26.68,14.6,34.74,27.34,.45,.71,1.35,1.53,1.98,.97,.48-.42,.24-1.21-.05-1.78-7.15-14.11-20.44-23.99-34.14-31.72-8.7-4.91-18.16-9.26-28.12-9.13-2.1,.03-4.26,.27-6.11,1.29-1.84,1.02-3.27,2.96-3.48,3.45Z"/><path class="j" d="M427.69,78.05c3.08,3.97,6.68,7.52,10.66,10.56"/><path class="j" d="M431.98,72.23c4.68,3.75,9.68,7.1,14.92,10"/><path class="j" d="M435.57,69.06c3.75,2.38,7.69,4.45,11.77,6.19"/><path class="j" d="M454.68,77.2c.59,.52,1.55,.55,2.17,.07,.62-.48,.85-1.42,.52-2.13"/><path class="j" d="M450.24,83.1c.59,.22,1.25,.26,1.84,.04s1.08-.73,1.23-1.34c.15-.62-.07-1.33-.59-1.69"/><path class="j" d="M444.73,88.96c.57,.46,1.38,.59,2.06,.35s1.22-.87,1.38-1.59-.09-1.51-.61-2.02"/><path class="j" d="M439.12,94.77c.58,.3,1.18,.6,1.83,.68s1.37-.12,1.75-.65c.33-.46,.35-1.1,.18-1.64s-.5-1.02-.85-1.48"/><path class="j" d="M458.05,113.06c-.29-.56-.89-.91-1.51-.96s-1.24,.2-1.72,.6-.81,.96-1.01,1.56"/><path class="j" d="M455.18,116.22c.42,.54,1.05,.92,1.72,.98s1.38-.23,1.78-.79,.44-1.36,.06-1.93"/><path class="j" d="M458.34,113.9c-.51-.34-1.16-.46-1.76-.32s-1.12,.55-1.3,1.55c.42,.33,1,.43,1.5,.26s.9-.62,1.55-1.49Z"/><path class="j" d="M467.5,111.55c-.35-.9,.1-2.04,.96-2.45s2.02-.03,2.48,.82"/><path class="j" d="M468.44,112.1c.08-.42,.34-.8,.69-1.02s.8-.3,1.21-.2"/><path class="j" d="M468.39,112.91c.4,.4,.94,.67,1.5,.71s1.15-.17,1.53-.59,.54-1.05,.36-1.59"/><path class="j" d="M468.38,111.82c.25,.48,.87,.73,1.38,.55s.84-.76,.75-1.29"/><path class="j" d="M478.31,98.64c-.44-.55-1.35-.61-1.86-.12-.34,.32-.47,.82-.47,1.29s.14,.93,.77,1.36c.51,.19,1.12,.06,1.51-.32s.86-1.18,.05-2.2Z"/><path class="j" d="M477.1,101.86c.52,.51,1.41,.58,2,.15s.8-1.31,.49-1.97"/><path class="j" d="M476.86,85.3c-.77-.27-1.7,.1-2.08,.83s-.14,1.72,.53,2.19"/><path class="j" d="M476.25,88.93c-.39-.61-.45-1.42-.16-2.08s.91-1.17,1.62-1.3"/><path class="j" d="M477.15,89.48c.58-.21,1.07-.69,1.29-1.28s.19-1.27-.1-1.82"/><path class="j" d="M494.04,106.27c-.47-1.6-1.27-3.09-2.34-4.36-.22-.26-.46-.51-.76-.65s-.69-.14-.95,.08c-.43,.37-.25,1.07-.01,1.58,.58,1.28,1.34,2.48,2.31,3.49,.19,.2,.4,.4,.66,.5s.57,.09,.78-.09c.33-.3,.22-.85,.32-.54Z"/><path class="j" d="M489.8,124.95c.12,.96,.59,1.87,1.32,2.5,.38,.33,.91,.6,1.39,.43,.65-.23,.81-1.1,.74-1.79-.15-1.5-.83-2.89-1.5-4.24-.17-.34-.34-.69-.6-.97s-.62-.49-1-.48c-.62,.02-1.09,.63-1.18,1.25s.1,1.24,.29,1.83c.38,1.17,.78,2.38,.55,1.48Z"/><path class="j" d="M483.36,133.71c-.25-.67-.52-1.36-1.05-1.84s-1.41-.63-1.93-.15c-.57,.53-.44,1.46-.2,2.2,.5,1.58,1.27,3.07,2.25,4.39,.26,.35,.58,.72,1.02,.76,.45,.05,.87-.3,1.05-.72s.16-.9,.1-1.35c-.22-1.65-.95-3.18-1.24-3.31Z"/><path class="j" d="M467.99,136.84c-.26-.58-.62-1.14-1.17-1.45s-1.31-.31-1.74,.15c-.42,.45-.41,1.15-.3,1.75,.29,1.64,1.12,3.17,2.33,4.3,.23,.21,.51,.42,.81,.37,.46-.08,.6-.67,.61-1.14"/></g></g></g></g><g id="e"><polygon class="m" points="614.6 574.26 191.06 574.26 191.06 441.59 614.6 441.59 581.84 508.56 614.6 574.26"/><text class="h" transform="translate(251.91 545.68)"><tspan x="0" y="0">ADICTO AL CRÉDITO</tspan></text><text class="n" transform="translate(278.84 504.21)"><tspan x="0" y="0">Monstruo</tspan></text></g></g></svg>