<?xml version="1.0" encoding="UTF-8"?><svg xmlns="http://www.w3.org/2000/svg" xmlns:xlink="http://www.w3.org/1999/xlink" viewBox="0 0 240.49 240.49"><defs><style>.h,.i{fill:#fff;}.j,.k,.i,.l{stroke:#000;}.j,.k,.i,.l,.m{stroke-miterlimit:10;stroke-width:.25px;}.k{fill:#c9c9c9;}.n{fill:#efc5ba;}.l,.m{fill:none;}.o{clip-path:url(#e);}.m{stroke:#fff;}.p{filter:url(#f);}</style><clipPath id="e"><circle class="n" cx="120.24" cy="120.24" r="120.24"/></clipPath><filter id="f" filterUnits="userSpaceOnUse"><feOffset dx="11.34" dy="2.83"/><feGaussianBlur result="g" stdDeviation="0"/><feFlood flood-color="#000" flood-opacity=".5"/><feComposite in2="g" operator="in"/><feComposite in="SourceGraphic"/></filter></defs><g id="a"/><g id="b"><g id="c"><circle class="n" cx="120.24" cy="120.24" r="120.24"/></g><g id="d"><circle class="n" cx="120.24" cy="120.24" r="120.24"/><g class="o"><g class="p"><path d="M30.12,313.75c-5.9,1.81-12.68,.35-17.33-3.75,7.16,.14,13.36-5.4,16.82-11.74,3.46-6.34,4.93-13.57,7.51-20.32,8.57-22.37,29.05-38.6,36.86-61.26,5.59-16.22,3.87-34.85-4.59-49.75-4.83-8.5-11.8-15.98-14.33-25.45-2.88-10.79,.63-22.5,6.87-31.73,6.24-9.22,14.97-16.38,23.64-23.31,10.56-8.44,21.55-16.92,34.46-20.76,12.91-3.84,28.33-2.1,37.59,7.77,9.9,10.54,10.33,26.9,17.48,39.5,5.55,9.78,15.08,17.15,18.9,27.74,3.93,10.9,1.03,22.93-.96,34.35-1.99,11.43-2.68,24.38,4.55,33.4,4.97,6.19,12.86,9.37,18.01,15.4,4.47,5.22,6.71,12.39,12.18,16.53,6.77,5.12,17.16,4.52,22.5,11.15,6.48,8.05,.84,19.85,.85,30.23,0,10.42,6.77,20.52,16.34,24.4-10.72,9.71-26.91,9.6-41.11,7.18-14.2-2.42-28.77-6.57-42.74-3.03-9.1,2.31-17.37,7.79-26.72,8.65-14.71,1.35-28-8.92-42.64-10.91-14.89-2.02-29.38,4.65-43.81,8.87-14.43,4.23-31.91,5.35-40.36-3.2Z"/><path class="m" d="M161.73,315.86c-8.63-6.31-14.12-16.21-17.3-26.48-3.18-10.27-4.27-21.06-5.76-31.72-4.34-31.15-12.15-62.86-21.28-92.91"/><path class="m" d="M168.4,113.08c-5.59-4.65-14.02-4.58-20.52-1.35-6.5,3.23-11.36,9.08-15.24,15.27-5.15,8.2-8.93,17.27-11.15,26.72-1.12,4.78-2.15,10.16-6.13,12.99-2.69,1.92-6.26,2.21-9.48,1.54s-6.19-2.22-9.12-3.75c-5.54-2.89-11.55-6.33-13.55-12.3-1.42-4.25-.63-9.42-3.52-12.83-2.46-2.9-6.99-3.36-10.43-1.76-3.44,1.59-5.89,4.84-7.48,8.3,1.73-26.11,17.7-50.81,40.69-62.87,9.69-5.09,21.3-8,31.54-4.16,6.73,2.52,12.14,7.66,17.19,12.81,6.56,6.68,12.88,13.61,18.95,20.75-.81,.42-1.57,.79-1.74,.64Z"/><path class="m" d="M96.86,206.78c8.82,26.25,2.55,57.09-15.81,77.7"/><path class="m" d="M86.18,217.84c1.05,15.41-5.89,31.16-17.94,40.66-4.68,3.69-10.12,6.56-13.82,11.25-3.7,4.69-4.97,12.18-.74,16.39"/><path class="m" d="M170.4,161.81c-1.56,16.79-2.09,33.94,1.92,50.31,4.01,16.37,13.04,32.04,27.17,41"/><path class="m" d="M181.68,173.03c-2.51,21.99,6.96,44.99,24.16,58.7,9.9,7.89,22.58,13.4,28.3,24.75"/><path class="m" d="M112.05,120.92c-.46,15.37,2.24,30.34,5.35,43.82-1.3-2.96-4.85-4.8-7.36-6.82-2.51-2.02-5.19-3.86-7.32-6.29s-3.66-5.61-3.32-8.83"/><path d="M193.71,99.71c.44,9.46-1.42,19.24-6.58,27.15s-13.9,13.69-23.27,13.93c-13.15,.34-24.82-10.32-29.09-22.9s-2.43-26.48,1.42-39.19c4.99-16.47,13.18-31.73,21.31-46.86l26.23-48.81c3.87-7.2,9.06-15.3,17.15-15.85,5.55-.38,10.73,3.19,14.16,7.62,7.04,9.1,8.25,21.69,6.1,33.04-2.14,11.35-7.25,21.86-11.87,32.42-9.04,20.67-16.33,42.74-15.56,59.45Z"/><path class="m" d="M149.47,90.16c.67-8.1,7.08-14.44,13.64-19.14,6.56-4.7,13.92-8.8,18.32-15.6,4.18-6.45,5.1-14.49,5.16-22.2,.05-7.71-.64-15.5,.75-23.08,1.91-10.44,7.62-19.7,13.21-28.69"/><path d="M-92.97,61.23c-.89,12.14,9.23,22.82,20.61,26.79,11.39,3.97,23.8,2.86,35.82,2.09,12.02-.77,24.64-1.05,35.45,4.33,18.39,9.15,26.23,31.72,42.65,44.11,7.89,5.95,18.24,9.34,27.75,6.75,9.51-2.59,17.29-12.3,15.74-22.13-1.12-7.1-6.49-12.74-12.25-16.95s-12.21-7.56-17.22-12.67c-9.65-9.84-13.18-25.42-24.87-32.66-10.11-6.27-23.12-4.22-34.52-.92-11.4,3.3-23.16,7.68-34.81,5.41-7.65-1.49-14.44-5.73-21.56-8.92-7.12-3.19-15.36-5.34-22.61-2.48-7.26,2.86-12.08,12.54-10.19,7.25Z"/><path class="m" d="M67.09,121.72c-7.64,1.17-15.19-3.27-20.29-9.13-5.1-5.86-8.36-13.08-12.32-19.79s-9.01-13.23-16.13-16.26c-6.82-2.9-14.64-2.2-21.8-.32s-14.02,4.87-21.24,6.48c-16.21,3.61-33.9-.23-47.21-10.25"/><path class="i" d="M90.39,71.29c-8.52-.83-16.61,5.48-19.91,13.42s-2.58,17.05-.26,25.34l-7.85-10.64c2.88,9.07,6.39,17.94,10.49,26.52,.76,1.6,1.57,3.21,2.81,4.48,1.17,1.19,2.66,2,3.98,3.01,3.14,2.39,5.36,5.98,6.1,9.87,.5,2.66,.36,5.52,1.6,7.93,1.55,3.01,5.12,4.66,8.49,4.43,3.37-.23,6.47-2.12,8.72-4.65s3.73-5.66,4.88-8.85c3.44-9.52,4.17-20.01,2.09-29.92,3.18-1.74,4.67-5.67,4.58-9.31s-1.46-7.12-2.73-10.53-2.49-6.97-2.24-10.61c-1.18,2.82-1.69,5.93-1.47,8.98-.26-5.2-2.56-10.28-6.3-13.88-3.74-3.61-8.87-5.71-12.97-5.58Z"/><path class="l" d="M100.46,106.56c-.44-.12-.89-.2-1.34-.13s-.89,.32-1.09,.73-.11,.97,.28,1.22c.45,.28,1.02,.06,1.52-.11,.64-.22,1.35-.33,1.98-.06s1.07,1.01,.83,1.64c-.23,.59-.91,.83-1.52,.97-.51,.12-1.03,.21-1.55,.15s-1.04-.29-1.35-.71"/><path class="l" d="M98.1,105.98c1.05,1.88,1.9,3.88,2.52,5.95"/><path class="l" d="M99.33,105.57c1.01,1.73,1.77,3.61,2.25,5.56"/><path class="l" d="M77,113.87c.82,1.59,1.47,3.28,1.92,5.02"/><path class="l" d="M78.07,113.53c.75,1.49,1.37,3.04,1.84,4.64"/><path class="l" d="M79.33,113.89c-.79-.04-1.58,.29-2.12,.86-.17,.18-.32,.4-.36,.65s.07,.53,.3,.64c.24,.11,.52,0,.75-.1,.38-.17,.75-.37,1.16-.47s.85-.1,1.22,.1,.62,.63,.53,1.04c-.11,.47-.59,.73-1.04,.89-.76,.25-1.69,.3-2.26-.26"/><path class="l" d="M87.14,136.73c-.35,.33-.64,.73-.78,1.2s-.09,.99,.18,1.39,.8,.62,1.26,.48"/><path class="j" d="M103.74,130.73c-.83-.5-1.87-.54-2.81-.31s-1.81,.68-2.66,1.14l-10.1,5.4c-.3,.16-.6,.33-.81,.59s-.28,.67-.09,.94c.21,.3,.63,.35,1,.35,4.59,.07,9.19-1.17,13.14-3.53,.86-.52,1.73-1.12,2.21-2.01s.6-2.29,.12-2.58Z"/><path class="i" d="M101.06,139.85c-1.49-2.34-2.79-4.81-3.88-7.36,.87-.77,1.93-1.32,3.06-1.59,0,2.97,.23,5.94,.82,8.95Z"/><path class="i" d="M92.56,135.07c-.45,.65-1.66,.53-1.88,1.29-.08,.27,.01,.55,.11,.81,.73,1.96,1.94,3.75,3.49,5.15-.65-2.39-1.18-4.81-1.71-7.25Z"/><path class="k" d="M86.59,106.66c-.14-.23-.38-.62-.65-.6,.66,7.83,2.36,15.89,5.93,22.88,.4,.78,.82,1.56,1.46,2.15s1.53,.97,2.38,.78c1.28-.28,2.01-1.74,1.93-3.05-.07-1.31-.75-2.5-1.4-3.64-3.54-6.22-6.02-12.63-9.66-18.52Z"/><path d="M70.73,79.44c-2.41-1.36-5.16-2.11-7.92-2.18,2.24,.83,4.34,2.06,6.17,3.61-4.79,2.24-7.44,8.29-5.84,13.35,.59-4.18,3.46-7.95,7.32-9.61-2.56,3.01-3.33,7.45-1.94,11.16,.68-4.24,2.81-8.22,5.95-11.12,1.66,1.49,2.48,3.87,2.09,6.07,1.6-3.19,2.01-6.98,1.12-10.45,2.51,.7,4.64,2.69,5.52,5.16,.59-2.75-.61-5.8-2.91-7.41,3.67-1.24,7.82-.97,11.3,.74,3.48,1.7,6.26,4.82,7.56,8.49,.04-4.71-3.09-9.28-7.48-10.93,4.09,1,7.81,3.5,10.29,6.92-.51-3.54-2.41-6.85-5.19-9.07,4.91,1.06,9.22,4.65,11.17,9.3,.15-3.8-1.68-7.63-4.72-9.89,3.14,.19,6.18,1.67,8.28,4.03-.13-3.11-2.63-5.74-5.51-6.88-2.88-1.14-6.09-1.05-9.17-.74,2.63-2.72,7.05-3.48,10.44-1.8-2.21-2.5-5.35-4.15-8.65-4.55s-6.74,.47-9.47,2.38c2.06-3.13,5.71-5.14,9.45-5.2-3.08-1.15-6.64-.95-9.58,.54s-5.21,4.25-6.12,7.44c-1.36-2.21-1.16-5.12-.03-7.46s3.07-4.16,5.13-5.73c-4.01,.71-7.71,3.02-10.12,6.32-2.41,3.3-3.49,7.55-2.96,11.61-1.77-3.62-1.5-8.17,.7-11.55-2.53,2.23-4.78,4.9-5.95,8.08-1.17,3.18-1.13,6.91,1.05,9.37Z"/><path d="M89.04,102.29c1.11,.76,2.02,1.82,2.6,3.04,3.69-1.06,6.92-3.69,8.72-7.1,1.8-3.41,2.17-7.57,.98-11.25l-.08,1.23-.38-1.4c.07,.62,.16,2.06,.06,1.19-.13-1.19-.25-.65-.74-2.07,1.16,3.85,.33,8.55-2.17,11.69l.15-1.81-1.46,2.88c-.09-1.01,.12-2.05,.59-2.95-.38,1.35-.94,2.64-1.67,3.83l.08-1.57-1.05,2.21,.14-1.39-.66,1.66,.11-1.25-1.24,1.82,.42-1.08-.93,1.67-.08-.86-.58,1.43-1.24-1.08,.04,.93-.53-.56,.49,1.16-.86-.72,.42,.79-.92-.84,.99,1.15c-.3-.18-.61-.36-1.21-.73Z"/><path d="M83.39,104.03c.47,1.23-.46,2.66-1.69,3.13s-2.6,.21-3.85-.19c-5.28-1.72-9.58-6.19-11.13-11.55l1.84,2.99-.87-1.71c1.34,2.37,3.22,4.43,5.47,5.96l-1.32-1.85,1.23,1.11-.57-.76,3.72,2.76-.91-1.19c.49,.64,1.19,1.13,1.96,1.37l-.41-.56,1.15,.61-.19-.71,.55,.52-.1-.5,.77,.97-.2-1.07,.84,1.17c.02-.42-.11-.84-.38-1.16l.98,1.39-.23-1.37,.51,1.12v-1.05l.44,.68,.08-.91,.28,.56-.1-1.32,.92,1.74-.09-.97,.39,1.03,.13-.75,.22,.64,.05-1.48c.22,.7,.44,1.39,.54,1.34Z"/><path d="M110.11,117.86c.23,1.98-1.36,3.62-2.4,5.32-2.31,3.77-1.88,9.02,1.01,12.36-2.47-3.54-2.55-8.6-.21-12.23,.51-.79,1.13-1.52,1.53-2.37,.4-.85,.56-1.89,.06-3.07Z"/><path d="M102.81,129.48c1.56,.62,2.64,2.3,2.54,3.99,.32-.84,.22-1.83-.25-2.59s-1.31-1.29-2.29-1.4Z"/><path d="M103.64,128.71c.94,.84,1.77,1.81,2.43,2.89-.25-1.3-1.16-2.45-2.43-2.89Z"/><path d="M110.04,110.27c-2.46-2.01-3.28-5.51-2.98-8.69,.31-3.18,1.56-6.17,2.58-9.19,1.03-3.02,1.84-6.25,1.24-9.38,.97,2.69,.66,5.69,0,8.48-.66,2.79-1.67,5.5-2.06,8.34-.46,3.38-.03,6.87,1.21,10.44Z"/><path d="M111.97,88.71c.39,2.4-.14,4.86-.8,7.2s-1.44,4.68-1.58,7.11c-.13,2.43,.49,5.04,2.26,6.7-1.42-1.96-1.74-4.53-1.5-6.93,.23-2.41,.97-4.73,1.49-7.09,.52-2.36,.81-4.85,.13-6.99Z"/><path d="M111.93,97.5c.39,.9,.23,1.97-.18,2.86s-1.07,1.65-1.71,2.39c.39-.27,.79-.54,1.26-.62s1.01,.11,1.19,.54c.18,.41,0,.88-.18,1.28l-1.5,3.42c1-1.2,1.97-2.5,2.32-4.03,.12-.51,.15-1.09-.13-1.53s-.96-.65-1.34-.28c.53-.86,.9-1.82,1.08-2.82,.06-.34,.09-.71-.08-1s-.64-.42-.72-.21Z"/><path d="M106.55,106.81c-.79-1.71-2.06-3.22-3.72-4.09s-3.71-1.04-5.41-.25c-1.5,.7-2.62,2.08-3.28,3.61s-.9,3.21-1.01,4.87c.51-1.85,1.03-3.74,2.08-5.35,1.05-1.6,2.75-2.9,4.66-2.97,1.33-.05,2.63,.51,3.71,1.3,1.08,.79,1.97,1.81,2.97,2.88Z"/><path d="M102.46,104.11c-1.01-.93-2.52-1.19-3.84-.82s-2.43,1.31-3.19,2.46c-.76,1.14-1.19,2.48-1.44,3.84,.6-1.82,1.56-3.58,3.06-4.75,1.5-1.17,3.63-1.66,5.41-.72Z"/><path d="M106.65,107.7c-.81,2-1.81,4.02-3.5,5.37-1.68,1.35-4.21,1.85-6,.65,1.11,1.03,2.79,1.34,4.25,.95s2.71-1.41,3.57-2.67,1.33-2.74,1.68-4.3Z"/><path d="M107.86,107.48c-.99,.61-1.42,1.81-1.65,2.96-.23,1.14-.33,2.34-.92,3.35-1.06,1.81-3.48,2.44-5.53,2.02-2.05-.42-3.82-1.66-5.53-2.88,1.62,1.5,3.38,2.99,5.52,3.53s4.74-.14,5.76-2.11c.53-1.03,.57-2.24,.68-3.4,.12-1.16,.37-2.39,1.66-3.45Z"/><path d="M100.07,116.9c-.81,.22-1.68-.06-2.38-.53s-1.26-1.1-1.86-1.69-1.26-1.15-2.05-1.42c.86,.31,1.5,1.03,2.06,1.75s1.12,1.49,1.9,1.96,1.88,.56,2.33-.08Z"/><path d="M85.83,115.16c-.75-1.72-1.72-3.38-3.14-4.6-1.42-1.22-3.34-1.95-5.18-1.6-1.79,.34-3.29,1.67-4.15,3.29-.86,1.62-1.13,3.49-1.12,5.33,.24-1.88,.89-3.74,2.09-5.2s2.98-2.48,4.87-2.54,3.81,.97,4.65,2.67c-1.14-1.31-2.81-2.14-4.54-2.23,1.42,.42,2.76,1.11,3.92,2.01-1.33-.8-2.86-1.25-4.41-1.3l4.23,1.68c-2.18-1.4-5.19-1.36-7.32,.11-2.14,1.46-3.28,4.26-2.78,6.82,.13-2.88,2.12-5.6,4.83-6.57s5.95-.15,8.07,2.14Z"/><path d="M77.8,110.83c-2.87,.91-5.05,3.68-5.28,6.69-.05-1.55,.44-3.11,1.38-4.34s2.31-2.12,3.9-2.35Z"/><path d="M86.33,116.01c-1.32,.33-2.08,1.72-2.47,3.03-.39,1.31-.6,2.74-1.44,3.81-1.1,1.39-3.1,1.83-4.8,1.38s-3.13-1.66-4.2-3.06c1.32,.8,2.68,1.61,4.18,1.93,1.51,.33,3.22,.09,4.33-1,.93-.91,1.28-2.24,1.79-3.44,.5-1.2,1.35-2.43,2.62-2.66Z"/><path d="M83.72,118.44c-.89,1.51-2.44,2.62-4.16,2.97s-3.57-.07-4.98-1.11c3.15,1.25,7.03,.38,9.14-1.86Z"/><path d="M89.93,98.34c-.43,.49-.97,.87-1.49,1.26s-1.03,.82-1.39,1.37c-.35,.55-.52,1.25-.31,1.87s.89,1.08,1.52,.93c-.49-.49-1.01-1.06-1.01-1.75,0-.71,.56-1.29,1.1-1.75s1.14-.95,1.58-1.93Z"/><path d="M85.61,101.14c0-1.4-.95-2.76-2.27-3.22,.78,.74,1.33,1.72,1.54,2.78,.03,.17,.06,.35,.16,.49s.29,.24,.44,.17,.19-.35,.12-.22Z"/><path d="M84.51,104.61c.61-.66,.95-1.74,.4-2.46-.4-.52-1.12-.65-1.76-.75l-1.29-.19c.07,.42,.58,.61,1,.62s.9-.05,1.25,.2c.42,.3,.47,.89,.48,1.4,0,.37,.02,.74-.08,1.18Z"/><path d="M109.26,87.39c-.18,2.73-.88,5.43-2.05,7.9,1.26-1.98,2.13-4.23,2.51-6.55,.04-.27,.08-.55-.01-.8s-.37-.45-.45-.56Z"/><path d="M108.3,85.48c.3,2.37-.22,4.83-1.43,6.88,.3-1.13,.86-2.17,1.26-3.27s.62-2.33,.17-3.61Z"/><path d="M107.61,83.93c.04,2.3-.65,4.61-1.94,6.51,.91-2.13,1.4-4.44,1.44-6.75,.25-.04,.5,.12,.5,.24Z"/><path d="M106.47,82.58c.06,1.8-.57,3.62-1.73,4.99,.8-1.65,1.24-3.46,1.3-5.29,.35,.07,.6,.44,.44,.31Z"/><path d="M106.69,107.07c-1.14-1.02-2.37-1.97-3.79-2.52s-3.05-.69-4.46-.09c-.98,.42-1.79,1.16-2.44,2s-1.15,1.79-1.65,2.73c-.42,.79-.85,1.69-.56,2.53,.21,.63,.79,1.08,1.38,1.38,2.15,1.11,4.85,.84,6.94-.37,2.09-1.21,3.61-3.27,4.54-5.52-.75,.24-1.16,1.01-1.58,1.68-1.05,1.69-2.6,3.1-4.46,3.78s-4.04,.57-5.71-.51c-.37-.24-.73-.56-.79-.99-.05-.33,.1-.66,.24-.96,.82-1.69,1.87-3.33,3.39-4.42,1.52-1.09,3.6-1.54,5.3-.76,1.27,.58,2.22,1.78,3.65,2.04Z"/><path d="M93.47,110.75c.07,.3,.02,.64-.16,.89-.1,.14-.23,.27-.31,.42s-.12,.35-.01,.49c.14,.19,.42,.16,.65,.11l1.15-.25c-.2-.23-.52-.34-.81-.29-.15,.03-.33,.09-.44-.02-.07-.07-.07-.18-.04-.27s.09-.17,.15-.24c.13-.19,.24-.39,.32-.61,.03-.09,.06-.2,0-.29-.08-.13-.3-.11-.4,.01s-.11,.29-.09,.04Z"/><path d="M85.16,115.1c-1.14,2.15-3.14,3.83-5.44,4.58s-4.9,.55-7.07-.53c-.11,.31,.23,.58,.53,.72,2.04,.97,4.44,1,6.62,.41,1.26-.34,2.47-.9,3.45-1.77,.58-.52,1.07-1.14,1.55-1.76l.92-1.17c.08-.1,.15-.19,.2-.31,.08-.2,.04-.46-.11-.61s-.43-.18-.59-.04-.18,.44-.04,.48Z"/><path class="l" d="M83.29,124.57l.03,3.47"/><path class="l" d="M81.06,125.24l-.15,3.59"/><path class="l" d="M79.34,125.29l-.11,3.94"/><path class="l" d="M99.17,118.3l-.15,3.95"/><path class="l" d="M100.97,118.21c.14,1.32,.09,2.65-.15,3.95"/><path class="l" d="M103.32,117.86c-.03,1.36-.22,2.71-.57,4.02"/><path class="l" d="M98.48,128.21l.8,1.69"/><path class="l" d="M100.66,127.75l.71,1.54"/><path class="l" d="M102.41,127.36l.74,1.13"/><path class="l" d="M103.95,126.91l.67,1.2"/><path class="l" d="M92.14,132.06l.59,1.59"/><path class="l" d="M90.12,132.86l.78,1.83"/><path class="l" d="M88.39,133.7l.23,1.82"/><path class="l" d="M86.57,134.75l-.25,1.5"/><path class="l" d="M88.28,141.99v2.08"/><path class="l" d="M90.78,141.81l.31,2.28"/><path class="l" d="M88.34,145.77l.16,1.75"/><path class="l" d="M90.98,145.36l-.13,2.31"/><path class="l" d="M89.35,148.78l.21,2.14"/><path class="l" d="M91.9,151.67l.22,1.55"/><path class="l" d="M93.2,149.91l.02,1.66"/><path class="l" d="M95.24,148.96l.17,2.15"/><path class="l" d="M95.24,152.41l.16,1.39"/><path class="l" d="M93.71,145.78l.12,1.77"/><path class="l" d="M95.37,145.42l.06,1.61"/><path class="l" d="M95.34,142.31l.3,1.65"/><path class="l" d="M98.26,141.93l.34,1.87"/><path class="l" d="M98.36,139.67l.18,1.34"/><path class="l" d="M100.5,143.48l.48,2.13"/><path class="l" d="M98.1,145.84l-.07,1.38"/><path class="l" d="M100.13,146.93l.22,2.04"/><path class="l" d="M97.71,149.75l.11,1.86"/><path class="l" d="M99.64,150.92v1.32"/><path class="l" d="M103.35,146.03l.18,1.7"/><path class="l" d="M102.88,143.08l.47,1.5"/><path class="l" d="M103.15,140.08l.66,1.65"/><path class="l" d="M104.24,139.49l.64,1.48"/><path class="l" d="M104.01,136.95l.51,1.12"/><path class="l" d="M105.88,142.31l.6,1.49"/><path class="l" d="M105.02,144l.6,1.86"/><path class="l" d="M107.68,140.14l.58,1.55"/><path class="l" d="M106.76,137.45l.54,1.56"/><path class="l" d="M106.24,134.11l.8,1.42"/><path class="l" d="M108.31,136.91l.65,1.75"/><path class="l" d="M109.83,135.29l.55,1.6"/><path class="l" d="M110.42,133.26l.71,1.41"/><path class="l" d="M70.24,109.94c.65,5.82,1.73,11.59,3.24,17.24"/><path class="h" d="M203.78-29.24c-2.73,3.13-2.52,8.08-.5,11.72s5.46,6.22,8.94,8.45,7.15,4.29,10,7.3c6.23,6.6,7.42,16.44,11.54,24.56,.79,1.55,2.79,3.2,3.92,1.89,.6-.69,.4-1.75,.15-2.63-3.25-11.45-8.38-22.35-15.13-32.12,6.68,3.05,11.36,9.28,15.15,15.63,3.79,6.34,7.04,13.14,12.14,18.46-3.67-15.34-12.07-29.49-23.74-39.98,7.56,1.93,13.47,7.89,18.08,14.24,4.61,6.35,8.38,13.39,13.79,19.07-4.57-15.69-14.52-29.73-27.75-39.15,8.99,4.02,16.78,10.75,22.1,19.11,.5,.78,1,1.6,1.78,2.08s1.93,.5,2.5-.22c.72-.91,.12-2.25-.52-3.22-8.35-12.79-21.14-22.55-35.59-27.17-3.1-.99-6.33-1.76-9.57-1.46-3.23,.3-6.09,2.07-7.28,3.44Z"/><path class="l" d="M202.07-29.28c-1.48,3.55-.67,7.75,1.29,11.05,1.96,3.3,4.95,5.84,8.02,8.12,3.07,2.28,6.29,4.4,8.99,7.12,7.17,7.25,9.7,17.83,14.54,26.84,.42,.79,1.22,1.69,2.02,1.3,.74-.36,.64-1.44,.41-2.23-1.32-4.57-3.23-8.94-5.13-13.29-3.38-7.75-6.93-15.75-12.1-21.81,7.21,2.77,12.52,9.08,16.56,15.72,4.04,6.64,7.17,13.87,11.8,20.1,.66-.34,.98-1.16,.94-1.91s-.36-1.46-.67-2.14c-2.96-6.34-6.16-12.56-9.59-18.65-3.82-6.77-8.34-13.74-14.13-17.49,9.14,2.42,17.23,8.63,21.98,16.89,2.59,4.49,4.2,9.51,6.81,13.99,.32,.55,.84,1.17,1.45,1.01,.81-.22,.69-1.42,.37-2.21-2.82-7.04-6.13-13.93-10.56-20.07-4.43-6.13-10.03-11.51-16.49-15.13,10.7,3.6,20.11,11,26.18,20.61,.34,.54,1.01,1.15,1.49,.73,.36-.32,.18-.91-.04-1.34-5.39-10.64-15.41-18.08-25.73-23.91-6.56-3.7-13.69-6.98-21.2-6.89-1.58,.02-3.21,.21-4.6,.97s-2.47,2.23-2.62,2.6Z"/><path class="l" d="M229.18,3.58c-.22-.42-.67-.69-1.14-.72s-.94,.15-1.29,.45-.61,.73-.76,1.17"/><path class="l" d="M227.02,5.96c.32,.41,.79,.69,1.3,.74s1.04-.17,1.34-.59,.34-1.03,.05-1.45"/><path class="l" d="M229.4,4.21c-.38-.26-.88-.35-1.32-.24s-.85,.41-.98,1.17c.31,.25,.76,.32,1.13,.19s.68-.46,1.17-1.12Z"/><path class="l" d="M236.3,2.44c-.26-.68,.07-1.54,.73-1.85s1.52-.02,1.87,.62"/><path class="l" d="M237.01,2.86c.06-.31,.25-.6,.52-.77s.6-.23,.91-.15"/><path class="l" d="M236.97,3.47c.3,.3,.71,.51,1.13,.53s.86-.13,1.15-.45,.41-.79,.27-1.2"/><path class="l" d="M236.97,2.64c.19,.36,.65,.55,1.04,.42s.64-.57,.56-.97"/><path class="l" d="M237.25,22.82c-.24-.41-.38-.88-.58-1.31s-.47-.86-.88-1.09-.99-.23-1.31,.11c-.32,.34-.31,.86-.23,1.32,.22,1.23,.84,2.39,1.76,3.24,.17,.16,.39,.32,.61,.28,.35-.06,.45-.51,.46-.86,.02-.95-.11-1.91,.17-1.69Z"/></g></g></g></g></svg>