<?xml version="1.0" encoding="UTF-8"?><svg xmlns="http://www.w3.org/2000/svg" xmlns:xlink="http://www.w3.org/1999/xlink" viewBox="0 0 240.49 240.49"><defs><style>.h,.i,.j{fill:#fff;}.k,.j{stroke:#000;}.k,.j,.l,.m,.n{stroke-miterlimit:10;stroke-width:.25px;}.i{opacity:.94;}.o{fill:#efc5ba;}.l{opacity:.81;}.l,.m,.n{stroke:#fff;}.p{clip-path:url(#e);}.n{opacity:.87;}.q{filter:url(#f);}</style><clipPath id="e"><circle class="o" cx="120.24" cy="120.24" r="120.24"/></clipPath><filter id="f" filterUnits="userSpaceOnUse"><feOffset dx="5.67" dy="11.34"/><feGaussianBlur result="g" stdDeviation="0"/><feFlood flood-color="#000" flood-opacity=".5"/><feComposite in2="g" operator="in"/><feComposite in="SourceGraphic"/></filter></defs><g id="a"/><g id="b"><g id="c"><circle class="o" cx="120.24" cy="120.24" r="120.24"/></g><g id="d"><circle class="o" cx="120.24" cy="120.24" r="120.24"/><g class="p"><g class="q"><path d="M89.6,50c-5.63-1.46-8.26-7.73-10.49-13.11-2.22-5.38-6.06-11.41-11.88-11.27-3.68,.09-6.87,2.87-8.51,6.16-1.64,3.3-2.01,7.06-2.28,10.73-4.22,55.71,6.36,111.36,16.89,166.23,.22,1.15,2.85,2.66,3.58,3.58,2,2.53,7.75,2.73,6.74-10.73l-9.53-127.12c-.26-3.48,.14-7.99,3.49-8.98,4.56-1.35,7,5.32,11.03,7.85,3.98,2.49,9.76,.14,11.78-4.09,2.02-4.24,.8-9.5-2.06-13.23-2.86-3.73-7.09-6.15-8.77-6.02Z"/><path d="M84.17,209.18c.21-3.74,.32-8.09-2.89-10.02-3.06-1.84-7.26,.07-9.15,3.09-1.89,3.03-2.08,6.78-2.23,10.34l-5.47,137.38c-.14,3.44-.25,7.01,1.12,10.17,1.37,3.16,4.68,5.75,8.06,5.12,2.69-.5,4.71-2.9,5.56-5.49,.86-2.6,.77-5.4,.68-8.13-1.5-46.29,4.2-132.88,3.8-129.96"/><path class="j" d="M149.84,83.95c-5.68-18.9-8.01-38.81-6.83-58.51l-12.77,7.74c-8.19,4.97-16.61,10.02-26.01,11.85-9.4,1.82-20.16-.22-26.35-7.53,8.48,15.71-.81,34.86-.18,52.7,.86,24.09,19.61,43.49,27.52,66.26,6.58,18.95,8.55,39.26-.6,56.94-1.16,2.25-1.96,4.62-3.56,6.85-.46,.64-7.49,7.85-7.49,7.85,0,0,4.42-2.17,5.37-2.17,.73,0-2.86,4.79-2.86,4.79,0,0,4.57-2.32,4.45-1.92-4.44,16.39-13.92,32.45-4.3,44.27,13.9,8.69,31.19,11.46,47.31,8.49,8.28-1.53,16.66-4.76,22.09-11.2,5.43-6.44,6.97-16.65,1.77-23.28l3.53,.28c-2.79-27.84-1.68-55.91-3.36-83.84-1.68-27.92-16.74-76.14-17.72-79.57Z"/><path d="M142.3,53.19c2.18,2.42,4.79,4.41,7.02,6.78,2.23,2.37,4.13,5.27,4.38,8.51l-5.38-7.24c1.61,3.55,2.61,7.36,2.96,11.24-.86-2.43-2.13-4.71-3.73-6.73,1.28,2.33,2.13,4.9,2.51,7.53-2.93-2.22-4.36-5.9-5.14-9.49-.77-3.59-1.04-7.32-2.62-10.6Z"/><path class="m" d="M139.34,28.76c.83-1.44,1.71-2.93,3.1-3.84s3.46-1.01,4.57,.22c.9,.99,.92,2.5,.55,3.78-.04-.51-.69-.77-1.17-.6s-.8,.62-1.07,1.04c-3.62,5.72-4.22,13.24-1.55,19.46,1.13,2.63,2.8,5.02,3.79,7.72,.99,2.69,1.19,5.92-.5,8.24,.26-5.8-3.59-10.88-5.53-16.35-2.23-6.29-1.92-13.16-2.18-19.67Z"/><path d="M144.22,72.66c-.52,1.39,.05,2.94,.66,4.29,.61,1.35,1.3,2.81,.99,4.27,.12-1.68,.23-3.42-.35-5-.47-1.29-1.38-2.48-1.31-3.55Z"/><path d="M144.75,70.77c-1.02-2.38-3.57-4.01-6.16-3.94s-5.04,1.85-5.92,4.29c1.46-.93,2.95-1.87,4.6-2.37,1.66-.5,3.54-.51,5.04,.36,.8,.46,1.58,1.19,2.43,1.66Z"/><path d="M144.93,69.82c-1.16-.99-2.05-2.25-2.96-3.47-.91-1.22-1.87-2.44-3.12-3.31-1.25-.87-2.85-1.35-4.32-.96,1.51-.11,2.95,.68,4.05,1.72,1.09,1.04,1.92,2.32,2.88,3.49s2.1,2.26,3.47,2.52Z"/><path d="M145.92,71.75c-1.8-1.07-4.2-1.06-6,.03s-2.91,3.21-2.8,5.3c.94-1.63,2.03-3.25,3.6-4.3,1.56-1.06,3.69-1.46,5.2-1.02Z"/><path d="M109.64,159.49c1.98,1.23,4.32,1.87,6.65,1.81,.74-.02,1.58-.16,2.01-.76-2.88,.5-5.95-.12-8.41-1.7-.28,.3-.24,.83-.25,.65Z"/><path d="M108.74,169.73c1.14,1.01,2.11,2.19,3.2,3.25s2.33,2.03,3.79,2.46c1.46,.43,3.17,.25,4.3-.78-4.41-1.13-8.45-3.63-11.29-4.94Z"/><path d="M111.57,176.87c2.3,4.29,6.28,7.64,10.89,9.2-5.34-.98-10.08-4.76-12.21-9.75,.58-.11,1.16,.26,1.32,.55Z"/><path d="M154.92,119.98c.65,12.96-5.36,26.08-15.6,34.05-4.23,3.29-9.47,5.8-14.8,5.2,8.68-1.88,16.11-7.84,21.12-15.18,5.01-7.34,7.8-15.98,9.27-24.07Z"/><path d="M156.62,135.73c-1.43,13.16-9.41,25.44-20.85,32.1-1.9,1.1-4.14,2.08-6.22,1.4,7.31-1.53,13.42-6.75,17.62-12.92,4.2-6.17,6.76-13.29,9.45-20.58Z"/><path d="M158.79,151.97c-2.64,10.14-10.57,17.91-18.16,25.12,10.75-3.97,18.53-14.91,18.76-26.37-.4,.99-.79,1.97-.6,1.25Z"/><path class="h" d="M166.44,242.05l-10.16-8.74-44.39-13.39-8.02-3.53-3.47,4.76-7.44,7.09c2.91-.63,5.61-2.22,7.59-4.46-1.47,2.93-3.46,5.61-5.86,7.85,4.08-3.6,9.62-5.24,15.05-5.45,5.44-.21,10.84,.9,16.12,2.2,9.08,2.24,18.24,5.22,25.48,11.15-.44-.54-.89-1.12-.97-1.82s.42-1.49,1.12-1.46c.67,.03,1.08,.73,1.35,1.34l2.38,5.25c-1.01-.12-.6-1.93,.41-2.04s1.84,.75,2.5,1.53l2.37,2.81-.32-2.6c2.86,2.77,6.76,4.44,10.74,4.51l-4.5-5Z"/><path class="k" d="M100.53,228.81c-1.78,7.86-5.23,14.51-6.91,22.39s-1.05,16.96,4.56,22.75c3.95,4.07,9.67,5.82,15.18,7.17,8.64,2.11,17.64,3.62,26.4,2.07,8.59-1.52,16.37-5.88,23.96-10.17,1.73-.98,3.57-2.06,4.43-3.86,.67-1.39,1.7-3.67,2.13-5.15,1.27-4.36,.5-6.72-.13-11.07-.29-2.02-1.88-4.02-2.76-5.86-1.18-2.47-3.5-4.22-5.87-5.6-12.79-7.46-26.93-12.6-41.53-15.09-6.88-1.17-14.91-.79-19.47,2.41Z"/><path d="M147.17,27c-4.89,1.59-9.63,3.99-13.13,7.75-3.5,3.76-5.62,9.03-4.74,14.1,.87,5.06,5.16,9.6,10.29,9.92,4.32,.28,8.64-2.25,12.84-1.19,6.04,1.52,7.94,9.02,8.7,15.21,5.6,45.83,10.03,90.19,11.53,136.33,.14,4.3,2.95,8.49,6.24,8.36,3.5-.14,5.53-3.02,5.53-8,0-59.61,.62-114.76-10.29-173.37-.79-4.23-1.82-8.81-5.14-11.54-3.09-2.54-7.56-2.84-11.41-1.75-3.85,1.08-7.29,3.18-10.4,4.19Z"/><path d="M184.26,207.25c-.18-2.67-.64-7.46-6.47-7.46-4.94,0-5.18,5.52-5.17,7.15,.34,47.13,3.26,93.35,3.6,140.48,.03,3.73,.09,7.62,1.76,10.96,1.68,3.34,5.49,5.92,9.09,4.92,5.37-1.49,6.09-8.7,5.71-14.26-3.24-47.75-4.67-84.96-8.52-141.79Z"/><path class="m" d="M74.47,231.42l6.04-23.39,2.26,5.6,4.84-27.37,2.16,10.76,6.44-19.33,1.27,12.68,1.83-21.66,2.89,10.24,5.63-27.01c4.42,1.55,9.52-3.56,7.97-7.98-1-2.86-3.57-6.29-5.27-7.34-1.55-.95-1.72-9.85-.77-9.85,7.28,0,9.33-4.95,12.13-8.41,2.11-2.6,5.77-3.74,7.31-6.71,1.54-2.98,3.12-5.39,.26-7.14-2.71-1.66-8.48-2.1-11.54-1.06s-5.17,2.8-7.79,4.78c1.3-3.69-3.06-10.4-6.21-12.71-18.81-13.8-29.03-12.29-37.59-7.94-10,5.08-33.63,24.88-33.63,29.71,2.17-2.49,3.84-4.97,7.14-5.16-1.18,2.2-.48,3.55-.23,6.04-3.25-.8-9.58,.42-10.98,3.45-1.23,2.66,.09,5.43,2.81,6.52s7.56,1.13,9,3.68c1.44,2.55,3.63,3.09,5.76,4.92-2.44,1.76-4.95,3.59-6.48,6.18-1.54,2.59-1.85,6.15,.06,8.46,1.92,2.32,6.33,2.24,9.19,.1,4.34,14.49,7.27,29.4,8.73,44.46l4.15-8.13,1.06,17.51c1.74-2.36,2.87-5.18,3.24-8.09l.68,19.81,3.9-5.18c-.47,7.12,.72,14.34,3.45,20.93,.32-.6,.63-1.21,.27-1.38Z"/><path class="h" d="M127.98,109.73c-.08,1.27-.93,2.38-1.93,3.17s-2.17,1.34-3.22,2.06c-2.82,1.92-4.69,4.92-6.85,7.57-.53,.65-1.11,1.3-1.89,1.64-.77,.33-1.79,.24-2.31-.42-.82-1.05,.13-2.62,1.3-3.25s2.59-.83,3.57-1.73c1.52-1.39,1.55-4.04,3.3-5.12,.7-.43,1.55-.51,2.37-.62s1.67-.25,2.31-.78c.63-.52,.93-1.55,.41-2.19-.39-.48-1.07-.59-1.69-.58-2.53,.03-4.84,1.43-6.82,3.01-1.98,1.58-3.81,3.39-6.09,4.51-.41,.2-.93,.38-1.31,.11-.38-.27-.11-1.07,.31-.88l4.79-3.62c2.01-1.52,4.09-3.07,6.52-3.73,2.43-.66,5.34-.21,7.21,.87Z"/><path class="h" d="M108.16,126.72c.54-3.12,.44-6.32,.35-9.48l1.73,5.99c.13,.44,.26,.9,.19,1.35-.08,.56-.46,1.05-.92,1.39s-1,.55-1.34,.75Z"/><path class="h" d="M46.43,135.92l1.45-.1c-.22-4.31-1.45-8.56-3.56-12.32,1.11,3.06,2.23,6.3,1.6,9.49-.1,.52-.26,1.04-.23,1.57,.02,.53,.27,1.09,.74,1.32s1.18-.05,0,.03Z"/><path class="h" d="M44.56,134.25c.97-1.99,.35-4.48-1.03-6.2-1.39-1.72-3.42-2.81-5.47-3.63-1.81-.73-3.83-1.29-5.69-.72-.76,.23-1.51,.73-1.69,1.51-.2,.88,.46,1.75,1.26,2.15s1.73,.46,2.61,.6c3.63,.57,6.99,2.71,9.03,5.77-.59-1.39-1.18-2.8-2.09-4-.91-1.2-2.2-2.2-3.69-2.44-1.26-.21-2.56,.12-3.83-.02-.44-.05-.89-.17-1.25-.44s-.59-.73-.51-1.17c.16-.83,1.24-1.06,2.08-1.03,2.58,.09,5.12,.96,7.22,2.46,1.29,.92,2.51,2.41,2.11,3.94-.07,.28-.2,.55-.24,.84-.13,.96,.71,1.74,1.17,2.38Z"/><path class="h" d="M62.94,148.61l4.31,13.18c.07-1.66,.64-3.3,1.62-4.64,1.36,4.93,2.5,9.92,3.41,14.95-.31-4.02,.88-8.13,3.27-11.38l2.64,13.91c-.19-4.03,.23-8.09,1.24-11.99,.22-.86,.66-1.88,1.54-1.97,.99-.1,1.63,1.07,1.73,2.06s0,2.11,.65,2.87c-.92-5.06-.46-10.36,1.32-15.18,1.83,1.29,3.1,3.33,3.44,5.54-.33-1.62,.27-3.27,.61-4.89,.33-1.62,.29-3.56-.97-4.63-.82-.7-1.96-.85-3.03-.95-5.42-.5-10.91-.27-16.27,.69-2.1,.38-4.32,.94-5.5,2.44Z"/><path class="h" d="M99.77,152.98c-4.55,9.56-8.9,17.82-11.46,26.97-1.81-2.47-3.2-6.79-3.04-9.85-3.15,10.82-4.43,20.8-5.01,32.05-2.96-5.68-4.94-10.96-4.53-17.35-2.95,9.99-3.57,20.67-1.8,30.94-3.05-12.22-3.21-25.15-.44-37.43-2.91,8.6-3.23,11-4.77,17.87-.6-12.36-.29-22.63-3.77-33.95-.9,4.31-2.41,8.49-4.47,12.39,.73-7.52-.63-15.24-3.91-22.05,2.85,8.02,3.85,16.69,2.91,25.15,2.96-3.55,4.84-7.99,5.34-12.58,2.19,11.88,2.35,23.52,3.84,35.51,.02-5.18,2.13-10.05,3-15.15-1.76,11.09-.69,22.62,3.08,33.19-1.22-9.21-1.18-18.58,.12-27.78,1.08,5.19,3.31,10.05,5.98,14.63,.89-10.39,1.11-18.62,4.16-29.1,1.51,2.46,2.25,3.09,3.76,5.55,3.67-9.71,7.35-19.41,11-29Z"/><path class="l" d="M82.91,127.65c7.9,1.28,15.62,3.65,22.87,7.04,2.51,1.17,5.03,2.51,6.87,4.59,1.85,2.07,2.92,5.02,2.11,7.68-1.04,3.4-4.84,5.3-8.4,5.42-3.55,.12-6.99-1.1-10.43-2.01-15.9-4.19-32.72-1.63-48.89,1.33-2.4,.44-5.22,.77-6.97-.93-1.61-1.56-1.55-4.2-.73-6.29,1.82-4.67,6.46-7.55,10.95-9.77,10.17-5.04,21.63-8.83,32.63-7.06Z"/><path class="h" d="M57.12,135.95c-2.72-.86-5.96,.35-7.44,2.79-.21,.35-.38,.79-.17,1.14,.32,.5,1.08,.28,1.6,0l4.16-2.17c.44-.23,.88-.46,1.2-.83s.49-.92,.64-.93Z"/><path class="h" d="M47.98,141.11c-.44-.31-1.07-.32-1.53-.03-.3,.19-.53,.54-.47,.89,.06,.37,.46,.64,.83,.62s.72-.28,.9-.6,.23-.72,.26-.88Z"/><path class="h" d="M108.04,145c.45-.48,.4-1.27,.06-1.83s-.91-.93-1.47-1.28c-6.98-4.24-15.31-5.85-23.47-5.87-8.17-.02-16.25,1.47-24.27,3.04-3.31,.65-6.85,1.43-9.16,3.88-.6,.64-1.07,1.76-.37,2.31,.33,.26,.78,.25,1.2,.23,9.15-.43,18.21-1.99,27.34-2.7,9.13-.71,18.5-.54,27.18,2.39,.7,.24,1.44,.49,2.16,.33s1.36-.94,.81-.51Z"/><path d="M108.31,82.67c4.97-9.62,15.03-16.41,25.81-17.43-6.17-1.73-13.08-.57-18.34,3.08,4.19-8.26,8.57-16.77,15.77-22.6-4.71,.62-9.17,2.93-12.4,6.4,3.42-10.78,10.59-20.33,19.98-26.62-8.61,2.06-16.91,5.41-24.53,9.92,5-4.44,10.47-8.35,16.28-11.65-8.43-.1-16.88,2.66-23.62,7.72l13.5-13.03c-11.75,3.36-21.68,12.54-25.96,23.98-.27-3.32,.86-6.64,2.58-9.5,1.72-2.86,4.02-5.32,6.29-7.76-8.39,3.66-15.17,10.88-18.28,19.49-.72-5.34,.58-10.93,3.58-15.4-4.51,3.16-6.54,8.79-7.67,14.17s-1.69,11.03-4.32,15.87c-1.68,3.1-4.24,6-4.27,9.52-.02,2.85,1.72,5.5,4.01,7.2,2.29,1.7,5.07,2.6,7.83,3.29,4.99,1.26,2.52,3.73,7.58,2.76,5.06-.96,8.22,6.86,10.9,2.44-2.2,3.46,5.8-5.01,5.28-1.86Z"/><path class="h" d="M100.15,54.24l11.59-10.08c-1.91,4.39-3.82,8.77-5.73,13.19,.53-3.29,1.47-6.52,2.79-9.58-2.69,2.46-5.59,4.67-8.65,6.47Z"/><path class="h" d="M94.31,55.37c1.97-3.65,3.43-7.57,4.33-11.61-3.06,3.37-6.65,6.26-10.6,8.52,3.12-1.44,6.06-3.29,8.72-5.47-1.19,2.97-2.09,6.05-2.45,8.56Z"/><path class="m" d="M82.42,111.93c3.08,3.79,5.16,8.66,9.41,11.07,3.86,2.2,9.01,1.72,12.53-.98,3.52-2.71,5.31-7.43,4.66-11.82-.64-4.37-3.62-8.33-7.64-10.15-4.02-1.82-8.96-1.45-12.67,.95s-6.07,6.75-6.29,10.94Z"/><path class="n" d="M66.11,114.39c-1.13-3.41-3.6-6.39-6.83-7.98-3.23-1.58-7.18-1.69-10.42-.13s-5.65,4.8-6.04,8.38c-.28,2.53,.42,5.09,1.56,7.36,1.9,3.76,5.46,7.03,9.67,7.18,3.61,.13,7.02-2.11,9.01-5.13,1.99-3.02,3.99-6.84,3.05-9.68Z"/><path class="h" d="M106.18,106.56c-1.01-1.97-2.94-3.44-5.1-3.88,1.03,.41,1.78,1.29,2.55,2.1s1.65,1.61,2.56,1.78Z"/><path class="h" d="M100.12,101.76c-3.18-.67-6.58-.71-9.62,.45-3.04,1.16-5.68,3.63-6.53,6.77,3.67-5.04,10.2-7.84,16.15-7.22Z"/><path class="h" d="M105.21,114.1c-1.65,2.06-4.09,3.61-6.73,3.71,1.43,.25,2.94,0,4.21-.7,1.27-.7,2.29-1.84,2.51-3.01Z"/><path class="h" d="M100.53,118.24c-4.65,1.14-9.76,.26-13.76-2.37,2.1,1.27,4.26,2.5,6.64,3.12s5.01,.55,7.12-.74Z"/><path class="h" d="M107.49,111.62c.42,4.01-2.13,8.06-5.8,9.72-3.67,1.66-8.19,1.02-11.47-1.33,2.89,3.21,7.96,4.2,11.84,2.31,3.88-1.89,6.24-6.49,5.42-10.7Z"/><path class="i" d="M107.38,109.93c-1.82-3.28-5.21-5.63-8.91-6.21s-7.65,.65-10.37,3.22c-1.3,1.22-2.34,2.73-3.79,3.75-.65,.45-1.48,1.09-1.19,1.83,.24,.62,1.07,.68,1.73,.79,1.2,.21,2.25,.93,3.33,1.51,3.26,1.74,7.17,2.23,10.76,1.34,3.59-.89,6.82-3.15,8.46-6.23Z"/><path class="h" d="M64.95,116.95c.42,.08,.84-.26,.95-.68s-.06-.86-.34-1.19-.65-.55-1.03-.76c-2.4-1.28-5.18-1.8-7.89-1.58-2.71,.22-5.34,1.18-7.63,2.66-1.39,.9-2.71,2.06-3.31,3.61-.25,.66-.36,1.42-.05,2.05,.36,.74,1.22,1.12,2.03,1.2s1.64-.1,2.46-.17c1.33-.12,2.67,.03,3.99-.12,2.04-.23,3.93-1.17,5.71-2.19,1.78-1.03,3.51-2.17,5.11-2.83Z"/><path d="M104.36,107.04c-1.13-.93-2.56-1.41-3.97-1.78-2.32-.62-4.79-1.02-7.1-.38-2.14,.59-3.93,2-5.67,3.37l-4.04,3.2c-.33,.26-.7,.59-.7,1.02,0,.38,.31,.71,.66,.86s.74,.17,1.12,.22c1.53,.2,2.94,.91,4.41,1.41,5.59,1.91,13.11-.56,16.22-3.3,.28-.25,.63-.68,.54-1.12-2.72,2.4-6.23,3.95-9.82,4.4-3.6,.45-7.32-.2-10.55-1.86-.44-.22-.94-.59-.86-1.08,.05-.29,.3-.51,.53-.69,3.29-2.64,6.85-5.4,11.05-5.76,3.87-.34,8.66,.94,9.61,4.74,0,.01-.3-2.31-1.43-3.25Z"/><path d="M95.02,107.28c-.36-.62-1.16-.9-1.86-.74s-1.28,.67-1.62,1.3-.48,1.35-.51,2.06c-.05,.96,.06,1.92,.32,2.84,.13,.47,.32,.94,.67,1.28,.59,.57,1.55,.62,2.28,.26s1.25-1.06,1.56-1.81c.6-1.45,.49-3.17-.28-4.53-.13-.23-.34-.48-.61-.43-.19,.04-.32,.23-.34,.43s.03,.39,.08,.57c.24,.89,.31,1.82,.23,2.74-.04,.49-.14,.99-.42,1.39s-.78,.68-1.26,.58c-.37-.08-.67-.38-.84-.72-.17-.34-.24-.73-.3-1.1-.13-.84-.24-1.72,.06-2.52,.3-.8,1.13-1.46,1.96-1.26,.21,.05,.42,.15,.63,.1s.33-.38,.24-.42Z"/><path d="M57.5,117.76c.09-.88,.14-1.79-.13-2.63s-.93-1.61-1.8-1.77c-1.01-.18-2,.5-2.62,1.31-.9,1.16-1.33,2.67-1.19,4.13,.11,1.15,.67,2.37,1.74,2.81,1.01,.42,2.24,0,2.96-.82s.99-1.97,.95-3.06c0-.22-.06-.48-.26-.57-.31-.14-.58,.26-.66,.59-.15,.59-.18,1.21-.4,1.78-.22,.57-.67,1.1-1.28,1.17-.47,.05-.93-.2-1.23-.56-.3-.36-.45-.83-.52-1.29-.16-.97-.01-1.98,.41-2.86,.28-.59,.73-1.16,1.35-1.37s1.43,.05,1.64,.68c.1,.29,.06,.61,0,.91s-.12,.61-.08,.91,.23,.61,.52,.69,.66-.16,.61-.05Z"/><path d="M65.69,116.66c.37-.17,.53-.59,.48-.99s-.3-.75-.57-1.04c-.77-.86-1.82-1.42-2.9-1.83-2.48-.96-5.22-1.22-7.84-.76-2.62,.46-5.1,1.65-7.11,3.4-1.17,1.02-2.2,2.26-2.75,3.72-.21,.55-.35,1.14-.29,1.72,.06,.58,.36,1.17,.86,1.47,.74,.44,1.67,.21,2.52,.1,2.09-.26,4.21,.33,6.3,.12,1.99-.21,3.83-1.14,5.53-2.2,1.7-1.06,3.23-2.04,4.93-3.09,.16-.1,.76-.59,.76-.59,0,0-.26,.04-.9,.28-2.15,.83-3.71,1.89-5.74,2.99s-4.29,1.95-6.59,1.77c-1.49-.12-2.98-.68-4.46-.39-.61,.12-1.33,.35-1.79-.07-.49-.44-.28-1.24,.03-1.82,1.1-2.09,2.95-3.74,5.08-4.77,2.13-1.03,4.51-1.46,6.88-1.44,1.46,.01,2.94,.2,4.32,.7,1.38,.5,2.32,.85,3.22,2,0,0,.33,.47,.02,.72Z"/><path class="h" d="M65.31,113.65c-2.55-3.27-6.85-5.08-10.97-4.62-4.12,.46-7.92,3.17-9.7,6.91-.48,1.01-.82,2.11-.84,3.23,0,.17,.02,.37,.17,.44,.24,.13,.47-.2,.56-.46,.59-1.73,1.42-3.39,2.59-4.8,1.16-1.41,2.67-2.56,4.4-3.16,2.53-.88,5.33-.53,7.93,.09,2.1,.5,4.22,1.22,5.87,2.36Z"/><path class="h" d="M52.94,108.17c-3.8,.35-7.34,2.83-8.97,6.28,.42-2.02,1.64-3.87,3.34-5.05,1.7-1.18,3.86-1.68,5.63-1.23Z"/><path class="h" d="M65.53,117.28c-1.08,.13-1.97,.88-2.83,1.55-1.38,1.1-2.84,2.12-4.43,2.89s-3.32,1.28-5.09,1.32c-1.97,.05-3.94-.48-5.9-.26-.07,.08-.03,.21,.05,.27s.19,.08,.29,.09l2.55,.33c1.67,.21,3.37,.43,5.04,.16,2.25-.36,4.28-1.59,6.03-3.05,1.39-1.15,2.67-2.48,4.27-3.3Z"/><path class="h" d="M65.2,118.09c-.41-.04-.81,.18-1.11,.47s-.5,.65-.73,1c-1.05,1.62-2.5,2.99-4.19,3.95,1.4-.12,2.55-1.15,3.43-2.26,.87-1.1,1.61-2.35,2.6-3.15Z"/><path class="h" d="M57.4,124.45c-.74,.64-1.74,.91-2.72,.93s-1.95-.18-2.9-.38c-1.49-.31-3.02-.64-4.31-1.46,1.15,1.52,2.97,2.51,4.86,2.66s3.85-.54,5.08-1.75Z"/><path class="m" d="M100.47,91.27c4.54-.52,7.89-4.31,10.84-7.8,2.95-3.49,6.48-7.19,11.04-7.41-6.96-.42-14.04,1.62-19.7,5.69,2.1-5.05,5.89-9.39,10.61-12.14-5.79,.99-11.33,3.41-15.99,6.99,1.44-6.11,5.34-11.61,10.63-14.99-8.15,1.14-16.01,4.28-22.69,9.08-.35-5.47,1.52-11.04,5.11-15.19-6.28,2.67-11.81,7.08-15.81,12.61-.69-5.98,.17-12.14,2.48-17.7-7.91,4.56-13.71,12.65-15.47,21.61-3.93-2.36-8.61-3.44-13.18-3.04,4.94,2.28,8.64,7.08,9.56,12.45-3.26,0-6.48-1.57-8.51-4.12,1.66,3.56,4.55,6.54,8.06,8.31-5.96-2.38-13.17-1.27-18.13,2.8,4.08-.81,8.55,.97,10.95,4.37-4.87-2.19-11.35,.91-12.7,6.07,4.61-3.19,10.67-2.89,16.21-3.76,4.79-.75,9.37-2.44,14.02-3.82,4.65-1.38,9.49-2.48,14.31-1.98,4.82,.5,9.66,2.81,12.92,6.76,1.2-.04,2.4-.07,5.42-4.8Z"/><path class="m" d="M77.59,89.24c-5.97,3.08-9.98,9.63-10,16.35-1.88-4.41-1.73-9.64,.41-13.93-4.26,4.36-6.44,10.67-5.77,16.74-2.62-4.32-3.48-9.67-2.22-14.43-3.3,2.8-5.7,6.65-6.77,10.84-2.27-4.56-1.25-10.54,2.41-14.08-5.2,3.03-8.85,8.58-9.58,14.55-1.01-3.63-.59-7.64,1.1-11,.06-.16-.21-.31-.31-.17s.12,.35,.26,.25c-3,.19-5.88,1.84-7.51,4.37,1.96-3.29,5.01-5.93,8.64-7.33,2.93-4.42,7.21-7.93,12.11-9.95-1.26-.95-2.67-1.68-4.17-2.17,5.04-2.29,11.26-1.75,15.83,1.37,1.89-4.1,5.25-7.51,9.33-9.44-2.26,2.88-4.03,6.14-5.22,9.6,6.41-2.01,13.74-.82,19.41,3.35,2.18-1.15,4.82-1.37,7.16-.6s4.34,2.51,5.42,4.72c-5.06-.82-10.26-.78-15.31,.11,4.14-.67,8.5,.15,12.11,2.28,3.61,2.13,6.44,5.54,7.87,9.48-5.01-2.26-10.33-3.82-15.77-4.63,3.97,.61,7.5,3.47,8.93,7.22-4.32-4.47-10.04-7.26-15.64-9.96,2.97,1.17,4.85,4.59,4.25,7.72-2.04-3.3-4.74-6.2-7.9-8.46,1.52,2.87,1.51,6.5-.03,9.36,.31-3.55-.69-7.2-2.77-10.09,1.99,3.98,1.76,8.98-.57,12.76-.29-5.31-2.64-10.49-5.68-14.82Z"/><path class="k" d="M55.41,139.68c.38,1.92,.57,3.89,.58,5.85"/><path class="k" d="M60.83,137.83c.45,2.54,.71,5.12,.78,7.7"/><path class="k" d="M67.59,135.97c.9,2.73,1.3,5.63,1.17,8.5"/><path class="k" d="M73.33,135.57c.91,2.68,1.31,5.53,1.16,8.35"/><path class="k" d="M81.79,133.62c1.17,2.98,1.5,6.3,.93,9.45"/><path class="k" d="M87.4,134.53c.98,2.86,1.14,6,.47,8.94"/><path class="k" d="M94.36,135.18c.74,3.13,.83,6.41,.27,9.58"/><path class="k" d="M101.15,137.13c.84,2.82,.87,5.87,.07,8.7"/><path class="k" d="M104.7,139.48c.37,2.39,.02,4.9-.99,7.1"/><path class="m" d="M73.76,97.21c-3.04,5.88-5.31,12.15-6.73,18.61-1.31,5.93-1.85,12.37,.75,17.85,1.61,3.4,5.13,6.46,8.78,5.57,2.47-.6,4.24-2.89,4.93-5.34,.69-2.44,.49-5.04,.24-7.57-.92-9.4-2.4-18.75-7.97-29.13Z"/></g></g></g></g></svg>