<?xml version="1.0" encoding="UTF-8"?><svg xmlns="http://www.w3.org/2000/svg" viewBox="0 0 616.47 581.24"><defs><style>.f,.g{fill:#fff;}.h{font-family:Avenir-Medium, Avenir;font-size:28px;}.i{opacity:.97;}.i,.g,.j{stroke-miterlimit:10;stroke-width:.75px;}.i,.j{stroke:#fff;}.g{stroke:#000;}.k{fill:#f6c67b;}.l{font-family:Moonlights-on-the-Beach, Moonlights on the Beach;font-size:88px;}.m{fill:#eb566a;}</style></defs><g id="a"/><g id="b"><g id="c"><circle class="m" cx="285.23" cy="283.4" r="283.24"/></g><g id="d"><g><circle class="m" cx="290.62" cy="290.62" r="290.62"/><g><path class="j" d="M292.87,269.92c.32-4.14-2.93-6.61-6.54-8.51-3.62-1.9-8.73-1.99-12.45-.21-5.64,2.7-7.02,8.39-7.88,13.42-5.75,33.87-11.49,67.74-17.24,101.62-1.18,6.97-2.25,14.46,2.08,20.66,4.33,6.2,16.41,9.65,23.02,4.76-4.47-.2-8.84-1.47-12.35-3.58,6.36,1.27,13.65-2.21,14.93-7.12-4.09,2.39-9.4,3.53-14.52,3.12,6.06,.29,11.63-4.39,10.66-8.95-.59,4.31-9.55,5-13.28,1.73-3.74-3.27-3.53-8.12-2.88-12.43,4.01-26.56,16.92-51.79,28.94-76.91,4.64-9.69,7.51-19.42,7.51-27.59Z"/><path class="j" d="M266.13,219.63c.04,6.07-.68,12.14-2.12,18.04"/><path class="j" d="M272.43,222.28c.22-3.81-2.05-6.09-4.59-7.84-2.54-1.75-6.13-1.83-8.74-.19-3.96,2.48-4.93,7.73-5.53,12.37-4.03,31.22-8.07,62.43-12.1,93.65-.83,6.42-1.58,13.33,1.46,19.04,3.04,5.72,11.52,8.9,16.17,4.39-3.14-.19-6.21-1.36-8.67-3.3,4.47,1.17,9.59-2.03,10.48-6.56-2.87,2.2-6.6,3.25-10.19,2.88,4.25,.27,8.17-4.04,7.49-8.25-.41,3.98-6.7,4.61-9.33,1.59s-2.48-7.48-2.02-11.45c2.81-24.48,11.88-47.73,20.32-70.88,3.26-8.93,5.27-17.9,5.27-25.43Z"/><path class="j" d="M282.66,268.77c.21,8.13-1.65,16.31-5.36,23.55"/><path class="j" d="M278.16,479.94c13.05-27.18,21.24-56.83,24.04-87.01,.4-4.27,.67-8.67-.63-12.74-1.31-4.07-4.56-7.76-8.7-8.24-6.23-.72-10.98,5.62-13.41,11.56-3.98,9.72-5.5,20.3-6.7,30.77-2.36,20.73-3.27,61.37-3.55,62.47-.66,2.53-1.29,5.15,.04,6.7,.71,.83,.87,28.26,2.12,42.34,.57,6.41,1.21,13.12-1.13,19.09-3.41,8.68-12.16,13.61-20.28,17.85l24.22-2.82,1.05-10.78c1.6,3.85,1.68,11.52,1.68,11.52,0,0,2.52,.03,2.86,.03,1.12-9.99,.95-20.05,2.07-30.04,1.94-17.32,3.73-35.67-3.68-50.7Z"/><path class="f" d="M290.65,389.47c3.32,7.07,3.49,15.64,.44,22.84,2.08-2.25,3.95-4.76,5.1-7.62,1.15-2.87,1.54-6.14,.64-9.1s-3.19-5.55-6.18-6.12Z"/><path class="f" d="M274.32,474.95c-1.08,2.77-1.3,5.88-.61,8.78-.9-1.08-1.57-2.38-1.93-3.75-.33-1.26-.39-2.7,.34-3.77l.35,.78c.64-.49,1.28-.99,1.86-2.03Z"/><path class="j" d="M328.33,239.92c-24.66-7.25-51.15,10.84-61.92,34.18-10.77,23.34-9.58,50.25-7.3,75.86,2.07,23.16,5.48,47.74,20.54,65.45,15.25,17.94,41.06,25.43,64.07,20.42,23-5.01,42.74-21.58,53.61-42.47,10.87-20.89,13.25-45.64,8.75-68.75-7.39-37.96-33.66-71.73-77.75-84.69Z"/><path class="f" d="M381.54,302.84c-1.95-13.92-9.47-26.43-17.8-37.75-2.34-3.18-4.89-6.41-8.47-8.08-3.57-1.67-8.44-1.24-10.7,1.99-2.01,2.88-1.3,6.98,.69,9.87s5,4.88,7.86,6.93c10.62,7.6,20.04,16.87,28.43,27.05Z"/><path class="f" d="M384.14,308.17c-1.18-.09-1.95,.22-2.22,1.85-.28,8.62,1.59,17.31,5.4,25.05,.35,.71,1.02,1.26,1.8,1.38,1.87,.28,2.59-1.85,2.76-3.52,.53-5.16,.29-10.41-.73-15.5-.38-1.9-.89-3.84-2.08-5.37-1.02-1.32-1.63-2.4-2.9-3.13-.59-.34-1.73-.74-2.04-.76Z"/><path class="i" d="M307.01,143.73c-9.09-3.05-19.44,.55-26.48,7.06-7.04,6.5-11.28,15.48-14.46,24.52-6.21,17.66-9,36.52-8.16,55.22,.42,9.5,2.11,19.69,8.8,26.45,8.58,8.66,22.41,8.9,34.47,7.12,17.6-2.6,36.36-9.56,44.84-25.2,4.88-9.01,5.63-19.81,4.03-29.93-1.6-10.12-5.38-19.76-9.16-29.28-3.48-8.76-7.08-17.68-13.23-24.82-6.15-7.14-15.42-12.28-20.64-11.13Z"/><path class="f" d="M332.9,181.79c-2.19-10.73-7.07-20.9-14.07-29.32-1.32-1.58-2.78-3.16-4.7-3.9-1.92-.74-4.41-.39-5.57,1.31-1.78,2.62,.5,6.02,2.66,8.33,7.25,7.74,14.5,15.48,21.67,23.58Z"/><path class="f" d="M335.25,188.85c-2.34,.08-3.73,3.46-2.14,5.18,1.59,1.72,5.04,.65,5.39-1.67s-2.57-4.38-3.26-3.51Z"/><path class="j" d="M335.73,480.38c13.9-28.14,22.62-58.83,25.61-90.07,.42-4.42,.72-8.98-.67-13.19s-4.86-8.03-9.27-8.53c-6.64-.75-11.7,5.81-14.29,11.97-4.24,10.06-5.86,21.01-7.14,31.86-2.52,21.46-3.48,63.53-3.79,64.67-.7,2.62-1.37,5.33,.04,6.94,.76,.86,.93,29.26,2.26,43.83,.61,6.64,1.29,13.58-1.21,19.76-3.63,8.99-12.96,14.09-21.6,18.48l25.81-2.92,1.12-11.16c1.7,3.98,1.79,11.93,1.79,11.93,0,0,2.69,.03,3.05,.03,1.19-10.34,1.01-20.76,2.2-31.1,2.06-17.93,3.97-36.92-3.92-52.49Z"/><path class="f" d="M349.04,386.72c3.54,7.32,3.71,16.19,.47,23.65,2.22-2.33,4.21-4.92,5.44-7.89,1.23-2.97,1.64-6.35,.68-9.42-.96-3.07-3.4-5.74-6.59-6.33Z"/><path class="f" d="M331.64,475.21c-1.15,2.86-1.39,6.09-.66,9.09-.96-1.12-1.67-2.46-2.06-3.89-.35-1.3-.41-2.8,.36-3.91l.37,.81c.68-.51,1.37-1.02,1.98-2.1Z"/><path class="j" d="M312.13,224.34c.22-3.81-2.05-6.09-4.59-7.84-2.54-1.75-6.13-1.83-8.74-.19-3.96,2.48-4.93,7.73-5.53,12.37-4.03,31.22-8.07,62.43-12.1,93.65-.83,6.42-1.58,13.33,1.46,19.04,3.04,5.72,11.52,8.9,16.17,4.39-3.14-.19-6.21-1.36-8.67-3.3,4.47,1.17,9.59-2.03,10.48-6.56-2.87,2.2-6.6,3.25-10.19,2.88,4.25,.27,8.17-4.04,7.49-8.25-.41,3.98-6.7,4.61-9.33,1.59s-2.48-7.48-2.02-11.45c2.81-24.48,11.88-47.73,20.32-70.88,3.26-8.93,5.27-17.9,5.27-25.43Z"/><path class="j" d="M305.08,226.73c.32,8.47-1.4,17-4.98,24.69"/><path class="j" d="M327.64,269.95c.32-4.14-2.93-6.61-6.54-8.51s-8.73-1.99-12.45-.21c-5.64,2.7-7.02,8.39-7.88,13.42-5.75,33.87-11.49,67.74-17.24,101.62-1.18,6.97-2.25,14.46,2.08,20.66,4.33,6.2,16.41,9.65,23.02,4.76-4.47-.2-8.84-1.47-12.35-3.58,6.36,1.27,13.65-2.21,14.93-7.12-4.09,2.39-9.4,3.53-14.52,3.12,6.06,.29,11.63-4.39,10.66-8.95-.59,4.31-9.55,5-13.28,1.73s-3.53-8.12-2.88-12.43c4.01-26.56,16.92-51.79,28.94-76.91,4.64-9.69,7.51-19.42,7.51-27.59Z"/><path class="j" d="M317.84,268.28c.73,10.21-1.95,20.64-7.52,29.23"/><path class="j" d="M286.69,126.16c-5.94-5.05-13.32-7.4-20.51-6.94-7.2,.46-13.95,3.62-20.17,7.26-11.6,6.79-22.09,15.49-30.91,25.64-5.3,6.1-10.14,13.04-11.4,21.02-1.67,10.56,3.56,21.58,12.04,28.09,8.49,6.51,19.77,8.76,30.38,7.44s20.59-5.99,29.37-12.09c8.36-5.81,15.88-13.1,20.72-22.05,4.84-8.95,6.82-19.7,4.12-29.51-2.69-9.82-8.25-14.59-13.64-18.86Z"/><path class="f" d="M290.23,133.9c-1.18-1.38-3.19-1.11-3.37,.25,.54,2.78,2.67,4.93,4.14,7.35,3.51,5.82,3.08,13.1,2.54,19.88,3.17-7.63,2.79-16.66-1.03-23.99-.99-1.91-1.45-2.36-2.28-3.48Z"/><path class="f" d="M285.44,128.95c-.51-.3-1.2-.15-1.64,.25s-.66,.99-.73,1.57c-.05,.44-.02,.9,.22,1.27,.27,.41,.77,.64,1.27,.65,.91,.02,1.78-.67,1.97-1.56s-.38-1.78-1.08-2.19Z"/><path class="f" d="M259.4,161.99c-2.01,.96-3.06,3.39-2.76,5.6,.3,2.21,1.77,4.13,3.61,5.39,.7,.48,1.48,.88,2.33,.96,.84,.09,1.76-.2,2.28-.87,.25-.33,.35-.9-.01-1.11-.28-.16-.62,0-.92,.11-1.22,.47-2.66,.15-3.7-.66s-1.68-2.03-1.96-3.31c-.44-2.03,.03-4.23,1.13-6.11Z"/><path class="f" d="M240.42,158.55c.62,1.16,.47,2.64-.18,3.79-.66,1.15-1.76,1.98-2.95,2.55-1.2,.56-2.49,.87-3.78,1.17,1.13,.41,2.41,.26,3.52-.21s2.07-1.23,2.95-2.04c.79-.73,1.56-1.55,1.93-2.57s.25-2.27-.54-3.01c-.26-.24-.63-.42-.95-.28s-.36,.72,0,.6Z"/><path class="j" d="M234.6,212.17c4.19-2.48,5.82-8.41,3.63-12.76s-7.75-6.59-12.4-5.14c-4.65,1.45-7.93,6.3-7.72,11.17-1.3-.57-2.45-1.44-3.35-2.54l-1.35,7.02c-1.16-.65-2.12-1.65-2.72-2.84-1.14,2.55-1.71,5.35-1.65,8.15l-1.81-.41c.79,2.68-1.6,5.46-4.32,6.13-2.72,.67-5.55-.18-8.2-1.08,2.7,4.56,8.11,7.1,13.41,7.21s10.46-1.96,14.87-4.91c4.41-2.95,8.16-6.75,12.05-10.42,.03,0,.06,0-.46,.44Z"/><path class="j" d="M209.18,201.04c2.11-1.7,4.17-3.51,5.72-5.74s2.56-4.91,2.35-7.62c-.33-4.27-3.82-7.93-7.96-9.05-4.13-1.12-8.68,.07-12.16,2.57-3.48,2.49-5.97,6.18-7.67,10.11-3.35,7.8-3.7,16.84-.96,24.87l2.86-10.28c.02,1.6,.53,3.2,1.46,4.51,1.2-3.75,3.17-7.24,5.77-10.2,.08,1.78,.64,3.53,1.61,5.02l3.72-7.58c.1,1.59,1.35,3.03,2.9,3.38,1.55,.34,3.29-.45,2.35,.01Z"/><path class="f" d="M197.38,185.48c-2.66,1.2-4.78,3.45-6.09,6.06-1.31,2.61-1.85,5.56-1.86,8.48,1.83-5.2,4.56-10.09,7.95-14.54Z"/><path class="f" d="M225.7,216.68l-.26-.38c-.32-.46-.96-.52-1.37-.14-2.87,2.67-12.28,7.15-12.28,7.15,0,0,2.15-.15,2.44-.11s1.24-.17,1.52-.26c4.19-1.32,6.99-3.04,9.87-5.53,.21-.18,.25-.5,.09-.73Z"/><path class="f" d="M228.56,212.81c-.29-.06-.31-.04-.51,0s-.38,.19-.5,.36c-.28,.39-.35,.96-.05,1.34,.22,.28,.62,.41,.97,.32s.63-.39,.72-.74-.02-.74-.26-1c-.15-.17-.16-.21-.36-.29Z"/><path class="j" d="M271.37,167.59c-1.71,1.5-2.9,1.95-4.98,2.12-1.81,.14-3.62-.67-4.58-2.21-1.76-2.79,.15-5.92,1.45-8.71,2.66-5.71,2.87-12.2,3.87-18.42,2.37-14.75,9.49-28.69,20.05-39.26l-15.49-11.55c-.67-.5-1.4-1.11-1.45-1.95-.05-.85,.64-1.54,1.27-2.11l11.17-10.06c3.21-2.9,6.47-5.82,10.26-7.89,3.8-2.07,8.25-3.25,12.49-2.38,6.25,1.28,11.99,5.95,15.45,11.31,3.46,5.36,5.31,11.93,10.47,15.68-5.53,4.8-12.82,10.77-19.63,13.45-9.28,3.65-15.56-.34-16.52-.18-1.16,.19-5.05,3.79-7.7,7.12-11.89,15.01-16.27,36.6-15.08,52.53,.07,.94-.32,1.87-1.03,2.49Z"/><path class="f" d="M273.05,87.09c-.27-.28-.78-.27-1.04,0s-.24,.79,.06,1.04c.13,.11,.3,.17,.46,.14,.23-.04,.39-.25,.45-.47s.03-.45,.08-.72Z"/><path class="f" d="M328.01,91.78c-4.07-2.93-5.49-8.25-8.2-12.48-3.11-4.85-8.2-8.39-13.83-9.63-5.63-1.23-11.73-.14-16.59,2.96-5.9,3.77-9.9,10.28-16.33,13.06,4.86-1.91,8.89-5.41,13.08-8.52,4.19-3.11,8.9-5.97,14.12-6.24,6.46-.33,12.51,3.42,16.98,8.11,2.5,2.62,4.65,5.56,6.39,8.74,1.02,1.86,2.34,4.09,4.36,4Z"/><path class="f" d="M276.22,85.19c-.29,.22-.58,.45-.81,.74s-.38,.65-.34,1.02c.04,.39,.27,.72,.5,1.04l1.39,1.91c-.5-.44-1.17-.62-1.78-.86s-1.25-.64-1.45-1.27c-.22-.69,.17-1.45,.74-1.89s1.29-.63,1.74-.68Z"/><path class="f" d="M321.74,97.6c-6.53,4.81-15.44,5.33-23.29,3.3-7.85-2.03-14.89-6.33-21.8-10.56,6.37,5.35,13.34,10.34,21.38,12.45,8.04,2.11,17.4,.87,23.71-5.19Z"/><path class="f" d="M327.44,93.19c-2.75-1.42-4.33-4.32-6.02-6.92-2.95-4.55-6.76-8.67-11.56-11.21s-10.66-3.34-15.72-1.37c-5.23,2.04-9,6.69-13.93,9.36-.95,.51-1.96,.97-2.74,1.71s-1.3,1.89-.96,2.92c.31,.95,1.22,1.54,2.07,2.05,7.56,4.52,15.58,8.67,24.29,9.96,8.71,1.3,18.31-.67,24.56-6.5Z"/><path class="f" d="M295.06,104.5c-1.94-.46-3.77-1.38-5.3-2.68-.38-.33-.82-.7-1.32-.64-.56,.06-.94,.68-.91,1.24s.35,1.07,.71,1.51c.85,1.04,1.99,1.91,3.32,2.09s2.82-.52,3.49-1.52Z"/><path class="f" d="M283.04,118.08c-.56,.93-1.9,1.14-2.91,.73s-1.75-1.27-2.42-2.14c-.24-.31-.49-.64-.84-.83s-.84-.18-1.09,.13c-.23,.28-.19,.68-.08,1.03,.21,.64,.62,1.19,1.06,1.7,.61,.72,1.3,1.4,2.16,1.8,.85,.4,1.9,.48,2.72,.02,.82-.46,1.31-1.54,1.4-2.45Z"/><path class="g" d="M301.37,82.29c.48-2.99-1.42-6.1-4.18-7.35-2.76-1.25-6.14-.74-8.64,.96-2.5,1.7-4.16,4.48-4.87,7.43-.59,2.45-.54,5.11,.48,7.41s3.09,4.2,5.57,4.68c3.3,.64,6.68-1.32,8.61-4.07,1.93-2.75,2.58-6.16,3.04-9.06Z"/><path d="M294.5,87.91c-1.16,.89-1.95,1.08-3.43,1.17-1.4,.08-3.17-.66-3.93-1.25-1.21-.93-1.49-2.44-1.56-3.6-.09-1.37,.77-3.05,2.38-3.92,1.5-.81,3.28-1.32,4.77-.74,1.49,.58,2.42,2.46,2.79,3.83-.78-.55-1.46-1.6-2.44-1.87-.98-.27-2.08-.24-2.94,.36-.97,.67-1.56,1.5-1.46,2.64,.09,.99,.68,2.32,1.69,2.78,1.3,.6,4.27,.13,5.02-1.3-.3,.34-.64,1.71-.88,1.9Z"/><path d="M305.08,52.24l-1-.95c-.73,.35-.93,1.27-1.04,2.08l-.82,5.9c-.06,.47-.08,1.04,.32,1.29,.31,.19,.73,.07,.99-.19s.38-.62,.48-.96c.75-2.46,.99-5.06,1.07-7.16Z"/><path d="M318.98,54.7l-5.18,7.91c-.17,.26-.35,.54-.4,.85s.08,.67,.37,.8c.37,.17,.79-.12,1.09-.39,1.98-1.79,3.62-3.95,4.83-6.33,.25-.5,.49-1.04,.45-1.6s-.47-1.13-1.16-1.24Z"/><path d="M329.12,65.67c-2.44,1.77-5.3,2.93-7.65,4.83-.41,.33-.84,.83-.65,1.32,.12,.33,.5,.5,.84,.51s.68-.13,1-.27c2.25-.94,4.52-2,6.2-3.77,.35-.37,.68-.78,.77-1.28s-.16-1.09-.52-1.34Z"/><path d="M339.28,80c-2.52,.47-5.13,.5-7.66,.09-.69-.11-1.4-.26-2.08-.07-.67,.18-1.29,.82-1.17,1.51,.14,.84,1.15,1.17,1.99,1.29,2.99,.41,6.19,.12,8.78-1.43,.3-.18,.6-.4,.68-.74,.1-.43-.25-.86-.66-1.01s-.87-.1,.12,.37Z"/><path d="M288.85,55.11c-.45,2.78,.24,5.74,1.89,8.02,.39,.54,.94,1.1,1.61,1.03,.48-.04,.89-.43,1.07-.88s.19-.95,.14-1.43c-.22-2.1-1.34-3.99-2.43-5.79-.23-.38-.46-.76-.81-1.03s-.83-.41-1.23-.23-.62,.74-.23,.31Z"/><path d="M279.7,59.07c2.2,2.2,3.92,4.87,5,7.79,.12,.31,.23,.64,.21,.98s-.19,.68-.5,.81c-.3,.12-.66,.02-.91-.19s-.41-.5-.56-.79c-.9-1.8-1.47-3.8-2.75-5.36-.4-.49-.88-.93-1.21-1.48-.33-.54-.51-1.23-.27-1.82,.44-.14,.93-.09,.97,.06Z"/><path d="M278.59,73.58c-1.88-2.03-3.56-4.24-5.03-6.59-.24-.39-.49-.79-.85-1.06s-.89-.39-1.28-.17c.25,1.59,1,3.08,1.94,4.39,.94,1.31,2.08,2.46,3.22,3.61,.23,.23,.46,.47,.76,.6s.66,.16,.93-.03,.34-.63,.31-.75Z"/><path d="M326.38,105.41c-.56-.47-1.26-.77-1.99-.85-.19,.36-.14,.81,.04,1.18s.47,.67,.75,.97l2.94,3.08c.26,.27,.6,.57,.96,.47,.31-.08,.47-.44,.45-.75s-.19-.6-.37-.87c-.91-1.4-2.07-2.62-2.78-3.22Z"/><path d="M314.8,111.19c.38,2.47,.82,5.08,2.43,6.99,.17,.2,.36,.4,.6,.48s.56,.03,.7-.2c.14-.24,.04-.54-.07-.8l-2.57-5.96c-.09-.2-.17-.4-.33-.55s-.4-.23-.59-.13-.26,.4-.17,.16Z"/><path d="M297.94,112.62c-.11-.37-.37-.69-.71-.88-.67,2.09-.68,4.32-.68,6.51,0,.38,0,.77,.17,1.1s.57,.59,.92,.46c.38-.13,.53-.59,.59-.99,.4-2.37,.13-4.82-.3-6.21Z"/><path d="M276.6,95.84c.22-.18,.44-.37,.57-.63s.12-.6-.09-.79c-.32-.3-.83-.08-1.2,.15-1.8,1.14-3.51,2.44-5.09,3.88-.18,.17-.37,.34-.45,.58s0,.54,.23,.63c.17,.07,.36,0,.53-.08,2.17-.93,3.99-2.47,5.5-3.73Z"/><path class="j" d="M237.66,160.08l-8.51-38.77c-.7-3.18-1.41-6.39-2.75-9.35-3.43-7.53-10.54-12.61-17.24-18.44,3.74-2.65,10.91-8.67,10.53-10.16-.53-2.07-3.06-6.18-4.15-8.02-2.76-4.65-6.84-7.78-11.33-10.78-4.93-3.3-11.31-4.18-17.08-2.77-5.77,1.41-10.9,4.98-14.6,9.63-3.58,4.49-7.62,11.26-8.04,15.17-.17,1.56-3.2,3.12-2.85,4.5,.46,1.8,4.93,3.06,6.24,4.37,5.54,5.54,12.92,8.45,21.88,7.74,3.22-.26,10.91-4.37,14.13-4.19,4.13,.23,7.58,3.21,10.16,6.44,10.13,12.67,9.71,30.2,12.15,46.23,.46,3.01,.87,5.84,1.11,8.44,.04,.4,2.53,3.83,5.23,3.65,2.69-.19,5.04-2.05,5.12-3.68Z"/><path class="j" d="M189.49,107.8c-.17,.34-.48,.61-.83,.73"/><path class="f" d="M216.16,83.58c-3.07-3.55-6.16-7.13-9.89-9.98-3.73-2.85-8.19-4.95-12.88-5.1-6.06-.2-11.86,2.88-16.22,7.09-4.36,4.21-5.94,6.6-9.04,11.81,1.81,2.51,3.93,4.25,6.78,5.33,2.85,1.08,6.08,.52,9.07,1.12,4.26,.85,14.12-.56,18.24-1.95,6.97-2.34,8.23-5.12,13.94-8.33Z"/><path class="f" d="M215.49,85.74c-6.14,5.66-13.96,9.47-22.2,10.82-8.24,1.36-16.86,.25-24.49-3.14,3.04,1.95,6.49,3.21,10.02,3.97,13.08,2.8,27.47-1.71,36.67-11.65Z"/><path class="f" d="M215.23,79.79c-3.64-7.55-11.29-12.85-19.54-14.32-4.75-.84-9.81-.48-14.15,1.64-3.94,1.92-7.12,5.18-9.48,8.87-2.36,3.7-3.94,7.83-5.28,12,2.14-10.21,10.93-18.7,21.21-20.47,10.28-1.77,21.41,3.28,27.23,12.28Z"/><path class="f" d="M170.11,92.34c-1.6-.81-2.95-2.09-3.85-3.64-.14,.69-.6,1.31-1.34,1.77,1.14,1.2,2.93,1.75,5.19,1.87Z"/><path class="f" d="M185.4,99.08c-2.67,.12-5.35-.08-7.98-.58,2.5,1.35,5.53,1.68,8.27,.91,.03-.22-.24-.41-.29-.33Z"/><path class="f" d="M207.92,93.48l-6.29,4.79c1.29,.34,2.69,.04,3.84-.62s2.09-1.65,2.86-2.74c.19-.26,.37-.56,.35-.88s-.44-.8-.77-.55Z"/><path class="f" d="M224.26,109.75l-5.06,1.89c-.12,.05-.25,.1-.34,.19-.15,.18-.11,.47,.03,.65s.37,.29,.59,.36c1.03,.35,2.15,.29,3.21,.06,.54-.12,1.08-.29,1.52-.62s.78-.83,.8-1.38-.35-1.12-.76-1.15Z"/><g><path class="g" d="M184.36,75.4c-1.82-1.67-4.51-1.58-6.47-.15-1.95,1.43-3.2,3.99-3.67,6.67-.73,4.12,.48,8.88,3.48,11.09,2.46,1.82,5.84,1.57,8.18-.47,2.34-2.04,3.55-5.71,3.14-9.14s-2.59-6.13-4.65-8.02Z"/><path d="M183.17,79.97c-1.06-.54-1.71-.53-2.85-.26-1.08,.25-2.29,1.35-2.76,2.07-.74,1.14-.66,2.58-.49,3.66,.2,1.27,1.19,2.61,2.59,3.02,1.31,.38,2.77,.43,3.79-.45,1.02-.88,1.36-2.82,1.38-4.16-.49,.68-.8,1.81-1.5,2.29-.7,.48-1.54,.71-2.32,.37-.87-.38-1.49-1-1.63-2.07-.13-.93,.06-2.28,.74-2.95,.88-.86,3.23-1.13,4.09,.01-.29-.25-.82-1.42-1.05-1.53Z"/></g><path d="M224.76,75.81c-1.72,.38-3.47,.61-5.22,.71-.72,.04-1.71-.18-1.7-.9,0-.6,.73-.9,1.32-1.03l9.35-2.15c.46-.11,1.09-.13,1.25,.31,.12,.34-.13,.68-.39,.93-1.42,1.37-3.37,2.16-4.6,2.13Z"/><path d="M224.85,98.4l-7.07-4.24c-.33-.2-.76-.4-1.08-.17-.44,.31-.15,.99,.19,1.41,.99,1.21,2.13,2.3,3.4,3.22,.66,.48,1.39,.92,2.19,1.03s1.72-.2,2.36-1.24Z"/><path d="M192.24,109.34l-2.14-1.41c-.62,1.13,.28,2.45,.94,3.56,.86,1.43,1.39,3.06,1.53,4.72,.05,.64,.06,1.32,.4,1.86s1.18,.82,1.63,.37c.32-.32,.3-.84,.24-1.29-.4-3.14-1.61-6.18-3.47-8.73-.18-.25-.4-.51-.7-.55s-.63,.32,1.57,1.47Z"/><path d="M178.78,108.97c-.33-.58-.84-1.05-1.45-1.33l-1.74,7.24c-.06,.25-.12,.53,0,.77,.16,.31,.6,.39,.92,.26s.56-.42,.76-.71c1.53-2.22,1.98-5.39,1.5-6.23Z"/><path d="M167.61,103.48l.9-2.18c-.67-.44-1.53,.15-2.06,.74-1.84,2.06-3.1,4.64-3.59,7.37,2.31-1.5,3.89-3.87,4.75-5.93Z"/><path d="M162.44,79.57l.13,1.41-8.82-4.75c-.36-.19-.76-.45-.79-.86-.03-.41,.37-.75,.78-.79s.81,.11,1.18,.28c2.36,1.03,4.61,2.32,6.7,3.83,.49,.36,1.02,.8,1.09,1.4s-.67,1.24-.27-.5Z"/><path d="M167.42,71.8c-2.82-1.36-5.39-3.24-7.55-5.51-.27-.29-.53-.79-.22-1.03,.18-.14,.44-.08,.66,0,3.2,1.05,6.03,3.18,7.91,5.98-.49,.41-1.17,.58-.8,.58Z"/><path d="M171.06,55.97l3.87,6.44c.49,.81,1.38,1.75,2.21,1.3,.85-.46,.52-1.74,.04-2.57-.92-1.6-2-3.11-3.23-4.49-.41-.46-.87-.94-1.48-1.08s-1.36,.21-1.43,.41Z"/><path d="M185.65,48.87l-.85,7.96c-.07,.66-.03,1.5,.59,1.73,.74,.27,1.34-.65,1.55-1.41,.59-2.1,.8-4.3,.61-6.47-.05-.53-.12-1.07-.4-1.52s-.81-.78-1.32-.68-.88,.77-.18,.38Z"/><path d="M202.96,51.73l-4.93,6.72c-.16,.22-.33,.47-.29,.74,.1,.64,1.08,.5,1.63,.15,2.04-1.32,3.68-3.26,4.64-5.5,.21-.48,.38-1.05,.13-1.51s-1.09-.52-1.19-.6Z"/><path d="M217.86,61.54l-6.58,4.82c-.55,.4-1.16,1.14-.72,1.67,.36,.44,1.07,.21,1.56-.06,2.14-1.18,4.14-2.6,5.96-4.24,.33-.3,.66-.62,.82-1.03s.09-.95-.27-1.2-.99-.02-.77,.05Z"/></g></g></g><g id="e"><polygon class="k" points="616.47 569.92 192.92 569.92 192.92 437.25 616.47 437.25 583.7 504.22 616.47 569.92"/><text class="h" transform="translate(265.47 541.34)"><tspan x="0" y="0">GASTOS HORMIGA</tspan></text><text class="l" transform="translate(280.7 499.88)"><tspan x="0" y="0">Monstruo</tspan></text></g></g></svg>