<?xml version="1.0" encoding="UTF-8"?><svg xmlns="http://www.w3.org/2000/svg" xmlns:xlink="http://www.w3.org/1999/xlink" viewBox="0 0 240.49 240.49"><defs><style>.h{fill:#fff;}.i{filter:url(#e);}.j{fill:#efc5ba;}.k{clip-path:url(#d);}.l{fill:none;}</style><clipPath id="d"><circle class="l" cx="120.24" cy="120.24" r="120.24"/></clipPath><filter id="e" filterUnits="userSpaceOnUse"><feOffset dx="11.34" dy="7"/><feGaussianBlur result="f" stdDeviation="0"/><feFlood flood-color="#000" flood-opacity=".5"/><feComposite in2="f" operator="in"/><feComposite in="SourceGraphic"/></filter></defs><g id="a"/><g id="b"><g id="c"><g class="k"><circle class="j" cx="120.24" cy="120.24" r="120.24"/><g class="i"><g><path class="h" d="M76.44,103.7c-1.34,1.1-2.65,2.25-4.03,3.3-5.49,4.17-11.23,7.96-17.48,10.92-.37,.18-.8,.22-1.21,.33,3.4-2.56,6.77-5.08,10.41-7.12,3.86-2.16,7.08-5.06,10.41-7.86,1.07-.9,2.15-1.99,2.76-3.22,3.12-6.27,5.3-12.87,6.31-19.82,.09-.6-.02-1.22-.05-2.39-1.5,1.54-2.52,2.73-3.69,3.75-4.34,3.81-8.41,7.9-13.55,10.78-3.49,1.95-6.57,4.64-9.84,6.99-1.5,1.08-3.11,2.01-4.5,3.21-3.86,3.34-7.7,6.68-11.05,10.62-3,3.54-5,7.52-6.81,11.67-.73,1.68-1.65,3.45-1.73,5.21-.13,2.89-1.47,4.45-3.72,6.16-5.83,4.4-11.23,9.37-15.98,14.94-4.84,5.68-10.04,11.07-14.19,17.32-2.5,3.77-5.38,7.31-6.61,11.79-.44,1.62-.91,3.23-1.47,4.81-1.39,3.97-1.32,7.9,.09,11.84,.27,.74,.45,1.52,.6,2.01-1.73,.43-3.35,.45-4.52,1.19-2.47,1.57-4.86,3.34-7,5.34-5.97,5.57-11.24,11.79-15.9,18.49-1.18,1.7-2.09,3.4-4.51,3.22-.31-.02-.63,.21-.96,.3-4.76,1.36-9.49,2.85-14.29,4.03-10.52,2.59-21.05,5.11-31.08,9.3-3.94,1.65-7.85,3.45-11.05,6.42-4.06,3.76-8.18,7.47-12.15,11.33-2.07,2.02-3.15,4.55-2.32,7.56,1.18,4.3,3.18,8.05,7.22,10.44-.52,2.34-1.03,4.7-1.59,7.05-.24,1.01-.03,1.71,.83,2.39,2.57,2.02,4.97,4.26,7.59,6.21,5.68,4.23,11.88,7.6,18.38,10.36,5.55,2.36,11.24,4.43,16.96,6.36,5.15,1.74,10.26,3.62,15.55,5,9.29,2.42,18.77,3.75,28.15,5.6,1.39,.27,2.84,.27,4.24,.53,1.29,.24,2.54,.67,3.81,1.01,3.07,.81,6.11,2.03,9.22,2.29,2.22,.18,4.57-.85,6.83-1.49,2.5-.71,4.94-1.64,7.42-2.4,3.77-1.16,7.54-2.33,11.35-3.35,2.45-.65,4.12-2.2,5.49-4.21,.82,1.4,1.43,2.81,2.36,3.97,7.97,9.88,23.12,9.22,31.32,3.2,.34-.25,.64-.55,.92-.86,3.97-4.22,6.96-9,8.37-14.68,.17-.68,.47-1.33,.68-1.9,1.17,.13,2.06,.43,2.89,.29,3.48-.56,6.93-1.24,10.39-1.89,.66-.12,1.46-.08,1.94-.44,.93-.71,1.85-.58,2.85-.44,2.5,.34,4.87-.06,7-1.46,1.39-.92,2.91-1.17,4.52-1.34,3.39-.37,6.79-.63,10.12-1.56,5.65-1.57,11.39-2.85,17.08-4.3,15.57-3.97,31.43-6.23,47.35-8.14,1.81-.22,3.56-.6,5.04-1.7,1,.55,1.17,1.25,.45,2.06-.89,1-1.85,1.94-2.77,2.91-.99,1.02-2.12,1.94-2.94,3.09-1.49,2.11-.97,4.28,1.25,5.56,1.01,.58,2.12,1,3.23,1.37,2.68,.9,5.45,1.09,8.21,.53,4.18-.85,8.35-1.79,12.5-2.79,.99-.24,2.11-.65,1.99-2.22-5.26-.43-10.52,.15-15.64-.76-.17-2.28,1.29-3.29,2.47-4.44,.99-.97,2.07-.13,3.1-.02,4.84,.51,9.66,1.01,14.46-.4,6.38-1.88,12.08-5.09,17.19-9.25,4.3-3.49,7.36-7.85,7.23-13.76l-.05,.05c1.06-.13,2.17-.08,3.16-.42,5.16-1.77,10.28-3.64,15.41-5.49,.39-.14,1.02-.32,1.06-.56,.23-1.39,1.37-1.17,2.26-1.45,4.69-1.49,8.33-4.32,10.49-8.78,.47-.96,1.36-2.13,.52-3.3-.91-1.27-2.15-.19-3.46-.21,.15-1.32,.36-2.56,.42-3.8,.15-2.93,.32-5.87,.32-8.81,0-2.76-1.17-4.86-3.96-5.74-1.67-.53-3.35-1.05-5.05-1.49-1.92-.49-3.86-.89-6.08-1.4,1.38-1.5,2.81-1.81,4.21-1.72,6.15,.41,11.44,2.49,14.76,8.11,1.24,2.09,2.52,4.16,3.75,6.26,.52,.88,.98,1.91,2.18,1.8,1.24-.12,1.35-1.31,1.72-2.23,.64-1.6,.71-3.22,.6-4.94-.21-3.43-1.3-6.59-2.72-9.63-1.77-3.8-4.26-7.01-8.16-8.91-1.88-.92-3.71-1.96-5.56-2.94-2.52-1.34-5.14-2.51-7.53-4.06-5.25-3.4-8.67-8.26-10.84-14.11-1.66-4.47-3.23-8.99-6.36-12.78-2.51-3.05-4.93-6.09-9.04-7.06,2.44-6.16,3.12-12.49,2.59-18.88-.7-8.55-2.86-16.85-5.08-25.12-2.05-7.6-5.47-14.6-9.46-21.34-1.63-2.74-3.08-5.63-5.03-8.12-1.12-1.42-1.61-2.78-1.81-4.46-.17-1.39-.49-2.79-.93-4.12-.69-2.07-1.78-4.02-2.27-6.13-1.18-5.12-4.09-9.32-6.82-13.62-.47-.75-1.23-1.32-2.04-2.16-.73,.85-1.31,1.53-1.89,2.21-2.29,2.67-4.57,5.36-6.9,8-.76,.86-1.7,1.51-3.11,1.44,1.67-1.58,3.3-2.89,4.64-4.45,1.41-1.65,2.57-3.51,3.8-5.31,.37-.55,.7-1.17,.86-1.8,1.39-5.54,.85-10.66-3.37-14.94-.12-.12-.23-.25-.35-.37-2.4-2.47-4.8-4.93-7.19-7.4-5.29-5.5-10.43-11.15-15.89-16.47-4.26-4.14-8.79-8.02-13.41-11.77-7.88-6.39-16.87-10.6-26.8-12.73-1.78-.38-3.63-.49-5.46-.51-2.09-.02-4.18,.31-6.27,.31-6.61,.01-13.01,1.28-19.31,3.11-1.11,.32-2.19,.85-3.21,1.42-3.76,2.11-6.14,5.39-7.66,9.34-.65,1.7-1.08,3.49-1.64,5.33-.78-.09-1.53-.13-2.26-.26-3.51-.64-6.65,.23-9.51,2.28-3.59,2.58-6.02,6.06-7.65,10.09-.45,1.13-.83,2.62-.45,3.66,.46,1.24,.39,2.19,.02,3.32-.19,.59-.16,1.24-.22,1.72,1.31,.38,2.64,.37,3.28,1.02,2.11,2.17,4.79,3.37,7.31,4.84,3.58,2.09,7.33,3.31,11.75,1.85,.11,1.06,.21,1.96,.31,2.96-6.12-.97-7.76,.12-11.17,1.92-4.58,2.43-7.72,5.42-8.21,7.59,1.81,.88,3.83,1.38,5.78,3.18-1.29-.38-2.02-.6-3.34-.99,2.64,3.15,4.62,6.07,8.06,7.42,3.6,1.41,7.2,.98,10.84-.28,.23,11.93-2.98,22.8-8.59,33.05l.1-.08Zm105.26,195.56l.64,.65c.39-.42,.78-.84,1.16-1.25l-.51-.52-1.29,1.13Z"/><path d="M232.33,262.57c.13,5.92-2.93,10.27-7.23,13.76-5.11,4.16-10.81,7.36-17.19,9.25-4.8,1.42-9.62,.92-14.46,.4-1.03-.11-2.12-.95-3.1,.02-1.18,1.15-2.64,2.16-2.47,4.44,5.12,.91,10.38,.33,15.64,.76,.12,1.57-1.01,1.98-1.99,2.22-4.15,1-8.32,1.94-12.5,2.79-2.76,.56-5.53,.37-8.21-.53-1.11-.37-2.22-.79-3.23-1.37-2.22-1.28-2.74-3.46-1.25-5.56,.81-1.15,1.95-2.07,2.94-3.09,.93-.96,1.88-1.91,2.77-2.91,.72-.8,.56-1.51-.45-2.06-1.48,1.09-3.23,1.48-5.04,1.7-15.92,1.9-31.78,4.16-47.35,8.14-5.69,1.45-11.42,2.73-17.08,4.3-3.34,.93-6.73,1.19-10.12,1.56-1.6,.18-3.13,.43-4.52,1.34-2.12,1.4-4.5,1.8-7,1.46-1-.14-1.92-.27-2.85,.44-.48,.37-1.28,.32-1.94,.44-3.46,.64-6.92,1.33-10.39,1.89-.83,.13-1.72-.16-2.89-.29-.21,.57-.51,1.22-.68,1.9-1.41,5.68-4.4,10.46-8.37,14.68-.29,.3-.59,.61-.92,.86-8.21,6.02-23.36,6.68-31.32-3.2-.93-1.16-1.54-2.57-2.36-3.97-1.37,2.01-3.03,3.56-5.49,4.21-3.81,1.02-7.58,2.19-11.35,3.35-2.49,.76-4.92,1.69-7.42,2.4-2.25,.64-4.6,1.67-6.83,1.49-3.12-.26-6.15-1.48-9.22-2.29-1.27-.34-2.53-.77-3.81-1.01-1.4-.26-2.85-.26-4.24-.53-9.39-1.85-18.87-3.18-28.15-5.6-5.3-1.38-10.4-3.25-15.55-5-5.72-1.94-11.41-4-16.96-6.36-6.49-2.76-12.7-6.13-18.38-10.36-2.62-1.95-5.02-4.18-7.59-6.21-.86-.68-1.07-1.38-.83-2.39,.56-2.35,1.07-4.71,1.59-7.05-4.03-2.39-6.03-6.14-7.22-10.44-.83-3,.25-5.54,2.32-7.56,3.96-3.86,8.09-7.57,12.15-11.33,3.2-2.97,7.11-4.77,11.05-6.42,10.02-4.19,20.56-6.71,31.08-9.3,4.8-1.18,9.53-2.68,14.29-4.03,.32-.09,.65-.32,.96-.3,2.42,.18,3.33-1.52,4.51-3.22,4.66-6.7,9.93-12.92,15.9-18.49,2.14-2,4.53-3.77,7-5.34,1.17-.74,2.8-.77,4.52-1.19-.15-.49-.33-1.27-.6-2.01-1.41-3.94-1.48-7.88-.09-11.84,.56-1.58,1.02-3.2,1.47-4.81,1.23-4.48,4.11-8.03,6.61-11.79,4.15-6.25,9.35-11.64,14.19-17.32,4.74-5.57,10.15-10.54,15.98-14.94,2.26-1.71,3.59-3.27,3.72-6.16,.08-1.76,1-3.53,1.73-5.21,1.8-4.15,3.8-8.14,6.81-11.67,3.34-3.94,7.18-7.27,11.05-10.62,1.39-1.2,3-2.14,4.5-3.21,3.27-2.35,6.35-5.04,9.84-6.99,5.14-2.88,9.21-6.97,13.55-10.78,1.17-1.02,2.19-2.21,3.69-3.75,.03,1.17,.14,1.79,.05,2.39-1.01,6.95-3.19,13.55-6.31,19.82-.61,1.23-1.69,2.32-2.76,3.22-3.33,2.8-6.55,5.7-10.41,7.86-3.64,2.04-7,4.56-10.41,7.12,.4-.11,.84-.16,1.21-.33,6.25-2.96,11.98-6.76,17.48-10.92,1.38-1.05,2.69-2.2,4.03-3.3-.45,1.16-.88,2.33-1.36,3.48-1.89,4.47-1.11,10.26,2.01,12.87,1.65,1.38,3.54,2.65,5.54,3.39,4.58,1.71,9.38,2.63,14.3,2.46,2.84-.1,5.68-.74,8.5-.67,8.61,.24,16.37-2.62,23.74-6.54,4.42-2.35,8.58-5.27,12.59-8.29,2.02-1.52,3.81-3.63,5.05-5.84,4.28-7.62,7.62-15.66,9.96-24.12,1.3-4.71,2.46-9.41,2.64-14.3,.03-.73,.21-1.61-.11-2.18-.73-1.3-.38-2.34,.22-3.42,4.18,0,7.96-2.84,8.19-6.13-.92,1.02-1.76,2.03-2.69,2.96-2.54,2.52-6.57,2.11-8.18-.87-1.32-2.45-1.47-7.76,1.43-10.02,1.16-.9,2.04-2.22,2.91-3.44,1.2-1.68,1.53-3.48,.45-5.42-1.5-2.71-2.76-5.58-4.4-8.2-2.98-4.76-6.62-8.87-12.15-10.84-3.17-1.13-6.33-2.45-9.77-1.64-3.74,.88-7.34,2.13-10,5.15-1.28,1.45-2.69,2.8-3.79,4.37-1.24,1.78-2.28,3.71-3.23,5.66-.99,2.02-1.79,4.13-2.66,6.2l.07-.05c-.62,1.65-1.24,3.29-1.91,5.06-.64-.72-1.27-1.37-1.83-2.08-4.09-5.18-10.98-5.42-15.24-3.48-4.42,2.01-7.66,5.32-10.45,9.15-.92,1.26-1.58,2.7-2.6,4.49,.74-.35,.97-.43,1.18-.55,.28-.16,.55-.35,.83-.52-.72,1.31-1.44,2.61-2.15,3.92l.08-.05c-2.26-1.17-4.66-1.38-7.08-.79-4.03,.99-7.23,3.4-10.07,6.33-.08,.08,0,.31,0,.65,2.69-.17,4.96,.91,7.18,2.36,1.14,.75,2.63,1.21,3.99,1.32,2.45,.2,5.01,.32,7-1.55-.23-1.94-.44-3.74-.66-5.54,6.91,11.73,14.93,13.02,21.99,11.24,3.72-.93,6.4-3.25,8.71-6.07,2.57-3.14,5.29-6.28,4.56-10.81-2.45-1.96-4.82-4.11-7.44-5.89-3.12-2.13-6.41-3.94-10.44-3.84-4.63,.12-8.4,2.06-11.72,5.11-1.34,1.24-2.71,2.46-4.06,3.68,2.71-5.45,6.61-9.63,12.46-11.75,4.83-1.75,9.06-.81,12.67,2.84,.59,.6,1.11,1.26,1.69,1.86,2.1,2.17,4.19,4.35,6.33,6.48,.39,.39,.98,.56,1.49,.84l.3-.43c-1.67-1.72-3.35-3.44-5.02-5.16,1.11-.12,1.89,.19,2.7,.33,3.47,.61,6.43,2.35,9.37,4.13,1.48,.9,1.37,1.94-.23,2.73-.9,.44-1.87,.76-2.76,1.22-3.43,1.76-6.15,4.2-7.4,7.53,1.6,1.43,2.95,2.6,4.26,3.82,1.6,1.48,3.1,3.08,4.76,4.49,1.26,1.07,2.58,2.38,4.09,2.8,5.1,1.43,10.83-.12,13.51-4.62,1.18-1.98,2.89-3.64,4.39-5.49-1.88-2.51-3.71-4.92-6.57-6.34l4.56,5.18c-.7,.63-1.18,1.07-1.73,1.56l1.34,.72c-1.35,1.85-2.57,3.65-3.94,5.34-.72,.88-1.61,1.73-2.61,2.27-3.08,1.67-6.44,1.94-9.35,0-3.05-2.02-5.88-4.47-8.42-7.1-.94-.97-1.57-2.33-2.91-3,.84-2.63,2.79-4.07,4.8-5.44,5-3.4,10.31-3.61,15.78-1.42l.73-1.08c1.97,.01,3.73,.19,5.45,0,2.69-.32,5.18-1.33,7.51-2.74,.45-.27,1-.37,1.58-.58,.67,3.96,.34,8.06,4.4,10.62-1.25,1.69-2.35,3.26-3.54,4.75-.62,.78-1.38,1.46-2.12,2.14-.9,.83-.73,1.54,.35,2.46,1.11-1.45,2.2-2.87,3.56-4.65-.66,3.51-1.71,6.37-3.67,8.85-.52,.65-.67,1.15,.39,1.7,2.59-1.94,2.4-5.51,4.34-8.13-.13,4.13-.71,7.89-2.31,11.48-1.07-.12-1.98-.23-2.89-.33,.22-.91,.86-1.91-.5-2.47-3.54,1.78-3.8,3.15-1.02,5.2,.53-.93,1.05-1.86,1.58-2.79,.87,.42,1.74,.84,2.6,1.25-.46,4.96-3.2,9.11-4.43,13.59-1.75-.71-3.18-1.29-4.61-1.86-1.48-2.03-2.95-4.07-4.52-6.25l-5.08,4.42c1.1,2.74,2.14,5.33,3.29,8.2,1.14-1.16,2.02-1.94,2.75-2.84,.81-1,1.66-1,2.64-.4,.82,.51,1.61,1.07,2.42,1.6l.26-.35c-1.18-.91-2.35-1.82-3.74-2.9l2.07-1.54c1.34,.93,2.67,1.85,3.75,2.6-2.83,11.13-10.15,17.93-19.96,22.72-.66-2.63-1.85-4.87-4.02-6.47,2.9-2.25,3.13-2.23,7.03,.77-.61-1.73-1.92-2.35-3.42-2.95,.79-.74,1.38-1.3,1.91-1.79-1.14-3.95-2.25-7.77-3.43-11.83-2.34,1.07-4.42,2.03-6.57,3.01,1.79,4.51,2.92,8.81,3.53,13.44,2.15,1.26,3.32,2.94,4.2,6.3-2.11,1.68-4.64,2.6-7.17,3.42-6.01,1.95-12.23,2.82-18.53,3.24-5.49,.37-10.89,.15-16.19-1.43-4.11-1.23-7.74-3.09-10.02-7.02-1.92-3.3-1.68-6.03,1.02-8.52l-1.04-.42c.27-.93,1.37-1.85,.2-3l-1.54,.54c5.61-10.25,8.83-21.12,8.59-33.05-3.64,1.27-7.24,1.69-10.84,.28-3.44-1.35-5.43-4.28-8.06-7.42,1.32,.39,2.05,.61,3.34,.99-1.95-1.8-3.97-2.3-5.78-3.18,.49-2.17,3.63-5.16,8.21-7.59,3.41-1.8,5.05-2.89,11.17-1.92-.1-1-.2-1.9-.31-2.96-4.42,1.46-8.17,.24-11.75-1.85-2.52-1.48-5.2-2.67-7.31-4.84-.64-.66-1.97-.64-3.28-1.02,.05-.48,.03-1.14,.22-1.72,.37-1.13,.44-2.08-.02-3.32-.38-1.03,0-2.53,.45-3.66,1.63-4.03,4.06-7.51,7.65-10.09,2.86-2.05,6-2.93,9.51-2.28,.74,.13,1.49,.18,2.26,.26,.56-1.84,.99-3.62,1.64-5.33,1.51-3.94,3.9-7.23,7.66-9.34,1.02-.57,2.1-1.09,3.21-1.42,6.3-1.84,12.7-3.1,19.31-3.11,2.09,0,4.18-.33,6.27-.31,1.82,.02,3.68,.13,5.46,.51,9.93,2.13,18.92,6.34,26.8,12.73,4.62,3.75,9.15,7.62,13.41,11.77,5.46,5.32,10.61,10.97,15.89,16.47,2.38,2.48,4.79,4.94,7.19,7.4,.12,.12,.23,.25,.35,.37,4.22,4.28,4.77,9.4,3.37,14.94-.16,.63-.49,1.26-.86,1.8-1.22,1.8-2.38,3.67-3.8,5.31-1.34,1.56-2.97,2.88-4.64,4.45,1.42,.08,2.35-.57,3.11-1.44,2.33-2.64,4.6-5.33,6.9-8,.58-.68,1.16-1.36,1.89-2.21,.81,.85,1.56,1.42,2.04,2.16,2.74,4.3,5.64,8.5,6.82,13.62,.49,2.1,1.58,4.06,2.27,6.13,.44,1.33,.76,2.73,.93,4.12,.2,1.68,.69,3.04,1.81,4.46,1.95,2.49,3.41,5.38,5.03,8.12,3.99,6.74,7.42,13.73,9.46,21.34,2.23,8.27,4.38,16.57,5.08,25.12,.52,6.38-.15,12.72-2.59,18.88,4.1,.97,6.52,4.01,9.04,7.06,3.13,3.79,4.7,8.31,6.36,12.78,2.17,5.86,5.59,10.71,10.84,14.11,2.39,1.54,5.01,2.72,7.53,4.06,1.85,.99,3.67,2.03,5.56,2.94,3.9,1.9,6.4,5.11,8.16,8.91,1.41,3.04,2.51,6.21,2.72,9.63,.11,1.71,.04,3.34-.6,4.94-.37,.92-.48,2.11-1.72,2.23-1.2,.11-1.66-.91-2.18-1.8-1.23-2.1-2.51-4.16-3.75-6.26-3.32-5.62-8.61-7.7-14.76-8.11-1.4-.09-2.83,.22-4.21,1.72,2.22,.51,4.16,.91,6.08,1.4,1.7,.44,3.38,.96,5.05,1.49,2.79,.88,3.96,2.98,3.96,5.74,0,2.94-.17,5.87-.32,8.81-.06,1.25-.27,2.48-.42,3.8,1.31,.03,2.55-1.05,3.46,.21,.84,1.18-.05,2.34-.52,3.3-2.17,4.46-5.8,7.29-10.49,8.78-.89,.28-2.03,.06-2.26,1.45-.04,.24-.68,.42-1.06,.56-5.13,1.85-10.26,3.72-15.41,5.49-.98,.34-2.1,.29-3.15,.42,.25-.84,.23-1.68,1.42-2.08,4.29-1.42,8.51-3.01,12.76-4.54,.48-.18,.94-.44,1.15-.54-3.17-1.12-6.39-2.24-9.6-3.4-3.37-1.21-6.72-2.49-10.11-3.66-.72-.25-1.56-.13-2.27-.18-.39,1.48,.64,1.65,1.29,2.06,2.45,1.57,4.08,3.7,4.56,6.6,.31,1.89,.56,3.79,.84,5.69ZM46.98,129.12c-1.42,1.89-1.7,2.83-1.22,4.98,.25-.97,.39-1.46,.51-1.95,.24-1.01,.47-2.02,.71-3.04l2.12-5.29c-1.32,1.54-2.49,3.14-2.12,5.3Zm25.28,10.76q-.44,1.5,.98,2.82c-.39-1.1-.69-1.96-.99-2.83-.34-.2-.75-.34-1.01-.62-2.24-2.47-3.52-5.41-3.97-8.44-1.88-1.25-3.54-2.36-5.2-3.47,.82,2.97,1.76,5.77,3.14,8.32,1.46,2.69,2.68,5.77,6.26,6.79-.03-1.04-.99-2.33,.79-2.58ZM-108.78,268.74l-.05-.06c-.27,.8-.42,1.57,.52,2.08,.66,.36,1.27,.81,1.94,1.14,1.62,.81,4.16,.54,5.19-.51,1.01-1.03,1.17-3.25,.37-4.97-.11-.23-.23-.44-.37-.65-1.68-2.56-4.11-4.1-6.97-5.01-1.54-.49-2.86,.24-3.37,1.69-.55,1.56,.46,5.22,1.77,6.23,.21,.16,.64,.05,.96,.06ZM145.14,71.76l-1.89,1.8c.18,.91,.39,1.94,.68,3.35,2.6-1.98,4.92-3.74,7.23-5.5,1.07-.81,.9-1.68-.06-2.72-.82,.46-1.67,.96-2.55,1.42-1.15,.6-2.33,1.16-3.49,1.73,.87-.63,1.73-1.27,2.61-1.87,2.12-1.45,4.12-2.99,4.88-5.67-.44,.13-.75,.43-.97,.78-1.3,2.05-3.27,3.32-5.25,4.6-4.08,2.64-8.73,3.81-13.3,5.2-4.4,1.34-8.87,1.96-13.42,1.1-3.05-.58-6.09-1.27-9.03-2.25-1.67-.55-2.88-.33-4.13,.73-1.13,.94-2.31,1.82-3.55,2.79-.76-1.1-1.34-2.02-2.01-2.87-1.22-1.57-2.29-1.76-4.17-.99-1.62,.67-3.28,1.27-4.93,1.86-2.11,.76-4.23,1.49-6.55,2.31,.44,.35,.66,.64,.94,.73,4.25,1.31,8.44,2.88,12.77,3.8,4.75,1.01,9.61,1.53,14.45,.04,5.2-1.6,10.51-2.91,15.68-4.61,5.01-1.65,9.9-3.64,14.85-5.47,.39-.14,.81-.19,1.21-.28Zm-2.19,120.52c-1.41,.41-1.39,1.75-1.68,2.78-1.28,4.55-1.8,9.19-1.83,13.93-.02,2.68,.49,5.15,1.45,7.59,.16,.41,.16,.87,.25,1.39-1.93-.36-2.04-.37-3.11-1.64-1.45-1.73-2.91-3.47-4.23-5.3-5.21-7.2-6.86-15.13-4.68-23.79,.57-2.26,1.07-4.45,.78-6.89-.36-2.95,.33-5.81,2.6-8.08,1.38-1.38,3.05-2.06,4.86-2.45,1.04-.22,1.79-.67,2.52-1.43,1.86-1.93,3.75-3.83,5.76-5.6,1.95-1.72,4-3.34,6.12-4.86,4.16-2.97,6.98-6.87,8.88-11.59,2.39-5.92,3.17-11.94,1.98-18.23-1.12-5.9-3.2-11.5-5.84-16.83-2.15-4.34-2-8.43-.52-12.85,1.53-4.55,3.3-8.95,5.92-12.98,.02-.04-.07-.14-.23-.47-.62,.74-1.24,1.36-1.73,2.07-2.33,3.42-4,7.17-5.54,10.99-2.25,5.56-1.88,10.96,.67,16.3,.51,1.06,1.06,2.1,1.51,3.18,1.83,4.42,3.72,8.83,3.56,13.77-.06,1.84-.03,3.69-.08,5.53-.17,5.96-1.75,11.47-5.69,16.05-2.12,2.47-4.48,4.76-6.89,6.95-2.29,2.08-4.9,3.82-7.17,5.93-1.96,1.82-4.27,3.02-6.65,3.94-4.33,1.68-6.76,6.36-5.71,9.97,.65,2.23,.28,4.45-.5,6.66-1.44,4.09-2,8.32-1.1,12.63,.74,3.54,1.32,7.22,3.44,10.19,2.18,3.06,4.83,5.79,7.39,8.55,.77,.82,1.9,1.36,2.96,1.84,.52,.23,1.33,.21,1.81-.06,.26-.14,.22-1.07,.11-1.6-.51-2.54-1.08-5.07-1.65-7.6-.56-2.5-.45-5,0-7.5,.57-3.13,1.14-6.27,1.74-9.4,.07-.38,.32-.72,.48-1.09,.9-1.27,1.55-2.94,2.77-3.72,2.59-1.65,4.13-4.05,5.8-6.46,.69-.99,1.75-1.75,2.73-2.5,.65-.5,1.46-.8,2.19-1.21,8.05-4.5,15.98-9.22,24.17-13.44,5.33-2.74,10.53-5.57,15-9.58,3.08-2.76,5.8-5.86,7.09-9.91,2.04-6.41,3.65-12.91,4.08-19.65,.35-5.44,.78-10.87,.99-16.31,.09-2.41,.16-4.89-.89-7.21-.3,4.77-.18,9.55-.55,14.29-.68,8.78-1.84,17.45-4.76,25.88-2.21,6.39-6.18,11.14-11.68,14.59-6.89,4.32-14.04,8.2-21.06,12.31-5.14,3-10.29,5.99-15.33,9.14-1.55,.96-3.34,2.01-3.26,4.34,0,.28-.26,.64-.51,.83-1.42,1.14-2.81,2.35-4.33,3.34-1.6,1.04-2.76,3.31-2.42,5.27Zm-71.47,93.5c1.58,4.5,.89,9.23,1.28,14.45,1.41-2.82,.6-5.4,1.06-7.76l.54,.03c.02,2.02,.04,4.04,.06,6.28,2.83-.66,5.43-1.28,8.12-1.91-.22-.3-.28-.49-.41-.55-3.77-1.76-6.47-4.68-8.79-8.04-.59-.86-1.29-1.63-1.94-2.45-.24-1.37-.39-2.77-.75-4.11-2.17-8.11,1.2-15.77,7.64-20.32,2.91-2.06,6.35-3.36,9.54-5.03,2.59-1.36,5.46-2.39,7.69-4.2,4.96-4.02,6.8-9.8,7.85-15.87,.11-.63-.08-1.33-.23-1.98-.55-2.34-2.21-3.85-3.9-5.31-6.12,4.62-11.84,9.47-16.7,15.32-6.73,8.1-11.75,15.73-11.98,18.92,1.47-.17,2.93-.34,4.56-.53-2,3-5.16,3.48-7.66,1.2,6.44-14.83,17.14-26.1,30.09-35.43-1.42-.52-2.89-1.09-4.37-1.61-1.25-.43-2.2-.33-3.35,.74-2.88,2.68-5.98,5.15-9.1,7.56-6.96,5.36-13,11.63-18.71,18.26-2.23,2.59-4.38,5.29-7.41,7.34-1.14-.69-2.3-1.36-3.42-2.08-1.76-1.14-3.48-2.35-5.25-3.48-5.19-3.31-10.93-5.52-16.52-8.02-5.92-2.65-11.97-4.86-18.24-6.53-1.54-.41-3.02-1.06-4.71-1.67-2.48,3.71-6.32,6.03-10.71,7.46-1.41,.46-2.94,.62-4.43,.74-3.67,.28-7.35,.49-11.03,.65-2.84,.12-5.69,.09-8.53,.2-1.93,.07-2.66,1.29-2,3.07,.71,1.9,1.71,3.44,3.88,3.9,.34,.07,.61,.45,.91,.69-.53,1.04-1.31,.79-2.03,.67-3.46-.57-6.13-2.28-8.52-4.91-2.51-2.76-2.25-8.07,.88-10.87,2.79-2.5,6.05-3.6,9.59-3.9,3.54-.3,5.83-2.6,8.7-4.37-.44-.33-.62-.57-.82-.6-5.24-.68-10.47-1.45-15.73-1.93-2.39-.22-4.92-.2-7.25,.33-8.41,1.93-16.76,4.13-25.14,6.2-1.62,.4-3.32,.54-4.9,1.07-8.6,2.87-17.25,5.6-24.74,11.02-3.59,2.6-7.09,5.29-10.14,8.14,2.13,1.53,4.2,2.9,6.14,4.44,1.88,1.49,3.17,3.46,3.95,5.73,1.3,3.76-.27,7.16-3.98,8.56-1.24,.47-2.55,.74-3.96,1.14-.55,1.76-1.08,3.61-1.72,5.42-.75,2.13-.11,3.66,1.62,5.04,7.13,5.68,14.75,10.61,23.18,14.08,6.2,2.55,12.63,4.53,19,6.66,4.61,1.55,9.3,2.86,13.92,4.39,6.38,2.12,12.84,3.99,19.55,4.62,4.25,.4,8.47,1.33,12.79,.86,1.73-.19,2.97-.67,3.63-2.47,.39-1.08,.82-2.32,2.3-3.01,.08,.59,.26,1,.15,1.32-.24,.71-.66,1.36-.95,2.06-1.33,3.19-.83,4.15,2.46,5.03,4.15,1.11,8.23,1.44,12.22-.61,.44-.23,.94-.35,1.42-.51,5.56-1.88,11.13-3.75,16.69-5.65,1.17-.4,2.32-.87,3.48-1.31-.06-1.29-.19-2.37-.14-3.45,.04-1.01-.43-2.17,.73-3.23,.23,1.06,.42,1.9,.67,3.04,.34-1,.6-1.71,.83-2.42,1.31-4.11,3.06-8.03,5.73-11.42,2.22-2.83,4.55-5.63,7.15-8.12,5.57-5.35,12.11-8.72,20.06-8.57,2.77,.05,5.3,.75,6.95,3.32,.95,1.47,2.08,2.83,3.13,4.24Zm60.48-57.04c.32,.23,.66,.45,.97,.7,2.1,1.69,4.24,3.38,5.48,5.83,2.48,4.89,3.77,10.01,2.62,15.54-.11,.52-.07,1.08-.1,1.74,.69-.09,1.19-.12,1.67-.22,.47-.1,.92-.27,1.5-.44,0-1.51-.11-2.94,.02-4.34,.12-1.31-.65-3.02,1.54-3.92,.57,3.29-.04,6.35,.16,9.62-2.04-.35-3.55,2.06-5.5,.2-1,1.75-1.97,3.22-2.72,4.8-3.53,7.46-9.01,13.02-16.2,16.99-4.82,2.66-10.03,3.8-15.45,3.68-3.76-.08-7.54-.55-11.25-1.17-2.85-.48-4.48,.94-5.82,2.97-.58,.87-.86,2-1.05,3.06-.44,2.43,.29,4.68,1.58,6.69,1.05,1.63,3.58,2.14,5.43,1.21,2.07-1.04,.62-2.39,.24-3.63-.48-1.56-.1-2.4,1.4-2.95,1.89-.7,4.08,.43,4.72,2.5,.57,1.83,.36,3.65-.24,5.44-.21,.64-.35,1.3-.53,1.98,26.05-7.34,52.03-13.35,79.23-15.68-3.02-3.88-4.74-7.72-4.09-12.39,.62-4.47,2.14-8.4,5.64-11.41-2.93-3.85-6.38-6.8-9.99-9.52-1.78-1.34-3.82-2.41-5.87-3.33-4.03-1.81-8.4-2.17-12.73-2.5-1.37-.11-2.82,.32-4.18,.71-1.97,.57-3.88,1.33-6.08,2.1,.31-3.53-.13-6.7-2.22-9.31-2.07-2.59-4.69-4.5-8.19-4.96Zm-47.22,1.13c-4.82-1.84-9.08-3.59-13.43-5.07-4.52-1.53-9.12-2.84-13.71-4.16-6.44-1.85-12.92-3.6-19.36-5.46-1.29-.37-2.92-.15-3.68-1.78-.1-.22-.96-.26-1.39-.13-4.82,1.39-9.7,2.46-14.39,4.39-5.11,2.1-7.59,5.69-8.35,10.92-.29,1.97-.95,3.89-1.5,5.82-.24,.86-.61,1.68-.97,2.64,17.21,4.25,32.28,12.71,47.69,21.12,8.89-10.07,16.9-21.07,29.09-28.28Zm-21.12,71.02c-.19-2.32-.12-4.7-.63-6.95-.86-3.76-3.66-5.53-7.48-5.83-3.01-.24-5.2,1.47-7.25,2.9-4.27,2.98-6.85,7.31-7.71,12.53-.84,5.09,.46,8.24,4.92,10.79,3.77,2.15,8.22,2.35,11.88-1.03,3.64-3.37,5.61-7.47,6.28-12.41ZM-15.07,230.08c2.3-3.23,4.58-10.88,3.87-16.8-.39-3.2,.4-6.16,1.99-8.92,.53-.92,1.12-1.8,1.69-2.71-2.78-1.3-3-1.27-5.12,.29-8.9,6.56-15.9,14.87-22.14,23.89-.26,.38-.38,.86-.63,1.46,6.92,.95,13.62,1.87,20.34,2.8ZM122.92,16.69c-2.39-2.44-4.41-4.66-6.61-6.67-.88-.81-2.13-1.47-3.3-1.65-2.13-.33-4.32-.36-6.48-.3-1.48,.04-2.99,.31-4.42,.73-4.34,1.28-7.47,4.26-10.43,7.53,1.97,1.09,3.85,2.16,5.74,3.18,.8,.43,1.61,.9,2.48,1.16,8.11,2.44,15.48,.46,23.01-3.97ZM44.87,135.88c-.11,3.06,.5,6.34,1.11,9.63,.42,2.26,.81,4.52,1.19,6.61,6.13-3.85,12.49-7.85,18.78-11.8-2.06-4.69-4.18-9.52-6.27-14.27-4.88,3.24-9.62,6.38-14.81,9.82Zm169.25,122.67l-.45-.59c.54-1.65,1.52-3.1,2.71-4.35,1.14-1.2,2.54-2.15,3.94-3.31-3.39-.09-6.59,3.31-9.31,9.7,.51,.09,.98,.18,1.46,.26,3.67,.67,5.29,3.94,3.45,7.19-.6,1.07-1.54,1.99-2.45,2.84-2.48,2.3-5.58,3.36-8.83,4-.7,.14-1.65,.29-1.94-.91,4.43-.37,8.27-1.78,11.32-4.99,1.03-1.09,1.68-2.31,1.59-3.83-.08-1.52-1.24-2.9-2.71-3.28-1.51-.39-3.04,.19-3.88,1.44-1.88,2.78-3.78,5.55-5.66,8.32-1.72,2.53-3.42,5.07-5.34,7.92,1.34-.03,2.34,0,3.32-.09,4.26-.39,8.03-1.97,11.72-4.17,3.16-1.88,5.61-4.25,7.41-7.34,1.26-2.17,1.65-4.55,.76-7.02-.8-2.24-1.87-2.85-4.24-2.36-.96,.2-1.92,.37-2.88,.55ZM61.73,40.25c1.93,.45,3.57,.77,5.17,1.21,1.93,.54,3.81,1.25,5.74,1.77,2.94,.79,5.94,.91,9.16,.41-.09-.8-.12-1.54-.26-2.25-.81-4.03-1.4-8.08-1.35-12.22,.03-2.56-.77-3.21-3.37-3.18-.5,0-1.01,.06-1.49,.21-5.06,1.58-9.29,4.26-11.69,9.21-.72,1.49-1.23,3.08-1.92,4.84ZM244.81,222.43c-.55,.58-1.14,.93-1.31,1.42-1.08,3.15-2.1,6.32-3.07,9.5-.13,.44,.12,.98,.17,1.48,.31,2.86,2.17,4.86,3.88,6.91,4.05,4.88,8.36,5.71,13.84,3.09,1.24-.59,1.52-1.35,1.01-2.52-2.97,.1-3.7-.07-5.81-1.99-2.73-2.5-4.88-5.34-4.36-9.39,.27-2.13,.49-4.27,.71-6.2-1.15-2.06-3.92,.31-5.06-2.29ZM119.77,60.01c9.27,7.38,19.03,6.54,24.35,.67-1.22-1.25-2.53-2.43-3.65-3.78-2.74-3.31-9.09-3.78-12.11-2.44-3.07,1.37-5.8,3.26-8.59,5.55ZM45.06,154.32c-3.56-.77-4.53-3.85-6.85-5.56-.86,2.04,1.26,2.33,1.88,3.46-2.8,.46-3.79-1.36-2.89-4.96-1.09-1.68-2.18-3.35-3.44-5.3-3,2.85-6.79,4.35-9.84,7.06,3.52,4.47,7.38,8.39,9.38,13.87,3.97-2.89,7.66-5.58,11.76-8.56Zm50.36-40.09c1.32-5.56,3.07-10.88,2.85-16.78-2.41-.59-4.72-1.15-7.14-1.75-1.53,5.26-2.96,10.2-4.44,15.28,.83,.41,1.62,.91,2.47,1.21,2.03,.72,4.1,1.35,6.26,2.05Zm4.77-15.93c-1.21,5.8-2.31,11.09-3.41,16.39,.89,.38,1.62,.7,2.38,1.03-.11,1.99-.22,3.84-.32,5.68l.53,.04,.62-5.5c1.8-.63,3.11,0,4.02,1.09,.87,1.04,1.37,2.4,2.13,3.79,.19-1.93-.6-3.36-1.28-4.23,.82-5.89,1.58-11.3,2.36-16.89-2.4-.48-4.65-.92-7.03-1.39Zm16.13,15.57c-.08-1.39-.13-2.39-.2-3.39-.2-3.01-.35-6.03-.63-9.03-.19-2-.31-2.03-2.38-1.85-1.17,.1-2.34,.23-3.5,.39-.84,.12-1.28,.58-1.39,1.5-.48,4.08-1.06,8.16-1.51,12.25-.09,.77,.02,1.71,.42,2.34,.64,1.01,1.59,1.82,2.41,2.71l.34-.29c-.66-.92-1.32-1.83-2.08-2.88,3.98-.76,5.6,1.78,7.36,4.17-.1-2.08-2.08-3.02-2.85-4.69,1.41-.43,2.67-.82,4.01-1.23Zm-45.62,29.95c-1.76-.88-2.84-2.51-4.91-1.35-3.25,1.82-5.99,4.53-9.67,5.62-.22,.07-.37,.33-.58,.47-4.29,3.04-8.59,6.08-12.88,9.12-1.16,.82-2.31,1.66-3.46,2.51-1.1,.81-2.18,1.63-3.27,2.45,1.56,.83,2.86,1.53,4.22,2.26,8.75-8.93,19.6-14.81,30.55-21.09Zm9.72-27.64c1.15-2.08,2.52-3.93,4.72-5.06,.34-.18,.52-.8,.65-1.25,1.06-3.53,2.1-7.06,3.12-10.6,.25-.88,.49-1.79,.57-2.7,.05-.52-.05-1.29-.39-1.56-1.46-1.18-2.89-2.47-4.87-3.14-1.54,4.01-3.02,7.88-4.52,11.79,.75,1.12,1.48,2.2,2.19,3.27-1.31,.95-2.7,1.61-3.1,3.46,3.97-3.4,4.18-3.4,6.49-.17-2.44,1.29-4.36,3.03-4.85,5.95Zm-43.65,95.71l-.05,.78c1.83,.52,3.67,.99,5.48,1.55,8.24,2.56,16.5,5.09,24.71,7.76,5.65,1.84,11.27,3.83,16.84,5.9,2.61,.97,3.59,.79,5.29-1.83-.96-.3-1.91-.61-2.86-.88-5.4-1.53-10.76-3.2-16.21-4.55-7.32-1.82-14.68-3.43-21.82-5.92-3.08-1.07-6.23-1.92-9.37-2.8-.62-.17-1.34-.02-2.02,0ZM88.73,13.24l.37,.5c.64-.64,1.27-1.3,1.93-1.92,1.57-1.5,3.07-3.09,4.73-4.48,6.79-5.63,16.52-5.37,22.88,.68,1.42,1.35,2.43,3.13,3.66,4.74l-1.11,.72c1.1,1.13,2.12,2.2,3.19,3.3-.35,1.38-.34,2.99-2.17,3.66-.47,.17-.82,.83-1.09,1.34-1.37,2.53-3.56,4.29-5.92,5.69-3.42,2.04-7.13,2.92-11.07,1.3-.97-.4-2.01-.63-3.01-.94,2.61,2.47,5.45,4.01,9.19,3.15,3.86-.89,6.75-3.17,9.45-5.89,1.94-1.96,3.98-3.83,6.08-5.62,.98-.84,2.22-1.38,3.87-2.37-.99-.03-1.06-1.1-1.84-.17-.86,1.02-1.69,.85-2.48-.27l.95-1.26c-1.56-1.62-2.97-3.05-4.34-4.52-1.19-1.28-2.26-2.67-3.48-3.91-5.11-5.16-11.33-5.53-17.74-3.49-5.19,1.65-8.77,5.62-12.05,9.76Zm41.08,80.74c.53,2.01,.94,3.8,1.49,5.55,.57,1.78,.72,3.73,1.92,5.52,2.43-2.67,5.07-2.39,8.01-.75-.97-1.96-2.65-2.06-4.15-2.49,1.4-2.04,2.46-2.27,4.4-1.06,.63,.39,1.21,.86,1.81,1.29-.43-.94-1.04-1.84-1.83-2.01-1.88-.43-2.4-1.86-2.98-3.31-.53-1.32-.99-2.67-1.52-3.98-.39-.97-.86-1.92-1.44-3.22-2.05,1.6-3.81,2.98-5.7,4.47Zm9,84.28c.07,2.94,.61,4.69,2.45,6.45,.56,.54,1.58,1.24,2.11,1.06,1.67-.6,3.57-.97,4.67-2.62,1.43-2.13,1.27-6.54-.28-8.62-1.95-2.63-5.97-2.53-7.62,.27-.62,1.05-.89,2.3-1.32,3.45Zm-18.29-80.71c-1.04,.34-1.91,.62-2.77,.92-.9,.32-1.25,.86-1.15,1.91,.33,3.58,.53,7.16,.78,10.75,.11,1.55,.34,2.97,2.18,3.54,.53,.16,.88,.93,1.29,1.45,.31,.39,.57,.83,.86,1.24-.05-1.04-.33-1.94-.88-2.62-.51-.63-1.3-1.04-2.03-1.6,2.76-1.46,3.4,1.25,5.07,2.01l-2.06-3.11c.45-.23,.82-.42,1.19-.59,.44-.21,.88-.4,1.46-.67-1.18-4.42-1.72-8.92-3.94-13.22Zm-11.85-6.54c1.14-.06,1.81-.03,2.46-.15,2.7-.48,5.39-.98,8.08-1.51,.78-.15,1.45-.55,1.41-1.49-.1-1.97,0-3.99-1.13-5.91-3.46,.73-6.86,1.45-10.46,2.21-.12,2.22-.23,4.43-.36,6.85Zm-12.09,.03c3.94,1.05,7.32,.33,10.85,.03,.07-2.41,.12-4.54,.19-6.83-3.27-.12-6.33-.24-9.72-.37-.44,2.38-.85,4.63-1.32,7.17Zm-10.65-3.44c2.45,1.08,4.65,2.07,6.88,3,.81,.34,1.79,.47,2.1-.61,.62-2.12,1.66-4.16,1.54-6.4-3.09-1.17-6-2.28-9.04-3.43-.51,2.55-.96,4.84-1.48,7.45Zm-45.57,87.77c1.16,2.29,2.5,4.1,3,6.11,.92,3.73,2.79,6.7,5.45,9.39,4.85,4.91,10.75,7.24,17.54,7.56,.35,.02,.71-.21,1.42-.43-.62-.34-.87-.52-1.15-.63-3.19-1.24-6.48-2.29-9.56-3.76-5.18-2.47-9.37-6.07-11.9-11.4-.93-1.96-2.05-3.83-3.18-5.68-.27-.45-.92-.67-1.63-1.16Zm213.68,49.77c-3.5,5.72-.92,11.77,5.56,13.05,.13-2.43,.32-4.84,.39-7.27,.17-5.49-.25-4.85-4.27-5.59-.56-.1-1.14-.14-1.68-.2ZM131.77,78.26c-3.6,1.27-7.06,2.48-10.39,3.65,.22,2.18,.44,4.23,.65,6.34,2.68-.32,4.81-1.71,7.1-2.7,2.64-1.14,3.76-2.83,2.76-5.66-.13-.38-.07-.82-.13-1.63ZM-109.01,259.08c2.09,1.03,3.75,1.65,5.2,2.59,2.29,1.48,4.15,3.4,4.56,6.29,.44,3.08-1.25,5.29-4.37,5.45-1.37,.07-2.75-.28-4.13-.43,.16,.18,.38,.64,.67,.7,2.03,.37,4.13,1.1,6.12,.88,3.52-.39,4.82-2.75,4.41-6.3-.5-4.3-4.98-9.01-10.75-9.79-.4-.05-.84,.29-1.7,.62ZM132.75,77.79l1.02,4.88c2.45-1.21,4.61-2.1,6.61-3.29,2.54-1.51,2.69-2.5,1.17-5.36-1.34,.65-2.67,1.36-4.05,1.95-1.45,.62-2.95,1.14-4.75,1.82Zm15.17,2.29c-1.67,.69-2.82,2.26-4.08,3.69-.18,.21-.29,.71-.17,.93,.94,1.61,1.4,3.67,3.82,4.15,.81-1.36,1.76-2.66,2.4-4.09,.57-1.27,1.44-1.73,2.3-1.64-1.17-.83-2.55-1.82-4.27-3.04Zm-16.65,99.21c1.61-1.29,3.25-2.18,5.17-1.42,.67-1.28,1.19-2.43,1.86-3.48,.63-1,1.42-1.91,2.19-2.92-5.31-1.28-9.07,1.88-9.22,7.83ZM120.02,20.31c-4.17,1.69-8.31,3.55-12.94,3.5-4.68-.05-8.58-2.38-12.51-4.59,5.33,6.45,17.44,8.67,25.44,1.09ZM17.25,205.58c-2.95-4.01-7.16-4.76-11.62-4.77-3.66-.01-5.68,.49-6.83,1.64,.71,.08,1.63-.07,1.91,.28,.44,.57,.56,.91,1.48,.73,4.72-.93,9.33-.55,13.7,1.64,.43,.21,.9,.33,1.35,.49Zm192.75-19.32l.25,.25c2.11-1.49,4.17-3.05,6.34-4.44,3.15-2.03,5.1-5,6.79-8.2,.45-.86,.83-1.79,.04-3.14-2.13,2.96-3.92,5.86-6.12,8.4-2.22,2.56-4.86,4.77-7.31,7.14ZM95.54,10.81l-.26-.31c-2.2,1.74-4.41,3.49-6.81,5.39l-.39,2.08c.16,.23,.27,.47,.45,.63,2.76,2.54,5.49,5.1,8.31,7.57,.59,.52,1.52,.66,2.29,.98-3.18-3.29-5.74-7.13-10.41-8.91,.63-.43,1.32-.7,1.31-.92-.15-2.28,2.13-2.67,3.1-4.07,.64-.93,1.6-1.64,2.42-2.44Zm111.91,176.68c-3.18,3.67-8.26,4.17-11.78,7.26,4.52-1.43,9.17-2.63,11.78-7.26Zm-65.43-123.19c-2.52,.86-4.55,1.83-6.69,2.21-2.19,.39-4.48,.2-6.67,.26,3.37,1.95,9.82,.91,13.36-2.48Zm-68.71,.27c3.35,2.25,8.32,2.24,11.61-.16-2.11,.42-3.92,1.04-5.73,1.06-1.88,.02-3.76-.55-5.88-.9ZM98.26,8.49c3.75-1.49,7.55-2.61,12.04-2.18-5.48-1.2-9.21-.77-12.04,2.18Zm52.42,169.71c.47-4.12-1.53-7.08-5.02-7.48,2.89,1.69,4.2,4.4,5.02,7.48Zm34.63,85.34c-.55-2.57-1.27-5.01-3.32-6.92-.65,.57-.99,1.07-.48,1.77,1.26,1.72,2.53,3.43,3.8,5.15Zm58.68-51.48c.78-3.46,.48-6.73-1.14-9.85,.38,3.28,.76,6.56,1.14,9.85Zm-58.32,60.82c.98-3.17,.88-5.08-.19-6.45-.93,2.21-.71,4.32,.19,6.45Zm6.28,11.88c2.41-.5,4.63-2.87,4.98-4.92-1.58,1.56-3.08,3.05-4.98,4.92Zm-49.91-97.34c-.76-.64-1.54-1.26-2.27-1.93-.67-.62-1.3-1.3-1.94-1.95,.98,2.55,1.77,3.27,4.21,3.87ZM77.67,46.27c-2.48-.75-4.66-1.41-6.85-2.07,1.93,1.61,4.2,1.96,6.85,2.07Zm120.3,34.78c-1.87-2.76-2.93-3.29-4.5-2.37,1.36,.72,2.66,1.4,4.5,2.37Zm-106.31,33.76c-1.4,.4-1.95,1.59-1.95,5.24,.77-2.06,1.38-3.72,1.95-5.24Zm-6.46,4.24c.41-.98,.73-2,1.24-2.92,.53-.97,1.23-1.84,1.86-2.75-2.35,1.12-2.98,3.25-3.09,5.68Zm-11.8,79.1c1.5,1.23,1.55,1.22,3.02-.14-1.09-.78-2.02-.83-3.02,.14Zm103.07-120.85c1.43,.98,2.28,.71,3.18-.43-1.19-.8-2.06-.53-3.18,.43Zm6.57,202.74l.47,.17c1.38-1.87,1.43-2,1.42-4.16l-1.89,3.99ZM119.17,119.2c-.12-3.27-.84-4.28-2.82-4.15q1.6,1.11,2.82,4.15Zm-22.95-4.44c-1.75,1.87-1.78,3.6-1.63,5.98,.6-2.19,1.04-3.82,1.63-5.98Zm27.77-2.98c1.01,1.21,2.02,2.41,3.04,3.62-.5-1.62-1.22-3.05-3.04-3.62Zm67.8,84.75l1.64-2.81-.31-.24c-.65,.45-1.3,.89-2.01,1.38,.22,.53,.4,.96,.69,1.66Zm-54.81-89.14c-1.12-1.64-2.41-1.9-4.13-1.77,1.4,.6,2.56,1.1,4.13,1.77Zm-24.41,97.34l.4,.08c.29-1.14,.57-2.28,.86-3.43l-.56-.12c-.23,1.16-.47,2.31-.7,3.47ZM65.06,30.67l-.52-.34-1.95,3.03,.44,.29c.68-.99,1.35-1.99,2.03-2.98Zm7.6-5.99l.11,.46,3.4-.8-.1-.43c-1.14,.26-2.27,.51-3.41,.77Zm-40.24,113.46q-.23,2.05,.76,2.85c-.25-.95-.51-1.9-.76-2.85Zm112.28-39.85l.25-.42c-.72-.44-1.44-.88-2.16-1.32l-.24,.39c.72,.45,1.43,.9,2.15,1.35ZM80.11,24.32l-.02-.83-1.96,.28,.03,.47,1.95,.08Zm45.08,100.97q.91,1.22,2.5,1.02l-2.5-1.02Zm9.53,53.98l2.16,1.88c-.25-1.68-.98-2.09-2.16-1.88Zm15.44-91.98l-.13,.4,1.61,.6,.16-.44-1.64-.56Zm-66.38-19.01l.03,.52h1.1l-.03-.68-1.1,.15Zm3.2-52.26c-.51-.28-.8-.49-1.13-.59-.08-.03-.42,.38-.39,.45,.16,.29,.38,.6,.65,.76,.1,.06,.43-.29,.86-.62Zm27.03-8.67l.27-.47-1.39-.48-.13,.34,1.25,.61Zm28.29,163.13l.2,.59c.44-.16,.87-.32,1.31-.47l-.1-.38-1.4,.26Z"/><path class="h" d="M71.47,285.78c-1.05-1.41-2.18-2.77-3.12-4.25-1.65-2.57-4.18-3.27-6.95-3.32-7.95-.14-14.49,3.22-20.06,8.57-2.59,2.49-4.92,5.28-7.15,8.12-2.67,3.4-4.42,7.31-5.73,11.42-.23,.72-.49,1.42-.83,2.42-.25-1.14-.44-1.98-.67-3.04-1.16,1.06-.68,2.22-.73,3.23-.05,1.08,.08,2.16,.14,3.45-1.16,.44-2.31,.91-3.48,1.31-5.56,1.89-11.13,3.77-16.69,5.65-.48,.16-.98,.28-1.42,.51-3.98,2.05-8.07,1.72-12.22,.61-3.29-.88-3.78-1.84-2.46-5.03,.29-.7,.7-1.35,.95-2.06,.11-.31-.07-.73-.15-1.32-1.48,.69-1.91,1.93-2.3,3.01-.65,1.8-1.9,2.28-3.63,2.47-4.32,.46-8.54-.46-12.79-.86-6.71-.63-13.17-2.5-19.55-4.62-4.62-1.53-9.31-2.85-13.92-4.39-6.36-2.13-12.8-4.11-19-6.66-8.43-3.47-16.05-8.39-23.18-14.08-1.73-1.38-2.37-2.91-1.62-5.04,.64-1.81,1.16-3.66,1.72-5.42,1.41-.4,2.72-.67,3.96-1.14,3.71-1.39,5.28-4.8,3.98-8.56-.78-2.27-2.08-4.25-3.95-5.73-1.94-1.54-4.01-2.91-6.14-4.44,3.06-2.86,6.55-5.55,10.14-8.14,7.48-5.42,16.14-8.15,24.74-11.02,1.58-.53,3.28-.67,4.9-1.07,8.38-2.07,16.73-4.28,25.14-6.2,2.33-.53,4.86-.55,7.25-.33,5.26,.48,10.49,1.25,15.73,1.93,.2,.03,.38,.27,.82,.6-2.87,1.76-5.16,4.07-8.7,4.37-3.54,.3-6.8,1.4-9.59,3.9-3.13,2.8-3.39,8.1-.88,10.87,2.39,2.63,5.06,4.34,8.52,4.91,.72,.12,1.5,.37,2.03-.67-.3-.24-.58-.62-.91-.69-2.17-.45-3.17-2-3.88-3.9-.66-1.78,.07-2.99,2-3.07,2.84-.11,5.69-.08,8.53-.2,3.68-.16,7.36-.37,11.03-.65,1.49-.11,3.02-.28,4.43-.74,4.39-1.43,8.22-3.75,10.71-7.46,1.69,.61,3.17,1.26,4.71,1.67,6.27,1.66,12.32,3.87,18.24,6.53,5.59,2.51,11.32,4.71,16.52,8.02,1.77,1.13,3.48,2.34,5.25,3.48,1.12,.72,2.28,1.39,3.42,2.08,3.03-2.05,5.18-4.74,7.41-7.34,5.7-6.64,11.75-12.91,18.71-18.26,3.12-2.41,6.22-4.87,9.1-7.56,1.15-1.07,2.1-1.18,3.35-.74,1.48,.51,2.95,1.08,4.37,1.61-12.95,9.34-23.65,20.6-30.09,35.43,2.49,2.28,5.66,1.8,7.66-1.2-1.64,.19-3.09,.36-4.56,.53,.22-3.19,5.25-10.82,11.98-18.92,4.86-5.85,10.59-10.7,16.7-15.32,1.69,1.45,3.35,2.97,3.9,5.31,.15,.65,.34,1.35,.23,1.98-1.05,6.06-2.9,11.85-7.85,15.87-2.23,1.81-5.1,2.84-7.69,4.2-3.19,1.67-6.63,2.98-9.54,5.03-6.44,4.55-9.81,12.21-7.64,20.32,.36,1.34,.51,2.74,.75,4.11l.07-.05Zm-91.31,3.3c-.69-.59-1.12-1.12-1.68-1.41-3.25-1.68-6.07-4.04-9.3-5.78-6.35-3.43-12.61-6.91-19.52-9.26-9.85-3.35-19.9-5.49-30.19-6.58-2.58-.27-5.2-.23-7.8-.15-2.71,.09-2.8,.28-3.18,2.86-.11,.75-.23,1.5-.24,2.25-.05,6.3,.25,6.5,5.49,8.65,10.1,4.13,20.38,7.79,30.85,10.88,8.53,2.51,17.06,5.07,25.95,6.12,1,.12,1.94,.67,3.2,1.12,1.48-3.12,3.2-6.36,6.42-8.7Zm18.81-.49c-.58-.07-1.17-.11-1.75-.2-4.6-.73-8.82,.3-12.7,2.77-5.46,3.49-6.31,11.65-1.73,16.19,2.23,2.21,5.03,3.07,7.98,3.94,6.24,1.82,11.98,.68,17.44-2.32,1.94-1.07,3.76-2.6,5.2-4.29,2.73-3.23,1.49-8.91-2.26-11.81-3.59-2.78-7.79-3.8-12.18-4.27Zm42.27-21.89l-.17-.66c-.65,0-1.31-.03-1.95,.03-7.34,.62-14.27,3-21.27,5.02-7.69,2.21-15,5.44-21.92,9.43-3.03,1.75-5.77,4-8.62,6.07-.29,.21-.39,.7-.58,1.05,16.89-10.52,35.22-16.93,54.5-20.93Zm-141.18,15.99c.24,.44,.3,.73,.47,.84,3.73,2.41,7.44,4.85,11.23,7.17,4.08,2.5,8.36,4.63,12.78,6.48,.93,.39,1.8,.9,2.72,1.31,3.75,1.66,7.39,3.7,11.29,4.88,8.43,2.56,16.96,4.81,25.51,6.91,4.31,1.06,8.76,1.54,13.15,2.21,.81,.12,1.8,.46,2.64-.59-.65-.15-1.11-.31-1.59-.37-7.99-1.1-15.93-2.43-23.71-4.59-7.43-2.06-15.01-3.66-21.99-7.15-3.15-1.57-6.34-3.06-9.57-4.45-4.4-1.9-8.55-4.25-12.62-6.78-3.06-1.9-6.15-3.75-9.24-5.61-.25-.15-.58-.15-1.08-.26Zm8.01-23.46l.53,.42c1.09-1.06,2.2-2.11,3.27-3.19,1.13-1.13,2.19-2.32,3.36-3.41,1.16-1.09,2.39-2.11,3.63-3.11,1.24-1,2.53-1.94,3.82-2.88,1.29-.94,2.57-1.89,3.9-2.77,1.33-.88,2.69-1.71,4.08-2.49,1.39-.78,2.82-1.48,4.26-2.17,1.43-.69,2.87-1.38,4.35-1.97,1.48-.59,3.01-1.04,4.5-1.6,1.37-.52,2.96-.57,4.46-1.67-.59-.14-.75-.23-.9-.21-.33,.05-.65,.15-.97,.24-6.58,1.79-12.96,4.06-18.77,7.71-1.49,.94-3.05,1.77-4.55,2.69-5.27,3.23-10,7.07-13.58,12.19-.5,.71-.93,1.47-1.4,2.21Zm66.04,40.44l.11-.82c-22.57-4.48-45.06-9.24-65.75-19.95,2.52,1.63,5.12,3.07,7.82,4.28,2.98,1.34,6.01,2.58,9.08,3.69,4.96,1.8,9.89,3.76,14.98,5.11,8.26,2.18,16.63,3.94,24.96,5.85,2.92,.67,5.86,1.24,8.79,1.85Zm-28.81-31.06l.77,.21,1.02-2.88c3.25-.87,4.61-2.35,4.6-5.01,0-2.33-1.34-3.85-3.93-4.5-2.12-.53-3.69,.19-4.82,2.21-1.14,2.03-.44,3.92,2.51,6.69-.06,.51-.15,1.09-.18,1.67-.02,.54,.03,1.08,.05,1.62Zm123,10.7l.26-.54c-.97-.62-1.88-1.37-2.92-1.85-6.49-3-12.8-1.82-18.87,1.19-7.59,3.77-12.52,10.23-16.75,17.29-.75,1.25-1.21,2.68-1.8,4.03,.59-.07,.78-.32,.91-.6,2.87-6.18,6.84-11.56,11.96-16.02,4.96-4.31,10.71-6.84,17.44-6.73,3,.05,5.81,.72,8.31,2.47,.45,.31,.97,.51,1.46,.77Z"/><path class="h" d="M131.96,228.74c3.5,.46,6.12,2.37,8.19,4.96,2.09,2.61,2.53,5.78,2.22,9.31,2.2-.77,4.12-1.53,6.08-2.1,1.35-.39,2.81-.81,4.18-.71,4.33,.33,8.71,.69,12.73,2.5,2.05,.92,4.09,1.99,5.87,3.33,3.61,2.72,7.05,5.66,9.99,9.52-3.5,3.01-5.02,6.94-5.64,11.41-.65,4.67,1.07,8.51,4.09,12.39-27.2,2.33-53.18,8.34-79.23,15.68,.18-.68,.32-1.35,.53-1.98,.6-1.8,.81-3.61,.24-5.44-.65-2.07-2.83-3.2-4.72-2.5-1.49,.55-1.88,1.39-1.4,2.95,.38,1.23,1.83,2.59-.24,3.63-1.85,.93-4.38,.42-5.43-1.21-1.29-2.01-2.02-4.26-1.58-6.69,.19-1.05,.47-2.19,1.05-3.06,1.34-2.03,2.97-3.45,5.82-2.97,3.71,.62,7.49,1.09,11.25,1.17,5.42,.12,10.63-1.02,15.45-3.68,7.19-3.97,12.67-9.53,16.2-16.99,.75-1.58,1.72-3.06,2.72-4.8,1.95,1.86,3.45-.55,5.5-.2-.19-3.27,.41-6.33-.16-9.62-2.19,.9-1.42,2.61-1.54,3.92-.13,1.41-.02,2.84-.02,4.34-.58,.18-1.03,.35-1.5,.44-.48,.1-.98,.13-1.67,.22,.03-.67,0-1.22,.1-1.74,1.15-5.52-.14-10.65-2.62-15.54-1.24-2.45-3.39-4.14-5.48-5.83-.31-.25-.65-.47-.97-.7Zm14.89,52.72c.15-4.35,.2-8.18,.16-12.02-.04-3.83,.79-7.7-.5-11.63-1.34,1.49-1.35,1.49-1.27,3.22,.14,3,.37,6,.42,9,.04,2.67-.14,5.35-.17,8.02-.01,1.02-.2,2.14,1.36,3.41Zm-7.86-.02l-.12-.6c-9.15,1.17-17.69,4.85-26.7,6.6-.31,.06-.62,.25-.87,.45-.17,.13-.23,.4-.47,.87,.84-.08,1.5-.05,2.1-.21,8.69-2.36,17.37-4.74,26.06-7.12Zm13.27-2.89c1.45,.05,2.92,.32,4.33,.12,4.88-.68,9.73-1.52,14.59-2.33,.42-.07,.82-.31,1.56-.6-3.75-.53-18.03,1.2-20.48,2.81Z"/><path class="h" d="M84.74,229.88c-12.18,7.21-20.19,18.21-29.09,28.28-15.41-8.41-30.48-16.86-47.69-21.12,.36-.96,.73-1.78,.97-2.64,.54-1.93,1.21-3.85,1.5-5.82,.76-5.24,3.24-8.82,8.35-10.92,4.69-1.93,9.58-3,14.39-4.39,.43-.13,1.29-.09,1.39,.13,.76,1.64,2.39,1.41,3.68,1.78,6.44,1.86,12.92,3.6,19.36,5.46,4.59,1.32,9.19,2.63,13.71,4.16,4.35,1.48,8.6,3.23,13.43,5.07Zm-28.41,4.2c-1.39,.32-2.79,.63-4.18,.95,1.43-.16,3.01,.26,4.16-.97,1.03,.04,2.07,.07,3.1,.11v-.45l-3.08,.36Zm-5.56,6.74l.14,.5c3.53-.67,7.06-1.34,10.58-2.01l-.08-.45c-3.55,.65-7.09,1.31-10.64,1.96Zm6.7-19.72l-.14,.57c2.27,1.57,4.65,2.48,6.77,2.34-2.52-1.11-4.58-2.01-6.63-2.9Zm-7.57,7.54l.03,.39c1.85-.18,3.7-.36,5.55-.54l-.03-.37c-1.85,.17-3.7,.35-5.55,.52Z"/><path class="h" d="M76.34,103.78l1.54-.54c1.17,1.15,.07,2.07-.2,3l1.04,.42c-2.7,2.49-2.93,5.22-1.02,8.52,2.28,3.92,5.91,5.79,10.02,7.02,5.3,1.58,10.7,1.79,16.19,1.43,6.3-.42,12.52-1.28,18.53-3.24,2.53-.82,5.06-1.74,7.17-3.42-.88-3.36-2.05-5.04-4.2-6.3-.61-4.63-1.74-8.93-3.53-13.44,2.14-.98,4.22-1.94,6.57-3.01,1.18,4.07,2.29,7.89,3.43,11.83-.53,.49-1.12,1.05-1.91,1.79,1.5,.59,2.82,1.22,3.42,2.95-3.9-3-4.13-3.02-7.03-.77,2.17,1.6,3.36,3.84,4.02,6.47,9.81-4.79,17.12-11.59,19.96-22.72-1.07-.74-2.41-1.67-3.75-2.6l-.08,.05,4.6,1.86c1.23-4.48,3.97-8.63,4.43-13.59-.86-.42-1.73-.83-2.6-1.25l-.05,.06,2.89,.33c1.6-3.59,2.18-7.34,2.31-11.48-1.93,2.61-1.74,6.19-4.34,8.13-1.06-.55-.91-1.05-.39-1.7,1.96-2.48,3.01-5.34,3.67-8.85-1.36,1.78-2.45,3.2-3.56,4.65-1.09-.92-1.25-1.63-.35-2.46,.74-.68,1.5-1.36,2.12-2.14,1.19-1.49,2.28-3.05,3.54-4.75-4.05-2.56-3.73-6.66-4.4-10.62-.58,.21-1.13,.31-1.58,.58-2.33,1.41-4.82,2.42-7.51,2.74-1.72,.2-3.49,.02-5.45,0l-.73,1.08c-5.47-2.19-10.78-1.97-15.78,1.42-2.02,1.37-3.97,2.81-4.8,5.44,1.35,.67,1.98,2.03,2.91,3,2.54,2.63,5.37,5.08,8.42,7.1,2.92,1.94,6.27,1.66,9.35,0,.99-.54,1.89-1.38,2.61-2.27,1.38-1.68,2.6-3.49,3.94-5.34l-1.34-.72c.55-.5,1.03-.93,1.73-1.56l-4.56-5.18c2.85,1.42,4.69,3.83,6.57,6.34-1.5,1.85-3.21,3.51-4.39,5.49-2.68,4.5-8.41,6.05-13.51,4.62-1.51-.42-2.83-1.73-4.09-2.8-1.66-1.41-3.16-3.01-4.76-4.49-1.31-1.22-2.66-2.38-4.26-3.82,1.25-3.33,3.97-5.77,7.4-7.53,.89-.46,1.86-.77,2.76-1.22,1.6-.79,1.71-1.83,.23-2.73-2.94-1.78-5.91-3.52-9.37-4.13-.81-.14-1.59-.45-2.7-.33,1.67,1.72,3.35,3.44,5.02,5.16l-.3,.43c-.5-.27-1.1-.45-1.49-.84-2.14-2.13-4.23-4.31-6.33-6.48-.58-.6-1.1-1.26-1.69-1.86-3.61-3.66-7.84-4.59-12.67-2.84-5.85,2.12-9.75,6.3-12.46,11.75l.1-.09c-.28,.18-.54,.36-.83,.52-.21,.12-.43,.21-1.18,.55,1.02-1.78,1.68-3.23,2.6-4.49,2.78-3.83,6.02-7.14,10.45-9.15,4.26-1.93,11.15-1.7,15.24,3.48,.56,.71,1.19,1.36,1.83,2.08,.67-1.77,1.29-3.41,1.92-5.07,.3,.27,.59,.56,1.1,1.05,1.37-1.4,2.74-2.73,4.04-4.12,2.35-2.51,4.55-5.17,7.01-7.56,4.76-4.62,10.55-5.23,16.61-3.49,3.06,.88,5.75,2.72,7.94,5.14-.73-.39-1.53-.69-2.18-1.18-5.18-3.95-10.89-4.31-16.91-2.55-3.79,1.11-6.49,3.73-8.9,6.69-2.27,2.79-4.37,5.73-7.43,7.77-.43,.29-.64,.9-1.17,1.68,1.05,.28,1.81,.49,2.58,.69,1.69,.44,3.52,.59,5.03,1.37,4.72,2.41,9.84,3.17,14.96,3.96,1.89,.29,3.84,.13,5.76,.18l-.05-.06c-.29,.14-.58,.37-.88,.39-3.88,.36-7.72,.12-11.45-1.03-3.36-1.04-6.69-2.15-10.05-3.21-.8-.25-1.63-.43-2.45-.55-.41-.06-.84,.1-1.8,.23,.93,.49,1.34,.74,1.78,.93,3.08,1.32,6.27,2.42,9.22,3.98,5.04,2.67,10.29,4.05,15.98,3.41,3.56-.4,6.91-1.37,9.53-4.04,1.17-1.2,2.49-2.26,3.59-3.52,1.02-1.18,2.1-2.4,2.65-4.38l-1.74,.62c.28-1.37,.28-1.37-.42-2.62-.28-.5-.54-1.02-.8-1.54,.84,.56,1.68,1.12,2.51,1.68-1.35-3.62-2.94-7.01-4.55-10.39-.14-.29-.42-.52-.63-.78-3.02-3.58-6.55-6.33-11.09-7.87-4.12-1.4-8.01-1.34-11.95,.43-4.34,1.95-7.75,4.95-10.08,9.09-1.14,2.03-2.13,4.17-3.06,6.31-.62,1.42-1.27,2.73-2.78,3.37,.88-2.07,1.67-4.19,2.67-6.21,.96-1.95,2-3.88,3.23-5.66,1.1-1.57,2.51-2.92,3.79-4.37,2.66-3.02,6.26-4.27,10-5.15,3.44-.81,6.61,.51,9.77,1.64,5.53,1.97,9.16,6.08,12.15,10.84,1.64,2.62,2.9,5.49,4.4,8.2,1.08,1.95,.74,3.74-.45,5.42-.87,1.22-1.75,2.53-2.91,3.44-2.9,2.26-2.75,7.57-1.43,10.02,1.61,2.98,5.64,3.39,8.18,.87,.93-.93,1.77-1.94,2.69-2.96-.23,3.28-4.01,6.12-8.19,6.13-.6,1.08-.95,2.11-.22,3.42,.32,.57,.14,1.44,.11,2.18-.18,4.9-1.34,9.6-2.64,14.3-2.34,8.46-5.68,16.49-9.96,24.12-1.24,2.21-3.03,4.32-5.05,5.84-4.01,3.02-8.17,5.94-12.59,8.29-7.37,3.92-15.13,6.77-23.74,6.54-2.83-.08-5.66,.57-8.5,.67-4.92,.17-9.72-.75-14.3-2.46-2-.74-3.89-2.01-5.54-3.39-3.13-2.61-3.9-8.4-2.01-12.87,.49-1.15,.91-2.32,1.36-3.48l-.1,.08Zm40.8-59.69l.3-.83-1.41-.41c-.08,.28-.26,.79-.21,.81,.42,.19,.88,.3,1.33,.44Z"/><path class="h" d="M83.52,54.26c.72-1.31,1.43-2.61,2.15-3.92l-.09,.09c1.36-1.23,2.72-2.45,4.06-3.68,3.32-3.05,7.08-4.99,11.72-5.11,4.03-.1,7.32,1.71,10.44,3.84,2.62,1.78,4.99,3.93,7.44,5.89,.73,4.53-1.99,7.67-4.56,10.81-2.31,2.82-4.99,5.13-8.71,6.07-7.06,1.77-15.08,.49-21.99-11.24,.21,1.8,.43,3.6,.66,5.54-1.99,1.87-4.55,1.75-7,1.55-1.37-.11-2.85-.58-3.99-1.32-2.22-1.45-4.49-2.53-7.18-2.36,0-.34-.07-.57,0-.65,2.84-2.93,6.03-5.34,10.07-6.33,2.42-.6,4.82-.38,7.08,.79,.13,.47,.13,1.03,.4,1.39,.67,.91,1.61,1.65,2.18,2.61,1.38,2.35,3.26,4.23,5.19,6.1,4.97,4.8,15.08,4.63,19.22,.45,2.11-2.13,3.99-4.48,5.92-6.77,.38-.45,.54-1.08,.8-1.63-2.39,2.36-5.16,3.88-8.24,4.85-6.42,2.03-12.73,2.07-18.59-1.67-2.44-1.56-4.64-3.49-6.95-5.26Zm9.06,5.36c4.94,2.56,9.97,2.4,15.02,1.07,4.83-1.27,8.71-3.86,10.74-8.84-1.53-1.2-3.05-2.49-4.67-3.65-2.04-1.45-4.07-2.97-6.27-4.15-4.34-2.32-8.75-1.9-13.04,.29-3.91,2-6.52,5.43-9.28,8.68-.19,.23-.21,.61-.33,1.01,2.2,1.66,4.35,3.29,6.63,5,.22-.55,.44-.93,.38-.98-1.82-1.52-3.67-3-5.58-4.55,2.17-3.5,5.15-6.19,8.81-8.25,4.26-2.4,8.71-2.45,12.79-.25,3.31,1.78,6.08,4.56,9.35,7.09-2.05,1.84-3.71,3.5-5.54,4.95-2.89,2.27-6.22,3.3-9.91,2.77-2.32-.33-4.63-.77-6.94-1.18-.79-.14-1.66-.62-2.14,.98Zm9.65-2.06c.7-1.81-.76-2.75-.83-3.98-.07-1.32-.13-2.64-.21-3.96-.08-1.24,1.08-2.4,.34-3.8-2.65,2.63-2.41,8.13,.7,11.74Zm-24.84,4.48c.08-2.37,.16-4.55,.23-6.8-1.87,.54-1.76,2.14-1.8,3.59-.03,1.27-.08,2.63,1.56,3.21Z"/><path class="h" d="M142.94,192.29c-.17,.36-.42,.7-.49,1.08-.6,3.13-1.17,6.26-1.74,9.4-.46,2.5-.57,5,0,7.5,.57,2.53,1.14,5.06,1.65,7.6,.11,.53,.15,1.45-.11,1.6-.48,.27-1.3,.29-1.81,.06-1.05-.48-2.19-1.01-2.96-1.84-2.57-2.76-5.22-5.49-7.39-8.55-2.11-2.97-2.7-6.65-3.44-10.19-.9-4.32-.34-8.54,1.1-12.63,.78-2.21,1.15-4.43,.5-6.66-1.05-3.61,1.39-8.3,5.71-9.97,2.39-.92,4.69-2.12,6.65-3.94,2.27-2.1,4.88-3.84,7.17-5.93,2.41-2.19,4.77-4.48,6.89-6.95,3.94-4.58,5.52-10.09,5.69-16.05,.05-1.84,.02-3.69,.08-5.53,.17-4.94-1.73-9.35-3.56-13.77-.45-1.08-1-2.12-1.51-3.18-2.55-5.34-2.92-10.73-.67-16.3,1.55-3.82,3.21-7.57,5.54-10.99,.49-.71,1.11-1.33,1.73-2.07,.16,.32,.26,.43,.23,.47-2.62,4.03-4.4,8.43-5.92,12.98-1.48,4.42-1.63,8.52,.52,12.85,2.64,5.33,4.72,10.93,5.84,16.83,1.19,6.29,.41,12.31-1.98,18.23-1.91,4.72-4.72,8.62-8.88,11.59-2.12,1.51-4.17,3.14-6.12,4.86-2.01,1.77-3.9,3.67-5.76,5.6-.73,.76-1.49,1.21-2.52,1.43-1.81,.39-3.48,1.07-4.86,2.45-2.27,2.27-2.96,5.13-2.6,8.08,.29,2.44-.21,4.63-.78,6.89-2.18,8.66-.53,16.59,4.68,23.79,1.33,1.83,2.78,3.57,4.23,5.3,1.07,1.27,1.18,1.27,3.11,1.64-.09-.51-.09-.98-.25-1.39-.96-2.44-1.47-4.91-1.45-7.59,.03-4.74,.55-9.38,1.83-13.93,.29-1.04,.27-2.37,1.68-2.78h-.01Z"/><path class="h" d="M122.92,16.69c-7.53,4.44-14.9,6.41-23.01,3.97-.86-.26-1.68-.73-2.48-1.16-1.9-1.02-3.77-2.09-5.74-3.18,2.95-3.26,6.09-6.25,10.43-7.53,1.42-.42,2.94-.69,4.42-.73,2.16-.06,4.35-.03,6.48,.3,1.17,.18,2.42,.84,3.3,1.65,2.21,2.01,4.22,4.23,6.61,6.67Zm-16.27,3.5c.17-.3,.35-.48,.31-.58-.88-2.56-1.46-5.12-.32-7.78,.1-.24-.27-.68-.42-1.03-.44,.25-1.16,.42-1.28,.78-.92,2.79-1.09,5.56,.77,8.09,.19,.26,.61,.35,.93,.51Z"/><path class="h" d="M44.87,135.88c5.19-3.44,9.93-6.59,14.81-9.82,2.09,4.75,4.21,9.58,6.27,14.27-6.29,3.95-12.65,7.94-18.78,11.8-.38-2.09-.77-4.35-1.19-6.61-.61-3.29-1.22-6.57-1.11-9.63Zm11.11,1.07l.22,.49c1.16-.33,2.42-.47,3.43-1.05,.59-.34,1.01-1.33,1.11-2.08,.12-.92-.65-1.45-1.53-1.69-.52-.14-1.03-.33-1.61-.52,.39-.64,.65-1.08,1.05-1.75-1.08,.05-1.89,.09-2.62,.13-.41,.64-.74,1.21-1.12,1.74-.63,.87-1.05,1.83-.25,2.72,.67,.74,1.52,.4,2.25-.13,.67-.48,1.06-.23,1.29,.59-.73,.51-1.48,1.03-2.24,1.55Zm-10.1,3.07c2.08,.34,3.19,1.69,4.05,3.44,1.02,2.08-1.02,3.15-1.72,4.92,2.64-1.41,3.44-2.9,2.84-4.91-.76-2.53-2.76-3.99-5.16-3.45Z"/><path class="h" d="M61.73,40.25c.69-1.76,1.2-3.35,1.92-4.84,2.4-4.95,6.62-7.63,11.69-9.21,.47-.15,.99-.2,1.49-.21,2.59-.03,3.4,.62,3.37,3.18-.05,4.14,.54,8.18,1.35,12.22,.14,.71,.17,1.44,.26,2.25-3.22,.5-6.22,.38-9.16-.41-1.93-.52-3.81-1.23-5.74-1.77-1.6-.45-3.24-.77-5.17-1.21Zm12.21-10.51c-2.56,.69-3.36,1.99-3.39,4.86-.03,2.8,1.17,5.41,2.94,5.96-1.96-3.59-2.01-7.06,.44-10.82Z"/><path class="h" d="M244.81,222.43c1.14,2.6,3.9,.23,5.06,2.29-.22,1.94-.44,4.07-.71,6.2-.51,4.05,1.63,6.89,4.36,9.39,2.1,1.93,2.84,2.09,5.81,1.99,.51,1.17,.23,1.93-1.01,2.52-5.48,2.62-9.79,1.79-13.84-3.09-1.71-2.05-3.57-4.06-3.88-6.91-.05-.5-.31-1.05-.17-1.48,.97-3.18,1.99-6.35,3.07-9.5,.17-.49,.76-.84,1.31-1.42Z"/><path class="h" d="M142.95,192.29c-.34-1.96,.82-4.23,2.42-5.27,1.52-.99,2.91-2.2,4.33-3.34,.24-.2,.51-.56,.51-.83-.07-2.33,1.72-3.37,3.26-4.34,5.05-3.15,10.2-6.13,15.33-9.14,7.02-4.11,14.18-7.99,21.06-12.31,5.5-3.45,9.47-8.19,11.68-14.59,2.91-8.43,4.07-17.1,4.76-25.88,.37-4.74,.24-9.52,.55-14.29,1.05,2.32,.98,4.8,.89,7.21-.21,5.44-.64,10.87-.99,16.31-.44,6.74-2.05,13.25-4.08,19.65-1.29,4.04-4.01,7.15-7.09,9.91-4.47,4-9.67,6.83-15,9.58-8.19,4.22-16.13,8.93-24.17,13.44-.73,.41-1.54,.71-2.19,1.21-.98,.75-2.04,1.51-2.73,2.5-1.66,2.41-3.21,4.8-5.8,6.46-1.22,.78-1.86,2.45-2.76,3.72,0,0,.02,0,.02,0Z"/><path class="h" d="M119.77,60.01c2.79-2.28,5.51-4.18,8.59-5.55,3.02-1.34,9.38-.87,12.11,2.44,1.11,1.35,2.43,2.53,3.65,3.78-5.31,5.88-15.07,6.71-24.35-.67Zm13.43-4.1c-2.5,.99-2.03,3.04-2.04,4.84,0,1.04,.41,1.95,2.3,1.73-2.27-2.24-.26-4.34-.26-6.56Z"/><path class="h" d="M45.06,154.32c-4.1,2.99-7.78,5.67-11.76,8.56-2.01-5.48-5.86-9.4-9.38-13.87,3.06-2.71,6.85-4.21,9.84-7.06,1.27,1.95,2.35,3.62,3.44,5.3-.9,3.6,.09,5.42,2.89,4.96-.62-1.13-2.74-1.42-1.88-3.46,2.32,1.71,3.29,4.79,6.85,5.56Zm-13.26-6.62c-.95,.06-1.68,.11-2.38,.16-1.51,3.19-1.44,3.34,2.25,4.29-.59,.48-1.06,.86-1.69,1.37,2.95,.43,4.14,0,4.31-1.56,.06-.61-.06-1.58-.45-1.84-.74-.48-1.75-.56-2.76-.84l.72-1.58Z"/><path class="h" d="M145.15,71.76c-.4,.09-.82,.14-1.21,.28-4.95,1.83-9.84,3.82-14.85,5.47-5.17,1.7-10.47,3-15.68,4.61-4.84,1.49-9.7,.97-14.45-.04-4.33-.92-8.52-2.49-12.77-3.8-.28-.09-.51-.38-.94-.73,2.32-.82,4.44-1.55,6.55-2.31,1.65-.6,3.31-1.19,4.93-1.86,1.87-.77,2.95-.58,4.17,.99,.66,.85,1.25,1.77,2.01,2.87,1.24-.97,2.42-1.84,3.55-2.79,1.26-1.05,2.46-1.28,4.13-.73,2.94,.97,5.98,1.67,9.03,2.25,4.55,.86,9.02,.24,13.42-1.1,4.57-1.39,9.22-2.56,13.3-5.2,1.98-1.28,3.95-2.54,5.25-4.6,.22-.35,.53-.65,.97-.78-.76,2.68-2.77,4.22-4.88,5.67-.88,.61-1.74,1.25-2.61,1.87l.1-.08Zm-34.92,9.3c2.63,.41,3.15-1.78,4.49-2.95l-.45,2.21,.59,.55c.96-.75,1.91-1.49,2.63-2.05,.01-.09-.05,.41-.13,1.15,1.4-.48,2.53-.83,2.69-2.49-3.24-.87-6.39-1.61-9.47-2.58-1.53-.48-2.53-.06-3.56,.96-1.28,1.26-2.65,2.43-4.15,3.79,.06,.66-.17,1.76,1.3,1.97,1.43,.21,1.91-.72,2.32-1.78,.22-.58,.41-1.18,.61-1.77,.3,.6,.25,1.11,.18,1.62-.09,.61-.2,1.22-.3,1.82,1.62,.19,2.4-.47,2.83-1.77,.35-1.04,.84-2.04,1.26-3.06l.43,.17c-.4,1.33-.8,2.66-1.26,4.2Zm-13.38-6.23c.03,2.1,.57,4.07,1.78,5.81,.19,.27,.86,.2,1.51,.33-.27-.79-.49-1.33-.63-1.88-.13-.54-.17-1.09-.25-1.64,1.02,1.09,.87,2.74,2.33,3.51,.76-2.6,.16-4.35-1.94-6.17-.93-.81-1.79-.69-2.8,.05Zm-2.5,2.54q.8,2.71,2.76,2.79c-.38-1.67-.76-3.34-1.2-5.26-2.37,1.07-4.88,1.38-6.98,2.95,.9,.33,1.8,.2,2.6,.43,.78,.22,1.44,.81,2.26,1.3,.2-.78,.35-1.39,.56-2.22Zm26.82,1.54l2.78-.98q-2.23-.46-2.78,.98Z"/><path class="h" d="M95.42,114.23c-2.16-.7-4.23-1.33-6.26-2.05-.85-.3-1.63-.79-2.47-1.21,1.48-5.08,2.91-10.01,4.44-15.28,2.42,.59,4.73,1.16,7.14,1.75,.22,5.91-1.54,11.22-2.85,16.78Z"/><path class="h" d="M100.19,98.3c2.38,.47,4.63,.92,7.03,1.39-.78,5.59-1.54,11-2.36,16.89,.68,.87,1.46,2.3,1.28,4.23-.76-1.39-1.26-2.74-2.13-3.79-.91-1.09-2.22-1.72-4.02-1.09l-.62,5.5-.53-.04c.11-1.85,.21-3.69,.32-5.68-.76-.33-1.49-.65-2.38-1.03,1.1-5.3,2.2-10.59,3.41-16.39Z"/><path class="h" d="M116.32,113.87c-1.34,.41-2.6,.8-4.01,1.23,.77,1.67,2.75,2.61,2.85,4.69-1.75-2.4-3.38-4.94-7.36-4.17,.75,1.04,1.41,1.96,2.08,2.88l-.34,.29c-.82-.89-1.77-1.7-2.41-2.71-.4-.63-.51-1.57-.42-2.34,.45-4.09,1.04-8.16,1.51-12.25,.11-.92,.55-1.38,1.39-1.5,1.16-.16,2.33-.29,3.5-.39,2.07-.18,2.19-.14,2.38,1.85,.28,3,.43,6.02,.63,9.03,.07,1,.12,2,.2,3.39Z"/><path class="h" d="M70.7,143.82c-10.95,6.28-21.8,12.16-30.55,21.09-1.36-.73-2.66-1.43-4.22-2.26,1.09-.82,2.17-1.65,3.27-2.45,1.15-.84,2.3-1.68,3.46-2.51,4.29-3.04,8.59-6.08,12.88-9.12,.2-.14,.36-.41,.58-.47,3.68-1.09,6.41-3.8,9.67-5.62,2.08-1.16,3.15,.47,4.91,1.35Z"/><path class="h" d="M80.42,116.18c.49-2.92,2.42-4.67,4.85-5.95-2.31-3.23-2.52-3.23-6.49,.17,.41-1.85,1.79-2.51,3.1-3.46-.71-1.06-1.44-2.14-2.19-3.27,1.5-3.9,2.98-7.78,4.52-11.79,1.98,.67,3.41,1.95,4.87,3.14,.34,.28,.44,1.04,.39,1.56-.08,.91-.31,1.82-.57,2.7-1.02,3.54-2.06,7.07-3.12,10.6-.13,.45-.31,1.07-.65,1.25-2.2,1.13-3.57,2.98-4.72,5.06Z"/><path class="h" d="M36.77,211.89c.67,0,1.39-.17,2.02,0,3.14,.88,6.29,1.73,9.37,2.8,7.14,2.48,14.5,4.1,21.82,5.92,5.44,1.35,10.81,3.02,16.21,4.55,.96,.27,1.9,.58,2.86,.88-1.7,2.62-2.68,2.8-5.29,1.83-5.57-2.08-11.18-4.06-16.84-5.9-8.21-2.67-16.47-5.19-24.71-7.76-1.81-.56-3.65-1.04-5.48-1.55l.05-.78Z"/><path class="h" d="M88.73,13.24c3.28-4.14,6.86-8.11,12.05-9.76,6.42-2.04,12.63-1.67,17.74,3.49,1.23,1.24,2.3,2.63,3.48,3.91,1.36,1.47,2.77,2.89,4.34,4.52l-.95,1.26c.79,1.11,1.62,1.29,2.48,.27,.78-.93,.85,.15,1.84,.17-1.65,.99-2.89,1.54-3.87,2.37-2.1,1.79-4.14,3.66-6.08,5.62-2.7,2.72-5.59,5-9.45,5.89-3.73,.86-6.58-.68-9.19-3.15,1.01,.31,2.04,.54,3.01,.94,3.94,1.63,7.65,.75,11.07-1.3,2.36-1.41,4.55-3.16,5.92-5.69,.27-.51,.62-1.17,1.09-1.34,1.83-.67,1.82-2.28,2.17-3.66-1.07-1.1-2.09-2.16-3.19-3.3l1.11-.72c-1.23-1.61-2.24-3.39-3.66-4.74-6.36-6.05-16.1-6.31-22.88-.68-1.67,1.38-3.17,2.97-4.73,4.48-.65,.63-1.28,1.28-1.93,1.92l-.37-.5Z"/><path class="h" d="M129.8,93.98c1.9-1.49,3.66-2.86,5.7-4.47,.58,1.3,1.05,2.24,1.44,3.22,.53,1.32,.99,2.67,1.52,3.98,.59,1.45,1.1,2.88,2.98,3.31,.78,.18,1.4,1.07,1.83,2.01-.6-.43-1.18-.9-1.81-1.29-1.95-1.21-3-.97-4.4,1.06,1.5,.43,3.19,.53,4.15,2.49-2.93-1.64-5.58-1.92-8.01,.75-1.2-1.79-1.35-3.74-1.92-5.52-.55-1.74-.96-3.54-1.49-5.55Z"/><path class="h" d="M138.8,178.26c.43-1.16,.71-2.41,1.32-3.45,1.65-2.81,5.67-2.9,7.62-.27,1.54,2.07,1.7,6.49,.28,8.62-1.1,1.65-3,2.02-4.67,2.62-.52,.19-1.54-.52-2.11-1.06-1.83-1.76-2.38-3.51-2.45-6.45Zm5.97,6.1c.22-1.09,.58-2.03,.39-2.15-1.17-.79-.86-1.52-.24-2.45,.15-.22-.18-.75-.28-1.14-.11-.39-.44-.98-.29-1.15,1.15-1.34-.18-1.91-.82-2.77-.3,.78-.6,1.65-.33,2.29,.34,.85,.16,1.54,.12,2.36-.06,1.18,.81,2.34,.2,3.64-.07,.15,.58,.65,1.27,1.37Z"/><path class="h" d="M120.51,97.55c2.22,4.3,2.76,8.8,3.94,13.22-.58,.26-1.02,.46-1.46,.67-.37,.18-.73,.37-1.19,.59l2.06,3.11c-1.67-.76-2.32-3.47-5.07-2.01,.73,.56,1.52,.97,2.03,1.6,.55,.68,.83,1.58,.88,2.62-.28-.41-.55-.85-.86-1.24-.4-.52-.76-1.29-1.29-1.45-1.84-.57-2.07-1.99-2.18-3.54-.25-3.58-.45-7.17-.78-10.75-.1-1.05,.25-1.59,1.15-1.91,.86-.3,1.74-.58,2.77-.92Z"/><path class="h" d="M108.65,91.01c.13-2.41,.24-4.62,.36-6.85,3.6-.76,7-1.48,10.46-2.21,1.13,1.92,1.03,3.94,1.13,5.91,.05,.94-.63,1.34-1.41,1.49-2.69,.53-5.38,1.03-8.08,1.51-.65,.11-1.32,.08-2.46,.15Z"/><path class="h" d="M96.56,91.04c.47-2.54,.88-4.79,1.32-7.17,3.39,.13,6.46,.24,9.72,.37-.06,2.29-.12,4.42-.19,6.83-3.53,.3-6.92,1.02-10.85-.03Z"/><path class="h" d="M85.91,87.59c.52-2.61,.97-4.9,1.48-7.45,3.04,1.15,5.95,2.26,9.04,3.43,.12,2.25-.92,4.29-1.54,6.4-.31,1.08-1.29,.95-2.1,.61-2.22-.93-4.42-1.92-6.88-3Z"/><path class="h" d="M40.34,175.37c.71,.49,1.35,.71,1.63,1.16,1.13,1.85,2.25,3.73,3.18,5.68,2.52,5.33,6.72,8.93,11.9,11.4,3.08,1.47,6.37,2.51,9.56,3.76,.28,.11,.53,.29,1.15,.63-.71,.23-1.07,.45-1.42,.43-6.79-.32-12.68-2.65-17.54-7.56-2.66-2.69-4.53-5.66-5.45-9.39-.5-2.01-1.84-3.82-3-6.11Z"/><path class="h" d="M131.77,78.26c.06,.81,0,1.25,.13,1.63,1,2.84-.12,4.52-2.76,5.66-2.29,.99-4.42,2.37-7.1,2.7-.22-2.12-.43-4.17-.65-6.34,3.33-1.17,6.78-2.39,10.39-3.65Z"/><path class="h" d="M146.6,91.17l-2.07,1.54c1.38,1.07,2.56,1.98,3.74,2.9l-.26,.35c-.8-.54-1.59-1.09-2.42-1.6-.97-.6-1.83-.61-2.64,.4-.73,.9-1.61,1.68-2.75,2.84-1.15-2.87-2.19-5.46-3.29-8.2l5.08-4.42c1.57,2.18,3.04,4.22,4.52,6.25,0,0,.09-.06,.09-.06Z"/><path class="h" d="M72.28,139.87c-1.8,.26-.85,1.55-.81,2.59-3.58-1.03-4.8-4.11-6.26-6.79-1.38-2.55-2.32-5.35-3.14-8.32,1.66,1.11,3.32,2.22,5.2,3.47,.45,3.03,1.73,5.97,3.97,8.44,.25,.28,.67,.41,1.01,.62h.03Z"/><path class="h" d="M132.75,77.79c1.8-.68,3.3-1.19,4.75-1.82,1.38-.59,2.7-1.3,4.05-1.95,1.52,2.86,1.38,3.85-1.17,5.36-1.99,1.18-4.16,2.08-6.61,3.29l-1.02-4.88Z"/><path class="h" d="M147.93,80.08c1.72,1.22,3.1,2.21,4.27,3.04-.86-.09-1.73,.37-2.3,1.64-.64,1.44-1.59,2.73-2.4,4.09-2.41-.48-2.87-2.55-3.82-4.15-.12-.21-.02-.72,.17-.93,1.26-1.43,2.41-3,4.08-3.69Z"/><path class="h" d="M131.28,179.29c.15-5.95,3.91-9.11,9.22-7.83-.77,1.01-1.56,1.92-2.19,2.92-.67,1.06-1.19,2.21-1.86,3.48-1.92-.76-3.55,.13-5.17,1.42Z"/><path class="h" d="M120.02,20.31c-8.01,7.58-20.11,5.37-25.44-1.09,3.93,2.2,7.82,4.54,12.51,4.59,4.63,.05,8.76-1.81,12.94-3.5Z"/><path class="h" d="M17.25,205.58c-.45-.16-.92-.28-1.35-.49-4.37-2.18-8.98-2.56-13.7-1.64-.92,.18-1.04-.17-1.48-.73-.27-.35-1.19-.19-1.91-.28,1.14-1.15,3.16-1.65,6.83-1.64,4.46,.02,8.66,.77,11.62,4.77Z"/><path class="h" d="M210,186.26c2.45-2.36,5.09-4.57,7.31-7.14,2.2-2.54,3.99-5.44,6.12-8.4,.79,1.35,.41,2.28-.04,3.14-1.69,3.2-3.65,6.17-6.79,8.2-2.17,1.4-4.23,2.96-6.34,4.44l-.25-.25Z"/><path class="h" d="M145.05,71.84c1.16-.58,2.34-1.14,3.49-1.73,.87-.45,1.72-.96,2.55-1.42,.96,1.05,1.13,1.91,.06,2.72-2.31,1.76-4.63,3.52-7.23,5.5-.28-1.41-.49-2.43-.68-3.35,.73-.7,1.31-1.25,1.89-1.81l-.09,.08Z"/><path class="h" d="M95.54,10.81c-.82,.81-1.78,1.52-2.42,2.44-.97,1.39-3.24,1.79-3.1,4.07,.01,.22-.68,.49-1.31,.92,4.67,1.78,7.23,5.61,10.41,8.91-.77-.32-1.7-.46-2.29-.98-2.82-2.46-5.55-5.03-8.31-7.57-.18-.16-.29-.4-.45-.63l.39-2.08c2.4-1.9,4.61-3.64,6.81-5.39l.26,.31Z"/><path class="h" d="M207.45,187.49c-2.61,4.63-7.26,5.83-11.78,7.26,3.51-3.09,8.6-3.59,11.78-7.26Z"/><path class="h" d="M152.96,78.24c-.53,.93-1.06,1.86-1.58,2.79-2.77-2.04-2.52-3.42,1.02-5.2,1.36,.56,.72,1.57,.5,2.47l.05-.06Z"/><path class="h" d="M142.02,64.3c-3.54,3.39-9.99,4.43-13.36,2.48,2.19-.06,4.48,.13,6.67-.26,2.14-.38,4.17-1.35,6.69-2.21Z"/><path class="h" d="M73.3,64.57c2.11,.35,4,.92,5.88,.9,1.82-.02,3.63-.64,5.73-1.06-3.29,2.39-8.26,2.41-11.61,.16Z"/><path class="h" d="M98.26,8.49c2.83-2.95,6.56-3.38,12.04-2.18-4.49-.44-8.29,.69-12.04,2.18Z"/><path class="h" d="M150.69,178.19c-.81-3.07-2.13-5.78-5.02-7.48,3.49,.4,5.49,3.36,5.02,7.48Z"/><path class="h" d="M142.05,187.41c-2.44-.6-3.22-1.32-4.21-3.87,.65,.65,1.27,1.33,1.94,1.95,.73,.67,1.51,1.29,2.27,1.93Z"/><path class="h" d="M77.67,46.27c-2.65-.11-4.92-.46-6.85-2.07,2.19,.66,4.37,1.32,6.85,2.07Z"/><path class="h" d="M197.97,81.05c-1.84-.97-3.13-1.65-4.5-2.37,1.57-.92,2.63-.39,4.5,2.37Z"/><path class="h" d="M91.66,114.81c-.56,1.52-1.18,3.18-1.95,5.24,0-3.65,.54-4.85,1.95-5.24Z"/><path class="h" d="M85.2,119.05c.11-2.42,.75-4.56,3.09-5.68-.63,.91-1.33,1.79-1.86,2.75-.51,.92-.83,1.95-1.24,2.92Z"/><path class="h" d="M73.39,198.15c1-.97,1.93-.92,3.02-.14-1.47,1.36-1.52,1.37-3.02,.14Z"/><path class="h" d="M176.46,77.3c1.13-.96,1.99-1.23,3.18-.43-.9,1.14-1.76,1.4-3.18,.43Z"/><path class="h" d="M119.17,119.2q-1.22-3.03-2.82-4.15c1.98-.13,2.7,.88,2.82,4.15Z"/><path class="h" d="M46.98,129.11c-.24,1.01-.47,2.02-.71,3.03-.12,.5-.26,.99-.51,1.95-.48-2.15-.2-3.09,1.22-4.98h0Z"/><path class="h" d="M96.22,114.76c-.59,2.16-1.03,3.79-1.63,5.98-.15-2.39-.12-4.12,1.63-5.98Z"/><path class="h" d="M46.98,129.12c-.36-2.16,.8-3.76,2.12-5.3-.71,1.76-1.41,3.53-2.12,5.29h0Z"/><path class="h" d="M123.99,111.78c1.82,.57,2.53,2,3.04,3.62-1.01-1.21-2.02-2.41-3.04-3.62Z"/><path class="h" d="M191.8,196.53c-.29-.7-.47-1.14-.69-1.66,.72-.49,1.37-.94,2.01-1.38l.31,.24-1.64,2.81Z"/><path class="h" d="M136.99,107.38c-1.56-.67-2.73-1.17-4.13-1.77,1.72-.13,3.01,.13,4.13,1.77Z"/><path class="h" d="M112.58,204.73c.23-1.16,.47-2.31,.7-3.47l.56,.12c-.29,1.14-.57,2.28-.86,3.43l-.4-.08Z"/><path class="h" d="M65.06,30.67c-.68,.99-1.35,1.99-2.03,2.98l-.44-.29,1.95-3.03,.52,.34Z"/><path class="h" d="M72.66,24.69c1.14-.26,2.27-.51,3.41-.77l.1,.43-3.4,.8-.11-.46Z"/><path class="h" d="M32.42,138.15c.25,.95,.51,1.9,.76,2.85q-.99-.81-.76-2.85Z"/><path class="h" d="M144.71,98.3c-.72-.45-1.43-.9-2.15-1.35l.24-.39c.72,.44,1.44,.88,2.16,1.32l-.25,.42Z"/><path class="h" d="M80.11,24.32l-1.95-.08-.03-.47,1.96-.28,.02,.83Z"/><path class="h" d="M125.19,125.29l2.5,1.02q-1.59,.2-2.5-1.02Z"/><path class="h" d="M134.73,179.27c1.18-.21,1.91,.2,2.16,1.88l-2.16-1.88Z"/><path class="h" d="M72.24,139.87c.3,.86,.61,1.73,.99,2.83q-1.42-1.33-.97-2.83s-.02,0-.02,0Z"/><path class="h" d="M150.17,87.29l1.64,.56-.16,.44-1.61-.6,.13-.4Z"/><path class="h" d="M83.78,68.28l1.1-.15,.03,.68h-1.1l-.03-.53Z"/><path class="h" d="M86.99,16.02c-.44,.32-.77,.67-.86,.62-.28-.16-.49-.47-.65-.76-.04-.07,.3-.47,.39-.45,.33,.1,.62,.31,1.13,.59Z"/><path class="h" d="M114.01,7.35l-1.25-.61,.13-.34,1.39,.48-.27,.47Z"/><path class="h" d="M142.3,170.47l1.4-.26,.1,.38c-.44,.16-.87,.32-1.31,.47l-.2-.59Z"/><path d="M50.78,240.82c3.55-.65,7.09-1.31,10.64-1.96l.08,.45c-3.53,.67-7.06,1.34-10.58,2.01l-.14-.5Z"/><path d="M57.48,221.1c2.05,.9,4.1,1.8,6.63,2.9-2.12,.15-4.5-.77-6.77-2.34l.14-.57Z"/><path d="M49.9,228.64c1.85-.17,3.7-.35,5.55-.52l.03,.37c-1.85,.18-3.7,.36-5.55,.54l-.03-.39Z"/><path d="M56.29,234.04c-1.12,1.25-2.71,.83-4.14,.99l4.18-.95-.04-.04Z"/><path d="M56.34,234.08c1.02-.12,2.05-.24,3.07-.36v.45c-1.03-.04-2.06-.07-3.1-.12-.01-.01,.03,.03,.03,.03Z"/><path d="M144.15,47.89c-1.92-.05-3.88,.11-5.76-.18-5.11-.79-10.23-1.55-14.96-3.96-1.52-.77-3.35-.93-5.03-1.37-.77-.2-1.53-.41-2.58-.69,.53-.78,.74-1.39,1.17-1.68,3.06-2.05,5.16-4.98,7.43-7.77,2.4-2.96,5.11-5.58,8.9-6.69,6.02-1.76,11.73-1.39,16.91,2.55,.65,.49,1.45,.79,2.18,1.18h-.01c0,1.26,1.09,1.62,1.84,2.25,1.01,1.65,2.01,3.31,3.02,4.96,.27,.51,.52,1.03,.8,1.54,.7,1.25,.7,1.25,.42,2.62l1.74-.62c-.55,1.98-1.63,3.19-2.65,4.38-1.09,1.26-2.41,2.33-3.59,3.52-2.62,2.67-5.97,3.64-9.53,4.04-5.69,.63-10.94-.74-15.98-3.41-2.95-1.56-6.14-2.66-9.22-3.98-.44-.19-.85-.44-1.78-.93,.96-.13,1.4-.29,1.8-.23,.83,.12,1.65,.3,2.45,.55,3.35,1.05,6.69,2.17,10.05,3.21,3.74,1.15,7.57,1.39,11.45,1.03,.3-.03,.59-.26,.88-.39,4.2,.65,9.25-1.4,12.36-5.61-3.41,3.06-7.57,4.44-11.93,5.39-.14,.03-.26,.18-.39,.28Zm-25.67-7.21c.68,.37,1.03,.62,1.42,.75,4.44,1.47,8.65,3.51,13.33,4.42,4.96,.97,9.8,1.37,14.62-.31,3.86-1.34,7.16-3.52,9.69-6.83-.99-1.6-1.83-3.05-2.76-4.45-3.81-5.74-9.11-8.77-16.06-8.72-3.84,.03-7.41,1.13-10.1,3.86-3.47,3.51-6.62,7.33-10.13,11.26Z"/><path d="M152.39,29.3h.01c-2.19-2.43-4.87-4.27-7.94-5.15-6.06-1.74-11.85-1.13-16.61,3.49-2.46,2.39-4.66,5.05-7.01,7.56-1.3,1.39-2.67,2.72-4.04,4.12-.51-.5-.8-.78-1.1-1.05l-.08,.06c1.51-.63,2.15-1.95,2.77-3.36,.94-2.14,1.92-4.27,3.06-6.31,2.33-4.14,5.74-7.14,10.08-9.09,3.93-1.77,7.83-1.83,11.95-.43,4.54,1.54,8.07,4.29,11.09,7.87,.22,.26,.49,.48,.63,.78,1.61,3.38,3.2,6.77,4.55,10.39-.84-.56-1.68-1.12-2.51-1.68-1.01-1.65-2.01-3.31-3.02-4.96-.61-.75-1.23-1.49-1.84-2.24Z"/><path d="M117.14,44.09c-.45-.13-.91-.25-1.33-.44-.04-.02,.14-.53,.21-.81l1.41,.41-.3,.83Z"/><path d="M83.52,54.26c2.31,1.76,4.51,3.7,6.95,5.26,5.87,3.74,12.17,3.7,18.59,1.67,3.07-.97,5.85-2.49,8.24-4.85-.26,.55-.42,1.18-.8,1.63-1.93,2.29-3.81,4.65-5.92,6.77-4.14,4.18-14.25,4.35-19.22-.45-1.93-1.87-3.81-3.75-5.19-6.1-.57-.96-1.51-1.7-2.18-2.61-.27-.36-.27-.92-.4-1.39l-.08,.05Zm5.73,5.85c2.75,3.66,8.58,6.4,11.62,5.51-4.22-.74-7.55-3.39-11.62-5.51Z"/><path d="M92.58,59.63c.49-1.59,1.35-1.12,2.14-.98,2.31,.41,4.62,.84,6.94,1.18,3.7,.53,7.02-.49,9.91-2.77,1.84-1.44,3.5-3.11,5.54-4.95-3.27-2.54-6.05-5.31-9.35-7.09-4.08-2.2-8.53-2.14-12.79,.25-3.65,2.06-6.64,4.75-8.81,8.25,1.92,1.55,3.76,3.03,5.58,4.55,.06,.05-.16,.42-.38,.98-2.27-1.72-4.43-3.34-6.63-5,.13-.4,.14-.78,.33-1.01,2.76-3.24,5.37-6.67,9.28-8.68,4.29-2.19,8.69-2.61,13.04-.29,2.2,1.17,4.23,2.69,6.27,4.15,1.62,1.15,3.14,2.44,4.67,3.65-2.03,4.99-5.91,7.58-10.74,8.84-5.05,1.32-10.08,1.48-15.02-1.07Z"/><path d="M102.24,57.57c-3.11-3.61-3.35-9.11-.7-11.74,.75,1.4-.42,2.56-.34,3.8,.09,1.32,.15,2.64,.21,3.96,.06,1.23,1.53,2.16,.83,3.98Z"/><path d="M77.39,62.05c-1.64-.57-1.59-1.94-1.56-3.21,.03-1.46-.07-3.06,1.8-3.59-.08,2.25-.15,4.43-.23,6.8Z"/><path d="M106.64,20.19c-.31-.17-.74-.25-.93-.51-1.86-2.53-1.69-5.3-.77-8.09,.12-.36,.84-.52,1.28-.78,.15,.35,.52,.79,.42,1.03-1.14,2.66-.56,5.21,.32,7.78,.04,.1-.14,.28-.31,.58Z"/><path d="M55.97,136.95c.75-.52,1.51-1.05,2.24-1.55-.23-.82-.63-1.07-1.29-.59-.73,.53-1.58,.87-2.25,.13-.81-.89-.39-1.85,.25-2.72,.38-.53,.71-1.1,1.12-1.74,.73-.04,1.53-.07,2.62-.13-.4,.66-.67,1.11-1.05,1.75,.58,.19,1.09,.38,1.61,.52,.88,.25,1.65,.77,1.53,1.69-.1,.75-.52,1.75-1.11,2.08-1.02,.58-2.28,.72-3.43,1.05l-.22-.49Zm-.64-3.03l.37,.27c.38-.34,.8-.66,1.11-1.06,.06-.08-.27-.47-.59-1.02l-.89,1.8Z"/><path d="M45.87,140.01c2.4-.54,4.41,.92,5.16,3.45,.6,2.01-.2,3.5-2.84,4.91,.7-1.77,2.74-2.84,1.72-4.92-.86-1.75-1.97-3.1-4.05-3.44Z"/><path d="M73.94,29.73c-2.46,3.76-2.4,7.23-.44,10.82-1.77-.55-2.98-3.16-2.94-5.96,.03-2.87,.83-4.17,3.39-4.86Z"/><path d="M133.2,55.91c0,2.22-2.01,4.32,.26,6.56-1.89,.22-2.31-.69-2.3-1.73,.01-1.8-.46-3.85,2.04-4.84Z"/><path d="M31.8,147.7l-.72,1.58c1.01,.28,2.02,.36,2.76,.84,.39,.25,.51,1.22,.45,1.84-.16,1.55-1.35,1.99-4.31,1.56,.63-.51,1.1-.89,1.69-1.37-3.69-.95-3.76-1.1-2.25-4.29,.7-.05,1.43-.09,2.38-.16Zm.91,4.14l.43-.12-.31-1.12c-.15,.04-.42,.11-.42,.12,.08,.38,.19,.75,.29,1.12Z"/><path d="M110.23,81.06c.46-1.54,.86-2.87,1.26-4.2l-.43-.17c-.43,1.02-.92,2.01-1.26,3.06-.43,1.29-1.21,1.96-2.83,1.77,.1-.6,.21-1.21,.3-1.82,.07-.51,.12-1.03-.18-1.62-.2,.59-.39,1.19-.61,1.77-.4,1.06-.88,1.99-2.32,1.78-1.47-.21-1.23-1.31-1.3-1.97,1.49-1.36,2.87-2.52,4.15-3.79,1.04-1.03,2.04-1.44,3.56-.96,3.08,.97,6.23,1.71,9.47,2.58-.15,1.66-1.28,2.01-2.69,2.49,.08-.74,.14-1.24,.13-1.15-.71,.56-1.67,1.3-2.63,2.05l-.59-.55,.45-2.21c-1.34,1.17-1.85,3.36-4.49,2.95Z"/><path d="M96.85,74.83c1.01-.74,1.87-.86,2.8-.05,2.1,1.82,2.7,3.58,1.94,6.17-1.46-.78-1.31-2.42-2.33-3.51,.08,.55,.12,1.11,.25,1.64,.14,.56,.36,1.09,.63,1.88-.66-.13-1.33-.06-1.51-.33-1.2-1.74-1.74-3.71-1.78-5.81Z"/><path d="M94.35,77.37c-.21,.83-.36,1.44-.56,2.22-.82-.49-1.49-1.08-2.26-1.3-.8-.23-1.7-.11-2.6-.43,2.1-1.57,4.61-1.88,6.98-2.95,.44,1.92,.82,3.59,1.2,5.26q-1.97-.08-2.76-2.79Z"/><path d="M121.17,78.91q.55-1.44,2.78-.98l-2.78,.98Z"/><path d="M144.77,184.36c-.68-.72-1.34-1.22-1.27-1.37,.61-1.3-.26-2.46-.2-3.64,.04-.82,.23-1.5-.12-2.36-.26-.64,.04-1.51,.33-2.29,.64,.85,1.96,1.43,.82,2.77-.15,.17,.19,.76,.29,1.15,.11,.39,.43,.92,.28,1.14-.62,.93-.93,1.67,.24,2.45,.18,.12-.18,1.06-.39,2.15Z"/><path class="h" d="M118.48,40.67c3.51-3.93,6.67-7.75,10.13-11.26,2.7-2.73,6.27-3.83,10.1-3.86,6.95-.06,12.25,2.97,16.06,8.72,.93,1.4,1.77,2.85,2.76,4.45-2.53,3.31-5.84,5.48-9.69,6.83-4.82,1.68-9.65,1.28-14.62,.31-4.67-.91-8.89-2.95-13.33-4.42-.39-.13-.74-.38-1.42-.75Zm22.89,2.88c-.41-.82-.69-1.3-.89-1.82-.48-1.23-1.07-2.45-1.34-3.73-.59-2.79-.25-5.51,1.11-8.06,.33-.62,.85-1.25,.2-2.12-.31,.15-.67,.21-.87,.43-2.72,2.91-3.46,9.87-1.42,13.33,.6,1.01,1.3,1.95,3.21,1.97Z"/><path class="h" d="M144.15,47.89c.13-.1,.25-.25,.39-.28,4.35-.95,8.51-2.33,11.93-5.39-3.11,4.21-8.16,6.25-12.36,5.61l.04,.06Z"/><path class="h" d="M152.39,29.3c.61,.75,1.23,1.49,1.84,2.24-.76-.63-1.84-.99-1.84-2.24Z"/><path class="h" d="M89.25,60.12c4.07,2.12,7.4,4.77,11.62,5.51-3.04,.89-8.87-1.85-11.62-5.51Z"/><path class="h" d="M55.34,133.92l.89-1.8c.32,.54,.66,.94,.59,1.02-.31,.4-.73,.71-1.11,1.06l-.37-.27Z"/><path class="h" d="M32.71,151.84c-.1-.37-.21-.75-.29-1.12,0,0,.27-.08,.42-.12l.31,1.12-.43,.12Z"/><path d="M141.37,43.55c-1.91-.03-2.61-.96-3.21-1.97-2.04-3.46-1.3-10.43,1.42-13.33,.2-.21,.56-.28,.87-.43,.66,.87,.13,1.5-.2,2.12-1.37,2.55-1.7,5.27-1.11,8.06,.27,1.28,.86,2.5,1.34,3.73,.2,.51,.48,1,.89,1.82Z"/></g></g></g></g><g id="g"/></g></svg>