<?xml version="1.0" encoding="UTF-8"?><svg xmlns="http://www.w3.org/2000/svg" xmlns:xlink="http://www.w3.org/1999/xlink" viewBox="0 0 240.49 240.49"><defs><style>.g,.h{fill:#fff;}.h,.i,.j{stroke:#fff;stroke-miterlimit:10;stroke-width:.25px;}.k{filter:url(#e);}.l{fill:#efc5ba;}.m{opacity:.91;}.n{clip-path:url(#d);}.o,.j{fill:none;}.p{opacity:.99;}</style><clipPath id="d"><circle class="o" cx="120.24" cy="120.24" r="120.24"/></clipPath><filter id="e" filterUnits="userSpaceOnUse"><feOffset dx="14.17" dy="8.5"/><feGaussianBlur result="f" stdDeviation="0"/><feFlood flood-color="#000" flood-opacity=".5"/><feComposite in2="f" operator="in"/><feComposite in="SourceGraphic"/></filter></defs><g id="a"/><g id="b"><g id="c"><g class="n"><circle class="l" cx="120.24" cy="120.24" r="120.24"/><g class="k"><path d="M86.32,212.75c-.39-4.05-.9-8.02-2.4-11.85-1.23-3.13-2.2-6.35-3.76-9.36-2.02-3.88-4.33-7.6-6.59-11.37-2.19-3.67-4.59-7.18-7.21-10.59-.66-.86-1.52-1.57-2.17-2.44-.53-.71-.92-1.5-1.36-2.26-1.28-2.17-2.62-4.16-4.19-6.16-1.46-1.87-2.76-3.84-4.25-5.69-1.57-1.93-3.22-3.89-4.65-5.9-2.98-4.18-5.96-8.35-8.82-12.6-2.93-4.36-5.94-8.67-9.15-12.85-1.28-1.67-2.5-3.39-3.82-5.04-1.23-1.55-2.31-3.15-3.48-4.72-.88-1.18-1.89-2.17-2.89-3.26s-1.76-2.09-3.08-2.83c-2.22-1.26-5.73-.25-6.43,2.19-.63,2.2-.49,4.86-.47,7.11,.03,3.37,1.34,6.52,2.9,9.51,1.31,2.51,2.85,5,4.42,7.37,.76,1.14,1.59,2.14,2.4,3.24s1.4,2.27,2.19,3.35c1.52,2.08,2.68,4.38,3.69,6.71,1.6,3.68,3.12,7.42,4.46,11.2,1.16,3.28,2.17,6.79,2.42,10.25,.32,4.44,1.03,8.73,2.22,13.04,1.94,7.07,3.77,14.18,6.29,21.11,.8,2.2,1.82,4.31,2.83,6.43,.92,1.93,1.6,3.95,2.56,5.86,1.5,3.02,3.42,6.17,5.85,8.62,1.19,1.2,2.52,2.29,3.8,3.4,.71,.62,1.37,1.28,2.08,1.89,.84,.73,1.79,1.19,2.72,1.8,1.57,1.02,3.47,1.05,5.35,1.19,2.21,.17,4.37-.19,6.53-.6,3.24-.61,7.08-2.23,8.99-4.89,1.13-1.57,1.83-3.37,2.62-5.1,.66-1.45,1.01-3.4,.57-4.94-.13-.46-.73-1.71-.15-1.82Z"/><path class="g" d="M16.47,128.14c1.68,3.08,3.7,7.65,5.94,10.4,1.6,1.96,2.08,4.54,3.21,6.77,.63,1.25,1.46,2.45,2.03,3.71,.77,1.73,1.41,3.49,2.02,5.28,.47,1.37,.72,2.82,.92,4.25,.19,1.35,.65,2.59,.98,3.9,.61,2.47,1.34,5.13,1.42,7.67,.07,2.38,.85,4.64,1.18,6.99,.29,2.1,.52,4.3,1.09,6.36,.74,2.65,1.38,5.33,2.39,7.91,1.09,2.77,1.81,5.65,2.89,8.42,.49,1.27,1.02,2.49,1.63,3.71,.34,.7,.55,1.42,.94,2.1s.85,1.34,1.22,2.04c1,1.89,1.8,3.93,2.98,5.72,1.46,2.21,2.52,4.62,3.89,6.88,.52,.87,1.24,1.61,1.85,2.42,.91,1.21,1.75,2.47,2.75,3.63,1.59,1.83,3.69,3.54,5.86,4.73,1.26,.69,2.38,1.17,3.83,1.42,1.33,.23,2.58,.22,3.93,.21,2.82-.01,5.56-.66,8.2-1.55,2.15-.73,3.92-2.14,5.18-3.92,.63-.9,1.33-1.7,1.9-2.64,.61-1,1.22-2,1.83-2.99,.55-.89,.96-1.52,1.05-2.51,.04-.42,.25-.83,.3-1.26,.07-.61,.18-1.19,.28-1.8,.08-.48,.03-.97,.11-1.45s.24-.91,.29-1.37-.05-.91-.05-1.38c0-.73,.09-1.34-.02-2.08-.2-1.41-.6-2.79-1.12-4.13-.27-.68-.61-1.32-.79-2.03-.21-.86-.35-1.63-.69-2.47-.33-.81-.78-1.61-.99-2.46-.2-.81-.24-1.59-.56-2.38-.71-1.72-1.94-3.22-2.76-4.9-.62-1.27-1.38-2.44-2-3.71-.25-.52-.62-.96-.91-1.46-.38-.66-.61-1.39-.97-2.06-.67-1.22-1.24-2.5-2.14-3.58-.41-.49-.67-1-1-1.53-.46-.74-1.09-1.38-1.62-2.07-1.78-2.28-2.96-4.88-4.71-7.17-.87-1.14-1.85-2.23-2.52-3.48s-1.64-2.57-2.52-3.73c-.83-1.1-1.92-2.01-2.8-3.07-.98-1.18-1.78-2.46-2.72-3.66-.84-1.08-1.58-2.23-2.49-3.27-.51-.58-1.02-1.09-1.49-1.71-.43-.56-.81-1.19-1.29-1.72-.9-.99-1.71-1.9-2.44-3.02-.67-1.02-1.36-2.03-2.03-3.05-.8-1.22-1.7-2.39-2.52-3.61-.91-1.36-1.63-2.82-2.59-4.15-.68-.95-1.62-1.88-2.43-2.75-.96-1.04-1.92-2.07-2.71-3.23-1.22-1.78-2.48-3.52-3.88-5.19s-2.79-3.36-3.96-5.22c-1.59-2.53-3.1-5.1-4.91-7.48-.66-.87-1.18-1.7-2-2.43-.54-.48-1.08-1.01-1.67-1.41-.5-.34-1.27-1.05-1.85-1.18,.4,.25,.86,1.11,1.2,1.44,.59,.56,1.18,1.17,1.66,1.82,.91,1.22,1.79,2.43,2.74,3.61,1.17,1.46,1.65,3.27,2.53,4.88,.87,1.59,1.77,3.26,2.89,4.73,1.19,1.57,2.08,3.26,3.21,4.87,1.38,1.95,3.02,3.72,4.45,5.65,1.5,2.03,3.05,4.04,4.44,6.14,.63,.95,1.41,1.78,2.08,2.71,.72,.99,1.28,2.07,1.98,3.07,2.81,4.04,6.13,7.73,8.8,11.86,.7,1.08,1.48,2.08,2.23,3.13,.87,1.22,1.53,2.47,2.62,3.54,.71,.7,1.33,1.46,2.02,2.18,.87,.91,1.91,1.79,2.64,2.8,3.72,5.13,6.97,10.58,10.46,15.86,.78,1.19,1.5,2.45,2.12,3.71,.78,1.61,1.78,3.12,2.66,4.68,.77,1.39,1.37,2.89,2.01,4.33,.59,1.31,1.16,2.7,1.57,4.07,.35,1.17,.57,2.28,.7,3.49,.13,1.24,.51,2.35,.81,3.56,.24,.97,.3,2.06,.31,3.05s.09,1.97,.04,2.94c-.08,1.84-.55,3.6-1.29,5.31-.4,.93-1.03,1.74-1.52,2.63-.59,1.08-1.16,2-2.08,2.9-1.43,1.4-3.19,2.71-5.14,3.36-1.77,.59-3.5,.99-5.36,1.28-2.07,.32-4.27-.34-6.24-.87-.93-.25-1.95-.58-2.82-1-1.08-.52-1.82-1.26-2.65-2.07-.89-.88-1.76-1.88-2.57-2.83-.82-.96-1.42-1.94-2.09-3-1.19-1.9-2.15-3.95-3.25-5.91-.47-.83-.78-1.73-1.21-2.58-.55-1.09-1.15-2.1-1.77-3.15-1.17-2.01-2.27-4.02-3.1-6.19-.39-1.02-.98-1.99-1.32-3.04-.4-1.27-.63-2.57-1.06-3.83-.98-2.93-1.72-5.9-2.37-8.91-.57-2.63-1.07-5.23-1.86-7.8-.75-2.48-1.01-5.04-1.56-7.56-.24-1.1-.71-2.17-.89-3.28-.2-1.18-.22-2.39-.42-3.57-.36-2.07-.84-4.11-1.33-6.16-.93-3.85-2.6-7.42-3.92-11.15-.6-1.7-1.59-3.14-2.49-4.68-.37-.64-.8-1.23-1.23-1.82-.61-.86-1.12-1.78-1.77-2.62-.98-1.26-1.61-2.51-2.7-3.68-.86-.93-1.55-2.21-2.49-3.05-.39-.35-2.19-2.64-2.61-3.15Z"/><path class="m" d="M25.79,225.01c-.15,.47-1.53,3.69-1.19,4.75,.03,.09,.19,.3,.24,.41,.31,.63,.45,1.41,.52,2.1,.09,.96-.52,2.03-1.1,2.81-1.02,1.37-2.05,2.72-2.74,4.28-.89,2.03-1.57,4.16-2.4,6.22-.76,1.87-1.24,3.65-1.57,5.63-.18,1.1-.27,2.21-.48,3.3-.18,.96-.58,1.88-.84,2.83-.41,1.51-.56,3.66-2.37,4.28-2.17,.74-3.49-1.67-4.13-3.19-.9-2.11-1.1-4.86-.72-7.08,.32-1.88,1.44-4.04,.8-5.94-.4-1.18-1.3-1.81-2.6-1.56-.75,.15-1.55,.22-2.15,.69-.88,.69-1.71,1.85-2.23,2.77-.76,1.36-1.5,2.67-2.06,4.12-.51,1.33-1.12,2.83-1.89,4.04-.73,1.14-1.43,2.35-2.33,3.37-.85,.96-2.14,1.6-3.18,2.37-.6,.45-1.41,1.27-2.24,1.28-.65,0-1.49-.56-1.89-.99-.74-.79-.76-1.77-.75-2.77,.01-1.74,.43-3.62,1.09-5.25,.99-2.44,2.2-5.04,4.25-6.82,1.69-1.46,3.61-2.61,5.17-4.21,.88-.9,2.34-2.56,1.36-3.83-.56-.72-1.64-.85-2.48-.6-1.86,.55-2.84,2.47-4.11,3.71-2.15,2.11-4.83,3.16-7.34,4.8-1.01,.66-2.09,1.48-3.23,1.95-1.23,.51-1.82,.11-2.39-.94-1.31-2.44-.52-5.33,1.15-7.47,1.95-2.51,4.91-3.68,7.76-5.04,2.37-1.13,4.88-2.23,7.38-3.07,2.52-.85,5.09-1.48,7.64-2.24,2.59-.77,5.32-1.74,7.66-3.02,1.21-.67,3.11-2.26,3.06-3.66-.02-.6-.04-.94-.36-1.4-.47-.69-.53-1.2-.49-2.1,.07-1.5-.29-3.26,.2-4.72,.19-.56,.74-.71,.9-1.31,.24-.93,.19-2.13,0-3.06-.29-1.56,.07-3.15-.11-4.71-.13-1.11,.14-2.22,.05-3.33-.1-1.33-.4-2.61-.44-3.95-.08-2.51-.23-5.02-.31-7.53-.03-.96-.25-1.89-.29-2.84-.07-1.74-.08-3.5-.26-5.23-.14-1.24-.55-2.42-.77-3.65-.31-1.68-.6-3.36-.9-5.04s-.22-3.41-.21-5.14c0-1.88-.07-3.77-.23-5.65-.22-2.6-.76-5.19-.83-7.79-.1-3.67-.07-7.3-.52-10.96-.16-1.29-.39-2.61-.7-3.88-.41-1.7-.66-3.43-1.11-5.12-.39-1.45-.86-2.8-1.06-4.3-.25-1.78-.51-3.54-.86-5.31-.85-4.22-2.55-8.42-2.58-12.76-.02-2.21,.8-4.16,1.96-6.03,1.17-1.89,1.95-2.81,4.11-3.87,1.65-.81,3.23-.95,4.84,.13,2.38,1.58,3.41,2.85,4.94,5.17,2.73,4.14,3.47,8.42,5.19,12.89,1.13,2.95,2.19,5.91,3.63,8.74,1.2,2.36,2.21,4.84,2.77,7.41,.31,1.42,.49,2.85,.75,4.28,.34,1.91,.46,3.92,.92,5.8,.42,1.72,.59,3.36,.83,5.1,.24,1.77,.46,3.48,.49,5.27,.06,3.07,.13,6.16,.03,9.24-.03,.96-.23,1.91-.32,2.86-.13,1.41-.31,2.81-.7,4.18-.43,1.5-.66,3.06-.94,4.59-.34,1.83-.79,3.62-1.31,5.42-.48,1.66-1.14,3.33-1.44,5.03-.27,1.57-.61,3.11-1.03,4.67s-.56,3.14-.86,4.73c-.2,1.09-.43,2.19-.66,3.27-.24,1.15-.29,2.28-.49,3.42-.23,1.32-.54,2.61-.57,3.95-.04,1.45-.13,2.91-.27,4.35-.05,.54-.27,1.07,.16,1.48,.18,.18,.45,.19,.63,.41,.26,.32,.32,.9,.38,1.29,.32,1.95-.28,4.17-.76,6.07-.16,.62-.53,1.58-1.07,2.01-.7,.54-1.42,.26-1.8,1.08s-.16,1.53,0,2.34c.09,.48,.18,1.52,1.78-3.52Z"/><path class="g" d="M13.05,102c-.97,.05-2.19,.2-3.21,.74-.14,.08-1.15,.69-1.23,.8-.32,.43-.68,.92-.98,1.4-.51,.81-.95,1.6-1.43,2.42-.89,1.52-1.36,2.82-1.62,4.52-.19,1.28,.05,2.48,.06,3.76,0,1.94,.75,3.67,1.04,5.59,.62,4.1,1.57,8.21,2.37,12.29,.85,4.31,1.67,8.58,2.21,12.93,.33,2.64,.6,5.28,.91,7.92s.63,5.08,.72,7.6c.1,2.98,.23,5.97,.38,8.94,.13,2.61,.49,5.21,.56,7.83,.09,3.25,.46,6.51,.59,9.73,.02,.6-.11,1.19-.02,1.78,.08,.51,.19,1.01,.24,1.55,.13,1.35,.25,2.69,.38,4.03,.41,4.16,.69,8.33,.98,12.48,.06,.86,.21,1.72,.21,2.56,0,.76-.14,1.54-.08,2.3l.1,.24c-.13,.07-.13,.17-.03,.29-.67,.1-1.21,1.45-1.35,2.01-.2,.82,.35,1.61,.37,2.42,.01,.68,.23,1.36,.12,2.03-.13,.84-.06,1.46,.19,2.27,.43,1.41,.68,2.79,2.38,3.24,.8,.21,1.74,.24,2.55,.38s1.83,.23,2.69,.16c.75-.06,1.39-.17,2.15-.13,.87,.05,1.38,.04,1.78-.75,.26-.5,.39-1.15,.63-1.7,.25-.58,.3-1.02,.43-1.58,.26-1.18,.85-2.3,.73-3.51-.09-.87,.05-1.95-.42-2.75-.39-.67-.96-.84-.88-1.64,.07-.66,.04-1.32,.13-2,.15-1.07,.27-2.1,.36-3.17,.11-1.33,.48-2.58,.78-3.87,.61-2.62,1.01-5.32,1.23-7.99,.11-1.35,.57-2.66,.71-4,.16-1.47,.21-3.02,.61-4.45,.63-2.25,1.43-4.48,1.96-6.75,.51-2.22,.88-4.53,1.63-6.7,.45-1.29,.54-2.54,.75-3.86,.46-2.8,.3-5.63,.45-8.46,.08-1.51,.14-3.01,.2-4.52,.06-1.64-.22-3.29-.23-4.93-.01-1.82-.17-3.57-.5-5.37-.28-1.57-.26-3.28-.69-4.81-.38-1.36-.28-2.84-.8-4.15-.42-1.07-.83-2.15-1.11-3.26-.48-1.91-1.13-3.53-2.01-5.31-.85-1.72-1.71-3.4-2.44-5.2-.59-1.46-1.34-2.87-1.94-4.33-.34-.82-.7-1.57-.82-2.44-.1-.7,0-1.88-.47-2.48-.24-.31-.65-.45-1.04-.17-.34,.24-.26,.76-.25,1.15,.01,1,.3,1.8,.55,2.75,1.33,5.06,3.92,9.69,5.93,14.5,1.1,2.63,1.54,5.6,2.14,8.36,.26,1.19,.46,2.4,.65,3.6,.26,1.69,.59,3.4,.75,5.1,.26,2.81,.49,5.48,.19,8.29-.17,1.54-.27,3.06-.35,4.61-.09,1.65,0,3.34-.23,4.97-.43,2.94-.64,5.87-1.21,8.78-.31,1.55-1.06,2.96-1.55,4.46-.55,1.68-.93,3.39-1.47,5.07-1.27,3.95-1.19,8.22-1.79,12.3-.28,1.89-.4,3.82-.82,5.68-.33,1.49-.27,2.94-.39,4.44s-.61,3.19-2.1,3.95c-1.46,.74-3.58,.66-5.16,.32-1.9-.41-1.84-2.81-1.75-4.31,.21-3.28,.46-6.72-.02-10.02-.52-3.63-.96-7.27-1.09-10.95-.08-2.44-.25-4.89-.3-7.34-.02-1.15-.22-2.28-.32-3.43-.13-1.43,.09-2.88-.06-4.3s-.19-2.91-.25-4.35c-.06-1.48-.15-2.95-.17-4.43,0-1.2-.12-2.39-.16-3.58-.02-.73-.26-1.45-.22-2.19,.03-.64,.06-1.22,0-1.87-.28-2.85-.17-5.68-.72-8.51-.42-2.16-.9-4.28-1.12-6.46-.11-1.12-.26-2.24-.41-3.36-.08-.6-.23-1.21-.28-1.82-.06-.73,.05-1.29-.19-1.99-.33-.98-.34-2.1-.62-3.12-.29-1.07-.52-2.09-.74-3.18-.36-1.76-.86-3.5-1.22-5.27-.25-1.22-.67-2.33-1-3.51-1.04-3.74-1.82-7.79,.32-11.37,.98-1.64,1.55-3.54,3.17-4.7,1.42-1.02,3.04-.8,4.69-.04,1.17,.54,2.55,1.78,3.4,3.15-.39-1.08-1.53-2.89-2.28-3.66-.5-.51-1.3-.93-1.97-1.17-.47-.16-1.07-.29-1.87-.46Z"/><path class="g" d="M14.77,227c-.76,.88-1.13,1.05-2.1,1.75-.4,.21-1.4,.85-1.88,1.02-.78,.28-1.5,.53-2.31,.7-1.04,.22-2.16,.34-3.23,.4-1.06,.06-1.98,.18-3.03,.35-2.44,.4-4.76,1.45-7.07,2.29-2.24,.81-4.92,1.64-6.97,2.81-2.38,1.35-4.49,3.13-5.85,5.43-.81,1.38-2.14,4.27,.01,5.54,1.22,.72,3.61-1.19,4.58-2.11,1.31-1.24,2.45-1.6,4.04-2.51,1.39-.8,2.71-2.47,3.66-3.74,.74-.99,1.51-1.54,2.71-1.95,1.75-.6,4.08-.43,4.75,1.44,.45,1.25-.56,2.58-1.12,3.62-.69,1.28-2.31,2.48-3.5,3.38s-2.34,1.79-3.5,2.71c-.99,.78-1.54,1.59-2.08,2.67-.89,1.78-2.18,3.55-2.35,5.56-.08,.93-.13,1.82,.03,2.73s.11,1.99,1.27,1.89c2.28-.18,4.54-1.91,5.67-3.71,.52-.82,1.12-1.57,1.49-2.46,.21-.52,.67-.85,.92-1.33,.31-.59,.53-1.3,.81-1.91,.39-.86,.83-1.7,1.2-2.53,.44-1,1.06-1.71,1.64-2.61,.31-.48,.47-.97,.85-1.44,.42-.52,.97-1.08,1.51-1.49,.78-.58,2.28-1.42,3.34-1.52,.71-.07,1.66,.5,2.11,.96,.82,.86,.87,1.8,.87,2.89,0,1.33-.22,2.3-.62,3.57-.37,1.17-.65,2.33-.63,3.53,.02,.99-.12,2,.05,2.99,.18,1.08,.65,2.17,1.07,3.2,.4,.98,1.03,1.42,2.13,1.05,.46-.16,.98-.28,1.32-.6,.69-.65,.9-2.07,.91-2.91,0-1,.39-2.41,.67-3.38,.35-1.19-.06-1.88,.29-3.07,.59-1.97,.98-3.65,1.65-5.61,.34-1,.69-1.74,1.05-2.73s.68-1.55,1.18-2.4c.32-.55,.56-1.19,.94-1.73,.48-.67,1-1.46,1.57-2.07,1.01-1.1,1.39-2.1,1.4-3.5,0-.99-.49-2.67-.48-3.67,0-1.16,.24-1.68,.39-2.45,.22-1.14,.85-1.05,1.15-.02,.23,.77-.74,1.94-.64,2.74,.1,.8,.86,1.91,.91,2.72,.06,1.03-.38,1.89-.77,2.87-.49,1.25-1.3,2.4-2.09,3.5-.79,1.11-1.46,2.12-1.88,3.42-.48,1.51-1.18,2.93-1.75,4.4-1.02,2.62-1.73,7.2-1.77,7.71-.05,.69-.54,3.31-.66,3.96-.2,1.07-.46,2.1-1.16,3.05-.86,1.18-2.22,1.79-3.7,1.41-.8-.21-1.44-1.25-1.83-1.93-.45-.8-.81-1.62-1.16-2.48-.84-2.01-.58-4.23-.07-6.3,.27-1.12,.66-2.12,.76-3.28,.07-.94,.35-2.09-.21-2.89-1.05-1.49-1.3-1.64-2.95-.92-1.96,.86-2.44,2.89-3.33,4.5-.51,.93-1.11,1.81-1.62,2.74-.6,1.08-1.39,2.37-1.78,3.53-.59,1.75-1.98,3.66-3.36,4.98-1.22,1.17-3.06,2.22-4.84,2.52-2,.35-2.95-2.35-3.17-3.75-.15-.93-.01-2.08,.33-2.97,.55-1.44,1.02-2.81,1.77-4.18,.49-.89,1-1.78,1.6-2.61,.56-.78,1.13-1.68,1.91-2.29,.8-.63,1.69-1.2,2.49-1.83,1.01-.8,1.8-1.8,2.73-2.67,1.1-1.04,1.79-2.23,.63-3.61-.64-.76-1.6-.51-2.34-.13-1,.51-1.83,1.69-2.59,2.45-1.66,1.67-3.39,3.3-5.6,4.38-.67,.33-1.18,.7-1.74,1.18-.89,.77-1.58,1.25-2.69,1.66-.75,.27-1.81,.96-2.58,.75-.7-.2-1.28-1.05-1.61-1.63-.38-.67-.61-1.38-.45-2.12,.25-1.12,.48-2.38,1.03-3.4,1.3-2.4,2.92-3.48,5.2-5.03,3.99-2.72,9.52-4.89,14.26-6.14,2.51-.66,5.13-1.06,7.61-1.83,.71-.22,1.37-.44,2.04-.73,.77-.33,1.54-.71,2.26-1.1,.61-.33,.57-.5,1.23-1.19,.43-.45,.61-1.54,1.26-1.93,.84-.51,1.03,.87,.97,1.38-.05,.45-.19,.76-.37,1.19-.02,.05-.45,.6-.74,.84Z"/><path class="p" d="M56.06,73.66c-1.48-1.82-3.49-5.15-6.4-5.55-1.79-.25-3.88,.66-5.62,1.02-3.9,.82-6.93,3.77-9.33,6.61-1.07,1.26-2.35,2.35-3.52,3.54-1.31,1.33-2.55,2.7-3.77,4.11-1.69,1.93-3.39,3.86-5.35,5.55s-3.6,3.49-5.96,4.76c-.83,.45-1.5,.63-2.42,.85-.45,.1-.91,.15-1.36,.23-.69,.13-1.18,.43-1.82,.7-.99,.43-1.83,.76-2.7,1.42-1.03,.78-1.83,1.74-2.53,2.79-1.37,2.05-1.77,4.35-1.74,6.73,.04,3.59,2.04,6.86,6.06,7.47,2.18,.33,4.49-.62,6.53-1.31,2.58-.88,4.86-2.7,7-4.27s4.6-3.38,7.06-4.6c1.44-.72,2.83-1.54,4.26-2.26,1.35-.69,2.84-1.49,4.06-2.37,2.57-1.85,5.37-3.28,8.06-4.94,1.86-1.14,3.68-2.29,5.55-3.42,2.11-1.27,3.85-2.66,5.1-4.75,.46-.78,.77-1.81,.98-2.68,.26-1.05,.55-2.32,.63-3.39,.12-1.58-.31-3.16-1.17-4.49-.32-.49-.59-.92-.98-1.37-.27-.3-.73-.87-.6-.38Z"/><path class="g" d="M57.78,84.3c-.08,.54-.05,1.21-.39,1.67-.12,.16-.2,.31-.29,.48-.17,.32-.38,.65-.57,.96-.31,.51-.69,.92-1.09,1.37-.49,.55-1.09,.99-1.7,1.42-.44,.31-.85,.63-1.29,.95-.4,.29-.75,.67-1.17,.93-.54,.34-1.08,.67-1.62,1-.62,.37-1.31,.66-1.92,1.05-1.12,.72-2.27,1.35-3.47,1.95-.65,.32-1.25,.73-1.89,1.07-.77,.42-1.55,.83-2.32,1.25-.7,.38-1.3,.89-1.96,1.33-.52,.35-1.08,.66-1.62,.98-1.05,.62-2.07,1.3-3.1,1.95-.84,.53-1.79,.85-2.61,1.39-.43,.28-.91,.48-1.35,.76-.37,.24-.8,.42-1.2,.62-.36,.18-.73,.31-1.06,.55-.45,.31-.87,.67-1.3,1.02-1.94,1.57-4,2.97-6.22,4.17-.91,.49-1.86,.91-2.72,1.49-.26,.17-.59,.32-.88,.45-.37,.17-.75,.31-1.11,.49s-.74,.27-1.07,.46c-.64,.36-1.34,.67-2.09,.77-.71,.09-1.46-.03-2.15-.18-.27-.06-.52-.18-.79-.25-.29-.08-.59-.1-.88-.17-.6-.15-1.27-.4-1.83-.66-.43-.2-.83-.46-1.16-.78-.38-.37-.62-.8-.97-1.18-.59-.64-.98-1.43-1.38-2.19-.23-.44-.4-.85-.48-1.34-.07-.43,0-.83,.02-1.26,.04-.49,.1-.98,.12-1.48,0-.21-.01-.43,.03-.63,.2-.89,.59-1.73,.84-2.61,.32-1.14,.9-2.15,1.64-3.1,.94-1.19,2.11-2.36,3.38-3.24,1.04-.72,2.33-1.14,3.53-1.56,.65-.23,1.33-.39,1.96-.67,.72-.33,1.43-.68,2.13-1.04,.62-.32,1.21-.63,1.8-1,.81-.51,1.38-1.2,2.1-1.8,.66-.55,1.29-1.12,1.96-1.65,.72-.56,1.3-1.31,1.89-2,.57-.67,1.25-1.26,1.85-1.91,.73-.79,1.39-1.61,2.02-2.47,.44-.59,.71-1.25,1.09-1.87,.52-.86,1.31-1.55,1.92-2.36,.44-.58,.99-1.09,1.51-1.62,.62-.62,1.29-1.22,2.02-1.74,.61-.43,1.23-.86,1.81-1.32,.49-.39,.92-.83,1.41-1.22s1.06-.84,1.63-1.16c.62-.34,1.3-.58,1.93-.91,.94-.48,1.91-.94,2.97-1.16,.72-.15,1.38-.17,2.11-.12,.42,.02,1.01,.1,1.35,.32-.07,.18-.27,.25-.44,.32-.38,.15-.78,.26-1.16,.4-.93,.34-1.92,.52-2.85,.88-.79,.3-1.52,.6-2.26,1-.83,.44-1.67,.9-2.43,1.44-.41,.28-.82,.56-1.21,.87s-.78,.51-1.12,.83c-.71,.66-1.43,1.3-2.12,1.98-.54,.54-1.04,1.1-1.59,1.64s-1.15,1.17-1.6,1.8c-.47,.67-.96,1.33-1.42,2.02s-.91,1.35-1.4,1.99c-.56,.72-1.05,1.5-1.61,2.23-.61,.79-1.21,1.57-1.93,2.29-.97,.96-2.06,1.85-3.13,2.71-.54,.44-1.13,.83-1.72,1.21-.31,.21-.61,.44-.93,.64s-.62,.34-.91,.57c-.59,.45-1.25,.8-1.88,1.19-.57,.36-1.17,.53-1.78,.81-.58,.26-1.14,.48-1.74,.69-.48,.17-1.05,.28-1.47,.54-.76,.47-1.55,.87-2.3,1.35-.93,.59-1.74,1.41-2.36,2.29-.75,1.06-1.66,2.12-1.94,3.39-.23,1.04-.59,2.26-.42,3.34,.09,.55,.28,1.08,.49,1.59,.17,.4,.22,.8,.51,1.15,.33,.4,.68,.79,1.12,1.08s.85,.68,1.3,.99c1.33,.91,3.22,.99,4.8,.83,.4-.04,.8-.04,1.2-.12,.51-.1,.99-.32,1.49-.46,.4-.12,.79-.24,1.18-.39,.53-.19,1.08-.37,1.59-.6,.95-.43,1.89-.87,2.76-1.43,.48-.31,.97-.62,1.48-.88,.58-.29,1.07-.71,1.56-1.11,.86-.69,1.64-1.43,2.63-1.98s2.07-1.02,3.07-1.58c.35-.2,.67-.42,1.04-.57,.26-.1,.47-.21,.69-.37,.33-.23,.67-.46,1.02-.67s.64-.48,.97-.71c.29-.2,.62-.32,.93-.49,.33-.17,.61-.41,.93-.59,.57-.32,1.12-.66,1.68-1,.38-.23,.78-.39,1.17-.6,.37-.19,.69-.45,1.05-.65,.71-.41,1.44-.78,2.13-1.22,.62-.4,1.21-.82,1.83-1.21,.56-.34,1.13-.67,1.68-1.02,.62-.39,1.15-.87,1.81-1.21s1.32-.75,2-1.1c.48-.24,.94-.51,1.4-.79,.28-.17,.57-.35,.86-.5s.61-.23,.89-.38c.82-.47,1.69-.97,2.44-1.55,.28-.22,.51-.48,.77-.72,.4-.38,.88-.65,1.26-1.06,.5-.55,1.17-.97,1.68-1.51,.25-.26,.45-.64,.59-.97,.11-.25,.2-.59,.38-.8-.01,.02-.03,.04-.06,0Z"/><path d="M-38.89,102.15c1.08-.02,2.16-.08,3.23-.19-.07-.51,.92-1.24,1.21-1.68,.47-.7,.89-1.45,1.01-2.28,.16-1.12-.08-2.43,.35-3.49s1.39-.94,2.38-1.29c.88-.31,1.79-.47,2.66-.79,1-.37,1.96-.83,2.83-1.45,.61-.44,1.11-.98,1.6-1.53,.33-.37,.95-1.2,1.5-1.34,.59-.15,1.56,.62,2.04,.93,.61,.39,1.33,.75,1.81,1.29,.53,.61,.79,1.42,1.42,1.97,.94,.82,1.98,1.54,2.82,2.46,.35,.39,.68,.8,1.03,1.19,.96,1.07,1.92,2.18,2.64,3.4,2.47,4.18,5.76,7.76,9.65,10.87,1.06,.85,2.19,1.63,3.38,2.32,1.79,1.04,3.56,1.64,5.63,1.8,1.74,.13,3.3-.04,4.79-.94,1.53-.92,3.04-2.23,4.22-3.52,2.48-2.73,1.37-6.4,.07-9.44-.98-2.29-2.73-3.77-4.75-5.29-2.51-1.88-5.62-2.9-8.31-4.53-1.84-1.11-3.61-2.28-5.26-3.63-1.51-1.24-2.82-2.69-4.37-3.87s-3.2-2.48-4.78-3.76c-1.86-1.51-4.34-2.42-6.61-3.25-1.82-.66-3.89-1.15-5.85-1.3-2.23-.17-4.44-.04-6.68-.08-1.7-.04-3.4,.03-5.1,.03-1.2,0-2.31-.27-3.52-.27-1.51,0-3.52,.01-4.86,.75-1.23,.67-1.88,2.25-2.42,3.4-.71,1.5-1.62,2.96-2.75,4.21-.56,.62-1.02,1.28-1.61,1.88-.6,.61-1.27,1.08-1.75,1.78-1.11,1.61,1.32,2.34,2.66,2.1,2.13-.38,4.12-2,5.41-3.57,.87-1.07,1.66-2.41,2.73-3.31,.55-.46,1.74-.93,1.88,.21,.12,.97-.87,1.47-1.52,2-1.05,.85-2.08,1.7-3.18,2.5-1.18,.86-2.4,1.85-3.28,2.99-1.31,1.68-2.75,3.68-2.61,5.87,.12,1.75,1.52,3.06,3.42,2.34,2.47-.93,3.42-4.01,4.59-5.98,1-1.7,2.56-3.12,4.32-4.14,.77-.45,2.66-.91,2.82,.45,.06,.49-.59,1.27-.97,1.61-.6,.54-1.37,.87-2.09,1.24-2.75,1.41-4.41,4.59-3.37,7.41,.32,.85,1.03,1.4,1.51,2.17,.44,.71-.08,1.28,.63,1.81s1.4,.19-.59-.08Z"/><path class="g" d="M13.74,96.98c-.91-.65-1.79-1.25-2.73-1.84-.36-.22-.7-.5-1.1-.66-.7-.28-1.35-.64-2.05-.93-.55-.23-1.13-.33-1.68-.55-.46-.19-.87-.49-1.3-.72-.58-.3-1.08-.66-1.59-1.05-.84-.63-1.8-1.09-2.63-1.75-.62-.5-1.27-.92-1.92-1.37-.63-.45-1.21-1.03-1.77-1.55-1.04-.97-2.1-1.94-3.16-2.9-.98-.9-2.11-1.66-3.1-2.55-1.08-.97-2.3-1.85-3.58-2.58-.57-.32-1.19-.71-1.8-.96-.6-.24-1.2-.43-1.8-.66s-1.23-.45-1.85-.66c-.52-.18-1.08-.23-1.63-.34-1.04-.19-2.14-.29-3.2-.27-2.16,.03-4.31-.01-6.48-.1-1.24-.05-2.47-.01-3.71-.05-1.02-.03-2.06-.03-3.08,.04-1.17,.08-2.32,.16-3.49,.27-.88,.08-1.8,.31-2.47,.88-.37,.31-.7,.66-.98,1.04-.32,.43-.49,.93-.78,1.38-.58,.9-1.22,1.72-1.73,2.65-.28,.5-.65,.94-1.01,1.39-.34,.42-.66,.86-1.05,1.24s-.8,.68-1.21,1.01c-.34,.28-.83,.58-1.08,.93-.34,.48-.13,1.27,.55,1.3,.87,.05,1.73-.2,2.46-.59,.42-.23,.75-.58,1.06-.93,.36-.41,.77-.8,1.09-1.23,.59-.8,1.06-1.66,1.68-2.44,.83-1.05,1.74-2.03,3.15-2.42,.94-.26,1.96,.17,2.6,.84,.68,.71,.78,1.83,.28,2.66-.26,.44-.79,.82-1.22,1.11-.66,.43-1.35,.86-2.04,1.25-1.82,1.06-3.3,2.74-4.54,4.35-.88,1.14-1.87,2.39-2.5,3.66-.28,.57-.48,2.73,.06,3.17,.98,.8,2.35-1.18,2.91-2.01,.44-.65,.79-1.36,1.15-2.05,.48-.95,.75-1.93,1.4-2.79,.6-.81,1.29-1.49,2.15-2.06,.78-.52,1.69-.77,2.58-1.07,.78-.26,.95-.11,1.78-.19,.78-.08,2.12-.43,2.49,.28,.68,1.33-1.49,2.06-2.37,2.84-1.44,1.27-2.24,2.95-3.21,4.61-.19,.33-.49,.68-.59,1.04-.06,.21-.12,.54-.15,.76-.04,.29,.03,.77,.11,1.05,.2,.67,.37,1.77,.75,2.16,.65,.67,1.45,1.46,2.22,1.05,1.04-.55,1.67-2.5,1.86-3.53,.11-.62,.39-1.1,.47-1.73,.05-.41,.39-.79,.49-1.19,.13-.53,.3-.6,.52-1.1,.13-.31,.93-.73,1.24-.9,.44-.25,.78-.35,1.28-.43,1.06-.17,1.72-.42,2.77-.64,1.21-.25,2.11-1.19,3.26-1.6,.61-.22,1.15-.61,1.74-.89,.2-.09,.35-.25,.53-.35,.27-.15,.52-.19,.81-.24,.68-.11,1.27-.18,1.91,.19,.38,.22,.7,.5,1.03,.78,.55,.46,.89,1.1,1.43,1.57,.67,.58,1.25,1.23,1.96,1.76,.92,.69,1.59,1.59,2.43,2.36,.86,.78,1.45,1.7,2.21,2.54,.39,.44,.65,.84,.98,1.33,.38,.58,.87,1.11,1.29,1.67,.92,1.21,1.87,2.44,2.88,3.58,.44,.5,1.03,.88,1.45,1.4,.65,.8,1.25,1.62,2.05,2.31s1.7,1.1,2.47,1.76c.52,.45,.95,.85,1.53,1.23,.36,.24,.67,.53,1.02,.78,.67,.47,1.44,.97,2.19,1.34,.59,.29,1.17,.3,1.82,.41,.51,.09,1.05,.17,1.54,.33,.22,.07,.47,.11,.54,.32,.19,.56-.72,.67-1.09,.7-.85,.06-1.64-.2-2.44-.44-.53-.16-1.08-.23-1.61-.42-.66-.24-1.26-.56-1.83-.95-.32-.23-.63-.47-.97-.68s-.71-.34-1.02-.61c-.71-.61-1.45-1.22-2.19-1.8-.88-.69-1.64-1.47-2.47-2.21-.3-.27-.64-.5-.93-.78-.39-.38-.74-.82-1.11-1.22-.62-.66-1.27-1.27-1.77-2.01s-1.13-1.48-1.59-2.26-.94-1.5-1.45-2.23c-.27-.38-.54-.77-.85-1.12-.46-.52-.88-1.09-1.36-1.6-.75-.78-1.49-1.56-2.17-2.39-.47-.57-.94-1.13-1.53-1.58s-.98-1.06-1.49-1.54c-.34-.32-.71-.62-1.04-.94-.4-.39-.9-.85-1.51-.85-.7,0-1.37,.57-1.91,.94-.33,.22-.63,.49-.94,.73-.21,.16-.47,.21-.7,.33-.3,.15-.76,.42-1.06,.57-1.03,.53-1.34,.79-2.32,1.11-.65,.21-1.47,.34-2.1,.61-.79,.35-1.42,.71-1.81,1.4-.63,1.14-1.13,2.36-1.55,3.59-.17,.5-.22,1.03-.39,1.52-.13,.37-.38,.71-.61,1.03-.53,.74-1.35,1.33-2.3,1.49-.46,.08-1.04,.11-1.44-.15-.45-.3-.75-.75-.99-1.19-.29-.54-1.12-1.34-1.2-1.95s-.21-1-.27-1.59c-.08-.74-.17-1.47-.12-2.2,.04-.62,.72-.95,.93-1.53,.39-1.06,1.13-2,1.81-2.9,.24-.32,.51-.62,.78-.92,.11-.12,.19-.28,.34-.36-.45-.03-.82,.15-1.22,.3-.62,.23-1.21,.46-1.75,.86-.61,.46-1.12,1-1.6,1.57-.61,.71-.98,1.55-1.46,2.34-.48,.8-1.12,1.5-1.64,2.28-.4,.61-.72,1.25-1.37,1.67s-1.3,.58-2.08,.31c-.88-.3-.99-1.22-1.06-2.01-.1-1.06-.42-2.47,.04-3.43,.25-.53,.78-1.03,1.02-1.57,.3-.64,.79-1.13,1.18-1.71,1.63-2.46,4.03-4.37,6.24-6.36,.48-.43,.97-.92,1.3-1.46,.22-.37,.42-.77-.25-.63-.45,.09-.88,.56-1.23,.85-.53,.43-.94,1-1.36,1.52-.37,.46-.85,.92-1.3,1.31-.51,.43-.95,.91-1.42,1.38-.72,.71-1.48,1.35-2.46,1.72-.75,.29-1.54,.56-2.32,.79-.24,.07-.64,.18-.88,.06-.27-.14-.58-.5-.78-.73-.62-.72-.43-1.88,.15-2.57,.29-.34,.68-.6,1.02-.91,.55-.5,.97-1.04,1.45-1.59,.81-.96,1.58-1.88,2.27-2.92,1.12-1.69,2.09-3.5,3.62-4.91,.71-.65,1.88-.71,2.81-.82,1.63-.19,3.28-.31,4.92-.46,.66-.06,1.34-.16,2-.18,.97-.02,1.94,.04,2.91,.03,1.96-.03,3.88,.06,5.83,.26,.87,.09,1.74,.28,2.61,.39,1.04,.13,2.03,.37,3.05,.57,1.32,.26,2.53,.72,3.78,1.18,.79,.29,1.56,.52,2.34,.82,.6,.23,1.12,.55,1.68,.83,.49,.24,.94,.62,1.39,.92,.52,.34,.99,.72,1.47,1.11,1.48,1.23,2.92,2.49,4.33,3.8,.32,.3,.67,.58,.99,.88,.37,.34,.66,.72,1.06,1.03,.74,.58,1.55,1.06,2.26,1.67s1.52,1.04,2.21,1.65c.24,.21,.48,.34,.75,.52,.43,.28,.78,.59,1.24,.83,.68,.35,1.42,.59,2.07,.99,.59,.36,1.15,.74,1.76,1.08,.72,.4,1.46,.75,2.18,1.16,1.02,.59,1.89,1.48,2.5,2.43,.09,.15,.72,1.08,.43,.85Z"/><path class="g" d="M15.57,102.65c-.82,.09-1.64,.21-2.41,.5-.43,.16-.86,.38-1.31,.5-.77,.21-1.51,.51-2.29,.71-.88,.23-1.8,.3-2.69,.16-.65-.11-1.23-.31-1.85-.51-.33-.1-.65-.2-.96-.36-.33-.17-.59-.39-.88-.61-.5-.36-.92-.7-1.31-1.18-.45-.57-.91-1.12-1.28-1.74-.2-.34-.45-.65-.65-1-.19-.32-.28-.68-.42-1.02-.25-.6-.45-1.18-.63-1.8s-.5-1.18-.77-1.76c-.33-.73-.74-1.48-1.28-2.09-.38-.43-.88-.74-1.36-1.07-.41-.29-.9-.75-1.4-.88,.11,.22,.42,.38,.59,.57,.22,.24,.38,.52,.61,.76,.21,.22,.42,.41,.57,.67,.11,.21,.19,.41,.32,.61,.42,.63,.56,1.3,.85,1.99,.11,.26,.26,.51,.34,.78,.11,.36,.2,.73,.32,1.09,.19,.6,.5,1.14,.77,1.73,.29,.65,.69,1.29,1.03,1.92,.26,.48,.59,.93,.94,1.36,.38,.47,.81,.84,1.28,1.23,.24,.2,.41,.44,.62,.67s.46,.37,.72,.53c.58,.38,1.13,.79,1.8,1.03,1.08,.38,2.25,.59,3.4,.48,.3-.03,.61-.04,.91-.11,.26-.06,.47-.21,.71-.31,.19-.08,.38-.12,.57-.19,.31-.11,.56-.32,.84-.48,.47-.28,.88-.62,1.35-.91,.32-.19,.65-.33,.98-.5,.39-.2,.81-.32,1.22-.46,.19-.06,.41-.1,.62-.09,0,.01-.02,.03,.14-.2Z"/><path d="M244.85,175.2c-2.31-4.02-4.52-8.24-7.14-12.11-1.52-2.25-3.12-4.36-4.52-6.69-1.67-2.78-3.71-5.6-5.77-8.15-.55-.68-1.39-1.48-1.8-2.18-.51-.87-.45-2.44-.46-3.41-.01-1.85,0-3.71,0-5.56s-.3-3.93,0-5.76c.17-1.02,.43-2.02-.09-3-1.02-1.93-2.97-3.37-4.26-5.14-1.47-2-2.05-4.21-2.53-6.59-.26-1.29-.69-2.44-.87-3.74-.27-1.93-.53-3.88-1.04-5.76-.97-3.6-2.3-7.21-3.66-10.71-.9-2.31-2.06-4.6-3.08-6.88-.99-2.21-2.07-4.42-3.31-6.51-1.11-1.88-1.81-3.92-3-5.78-1.25-1.96-2.31-3.93-3.26-6.02-1.04-2.3-1.83-4.65-2.75-6.99-1.18-2.99-1.04-6.68-1.15-9.83-.07-2.2,.36-4.25,.74-6.41,.27-1.57,.37-3.16,.66-4.71,.39-2.06,.82-3.51,.25-5.56-1.2-4.37-3.96-8.22-5.59-12.45-.71-1.84-1.4-3.63-1.92-5.53-.26-.96-.43-1.91-.78-2.84s-.9-1.81-1.63-2.63c-1.62-1.8-3.71-3.46-5.51-5.12-2.24-2.07-4.27-4.4-6.58-6.39-.43-.37-.9-.74-1.39-1.01-.66-.38-1.31-1.04-2.04-1.29-.5,.91-.52,1.72-1.28,2.51-.87,.9-1.98,1.97-3.32,2.25-1.38,.29-2.94-.16-4.29-.35-2.02-.28-4.03-.51-6.04-.78-3.08-.41-6.18-.73-9.26-1.16s-6.49-.58-9.63-1.37c-1.77-.44-3.55-.65-5.36-.76-2.08-.13-4.13-.6-6.22-.59-1.19,0-1.9-.24-3.08,0-2.27,.46-4.36-.06-6.45-.96-1.9-.83-3.75-1.73-5.64-2.57-2.64-1.17-5.38-2.12-8.06-3.22-2.04-.84-3.85-2.27-5.82-3.29-1.57-.81-3.5-2.15-5.33-2.39-1.34-.17-1.78,.7-2.88,1.18s-2.57,.57-3.77,.96c-.76,.25-1.51,.42-2.29,.61-2.21,.55-4.37,1.26-6.61,1.8-2.76,.67-5.44,1.49-8.23,2.09-4.47,.96-8.75,2.61-13.28,3.3-.29,1.41-.93,2.79-1.35,4.17-.75,2.44-1.84,4.67-2.97,6.98-1.01,2.06-2.03,4.23-3.33,6.13-1.48,2.16-2.3,4.66-3.83,6.8-1.88,2.63-4.32,5.35-5.5,8.32-.26,.67-.27,1.37-.25,2.08,.05,1.54,.21,3.05,.21,4.6,0,2.16,.19,4.4-.2,6.53-.42,2.29-.88,4.23-1.66,6.43-.47,1.33-1.11,2.51-1.78,3.74-.55,1-1.34,1.82-1.9,2.86-1.09,2.03,.28,3.35,1.23,5.24,1.59,3.18,3.42,6.31,4.7,9.62,.74,1.91,1.03,3.83,1.54,5.77s.81,3.33,.78,5.3c-.05,4.07-.99,8.37-1.88,12.35-.83,3.77-1.82,7.53-2.59,11.3-.39,1.9-.54,3.89,.11,5.75,1.05,3.01,2.07,5.99,3.21,8.98,.95,2.48,1.84,4.92,3.05,7.28,1.34,2.59,2.71,4.93,3.46,7.75,.48,1.83,.46,3.5,.65,5.34,.06,.59,.28,1.13,.21,1.75s-.3,1.05-.44,1.66c-.28,1.17-.41,2.32-.76,3.49-.63,2.14-1.36,4.26-2.02,6.4-.74,2.38-1.08,4.83-2.02,7.15-.99,2.44-1.77,4.92-2.45,7.45-.4,1.5-.97,2.96-1.41,4.45-.22,.75-.31,1.22,.02,1.99,.52,1.22,1.6,2.31,2.41,3.37,.85,1.11,1.92,2.07,2.75,3.19,1.16,1.56,2.07,3.37,3.11,5,4.39,6.91,10.01,12.59,16.38,17.93,2.1,1.76,4.11,3.62,6.24,5.34,1.32,1.06,2.71,2,3.98,3.12,1.56,1.38,3.06,2.86,4.71,4.13,3.01,2.32,5.78,4.95,8.43,7.62,1.81,1.82,3.6,3.96,5.64,5.56,1.81,1.43,4.77,1.62,7.07,1.81,2.93,.23,5.92,.62,8.82,1.08,4.59,.73,9.08,1.1,13.72,1.49,2.58,.22,5.16,.07,7.73,.38,3.07,.37,6.03,.54,9.13,.54,4.46,0,8.9,.19,13.37,.19,3.23,0,6.48,.43,9.71,.63,2.67,.17,5.59-.03,8.2,.44,1.04,.19,2.04,.45,3.13,.58,2.72,.32,5.5,.39,8.2,.72,1.95,.24,3.64,.92,5.61,.93,1.64,.01,3.19,.5,4.8,.58,.94,.05,1.57-.32,2.43-.54,.99-.25,2.04-.38,3.04-.63,2.04-.51,4.17,.03,6.22-.58s3.15-1,4.58-2.52c2.64-2.8,5.43-5.54,7.48-8.78,2.24-3.56,4.47-7.08,7.04-10.43,1.06-1.38,2.26-2.59,3.47-3.88,1.43-1.54,2.12-3.29,3.3-4.97,.69-.99,.99-2.04,1.48-3.11,.66-1.43,1.58-2.78,2.33-4.17,.69-1.28,1.06-2.66,1.78-3.93,.75-1.32,1.6-2.42,2.17-3.83,.86-2.12,2.28-4.02,3.24-6.12,.87-1.88,1.57-3.71,2.17-5.67,.55-1.8,1.63-3.61,2.53-5.25,.18-.05,.33-.02,.11-.4Z"/><path class="j" d="M166.19,7.55c-1.27,2.46-2.51,5.1-3.99,7.42-.23,.35-.69,.91-.77,1.5v.19c.87,2.69,1.86,5.25,3.1,7.78,.78,1.58,1.28,3.27,2.03,4.86,.47,1.01,1.19,1.94,1.74,2.9,1.58,2.73,3.08,5.64,4.37,8.53,.9,2.03,1.08,4.26,.42,6.39-.37,1.19-1.1,2.44-.9,3.71,.15,.95,.67,2.01,1.05,2.9,.74,1.76,1.77,3.08,1.86,5.04,.05,1.04,.21,2,.21,3.06,0,1.07-.14,2.16,.26,3.16,.89,2.18,2.89,3.86,4.3,5.77,.61,.84,1.04,1.78,1.57,2.65,.78,1.3,1.2,2.68,1.94,3.97,1.52,2.66,3.03,5.48,4.36,8.19,.4,.81,.66,1.67,1.04,2.49,.39,.86,1.11,1.55,1.35,2.44,.33,1.27,.52,2.47,.52,3.78,0,.71-.07,1.47-.01,2.18,.05,.56,0,1.73,.21,2.25,.26,.65,1.34,1.07,1.87,1.58,.92,.87,2.12,1.52,2.86,2.52,.52,.7,1.13,1.68,1.29,2.5,.19,.98,0,2.17,0,3.18,0,.83-.21,1.52-.21,2.35,0,1.15,.15,1.61,.68,2.63,.5,.98,1.09,1.94,1.6,2.92,.58,1.11,.95,2.35,1.51,3.49,1.36,2.76,2.11,5.68,3.73,8.35,1.33,2.21,4.06,2.9,5.95,4.64,.97,.89,1.59,1.47,1.86,2.67,.41,1.78,.98,3.77,1.71,5.46,.95,2.19,1.66,4.49,2.64,6.68,.73,1.65,2.16,3.8,2.49,5.57"/><path class="j" d="M199.88,134.99c-1.36-8.42-2.69-16.81-2.69-25.34"/><path class="j" d="M224.13,197.95c-.37-2.97-.97-5.92-1.19-8.91-.13-1.75-.41-3.47-.74-5.2-.64-3.29-1.24-6.57-1.99-9.83-.24-1.06-.58-2.22-.73-3.24-.19-1.28,.8-2.88,1.28-4.03,.53-1.28,1.04-2.56,1.54-3.85,.57-1.46,1.26-2.87,1.66-4.38,.63-2.41,1.28-4.79,1.82-7.22,.24-1.07,.34-2.12,.67-3.17,.16-.49,.25-.93,.26-1.43"/><path class="j" d="M38.39,177.4c3.13-1.28,6.26-2.46,9.54-3.32,1.66-.44,3.4-.69,5.04-1.15,3.2-.89,6.52-1.99,9.84-2.53,2.58-.42,5.2-.68,7.71-1.44,1.83-.56,3.34-1.99,4.99-2.88,1.44-.78,2.38-1.2,4.08-1.18,2.15,.03,4.43,.04,6.59,.21,6.54,.53,13.19-.35,19.75-.41,1.6-.01,2.91,.42,4.43,.79,2.07,.51,4.66,.23,6.71-.2,3.29-.69,6.35-2.12,9.53-3.13"/><path class="j" d="M134.95,168.81c-3.07,.5-5.71,1.01-8.75,.97-1.26-.01-2.52,0-3.79,0-1.65,0-3.16,.3-4.79,.4-3.24,.2-6.51,.38-9.77,.38-1.76,0-3.7,.26-5.41-.19-1.49-.39-2.81-.73-4.21-1.38-1.2-.56-2.02-1.18-3.09-1.92-.38-.26-1.69-.92-1.92-.81"/><path class="j" d="M134.32,177.6c4.67-.73,9.36-1.38,13.99-2.2,.78-.14,1.98-.29,2.48-.73"/><path class="j" d="M125.98,71.55c1.55-3.3,2.94-6.96,4.74-10.19,.44-.79,1-1.5,1.42-2.3,.58-1.1,1.13-2.12,1.4-3.33,.28-1.3,.31-2.72,.37-4.04,.05-1.25-.03-2.48,.12-3.73s.71-2.21,1-3.37c.48-1.94,.98-4.61,3.02-5.7s4.74-1.21,6.93-.89c1.31,.19,2.61,.5,3.93,.69,1.49,.22,3.05,.33,4.48,.82,1.29,.45,2.67,2.74,3.21,3.92,1.03,2.24,2.92,3.45,4.78,5.12,1.46,1.31,2.5,2.98,3.32,4.64,1.27,2.56,3.41,4.92,5.4,7.04,1.16,1.24,1.96,2.26,3.4,3.28,.9,.63,2.01,1.19,2.74,1.99"/><path class="j" d="M93.45-9.5c1.86,4.45,3.76,9.2,3.75,14.06,0,1.43,.12,2.88-.16,4.29-.15,.76-.15,1.64-.68,1.96,3.42,2.68,6.66,5.37,9.76,8.35,1.14,1.1,1.98,2.41,3.15,3.49,2.85,2.61,5.43,5.38,8.68,7.61s5.93,4.68,9.01,6.91c2.92,2.12,6.69,2.53,10.27,2.53"/><path class="h" d="M88.02,11.2c-2.65-.91-5.15-1.75-7.52-3.14-1.08-.63-2.05-1.43-3.13-2.06-1.41-.82-2.85-1.53-4.17-2.47-1.78-1.27-3.49-.75-5.64-.73-1.12,.01-2.38,.16-3.43-.17-.89-.28-1.58-1.02-2.27-1.58-1.1-.88-2.24-2.04-3.04-3.13"/><path class="h" d="M135.34,89.27c-.38,.35-.74,.64-.96,1.1-.1,.22-.19,.45-.27,.68-.16,.48-.24,.97-.3,1.47-.1,.88-.18,1.84,.16,2.69,.18,.46,.34,.91,.57,1.36,.1,.2,.16,.4,.26,.6,.12,.23,.26,.45,.35,.69,.14,.4,.42,.75,.63,1.12,.18,.32,.38,.62,.58,.93s.43,.5,.7,.73c.28,.25,.57,.49,.87,.72,.57,.44,1.22,.69,1.95,.82,.79,.15,1.65,.21,2.45,.08,.48-.07,.96-.14,1.43-.28s.97-.26,1.39-.5c.39-.22,.77-.57,1.1-.86,.28-.25,.54-.65,.66-.99,.21-.58,.39-1.18,.37-1.8,.1,.2,.07,.48,.07,.7,0,.56-.02,1.11-.14,1.66-.11,.51-.17,1.09-.49,1.53-.17,.24-.33,.37-.58,.52-.27,.16-.51,.36-.78,.53-.5,.32-1.07,.52-1.6,.77-.58,.27-1.19,.4-1.84,.47-.59,.07-1.18,.05-1.78,.01-.69-.05-1.44-.06-2.1-.22-1.17-.27-2.21-.74-2.92-1.71-.41-.57-.75-1.19-1.12-1.78s-.61-1.26-.81-1.93c-.36-1.19-.52-2.45-.52-3.7,0-.49-.02-.97,.07-1.46s.19-.98,.36-1.47c.15-.42,.32-.82,.56-1.21,.09-.14,.21-.24,.32-.36,.13-.13,.2-.3,.36-.41,.29-.2,.59-.43,.99-.53Z"/><path class="h" d="M38.38,106.23c2.63-.79,5.23-1.65,7.91-2.3,1.66-.4,3.34-.88,5.05-1.03s3.46-.43,5.2-.61c.88-.09,1.73-.28,2.61-.4s1.81-.14,2.72-.22c.93-.09,1.86-.1,2.79-.22,.79-.1,1.58-.18,2.36-.28,.73-.09,1.47-.24,2.18-.44,.94-.27,1.9-.45,2.83-.74,1.69-.51,3.39-1.34,5.18-1.5,1.64-.14,3.28-.27,4.92-.14,1.45,.11,2.9,.04,4.25,.68,.79,.38,1.77,.63,2.46,1.16,.77,.59,1.56,1.14,2.4,1.63s1.88,.85,2.84,1.2c.65,.24,1.33,.47,2.02,.58,1.88,.3,3.86,.44,5.76,.17,.94-.14,1.87-.27,2.77-.55,1.1-.34,2.33-.68,3.49-.76,.92-.06,1.7-.04,2.61,.07s1.96,0,2.79,.43c.61,.32,1.15,.77,1.76,1.09,.68,.35,1.33,.88,2.06,1.13,1.79,.63,4.01,.63,5.89,.57,1.17-.03,2.35,.08,3.52,.02,1.02-.05,1.88-.24,2.81-.61,.76-.3,1.49-.6,2.23-.93,.55-.25,1.14-.44,1.66-.74,.67-.39,1.06-1.06,1.66-1.51,.55-.4,1.07,.02,1.49,.39,.8,.7-.08,1.47-.78,1.89-1.12,.67-2.27,1.36-3.47,1.92-1.97,.92-4.25,1.9-6.5,1.82-2.44-.08-4.87-.35-7.28-.65-.8-.1-1.56-.31-2.34-.43-.6-.09-1.4-.28-1.92-.59-.6-.35-1.11-.78-1.73-1.11-.69-.37-1.45-.62-2.24-.72-.64-.08-1.35-.19-1.99-.11-.78,.09-1.6,.44-2.36,.64-1.32,.36-2.64,.84-3.98,1.12-1.71,.36-3.42,.22-5.09-.29-.99-.3-2.02-.32-3.02-.64-1.12-.36-2.16-.81-3.2-1.35-.79-.41-1.49-.95-2.3-1.33-.94-.44-1.89-.83-2.86-1.2-.6-.23-1.2-.35-1.83-.47-.97-.19-2.05-.39-3.04-.25-1.8,.26-3.6,.46-5.38,.84-1.02,.22-2,.55-3.01,.82-1.2,.32-2.41,.53-3.63,.76-2.6,.49-5.23,.75-7.85,1.1-1.88,.25-3.72,.64-5.52,1.18-1.09,.33-2.12,.61-3.25,.74-1.03,.12-2.05,.35-3.08,.52-1.11,.18-2.23,.38-3.32,.68-.4,.11-.81,.16-1.2,.27-.54,.14-1.04,.36-1.6,.47-.72,.14-1.42,.46-2.14,.66-.6,.17-1.18,.4-1.78,.57-.43,.12-.74-.03-1.15-.03,0,.02,.02,.04,.63-3.01Z"/><path class="h" d="M121.82,95.68c.27,1.11,.61,2.16,.66,3.29,.02,.38,.04,.75,.11,1.13,.11,.59,.38,1.15,.47,1.75,.07,.47,.17,.94,.22,1.4,.02,.18,.15,.58,.04,.77-.19,.34-1.24,.58-1.58,.62-1.04,.09-2.36-.13-3.28-.64-.22-.12-.32-.16-.26-.38,.04-.13,.26-.34,.34-.47,.19-.31,.34-.64,.53-.96,.67-1.12,1.15-2.35,1.66-3.54,.3-.71,.62-1.45,.86-2.18,.06-.18,.21-.7,.22-.78Z"/><path class="h" d="M104.89,101.45c-2.29,.57-4.6,1.36-6.98,.82-.45-.1-.96-.19-1.37-.4-.09-.05-.42-.18-.48-.24-.21-.25,.24-.55,.43-.83,.56-.81,1.05-1.67,1.58-2.5s1.04-1.62,1.62-2.42c.21-.3,.32-.67,.57-.94,.53,1.59,1.37,3.07,2.47,4.39,.2,.24,.47,.45,.65,.69s.24,.51,.42,.75c.15,.19,.43,.45,1.11,.69Z"/><path class="h" d="M94.72,101.37c-.16-1.6-.18-3.12-.26-4.71-.05-.91,0-1.83-.05-2.73-.04-.57-.06-1.15-.1-1.72-.02-.26-.1-.48-.04-.74-.4,.28-.71,.73-.96,1.12-.65,1.01-1.37,1.94-2.25,2.8-.65,.64-1.28,1.3-1.93,1.94-.29,.29-.57,.65-.92,.88,.07,.44,.7,.48,1.04,.69,.65,.4,1.17,.91,1.91,1.2,.82,.33,1.63,.65,2.42,1.05,.31,.16,.71,.28,1.15,.21Z"/><path class="h" d="M84.43,97.28c-1.41-.23-2.78-.61-4.19-.27-.62,.15-1.19,.36-1.82,.47-.37,.06-.69,.26-1.05,.32-.15,.03-.29-.03-.45,.01-.66-1.03-.03-2.43,.38-3.4,.46-1.1,.79-2.22,1.22-3.32,.19-.48,.37-.98,.57-1.45,.11-.25,.19-.7,.37-.91,.23,.25,.3,.64,.44,.93,.31,.67,.74,1.28,1.05,1.96,.47,1.03,1.03,2.06,1.62,3.03,.22,.37,.6,.6,.79,.99,.13,.26,.21,.46,.39,.69,.19,.25,.43,.57,.69,.97Z"/><path class="h" d="M72.23,98.98c-1.62,.5-2.84,.96-4.48,1.08-.84,.06-1.67,.38-2.52,.33-1.36-.07-2.65-.14-3.98-.37,1.05-1.76,2.13-3.57,2.78-5.52,.4-1.17,.76-2.35,1.15-3.52,.19-.57,.3-1.35,.63-1.87,.21,.31,.31,.7,.47,1.04,.3,.63,.73,1.2,1.06,1.82,.34,.65,.76,1.22,1.14,1.84,.47,.76,.76,1.56,1.29,2.3,.43,.6,.87,1.19,1.35,1.75,.19,.22,.31,.52,.51,.72s.48,.2,.61,.4Z"/><path class="h" d="M57.96,100.4c-1.41,.21-2.79,.46-4.21,.63-1.11,.13-2.14,.31-3.21,.61-.45,.13-.92,.08-1.37,.21-.42,.12-.8,.32-1.23,.41-.26,.05-.64,.22-.9,.15-.05-.19,.18-.35,.29-.51,.29-.46,.44-1.01,.68-1.5,.33-.67,.74-1.3,1.07-1.97,.29-.59,.46-1.21,.67-1.82,.4-1.14,1.02-2.26,1.25-3.44,.09-.45,.24-.87,.33-1.32,.04-.2,.04-.45,.16-.62,.24,.26,.4,.6,.59,.9,.38,.59,.79,1.14,1.22,1.69,.83,1.06,1.28,2.33,2.07,3.43,.51,.71,1.08,1.4,1.56,2.12,.23,.34,.53,.64,1.03,1.04Z"/><path class="h" d="M45.37,102.83c-1.49,.3-3.52,.54-4.83,1.46-.18,.12-.3,.29-.5,.37,.22-.49,.42-.99,.63-1.49,.43-1,.59-2.06,.86-3.11,.19-.75,.4-1.5,.6-2.25,.11-.4,.05-1.06,.28-1.42,.55,.85,.85,1.9,1.31,2.79,.23,.44,.42,.9,.71,1.31,.2,.28,.44,.51,.6,.81,.15,.27,.23,.56,.39,.83,.07,.11,.33,.34,.27,.49-.09,.25-.43,.2-.34,.2Z"/><path class="h" d="M134.29,160.21c-.84,.03-1.83-.02-2.68,.16-.34,.07-.69,.13-1.03,.21-.51,.11-1.04,.15-1.53,.29s-.94,.33-1.41,.48c-.31,.1-.6,.16-.9,.3-.34,.16-.68,.31-1.01,.5-.12,.07-.47,.18-.52,.3-.05,.14,.08,.61,.2,.64s.38-.12,.48-.16c.35-.14,.69-.29,1.05-.4,.53-.17,1.04-.38,1.57-.54,.58-.18,1.18-.29,1.74-.51,.97-.37,2-.65,2.96-1.03,.2-.08,1.17-.47,1.09-.24Z"/><path class="h" d="M134.3,168.67c1.03-.43,2.09-.91,3.22-1.06,.74-.1,1.48-.18,2.23-.25,.73-.07,1.42-.17,2.15-.17,.23,0,.55-.08,.74,.03-.12,.07-.24,.07-.37,.1-.31,.08-.6,.22-.89,.33-.65,.25-1.31,.48-1.99,.63-1.18,.26-2.38,.41-3.57,.65-.71,.14-1.41,.26-2.13,.35-.61,.07-1.26,.17,.61-.62Z"/><path class="h" d="M104.14,47.21c-.95-1.58-1.68-3.26-2.49-4.91-.27-.55-.49-1.11-.77-1.65-.16-.31-.27-.62-.38-.94-.23-.67-.6-1.29-.85-1.95-.14-.38-.36-.73-.54-1.1-.22-.48-.4-.99-.67-1.45-.21-.36-.42-.72-.59-1.09-.15-.34-.27-.72-.47-1.04-.43-.67-.91-1.32-1.4-1.96-.41-.53-.87-1.06-1.36-1.52-.61-.57-1.03-1.29-1.64-1.87s-1.13-1.24-1.78-1.79c-.31-.26-.63-.52-.91-.81-.24-.25-.55-.4-.82-.61-.75-.59-1.52-1.2-2.38-1.65-1.59-.84-3.31-1.66-5.06-2.16-.85-.24-1.68-.54-2.56-.66-.95-.13-1.92-.18-2.88-.23-.86-.05-1.7-.21-2.56-.17-.94,.04-1.92,.07-2.85,.23-.5,.09-1,.13-1.49,.22-.45,.08-.88,.23-1.33,.32-.9,.18-1.62,.57-2.42,.96s-1.64,.67-2.41,1.13c-.99,.58-2.04,.98-2.97,1.67-1.39,1.03-2.87,1.94-4.17,3.07-1.35,1.18-2.52,2.49-3.65,3.85-1.19,1.44-2.45,2.79-3.36,4.4-.73,1.3-1.47,2.61-2.09,3.96-.57,1.23-1.11,2.49-1.44,3.79-.26,1.01-.51,2.09-.61,3.13-.04,.43,0,.89-.08,1.31-.04,.25-.08,.48-.06,.73s.08,.57,.37,.66c.16-.16,.24-.47,.32-.66,.13-.31,.23-.62,.3-.94,.19-.81,.33-1.62,.6-2.42,.67-2,1.7-3.91,2.78-5.74,.88-1.48,1.66-3.03,2.74-4.4,.57-.73,1.19-1.43,1.81-2.12,.73-.82,1.45-1.69,2.31-2.39,.93-.75,1.91-1.44,2.87-2.14,.88-.64,1.9-1.05,2.85-1.61,1.08-.64,2.33-1.12,3.51-1.57,1.33-.51,2.72-.94,4.13-1.19,1.08-.19,2.17-.22,3.25-.41,1-.18,2.12-.18,3.13-.08,.98,.1,1.98,.05,2.96,.17,1.03,.12,2.07,.28,3.08,.52,.86,.2,1.76,.44,2.59,.75,.73,.27,1.41,.58,2.11,.91,.56,.26,1.1,.55,1.64,.84,.51,.27,.89,.67,1.35,1.01,.38,.28,.75,.53,1.09,.87,.48,.49,.85,1.09,1.38,1.52,.24,.19,.41,.42,.61,.65,.19,.21,.41,.38,.6,.58,.49,.52,.92,1.08,1.4,1.61,.39,.43,.76,.87,1.13,1.31,.41,.49,.7,1.05,1.06,1.57,.48,.7,.98,1.37,1.41,2.1,.39,.67,.87,1.3,1.23,1.97s.68,1.29,1.06,1.92c.41,.69,.76,1.36,1.06,2.09,.22,.54,.56,1.04,.79,1.58,.18,.41,.31,.98,.66,1.31,.13,.12,.37,.19,.52,.29,.12,.08,.21,.17,.33,.26,0,.03-.02,.04,0-.01Z"/><path class="h" d="M101.91,54.58c-.62,.37-1.81,.91-2.3,1.56-.12,.16-.24,.32-.39,.47-.46,.47-.84,.84-1.21,1.38-.86,1.26-1.7,2.5-2.27,3.9-.5,1.25-1.21,2.44-2,3.57-.34,.49-.7,.99-1.09,1.46-.47,.56-1.08,1.04-1.59,1.57-.59,.61-1.32,1.2-2.05,1.64-1.08,.63-2.05,1.27-3.25,1.7-.49,.18-.99,.32-1.48,.49-.4,.14-.76,.29-1.18,.36-.29,.05-.57,.07-.86,.14-.73,.16-1.37,.31-2.13,.37-.78,.06-1.55,.2-2.33,.26-1.78,.15-3.55,.24-5.34,.23-1.62,0-3.26-.07-4.84-.44-1.2-.28-2.36-.72-3.43-1.31-.91-.51-1.79-1.06-2.75-1.49-.87-.39-1.6-.85-2.36-1.41-.82-.6-1.56-1.28-2.39-1.86-.35-.24-.66-.53-.99-.78-.4-.31-.84-.57-1.23-.9-.77-.65-1.57-1.23-2.28-1.94-.66-.66-1.44-1.17-2.25-1.66-.63-.38-1.25-.82-1.9-1.15-.69-.36-1.43-.6-2.19-.82,.29,.07,.53,.25,.78,.39,.38,.23,.81,.37,1.17,.62,.54,.38,.96,.89,1.47,1.31,.32,.27,.6,.59,.89,.89,.51,.55,1.09,1.01,1.59,1.56,.95,1.04,1.85,2.13,2.88,3.1,2.35,2.22,5.31,3.78,8.26,5.22,1.01,.49,2.08,.89,3.13,1.3,.31,.12,.61,.24,.94,.33,.38,.11,.74,.27,1.11,.39,.25,.08,.51,.03,.76,.03,.23,0,.48,.1,.72,.11,.27,.02,.54,0,.81-.02,.56-.06,1.07-.07,1.63-.07,.33,0,.66,.04,.98,.04,.4,0,.82-.09,1.22-.12s.75-.12,1.14-.14c.3-.01,.6-.01,.89-.02,.54-.03,1.08-.12,1.62-.16s1.08-.1,1.62-.21c.65-.13,1.31-.18,1.95-.36,.87-.25,1.9-.31,2.71-.74,.5-.26,1.02-.46,1.57-.63,.67-.21,1.29-.43,1.93-.7,.21-.09,.37-.18,.55-.3,.29-.2,.64-.29,.94-.48,.22-.14,.38-.33,.62-.46,.28-.15,.52-.31,.75-.53,.41-.38,.85-.71,1.29-1.05,.57-.44,1-.93,1.5-1.43,.53-.53,.83-1.22,1.3-1.79,.35-.42,.69-.83,.96-1.3,.22-.39,.33-.82,.5-1.23,.29-.69,.62-1.36,.95-2.03,.34-.71,.66-1.43,1.03-2.13,.31-.58,.62-1.15,.98-1.7s.73-1.07,1.18-1.58c.33-.37,.71-.63,1.08-.95,.19-.17,.43-.36,.65-.47-.02,0-.04,.01,.01-.02Z"/><path class="h" d="M95.43,68.29c-.54,.55-1.11,1.07-1.54,1.7-.26,.38-.52,.78-.78,1.16-.36,.52-.89,.95-1.31,1.44-.56,.66-1.18,1.28-1.85,1.84-.74,.62-1.38,1.31-2.06,1.97-.55,.53-1.27,.83-1.92,1.22-.36,.22-.67,.48-1.03,.7-.81,.5-1.75,.81-2.62,1.2-.54,.24-1.06,.51-1.62,.69-.5,.16-1.01,.32-1.51,.49-.83,.29-1.74,.52-2.62,.61-2.22,.22-4.53-.13-6.66-.69-1.01-.27-1.89-.75-2.83-1.16-.35-.15-.69-.29-1.04-.43-.44-.16-.83-.41-1.26-.57-.63-.24-1.21-.33-1.79-.7-.51-.33-1.08-.56-1.6-.89s-1.08-.5-1.65-.73c-.47-.19-.88-.41-1.37-.56,.31,.14,.59,.34,.85,.54,.43,.32,.95,.58,1.43,.84,1.46,.79,2.83,1.75,4.38,2.39,.45,.18,.85,.45,1.29,.63,.36,.15,.74,.22,1.1,.36,.44,.16,.85,.39,1.28,.59s.85,.29,1.28,.43c.76,.23,1.47,.47,2.26,.6,.41,.07,.84,.06,1.26,.1s.85,.07,1.28,.04,.87-.04,1.27-.17c.24-.08,.42-.17,.68-.22,.22-.04,.44-.02,.66-.05,.39-.06,.78-.21,1.17-.31,.42-.11,.84-.16,1.26-.24,1.8-.35,3.59-1.03,5.25-1.75s2.69-1.93,3.85-3.1c.92-.92,1.82-1.8,2.52-2.88,.35-.54,.78-1.02,1.15-1.54,.33-.47,.63-.95,.95-1.42,.47-.69,1.16-1.22,1.89-2.14Z"/><path class="h" d="M99.22,48.07c-.11,.83-.16,1.74-.39,2.57-.12,.42-.29,.84-.42,1.26-.24,.73-.75,1.35-1.08,2.05-.66,1.35-1.53,2.64-2.38,3.9-.73,1.08-1.37,2.21-2.15,3.27s-1.78,1.89-2.84,2.68c-1.02,.76-2.13,1.45-3.27,2.05-1.07,.57-2.24,.98-3.36,1.46s-2.34,.73-3.53,.9c-.94,.13-1.89,.16-2.84,.21-1.07,.06-2.12,.14-3.19,.11-1.92-.04-3.81-.23-5.7-.48-1.92-.25-3.77-.55-5.62-1.1-1.28-.38-2.55-.76-3.75-1.32-1.09-.51-2.1-1.04-3.1-1.68-.41-.26-.79-.53-1.17-.83-.46-.36-1-.62-1.42-1.02-.53-.51-1.02-1.07-1.6-1.53-.34-.27-.63-.58-.98-.82-.47-.33-.95-.64-1.43-.95-.34-.21-.66-.49-1.02-.66-.31-.15-.66-.24-.96-.4-.97-.51-1.98-.84-3.09-.66,.25-.21,.63-.31,.95-.33,.6-.04,1.35-.04,1.92,.17,.44,.16,.88,.39,1.28,.62,.44,.24,.89,.41,1.3,.7,.67,.49,1.35,.93,2,1.45,.47,.36,.91,.73,1.31,1.16s.75,.77,1.24,1.09,.89,.69,1.34,1.03c.59,.46,1.16,.89,1.8,1.29,.53,.33,1.16,.55,1.72,.85,.61,.33,1.38,.51,2.04,.71,.94,.27,1.86,.53,2.83,.67,1.7,.25,3.38,.64,5.1,.81,.59,.06,1.18,.04,1.77,.08,.77,.06,1.56,.15,2.33,.16,.82,.01,1.64,.01,2.46,.03,.75,.01,1.52-.12,2.27-.2,.67-.07,1.28-.33,1.94-.45,.73-.13,1.51-.17,2.21-.4,1.41-.46,2.86-.91,4.18-1.58,.6-.3,1.13-.72,1.7-1.07,.64-.39,1.39-.72,1.95-1.21,.88-.77,1.76-1.6,2.51-2.49s1.47-1.82,2.09-2.85c.31-.51,.6-1.03,.9-1.55,.28-.48,.58-.93,.86-1.41,.16-.28,.35-.51,.56-.75,.15-.17,.23-.38,.37-.55,.23-.28,.45-.54,.66-.83,.32-.45,.68-.94,.92-1.44s.39-.97,.56-1.48c.12-.35,.11-.67,.23-1.22Z"/><path class="h" d="M101.86,50.17c-.46-.28-.93-.49-1.28-.87-.1-.11-.2-.23-.31-.34-.26-.24-.44-.5-.61-.81-.44-.8-.94-1.54-1.33-2.37-.22-.48-.47-.91-.78-1.35-.34-.48-.66-1.01-1.05-1.45-1.02-1.17-2.36-2.09-3.29-3.32-.61-.81-1.29-1.58-1.95-2.36-.85-1-1.84-1.86-2.82-2.74-1.24-1.12-2.65-2.29-4.15-3.11-.68-.37-1.3-.85-2.01-1.16-.77-.34-1.53-.68-2.35-.92-.54-.16-1.1-.29-1.65-.42-.81-.18-1.64-.42-2.47-.46-.95-.05-1.87-.18-2.82-.17-.86,.01-1.68,.15-2.53,.23s-1.64,.3-2.48,.44-1.66,.34-2.45,.68c-.74,.31-1.44,.54-2.12,.96-.61,.37-1.18,.79-1.75,1.2-.55,.4-1.1,.78-1.6,1.24s-.92,.89-1.37,1.34c-1,.97-1.93,1.96-2.79,3.05-.3,.39-.63,.74-.93,1.13-.42,.56-.97,.99-1.36,1.58-.63,.96-1.31,1.89-1.87,2.89-1.22,2.15-2.43,4.33-3.42,6.58-.28,.64-.66,1.23-.91,1.87s-.62,1.29-.88,1.95-.59,1.34-.96,1.96c-.24,.4-.5,.87-.8,1.23,.04-.38,.32-.79,.47-1.14,.29-.66,.47-1.34,.77-2,.75-1.66,1.16-3.43,1.88-5.1,.33-.78,.63-1.58,1-2.34,.46-.95,.83-1.93,1.33-2.86,.54-.98,.99-2,1.55-2.97,.68-1.18,1.49-2.29,2.32-3.38,.41-.54,.92-1.01,1.36-1.53,.42-.48,.82-.98,1.28-1.43,1.04-1,2.28-1.78,3.42-2.67,.51-.4,1.08-.7,1.62-1.06,.48-.31,.92-.67,1.4-.98,1.12-.71,2.4-1.24,3.67-1.68,.54-.19,1.13-.33,1.7-.46,.49-.11,.96-.29,1.45-.4,1.33-.29,2.75-.23,4.1-.17,1.19,.05,2.41,.12,3.59,.32,1.06,.18,2.15,.58,3.17,.9,.8,.25,1.48,.7,2.2,1.1,.76,.43,1.53,.92,2.24,1.42,.63,.45,1.29,.88,1.89,1.37s1.16,1.07,1.76,1.57c.66,.55,1.33,1.1,1.93,1.72,.43,.44,.77,.97,1.21,1.4,.34,.33,.65,.63,.95,1,.46,.57,.94,1.15,1.3,1.78,.43,.74,.9,1.45,1.41,2.13,.35,.46,.79,.81,1.18,1.26,.3,.34,.58,.7,.88,1.05,.4,.47,.77,.95,1.02,1.52,.28,.66,.77,1.21,1.06,1.89,.24,.55,.29,1.21,.66,1.7,.27,.35,.62,.69,.97,.99,.12,.1,.26,.22,.39,.3,.16,.1,.32,.13,.49,.2-.1,.16-.27,.04-.42,.03-.16-.01-.32,.08-.18,0Z"/><path class="h" d="M109.91,35.27c-1.06,.28-2.1,.59-3.16,.86-.5,.13-.94,.41-1.43,.59-.55,.2-.97,.46-1.46,.75-.34,.2-.63,.44-1.03,.55s-1.19,.15-1.27-.34c-.1-.68,.73-1.27,1.27-1.57,.9-.5,1.89-.96,2.92-1.13,.92-.16,1.92-.42,2.87-.36,.44,.03,1.55,.1,1.28,.64Z"/><path class="h" d="M103.49,24.48c-1.3,.88-2.68,1.62-3.99,2.48-.52,.34-1.15,.7-1.78,.79-.21,.03-.47,.14-.61,.02-.13-.11-.11-.32-.1-.46,.1-.78,1.01-1.28,1.63-1.71,1.28-.88,2.65-1.93,4.33-1.82,.59,.04,.45,.41,.53,.69Z"/><path class="h" d="M92.51,14.71c-.76,1.06-1.62,2.01-2.45,3.02-.5,.61-.9,1.41-1.55,1.9-.2,.15-.87,.46-1.03,.14-.08-.17,.11-.56,.17-.71,.16-.43,.47-.81,.73-1.2,.41-.62,.91-1.18,1.43-1.73,.47-.49,.95-1.05,1.53-1.43,.26-.17,.58-.3,.89-.19s.28,.2,.28,.19Z"/><path class="h" d="M74.48,11.22c-.18,1.03-.37,2.06-.41,3.1-.02,.65,0,1.31-.04,1.95-.02,.28,.1,1.02-.36,1.04-.05,0-.44-.08-.49-.1-.26-.12-.17-.57-.19-.84-.05-.98,.01-1.94,.11-2.91,.06-.63,.07-1.43,.45-1.99,.11-.16,.49-.51,.75-.42,.12,.04,.36,.36,.18,.17Z"/><path class="h" d="M62.77,19.54c.21-.44,.33-.89,.35-1.36l-.12-.08c-.07-.12-.12-.18-.18-.31-.15-.32-.37-.61-.54-.92-.33-.61-.56-1.26-.88-1.86-.2-.38-.37-.75-.79-.94-.39-.17-.58,.23-.58,.57,0,.27,.15,.59,.22,.86,.09,.32,.2,.63,.31,.94s.2,.68,.39,.97c.16,.26,.37,.48,.53,.75s.8,1.62,1.27,1.39Z"/><path class="h" d="M55.52,24.88c-.03-.51-.15-.99-.36-1.46-.27,0-.45-.18-.63-.35-.24-.23-.53-.41-.74-.66-.48-.58-.96-1.15-1.53-1.67-.17-.16-.57-.6-.85-.5-.15,.05-.23,.36-.26,.49-.05,.28,.06,.57,.2,.82,.34,.62,.92,1.11,1.4,1.63,.24,.27,.46,.53,.74,.77s.57,.37,.85,.59c.2,.16,.56,.45,.86,.45,.42,0,.43-.53,.33-.11Z"/><path class="h" d="M49.69,30.7c.24-.5,.58-.94,.11-1.34-.21-.18-.47-.27-.7-.42-.54-.35-.98-.82-1.44-1.25-.28-.26-1.55-1.31-1.7-.36-.1,.67,.49,1.23,.92,1.69,.47,.5,.96,1.01,1.65,1.24,.55,.18,1.26,.13,1.16,.45Z"/><path class="h" d="M96.26,46.61c-.47-.63-1.06-1.29-1.39-1.97-.12-.25-.21-.45-.38-.68-.3-.4-.68-.73-1.03-1.09-.72-.75-1.35-1.55-2.01-2.34-.48-.58-1.11-1.06-1.62-1.62-.56-.62-1.08-1.29-1.64-1.91-.77-.86-1.58-1.68-2.42-2.45-1.09-1.01-2.39-1.77-3.71-2.48-1.25-.67-2.33-1.39-3.72-1.79-.8-.23-1.59-.45-2.42-.49-.55-.03-1.1-.14-1.66-.1-.51,.03-.96-.08-1.47-.05-2.06,.14-3.97,.48-5.89,1.17-2.24,.8-4.17,2.2-6.02,3.57-3.57,2.65-6.19,6.2-8.36,9.91-.97,1.66-1.72,3.45-2.55,5.16-.55,1.12-1.31,2.28-1.34,3.57-.03,1.19,.98,2.67,1.85,3.47,.36,.33,.65,.72,1.04,1.01,.37,.27,.78,.5,1.13,.79,.87,.71,1.61,1.55,2.52,2.2,.37,.27,.68,.56,1.07,.8,.5,.31,.82,.77,1.29,1.12,.45,.33,.92,.66,1.42,.93,.42,.22,.9,.33,1.3,.55,.16,.09,.21,.2,.39,.27s.34,.09,.53,.18c.35,.17,.64,.21,1.02,.29,1.43,.32,2.67,1.03,4.05,1.43,2.41,.71,5.04,.83,7.54,.75,1.07-.03,2.12-.22,3.17-.35,.83-.1,1.63-.14,2.44-.34,2.15-.55,4.42-1.22,6.23-2.48,.62-.43,1.36-.97,1.84-1.53s1.05-1.11,1.56-1.69c1.14-1.29,2.38-2.53,3.29-3.98,.72-1.15,1.73-2.23,2.25-3.48,.35-.84,.95-1.54,1.36-2.35,.26-.5,.37-1.12,.38-1.67,.01-.52,.18-1.02,.15-1.53-.03-.39-.08-.7-.17-.81Z"/><path class="i" d="M71.8,31.24c-1.36-.05-2.71-.21-4.02,.18-.72,.21-1.33,.56-1.96,.94-1.33,.8-2.73,1.49-3.71,2.69s-2.1,2.33-2.76,3.74c-.57,1.22-1.02,2.47-1.35,3.77-.3,1.2-.38,2.48-.49,3.7-.11,1.14-.12,2.47,.1,3.59,.24,1.27,.69,2.55,1.06,3.79,.17,.55,.39,1.12,.67,1.62,.33,.6,.51,1.25,.9,1.82,.81,1.18,1.9,1.98,3,2.92,.98,.83,2.21,1.2,3.46,1.54,2.64,.73,5.58,.37,8.01-.81,1.55-.74,3.31-1.56,4.48-2.79,.61-.64,1.26-1.24,1.65-2.02,.49-.97,.8-1.92,1.01-2.98,.43-2.13,.35-4.33,.28-6.48-.06-1.88-.07-4.02-.81-5.8s-1.3-3.68-2.46-5.19c-.88-1.15-1.84-2.15-3.09-2.95-.77-.49-1.59-1.1-2.55-1.19-.33-.03-1.45,.22-1.41-.1Z"/><path class="h" d="M69.73,32.25c-1.64,.46-3.17,.74-4.51,1.71-.47,.34-1.01,.6-1.45,.96-1.07,.87-1.92,1.88-2.7,3s-1.49,2.27-1.73,3.55c-.19,.99-.4,1.97-.54,2.95-.29,2,.08,4.17,.46,6.14,.32,1.66,.68,3.33,1.55,4.83,.5,.86,1.21,1.65,2.01,2.29s1.64,1.38,2.55,1.86c.93,.5,2.02,.87,3.09,.89,.65,.01,1.24,.14,1.9,.08s1.34-.1,1.98-.35c1.41-.54,2.69-1.05,3.87-1.98,.68-.54,1.35-.97,1.85-1.67,.54-.74,.94-1.47,1.34-2.28,.44-.89,.68-1.84,.84-2.8,.17-1.08,.39-2.05,.34-3.13-.09-2.08,.1-4.24-.33-6.3-.18-.87-.44-1.72-.72-2.56-.32-.93-.99-1.6-1.52-2.42-.78-1.19-1.44-2.34-2.62-3.23-.81-.61-1.66-1.11-2.65-1.36-.67-.17-1.42-.16-2.1-.19-.41-.02-.85,0-.9,0Z"/><path class="i" d="M70.83,34.35c-1.03,.2-2.18,.23-2.96,.9-.18,.16-.41,.35-.58,.52-.33,.33-.58,.75-.84,1.13-.29,.41-.55,.82-.76,1.26-.29,.61-.44,1.26-.72,1.87-.25,.53-.38,1.02-.51,1.59-.1,.44-.31,.85-.4,1.29-.17,.85-.32,1.72-.45,2.58-.22,1.47-.05,3.3,.3,4.74,.39,1.6,.99,3,1.92,4.38s2.5,2.32,4.22,1.64c1.02-.41,1.87-1.17,2.46-2.03,.82-1.18,1.52-2.45,1.89-3.82s.82-2.76,.67-4.24-.07-3.06-.25-4.6c-.14-1.21-.5-2.47-.96-3.6-.35-.88-.78-1.69-1.44-2.39-.61-.65-1.03-1.17-1.59-1.22Z"/><path d="M73.78,35.12c.53,.64,1.55,1.59,1.92,2.45,.12,.28,.2,.57,.32,.85,.29,.66,.6,1.31,.86,1.99,.46,1.18,.78,2.46,.98,3.71,.49,3.07,.05,6.26-.95,9.19-.45,1.33-.93,2.89-2.19,3.75-.61,.42-1.3,.54-1.95,.87-.59,.3-1.09,.62-1.77,.74-2.67,.48-5.37-.76-7.22-2.49,.27,1.02,1.61,1.68,2.52,2.09,1.07,.48,2.15,.86,3.38,.95,.63,.05,1.22,.06,1.85,0,.77-.06,1.4-.42,2.07-.78,1.36-.71,2.1-1.73,3.05-2.83,1.56-1.79,2.4-3.98,2.57-6.29,.17-2.33,.08-4.75-.52-7.04-.43-1.65-.99-3.43-2.17-4.78-.39-.44-.85-.87-1.29-1.26-.21-.19-.47-.34-.68-.51-.16-.13-.31-.32-.78-.63Z"/><path class="g" d="M70.73,36.22c-.66,.06-1.23,.29-1.69,.69,.13,.41-.09,.63,.22,.99,.15,.17,.35,.36,.58,.42,.41,.1,.94-.07,1.14-.39,.23-.38,.23-1.45-.25-1.71Z"/><path class="g" d="M68.94,40.24c-.25-.56-.58-1.07-.99-1.53-.1,.25-.43,.46-.57,.71-.17,.28-.25,.56-.34,.87-.19,.61-.22,1.24-.16,1.88,.05,.51,.09,1.38,.69,1.64s1.21-.07,1.49-.56c.18-.33,.22-.8,.34-1.17,.13-.4,.11-.72,.07-1.13-.05-.53-.02-1.11-.26-1.6-.16-.34-.3-.67-.72-.75-.39-.08-.82,.11,.47,1.64Z"/><path d="M205.86,238.13c1.2-4.05,2.26-8.08,2.34-12.32,.06-3.46,.4-6.92,.1-10.39-.38-4.47-1.11-8.89-1.75-13.33-.63-4.32-1.51-8.57-2.63-12.79-.29-1.07-.81-2.06-1.08-3.13-.22-.87-.27-1.78-.4-2.66-.36-2.55-.84-4.95-1.53-7.44-.64-2.32-1.09-4.69-1.77-7-.71-2.42-1.5-4.89-2.06-7.35-1.16-5.09-2.33-10.18-3.35-15.3-1.05-5.25-2.19-10.48-3.57-15.66-.55-2.07-1.02-4.16-1.61-6.22-.55-1.93-.94-3.86-1.42-5.79-.36-1.45-.93-2.77-1.43-4.17s-.83-2.64-1.78-3.83c-1.59-2-5.25-2.26-6.84-.14-1.44,1.91-2.33,4.53-3.18,6.72-1.27,3.27-1.27,6.78-.96,10.23,.26,2.89,.73,5.84,1.28,8.7,.27,1.37,.65,2.63,.99,3.98s.43,2.69,.74,4.01c.61,2.55,.81,5.18,.85,7.8,.07,4.13,.04,8.29-.17,12.41-.18,3.59-.6,7.34-1.7,10.78-1.41,4.41-2.41,8.82-2.97,13.41-.92,7.53-1.96,15.06-2.28,22.65-.1,2.41,.03,4.82,.15,7.22,.11,2.19-.03,4.39,.12,6.57,.24,3.45,.81,7.17,2.13,10.4,.65,1.58,1.46,3.1,2.23,4.63,.42,.85,.78,1.72,1.21,2.57,.5,1,1.21,1.78,1.84,2.7,1.07,1.54,2.83,2.24,4.53,3.03,2,.94,4.14,1.35,6.32,1.72,3.25,.55,7.46,.33,10.27-1.57,1.66-1.13,3.01-2.62,4.41-4.02,1.17-1.17,2.25-2.94,2.44-4.59,.06-.49-.02-1.91,.56-1.81Z"/><path class="g" d="M173.4,131.64c.37,3.57,.5,8.71,1.53,12.16,.73,2.46,.19,5.13,.38,7.68,.11,1.43,.42,2.88,.46,4.31,.06,1.95-.04,3.87-.15,5.82-.09,1.49-.41,2.99-.78,4.44-.35,1.37-.39,2.74-.6,4.12-.39,2.61-.74,5.44-1.64,7.92-.85,2.33-1,4.79-1.6,7.18-.54,2.14-1.18,4.35-1.44,6.54-.33,2.83-.77,5.64-.83,8.5-.06,3.07-.49,6.1-.56,9.17-.03,1.4,0,2.77,.08,4.17,.05,.8-.04,1.57,.07,2.37s.27,1.6,.35,2.4c.21,2.18,.16,4.44,.56,6.59,.51,2.65,.57,5.36,.97,8.03,.15,1.02,.54,2,.79,3,.38,1.5,.68,3.01,1.17,4.48,.78,2.33,2.07,4.72,3.64,6.64,.91,1.11,1.77,1.97,3.03,2.72,1.15,.69,2.32,1.12,3.58,1.58,2.63,.98,5.44,1.32,8.24,1.38,2.28,.05,4.48-.69,6.34-1.97,.94-.65,1.89-1.18,2.79-1.89,.95-.75,1.91-1.5,2.87-2.25,.85-.67,1.48-1.14,1.95-2.06,.2-.4,.55-.71,.77-1.11,.3-.57,.63-1.09,.96-1.64,.26-.44,.41-.93,.66-1.37s.57-.79,.8-1.22,.3-.9,.48-1.35c.28-.7,.6-1.27,.79-2.02,.36-1.44,.52-2.91,.55-4.39,.01-.75-.06-1.49,.05-2.24,.13-.91,.3-1.7,.31-2.63s-.11-1.84,.02-2.73,.39-1.63,.39-2.5c0-1.91-.57-3.8-.68-5.71-.09-1.45-.35-2.85-.43-4.29-.04-.59-.2-1.15-.28-1.73-.11-.77-.03-1.56-.11-2.33-.16-1.42-.19-2.86-.61-4.22-.19-.62-.24-1.21-.34-1.84-.14-.88-.48-1.72-.71-2.58-.78-2.83-.88-5.77-1.62-8.6-.37-1.41-.86-2.81-1.01-4.26s-.54-3.06-.91-4.5c-.35-1.35-1.02-2.62-1.43-3.96-.46-1.48-.71-3.01-1.12-4.5-.37-1.34-.62-2.72-1.06-4.04-.25-.74-.53-1.42-.73-2.18-.18-.7-.3-1.44-.54-2.12-.46-1.27-.86-2.45-1.11-3.78-.23-1.22-.48-2.44-.72-3.66-.28-1.46-.66-2.92-.95-4.38-.33-1.64-.43-3.3-.81-4.93-.27-1.16-.79-2.39-1.2-3.52-.49-1.34-.99-2.68-1.28-4.08-.45-2.15-.96-4.29-1.61-6.39s-1.3-4.23-1.68-6.44c-.51-3.01-.92-6.02-1.68-8.97-.28-1.08-.45-2.06-.93-3.05-.32-.66-.62-1.35-1.01-1.95-.34-.5-.78-1.46-1.27-1.79,.28,.39,.37,1.38,.56,1.82,.33,.75,.65,1.55,.85,2.34,.38,1.5,.73,2.98,1.16,4.46,.52,1.83,.28,3.75,.48,5.61,.19,1.85,.39,3.78,.86,5.59,.5,1.94,.68,3.89,1.12,5.85,.53,2.38,1.38,4.67,1.97,7.03,.62,2.49,1.28,4.98,1.77,7.5,.22,1.15,.63,2.22,.89,3.35,.29,1.21,.39,2.45,.66,3.67,1.06,4.91,2.73,9.64,3.63,14.58,.23,1.29,.58,2.54,.87,3.81,.34,1.49,.47,2.93,1.08,4.35,.39,.93,.68,1.88,1.04,2.82,.46,1.19,1.09,2.4,1.38,3.64,1.48,6.28,2.41,12.69,3.62,19.04,.27,1.42,.46,2.9,.54,4.34,.1,1.83,.46,3.65,.67,5.47,.19,1.62,.16,3.28,.2,4.9,.04,1.48,.04,3.02-.11,4.5-.13,1.26-.35,2.41-.7,3.62s-.43,2.46-.62,3.74c-.15,1.02-.52,2.1-.89,3.06s-.68,1.93-1.09,2.86c-.79,1.76-1.9,3.29-3.25,4.69-.74,.76-1.63,1.32-2.43,2.01-.97,.84-1.86,1.53-3.05,2.07-1.87,.85-4.02,1.5-6.09,1.45-1.88-.05-3.65-.27-5.49-.65-2.05-.41-3.85-1.83-5.48-3.04-.77-.57-1.6-1.25-2.24-1.96-.81-.88-1.21-1.86-1.67-2.94-.49-1.17-.91-2.44-1.3-3.65-.39-1.22-.58-2.38-.79-3.64-.38-2.26-.48-4.58-.75-6.86-.11-.97-.06-1.95-.14-2.92-.09-1.25-.27-2.44-.43-3.67-.32-2.36-.56-4.69-.5-7.09,.03-1.13-.15-2.27-.05-3.4,.11-1.37,.4-2.71,.49-4.08,.21-3.18,.67-6.32,1.23-9.46,.48-2.74,1.02-5.44,1.28-8.21,.26-2.67,1.01-5.23,1.46-7.87,.2-1.15,.18-2.35,.43-3.48,.27-1.22,.72-2.39,.99-3.61,.46-2.13,.81-4.27,1.14-6.43,.62-4.05,.44-8.1,.65-12.18,.09-1.85-.27-3.6-.52-5.41-.1-.75-.27-1.47-.44-2.2-.24-1.04-.35-2.12-.64-3.16-.43-1.57-.54-2.99-1.09-4.51-.44-1.2-.59-2.69-1.14-3.83-.23-.48-1.02-3.33-1.22-3.96Z"/><path class="m" d="M144.69,228.72c-.32,.4-2.85,3.03-2.95,4.18,0,.1,.06,.36,.07,.48,.04,.72-.12,1.53-.33,2.21-.29,.96-1.26,1.79-2.11,2.34-1.48,.97-2.96,1.92-4.2,3.19-1.62,1.66-3.07,3.48-4.64,5.17-1.43,1.54-2.56,3.09-3.64,4.9-.59,1-1.11,2.04-1.72,3.03-.54,.87-1.27,1.62-1.88,2.44-.96,1.31-1.93,3.35-3.86,3.31-2.31-.05-2.61-2.85-2.62-4.54-.02-2.36,.85-5.09,2.06-7.11,1.03-1.71,2.9-3.41,3.04-5.47,.08-1.28-.52-2.22-1.82-2.43-.76-.12-1.53-.33-2.27-.09-1.09,.36-2.31,1.19-3.15,1.9-1.23,1.05-2.43,2.06-3.51,3.26-.99,1.11-2.14,2.35-3.32,3.25-1.12,.85-2.24,1.77-3.48,2.45-1.16,.63-2.61,.79-3.88,1.18-.73,.22-1.81,.74-2.58,.46-.61-.22-1.17-1.07-1.38-1.62-.39-1.02-.03-1.98,.37-2.95,.68-1.68,1.8-3.36,3.04-4.7,1.86-2.01,3.99-4.11,6.6-5.11,2.14-.82,4.38-1.26,6.45-2.26,1.17-.56,3.17-1.66,2.74-3.23-.24-.89-1.2-1.4-2.08-1.46-1.95-.12-3.6,1.39-5.26,2.15-2.82,1.29-5.72,1.36-8.69,2.07-1.2,.29-2.52,.7-3.76,.75-1.34,.06-1.74-.53-1.86-1.75-.28-2.82,1.58-5.34,3.95-6.83,2.78-1.74,6-1.84,9.18-2.15,2.64-.26,5.41-.44,8.07-.38,2.68,.06,5.32,.35,7.99,.51,2.72,.16,5.63,.19,8.31-.23,1.39-.22,3.77-1.09,4.27-2.47,.21-.59,.32-.92,.21-1.48-.17-.83-.03-1.35,.36-2.2,.65-1.42,.99-3.26,2.01-4.5,.39-.47,.97-.43,1.34-.95,.59-.82,.99-1.99,1.19-2.96,.33-1.61,1.28-3.03,1.72-4.6,.31-1.12,.98-2.1,1.34-3.21,.42-1.32,.64-2.67,1.12-3.98,.9-2.46,1.72-4.94,2.62-7.4,.34-.94,.5-1.91,.83-2.86,.6-1.71,1.28-3.42,1.78-5.16,.35-1.25,.43-2.54,.69-3.81,.36-1.73,.74-3.47,1.11-5.2,.38-1.78,1.11-3.37,1.79-5.05,.74-1.82,1.39-3.67,1.96-5.55,.8-2.59,1.29-5.29,2.23-7.84,1.32-3.59,2.75-7.09,3.75-10.79,.35-1.31,.64-2.67,.84-4.01,.27-1.79,.71-3.55,.94-5.34,.2-1.54,.28-3.01,.67-4.54,.46-1.81,.89-3.61,1.24-5.44,.84-4.39,.88-9.05,2.51-13.26,.84-2.15,2.35-3.74,4.15-5.15s2.9-2.04,5.32-2.3c1.85-.2,3.38,.22,4.47,1.83,1.61,2.37,2.07,3.96,2.6,6.75,.95,4.97-.02,9.37-.14,14.3-.08,3.25-.24,6.5,.01,9.74,.21,2.71,.19,5.47-.28,8.15-.26,1.48-.64,2.93-.95,4.4-.42,1.97-1.09,3.96-1.38,5.94-.27,1.81-.75,3.46-1.2,5.23-.46,1.8-.91,3.53-1.57,5.27-1.13,3-2.25,6.02-3.54,8.95-.4,.91-.95,1.77-1.4,2.66-.67,1.31-1.38,2.61-2.27,3.8-.98,1.31-1.79,2.73-2.65,4.11-1.03,1.65-2.13,3.23-3.31,4.79-1.09,1.44-2.35,2.82-3.28,4.36-.86,1.43-1.77,2.8-2.76,4.16-1,1.38-1.74,2.84-2.62,4.28-.61,.98-1.25,1.96-1.87,2.94-.67,1.03-1.15,2.1-1.78,3.14-.72,1.2-1.51,2.34-2.06,3.62-.6,1.39-1.24,2.77-1.93,4.12-.26,.51-.66,.94-.42,1.49,.1,.24,.35,.35,.43,.62,.12,.4-.05,.98-.14,1.38-.45,2.01-1.87,3.94-3.05,5.62-.39,.55-1.1,1.35-1.78,1.57-.86,.28-1.43-.25-2.09,.41s-.74,1.43-.91,2.27c-.1,.5-.43,1.54,3.02-2.79Z"/><path class="g" d="M180.3,105.13c-.93-.29-2.12-.57-3.27-.41-.16,.02-1.34,.27-1.46,.34-.46,.3-.99,.65-1.46,1.01-.78,.6-1.5,1.21-2.26,1.84-1.41,1.16-2.36,2.25-3.25,3.81-.68,1.17-.91,2.42-1.4,3.66-.74,1.88-.71,3.82-1.18,5.78-1,4.18-1.71,8.5-2.53,12.73-.87,4.47-1.75,8.9-2.93,13.3-.71,2.67-1.47,5.32-2.21,7.99s-1.37,5.14-2.26,7.61c-1.05,2.92-2.09,5.86-3.1,8.79-.89,2.57-1.56,5.22-2.5,7.78-1.17,3.18-2.09,6.47-3.21,9.62-.21,.59-.56,1.11-.7,1.72-.12,.52-.21,1.05-.37,1.59-.4,1.35-.81,2.69-1.2,4.04-1.22,4.17-2.57,8.31-3.91,12.43-.28,.85-.47,1.74-.79,2.56-.29,.73-.72,1.45-.96,2.2v.27c-.15,.02-.19,.12-.14,.27-.66-.14-1.69,.98-2.03,1.47-.5,.73-.3,1.69-.59,2.47-.25,.66-.31,1.39-.67,2-.45,.77-.62,1.39-.7,2.27-.14,1.52-.44,2.94,.97,3.97,.67,.49,1.53,.84,2.23,1.27s1.62,.86,2.44,1.1c.72,.21,1.36,.33,2.06,.63,.79,.35,1.27,.52,1.95-.1,.43-.39,.81-.98,1.24-1.42,.46-.47,.67-.88,1.01-1.38,.7-1.05,1.68-1.93,2.04-3.15,.26-.88,.8-1.87,.67-2.81-.11-.79-.57-1.15-.18-1.89,.32-.62,.55-1.27,.9-1.89,.55-.98,1.06-1.93,1.56-2.94,.62-1.25,1.44-2.33,2.22-3.48,1.58-2.33,3-4.79,4.23-7.31,.62-1.27,1.56-2.38,2.21-3.63,.71-1.36,1.36-2.85,2.29-4.09,1.45-1.95,3.07-3.84,4.43-5.85s2.57-4.08,4.11-5.92c.92-1.09,1.48-2.27,2.19-3.47,1.52-2.55,2.45-5.34,3.69-8.04,.66-1.43,1.29-2.87,1.93-4.3,.69-1.57,1.07-3.26,1.69-4.86,.69-1.77,1.22-3.52,1.61-5.37,.34-1.62,1.02-3.27,1.21-4.9,.17-1.45,.84-2.84,.86-4.3,.02-1.18,.06-2.38,.22-3.55,.28-2.02,.31-3.82,.17-5.85-.13-1.97-.28-3.89-.27-5.89,.01-1.62-.14-3.25-.14-4.88,0-.91-.04-1.77,.17-2.65,.18-.72,.72-1.82,.52-2.56-.1-.38-.44-.67-.91-.54-.41,.11-.53,.65-.68,1.02-.38,.98-.42,1.85-.55,2.86-.71,5.36-.08,10.76-.07,16.13,0,2.93-.73,5.96-1.24,8.84-.22,1.24-.5,2.49-.79,3.72-.41,1.73-.76,3.5-1.27,5.2-.84,2.81-1.66,5.48-3.02,8.09-.75,1.44-1.44,2.87-2.11,4.34-.72,1.56-1.29,3.24-2.14,4.73-1.54,2.69-2.86,5.46-4.52,8.07-.89,1.4-2.13,2.5-3.16,3.77-1.16,1.43-2.18,2.96-3.32,4.39-2.71,3.38-4.28,7.55-6.42,11.28-.99,1.73-1.85,3.56-2.95,5.21-.89,1.33-1.38,2.76-2.08,4.16s-1.8,2.88-3.48,3.09c-1.64,.21-3.6-.62-4.94-1.5-1.62-1.06-.63-3.37,.03-4.79,1.46-3.1,3.02-6.34,3.85-9.7,.91-3.7,1.91-7.38,3.21-10.98,.86-2.4,1.65-4.82,2.56-7.21,.42-1.12,.67-2.29,1.02-3.43,.43-1.43,1.2-2.75,1.6-4.18,.41-1.45,.94-2.89,1.44-4.31,.51-1.45,1-2.91,1.55-4.35,.45-1.16,.81-2.36,1.24-3.53,.26-.72,.32-1.5,.64-2.2,.28-.61,.53-1.16,.72-1.82,.84-2.86,2.04-5.56,2.61-8.49,.44-2.24,.81-4.46,1.45-6.65,.33-1.13,.62-2.26,.91-3.4,.16-.61,.25-1.26,.44-1.86,.22-.72,.54-1.23,.59-1.99,.07-1.07,.49-2.15,.63-3.24,.14-1.14,.32-2.21,.54-3.34,.34-1.83,.55-3.69,.9-5.53,.24-1.27,.27-2.49,.42-3.75,.47-3.99,1.31-8.18,4.69-10.9,1.55-1.24,2.81-2.88,4.77-3.43,1.72-.49,3.14,.3,4.39,1.62,.88,.93,1.69,2.62,1.95,4.24,.06-1.18-.31-3.34-.71-4.35-.27-.67-.85-1.36-1.39-1.82-.37-.32-.89-.66-1.57-1.1Z"/><path class="g" d="M133.65,226.77c-1.05,.58-1.46,.62-2.64,.96-.45,.06-1.64,.33-2.15,.33-.83,0-1.61-.01-2.43-.13-1.06-.16-2.15-.43-3.17-.75s-1.92-.52-2.96-.72c-2.43-.47-4.99-.27-7.47-.27s-5.22-.14-7.58,.27c-2.74,.47-5.4,1.45-7.55,3.2-1.29,1.05-3.65,3.38-2.13,5.37,.86,1.12,3.82,.12,5.08-.43,1.7-.73,2.9-.68,4.73-1.01,1.6-.29,3.48-1.44,4.85-2.33,1.07-.7,2-.96,3.28-.93,1.86,.04,3.97,1.02,3.87,3.06-.06,1.37-1.52,2.3-2.45,3.11-1.14,.99-3.11,1.59-4.57,2.04-1.44,.44-2.88,.91-4.3,1.39-1.22,.41-2.05,1-2.97,1.85-1.52,1.41-3.41,2.67-4.34,4.56-.43,.87-.82,1.71-1.02,2.66s-.66,1.96,.45,2.28c2.2,.63,4.97-.25,6.72-1.6,.8-.62,1.65-1.12,2.34-1.85,.4-.42,.95-.59,1.37-.96,.52-.46,.99-1.07,1.49-1.57,.69-.69,1.43-1.35,2.09-2.03,.8-.82,1.64-1.28,2.54-1.95,.48-.36,.81-.78,1.35-1.1,.59-.36,1.32-.7,1.98-.91,.95-.29,2.67-.57,3.71-.3,.69,.18,1.36,1.07,1.59,1.67,.43,1.12,.11,2.05-.31,3.1-.52,1.29-1.09,2.15-1.96,3.24-.8,1-1.51,2.02-1.95,3.2-.36,.97-.88,1.9-1.11,2.91-.25,1.11-.23,2.33-.24,3.48s.41,1.74,1.58,1.76c.49,.01,1.02,.07,1.47-.12,.89-.39,1.64-1.68,1.97-2.5,.4-.97,1.29-2.2,1.93-3.04,.79-1.03,.67-1.85,1.46-2.87,1.31-1.71,2.32-3.19,3.7-4.85,.7-.84,1.32-1.44,2.03-2.27s1.23-1.26,2.03-1.91c.51-.42,.98-.96,1.54-1.34,.7-.48,1.49-1.06,2.26-1.46,1.37-.71,2.11-1.54,2.66-2.89,.39-.96,.57-2.76,.97-3.72,.46-1.12,.87-1.54,1.31-2.24,.64-1.03,1.19-.72,1.08,.38-.08,.83-1.44,1.62-1.65,2.43s.07,2.15-.2,2.95c-.34,1.02-1.08,1.69-1.82,2.51-.94,1.04-2.14,1.87-3.3,2.66s-2.18,1.54-3.07,2.65c-1.03,1.29-2.23,2.43-3.33,3.64-1.96,2.18-4.4,6.36-4.63,6.84-.31,.65-1.78,3.01-2.15,3.61-.6,.97-1.24,1.87-2.26,2.54-1.26,.84-2.76,.95-3.99,.07-.67-.48-.86-1.71-.96-2.51-.11-.94-.13-1.86-.13-2.81,0-2.24,1.1-4.3,2.36-6.13,.69-.99,1.44-1.82,1.97-2.91,.43-.89,1.13-1.9,.92-2.87-.4-1.81-.58-2.04-2.4-1.92-2.16,.14-3.39,1.94-4.84,3.19-.84,.72-1.73,1.36-2.57,2.08-.97,.84-2.21,1.81-3.02,2.79-1.23,1.48-3.25,2.85-5.05,3.65-1.59,.71-3.71,1.07-5.48,.74-2-.37-1.84-3.31-1.51-4.75,.22-.96,.79-2.02,1.45-2.76,1.07-1.2,2.04-2.37,3.27-3.43,.8-.69,1.62-1.37,2.5-1.96,.83-.56,1.7-1.23,2.67-1.55s2.03-.56,3.03-.9c1.25-.42,2.38-1.1,3.57-1.63,1.42-.62,2.53-1.53,1.98-3.27-.3-.96-1.3-1.06-2.13-.95-1.13,.15-2.35,.99-3.36,1.46-2.19,1.03-4.43,2-6.92,2.27-.76,.08-1.37,.26-2.08,.53-1.13,.43-1.96,.66-3.15,.66-.8,0-2.06,.3-2.69-.18-.58-.44-.79-1.46-.87-2.14-.1-.78-.04-1.55,.4-2.21,.67-.99,1.37-2.14,2.27-2.93,2.14-1.87,4.07-2.34,6.79-3.04,4.77-1.23,10.76-1.39,15.66-.94,2.59,.24,5.2,.78,7.8,.91,.74,.04,1.45,.05,2.18,0,.84-.05,1.71-.15,2.53-.27,.7-.1,.72-.29,1.6-.72,.58-.28,1.17-1.27,1.92-1.43,.98-.2,.62,1.21,.37,1.68-.22,.42-.47,.67-.8,1.02-.04,.04-.65,.42-1.01,.56Z"/><path class="g" d="M99.57,230.66c-.31-.08-.91-.35-1.21-.2-.15,.07-.3,.21-.44,.3-.26,.17-.59,.3-.79,.53-.41,.49-.55,1.18-.54,1.8,0,.36,.14,.54,.37,.82s.45,.42,.81,.52c.3,.08,.58,.16,.88,.07,.34-.1,.71-.29,.97-.52,.22-.2,.47-.41,.62-.66,.14-.23,.17-.47,.2-.73,.06-.39,.17-.8-.1-1.15-.15-.21-.37-.36-.53-.56-.07-.1-.09-.1-.2-.16-.06-.04-.11-.1-.05-.05Z"/><path class="p" d="M172.35,70.32c-2.38-.54-6.18-1.92-8.71-.5-1.56,.87-2.56,2.81-3.66,4.12-2.47,2.94-2.81,7.02-2.76,10.65,.02,1.61-.23,3.21-.33,4.82-.11,1.81-.14,3.6-.14,5.41,0,2.5-.02,4.99-.39,7.47-.38,2.5-.43,4.84-1.4,7.22-.34,.83-.73,1.38-1.3,2.09-.28,.34-.61,.65-.9,.99-.45,.51-.63,1.03-.93,1.62-.48,.92-.91,1.67-1.13,2.7-.27,1.22-.24,2.43-.07,3.66,.33,2.4,1.57,4.42,3.2,6.24,2.46,2.76,6.22,4.1,9.74,2.19,1.91-1.04,3.06-3.14,4.16-4.89,1.4-2.21,1.94-4.97,2.53-7.45s1.28-5.34,2.36-7.75c.63-1.41,1.15-2.86,1.77-4.28,.58-1.34,1.19-2.83,1.54-4.24,.73-2.96,1.94-5.72,2.91-8.6,.67-1.99,1.3-3.96,1.99-5.94,.78-2.24,1.18-4.34,.73-6.7-.17-.88-.63-1.86-1.05-2.65-.5-.97-1.14-2.12-1.8-3-.98-1.3-2.38-2.27-3.94-2.78-.58-.19-1.08-.37-1.68-.48-.41-.08-1.15-.24-.72,.06Z"/><path class="g" d="M180.87,77.54c.31,.47,.78,.97,.82,1.52,.01,.19,.06,.36,.1,.55,.08,.35,.14,.73,.21,1.08,.1,.58,.09,1.13,.08,1.71,0,.71-.17,1.41-.36,2.1-.13,.5-.23,1-.36,1.5-.12,.47-.13,.96-.28,1.41-.19,.58-.38,1.16-.58,1.74-.23,.66-.57,1.29-.78,1.95-.38,1.22-.84,2.4-1.37,3.57-.28,.64-.48,1.31-.74,1.95-.31,.78-.64,1.56-.95,2.34-.28,.71-.4,1.46-.61,2.19-.16,.58-.39,1.15-.59,1.72-.4,1.1-.72,2.23-1.08,3.35-.29,.91-.81,1.72-1.08,2.63-.14,.48-.38,.91-.53,1.39-.12,.4-.33,.8-.51,1.19-.16,.36-.35,.67-.45,1.05-.14,.51-.22,1.04-.32,1.56-.44,2.36-1.09,4.67-1.99,6.91-.37,.92-.82,1.81-1.1,2.76-.08,.29-.24,.6-.37,.87-.17,.35-.37,.69-.53,1.04s-.39,.65-.52,.99c-.25,.65-.58,1.31-1.1,1.83-.49,.49-1.15,.84-1.79,1.13-.25,.11-.52,.17-.78,.27-.28,.11-.53,.27-.8,.39-.56,.24-1.25,.44-1.86,.57-.46,.1-.95,.13-1.42,.08-.54-.06-1.02-.25-1.55-.34-.89-.15-1.73-.53-2.54-.88-.48-.2-.89-.43-1.27-.76-.34-.29-.56-.64-.83-.99-.31-.4-.59-.82-.91-1.21-.14-.17-.3-.32-.4-.51-.45-.81-.71-1.69-1.11-2.52-.52-1.07-.76-2.2-.83-3.37-.08-1.48,.04-3.07,.43-4.52,.32-1.18,1.03-2.26,1.68-3.31,.35-.57,.77-1.09,1.06-1.68,.34-.68,.65-1.37,.95-2.07,.26-.61,.51-1.2,.72-1.84,.29-.87,.26-1.74,.41-2.63,.14-.81,.24-1.63,.4-2.44,.18-.86,.12-1.79,.11-2.66s.11-1.72,.14-2.57c.03-1.04-.02-2.07-.1-3.11-.06-.72-.29-1.39-.43-2.1-.18-.97-.03-1.98-.11-2.96-.05-.71,.03-1.43,.07-2.14,.06-.85,.17-1.71,.39-2.54,.18-.7,.37-1.39,.51-2.1,.11-.59,.15-1.18,.26-1.78s.25-1.28,.48-1.86c.25-.63,.61-1.22,.88-1.85,.4-.93,.85-1.86,1.52-2.66,.46-.54,.96-.95,1.55-1.35,.34-.23,.84-.52,1.26-.56,.07,.18-.04,.35-.13,.51-.19,.34-.43,.66-.63,1-.49,.82-1.14,1.54-1.62,2.37-.4,.7-.77,1.37-1.07,2.11-.34,.83-.68,1.69-.91,2.55-.12,.46-.26,.92-.35,1.39s-.26,.85-.31,1.3c-.11,.93-.23,1.86-.3,2.79-.06,.74-.06,1.47-.12,2.21s-.1,1.59-.02,2.34c.09,.8,.16,1.6,.27,2.4s.21,1.58,.26,2.37c.05,.89,.2,1.78,.26,2.68,.06,.97,.12,1.94,.05,2.92-.1,1.32-.35,2.65-.6,3.96-.13,.66-.32,1.31-.51,1.96-.1,.34-.17,.7-.29,1.04s-.25,.63-.32,.98c-.15,.7-.43,1.36-.65,2.04-.2,.61-.54,1.11-.83,1.68-.27,.54-.56,1.05-.88,1.57-.26,.42-.62,.84-.78,1.29-.27,.81-.61,1.59-.87,2.41-.32,1.01-.39,2.12-.28,3.17,.13,1.27,.15,2.62,.79,3.78,.52,.94,1.07,2.1,1.93,2.83,.44,.37,.94,.67,1.46,.94,.4,.21,.71,.48,1.17,.59,.53,.12,1.05,.21,1.6,.17s1.12,.02,1.68,0c1.64-.09,3.16-1.15,4.28-2.21,.28-.27,.59-.51,.85-.81,.33-.38,.55-.83,.84-1.24,.23-.33,.45-.66,.65-1,.28-.47,.59-.92,.83-1.41,.44-.9,.88-1.8,1.17-2.74,.16-.53,.33-1.05,.56-1.56,.26-.57,.34-1.19,.46-1.79,.2-1.05,.3-2.08,.7-3.09s.91-2.01,1.31-3.04c.14-.36,.23-.72,.42-1.06,.13-.23,.22-.44,.29-.7,.1-.38,.21-.75,.34-1.12s.17-.75,.27-1.13c.09-.32,.26-.62,.39-.93,.14-.33,.2-.68,.32-1.01,.22-.59,.42-1.17,.62-1.77,.14-.4,.34-.76,.51-1.16,.15-.37,.23-.76,.37-1.13,.28-.74,.59-1.45,.83-2.21,.21-.67,.38-1.35,.6-2.02,.2-.6,.42-1.19,.61-1.79,.22-.67,.3-1.36,.58-2.01s.52-1.37,.81-2.04c.2-.47,.38-.96,.55-1.44,.1-.3,.2-.6,.32-.9s.32-.54,.43-.83c.32-.85,.66-1.75,.84-2.64,.07-.33,.07-.67,.11-1.01,.06-.53,.24-1.02,.26-1.56,.02-.72,.25-1.44,.28-2.16,.02-.36-.08-.76-.2-1.1-.09-.26-.24-.57-.25-.84,0,.02,0,.05-.05,.03Z"/><path d="M118.1,148.66c.82-.66,1.61-1.34,2.38-2.06-.39-.35-.13-1.5-.19-2.02-.1-.82-.29-1.65-.76-2.36-.63-.96-1.71-1.83-2.09-2.91s.44-1.55,.97-2.41c.47-.76,1.07-1.43,1.52-2.19,.52-.88,.96-1.8,1.21-2.8,.17-.7,.19-1.42,.2-2.13,0-.48-.08-1.49,.26-1.92,.36-.47,1.63-.44,2.21-.49,.74-.06,1.54-.21,2.27-.07,.83,.16,1.58,.63,2.43,.69,1.28,.08,2.57,.02,3.85,.23,.54,.09,1.06,.22,1.6,.31,1.47,.25,2.96,.55,4.34,1.07,4.74,1.77,9.7,2.6,14.82,2.7,1.39,.03,2.8-.04,4.18-.21,2.09-.26,3.86-.84,5.58-1.95,1.44-.92,2.52-1.99,3.07-3.57s.85-3.53,.89-5.22c.07-3.58-3.26-5.77-6.33-7.35-2.31-1.19-4.66-1.31-7.26-1.28-3.21,.04-6.31,1.09-9.5,1.42-2.17,.23-4.34,.37-6.52,.31-2-.06-4-.41-6-.4s-4.16-.02-6.24-.08c-2.46-.07-4.99,.7-7.31,1.41-1.86,.56-3.79,1.42-5.4,2.46-1.84,1.19-3.47,2.61-5.23,3.89-1.34,.98-2.62,2.04-3.92,3.05-.92,.72-1.97,1.16-2.91,1.87-1.17,.89-2.71,2.1-3.26,3.46-.5,1.24,.06,2.85,.42,4.07,.47,1.58,.74,3.25,.72,4.89-.01,.81,.08,1.6,.03,2.41s-.25,1.58-.15,2.41c.23,1.9,2.6,1.02,3.48,.05,1.39-1.55,1.84-3.99,1.77-5.97-.05-1.34-.35-2.85-.12-4.18,.12-.68,.72-1.75,1.6-.96,.75,.68,.32,1.66,.17,2.45-.24,1.28-.46,2.55-.77,3.82-.34,1.37-.6,2.86-.52,4.25,.12,2.08,.35,4.48,1.95,6.09,1.27,1.28,3.25,1.47,4.23-.22,1.28-2.18-.06-5.13-.49-7.35-.37-1.91-.13-3.93,.54-5.77,.3-.8,1.45-2.28,2.49-1.32,.37,.35,.4,1.33,.34,1.82-.1,.78-.48,1.49-.78,2.2-1.17,2.72-.31,6.17,2.4,7.73,.82,.47,1.75,.48,2.63,.79,.81,.29,.8,1.04,1.71,1.03s1.21-.68-.51,.29Z"/><path class="g" d="M155.34,113.46c-1.15,.04-2.23,.1-3.36,.2-.43,.04-.88,.03-1.3,.14-.73,.19-1.48,.3-2.21,.49-.58,.15-1.1,.41-1.67,.57-.48,.13-1,.13-1.49,.21-.65,.11-1.28,.13-1.94,.13-1.08,.01-2.13,.22-3.21,.2-.82-.02-1.6,.05-2.41,.08s-1.63-.08-2.41-.15c-1.46-.13-2.94-.25-4.41-.38-1.37-.12-2.75-.04-4.12-.14-1.49-.11-3.03-.07-4.51,.13-.66,.09-1.41,.16-2.04,.33s-1.22,.38-1.84,.56-1.25,.38-1.88,.59c-.52,.17-1,.46-1.49,.7-.94,.47-1.85,1.04-2.66,1.68-1.65,1.31-3.35,2.55-5.09,3.76-.99,.69-1.92,1.46-2.9,2.16-.81,.58-1.62,1.2-2.36,1.85-.85,.75-1.69,1.5-2.52,2.28-.63,.59-1.18,1.31-1.32,2.15-.08,.46-.1,.92-.05,1.39,.05,.52,.25,1.01,.33,1.53,.16,1.04,.22,2.05,.46,3.08,.13,.55,.13,1.11,.15,1.67,.02,.52,.07,1.06,.02,1.58s-.16,1-.25,1.5c-.07,.42-.25,.93-.2,1.36,.06,.58,.76,1.05,1.31,.68,.7-.48,1.21-1.18,1.51-1.92,.17-.43,.19-.89,.19-1.35,0-.53,.05-1.07,.01-1.6-.08-.97-.3-1.92-.35-2.89-.07-1.31-.03-2.6,.8-3.74,.56-.76,1.63-1.03,2.58-.89,1.01,.15,1.84,.95,2.01,1.89,.09,.5-.06,1.1-.2,1.58-.22,.73-.47,1.46-.73,2.18-.7,1.9-.7,4.08-.58,6.06,.09,1.4,.16,2.96,.54,4.31,.17,.61,1.47,2.4,2.18,2.42,1.3,.04,1.02-2.31,.9-3.28-.1-.77-.3-1.52-.5-2.27-.27-1.02-.72-1.94-.8-2.99-.08-.98,0-1.92,.27-2.87,.25-.86,.79-1.6,1.27-2.36,.43-.67,.66-.65,1.25-1.21,.55-.52,1.35-1.59,2.12-1.26,1.42,.63,.24,2.47,.08,3.6-.25,1.84,.26,3.61,.63,5.47,.07,.37,.08,.82,.24,1.16,.1,.2,.27,.49,.4,.68,.16,.25,.54,.58,.8,.74,.61,.4,1.48,1.15,2.04,1.22,.95,.13,2.11,.27,2.43-.51,.43-1.04-.4-2.92-.95-3.83-.33-.55-.44-1.08-.8-1.62-.24-.35-.23-.84-.43-1.21-.25-.49-.18-.65-.35-1.16-.1-.32,.23-1.11,.35-1.43,.18-.45,.37-.73,.7-1.09,.7-.76,1.05-1.34,1.72-2.13,.77-.91,.83-2.17,1.44-3.18,.32-.53,.48-1.16,.75-1.72,.09-.19,.1-.4,.17-.59,.1-.27,.27-.45,.47-.66,.46-.49,.86-.89,1.6-.98,.45-.05,.88-.03,1.33-.01,.74,.03,1.43,.32,2.17,.36,.91,.05,1.8,.21,2.71,.2,1.18-.01,2.3,.29,3.48,.38s2.27,.45,3.43,.66c.6,.11,1.08,.27,1.65,.45,.69,.22,1.42,.35,2.13,.52,1.53,.39,3.1,.77,4.65,1.07,.68,.13,1.39,.08,2.07,.23,1.05,.24,2.06,.52,3.15,.58s2.06-.16,3.1-.1c.7,.04,1.31,.09,2.02,.04,.44-.03,.88,.01,1.32,0,.84-.03,1.78-.1,2.6-.26,.65-.13,1.11-.47,1.68-.76,.45-.23,.93-.49,1.42-.66,.21-.08,.44-.19,.64-.07,.52,.32-.11,.95-.37,1.18-.61,.55-1.4,.82-2.19,1.1-.52,.19-.99,.46-1.53,.63-.68,.21-1.35,.32-2.06,.35-.4,.02-.81,.01-1.21,.05s-.78,.15-1.2,.13c-.96-.05-1.95-.08-2.91-.1-1.15-.01-2.26-.17-3.4-.24-.41-.03-.83,0-1.25-.05-.56-.06-1.13-.2-1.69-.29-.92-.14-1.84-.23-2.73-.5s-1.87-.47-2.76-.8-1.74-.6-2.63-.87c-.46-.14-.94-.28-1.42-.37-.71-.13-1.42-.32-2.14-.43-1.1-.16-2.2-.33-3.29-.56-.74-.16-1.5-.32-2.26-.32s-1.47-.24-2.2-.31c-.48-.04-.96-.06-1.44-.11-.58-.06-1.27-.13-1.75,.24-.54,.42-.67,1.26-.85,1.86-.11,.37-.16,.75-.24,1.12-.05,.25-.22,.44-.32,.67-.13,.29-.3,.77-.43,1.07-.44,1.02-.5,1.41-1.04,2.23-.36,.55-.91,1.14-1.21,1.72-.38,.74-.62,1.39-.45,2.16,.28,1.26,.72,2.5,1.23,3.7,.21,.49,.53,.92,.73,1.41,.15,.36,.19,.77,.23,1.16,.09,.88-.15,1.83-.77,2.52-.3,.33-.73,.7-1.22,.74-.55,.04-1.09-.13-1.57-.33-.59-.25-1.77-.37-2.24-.8s-.84-.65-1.29-1.07c-.56-.53-1.12-1.03-1.58-1.63-.39-.51-.09-1.16-.31-1.74-.41-1.05-.47-2.22-.56-3.32-.03-.39-.03-.78-.02-1.17,0-.16-.04-.34,.02-.48-.37,.24-.53,.6-.74,.95-.33,.55-.63,1.07-.77,1.7-.16,.72-.18,1.44-.18,2.17,0,.91,.29,1.78,.45,2.67s.15,1.83,.27,2.74c.1,.71,.29,1.4,.07,2.11s-.62,1.21-1.4,1.48c-.89,.29-1.59-.36-2.18-.93-.8-.76-1.99-1.66-2.29-2.68-.16-.56-.1-1.26-.27-1.82-.2-.67-.15-1.34-.25-2.02-.4-2.87,.17-5.77,.53-8.62,.08-.62,.13-1.29,.02-1.9-.07-.42-.19-.85-.62-.34-.29,.34-.31,.96-.38,1.38-.11,.65-.05,1.33-.03,1.98,.02,.57-.03,1.22-.13,1.78-.11,.64-.12,1.27-.17,1.91-.08,.98-.24,1.92-.74,2.79-.39,.67-.82,1.34-1.26,1.99-.14,.2-.37,.52-.64,.57-.3,.06-.79-.04-1.1-.11-.97-.19-1.61-1.2-1.62-2.08,0-.44,.12-.87,.18-1.31,.09-.71,.05-1.38,.04-2.09-.02-1.23-.05-2.39-.22-3.61-.27-1.98-.74-3.95-.51-5.95,.11-.93,.98-1.66,1.63-2.3,1.13-1.12,2.34-2.18,3.5-3.27,.47-.44,.92-.92,1.43-1.32,.74-.59,1.53-1.12,2.27-1.71,1.5-1.19,3.05-2.25,4.69-3.25,.74-.45,1.54-.82,2.29-1.25,.89-.51,1.82-.92,2.75-1.37,1.2-.58,2.44-.94,3.73-1.33,.81-.24,1.56-.52,2.37-.75,.62-.18,1.24-.23,1.86-.36,.54-.1,1.15-.08,1.7-.11,.64-.04,1.25-.03,1.89-.01,1.98,.08,3.95,.2,5.92,.38,.45,.04,.91,.05,1.36,.09,.51,.04,1,.16,1.52,.17,.97,0,1.92-.1,2.88-.05s1.88-.1,2.82-.03c.33,.02,.6-.02,.93-.04,.52-.04,1,0,1.52-.09,.76-.13,1.5-.38,2.27-.45,.7-.07,1.39-.11,2.09-.21,.83-.11,1.64-.29,2.47-.39,1.19-.15,2.47,.03,3.58,.4,.17,.06,1.29,.41,.91,.41Z"/><path class="g" d="M160.6,116.77c-.58,.56-1.13,1.13-1.53,1.82-.22,.38-.41,.8-.67,1.16-.45,.62-.83,1.29-1.29,1.91-.52,.7-1.18,1.3-1.98,1.72-.57,.3-1.16,.49-1.78,.71-.33,.12-.64,.23-.98,.29-.37,.07-.72,.04-1.09,.05-.63,.01-1.19,0-1.81-.14-.74-.18-1.46-.32-2.17-.59-.39-.15-.79-.24-1.18-.38-.36-.14-.68-.36-1.01-.54-.59-.32-1.14-.65-1.7-1.02-.55-.37-1.19-.61-1.79-.91-.74-.37-1.57-.71-2.41-.86-.59-.11-1.18-.05-1.77-.03-.51,.02-1.21-.05-1.68,.15,.23,.1,.59,.05,.84,.09,.33,.06,.65,.17,.98,.22,.31,.05,.6,.06,.89,.19,.23,.09,.42,.2,.66,.28,.75,.24,1.32,.67,2,1.03,.26,.14,.55,.24,.79,.4,.33,.22,.65,.44,.98,.66,.56,.35,1.16,.59,1.76,.88,.67,.33,1.4,.59,2.1,.87,.53,.22,1.09,.37,1.65,.5,.61,.14,1.19,.17,1.82,.19,.32,.01,.62,.1,.93,.15s.6,.01,.92,0c.7-.05,1.41-.05,2.09-.27,1.09-.35,2.14-.87,2.95-1.64,.21-.2,.45-.39,.63-.62,.16-.2,.22-.44,.34-.66,.09-.17,.22-.32,.32-.48,.17-.27,.22-.58,.32-.87,.18-.5,.26-1,.43-1.5,.12-.33,.28-.64,.42-.97,.16-.38,.41-.73,.64-1.08,.11-.16,.25-.32,.42-.44,0,.02,0,.03-.03-.23Z"/><path class="g" d="M105.37,127.39c-.41,.27-.79,.57-1.13,.92-.14,.06-.19,.16-.17,.29-.04,.11-.07,.24-.09,.35-.09,.41,.15,.73,.41,1.03,.13,.15,.27,.34,.47,.4s.44-.02,.63,.04c-.45,.24-.99,.25-1.5,.2-.43-.04-.99-.17-1.24-.54-.21-.31-.12-.85,0-1.17,.26-.73,.89-1.14,1.6-1.46,.23-.1,.47-.12,.71-.19,.12-.04,.22-.1,.35-.08,.03,.02,.03,.04-.03,.21Z"/><path class="g" d="M108.92,130.52l-.45,1.03c-.13,.15-.18,.31-.15,.48,0,.15,.05,.3,.08,.44,.09,.42,.26,.71,.54,1.05,.17,.2,.3,.42,.59,.48,.24,.05,.48-.04,.72,0,.02,.36-.93,.38-1.16,.34-.58-.1-1.24-.89-1.28-1.44-.05-.58,.27-1.14,.57-1.62,.2-.32,.47-.62,.54-.76Z"/><path class="g" d="M114.22,132.76c-.1,.39-.13,.79-.08,1.19,.08,.08,.16,.16,.23,.25,.14,.15,.3,.33,.47,.46,.36,.28,.84,.29,1.28,.15,.38-.12,.94-.34,1.18-.65,.16-.21,.24-.5,.33-.74-.22,.31-.27,.71-.44,1.06-.17,.36-.44,.78-.84,.96-.66,.3-1.47,.07-1.96-.4-.44-.42-.9-.8-.67-1.44,.08-.21,.16-.42,.31-.6,.07-.09,.16-.24,.19-.24Z"/><path class="g" d="M117.74,144.8c-.37-.53-.84-.96-1.4-1.3-.15,0-.29,.04-.42,.1-.2,.07-.42,.15-.57,.3-.27,.26-.3,.8-.11,1.11,.2,.32,.58,.63,.89,.87,.28,.22,.69,.36,1.06,.33s.87-.35,.83-.74c-.03-.25-.49-.64-.27-.66Z"/><path class="g" d="M107.96,147.75c-.14-.39-.35-.75-.64-1.06-.26,.16-.52,.14-.75,.37-.27,.26-.29,.55-.09,.87,.07,.11,.17,.19,.25,.3,.09,.13,.12,.27,.23,.4,.24,.27,.43,.31,.75,.17,.18-.08,.4-.25,.48-.44,.11-.25-.04-.47-.14-.7s-.18-.47-.33-.67c-.06-.08-.21-.16,.24,.77Z"/><path class="g" d="M100.83,140.33c-.42,.06-1.05,.02-1.23,.45-.05,.12-.12,.23-.19,.35-.2,.35-.16,.63-.24,.99-.05,.21-.08,.46,.13,.63s.45,.03,.64-.08c.56-.34,1.07-.8,1.02-1.47-.02-.18,0-.98-.13-.87Z"/></g></g></g></g></svg>