<?xml version="1.0" encoding="UTF-8"?><svg xmlns="http://www.w3.org/2000/svg" xmlns:xlink="http://www.w3.org/1999/xlink" viewBox="0 0 154.9 154.9"><defs><style>.e,.f,.g,.h{fill:#fff;}.i,.f{stroke:#000;}.i,.f,.g,.j,.k,.l{stroke-miterlimit:10;stroke-width:.5px;}.g,.j,.k,.l{stroke:#fff;}.h{opacity:.94;}.j{opacity:.81;}.m{clip-path:url(#d);}.n{fill:none;}.l{opacity:.87;}</style><clipPath id="d"><circle class="n" cx="77.45" cy="77.45" r="77.45"/></clipPath></defs><g id="a"/><g id="b"><g id="c"><g class="m"><circle class="e" cx="77.45" cy="77.45" r="77.45"/><g><path d="M61.92,27.98c-2.99-.77-4.38-4.1-5.56-6.96-1.18-2.85-3.22-6.06-6.3-5.98-1.95,.05-3.65,1.52-4.51,3.27-.87,1.75-1.06,3.75-1.21,5.69-2.24,29.56,3.37,59.08,8.96,88.19,.12,.61,1.51,1.41,1.9,1.9,1.06,1.34,4.11,1.45,3.58-5.69l-5.06-67.44c-.14-1.85,.08-4.24,1.85-4.77,2.42-.72,3.72,2.82,5.85,4.17,2.11,1.32,5.18,.08,6.25-2.17,1.07-2.25,.42-5.04-1.09-7.02-1.52-1.98-3.76-3.27-4.65-3.2Z"/><path d="M59.04,112.43c.11-1.98,.17-4.29-1.53-5.32-1.62-.97-3.85,.04-4.85,1.64-1,1.61-1.11,3.6-1.18,5.49l-2.9,72.89c-.07,1.82-.13,3.72,.59,5.39,.73,1.67,2.48,3.05,4.28,2.72,1.43-.27,2.5-1.54,2.95-2.92,.45-1.38,.41-2.86,.36-4.32-.8-24.56,2.23-70.5,2.02-68.95"/><path d="M37.69,262.05c4.64-24.25,12.83-47.81,24.24-69.71l.88,2.52,.45-2.66,.33,1.84c2.19-8.07,6.45-15.57,12.25-21.6,2.45-2.55,5.21-4.87,7.05-7.89s2.62-7.01,.83-10.06c-1.75-2.98-5.52-4.29-8.97-4.06-3.45,.22-6.68,1.7-9.81,3.15-.18,5.16-2.49,9.98-4.67,14.66-12.89,27.7-22.73,56.81-29.29,86.65-.42,1.89-.82,3.84-.44,5.74,.38,1.9,1.74,3.73,3.64,4.05s4.03-1.51,3.51-2.64Z"/><path class="f" d="M77.44,171.47c2.5-1.84,4.9-3.93,6.45-6.61,1.55-2.68,2.15-6.08,.92-8.92-1.31-3.03-4.45-4.95-7.66-5.73-3.91-.95-8.48-.32-11.2,2.65-1.46,1.6-2.25,3.68-3.01,5.71l-11.53,30.97,1.54-1.03-.26,2.75,1.72-1.46-.16,2.94,1.58-1.75,.61,2.7,1.86-2.71,.19,2.37,1.81-2.92,.12,2.13,1.12-2.68c-.11,1.62,.47,3.28,1.58,4.47,3.35-8.91,7.8-18.03,14.32-22.85Z"/><path class="f" d="M84.3,213.71l15.58-35.11c2.31-5.21,4.65-10.49,5.45-16.16,.27-1.9,.14-4.01-1.1-5.47-2.51-2.97-3.01-3.49-6.68-3.76-3.47-.25-6.85,1.31-8.83,4.16-2.9,4.19-4.73,9.02-6.53,13.79l-11.7,31.04,3.17-2.67-1.15,7.73,5.88-6.81-1.32,7.98,3.37-3.96-1.21,4.42,3.57-3.91-.45,5.04,2.49-3.45c-.1,2.41-.21,4.82-.54,7.13Z"/><path class="g" d="M104.69,148.45c.33-1.33,.54-3.01-.56-3.81-1.27-.92-2.78,1.42-4.06,2.32-4.3,3.06-10.41,5.05-15.69,5.07s-10.92-1.34-15.95-2.94c-1.4-.44-2.16-2.62-3.19-1.57-.83,.85-.7,2.3-.1,3.33,.6,1.03,1.57,1.78,2.4,2.64,2.02,2.11,3.19,4.88,4.23,7.61,1.04,2.73,2.02,5.54,3.76,7.88,1.74,2.35,4.43,4.2,7.35,4.14,2.97-.06,5.54-2.02,7.78-3.98s4.55-4.1,7.47-4.67c1.42-.28,2.9-.16,4.34-.36,1.44-.2,2.94-.83,3.62-2.11,.5-.96,.45-2.11,.39-3.19l-.5-8.54c-.06-1.06-.5-2.47-1.28-1.83Z"/><path class="f" d="M93.88,45.99c-3.02-10.03-4.25-20.59-3.62-31.05l-6.77,4.11c-4.35,2.64-8.81,5.32-13.8,6.28s-10.7-.12-13.98-4c4.5,8.33-.43,18.5-.09,27.96,.46,12.78,10.4,23.07,14.6,35.16,3.49,10.06,4.54,20.83-.32,30.21-.62,1.19-1.04,2.45-1.89,3.64-.24,.34-3.98,4.16-3.98,4.16,0,0,2.35-1.15,2.85-1.15,.38,0-1.52,2.54-1.52,2.54,0,0,2.42-1.23,2.36-1.02-2.36,8.7-7.38,17.22-2.28,23.49,7.38,4.61,16.55,6.08,25.1,4.5,4.39-.81,8.84-2.53,11.72-5.94,2.88-3.42,3.7-8.83,.94-12.35l1.87,.15c-1.48-14.77-.89-29.67-1.78-44.48-.89-14.82-8.88-40.4-9.4-42.22Z"/><path d="M89.88,29.67c1.16,1.28,2.54,2.34,3.73,3.6,1.18,1.26,2.19,2.8,2.32,4.52l-2.85-3.84c.85,1.88,1.39,3.91,1.57,5.96-.46-1.29-1.13-2.5-1.98-3.57,.68,1.24,1.13,2.6,1.33,4-1.56-1.18-2.32-3.13-2.73-5.04-.41-1.91-.55-3.88-1.39-5.63Z"/><path class="k" d="M88.31,16.71c.44-.76,.91-1.56,1.65-2.04,.74-.48,1.83-.54,2.43,.11,.47,.52,.49,1.33,.29,2.01-.02-.27-.37-.41-.62-.32s-.42,.33-.57,.55c-1.92,3.03-2.24,7.02-.82,10.33,.6,1.4,1.48,2.67,2.01,4.09,.52,1.43,.63,3.14-.26,4.37,.14-3.08-1.91-5.77-2.94-8.68-1.18-3.34-1.02-6.98-1.16-10.44Z"/><path d="M90.9,40c-.28,.74,.03,1.56,.35,2.28s.69,1.49,.53,2.26c.06-.89,.12-1.81-.18-2.65-.25-.69-.73-1.32-.69-1.89Z"/><path d="M91.18,39c-.54-1.26-1.89-2.13-3.27-2.09-1.37,.04-2.67,.98-3.14,2.27,.78-.49,1.56-.99,2.44-1.26,.88-.27,1.88-.27,2.67,.19,.42,.25,.84,.63,1.29,.88Z"/><path d="M91.27,38.49c-.61-.53-1.09-1.19-1.57-1.84s-.99-1.29-1.66-1.76c-.66-.46-1.51-.72-2.29-.51,.8-.06,1.57,.36,2.15,.91s1.02,1.23,1.53,1.85c.51,.62,1.12,1.2,1.84,1.34Z"/><path d="M91.8,39.52c-.96-.57-2.23-.56-3.18,.01s-1.55,1.7-1.48,2.81c.5-.87,1.08-1.72,1.91-2.28,.83-.56,1.96-.77,2.76-.54Z"/><path d="M72.55,86.07c1.05,.65,2.29,.99,3.53,.96,.39,0,.84-.08,1.06-.41-1.53,.27-3.16-.06-4.46-.9-.15,.16-.13,.44-.13,.34Z"/><path d="M72.07,91.5c.61,.53,1.12,1.16,1.7,1.73,.58,.56,1.24,1.08,2.01,1.31s1.68,.13,2.28-.41c-2.34-.6-4.48-1.93-5.99-2.62Z"/><path d="M73.57,95.29c1.22,2.27,3.33,4.06,5.78,4.88-2.83-.52-5.35-2.53-6.48-5.17,.31-.06,.62,.14,.7,.29Z"/><path d="M96.58,65.11c.35,6.88-2.84,13.84-8.28,18.06-2.25,1.75-5.02,3.08-7.85,2.76,4.61-1,8.55-4.16,11.21-8.05,2.66-3.89,4.14-8.48,4.92-12.77Z"/><path d="M97.48,73.46c-.76,6.98-4.99,13.5-11.06,17.03-1.01,.59-2.2,1.11-3.3,.74,3.88-.81,7.12-3.58,9.35-6.85,2.23-3.27,3.59-7.05,5.01-10.92Z"/><path d="M98.63,82.08c-1.4,5.38-5.61,9.5-9.64,13.33,5.7-2.11,9.83-7.91,9.96-13.99-.21,.52-.42,1.05-.32,.66Z"/><path class="e" d="M102.69,129.88l-5.39-4.63-23.55-7.11-4.25-1.87-1.84,2.52-3.95,3.76c1.55-.34,2.98-1.18,4.02-2.37-.78,1.56-1.84,2.97-3.11,4.17,2.16-1.91,5.1-2.78,7.99-2.89,2.89-.11,5.75,.48,8.55,1.17,4.82,1.19,9.68,2.77,13.52,5.91-.23-.29-.47-.6-.51-.96s.22-.79,.59-.78c.36,.01,.57,.39,.72,.71l1.26,2.78c-.54-.07-.32-1.03,.22-1.08,.54-.06,.98,.4,1.33,.81l1.26,1.49-.17-1.38c1.52,1.47,3.59,2.36,5.7,2.39l-2.39-2.65Z"/><path class="i" d="M67.72,122.85c-.95,4.17-2.78,7.7-3.67,11.88-.89,4.18-.56,9,2.42,12.07,2.1,2.16,5.13,3.09,8.06,3.81,4.58,1.12,9.36,1.92,14.01,1.1,4.56-.81,8.68-3.12,12.71-5.4,.92-.52,1.89-1.09,2.35-2.05,.36-.74,.9-1.95,1.13-2.73,.67-2.31,.26-3.56-.07-5.87-.15-1.07-1-2.13-1.46-3.11-.62-1.31-1.86-2.24-3.11-2.97-6.79-3.96-14.29-6.69-22.04-8.01-3.65-.62-7.91-.42-10.33,1.28Z"/><path d="M104.27,161.19c.24-.25,.17-.68-.05-.95s-.54-.43-.85-.59c-2.15-1.15-3.89-3.07-4.81-5.33-.5,.53-.27,1.4,.07,2.05,1.09,2.07,2.93,3.73,5.11,4.59,.18,.07,.38,.14,.57,.09s.34-.27-.05,.15Z"/><path d="M105.21,163.11c.69-.17,1.17-.83,1.34-1.52,.16-.69,.06-1.42-.06-2.12-.51-3.01-1.3-6.12-.46-9.05,.14-.48,.31-.97,.21-1.46s-.66-.91-1.09-.67c.49-.3,.46-1.04,.19-1.54s-.72-.9-.94-1.43c-.09-.21-.13-.43-.26-.62-.3-.47-1.07-.53-1.46-.13-.39,.4-.31,1.15,.14,1.48,.51,.37,1.32,.26,1.68,.77,.33,.47,.01,1.17-.49,1.45s-1.11,.29-1.68,.34c-2.02,.17-3.98,1.01-5.49,2.36,2.29-.77,4.65-1.32,7.05-1.65,.49-.07,1.08-.09,1.4,.29,.39,.46,.11,1.16-.12,1.72-.49,1.21-.66,2.55-.48,3.84,.19,1.38,.76,2.69,1.05,4.06,.29,1.37,.24,2.92-.5,3.89Z"/><path d="M94.63,150.75c-4.68,1.68-9.69,2.46-14.66,2.27,2.54,.46,5.12,.91,7.69,.73s5.2-1.08,6.97-3Z"/><path d="M99.14,152.63c-9.19,2.56-19.02,2.64-28.31,.5,.9,1.01,2.32,1.35,3.66,1.58,6.71,1.16,13.63,1.14,20.33-.06,1.6-.29,3.34-.74,4.33-2.02Z"/><path class="e" d="M71.28,136.74c-.63-.51-.2-1.1,.27-2.17,.53-1.18,1.46-.87,2.28-.43s.35,.95-.09,1.78c-.37,.7-1.29,1.77-2.47,.82Z"/><path class="e" d="M70.7,137.15c.17,.35,.54,.58,.92,.64s.78-.03,1.14-.17c.87-.35,1.58-1.07,1.94-1.94-.19,1.25-1.26,2.31-2.51,2.48-.36,.05-.74,.03-1.05-.15s-.55-.53-.44-.87Z"/><path d="M75.2,151.87c-2.97,.29-6.03-.42-8.57-2,1.21,1.09,2.58,2.05,4.14,2.51,1.56,.46,3.35,.36,4.43-.51Z"/><path d="M69.58,152.73c-.79-.4-1.53-.92-2.17-1.54-.01,.91,.66,1.78,1.54,2,.15,.04,.31,.06,.46,0s.27-.19,.26-.35-.2-.28-.09-.12Z"/><path d="M70.87,149.98c-1.15-.56-2.32-1.07-3.51-1.53-.45-.18-.96-.35-1.4-.16-.46,.2-.7,.74-.67,1.24,.03,.5,.27,.96,.54,1.38,1.41,2.21,3.72,3.82,6.29,4.38-1.21,.32-2.52-.04-3.58-.69-1.07-.65-1.94-1.57-2.79-2.49-.61-.65-1.25-1.35-1.43-2.22s.29-1.95,1.17-2.08c-.57-.34-.58-1.31-.02-1.66,.75,1.28,2.18,1.98,3.56,2.52,1.38,.55,2.84,1.05,3.87,2.12-.74-.31-1.51-.56-2.02-.81Z"/><path d="M92.46,15.78c-2.59,.84-5.11,2.12-6.97,4.11-1.86,1.99-2.98,4.79-2.52,7.48,.46,2.69,2.74,5.09,5.46,5.26,2.29,.15,4.58-1.19,6.81-.63,3.21,.8,4.21,4.79,4.62,8.07,2.97,24.31,5.32,47.85,6.12,72.33,.07,2.28,1.56,4.5,3.31,4.44,1.86-.07,2.94-1.6,2.94-4.25,0-31.63,.33-60.89-5.46-91.98-.42-2.25-.96-4.67-2.73-6.12-1.64-1.35-4.01-1.5-6.05-.93-2.04,.57-3.87,1.69-5.52,2.22Z"/><path d="M112.14,111.41c-.1-1.42-.34-3.96-3.43-3.96-2.62,0-2.75,2.93-2.74,3.79,.18,25.01,1.73,49.53,1.91,74.54,.01,1.98,.05,4.04,.94,5.81,.89,1.77,2.91,3.14,4.82,2.61,2.85-.79,3.23-4.62,3.03-7.57-1.72-25.33-2.48-45.08-4.52-75.23Z"/><path class="k" d="M53.9,124.24l3.21-12.41,1.2,2.97,2.57-14.52,1.15,5.71,3.42-10.26,.67,6.73,.97-11.49,1.53,5.43,2.99-14.33c2.34,.82,5.05-1.89,4.23-4.23-.53-1.52-1.89-3.34-2.8-3.89-.82-.51-.91-5.23-.41-5.23,3.86,0,4.95-2.63,6.44-4.46,1.12-1.38,3.06-1.98,3.88-3.56,.82-1.58,1.66-2.86,.14-3.79-1.44-.88-4.5-1.11-6.12-.56-1.6,.54-2.74,1.48-4.13,2.54,.69-1.96-1.63-5.52-3.3-6.74-9.98-7.32-15.4-6.52-19.94-4.21-5.31,2.69-17.84,13.2-17.84,15.76,1.15-1.32,2.04-2.64,3.79-2.74-.63,1.17-.25,1.88-.12,3.2-1.72-.42-5.08,.22-5.83,1.83-.65,1.41,.05,2.88,1.49,3.46s4.01,.6,4.78,1.95c.76,1.35,1.93,1.64,3.06,2.61-1.29,.93-2.62,1.91-3.44,3.28-.82,1.37-.98,3.26,.03,4.49,1.02,1.23,3.36,1.19,4.87,.05,2.3,7.69,3.86,15.6,4.63,23.59l2.2-4.31,.56,9.29c.92-1.25,1.52-2.75,1.72-4.29l.36,10.51,2.07-2.75c-.25,3.78,.38,7.61,1.83,11.1,.17-.32,.34-.64,.14-.73Z"/><path class="e" d="M82.28,59.67c-.04,.67-.5,1.26-1.03,1.68s-1.15,.71-1.71,1.09c-1.5,1.02-2.49,2.61-3.64,4.01-.28,.35-.59,.69-1,.87s-.95,.13-1.22-.22c-.43-.56,.07-1.39,.69-1.72,.62-.33,1.38-.44,1.9-.92,.81-.74,.82-2.15,1.75-2.72,.37-.23,.82-.27,1.26-.33,.43-.05,.89-.13,1.22-.41s.49-.82,.22-1.16c-.21-.25-.57-.31-.89-.31-1.34,.01-2.57,.76-3.62,1.59-1.05,.84-2.02,1.8-3.23,2.39-.22,.11-.5,.2-.7,.06s-.06-.57,.16-.46l2.54-1.92c1.07-.81,2.17-1.63,3.46-1.98,1.29-.35,2.83-.11,3.83,.46Z"/><path class="e" d="M71.77,68.68c.29-1.66,.24-3.35,.18-5.03l.92,3.18c.07,.23,.14,.48,.1,.72-.04,.3-.24,.56-.49,.74s-.53,.29-.71,.4Z"/><path class="e" d="M39.02,73.56l.77-.05c-.12-2.28-.77-4.54-1.89-6.54,.59,1.62,1.18,3.34,.85,5.04-.06,.28-.14,.55-.12,.83,.01,.28,.14,.58,.4,.7s.63-.03,0,.02Z"/><path class="e" d="M38.02,72.68c.51-1.06,.19-2.38-.55-3.29-.74-.91-1.81-1.49-2.9-1.93-.96-.39-2.03-.69-3.02-.38-.4,.12-.8,.39-.9,.8-.1,.46,.24,.93,.67,1.14s.92,.24,1.39,.32c1.93,.3,3.71,1.44,4.79,3.06-.31-.74-.63-1.49-1.11-2.12s-1.17-1.17-1.96-1.3c-.67-.11-1.36,.07-2.03-.01-.24-.03-.47-.09-.66-.23s-.31-.39-.27-.62c.09-.44,.66-.56,1.1-.55,1.37,.05,2.72,.51,3.83,1.3,.69,.49,1.33,1.28,1.12,2.09-.04,.15-.11,.29-.13,.45-.07,.51,.38,.93,.62,1.26Z"/><path class="e" d="M47.78,80.29l2.28,6.99c.04-.88,.34-1.75,.86-2.46,.72,2.62,1.33,5.26,1.81,7.93-.16-2.13,.46-4.32,1.73-6.04l1.4,7.38c-.1-2.14,.12-4.29,.66-6.36,.12-.46,.35-1,.82-1.05,.53-.05,.86,.57,.92,1.09s0,1.12,.34,1.52c-.49-2.68-.24-5.5,.7-8.06,.97,.68,1.64,1.77,1.83,2.94-.18-.86,.15-1.73,.32-2.6,.18-.86,.16-1.89-.51-2.46-.43-.37-1.04-.45-1.61-.51-2.88-.27-5.79-.14-8.63,.37-1.12,.2-2.29,.5-2.92,1.3Z"/><path class="e" d="M67.32,82.61c-2.41,5.07-4.72,9.46-6.08,14.31-.96-1.31-1.7-3.6-1.61-5.22-1.67,5.74-2.35,11.03-2.66,17.01-1.57-3.01-2.62-5.82-2.4-9.21-1.57,5.3-1.9,10.97-.95,16.42-1.62-6.48-1.7-13.34-.24-19.86-1.55,4.56-1.71,5.84-2.53,9.48-.32-6.56-.15-12.01-2-18.01-.48,2.29-1.28,4.51-2.37,6.57,.39-3.99-.34-8.09-2.07-11.7,1.51,4.26,2.04,8.86,1.54,13.34,1.57-1.88,2.57-4.24,2.83-6.68,1.16,6.3,1.25,12.48,2.03,18.84,0-2.75,1.13-5.33,1.59-8.04-.93,5.88-.36,12,1.64,17.61-.65-4.89-.63-9.86,.06-14.74,.57,2.75,1.76,5.33,3.17,7.76,.47-5.51,.59-9.88,2.21-15.44,.8,1.3,1.2,1.64,2,2.94,1.95-5.15,3.9-10.3,5.84-15.39Z"/><path class="j" d="M58.37,69.18c4.19,.68,8.29,1.94,12.13,3.73,1.33,.62,2.67,1.33,3.65,2.43,.98,1.1,1.55,2.67,1.12,4.07-.55,1.8-2.57,2.81-4.45,2.88-1.89,.07-3.71-.59-5.53-1.07-8.44-2.23-17.36-.86-25.94,.71-1.27,.23-2.77,.41-3.7-.49-.85-.83-.82-2.23-.39-3.34,.97-2.48,3.43-4,5.81-5.18,5.4-2.67,11.48-4.69,17.31-3.74Z"/><path class="e" d="M44.69,73.58c-1.44-.46-3.16,.19-3.95,1.48-.11,.18-.2,.42-.09,.6,.17,.26,.57,.15,.85,0l2.21-1.15c.23-.12,.47-.25,.64-.44s.26-.49,.34-.5Z"/><path class="e" d="M39.84,76.32c-.24-.16-.57-.17-.81-.02-.16,.1-.28,.29-.25,.47,.03,.2,.24,.34,.44,.33s.38-.15,.48-.32,.12-.38,.14-.46Z"/><path class="e" d="M71.71,78.38c.24-.25,.21-.67,.03-.97s-.48-.5-.78-.68c-3.7-2.25-8.12-3.1-12.45-3.11s-8.62,.78-12.87,1.61c-1.76,.34-3.63,.76-4.86,2.06-.32,.34-.57,.93-.2,1.22,.17,.14,.41,.13,.63,.12,4.85-.23,9.66-1.06,14.5-1.43s9.82-.29,14.42,1.27c.37,.13,.77,.26,1.15,.18s.72-.5,.43-.27Z"/><path d="M71.85,45.31c2.64-5.1,7.97-8.71,13.69-9.25-3.27-.92-6.94-.3-9.73,1.64,2.22-4.38,4.55-8.9,8.36-11.99-2.5,.33-4.87,1.55-6.58,3.4,1.81-5.72,5.62-10.78,10.6-14.12-4.57,1.09-8.97,2.87-13.01,5.26,2.65-2.36,5.55-4.43,8.64-6.18-4.47-.06-8.95,1.41-12.53,4.1l7.16-6.91c-6.23,1.78-11.5,6.65-13.77,12.73-.15-1.76,.45-3.53,1.37-5.04,.91-1.52,2.13-2.82,3.34-4.12-4.45,1.94-8.05,5.77-9.7,10.34-.38-2.83,.31-5.8,1.9-8.17-2.39,1.68-3.47,4.66-4.07,7.52-.6,2.86-.9,5.85-2.29,8.42-.89,1.64-2.25,3.18-2.26,5.05-.01,1.51,.91,2.92,2.13,3.82,1.21,.9,2.69,1.38,4.15,1.75,2.65,.67,1.34,1.98,4.02,1.47,2.69-.51,4.36,3.64,5.78,1.29-1.17,1.84,3.08-2.66,2.8-.99Z"/><path class="e" d="M67.52,30.23l6.15-5.35c-1.01,2.33-2.02,4.65-3.04,7,.28-1.75,.78-3.46,1.48-5.08-1.43,1.3-2.97,2.48-4.59,3.43Z"/><path class="e" d="M64.42,30.83c1.04-1.93,1.82-4.01,2.3-6.16-1.62,1.79-3.53,3.32-5.63,4.52,1.66-.77,3.21-1.74,4.63-2.9-.63,1.57-1.11,3.21-1.3,4.54Z"/><path class="k" d="M58.11,60.84c1.64,2.01,2.74,4.59,4.99,5.87,2.05,1.17,4.78,.91,6.65-.52,1.87-1.44,2.82-3.94,2.47-6.27-.34-2.32-1.92-4.42-4.05-5.38s-4.75-.77-6.72,.5c-1.97,1.27-3.22,3.58-3.34,5.8Z"/><path class="l" d="M49.46,62.14c-.6-1.81-1.91-3.39-3.62-4.23-1.71-.84-3.81-.9-5.53-.07-1.72,.83-3,2.55-3.21,4.44-.15,1.34,.22,2.7,.83,3.9,1.01,2,2.9,3.73,5.13,3.81,1.92,.07,3.73-1.12,4.78-2.72,1.06-1.6,2.12-3.63,1.62-5.13Z"/><path class="e" d="M70.72,57.99c-.53-1.04-1.56-1.82-2.71-2.06,.55,.22,.95,.69,1.35,1.11,.4,.43,.87,.85,1.36,.94Z"/><path class="e" d="M67.5,55.44c-1.69-.36-3.49-.38-5.1,.24s-3.01,1.92-3.46,3.59c1.95-2.68,5.41-4.16,8.57-3.83Z"/><path class="e" d="M70.2,61.99c-.88,1.09-2.17,1.91-3.57,1.97,.76,.13,1.56,0,2.24-.37,.67-.37,1.22-.98,1.33-1.6Z"/><path class="e" d="M67.72,64.18c-2.47,.61-5.18,.14-7.3-1.26,1.11,.68,2.26,1.33,3.52,1.65s2.66,.29,3.78-.39Z"/><path class="e" d="M71.41,60.67c.22,2.13-1.13,4.27-3.08,5.16-1.95,.88-4.35,.54-6.08-.7,1.53,1.7,4.22,2.23,6.28,1.23,2.06-1,3.31-3.45,2.88-5.68Z"/><path class="h" d="M71.35,59.78c-.97-1.74-2.76-2.99-4.73-3.29-1.97-.3-4.06,.34-5.5,1.71-.69,.65-1.24,1.45-2.01,1.99-.34,.24-.79,.58-.63,.97,.13,.33,.57,.36,.92,.42,.64,.11,1.19,.49,1.76,.8,1.73,.92,3.81,1.18,5.71,.71,1.9-.47,3.62-1.67,4.49-3.31Z"/><path class="e" d="M48.84,63.5c.22,.04,.45-.14,.5-.36s-.03-.46-.18-.63-.35-.29-.55-.4c-1.27-.68-2.75-.96-4.19-.84-1.44,.12-2.84,.63-4.05,1.41-.74,.48-1.44,1.1-1.76,1.92-.13,.35-.19,.75-.03,1.09,.19,.39,.64,.59,1.08,.63s.87-.05,1.3-.09c.7-.06,1.42,.02,2.12-.06,1.08-.12,2.08-.62,3.03-1.16s1.86-1.15,2.71-1.5Z"/><path d="M69.75,58.24c-.6-.5-1.36-.75-2.11-.95-1.23-.33-2.54-.54-3.77-.2-1.13,.31-2.09,1.06-3.01,1.79l-2.14,1.7c-.18,.14-.37,.31-.37,.54,0,.2,.16,.38,.35,.46s.39,.09,.6,.12c.81,.11,1.56,.48,2.34,.75,2.96,1.01,6.96-.3,8.6-1.75,.15-.13,.33-.36,.29-.59-1.44,1.27-3.3,2.1-5.21,2.34-1.91,.24-3.89-.11-5.6-.98-.23-.12-.5-.31-.45-.57,.03-.16,.16-.27,.28-.37,1.75-1.4,3.63-2.86,5.86-3.06,2.05-.18,4.6,.5,5.1,2.52,0,0-.16-1.23-.76-1.72Z"/><path d="M64.79,58.37c-.19-.33-.62-.48-.99-.39s-.68,.36-.86,.69c-.18,.33-.25,.72-.27,1.09-.03,.51,.03,1.02,.17,1.51,.07,.25,.17,.5,.35,.68,.31,.3,.82,.33,1.21,.14,.39-.19,.66-.56,.83-.96,.32-.77,.26-1.68-.15-2.4-.07-.12-.18-.26-.32-.23-.1,.02-.17,.12-.18,.23s.02,.2,.04,.3c.12,.47,.17,.97,.12,1.45-.02,.26-.07,.52-.22,.74s-.41,.36-.67,.31c-.2-.04-.36-.2-.45-.38s-.13-.39-.16-.59c-.07-.44-.13-.91,.03-1.33,.16-.42,.6-.77,1.04-.67,.11,.03,.23,.08,.34,.05s.18-.2,.13-.23Z"/><path d="M44.89,63.93c.05-.47,.07-.95-.07-1.39s-.49-.86-.95-.94c-.54-.1-1.06,.26-1.39,.7-.48,.62-.71,1.42-.63,2.19,.06,.61,.35,1.26,.92,1.49,.54,.22,1.19,0,1.57-.44,.38-.44,.53-1.04,.51-1.62,0-.12-.03-.26-.14-.3-.16-.07-.31,.14-.35,.31-.08,.31-.1,.64-.21,.94s-.36,.59-.68,.62c-.25,.03-.5-.11-.65-.3s-.24-.44-.28-.69c-.08-.51,0-1.05,.22-1.52,.15-.31,.38-.61,.72-.73s.76,.03,.87,.36c.05,.15,.03,.32,0,.48s-.07,.32-.04,.48,.12,.32,.28,.37,.35-.09,.32-.03Z"/><path d="M49.24,63.34c.19-.09,.28-.31,.25-.52s-.16-.4-.3-.55c-.41-.45-.97-.75-1.54-.97-1.32-.51-2.77-.65-4.16-.4-1.39,.25-2.71,.88-3.77,1.8-.62,.54-1.17,1.2-1.46,1.97-.11,.29-.19,.6-.15,.92s.19,.62,.46,.78c.39,.23,.88,.11,1.34,.05,1.11-.14,2.23,.18,3.34,.06,1.06-.11,2.03-.61,2.93-1.16,.9-.56,1.71-1.08,2.61-1.64,.08-.05,.41-.31,.41-.31,0,0-.14,.02-.48,.15-1.14,.44-1.97,1-3.04,1.59s-2.27,1.04-3.49,.94c-.79-.06-1.58-.36-2.36-.21-.33,.06-.71,.19-.95-.04-.26-.23-.15-.66,.02-.97,.58-1.11,1.57-1.99,2.69-2.53,1.13-.55,2.4-.77,3.65-.76,.78,0,1.56,.1,2.29,.37s1.23,.45,1.71,1.06c0,0,.18,.25,0,.38Z"/><path class="e" d="M49.04,61.75c-1.35-1.73-3.64-2.69-5.82-2.45-2.19,.24-4.2,1.68-5.14,3.67-.25,.54-.44,1.12-.45,1.71,0,.09,.01,.19,.09,.24,.13,.07,.25-.1,.29-.24,.31-.92,.75-1.8,1.37-2.55,.62-.75,1.42-1.36,2.33-1.67,1.34-.47,2.83-.28,4.21,.05,1.11,.27,2.24,.65,3.11,1.25Z"/><path class="e" d="M42.47,58.84c-2.02,.19-3.9,1.5-4.76,3.33,.22-1.07,.87-2.05,1.77-2.68,.9-.63,2.05-.89,2.99-.65Z"/><path class="e" d="M49.15,63.67c-.57,.07-1.05,.46-1.5,.82-.73,.58-1.51,1.12-2.35,1.53-.84,.41-1.76,.68-2.7,.7-1.05,.03-2.09-.25-3.13-.14-.04,.04-.02,.11,.03,.15s.1,.04,.16,.05l1.36,.17c.89,.11,1.79,.23,2.67,.08,1.19-.19,2.27-.85,3.2-1.62,.74-.61,1.41-1.32,2.27-1.75Z"/><path class="e" d="M48.98,64.11c-.22-.02-.43,.09-.59,.25s-.27,.35-.39,.53c-.56,.86-1.33,1.59-2.22,2.09,.74-.06,1.35-.61,1.82-1.2s.85-1.25,1.38-1.67Z"/><path class="e" d="M44.83,67.48c-.39,.34-.93,.48-1.44,.49s-1.03-.1-1.54-.2c-.79-.17-1.6-.34-2.29-.77,.61,.8,1.57,1.33,2.58,1.41,1.01,.08,2.04-.29,2.7-.93Z"/><path class="k" d="M67.69,49.87c2.41-.27,4.19-2.29,5.75-4.14,1.57-1.85,3.44-3.82,5.86-3.93-3.69-.22-7.45,.86-10.45,3.02,1.11-2.68,3.12-4.98,5.63-6.44-3.07,.52-6.01,1.81-8.48,3.71,.77-3.24,2.83-6.16,5.64-7.95-4.32,.6-8.49,2.27-12.04,4.82-.19-2.9,.81-5.86,2.71-8.06-3.33,1.42-6.27,3.76-8.39,6.69-.37-3.17,.09-6.44,1.32-9.39-4.2,2.42-7.27,6.71-8.21,11.47-2.08-1.25-4.57-1.82-6.99-1.61,2.62,1.21,4.58,3.76,5.07,6.6-1.73,0-3.44-.83-4.51-2.19,.88,1.89,2.41,3.47,4.28,4.41-3.16-1.26-6.99-.67-9.62,1.49,2.16-.43,4.54,.52,5.81,2.32-2.58-1.16-6.02,.48-6.74,3.22,2.45-1.69,5.66-1.53,8.6-1.99,2.54-.4,4.97-1.29,7.44-2.03,2.46-.73,5.03-1.31,7.59-1.05,2.56,.26,5.13,1.49,6.86,3.59,.64-.02,1.27-.04,2.88-2.55Z"/><path class="k" d="M55.55,48.8c-3.17,1.63-5.29,5.11-5.31,8.68-1-2.34-.92-5.11,.22-7.39-2.26,2.31-3.42,5.66-3.06,8.88-1.39-2.29-1.84-5.13-1.18-7.66-1.75,1.49-3.02,3.53-3.59,5.75-1.2-2.42-.66-5.59,1.28-7.47-2.76,1.61-4.7,4.55-5.08,7.72-.54-1.92-.31-4.05,.58-5.84,.03-.09-.11-.16-.17-.09s.07,.19,.14,.13c-1.59,.1-3.12,.97-3.99,2.32,1.04-1.75,2.66-3.15,4.58-3.89,1.56-2.34,3.82-4.21,6.43-5.28-.67-.5-1.42-.89-2.21-1.15,2.67-1.22,5.97-.93,8.4,.73,1-2.18,2.79-3.98,4.95-5.01-1.2,1.53-2.14,3.26-2.77,5.09,3.4-1.07,7.29-.43,10.3,1.78,1.16-.61,2.56-.73,3.8-.32,1.24,.41,2.3,1.33,2.88,2.51-2.69-.43-5.44-.41-8.12,.06,2.19-.36,4.51,.08,6.42,1.21,1.92,1.13,3.42,2.94,4.17,5.03-2.66-1.2-5.48-2.03-8.37-2.46,2.1,.32,3.98,1.84,4.74,3.83-2.29-2.37-5.33-3.85-8.3-5.28,1.57,.62,2.57,2.44,2.26,4.1-1.08-1.75-2.52-3.29-4.19-4.49,.81,1.52,.8,3.45-.02,4.96,.17-1.88-.37-3.82-1.47-5.35,1.05,2.11,.93,4.76-.3,6.77-.15-2.82-1.4-5.56-3.02-7.86Z"/><path class="i" d="M43.78,75.56c.2,1.02,.3,2.06,.31,3.1"/><path class="i" d="M46.66,74.58c.24,1.35,.38,2.72,.42,4.09"/><path class="i" d="M50.24,73.59c.48,1.45,.69,2.99,.62,4.51"/><path class="i" d="M53.29,73.38c.48,1.42,.69,2.93,.62,4.43"/><path class="i" d="M57.78,72.34c.62,1.58,.79,3.34,.5,5.01"/><path class="i" d="M60.75,72.83c.52,1.52,.61,3.18,.25,4.75"/><path class="i" d="M64.45,73.17c.39,1.66,.44,3.4,.14,5.08"/><path class="i" d="M68.05,74.21c.45,1.49,.46,3.11,.04,4.61"/><path class="i" d="M69.93,75.45c.2,1.27,.01,2.6-.53,3.76"/><path class="k" d="M53.52,53.03c-1.61,3.12-2.82,6.45-3.57,9.87-.69,3.14-.98,6.56,.4,9.47,.85,1.8,2.72,3.43,4.66,2.96,1.31-.32,2.25-1.54,2.62-2.83s.26-2.67,.13-4.02c-.49-4.99-1.27-9.95-4.23-15.46Z"/></g></g></g></g></svg>