<?xml version="1.0" encoding="UTF-8"?><svg xmlns="http://www.w3.org/2000/svg" xmlns:xlink="http://www.w3.org/1999/xlink" viewBox="0 0 154.9 154.9"><defs><style>.e{fill:#fff;}.f{clip-path:url(#d);}</style><clipPath id="d"><circle class="e" cx="77.45" cy="77.45" r="77.45"/></clipPath></defs><g id="a"/><g id="b"><g id="c"><circle class="e" cx="77.45" cy="77.45" r="77.45"/><g class="f"><g><path d="M17.48,187.31c-.87-2.87-1.65-5.74-1.74-8.79-.11-3.79-.51-7.58-.7-11.37-.38-7.95-.14-15.91,.36-23.84,.54-8.53,1.54-17.01,2.99-25.44,1.75-10.15,4.1-20.15,7.4-29.91,2.85-8.42,6.34-16.54,11.13-24.06,2.05-3.21,4.35-6.22,7.08-8.9,2.28-2.23,4.77-4.16,7.72-5.43,3.47-1.5,7.01-1.82,10.65-.66,.44,.14,.91,.19,1.32,.4,.88,.45,1.71,.98,2.57,1.46,.17,.09,.37,.22,.54,.2,1.84-.2,3.49,.47,5.14,1.1,1.16,.44,2.26,1.06,3.36,1.59-.31-4.8-.14-6.57,.82-7.87,.31,1,.19,2.13,1.09,2.87-.73-1.44-.75-2.95-.5-4.5,.04-.22,.04-.49-.03-.69-.54-1.42-.31-2.88-.25-4.33,.02-.45,.26-.73,.77-.89,.73-.24,1.33-.66,1.74-1.45,.74-1.43,1.64-2.8,2.55-4.13,1.2-1.76,2.56-3.42,3.71-5.21,2.58-4.03,5.07-8.11,7.58-12.18,.77-1.24,1.42-2.56,2.26-3.76,.99-1.42,2.02-2.8,2.9-4.32,1.28-2.22,2.84-4.27,4.19-6.45,1.18-1.9,2.77-3.54,3.59-5.67,.06-.16,.24-.28,.38-.43,.53,.47,.41,1.03,.29,1.48-.49,1.79-.22,3.61-.17,5.4,.12,4.08,.72,8.11,1.34,12.14,.17,1.13,.33,2.27,.61,3.38,.52,2.13,.71,4.27,.69,6.46-.01,2.12,.23,4.26,.47,6.37,.27,2.35,.61,4.7,1.03,7.03,.26,1.47,.69,2.91,1.12,4.34,.15,.5,.1,.91-.04,1.37-.24,.78-.7,1.6-.62,2.35,.09,.81,.69,1.57,1.08,2.35,.21,.42,.42,.85,.67,1.25,.87,1.41,1.3,2.97,1.53,4.58,.18,1.25,.27,2.51,.41,3.77,.06,.58,.14,1.16,.21,1.7,1.56,.27,2.69-.08,3.55-1.41,.55-.85,1.41-1.5,2.22-2.33,.2,.99-.42,1.37-.84,1.86-.46,.53-.88,1.09-1.31,1.64,.15,.11,.21,.2,.28,.2,2.88,.05,5.77,.09,8.66,.14,.71,.01,1.42-.02,2.13,.04,1.34,.12,2.67,.34,4.01,.43,1.81,.11,3.63,.22,5.45,.18,3-.07,6-.27,9-.39,3.45-.14,6.88,.19,10.3,.56,3.22,.35,6.45,.67,9.66,1.13,2.85,.41,5.7,.92,8.51,1.53,1.17,.25,2.18,.59,3.39,.01,1.19-.56,2.12,.1,2.39,1.36,1.46,.39,2.9,.78,4.35,1.17,1.07,.29,2.13,.6,3.2,.88,2.18,.56,4.4,.99,6.54,1.67,2.06,.66,4.05,1.57,6.07,2.37,.89,.35,1.01,.32,1.64-.38,.59-.65,.78-1.44,.82-2.29,.01-.34-.14-.8,.44-.97,.4,1.62,.06,3-1.22,4.19,.33,.16,.59,.24,.81,.38,1.02,.64,1.94,1.42,2.27,2.61,.23,.83,.25,1.72,.26,2.59,.04,1.97-1.34,3.99-3.29,4.62-.89,.29-1.8,.52-2.72,.79-.66,11.24-.82,22.46-.5,33.75,.4,.11,.78,.18,1.14,.32,.59,.22,1.21,.41,1.74,.73,3.24,1.99,4.31,6.88,2.23,10.07-1.62,2.48-4.77,3.2-7.29,1.62-1.82-1.13-2.87-2.82-3.26-4.89-.72-3.84,1.46-6.86,4.18-7.57,.11-.03,.21-.1,.42-.22,0-.34,0-.73,0-1.12,0-2.73-.02-5.46-.01-8.19,0-1.62,.02-3.24,.06-4.86,.09-4.86,.17-9.73,.31-14.59,.04-1.54,.26-3.07,.38-4.6,.01-.15-.03-.3-.05-.43-2.11-.37-3.43-1.75-3.47-3.61-.01-.59-.05-1.18,.4-1.68,.85-.95,1.86-1.58,3.15-1.61-.16-1,.86-1.2,1.1-1.88,.25-.69,.49-1.39,.75-2.14-2.75-1.41-5.6-2.5-8.62-3.2-2.77-.64-5.51-1.41-8.27-2.1-1.19-.3-2.39-.53-3.58-.8-.5-.11-.85,.05-1.05,.53-.09,.22-.19,.44-.28,.65-.91,2.24-.85,4.64-1.16,6.98,0,.06,.06,.14,.13,.28,.23,.02,.49,.05,.76,.06,1.77,.1,3.55,.14,5.31,.3,1.77,.16,3.53,.4,5.28,.69,1.98,.33,3.94,.8,5.78,1.63,.16,.07,.3,.21,.45,.31-.35,.08-.64,0-.93-.07-1.29-.36-2.56-.79-3.86-1.06-1.38-.3-2.82-.36-4.2-.69-2.69-.65-5.42-.46-8.13-.62-.36-.02-.64,.06-.92,.38-.67,.75-1.08,.71-1.9,.02-.2-.17-.44-.35-.68-.38-.98-.12-1.96-.23-2.95-.25-5.1-.1-10.2-.18-15.3-.27-1.5-.02-3.02,.08-4.51-.09-3.68-.43-7.24,.27-10.83,.82-.11,.02-.25,.05-.32,.13-.29,.33-.61,.25-.97,.18-.34-.07-.71-.06-1.06-.01-3.56,.52-7.11,1.05-10.66,1.6-.66,.1-1.3,.33-1.95,.5-1.64,.41-3.31,.75-4.93,1.25-2.87,.89-5.69,1.93-8.55,2.82-2.42,.76-4.86,1.46-7.07,2.71-1.85,1.05-3.59,2.3-5.43,3.38-2.56,1.5-4.68,3.49-6.58,5.74-.55,.66-.87,1.55-1.5,2.09-.81,.69-.91,1.59-1.17,2.48-.07,.23-.16,.45-.25,.67-.78,1.98-1.73,3.91-1.7,6.12,0,.27-.05,.56-.16,.81-.58,1.43-.53,2.94-.69,4.43-.44,4.01-.92,8.01-1.35,12.01-.21,1.92-.59,3.82-.55,5.78,.09,4.47,.14,8.94,.07,13.41-.07,4.71,.55,9.3,1.84,13.81,.16,.57,.38,1.13,.44,1.71,.12,1.13,.08,2.27,.24,3.39,.31,2.11,.78,4.19,1.06,6.3,.33,2.47,.61,4.94,.77,7.43,.13,2.01,.08,4.03,.05,6.05-.02,1.02-.15,2.05-.3,3.07-.1,.68-.5,.85-1.11,.56-.21-.1-.39-.26-.59-.39-1.11-.72-2.32-1.25-3.62-1.41-1.6-.2-3.22-.36-4.84-.37-3-.01-5.9-.51-8.7-1.59-.23-.09-.49-.13-.79-.22-.08,.53-.18,.95-.2,1.38-.26,4.66-.54,9.32-.75,13.98-.2,4.26-.33,8.53-.5,12.79-.03,.77-.27,1.48-.79,2.06-.45,.5-.62,1.07-.66,1.73-.13,1.93-.3,3.86-.45,5.79-.22,2.95-.57,5.91-.62,8.86-.1,5.66,.36,11.3,.83,16.94,.28,3.31,.66,6.62,1.3,9.87,.5,2.51,.76,4.99,.65,7.53-.02,.43,.03,.87-.02,1.3-.11,.93,.32,1.45,1.12,1.85,2.8,1.41,5.74,2.44,8.7,3.43,1.08,.36,2.18,.71,3.25,1.09,1.19,.42,2.36,.89,3.55,1.33,1.19,.44,2.39,.83,3.56,1.29,.79,.31,.87,.72,.51,1.47-.28,.58-.69,.89-1.29,.84-.74-.05-1.49-.14-2.2-.32-.72-.19-1.4-.57-2.12-.77-3.27-.91-6.58-1.68-9.81-2.7-2.24-.71-4.54-1.02-6.82-1.48-.9-.18-1.86-.52-2.57-1.07-.99-.77-1.2-3.05-.47-4.16,.29-.45,.33-.85,.35-1.32,.15-2.85-.19-5.69-.4-8.52-.07-.95-.14-1.89-.27-2.83-.28-2.19-.61-4.38-.89-6.57-.12-.9-.14-1.81-.24-2.72-.44-3.97-.88-7.94-1.36-11.9-.22-1.84-.6-3.66-.81-5.5-.28-2.43-.84-4.81-.71-7.3,.11-2.14,.27-4.25,.57-6.37,.35-2.48,.77-4.91,1.66-7.26,.18-.47,.29-1,.28-1.49-.05-1.69-.17-3.38-.27-5.08-.11-1.97-.13-3.96-.37-5.91-.43-3.53-.99-7.05-1.51-10.57-.05-.34-.16-.67-.26-1.1-.29,.21-.52,.35-.73,.52-.83,.67-1.63,1.38-2.5,2-.88,.63-1.7,1.36-2.79,1.67-1.02,.29-2.01,.71-3,1.1-.44,.17-.89,.35-.97,.92-.23,1.71-.47,3.43-.71,5.14-.64,4.55-.58,9.06,.44,13.56,.15,.68,.08,1.41,.06,2.12-.02,.55-.17,1.1-.17,1.64,0,2.73-.15,5.45-.58,8.16-.16,.97-.11,1.97-.14,2.96-.13,4.39-.09,8.79-.44,13.16-.39,4.9-.28,9.8-.48,14.7-.08,1.85,.16,3.71,.21,5.57,.09,3.32,.44,6.64-.05,9.95-.05,.34,0,.71,.07,1.06,.21,1.05,.43,2.09,.68,3.12,.07,.28,.22,.6,.44,.79,1.79,1.56,3.6,3.09,5.4,4.64,1.64,1.42,3.25,2.89,4.9,4.3,1.59,1.36,3.22,2.67,4.84,4,.6,.49,1.23,.95,1.41,1.8-.58,.42-1.12,.23-1.62,.03-1.88-.73-3.77-1.47-5.39-2.7-1.39-1.05-2.67-2.22-4.04-3.29-1.43-1.12-2.95-2.13-4.36-3.27-1.72-1.39-3.35-2.89-5.04-4.31-.63-.52-1.26-1.05-2.19-1.02-.65,.02-1.01-.37-1.12-1.01-.05-.31-.03-.63-.02-.95,.11-4.19,.23-8.38,.33-12.57,.08-3.28,.12-6.57,.19-9.85,.06-2.53,.2-5.06,.23-7.59,.03-2.93-.05-5.86-.03-8.78,.03-3.69-.33-7.35-.85-10.99-.37-2.58-.75-5.15-.76-7.77,0-.69,.11-1.31,.48-1.92,.25-.42,.45-.97,.42-1.45-.16-2.29-.37-4.57-.62-6.85-.28-2.55-.61-5.1-.93-7.65-.09-.74-.18-1.47-.29-2.35-1.04,.26-1.96,.44-2.85,.74-1.84,.61-3.64,1.31-5.49,1.9-1.09,.35-2.23,.53-3.34,.8-1.84,.45-3.67,.95-5.52,1.35-1.81,.39-3.64,.71-5.47,1.01-.76,.12-1.55,.11-2.43,.17,.15-1.46-.13-2.6-.47-3.72ZM109.73,41.45c.37,.38,.76,.74,1.18,1.15q.29-.73-.63-2.67c.06-.28,.21-.58,.17-.85-.28-1.85-.6-3.7-.92-5.55-.06-.38-.16-.75-.25-1.19l-1.05,.26,.16-.71h.93l-.23-1.62-1.21,.46c.73-.58,1.05-1.32,.98-2.27-.19-2.48-.22-4.98-.55-7.44-.26-1.91-.82-3.78-1.36-5.64-.17-.6-.7-1.09-1.13-1.72,.85-.57,.82-1.52,.68-2.57-.24-1.76-.37-3.54-.57-5.3-.05-.47,.11-.99-.56-1.3-.21-.1-.12-.85-.17-1.3l.55,1.16,.06-1.31-.6,.19c.55-.66,.46-1.39,.38-2.17-.09-.9-.01-1.81-.01-2.72,0-.43,0-.86-.08-1.32-.4,.53-1.19,.79-.86,1.77,.13,.39-.13,.99-.8,1.08-.22,.03-.48,.24-.62,.44-.46,.69-.85,1.43-1.31,2.12-.96,1.44-1.96,2.87-2.94,4.3-.13,.2-.33,.36-.43,.57-.95,2.08-2.59,3.67-3.84,5.53-.84,1.26-.75,1.8,.5,2.72,.08,.06,.13,.18,.26,.36l-1.17,.26-.2,1.47-.88-1.5c-.5,.59-1,1.04-1.34,1.58-2.04,3.25-4.05,6.51-6.03,9.79-.31,.51-.42,1.15-.66,1.83-.89-.18-1.27,.56-1.71,1.26-1.21,1.9-2.44,3.78-3.66,5.68-.2,.31-.37,.65-.67,1.18,.67,.08,1.11,.19,1.56,.19,1.42,0,2.85,.05,4.27-.07,1.05-.09,2.13-.27,3.1-.65,1.83-.73,3.58-1.64,5.38-2.45,.46-.21,.97-.31,1.45-.46-1.36,1.08-2.92,1.83-4.47,2.58-.53,.26-1.09,.47-1.63,.71-1.14,.5-2.32,.79-3.56,.77-1.86-.03-3.71-.07-5.57-.12-1.37-.04-2.66,.98-2.76,2.31-.03,.42,.14,.98,.43,1.26,.65,.62,1.41,1.12,2.15,1.64,1.14,.8,2.34,1.5,3.69,1.84,1.33,.34,2.69,.6,4.04,.84,1.23,.22,2.48,.36,3.67,.54,1.4-1.88,2.85-3.84,4.33-5.82-.5-.38-1.11-.17-1.71-.1-.58,.07-1.16,.11-1.75,.15-1.41,.12-2.82,.26-4.24,.33-1.17,.06-2.35,.01-3.53-.07,.61-.41,1.3-.31,1.98-.31,.58,0,1.16-.08,1.74-.15,.98-.12,1.95-.32,2.93-.39,1.06-.08,2.11,0,3.15-.36,.47-.16,1.11-.04,1.61,.13,.58,.2,1.04,.15,1.57-.1,.75-.35,1.52-.66,2.31-.91,2.03-.63,4.03-.78,5.9,.5,.47,.32,.91,.69,1.37,1.04-.45-.23-.95-.4-1.36-.7-1.47-1.1-3.18-1.09-4.78-.73-1.51,.34-2.95,1.08-4.35,1.79-.87,.44-1.55,1.18-1.83,2.22-.12,.43-.42,.88-.77,1.17-.98,.8-1.51,1.87-2.15,2.91-.9,1.47-1.32,3.11-1.99,4.66-.2,.47-.28,.98-.4,1.48-.33,1.37-.65,2.75-1,4.22-2.94-1.22-5.48-2.9-7.85-4.85,2.46,2.52,5.21,4.6,8.55,5.62,.25-.28,.48-.66,.59-.63,.51,.14,.64,.51,.36,1.01h-1.55c-.33,1.73-.28,3.41-.17,5.03,.13,.11,.19,.2,.25,.2,2.08,.09,4.01,.83,5.96,1.45,.82,.26,1.63,.48,2.53,.26,1.04-.26,1.94,.19,2.89,.64,1.23,.57,1.91,1.58,2.74,2.52,.46,.52,.19,.98,0,1.41-.2,.46-1.07,.75-1.5,.58-.47-.19-.94-.42-1.38-.67-2.39-1.4-4.87-2.61-7.53-3.43-1.31-.4-2.56-1.02-3.84-1.54-.22-.21-.46-.39-.64-.63-.09-.12-.06-.33-.09-.52l-5.03-1.14-.05,.17,5.84,2.1c0,.97,0,1.94,0,2.91,0,.52,0,1.05,0,1.63l-1.45-.49-1.33-1.36c.13,.81,.71,1.11,1.35,1.33-.22,.39-.44,.79-.74,1.33l1.41,2.12,.48,.59c.36,.56,.78,1.01,1.46,.73,1.15,2.12,1.98,4.38,3.66,6.11,1.67,1.72,3.72,2.59,6.2,2.78,3.88,.3,6.5-1.75,8.97-4.25,1.83-1.85,3.26-3.97,4.34-6.33,.4-.88,.58-1.86,.89-2.92l-4.47-1.07c.04,.59-.18,.89-.71,1.14-.96,.45-1.83,1.09-2.76,1.61-.41,.23-.88,.85-1.34,.32-.47-.54,.3-.86,.5-1.29-.02-.07-.02-.16-.07-.2-1.06-.87-1.07-.88,.09-1.61,.28-.17,.58-.26,.43-.84-.82-.2-1.73-.42-2.64-.64-.94-.22-1.02-.33-1.06-1.26-.05-1.11,.42-2,1.19-2.74,.44-.42,.9-.61,1.58-.21,1.01,.6,2.13,1.02,3.22,1.5,.2,.09,.46,.16,.66,.12,.76-.15,1.51-.45,2.28-.52,1.74-.15,2.84-1.28,3.97-2.39,.16-.16,.21-.51,.19-.76-.18-3.11-.04-6.31-1.11-9.26-1.07-2.96-2.41-5.85-4.42-8.34-.69-.85-1.52-1.59-2.29-2.38,.31,.2,.69,.34,.93,.6,1.02,1.07,2.01,2.18,3.04,3.3l.34-.65c-1.29-1-1.86-2.47-2.66-3.78l-.02,.02c.53,.57,1.04,1.15,1.58,1.71Zm-6.64,43.45c1.59-.95,3.11-2.02,4.73-2.92,2.04-1.14,4.29-1.8,6.51-2.51,3.01-.97,5.97-2.09,8.97-3.06,1.5-.48,3.07-.72,4.59-1.16,4.08-1.19,8.28-1.63,12.48-2.1q.41-.05,.79-.47c-1.02-.31-1.19-.28-1.71,.3l-.51-.81c1.1,.16,1.91-.08,2.58-1.11,0,.54,0,.79,0,1.04-.03,.69,.11,.86,.81,.77,1.33-.18,2.65-.44,3.98-.59,1.33-.15,2.67-.24,4.01-.31,.94-.05,1.88,0,2.84,0q-.23-1.03-1.79-1.04l.7-1.03-.47-1.17c1.04,.15,1.85-.11,2.56-.8l-.08,1.27,1.34,1.06-1.53,.22-.13,1.58c7.71,.27,15.33-.12,23.04,.7-.05-.66-.1-1.12-.12-1.59-.07-1.42-.17-2.84-.18-4.26-.02-1.31,.53-2.45,1.22-3.53-1.29-.95-7.87-2.26-10.97-2.18l-.32,1.35-.85-1.25-1.17,.09c-.11-.17-.2-.43-.38-.56-.18-.13-.45-.14-.68-.16-2.44-.25-4.88-.46-7.32-.76-5.65-.7-11.3-.02-16.95,.08-1.38,.02-2.77,.07-4.15-.03-1.97-.14-3.93-.44-5.9-.59-.9-.07-1.81,.09-2.72,.07-2.09-.05-4.19-.13-6.28-.21-.32-.01-.63-.02-.95-.03-1.5-.02-2.05,.43-2.35,1.96-1.26,.39-1.81,1.29-1.93,2.56-.09,.98-.26,1.94-.42,3.02,2.92,1.38,5.84,2.76,8.95,4.23l.65-1,.18,.09v1.15l1.38,1.25-1.54,.15-.3,1.73-.91-1.31-1.4,.19,.81-1.3c-.29-.19-.55-.44-.85-.53-2.46-.72-4.93-1.41-7.49-2.13-.16,.36-.37,.66-.44,.98-.49,2.39-1.76,4.4-3.19,6.29-1.65,2.19-3.54,4.14-5.97,5.52-1.24,.71-2.51,1.04-3.94,1.09-2.29,.07-4.49-.34-6.67-.9-2.1-.54-4.26-.82-6.28-1.69-.45-.19-1.14,.1-1.7,.24-.37,.09-.72,.29-1.2,.5l1.08,1.01-1.46,.25-.24,1.48-.74-.35c-.16,.49-.34,.96-.45,1.44-.41,1.85-.87,3.69-1.16,5.56-.61,3.83-1.12,7.67-1.68,11.5-.09,.62-.26,1.23-.43,2.01l.92-.49-.07,1.39,1.34,1.04-1.5,.23-.25,1.55c-.17-.13-.32-.22-.43-.34-.13-.13-.23-.28-.45-.57-.32,1.72-.7,3.25-.89,4.81-.32,2.59-.62,5.19-.75,7.79-.18,3.5-.19,7.01-.31,10.51-.1,2.84-.26,5.68-.36,8.53-.05,1.49,0,2.99,0,4.5,.94,.54,1.43-.21,2.09-.83v1.49l1.31,1.03-1.45,.22c-.1,.49-.19,1.01-.34,1.78-.31-.52-.46-.83-.68-1.08-.13-.15-.41-.29-.57-.25-.17,.04-.28,.31-.41,.48-.02,.03,0,.08,0,.12-.08,2.25-.22,4.5-.22,6.75,0,1.89,.26,3.79,.2,5.68-.04,1.4-.4,2.8-.64,4.19-.14,.77-.44,1.52-.49,2.29-.23,3.38-1.04,6.62-2.22,9.79-.07,.18-.15,.37-.18,.56-.06,.43-.09,.86-.14,1.39,1.59,.85,3.28,1.32,5.02,1.68,1.87,.39,3.76,.47,5.66,.43,1.8-.04,3.56,.23,5.25,.8,.96,.32,1.85,.84,2.93,1.34,.8-6.42,.08-12.71-.64-18.99l-.24-.04-.2,.73-1.77-.24,.13,1.32,.99,.55,.34-.65,.18,.05-.26,1.94-.91-1.3-1.4,.08,.72-1.09-.48-1.2c1.26,.36,1.96-.31,2.74-1.2l-1.74-8.04h-.26l-.13,1.26c-.41-.6-1.08-.48-1.79-.39l.12,1.2,1,.55,.26-.59,.17,.02-.11,1.68c-.64-.09-.56-.75-1-1.05l-1.35,.07,.69-1.08-.43-1.09c.24-.03,.42-.06,.6-.06,1.37,.03,2.01-.89,1.84-2.21-.42-3.25-1.19-6.46-1.19-9.76-.01-5.62-.08-11.24-.04-16.85,.01-1.49,.34-2.98,.52-4.47,.42-3.57,.84-7.14,1.25-10.71,.03-.3,0-.61,0-.97-1.26-.04-.55,1.08-.97,1.49l-1.72-1.31-.21-2.01c.95,.24,1.75,.13,2.24-.8,.59,.5-.43,1.5,.73,1.69,.72-4.03,1.26-8.12,3.12-11.8l-1.03-1.55-1.43,.2,.75-1.14-.42-1.12c.91-.1,1.9,.1,2.31-1.15,.46,.77-.37,1.78,.81,1.93,1.26-1.17,2.52-2.35,3.79-3.53l-.03,.03c1.83-1.63,3.72-3.17,5.84-4.43ZM38,125.32c.27,2.32,.45,4.65,.82,6.95,.45,2.81,.95,5.61,1.64,8.37,.47,1.91,1.3,3.72,1.97,5.58,.04,.11,.09,.28,.16,.3,1.47,.34,1.54,1.81,2.18,2.78,1.02,1.55,1.84,3.22,2.76,4.83,.09,.16,.27,.26,.45,.44,1.39-2.84,3.31-5.17,5.72-7.22-.7-1.45-1.47-2.86-2.06-4.34-.49-1.24-.81-2.56-1.13-3.86-.2-.83-.7-1.6-.48-2.52,.03-.14-.26-.35-.58-.73l-.37,2.08-.92-1.35-1.37,.16c.42-.76,1.06-1.4,.03-2.3,.67,0,.97,.02,1.28,0,.8-.08,1.35-.83,1.3-1.64-.26-4.18-.41-8.37-.18-12.56,.22-3.97,.88-7.86,1.83-11.69,.29-1.18,.24-2.14-.7-3.05l-1.33,.16,.74-1.19-.48-1.06c.97-.02,1.87-.04,2.52-.89l.07,.95c.08-.04,.18-.05,.19-.1,.95-3.38,1.87-6.78,2.87-10.15,.28-.93,.19-1.69-.49-2.45l-1.37,.16,.74-1.19-.48-1.05c.57-.06,1.06-.08,1.54-.16,.44-.08,.47-.99,1.25-.63,.35-1.35,.73-2.75,1.07-4.14,.43-1.72,.83-3.45,1.24-5.18,.14-.57,.27-1.15,.4-1.73,.03-.12,.02-.26,.08-.34,.15-.2,.33-.38,.5-.57,.11,.22,.33,.45,.31,.66-.07,.66-.22,1.32-.37,1.97-.17,.76-.38,1.52-.58,2.32,.94-.21,1.47-1.1,2.6-1.07-.25,.25-.35,.39-.49,.49-.46,.31-.93,.6-1.39,.9-.8,.53-1.19,1.26-1.36,2.23-.34,1.86-.87,3.69-1.29,5.53-.08,.34-.01,.71-.01,1.1-.18,.32-.46,.67-.58,1.08-.85,2.92-1.67,5.85-2.48,8.78-.35,1.26-.54,2.57-1.01,3.77-.2,.52,.51,.96-.14,1.48-.34,.27-.31,1.02-.43,1.55-.12,.54-.21,1.09-.33,1.63-.12,.54-.26,1.08-.38,1.62-.03,.11-.02,.23-.03,.41,.94,.64,1.46-.12,2.13-.95v1.63l1.37,1.05-1.5,.23-.34,1.7-.82-1.23c-1.37-.04-1.35,0-1.62,1.24-1.12,5.16-.93,10.38-.89,15.6,.01,1.57-.02,3.2,.37,4.71,.76,3,1.64,5.98,2.97,8.79,.52,1.1,1.07,2.18,1.6,3.26,1.23-.41,.64-1.15,.48-1.87,.97,.12,1.78-.05,2.4-.87v1.28l1.34,1.11-1.48,.23-.29,1.73-.88-1.34-1.23,.17c.37,.37,.6,.56,.78,.79,.43,.52,.85,1.05,.83,1.78,0,.19,0,.42,.09,.58,.61,1.03,1.24,2.05,1.99,3.29l.55-1.03c.18,.28,.28,.37,.28,.46,0,.35-.05,.7-.08,1.05l1.31,1.06-1.15,.33c1.05,1.7,1.97,3.41,3.12,4.94,.5,.67,1.49,.98,2.27,1.44,.09,.05,.23,.07,.34,.05,.62-.07,1.24-.23,1.85-.22,.62,0,1.25,.18,2.02,.3,.07-.53,.16-1.06,.2-1.6,.31-3.7,.55-7.4,.92-11.1,.6-6.02,1.32-12.03,1.89-18.05,.22-2.36,.13-4.74,.29-7.11,.21-3.19,.53-6.38,.8-9.57,.02-.24,.09-.47,.07-.71-.06-.77-.37-.98-1.16-.85-.18,.03-.37,.03-.69,.06l.75-1.12-.4-1.02c.12-.08,.18-.15,.24-.15,1.63-.03,1.72-.12,1.95-1.69,.44-2.97,.87-5.95,1.34-8.91,.13-.82,.38-1.62,.54-2.43,.07-.36,.06-.73,.1-1.29,.06-.08,.34-.31,.49-.61,1.1-2.28,1.86-4.68,2.65-7.17h-1.04l-.24,1.68-.91-1.26-1.38,.07,.69-1.1-.47-1.15c1.06,.21,1.83-.12,2.55-.81l-.06,1.3,.98,.7c.14-.25,.28-.43,.34-.64,.9-2.84,1.58-5.72,1.77-8.7,.07-1.12-.13-2.25-.54-3.41-.74,.43-.29,1.18-.72,1.7l-.83-1.2-1.41,.19,.75-1.14-.43-1.12c.33-.02,.59-.03,.84-.05,.98-.05,1.28-.38,1.07-1.35-.37-1.7-.78-3.39-1.18-5.09-.04-.17-.1-.33-.34-.51l-.31,1.59-.9-1.31-1.42,.19,.76-1.14-.42-1.12c.92-.09,1.95,.1,2.23-1.2-.65-1.57-1.34-3.24-2.06-4.9-.05-.11-.35-.11-.4-.13-.11-.54-.12-1.04-.31-1.45-.41-.88-1.08-1.64-1.01-2.74,.02-.27-.4-.68-.71-.84-.91-.46-1.85-.9-2.82-1.22-1.27-.42-2.57-.71-3.86-1.05l-.12,.21,2.07,1.79,.92-.79v1.48c.2,.16,.44,.35,.69,.54,.24,.18,.48,.3,.42,.73-.03,.27,.31,.59,.52,.87,.48,.65,1.01,1.26,1.29,2.03-1.09-.88-1.76-2.16-3.07-3.14l-.33,1.93-.86-1.27-1.37,.06,.67-1.14-.45-.96,.7-.39c-1.49-1.3-3.05-2.39-4.93-3.21-.11,.96,.95,.86,1.04,1.58l-1.27,.14-.26,1.77-.95-1.34-1.38,.17c.56-.74,.88-1.41,.26-2.23l1.56-.18,.03-.19c-.22-.11-.44-.25-.67-.32-2.82-.88-5.62-.75-8.4,.18-2.43,.82-4.59,2.12-6.58,3.72-3.3,2.66-5.98,5.87-8.36,9.34-4.45,6.51-7.72,13.6-10.46,20.97-4.37,11.76-7.29,23.88-9.29,36.25-.19,1.17-.37,2.34-.54,3.52-.03,.22,0,.45,0,.69,.94,.55,1.33-.33,1.99-.83v1.42l1.32,1.07-1.48,.27-.29,1.71-.82-1.25c-1.14-.06-1.2-.04-1.31,1.1-.5,5.23-1.05,10.47-1.47,15.71-.68,8.45-.71,16.92-.36,25.38,.17,4.07,.6,8.13,.74,12.2,.05,1.62,.77,2.95,1.17,4.42,.31,1.14,.58,2.29,.86,3.44,.12,.49,.24,.98,.38,1.54,.63-.08,1.17-.13,1.71-.23,2.22-.4,4.43-.79,6.64-1.23,.69-.14,1.36-.43,2.05-.6,1.57-.39,3.16-.72,4.72-1.13,1.18-.31,2.33-.74,3.51-1.08,1.97-.56,3.94-1.17,5.94-1.6,2.6-.56,5.12-1.32,7.54-2.41,1.29-.58,2.64-1.03,3.98-1.55,.19-.78,1.38-1.39,.33-2.57,1.12,.16,1.92-.04,2.55-1.16l.1,1.92c.53-.3,.96-.48,1.31-.75,1.92-1.48,3.67-3.14,5.11-5.1,.88-1.21,1.68-2.49,2.4-3.8,.67-1.24,.46-1.53-.91-1.52-1.73,.01-3.4-.27-4.98-.93-3.06-1.27-5.82-3.02-8.24-5.29-.78-.73-1.52-1.5-2.28-2.25-.44-.43-.75-.95-1.52-.99-.31-.01-.64-.62-.88-1-.3-.46-.27-1.04-1.01-1.3-.4-.14-.6-.96-.83-1.5-.29-.68-.73-1.17-1.37-1.57-.48-.3-.93-.76-1.22-1.25-1.98-3.45-3.28-7.18-4.33-11-.51-1.86-.73-3.8-1.07-5.7-.25-1.36-.48-2.71-.73-4.13h-1.47l-.33,1.77-.91-1.35-1.32,.2c.34-.73,.93-1.38,.11-2.24,1.07-.03,1.95-.1,2.58-.89v1.36l1.19,.77c.04-.32,.09-.46,.08-.6-.42-3.97-.74-7.95-.74-11.95,0-2.17,.09-4.34,.2-6.51,.05-.93-.23-1.69-.78-2.44l-1.44,.2,.75-1.14-.38-1.01c.09-.07,.14-.16,.2-.16,1.7-.06,1.87-.17,1.99-1.91,.2-2.92,.36-5.84,.48-8.77,.12-2.8,.14-5.61,.27-8.42,.06-1.46,.26-2.91,.38-4.37,.06-.75,.09-1.5,.15-2.24,.02-.28,.09-.56,.29-.84,.48,1.03,.24,2.12,.26,3.17,.99,.69,1.5-.13,2.21-.81v1.49l1.3,1.04-1.5,.29-.27,1.65c-.28-.42-.48-.65-.6-.91-.17-.36-.46-.48-.77-.35-.25,.11-.57,.34-.63,.57-.14,.57-.17,1.17-.19,1.76-.19,5.49-.35,10.99-.56,16.48-.12,3.24-.3,6.47-.45,9.71-.02,.35,0,.7,0,1.02,.92,.58,1.13-.49,1.79-.71v1.39l1.29,1.02-1.49,.24-.27,1.63-1.03-1.28c-.48,.96-.43,4.84,.06,7.99l-.02-.02Zm14.95,28.96c-.78,1.22-1.76,2.31-2.72,3.53,1.42,1.59,2.95,3.06,4.59,4.41,1.84,1.51,3.8,2.83,6.05,3.67,1.6,.59,3.23,1.04,4.97,.82,.22-.03,.46,.04,.67,.1,.59,.17,1.17,.4,1.77,.54,.57,.13,1.03-.08,1.19-.69,.13-.53,.21-1.07,.29-1.47,.46-.35,.92-.59,1.21-.96,.34-.43,.17-1.04-.29-1.2-1.06-.36-2.02-1.05-3.21-.96-.58,.05-1.16,.14-1.74,.21-.26,.03-.57,.15-.78,.06-1.3-.58-2.6-1.15-3.37-2.47-1.48-2.52-2.99-5.01-4.49-7.52-.24-.4-.49-.8-.76-1.23-1.39,.84-2.52,1.81-3.38,3.15ZM202.96,72.54c.13,.15-.56,.42-.2,.82,.24,.26,.47,.53,.22,.96l-.44-.52-.49,.98c-.99,.12-2.06-.14-2.99,.59,.24,1.23,1,1.9,2.27,2.18-1.25,.25-1.8-.13-2.62-1.75-1.02,.54-1.43,1.4-.97,2.51,.7,1.69,1.54,2.72,3.69,2.32,1.52-.28,3.03-.55,4.19-1.72,.82-.83,1.3-1.77,1.33-2.93,.01-.47,0-.95-.04-1.42-.19-2.11-1.35-3.4-3.6-3.91-.32,.63-1.05,1.09-.35,1.9Zm-81.04-1.78c-.42-.25-.67-.41-.94-.54-2.49-1.18-4.98-2.39-7.49-3.52-1.33-.6-2.73-1.03-4.07-1.59-1.05-.43-2.07-.95-3.1-1.42-.64-.3-1.29-.6-1.94-.87-.74-.3-1.13-.21-1.66,.4-.62,.72-.96,1.53-.69,2.46,6.64,1.7,13.16,3.36,19.89,5.08Zm75.43,46.49c-2.96,3.12-1.33,9.12,2.8,10.32,1.87,.54,3.45,.06,4.71-1.38,2.8-3.19,1.14-8.91-2.93-10.12-.44-.13-.93-.13-1.4-.18-1.27-.02-2.32,.46-3.18,1.37Zm-16.52-53.23c-.49-.14-.88-.26-1.28-.36-.81-.19-1.17-.11-1.54,.65-.37,.77-.75,1.62-.79,2.45-.08,1.65,.03,3.32,.14,4.97,.06,.99,.26,1.07,1.46,.88,.62-2.82,.3-5.87,2-8.59ZM54.29,149.34c-.08,0-.13-.57-.23-1.02-1.24,1.04-2.33,2.06-3.22,3.25-.62,.82-1.19,1.68-1.69,2.58-.26,.46-.4,1.04-.43,1.57-.01,.27,.29,.66,.56,.8,.16,.08,.59-.13,.77-.33,.74-.82,1.42-1.7,2.14-2.53,.95-1.1,1.93-2.18,2.95-3.33-.23-.28-.1-.94-.85-.98Zm59.4-82.92c.52-1.05,.72-2.36,.54-3.72-1.28,.63-2.27,1.43-2.8,2.91l2.26,.81Zm-37.02,21.81l.92,.51,.95-.95-.62-.77h-1.37l.12,1.21Zm-20.87,56.7l.11,1.25,.89,.45,.99-.88-.61-.82h-1.36Zm-16.16-60.01l.87,.48,.97-.88c-.38-.84-1.07-1-1.99-.78l.14,1.18Zm-21.12,39.6l.13,1.24,.84,.44,1.01-.85-.58-.82h-1.4Zm34.61-13.54h-1.36l.11,1.25,.89,.45,.99-.88-.62-.82Zm9.59-58.98l.98-.85-.57-.82h-1.42l.16,1.23,.85,.44Zm-28.3,77.14l.13,1.23,.85,.46,.99-.84-.55-.85h-1.42Zm57.6-35.08l1-.88-.61-.84h-1.36l.09,1.21,.87,.5Zm-44.3,40.78l.13,1.22,.85,.45,.97-.83-.54-.84h-1.42Zm105.95-65.76h-1.37l.11,1.22,.86,.49,1.02-.86-.62-.85Zm-76.61,75.78l.84,.45,.99-.85-.56-.82h-1.42l.15,1.22Zm2.9-69.28l.82-.95-.45-.8h-1.4l.11,1.21,.91,.54Zm-1.89-8.78l.78-.97-.42-.78h-1.41l.12,1.23,.93,.53Zm-27.06,38.7l.75-.98-.38-.77h-1.42l.11,1.2,.93,.56Zm-11.41,10.94l-.62-.84-1.22,.07v1.14l.83,.52,1-.9Zm48.78-9.35h-1.32c-.11,.87,.27,1.37,.91,1.62l1.04-.78-.63-.84Zm-33.27-16.27c.03-.61,1.08-1.04,.2-1.79h-1.32l.12,1.21,1,.58Zm-19.28,17.23l1.04,.57,.25-1.69-1.42-.12,.12,1.24Zm32.66-54.24l.1,1.19,.98,.55,.44-.92c-.45-.43-.75-1-1.51-.82Zm-10.75,124.4h-1.48l.19,1.36c.53-.49,1.47-.31,1.29-1.36Zm14.79-67.36l.1,1.26,.93,.36,.25-1.5-1.28-.12Zm7.92-5.07l-.64-.85c-.74,.43-.82,.82-.4,1.7l1.04-.85ZM94.47,15.66l-.75-1.13-.66,1.17,.73,.6,.68-.64Zm29.34,56.49q-1.05-.45-1.37,.22l1.03,.62,.34-.84Zm-39.22,9.62c-.36-.08-.74-.3-.93-.19-.49,.29-.41,.77-.19,1.21l1.12-1.02Zm-6.22-30.95l.13-.08-.5-.79-.15,.09,.52,.78Zm102.79,12.66l.08-.28-1.17-.36-.09,.35,1.18,.28ZM51.47,111.48l-.24-.08-.27,.72,.3,.12,.21-.75Z"/><path class="e" d="M39.68,125.47l.85,1.24,.25-1.69,1.49-.26-1.27-1.06v-1.46c-.72,.7-1.39,1.28-2.52,.91,.47,.99,.51,1.75-.46,2.19-.49-3.15-.54-7.03-.07-7.99l1.03,1.28,.27-1.63,1.49-.24-1.29-1.02v-1.39c-.66,.22-.86,1.29-1.79,.71,0-.31-.01-.67,0-1.02,.15-3.24,.33-6.47,.45-9.71,.21-5.49,.37-10.99,.56-16.48,.02-.59,.05-1.19,.19-1.76,.06-.23,.38-.46,.63-.57,.31-.13,.6-.01,.77,.35,.12,.26,.32,.49,.6,.91l.27-1.65,1.5-.29-1.3-1.04v-1.49c-.7,.68-1.22,1.49-2.21,.81-.02-1.06,.22-2.14-.26-3.17-.2,.28-.27,.55-.29,.84-.06,.75-.09,1.5-.15,2.24-.12,1.46-.32,2.91-.38,4.37-.12,2.8-.15,5.61-.27,8.42-.12,2.92-.28,5.85-.48,8.77-.12,1.73-.3,1.85-1.99,1.91-.06,0-.11,.09-.2,.16l.38,1.01-.75,1.14,1.44-.2c.56,.76,.83,1.52,.78,2.44-.11,2.17-.19,4.34-.2,6.51,0,4,.31,7.98,.74,11.95,.01,.14-.03,.28-.08,.6l-1.19-.77v-1.36c-.64,.79-1.52,.86-2.58,.89,.82,.86,.24,1.51-.11,2.24l1.32-.2,.91,1.35,.33-1.77h1.47c.25,1.41,.49,2.77,.73,4.13,.35,1.9,.56,3.85,1.07,5.7,1.05,3.81,2.35,7.54,4.33,11,.28,.49,.73,.95,1.22,1.25,.64,.4,1.08,.89,1.37,1.57,.23,.54,.43,1.36,.83,1.5,.74,.25,.72,.84,1.01,1.3,.25,.38,.57,.99,.88,1,.77,.04,1.09,.56,1.52,.99,.76,.75,1.5,1.52,2.28,2.25,2.42,2.27,5.19,4.02,8.24,5.29,1.58,.66,3.26,.95,4.98,.93,1.37-.01,1.59,.29,.91,1.52-.72,1.31-1.51,2.6-2.4,3.8-1.43,1.95-3.19,3.61-5.11,5.1-.35,.27-.78,.45-1.31,.75l-.1-1.92c-.63,1.12-1.43,1.32-2.55,1.16,1.05,1.18-.14,1.78-.33,2.57-1.34,.52-2.69,.97-3.98,1.55-2.43,1.09-4.94,1.86-7.54,2.41-2,.43-3.97,1.04-5.94,1.6-1.18,.33-2.33,.76-3.51,1.08-1.57,.41-3.15,.74-4.72,1.13-.69,.17-1.35,.46-2.05,.6-2.21,.44-4.42,.83-6.64,1.23-.54,.1-1.08,.15-1.71,.23-.14-.56-.26-1.05-.38-1.54-.29-1.15-.55-2.3-.86-3.44-.4-1.47-1.12-2.81-1.17-4.42-.14-4.07-.57-8.13-.74-12.2-.35-8.46-.32-16.93,.36-25.38,.42-5.24,.97-10.47,1.47-15.71,.11-1.13,.17-1.16,1.31-1.1,.23,.35,.45,.69,.82,1.25l.29-1.71,1.48-.27-1.32-1.07v-1.42c-.66,.5-1.04,1.38-1.99,.83,0-.23-.03-.47,0-.69,.17-1.17,.35-2.35,.54-3.52,1.99-12.36,4.92-24.49,9.29-36.25,2.74-7.36,6.01-14.46,10.46-20.97,2.38-3.48,5.06-6.69,8.36-9.34,1.99-1.6,4.15-2.9,6.58-3.72,2.78-.93,5.58-1.06,8.4-.18,.24,.07,.45,.21,.67,.32l-.03,.19-1.56,.18c.62,.81,.3,1.49-.26,2.23l1.38-.17,.95,1.34,.26-1.77,1.27-.14c-.09-.72-1.15-.62-1.04-1.58,1.88,.82,3.44,1.9,4.93,3.21l-.7,.39,.45,.96-.67,1.14,1.37-.06,.86,1.27,.33-1.93c1.32,.97,1.98,2.25,3.07,3.14-.28-.78-.81-1.39-1.29-2.03-.21-.28-.55-.61-.52-.87,.05-.43-.18-.55-.42-.73-.25-.19-.49-.38-.69-.54v-1.48l-.92,.79-2.07-1.79,.12-.21c1.29,.34,2.6,.64,3.86,1.05,.97,.32,1.91,.76,2.82,1.22,.31,.16,.73,.57,.71,.84-.07,1.09,.6,1.85,1.01,2.74,.19,.41,.2,.9,.31,1.45,.05,.01,.35,.01,.4,.13,.72,1.66,1.41,3.33,2.06,4.9-.28,1.3-1.32,1.11-2.23,1.2l.42,1.12-.76,1.14,1.42-.19,.9,1.31,.31-1.59c.24,.17,.3,.34,.34,.51,.4,1.69,.81,3.39,1.18,5.09,.21,.97-.08,1.3-1.07,1.35-.26,.01-.51,.03-.84,.05l.43,1.12-.75,1.14,1.41-.19,.83,1.2c.43-.53-.02-1.28,.72-1.7,.41,1.16,.61,2.28,.54,3.41-.19,2.97-.87,5.86-1.77,8.7-.07,.21-.21,.39-.34,.64l-.98-.7,.06-1.3c-.72,.7-1.5,1.02-2.55,.81l.47,1.15-.69,1.1,1.38-.07,.91,1.26,.24-1.68h1.04c-.79,2.49-1.55,4.89-2.65,7.17-.14,.3-.42,.53-.49,.61-.04,.56-.03,.93-.1,1.29-.16,.81-.42,1.61-.54,2.43-.47,2.97-.9,5.94-1.34,8.91-.23,1.57-.32,1.66-1.95,1.69-.06,0-.12,.08-.24,.15l.4,1.02-.75,1.12c.32-.03,.51-.03,.69-.06,.79-.13,1.1,.08,1.16,.85,.02,.23-.05,.47-.07,.71-.27,3.19-.59,6.38-.8,9.57-.16,2.37-.07,4.75-.29,7.11-.57,6.02-1.29,12.03-1.89,18.05-.37,3.69-.61,7.4-.92,11.1-.04,.53-.13,1.06-.2,1.6-.77-.12-1.39-.29-2.02-.3-.62,0-1.23,.15-1.85,.22-.11,.01-.25,0-.34-.05-.77-.46-1.76-.77-2.27-1.44-1.15-1.53-2.07-3.24-3.12-4.94l1.15-.33-1.31-1.06c.03-.35,.07-.7,.08-1.05,0-.09-.1-.18-.28-.46l-.55,1.03c-.75-1.23-1.38-2.25-1.99-3.29-.09-.16-.1-.38-.09-.58,.02-.74-.41-1.26-.83-1.78-.18-.22-.41-.42-.78-.79l1.23-.17,.88,1.34,.29-1.73,1.48-.23-1.34-1.11v-1.28c-.63,.82-1.43,.99-2.4,.87,.16,.72,.76,1.46-.48,1.87-.53-1.08-1.08-2.16-1.6-3.26-1.33-2.82-2.21-5.8-2.97-8.79-.38-1.51-.35-3.14-.37-4.71-.04-5.22-.22-10.45,.89-15.6,.27-1.25,.25-1.28,1.62-1.24l.82,1.23,.34-1.7,1.5-.23-1.37-1.05v-1.63c-.66,.83-1.18,1.59-2.13,.95,.01-.17,0-.29,.03-.41,.12-.54,.26-1.08,.38-1.62,.12-.54,.21-1.09,.33-1.63,.12-.54,.09-1.28,.43-1.55,.65-.52-.06-.96,.14-1.48,.47-1.21,.66-2.52,1.01-3.77,.81-2.93,1.63-5.86,2.48-8.78,.12-.4,.4-.76,.58-1.08,0-.39-.07-.76,.01-1.1,.42-1.85,.95-3.67,1.29-5.53,.18-.98,.56-1.7,1.36-2.23,.46-.31,.93-.59,1.39-.9,.14-.09,.24-.24,.49-.49-1.13-.03-1.65,.87-2.6,1.07,.2-.81,.41-1.56,.58-2.32,.15-.65,.3-1.31,.37-1.97,.02-.21-.2-.44-.31-.66-.17,.19-.35,.37-.5,.57-.06,.09-.05,.23-.08,.34-.13,.58-.27,1.15-.4,1.73-.41,1.73-.81,3.46-1.24,5.18-.35,1.4-.72,2.79-1.07,4.14-.79-.35-.81,.56-1.25,.63-.48,.08-.97,.11-1.54,.16l.48,1.05-.74,1.19,1.37-.16c.68,.76,.77,1.52,.49,2.45-1,3.37-1.91,6.76-2.87,10.15-.01,.04-.11,.06-.19,.1l-.07-.95c-.65,.86-1.55,.88-2.52,.89l.48,1.06-.74,1.19,1.33-.16c.94,.92,.99,1.88,.7,3.05-.95,3.84-1.61,7.73-1.83,11.69-.23,4.2-.08,8.38,.18,12.56,.05,.81-.5,1.56-1.3,1.64-.3,.03-.61,0-1.28,0,1.04,.9,.4,1.54-.03,2.3l1.37-.16,.92,1.35,.37-2.08c.32,.39,.61,.6,.58,.73-.21,.92,.28,1.7,.48,2.52,.32,1.3,.64,2.62,1.13,3.86,.59,1.48,1.36,2.89,2.06,4.34-2.41,2.05-4.33,4.39-5.72,7.22-.19-.18-.36-.28-.45-.44-.92-1.61-1.74-3.28-2.76-4.83-.64-.97-.71-2.44-2.18-2.78-.07-.02-.13-.19-.16-.3-.67-1.86-1.49-3.67-1.97-5.58-.69-2.76-1.19-5.56-1.64-8.37-.37-2.3-.56-4.63-.82-6.95l1.68,.15Zm-12.88-29.97l.23,1.45c.53,.55,.96,1,1.5,1.55l.25-1.5,1.52-.26-1.33-1.08,.08-1.27c-.16,.02-.32,0-.36,.05-.45,.64-1,.98-1.81,.75-.06-.02-.18,.17-.27,.26,.03,.03,.05,.07,.08,.08,.03,.01,.07,0,.11-.01h0Zm23.92-40.19l-1.34-1.09,.1-1.52c-.77,.86-1.51,1.28-2.57,1.01l.45,1.23-.79,1.1,1.44-.15,.88,1.3,.35-1.71,1.48-.17Zm-8.85,87.01l1.54-.09,.9,1.31,.3-1.72,1.39-.17c-.62-.78-1.87-1.16-1.13-2.52-.77,.7-1.42,1.23-2.49,.97,.47,.83,.31,1.49-.5,2.21Zm-8.22,22.61l.25-1.69,1.49-.26-1.27-1.06v-1.41c-.76,.56-1.33,1.4-2.63,.68,.57,1.09,.56,1.8-.29,2.54l1.53-.14,.92,1.34Zm20.83-25.27l1.5-.2,.91,1.36,.3-1.73,1.44-.21-1.25-1.07v-1.45c-.73,.7-1.39,1.31-2.62,.8,.62,1.03,.5,1.73-.28,2.5Zm-33.51,4.03c.28-.05,.49-.09,.71-.12,.19-.03,.38-.04,.6-.06l.9,1.36,.3-1.74,1.28-.18c-.1-.6-.75-.63-1.08-1.16v-1.46c-.7,.88-1.46,1.23-2.41,1.06q.26,1.13-.3,2.31Zm27.97,15.62l-1.29-1.05v-1.44c-.74,.63-1.37,1.31-2.59,.76,.54,1.03,.51,1.74-.34,2.49l1.53-.18,.91,1.4,.3-1.81,1.48-.16Zm18.51-1.89l-1.32-1.09v-1.59c-.65,1.02-1.42,1.27-2.45,1.1,.39,.85,.44,1.57-.5,2.33l1.57-.17,.78,1.17c.53-.45,.13-1.11,.53-1.6l1.38-.15Zm-16.6,10.7c-.86-.69-1.73-1.25-1.31-2.47-.69,.67-1.37,1.13-2.42,.82,.23,.87,.56,1.66-.49,2.24l.3,.11,1.23-.15,.92,1.37,.29-1.79,1.5-.13Zm-7.32-109.51c-.72,.93-1.44,1.32-2.54,1.02l.44,1.24-.75,1.14,1.42-.18,.91,1.35,.27-1.72,1.52-.2-1.33-1.09,.08-1.56Zm10.54,62.94l.91,1.35,.3-1.69,1.55-.28c-1.05-.6-1.71-1.22-1.48-2.39-.31,.27-.57,.64-.93,.79-.37,.16-.83,.11-1.34,.16,.09,.7,.65,1.51-.55,2.02l.35,.2,1.18-.15Zm-23.76-40.51l.41,1.2-.73,1.16,1.37-.21,.95,1.31,.29-1.69,1.5-.18-1.3-1.08v-1.61c-.67,1.04-1.44,1.29-2.48,1.09Zm-.62,71.42c.39,1.01,.55,1.75-.47,2.47l1.61-.1,.9,1.32,.29-1.73,1.37-.16c-.28-.58-.81-.71-1.19-1.12v-1.5c-.72,.74-1.3,1.45-2.5,.82Zm18.12,22.37c.2,.94,.67,1.73-.49,2.25l.29,.14,1.27-.08,.9,1.32,.29-1.73,1.36-.16c-.27-.58-.81-.71-1.24-1.18v-1.53c-.66,.98-1.29,1.46-2.38,.97Zm-17.02-29.2l.81,1.21c.52-.46,.14-1.11,.52-1.6l1.38-.15-1.32-1.09v-1.59c-.66,1.01-1.42,1.27-2.45,1.09,.39,.85,.45,1.57-.31,2.17l.19,.16,1.16-.2Zm33.59-54.31v-1.56c-.68,.9-1.41,1.27-2.5,.99l.43,1.24-.75,1.14,1.41-.18,.92,1.34,.27-1.72,1.55-.2-1.33-1.04Zm-2.98,21.11c-.68,.86-1.35,1.35-2.46,.98,.35,.89,.51,1.63-.51,2.35l1.61-.1,.9,1.32,.28-1.73,1.37-.16c-.28-.57-.82-.71-1.2-1.12v-1.53Zm4.53-36.35l.44,1.2-.78,1.1,1.44-.15,.88,1.3,.35-1.71,1.48-.17c-.54-.44-.92-.75-1.34-1.09l.08-1.24-.21-.17c-.51,.94-1.34,1.04-2.32,.93Zm-27.66,104.6l-1.3-1.05v-1.5c-.71,.79-1.44,1.21-2.49,.97,.34,.86,.59,1.61-.44,2.18l.27,.13,1.25-.16,.92,1.39,.29-1.8,1.49-.16Zm-2.34-103.24l1.41-.18,.92,1.34,.27-1.72,1.55-.2-1.33-1.04v-1.54c-.7,.83-1.38,1.32-2.53,.88l.47,1.33-.75,1.13Zm2.44,72.08l.3-1.73,1.47-.25-1.32-1.08,.06-1.46c-.76,.73-1.4,1.4-2.7,.8,.65,1.05,.62,1.73-.29,2.46l1.6-.08,.86,1.34Zm27.78-3.86c-.68,.86-1.35,1.35-2.46,.98,.35,.89,.51,1.63-.51,2.35l1.61-.1,.9,1.32,.28-1.73,1.37-.16c-.28-.58-.82-.71-1.19-1.12v-1.53Zm-21.25-73.69l.27-1.73,1.52-.2-1.33-1.1,.09-1.55c-.75,.94-1.49,1.35-2.62,.99l.51,1.26-.77,1.15,1.43-.18,.89,1.36Zm10.31,25.39l.48,1.27-.8,1.11,1.45-.16,.87,1.31,.35-1.71,1.48-.19-1.34-1.09,.1-1.24-.22-.14c-.53,.87-1.31,1.11-2.36,.84Zm12.63,34.75q.27,1.13-.37,2.12l1.39-.06,.69,1.1h.22l.24-1.48,1.49-.24-1.32-1.09,.06-1.44q-1.06,.94-2.4,1.1Zm-8.14,38.44c.3,.82,.48,1.57-.22,2.29l1.27-.12,.91,1.35,.29-1.76,1.47-.19c-.85-.66-1.69-1.23-1.35-2.45-.6,.89-1.39,.99-2.37,.87Zm-16.95-74.96l.29-1.68,1.52-.25-1.34-1.08,.11-1.45c-.79,.67-1.42,1.36-2.59,.89l.46,1.27-.69,1.02h1.41l.83,1.29Zm-11.77,7.36c-.78,.77-1.45,1.37-2.58,.96l.45,1.26-.7,1.01h1.4l.86,1.26,.27-1.66,1.51-.26-1.34-1.08,.12-1.49Zm26.42-38.03l.43,1.07-.74,1.08,1.4-.08,.9,1.28,.27-1.68,1.55-.2-1.33-1.06v-1.35q-1.29,.85-2.49,.95ZM17.94,165.19l-.71,1.05h1.41l.84,1.3,.28-1.68,1.52-.26-1.33-1.08,.1-1.45c-.78,.66-1.41,1.37-2.43,.94l-.11,.21,.44,.97Zm47.71-56.02l-.72,1.11,1.39-.08,.9,1.28,.27-1.68,1.53-.2-1.32-1.07v-1.56c-.7,.94-1.46,1.29-2.53,1.06l.48,1.15Zm-9.85-29.16l.07-1.33q-1.37,.87-2.51,.95l.42,1.08-.74,1.07,1.41-.07,.9,1.28,.28-1.68,1.27-.16,.08-.23-1.18-.91Zm-19.55,10.82l-1.31-1.07v-1.57c-.69,.97-1.46,1.29-2.53,1.08l.48,1.15-.71,1.12,1.41-.09,.84,1.32,.3-1.72,1.52-.21Zm37.27-27.06l-1.31-1.07v-1.57c-.69,.97-1.46,1.29-2.53,1.08l.48,1.15-.71,1.12,1.41-.09,.84,1.32,.3-1.72,1.52-.21ZM19.83,174l-.74,1.07,1.41-.08,.9,1.28,.27-1.68,1.56-.2-1.34-1.06v-1.55c-.71,.86-1.44,1.31-2.54,1l.48,1.21ZM54.48,72.43c.18-.02,.36-.06,.74-.13l-1.32-1.09,.09-1.45c-.78,.65-1.41,1.35-2.45,.93l.3,1.82,1.65,1.51,.21-1.52c.32-.03,.55-.05,.78-.08Zm-.05-15.9c.16,.5,.33,.81,.33,1.12,0,.28-.18,.57-.3,.91l2.04,.44,.25-.65,1.45-.16c-.89-.67-1.7-1.25-1.36-2.46-.64,.81-1.36,1.09-2.41,.79Zm-31,56.17c-.22-.33-1.09-.19-.94-1.31l-.95,1.51,1.32-.1,.9,1.28,.28-1.68,1.52-.2-1.33-1.1,.09-1.43-1.55,1.25,.98,.06,.7,.79-1.01,.92Z"/><path class="e" d="M97.25,87.79l1.54-.17-1.29-1.06v-1.49c-.71,.78-1.44,1.21-2.5,.96,.39,.87,.57,1.61-.42,2.2l.28,.12,1.15-.15c.6,.26,.38,1.29,1.27,1.11-1.26,1.18-2.53,2.36-3.78,3.53-1.18-.15-.35-1.16-.81-1.93-.41,1.25-1.4,1.04-2.31,1.15l.42,1.12-.75,1.14,1.43-.2,1.03,1.55c-1.86,3.68-2.4,7.77-3.12,11.8-1.16-.19-.14-1.19-.73-1.69-.5,.93-1.3,1.04-2.24,.8l.21,2.01,1.72,1.31c.42-.42-.29-1.53,.97-1.49,0,.36,.03,.67,0,.97-.41,3.57-.83,7.14-1.25,10.71-.18,1.49-.51,2.98-.52,4.47-.04,5.62,.02,11.23,.04,16.85,0,3.3,.77,6.51,1.19,9.76,.17,1.31-.46,2.24-1.84,2.21-.18,0-.35,.03-.6,.06l.43,1.09-.69,1.08,1.35-.07c.44,.31,.37,.96,1,1.05l.11-1.68-.17-.02-.26,.59-1-.55-.12-1.2c.72-.09,1.39-.21,1.79,.39l.13-1.26h.26l1.74,8.04c-.78,.9-1.47,1.56-2.74,1.2l.48,1.2-.72,1.09,1.4-.08,.91,1.3,.26-1.94-.18-.05-.34,.65-.99-.55-.13-1.32,1.77,.24,.2-.73,.24,.04c.73,6.28,1.45,12.57,.64,18.99-1.08-.5-1.97-1.01-2.93-1.34-1.69-.57-3.45-.83-5.25-.8-1.9,.04-3.79-.04-5.66-.43-1.74-.36-3.43-.83-5.02-1.68,.05-.53,.08-.96,.14-1.39,.03-.19,.11-.37,.18-.56,1.18-3.16,1.99-6.4,2.22-9.79,.05-.77,.35-1.52,.49-2.29,.25-1.39,.6-2.79,.64-4.19,.06-1.89-.2-3.79-.2-5.68,0-2.25,.14-4.5,.22-6.75,0-.04-.01-.09,0-.12,.13-.17,.24-.44,.41-.48,.17-.04,.44,.1,.57,.25,.22,.25,.36,.57,.68,1.08,.15-.77,.25-1.29,.34-1.78l1.45-.22-1.31-1.03v-1.49c-.66,.62-1.15,1.38-2.09,.83,0-1.51-.04-3.01,0-4.5,.09-2.84,.26-5.68,.36-8.53,.12-3.5,.12-7.01,.31-10.51,.14-2.6,.43-5.2,.75-7.79,.19-1.56,.57-3.1,.89-4.81,.23,.29,.33,.44,.45,.57,.11,.12,.26,.2,.43,.34l.25-1.55,1.5-.23-1.34-1.04,.07-1.39-.92,.49c.17-.77,.33-1.38,.43-2.01,.56-3.83,1.07-7.67,1.68-11.5,.3-1.87,.76-3.71,1.16-5.56,.11-.48,.3-.95,.45-1.44l.74,.35,.24-1.48,1.46-.25-1.08-1.01c.49-.21,.83-.41,1.2-.5,.56-.13,1.25-.43,1.7-.24,2.02,.87,4.19,1.15,6.28,1.69,2.18,.56,4.39,.97,6.67,.9,1.43-.04,2.7-.38,3.94-1.09,2.42-1.38,4.32-3.33,5.97-5.52,1.43-1.89,2.7-3.9,3.19-6.29,.07-.32,.27-.62,.44-.98,2.56,.73,5.03,1.41,7.49,2.13,.3,.09,.55,.34,.85,.53l-.81,1.3,1.4-.19,.91,1.31,.3-1.73,1.54-.15-1.38-1.25v-1.15l-.18-.09-.65,1c-3.12-1.47-6.03-2.85-8.95-4.23,.15-1.08,.33-2.04,.42-3.02,.11-1.28,.66-2.18,1.93-2.56,.3-1.53,.85-1.98,2.35-1.96,.32,0,.63,.02,.95,.03,2.09,.07,4.19,.16,6.28,.21,.91,.02,1.82-.14,2.72-.07,1.97,.15,3.93,.45,5.9,.59,1.38,.1,2.77,.05,4.15,.03,5.65-.1,11.29-.77,16.95-.08,2.43,.3,4.88,.5,7.32,.76,.23,.02,.51,.03,.68,.16,.18,.13,.27,.4,.38,.56l1.17-.09,.85,1.25,.32-1.35c3.1-.08,9.69,1.23,10.97,2.18-.69,1.08-1.24,2.22-1.22,3.53,.02,1.42,.11,2.84,.18,4.26,.02,.46,.07,.92,.12,1.59-7.71-.82-15.33-.43-23.04-.7l.13-1.58,1.53-.22-1.34-1.06,.08-1.27c-.72,.7-1.52,.95-2.56,.8l.47,1.17-.7,1.03q1.56,0,1.79,1.04c-.96,0-1.9-.04-2.84,0-1.34,.07-2.68,.16-4.01,.31-1.33,.15-2.65,.41-3.98,.59-.7,.09-.84-.08-.81-.77,.01-.25,0-.5,0-1.04-.67,1.03-1.48,1.28-2.58,1.11l.51,.81c.53-.58,.69-.61,1.71-.3q-.38,.42-.79,.47c-4.2,.47-8.4,.91-12.48,2.1-1.51,.44-3.09,.68-4.59,1.16-3.01,.97-5.97,2.09-8.97,3.06-2.22,.72-4.47,1.37-6.51,2.51-1.62,.9-3.14,1.98-4.73,2.92-2.12,1.26-4.01,2.8-5.84,4.43v-1.55Zm-13.51,11.07l.88,.16-.3,1.19c.81,.1,1.67,.06,2.15,.96l.24-1.48,1.51-.2-1.34-1.09,.08-1.52c-.74,.82-1.38,1.39-2.31,.88l-.92,1.1Zm-.25,16.08l-1.32-1.09v-1.36q-1.11,.85-2.45,.93l.38,1.11-.73,1.16,1.4-.2,.91,1.32,.29-1.74,1.51-.14Zm38.77-52.39l.1-1.47c-.79,.74-1.47,1.36-2.61,.85l.49,1.34-.79,1.1,1.44-.15,.88,1.3,.35-1.71,1.48-.17-1.34-1.09Zm-38.52,76.91c.27,.4,.52,.78,.92,1.39l.29-1.75,1.47-.23-1.27-1.03v-1.5c-.71,.79-1.44,1.21-2.53,.96,.5,.89,.43,1.59-.04,2.34l1.16-.19Zm-6.08,14.89l1.59-.15c.27,.4,.52,.77,.91,1.35l.29-1.76,1.47-.18c-.86-.67-1.69-1.23-1.3-2.45-.67,.71-1.37,1.11-2.62,.79,.65,.98,.56,1.64-.34,2.4Zm6.77-26.33c-.69,.64-1.34,1.2-2.45,.81,.3,.88,.51,1.63-.2,2.33l1.27-.07,.89,1.32,.3-1.69,1.55-.28c-1.05-.6-1.72-1.21-1.37-2.4Zm84.35-59.67l.13-1.47c-.8,.72-1.45,1.37-2.6,.93l.45,1.27-.69,1.02h1.41l.83,1.28,.29-1.67,1.51-.26-1.34-1.08Zm-38.33,1.66l.48,1.16-.72,1.11,1.39-.08,.9,1.28,.27-1.68,1.54-.2-1.32-1.07v-1.57c-.7,.93-1.45,1.31-2.53,1.05Zm-49.14,100.99h1.42l.86,1.24,.28-1.67,1.52-.21-1.35-1.13,.11-1.5c-.77,.82-1.46,1.37-2.58,1l.46,1.25-.71,1.02Zm80.99-104.4l-1.34-1.09,.09-1.44c-.46,.38-.76,.75-1.13,.9-.4,.16-.89,.11-1.44,.15l.47,1.06-.7,1.04h1.4l.84,1.3,.28-1.7,1.53-.23Zm-22.6-4.25c-.78,.77-1.45,1.37-2.58,.96l.45,1.26-.7,1.01h1.4l.86,1.26,.27-1.66,1.51-.26-1.34-1.08,.12-1.49Zm-53.48,27.67v-1.57c-.71,.88-1.44,1.31-2.54,1.02l.49,1.21-.74,1.08,1.4-.08,.9,1.28,.27-1.68,1.28-.16,.07-.23-1.13-.85Z"/><path class="e" d="M86.58,68.92l1.45,.49c0-.59,0-1.11,0-1.63,0-.97,0-1.94,0-2.91l-.02,.02c1.28,.52,2.53,1.13,3.84,1.54,2.67,.82,5.14,2.03,7.53,3.43,.44,.26,.91,.48,1.38,.67,.43,.17,1.3-.12,1.5-.58,.19-.43,.46-.9,0-1.41-.83-.94-1.51-1.95-2.74-2.52-.96-.45-1.85-.89-2.89-.64-.9,.22-1.71,0-2.53-.26-1.95-.62-3.88-1.36-5.96-1.45-.06,0-.12-.09-.25-.2-.11-1.62-.16-3.31,.17-5.03h1.55c.28-.49,.16-.87-.36-1.01-.11-.03-.34,.35-.59,.63-3.34-1.01-6.08-3.1-8.55-5.62,2.37,1.95,4.91,3.62,7.85,4.85,.35-1.47,.67-2.84,1-4.22,.12-.5,.21-1.01,.4-1.48,.66-1.55,1.08-3.19,1.99-4.66,.64-1.04,1.17-2.12,2.15-2.91,.35-.28,.65-.74,.77-1.17,.28-1.04,.96-1.77,1.83-2.22,1.4-.71,2.84-1.45,4.35-1.79,1.6-.36,3.3-.36,4.78,.73,.4,.3,.9,.47,1.36,.7l-.03-.04c.77,.79,1.6,1.53,2.29,2.38,2.01,2.49,3.35,5.38,4.42,8.34,1.07,2.95,.93,6.15,1.11,9.26,.01,.26-.03,.61-.19,.76-1.13,1.1-2.24,2.24-3.97,2.39-.77,.07-1.51,.36-2.28,.52-.21,.04-.46-.03-.66-.12-1.08-.48-2.21-.9-3.22-1.5-.68-.41-1.14-.22-1.58,.21-.76,.74-1.23,1.63-1.19,2.74,.04,.93,.12,1.03,1.06,1.26,.91,.22,1.82,.44,2.64,.64,.16,.58-.15,.67-.43,.84-1.16,.73-1.15,.74-.09,1.61,.05,.04,.05,.14,.07,.2-.2,.43-.97,.75-.5,1.29,.46,.53,.93-.09,1.34-.32,.93-.51,1.8-1.16,2.76-1.61,.53-.25,.75-.55,.71-1.14l4.47,1.07c-.32,1.06-.49,2.04-.89,2.92-1.07,2.35-2.51,4.48-4.34,6.33-2.47,2.5-5.09,4.54-8.97,4.25-2.48-.19-4.53-1.06-6.2-2.78-1.68-1.72-2.51-3.99-3.66-6.11-.68,.27-1.1-.18-1.46-.73l.47,.21c-.2-.44-.42-.82-.95-.8l-1.41-2.12,.75-1.34-.03,.03Zm8.68-8.8c.98,.62,2.41,.19,2.98-.81,1.03-1.81,.85-4.14-.46-5.76-1.11-1.38-2.75-1.31-3.71,.19-.59,.91-.83,1.94-.86,3.52-.08,1.09,.83,2.09,2.05,2.86Zm12.33-.67c.27,.89,.99,1.32,1.86,1.41,.87,.1,1.35-.5,1.76-1.17,.76-1.25,.64-2.56,.22-3.87-.09-.29-.28-.57-.48-.81-1.38-1.57-2.82-1-3.38,.52-.21,.58-.31,1.21-.46,1.78,.17,.76,.27,1.46,.48,2.14Zm-14.36-9.22c.12-.13,.28-.28,.44-.31,1.32-.18,2.64-.43,3.96-.45,.64-.01,1.3,.42,1.93,.65,.1-1.01-.28-1.64-1.07-2.16-1.63-1.07-3.1-.43-4.57,.31-.38,.19-.76,.44-1.05,.74-.29,.3-.46,.7-.71,1.08,.33,.36,.65,.57,1.08,.13Zm16.85,.62l.35,.69,1.74-.44c.02-.13,.11-.32,.05-.41-.76-1.11-1.72-1.93-3.11-2.15-.58-.09-.93,.1-1.07,.64-.14,.56-.24,1.14-.38,1.81,.94,.22,1.7,.59,2.42-.13Zm-12.04,20.93c2.06,.47,4.12,.98,6.2,1.4,.94,.19,1.89,0,2.78-.39,.24-.11,.43-.35,.82-.69-.46-.06-.67-.16-.81-.1-1.68,.76-3.34,.23-4.99-.1-1.3-.27-2.58-.68-3.99-1.06v.95Zm-9.84,.05c-.75-.62,.73-1.26-.06-1.87l-.54,1.03c-.75-.34-.22-.9-.41-1.32l-.68,.59c.46,1.24,1.45,1.92,2.51,2.65l-.24-1.27-.57,.18Z"/><path class="e" d="M105.19,3.18c.05,.45-.04,1.21,.17,1.3,.67,.31,.5,.84,.56,1.3,.2,1.77,.33,3.54,.57,5.3,.14,1.04,.18,1.99-.68,2.57,.43,.63,.96,1.12,1.13,1.72,.54,1.86,1.1,3.73,1.36,5.64,.33,2.46,.36,4.96,.55,7.44,.07,.94-.25,1.68-.98,2.27l.04-.03-.38,.12c.25,.43,1,.45,.83,1.11v-.03l-.15,.71,1.05-.26c.09,.44,.19,.81,.25,1.19,.31,1.85,.63,3.7,.92,5.55,.04,.27-.11,.57-.17,.85-.47-.66-.94-1.32-1.4-1.97l-.74-1.35,.04,.05c-.53-.67-1.01-1.39-1.6-2-.24-.25-.71-.35-1.08-.37-1.02-.05-2.04-.02-3.22-.02l.54-.63c-.8-.32-1.45-.78-1.26-1.88-.62,.7-1.2,1.14-2.18,.87,.1,.26,.15,.38,.2,.51,.28,.59,.14,.91-.47,.94-.55,.03-1.1-.04-1.66-.07l.05,.02c-.89-.28-1.78-.4-2.66,0l.05-.04c-.49,.15-.99,.25-1.45,.46-1.8,.81-3.55,1.73-5.38,2.45-.97,.39-2.05,.56-3.1,.65-1.41,.12-2.84,.07-4.27,.07-.44,0-.89-.1-1.56-.19,.3-.53,.47-.86,.67-1.18,1.22-1.89,2.45-3.78,3.66-5.68,.44-.7,.83-1.44,1.71-1.26,.24-.69,.35-1.32,.66-1.83,1.98-3.28,4-6.54,6.03-9.79,.34-.54,.83-.99,1.34-1.58l.88,1.5,.2-1.47,1.17-.26c-.13-.18-.17-.3-.26-.36-1.25-.92-1.34-1.46-.5-2.72,1.25-1.87,2.89-3.46,3.84-5.53,.1-.21,.3-.37,.43-.57,.98-1.43,1.98-2.85,2.94-4.3,.46-.69,.85-1.43,1.31-2.12,.13-.2,.39-.41,.62-.44,.68-.09,.93-.69,.8-1.08-.33-.98,.46-1.24,.86-1.77,.08,.46,.09,.89,.08,1.32,0,.91-.08,1.82,.01,2.72,.08,.78,.18,1.51-.38,2.15v-.03Zm-20.85,32.71l.45,.69c0-.93,.09-1.61,1.26-1.78l-1.35-.58-.14-.87-1.44,1.11v1.57l1.21-.14h0Zm17.3-23.19l.17-.1-.12-1.23,.99-.58v-.21l-1.3-.18-.94-1.74c-.54,1.03-.72,2.04-1.98,2.34l1.05,.82,.19,1.31,.79-1.26h.38l.77,.82Zm2.36,9.31c-.83-.72-1.71-1.27-1.29-2.49-.69,.67-1.35,1.2-2.45,.81,.32,.88,.51,1.63-.19,2.33l1.27-.08,.9,1.31,.3-1.74,1.47-.15Zm-12.25,5.84l-1.79,.91-.43,1.88,1.17-.32,.65,1.16,.26-1,1.03-.15c-.8-.72-.72-1.65-.89-2.48Z"/><path class="e" d="M110.92,42.61c-.43-.41-.82-.77-1.18-1.15-.54-.56-1.05-1.14-1.58-1.71l-.46-.89c-.06,.44,.06,.75,.49,.86,.8,1.31,1.37,2.78,2.66,3.78l-.34,.65c-1.03-1.12-2.01-2.23-3.04-3.3-.25-.26-.62-.4-.94-.6l.03,.04c-.46-.35-.9-.71-1.37-1.04-1.87-1.28-3.88-1.13-5.9-.5-.79,.25-1.57,.56-2.31,.91-.53,.25-.99,.3-1.57,.1-.5-.17-1.14-.29-1.61-.13-1.05,.36-2.1,.28-3.15,.36-.98,.07-1.95,.27-2.93,.39-.58,.07-1.16,.15-1.74,.15-.68,0-1.37-.1-1.98,.31,1.18,.08,2.36,.13,3.53,.07,1.41-.07,2.82-.22,4.24-.33,.58-.05,1.17-.08,1.75-.15,.6-.08,1.21-.28,1.71,.1-1.48,1.99-2.93,3.94-4.33,5.82-1.2-.17-2.44-.32-3.67-.54-1.36-.24-2.71-.5-4.04-.84-1.35-.34-2.56-1.04-3.69-1.84-.74-.52-1.51-1.02-2.15-1.64-.29-.28-.46-.84-.43-1.26,.1-1.33,1.4-2.34,2.76-2.31,1.86,.05,3.71,.09,5.57,.12,1.24,.02,2.43-.28,3.56-.77,.54-.24,1.1-.45,1.63-.71,1.55-.75,3.11-1.49,4.47-2.58l-.05,.04h2.66l-.05-.02,3.24,.57-.04-.03c.74,.06,1.48,.12,2.21,.16,.31,.02,.63,.03,.95,.02,1.65-.08,3.14,.18,4.07,1.76,.05,.08,.19,.1,.3,.15l-.04-.05,.74,1.35c.47,.66,.94,1.32,1.4,1.97q.93,1.93,.63,2.67Zm-28.97-.87c.07,.09,.14,.19,.22,.27,.08,.08,.18,.15,.27,.23,1.25,1,2.72,1.55,4.21,2.08,.36,.13,.76,.24,.93-.43-2.09-.37-3.81-1.28-5.63-2.15Zm17.94-4.17c-1.23,.22-2.35-.91-3.61-.28,1.51,.35,2.94,1.24,4.57,.61v-.26c-.31-.03-.65-.13-.96-.07Z"/><path class="e" d="M56.33,151.13c-1.39,.84-2.52,1.81-3.38,3.15-.78,1.22-1.76,2.31-2.72,3.53,1.42,1.59,2.95,3.06,4.59,4.41,1.84,1.51,3.8,2.83,6.05,3.67,1.6,.59,3.23,1.04,4.97,.82,.22-.03,.46,.04,.67,.1,.59,.17,1.17,.4,1.77,.54,.57,.13,1.03-.08,1.19-.69,.13-.53,.21-1.07,.29-1.47,.46-.35,.92-.59,1.21-.96,.34-.43,.17-1.04-.29-1.2-1.06-.36-2.02-1.05-3.21-.96-.58,.05-1.16,.14-1.74,.21-.26,.03-.57,.15-.78,.06-1.3-.58-2.6-1.15-3.37-2.47-1.48-2.52-2.99-5.01-4.49-7.52-.24-.4-.49-.8-.76-1.23Z"/><path class="e" d="M102.03,65.68c6.64,1.7,13.16,3.36,19.89,5.08-.42-.25-.67-.41-.94-.54-2.49-1.18-4.98-2.39-7.49-3.52-1.33-.6-2.73-1.03-4.07-1.59-1.05-.43-2.07-.95-3.1-1.42-.64-.3-1.29-.6-1.94-.87-.74-.3-1.13-.21-1.66,.4-.62,.72-.96,1.53-.69,2.46Z"/><path class="e" d="M55.14,150.32c-.23-.28-.1-.94-.85-.98-.08,0-.13-.57-.23-1.02-1.24,1.04-2.33,2.06-3.22,3.25-.62,.82-1.19,1.68-1.69,2.58-.26,.46-.4,1.04-.43,1.57-.01,.27,.29,.66,.56,.8,.16,.08,.59-.13,.77-.33,.74-.82,1.42-1.7,2.14-2.53,.95-1.1,1.93-2.18,2.95-3.33Z"/><path class="e" d="M111.44,65.6l2.26,.81c.52-1.05,.72-2.36,.54-3.72-1.28,.63-2.27,1.43-2.8,2.91Z"/><path class="e" d="M87.99,64.89c-.22-.21-.46-.39-.64-.63-.09-.12-.06-.33-.09-.52l-5.03-1.14-.05,.17c1.95,.7,3.89,1.4,5.84,2.1l-.02,.02Z"/><path class="e" d="M76.54,87.02l.12,1.21,.92,.51,.95-.95-.62-.77h-1.37Z"/><path class="e" d="M57.16,144.92h-1.36l.11,1.25,.89,.45,.99-.88-.61-.82Z"/><path class="e" d="M39.5,83.73l.14,1.18,.87,.48,.97-.88c-.38-.84-1.07-1-1.99-.78Z"/><path class="e" d="M19.92,124.52h-1.4l.13,1.24,.84,.44,1.01-.85-.58-.82Z"/><path class="e" d="M53.74,111.79l-.62-.82h-1.36l.11,1.25,.89,.45,.99-.88Z"/><path class="e" d="M61.86,51.55l.85,.44,.98-.85-.57-.82h-1.42l.16,1.23Z"/><path class="e" d="M35.84,129.13h-1.42l.13,1.23,.85,.46,.99-.84-.55-.85Z"/><path class="e" d="M91.14,93.54l.87,.5,1-.88-.61-.84h-1.36l.09,1.21Z"/><path class="e" d="M49.13,134.82h-1.42l.13,1.22,.85,.45,.97-.83-.54-.84Z"/><path class="e" d="M154.28,69.91l-.62-.85h-1.37l.11,1.22,.86,.49,1.02-.86Z"/><path class="e" d="M76.9,143.63l.15,1.22,.84,.45,.99-.85-.56-.82h-1.42Z"/><path class="e" d="M79.04,75.02l.91,.54,.82-.95-.45-.8h-1.4l.11,1.21Z"/><path class="e" d="M77.15,66.25l.93,.53,.78-.97-.42-.78h-1.41l.12,1.23Z"/><path class="e" d="M50.08,104.92l.93,.56,.75-.98-.38-.77h-1.42l.11,1.2Z"/><path class="e" d="M38.6,117.32l1-.9-.62-.84-1.22,.07v1.14l.83,.52Z"/><path class="e" d="M89.01,107.91l-.63-.84h-1.32c-.11,.87,.27,1.37,.91,1.62l1.04-.78Z"/><path class="e" d="M54.12,90.22l1,.58c.03-.61,1.08-1.04,.2-1.79h-1.32l.12,1.21Z"/><path class="e" d="M35.72,106.79l.12,1.24,1.04,.57,.25-1.69-1.42-.12Z"/><path class="e" d="M70.01,54.61c-.45-.43-.75-1-1.51-.82l.1,1.19,.98,.55,.44-.92Z"/><path class="e" d="M73.81,110.95l-1.28-.12,.1,1.26,.93,.36,.25-1.5Z"/><path class="e" d="M79.41,106.61l1.04-.85-.64-.85c-.74,.43-.82,.82-.4,1.7Z"/><path class="e" d="M93.8,16.31l.68-.64-.75-1.13-.66,1.17,.73,.6Z"/><path class="e" d="M108.39,31.89h.93l-.23-1.62c-.43,.16-.82,.31-1.21,.46l.04-.03c.17,.15,.35,.3,.51,.47,.27,.27,.25,.53-.05,.76v-.03Z"/><path class="e" d="M123.48,72.99l.34-.84q-1.05-.45-1.37,.22l1.03,.62Z"/><path class="e" d="M83.47,82.79l1.12-1.02c-.36-.08-.74-.3-.93-.19-.49,.29-.41,.77-.19,1.21Z"/><path class="e" d="M86.58,68.92l-1.33-1.36c.13,.81,.71,1.11,1.35,1.33l-.02,.02Z"/><path d="M87.75,72.94l.47,.21c-.2-.44-.42-.82-.95-.8l.48,.59Z"/><path class="e" d="M77.86,50.05l.52,.78,.13-.08-.5-.79-.15,.09Z"/><path class="e" d="M51.27,112.24l.21-.75-.24-.08-.27,.72,.3,.12Z"/><path class="e" d="M105.19,3.18l.55,1.16,.06-1.31c-.27,.08-.43,.14-.61,.18,0,0,0-.03,0-.03Z"/><path d="M48.89,57.21l-.88-1.3-1.44,.15,.79-1.1-.45-1.23c1.06,.27,1.8-.15,2.57-1.01l-.1,1.52,1.34,1.09-1.48,.17-.35,1.71Zm-.33-1.39l1.02-.86-.62-.85h-1.38l.12,1.21,.86,.5Z"/><path d="M44.87,139.14c-.73,1.36,.51,1.74,1.13,2.52l-1.39,.17-.3,1.72-.9-1.31-1.54,.09c.81-.72,.97-1.38,.5-2.21,1.07,.26,1.72-.28,2.49-.97Zm-.51,1.29h-1.37l.1,1.24,.87,.43,1-.89-.6-.78Z"/><path d="M57.38,136.37v1.45l1.25,1.07-1.44,.21-.3,1.73-.91-1.36-1.5,.2c.78-.77,.9-1.47,.28-2.5,1.23,.51,1.89-.1,2.62-.8Zm-.43,1.32h-1.42l.16,1.22,.84,.45,1-.86-.58-.81Z"/><path d="M23.68,140.33v1.46c.32,.54,.98,.56,1.08,1.16l-1.28,.18-.3,1.74-.9-1.36c-.21,.02-.41,.03-.6,.06-.21,.03-.43,.07-.71,.12q.56-1.18,.3-2.31c.94,.17,1.7-.18,2.41-1.06Zm.15,2.24l-.59-.86h-1.41l.13,1.22,.83,.46,1.04-.82Z"/><path d="M65.54,159.17l-.78-1.17-1.57,.17c.94-.76,.89-1.48,.5-2.33,1.03,.17,1.79-.08,2.45-1.1v1.59l1.32,1.09-1.38,.15c-.4,.49,0,1.15-.53,1.6Zm.2-2.96h-1.42l.15,1.22,.83,.45,1.01-.86-.57-.82Z"/><path d="M44.78,61.26l-1.52,.2-.27,1.72-.91-1.35-1.42,.18,.75-1.14-.44-1.24c1.1,.29,1.82-.09,2.54-1.02l-.08,1.56,1.33,1.09Zm-1.76-1.21h-1.37l.12,1.2,.88,.52,.99-.91-.61-.8Z"/><path d="M52.54,121.5c1.2-.51,.64-1.32,.55-2.02,.51-.05,.97,0,1.34-.16,.36-.15,.62-.52,.93-.79-.23,1.17,.43,1.79,1.48,2.39l-1.55,.28-.3,1.69-.91-1.35-1.18,.15-.35-.2Zm2.5-1.73h-1.37l.1,1.24,.87,.43,1-.89-.6-.78Z"/><path d="M32.79,81.55l1.3,1.08-1.5,.18-.29,1.69-.95-1.31-1.37,.21,.73-1.16-.41-1.2c1.04,.2,1.81-.05,2.48-1.09v1.61Zm-.46-.15h-1.36l.11,1.21,1.01,.59c.1-.45,.23-.94,1.14-.63l-.9-1.18Z"/><path d="M32.2,153.13c.38,.41,.91,.55,1.19,1.12l-1.37,.16-.29,1.73-.9-1.32-1.61,.1c1.03-.72,.86-1.46,.47-2.47,1.2,.62,1.79-.08,2.5-.82v1.5Zm.16,.69l-.57-.82h-1.4l.12,1.24,.86,.43,.99-.86Z"/><path d="M29.44,145.66c.76-.6,.69-1.32,.31-2.17,1.03,.18,1.79-.08,2.45-1.09v1.59l1.32,1.09-1.38,.15c-.39,.49,0,1.15-.52,1.6l-.81-1.21-1.16,.2-.19-.16Zm1.09-.58l.84,.46,1.02-.84-.56-.82h-1.45l.16,1.2Z"/><path d="M64.16,92.56l-.27,1.72-.92-1.34-1.41,.18,.75-1.14-.43-1.24c1.09,.28,1.82-.09,2.5-.99v1.56l1.33,1.04-1.55,.2Zm-1.62-1.4l.12,1.2,.87,.52,.99-.91-.6-.81h-1.38Z"/><path d="M62.59,115.08l-1.37,.16-.28,1.73-.9-1.32-1.61,.1c1.02-.72,.86-1.45,.51-2.35,1.11,.37,1.78-.12,2.46-.98v1.53c.38,.41,.91,.55,1.2,1.12Zm-2.88,0l.86,.44,.97-.84c-.32-1.02-1.13-.92-1.96-.83l.13,1.23Z"/><path d="M68.46,75.32l-.08,1.24c.42,.34,.8,.65,1.34,1.09l-1.48,.17-.35,1.71-.88-1.3-1.44,.15,.78-1.1-.44-1.2c.99,.11,1.82,0,2.32-.93l.21,.17Zm-.51,1.11h-1.36l.11,1.22,.86,.49,1.02-.87-.63-.84Z"/><path d="M36.21,74.98c1.15,.44,1.83-.05,2.53-.88v1.54l1.33,1.04-1.55,.2-.27,1.72-.92-1.34-1.41,.18,.75-1.13-.47-1.33Zm2.68,1.33l-.62-.84h-1.35l.08,1.21,.87,.5,1.01-.88Z"/><path d="M35.9,148.26c.91-.73,.94-1.4,.29-2.46,1.3,.6,1.94-.07,2.7-.8l-.06,1.46,1.32,1.08-1.47,.25-.3,1.73-.86-1.34-1.6,.08Zm2.5-1.91h-1.36l.11,1.25,.89,.45,.99-.88-.62-.82Z"/><path d="M67.34,148.32l-1.37,.16-.28,1.73-.9-1.32-1.61,.1c1.02-.72,.86-1.45,.51-2.35,1.11,.37,1.78-.12,2.46-.98v1.53c.38,.41,.91,.55,1.19,1.12Zm-2.02,.43l.99-.86-.56-.81h-1.4l.11,1.25c.31,.15,.61,.3,.86,.42Z"/><path d="M38.02,125.35c.97-.45,.93-1.2,.46-2.19,1.13,.37,1.8-.21,2.52-.91v1.46l1.27,1.06-1.49,.26-.25,1.69-.85-1.24-1.68-.15,.03,.02Zm2.53-1.78h-1.38l.13,1.24,.85,.43,1.01-.87-.61-.8Z"/><path d="M42.56,70.79l.77-1.15-.51-1.26c1.12,.36,1.87-.05,2.62-.99l-.09,1.55,1.33,1.1-1.52,.2-.27,1.73-.89-1.36-1.43,.18Zm2.97-1.14l-.6-.83h-1.38l.11,1.2,.86,.52,1-.9Z"/><path d="M57.78,96.67l-.1,1.24,1.34,1.09-1.48,.19-.35,1.71-.87-1.31-1.45,.16,.8-1.11-.48-1.27c1.05,.27,1.83,.03,2.36-.84l.22,.14Zm-1.88,1.11l.11,1.21,.9,.53,.94-.94-.58-.81h-1.38Z"/><path d="M70.16,132.46l1.32,1.09-1.49,.24-.24,1.48h-.22l-.69-1.1-1.39,.06q.64-1,.37-2.12,1.34-.15,2.4-1.1l-.06,1.44Zm-1.67,1.14l.88,.44,.99-.88-.62-.82h-1.38l.13,1.25Z"/><path d="M40.5,94.3l.69-1.02-.46-1.27c1.16,.47,1.8-.21,2.59-.89l-.11,1.45,1.34,1.08-1.52,.25-.29,1.68-.83-1.29h-1.41Zm2.29-1.82h-1.37l.12,1.21,.92,.51,.96-.95-.62-.77Z"/><path d="M32.19,105.51l-1.51,.26-.27,1.66-.86-1.26h-1.4l.7-1.01-.45-1.26c1.13,.4,1.8-.19,2.58-.96l-.12,1.49,1.34,1.08Zm-3,.04l.92,.51,.95-.95-.62-.77h-1.37l.12,1.21Z"/><path d="M59.87,65.31l1.33,1.06-1.55,.2-.27,1.68-.9-1.28-1.4,.08,.74-1.08-.43-1.07q1.19-.1,2.49-.95v1.35Zm-1.72,1.08l.89,.5,.97-.93-.62-.81c-.43,0-.86,0-1.38,0l.14,1.24Z"/><path d="M67.7,106.95v1.56l1.32,1.07-1.53,.2-.27,1.68-.9-1.28-1.39,.08,.72-1.11-.48-1.15c1.07,.24,1.83-.12,2.53-1.06Zm-1.71,2.65l.88,.48,1-.9-.63-.8h-1.37l.13,1.23Z"/><path d="M56.89,81.14l-1.27,.16-.28,1.68-.9-1.28-1.41,.07,.74-1.07-.42-1.08q1.13-.08,2.51-.95l-.07,1.33,1.18,.91-.08,.23Zm-1.86,.48l.95-.96-.64-.79h-1.33l.1,1.24,.92,.51Z"/><path d="M34.42,92.75l-.84-1.32-1.41,.09,.71-1.12-.48-1.15c1.07,.22,1.84-.11,2.53-1.08v1.57l1.31,1.07-1.52,.21-.3,1.72Zm-1.19-1.91l.9,.51,.95-.94-.61-.81h-1.38l.14,1.24Z"/><path d="M71.7,65.69l-.84-1.32-1.41,.09,.71-1.12-.48-1.15c1.07,.22,1.84-.11,2.53-1.08v1.57l1.31,1.07-1.52,.21-.3,1.72Zm-1.29-3.15l.08,1.23,.93,.52,.93-.95-.59-.8h-1.35Z"/><path d="M53.49,74.02l-1.65-1.51-.3-1.82c1.04,.43,1.67-.28,2.45-.93l-.09,1.45,1.32,1.09c-.38,.07-.56,.1-.74,.13-.23,.03-.46,.05-.78,.08l-.21,1.52Zm.61-2.12l-.65-.81h-1.35l.12,1.23,.88,.48,1-.91Z"/><path d="M58.2,58.18l-1.45,.16-.25,.65-2.04-.44c.12-.34,.3-.62,.3-.91,0-.31-.17-.62-.33-1.12,1.05,.3,1.77,.01,2.41-.79-.34,1.21,.48,1.78,1.36,2.46Zm-1.71-1.21h-1.42l.15,1.22,.84,.46,1-.87-.57-.81Z"/><path d="M26.8,95.5l.23,1.45c.53,.55,.96,1,1.5,1.55l.25-1.5,1.52-.26-1.33-1.08,.08-1.27c-.16,.02-.32,0-.36,.05-.45,.64-1,.98-1.81,.75-.06-.02-.18,.17-.27,.26,.03,.03,.05,.07,.08,.08,.03,.01,.07,0,.11,0,.58,0,1.17,0,1.7,0l.65,.81-.96,.96-.7-.39-.7-1.39Z"/><path d="M24.44,111.77l-1.01,.92c-.22-.33-1.09-.19-.94-1.31l-.95,1.51,1.32-.1,.9,1.28,.28-1.68,1.52-.2-1.33-1.1,.09-1.43-1.55,1.25,.98,.06,.7,.79Z"/><path d="M86.98,96.87l-.08,1.52,1.34,1.09-1.51,.2-.24,1.48c-.48-.9-1.33-.86-2.15-.96l.3-1.19-.88-.16,.92-1.1c.93,.51,1.57-.07,2.31-.88Zm.11,2.26l-.59-.84h-1.33c-.15,.89,.3,1.36,.88,1.61l1.04-.77Z"/><path d="M97.28,89.31c-.89,.18-.67-.85-1.27-1.11l-1.15,.15-.28-.12c.98-.59,.8-1.33,.42-2.2,1.06,.24,1.79-.18,2.5-.96v1.49l1.29,1.06-1.54,.17v1.55l.03-.03Zm-1.45-1.68l.82,.43,1-.82-.56-.84h-1.45l.2,1.23Z"/><path d="M81.69,116.81l-.91-1.32-1.4,.2,.73-1.16-.38-1.11q1.34-.08,2.45-.93v1.36l1.32,1.09-1.51,.14-.29,1.74Zm.03-3.1h-1.37l.12,1.2,.88,.52,.99-.91-.62-.8Z"/><path d="M122.13,63.8l-.35,1.71-.88-1.3-1.44,.15,.79-1.1-.49-1.34c1.14,.5,1.82-.11,2.61-.85l-.1,1.47,1.34,1.09-1.48,.17Zm-.29-1.39h-1.36l.11,1.21,1.01,.59c.1-.45,.23-.94,1.14-.63l-.9-1.18Z"/><path d="M82.63,137.3c1.09,.25,1.82-.17,2.53-.96v1.5l1.27,1.03-1.47,.23-.29,1.75c-.41-.61-.66-.99-.92-1.39l-1.16,.19c.47-.75,.55-1.46,.04-2.34Zm1.67,2.06l1.02-.84-.58-.85h-1.41l.13,1.22,.85,.47Z"/><path d="M80.63,151.16c-.39,1.21,.44,1.78,1.3,2.45l-1.47,.18-.29,1.76c-.39-.58-.64-.95-.91-1.35l-1.59,.15c.9-.75,.99-1.42,.34-2.4,1.25,.33,1.95-.08,2.62-.79Zm.15,2.08l-.55-.84h-1.42l.14,1.21,.84,.48,.99-.84Z"/><path d="M84.25,130.7l-.3,1.69-.89-1.32-1.27,.07c.71-.7,.5-1.45,.2-2.33,1.11,.4,1.75-.16,2.45-.81-.35,1.19,.32,1.8,1.37,2.4l-1.55,.28Zm-.66,.24l.99-.86-.56-.81h-1.4l.11,1.25c.31,.15,.61,.3,.86,.42Z"/><path d="M132.99,70.53l1.32,1.07-1.54,.2-.27,1.68-.9-1.28-1.39,.08,.72-1.11-.48-1.16c1.08,.26,1.83-.12,2.53-1.05v1.57Zm-.8,1.59l.95-.96-.64-.79h-1.32l.08,1.23,.93,.52Z"/><path d="M140.92,64.92l-1.51,.26-.27,1.66-.86-1.26h-1.4l.7-1.01-.45-1.26c1.13,.4,1.8-.19,2.58-.96l-.12,1.49,1.34,1.08Zm-3.1-1.19l.08,1.23,.93,.52,.93-.95-.59-.81h-1.35Z"/><path d="M87.29,91.1l-1.28,.16-.27,1.68-.9-1.28-1.4,.08,.74-1.08-.49-1.21c1.1,.3,1.83-.13,2.54-1.02v1.57l1.13,.85-.07,.23Zm-1.57-1.25h-1.34l.12,1.23,.88,.48,1.02-.92-.68-.79Z"/><path d="M94.07,53.74c.96-1.5,2.6-1.56,3.71-.19,1.3,1.62,1.49,3.95,.46,5.76-.57,1-1.99,1.43-2.98,.81-1.22-.77-2.13-1.77-2.05-2.86,.02-1.58,.27-2.61,.86-3.52Zm.56,5.35c.59,.66,1.81,.39,2.15-.24,.81-1.47,.97-2.98,.14-4.5-.14-.26-.38-.51-.63-.68-.86-.57-1.5-.46-1.93,.48-.37,.81-.55,1.7-.81,2.55,.09,.97,.45,1.69,1.07,2.39Z"/><path d="M107.57,55.54c.56-1.52,2-2.09,3.38-.52,.2,.23,.39,.52,.48,.81,.42,1.31,.54,2.62-.22,3.87-.4,.67-.88,1.27-1.76,1.17-.87-.1-1.59-.53-1.86-1.41-.21-.67-.31-1.37-.48-2.14,.14-.57,.25-1.2,.46-1.78Zm2.3,.24c-.11-.31-.4-.59-.68-.78-.51-.35-.9-.24-1.15,.33-.57,1.29-.62,2.61-.09,3.92,.27,.68,.45,.7,1.28,.37-.16-.21-.38-.39-.46-.62-.06-.19-.04-.51,.09-.62,.1-.1,.45-.05,.6,.06,.13,.09,.15,.36,.21,.55,.82-1.24,.53-2.24,.2-3.2Z"/><path d="M92.14,50.1c.33,.36,.65,.57,1.08,.13,.12-.13,.28-.28,.44-.31,1.32-.18,2.64-.43,3.96-.45,.64-.01,1.3,.42,1.93,.65,.1-1.01-.28-1.64-1.07-2.16-1.63-1.07-3.1-.43-4.57,.31-.38,.19-.76,.44-1.05,.74-.29,.3-.46,.7-.71,1.08Z"/><path d="M107.65,50.98c.94,.22,1.7,.59,2.42-.13l.35,.69,1.74-.44c.02-.13,.11-.32,.05-.41-.76-1.11-1.72-1.93-3.11-2.15-.58-.09-.93,.1-1.07,.64-.14,.56-.24,1.14-.38,1.81Z"/><path d="M98.03,70.84v.95c2.06,.47,4.12,.98,6.2,1.4,.94,.19,1.89,0,2.78-.39,.24-.11,.43-.35,.82-.69-.46-.06-.67-.16-.81-.1-1.68,.76-3.34,.23-4.99-.1-1.3-.27-2.58-.68-3.99-1.06Z"/><path d="M88.76,71.66l-.57,.18c-.75-.62,.73-1.26-.06-1.87l-.54,1.03c-.75-.34-.22-.9-.41-1.32l-.68,.59c.46,1.24,1.45,1.92,2.51,2.65l-.24-1.27Z"/><path d="M97.45,34.02c1.08,.19,2.16,.38,3.23,.57-.23-.14-.45-.29-.68-.43l.29-1.05c.28-.14,.56-.28,.83-.42,.26,.33,.52,.65,.78,.97,0,.91-.78,.68-1.26,.9,.74,.06,1.48,.12,2.21,.16,.31,.02,.63,.03,.95,.02,1.65-.08,3.14,.18,4.07,1.76,.05,.08,.19,.1,.3,.15-.53-.67-1.01-1.39-1.6-2-.24-.25-.71-.35-1.08-.37-1.02-.05-2.04-.02-3.22-.02l.54-.63c-.8-.32-1.45-.78-1.26-1.88-.62,.7-1.2,1.14-2.18,.87,.1,.26,.15,.38,.2,.51,.28,.59,.14,.91-.47,.94-.55,.03-1.1-.04-1.66-.07Z"/><path d="M102.24,23.9l-.9-1.31-1.27,.08c.7-.7,.51-1.44,.19-2.33,1.11,.38,1.76-.14,2.45-.81-.42,1.22,.46,1.76,1.29,2.49l-1.47,.15-.3,1.74Zm.07-3.12h-1.41l.1,1.23,.88,.44,.99-.87-.57-.8Z"/><path d="M100.87,11.89l.77,.81,.17-.1-.12-1.23,.99-.58v-.21l-1.3-.18-.94-1.74c-.54,1.03-.72,2.04-1.98,2.34l1.05,.82,.19,1.31,.79-1.26c-.74,.23-.63-.57-.94-.74l.91-1.21,.89,1.01q-.12,.63-.49,.95Z"/><path d="M91.61,30.48l-.26,1-.65-1.16-1.17,.32,.43-1.88,1.79-.91c.17,.83,.1,1.76,.89,2.48l-1.03,.15Zm-.09-1.91q-1.07,.71-1.15,1.29l1.6,.17-.45-1.46Z"/><path d="M84.35,35.89l.45,.69c0-.93,.09-1.61,1.26-1.78l-1.35-.58-.14-.87-1.44,1.11v1.57c.36-.04,.78-.09,1.21-.15-.27-.33-.54-.66-.82-1q.74-.4,1.25-.14l-.43,1.14Z"/><path class="e" d="M100.87,11.89q.37-.32,.49-.95l-.89-1.01-.91,1.21c.31,.17,.2,.97,.94,.74h.38Z"/><path d="M94.83,34.05h2.66c-.89-.29-1.78-.41-2.66,0Z"/><path d="M108.38,31.92c.3-.23,.32-.49,.05-.76-.16-.16-.34-.31-.51-.47l-.38,.12c.25,.43,1,.45,.83,1.11Z"/><path d="M108.14,36.62l.74,1.35c-.25-.45-.49-.9-.74-1.35Z"/><path d="M87.58,43.89c-2.09-.37-3.81-1.28-5.63-2.15,.07,.09,.14,.19,.22,.27,.08,.08,.18,.15,.27,.23,1.25,1,2.72,1.55,4.21,2.08,.36,.13,.76,.24,.93-.43Z"/><path d="M100.87,37.65c-.33-.03-.66-.13-.97-.07-1.23,.22-2.35-.91-3.61-.28,1.51,.35,2.94,1.24,4.57,.61v-.26Z"/><path d="M108.15,39.74l-.46-.89c-.06,.44,.06,.75,.49,.86l-.02,.02Z"/><path class="e" d="M47.71,55.32l.86,.5,1.02-.86-.62-.85h-1.38l.12,1.21Z"/><path class="e" d="M44.95,141.21l-.6-.78h-1.37l.1,1.24,.87,.43,1-.89Z"/><path class="e" d="M57.53,138.5l-.58-.81h-1.42l.16,1.22,.84,.45,1-.86Z"/><path class="e" d="M22.79,143.39l1.04-.82-.59-.86h-1.41l.13,1.22,.83,.46Z"/><path class="e" d="M43.64,60.85l-.61-.8h-1.37l.12,1.2,.88,.52,.99-.91Z"/><path class="e" d="M55.64,120.56l-.6-.78h-1.37l.1,1.24,.87,.43,1-.89Z"/><path class="e" d="M33.24,82.59l-.9-1.18h-1.36l.11,1.21,1.01,.59c.1-.45,.23-.94,1.14-.63Z"/><path class="e" d="M31.37,154.68l.99-.86-.57-.82h-1.4l.12,1.24,.86,.43Z"/><path class="e" d="M30.36,143.88l.16,1.2,.84,.46,1.02-.84-.56-.82h-1.45Z"/><path class="e" d="M63.93,91.15h-1.38l.12,1.2,.87,.52,.99-.91-.6-.81Z"/><path class="e" d="M59.59,113.84l.13,1.23,.86,.44,.97-.84c-.32-1.02-1.13-.92-1.96-.83Z"/><path class="e" d="M68.58,77.26l-.63-.84h-1.36l.11,1.22,.86,.49,1.02-.87Z"/><path class="e" d="M37.89,77.19l1.01-.88-.62-.84h-1.35l.08,1.21,.87,.5Z"/><path class="e" d="M39.02,147.17l-.62-.82h-1.36l.11,1.25,.89,.45,.99-.88Z"/><path class="e" d="M64.46,148.33c.31,.15,.61,.3,.86,.42l.99-.86-.56-.81h-1.4c.04,.43,.07,.84,.11,1.25Z"/><path class="e" d="M41.17,124.37l-.61-.8h-1.38l.13,1.24,.85,.43,1.01-.87Z"/><path class="e" d="M44.53,70.55l1-.9-.6-.83h-1.38l.11,1.2,.86,.52Z"/><path class="e" d="M57.28,97.79h-1.38l.11,1.21,.9,.53,.94-.94-.58-.81Z"/><path class="e" d="M68.37,132.34l.13,1.25,.88,.44,.99-.88-.62-.82h-1.38Z"/><path class="e" d="M43.4,93.24l-.62-.77h-1.37l.12,1.21,.92,.51,.96-.95Z"/><path class="e" d="M29.06,104.35l.12,1.21,.92,.51,.95-.95-.62-.77h-1.37Z"/><path class="e" d="M58.02,65.15l.14,1.24,.89,.5,.97-.93c-.17-.23-.4-.52-.62-.81-.43,0-.86,0-1.38,0Z"/><path class="e" d="M65.87,108.38l.13,1.23,.88,.48,1-.9-.63-.8h-1.37Z"/><path class="e" d="M54.11,81.11l.92,.51,.95-.96-.64-.79h-1.33l.1,1.24Z"/><path class="e" d="M33.09,89.61l.14,1.24,.9,.51,.95-.94-.61-.81h-1.38Z"/><path class="e" d="M71.75,62.54h-1.35l.08,1.23,.93,.52,.93-.95-.59-.8Z"/><path class="e" d="M53.1,72.81l1-.91-.65-.81h-1.35l.12,1.23,.88,.48Z"/><path class="e" d="M57.05,57.78l-.57-.81h-1.42l.15,1.22,.84,.46,1-.87Z"/><path class="e" d="M26.8,95.5l.7,1.39,.7,.39,.96-.96-.65-.81c-.54,0-1.12,0-1.7,0h0Z"/><path class="e" d="M86.05,99.9l1.04-.77-.59-.84h-1.33c-.15,.89,.3,1.36,.88,1.61Z"/><path class="e" d="M95.63,86.4l.2,1.23,.82,.43,1-.82-.56-.84h-1.45Z"/><path class="e" d="M82.33,114.51l-.62-.8h-1.37l.12,1.2,.88,.52,.99-.91Z"/><path class="e" d="M122.74,63.59l-.9-1.18h-1.36l.11,1.21,1.01,.59c.1-.45,.23-.94,1.14-.63Z"/><path class="e" d="M83.45,138.9l.85,.47,1.02-.84-.58-.85h-1.41l.13,1.22Z"/><path class="e" d="M79.79,154.08l.99-.84-.55-.84h-1.42l.14,1.21,.84,.48Z"/><path class="e" d="M82.74,130.52c.31,.15,.61,.3,.86,.42l.99-.86-.56-.81h-1.4c.04,.43,.07,.84,.11,1.25Z"/><path class="e" d="M131.26,71.6l.93,.52,.95-.96-.64-.79h-1.32l.08,1.23Z"/><path class="e" d="M139.17,63.72h-1.35l.08,1.23,.93,.52,.93-.95-.59-.81Z"/><path class="e" d="M86.4,90.65l-.68-.79h-1.34l.12,1.23,.88,.48,1.02-.92Z"/><path class="e" d="M94.36,54.15c.43-.93,1.06-1.05,1.93-.48,.25,.17,.48,.42,.63,.68,.83,1.52,.67,3.03-.14,4.5-.34,.62-1.56,.9-2.15,.24-.62-.69-.97-1.42-1.07-2.39,.26-.85,.44-1.75,.81-2.55Zm1.99,4.31c.39,.09,.58-.25,.51-.57-.05-.25-.31-.45-.48-.67l-.81,.63c.35,.29,.54,.56,.78,.61Z"/><path class="e" d="M109.66,58.98c.82-1.24,.53-2.24,.2-3.2-.11-.31-.4-.59-.68-.78-.51-.35-.9-.24-1.15,.33-.57,1.29-.62,2.61-.09,3.92,.27,.68,.45,.7,1.28,.37-.16-.21-.38-.39-.46-.62-.06-.19-.04-.51,.09-.62,.1-.1,.45-.05,.6,.06,.13,.09,.15,.36,.21,.55Z"/><path class="e" d="M100.65,34.57c.48-.22,1.27,0,1.26-.9-.26-.32-.52-.65-.78-.97-.28,.14-.55,.28-.83,.42l-.29,1.05c.22,.14,.45,.28,.68,.43l-.03-.02Z"/><path class="e" d="M102.88,21.58l-.57-.8h-1.41l.1,1.23,.88,.44,.99-.87Z"/><path class="e" d="M91.98,30.02l-.45-1.46q-1.07,.71-1.15,1.29l1.6,.17Z"/><path class="e" d="M84.35,35.89l.43-1.14q-.52-.25-1.25,.14c.28,.35,.55,.67,.82,1h0Z"/><path d="M95.58,57.85c.35,.29,.54,.56,.78,.61,.39,.09,.58-.25,.51-.57-.05-.25-.31-.45-.48-.67l-.81,.63Z"/></g></g></g></g></svg>