<?xml version="1.0" encoding="UTF-8"?><svg xmlns="http://www.w3.org/2000/svg" xmlns:xlink="http://www.w3.org/1999/xlink" viewBox="0 0 154.9 154.9"><defs><style>.e,.f{fill:#fff;}.f{stroke:#000;}.f,.g,.h,.i{stroke-miterlimit:10;}.f,.g,.i{stroke-width:.25px;}.g{opacity:.97;}.g,.i{stroke:#fff;}.j{clip-path:url(#d);}.h{stroke:#e0c8bc;}.h,.k{fill:none;}</style><clipPath id="d"><circle class="k" cx="77.45" cy="77.45" r="77.45"/></clipPath></defs><g id="a"/><g id="b"><g id="c"><g class="j"><g><circle class="h" cx="77.45" cy="77.45" r="77.45"/><path class="i" d="M96.33,142.03c.18-2.31-1.63-3.69-3.65-4.75s-4.87-1.11-6.95-.12c-3.15,1.5-3.92,4.68-4.39,7.49-3.21,18.9-6.41,37.79-9.62,56.69-.66,3.89-1.25,8.07,1.16,11.53,2.42,3.46,9.15,5.39,12.84,2.65-2.49-.11-4.93-.82-6.89-2,3.55,.71,7.62-1.23,8.33-3.97-2.28,1.33-5.24,1.97-8.1,1.74,3.38,.16,6.49-2.45,5.95-5-.33,2.41-5.33,2.79-7.41,.96s-1.97-4.53-1.61-6.93c2.23-14.82,9.44-28.89,16.14-42.9,2.59-5.41,4.19-10.84,4.19-15.39Z"/><path class="i" d="M81.41,113.97c.02,3.39-.38,6.77-1.18,10.06"/><path class="i" d="M84.93,115.45c.12-2.13-1.15-3.4-2.56-4.38s-3.42-1.02-4.88-.11c-2.21,1.39-2.75,4.31-3.09,6.9-2.25,17.41-4.5,34.83-6.75,52.24-.46,3.58-.88,7.43,.82,10.62,1.7,3.19,6.43,4.96,9.02,2.45-1.75-.1-3.46-.76-4.84-1.84,2.49,.65,5.35-1.13,5.85-3.66-1.6,1.23-3.68,1.81-5.69,1.61,2.37,.15,4.56-2.26,4.18-4.6-.23,2.22-3.74,2.57-5.2,.89-1.46-1.68-1.38-4.17-1.13-6.39,1.57-13.66,6.63-26.63,11.34-39.54,1.82-4.98,2.94-9.99,2.94-14.19Z"/><path class="i" d="M90.63,141.38c.11,4.54-.92,9.1-2.99,13.14"/><path class="i" d="M116.11,125.29c-13.76-4.04-28.54,6.05-34.54,19.07-6.01,13.02-5.35,28.04-4.07,42.32,1.15,12.92,3.06,26.63,11.46,36.52,8.51,10.01,22.91,14.19,35.74,11.39,12.83-2.8,23.84-12.04,29.91-23.69,6.06-11.65,7.39-25.46,4.88-38.36-4.12-21.18-18.78-40.02-43.37-47.25Z"/><path class="e" d="M145.8,160.39c-1.09-7.77-5.28-14.74-9.93-21.06-1.3-1.77-2.73-3.58-4.72-4.51s-4.71-.69-5.97,1.11c-1.12,1.61-.72,3.89,.38,5.51,1.11,1.61,2.79,2.73,4.38,3.86,5.93,4.24,11.18,9.41,15.86,15.09Z"/><path class="g" d="M104.22,71.62c-5.07-1.7-10.84,.31-14.77,3.94-3.93,3.63-6.3,8.64-8.07,13.68-3.46,9.85-5.02,20.37-4.55,30.81,.24,5.3,1.18,10.98,4.91,14.75,4.78,4.83,12.5,4.97,19.23,3.97,9.82-1.45,20.28-5.33,25.01-14.06,2.73-5.03,3.14-11.05,2.25-16.7-.89-5.65-3-11.02-5.11-16.34-1.94-4.89-3.95-9.87-7.38-13.85-3.43-3.98-8.6-6.85-11.52-6.21Z"/><path class="e" d="M118.66,92.86c-1.22-5.99-3.94-11.66-7.85-16.36-.73-.88-1.55-1.76-2.62-2.17s-2.46-.22-3.11,.73c-1,1.46,.28,3.36,1.49,4.65,4.04,4.32,8.09,8.64,12.09,13.15Z"/><path class="e" d="M119.97,96.8c-1.31,.05-2.08,1.93-1.19,2.89,.89,.96,2.81,.36,3.01-.93,.2-1.29-1.43-2.44-1.82-1.96Z"/><path class="i" d="M107.07,116.6c.12-2.13-1.15-3.4-2.56-4.38s-3.42-1.02-4.88-.11c-2.21,1.39-2.75,4.31-3.09,6.9-2.25,17.41-4.5,34.83-6.75,52.24-.46,3.58-.88,7.43,.82,10.62,1.7,3.19,6.43,4.96,9.02,2.45-1.75-.1-3.46-.76-4.84-1.84,2.49,.65,5.35-1.13,5.85-3.66-1.6,1.23-3.68,1.81-5.69,1.61,2.37,.15,4.56-2.26,4.18-4.6-.23,2.22-3.74,2.57-5.2,.89-1.46-1.68-1.38-4.17-1.13-6.39,1.57-13.66,6.63-26.63,11.34-39.54,1.82-4.98,2.94-9.99,2.94-14.19Z"/><path class="i" d="M103.15,117.93c.18,4.72-.78,9.49-2.78,13.77"/><path class="i" d="M115.73,142.04c.18-2.31-1.63-3.69-3.65-4.75s-4.87-1.11-6.95-.12c-3.15,1.5-3.92,4.68-4.39,7.49-3.21,18.9-6.41,37.79-9.62,56.69-.66,3.89-1.25,8.07,1.16,11.53,2.42,3.46,9.15,5.39,12.84,2.65-2.49-.11-4.93-.82-6.89-2,3.55,.71,7.62-1.23,8.33-3.97-2.28,1.33-5.24,1.97-8.1,1.74,3.38,.16,6.49-2.45,5.95-5-.33,2.41-5.33,2.79-7.41,.96-2.08-1.83-1.97-4.53-1.61-6.93,2.23-14.82,9.44-28.89,16.14-42.9,2.59-5.41,4.19-10.84,4.19-15.39Z"/><path class="i" d="M110.26,141.11c.41,5.7-1.09,11.51-4.2,16.31"/><path class="i" d="M92.89,61.82c-3.31-2.82-7.43-4.13-11.44-3.87-4.02,.26-7.78,2.02-11.25,4.05-6.47,3.79-12.32,8.64-17.24,14.3-2.96,3.4-5.66,7.28-6.36,11.73-.93,5.89,1.99,12.04,6.72,15.67s11.03,4.89,16.95,4.15c5.92-.74,11.49-3.34,16.39-6.75,4.66-3.24,8.86-7.31,11.56-12.3,2.7-5,3.8-10.99,2.3-16.46-1.5-5.48-4.6-8.14-7.61-10.52Z"/><path class="e" d="M94.86,66.14c-.66-.77-1.78-.62-1.88,.14,.3,1.55,1.49,2.75,2.31,4.1,1.96,3.25,1.72,7.31,1.42,11.09,1.77-4.26,1.55-9.29-.57-13.39-.55-1.06-.81-1.32-1.27-1.94Z"/><path class="e" d="M92.19,63.38c-.29-.17-.67-.08-.92,.14s-.37,.55-.41,.88c-.03,.24-.01,.5,.12,.71,.15,.23,.43,.36,.71,.36,.51,.01,1-.37,1.1-.87s-.21-.99-.6-1.22Z"/><path class="e" d="M77.66,81.81c-1.12,.53-1.71,1.89-1.54,3.12s.99,2.31,2.01,3c.39,.27,.83,.49,1.3,.54s.98-.11,1.27-.49c.14-.19,.2-.5,0-.62-.15-.09-.34,0-.51,.06-.68,.26-1.49,.08-2.06-.37s-.94-1.13-1.09-1.85c-.24-1.13,.02-2.36,.63-3.41Z"/><path class="e" d="M67.07,79.9c.35,.65,.26,1.48-.1,2.11s-.98,1.11-1.65,1.42-1.39,.49-2.11,.65c.63,.23,1.34,.14,1.96-.12s1.15-.69,1.65-1.14c.44-.41,.87-.86,1.08-1.43s.14-1.27-.3-1.68c-.14-.13-.35-.23-.53-.15s-.2,.4,0,.34Z"/><path class="i" d="M63.82,109.81c2.34-1.38,3.24-4.69,2.02-7.12-1.22-2.43-4.33-3.68-6.92-2.87-2.59,.81-4.42,3.52-4.31,6.23-.72-.32-1.37-.81-1.87-1.42l-.75,3.92c-.65-.36-1.18-.92-1.52-1.58-.64,1.42-.95,2.99-.92,4.54l-1.01-.23c.44,1.5-.89,3.05-2.41,3.42s-3.1-.1-4.57-.6c1.51,2.54,4.53,3.96,7.48,4.02s5.84-1.1,8.29-2.74c2.46-1.65,4.55-3.77,6.72-5.82,.02,0,.03,0-.25,.24Z"/><path class="i" d="M49.64,103.6c1.18-.95,2.33-1.96,3.19-3.2s1.43-2.74,1.31-4.25c-.18-2.38-2.13-4.42-4.44-5.05-2.31-.62-4.84,.04-6.78,1.43-1.94,1.39-3.33,3.45-4.28,5.64-1.87,4.35-2.07,9.39-.54,13.88l1.59-5.74c.01,.89,.3,1.78,.81,2.52,.67-2.09,1.77-4.04,3.22-5.69,.04,.99,.36,1.97,.9,2.8l2.08-4.23c.06,.89,.75,1.69,1.62,1.88s1.83-.25,1.31,0Z"/><path class="e" d="M43.06,94.92c-1.49,.67-2.67,1.92-3.4,3.38s-1.03,3.1-1.04,4.73c1.02-2.9,2.54-5.63,4.43-8.11Z"/><path class="e" d="M58.86,112.32l-.15-.21c-.18-.26-.54-.29-.77-.08-1.6,1.49-6.85,3.99-6.85,3.99,0,0,1.2-.09,1.36-.06s.69-.09,.85-.14c2.34-.74,3.9-1.7,5.51-3.09,.12-.1,.14-.28,.05-.41Z"/><path class="e" d="M60.46,110.17c-.16-.04-.17-.02-.29,0s-.21,.11-.28,.2c-.16,.22-.19,.54-.03,.75,.12,.16,.35,.23,.54,.18s.35-.22,.4-.41,0-.41-.14-.56c-.09-.1-.09-.12-.2-.16Z"/><path class="i" d="M84.34,84.94c-.95,.84-1.62,1.09-2.78,1.18-1.01,.08-2.02-.37-2.56-1.23-.98-1.56,.08-3.3,.81-4.86,1.48-3.19,1.6-6.81,2.16-10.28,1.32-8.23,5.29-16.01,11.18-21.9l-8.64-6.44c-.37-.28-.78-.62-.81-1.09-.03-.47,.36-.86,.71-1.18l6.23-5.61c1.79-1.62,3.61-3.25,5.73-4.4,2.12-1.16,4.6-1.81,6.97-1.33,3.49,.71,6.69,3.32,8.62,6.31,1.93,2.99,2.96,6.65,5.84,8.75-3.09,2.68-7.15,6.01-10.95,7.5-5.18,2.04-8.68-.19-9.22-.1-.65,.11-2.82,2.11-4.29,3.97-6.63,8.37-9.08,20.42-8.41,29.31,.04,.53-.18,1.04-.58,1.39Z"/><path class="e" d="M85.27,40.03c-.15-.15-.43-.15-.58,0s-.13,.44,.03,.58c.07,.06,.16,.1,.26,.08,.13-.02,.22-.14,.25-.26s.02-.25,.04-.4Z"/><path class="e" d="M115.94,42.64c-2.27-1.64-3.06-4.6-4.57-6.96-1.74-2.71-4.57-4.68-7.71-5.37-3.14-.69-6.55-.08-9.25,1.65-3.29,2.1-5.52,5.73-9.11,7.28,2.71-1.07,4.96-3.02,7.3-4.75s4.97-3.33,7.88-3.48c3.61-.18,6.98,1.91,9.47,4.52,1.39,1.46,2.6,3.1,3.57,4.87,.57,1.04,1.31,2.28,2.43,2.23Z"/><path class="e" d="M87.04,38.97c-.16,.13-.33,.25-.45,.41s-.21,.36-.19,.57c.02,.22,.15,.4,.28,.58l.78,1.07c-.28-.25-.65-.34-.99-.48s-.7-.36-.81-.71c-.12-.38,.1-.81,.41-1.06s.72-.35,.97-.38Z"/><path class="e" d="M112.43,45.89c-3.64,2.68-8.62,2.98-12.99,1.84s-8.31-3.53-12.16-5.89c3.55,2.98,7.44,5.77,11.93,6.95,4.49,1.18,9.71,.48,13.23-2.89Z"/><path class="e" d="M115.62,43.43c-1.53-.79-2.42-2.41-3.36-3.86-1.65-2.54-3.77-4.84-6.45-6.25s-5.95-1.86-8.77-.77c-2.92,1.14-5.02,3.73-7.77,5.22-.53,.29-1.09,.54-1.53,.96s-.72,1.05-.54,1.63c.17,.53,.68,.86,1.16,1.14,4.22,2.52,8.69,4.83,13.55,5.56,4.86,.72,10.22-.38,13.7-3.63Z"/><path class="e" d="M97.55,49.74c-1.08-.26-2.11-.77-2.96-1.49-.21-.18-.46-.39-.73-.36-.31,.03-.52,.38-.51,.69s.2,.6,.4,.84c.47,.58,1.11,1.07,1.85,1.16s1.57-.29,1.95-.85Z"/><path class="e" d="M90.85,57.32c-.31,.52-1.06,.64-1.62,.41s-.98-.71-1.35-1.19c-.13-.18-.27-.36-.47-.46s-.47-.1-.61,.07c-.13,.15-.11,.38-.05,.57,.12,.36,.35,.67,.59,.95,.34,.4,.73,.78,1.2,1s1.06,.27,1.52,.01,.73-.86,.78-1.37Z"/><path class="f" d="M101.07,37.35c.27-1.67-.79-3.4-2.33-4.1-1.54-.7-3.42-.42-4.82,.54s-2.32,2.5-2.72,4.14c-.33,1.37-.3,2.85,.27,4.14s1.72,2.34,3.1,2.61c1.84,.36,3.73-.74,4.8-2.27s1.44-3.44,1.7-5.05Z"/><path d="M97.24,40.48c-.65,.49-1.09,.6-1.91,.65-.78,.05-1.77-.37-2.19-.7-.67-.52-.83-1.36-.87-2.01-.05-.76,.43-1.7,1.33-2.18,.84-.45,1.83-.74,2.66-.41,.83,.32,1.35,1.37,1.56,2.14-.44-.31-.81-.89-1.36-1.04s-1.16-.13-1.64,.2c-.54,.37-.87,.84-.81,1.47,.05,.55,.38,1.29,.94,1.55,.73,.34,2.38,.08,2.8-.73-.16,.19-.35,.95-.49,1.06Z"/><path d="M103.14,20.58l-.56-.53c-.41,.19-.52,.71-.58,1.16l-.46,3.29c-.04,.26-.05,.58,.18,.72,.17,.11,.41,.04,.55-.11s.21-.34,.27-.54c.42-1.37,.55-2.82,.6-3.99Z"/><path d="M110.9,21.96l-2.89,4.41c-.1,.15-.19,.3-.22,.47s.04,.37,.2,.45c.21,.09,.44-.07,.61-.22,1.1-1,2.02-2.2,2.69-3.53,.14-.28,.28-.58,.25-.89s-.26-.63-.65-.69Z"/><path d="M116.56,28.08c-1.36,.99-2.96,1.63-4.27,2.69-.23,.18-.47,.46-.36,.74,.07,.18,.28,.28,.47,.28s.38-.07,.56-.15c1.25-.53,2.52-1.12,3.46-2.1,.2-.2,.38-.44,.43-.72s-.09-.61-.29-.75Z"/><path d="M122.22,36.07c-1.41,.26-2.86,.28-4.27,.05-.38-.06-.78-.14-1.16-.04s-.72,.46-.65,.84c.08,.47,.64,.65,1.11,.72,1.67,.23,3.45,.07,4.9-.8,.16-.1,.34-.22,.38-.41,.05-.24-.14-.48-.37-.56s-.48-.05,.07,.2Z"/><path d="M94.09,22.19c-.25,1.55,.13,3.2,1.05,4.48,.22,.3,.52,.61,.9,.58,.27-.02,.5-.24,.6-.49s.11-.53,.08-.8c-.12-1.17-.75-2.22-1.36-3.23-.13-.21-.26-.42-.45-.58s-.46-.23-.69-.13-.35,.41-.13,.17Z"/><path d="M88.98,24.4c1.23,1.23,2.19,2.72,2.79,4.34,.07,.18,.13,.36,.12,.55s-.11,.38-.28,.45c-.17,.07-.37,0-.51-.11s-.23-.28-.31-.44c-.5-1-.82-2.12-1.53-2.99-.23-.27-.49-.52-.67-.82s-.29-.69-.15-1.02c.24-.08,.52-.05,.54,.04Z"/><path d="M88.36,32.49c-1.05-1.13-1.99-2.37-2.81-3.68-.13-.22-.27-.44-.47-.59s-.49-.22-.71-.09c.14,.89,.56,1.72,1.09,2.45s1.16,1.37,1.8,2.01c.13,.13,.26,.26,.42,.34s.37,.09,.52-.02,.19-.35,.17-.42Z"/><path d="M115.03,50.25c-.31-.26-.7-.43-1.11-.48-.11,.2-.08,.45,.02,.66s.26,.38,.42,.54l1.64,1.72c.14,.15,.33,.32,.54,.26,.17-.05,.26-.24,.25-.42s-.11-.34-.2-.48c-.51-.78-1.15-1.46-1.55-1.8Z"/><path d="M108.57,53.47c.21,1.38,.46,2.83,1.36,3.9,.09,.11,.2,.22,.34,.27s.31,.02,.39-.11c.08-.13,.02-.3-.04-.45l-1.43-3.32c-.05-.11-.1-.22-.18-.31s-.22-.13-.33-.07-.15,.22-.09,.09Z"/><path d="M99.16,54.27c-.06-.21-.21-.38-.4-.49-.37,1.16-.38,2.41-.38,3.63,0,.21,0,.43,.1,.61s.32,.33,.52,.26c.21-.07,.29-.33,.33-.55,.23-1.32,.07-2.69-.17-3.46Z"/><path d="M87.26,44.91c.12-.1,.25-.21,.32-.35s.07-.33-.05-.44c-.18-.17-.47-.04-.67,.09-1.01,.64-1.96,1.36-2.84,2.16-.1,.09-.21,.19-.25,.32s0,.3,.13,.35c.1,.04,.2,0,.3-.04,1.21-.52,2.23-1.38,3.07-2.08Z"/><path class="i" d="M65.53,80.75l-4.75-21.63c-.39-1.77-.78-3.56-1.54-5.22-1.91-4.2-5.88-7.03-9.62-10.29,2.08-1.48,6.09-4.84,5.88-5.67-.3-1.16-1.7-3.45-2.31-4.48-1.54-2.59-3.81-4.34-6.32-6.02-2.75-1.84-6.31-2.33-9.53-1.55s-6.08,2.78-8.14,5.37c-2,2.51-4.25,6.28-4.48,8.47-.09,.87-1.79,1.74-1.59,2.51,.25,1,2.75,1.71,3.48,2.44,3.09,3.09,7.21,4.71,12.2,4.32,1.79-.14,6.09-2.44,7.88-2.34,2.3,.13,4.23,1.79,5.67,3.59,5.65,7.07,5.41,16.85,6.78,25.79,.26,1.68,.48,3.26,.62,4.71,.02,.22,1.41,2.14,2.92,2.03s2.81-1.14,2.86-2.06Z"/><path class="i" d="M38.66,51.58c-.09,.19-.27,.34-.46,.41"/><path class="e" d="M53.53,38.07c-1.71-1.98-3.44-3.98-5.52-5.57s-4.57-2.76-7.19-2.85c-3.38-.11-6.61,1.61-9.05,3.96-2.43,2.35-3.31,3.68-5.04,6.59,1.01,1.4,2.19,2.37,3.78,2.98s3.39,.29,5.06,.63c2.38,.48,7.88-.31,10.18-1.09,3.89-1.31,4.59-2.85,7.78-4.64Z"/><path class="e" d="M53.16,39.28c-3.43,3.15-7.79,5.28-12.38,6.04-4.6,.76-9.41,.14-13.67-1.75,1.7,1.09,3.62,1.79,5.59,2.21,7.3,1.56,15.33-.96,20.46-6.5Z"/><path class="e" d="M53.02,35.96c-2.03-4.21-6.3-7.17-10.9-7.99-2.65-.47-5.47-.27-7.89,.91-2.2,1.07-3.97,2.89-5.29,4.95-1.31,2.06-2.2,4.37-2.95,6.69,1.19-5.7,6.1-10.43,11.83-11.42,5.74-.99,11.94,1.83,15.19,6.85Z"/><path class="e" d="M27.85,42.96c-.89-.45-1.65-1.17-2.15-2.03-.08,.39-.33,.73-.75,.99,.64,.67,1.63,.98,2.9,1.04Z"/><path class="e" d="M36.38,46.72c-1.49,.07-2.99-.04-4.45-.33,1.4,.75,3.09,.94,4.61,.51,.02-.12-.13-.23-.16-.18Z"/><path class="e" d="M48.94,43.59l-3.51,2.67c.72,.19,1.5,.02,2.15-.34s1.17-.92,1.6-1.53c.1-.15,.21-.31,.2-.49s-.25-.44-.43-.3Z"/><path class="e" d="M58.06,52.67l-2.82,1.05c-.07,.03-.14,.05-.19,.11-.09,.1-.06,.26,.02,.36s.21,.16,.33,.2c.57,.2,1.2,.16,1.79,.03,.3-.07,.6-.16,.85-.34s.44-.46,.45-.77-.2-.63-.43-.64Z"/><g><path class="f" d="M35.8,33.51c-1.01-.93-2.52-.88-3.61-.08s-1.79,2.23-2.05,3.72c-.41,2.3,.27,4.96,1.94,6.19,1.37,1.01,3.26,.88,4.56-.26,1.3-1.14,1.98-3.19,1.75-5.1s-1.45-3.42-2.59-4.47Z"/><path d="M35.13,36.06c-.59-.3-.95-.29-1.59-.14-.6,.14-1.28,.75-1.54,1.15-.41,.63-.37,1.44-.27,2.04,.11,.71,.66,1.46,1.45,1.69,.73,.21,1.54,.24,2.12-.25,.57-.49,.76-1.58,.77-2.32-.27,.38-.45,1.01-.84,1.28s-.86,.4-1.29,.21c-.49-.21-.83-.56-.91-1.16-.07-.52,.04-1.27,.41-1.64,.49-.48,1.8-.63,2.28,0-.16-.14-.46-.79-.59-.85Z"/></g><path d="M58.33,33.73c-.96,.21-1.93,.34-2.91,.39-.4,.02-.95-.1-.95-.5,0-.34,.41-.5,.73-.57l5.22-1.2c.26-.06,.61-.07,.7,.17,.07,.19-.07,.38-.22,.52-.79,.76-1.88,1.21-2.57,1.19Z"/><path d="M58.39,46.34l-3.94-2.36c-.18-.11-.42-.22-.6-.1-.24,.17-.08,.55,.1,.79,.55,.68,1.19,1.28,1.9,1.79,.37,.27,.77,.51,1.22,.57s.96-.11,1.32-.69Z"/><path d="M40.19,52.44l-1.19-.79c-.34,.63,.15,1.37,.52,1.98,.48,.8,.77,1.71,.85,2.63,.03,.36,.03,.73,.23,1.04s.66,.46,.91,.21c.18-.18,.17-.47,.13-.72-.22-1.75-.9-3.45-1.94-4.87-.1-.14-.22-.28-.39-.31s-.35,.18,.88,.82Z"/><path d="M32.68,52.24c-.18-.32-.47-.59-.81-.74l-.97,4.04c-.03,.14-.07,.3,0,.43,.09,.17,.33,.22,.51,.15s.31-.23,.42-.39c.85-1.24,1.1-3.01,.84-3.48Z"/><path d="M26.45,49.17l.5-1.21c-.37-.25-.85,.08-1.15,.42-1.03,1.15-1.73,2.59-2,4.11,1.29-.84,2.17-2.16,2.65-3.31Z"/><path d="M23.57,35.83l.07,.78-4.92-2.65c-.2-.11-.43-.25-.44-.48-.02-.23,.21-.42,.43-.44s.45,.06,.66,.15c1.32,.57,2.57,1.29,3.74,2.13,.28,.2,.57,.44,.61,.78s-.38,.69-.15-.28Z"/><path d="M26.34,31.5c-1.57-.76-3.01-1.81-4.21-3.08-.15-.16-.3-.44-.12-.57,.1-.08,.25-.04,.37,0,1.78,.58,3.36,1.78,4.41,3.33-.27,.23-.65,.33-.45,.32Z"/><path d="M28.38,22.67l2.16,3.59c.27,.45,.77,.98,1.23,.73,.47-.26,.29-.97,.02-1.44-.51-.89-1.12-1.73-1.8-2.5-.23-.26-.49-.52-.82-.6s-.76,.12-.8,.23Z"/><path d="M36.52,18.71l-.47,4.44c-.04,.37-.02,.84,.33,.97,.41,.15,.75-.36,.87-.78,.33-1.17,.45-2.4,.34-3.61-.03-.29-.07-.6-.22-.85s-.45-.44-.74-.38-.49,.43-.1,.21Z"/><path d="M46.17,20.3l-2.75,3.75c-.09,.12-.18,.26-.16,.41,.06,.36,.6,.28,.91,.08,1.14-.74,2.05-1.82,2.59-3.07,.12-.27,.21-.58,.07-.84s-.61-.29-.66-.33Z"/><path d="M54.48,25.77l-3.67,2.69c-.31,.23-.65,.64-.4,.93,.2,.24,.59,.12,.87-.04,1.19-.66,2.31-1.45,3.32-2.37,.18-.17,.37-.34,.46-.57s.05-.53-.15-.67-.55-.01-.43,.03Z"/></g></g></g></g></svg>