<?xml version="1.0" encoding="UTF-8"?><svg xmlns="http://www.w3.org/2000/svg" xmlns:xlink="http://www.w3.org/1999/xlink" viewBox="0 0 240.49 240.49"><defs><style>.h{fill:none;stroke:#fff;}.h,.i,.j{stroke-miterlimit:10;}.i,.j{stroke:#000;}.k{fill:#efc5ba;}.l{clip-path:url(#e);}.j{fill:#fff;}.m{opacity:.58;}.n{filter:url(#f);}</style><clipPath id="e"><circle class="k" cx="120.24" cy="120.24" r="120.24"/></clipPath><filter id="f" filterUnits="userSpaceOnUse"><feOffset dx="5.67" dy="2.83"/><feGaussianBlur result="g" stdDeviation="0"/><feFlood flood-color="#000" flood-opacity=".5"/><feComposite in2="g" operator="in"/><feComposite in="SourceGraphic"/></filter></defs><g id="a"/><g id="b"><g id="c"><circle class="k" cx="120.24" cy="120.24" r="120.24"/></g><g id="d"><circle class="k" cx="120.24" cy="120.24" r="120.24"/><g class="l"><g class="n"><path d="M110.55,204.02c1.27-6.85,2.52-14.09,.18-20.65s-9.63-11.92-16.19-9.56c-3.99,1.43-6.69,5.33-7.81,9.42-1.12,4.09-.91,8.41-.7,12.64l2.79,54.24c.27,5.17,1.32,11.47,6.2,13.21,3.84,1.37,8.19-1.17,10.23-4.69,2.05-3.52,2.36-7.75,2.62-11.82,1.04-16.13,.75-32.42,2.68-42.79Z"/><path d="M148.12,202.37c1.27-6.85,2.52-14.09,.18-20.65s-9.63-11.92-16.19-9.56c-3.99,1.43-6.69,5.33-7.81,9.42s-.91,8.41-.7,12.64l2.79,54.24c.27,5.17,1.32,11.47,6.2,13.21,3.84,1.37,8.19-1.17,10.23-4.69,2.05-3.52,2.36-7.75,2.62-11.82,1.04-16.13,.75-32.42,2.68-42.79Z"/><path class="i" d="M69.81,191.84c.07-2.62-.11-5.37-1.42-7.64-1.31-2.28-4.05-3.91-6.57-3.2-1.92,.54-3.31,2.3-3.94,4.2-.63,1.9-.63,3.94-.62,5.93,.06,14.53,.12,29.13,2.51,43.46,.79,4.73,1.92,9.6,4.92,13.35,2.99,3.75,8.35,6.01,12.74,4.07-3.75-1.25-6.95-4.04-8.71-7.58,3.4,1.36,7.47,.89,10.47-1.22-3.33,.09-6.64-1.71-8.36-4.56,2.99,2.32,7.98,1.26,9.75-2.09-3.16,1.54-7.15-.15-9.26-2.96s-2.76-6.43-3.16-9.93c-1.39-12.04,1.48-24.01,1.68-31.84Z"/><path class="i" d="M69.4,189.25c1.26-1.55,1.43-19.23,2.14-29.23,.7-10,.46-13.25-.88-25.65-.28-2.59-2.25-6.92-7.48-6.54-4.38,.32-5.71,5.7-5.71,9.46,0,15.03-1.29,25.63-.96,40.65,.11,4.87,.24,10.63,4.52,12.96,3.98,2.17,6.63,.49,8.37-1.65Z"/><path class="i" d="M172.32,178.77c-2.34-1.52-5.68-.26-7.33,1.99-1.65,2.25-2.03,5.17-2.26,7.95-1.21,14.84,.39,29.86,4.24,44.24,1.95,7.29,5.01,15.08,11.67,18.62,6.15,3.28,14.51,1.62,18.95-3.75l-8.3-.37c3.88-1.3,6.91-4.87,7.55-8.91-2.15,2.67-5.36,4.45-8.76,4.88,3.42-2.66,5.2-7.27,4.47-11.54,.04,3.3-3.63,5.8-6.89,5.31-3.26-.49-5.83-3.23-7.06-6.29-1.23-3.06-1.37-6.43-1.48-9.73l-1.06-29.52c-.17-4.72,.02-10.45-3.74-12.88Z"/><path class="i" d="M175.57,190.96c1.26-1.55,1.43-19.23,2.14-29.23s.46-13.25-.88-25.65c-.28-2.59-2.25-6.92-7.48-6.54-4.38,.32-5.71,5.7-5.71,9.46,0,15.03-1.29,25.63-.96,40.65,.11,4.87,.24,10.63,4.52,12.96,3.98,2.17,6.63,.49,8.37-1.65Z"/><path d="M128.66,22.8c-2.01-4.95-7.98-7.91-13.14-6.5-5.16,1.4-8.8,6.98-8.03,12.27-4.43-2.56-10.14-2.75-14.73-.5s-7.92,6.89-8.6,11.96c-6.85-3.22-15.5-2.17-21.37,2.6-5.88,4.77-8.69,13.01-6.95,20.38-4.63-.29-9.34,2.15-11.76,6.11-2.42,3.96-2.47,9.26-.1,13.25-7.17,.69-13.53,6.57-14.76,13.67s2.76,14.78,9.28,17.85c-3.81,3.23-5.75,8.53-4.92,13.46,.83,4.93,4.4,9.3,9.06,11.11-4.06,5.05-4.59,12.67-1.26,18.23,3.33,5.56,10.29,8.69,16.67,7.5-2,5.8,3.34,12.78,9.46,12.36,2.83-.19,5.67-1.66,8.39-.86,2.78,.82,4.36,3.69,5.41,6.39s1.98,5.67,4.3,7.39c2.32,1.73,6.53,1.08,7.03-1.76,5.35,10.73,21.06,14.51,30.71,7.38,5.05,3.5,12.12,3.81,17.47,.78s8.7-9.26,8.29-15.4c7.3,1.61,15.44-2.12,18.99-8.7,6.96,3.39,16.52-1.86,17.41-9.55,4.02,1.07,8.59-.37,11.28-3.54s3.34-7.93,1.61-11.71c4.32,.08,8.6-2.39,10.68-6.19,2.08-3.79,1.87-8.73-.53-12.33,5.09-.39,7.57-6.79,6.66-11.82-.91-5.02-3.91-9.47-4.94-14.47-1.27-6.16,.56-12.58-.26-18.81s-6.39-12.87-12.37-10.91c4.05-10.63-4.16-24-15.47-25.2,.52-8.18-3.73-16.49-10.67-20.84-6.94-4.35-16.27-4.57-23.41-.54-1.08-4.65-5.33-8.38-10.08-8.85s-9.65,2.37-9.33,5.79Z"/><path class="h" d="M103.51,39.1c-4.87,2.06-10.01,4.34-12.97,8.73-2.95,4.39-2.4,11.53,2.41,13.73,2.45,1.12,5.33,.7,7.92-.05,5.75-1.68,11.13-4.96,17.11-5.25s12.89,4.32,11.81,10.22c-.55,2.99-3.01,5.31-5.74,6.65-2.73,1.34-5.76,1.89-8.68,2.71-6.99,1.98-13.5,5.63-18.84,10.56-5.05,4.67-9.2,10.94-9.2,17.82,0,9.16,8.46,17.41,17.62,17.34s17.45-8.28,17.76-17.43c.17-4.94-1.64-10.05-.03-14.72,1.63-4.75,6.4-7.72,11.16-9.36,7.83-2.7,18.25-1.9,22.15,5.41,2.85,5.33,.97,12.13-2.72,16.91-3.69,4.78-8.89,8.11-13.64,11.83-7.65,6-14.33,13.24-19.7,21.36-4.55,6.88-8.11,16.12-3.66,23.06,3.75,5.85,11.69,7.41,18.6,6.74,12.39-1.19,24.13-7.99,31.32-18.16,3.78-5.34,6.13-13.16,1.82-18.09-3.69-4.22-10.22-4.02-15.78-3.23-13.28,1.9-26.36,5.23-38.93,9.92-7.54,2.81-14.99,6.14-22.94,7.33-7.96,1.19-16.74-.06-22.71-5.45-5.36-4.84-7.68-12.25-8.42-19.43-.93-8.98,.46-18.62,6.06-25.7,4.68-5.92,12-9.5,19.5-10.27,5.74-.59,11.95,.54,16.19,4.44,6.55,6.04,6.38,16.64,3.11,24.93-3.26,8.29-8.98,15.42-12.37,23.66-2.97,7.2-4.06,15.42-1.62,22.82,2.44,7.4,8.84,13.7,16.56,14.73s16.15-4.23,17.48-11.9c1.29-7.4-3.6-14.28-7.93-20.41s-8.54-13.77-5.83-20.78c2.25-5.84,8.59-9,14.65-10.53,5.95-1.5,13.49-1.34,16.73,3.87,3.31,5.33-.03,12.15-3.21,17.56-5.37,9.14-10.38,18.5-14.99,28.05-1.8,3.73-3.57,7.57-3.99,11.69s.73,8.62,3.92,11.26c2.93,2.42,7.16,2.88,10.81,1.78,3.64-1.1,6.74-3.57,9.23-6.44,6.83-7.86,9.49-18.57,10.12-28.96,.63-10.38-.28-21.71,5.76-30.18,3.97-5.57,12.65-8.8,17.63-4.11,4.88,4.58,2.96,13.21,7.11,18.45,4.08,5.15,12.88,4.47,17.35-.35,4.47-4.81,5.08-12.27,3.18-18.55-2.22-7.33-7.59-13.65-14.47-17.03-6.88-3.38-15.16-3.76-22.32-1.04-3.25,1.24-6.26,3.08-9.57,4.18-3.3,1.1-7.13,1.38-10.11-.42-5.7-3.47-4.89-12.51-.54-17.58,4.34-5.07,10.87-7.58,16.47-11.22,5.6-3.64,10.78-9.64,9.67-16.23-1.3-7.71-10.23-11.45-18-12.3-5.72-.62-12.05-.25-16.41,3.52-3.46,2.99-5.05,7.6-8.03,11.06-2.98,3.46-8.93,5.42-11.89,1.94-2.18-2.56-1.32-6.64,.77-9.28,2.09-2.64,5.11-4.34,7.7-6.49,2.59-2.15,4.89-5.18,4.61-8.54-.47-5.62-8.29-8.06-13.19-5.28-4.9,2.78-7.19,8.58-8.42,14.08-1.23,5.5-1.83,11.32-4.8,16.12-2.96,4.79-9.34,8.14-14.32,5.52-5.87-3.09-6.69-12.39-12.96-14.57-3.06-1.06-6.55,.08-9,2.19-2.45,2.11-4.03,5.05-5.33,8.01-2.01,4.58-3.21,10.63,.48,14.01,2.61,2.38,6.98,2.61,8.82,5.62,1.33,2.17,.74,5.13-.86,7.1-1.6,1.97-4.02,3.11-6.45,3.85-5.74,1.74-12,1.62-17.49,4.05-5.48,2.43-9.98,9.07-7.08,14.32,1.84,3.32,5.87,4.73,9.62,5.3,3.75,.57,7.7,.63,11.07,2.38s5.87,6.01,4.11,9.37c-2.17,4.16-8.39,3.62-12.22,6.33-3.86,2.73-4.42,8.81-1.67,12.65s8.06,5.37,12.67,4.33,8.51-4.31,11.11-8.26c1.71-2.59,2.96-5.53,5.13-7.75,2.17-2.22,5.73-3.55,8.42-1.99,3.03,1.75,3.33,6.15,2.01,9.39-1.33,3.23-3.82,5.86-5.37,8.99-3.67,7.42-1.18,17.07,5.01,22.57,6.19,5.5,15.37,7,23.34,4.76,5.98-1.68,11.88-6.09,12.56-12.27,.4-3.62-1.06-7.17-2.48-10.52-3.34-7.89-6.81-15.97-12.71-22.18-3.96-4.17-9.08-7.59-11.17-12.95-2.12-5.42-.54-11.73,2.71-16.55,3.25-4.82,7.97-8.43,12.67-11.85,5.14-3.73,11.01-7.53,17.32-6.76,4.91,.59,9.03,3.85,12.78,7.07,3.75,3.22,7.65,6.65,12.48,7.71,4.83,1.06,10.81-1.28,11.86-6.11,1.18-5.41-4.1-10.51-3.39-16,.67-5.2,6.88-8.32,11.99-7.13,5.11,1.19,8.95,5.5,11.35,10.16,2.38,4.62,3.63,10.34,1.21,14.93-2.07,3.92-6.32,6.14-10.46,7.74-4.14,1.6-8.55,2.89-11.88,5.82s-5.2,8.15-2.8,11.88"/><path class="h" d="M167.98,159.16c3.66-3.82,7.49-7.94,8.47-13.14,.98-5.2-2.34-11.54-7.63-11.66-2.7-.06-5.17,1.46-7.25,3.17-4.62,3.82-8.27,8.94-13.65,11.58-5.38,2.63-13.55,1.11-14.88-4.73-.67-2.96,.67-6.07,2.65-8.37s4.55-4.01,6.91-5.92c5.64-4.58,10.19-10.5,13.15-17.13,2.8-6.29,4.13-13.68,1.42-20.01-3.61-8.42-14.64-12.66-23.03-8.99-8.39,3.68-12.77,14.49-9.44,23.03,1.79,4.6,5.47,8.58,5.84,13.51,.37,5.01-2.84,9.62-6.56,13-6.13,5.57-16.02,8.94-22.49,3.77-4.72-3.77-5.67-10.76-4.17-16.61,1.5-5.85,4.97-10.96,7.86-16.26,4.67-8.53,7.95-17.82,9.67-27.4,1.46-8.12,1.09-18.01-5.74-22.64-5.75-3.89-13.66-2.19-19.76,1.14-10.92,5.98-19.02,16.87-21.62,29.04-1.37,6.4-.44,14.51,5.46,17.34,5.06,2.42,10.98-.34,15.77-3.26,11.46-6.98,22.16-15.2,31.86-24.48,5.82-5.56,11.35-11.55,18.19-15.79,6.84-4.24,15.4-6.55,23.02-3.95,6.84,2.33,11.89,8.22,15.41,14.53,4.39,7.88,6.92,17.29,4.57,26-1.97,7.29-7.27,13.46-13.87,17.13-5.04,2.81-11.19,4.22-16.63,2.3-8.4-2.96-12.43-12.77-12.7-21.68s2.17-17.71,2.04-26.62c-.11-7.79-2.36-15.77-7.52-21.61-5.16-5.83-13.53-9.11-21.03-7-7.5,2.1-13.17,10.26-11.37,17.83,1.74,7.31,8.94,11.7,15.35,15.63,6.4,3.92,13.28,9.29,13.56,16.79,.23,6.25-4.34,11.65-9.31,15.45-4.88,3.73-11.87,6.56-16.9,3.04-5.15-3.59-4.77-11.17-3.98-17.4,1.33-10.52,2.24-21.09,2.71-31.69,.19-4.14,.29-8.37-.94-12.32s-4.07-7.63-8.05-8.8c-3.65-1.07-7.72,.18-10.63,2.62-2.91,2.44-4.78,5.94-5.94,9.56-3.18,9.92-1.39,20.8,2.13,30.6,3.52,9.79,8.82,19.84,6.61,30.01-1.45,6.69-8.15,13.07-14.58,10.74-6.29-2.29-7.93-10.97-13.82-14.15-5.78-3.12-13.6,.98-15.81,7.17-2.21,6.19,.17,13.28,4.4,18.3,4.93,5.86,12.36,9.55,20.01,9.94,7.65,.39,15.41-2.52,20.92-7.85,2.5-2.42,4.54-5.3,7.14-7.61,2.6-2.32,6.01-4.08,9.45-3.6,6.61,.93,9.43,9.57,7.43,15.94-1.99,6.37-6.99,11.26-10.7,16.81-3.71,5.55-6.1,13.11-2.48,18.72,4.24,6.57,13.92,6.49,21.4,4.2,5.51-1.68,11.17-4.52,13.69-9.7,2-4.11,1.64-8.97,3.02-13.33s6.07-8.5,10.16-6.47c3.02,1.49,3.83,5.58,2.95,8.83s-2.99,6-4.51,9c-1.53,3-2.45,6.69-.87,9.66,2.65,4.97,10.8,4.14,14.2-.35,3.41-4.49,3.22-10.72,2.18-16.26-1.04-5.54-2.78-11.13-1.95-16.7s5.37-11.16,10.99-10.72c6.61,.52,11.04,8.75,17.65,8.27,3.23-.23,5.99-2.66,7.41-5.57,1.42-2.91,1.71-6.23,1.74-9.46,.04-5-1.25-11.04-5.97-12.68-3.34-1.16-7.44,.35-10.33-1.68-2.08-1.47-2.71-4.42-2.01-6.87,.69-2.45,2.46-4.45,4.41-6.09,4.58-3.87,10.39-6.23,14.47-10.62,4.08-4.39,5.59-12.27,.86-15.95-3-2.33-7.25-2.03-10.93-1.07-3.67,.95-7.32,2.46-11.11,2.18s-7.76-3.21-7.48-6.99c.35-4.68,6.28-6.64,8.73-10.64,2.47-4.03,.59-9.84-3.46-12.28-4.05-2.45-9.52-1.75-13.35,1.02-3.83,2.78-6.12,7.32-6.95,11.97-.55,3.06-.54,6.25-1.66,9.15-1.12,2.9-3.87,5.52-6.95,5.15-3.47-.41-5.49-4.34-5.55-7.83s1.2-6.89,1.38-10.38c.44-8.27-5.65-16.15-13.51-18.77-7.86-2.62-16.88-.37-23.32,4.84-4.84,3.91-8.51,10.29-6.69,16.23,1.07,3.49,3.8,6.17,6.43,8.69,6.18,5.93,12.55,11.99,20.43,15.36,5.28,2.26,11.34,3.39,15.38,7.49,4.08,4.14,5.12,10.56,4.04,16.28-1.08,5.71-4,10.89-6.97,15.89-3.25,5.46-7.15,11.26-13.24,13.05-4.74,1.39-9.82,.03-14.54-1.45-4.72-1.48-9.66-3.09-14.51-2.16-4.86,.93-9.43,5.44-8.49,10.29,1.05,5.43,7.91,8.04,9.43,13.36,1.44,5.04-3.04,10.36-8.2,11.29s-10.39-1.52-14.44-4.85c-4.01-3.3-7.41-8.07-7-13.24,.35-4.42,3.39-8.14,6.56-11.24,3.17-3.1,6.71-6.03,8.62-10.04,1.91-4.01,1.56-9.54-2.12-12.02"/><path class="h" d="M44.06,72.91c11.22-1.95,24.18,7.19,34.24-1.08,2.34-1.92,4.07-4.7,3.99-7.8"/><path class="h" d="M182.19,39.72c-7.15-3.77-16.98-5.57-24.3-1.21-4.01,2.39-6.13,6.45-7.16,10.88-1.22,5.23-1.81,10.72-2.37,16.06-.59,5.64-.83,11.34-.15,16.98,.65,5.46,2.59,10.61,3.77,15.96,1.15,5.2,1.13,10.5-1.49,15.27-2.27,4.14-5.94,7.39-10.07,9.6-8.04,4.31-17.95,5.2-26.92,5.64s-18.34-1.3-23.53-9.45c-4.52-7.1-5.3-15.86-9.62-23.05-2.21-3.67-5.41-6.64-9.59-7.84-4.41-1.26-9.35-.29-11.85,3.83-2.33,3.84-2.17,8.53-3.26,12.75-1.16,4.48-4.13,7.83-8.87,8.45-8.94,1.17-14.89-6.66-16.26-14.63-.45-2.65-.53-5.35-.29-8.02"/><path class="h" d="M208.76,98.7c-7.82-2.1-14.71,2.25-21.6,5.51-3.99,2.18-8.7,2.9-12.69,.36-5.08-3.26-2.54-10.51,2.18-13.78,4.71-2.9,10.15-3.99,14.14-7.98,4.71-4.71,8.34-10.51,7.73-17.36"/><path class="h" d="M203.34,146.42c-5.66-4.14-12.55-8.86-12.55-16.47-.36-4.35,3.63-7.98,8.34-7.61,5.08,.36,9.79,2.9,14.71,1.86"/><path class="h" d="M160.35,176.78c-1.82-2.96-4.72-5.5-4-9.49,.73-2.9,2.54-4.71,5.08-5.8,7.61-2.9,14.86,1.81,21.82,4.49"/><path class="h" d="M86.93,188.59c8.12-6.15,13.39-16.3,23.38-19.86,4.28-1.52,9.33-1.47,13.2,1.1,3.62,2.41,5.21,6.41,5.32,10.64,.15,5.37-1.21,11.41,2.12,16.12"/><path class="h" d="M39.82,152.41c4.95,4.78,11.25,9.15,18.23,10.03,7.36,.93,12.72-3.55,19.21-6.02,4.52-1.72,11.47-2.18,14.77,2.16,3.72,4.9-.65,9.99-5.18,12.06-6.52,2.99-14.4,.78-20.52,5.02"/><path class="h" d="M43.34,75.98c5.26,7.14,12.95,11.86,21.56,13.79,7.39,1.66,17.28,.74,22.58,7.25,6.13,7.53-.14,17.01-7.68,20.31s-15.42,2.18-23.16,2.09c-7.13-.09-15.03,.43-20.53,5.53-.69,.64-1.32,1.33-1.9,2.06"/><path class="h" d="M143.94,18.74c-11.52,3.91-20.22,11.88-27.47,22.39-5.8,9.06-10.51,17.4-18.13,24.65s-19.94,10.88-28.28,2.9c-2.9-3.26-3.26-7.61-2.54-11.6,1.45-5.8,4.71-11.24,4.56-17.04"/><path class="h" d="M97.98,192.5c5.34,.8,10.91,1.81,16.25,.43,4.17-1.08,8.01-3.82,9.95-7.72,1.45-2.9,1.83-6.64,.09-9.51-1.44-2.37-4.02-3.79-6.55-4.74-6.14-2.31-12.84-2.27-19.05-4.3-4.45-1.46-8.67-3.98-11.18-8.04-2.35-3.8-2.97-8.73,.13-12.31,2.7-3.11,7.13-3.99,11.06-3.6,5.43,.54,10.64,2.76,16.01,3.76,9.63,1.79,20.06,1.52,29.2-2.23,8.13-3.34,15.24-9.84,16.63-18.87,1.26-8.18-2.52-16.73-9.36-21.37-7.22-4.9-16.85-4.81-24.25-.32-4.26,2.59-7.04,6.35-9.26,10.74-2.06,4.07-3.85,8.39-7.41,11.41-7.35,6.22-18.63,4.11-26.48-.03-7.09-3.74-13.12-10.79-11.58-19.31,1.38-7.68,8.69-12.58,15.58-14.97,4.72-1.64,9.77-2.21,14.71-2.76,5.64-.63,11.26-1.26,16.82-2.38,10.55-2.11,21.27-5.63,30.41-11.41,8.08-5.11,15.22-14.08,11.55-24.14-3.28-8.99-13.24-14.51-21.88-17.18-8.86-2.75-18.48-3.12-27.59-1.48-8.05,1.45-16.53,4.75-21.49,11.6-2.88,3.98-4.16,9.12-1.64,13.61,2.33,4.15,6.77,6.91,10.87,9.07,4.5,2.38,9.3,4.12,14.11,5.77,5.14,1.76,10.3,3.48,15.53,4.97,10.7,3.05,21.56,4.98,32.46,7.12,9.91,1.95,20.02,4.71,28.19,10.92,8.3,6.31,12.87,15.61,11.99,26.09-.82,9.82-5.16,19.34-11.45,26.86-5.99,7.16-14.19,12.33-23.52,13.65-8.9,1.26-18.44-1.01-25.69-6.37-7.67-5.67-11.71-14.62-9.04-24.02,2.68-9.43,10.51-16.06,18.55-21.02,8.14-5.01,16.96-8.88,24.52-14.81,7.56-5.93,13.42-13.94,15.12-23.55,1.6-9.03-.95-18.88-8.33-24.73-6.5-5.15-15.88-6.41-23.06-1.87-6.91,4.37-8.75,12.9-8.8,20.55-.06,9.53,2.47,19.74-1.76,28.76-3.62,7.72-11.64,10.84-19.8,10.19-7.44-.59-16.59-3.8-21.11-10.07-2.21-3.07-3.09-7.01-1.75-10.62,1.27-3.43,4.08-6.09,6.94-8.24,3.18-2.4,6.7-4.33,10.16-6.29,4.89-2.76,9.82-5.45,14.71-8.2,8.33-4.69,17.06-9.42,24.34-15.68,5.69-4.89,10.31-11.75,7.55-19.49"/><path class="h" d="M184.87,87.38c3.38-5.35,6.75-11.05,7.14-17.37,.39-6.32-3.24-13.35-9.44-14.61-2.49-.51-5.09-.06-7.59-.52s-5.1-2.38-4.91-4.92c.19-2.45,2.75-3.91,4.15-5.93,3.18-4.61-.51-11.2-5.47-13.79-7.65-3.99-18.46-1.19-22.33,6.53-3.87,7.72,1.26,18.74,9.82,19.86,4.72,.62,9.32-1.45,13.65-3.43,4.33-1.98,9-3.95,13.69-3.14,4.69,.81,8.95,5.7,7.28,10.15-1.22,3.25-4.8,4.8-7.9,6.37-3.1,1.57-6.4,4.18-6.13,7.64,.26,3.33,3.9,5.49,7.24,5.6s6.54-1.2,9.8-1.93,7.04-.75,9.52,1.49c3.42,3.08,2.53,8.9-.29,12.54-2.82,3.64-7.01,5.9-10.49,8.91-3.48,3.01-6.43,7.5-5.34,11.97,1.32,5.4,8.91,7.78,13.41,4.5,4.5-3.27,4.94-10.58,1.3-14.79s-10.37-5.02-15.26-2.37c-4.89,2.65-7.83,8.24-7.96,13.8-.11,4.7,1.78,9.6,5.59,12.36s9.57,2.87,13.01-.34c2.42-2.26,3.86-6.02,7.11-6.63,4.33-.81,7.09,5.52,4.83,9.3-2.26,3.77-7.04,5.11-11.4,5.68-3.08,.4-6.45,.7-8.72,2.82-2.27,2.12-2.13,6.83,.88,7.57,1.47,.36,3.05-.34,4.53,.02,2.78,.67,3.27,4.9,1.29,6.98-1.97,2.07-5.2,2.34-8.03,1.92-2.83-.42-5.61-1.39-8.47-1.28s-5.98,1.69-6.58,4.49c-.88,4.05,3.46,9.24,.19,11.78-2.17,1.68-5.25-.17-7.23-2.08s-4.62-4.11-7.12-2.98c-4.62,2.09-.4,11.03-4.81,13.53-2.97,1.69-6.34-1.61-7.71-4.74-1.37-3.13-2.73-7.02-6.08-7.71-3.17-.65-6.21,2.55-6.21,5.79,0,3.24,2.27,6.11,5.02,7.83,1.94,1.21,4.28,2.13,5.3,4.18,1.57,3.14-1,6.82-3.86,8.85-4.79,3.4-12.44,4.34-15.84-.46-1.55-2.19-1.8-5-2.03-7.67-.23-2.67-.56-5.5-2.21-7.6-1.65-2.11-5.12-3.01-7.02-1.13-1.93,1.92-1.1,5.24,.4,7.52,1.5,2.27,3.59,4.35,3.98,7.04,.76,5.33-6.46,9.13-11.29,6.76s-6.83-8.4-6.46-13.78c.33-4.66,1.25-10.87-3.08-12.63-3.95-1.61-7.99,3.37-7.27,7.57,.72,4.2,4.22,7.28,7.5,10-.42,1.78-3.15,1.92-4.46,.65s-1.62-3.21-2.06-4.98c-.44-1.77-1.29-3.7-3.01-4.29s-3.96,1.51-2.84,2.95c-3.07-.86-3.2-5.07-3.2-8.26,0-3.19-2.18-7.43-5.13-6.23-1.32,.54-1.97,1.98-2.91,3.05-1.85,2.12-5.19,2.76-7.7,1.49-2.51-1.27-3.96-4.35-3.34-7.09,.5-2.23,2.14-4.01,3.12-6.08,.98-2.07,1.03-5.01-.94-6.17-2.11-1.23-4.76,.53-6.14,2.54-1.38,2.02-2.37,4.51-4.52,5.65-2.74,1.45-6.37-.09-8.01-2.73s-1.66-5.98-1.06-9.03c1.04-5.23,4.11-10.35,9-12.5,4.88-2.15,11.55-.36,13.66,4.54,2.11,4.9-2.5,11.61-7.71,10.43-3.58-.81-5.74-4.42-7.03-7.85s-2.26-7.21-4.99-9.66c-1.61-1.45-3.69-2.28-5.36-3.65-3.35-2.74-4.56-8.21-1.78-11.52,2.79-3.31,9.42-2.17,10.13,2.1,.24,1.43-.16,2.9,.08,4.33,.59,3.6,5.44,5.41,8.61,3.59,3.17-1.82,4.28-6.16,3.09-9.61-1.19-3.45-4.24-6-7.6-7.43-4.27-1.82-9.24-2.15-12.95-4.93-5.25-3.93-5.94-12.67-1.29-17.29,4.65-4.62,13.51-3.78,17.1,1.7,2.41,3.67,2.24,8.94-.63,12.26-2.87,3.33-8.29,4.21-11.91,1.72-3.62-2.49-4.67-8.13-1.97-11.6,2.14-2.75,5.79-3.7,8.84-5.39s5.82-5.29,4.29-8.42c-.99-2.02-3.37-2.94-4.78-4.7-2.65-3.33,.02-9.22,4.27-9.42,4.25-.2,7.46,5.42,5.14,8.98-1.58,2.43-4.8,3.44-6.26,5.94-2.12,3.61,1.12,8.73,5.29,9.13,4.17,.39,8.04-3.07,9.05-7.13s-.39-8.41-2.75-11.87c-1.96-2.87-4.62-5.4-5.54-8.74-1.54-5.55,2.23-11.19,6.52-15.03,2.21-1.98,4.72-3.79,7.63-4.37,2.91-.58,6.29,.37,7.85,2.9,2.19,3.57-.13,8.32-3.31,11.05-3.18,2.73-7.21,4.46-9.93,7.65-4.51,5.29-4.05,13.83,.37,19.2,4.42,5.37,12.03,7.54,18.87,6.25,5.27-1,10.75-4.89,10.67-10.26-.08-5.28-5.21-8.82-9.53-11.86-4.32-3.04-8.82-7.96-7.01-12.92,1.13-3.09,4.32-4.83,7.29-6.23s6.21-2.93,7.66-5.88c1.44-2.95-.47-7.52-3.74-7.16,2.86-1.85,5.83-3.74,9.2-4.29s7.25,.61,8.87,3.61c1.34,2.48,.89,5.63,2.24,8.1,1.59,2.91,5.75,4.02,8.58,2.31,2.83-1.72,3.76-5.93,1.92-8.68-2.37-3.54-7.75-3.9-10.3-7.31-2.36-3.17-.71-8.56,3.12-9.57,3.82-1.02,8.01,3.28,6.64,6.99-1.85,5.04-9.62,4.47-13.18,8.48-2.86,3.22-1.75,8.83,1.77,11.31,3.52,2.48,8.6,1.99,12.09-.52,3.5-2.51,5.52-6.7,6.2-10.95,.52-3.25,.36-6.73,1.96-9.6s6-4.52,8.16-2.04c2.18,2.49,.1,6.47-2.58,8.41-2.69,1.93-6.1,3.18-7.72,6.07-2.51,4.47,1.11,10.37,5.91,12.16,4.8,1.79,10.14,.7,15.14-.41l9.99-2.22c2.93-.65,6.28-1.63,7.44-4.4,1.46-3.5-1.82-7.39-5.47-8.44-6.53-1.89-13.31,2.04-18.3,6.65-4.99,4.61-9.37,10.22-15.61,12.91-8.94,3.85-20.34,1.07-28.01,7.06-1.8,1.4-3.34,3.47-3.17,5.75,.24,3.14,3.66,5.14,6.8,5.32s6.21-.89,9.34-1.19c3.13-.3,6.75,.46,8.35,3.17,1.7,2.89,.25,6.77-2.24,9.02-2.49,2.25-5.77,3.36-8.81,4.78-4.92,2.28-9.41,5.5-13.16,9.42-1.7,1.78-3.35,3.95-3.27,6.41,.14,4.33,5.37,6.66,9.69,6.45s8.62-1.88,12.88-1.11c8.29,1.51,12.27,12.48,8.63,20.09-3.63,7.6-12.47,11.58-20.89,11.91-6.51,.26-13.79-1.84-16.93-7.55-2.63-4.78-1.72-10.92-4.46-15.64-2.88-4.97-9.89-7.02-15-4.4-3.53,1.81-5.91,5.45-6.76,9.32-2.27,10.37,6.17,20.7,16.2,24.21,10.02,3.51,21.04,1.9,31.48-.04,10.44-1.94,21.21-4.19,31.57-1.84"/><path class="h" d="M107.79,28.78c5.39,7.98,7.02,20.69,17.42,24.05,3.04,.98,6.56,.9,9.21-1.06"/><path class="h" d="M211.85,126.54c.63-7.52-1.09-15.6-5.82-21.61-2.6-3.31-6.17-6.08-10.4-6.79-4.83-.82-9.49,.96-13.77,3.01-9.31,4.48-18.48,9.39-25.96,16.63-6.53,6.33-11.59,15.76-21.04,18.06-8.58,2.08-16.74-2.23-23.08-7.7-3.2-2.76-6.08-5.88-8.79-9.11-3.01-3.6-6.08-7.25-8.27-11.43-2.22-4.23-3.37-8.96-2.42-13.72,.94-4.65,3.5-8.79,6.26-12.58,4.94-6.82,11.46-14.06,9.61-23.15-.7-3.43-2.59-6.78-5.84-8.34-4.13-1.98-8.44-.27-12.27,1.56-3.72,1.78-7.6,3.87-11.83,2.71-3.75-1.03-6.54-4.17-7.61-7.85-.72-2.49-.7-5.16-.1-7.67"/><path class="h" d="M204.25,144.08c2.3-2.37,4.17-5.17,5.42-8.23"/><path class="h" d="M175.41,170.11c-3.8-4.7-9-6.73-14.07-9.66-4.16-2.41-9.35-7.74-6.41-12.94,2.6-4.6,8.79-4.31,13-2.53,4.89,2.06,9,5.54,14.32,6.57,6.13,1.2,12.56-.39,17.7-3.86"/><path class="h" d="M136.52,196.62c.61-4.68-.11-9.75,2.43-14.1,2.9-4.71,9.06-7.61,13.37-3.25"/><path class="h" d="M83.02,185.65c4.72-3.64,4.1-11.91,10.35-13.93,7.41-2.39,11.73,6.24,13.36,11.89,1.31,4.54,1.98,9.25,3.46,13.75"/><path class="h" d="M35.28,127.03c8.84,2.82,18.59,2.1,27.01,6.38,3.42,1.74,6.53,4.31,8.14,7.86,1.85,4.07,1.37,8.65-1.28,12.25-3.14,4.26-8.45,6.01-12.11,9.71"/><path class="h" d="M38.25,83.94c1.68,5.74,5.45,9.57,10.41,12.69,4.33,2.72,9.59,4.93,12.49,9.37,2.81,4.3,1.9,10.94-3.63,12.42-5.74,1.54-10.44-3.2-13.74-7.2s-6.92-8.95-12.59-8.97"/><path class="h" d="M102.29,26.69c-2.13,5.38-2.5,10.82-1.77,16.62,1.45,7.25,5.44,13.05,8.7,19.58,2.9,6.53,2.9,15.59-4.35,18.85-9.43,4.35-18.85-2.18-24.65-10.15-6.16-8.7-10.88-18.85-21.55-22.28"/><path class="h" d="M204.81,74.67c-7.89-4.98-17.3-6.88-26.49-7.52-10.21-.72-20.49,.86-30.67-.41-8.02-1-16.16-4.19-21.21-10.8-4.51-5.92-4.26-14.39,2.48-18.51,6.33-3.87,14.94-3.38,20.19-9.11,.7-.76,1.3-1.61,1.78-2.52"/><path class="h" d="M146.96,186.44c-13.91,4.23-30.16,2.9-41.46-6.93-10.03-8.72-15.83-24.34-9.99-37,2.68-5.81,7.96-9.86,14.07-11.55,7.35-2.04,15.13-.63,22.18,1.89s14.03,6.5,21.11,9.63c7.12,3.15,14.76,5.48,22.61,5.46,13.69-.03,27.98-8.59,29.62-23.17,.71-6.26-1.35-12.82-5.96-17.2-5.26-4.99-12.5-5.62-19.15-3.32-13.16,4.55-22.1,20.56-37.24,19.39-6.77-.52-12.18-5.15-15.47-10.84s-5.61-13.38-4.41-20.1c1.09-6.07,5.75-10.27,11.92-10.67,7.1-.45,13.94,3.54,19.97,6.77,7.05,3.77,14.26,7.21,21.51,10.58,6.92,3.22,13.94,6.86,21.57,7.97,3.6,.52,7.38,.49,10.81-.86"/><path class="h" d="M40.94,143.5c2.63,4.65,6.02,9.44,11.22,11.38,4.4,1.64,10.17,1.13,13.54-2.42,5.29-5.57,.1-14.97-2.57-20.55-3.91-8.19-8.16-20.33,.91-26.85,4.09-2.94,9.25-2.07,12.66,1.46,3.85,3.99,5.24,9.76,7.09,14.81,3.69,10.05,10.01,19.64,18.8,25.93,7.88,5.63,18.46,8.27,27.38,3.37,8.77-4.83,13.32-15.74,10.48-25.35-1.45-4.92-4.81-9.2-9-12.12-4.98-3.47-10.63-4.32-16.58-3.67-5.43,.59-10.86,2.03-16.2,.12-5.09-1.83-8.63-6.29-10.88-11.05-3.73-7.93-5.26-19.12,.63-26.45,7.19-8.93,19.15-5.68,27.08,.26,4.6,3.44,8.31,7.93,12.06,12.23,4.01,4.6,8.21,9,12.79,13.04,8.32,7.33,17.99,14.74,28.96,17.39,5.13,1.24,10.72,1.42,15.53-1.04,4.83-2.48,7.66-7.32,8.83-12.49,2.48-10.97-1.18-22.66-6.87-32.03-5.37-8.85-13.22-17.47-23.12-21.18-4.54-1.71-9.9-2.48-14.48-.46-4.99,2.2-7.09,7.31-7.25,12.5-.18,5.88,1.29,11.95,2.65,17.64,1.46,6.13,3.31,12.16,5.35,18.13,4.05,11.83,9.51,22.96,14.32,34.47,4.39,10.5,8.2,22.12,5.62,33.58-1.15,5.14-3.66,9.88-7.36,13.64"/><g class="m"><path d="M126.54,132.6c-.02-.14-.03-.28-.04-.42-.09-2.36-.04-1.94-.34-3.99h0c-.17-1.62-.46-3.44-2.09-4.19-2.13-1.13-3.32,.59-3.9,2.46-.22,1.01-.2,2.05-.2,3.07-.06,2.13,.11,4.27-.1,6.38-.13,.68-.3,1.36-.51,2.02-.02-.02-.04-.04-.05-.05-.02-.03-.04-.06-.06-.09-.58-1.02-.16-.07-.64-1.41-.39-1.29-.23-.75-.4-2.31-.17-1.99-.34-3.98-.55-5.97-.1-.86-.35-1.71-.67-2.52-.12-.31-.2-.66-.46-.9-.14-.1-.18-.13-.19-.14h-.01c-.39-.33-1.04-.37-1.38,0-.59,.83-.82,1.91-.83,2.91,0,.02,0,.04,0,.06-.7,2.29-1.06,4.66-.76,7.06,.06,.7,.15,1.42,.28,2.13-.02-.04-.04-.08-.05-.11-.57-1.51-.92-1.98-1.13-2.55-.83-1.77-1.59-3.58-2.51-5.31-.17-.3-.36-.59-.49-.91-.71-1.66-.71-1.43-1.11-2.69-.35-1.42-.94-2.86-2.16-3.74-.68-.58-1.63-.66-2.49-.49-.76,.17-1.35,.81-1.6,1.54-.34,.74-.39,.63-.61,2.19,.02-.18,.05-.35,.07-.53-.09,.34-.17,.68-.2,1.04-.2,1.06-.18,1.05-.27,1.36-.21,1.15-.62,2.24-.84,3.38-.07,.16,0,0,.07-.15-.28,.64-.46,1.32-.6,2.01-.23,.67-.38,1.36-.49,2.05-.35,1.26-.61,2.54-.95,3.8-.31,.93-.52,1.9-.61,2.88,0,.04,0,0,.01-.1-.06,.73-.18,1.48-.12,2.21,.12,1.76,1.74,2.76,2.99,3.76-.77-1.13-2.02-2.25-1.84-3.73,.39-1.53,.71-2.6,1.44-3.97,.94-1.9,1.06-2.4,1.81-4.01,.06-.18,.12-.35,.17-.49,.01,.15,.03,.29,.04,.44,.02,.54-.39,1.38-.64,2-.77,1.52,.57,2.13,1.91,1.92,1.03-.14,1.58-.6,2.34-.88,.14-.04,.34-.09,.56-.13,.51,1.4,.85,2,1.08,2.57,.51,1.15,.21,.57,.97,2.23,.14,.22,.31,.43,.47,.63,.06,.08,.13,.17,.19,.25-.03-.04-.03-.04,.03,.05,.77,1.21,1.69,2.5,3.12,2.93,1.61,.47,3.44-.77,3.44-2.48-.02-.45-.09-.9-.21-1.34-.04-.41-.14-.81-.25-1.2,.2,.34,.42,.67,.66,.99,.7,.82,1.62,1.47,2.68,1.7,1.08,.19,2.2,.29,3.26-.06,1.08-.36,1.99-1.14,2.69-2.03,.61-.71,1.15-1.48,1.46-2.37,.4-1.03,.63-2.11,.67-3.21,0-1.19,.08-2.4-.07-3.59Zm-21.71-5.33c.1,.24,.19,.48,.29,.72-.16-.06-.32-.1-.48-.12,.05-.17,.12-.37,.19-.6Zm.57,9.54c-.63,.1-1.43,.29-1.61,.3-.11,.02-.26,.01-.41-.01,.34-.51,.69-1.01,.91-1.59,.25-.62,.24-1.29,.32-1.94,0-.08,.01-.16,.02-.22,.11,.37,.26,.81,.49,1.38l.05,.11c.54,1.32,.48,1.05,.88,1.95-.22,0-.43,0-.64,.03Zm10.25-11.45s.02,.04,.04,.07c0,.07,0,.02,.02,.19,.41,1.95-.16,4.97-.31,7.46,0,.08-.02,.15-.02,.23-.1-.4-.2-.82-.32-1.28-.27-1.35-.23-4.08-.01-6.26,.13-.19,.28-.36,.43-.53l.08,.02s.03,.04,.04,.05c.03,.03,.05,.04,.06,.05Z"/><path d="M116.38,124.58l-.03-.02c.12,.09,.08,.05,.03,.02Z"/><path d="M116.34,124.55h0Z"/></g><path class="m" d="M138.5,125.02c.86-1.65-1.01-2.54-2.29-3.01-.89-.31-1.85-.14-2.77-.06-.66,.06-1.28,.26-1.9,.47-.53,.11-1.06,.18-1.58,.34-.56,.17-.99,.34-1.38,.5l.04-.08s-.06,.07-.1,.1c-.55,.23-1.02,.45-1.68,.67-.4,.29-.42,.8-.35,1.25,0,.43,.13,.76,.53,.92,.25,.63,1.16,1.02,2.46,1.46,.11,.18,.1,.14,.17,.3,.06,.01-.06,.96-.09,1.38-.09,1.11,0,2.24-.14,3.35-.16,.55-.37,2.8-.5,3.46-.28,1.93-.64,4.05,.27,5.87l.04,.09c.37,.86,.95,1.67,1.79,2.12,1.89,.9,3.66-.09,4.23-2.05,.56-2.4,.2-4.86-.34-7.22-.02-.12-.03-.19-.04-.24-.24-1.87-.24-4.07-.36-6.8,.3-.02,.6-.06,.89-.14,.92-.3,1.72-.9,2.37-1.6,.11-.12,.2-.24,.3-.37,.04-.05,.1-.12,.16-.2,.05-.07,.1-.16,.14-.25,.03-.06,.05-.09,.06-.11,.04-.05,.07-.09,.11-.14Zm-11.59,.74c-.11-.24,.01-.42,.02-.62,.03-.19,.07-.46,.21-.55,.04,0,.19,0,.28,0-.34,.49-.48,.89-.47,1.22-.01-.01-.02-.02-.04-.04Zm1.93,.36c-.36-.08-.83-.13-1.09-.33-.11-.08-.11-.22-.09-.35,.06-.32,.16-.64,.29-.94,.49-.08,.98-.18,1.48-.25,.97-.13,1.96,0,2.93-.12,.73-.1,1.47,0,2.2,.08l.11,.02c.12,.02,.25,.05,.37,.08-.02,.01-.04,.02-.06,.03-.07,.03-.16,.07-.24,.1-.03,0-.05,.02-.08,.02-.17-.01-.63-.01-.85-.04-2.19-.21-2.83,.85-3.01,2.39-.17-.18-.37-.34-.59-.45-.49-.26-1.29-.18-1.37-.24Z"/><path class="m" d="M153.2,131.82c-.09-1.01-.35-1.97-.79-2.89-.36-.9-.59-1.88-1.15-2.68-.85-1.09-1.81-2.13-2.94-2.93-1.7-.97-3.81-1.05-5.71-.86-1.61,.4-2.32,2.06-3.07,3.38-.04,.07-.08,.14-.12,.21-.12,.09-.24,.18-.36,.27-2.17,2.02-3.44,4.93-3.74,7.86-.14,.84,.05,1.68,.17,2.51,.14,.94,.3,1.88,.73,2.74,.77,1.32,.75,1.03,1.19,1.69,1.02,1.51,2.75,2.33,4.53,2.47,.33-.04,1.11,.4,2.89,.16,1.21-.28,2.39-.75,3.51-1.27,1.36-.86,2.62-1.99,3.45-3.37,.17-.25,.56-1.18,.71-1.55,.55-1.15,.78-2.41,.78-3.69,.03-.68,0-1.36-.08-2.04Zm-6.11,3.01c.01-.1,.03-.21,.04-.31-.2,.92-.06,.67-.67,1.57-.08,.1-.2,.24-.28,.32-.09,.1-.24,.24-.35,.33-.24,.18-.5,.33-.78,.46-.08,.02-.16,.04-.23,.06-.27,.02-.55,.02-.83,.03h-.03c-.37-.09-.73-.2-1.1-.3l-.1-.04c-.22-.1-.45-.21-.65-.34-.1-.09-.23-.22-.34-.35-.29-.4-.5-.86-.7-1.31-.07-.19-.13-.39-.17-.59-.04-.17-.07-.35-.1-.52,0-.05,0-.1,0-.15v-.09c.11-.61,.19-1.23,.4-1.81,.18-.39,.61-1.38,.72-1.67,.14-.47,.9-1.77,1.74-3.37,.06-.11,.12-.22,.18-.33,.89,0,1.37,.05,1.67,.11,.18,.25,.36,.52,.55,.76,.54,.68,.6,1.57,.83,2.37,.61,1.75,.5,3.24,.22,5.15Zm.79-6.35c.05,.08,.11,.17,.17,.29,.01,.03,.03,.05,.04,.08,.68,1.97,1.07,2.52,1.14,3.63h0c0-.09-.02-.16-.03-.22,0,.04,0,.07,.01,.11-.17-.93-.48-1.84-.96-2.67-.36-.6-.61-1.28-.99-1.87,.08,.09,.17,.18,.28,.29,.11,.12,.23,.24,.33,.37Z"/><g class="m"><path d="M160.61,169.75l-.05,.02c-.09,.04-.18,.08-.28,.12,.12-.04,.29-.1,.33-.14Z"/><polygon points="151.05 150.4 151.04 150.41 151.04 150.41 151.05 150.4"/><path d="M185.43,154.85c-.23-.37-1.68-2.18-.98-1.26-.06-.08-.13-.16-.19-.25,.02,.03,.02,.02-.07-.1-.95-1.37-.93-1.04-1.42-1.79-.09-.13-.19-.26-.28-.39,.68-.29,.83-.49,.99-.62,.86-.63,1.63-1.44,2.08-2.42,.77-1.6,.49-3.5-.04-5.13-.7-2.07-2.13-2.65-4.12-2.21h0c-2.37,.11-5.62-.57-7.01,1.89-.49,1.01-.63,2.11-.74,3.21-.05,.51-.09,1.03-.13,1.54-.06-.07-.11-.13-.17-.2-1.62-2.08-4.3-2.51-6.22-.66-.2,.05-.4,.12-.6,.22-.59,.24-.95,.78-1.33,1.26-.75,.9-1.2,1.98-1.68,3.03-.34,.68-.58,1.38-.75,2.11-.24-.94-.54-1.88-1.17-2.63-1.96-2.99-5.26-2.8-8.2-1.4-.84,.36-1.65,.8-2.37,1.35-.03,.03-.07,.05-.1,.08,.04-.03,.07-.06,.1-.08-.08,.06-.17,.12-.25,.19-.07,.06-.1,.08-.11,.09-.22,.17-.44,.34-.67,.51-.78,.75-.78,2.11,0,2.86,.26,.28,.58,.43,.92,.51-.25,1.17-.45,2.36-.6,3.54-.05,1.98-.32,3.94-.41,5.92,0,.36,0,.66,0,.94-.32-.66-.38-.92-.97-2.48-.71-1.71-.5-1.17-.92-2.37-.17-.6-.43-1.17-.59-1.78-.12-.55-.2-1.1-.37-1.63-.42-1.19-.65-2.49-1.4-3.54-1.62-2.47-4.64-2.86-5.31,.51-.34,1.79-.14,3.57,.18,5.33-.3,.83-.61,1.65-.95,2.46-.51,1.8-1.01,3.61-1.45,5.43-.17,.63-.26,1.27-.33,1.92-.09,.47-.17,.94-.24,1.41-.33-.95-1.25-1.66-2.86-1.77-1.58-.23-3.09,.37-4.55,.89-1.17,.34-1.34,.41-1.64,.41h-.02c-.18-.1-.35-.2-.52-.3-.14-.09-.29-.19-.43-.29l-.03-.02c-.08-.07-.15-.15-.23-.22l-.03-.04c0-.1,0-.19,0-.29,.02-.03,.04-.07,.06-.1,.45-.54,1.03-.95,1.53-1.44,.12-.11,.23-.22,.35-.34,.59-.02,1.17-.04,1.76-.12,.84-.1,1.69-.03,2.53-.17,.58-.11,1.12-.39,1.64-.66,.99-.54,1.39-1.66,1.35-2.74,0-1.25-.54-2.52-1.67-3.15-1.16-.67-2.55-.57-3.77-.12-1.07,.34-2.11,.74-3.11,1.26-.13,.07-.26,.14-.4,.21-.11-.48-.1-.62-.08-1.76,.01-.11,.02-.21,.04-.32v-.05c.11-.5,.2-1.01,.37-1.49,.2-.37,.17-.27,.7-.54,.62-.19,1.27-.24,1.91-.36,.72-.21,1.43-.47,2.11-.79,.17-.1,.35-.2,.54-.28,.88,.07,1.75,.18,2.59,.31-.57-.27-1.15-.51-1.74-.72,.31-.17,.6-.36,.84-.63,.24-.28-.11,.05-.27,.11-.34,.18-.72,.22-1.09,.31h-.05c-.8-.26-1.6-.5-2.41-.72-1.11-.25-2.26-.58-3.39-.28-1.01,.34-1.9,.99-2.71,1.68-.63,.65-.99,1.51-1.11,2.4-.25,2.03-.41,4.08-.32,6.13-.04,1.18-.09,2.35-.13,3.53-.15,.61-.17,1.23-.06,1.84,0,.12,0,.24,0,.36,0,.89-.05,.44-.18,2.13-.03,.68-.07,1.4,.24,2.02,.71,1.76,2.63,2.41,4.41,2.34,1.29,.11,2.49-.35,3.63-.91h.02c.65-.18,3.46-.11,4.92-1.48,.32-.33,.58-.68,.79-1.03l-.02,.11c-.38,1.45,.58,2.75,2.01,3.07,2.16,.4,3.75-1.72,4.31-3.57,.3-1.28,.25-1.96,.3-2.45,.02,0,.03,0,.05,0,.33,.05,.94,.14,1.19,.14,.04,0,.08,0,.12,0,.16,.56,.3,1.12,.55,1.64l.03,.08,.04,.11c.29,.8,.57,1.63,1.15,2.28,1.82,1.87,4.71,.74,5.24-1.69,.3,.11,.64,.17,1.02,.18,2.01,.35,3.4-.37,4.82-1.74,.17-.15,.34-.29,.51-.44l.1-.07c.27-.16,.54-.3,.83-.43,.27-.1,.51-.17,.83-.32h.02s.04-.02,.05-.03h-.01c.1-.04,.19-.08,.29-.12,.65-.31,1.22-.79,1.64-1.37,.34-.38,.5-.88,.69-1.35,.24-.59,.47-1.17,.56-1.8,.3-1.16,.42-2.34,.46-3.53,.91,1.03,2.25,1.64,3.63,1.71,1.51,.18,3.11-.02,4.42-.83,1.36-.86,2.21-2.14,2.73-3.58,.13,.4,.25,.8,.38,1.2,.2,.5,.25,1.08,.61,1.5,.39,.58,1.15,.78,1.81,.62,.03,.11,.05,.21,.03,.32-.05,.21-.31,.38-.52,.36,.34,.18,.79-.06,.89-.42,.03-.14,.04-.29,.05-.44,.12-.07,.24-.16,.34-.26,.78-.77,.43-1.89,.41-2.86-.03-1.09-.26-2.15-.5-3.2,0-.1-.01-.2-.02-.3,.19,.06,.4,.09,.64,.08,.04,0,.26,0,.44-.01,.28,1.67,.73,3.36,1.99,4.56,1.35,1.27,3.54,.65,4.61-.69,1-1.36,.47-3.32-.42-4.61Zm-39.56,11.46c.03-.13,.05-.27,.07-.4v.04c.07,.13,.12,.26,.18,.38-.08,0-.16-.01-.25-.02Zm7.19-10.93c-.19,1.14-.16,1.48-.43,2.63-.16,.81-.25,1.64-.32,2.47v-.06c-.09-.8-.23-1.6-.36-2.4-.09-1.12-.16-2.23-.19-3.35,.31,0,.61,0,.91,0,.15,0,.25,.01,.31,.02,.08,.01,.17,.03,.25,.05-.06,.22-.12,.43-.17,.65Zm1.11,13.8h-.02c-.14,.01-.36,.02-.59,.03-.06-.26-.07-.56-.12-1.09,.14,.16,.29,.31,.45,.45,.19,.16,.37,.3,.56,.42-.09,.08-.18,.14-.27,.19Zm2.78-4.74c0,.08-.02,.16-.03,.24,0,.03-.01,.05-.02,.08-.37,.7-.57,1.09-.75,1.37-.37-.19-.25-.16-.58-.43-.68-.68-.8-1.18-.96-2.8-.16-1.93-.43-3.85-.43-5.79-.08-.72-.14-1.44-.14-2.15,.05,.02,.1,.03,.15,.05,.2,.11,.4,.22,.59,.36l.03,.02c.1,.09,.19,.19,.28,.28,.1,.11,.21,.21,.32,.31,.25,.39,.45,.8,.64,1.22,.3,.79,.51,1.6,.63,2.44v.03c.21,1.66,.26,2.23,.25,4.77Zm.22-12.33h.02c.05,0,.11,0,.16,0,.13,.03,.26,.06,.39,.1,.06,.03,.11,.06,.16,.1l.07,.06c.08,.1,.13,.14,.14,.16,.08,.11,.17,.22,.25,.33,.08,.1,.14,.2,.2,.31,.06,.18,.12,.37,.18,.56-.43-.61-.97-1.16-1.58-1.61Zm12.41-2.64c.34,.34,.52,.84,.66,1.33-.11-.2-.22-.4-.33-.59,.17,1.58,.36,3.27,.34,4.97h0c-.06,.12-.16,.33-.23,.42-.02,.03-.04,.05-.06,.08-.08,.1-.28,.32-.38,.39h0c-.11,.07-.25,.15-.36,.2-.05-.05-.1-.11-.14-.17-.19-.29-.43-.76-.52-.9-.08-.24-.11-.49-.15-.73-.04-.18-.09-.54-.12-.71-.02-.16-.03-.32-.02-.48,.14-1.57,.61-3.08,1.34-3.81Zm1.15,8.57c-.15,.25-.3,.51-.46,.75-.1,.11-.22,.21-.33,.31-.14,.1-.29,.18-.44,.25h-.02c-1.06,.28-.41,.19-2.05,.19-.07,0-.13-.01-.2-.02-.07-.01-.13-.03-.2-.05-.13-.06-.29-.15-.43-.23-.06-.05-.12-.11-.17-.17-.18-.26-.34-.53-.46-.82-.04-.1-.07-.17-.09-.22-.42-1.06-.29-1.18-.41-2.67,.14,.42,.29,.82,.52,1.2,.46,.7,1.13,1.47,1.9,1.89-.15,.09-.3,.17-.47,.23,.19,.02,.39,0,.58-.03,.07-.01,.14-.03,.22-.05,.6,.23,1.25,.24,1.9-.19,.25-.15,.47-.32,.66-.5-.02,.04-.04,.08-.06,.12Zm7.4-2.96c-.06-.66-.13-1.31-.22-1.95,.03-.04,.16-.17,.12-.14-.03,.02-.02,.02,0,0,.01-.01,.05-.03,.06-.04,.62,.14,.81,.6,.98,1.57,.05,.33,.1,.67,.15,1-.41-.08-.81-.21-1.1-.44Zm3.1-7.97c-.06,.06-.1,.09-.12,.11-.06,.05-.12,.09-.19,.14h0l.09-.07s-.08,.06-.12,.08c-.72,.25-1.37,.65-1.96,1.11-.03,.01-.06,.04-.13,.08-.54,.25-.91,.73-1.08,1.29,0,.05-.01,.09-.02,.13-.04-1.77,.02-3.54,.48-5.23,1.22-.05,2.45,.05,3.66-.07,.05,.2,.09,.41,.13,.61,.02,.27,.03,.55,.02,.82,0,.04-.02,.09-.03,.13-.06,.12-.13,.23-.2,.33-.17,.19-.34,.37-.52,.54Zm1.74,10.69s-.05,.03-.07,.05c-.1-.09-.19-.18-.28-.28-.54-.66-.76-1.02-.99-1.59,.26,.28,.53,.56,.78,.85,.08,.09,.16,.18,.24,.28,.11,.16,.22,.33,.32,.51,.01,.05,.03,.1,.04,.15-.01,0-.02,.02-.03,.03Z"/></g><path class="m" d="M120.44,154.99c-1.73-.18-2.01,.02-3.17-.4-1.27-.72-2.74-.9-4.17-1.07-.62-.02-1.32-.41-2.92,0-3.17,1.15-2.23,6.52,1.43,5.66,.23-.03,.46-.09,.68-.15,0,2.59,.11,5.19-.13,7.76-.24,3.03-.88,6.04-.72,9.09,.02,1.38,.08,2.88,1.08,3.94,1.74,1.84,4.16,.68,4.81-1.53,.43-1.48,.1-3.03,.08-4.54-.01-1.96-.03-3.47-.25-5.44-.2-2.19-.36-4.44-.82-6.61,0-.73,0-1.47,0-2.2,0-.09,0-.18,0-.28,.98,.04,1.97-.07,2.94-.1,1.14-.11,2.61-.1,3.21-1.28,.82-1.99-.04-2.78-2.05-2.87Zm-1.74,3.12c-.78,.2-1.56,.48-2.35,.67,0-.49,.02-.97-.02-1.45,.28,.06,.6,.11,.75,.13,.49,.08,.98,.1,1.46,.03,.71-.07,1.26-.22,2.3-.24-.02,.02-.03,.05-.04,.08-.55,.37-1.32,.55-2.09,.8Z"/><path class="m" d="M109.63,164.58c-.29-1.05-.66-2.07-1.15-3.04-.19-.33-.42-.64-.66-.95,.02,.02,.04,.04,.06,.06-1.61-2.48-2.12-6.73-5.68-7.06-1.05-.15-2.06,.32-2.97,.8-.83,.53-1.62,1.17-2.19,1.99-.75,.92-1.34,1.96-1.9,3-.78,1.71-1.24,3.55-1.39,5.42-.53-1.27-1.28-2.45-2.1-3.54-.81-.97-1.94-1.64-3.1-2.11-.02,0-.04-.02-.06-.02,.6-.25,1.17-.58,1.64-1.04,.5-.49,.72-1.13,.71-1.77,.33-1.4,.24-2.96-.74-4.04-.47-.42-1.12-.49-1.72-.59-1.45-.24-2.95-.24-4.35,.26-.15,.06-.5,.14-.67,.18-2.89,.1-3.82,2.46-4.33,4.97-.33,1.22-.25,2.47-.1,3.7,.03,1.89,.08,3.78,.23,5.67,.06,1.49,.03,2.98,.04,4.46,.04,1.14-.13,2.35,.28,3.44,1.16,3.33,4.76,4.33,7.85,3.06,1.02-.36,1.91-.98,2.76-1.64,.01,0,.06-.04,.17-.13,.68-.5,1.34-1.03,1.82-1.73,.77-1.17,1.65-2.29,2.16-3.61,.04-.12,.07-.25,.1-.38,.1,.38,.19,.77,.26,1.16,.95,3.92,3.47,7.99,8.05,7.49,2.62-.16,4.81-1.96,6.22-4.07,.63-1.15,.97-2.43,1.4-3.67,.61-2.11,.23-4.31-.64-6.29Zm-24.76,9.36c-.17,0-.35,0-.52-.02l-.22-.04-.17-.05c-.08-.04-.16-.08-.23-.13-.05-.06-.1-.11-.16-.17l-.02-.02c-.09-.14-.18-.29-.26-.44-.01-.03-.02-.07-.03-.1,0-.06,0-.11,0-.17,.71,.08,1.42,.12,2.14,.13,.55,.03,1.1,.1,1.65,.11-.42,.3-1.01,.67-1.96,.86-.07,.02-.14,.02-.21,.04Zm4.45-5.47c-.01,.44-.05,.88-.1,1.31v.06c-.11,.69-.44,1.15-.63,1.44-.79,.46-2.25,.7-3.39,.89-.64,.15-1.31,.28-1.96,.38,0-.28,0-.55,0-.83,.02-2.17,.02-4.33-.15-6.49,1.12,.51,2.39,.63,3.58,.3,.21-.06,.69-.15,.91-.18,.11-.01,.23-.02,.34-.02,.14,.04,.41,.11,.61,.18,.06,.03,.12,.07,.17,.11,.1,.09,.19,.18,.28,.28,.02,.02,.03,.05,.05,.09,.11,.32,.18,.65,.23,.98,.06,.5,.06,1,.04,1.51Zm.08-15.14c.46,.36,.72,.88,.87,1.43-.11-.14-.24-.28-.39-.4-.65-.55-1.44-.88-2.27-1.03,.19-.02,.39-.04,.61-.06,.49-.03,1.14-.05,1.18,.06Zm14.32,2.67c.58,.43,1.15,1.08,1.72,1.79-1.23-1.2-2.37-1.5-4.72-1.41,.82-.72,1.89-1.18,3-.38Zm3.5,12.46c-.34,1.61-.27,1-.91,2.56-.5,1.18-.88,1.67-.91,1.67-1.74,1.77-2.2,1.69-2.99,1.88-.27,.01-.55,.02-.82,0-.05-.01-.1-.02-.15-.03-.13-.04-.26-.09-.38-.14-.14-.07-.29-.14-.42-.22-.22-.19-.42-.39-.61-.61-.26-.47-.93-1.33-1.28-2.71-.26-.81-.42-1.66-.62-2.49-.16-.49-.33-.98-.43-1.48-.07-1.03-.11-2.06-.08-3.09,0-.02,0-.05,0-.07,.04-.2,.16-.83,.19-1.08,.28-1.72,.38-1.88,.78-2.85,.2-.57,.47-1.14,1.2-2.41,.2-.27,.45-.56,.73-.83,1,.25,2.01,.48,2.9,1.01,1.18,.92,1.61,2.52,2.46,3.84,.08,.12,.27,.53,.36,.75,.55,1.66,.44,1.9,.66,3.22,.23,1.25,.37,1.62,.36,2.02,.03,.21-.01,.73-.05,1.06Z"/><path class="m" d="M76.74,147.52c-.19-.97-.35-2.03-1.02-2.8-.72-.75-1.98-.84-2.78-.17-.79,.61-1.16,1.6-1.77,2.38-.62,1.04-1.45,1.96-1.92,3.09-.84,2.13-.45,1.72-.86,3.63-.23,.85-.42,1.01-1.09,2.71-.77,1.93-.58,1.62-1.58,3.75-.71,1.35-1.33,2.8-1.44,4.34-.07,.83-.11,1.7,.3,2.45,.81,1.44,2.69,1.84,4.05,.96,1.71-1.25,2.91-3.15,3.59-5.13,.01-.04,.02-.09,.03-.13,.11-.05,.22-.12,.32-.2,.13-.09,.23-.2,.32-.32,0,.03,0,.07,.01,.1,.06,.55,.16,1.1,.33,1.63,.03,.13,.1,.27,.24,.33,.13,.03,.11-.16,.1-.25-.02-.39-.02-.09-.06,.06-.28-.69,.25-3.26,.35-4.61,.08-.44,.13-.89,.16-1.34,.02-.04,.04-.09,.06-.13,0,.61,0,1.23,0,1.84,.14,2.53,.24,5.07,.7,7.57,.2-2.41,.67-4.71,1.06-7.28,.39-1.85,.75-3.71,.85-5.61,.14-2.29,.55-4.6,.05-6.87Zm-3.86,4.2s.02-.05,.03-.08c.23-.38,.47-.76,.7-1.14,.07,.74,.12,1.64,.18,2.58-.37-.18-.79-.23-1.21-.18,.07-.44,.15-.83,.3-1.17Z"/><path class="m" d="M67.23,140.88c-1.06-.59-2.24-.89-3.43-1.04-.97-.19-1.96-.28-2.93-.07-3.54,.62-4.37,4.68-4.49,7.73-.14,1.77,.99,3.22,2.38,4.23,.19,.24,.38,.47,.58,.69,.81,.94,1.86,1.63,2.7,2.53,.1,.16,.19,.34,.27,.51,.06,.15,.13,.34,.17,.5,.01,.22,.01,.43,.01,.65,0,.03,0,.06,0,.09l-.04,.15c-.04,.11-.07,.19-.08,.24h0c-.15,.34-.26,.6-.36,.81-.04,.04-.07,.07-.11,.11l-.06,.04c-.59,.37-1.19,.73-1.82,1.04-.16,.06-.32,.1-.49,.14-.1,0-.19,0-.29,0-.05-.01-.11-.03-.2-.05-.35-.16-.61-.23-1.06-.62-.29-.13-.83-1.31-.92-1.59-.03-.06-.04-.1-.07-.15l-.04-.09c-.41-1-.16-2.02-.59-3.53-.31-.59-1.2-.91-1.72-.39-1.08,1.22-1.28,3.11-.64,4.58-.18,.76-.25,1.54-.16,2.31,.28,2.12,2.47,3.32,4.42,3.59,2.47,.54,3.59-.74,5.28-2.16l.04-.02c2.21-1.09,3.01-3.6,3.22-5.9,.05-1.19,.12-2.5-.57-3.53-.81-1.12-2.07-1.85-3.32-2.38-.35-.14-.71-.26-1.06-.39-.07-.03-.15-.08-.24-.13-.02-.01-.04-.03-.06-.04-.06-.08-.14-.18-.22-.29l-.08-.1c-.03-.1-.06-.2-.09-.31v-.05c.14-.66,.31-1.32,.54-1.95,.01-.03,.03-.06,.05-.09,.04,0,.09,0,.13,0,.27-.02,.97,0,1.26,0,.21,.06,.42,.13,.64,.19,.12,.04,.25,.08,.37,.11l.12,.07c.15,.11,.31,.23,.46,.34,.16,.14,.3,.29,.45,.44,.6,.98,.31,.63,.7,1.37,.24,.39,.46,.71,.87,.96,1.83,.92,3.11-.14,3.68-1.91,.89-2.92-.89-5.08-3.19-6.64Zm-13.18,15.76c.02-.9,.39-1.91,.96-2.55-.04,.37-.08,.73-.11,1.1-.35,.6-.64,1.25-.84,1.93-.02-.16-.02-.32-.01-.48Zm.79-.86c-.06,.7-.02,1.41,.18,2.09,.18,.99,.53,1.96,1.22,2.7,.06,.06,.12,.12,.18,.18-.46-.2-.82-.49-1.18-.86-.64-1.08-.69-2.7-.4-4.11Z"/><path class="h" d="M99.69,144.77l4.45-19.54c3.16,5.63,5.9,11.51,8.17,17.55"/><path class="h" d="M115.23,125.61c-.19,3.99,.23,8.01,1.26,11.86,.23,.86,.5,1.73,1.02,2.46s1.33,1.29,2.22,1.3c.94,0,1.8-.61,2.31-1.4s.73-1.73,.88-2.65c.67-3.95,.38-7.99,.09-11.99"/><path class="h" d="M131.17,124.66l.82,17.23"/><path class="h" d="M126.78,125.03l10.64-.53"/><path class="h" d="M145.93,125.28c-2.35-.67-4.97,.62-6.33,2.65-1.37,2.03-1.65,4.63-1.33,7.05,.21,1.6,.71,3.27,1.91,4.35,1.85,1.66,4.92,1.39,6.84-.19,1.92-1.58,2.81-4.13,2.94-6.62,.09-1.66-.14-3.38-.93-4.85s-2.2-2.65-3.1-2.39Z"/><path class="h" d="M67.16,146.78c.02-2.12-1.59-4.14-3.65-4.6s-4.38,.68-5.27,2.6c-.89,1.92-.26,4.42,1.42,5.7,.91,.69,2.05,1.03,2.98,1.7,1.91,1.4,2.54,4.29,1.37,6.35-1.17,2.06-3.97,3.01-6.15,2.09-2.18-.92-3.45-3.6-2.79-5.87"/><path class="h" d="M66.29,165.3c2.33-5.15,4.66-10.29,7.27-15.44l.5,18.4"/><path class="h" d="M70.1,158.44l3.73,1.57"/><path class="h" d="M82.36,174.75c-.43-6.84-.86-13.68-.99-19.54,2.09-.75,4.33-1.12,6.55-1.08,.81,.02,1.72,.13,2.23,.77,.43,.53,.44,1.32,.18,1.95s-.76,1.14-1.28,1.58c-1.82,1.53-4.14,2.45-6.5,3.64,2.52-1.52,6.09-.96,8.03,1.25,1.94,2.21,2.03,5.83,.2,8.13-1.83,2.3-5.37,3.03-8.43,3.3Z"/><path class="h" d="M104.5,157.74c-.9-1.3-2.82-1.56-4.26-.91s-2.44,2-3.14,3.41c-1.96,3.96-1.91,8.86,.13,12.78,1.01,1.94,2.79,3.78,4.97,3.69,1.97-.08,3.53-1.73,4.47-3.48,2.7-5.03,.89-11.08-2.17-15.5Z"/><path class="h" d="M114.74,156.57l.04,22.76"/><path class="h" d="M110.18,156.48l11.06-.06"/><path class="h" d="M126.45,156.04c-.23,5.88-.46,11.77-.63,17.11l10.53-.93"/><path class="h" d="M126.88,164.44l7.34-.96"/><path class="h" d="M126.67,156.33l8.72-1.18"/><path class="h" d="M139.9,173.5c.75-6.39,1.5-12.77,3.27-18.39l6.24,18.84"/><path class="h" d="M141.24,167.1l6.06-.74"/><path class="h" d="M102.53,135.85l6.5-1.45"/><path class="h" d="M153.58,169.52c-1.12-6.06-1.48-12.25-.93-17.31,1.03-.48,2.09-.98,3.23-1.1s2.38,.18,3.11,1.07c.68,.82,.79,1.95,.87,3.01l.6,7.7c.08,.96,.15,1.95-.19,2.85-.45,1.2-1.56,2.06-2.77,2.5s-2.51,.52-3.93,1.28Z"/><path class="h" d="M170.01,147.96c-1.24-.62-2.8,.13-3.56,1.28-.76,1.15-.91,2.59-1.03,3.97-.12,1.36-.23,2.77,.18,4.08,.4,1.31,1.43,2.52,2.79,2.72,1.82,.27,3.43-1.34,4.09-3.06,1.2-3.19,.33-7.61-2.45-8.99Z"/><path class="h" d="M177.72,161.57c-.11-5.85-.23-11.7-.02-16.9,1.59-.86,3.53-1.74,5.12-.87,1.61,.88,1.89,3.24,1.01,4.85-1.07,1.96-3.59,2.99-5.73,2.37"/><path class="h" d="M181.13,150.93c.92,2.81,2.41,5.43,4.36,7.66"/><path class="j" d="M148.1,62.66c-3.03-.45-6.23,.3-8.74,2.07-2.51,1.76-4.3,4.52-4.9,7.52-.43,2.18-.21,4.59,1.11,6.37,1.25,1.69,3.34,2.61,5.43,2.85s4.2-.12,6.25-.59c3.13-.71,6.32-1.73,8.69-3.9,2.37-2.17,3.68-5.77,2.36-8.7-.82-1.82-2.52-3.13-4.37-3.9-1.85-.77-3.77-1.41-5.84-1.72Z"/><path class="i" d="M147.37,69.44c-1.36-.11-2.76,.39-3.75,1.34-.53,.51-.96,1.24-.77,1.95,.14,.51,.58,.89,1.07,1.08s1.03,.2,1.55,.17c.89-.05,1.81-.22,2.55-.72s1.28-1.39,1.16-2.27-1.02-1.66-1.82-1.54Z"/><path class="j" d="M104.25,73.33c-1.08-2.67-3.61-4.83-6.2-6-2.6-1.17-5.55-1.37-8.38-.99-3.56,.47-7.35,2.15-8.66,5.5-1.11,2.84-.04,6.22,2.09,8.41,2.13,2.19,5.13,3.33,8.14,3.85,2.35,.4,4.8,.46,7.08-.23,2.28-.69,4.38-2.18,5.47-4.3,1.08-2.12,1.2-4.38,.47-6.23Z"/><path class="i" d="M94.87,74.11c-.71-.64-1.67-1-2.62-.98s-1.9,.43-2.57,1.1c-.55,.56-.93,1.39-.67,2.13,.25,.71,1,1.11,1.7,1.37,.9,.32,1.87,.51,2.8,.34s1.83-.78,2.16-1.67-.22-1.75-.8-2.28Z"/><path class="j" d="M160.98,106.16c2.5-.38,2.99-3.54,.94-4.05-1.85-.45-9.03-1.04-14.18-.82-21.02,.89-42.04,1.77-63.06,2.66-1.74,.07-3.57,.17-5.03,1.11s-2.35,3.02-1.41,4.47c.94,1.45,3.01,1.52,4.74,1.43,26.14-1.4,51.55-.8,78-4.8Z"/><path class="j" d="M80.96,107.4c26.7-1.15,80.09-3.43,80.09-3.43"/></g></g></g></g></svg>