<?xml version="1.0" encoding="UTF-8"?><svg xmlns="http://www.w3.org/2000/svg" viewBox="0 0 614.47 568.31"><defs><style>.f,.g,.h{fill:#fff;}.i{font-family:Avenir-Medium, Avenir;font-size:28px;}.j,.g,.h,.k,.l,.m,.n{stroke-miterlimit:10;stroke-width:.5px;}.j,.g,.n{stroke:#000;}.h,.k,.l,.m{stroke:#fff;}.l{opacity:.53;}.m,.n{fill:none;}.o{fill:#f6c67b;}.p{font-family:Moonlights-on-the-Beach, Moonlights on the Beach;font-size:88px;}.q{fill:#eb566a;}</style></defs><g id="a"/><g id="b"><g id="c"><circle class="q" cx="283.24" cy="283.24" r="283.24"/></g><g id="d"><g><path class="j" d="M201.07,293.17c-15.19,12.27-19.55,34.94-13.1,53.37,6.45,18.43,22.09,32.61,39.8,40.83,38.36,17.8,85.31,9.13,120.59-14.18,12.14-8.02,23.68-18.31,28.47-32.05,3.66-10.49,3.02-21.93,2.01-32.99-1.04-11.39-2.43-22.74-4.16-34.04-3.21-20.85-8.04-42.46-21.63-58.59-10.12-12.01-24.78-20.12-40.34-22.3l5.67-16.72c7.96,3.56,18.5-1.11,21.22-9.39,2.72-8.28-3.01-18.29-11.53-20.14,5.39-5.05,10.5-10.4,15.3-16.02,1.82-2.13,3.68-5.09,2.29-7.52-1.33-2.33-4.66-2.35-7.29-1.84-7.74,1.5-15.06,5.08-21.36,10.57-6.56-5.26-15.88-6.88-23.83-4.13-7.95,2.75-14.28,9.77-16.19,17.97-8.1,.54-12.38,8.63-12.53,16.74-.15,8.12,8.17,16.03,15.39,12.9,3.29,5.07,5.12,8.39,6.95,12.59,1.5,3.43-10.46,7.77-10.47,11.51-4.18-4.4-8.45-8.87-13.7-11.91-5.26-3.05-11.74-4.53-17.48-2.56-7.24,2.49-11.66,9.67-15.14,16.49-8.96,17.56-15.71,36.15-22.43,54.69-4.59,12.64-9.23,26.25-5.83,39.26,4.69,17.98,22.82,28.57,39.54,36.68"/><path class="g" d="M325.25,147.11c-3.87,8.29-6.15,17.03-6.31,26.18-.03,1.42,.03,2.96,.9,4.09,.99,1.28,2.75,1.67,4.37,1.73,5.77,.22,11.57-2.79,14.7-7.65,3.14-4.85,3.51-11.37,.94-16.55-2.57-5.18-7.98-8.83-13.74-9.27-1.57-7.51-6.72-14.19-13.59-17.61-6.87-3.43-15.3-3.53-22.24-.27-6.95,3.26-12.26,8.65-14.01,16.12-7.06,1.58-12.72,9.12-13.62,16.29-.9,7.18,2.94,14.67,9.19,18.3,1.96,1.14,5.57,1.82,7.18,.21,.49-.49,.36-.55-.13-2.2-2.95-9.83-3.04-21.63-.96-30.88,1.14-5.08,5.24-9.72,9.19-13.1,3.96-3.38,9.17-5.32,14.37-5.1,5.41,.23,10.56,2.76,14.55,6.42,3.98,3.66,6.87,8.39,9.22,13.26,0-.02,.04,.05,0,0Z"/><path class="g" d="M305.82,154.04c2.02,1.49,4.75,1.75,7.2,1.2,2.45-.55,4.66-1.84,6.75-3.23-.09,1.87-.54,3.73-1.32,5.43-.66,1.45-1.64,2.87-3.1,3.5-1.96,.84-4.31,.04-5.87-1.42-1.56-1.45-2.5-3.43-3.65-5.49Z"/><path class="g" d="M279.33,153.42c.26-.05,.71,.14,1.11,.42,.46,.33,.82,.61,1.18,.91,1.48,1.24,3.72,1.26,5.54,.62,1.42-.5,2.68-1.58,4.19-1.63,.27,.95-.39,1.89-1.01,2.66-.99,1.23-2.03,2.5-3.44,3.21-1.74,.87-3.94,.72-5.55-.37-1.61-1.09-2.61-3.08-2.44-5.02,.02-.2,.03-.38,.14-.57,.1-.17,.17-.17,.29-.23Z"/><path class="j" d="M284.47,157.3c-.41-.3-1.05-.2-1.35,.2s-.19,1.05,.23,1.33c.42,.28,1.07,.12,1.3-.33s0-1.08-.18-1.21Z"/><path class="j" d="M313.11,156.96l-.11,.02c-.61,.09-.99,.77-.68,1.3,.07,.12,.17,.23,.3,.31,.49,.31,1.25,.07,1.46-.47,.02-.05,.03-.09,.04-.14,.13-.59-.42-1.11-1.02-1.02Z"/><path class="m" d="M324.42,146.67c-13.71,6.51-36.39,5.26-46.16,1.8-.05-.02-.4-.06-.4-.06"/><path class="l" d="M311.07,166.28s-.02-.03-.03-.01c-1.14,1.79-2.82,2.49-4.66,2.96-3.29,.84-6.73,1.1-10.12,.77-2.16-.22-4.49-.8-5.76-2.55-.13,2.91,.07,6.07,1.91,8.33,1.8,2.22,4.84,3.1,7.7,3.03,2.04-.05,4.11-.54,5.77-1.72,1.67-1.18,2.83-2.98,3.58-4.88,.73-1.86,1.1-3.83,1.61-5.92Z"/><path class="h" d="M302.79,172.38l.12,2.64c0,.17,.02,.36,.14,.49,.18,.2,.5,.16,.76,.08,1.92-.57,3.6-2.46,4.05-4.42-1.76,.73-3.48,1.2-5.07,1.2Z"/><path class="h" d="M300.67,172.35c.04,1.18,.09,1.89,.13,3.06-.87,.25-1.78,.31-2.68,.2-.22-.03-.46-.08-.6-.25-.12-.14-.14-.34-.16-.53-.07-.8-.14-1.94-.21-2.73,1.16,.14,2.4,.19,3.51,.25Z"/><path class="h" d="M295.43,171.93c.06,0,.1,.06,.1,.11-.04,.97-.08,1.46-.11,2.25,0,.08-.01,.16-.07,.21-.07,.05-.16,.02-.24-.01-1.25-.52-2.26-1.59-2.71-2.87,.95,.15,2.6,.28,3.03,.3Z"/><path class="k" d="M300.34,157.58c-5.39,1.09-10.11,5.06-12.1,10.18-.53,1.36-.87,2.89-.37,4.26,.51,1.37,2.14,2.38,3.47,1.77,1.36-.63,1.61-2.39,2.01-3.83,.72-2.67,2.54-5.02,4.94-6.4,2.4-1.38,5.35-1.76,8.02-1.04"/><path class="m" d="M291.2,146.79c.7-2.03,1.52-4.11,3.06-5.6,1.54-1.49,4.01-2.24,5.89-1.21,1.2,.66,2.29,2.06,3.15,3.12,.91,1.12,1.65,2.5,1.65,3.86-3.85,.58-9.89,.73-13.76-.18Z"/><path class="g" d="M78.5,184c-2.67-1.64-5.47-3.07-8.35-4.29-.99-.42-2.06-.82-3.11-.6-1.44,.3-2.39,1.64-3.19,2.88-.79,1.22-1.62,2.62-1.34,4.05,.18,.92,.81,1.69,1.44,2.39,2.3,2.53,5.01,4.68,7.99,6.36,2.24-3.69,4.48-7.37,6.56-10.78Z"/><path d="M179.7,286.09c3.93-2.86,5.39-8.26,4.65-13.06-.73-4.81-3.3-9.13-6.14-13.08-16.4-22.83-42.47-36.78-61.04-57.88-5.32-6.05-10.12-12.77-16.82-17.26-6.7-4.49-16.07-6.23-22.68-1.61-4.46,3.11-6.79,8.42-8.52,13.57-1.34,4.01-2.45,8.37-1.23,12.41,1.47,4.87,5.94,8.14,10.19,10.94,3.51,2.31,7.13,4.59,11.19,5.67,4.06,1.09,8.67,.84,12.09-1.61,3.41-2.45,5.12-7.41,2.81-10.92-1.31-.66-2.9,.68-3.07,2.13s.58,2.84,1.31,4.1c2.95,5.12,5.89,10.23,8.84,15.35,9.51,16.51,19.24,33.29,33.29,46.16,4.65,4.25,9.9,8.12,16,9.7,6.1,1.57,12.83,0,19.14-4.6Z"/><path class="h" d="M119.77,200.13c-1.66-.72-3.86-.53-4.93,.92-1.31,1.78-.35,4.28,.65,6.26l-10.17,10.56c-.75,.78-1.52,1.59-1.9,2.61s-.26,2.3,.57,3c.76,.63,1.9,.61,2.8,.21s1.61-1.12,2.3-1.83l8.21-8.37c.65-.66,1.33-1.34,2.22-1.59,1.68-.47,3.48,.76,5.16,.31,1.82-.48,2.63-2.79,2.14-4.61s-1.33-2.43-2.72-3.82c-.03,.06,.01-.05-.01,0,.03,0-2.65-2.92-4.31-3.64Z"/><path class="g" d="M116.87,200.66c-.76,.13-1.3,.87-1.42,1.63s.11,1.53,.39,2.25c1.12,2.85,3.3,5.4,6.19,6.4,.83,.28,1.81,.42,2.54-.07,.52-.35,.82-.96,.92-1.58,.15-.89-.04-1.82-.43-2.64s-.95-1.54-1.57-2.21c-1.05-1.15-2.25-2.16-3.56-3-.49-.31-1-.61-1.56-.77-.56-.16-1.13-.07-1.52,0Z"/><path class="g" d="M123.91,220.28l-11.06,8.83c-.82,.65-1.64,1.31-2.25,2.16s-.98,1.92-.76,2.94,1.12,1.93,2.17,1.91c.86-.01,1.6-.6,2.26-1.15,4.34-3.64,8.68-7.28,13.18-10.74v-.05"/><path class="g" d="M131.28,211.51c-3.16-.67-6.57,1.61-7.37,4.74s.92,6.64,3.78,8.14c1.55,.81,3.43,1.07,5.07,.48,2.69-.98,4.19-4.16,3.72-6.98-.47-2.82-2.61-5.17-5.2-6.36,0,.02,0,.03,0-.01Z"/><path class="g" d="M131.39,213.04c-1.14-.33-2.31-.08-3.23,.41-.92,.5-1.56,1.41-1.9,2.4-.57,1.6-.4,3.48,.57,4.88,.97,1.4,2.75,2.23,4.42,1.93,1.51-.27,2.81-1.43,3.35-2.87,.54-1.44,.35-3.11-.4-4.45-.71-1.26-1.58-1.85-2.8-2.3Z"/><path class="m" d="M81.84,187.12c-4.11,4.02-6.82,9.45-7.56,15.15-.74,5.7,.5,11.64,3.46,16.58"/><path class="m" d="M87.32,189.95c-2.89,.22-5.37,2.35-6.71,4.92-1.35,2.56-1.74,5.51-1.92,8.4-.23,3.56-.18,7.17,.59,10.65,.77,3.48,2.29,6.86,4.72,9.48v-.06"/><path class="m" d="M93.8,192.25c-3.34,1.1-5.95,3.88-7.44,7.06-1.49,3.19-1.96,6.76-2.02,10.28-.06,3.02,.18,6.09,1.14,8.96,.96,2.87,2.7,5.54,5.19,7.24"/><path class="g" d="M101.28,201.29c-1.87-.47-3.99,.25-5.19,1.76-1.2,1.51-1.42,3.74-.53,5.46,.59,1.15,1.59,2.02,2.57,2.86l7.37,6.37c1.03,.89,2.16,1.83,3.52,1.95,1.75,.15,3.32-1.11,4.39-2.51,1.32-1.72,2.24-4,1.52-6.05-.59-1.68-2.13-2.81-3.61-3.8-3.33-2.23-6.44-5.15-10.05-6.05Z"/><path class="n" d="M112.19,209.99c-1.85-.62-4.05,.01-5.29,1.52-1.24,1.51-1.44,3.79-.48,5.49"/><path class="g" d="M129.49,215.71c.22,.93,.45,1.87,.72,2.67l2.23-2.62"/><path class="g" d="M118,204.05c1.05,0,2.11,.21,3.1,.61-.34,.83-.51,1.73-.51,2.63"/><path class="j" d="M161.21,276.04c-.41-13.76,.27-28.14,6.86-40.23,6.59-12.09,20.64-21.1,34.01-17.8,5.74-17.03,21.7-30.16,39.53-32.51,17.82-2.35,36.64,6.21,46.59,21.17,1.84,2.77,3.45,5.95,3.19,9.27-.6,7.65-9.9,11-17.53,11.78-7.63,.78-16.78,1.7-20.25,8.55-2.47,4.88-.82,10.73-.87,16.2-.08,9.42-5.87,18.57-14.36,22.67-8.48,4.1-19.25,2.96-26.69-2.83,3.49,10.13-.01,22.27-8.37,28.98-8.35,6.71-20.97,7.51-30.1,1.91-9.13-5.6-11.71-16.98-12.01-27.16Z"/><path class="g" d="M71.85,442.27c-.42-.21-.58-7.99-.58-12.04,0-40.09,5.63-91.06,4.99-131.15-.04-2.82-.33-4.38,1.28-6.7,1.24-1.78,3.41-3.11,5.76-3.31,4.51-.37,8.83,1.46,11.2,3.29,1.08,.84,1.69,2.54,1.65,3.26-2.85,41.81-6.5,95.58-8,136.82,7.83,6.99,15.31,14.37,22.41,22.1-2.94,1.49-8.32,4.05-9.34,4.4-.64-.33-19.09-11.43-29.37-16.69Z"/><path class="g" d="M71.59,442.32l16.6-10.28"/><path class="g" d="M107.2,452.02l-9.66,4.63"/><path class="g" d="M91.87,290.95c-2.83-1.13-6.04-2.17-9.06-1.82-3.03,.35-6.05,2.77-5.94,5.81,.06,1.73,1.12,3.32,2.52,4.34s3.11,1.53,4.82,1.81c2.29,.38,4.71,.37,6.82-.58,2.11-.95,3.84-2.99,3.92-5.31s-1.14-3.46-3.08-4.25Z"/><path class="j" d="M89.86,224.69c-1.66,23.86-3.32,47.73-4.59,71.62"/><path d="M333.51,216.83c-2.81-4.83-9.99-5.44-14.92-1.28s-6.66,12.31-3.59,16.92c1.76,2.65,4.88,4.37,5.18,7.84,.31,3.54-2.43,7.02-4.11,10.49-3.3,6.79-2.64,14.26-1.89,21.14,.88,8.06,2.08,16.76,7.63,21.38,2.75,2.29,6.46,3.46,8.31,6.68,1.56,2.73,1.47,6.43,2.13,9.71,1.76,8.72,8.68,14.03,15.22,18.73l51.4,36.98c4.33,3.12,7.66,7.1,13.19,7.47,5.53,.37,15.3-11.67,17.68-17.74,2.29-5.84-3.8-4.52-7.81-7.73-4.01-3.21-8.37-6.51-13.04-8.66-11.45-5.27-17.58-15.57-25.36-25.81-6.68-8.79-14.62-15.6-16.55-27.47-1.59-9.71,.12-21.12-4.72-28.88-2.61-4.19-7.03-7.1-7.87-12.36-.59-3.74,.8-7.94,.64-11.82-.24-5.61-3.76-9.91-8.12-12.19-4.36-2.28-9.5-2.86-13.39-3.41Z"/><path d="M423.7,357.82c24.03,1.49,48.01,3.79,71.89,6.9,1.81,.24,3.68,.5,5.24,1.45,2.28,1.4,3.46,4,4.52,6.45,5.97,13.84,11.94,27.67,17.91,41.51,.39,.91,.76,2.05,.14,2.82-.56,.69-1.6,.68-2.49,.6l-81.55-6.86c-2-.17-4.09-.36-5.78-1.43-2.52-1.59-3.58-4.67-4.46-7.52-3.84-12.4-7.7-24.95-8.44-37.9-.07-1.21-.1-2.48,.43-3.57s1.8-1.92,2.61-2.47Z"/><path class="f" d="M493.76,368.88c-22.04-2.91-43.91-4.23-66.11-6.12l7.2,35.93c.37,1.83,.78,3.77,2.04,5.15,1.87,2.05,4.95,2.25,7.72,2.36,23.4,.88,47.74,4.57,70.63,5.43,.81,.03,1.35-.83,.98-1.55-5.89-11.39-12.66-26.21-17.28-37.21-.9-2.15-2.88-3.67-5.19-3.98Z"/><path class="k" d="M410.48,371.81c2.68,0,5.1,1.69,6.85,3.72,1.75,2.03,3.01,4.43,4.63,6.57,6.33,8.32,17.18,11.5,27.28,14.19,1.43,.38,2.9,.77,4.37,.55s2.92-1.19,3.22-2.64c.25-1.24-.4-2.52-1.34-3.36-.94-.84-2.14-1.33-3.31-1.8l-13.58-5.43c3.99,2.81,9.95,2.35,13.45-1.05,.29,5.17,3.86,10.01,8.71,11.81,1.38,.51,3.3,.6,3.96-.71,.45-.89,.04-1.98-.59-2.74s-1.47-1.34-2.08-2.11c-1.96-2.47-1.16-6.07-1.83-9.15-.71-3.28-3.31-6.08-6.52-7.04-3.22-.95-6.92-.02-9.68,1.96,2.61-.91,5.3-1.83,8.06-1.78,2.77,.06,5.68,1.3,6.97,3.75,1.04,1.98,.99,4.61,2.7,6.05,1.22,1.03,2.96,1.1,4.55,1.13,1.98,.03,4.54-.38,4.93-2.33,.41-2.06-2.02-3.36-3.83-4.42-2.72-1.6-4.84-4.18-5.88-7.16-.56-1.61-.85-3.4-1.99-4.69-1.37-1.55-3.69-1.96-5.72-1.55-2.03,.41-3.84,1.51-5.6,2.6,1.58-2.06,4.32-3.17,6.89-2.78,2.57,.39,4.86,2.25,5.76,4.69,.57,1.56,.63,3.31,1.51,4.72s3.19,2.11,4.13,.75c.67-.98,.16-2.39-.73-3.18s-2.05-1.18-3.08-1.77c-2.89-1.64-4.71-4.99-4.51-8.31,.08-1.26,.42-2.51,.39-3.77s-.54-2.64-1.67-3.19c-1.11-.54-2.42-.15-3.59,.24l-9.22,3.11c1.27-1.47,3.42-1.69,5.32-2.09,1.9-.4,4.05-1.45,4.27-3.38,.18-1.54-1.05-2.96-2.49-3.52s-3.05-.47-4.59-.35c-5.46,.41-12.95,.94-18.79,1.16,.81,2.7-.68,4.32-2.26,6.65-1.58,2.34-2.73,3.89-5.54,4.15-2.49,4.69-4.96,10.06-9.54,12.48Z"/><path class="k" d="M396.47,364.28c1.81,3.01,5.09,4.76,8.22,6.36,1.7,.87,3.54,1.77,5.43,1.46,1.33-.21,2.49-1,3.6-1.77,1.81-1.25,3.12-2.83,4.49-4.56,1.29-1.62,1.89-2.53,2.58-5.53,3.08,.17,5.29-2.06,6.84-4.72,1.75-3,1.77-8.22,1.04-9.41-.84-1.37-9.35-5.44-10.68-6s-1.81-.5-2.9,.38c-.85,.68-2.52,3.03-3.42,4.86-1.38,2.81-3.17,7.21-2.09,8.81,1.3,1.94,9.49,5.36,11.17,6.14-2.59-.88-6.1-2.78-8.76-4.17-.81,3.22-3.13,6.4-6.08,7.94-2.94,1.53-6.54,1.75-9.42,.21Z"/><path class="h" d="M422.55,343.72c-.08-.05-.16-.09-.25-.13-1.1-.54-2.15-.96-3.21-1.48-1.11-.54-2.46-.88-3.54-.3-.79,.42-1.27,1.24-1.69,2.03-1.08,2.04-1.99,4.17-2.73,6.36-.27,.81-.52,1.67-.32,2.5,.26,1.1,1.24,1.86,2.18,2.48,1.7,1.11,3.51,2.04,5.4,2.77,1.15,.45,2.42,.82,3.61,.48,1.45-.42,2.4-1.81,3.13-3.09,.96-1.68,1.73-3.45,2.26-5.31,.26-.89,.43-1.85,.12-2.71-.37-1.05-1.37-1.74-2.37-2.22-.95-.45-1.81-.93-2.6-1.38Z"/><path class="g" d="M380.57,354.6c-2.78-2.58-1.98-3.97,1.71-3.11,.86,.2,1.73,.24,2.51,0,2.28-.69,6.4-4.7,7.97-6.48l6.68,5.47c-1.27,1.61-5.11,5.49-7.06,6.15-3.09,1.04-6.53,.73-9.56-.48-.72-.29-1.51-.85-2.26-1.55Z"/><path class="g" d="M408.84,332.54c3.22,3.08,4.17,8.28,2.25,12.3-1.92,4.02-6.56,6.55-10.98,5.99-4.42-.56-8.28-4.18-9.12-8.55-.85-4.37,1.38-9.17,5.26-11.34,3.89-2.18,9.2-1.64,12.59,1.6Z"/><path class="g" d="M406.49,333.86c2.64,2.06,3.75,5.89,2.62,9.04-1.13,3.16-4.42,5.4-7.77,5.32-3.35-.09-6.52-2.5-7.48-5.71-.97-3.21,.34-6.97,3.08-8.89,2.75-1.92,6.77-1.92,9.55,.25Z"/><path d="M428.06,246.52c-7.22-9.68-14.76-19.66-25.36-25.45-10.6-5.79-25.17-6.17-33.65,2.42,1.36-12.79-8.54-25.56-21.15-28.13-12.61-2.56-26.33,4.82-31.8,16.47-2.5,5.33-3.4,11.59-1.49,17.16,3.24,9.41,13.18,14.42,20.32,21.36,9,8.75,13.72,20.97,21.58,30.76,9.41,11.73,23.41,19.67,38.3,21.72,14.89,2.06,30.52-1.79,42.76-10.53,5.13-3.67,9.78-8.31,12.18-14.14,2.4-5.83,2.2-12.99-1.63-17.99-5.34-6.98-16.01-8.22-20.06-13.66Z"/><path d="M456.58,151.99c7.3,2.01,14.99-.59,22.11-3.17,2.39-.87,4.92-1.83,6.45-3.86,1.22-1.62,1.62-3.7,1.98-5.7,1.17-6.55,2.23-13.28,1.04-19.83-1.18-6.55-5.03-12.99-11.18-15.54-5.9-2.45-12.62-.97-18.83,.55-3.08,.75-6.53,1.79-8.21,4.59-1.13,4.21-1.17,8.7-.12,12.93,.4,1.61,.95,3.31,.42,4.87-.55,1.63-2.14,2.67-3.72,3.36-2.7,1.18-5.63,1.71-8.46,2.54-2.83,.84-5.66,2.07-7.57,4.32-1.5,1.76-2.27,4.52-.87,6.36,.88,1.17,2.44,1.67,3.9,1.64,1.46-.03,2.88-.51,4.26-.99,6.46-2.23,12.93-4.45,19.52-6.42l-1.55,10.16c-.1,.64-.2,1.29-.09,1.93,.1,.64,.43,1.28,.91,2.27Z"/><path class="f" d="M467.02,130.67c.01,1.33-.85,2.54-1.95,3.28-1.1,.74-2.42,1.08-3.71,1.36-1.3,.28-2.62,.52-3.81,1.09l.12,.69c2.02-.3,4.08-.61,5.89-1.55s3.36-2.63,3.48-4.87Z"/><path class="f" d="M456.69,124.87c1.52-.6,3.08-1.21,4.72-1.24,1.64-.03,3.39,.62,4.21,2.04,.71,1.22,.61,2.74,.47,4.15-.11,1.1-.28,2.29-1.05,3.09-.61,.63-1.5,.9-2.34,1.14-2.76,.8-5.62,1.61-8.47,1.27,.85-3.45,1.7-6.91,2.46-10.44Z"/><path class="k" d="M418.15,239.38c-1.24,11.2,.34,22.69,4.56,33.14,1.57,3.88,3.76,7.88,7.58,9.59,4.46,1.99,9.79,.16,13.65-2.82,9.7-7.49,12.67-20.76,13.41-32.99,2.06-34.08-7.99-68.82-.28-102.08,2.09-9,5.29-19.12,.32-26.91-3.6-5.65-11.34-8.25-17.62-5.92-3.28-1.66-7.86,1.05-7.98,4.72-4.14-1.41-8.71,2.06-9.89,6.26-1.17,4.21,.2,8.71,2.09,12.65,1.88,3.94,4.31,7.68,5.41,11.91,1.37,5.24,.6,10.76-.18,16.12-3.75,25.83-8.33,51.55-11.08,76.34Z"/><path d="M420.81,241.71c-.46-1.23-2.07-1.74-3.29-1.27-1.22,.47-2.04,1.68-2.37,2.95s-.25,2.6-.15,3.91c.39,5.44,.9,10.89,2.24,16.18s3.54,10.42,7,14.63c3.33,4.05,8.44,7.3,13.58,6.27,4.93-.99,8.27-5.47,11.11-9.63,1.87-2.73,3.83-5.79,3.43-9.08-.24-2.04-1.4-3.89-2.86-5.34-1.46-1.45-3.23-2.55-4.97-3.64-8.12-5.05-16.23-10.11-23.72-14.98Z"/><path class="k" d="M420.54,118.86c-7.79-.4-16.32-.58-22.48,4.21-3.44,2.68-5.69,6.64-7.13,10.76-3.05,8.75-2.71,18.64,.94,27.15,2.07,4.82,5.49,9.44,10.46,11.1,4.13,1.37,8.66,.49,12.8-.82,3.89-1.23,7.78-2.91,10.65-5.81,3.11-3.15,4.76-7.47,5.73-11.79,1.42-6.26,1.59-12.87-.11-19.07-1.7-6.19-5.34-11.93-10.88-15.74Z"/><path class="f" d="M406.68,120.98c6.06,1.66,11.63,6.35,14.06,12.15,2.42,5.8,1.92,12.63,1.29,18.88-.41,4.04-1.22,8.1-3.15,11.67-1.93,3.57-6.16,7.3-10.03,8.53,3.47-.28,7.59-3.25,9.58-6.1s3.43-5.97,3.97-9.4c1.25-7.92,2.34-16.46-.75-23.84-3-7.19-9.66-12.43-17.41-12.4,.56,.33,1.93,.31,2.49,.64,0,.04,0,.08-.05-.12Z"/><path class="f" d="M403.9,142.05c-1.62,.03-2.88,1.08-3.69,2.49-.8,1.41-.85,3.46-.61,5.06,.27,1.82,1.99,3.42,3.79,3.81,1.41,.31,2.63-.38,3.47-1.55,1.26-1.75,1.72-4.89,.84-6.71s-1.59-3.1-3.8-3.1Z"/><path class="f" d="M465.86,122.1c2.31,1.64,3.6,4.62,3.22,7.43s-2.42,5.33-5.09,6.3c-.26,.04-.28,.46-.07,.62s.5,.13,.76,.08c2.13-.45,3.86-2.17,4.67-4.19,.82-2.02,.81-4.3,.38-6.43-.2-.97-.5-1.95-1.13-2.71s-1.68-1.24-2.73-1.1Z"/><path class="f" d="M450.65,109.35c2.8-2.46,6.48-3.96,10.21-3.89,3.72,.07,7.44,1.79,9.71,4.74,2.08,2.69,2.85,6.15,3.4,9.5,1.02,6.21,1.44,12.57,.56,18.8-.55,3.86-1.74,7.89-4.69,10.44-3.58,3.1-8.86,3.26-13.51,2.36-.21,.74,.36,1.51,1.07,1.8,.71,.29,1.5,.22,2.26,.15,3.78-.36,7.79-.81,10.76-3.18,2.84-2.27,4.19-5.9,5-9.44,1.96-8.52,1.51-17.58-1.3-25.86-.85-2.5-1.95-5-3.89-6.79-3.08-2.86-7.67-3.39-11.86-3.04-1.7,.14-3.42,.42-4.99,1.09-1.57,.68-2.99,1.8-3.78,3.32,.33,.39,1.05,.34,1.04,0Z"/><path class="f" d="M482.39,109.08c1.69,1.25,2.94,3.03,3.77,4.96,.82,1.93,1.23,4.02,1.43,6.11l-.51-.11-.38-1.14-.2,.5-.64-.47c-.21,.08-.45-.03-.61-.2s-.23-.38-.31-.59c-.56-1.42-1.34-2.75-2.31-3.92,.97,1.23,1.52,2.78,1.55,4.34l-.82-.07c-.02-.62-.25-1.24-.64-1.72,.32,.62,.39,1.36,.2,2.03-.19-.9-.69-1.73-1.41-2.31,.34,.72,.46,1.54,.34,2.33l-.5-.09c-.24-.66-.58-1.29-1.01-1.86,.44,1.32,.68,2.7,.7,4.09-.26-1.42-.86-2.78-1.73-3.93,.28,.82,.41,1.69,.38,2.56-.17-.67-.43-1.32-.77-1.92,.15,.73,.19,1.49,.12,2.24l-.57-1.93c.11,1.06,.07,2.14-.12,3.19-.03-.8-.21-1.6-.53-2.33l.13,1.16c.08-.62-.06-1.27-.37-1.81-.13,.65-.17,1.31-.12,1.97l-.41-1.2c.47,1.79,.35,3.74-.34,5.45-.82-4.25-1.65-8.54-3.31-12.54,1.31,.6,2.35,1.77,2.8,3.14-.3-.96-.78-1.86-1.4-2.65,1.01,.49,1.85,1.33,2.33,2.34-.11-.56-.37-1.08-.74-1.52,.36,.1,.66,.4,.76,.77l-.46-.84c.4,.23,.72,.59,.89,1.02l-.37-1.14c.43,.47,.79,1.01,1.05,1.59-.21-1-.57-1.98-1.07-2.87,1.03,1.13,1.86,2.44,2.44,3.85-.22-1.54-.68-3.05-1.38-4.44,.5,.35,.88,.85,1.08,1.42l-.49-1.41,.63,.97-.34-1.2c.82,1.03,1.51,2.17,2.07,3.36-.21-1.07-.62-2.11-1.22-3.02,.64,.49,1.17,1.13,1.53,1.85-.19-.75-.54-1.46-1.02-2.08,1.13,.6,2.04,1.6,2.52,2.79-.72-1.75-1.74-3.37-3.01-4.77,.51-.15,1.02,.24,1.37,.64,.95,1.04,1.65,2.31,2.02,3.67-.37-1.33-.95-2.59-1.72-3.74,.91,.63,1.63,1.54,2.03,2.56-.42-1.02-.97-1.98-1.63-2.87l1.48,1.87c-.39-.68-.78-1.36-1.19-2.08Z"/><path class="f" d="M487.48,132.39c.46-4.51,.91-9.15-.32-13.51,.57,4.45,.66,8.96,.32,13.51Z"/><path class="f" d="M485.04,111.98c-1.55-2.52-3.7-4.67-6.22-6.22,1.45,1.12,2.74,2.43,3.83,3.89,.69,.92,1.35,1.94,2.39,2.32Z"/><path class="m" d="M411.82,146.07c-.6-7.69-3.23-10.44-7.59-10.44-3.95,0-8.01,3.83-8.01,11.13,0,11.78,5.65,12.68,8.01,12.61,2.85-.09,8.35-3.61,7.59-13.3Z"/><path class="m" d="M378.72,231.82c4.05-.16,7.51,3.35,8.68,7.23,1.17,3.88,.59,8.05,0,12.06"/><path class="m" d="M383.69,227.87c.34,2.47,2.7,4.49,5.2,4.44,2.49-.05,4.78-2.15,5.03-4.63"/><path class="m" d="M397.51,231.97c-3.2,1.64-5.54,4.88-6.1,8.43-.56,3.56,.68,7.35,3.22,9.89"/><path d="M235.22,228.89c-3.92-.4-6.83,3.82-7.38,7.72-.55,3.9,.27,7.96-.76,11.76-1.33,4.92-5.52,8.53-9.89,11.15-4.37,2.62-9.18,4.59-13.08,7.86-5.43,4.54-8.74,11.52-8.83,18.6-.09,7.08,3.05,14.14,8.36,18.82,2.46,2.17,5.72,4.89,4.61,7.97-.46,1.26-1.57,2.15-2.55,3.07-5.5,5.15-7.68,13.18-7.01,20.68,.67,7.51,3.9,14.57,7.86,20.98,4.3,6.96,9.69,13.49,16.75,17.63,7.06,4.14,16.02,5.6,23.55,2.39,7.53-3.21,12.91-11.7,11.19-19.7-2.18-10.15-13.79-15.82-16.99-25.69-3.34-10.32,3.46-20.8,7.66-30.8,10.09-24,4.49-53.78-13.48-72.43Z"/><path class="k" d="M301.87,233.29l-5.26-43.76c-.19-1.57-.47-3.3-1.71-4.27-1.32-1.03-3.18-.79-4.83-.5l-12.77,2.22c-3.42,.6-7.1,1.32-9.48,3.85-2.33,2.48-2.87,6.12-3.1,9.51-.76,10.89,.36,21.82,1.48,32.68,.41,3.99,.94,8.26,3.59,11.27,2.5,2.84,6.49,3.98,10.27,3.87,3.78-.11,7.43-1.31,11.02-2.5,3.19-1.06,6.51-2.19,8.89-4.57,2.38-2.37,3.51-6.38,1.9-7.81Z"/><path class="f" d="M286.33,187.67c-6.03,1.07-12.51,3.17-15.72,8.39-2.7,4.39-2.41,9.92-2.03,15.06l1.61,22.02c.2,2.76,.46,5.69,2.09,7.93l-2.42-29.48c-.42-5.16-.76-10.72,1.92-15.15,3.05-5.04,9.21-7.24,15.03-8.2-.22-.28-.43-.55-.48-.57Z"/><path class="k" d="M249.77,252.6c.12-6.84,.24-13.75,1.97-20.37s6.14-15.74,12.73-17.44c.18-.05,.43,9.03,.92,12.39,.34,2.36,1.09,4.98,3.36,5.71s4.75,.49,7.07-.06c6.36-1.49,12.15-5.26,16.09-10.47,3.94-5.21,7.04-11.81,6.75-18.33,2.54,.63,2.52,3.66,2.76,6.27,.79,8.52-2.5,17.32-8.68,23.23,4.37-2.96,7-8.38,8.28-13.5,2.64,6.79-.51,16.19-7.29,18.89,3.22-.54,5.25-3.4,6.75-6.31s1.43-6.6,1.43-9.87c2.38,8.76,4.42,17-3.31,21.76-4.44,2.73-14.37,6.66-17.41,10.91-.96,1.35-1.64,2.97-3.02,3.88-1.73,1.14-4,.81-6.02,.39-7.53-1.56-14.92-3.78-22.37-7.07Z"/><path d="M250.21,251.63c-8.95,31.37-14.19,58.56-23.15,89.94-3.66,12.84-6.56,28.72,3.23,37.79,7.2,6.67,19.02,6.32,27.41,1.21,8.38-5.11,13.81-13.97,17.46-23.08,13.04-32.52,10.33-66.16,4.49-100.71,.13,0-6.94,1.16-29.44-5.14Z"/><path class="n" d="M352.61,356.98c.19,19.25-7.92,38.44-22.02,51.56h.08"/><path class="n" d="M347.69,345.35c3.69,20.16-2.63,41.9-16.7,56.81"/><path class="g" d="M335.27,328.11c-17.29-12.7-38.98-18.44-60.42-19.23-19.25-.71-39.09,2.54-55.61,12.46-14.76,8.87-26.31,22.94-32.14,39.14-5.82,16.2-5.88,34.41-.14,50.64,2.9,8.22,7.57,16.28,15.08,20.72,5.17,3.06,14.48,12.51,20.39,13.55,21.04,3.7,36.21,5.5,60.13,3.55,22.31-3.72,46.48-16.16,56.79-34.12,10.49-18.26,19.49-39.29,12.97-59.3-3.75-11.52-10.46-22.56-17.05-27.4Z"/><path class="g" d="M148.16,262.41c8.6-5.35,29.33-5.14,42.08,2.63,12.75,7.77,20.85,21.3,24.84,35.35,3.99,14.05,4.34,28.79,4.67,43.34,.33,14.56,.71,29.29,4.75,43.33,2.15,7.46,5.35,15.05,4,22.67-2.12,11.88-14.41,19.29-26.13,23.38-10.15,3.54-21.47,5.74-31.67,2.24-14.89-5.1-23.04-20.71-26.61-35.6-9.25-38.59,2.34-78.6,3.71-118.15,.27-7.79-2.92-14.57,.36-19.19Z"/><path class="h" d="M213.81,426.38c7.58-2.55,14.79-7.63,17.26-15.02,1.71-5.12,.97-10.7-.2-15.98-1.04-4.67-2.39-9.26-3.74-13.85-.53-1.81-1.19-3.79-2.83-4.8-2.07-1.28-4.98-.41-6.62,1.35-2.89,3.11-2.51,7.98-.95,11.9,1.56,3.92,4.11,7.47,5.16,11.54,1.57,6.08-.65,12.91-5.52,17.01-1.24,1.04-2.69,1.98-3.34,3.44s.03,3.62,.77,4.4Z"/><path class="g" d="M117.4,402.78l10.72-100.72c1.03-9.7,2.16-19.7,6.99-28.24,4.84-8.54,14.39-15.35,24.4-14.11,11.1,1.38,18.91,12.21,20.28,22.96,1.36,10.75-2.2,21.44-5.71,31.71l-16.61,48.56c-4.16,12.16-8.33,24.35-11.22,36.86-1.34,5.78-2.47,11.8-5.89,16.71s-9.89,8.4-15.7,6.5c-4.15-1.36-7.08-5.23-8.09-9.36-1.01-4.13,.56-8.22,.84-10.88Z"/><path class="g" d="M118.47,399.93c2.87,4.15,7.67,7,12.78,7.61s10.46-1.05,14.25-4.41"/><path class="f" d="M160.08,259.13c-2.77,.19-4.81,.55-7.93,1.73-2.56,.97-2.01,5.38-.11,7.32,1.59,1.62,4.11,1.91,6.4,2.11l10.03,.85c3.21,.27,5.16,.45,7.07,2.97,1.68,2.22,1.79,5.95,.79,8.5-1,2.56-1.37,4.52-2.32,7.1-.96,2.58-1.1,5.71,.7,7.83,2.24,2.65,1.28,3.2,4.08,1.14,2.8-2.07,5.42-9.47,5.93-12.85,1.02-6.73-.14-10.95-4.29-16.45-4.15-5.5-17.47-10.44-20.34-10.25Z"/><path class="f" d="M215.96,304.44l-2.44,.54"/><path class="g" d="M155.89,442.94c2.69-5.05,5.51-10.36,5.34-16.05-.18-6.01-.98-11.07-4.78-15.42-3.81-4.35-9.8-6.82-14.62-3.58-2.51,1.68-4.09,4.39-6.49,6.21-5.89,4.45-16.08,1.11-18-5.91-.7-2.57-.43-5.3-1.03-7.9s-2.57-5.26-5.32-5.3c-2.54-.04-4.53,2.22-5.32,4.55-.78,2.34-.75,4.86-1.39,7.24-1.52,5.63-6.61,9.66-11.88,12.45-5.27,2.79-11.06,4.76-15.8,8.33-4.74,3.57-8.38,9.36-7.04,15.05,1.91,8.11,12.46,11.28,20.96,10.19s16.66-4.85,25.24-4.48c5.12,.22,10.04,1.92,15,3.2,4.96,1.28,10.26,2.14,15.16,.71,4.9-1.43,7.93-4.82,9.97-9.27Z"/><path d="M161.43,424.48c-.97-4.72-2.01-9.61-4.98-13.48-2.96-3.87-8.44-6.39-13.02-4.54-4.22,1.7-6.36,6.4-10.32,8.6-4.85,2.69-11.9,.4-14.11-4.59-1.39-3.15-.97-6.76-1.87-10.08-.9-3.31-4.28-6.62-7.57-5.38-2.19,.83-3.19,3.24-3.84,5.42-1.18,3.94-2.06,8.07-4.42,11.48-6.08,8.77-21.23,8.85-27.11,17.74,1.51-2.56,6.41-2.53,9.21-1.37,3.4,1.41,4.86,5.3,7.7,7.58,3.74,3,9.32,2.75,13.79,.95,4.47-1.8,8.22-4.89,12.33-7.35,4.11-2.46,9-4.35,13.73-3.33,4.73,1.02,8.74,5.98,7.1,10.38,2.28-4.15,5.36-8,9.53-10.41,4.17-2.4,9.54-3.15,13.83-1.62Z"/><path class="g" d="M159.43,435.07c-6.6,3.33-13.33,6.69-20.66,7.98-11.03,1.93-22.42-1.02-33.58,.02-5.69,.53-11.22,2.09-16.82,3.19-5.6,1.1-11.45,1.74-17.02,.44"/><path class="g" d="M233.99,250.16c9.18-6.72,32.17-7.9,46.82,.12,14.65,8.02,24.52,22.97,29.88,38.79,5.36,15.82,6.72,32.68,8.06,49.33,1.34,16.65,2.25,33.68,8.15,49.31,4.41,11.68,5.33,18.39,4.34,27.21-1.56,13.76-13.09,21.57-25.81,27.05-11.02,4.75-23.42,8.05-34.96,4.75-16.84-4.82-26.92-22.14-31.86-38.95-12.82-43.58-2.63-90.2-3.75-135.61-.22-8.94-4.2-16.5-.88-22.01Z"/><path class="h" d="M314.13,436.75c8.23-3.45,15.89-9.75,18.14-18.39,1.56-5.98,.36-12.33-1.29-18.29-1.46-5.27-3.26-10.44-5.06-15.61-.71-2.04-1.57-4.26-3.46-5.31-2.38-1.32-5.55-.13-7.25,2-3,3.76-2.25,9.32-.26,13.7s5.05,8.27,6.49,12.86c2.15,6.85,.14,14.84-4.99,19.86-1.31,1.28-2.85,2.46-3.48,4.17s.28,4.14,1.15,4.99Z"/><path class="n" d="M332.1,400.94c-.12,.19-.75,.93-.9,1.12-4.48,5.74-19.08,7.71-25.03,3.17-6.14-4.69-11.24-11.31-11.75-19.98-1.22-20.38-.59-43.87,2.91-63.99,1.42-8.16,3.31-16.27,3.77-24.54,.45-8.27,.29-16.03-3.67-23.3-3.1-5.69-11.87-12.58-20.15-12.49"/><path class="n" d="M277.68,266.3c4.22-.17,11.49,3.62,13.62,7.41,2.13,3.79,3.07,8.13,3.65,12.44,2.38,17.72-5.09,37.03-7.74,54.71-2.66,17.68-4.64,36.01,.24,53.21,1.81,6.37,4.68,12.67,9.62,17.08,5.12,4.57,12.3,6.72,19.09,5.73,6.79-.99,16.88-10.86,16.99-10.86"/><path class="g" d="M208.77,414.33l5.18-116.12c.5-11.19,1.08-22.72,5.88-32.84,4.8-10.12,14.94-18.57,26.11-17.84,12.4,.81,21.78,12.69,24.01,24.91,2.23,12.23-1.01,24.71-4.22,36.72l-15.19,56.76c-3.81,14.22-7.62,28.47-9.99,43-1.1,6.72-1.95,13.69-5.42,19.55-3.46,5.86-10.4,10.31-16.97,8.53-4.7-1.27-8.2-5.5-9.59-10.16-1.4-4.66,.08-9.46,.21-12.52Z"/><path class="g" d="M209.77,410.99c3.46,4.56,8.97,7.5,14.68,7.84,5.71,.34,11.53-1.92,15.51-6.03"/><path class="g" d="M229.24,418.69l10.13-109.12c.91-9.76,1.86-19.72,5.81-28.69,3.95-8.97,11.49-16.95,21.2-17.95l2.81,6.73c-8.93,2.81-15.56,10.67-19.17,19.31-3.61,8.64-4.64,18.1-5.63,27.42-3.56,33.53-7.13,67.05-10.34,100.6,.04,.04,.08,.08-4.81,1.69Z"/><path class="f" d="M246.53,246.84c-3.06,.41-5.3,.96-8.68,2.53-2.77,1.29-1.87,6.3,.37,8.39,1.87,1.75,4.68,1.91,7.24,1.98l11.17,.28c3.57,.09,5.76,.16,8.03,2.91,2.01,2.42,2.38,6.69,1.44,9.69-.94,3-1.22,5.28-2.1,8.29-.89,3.02-.84,6.61,1.29,8.92,2.66,2.88,1.63,3.58,4.6,1.02,2.97-2.56,5.38-11.22,5.72-15.12,.68-7.78-.88-12.53-5.85-18.55-4.97-6.02-20.06-10.76-23.23-10.34Z"/><path class="f" d="M311.48,294.9l-2.67,.79"/><path class="g" d="M266.2,270.83c1.75-.87,7.06-1.94,10.7-2.1"/><path class="g" d="M264.22,263.27c4.46-.83,8.3-1.94,12.57-1.74"/><path class="g" d="M254.1,457.69c2.65-5.97,5.42-12.25,4.86-18.76-.6-6.88-1.82-12.62-6.33-17.34-4.51-4.72-11.32-7.14-16.45-3.1-2.67,2.1-4.24,5.31-6.79,7.55-6.23,5.51-17.75,2.38-20.34-5.53-.95-2.9-.83-6.05-1.67-8.97-.84-2.93-3.2-5.85-6.25-5.71-2.82,.13-4.88,2.85-5.59,5.58s-.51,5.62-1.06,8.39c-1.32,6.55-6.69,11.53-12.35,15.08-5.66,3.55-11.94,6.21-16.96,10.62-5.02,4.41-8.67,11.3-6.8,17.72,2.66,9.16,14.56,12.06,23.92,10.23,9.36-1.83,18.14-6.7,27.68-6.86,5.69-.1,11.25,1.51,16.84,2.63,5.58,1.12,11.52,1.75,16.86-.23s8.47-6.06,10.44-11.31Z"/><path d="M259.02,436.16c-1.39-5.34-2.87-10.87-6.42-15.1-3.54-4.23-9.78-6.74-14.73-4.31-4.57,2.24-6.62,7.76-10.87,10.56-5.19,3.42-13.17,1.27-15.94-4.29-1.75-3.51-1.53-7.68-2.74-11.42-1.21-3.73-5.18-7.29-8.74-5.64-2.37,1.1-3.32,3.93-3.9,6.48-1.05,4.6-1.75,9.39-4.14,13.45-6.16,10.46-22.94,11.59-28.87,22.18,1.5-3.03,6.94-3.34,10.12-2.2,3.86,1.38,5.74,5.74,9.04,8.16,4.34,3.18,10.52,2.51,15.35,.14,4.83-2.37,8.79-6.17,13.18-9.27,4.4-3.1,9.69-5.6,15-4.75,5.31,.84,10.09,6.24,8.56,11.4,2.25-4.91,5.41-9.54,9.88-12.57,4.46-3.04,10.37-4.27,15.23-2.81Z"/><path class="g" d="M257.5,448.43c-7.1,4.26-14.33,8.58-22.37,10.56-12.1,2.97-24.92,.37-37.22,2.33-6.28,1-12.3,3.16-18.43,4.81-6.14,1.65-12.58,2.78-18.83,1.67"/></g></g><g id="e"><polygon class="o" points="614.47 568.31 192.62 568.31 192.62 435.63 614.47 435.63 581.84 502.61 614.47 568.31"/><text class="i" transform="translate(204.14 539.72)"><tspan x="0" y="0">COMPRADOR COMPULSIVO</tspan></text><text class="p" transform="translate(278.7 489.26)"><tspan x="0" y="0">Monstruo</tspan></text></g></g></svg>