<?xml version="1.0" encoding="UTF-8"?><svg xmlns="http://www.w3.org/2000/svg" viewBox="0 0 155.9 155.9"><defs><style>.e,.f{fill:#fff;}.f,.g,.h,.i{stroke-miterlimit:10;}.f,.h,.i{stroke:#fff;stroke-width:.25px;}.g{stroke:#d3e3d6;}.g,.i{fill:none;}.j{opacity:.91;}.k{opacity:.99;}</style></defs><g id="a"/><g id="b"><g id="c"><circle class="g" cx="77.95" cy="77.95" r="77.45"/></g><g id="d"><g><path d="M69.26,113.37c-.16-1.61-.36-3.19-.96-4.72-.49-1.25-.87-2.52-1.5-3.72-.8-1.54-1.72-3.03-2.62-4.52s-1.83-2.86-2.87-4.21c-.26-.34-.61-.63-.86-.97-.21-.28-.36-.6-.54-.9-.51-.86-1.04-1.65-1.67-2.45-.58-.74-1.1-1.53-1.69-2.26s-1.28-1.55-1.85-2.35c-1.18-1.66-2.37-3.32-3.51-5.01s-2.36-3.45-3.64-5.11c-.51-.67-1-1.35-1.52-2.01-.49-.62-.92-1.25-1.38-1.88-.35-.47-.75-.87-1.15-1.3s-.7-.83-1.22-1.13c-.89-.5-2.28-.1-2.56,.87-.25,.88-.19,1.93-.19,2.83,.01,1.34,.53,2.59,1.16,3.78,.52,1,1.13,1.99,1.76,2.93,.3,.45,.63,.85,.96,1.29s.56,.9,.87,1.33c.6,.83,1.06,1.74,1.47,2.67,.63,1.47,1.24,2.95,1.77,4.46,.46,1.31,.86,2.7,.96,4.08,.13,1.77,.41,3.48,.88,5.19,.77,2.81,1.5,5.64,2.5,8.4,.32,.87,.72,1.72,1.13,2.56,.36,.77,.64,1.57,1.02,2.33,.6,1.2,1.36,2.45,2.33,3.43,.47,.48,1,.91,1.51,1.35,.28,.24,.54,.51,.83,.75,.34,.29,.71,.47,1.08,.72,.62,.41,1.38,.42,2.13,.47,.88,.07,1.74-.08,2.6-.24,1.29-.24,2.82-.89,3.58-1.95,.45-.63,.73-1.34,1.04-2.03,.26-.58,.4-1.35,.23-1.97-.05-.18-.29-.68-.06-.72Z"/><path class="e" d="M41.46,79.7c.67,1.23,1.47,3.04,2.36,4.14,.63,.78,.83,1.81,1.28,2.69,.25,.5,.58,.97,.81,1.48,.31,.69,.56,1.39,.8,2.1,.19,.54,.29,1.12,.37,1.69,.07,.54,.26,1.03,.39,1.55,.24,.98,.53,2.04,.56,3.05,.03,.95,.34,1.85,.47,2.78,.12,.84,.21,1.71,.43,2.53,.3,1.06,.55,2.12,.95,3.15,.43,1.1,.72,2.25,1.15,3.35,.2,.5,.41,.99,.65,1.48,.14,.28,.22,.57,.38,.84s.34,.53,.48,.81c.4,.75,.71,1.57,1.18,2.28,.58,.88,1,1.84,1.55,2.74,.21,.35,.49,.64,.74,.96,.36,.48,.7,.98,1.1,1.44,.63,.73,1.47,1.41,2.33,1.88,.5,.28,.95,.46,1.52,.56,.53,.09,1.03,.09,1.56,.08,1.12,0,2.21-.26,3.26-.62,.86-.29,1.56-.85,2.06-1.56,.25-.36,.53-.68,.76-1.05,.24-.4,.49-.79,.73-1.19,.22-.35,.38-.61,.42-1,.02-.17,.1-.33,.12-.5,.03-.24,.07-.47,.11-.72,.03-.19,.01-.39,.04-.58s.09-.36,.12-.55-.02-.36-.02-.55c0-.29,.03-.53,0-.83-.08-.56-.24-1.11-.45-1.64-.11-.27-.24-.52-.31-.81-.09-.34-.14-.65-.27-.98s-.31-.64-.4-.98-.09-.63-.22-.95c-.28-.68-.77-1.28-1.1-1.95-.25-.5-.55-.97-.8-1.48-.1-.21-.25-.38-.36-.58-.15-.26-.24-.55-.39-.82-.27-.48-.49-1-.85-1.43-.16-.2-.27-.4-.4-.61-.18-.29-.43-.55-.65-.82-.71-.91-1.18-1.94-1.87-2.86-.35-.45-.74-.89-1-1.38s-.65-1.02-1-1.48c-.33-.44-.76-.8-1.12-1.22-.39-.47-.71-.98-1.08-1.46-.33-.43-.63-.89-.99-1.3-.2-.23-.41-.43-.59-.68-.17-.22-.32-.47-.51-.68-.36-.39-.68-.76-.97-1.2-.27-.41-.54-.81-.81-1.21-.32-.49-.68-.95-1-1.44-.36-.54-.65-1.12-1.03-1.65-.27-.38-.65-.75-.97-1.09-.38-.41-.76-.82-1.08-1.28-.48-.71-.99-1.4-1.54-2.07s-1.11-1.34-1.57-2.08c-.63-1.01-1.23-2.03-1.95-2.98-.26-.35-.47-.68-.8-.97-.22-.19-.43-.4-.66-.56-.2-.13-.5-.42-.74-.47,.16,.1,.34,.44,.48,.57,.23,.22,.47,.47,.66,.72,.36,.48,.71,.97,1.09,1.44,.47,.58,.66,1.3,1.01,1.94s.71,1.3,1.15,1.88c.47,.62,.83,1.3,1.28,1.94,.55,.78,1.2,1.48,1.77,2.25,.6,.81,1.21,1.61,1.77,2.44,.25,.38,.56,.71,.83,1.08,.29,.39,.51,.82,.79,1.22,1.12,1.61,2.44,3.08,3.5,4.72,.28,.43,.59,.83,.89,1.24,.35,.49,.61,.98,1.04,1.41,.28,.28,.53,.58,.8,.87,.35,.36,.76,.71,1.05,1.11,1.48,2.04,2.77,4.21,4.16,6.31,.31,.47,.6,.97,.84,1.48,.31,.64,.71,1.24,1.06,1.86,.31,.55,.54,1.15,.8,1.72,.23,.52,.46,1.07,.62,1.62,.14,.47,.23,.91,.28,1.39s.2,.94,.32,1.42c.1,.38,.12,.82,.12,1.21s.03,.78,.02,1.17c-.03,.73-.22,1.43-.51,2.11-.16,.37-.41,.69-.61,1.05-.24,.43-.46,.8-.83,1.15-.57,.56-1.27,1.08-2.05,1.34-.71,.24-1.39,.39-2.13,.51-.82,.13-1.7-.13-2.48-.35-.37-.1-.78-.23-1.12-.4-.43-.21-.72-.5-1.05-.82-.36-.35-.7-.75-1.02-1.13s-.57-.77-.83-1.19c-.48-.76-.86-1.57-1.29-2.35-.19-.33-.31-.69-.48-1.02-.22-.43-.46-.83-.7-1.25-.47-.8-.9-1.6-1.23-2.46-.16-.41-.39-.79-.52-1.21-.16-.5-.25-1.02-.42-1.52-.39-1.17-.68-2.35-.94-3.55-.23-1.04-.43-2.08-.74-3.11-.3-.99-.4-2.01-.62-3.01-.1-.44-.28-.86-.35-1.3-.08-.47-.09-.95-.17-1.42-.14-.82-.33-1.64-.53-2.45-.37-1.53-1.04-2.95-1.56-4.44-.24-.67-.63-1.25-.99-1.86-.15-.25-.32-.49-.49-.73-.24-.34-.44-.71-.7-1.04-.39-.5-.64-1-1.07-1.46-.34-.37-.62-.88-.99-1.21-.16-.14-.87-1.05-1.04-1.25Z"/><path class="j" d="M45.17,118.25c-.06,.19-.61,1.47-.48,1.89,.01,.04,.08,.12,.1,.16,.12,.25,.18,.56,.2,.84,.03,.38-.21,.81-.44,1.12-.41,.55-.82,1.08-1.09,1.7-.36,.81-.62,1.66-.96,2.47-.3,.74-.49,1.45-.63,2.24-.07,.44-.11,.88-.19,1.31-.07,.38-.23,.75-.33,1.13-.16,.6-.22,1.46-.94,1.7-.86,.29-1.39-.67-1.65-1.27-.36-.84-.44-1.93-.29-2.82,.13-.75,.57-1.61,.32-2.36-.16-.47-.52-.72-1.03-.62-.3,.06-.62,.09-.86,.28-.35,.28-.68,.74-.89,1.1-.3,.54-.6,1.06-.82,1.64-.2,.53-.45,1.13-.75,1.61-.29,.45-.57,.93-.93,1.34-.34,.38-.85,.64-1.26,.94-.24,.18-.56,.51-.89,.51-.26,0-.59-.22-.75-.39-.3-.31-.3-.7-.3-1.1,0-.69,.17-1.44,.43-2.09,.39-.97,.87-2,1.69-2.71,.67-.58,1.44-1.04,2.06-1.68,.35-.36,.93-1.02,.54-1.53-.22-.29-.65-.34-.99-.24-.74,.22-1.13,.98-1.63,1.48-.86,.84-1.92,1.26-2.92,1.91-.4,.26-.83,.59-1.28,.78-.49,.2-.72,.05-.95-.37-.52-.97-.21-2.12,.46-2.97,.77-1,1.95-1.46,3.09-2.01,.94-.45,1.94-.89,2.94-1.22s2.03-.59,3.04-.89,2.12-.69,3.05-1.2c.48-.27,1.24-.9,1.22-1.46,0-.24-.02-.37-.14-.56-.19-.27-.21-.48-.19-.84,.03-.6-.12-1.3,.08-1.88,.08-.22,.29-.28,.36-.52,.1-.37,.07-.85,0-1.22-.12-.62,.03-1.25-.04-1.87-.05-.44,.05-.88,.02-1.33-.04-.53-.16-1.04-.17-1.57-.03-1-.09-2-.12-3-.01-.38-.1-.75-.12-1.13-.03-.69-.03-1.39-.1-2.08-.05-.5-.22-.96-.31-1.45-.12-.67-.24-1.34-.36-2.01s-.09-1.36-.08-2.05c0-.75-.03-1.5-.09-2.25-.09-1.03-.3-2.06-.33-3.1-.04-1.46-.03-2.9-.21-4.36-.06-.52-.16-1.04-.28-1.54-.17-.68-.26-1.36-.44-2.04-.15-.58-.34-1.11-.42-1.71-.1-.71-.2-1.41-.34-2.11-.34-1.68-1.01-3.35-1.03-5.08,0-.88,.32-1.65,.78-2.4s.77-1.12,1.63-1.54c.66-.32,1.29-.38,1.93,.05,.95,.63,1.36,1.14,1.96,2.06,1.09,1.65,1.38,3.35,2.06,5.13,.45,1.17,.87,2.35,1.45,3.48,.48,.94,.88,1.93,1.1,2.95,.12,.57,.2,1.13,.3,1.7,.13,.76,.18,1.56,.37,2.31,.17,.68,.23,1.34,.33,2.03s.18,1.38,.2,2.1c.02,1.22,.05,2.45,.01,3.68-.01,.38-.09,.76-.13,1.14-.05,.56-.13,1.12-.28,1.66-.17,.6-.26,1.22-.37,1.83-.14,.73-.31,1.44-.52,2.16-.19,.66-.46,1.32-.57,2-.11,.63-.24,1.24-.41,1.86s-.22,1.25-.34,1.88c-.08,.43-.17,.87-.26,1.3-.09,.46-.12,.91-.19,1.36-.09,.52-.21,1.04-.23,1.57-.02,.58-.05,1.16-.11,1.73-.02,.22-.11,.42,.07,.59,.07,.07,.18,.08,.25,.16,.1,.13,.13,.36,.15,.51,.13,.78-.11,1.66-.3,2.42-.06,.25-.21,.63-.43,.8-.28,.22-.57,.1-.71,.43s-.06,.61,0,.93c.04,.19,.07,.61,.71-1.4Z"/><path class="e" d="M40.1,69.3c-.39,.02-.87,.08-1.28,.29-.06,.03-.46,.28-.49,.32-.13,.17-.27,.36-.39,.56-.2,.32-.38,.64-.57,.96-.35,.6-.54,1.12-.64,1.8-.08,.51,.02,.99,.02,1.5,0,.77,.3,1.46,.42,2.22,.25,1.63,.62,3.27,.94,4.89,.34,1.71,.67,3.42,.88,5.14,.13,1.05,.24,2.1,.36,3.15s.25,2.02,.29,3.02c.04,1.18,.09,2.37,.15,3.56,.05,1.04,.19,2.08,.22,3.11,.03,1.29,.18,2.59,.23,3.87,0,.24-.04,.47,0,.71,.03,.2,.08,.4,.1,.62,.05,.54,.1,1.07,.15,1.6,.16,1.65,.28,3.31,.39,4.97,.02,.34,.09,.69,.09,1.02,0,.3-.05,.61-.03,.92l.04,.1c-.05,.03-.05,.07-.01,.11-.27,.04-.48,.58-.54,.8-.08,.33,.14,.64,.15,.96,0,.27,.09,.54,.05,.81-.05,.33-.02,.58,.08,.9,.17,.56,.27,1.11,.95,1.29,.32,.08,.69,.09,1.02,.15s.73,.09,1.07,.06c.3-.02,.55-.07,.86-.05,.35,.02,.55,.02,.71-.3,.1-.2,.16-.46,.25-.68,.1-.23,.12-.41,.17-.63,.11-.47,.34-.91,.29-1.4-.03-.35,.02-.78-.17-1.09-.16-.27-.38-.33-.35-.65,.03-.26,.02-.53,.05-.79,.06-.43,.11-.83,.14-1.26,.04-.53,.19-1.02,.31-1.54,.24-1.04,.4-2.12,.49-3.18,.04-.54,.23-1.06,.28-1.59,.06-.58,.08-1.2,.24-1.77,.25-.89,.57-1.78,.78-2.69s.35-1.8,.65-2.67c.18-.51,.21-1.01,.3-1.54,.18-1.12,.12-2.24,.18-3.37,.03-.6,.06-1.2,.08-1.8,.03-.65-.09-1.31-.09-1.96,0-.72-.07-1.42-.2-2.14-.11-.62-.1-1.31-.27-1.91-.15-.54-.11-1.13-.32-1.65-.17-.42-.33-.86-.44-1.3-.19-.76-.45-1.4-.8-2.11s-.68-1.35-.97-2.07c-.24-.58-.53-1.14-.77-1.72-.14-.33-.28-.63-.33-.97-.04-.28,0-.75-.19-.99-.09-.12-.26-.18-.42-.07-.14,.1-.1,.3-.1,.46,0,.4,.12,.72,.22,1.09,.53,2.01,1.56,3.85,2.36,5.77,.44,1.05,.61,2.23,.85,3.32,.1,.47,.18,.96,.26,1.43,.11,.67,.24,1.35,.3,2.03,.1,1.12,.19,2.18,.07,3.3-.07,.61-.11,1.22-.14,1.84-.04,.66,0,1.33-.09,1.98-.17,1.17-.25,2.33-.48,3.49-.12,.62-.42,1.18-.62,1.77-.22,.67-.37,1.35-.58,2.02-.51,1.57-.47,3.27-.71,4.9-.11,.75-.16,1.52-.33,2.26-.13,.59-.11,1.17-.15,1.77s-.24,1.27-.84,1.57-1.43,.26-2.05,.13c-.76-.16-.73-1.12-.7-1.71,.08-1.3,.18-2.67,0-3.99-.21-1.44-.38-2.89-.43-4.36-.03-.97-.1-1.94-.12-2.92,0-.46-.09-.91-.13-1.36-.05-.57,.04-1.14-.03-1.71s-.08-1.16-.1-1.73-.06-1.17-.07-1.76c0-.48-.05-.95-.06-1.43,0-.29-.1-.58-.09-.87,.01-.26,.03-.49,0-.75-.11-1.13-.07-2.26-.29-3.39-.17-.86-.36-1.7-.45-2.57-.04-.45-.1-.89-.16-1.34-.03-.24-.09-.48-.11-.72-.02-.29,.02-.51-.08-.79-.13-.39-.14-.84-.25-1.24-.12-.43-.21-.83-.3-1.27-.14-.7-.34-1.39-.48-2.1-.1-.48-.27-.93-.4-1.4-.41-1.49-.72-3.1,.13-4.52,.39-.65,.62-1.41,1.26-1.87,.57-.41,1.21-.32,1.87-.01,.46,.21,1.01,.71,1.35,1.25-.15-.43-.61-1.15-.91-1.46-.2-.2-.52-.37-.78-.46-.19-.07-.43-.12-.74-.18Z"/><path class="e" d="M40.78,119.04c-.3,.35-.45,.42-.84,.7-.16,.08-.56,.34-.75,.41-.31,.11-.6,.21-.92,.28-.42,.09-.86,.14-1.29,.16s-.79,.07-1.21,.14c-.97,.16-1.89,.58-2.81,.91s-1.96,.65-2.77,1.12c-.95,.54-1.79,1.25-2.33,2.16-.32,.55-.85,1.7,0,2.2,.49,.29,1.44-.47,1.82-.84,.52-.49,.98-.64,1.61-1,.55-.32,1.08-.98,1.46-1.49,.3-.39,.6-.61,1.08-.78,.7-.24,1.62-.17,1.89,.57,.18,.5-.22,1.03-.45,1.44-.27,.51-.92,.99-1.39,1.34s-.93,.71-1.39,1.08c-.39,.31-.61,.63-.83,1.06-.36,.71-.87,1.41-.94,2.21-.03,.37-.05,.72,.01,1.09s.05,.79,.5,.75c.91-.07,1.81-.76,2.26-1.48,.2-.33,.45-.62,.59-.98,.09-.21,.27-.34,.37-.53,.12-.23,.21-.52,.32-.76,.15-.34,.33-.68,.48-1.01,.18-.4,.42-.68,.65-1.04,.12-.19,.19-.39,.34-.57,.17-.21,.39-.43,.6-.59,.31-.23,.91-.57,1.33-.61,.28-.03,.66,.2,.84,.38,.33,.34,.35,.72,.34,1.15,0,.53-.09,.91-.25,1.42-.15,.47-.26,.93-.25,1.41,0,.4-.05,.8,.02,1.19,.07,.43,.26,.86,.43,1.27s.41,.57,.85,.42c.18-.06,.39-.11,.53-.24,.27-.26,.36-.82,.36-1.16,0-.4,.15-.96,.27-1.35,.14-.48-.03-.75,.12-1.22,.23-.79,.39-1.45,.65-2.23,.14-.4,.28-.69,.42-1.08s.27-.62,.47-.96c.13-.22,.22-.48,.37-.69,.19-.27,.4-.58,.62-.82,.4-.44,.55-.84,.56-1.39,0-.4-.2-1.06-.19-1.46,0-.46,.1-.67,.15-.98,.09-.45,.34-.42,.46,0,.09,.31-.29,.77-.25,1.09s.34,.76,.36,1.08c.02,.41-.15,.75-.31,1.14-.2,.5-.52,.96-.83,1.39s-.58,.84-.75,1.36c-.19,.6-.47,1.17-.7,1.75-.41,1.04-.69,2.87-.7,3.07-.02,.27-.21,1.32-.26,1.58-.08,.43-.18,.84-.46,1.21-.34,.47-.88,.71-1.47,.56-.32-.08-.57-.5-.73-.77-.18-.32-.32-.65-.46-.99-.33-.8-.23-1.68-.03-2.51,.11-.45,.26-.84,.3-1.3,.03-.37,.14-.83-.08-1.15-.42-.59-.52-.65-1.17-.36-.78,.34-.97,1.15-1.33,1.79-.2,.37-.44,.72-.65,1.09-.24,.43-.55,.94-.71,1.41-.24,.7-.79,1.46-1.34,1.98-.49,.47-1.22,.88-1.92,1-.79,.14-1.17-.93-1.26-1.49-.06-.37,0-.83,.13-1.18,.22-.57,.41-1.12,.71-1.66,.19-.35,.4-.71,.64-1.04,.22-.31,.45-.67,.76-.91s.67-.48,.99-.73c.4-.32,.72-.71,1.08-1.06,.44-.41,.71-.89,.25-1.44-.25-.3-.64-.2-.93-.05-.4,.2-.73,.67-1.03,.98-.66,.66-1.35,1.31-2.23,1.74-.27,.13-.47,.28-.69,.47-.35,.3-.63,.5-1.07,.66-.3,.11-.72,.38-1.03,.3-.28-.08-.51-.42-.64-.65-.15-.27-.24-.55-.18-.84,.1-.45,.19-.95,.41-1.35,.52-.96,1.16-1.39,2.07-2,1.59-1.08,3.79-1.95,5.67-2.45,1-.26,2.04-.42,3.03-.73,.28-.09,.55-.18,.81-.29,.31-.13,.61-.28,.9-.44,.24-.13,.23-.2,.49-.47,.17-.18,.24-.61,.5-.77,.34-.2,.41,.35,.39,.55-.02,.18-.08,.3-.15,.47,0,.02-.18,.24-.29,.34Z"/><path class="e" d="M32.27,130.23c-.42,.2-.82,.43-1.2,.69,.07,.23,.02,.49,.21,.69,.14,.14,.5,.19,.68,.16,.27-.03,.54-.26,.67-.47,.19-.29,.12-.45,0-.74-.19-.47-.57-.54-1.07-.35-.21,.08-.38,.24-.46,.44-.05,.13-.03,.58,1.16-.42Z"/><path class="e" d="M28.72,125.03c-.13,.01-.39,0-.48,.09-.05,.05-.08,.12-.12,.17-.07,.09-.17,.18-.21,.3-.08,.23-.03,.5,.06,.71,.05,.13,.13,.17,.26,.24s.23,.09,.38,.08c.12-.01,.24-.02,.34-.09,.11-.08,.22-.2,.28-.32,.05-.1,.11-.21,.13-.32,.02-.1,0-.19-.03-.29-.04-.15-.06-.31-.21-.4-.09-.05-.19-.08-.28-.13-.04-.02-.05-.02-.1-.03-.03,0-.06-.02-.03-.01Z"/><path class="e" d="M40.08,130.22c-.2,.01-.39,.07-.57,.16-.02,.05-.04,.09-.05,.14-.02,.06-.03,.14-.04,.2-.02,.21,.02,.38,.1,.57,.06,.14,.21,.23,.37,.24,.22,0,.38-.15,.51-.3,.19-.22,.2-.66-.04-.85-.09-.08-.35-.23-.29-.16Z"/><path class="k" d="M57.22,58.03c-.59-.73-1.39-2.05-2.55-2.21-.71-.1-1.54,.26-2.24,.41-1.55,.32-2.76,1.5-3.71,2.63-.43,.5-.94,.93-1.4,1.41-.52,.53-1.01,1.08-1.5,1.63-.67,.77-1.35,1.53-2.13,2.21s-1.43,1.39-2.37,1.9c-.33,.18-.6,.25-.96,.34-.18,.04-.36,.06-.54,.09-.28,.05-.47,.17-.72,.28-.39,.17-.73,.3-1.08,.56-.41,.31-.73,.69-1.01,1.11-.54,.82-.71,1.73-.69,2.68,.02,1.43,.81,2.73,2.41,2.97,.87,.13,1.79-.25,2.6-.52,1.03-.35,1.93-1.07,2.78-1.7s1.83-1.34,2.81-1.83c.57-.28,1.12-.61,1.69-.9,.54-.27,1.13-.59,1.61-.94,1.02-.74,2.14-1.3,3.21-1.96,.74-.46,1.47-.91,2.21-1.36,.84-.51,1.53-1.06,2.03-1.89,.18-.31,.31-.72,.39-1.06,.1-.42,.22-.92,.25-1.35,.05-.63-.12-1.26-.47-1.79-.13-.19-.23-.37-.39-.54-.11-.12-.29-.34-.24-.15Z"/><path class="e" d="M57.9,62.26c-.03,.22-.02,.48-.16,.66-.05,.06-.08,.12-.12,.19-.07,.13-.15,.26-.23,.38-.12,.2-.28,.37-.43,.54-.19,.22-.43,.39-.68,.56-.17,.12-.34,.25-.51,.38-.16,.12-.3,.26-.47,.37-.21,.13-.43,.27-.65,.4-.25,.15-.52,.26-.76,.42-.44,.29-.9,.54-1.38,.78-.26,.13-.5,.29-.75,.43-.31,.17-.62,.33-.92,.5-.28,.15-.52,.35-.78,.53-.21,.14-.43,.26-.64,.39-.42,.25-.82,.52-1.23,.78-.33,.21-.71,.34-1.04,.55-.17,.11-.36,.19-.54,.3-.15,.1-.32,.17-.48,.25-.14,.07-.29,.13-.42,.22-.18,.13-.35,.27-.52,.4-.77,.62-1.59,1.18-2.47,1.66-.36,.2-.74,.36-1.08,.59-.1,.07-.23,.13-.35,.18-.15,.07-.3,.13-.44,.2s-.3,.11-.43,.18c-.25,.14-.53,.27-.83,.3-.28,.04-.58-.01-.86-.07-.11-.02-.21-.07-.32-.1-.11-.03-.24-.04-.35-.07-.24-.06-.5-.16-.73-.26-.17-.08-.33-.18-.46-.31-.15-.15-.25-.32-.39-.47-.23-.26-.39-.57-.55-.87-.09-.18-.16-.34-.19-.53-.03-.17,0-.33,0-.5,.01-.2,.04-.39,.05-.59,0-.08,0-.17,.01-.25,.08-.36,.24-.69,.33-1.04,.13-.45,.36-.86,.65-1.23,.37-.48,.84-.94,1.35-1.29,.42-.29,.93-.45,1.41-.62,.26-.09,.53-.15,.78-.27,.29-.13,.57-.27,.85-.41,.25-.13,.48-.25,.72-.4,.32-.2,.55-.48,.83-.72,.26-.22,.51-.45,.78-.66,.29-.22,.52-.52,.75-.79s.5-.5,.73-.76c.29-.31,.55-.64,.81-.98,.18-.24,.28-.5,.43-.75,.21-.34,.52-.62,.76-.94,.17-.23,.39-.44,.6-.64,.25-.25,.51-.49,.8-.69,.24-.17,.49-.34,.72-.53,.19-.16,.37-.33,.56-.48s.42-.34,.65-.46c.25-.13,.52-.23,.77-.36,.38-.19,.76-.37,1.18-.46,.29-.06,.55-.07,.84-.05,.17,0,.4,.04,.54,.13-.03,.07-.11,.1-.18,.13-.15,.06-.31,.1-.46,.16-.37,.14-.77,.21-1.14,.35-.31,.12-.6,.24-.9,.4-.33,.18-.66,.36-.97,.57-.16,.11-.33,.22-.48,.35s-.31,.2-.45,.33c-.28,.26-.57,.52-.84,.79-.22,.21-.41,.44-.63,.65s-.46,.46-.64,.72c-.19,.27-.38,.53-.56,.8s-.36,.54-.56,.79c-.22,.29-.42,.6-.64,.89-.24,.31-.48,.63-.77,.91-.39,.38-.82,.74-1.25,1.08-.22,.17-.45,.33-.68,.48-.12,.08-.24,.18-.37,.25s-.25,.14-.36,.23c-.23,.18-.5,.32-.75,.47-.23,.14-.47,.21-.71,.32-.23,.1-.46,.19-.69,.28-.19,.07-.42,.11-.59,.22-.3,.19-.62,.35-.92,.54-.37,.23-.69,.56-.94,.91-.3,.42-.66,.84-.77,1.35-.09,.41-.23,.9-.17,1.33,.04,.22,.11,.43,.2,.63,.07,.16,.09,.32,.2,.46,.13,.16,.27,.31,.45,.43s.34,.27,.52,.39c.53,.36,1.28,.39,1.91,.33,.16-.02,.32-.02,.48-.05,.2-.04,.39-.13,.59-.18,.16-.05,.32-.1,.47-.15,.21-.08,.43-.15,.63-.24,.38-.17,.75-.35,1.1-.57,.19-.12,.38-.25,.59-.35,.23-.11,.42-.28,.62-.44,.34-.28,.65-.57,1.05-.79s.82-.4,1.22-.63c.14-.08,.26-.17,.41-.23,.1-.04,.19-.09,.28-.15,.13-.09,.27-.18,.41-.27s.25-.19,.39-.28c.11-.08,.25-.13,.37-.19,.13-.07,.24-.16,.37-.24,.23-.13,.44-.26,.67-.4,.15-.09,.31-.15,.47-.24,.15-.08,.27-.18,.42-.26,.28-.16,.57-.31,.85-.49,.25-.16,.48-.33,.73-.48,.22-.14,.45-.27,.67-.41,.25-.15,.46-.35,.72-.48s.53-.3,.8-.44c.19-.1,.38-.2,.56-.32,.11-.07,.22-.14,.34-.2s.24-.09,.35-.15c.33-.19,.67-.39,.97-.62,.11-.09,.2-.19,.3-.29,.16-.15,.35-.26,.5-.42,.2-.22,.46-.39,.67-.6,.1-.11,.18-.26,.23-.38,.04-.1,.08-.23,.15-.32,0,0-.01,.02-.02,0Z"/><path d="M19.43,69.36c.43,0,.86-.03,1.29-.07-.03-.2,.36-.49,.48-.67,.19-.28,.35-.58,.4-.91,.06-.44-.03-.97,.14-1.39s.55-.38,.95-.51c.35-.12,.71-.19,1.06-.32,.4-.15,.78-.33,1.12-.58,.24-.17,.44-.39,.64-.61,.13-.15,.38-.48,.6-.53,.23-.06,.62,.25,.81,.37,.24,.16,.53,.3,.72,.51,.21,.24,.32,.57,.56,.78,.37,.33,.79,.61,1.12,.98,.14,.15,.27,.32,.41,.47,.38,.42,.76,.87,1.05,1.35,.98,1.66,2.29,3.09,3.84,4.33,.42,.34,.87,.65,1.35,.92,.71,.41,1.41,.65,2.24,.72,.69,.05,1.31-.02,1.91-.38s1.21-.89,1.68-1.4c.99-1.08,.55-2.55,.03-3.76-.39-.91-1.08-1.5-1.89-2.1-1-.75-2.24-1.15-3.31-1.8-.73-.44-1.44-.91-2.09-1.44-.6-.49-1.12-1.07-1.74-1.54s-1.27-.99-1.9-1.5c-.74-.6-1.73-.96-2.63-1.29-.72-.26-1.55-.46-2.33-.52-.89-.07-1.77-.01-2.66-.03-.68-.01-1.35,.01-2.03,.01-.48,0-.92-.11-1.4-.11-.6,0-1.4,0-1.94,.3-.49,.27-.75,.89-.96,1.35-.28,.6-.64,1.18-1.09,1.67-.22,.25-.41,.51-.64,.75s-.5,.43-.7,.71c-.44,.64,.53,.93,1.06,.83,.85-.15,1.64-.79,2.15-1.42,.35-.42,.66-.96,1.09-1.32,.22-.18,.69-.37,.75,.08,.05,.38-.35,.59-.6,.79-.42,.34-.83,.68-1.27,.99-.47,.34-.95,.74-1.3,1.19-.52,.67-1.1,1.46-1.04,2.34,.05,.7,.61,1.22,1.36,.93,.98-.37,1.36-1.59,1.82-2.38,.4-.68,1.02-1.24,1.72-1.65,.31-.18,1.06-.36,1.12,.18,.02,.19-.24,.5-.39,.64-.24,.22-.55,.35-.83,.49-1.09,.56-1.76,1.83-1.34,2.95,.13,.34,.41,.56,.6,.86,.17,.28-.03,.51,.25,.72s.56,.08-.24-.03Z"/><path class="e" d="M40.37,67.3c-.36-.26-.71-.5-1.09-.73-.14-.09-.28-.2-.44-.26-.28-.11-.54-.25-.82-.37-.22-.09-.45-.13-.67-.22-.18-.07-.34-.2-.52-.29-.23-.12-.43-.26-.63-.42-.34-.25-.72-.43-1.04-.7-.25-.2-.51-.36-.76-.55s-.48-.41-.7-.61c-.41-.39-.84-.77-1.26-1.16-.39-.36-.84-.66-1.23-1.01-.43-.38-.92-.74-1.42-1.03-.23-.13-.48-.28-.72-.38s-.48-.17-.72-.26-.49-.18-.74-.26c-.21-.07-.43-.09-.65-.13-.42-.08-.85-.12-1.27-.11-.86,.01-1.72,0-2.58-.04-.49-.02-.98,0-1.47-.02-.41-.01-.82-.01-1.23,.01-.46,.03-.92,.06-1.39,.11-.35,.03-.71,.13-.98,.35-.15,.12-.28,.26-.39,.42-.13,.17-.2,.37-.31,.55-.23,.36-.48,.69-.69,1.06-.11,.2-.26,.37-.4,.55-.14,.17-.26,.34-.42,.49s-.32,.27-.48,.4c-.13,.11-.33,.23-.43,.37-.14,.19-.05,.5,.22,.52,.35,.02,.69-.08,.98-.23,.17-.09,.3-.23,.42-.37,.14-.16,.31-.32,.43-.49,.24-.32,.42-.66,.67-.97,.33-.42,.69-.81,1.25-.96,.38-.1,.78,.07,1.03,.33,.27,.28,.31,.73,.11,1.06-.11,.18-.31,.33-.49,.44-.26,.17-.54,.34-.81,.5-.73,.42-1.31,1.09-1.81,1.73-.35,.45-.75,.95-.99,1.46-.11,.23-.19,1.08,.02,1.26,.39,.32,.94-.47,1.16-.8,.17-.26,.32-.54,.46-.82,.19-.38,.3-.77,.56-1.11,.24-.32,.51-.59,.86-.82,.31-.21,.67-.31,1.02-.43,.31-.11,.38-.05,.71-.08,.31-.03,.84-.17,.99,.11,.27,.53-.59,.82-.94,1.13-.57,.51-.89,1.17-1.28,1.83-.08,.13-.2,.27-.24,.41-.02,.08-.05,.22-.06,.3-.02,.12,.01,.31,.05,.42,.08,.27,.15,.7,.3,.86,.26,.27,.58,.58,.88,.42,.41-.22,.66-.99,.74-1.41,.05-.25,.16-.44,.19-.69,.02-.16,.15-.32,.2-.47,.05-.21,.12-.24,.21-.44,.05-.12,.37-.29,.49-.36,.18-.1,.31-.14,.51-.17,.42-.07,.68-.17,1.1-.25,.48-.1,.84-.47,1.3-.64,.24-.09,.46-.24,.69-.35,.08-.04,.14-.1,.21-.14,.11-.06,.21-.07,.32-.09,.27-.04,.51-.07,.76,.08,.15,.09,.28,.2,.41,.31,.22,.18,.35,.44,.57,.62,.27,.23,.5,.49,.78,.7,.37,.27,.63,.63,.97,.94s.58,.68,.88,1.01c.16,.17,.26,.34,.39,.53,.15,.23,.35,.44,.51,.66,.37,.48,.75,.97,1.15,1.43,.18,.2,.41,.35,.58,.56,.26,.32,.5,.64,.81,.92s.68,.44,.98,.7c.21,.18,.38,.34,.61,.49,.14,.09,.27,.21,.41,.31,.27,.19,.57,.39,.87,.53,.23,.11,.47,.12,.72,.16,.2,.03,.42,.07,.61,.13,.09,.03,.19,.05,.22,.13,.07,.22-.29,.27-.43,.28-.34,.03-.65-.08-.97-.18-.21-.07-.43-.09-.64-.17-.26-.1-.5-.22-.73-.38-.13-.09-.25-.19-.39-.27s-.28-.14-.41-.24c-.28-.24-.58-.49-.87-.72-.35-.28-.65-.58-.98-.88-.12-.11-.26-.2-.37-.31-.16-.15-.29-.33-.44-.49-.25-.26-.5-.51-.71-.8s-.45-.59-.63-.9-.37-.6-.58-.89c-.11-.15-.21-.31-.34-.45-.18-.21-.35-.44-.54-.64-.3-.31-.59-.62-.86-.95-.19-.22-.38-.45-.61-.63s-.39-.42-.59-.61c-.14-.13-.28-.25-.41-.38-.16-.16-.36-.34-.6-.34-.28,0-.54,.23-.76,.37-.13,.09-.25,.19-.38,.29-.08,.06-.19,.08-.28,.13-.12,.06-.3,.17-.42,.23-.41,.21-.53,.32-.92,.44-.26,.09-.59,.14-.83,.24-.32,.14-.57,.28-.72,.56-.25,.45-.45,.94-.62,1.43-.07,.2-.09,.41-.16,.6-.05,.15-.15,.28-.24,.41-.21,.29-.54,.53-.91,.59-.18,.03-.42,.04-.57-.06-.18-.12-.3-.3-.39-.47-.11-.22-.45-.53-.48-.78s-.08-.4-.11-.63c-.03-.29-.07-.58-.05-.88,.02-.25,.28-.38,.37-.61,.16-.42,.45-.8,.72-1.15,.1-.13,.2-.25,.31-.37,.04-.05,.08-.11,.13-.14-.18-.01-.32,.06-.49,.12-.25,.09-.48,.18-.69,.34-.24,.18-.44,.4-.64,.63-.24,.28-.39,.62-.58,.93s-.45,.6-.65,.91c-.16,.24-.29,.5-.55,.67s-.52,.23-.83,.12c-.35-.12-.39-.49-.42-.8-.04-.42-.17-.98,.02-1.37,.1-.21,.31-.41,.41-.62,.12-.25,.31-.45,.47-.68,.65-.98,1.6-1.74,2.48-2.53,.19-.17,.39-.37,.52-.58,.09-.15,.17-.31-.1-.25-.18,.04-.35,.22-.49,.34-.21,.17-.37,.4-.54,.6-.15,.18-.34,.37-.52,.52-.2,.17-.38,.36-.57,.55-.29,.28-.59,.54-.98,.68-.3,.11-.61,.22-.92,.31-.1,.03-.25,.07-.35,.02-.11-.05-.23-.2-.31-.29-.25-.29-.17-.75,.06-1.02,.12-.14,.27-.24,.41-.36,.22-.2,.39-.41,.58-.63,.32-.38,.63-.75,.9-1.16,.45-.67,.83-1.39,1.44-1.95,.28-.26,.75-.28,1.12-.32,.65-.08,1.31-.12,1.96-.18,.26-.02,.53-.07,.8-.07,.39,0,.77,.02,1.16,.01,.78-.01,1.54,.03,2.32,.1,.35,.04,.69,.11,1.04,.15,.41,.05,.81,.15,1.21,.23,.53,.1,1.01,.29,1.5,.47,.32,.12,.62,.21,.93,.33,.24,.09,.44,.22,.67,.33,.19,.09,.37,.25,.55,.37,.21,.14,.4,.28,.58,.44,.59,.49,1.16,.99,1.72,1.51,.13,.12,.27,.23,.39,.35,.15,.13,.26,.29,.42,.41,.3,.23,.62,.42,.9,.67s.61,.41,.88,.65c.09,.08,.19,.14,.3,.21,.17,.11,.31,.24,.49,.33,.27,.14,.57,.24,.82,.4,.23,.15,.46,.29,.7,.43,.29,.16,.58,.3,.87,.46,.41,.23,.75,.59,1,.97,.04,.06,.29,.43,.17,.34Z"/><path class="e" d="M41.1,69.56c-.33,.04-.65,.08-.96,.2-.17,.06-.34,.15-.52,.2-.31,.09-.6,.2-.91,.28-.35,.09-.71,.12-1.07,.06-.26-.04-.49-.12-.74-.2-.13-.04-.26-.08-.38-.14-.13-.07-.24-.16-.35-.24-.2-.14-.37-.28-.52-.47-.18-.23-.36-.44-.51-.69-.08-.14-.18-.26-.26-.4-.07-.13-.11-.27-.17-.41-.1-.24-.18-.47-.25-.72s-.2-.47-.31-.7c-.13-.29-.29-.59-.51-.83-.15-.17-.35-.3-.54-.43-.16-.11-.36-.3-.56-.35,.04,.09,.17,.15,.23,.23,.09,.1,.15,.21,.24,.3,.08,.09,.17,.16,.23,.27,.04,.08,.08,.16,.13,.24,.17,.25,.22,.52,.34,.79,.04,.1,.1,.2,.14,.31,.04,.14,.08,.29,.13,.43,.08,.24,.2,.46,.31,.69,.12,.26,.28,.51,.41,.76,.1,.19,.24,.37,.37,.54,.15,.19,.32,.33,.51,.49,.1,.08,.16,.18,.25,.27s.18,.15,.28,.21c.23,.15,.45,.32,.72,.41,.43,.15,.89,.24,1.35,.19,.12-.01,.24-.01,.36-.04,.1-.03,.19-.08,.28-.13,.07-.03,.15-.05,.23-.07,.12-.04,.22-.13,.33-.19,.19-.11,.35-.25,.54-.36,.13-.08,.26-.13,.39-.2,.15-.08,.32-.13,.49-.18,.08-.03,.16-.04,.25-.04,0,0,0,.01,.05-.08Z"/><path class="e" d="M21.23,59.81c-.2-.02-.4-.01-.59,.02-.06-.01-.1,0-.13,.05-.04,.02-.09,.06-.12,.09-.14,.1-.15,.26-.15,.42,0,.08,0,.17,.04,.23s.14,.1,.18,.16c-.2-.03-.37-.16-.51-.29-.12-.11-.26-.29-.24-.46,.02-.15,.19-.29,.31-.36,.27-.16,.58-.14,.88-.07,.1,.02,.18,.07,.27,.11,.05,.02,.1,.02,.13,.06,0,.01,0,.02-.07,.06Z"/><path class="e" d="M21.48,61.61l-.42,.21c-.08,.01-.14,.05-.17,.11-.04,.05-.07,.1-.1,.16-.08,.15-.11,.28-.12,.45,0,.1-.02,.2,.05,.29,.06,.07,.16,.1,.22,.17-.09,.12-.39-.1-.45-.17-.15-.17-.14-.57,0-.75,.14-.19,.39-.29,.61-.37,.15-.05,.31-.08,.37-.1Z"/><path class="e" d="M22.52,63.55c-.14,.1-.25,.21-.34,.35,0,.04,0,.09,0,.13,0,.08,0,.17,.02,.25,.03,.17,.18,.29,.35,.35,.15,.05,.38,.12,.54,.08,.11-.03,.21-.1,.3-.15-.15,.04-.28,.16-.42,.22-.15,.07-.34,.14-.52,.1-.29-.06-.47-.33-.5-.58-.02-.23-.06-.46,.18-.6,.08-.05,.16-.09,.26-.11,.05,0,.12-.04,.12-.03Z"/><path class="e" d="M20.36,68.09c.03-.25,0-.5-.08-.73-.05-.03-.1-.06-.16-.07-.08-.03-.17-.05-.26-.04-.15,.02-.31,.18-.33,.31-.03,.15,.01,.33,.04,.48,.03,.13,.11,.27,.24,.35s.36,.1,.46-.03c.06-.08,.02-.31,.1-.27Z"/><path class="e" d="M16.55,66.69c.06-.15,.09-.31,.09-.48-.12-.01-.2-.08-.33-.06-.15,.02-.24,.1-.26,.25,0,.05,0,.1,0,.15,0,.06-.04,.11-.04,.18,0,.14,.05,.2,.19,.23,.08,.02,.19,.02,.27-.02,.1-.05,.12-.16,.15-.25s.07-.19,.08-.29c0-.04-.02-.1-.13,.3Z"/><path class="e" d="M16.35,62.72c-.15-.08-.33-.24-.5-.15-.05,.03-.1,.04-.15,.06-.15,.06-.22,.15-.34,.25-.07,.05-.15,.12-.13,.23s.13,.12,.22,.13c.26,.03,.54,0,.71-.21,.04-.06,.26-.3,.2-.3Z"/><path d="M132.34,98.43c-.92-1.6-1.8-3.28-2.84-4.82-.61-.9-1.24-1.74-1.8-2.66-.67-1.11-1.48-2.23-2.29-3.24-.22-.27-.55-.59-.71-.87-.2-.35-.18-.97-.18-1.36,0-.74,0-1.48,0-2.21s-.12-1.56,0-2.29c.07-.41,.17-.8-.04-1.19-.41-.77-1.18-1.34-1.7-2.04-.58-.8-.82-1.67-1.01-2.62-.1-.51-.27-.97-.35-1.49-.11-.77-.21-1.54-.41-2.29-.39-1.43-.91-2.87-1.46-4.26-.36-.92-.82-1.83-1.23-2.74s-.82-1.76-1.32-2.59c-.44-.75-.72-1.56-1.19-2.3-.5-.78-.92-1.56-1.3-2.4-.41-.91-.73-1.85-1.09-2.78-.47-1.19-.42-2.66-.46-3.91-.03-.88,.14-1.69,.3-2.55,.11-.62,.15-1.26,.26-1.87,.15-.82,.33-1.4,.1-2.21-.48-1.74-1.58-3.27-2.22-4.95-.28-.73-.56-1.45-.76-2.2-.1-.38-.17-.76-.31-1.13s-.36-.72-.65-1.04c-.64-.72-1.48-1.38-2.19-2.04-.89-.82-1.7-1.75-2.62-2.54-.17-.15-.36-.29-.55-.4-.26-.15-.52-.41-.81-.51-.2,.36-.21,.69-.51,1-.35,.36-.79,.78-1.32,.89s-1.17-.07-1.71-.14c-.8-.11-1.6-.2-2.41-.31-1.23-.16-2.46-.29-3.68-.46s-2.58-.23-3.83-.54c-.7-.18-1.41-.26-2.13-.3-.83-.05-1.64-.24-2.47-.23-.47,0-.76-.09-1.23,0-.9,.18-1.73-.02-2.57-.38-.76-.33-1.49-.69-2.24-1.02-1.05-.46-2.14-.84-3.21-1.28-.81-.33-1.53-.9-2.32-1.31-.63-.32-1.39-.86-2.12-.95-.53-.07-.71,.28-1.15,.47s-1.02,.23-1.5,.38c-.3,.1-.6,.17-.91,.24-.88,.22-1.74,.5-2.63,.72-1.1,.27-2.17,.59-3.27,.83-1.78,.38-3.48,1.04-5.29,1.31-.12,.56-.37,1.11-.54,1.66-.3,.97-.73,1.86-1.18,2.78-.4,.82-.81,1.68-1.33,2.44-.59,.86-.91,1.85-1.52,2.71-.75,1.05-1.72,2.13-2.19,3.31-.1,.27-.11,.55-.1,.83,.02,.61,.08,1.21,.08,1.83,0,.86,.07,1.75-.08,2.6-.17,.91-.35,1.68-.66,2.56-.19,.53-.44,1-.71,1.49-.22,.4-.53,.72-.76,1.14-.43,.81,.11,1.33,.49,2.09,.63,1.27,1.36,2.51,1.87,3.83,.29,.76,.41,1.52,.61,2.29s.32,1.33,.31,2.11c-.02,1.62-.4,3.33-.75,4.92-.33,1.5-.72,3-1.03,4.5-.15,.76-.21,1.55,.04,2.29,.42,1.2,.82,2.39,1.28,3.57,.38,.99,.73,1.96,1.22,2.9,.53,1.03,1.08,1.96,1.38,3.09,.19,.73,.18,1.39,.26,2.13,.02,.24,.11,.45,.08,.69s-.12,.42-.17,.66c-.11,.47-.16,.92-.3,1.39-.25,.85-.54,1.69-.8,2.55-.29,.95-.43,1.92-.8,2.85-.4,.97-.7,1.96-.97,2.96-.16,.6-.38,1.18-.56,1.77-.09,.3-.12,.49,0,.79,.21,.49,.64,.92,.96,1.34,.34,.44,.76,.82,1.1,1.27,.46,.62,.83,1.34,1.24,1.99,1.75,2.75,3.98,5.01,6.52,7.14,.83,.7,1.64,1.44,2.48,2.12,.52,.42,1.08,.8,1.58,1.24,.62,.55,1.22,1.14,1.87,1.64,1.2,.92,2.3,1.97,3.36,3.03,.72,.72,1.43,1.58,2.24,2.21,.72,.57,1.9,.65,2.81,.72,1.16,.09,2.35,.25,3.51,.43,1.83,.29,3.61,.44,5.46,.59,1.03,.09,2.05,.03,3.08,.15,1.22,.15,2.4,.21,3.63,.21,1.78,0,3.54,.07,5.32,.08,1.29,0,2.58,.17,3.86,.25,1.06,.07,2.22-.01,3.26,.17,.41,.07,.81,.18,1.24,.23,1.08,.13,2.19,.16,3.26,.29,.78,.09,1.45,.37,2.23,.37,.65,0,1.27,.2,1.91,.23,.37,.02,.62-.13,.97-.21,.4-.1,.81-.15,1.21-.25,.81-.2,1.66,.01,2.47-.23s1.25-.4,1.82-1c1.05-1.11,2.16-2.2,2.98-3.49,.89-1.41,1.78-2.82,2.8-4.15,.42-.55,.9-1.03,1.38-1.54,.57-.61,.84-1.31,1.32-1.98,.28-.39,.39-.81,.59-1.24,.26-.57,.63-1.11,.93-1.66,.27-.51,.42-1.06,.71-1.56s.64-.96,.86-1.52c.34-.84,.91-1.6,1.29-2.43,.34-.75,.62-1.48,.86-2.26,.22-.72,.65-1.44,1.01-2.09,.07-.02,.13,0,.04-.16Z"/><path class="i" d="M101.04,31.72c-.51,.98-1,2.03-1.59,2.95-.09,.14-.27,.36-.31,.6v.08c.35,1.07,.74,2.09,1.23,3.09,.31,.63,.51,1.3,.81,1.93,.19,.4,.47,.77,.69,1.16,.63,1.09,1.23,2.24,1.74,3.39,.36,.81,.43,1.69,.17,2.54-.15,.47-.44,.97-.36,1.47,.06,.38,.27,.8,.42,1.16,.29,.7,.71,1.22,.74,2,.02,.41,.08,.8,.08,1.22s-.06,.86,.11,1.26c.35,.87,1.15,1.54,1.71,2.3,.24,.33,.41,.71,.62,1.06,.31,.52,.48,1.07,.77,1.58,.6,1.06,1.2,2.18,1.74,3.26,.16,.32,.26,.67,.41,.99,.16,.34,.44,.61,.54,.97,.13,.5,.21,.98,.21,1.5,0,.28-.03,.58,0,.87,.02,.22,0,.69,.08,.9,.1,.26,.53,.42,.75,.63,.37,.35,.84,.6,1.14,1,.21,.28,.45,.67,.51,1,.07,.39,0,.86,0,1.26,0,.33-.08,.61-.08,.94,0,.46,.06,.64,.27,1.05s.43,.77,.64,1.16c.23,.44,.38,.93,.6,1.39,.54,1.1,.84,2.26,1.48,3.32,.53,.88,1.62,1.16,2.37,1.85,.38,.35,.63,.59,.74,1.06,.16,.71,.39,1.5,.68,2.17,.38,.87,.66,1.79,1.05,2.66,.29,.66,.86,1.51,.99,2.22"/><path class="i" d="M114.45,82.43c-.54-3.35-1.07-6.69-1.07-10.09"/><path class="i" d="M124.09,107.48c-.15-1.18-.39-2.36-.47-3.54-.05-.7-.16-1.38-.29-2.07-.25-1.31-.49-2.61-.79-3.91-.1-.42-.23-.89-.29-1.29-.08-.51,.32-1.15,.51-1.6,.21-.51,.41-1.02,.61-1.53,.22-.58,.5-1.14,.66-1.74,.25-.96,.51-1.91,.72-2.87,.09-.43,.13-.84,.27-1.26,.06-.19,.1-.37,.1-.57"/><path class="i" d="M50.18,99.31c1.24-.51,2.49-.98,3.8-1.32,.66-.17,1.35-.27,2.01-.46,1.27-.36,2.6-.79,3.91-1.01,1.03-.17,2.07-.27,3.07-.57,.73-.22,1.33-.79,1.99-1.15,.57-.31,.95-.48,1.62-.47,.86,.01,1.76,.01,2.62,.08,2.6,.21,5.25-.14,7.86-.16,.64,0,1.16,.17,1.76,.32,.83,.2,1.86,.09,2.67-.08,1.31-.28,2.53-.85,3.79-1.24"/><path class="i" d="M88.61,95.89c-1.22,.2-2.27,.4-3.48,.39-.5,0-1,0-1.51,0-.66,0-1.26,.12-1.9,.16-1.29,.08-2.59,.15-3.89,.15-.7,0-1.47,.1-2.15-.07-.59-.15-1.12-.29-1.67-.55-.48-.22-.8-.47-1.23-.76-.15-.1-.67-.37-.76-.32"/><path class="i" d="M88.36,99.39c1.86-.29,3.72-.55,5.57-.88,.31-.05,.79-.12,.99-.29"/><path class="i" d="M85.04,57.19c.62-1.31,1.17-2.77,1.89-4.06,.18-.31,.4-.6,.57-.92,.23-.44,.45-.84,.56-1.33,.11-.52,.13-1.08,.15-1.61,.02-.5-.01-.99,.05-1.49s.28-.88,.4-1.34c.19-.77,.39-1.83,1.2-2.27s1.89-.48,2.76-.35c.52,.08,1.04,.2,1.56,.28,.59,.09,1.21,.13,1.78,.33,.52,.18,1.06,1.09,1.28,1.56,.41,.89,1.16,1.37,1.9,2.04,.58,.52,.99,1.19,1.32,1.85,.5,1.02,1.36,1.96,2.15,2.8,.46,.49,.78,.9,1.35,1.31,.36,.25,.8,.47,1.09,.79"/><path class="i" d="M72.09,24.93c.74,1.77,1.5,3.66,1.49,5.6,0,.57,.05,1.15-.06,1.71-.06,.3-.06,.65-.27,.78,1.36,1.07,2.65,2.14,3.88,3.32,.45,.44,.79,.96,1.26,1.39,1.13,1.04,2.16,2.14,3.45,3.03s2.36,1.86,3.59,2.75,2.66,1.01,4.09,1.01"/><path class="f" d="M69.93,33.17c-1.06-.36-2.05-.7-2.99-1.25-.43-.25-.82-.57-1.24-.82-.56-.33-1.13-.61-1.66-.98-.71-.51-1.39-.3-2.24-.29-.44,0-.95,.06-1.37-.07-.36-.11-.63-.41-.9-.63-.44-.35-.89-.81-1.21-1.25"/><path class="f" d="M88.76,64.24c-.15,.14-.3,.26-.38,.44-.04,.09-.08,.18-.11,.27-.06,.19-.1,.39-.12,.58-.04,.35-.07,.73,.06,1.07,.07,.19,.14,.36,.23,.54,.04,.08,.06,.16,.1,.24,.05,.09,.11,.18,.14,.28,.06,.16,.17,.3,.25,.45,.07,.13,.15,.25,.23,.37s.17,.2,.28,.29c.11,.1,.23,.19,.35,.29,.23,.17,.49,.27,.77,.33,.32,.06,.65,.08,.97,.03,.19-.03,.38-.06,.57-.11s.39-.1,.55-.2c.16-.09,.31-.23,.44-.34,.11-.1,.22-.26,.26-.39,.08-.23,.15-.47,.15-.72,.04,.08,.03,.19,.03,.28,0,.22,0,.44-.06,.66-.04,.2-.07,.43-.19,.61-.07,.09-.13,.15-.23,.21-.11,.06-.2,.14-.31,.21-.2,.13-.42,.21-.64,.31-.23,.11-.47,.16-.73,.19-.24,.03-.47,.02-.71,0-.27-.02-.57-.02-.84-.09-.47-.11-.88-.3-1.16-.68-.16-.23-.3-.47-.44-.71s-.24-.5-.32-.77c-.14-.48-.21-.98-.21-1.47,0-.2,0-.39,.03-.58s.07-.39,.14-.58c.06-.17,.13-.33,.22-.48,.04-.06,.08-.09,.13-.14,.05-.05,.08-.12,.14-.16,.11-.08,.23-.17,.39-.21Z"/><path class="f" d="M50.18,70.99c1.05-.31,2.08-.66,3.15-.92,.66-.16,1.33-.35,2.01-.41s1.38-.17,2.07-.24c.35-.04,.69-.11,1.04-.16s.72-.05,1.08-.09,.74-.04,1.11-.09c.31-.04,.63-.07,.94-.11,.29-.04,.59-.1,.87-.18,.37-.11,.76-.18,1.12-.29,.67-.2,1.35-.53,2.06-.6,.65-.06,1.3-.11,1.96-.06,.58,.04,1.16,.01,1.69,.27,.31,.15,.7,.25,.98,.46,.31,.23,.62,.45,.96,.65s.75,.34,1.13,.48c.26,.09,.53,.19,.8,.23,.75,.12,1.54,.18,2.29,.07,.38-.05,.74-.11,1.1-.22,.44-.13,.93-.27,1.39-.3,.37-.03,.68-.01,1.04,.03s.78,0,1.11,.17c.24,.13,.46,.31,.7,.43,.27,.14,.53,.35,.82,.45,.71,.25,1.6,.25,2.34,.23,.47-.01,.94,.03,1.4,0,.4-.02,.75-.1,1.12-.24,.3-.12,.59-.24,.89-.37,.22-.1,.45-.17,.66-.29,.27-.16,.42-.42,.66-.6,.22-.16,.42,0,.59,.16,.32,.28-.03,.59-.31,.75-.45,.27-.9,.54-1.38,.76-.79,.37-1.69,.75-2.59,.72-.97-.03-1.94-.14-2.9-.26-.32-.04-.62-.12-.93-.17-.24-.04-.56-.11-.76-.23-.24-.14-.44-.31-.69-.44-.27-.15-.58-.25-.89-.29-.25-.03-.54-.07-.79-.04-.31,.04-.64,.17-.94,.26-.53,.14-1.05,.33-1.58,.45-.68,.14-1.36,.09-2.03-.12-.39-.12-.81-.13-1.2-.26-.45-.14-.86-.32-1.27-.54-.32-.16-.59-.38-.92-.53-.37-.18-.75-.33-1.14-.48-.24-.09-.48-.14-.73-.19-.38-.08-.81-.16-1.21-.1-.72,.1-1.43,.18-2.14,.34-.4,.09-.8,.22-1.2,.33-.48,.13-.96,.21-1.45,.3-1.04,.2-2.08,.3-3.12,.44-.75,.1-1.48,.25-2.2,.47-.43,.13-.84,.24-1.3,.3-.41,.05-.82,.14-1.22,.21-.44,.07-.89,.15-1.32,.27-.16,.04-.32,.06-.48,.11-.21,.06-.42,.14-.63,.19-.29,.06-.57,.18-.85,.26-.24,.07-.47,.16-.71,.23-.17,.05-.29-.01-.46-.01,0,0,0,.02,.25-1.2Z"/><path class="f" d="M83.38,66.79c.11,.44,.24,.86,.26,1.31,0,.15,.02,.3,.04,.45,.04,.24,.15,.46,.19,.7,.03,.19,.07,.37,.09,.56,0,.07,.06,.23,.02,.31-.08,.13-.49,.23-.63,.24-.41,.04-.94-.05-1.3-.25-.09-.05-.13-.06-.1-.15,.01-.05,.1-.13,.14-.19,.07-.13,.14-.26,.21-.38,.27-.45,.46-.94,.66-1.41,.12-.28,.25-.58,.34-.87,.02-.07,.08-.28,.09-.31Z"/><path class="f" d="M76.65,69.08c-.91,.23-1.83,.54-2.78,.33-.18-.04-.38-.08-.55-.16-.04-.02-.17-.07-.19-.1-.08-.1,.09-.22,.17-.33,.22-.32,.42-.66,.63-1s.41-.65,.64-.96c.09-.12,.13-.27,.23-.37,.21,.63,.55,1.22,.98,1.75,.08,.09,.19,.18,.26,.27s.1,.2,.17,.3c.06,.08,.17,.18,.44,.27Z"/><path class="f" d="M72.6,69.05c-.06-.64-.07-1.24-.1-1.87-.02-.36,0-.73-.02-1.09-.01-.23-.02-.46-.04-.68,0-.1-.04-.19-.02-.3-.16,.11-.28,.29-.38,.45-.26,.4-.55,.77-.89,1.12-.26,.26-.51,.52-.77,.77-.12,.11-.23,.26-.36,.35,.03,.18,.28,.19,.41,.27,.26,.16,.47,.36,.76,.48,.33,.13,.65,.26,.96,.42,.12,.06,.28,.11,.46,.08Z"/><path class="f" d="M68.51,67.42c-.56-.09-1.11-.24-1.67-.11-.25,.06-.47,.14-.72,.19-.15,.02-.27,.1-.42,.13-.06,.01-.12-.01-.18,0-.26-.41-.01-.97,.15-1.35,.18-.44,.32-.88,.48-1.32,.07-.19,.15-.39,.23-.58,.04-.1,.07-.28,.15-.36,.09,.1,.12,.25,.17,.37,.13,.27,.3,.51,.42,.78,.19,.41,.41,.82,.64,1.2,.09,.15,.24,.24,.32,.39,.05,.1,.08,.18,.15,.27,.07,.1,.17,.23,.28,.38Z"/><path class="f" d="M63.65,68.1c-.65,.2-1.13,.38-1.78,.43-.33,.02-.66,.15-1,.13-.54-.03-1.05-.06-1.58-.15,.42-.7,.85-1.42,1.11-2.2,.16-.47,.3-.94,.46-1.4,.08-.23,.12-.54,.25-.74,.08,.12,.12,.28,.19,.41,.12,.25,.29,.48,.42,.72,.14,.26,.3,.48,.46,.73,.19,.3,.3,.62,.51,.91,.17,.24,.35,.47,.54,.7,.07,.09,.12,.21,.2,.29s.19,.08,.24,.16Z"/><path class="f" d="M57.97,68.67c-.56,.08-1.11,.18-1.67,.25-.44,.05-.85,.13-1.28,.24-.18,.05-.37,.03-.55,.08-.17,.05-.32,.13-.49,.16-.1,.02-.25,.09-.36,.06-.02-.08,.07-.14,.11-.2,.12-.18,.18-.4,.27-.6,.13-.27,.29-.52,.42-.78,.12-.23,.18-.48,.27-.73,.16-.45,.41-.9,.5-1.37,.04-.18,.1-.35,.13-.52,.02-.08,.02-.18,.06-.25,.1,.1,.16,.24,.23,.36,.15,.23,.31,.45,.49,.67,.33,.42,.51,.93,.82,1.36,.2,.28,.43,.56,.62,.84,.09,.13,.21,.25,.41,.41Z"/><path class="f" d="M52.96,69.63c-.59,.12-1.4,.21-1.92,.58-.07,.05-.12,.12-.2,.15,.09-.2,.17-.4,.25-.59,.17-.4,.24-.82,.34-1.24,.08-.3,.16-.6,.24-.9,.04-.16,.02-.42,.11-.56,.22,.34,.34,.76,.52,1.11,.09,.17,.17,.36,.28,.52,.08,.11,.17,.2,.24,.32,.06,.11,.09,.22,.16,.33,.03,.04,.13,.14,.11,.2-.03,.1-.17,.08-.13,.08Z"/><path class="f" d="M88.35,92.47c-.34,.01-.73,0-1.07,.06-.14,.03-.28,.05-.41,.08-.2,.05-.41,.06-.61,.12s-.37,.13-.56,.19c-.12,.04-.24,.06-.36,.12-.14,.06-.27,.12-.4,.2-.05,.03-.19,.07-.21,.12-.02,.05,.03,.24,.08,.25s.15-.05,.19-.06c.14-.05,.28-.12,.42-.16,.21-.07,.41-.15,.62-.22,.23-.07,.47-.12,.69-.2,.39-.15,.8-.26,1.18-.41,.08-.03,.47-.19,.43-.1Z"/><path class="f" d="M88.35,95.83c.41-.17,.83-.36,1.28-.42,.3-.04,.59-.07,.89-.1s.56-.07,.86-.07c.09,0,.22-.03,.29,.01-.05,.03-.09,.03-.15,.04-.12,.03-.24,.09-.35,.13-.26,.1-.52,.19-.79,.25-.47,.1-.95,.16-1.42,.26-.28,.06-.56,.1-.85,.14-.24,.03-.5,.07,.24-.24Z"/><path class="f" d="M76.35,47.5c-.38-.63-.67-1.3-.99-1.95-.11-.22-.19-.44-.31-.66-.06-.12-.11-.25-.15-.38-.09-.27-.24-.51-.34-.78-.06-.15-.15-.29-.21-.44-.09-.19-.16-.39-.27-.58-.09-.14-.17-.28-.23-.43-.06-.14-.11-.29-.19-.41-.17-.27-.36-.53-.56-.78-.16-.21-.35-.42-.54-.61-.24-.23-.41-.51-.65-.75s-.45-.49-.71-.71c-.12-.1-.25-.21-.36-.32-.1-.1-.22-.16-.33-.24-.3-.24-.6-.48-.95-.66-.63-.33-1.32-.66-2.01-.86-.34-.1-.67-.21-1.02-.26-.38-.05-.76-.07-1.15-.09-.34-.02-.67-.08-1.02-.07-.38,.02-.76,.03-1.13,.09-.2,.03-.4,.05-.59,.09-.18,.03-.35,.09-.53,.13-.36,.07-.64,.23-.96,.38s-.65,.27-.96,.45c-.39,.23-.81,.39-1.18,.66-.55,.41-1.14,.77-1.66,1.22s-1,.99-1.45,1.53c-.47,.57-.98,1.11-1.34,1.75-.29,.52-.58,1.04-.83,1.57-.23,.49-.44,.99-.57,1.51-.1,.4-.2,.83-.24,1.24-.02,.17,0,.35-.03,.52-.02,.1-.03,.19-.02,.29s.03,.23,.15,.26c.06-.06,.09-.19,.13-.26,.05-.12,.09-.25,.12-.37,.08-.32,.13-.65,.24-.96,.27-.8,.68-1.56,1.11-2.28,.35-.59,.66-1.21,1.09-1.75,.23-.29,.47-.57,.72-.84,.29-.32,.58-.67,.92-.95,.37-.3,.76-.57,1.14-.85,.35-.25,.76-.42,1.13-.64,.43-.25,.93-.44,1.4-.62,.53-.2,1.08-.38,1.65-.47,.43-.08,.86-.09,1.29-.17,.4-.07,.85-.07,1.24-.03s.79,.02,1.18,.07c.41,.05,.82,.11,1.22,.21,.34,.08,.7,.18,1.03,.3,.29,.11,.56,.23,.84,.36,.22,.1,.44,.22,.65,.34,.2,.11,.36,.27,.54,.4,.15,.11,.3,.21,.43,.35,.19,.19,.34,.43,.55,.6,.1,.08,.16,.17,.24,.26,.07,.08,.16,.15,.24,.23,.2,.21,.37,.43,.56,.64,.15,.17,.3,.35,.45,.52,.16,.2,.28,.42,.42,.62,.19,.28,.39,.55,.56,.84,.16,.26,.35,.52,.49,.79s.27,.51,.42,.76c.16,.27,.3,.54,.42,.83,.09,.21,.22,.41,.32,.63,.07,.16,.13,.39,.26,.52,.05,.05,.15,.07,.21,.12,.05,.03,.09,.07,.13,.1,0,.01,0,.02,0,0Z"/><path class="f" d="M75.46,50.43c-.24,.15-.72,.36-.91,.62-.05,.07-.1,.13-.15,.19-.18,.19-.33,.33-.48,.55-.34,.5-.68,.99-.9,1.55-.2,.5-.48,.97-.79,1.42-.14,.2-.28,.39-.43,.58-.19,.22-.43,.41-.63,.63-.23,.24-.52,.48-.82,.65-.43,.25-.82,.51-1.29,.68-.19,.07-.39,.13-.59,.2-.16,.06-.3,.12-.47,.14-.12,.02-.23,.03-.34,.05-.29,.07-.55,.12-.85,.15s-.62,.08-.93,.11c-.71,.06-1.41,.1-2.13,.09-.64,0-1.3-.03-1.92-.18-.48-.11-.94-.28-1.36-.52-.36-.2-.71-.42-1.09-.59-.35-.16-.63-.34-.94-.56-.33-.24-.62-.51-.95-.74-.14-.1-.26-.21-.4-.31-.16-.12-.34-.23-.49-.36-.31-.26-.63-.49-.91-.77-.26-.26-.57-.47-.89-.66-.25-.15-.5-.33-.76-.46-.28-.14-.57-.24-.87-.33,.11,.03,.21,.1,.31,.16,.15,.09,.32,.15,.47,.25,.22,.15,.38,.36,.58,.52,.13,.11,.24,.23,.35,.35,.2,.22,.44,.4,.63,.62,.38,.41,.74,.85,1.15,1.23,.94,.88,2.11,1.51,3.29,2.08,.4,.2,.83,.36,1.25,.52,.12,.05,.24,.09,.37,.13,.15,.04,.3,.11,.44,.15,.1,.03,.2,.01,.3,.01,.09,0,.19,.04,.29,.05,.11,0,.22,0,.32,0,.22-.02,.42-.03,.65-.03,.13,0,.26,.02,.39,.02,.16,0,.33-.04,.49-.05s.3-.05,.45-.05c.12,0,.24,0,.36,0,.22-.01,.43-.05,.65-.06s.43-.04,.64-.08c.26-.05,.52-.07,.77-.14,.35-.1,.76-.12,1.08-.29,.2-.11,.41-.18,.62-.25,.27-.08,.51-.17,.77-.28,.08-.03,.15-.07,.22-.12,.12-.08,.26-.11,.37-.19,.09-.06,.15-.13,.25-.18,.11-.06,.21-.12,.3-.21,.16-.15,.34-.28,.52-.42,.22-.17,.4-.37,.6-.57,.21-.21,.33-.48,.52-.71,.14-.17,.28-.33,.38-.52,.09-.15,.13-.33,.2-.49,.12-.27,.25-.54,.38-.81,.14-.28,.26-.57,.41-.85,.12-.23,.25-.46,.39-.68s.29-.42,.47-.63c.13-.15,.28-.25,.43-.38,.08-.07,.17-.14,.26-.19,0,0-.02,0,0,0Z"/><path class="f" d="M72.88,55.89c-.21,.22-.44,.43-.61,.68-.1,.15-.21,.31-.31,.46-.14,.21-.35,.38-.52,.57-.22,.26-.47,.51-.74,.73-.29,.25-.55,.52-.82,.79-.22,.21-.5,.33-.76,.49-.14,.09-.27,.19-.41,.28-.32,.2-.7,.32-1.04,.48-.21,.09-.42,.2-.65,.27-.2,.06-.4,.13-.6,.19-.33,.12-.69,.21-1.04,.24-.88,.09-1.8-.05-2.65-.28-.4-.11-.75-.3-1.13-.46-.14-.06-.27-.12-.42-.17-.17-.07-.33-.16-.5-.23-.25-.1-.48-.13-.71-.28-.2-.13-.43-.22-.63-.35s-.43-.2-.65-.29c-.19-.08-.35-.16-.55-.22,.12,.06,.23,.14,.34,.21,.17,.13,.38,.23,.57,.34,.58,.32,1.13,.7,1.74,.95,.18,.07,.34,.18,.51,.25,.14,.06,.29,.09,.44,.14,.18,.07,.34,.16,.51,.24s.34,.12,.51,.17c.3,.09,.59,.19,.9,.24,.16,.03,.33,.02,.5,.04s.34,.03,.51,.01,.35-.02,.51-.07c.09-.03,.17-.07,.27-.09,.09-.01,.18,0,.26-.02,.16-.03,.31-.08,.46-.12,.17-.04,.33-.06,.5-.1,.72-.14,1.43-.41,2.09-.7,.63-.27,1.07-.77,1.53-1.23,.36-.37,.72-.72,1-1.14,.14-.21,.31-.41,.46-.61,.13-.19,.25-.38,.38-.56,.19-.28,.46-.49,.75-.85Z"/><path class="f" d="M74.39,47.84c-.04,.33-.06,.69-.16,1.02-.05,.17-.11,.33-.17,.5-.09,.29-.3,.54-.43,.81-.26,.54-.61,1.05-.95,1.55-.29,.43-.55,.88-.86,1.3s-.71,.75-1.13,1.06-.85,.58-1.3,.82c-.43,.23-.89,.39-1.34,.58s-.93,.29-1.4,.36c-.37,.05-.75,.06-1.13,.08-.42,.02-.84,.05-1.27,.05-.76-.02-1.52-.09-2.27-.19s-1.5-.22-2.24-.44c-.51-.15-1.01-.3-1.49-.53-.43-.2-.83-.42-1.24-.67-.16-.1-.32-.21-.47-.33-.18-.14-.4-.25-.56-.41-.21-.2-.41-.42-.64-.61-.13-.11-.25-.23-.39-.33-.19-.13-.38-.25-.57-.38-.13-.08-.26-.19-.4-.26-.12-.06-.26-.09-.38-.16-.38-.2-.79-.33-1.23-.26,.1-.08,.25-.13,.38-.13,.24-.01,.54-.01,.76,.07,.18,.06,.35,.15,.51,.24,.17,.1,.35,.16,.52,.28,.27,.19,.54,.37,.8,.58,.19,.15,.36,.29,.52,.46s.3,.31,.49,.43,.35,.27,.53,.41c.24,.18,.46,.35,.72,.51,.21,.13,.46,.22,.68,.34,.24,.13,.55,.2,.81,.28,.37,.11,.74,.21,1.13,.27,.68,.1,1.34,.25,2.03,.32,.23,.02,.47,.02,.71,.03,.31,.02,.62,.06,.93,.06,.33,0,.65,0,.98,.01,.3,0,.61-.05,.9-.08,.26-.03,.51-.13,.77-.18,.29-.05,.6-.07,.88-.16,.56-.18,1.14-.36,1.66-.63,.24-.12,.45-.29,.68-.42,.26-.15,.55-.29,.78-.48,.35-.31,.7-.64,1-.99s.59-.72,.83-1.13c.12-.2,.24-.41,.36-.62,.11-.19,.23-.37,.34-.56,.06-.11,.14-.2,.22-.3,.06-.07,.09-.15,.15-.22,.09-.11,.18-.21,.26-.33,.13-.18,.27-.37,.36-.57s.16-.39,.22-.59c.05-.14,.04-.27,.09-.49Z"/><path class="f" d="M75.44,48.68c-.18-.11-.37-.2-.51-.35-.04-.05-.08-.09-.12-.13-.1-.1-.17-.2-.24-.32-.18-.32-.37-.61-.53-.94-.09-.19-.19-.36-.31-.54-.13-.19-.26-.4-.42-.58-.4-.46-.94-.83-1.31-1.32-.24-.32-.51-.63-.78-.94-.34-.4-.73-.74-1.12-1.09-.49-.45-1.06-.91-1.65-1.24-.27-.15-.52-.34-.8-.46-.31-.13-.61-.27-.93-.37-.21-.06-.44-.12-.66-.17-.32-.07-.65-.17-.98-.18-.38-.02-.74-.07-1.12-.07-.34,0-.67,.06-1.01,.09s-.65,.12-.99,.17-.66,.14-.97,.27c-.29,.12-.57,.22-.84,.38-.24,.15-.47,.31-.7,.48s-.44,.31-.64,.49-.36,.36-.55,.53c-.4,.39-.77,.78-1.11,1.21-.12,.15-.25,.3-.37,.45-.17,.22-.39,.4-.54,.63-.25,.38-.52,.75-.75,1.15-.49,.86-.96,1.72-1.36,2.62-.11,.25-.26,.49-.36,.75s-.25,.51-.35,.78-.23,.53-.38,.78c-.1,.16-.2,.35-.32,.49,.02-.15,.13-.31,.19-.45,.11-.26,.19-.53,.3-.8,.3-.66,.46-1.36,.75-2.03,.13-.31,.25-.63,.4-.93,.18-.38,.33-.77,.53-1.14,.21-.39,.39-.79,.62-1.18,.27-.47,.59-.91,.92-1.34,.16-.22,.36-.4,.54-.61,.17-.19,.33-.39,.51-.57,.41-.4,.91-.71,1.36-1.06,.2-.16,.43-.28,.65-.42,.19-.12,.37-.27,.56-.39,.45-.28,.96-.49,1.46-.67,.22-.08,.45-.13,.68-.18,.2-.04,.38-.12,.58-.16,.53-.12,1.09-.09,1.63-.07,.47,.02,.96,.05,1.43,.13,.42,.07,.85,.23,1.26,.36,.32,.1,.59,.28,.87,.44,.3,.17,.61,.36,.89,.57,.25,.18,.51,.35,.75,.54s.46,.42,.7,.62c.26,.22,.53,.44,.77,.69,.17,.18,.31,.39,.48,.56,.14,.13,.26,.25,.38,.4,.18,.23,.37,.46,.52,.71,.17,.29,.36,.58,.56,.85,.14,.18,.31,.32,.47,.5,.12,.14,.23,.28,.35,.42,.16,.19,.31,.38,.4,.61,.11,.26,.31,.48,.42,.75,.1,.22,.11,.48,.26,.68,.11,.14,.25,.28,.39,.39,.05,.04,.1,.09,.16,.12,.06,.04,.13,.05,.19,.08-.04,.06-.11,.02-.17,.01-.06,0-.13,.03-.07,0Z"/><path class="f" d="M78.64,42.75c-.42,.11-.84,.23-1.26,.34-.2,.05-.38,.16-.57,.24-.22,.08-.39,.18-.58,.3-.14,.08-.25,.18-.41,.22s-.47,.06-.5-.13c-.04-.27,.29-.5,.51-.62,.36-.2,.75-.38,1.16-.45,.37-.06,.77-.17,1.14-.14,.17,.01,.62,.04,.51,.26Z"/><path class="f" d="M76.09,38.46c-.52,.35-1.07,.64-1.59,.99-.21,.13-.46,.28-.71,.31-.08,.01-.19,.06-.24,0-.05-.04-.05-.13-.04-.18,.04-.31,.4-.51,.65-.68,.51-.35,1.05-.77,1.72-.72,.23,.02,.18,.16,.21,.28Z"/><path class="f" d="M71.72,34.57c-.3,.42-.65,.8-.98,1.2-.2,.24-.36,.56-.62,.76-.08,.06-.35,.18-.41,.05-.03-.07,.04-.22,.07-.28,.06-.17,.19-.32,.29-.48,.16-.25,.36-.47,.57-.69,.19-.19,.38-.42,.61-.57,.11-.07,.23-.12,.36-.08s.11,.08,.11,.08Z"/><path class="f" d="M64.55,33.18c-.07,.41-.15,.82-.16,1.23,0,.26,0,.52-.02,.77,0,.11,.04,.4-.14,.41-.02,0-.18-.03-.2-.04-.1-.05-.07-.23-.08-.33-.02-.39,0-.77,.04-1.16,.03-.25,.03-.57,.18-.79,.04-.06,.19-.2,.3-.17,.05,.02,.14,.14,.07,.07Z"/><path class="f" d="M59.88,36.49c.08-.17,.13-.35,.14-.54l-.05-.03s-.05-.07-.07-.12c-.06-.13-.15-.24-.21-.37-.13-.24-.22-.5-.35-.74-.08-.15-.15-.3-.31-.37-.15-.07-.23,.09-.23,.23,0,.11,.06,.24,.09,.34,.04,.13,.08,.25,.13,.37s.08,.27,.16,.39c.06,.1,.15,.19,.21,.3s.32,.65,.51,.55Z"/><path class="f" d="M57,38.62c-.01-.2-.06-.4-.14-.58-.11,0-.18-.07-.25-.14-.1-.09-.21-.16-.3-.26-.19-.23-.38-.46-.61-.66-.07-.06-.23-.24-.34-.2-.06,.02-.09,.14-.1,.2-.02,.11,.02,.23,.08,.33,.13,.25,.37,.44,.56,.65,.1,.11,.18,.21,.29,.31s.23,.15,.34,.24c.08,.06,.22,.18,.34,.18,.17,0,.17-.21,.13-.05Z"/><path class="f" d="M54.68,40.93c.09-.2,.23-.37,.04-.53-.08-.07-.19-.11-.28-.17-.22-.14-.39-.33-.57-.5-.11-.1-.62-.52-.68-.14-.04,.27,.19,.49,.37,.67,.19,.2,.38,.4,.66,.49,.22,.07,.5,.05,.46,.18Z"/><path class="f" d="M73.21,47.26c-.19-.25-.42-.51-.55-.79-.05-.1-.08-.18-.15-.27-.12-.16-.27-.29-.41-.43-.29-.3-.54-.62-.8-.93-.19-.23-.44-.42-.64-.65-.22-.25-.43-.51-.65-.76-.31-.34-.63-.67-.96-.98-.43-.4-.95-.7-1.47-.99-.5-.27-.93-.55-1.48-.71-.32-.09-.63-.18-.96-.2-.22-.01-.44-.05-.66-.04-.2,.01-.38-.03-.58-.02-.82,.05-1.58,.19-2.35,.47-.89,.32-1.66,.87-2.4,1.42-1.42,1.05-2.46,2.47-3.33,3.94-.39,.66-.68,1.37-1.02,2.05-.22,.45-.52,.91-.53,1.42-.01,.47,.39,1.06,.74,1.38,.14,.13,.26,.29,.41,.4,.15,.11,.31,.2,.45,.31,.35,.28,.64,.62,1,.88,.15,.11,.27,.22,.43,.32,.2,.12,.32,.31,.51,.44s.37,.26,.56,.37c.17,.09,.36,.13,.52,.22,.06,.03,.08,.08,.16,.11s.13,.04,.21,.07c.14,.07,.26,.08,.41,.12,.57,.13,1.06,.41,1.61,.57,.96,.28,2,.33,3,.3,.43-.01,.84-.09,1.26-.14,.33-.04,.65-.05,.97-.14,.86-.22,1.76-.49,2.48-.99,.25-.17,.54-.38,.73-.61s.42-.44,.62-.67c.45-.51,.95-1.01,1.31-1.58,.29-.46,.69-.89,.89-1.38,.14-.33,.38-.61,.54-.93,.1-.2,.15-.45,.15-.66,0-.21,.07-.41,.06-.61-.01-.16-.03-.28-.07-.32Z"/><path class="h" d="M63.48,41.15c-.54-.02-1.08-.08-1.6,.07-.29,.08-.53,.22-.78,.37-.53,.32-1.09,.59-1.48,1.07s-.84,.93-1.1,1.49c-.23,.48-.41,.98-.54,1.5-.12,.48-.15,.99-.2,1.47-.04,.45-.05,.98,.04,1.43,.1,.51,.27,1.01,.42,1.51,.07,.22,.16,.44,.27,.65,.13,.24,.2,.5,.36,.72,.32,.47,.76,.79,1.19,1.16,.39,.33,.88,.48,1.38,.61,1.05,.29,2.22,.15,3.19-.32,.62-.3,1.32-.62,1.78-1.11,.24-.25,.5-.49,.66-.8,.19-.39,.32-.76,.4-1.18,.17-.85,.14-1.72,.11-2.58-.02-.75-.03-1.6-.32-2.31s-.52-1.46-.98-2.07c-.35-.46-.73-.85-1.23-1.17-.31-.2-.63-.44-1.02-.47-.13-.01-.58,.09-.56-.04Z"/><path class="f" d="M62.66,41.55c-.65,.18-1.26,.3-1.79,.68-.19,.13-.4,.24-.58,.38-.43,.35-.76,.75-1.07,1.2s-.59,.9-.69,1.41c-.08,.39-.16,.78-.21,1.17-.12,.8,.03,1.66,.18,2.44,.13,.66,.27,1.32,.62,1.92,.2,.34,.48,.66,.8,.91s.65,.55,1.02,.74,.8,.35,1.23,.36c.26,0,.49,.05,.75,.03s.53-.04,.79-.14c.56-.21,1.07-.42,1.54-.79,.27-.21,.54-.39,.74-.66,.21-.3,.37-.59,.53-.91,.18-.35,.27-.73,.33-1.11,.07-.43,.15-.82,.13-1.25-.04-.83,.04-1.69-.13-2.51-.07-.34-.17-.69-.29-1.02-.13-.37-.39-.64-.61-.96-.31-.47-.57-.93-1.04-1.29-.32-.24-.66-.44-1.05-.54-.27-.07-.57-.06-.84-.08-.16,0-.34,0-.36,0Z"/><path class="h" d="M63.09,42.39c-.41,.08-.87,.09-1.18,.36-.07,.06-.16,.14-.23,.21-.13,.13-.23,.3-.33,.45-.11,.16-.22,.33-.3,.5-.11,.24-.17,.5-.29,.74-.1,.21-.15,.41-.2,.63-.04,.18-.12,.34-.16,.51-.07,.34-.13,.68-.18,1.03-.09,.58-.02,1.31,.12,1.89,.15,.64,.39,1.19,.76,1.74s1,.92,1.68,.65c.41-.16,.74-.47,.98-.81,.32-.47,.6-.98,.75-1.52s.33-1.1,.27-1.69-.03-1.22-.1-1.83c-.05-.48-.2-.98-.38-1.43-.14-.35-.31-.67-.57-.95-.24-.26-.41-.47-.63-.48Z"/><path d="M64.27,42.69c.21,.25,.62,.63,.76,.98,.05,.11,.08,.23,.13,.34,.12,.26,.24,.52,.34,.79,.18,.47,.31,.98,.39,1.48,.19,1.22,.02,2.49-.38,3.66-.18,.53-.37,1.15-.87,1.49-.24,.17-.52,.21-.78,.34-.24,.12-.43,.25-.7,.3-1.06,.19-2.14-.3-2.87-.99,.11,.41,.64,.67,1,.83,.43,.19,.86,.34,1.35,.38,.25,.02,.49,.02,.74,0,.31-.02,.56-.17,.82-.31,.54-.28,.83-.69,1.21-1.13,.62-.71,.95-1.58,1.02-2.5s.03-1.89-.21-2.8c-.17-.66-.4-1.37-.86-1.9-.15-.18-.34-.34-.51-.5-.08-.08-.19-.13-.27-.2-.06-.05-.12-.13-.31-.25Z"/><path class="e" d="M63.05,43.13c-.26,.02-.49,.11-.67,.28,.05,.16-.04,.25,.09,.39,.06,.07,.14,.14,.23,.17,.16,.04,.37-.03,.45-.16,.09-.15,.09-.58-.1-.68Z"/><path class="e" d="M62.34,44.73c-.1-.22-.23-.43-.4-.61-.04,.1-.17,.18-.23,.28-.07,.11-.1,.22-.14,.35-.08,.24-.09,.49-.07,.75,.02,.2,.04,.55,.27,.65s.48-.03,.59-.22c.07-.13,.09-.32,.13-.46,.05-.16,.04-.29,.03-.45-.02-.21,0-.44-.1-.64-.07-.13-.12-.26-.29-.3-.16-.03-.33,.04,.19,.65Z"/><path d="M116.82,123.47c.48-1.61,.9-3.21,.93-4.9,.03-1.38,.16-2.75,.04-4.13-.15-1.78-.44-3.54-.7-5.3-.25-1.72-.6-3.41-1.05-5.09-.11-.42-.32-.82-.43-1.24-.09-.35-.11-.71-.16-1.06-.14-1.01-.33-1.97-.61-2.96-.26-.92-.43-1.87-.7-2.79s-.6-1.95-.82-2.92c-.46-2.03-.93-4.05-1.33-6.09-.42-2.09-.87-4.17-1.42-6.23-.22-.82-.41-1.66-.64-2.48-.22-.77-.37-1.53-.57-2.31-.14-.58-.37-1.1-.57-1.66s-.33-1.05-.71-1.52c-.63-.79-2.09-.9-2.72-.06-.57,.76-.93,1.8-1.27,2.67-.51,1.3-.5,2.7-.38,4.07,.1,1.15,.29,2.33,.51,3.46,.11,.55,.26,1.05,.39,1.58s.17,1.07,.3,1.6c.24,1.01,.32,2.06,.34,3.1,.03,1.64,.02,3.3-.07,4.94-.07,1.43-.24,2.92-.68,4.29-.56,1.75-.96,3.51-1.18,5.33-.37,3-.78,5.99-.91,9.01-.04,.96,.01,1.92,.06,2.87,.04,.87-.01,1.75,.05,2.62,.09,1.37,.32,2.85,.85,4.14,.26,.63,.58,1.23,.89,1.84,.17,.34,.31,.69,.48,1.02,.2,.4,.48,.71,.73,1.07,.42,.61,1.13,.89,1.8,1.21,.79,.37,1.65,.54,2.51,.68,1.29,.22,2.97,.13,4.09-.63,.66-.45,1.2-1.04,1.76-1.6,.47-.46,.9-1.17,.97-1.82,.02-.19,0-.76,.22-.72Z"/><path class="e" d="M103.91,81.1c.15,1.42,.2,3.46,.61,4.84,.29,.98,.08,2.04,.15,3.06,.04,.57,.17,1.15,.18,1.72,.02,.77-.01,1.54-.06,2.32-.04,.59-.16,1.19-.31,1.76-.14,.55-.16,1.09-.24,1.64-.15,1.04-.29,2.16-.65,3.15-.34,.93-.4,1.91-.64,2.86-.21,.85-.47,1.73-.57,2.6-.13,1.13-.31,2.25-.33,3.38-.02,1.22-.2,2.43-.22,3.65-.01,.56,0,1.1,.03,1.66,.02,.32-.01,.62,.03,.94s.11,.64,.14,.96c.08,.87,.06,1.77,.22,2.62,.2,1.06,.23,2.13,.39,3.19,.06,.41,.21,.8,.31,1.19,.15,.6,.27,1.2,.46,1.78,.31,.93,.82,1.88,1.45,2.64,.36,.44,.7,.78,1.2,1.08,.46,.27,.93,.44,1.42,.63,1.05,.39,2.16,.52,3.28,.55,.91,.02,1.78-.28,2.52-.78,.37-.26,.75-.47,1.11-.75,.38-.3,.76-.6,1.14-.9,.34-.27,.59-.45,.78-.82,.08-.16,.22-.28,.31-.44,.12-.22,.25-.43,.38-.65,.1-.17,.16-.37,.26-.54s.23-.32,.32-.49,.12-.36,.19-.54c.11-.28,.24-.51,.31-.8,.14-.57,.21-1.16,.22-1.75,0-.3-.03-.59,.02-.89,.05-.36,.12-.68,.12-1.05s-.04-.73,0-1.09,.16-.65,.16-.99c0-.76-.23-1.51-.27-2.27-.03-.58-.14-1.13-.17-1.71-.01-.24-.08-.46-.11-.69-.04-.31-.01-.62-.05-.93-.06-.56-.08-1.14-.24-1.68-.08-.25-.1-.48-.14-.73-.06-.35-.19-.68-.28-1.02-.31-1.13-.35-2.29-.64-3.42-.15-.56-.34-1.12-.4-1.69s-.22-1.22-.36-1.79c-.14-.54-.4-1.04-.57-1.58-.18-.59-.28-1.2-.45-1.79-.15-.53-.24-1.08-.42-1.61-.1-.29-.21-.56-.29-.87-.07-.28-.12-.57-.21-.84-.18-.51-.34-.97-.44-1.51-.09-.49-.19-.97-.28-1.46-.11-.58-.26-1.16-.38-1.74-.13-.65-.17-1.31-.32-1.96-.11-.46-.31-.95-.48-1.4-.2-.53-.39-1.07-.51-1.62-.18-.86-.38-1.71-.64-2.54s-.52-1.68-.67-2.56c-.2-1.2-.37-2.4-.67-3.57-.11-.43-.18-.82-.37-1.21-.13-.26-.25-.54-.4-.78-.13-.2-.31-.58-.51-.71,.11,.15,.15,.55,.22,.72,.13,.3,.26,.62,.34,.93,.15,.6,.29,1.19,.46,1.78,.21,.73,.11,1.49,.19,2.23s.16,1.51,.34,2.23c.2,.77,.27,1.55,.44,2.33,.21,.95,.55,1.86,.78,2.8,.25,.99,.51,1.98,.71,2.99,.09,.46,.25,.88,.36,1.33,.11,.48,.16,.98,.26,1.46,.42,1.95,1.09,3.84,1.44,5.8,.09,.51,.23,1.01,.35,1.52,.14,.59,.19,1.17,.43,1.73,.16,.37,.27,.75,.41,1.12,.18,.47,.43,.96,.55,1.45,.59,2.5,.96,5.05,1.44,7.58,.11,.57,.18,1.15,.21,1.73,.04,.73,.18,1.45,.27,2.17,.07,.64,.06,1.31,.08,1.95,.02,.59,.01,1.2-.04,1.79-.05,.5-.14,.96-.28,1.44s-.17,.98-.25,1.49c-.06,.41-.21,.84-.35,1.22s-.27,.77-.44,1.14c-.31,.7-.76,1.31-1.29,1.86-.29,.3-.65,.53-.97,.8-.39,.33-.74,.61-1.22,.83-.74,.34-1.6,.6-2.42,.58-.75-.02-1.45-.11-2.18-.26-.82-.17-1.53-.73-2.18-1.21-.31-.23-.64-.5-.89-.78-.32-.35-.48-.74-.66-1.17-.2-.46-.36-.97-.52-1.45s-.23-.95-.31-1.45c-.15-.9-.19-1.82-.3-2.73-.05-.39-.03-.77-.05-1.16-.04-.5-.11-.97-.17-1.46-.13-.94-.22-1.87-.2-2.82,.01-.45-.06-.9-.02-1.35,.05-.54,.16-1.08,.2-1.62,.09-1.27,.27-2.51,.49-3.77,.19-1.09,.4-2.16,.51-3.27,.1-1.06,.4-2.08,.58-3.13,.08-.46,.07-.93,.17-1.39,.11-.48,.29-.95,.39-1.44,.18-.85,.32-1.7,.45-2.56,.25-1.61,.18-3.22,.26-4.85,.04-.74-.11-1.43-.21-2.15-.04-.3-.11-.58-.18-.87-.1-.42-.14-.84-.25-1.26-.17-.62-.21-1.19-.44-1.8-.18-.48-.24-1.07-.46-1.52-.09-.19-.41-1.32-.48-1.58Z"/><path class="j" d="M92.48,119.73c-.13,.16-1.13,1.21-1.17,1.66,0,.04,.02,.14,.03,.19,.02,.29-.05,.61-.13,.88-.12,.38-.5,.71-.84,.93-.59,.39-1.18,.76-1.67,1.27-.64,.66-1.22,1.38-1.85,2.06-.57,.61-1.02,1.23-1.45,1.95-.24,.4-.44,.81-.68,1.2-.21,.34-.51,.64-.75,.97-.38,.52-.77,1.33-1.54,1.32-.92-.02-1.04-1.13-1.04-1.81,0-.94,.34-2.02,.82-2.83,.41-.68,1.16-1.36,1.21-2.18,.03-.51-.21-.88-.72-.97-.3-.05-.61-.13-.9-.03-.43,.14-.92,.47-1.25,.76-.49,.42-.97,.82-1.4,1.3-.39,.44-.85,.93-1.32,1.29-.44,.34-.89,.71-1.38,.97-.46,.25-1.04,.32-1.54,.47-.29,.09-.72,.29-1.03,.18-.24-.09-.47-.43-.55-.64-.15-.41-.01-.79,.15-1.17,.27-.67,.72-1.34,1.21-1.87,.74-.8,1.59-1.63,2.63-2.03,.85-.33,1.74-.5,2.57-.9,.46-.22,1.26-.66,1.09-1.29-.1-.36-.48-.56-.83-.58-.78-.05-1.43,.55-2.09,.86-1.12,.51-2.28,.54-3.46,.82-.48,.11-1,.28-1.5,.3-.53,.02-.69-.21-.74-.7-.11-1.12,.63-2.12,1.57-2.72,1.11-.69,2.39-.73,3.65-.86,1.05-.1,2.15-.18,3.21-.15s2.12,.14,3.18,.2,2.24,.08,3.31-.09c.55-.09,1.5-.43,1.7-.98,.08-.23,.13-.37,.08-.59-.07-.33-.01-.54,.14-.88,.26-.57,.39-1.3,.8-1.79,.16-.19,.38-.17,.53-.38,.23-.33,.4-.79,.47-1.18,.13-.64,.51-1.2,.68-1.83,.12-.45,.39-.84,.53-1.28,.17-.52,.25-1.06,.44-1.58,.36-.98,.68-1.97,1.04-2.94,.14-.37,.2-.76,.33-1.14,.24-.68,.51-1.36,.71-2.05,.14-.5,.17-1.01,.27-1.51,.14-.69,.29-1.38,.44-2.07s.44-1.34,.71-2.01c.29-.72,.55-1.46,.78-2.21,.32-1.03,.52-2.11,.89-3.12,.53-1.43,1.1-2.82,1.49-4.29,.14-.52,.26-1.06,.33-1.59,.11-.71,.28-1.41,.38-2.13,.08-.61,.11-1.2,.27-1.81,.18-.72,.36-1.44,.5-2.17,.33-1.75,.35-3.6,1-5.28,.33-.85,.94-1.49,1.65-2.05s1.15-.81,2.12-.91c.74-.08,1.34,.09,1.78,.73,.64,.94,.83,1.58,1.04,2.68,.38,1.98,0,3.73-.05,5.69-.03,1.29-.09,2.58,0,3.88,.08,1.08,.08,2.17-.11,3.24-.1,.59-.25,1.17-.38,1.75-.17,.78-.43,1.57-.55,2.36-.11,.72-.3,1.38-.48,2.08s-.36,1.4-.63,2.1c-.45,1.19-.9,2.39-1.41,3.56-.16,.36-.38,.71-.56,1.06-.27,.52-.55,1.04-.9,1.51-.39,.52-.71,1.09-1.05,1.64-.41,.66-.85,1.29-1.32,1.91-.43,.57-.94,1.12-1.31,1.74-.34,.57-.71,1.11-1.1,1.66s-.69,1.13-1.04,1.7c-.24,.39-.5,.78-.75,1.17-.26,.41-.46,.84-.71,1.25-.29,.48-.6,.93-.82,1.44-.24,.55-.49,1.1-.77,1.64-.1,.2-.26,.37-.17,.59,.04,.09,.14,.14,.17,.25,.05,.16-.02,.39-.06,.55-.18,.8-.74,1.57-1.21,2.23-.15,.22-.44,.54-.71,.62-.34,.11-.57-.1-.83,.16s-.3,.57-.36,.9c-.04,.2-.17,.61,1.2-1.11Z"/><path class="e" d="M106.65,70.55c-.37-.12-.84-.23-1.3-.16-.07,0-.53,.11-.58,.14-.18,.12-.39,.26-.58,.4-.31,.24-.6,.48-.9,.73-.56,.46-.94,.9-1.29,1.52-.27,.47-.36,.96-.56,1.46-.29,.75-.28,1.52-.47,2.3-.4,1.67-.68,3.38-1.01,5.07-.35,1.78-.7,3.54-1.17,5.29-.28,1.06-.59,2.12-.88,3.18s-.55,2.04-.9,3.03c-.42,1.16-.83,2.33-1.23,3.5-.35,1.02-.62,2.08-.99,3.09-.47,1.26-.83,2.57-1.28,3.83-.08,.23-.22,.44-.28,.68-.05,.21-.08,.42-.15,.63-.16,.54-.32,1.07-.48,1.61-.49,1.66-1.02,3.31-1.56,4.95-.11,.34-.19,.69-.31,1.02-.12,.29-.29,.58-.38,.88v.11c-.06,0-.07,.05-.05,.11-.26-.06-.67,.39-.81,.58-.2,.29-.12,.67-.24,.98-.1,.26-.12,.55-.27,.8-.18,.3-.25,.55-.28,.9-.06,.6-.18,1.17,.38,1.58,.27,.19,.61,.33,.89,.5s.65,.34,.97,.44c.29,.08,.54,.13,.82,.25,.32,.14,.5,.21,.78-.04,.17-.16,.32-.39,.49-.57,.18-.19,.27-.35,.4-.55,.28-.42,.67-.77,.81-1.25,.1-.35,.32-.74,.27-1.12-.04-.31-.23-.46-.07-.75,.13-.24,.22-.51,.36-.75,.22-.39,.42-.77,.62-1.17,.25-.5,.57-.93,.88-1.38,.63-.93,1.19-1.91,1.68-2.91,.25-.51,.62-.95,.88-1.44,.28-.54,.54-1.13,.91-1.63,.58-.78,1.22-1.53,1.76-2.33s1.02-1.62,1.64-2.35c.37-.44,.59-.9,.87-1.38,.6-1.01,.97-2.13,1.47-3.2,.26-.57,.52-1.14,.77-1.71,.28-.62,.42-1.3,.67-1.93,.28-.7,.48-1.4,.64-2.14,.14-.64,.41-1.3,.48-1.95,.07-.58,.33-1.13,.34-1.71,0-.47,.02-.95,.09-1.41,.11-.8,.12-1.52,.07-2.33s-.11-1.55-.11-2.34c0-.64-.05-1.29-.05-1.94,0-.36-.02-.7,.07-1.05,.07-.29,.29-.72,.21-1.02-.04-.15-.17-.27-.36-.21-.16,.05-.21,.26-.27,.41-.15,.39-.17,.74-.22,1.14-.28,2.13-.03,4.28-.03,6.42,0,1.17-.29,2.37-.49,3.52-.09,.49-.2,.99-.31,1.48-.16,.69-.3,1.39-.51,2.07-.34,1.12-.66,2.18-1.2,3.22-.3,.57-.57,1.14-.84,1.73-.29,.62-.51,1.29-.85,1.88-.61,1.07-1.14,2.17-1.8,3.21-.35,.56-.85,.99-1.26,1.5-.46,.57-.87,1.18-1.32,1.75-1.08,1.34-1.7,3-2.55,4.49-.39,.69-.74,1.42-1.17,2.07-.35,.53-.55,1.1-.83,1.66s-.72,1.14-1.39,1.23-1.43-.25-1.96-.6c-.64-.42-.25-1.34,.01-1.9,.58-1.23,1.2-2.52,1.53-3.86,.36-1.47,.76-2.94,1.28-4.37,.34-.95,.66-1.92,1.02-2.87,.17-.45,.27-.91,.41-1.37,.17-.57,.48-1.1,.64-1.66s.38-1.15,.57-1.71,.4-1.16,.62-1.73c.18-.46,.32-.94,.49-1.4,.1-.29,.13-.6,.26-.87,.11-.24,.21-.46,.29-.72,.34-1.14,.81-2.21,1.04-3.38,.18-.89,.32-1.77,.58-2.64,.13-.45,.25-.9,.36-1.35,.06-.24,.1-.5,.17-.74,.09-.29,.21-.49,.24-.79,.03-.43,.2-.86,.25-1.29,.06-.45,.13-.88,.21-1.33,.14-.73,.22-1.47,.36-2.2,.1-.5,.11-.99,.17-1.49,.19-1.59,.52-3.26,1.87-4.34,.62-.49,1.12-1.15,1.9-1.37,.68-.19,1.25,.12,1.75,.64,.35,.37,.67,1.04,.78,1.69,.02-.47-.12-1.33-.28-1.73-.11-.27-.34-.54-.55-.72-.15-.13-.35-.26-.62-.44Z"/><path class="e" d="M88.09,118.95c-.42,.23-.58,.25-1.05,.38-.18,.02-.65,.13-.86,.13-.33,0-.64,0-.97-.05-.42-.06-.86-.17-1.26-.3s-.76-.21-1.18-.29c-.97-.19-1.99-.11-2.97-.11s-2.08-.05-3.02,.11c-1.09,.19-2.15,.58-3,1.27-.51,.42-1.45,1.35-.85,2.14,.34,.45,1.52,.05,2.02-.17,.68-.29,1.16-.27,1.88-.4,.64-.11,1.39-.57,1.93-.93,.43-.28,.79-.38,1.3-.37,.74,.01,1.58,.4,1.54,1.22-.03,.54-.6,.91-.97,1.24-.45,.4-1.24,.63-1.82,.81s-1.14,.36-1.71,.55c-.49,.16-.82,.4-1.18,.74-.6,.56-1.36,1.06-1.73,1.81-.17,.35-.33,.68-.41,1.06s-.26,.78,.18,.91c.87,.25,1.98-.1,2.67-.64,.32-.25,.66-.45,.93-.74,.16-.17,.38-.24,.55-.38,.21-.18,.4-.43,.59-.62,.28-.28,.57-.54,.83-.81,.32-.33,.65-.51,1.01-.78,.19-.14,.32-.31,.54-.44,.24-.14,.53-.28,.79-.36,.38-.12,1.06-.23,1.47-.12,.27,.07,.54,.42,.63,.66,.17,.44,.05,.82-.12,1.24-.21,.51-.43,.86-.78,1.29-.32,.4-.6,.81-.78,1.27-.14,.39-.35,.75-.44,1.16-.1,.44-.09,.93-.09,1.38s.16,.69,.63,.7c.2,0,.41,.03,.58-.05,.36-.16,.65-.67,.78-.99,.16-.38,.51-.87,.77-1.21,.31-.41,.27-.74,.58-1.14,.52-.68,.92-1.27,1.47-1.93,.28-.34,.52-.57,.81-.9s.49-.5,.81-.76c.2-.17,.39-.38,.61-.53,.28-.19,.59-.42,.9-.58,.54-.28,.84-.61,1.06-1.15,.16-.38,.23-1.1,.38-1.48,.18-.45,.35-.61,.52-.89,.26-.41,.47-.29,.43,.15-.03,.33-.57,.64-.66,.97s.03,.86-.08,1.17c-.14,.41-.43,.67-.73,1-.38,.41-.85,.74-1.31,1.06s-.87,.61-1.22,1.06c-.41,.51-.89,.97-1.32,1.45-.78,.87-1.75,2.53-1.84,2.72-.13,.26-.71,1.2-.85,1.44-.24,.39-.5,.74-.9,1.01-.5,.33-1.1,.38-1.59,.03-.27-.19-.34-.68-.38-1-.04-.37-.05-.74-.05-1.12,0-.89,.44-1.71,.94-2.44,.27-.39,.57-.72,.78-1.16,.17-.35,.45-.76,.36-1.14-.16-.72-.23-.81-.95-.77-.86,.06-1.35,.77-1.93,1.27-.33,.29-.69,.54-1.02,.83-.39,.33-.88,.72-1.2,1.11-.49,.59-1.29,1.13-2.01,1.45-.63,.28-1.48,.43-2.18,.3-.79-.15-.73-1.32-.6-1.89,.09-.38,.32-.8,.58-1.1,.43-.48,.81-.94,1.3-1.36,.32-.27,.64-.54,1-.78,.33-.22,.68-.49,1.06-.62s.81-.22,1.21-.36c.5-.17,.95-.44,1.42-.65,.57-.25,1.01-.61,.79-1.3-.12-.38-.52-.42-.85-.38-.45,.06-.94,.39-1.34,.58-.87,.41-1.76,.8-2.75,.91-.3,.03-.54,.1-.83,.21-.45,.17-.78,.26-1.25,.26-.32,0-.82,.12-1.07-.07-.23-.17-.31-.58-.35-.85-.04-.31-.02-.62,.16-.88,.27-.4,.54-.85,.9-1.17,.85-.74,1.62-.93,2.7-1.21,1.9-.49,4.28-.55,6.23-.37,1.03,.1,2.07,.31,3.11,.36,.3,.01,.58,.02,.87,0,.34-.02,.68-.06,1.01-.11,.28-.04,.29-.11,.64-.28,.23-.11,.46-.51,.76-.57,.39-.08,.25,.48,.15,.67-.09,.17-.19,.27-.32,.41-.02,.02-.26,.17-.4,.22Z"/><path class="e" d="M75.83,126.79c-.47,.04-.93,.12-1.39,.25-.03,.25-.17,.48-.06,.74,.08,.19,.39,.36,.57,.4,.26,.06,.6-.07,.81-.21,.29-.21,.28-.4,.29-.72,0-.52-.33-.73-.86-.72-.22,0-.45,.1-.6,.27-.09,.11-.25,.55,1.24,0Z"/><path class="e" d="M74.53,120.5c-.12-.03-.36-.14-.48-.08-.06,.03-.12,.09-.18,.12-.1,.07-.23,.12-.31,.21-.16,.2-.22,.47-.22,.71,0,.14,.06,.22,.15,.33s.18,.17,.32,.21c.12,.03,.23,.06,.35,.03,.14-.04,.28-.11,.39-.21,.09-.08,.19-.16,.25-.26,.06-.09,.07-.19,.08-.29,.02-.16,.07-.32-.04-.46-.06-.08-.15-.14-.21-.22-.03-.04-.04-.04-.08-.06-.02-.01-.04-.04-.02-.02Z"/><path class="e" d="M83.12,129.53c-.2-.06-.39-.07-.59-.04-.04,.04-.07,.08-.1,.12-.04,.06-.08,.12-.11,.18-.1,.19-.13,.38-.12,.59,0,.15,.11,.3,.26,.36,.21,.08,.42-.01,.59-.11,.26-.15,.44-.57,.29-.83-.06-.11-.24-.34-.21-.26Z"/><path class="k" d="M103.49,56.7c-.95-.21-2.46-.76-3.47-.2-.62,.35-1.02,1.12-1.46,1.64-.98,1.17-1.12,2.79-1.1,4.24,0,.64-.09,1.28-.13,1.92-.04,.72-.06,1.43-.06,2.15,0,.99,0,1.99-.16,2.97-.15,.99-.17,1.92-.56,2.87-.13,.33-.29,.55-.52,.83-.11,.14-.24,.26-.36,.39-.18,.2-.25,.41-.37,.64-.19,.37-.36,.67-.45,1.07-.11,.48-.09,.97-.03,1.46,.13,.95,.63,1.76,1.27,2.48,.98,1.1,2.47,1.63,3.87,.87,.76-.41,1.22-1.25,1.66-1.94,.56-.88,.77-1.98,1.01-2.96s.51-2.12,.94-3.08c.25-.56,.46-1.14,.7-1.7,.23-.53,.47-1.13,.61-1.69,.29-1.18,.77-2.28,1.16-3.42,.26-.79,.52-1.58,.79-2.36,.31-.89,.47-1.73,.29-2.67-.07-.35-.25-.74-.42-1.06-.2-.38-.45-.84-.72-1.19-.39-.52-.95-.9-1.57-1.11-.23-.08-.43-.15-.67-.19-.16-.03-.46-.09-.29,.02Z"/><path class="e" d="M106.88,59.57c.12,.19,.31,.39,.33,.61,0,.08,.02,.14,.04,.22,.03,.14,.06,.29,.08,.43,.04,.23,.03,.45,.03,.68,0,.28-.07,.56-.14,.84-.05,.2-.09,.4-.14,.6-.05,.19-.05,.38-.11,.56-.07,.23-.15,.46-.23,.69-.09,.26-.23,.51-.31,.78-.15,.48-.34,.95-.54,1.42-.11,.25-.19,.52-.29,.78-.12,.31-.25,.62-.38,.93-.11,.28-.16,.58-.24,.87-.07,.23-.15,.46-.23,.68-.16,.44-.29,.89-.43,1.33-.11,.36-.32,.68-.43,1.04-.06,.19-.15,.36-.21,.55-.05,.16-.13,.32-.2,.47-.06,.14-.14,.27-.18,.42-.05,.2-.09,.41-.13,.62-.17,.94-.43,1.86-.79,2.75-.15,.37-.33,.72-.44,1.1-.03,.11-.09,.24-.15,.35-.07,.14-.15,.27-.21,.41s-.16,.26-.21,.39c-.1,.26-.23,.52-.44,.73-.2,.2-.46,.34-.71,.45-.1,.05-.21,.07-.31,.11-.11,.04-.21,.11-.32,.15-.22,.1-.5,.17-.74,.23-.18,.04-.38,.05-.57,.03-.22-.02-.41-.1-.62-.14-.35-.06-.69-.21-1.01-.35-.19-.08-.35-.17-.51-.3-.14-.12-.22-.25-.33-.39-.12-.16-.23-.33-.36-.48-.05-.07-.12-.13-.16-.2-.18-.32-.28-.67-.44-1-.21-.43-.3-.88-.33-1.34-.03-.59,.01-1.22,.17-1.8,.13-.47,.41-.9,.67-1.32,.14-.23,.31-.43,.42-.67,.13-.27,.26-.55,.38-.82,.1-.24,.2-.48,.29-.73,.11-.35,.1-.69,.16-1.05,.06-.32,.1-.65,.16-.97,.07-.34,.05-.71,.04-1.06s.04-.68,.05-1.02c.01-.41,0-.82-.04-1.24-.02-.29-.12-.55-.17-.83-.07-.39-.01-.79-.04-1.18-.02-.28,.01-.57,.03-.85,.02-.34,.07-.68,.15-1.01,.07-.28,.15-.55,.2-.83,.04-.23,.06-.47,.11-.71s.1-.51,.19-.74c.1-.25,.24-.49,.35-.73,.16-.37,.34-.74,.6-1.06,.18-.21,.38-.38,.62-.54,.14-.09,.34-.21,.5-.22,.03,.07-.02,.14-.05,.2-.07,.14-.17,.26-.25,.4-.19,.33-.45,.61-.64,.94-.16,.28-.31,.54-.43,.84-.14,.33-.27,.67-.36,1.02-.05,.18-.1,.37-.14,.55s-.1,.34-.12,.52c-.04,.37-.09,.74-.12,1.11-.02,.29-.03,.58-.05,.88s-.04,.63,0,.93c.04,.32,.06,.64,.11,.96s.09,.63,.1,.94c.02,.36,.08,.71,.1,1.06,.02,.39,.05,.77,.02,1.16-.04,.53-.14,1.06-.24,1.57-.05,.26-.13,.52-.2,.78-.04,.14-.07,.28-.11,.41s-.1,.25-.13,.39c-.06,.28-.17,.54-.26,.81-.08,.24-.22,.44-.33,.67-.11,.22-.22,.42-.35,.62-.1,.17-.25,.33-.31,.51-.11,.32-.24,.63-.35,.96-.13,.4-.16,.84-.11,1.26,.05,.5,.06,1.04,.31,1.5,.21,.38,.43,.84,.77,1.13,.17,.15,.38,.27,.58,.37,.16,.08,.28,.19,.46,.23,.21,.05,.42,.08,.64,.07s.45,0,.67,0c.65-.03,1.26-.46,1.7-.88,.11-.11,.24-.2,.34-.32,.13-.15,.22-.33,.33-.5,.09-.13,.18-.26,.26-.4,.11-.19,.23-.37,.33-.56,.17-.36,.35-.71,.46-1.09,.06-.21,.13-.42,.22-.62,.1-.23,.14-.47,.18-.71,.08-.42,.12-.83,.28-1.23s.36-.8,.52-1.21c.05-.14,.09-.29,.17-.42,.05-.09,.09-.18,.11-.28,.04-.15,.08-.3,.13-.45s.07-.3,.11-.45c.04-.13,.1-.25,.16-.37,.05-.13,.08-.27,.13-.4,.09-.23,.17-.47,.25-.7,.05-.16,.14-.3,.2-.46,.06-.15,.09-.3,.15-.45,.11-.29,.23-.58,.33-.88,.08-.27,.15-.54,.24-.81,.08-.24,.17-.47,.24-.71,.09-.27,.12-.54,.23-.8s.21-.54,.32-.81c.08-.19,.15-.38,.22-.57,.04-.12,.08-.24,.13-.36s.13-.21,.17-.33c.13-.34,.26-.7,.33-1.05,.03-.13,.03-.27,.04-.4,.02-.21,.1-.41,.1-.62,0-.29,.1-.57,.11-.86,0-.14-.03-.3-.08-.44-.03-.1-.1-.23-.1-.34,0,0,0,.02-.02,.01Z"/><path d="M81.9,87.87c.33-.26,.64-.53,.95-.82-.16-.14-.05-.6-.08-.8-.04-.33-.12-.66-.3-.94-.25-.38-.68-.73-.83-1.16s.17-.62,.39-.96c.19-.3,.43-.57,.61-.87,.21-.35,.38-.72,.48-1.11,.07-.28,.08-.56,.08-.85,0-.19-.03-.59,.1-.77,.14-.19,.65-.18,.88-.19,.29-.02,.61-.08,.9-.03,.33,.06,.63,.25,.97,.27,.51,.03,1.02,0,1.53,.09,.21,.04,.42,.09,.64,.12,.58,.1,1.18,.22,1.73,.43,1.89,.7,3.86,1.03,5.9,1.07,.56,.01,1.11-.01,1.67-.08,.83-.1,1.54-.33,2.22-.77,.57-.37,1-.79,1.22-1.42s.34-1.4,.35-2.08c.03-1.42-1.3-2.29-2.52-2.92-.92-.47-1.85-.52-2.89-.51-1.28,.01-2.51,.43-3.78,.56-.87,.09-1.73,.15-2.6,.12-.8-.02-1.59-.16-2.39-.16s-1.65,0-2.48-.03c-.98-.03-1.99,.28-2.91,.56-.74,.22-1.51,.56-2.15,.98-.73,.48-1.38,1.04-2.08,1.55-.53,.39-1.04,.81-1.56,1.21-.37,.28-.78,.46-1.16,.74-.47,.35-1.08,.83-1.3,1.38-.2,.49,.03,1.14,.17,1.62,.19,.63,.3,1.29,.29,1.94,0,.32,.03,.64,.01,.96s-.1,.63-.06,.96c.09,.76,1.04,.41,1.38,.02,.55-.62,.73-1.59,.71-2.38-.02-.53-.14-1.13-.05-1.66,.05-.27,.29-.7,.64-.38,.3,.27,.13,.66,.07,.97-.1,.51-.18,1.01-.31,1.52-.13,.54-.24,1.14-.21,1.69,.05,.83,.14,1.78,.78,2.42,.51,.51,1.29,.58,1.69-.09,.51-.87-.02-2.04-.2-2.92-.15-.76-.05-1.57,.22-2.29,.12-.32,.58-.91,.99-.53,.15,.14,.16,.53,.13,.73-.04,.31-.19,.59-.31,.88-.47,1.08-.12,2.46,.96,3.08,.33,.19,.69,.19,1.05,.31,.32,.11,.32,.41,.68,.41s.48-.27-.2,.12Z"/><path class="e" d="M96.72,73.86c-.46,.02-.89,.04-1.34,.08-.17,.02-.35,.01-.52,.06-.29,.08-.59,.12-.88,.2-.23,.06-.44,.16-.67,.23-.19,.05-.4,.05-.59,.09-.26,.04-.51,.05-.77,.05-.43,0-.85,.09-1.28,.08-.32,0-.64,.02-.96,.03s-.65-.03-.96-.06c-.58-.05-1.17-.1-1.75-.15-.55-.05-1.1-.02-1.64-.05-.59-.04-1.21-.03-1.8,.05-.26,.03-.56,.06-.81,.13s-.49,.15-.73,.22-.5,.15-.75,.23c-.21,.07-.4,.18-.59,.28-.37,.19-.74,.41-1.06,.67-.66,.52-1.33,1.01-2.03,1.5-.39,.28-.77,.58-1.16,.86-.32,.23-.65,.48-.94,.74-.34,.3-.67,.6-1,.91-.25,.23-.47,.52-.52,.85-.03,.18-.04,.37-.02,.55,.02,.21,.1,.4,.13,.61,.06,.41,.09,.82,.18,1.23,.05,.22,.05,.44,.06,.67,0,.21,.03,.42,0,.63s-.07,.4-.1,.6c-.03,.17-.1,.37-.08,.54,.03,.23,.3,.42,.52,.27,.28-.19,.48-.47,.6-.76,.07-.17,.08-.35,.08-.54,0-.21,.02-.43,0-.64-.03-.39-.12-.76-.14-1.15-.03-.52-.01-1.04,.32-1.49,.22-.3,.65-.41,1.03-.35,.4,.06,.73,.38,.8,.75,.04,.2-.02,.44-.08,.63-.09,.29-.19,.58-.29,.87-.28,.76-.28,1.62-.23,2.41,.03,.56,.07,1.18,.22,1.72,.07,.24,.58,.95,.87,.96,.52,.02,.41-.92,.36-1.31-.04-.3-.12-.61-.2-.9-.11-.41-.29-.77-.32-1.19-.03-.39,0-.76,.11-1.14,.1-.34,.31-.64,.51-.94,.17-.27,.26-.26,.5-.48,.22-.21,.54-.63,.84-.5,.57,.25,.1,.98,.03,1.43-.1,.73,.1,1.44,.25,2.18,.03,.15,.03,.32,.1,.46,.04,.08,.11,.2,.16,.27,.07,.1,.22,.23,.32,.3,.24,.16,.59,.46,.81,.49,.38,.05,.84,.11,.97-.2,.17-.42-.16-1.16-.38-1.53-.13-.22-.17-.43-.32-.64-.09-.14-.09-.34-.17-.48-.1-.19-.07-.26-.14-.46-.04-.13,.09-.44,.14-.57,.07-.18,.15-.29,.28-.43,.28-.3,.42-.53,.68-.85,.3-.36,.33-.86,.57-1.26,.13-.21,.19-.46,.3-.68,.04-.08,.04-.16,.07-.23,.04-.11,.11-.18,.19-.26,.18-.19,.34-.36,.64-.39,.18-.02,.35-.01,.53,0,.29,.01,.57,.13,.86,.15,.36,.02,.72,.08,1.08,.08,.47,0,.92,.11,1.38,.15s.9,.18,1.36,.26c.24,.04,.43,.11,.66,.18,.27,.09,.57,.14,.85,.21,.61,.15,1.23,.31,1.85,.42,.27,.05,.55,.03,.82,.09,.42,.09,.82,.21,1.25,.23s.82-.06,1.24-.04c.28,.02,.52,.04,.8,.02,.17-.01,.35,0,.53,0,.33-.01,.71-.04,1.03-.1,.26-.05,.44-.19,.67-.3,.18-.09,.37-.19,.56-.26,.08-.03,.18-.08,.25-.03,.21,.13-.04,.38-.15,.47-.24,.22-.56,.33-.87,.44-.21,.07-.4,.18-.61,.25-.27,.08-.54,.13-.82,.14-.16,0-.32,0-.48,.02s-.31,.06-.48,.05c-.38-.02-.78-.03-1.16-.04-.46,0-.9-.07-1.35-.1-.17-.01-.33,0-.5-.02-.22-.02-.45-.08-.67-.11-.37-.06-.73-.09-1.09-.2s-.74-.19-1.1-.32-.69-.24-1.05-.34c-.18-.05-.37-.11-.56-.15-.28-.05-.57-.13-.85-.17-.44-.06-.88-.13-1.31-.22-.3-.06-.59-.13-.9-.13s-.59-.1-.88-.12c-.19-.02-.38-.02-.57-.04-.23-.03-.51-.05-.7,.1-.22,.17-.27,.5-.34,.74-.04,.15-.06,.3-.09,.45-.02,.1-.09,.17-.13,.26-.05,.12-.12,.31-.17,.43-.18,.41-.2,.56-.41,.89-.14,.22-.36,.45-.48,.68-.15,.29-.25,.55-.18,.86,.11,.5,.29,.99,.49,1.47,.08,.19,.21,.37,.29,.56,.06,.14,.07,.31,.09,.46,.04,.35-.06,.73-.31,1-.12,.13-.29,.28-.48,.29-.22,.02-.43-.05-.62-.13-.23-.1-.71-.15-.89-.32s-.33-.26-.51-.43c-.22-.21-.45-.41-.63-.65-.16-.2-.03-.46-.12-.69-.16-.42-.19-.88-.22-1.32-.01-.16-.01-.31,0-.47,0-.06-.02-.13,0-.19-.15,.09-.21,.24-.3,.38-.13,.22-.25,.43-.31,.68-.06,.29-.07,.57-.07,.86,0,.36,.11,.71,.18,1.06s.06,.73,.11,1.09c.04,.28,.12,.56,.03,.84s-.25,.48-.56,.59c-.35,.12-.63-.14-.87-.37-.32-.3-.79-.66-.91-1.07-.06-.22-.04-.5-.11-.72-.08-.27-.06-.53-.1-.8-.16-1.14,.07-2.3,.21-3.43,.03-.25,.05-.51,0-.76-.03-.17-.08-.34-.25-.14-.12,.14-.12,.38-.15,.55-.05,.26-.02,.53-.01,.79,0,.23-.01,.48-.05,.71-.04,.25-.05,.5-.07,.76-.03,.39-.09,.76-.3,1.11-.15,.27-.32,.53-.5,.79-.06,.08-.15,.21-.25,.23-.12,.02-.31-.02-.44-.04-.39-.08-.64-.48-.64-.83,0-.17,.05-.35,.07-.52,.04-.28,.02-.55,.02-.83,0-.49-.02-.95-.09-1.43-.11-.79-.3-1.57-.2-2.37,.04-.37,.39-.66,.65-.91,.45-.44,.93-.87,1.39-1.3,.19-.18,.37-.37,.57-.53,.29-.23,.61-.45,.9-.68,.6-.47,1.21-.9,1.87-1.29,.29-.18,.61-.33,.91-.5,.35-.2,.73-.37,1.09-.54,.48-.23,.97-.38,1.48-.53,.32-.1,.62-.21,.94-.3,.25-.07,.49-.09,.74-.14,.21-.04,.46-.03,.68-.04,.25-.02,.5-.01,.75,0,.79,.03,1.57,.08,2.36,.15,.18,.02,.36,.02,.54,.04,.2,.02,.4,.06,.6,.07,.38,0,.76-.04,1.15-.02s.75-.04,1.12-.01c.13,0,.24,0,.37-.02,.21-.02,.4,0,.6-.04,.3-.05,.6-.15,.9-.18,.28-.03,.55-.04,.83-.08,.33-.04,.65-.12,.98-.16,.47-.06,.98,.01,1.42,.16,.07,.02,.51,.16,.36,.16Z"/><path class="e" d="M98.81,75.18c-.23,.22-.45,.45-.61,.72-.09,.15-.16,.32-.27,.46-.18,.25-.33,.51-.51,.76-.21,.28-.47,.52-.79,.68-.23,.12-.46,.19-.71,.28-.13,.05-.25,.09-.39,.12-.15,.03-.29,.02-.44,.02-.25,0-.47,0-.72-.06-.29-.07-.58-.13-.86-.23-.15-.06-.32-.09-.47-.15-.14-.06-.27-.15-.4-.22-.24-.13-.45-.26-.68-.41s-.47-.24-.71-.36c-.3-.15-.63-.28-.96-.34-.23-.04-.47-.02-.71-.01-.2,0-.48-.02-.67,.06,.09,.04,.23,.02,.33,.04,.13,.02,.26,.07,.39,.09,.12,.02,.24,.03,.36,.07,.09,.04,.17,.08,.26,.11,.3,.09,.52,.27,.8,.41,.1,.05,.22,.1,.31,.16,.13,.09,.26,.18,.39,.26,.22,.14,.46,.23,.7,.35,.27,.13,.56,.23,.83,.35,.21,.09,.43,.15,.66,.2,.24,.06,.48,.07,.72,.08,.13,0,.25,.04,.37,.06s.24,0,.36,0c.28-.02,.56-.02,.83-.11,.43-.14,.85-.35,1.18-.65,.08-.08,.18-.16,.25-.25,.06-.08,.09-.17,.13-.26,.03-.07,.09-.13,.13-.19,.07-.11,.09-.23,.13-.35,.07-.2,.1-.4,.17-.6,.05-.13,.11-.26,.17-.39,.07-.15,.16-.29,.25-.43,.04-.07,.1-.13,.17-.17,0,0,0,.01-.01-.09Z"/><path class="e" d="M76.84,79.41c-.17,.11-.31,.23-.45,.36-.05,.03-.08,.06-.07,.12-.02,.04-.03,.1-.04,.14-.04,.16,.06,.29,.16,.41,.05,.06,.11,.14,.19,.16s.17,0,.25,.02c-.18,.1-.39,.1-.6,.08-.17-.02-.39-.07-.49-.22-.08-.13-.05-.34,0-.47,.1-.29,.35-.46,.64-.58,.09-.04,.19-.05,.28-.08,.05-.01,.09-.04,.14-.03,.01,0,.01,.01-.01,.08Z"/><path class="e" d="M78.25,80.65l-.18,.41c-.05,.06-.07,.12-.06,.19,0,.06,.02,.12,.03,.18,.04,.17,.11,.28,.22,.42,.07,.08,.12,.17,.23,.19,.1,.02,.19-.01,.29,0,0,.14-.37,.15-.46,.13-.23-.04-.49-.35-.51-.57-.02-.23,.11-.45,.23-.64,.08-.13,.19-.25,.22-.3Z"/><path class="e" d="M80.36,81.54c-.04,.16-.05,.31-.03,.47,.03,.03,.06,.06,.09,.1,.06,.06,.12,.13,.19,.18,.14,.11,.34,.12,.51,.06,.15-.05,.37-.13,.47-.26,.06-.08,.09-.2,.13-.29-.09,.12-.11,.28-.17,.42-.07,.14-.17,.31-.33,.38-.26,.12-.58,.03-.78-.16-.17-.17-.36-.32-.27-.57,.03-.09,.06-.17,.12-.24,.03-.03,.07-.1,.08-.1Z"/><path class="e" d="M81.76,86.34c-.15-.21-.34-.38-.56-.52-.06,0-.11,.02-.17,.04-.08,.03-.17,.06-.23,.12-.11,.1-.12,.32-.05,.44,.08,.13,.23,.25,.35,.35,.11,.09,.27,.14,.42,.13s.35-.14,.33-.3c-.01-.1-.19-.25-.11-.26Z"/><path class="e" d="M77.87,87.51c-.06-.16-.14-.3-.25-.42-.1,.06-.21,.06-.3,.15-.11,.1-.12,.22-.04,.35,.03,.04,.07,.08,.1,.12,.04,.05,.05,.11,.09,.16,.1,.11,.17,.13,.3,.07,.07-.03,.16-.1,.19-.17,.04-.1-.02-.19-.06-.28s-.07-.19-.13-.27c-.02-.03-.09-.06,.1,.31Z"/><path class="e" d="M75.03,84.56c-.17,.03-.42,0-.49,.18-.02,.05-.05,.09-.07,.14-.08,.14-.06,.25-.1,.39-.02,.08-.03,.18,.05,.25s.18,.01,.25-.03c.22-.13,.43-.32,.4-.58,0-.07,0-.39-.05-.35Z"/></g></g></g></svg>