<?xml version="1.0" encoding="UTF-8"?><svg xmlns="http://www.w3.org/2000/svg" xmlns:xlink="http://www.w3.org/1999/xlink" viewBox="0 0 240.49 240.49"><defs><style>.h{fill:#fff;}.i{fill:#efc5ba;}.j{clip-path:url(#e);}.k{filter:url(#f);}</style><clipPath id="e"><circle class="i" cx="120.24" cy="120.24" r="120.24"/></clipPath><filter id="f" filterUnits="userSpaceOnUse"><feOffset dx="14.17" dy="8.5"/><feGaussianBlur result="g" stdDeviation="0"/><feFlood flood-color="#000" flood-opacity=".5"/><feComposite in2="g" operator="in"/><feComposite in="SourceGraphic"/></filter></defs><g id="a"/><g id="b"><g id="c"><circle class="i" cx="120.24" cy="120.24" r="120.24"/></g><g id="d"><circle class="i" cx="120.24" cy="120.24" r="120.24"/><g class="j"><g class="k"><g><path d="M236.98,313.76c-1.54-.1-2.92-.07-4.26-.29-3.21-.52-6.42-1.08-9.6-1.77-3.25-.7-6.45-1.59-9.68-2.37-1.95-.48-3.96-.79-5.87-1.4-3.24-1.03-6.4-2.27-9.63-3.33-1.56-.51-3.18-.83-5.01-1.29-.19,1.54-.35,2.83-.5,4.12-.55,4.47-1.14,8.94-1.62,13.43-.44,4-.82,8.01-1.09,12.02-.06,.84,.3,1.81,.74,2.55,.64,1.07,.85,2.16,.84,3.37-.02,4.59-.67,9.1-1.33,13.63-.92,6.39-1.55,12.82-1.49,19.29,.04,5.14-.1,10.28-.05,15.41,.05,4.44,.29,8.88,.4,13.32,.14,5.76,.21,11.52,.34,17.28,.17,7.36,.39,14.71,.58,22.07,.01,.55,.06,1.12-.04,1.66-.2,1.13-.83,1.8-1.97,1.77-1.63-.05-2.75,.87-3.84,1.79-2.97,2.49-5.83,5.12-8.84,7.56-2.48,2.01-5.14,3.78-7.65,5.74-2.4,1.88-4.66,3.94-7.1,5.78-2.85,2.15-6.16,3.44-9.46,4.73-.88,.34-1.83,.67-2.85-.06,.32-1.48,1.42-2.29,2.47-3.16,2.84-2.32,5.7-4.63,8.49-7.01,2.9-2.48,5.72-5.05,8.6-7.55,3.15-2.73,6.34-5.41,9.47-8.15,.38-.33,.64-.89,.76-1.38,.45-1.82,.83-3.65,1.2-5.48,.12-.61,.22-1.26,.13-1.86-.87-5.82-.25-11.64-.09-17.46,.09-3.26,.51-6.53,.37-9.78-.35-8.59-.15-17.2-.84-25.79-.61-7.67-.53-15.4-.77-23.1-.05-1.73,.03-3.49-.24-5.19-.77-4.75-1.01-9.52-1.02-14.32,0-.96-.27-1.92-.3-2.89-.04-1.24-.17-2.53,.1-3.71,1.8-7.89,1.9-15.82,.78-23.8-.42-3.01-.84-6.01-1.24-9.02-.14-1.01-.94-1.32-1.7-1.62-1.74-.68-3.47-1.43-5.27-1.94-1.93-.54-3.36-1.82-4.9-2.93-1.52-1.09-2.92-2.34-4.39-3.51-.37-.29-.77-.55-1.28-.91-.18,.75-.37,1.33-.45,1.93-.9,6.18-1.89,12.35-2.64,18.54-.42,3.43-.44,6.92-.64,10.38-.17,2.97-.38,5.94-.47,8.91-.03,.87,.18,1.8,.49,2.62,1.55,4.12,2.3,8.4,2.91,12.75,.52,3.72,.8,7.43,.99,11.18,.23,4.37-.76,8.56-1.25,12.82-.37,3.23-1.04,6.43-1.43,9.66-.85,6.95-1.61,13.92-2.38,20.88-.18,1.59-.22,3.19-.43,4.77-.49,3.85-1.06,7.69-1.55,11.53-.21,1.65-.35,3.31-.47,4.97-.36,4.98-.96,9.95-.7,14.96,.04,.82,.1,1.53,.61,2.32,1.28,1.95,.92,5.95-.82,7.3-1.25,.97-2.94,1.57-4.52,1.88-4.01,.79-8.04,1.35-11.97,2.59-5.67,1.79-11.48,3.15-17.22,4.74-1.27,.35-2.45,1.02-3.71,1.34-1.26,.32-2.57,.47-3.87,.57-1.06,.08-1.79-.46-2.27-1.48-.63-1.32-.49-2.04,.9-2.58,2.06-.8,4.17-1.5,6.25-2.26,2.08-.76,4.14-1.58,6.23-2.33,1.89-.67,3.8-1.28,5.71-1.92,5.19-1.74,10.36-3.54,15.27-6.02,1.4-.71,2.16-1.63,1.96-3.26-.09-.75,0-1.53-.04-2.29-.19-4.46,.26-8.81,1.14-13.22,1.13-5.7,1.8-11.52,2.28-17.32,.83-9.89,1.64-19.8,1.46-29.73-.09-5.19-.7-10.37-1.09-15.55-.25-3.39-.57-6.77-.79-10.16-.08-1.16-.37-2.16-1.16-3.03-.92-1.02-1.34-2.26-1.39-3.62-.3-7.48-.53-14.97-.88-22.45-.38-8.18-.87-16.35-1.32-24.53-.04-.75-.22-1.5-.36-2.42-.53,.14-.97,.22-1.38,.38-4.92,1.88-9.99,2.76-15.27,2.78-2.83,.01-5.67,.29-8.49,.65-2.29,.29-4.4,1.22-6.35,2.48-.35,.23-.67,.51-1.04,.69-1.07,.52-1.77,.22-1.95-.98-.26-1.78-.5-3.58-.53-5.38-.06-3.54-.15-7.09,.08-10.62,.28-4.36,.77-8.71,1.36-13.03,.5-3.7,1.32-7.36,1.86-11.05,.29-1.96,.21-3.97,.43-5.95,.11-1.02,.5-2.01,.78-3.01,2.26-7.92,3.36-15.98,3.23-24.24-.12-7.84-.05-15.69,.12-23.54,.07-3.44-.6-6.77-.97-10.14-.76-7.03-1.6-14.06-2.38-21.09-.29-2.61-.2-5.27-1.21-7.78-.18-.44-.28-.95-.27-1.43,.05-3.87-1.6-7.26-2.98-10.74-.15-.39-.32-.77-.44-1.17-.45-1.55-.63-3.13-2.05-4.35-1.11-.95-1.66-2.52-2.63-3.67-3.32-3.95-7.05-7.44-11.54-10.08-3.23-1.89-6.27-4.1-9.52-5.93-3.88-2.19-8.17-3.42-12.41-4.75-5.03-1.57-9.98-3.39-15.01-4.95-2.83-.88-5.76-1.47-8.64-2.2-1.14-.29-2.26-.69-3.42-.87-6.23-.97-12.47-1.9-18.71-2.82-.61-.09-1.26-.1-1.86,.02-.65,.13-1.21,.27-1.71-.31-.12-.14-.36-.19-.56-.22-6.3-.96-12.56-2.18-19.01-1.44-2.61,.3-5.27,.12-7.91,.17-8.95,.15-17.91,.28-26.86,.47-1.73,.04-3.46,.24-5.17,.44-.42,.05-.85,.38-1.2,.67-1.44,1.2-2.15,1.27-3.33-.04-.5-.55-.98-.7-1.62-.67-4.76,.27-9.56-.05-14.27,1.08-2.41,.58-4.93,.69-7.36,1.21-2.29,.49-4.52,1.24-6.78,1.87-.5,.14-1.01,.27-1.63,.13,.26-.18,.51-.41,.79-.54,3.24-1.46,6.67-2.29,10.15-2.86,3.07-.5,6.17-.92,9.27-1.2,3.1-.28,6.21-.36,9.32-.53,.47-.03,.94-.08,1.34-.11,.12-.25,.24-.37,.23-.48-.53-4.11-.44-8.32-2.03-12.26-.16-.39-.33-.77-.49-1.15-.35-.83-.97-1.12-1.84-.93-2.1,.47-4.21,.88-6.29,1.4-4.84,1.21-9.65,2.55-14.51,3.68-5.3,1.23-10.31,3.16-15.13,5.62,.46,1.31,.87,2.54,1.32,3.75,.43,1.18,2.21,1.54,1.93,3.29,2.27,.06,4.03,1.17,5.52,2.83,.79,.88,.73,1.91,.71,2.94-.06,3.25-2.37,5.68-6.08,6.33-.03,.23-.11,.49-.09,.75,.22,2.69,.6,5.38,.67,8.08,.24,8.53,.38,17.07,.54,25.6,.05,2.85,.09,5.69,.1,8.54,.01,4.79-.01,9.58-.02,14.37,0,.68,0,1.36,0,1.96,.38,.2,.55,.33,.74,.38,4.77,1.25,8.6,6.54,7.34,13.28-.68,3.64-2.53,6.6-5.71,8.59-4.43,2.76-9.97,1.51-12.8-2.85-3.64-5.59-1.76-14.18,3.92-17.67,.93-.57,2.02-.9,3.05-1.28,.63-.24,1.31-.37,2.01-.56,.56-19.83,.28-39.51-.88-59.24-1.61-.47-3.21-.88-4.78-1.39-3.41-1.11-5.83-4.64-5.77-8.11,.03-1.52,.07-3.09,.46-4.54,.57-2.09,2.2-3.46,3.98-4.59,.39-.24,.83-.4,1.42-.67-2.24-2.09-2.84-4.5-2.14-7.35,1.03,.3,.76,1.12,.78,1.71,.06,1.5,.4,2.88,1.43,4.02,1.1,1.22,1.32,1.27,2.88,.66,3.54-1.4,7.03-3,10.65-4.15,3.76-1.2,7.65-1.95,11.48-2.93,1.88-.48,3.74-1.03,5.61-1.54,2.53-.69,5.07-1.36,7.63-2.05,.48-2.22,2.11-3.38,4.2-2.39,2.13,1.01,3.91,.42,5.96-.02,4.94-1.07,9.93-1.97,14.94-2.69,5.63-.81,11.3-1.37,16.95-1.99,6.01-.65,12.02-1.23,18.08-.99,5.27,.21,10.53,.56,15.8,.68,3.18,.07,6.38-.12,9.56-.32,2.35-.15,4.69-.54,7.04-.75,1.24-.11,2.49-.05,3.74-.07,5.06-.08,10.13-.15,15.19-.24,.11,0,.22-.15,.49-.35-.77-.96-1.5-1.95-2.3-2.88-.74-.86-1.82-1.53-1.47-3.26,1.43,1.47,2.93,2.61,3.9,4.1,1.52,2.33,3.5,2.95,6.24,2.48,.12-.96,.25-1.97,.36-2.98,.24-2.21,.39-4.43,.72-6.62,.42-2.83,1.16-5.56,2.69-8.03,.44-.71,.81-1.46,1.18-2.2,.68-1.37,1.73-2.7,1.89-4.13,.15-1.32-.65-2.76-1.08-4.13-.25-.81-.33-1.54-.07-2.41,.75-2.51,1.5-5.04,1.96-7.62,.73-4.09,1.33-8.22,1.8-12.35,.43-3.71,.85-7.45,.83-11.18-.02-3.85,.3-7.6,1.22-11.34,.48-1.95,.76-3.95,1.07-5.93,1.09-7.07,2.15-14.15,2.36-21.3,.09-3.14,.55-6.33-.3-9.47-.21-.79-.43-1.78,.51-2.59,.25,.28,.56,.48,.67,.76,1.42,3.74,4.22,6.62,6.29,9.96,2.37,3.82,5.1,7.43,7.35,11.32,1.54,2.66,3.35,5.08,5.09,7.58,1.46,2.1,2.61,4.41,3.96,6.59,4.41,7.14,8.79,14.31,13.31,21.38,2.01,3.15,4.4,6.06,6.51,9.15,1.6,2.35,3.18,4.74,4.48,7.25,.72,1.39,1.77,2.12,3.05,2.54,.9,.29,1.32,.78,1.36,1.57,.12,2.54,.52,5.1-.43,7.6-.14,.36-.12,.82-.06,1.21,.43,2.71,.4,5.36-.88,7.89,1.59-1.29,1.37-3.28,1.92-5.03,1.68,2.27,1.99,5.38,1.45,13.81,1.94-.93,3.86-2,5.9-2.78,2.89-1.1,5.8-2.29,9.02-1.93,.3,.03,.65-.19,.95-.36,1.51-.85,2.97-1.77,4.51-2.56,.7-.36,1.54-.45,2.31-.7,6.38-2.03,12.61-1.48,18.69,1.15,5.17,2.24,9.55,5.62,13.55,9.54,4.79,4.69,8.83,9.98,12.43,15.61,8.41,13.19,14.54,27.45,19.53,42.22,5.79,17.13,9.93,34.68,12.99,52.49,2.54,14.79,4.3,29.68,5.25,44.65,.89,13.93,1.31,27.89,.64,41.85-.32,6.65-1.03,13.29-1.22,19.95-.16,5.35-1.51,10.38-3.05,15.42-.6,1.95-1.09,3.97-.82,6.52ZM78.66,48.26l-.04-.04c-1.4,2.31-2.41,4.88-4.67,6.64l.59,1.13c1.8-1.97,3.53-3.91,5.33-5.79,.44-.46,1.09-.71,1.64-1.05-1.34,1.38-2.8,2.67-4.01,4.17-3.53,4.36-5.87,9.44-7.76,14.63-1.88,5.18-1.63,10.79-1.94,16.26-.03,.45,.05,1.06,.34,1.34,1.98,1.94,3.93,3.92,6.97,4.19,1.35,.12,2.66,.64,4,.91,.36,.07,.81-.05,1.16-.2,1.9-.84,3.87-1.57,5.65-2.63,1.19-.71,2-.38,2.77,.37,1.34,1.29,2.16,2.86,2.08,4.81-.07,1.64-.2,1.82-1.85,2.21-1.59,.38-3.19,.77-4.63,1.12-.28,1.02,.26,1.17,.75,1.48,2.04,1.28,2.03,1.3,.16,2.83-.08,.07-.08,.24-.12,.36,.36,.75,1.7,1.32,.88,2.27-.81,.93-1.63-.17-2.35-.56-1.64-.9-3.16-2.03-4.84-2.82-.92-.43-1.32-.97-1.24-2-2.7,.64-5.17,1.23-7.85,1.87,.55,1.86,.86,3.58,1.57,5.12,1.88,4.13,4.4,7.87,7.61,11.1,4.34,4.38,8.93,7.97,15.75,7.45,4.36-.33,7.95-1.86,10.89-4.88,2.94-3.03,4.41-7,6.42-10.72,1.19,.48,1.92-.31,2.56-1.29,.28-.34,.56-.69,.84-1.03,.86-1.29,1.72-2.59,2.48-3.73-.54-.96-.92-1.65-1.3-2.34,1.13-.39,2.14-.92,2.37-2.34-.78,.79-1.55,1.59-2.33,2.38l-2.54,.87c0-1.03,0-1.95,0-2.86,0-1.7,0-3.41,.02-5.11,3.42-1.23,6.83-2.46,10.25-3.69l-.1-.3-8.83,2c-.05,.33,0,.71-.16,.92-.31,.42-.74,.74-1.12,1.11-2.24,.91-4.44,1.99-6.74,2.7-4.68,1.44-9.01,3.56-13.22,6.02-.78,.45-1.59,.85-2.43,1.18-.75,.3-2.28-.22-2.63-1.02-.33-.76-.8-1.58,0-2.48,1.45-1.64,2.65-3.42,4.81-4.42,1.68-.78,3.25-1.57,5.08-1.12,1.58,.39,3.01,0,4.44-.45,3.43-1.09,6.81-2.39,10.46-2.54,.11,0,.21-.16,.44-.35,.2-2.85,.28-5.8-.3-8.83h-2.72c-.5-.86-.27-1.52,.62-1.76,.2-.05,.6,.62,1.04,1.11,5.87-1.78,10.68-5.43,15-9.85-4.17,3.42-8.62,6.36-13.78,8.5-.61-2.57-1.17-4.99-1.75-7.4-.21-.87-.36-1.78-.71-2.6-1.16-2.72-1.9-5.6-3.48-8.18-1.12-1.83-2.06-3.71-3.78-5.11-.61-.5-1.14-1.29-1.34-2.05-.49-1.82-1.68-3.11-3.21-3.89-2.45-1.25-4.98-2.54-7.63-3.14-2.8-.63-5.8-.64-8.38,1.28-.71,.53-1.59,.82-2.38,1.22,.8-.61,1.57-1.25,2.4-1.82,3.28-2.24,6.8-1.99,10.36-.87,1.39,.43,2.75,.98,4.06,1.6,.94,.45,1.74,.53,2.76,.18,.88-.3,2-.51,2.83-.23,1.83,.63,3.68,.49,5.54,.63,1.72,.13,3.43,.47,5.14,.69,1.01,.13,2.04,.26,3.06,.27,1.19,.01,2.4-.18,3.47,.55-2.08,.15-4.14,.23-6.2,.13-2.48-.12-4.96-.38-7.44-.58-1.02-.08-2.05-.14-3.06-.27-1.06-.13-2.13-.49-3.01,.17,2.59,3.49,5.14,6.91,7.6,10.22,2.1-.3,4.29-.56,6.45-.94,2.38-.42,4.76-.88,7.1-1.47,2.38-.6,4.49-1.82,6.48-3.23,1.29-.91,2.64-1.78,3.78-2.87,.51-.49,.82-1.48,.76-2.21-.18-2.33-2.45-4.11-4.85-4.05-3.26,.09-6.51,.16-9.77,.2-2.18,.03-4.26-.49-6.25-1.36-.95-.42-1.92-.79-2.86-1.24-2.72-1.32-5.45-2.62-7.84-4.52,.85,.26,1.74,.44,2.55,.81,3.16,1.42,6.23,3.03,9.44,4.31,1.7,.68,3.61,.99,5.45,1.14,2.48,.21,4.99,.13,7.49,.12,.78,0,1.56-.18,2.73-.33-.53-.93-.83-1.52-1.18-2.07-2.13-3.33-4.3-6.63-6.42-9.97-.78-1.22-1.45-2.53-3.01-2.21-.42-1.21-.61-2.32-1.15-3.22-3.48-5.76-7.01-11.48-10.59-17.18-.6-.95-1.46-1.74-2.35-2.78-.58,.99-.98,1.67-1.55,2.64l-.35-2.58-2.06-.45c.22-.32,.3-.52,.45-.63,2.19-1.62,2.36-2.57,.88-4.78-2.19-3.28-5.08-6.07-6.74-9.71-.17-.37-.52-.65-.75-.99-1.73-2.51-3.47-5.01-5.16-7.54-.81-1.21-1.49-2.5-2.29-3.71-.23-.35-.69-.72-1.08-.77-1.19-.17-1.64-1.21-1.41-1.9,.57-1.72-.81-2.18-1.51-3.11-.15,.8-.15,1.56-.15,2.32,0,1.59,.14,3.2-.02,4.78-.14,1.37-.31,2.65,.66,3.8l-1.06-.33c.04,.76,.07,1.35,.11,2.31l.96-2.04c-.09,.8,.07,2.12-.3,2.29-1.17,.54-.88,1.47-.98,2.29-.36,3.1-.59,6.21-1.01,9.3-.25,1.83-.31,3.5,1.19,4.5-.75,1.11-1.68,1.97-1.99,3.02-.95,3.26-1.93,6.55-2.38,9.9-.58,4.32-.64,8.71-.97,13.06-.13,1.66,.44,2.95,1.71,3.98l-2.12-.8-.4,2.84h1.63l.28,1.25-1.84-.45c-.17,.77-.33,1.42-.45,2.09-.55,3.25-1.11,6.49-1.61,9.75-.07,.47,.19,1,.3,1.5q-1.62,3.39-1.11,4.68c.75-.72,1.44-1.35,2.08-2.02,.94-.99,1.85-2,2.77-3.01Zm19.13,87.04l-.05-.05c2.22,2.07,4.44,4.14,6.64,6.2,2.07-.27,.62-2.04,1.42-3.38,.71,2.19,2.46,1.83,4.05,2.01-.3,.79-.53,1.42-.74,1.97,.43,.65,.79,1.2,1.32,2.01-1.05-.15-1.77-.25-2.5-.35l-1.81,2.72c3.26,6.46,4.21,13.63,5.48,20.71,2.04-.33,.25-2.09,1.28-2.97,.87,1.64,2.28,1.83,3.94,1.41-.15,1.42-.28,2.63-.37,3.53-1.18,.9-2.11,1.61-3.02,2.3-.74-.73,.51-2.69-1.7-2.62,0,.63-.05,1.17,0,1.7,.72,6.27,1.45,12.53,2.19,18.8,.31,2.61,.89,5.23,.91,7.84,.07,9.86-.04,19.72-.06,29.58-.01,5.79-1.36,11.42-2.09,17.12-.3,2.31,.82,3.92,3.23,3.87,.31,0,.62,.06,1.05,.11-.31,.77-.55,1.39-.76,1.92,.42,.66,.76,1.2,1.21,1.9-1.04-.05-1.78-.09-2.37-.12-.78,.54-.64,1.69-1.76,1.85-.07-1.06-.13-2.01-.19-2.95l.3-.04,.45,1.04c.58-.32,1.15-.63,1.75-.96,.07-.68,.14-1.4,.21-2.11-1.26-.16-2.43-.37-3.15,.69l-.22-2.22h-.46c-1.04,4.77-2.07,9.54-3.06,14.11,1.36,1.57,2.59,2.74,4.8,2.11-.36,.89-.61,1.51-.85,2.11,.4,.61,.77,1.16,1.27,1.92-.99-.06-1.72-.1-2.45-.15-.48,.69-.93,1.33-1.59,2.28-.19-1.42-.33-2.41-.46-3.41l.31-.09c.2,.38,.39,.77,.59,1.14,.55-.3,1.12-.62,1.74-.96,.06-.64,.14-1.36,.23-2.31-1.13,.16-2.12,.29-3.1,.43-.07-.27-.21-.78-.35-1.29l-.42,.07c-1.28,11.03-2.54,22.06-1.13,33.33,1.89-.88,3.46-1.78,5.14-2.34,2.97-1,6.06-1.46,9.21-1.4,3.34,.07,6.66-.06,9.94-.75,3.05-.64,6.02-1.46,8.81-2.95-.09-.93-.15-1.69-.25-2.44-.05-.33-.19-.66-.31-.98-2.07-5.55-3.5-11.24-3.9-17.18-.09-1.35-.62-2.67-.86-4.02-.43-2.45-1.05-4.9-1.13-7.36-.1-3.32,.36-6.65,.35-9.98,0-3.95-.25-7.9-.39-11.85,0-.07,.02-.16-.02-.2-.23-.3-.43-.77-.72-.84-.29-.07-.78,.17-1.01,.43-.39,.44-.64,.99-1.19,1.9-.26-1.36-.44-2.26-.6-3.13l-2.55-.39c.99-.77,1.67-1.31,2.31-1.81,0-.84,0-1.56,0-2.62,1.16,1.09,2.02,2.42,3.67,1.46,0-2.65,.07-5.28-.02-7.9-.17-4.99-.46-9.98-.63-14.97-.21-6.15-.22-12.3-.54-18.44-.24-4.57-.76-9.13-1.32-13.67-.34-2.74-1-5.43-1.57-8.44-.4,.51-.57,.78-.79,1-.2,.2-.45,.36-.76,.59l-.43-2.72c-.91-.14-1.61-.24-2.64-.4l2.35-1.82c-.04-.81-.08-1.54-.13-2.45,.61,.33,1.02,.54,1.61,.86-.29-1.36-.59-2.43-.75-3.52-.99-6.73-1.89-13.47-2.95-20.18-.52-3.28-1.33-6.51-2.04-9.76-.19-.85-.52-1.67-.79-2.53l-1.3,.62c-.16-.97-.3-1.82-.42-2.61-.92-.16-1.63-.28-2.56-.44l1.9-1.78c-.85-.37-1.46-.73-2.11-.88-.99-.24-2.19-.76-2.99-.41-3.55,1.53-7.35,2.02-11.03,2.97-3.83,.99-7.7,1.7-11.71,1.58-2.51-.07-4.75-.67-6.92-1.91-4.25-2.43-7.58-5.85-10.47-9.69-2.5-3.32-4.73-6.85-5.59-11.04-.12-.57-.48-1.09-.77-1.72-4.5,1.27-8.83,2.48-13.15,3.74-.53,.15-.97,.6-1.49,.93,.53,.84,.91,1.45,1.43,2.29l-2.46-.33-1.6,2.3-.53-3.04-2.7-.26,2.42-2.19v-2.01l.32-.15,1.13,1.76c5.47-2.58,10.59-5,15.71-7.42-.27-1.89-.58-3.59-.73-5.3-.2-2.24-1.16-3.82-3.38-4.5-.53-2.68-1.49-3.47-4.13-3.44-.56,0-1.11,.03-1.67,.05-3.67,.13-7.35,.28-11.02,.36-1.59,.03-3.19-.24-4.77-.12-3.46,.27-6.9,.79-10.35,1.03-2.42,.17-4.85,.09-7.28,.05-9.91-.17-19.82-1.36-29.74-.14-4.27,.53-8.56,.89-12.84,1.33-.41,.04-.89,.06-1.2,.28-.32,.23-.48,.7-.67,.99-.79-.06-1.46-.11-2.05-.15l-1.48,2.19-.56-2.36c-5.45-.14-17,2.16-19.26,3.82,1.21,1.89,2.17,3.9,2.14,6.2-.03,2.49-.2,4.99-.32,7.48-.04,.81-.12,1.62-.22,2.78,13.53-1.43,26.9-.76,40.43-1.23-.09-1.1-.16-1.94-.22-2.77l-2.69-.38,2.35-1.86-.13-2.23c1.26,1.22,2.67,1.67,4.5,1.41l-.83,2.06c.43,.63,.81,1.19,1.23,1.81q-2.74,.01-3.14,1.82c1.68,0,3.33-.07,4.98,.02,2.35,.12,4.7,.28,7.04,.54,2.33,.27,4.65,.73,6.98,1.04,1.23,.16,1.47-.14,1.42-1.35-.02-.44,0-.88,0-1.83,1.18,1.81,2.6,2.24,4.53,1.96l-.89,1.42c-.92-1.03-1.21-1.07-3-.53q.66,.74,1.38,.82c7.37,.83,14.74,1.6,21.9,3.69,2.66,.77,5.42,1.19,8.05,2.04,5.28,1.7,10.47,3.66,15.75,5.36,3.9,1.26,7.84,2.4,11.43,4.41,2.84,1.59,5.5,3.47,8.3,5.13,3.72,2.2,7.04,4.91,10.24,7.77Zm103.95,63.19c.86-5.51,.95-12.33,.11-14.01-.58,.72-1.12,1.39-1.8,2.24-.2-1.21-.34-2.07-.47-2.86-.92-.15-1.61-.26-2.61-.41,.98-.77,1.66-1.31,2.27-1.78,0-.86,0-1.58,0-2.44,1.15,.39,1.52,2.26,3.14,1.24,0-.55,.02-1.17,0-1.79-.26-5.68-.59-11.36-.8-17.04-.36-9.64-.65-19.28-.98-28.92-.04-1.04-.09-2.09-.33-3.09-.1-.41-.66-.81-1.1-1-.55-.24-1.06-.02-1.35,.61-.22,.46-.56,.85-1.05,1.59l-.47-2.9c-.88-.17-1.61-.32-2.64-.51,1-.8,1.69-1.35,2.29-1.83v-2.61c1.23,1.19,2.14,2.62,3.87,1.42,.04-1.85-.39-3.76,.46-5.57,.35,.48,.47,.97,.51,1.47,.11,1.31,.15,2.63,.27,3.94,.22,2.56,.56,5.11,.67,7.67,.22,4.92,.26,9.85,.47,14.77,.22,5.13,.49,10.26,.84,15.39,.21,3.04,.52,3.24,3.5,3.35,.1,0,.19,.15,.34,.28-.22,.6-.46,1.22-.66,1.77,.43,.66,.79,1.2,1.33,2-1.05-.15-1.77-.25-2.53-.35-.98,1.33-1.46,2.66-1.37,4.29,.19,3.81,.34,7.62,.34,11.43,.01,7.01-.55,14-1.29,20.97-.03,.24,.06,.49,.14,1.06,.86-.56,1.51-.99,2.08-1.36,0-.95,0-1.66,0-2.38,1.12,1.39,2.66,1.51,4.53,1.57-1.44,1.51-.42,2.65,.19,3.94l-2.31-.36c-.47,.71-.92,1.37-1.59,2.38l-.58-3.1c-.93,0-1.73,0-2.58,0-.44,2.48-.86,4.86-1.29,7.24-.61,3.34-.99,6.75-1.89,10.01-1.84,6.69-4.13,13.24-7.59,19.3-.5,.86-1.29,1.66-2.13,2.2-1.11,.71-1.89,1.57-2.4,2.76-.41,.95-.75,2.39-1.46,2.63-1.3,.44-1.26,1.47-1.78,2.27-.43,.67-1,1.73-1.55,1.76-1.36,.06-1.91,.98-2.68,1.74-1.34,1.31-2.63,2.67-4,3.95-4.25,3.98-9.1,7.05-14.46,9.28-2.78,1.16-5.71,1.67-8.74,1.64-2.41-.02-2.79,.5-1.6,2.67,1.25,2.31,2.65,4.56,4.21,6.67,2.52,3.43,5.6,6.34,8.96,8.94,.62,.48,1.37,.8,2.3,1.32l.18-3.37c1.11,1.97,2.5,2.31,4.47,2.04-1.83,2.07,.25,3.13,.59,4.5,2.36,.91,4.73,1.7,6.99,2.72,4.26,1.92,8.67,3.26,13.24,4.24,3.52,.75,6.97,1.83,10.43,2.81,2.07,.59,4.09,1.34,6.16,1.89,2.75,.72,5.53,1.3,8.29,1.98,1.21,.3,2.37,.81,3.59,1.05,3.88,.76,7.77,1.46,11.65,2.15,.94,.17,1.9,.26,2.99,.4,.24-.99,.45-1.85,.66-2.71,.5-2.01,.97-4.03,1.52-6.03,.7-2.58,1.96-4.93,2.06-7.76,.24-7.14,1-14.26,1.3-21.41,.61-14.85,.56-29.71-.63-44.54-.74-9.2-1.7-18.38-2.58-27.57-.19-1.99-.3-2.03-2.29-1.93l-1.44,2.2c-.22-1.3-.36-2.15-.51-3.01-.81-.15-1.56-.29-2.59-.48,.99-.8,1.67-1.35,2.32-1.88,0-.82,0-1.53,0-2.49,1.16,.88,1.83,2.42,3.48,1.46,0-.41,.05-.82,0-1.21-.3-2.06-.62-4.12-.95-6.17-3.5-21.7-8.63-42.98-16.3-63.62-4.8-12.92-10.54-25.38-18.36-36.79-4.17-6.1-8.88-11.73-14.67-16.4-3.49-2.81-7.28-5.09-11.54-6.52-4.87-1.64-9.79-1.86-14.73-.32-.41,.13-.79,.37-1.18,.56l.05,.34,2.73,.31c-1.09,1.43-.53,2.61,.46,3.91l-2.43-.29c-.52,.74-.97,1.37-1.67,2.35l-.45-3.1-2.23-.24c.16-1.26,2.03-1.09,1.83-2.77-3.3,1.44-6.03,3.34-8.65,5.63l1.23,.69-.79,1.68c.39,.67,.74,1.27,1.17,2l-2.4-.11c-.49,.72-.89,1.31-1.51,2.22-.22-1.28-.37-2.16-.58-3.39-2.31,1.71-3.48,3.96-5.39,5.5,.49-1.36,1.42-2.43,2.26-3.57,.36-.49,.97-1.06,.91-1.53-.09-.76,.32-.96,.74-1.28,.43-.33,.86-.67,1.21-.95,0-.85,0-1.57,0-2.59,.66,.57,1.1,.95,1.61,1.39,1.25-1.07,2.44-2.1,3.64-3.13l-.21-.36c-2.26,.61-4.56,1.12-6.78,1.85-1.7,.56-3.35,1.33-4.95,2.14-.55,.28-1.28,1-1.25,1.48,.13,1.92-1.05,3.25-1.77,4.8-.33,.72-.35,1.59-.54,2.54-.08,.02-.61,.03-.7,.22-1.26,2.91-2.47,5.84-3.62,8.6,.5,2.29,2.31,1.95,3.92,2.11l-.74,1.97,1.33,2.01c-1.03-.14-1.76-.24-2.49-.34-.5,.72-.94,1.37-1.58,2.3l-.54-2.79c-.42,.3-.52,.59-.59,.89-.7,2.97-1.42,5.94-2.06,8.92-.37,1.7,.14,2.28,1.87,2.37,.45,.02,.9,.05,1.48,.08l-.75,1.97,1.32,2-2.47-.33c-.49,.71-.94,1.36-1.46,2.11-.76-.92,.04-2.24-1.26-2.99-.72,2.03-1.08,4.01-.95,5.98,.33,5.22,1.53,10.28,3.11,15.26,.11,.36,.36,.68,.6,1.12,.66-.47,1.21-.87,1.72-1.23l-.11-2.28c1.26,1.22,2.63,1.79,4.48,1.42l-.83,2.03,1.21,1.92-2.42-.12c-.51,.7-.95,1.32-1.59,2.22-.18-1.23-.29-2.04-.42-2.96h-1.82c1.38,4.37,2.73,8.58,4.65,12.58,.25,.52,.74,.93,.85,1.06,.07,.98,.05,1.64,.18,2.27,.29,1.43,.73,2.83,.95,4.26,.82,5.21,1.58,10.43,2.35,15.64,.41,2.76,.57,2.91,3.43,2.97,.11,0,.21,.13,.42,.27-.24,.6-.48,1.21-.71,1.78,.43,.65,.81,1.21,1.32,1.97-.57-.05-.9-.05-1.22-.1-1.39-.22-1.93,.15-2.04,1.49-.03,.41,.08,.82,.12,1.24,.48,5.6,1.04,11.19,1.41,16.8,.28,4.15,.11,8.34,.51,12.48,1.01,10.57,2.27,21.11,3.32,31.67,.64,6.48,1.08,12.98,1.62,19.47,.08,.94,.24,1.87,.36,2.8,1.35-.22,2.44-.52,3.54-.53,1.08-.02,2.16,.26,3.25,.39,.19,.02,.43,0,.59-.1,1.36-.81,3.09-1.35,3.98-2.52,2.02-2.69,3.63-5.69,5.48-8.67l-2.03-.58c.9-.72,1.57-1.26,2.3-1.85-.05-.61-.13-1.22-.14-1.84,0-.15,.18-.31,.49-.81l.97,1.82c1.31-2.16,2.42-3.95,3.49-5.77,.16-.28,.17-.67,.17-1.01-.03-1.29,.71-2.22,1.46-3.13,.32-.39,.72-.73,1.37-1.38-1.02-.14-1.64-.23-2.15-.3l-1.55,2.36c-.22-1.34-.37-2.19-.51-3.03-.82-.13-1.54-.24-2.59-.41l2.36-1.94v-2.24c1.1,1.45,2.52,1.73,4.22,1.53-.28,1.26-1.33,2.56,.83,3.28,.93-1.9,1.9-3.8,2.81-5.73,2.33-4.94,3.88-10.17,5.21-15.43,.67-2.64,.62-5.5,.64-8.27,.07-9.16,.39-18.33-1.57-27.38-.47-2.19-.44-2.25-2.84-2.18-.4,.6-.81,1.22-1.43,2.15l-.6-2.99c-.84-.13-1.54-.23-2.64-.4,1.05-.81,1.74-1.35,2.4-1.85,0-.84,0-1.56,0-2.85,1.16,1.45,2.08,2.79,3.73,1.67-.02-.31,0-.52-.05-.71-.22-.95-.46-1.89-.67-2.84-.21-.95-.37-1.91-.58-2.86-.21-.94-.16-2.25-.76-2.72-1.14-.91,.1-1.69-.25-2.59-.82-2.12-1.16-4.42-1.77-6.62-1.42-5.15-2.86-10.28-4.34-15.41-.2-.71-.71-1.33-1.02-1.89,0-.68,.12-1.34-.02-1.93-.74-3.24-1.67-6.44-2.26-9.71-.31-1.71-.99-2.98-2.39-3.92-.81-.54-1.64-1.04-2.44-1.59-.24-.16-.42-.42-.85-.86,1.99-.05,2.9,1.52,4.56,1.88-.36-1.42-.71-2.74-1.02-4.08-.26-1.15-.52-2.3-.65-3.46-.04-.36,.35-.77,.54-1.16,.3,.33,.62,.64,.88,1,.11,.15,.09,.4,.14,.6,.23,1.01,.47,2.02,.71,3.03,.72,3.03,1.43,6.06,2.18,9.09,.61,2.45,1.26,4.89,1.88,7.27,1.38-.62,1.42,.98,2.2,1.11,.84,.15,1.7,.19,2.7,.29-.35,.76-.6,1.31-.84,1.84,.43,.68,.8,1.28,1.3,2.08-1.02-.12-1.75-.21-2.41-.29-1.19,1.34-1.35,2.66-.87,4.29,1.75,5.92,3.36,11.87,5.04,17.81,.02,.07,.2,.1,.33,.17l.12-1.67c1.13,1.5,2.72,1.54,4.42,1.57l-.85,1.86c.42,.68,.8,1.28,1.3,2.08-1.01-.12-1.74-.21-2.34-.28-1.65,1.61-1.74,3.29-1.23,5.36,1.67,6.74,2.83,13.56,3.22,20.52,.41,7.36,.14,14.7-.32,22.05-.09,1.42,.88,2.74,2.29,2.88,.53,.05,1.07,0,2.24,0-1.82,1.58-.7,2.7,.05,4.03-.97-.11-1.69-.2-2.41-.28-.49,.72-.93,1.37-1.61,2.37-.24-1.34-.4-2.24-.65-3.66-.56,.68-1.08,1.05-1.02,1.28,.38,1.62-.49,2.98-.85,4.43-.56,2.28-1.12,4.59-1.98,6.77-1.04,2.6-2.39,5.08-3.62,7.62,4.23,3.6,7.59,7.7,10.03,12.68,.33-.31,.64-.5,.8-.77,1.61-2.83,3.05-5.76,4.84-8.48,1.12-1.71,1.24-4.29,3.82-4.88,.13-.03,.22-.33,.29-.52,1.18-3.26,2.62-6.45,3.45-9.79,1.2-4.84,2.08-9.76,2.87-14.69,.65-4.04,.98-8.13,1.45-12.19l-.04,.03Zm-32.13,45.26c-.47,.76-.91,1.45-1.33,2.16-2.63,4.39-5.28,8.78-7.88,13.19-1.36,2.32-3.64,3.32-5.92,4.33-.37,.16-.91-.05-1.38-.1-1.02-.12-2.03-.28-3.05-.36-2.09-.17-3.78,1.05-5.64,1.68-.8,.27-1.1,1.35-.5,2.11,.51,.65,1.32,1.06,2.12,1.68,.14,.7,.27,1.65,.51,2.57,.27,1.07,1.09,1.43,2.08,1.21,1.05-.24,2.07-.64,3.11-.94,.38-.11,.8-.23,1.18-.18,3.05,.38,5.91-.39,8.72-1.44,3.95-1.46,7.39-3.78,10.62-6.44,2.88-2.37,5.57-4.95,8.06-7.74-1.67-2.14-3.4-4.05-4.77-6.19-1.5-2.36-3.5-4.06-5.93-5.54ZM-88.34,102.47c-3.95,.9-5.98,3.16-6.31,6.86-.07,.83-.1,1.66-.08,2.49,.05,2.04,.9,3.7,2.34,5.15,2.04,2.07,4.69,2.53,7.36,3.03,3.78,.7,5.26-1.1,6.48-4.07,.8-1.95,.08-3.46-1.71-4.41-1.44,2.84-2.4,3.52-4.6,3.08,2.23-.49,3.56-1.67,3.98-3.82-1.63-1.27-3.51-.82-5.25-1.03l-.85-1.72-.77,.91c-.43-.75-.03-1.22,.39-1.68,.64-.7-.59-1.17-.35-1.44,1.23-1.43-.06-2.23-.62-3.34Zm177.75-8.69c.48-1.64-.11-3.06-1.2-4.32-.92-1.07-1.61-1.24-2.91-.7-1.15,.47-2.28,1.01-3.41,1.53-1.81,.83-3.6,1.73-5.44,2.5-2.36,.98-4.82,1.74-7.15,2.79-4.42,1.99-8.77,4.1-13.15,6.17-.47,.22-.9,.51-1.64,.94,11.8-3.01,23.25-5.93,34.9-8.91ZM-83.47,181.9c-.82,.1-1.67,.09-2.45,.32-7.14,2.12-10.05,12.16-5.14,17.76,2.22,2.53,4.99,3.38,8.27,2.42,7.25-2.11,10.11-12.65,4.91-18.12-1.51-1.59-3.35-2.43-5.59-2.4ZM-45.38,105.96c2.1,.32,2.44,.19,2.55-1.55,.19-2.9,.39-5.83,.25-8.72-.07-1.46-.73-2.95-1.38-4.3-.64-1.33-1.28-1.48-2.7-1.14-.7,.17-1.39,.39-2.24,.63,3,4.79,2.43,10.13,3.52,15.08ZM171.7,242.32c1.79,2.02,3.5,3.92,5.17,5.85,1.27,1.47,2.46,3,3.76,4.44,.31,.35,1.07,.73,1.35,.58,.46-.25,1-.93,.97-1.4-.05-.93-.29-1.94-.75-2.75-.88-1.57-1.88-3.08-2.96-4.52-1.57-2.09-3.47-3.87-5.65-5.7-.17,.79-.26,1.78-.41,1.78-1.31,.07-1.09,1.23-1.49,1.72ZM72.9,93.65c-.93-2.58-2.66-3.99-4.91-5.1-.31,2.39,.03,4.69,.95,6.53,1.25-.45,2.52-.91,3.96-1.43Zm61.23,37.58h-2.41l-1.09,1.35c.6,.59,1.16,1.15,1.67,1.67l1.61-.9,.22-2.12Zm34.01,101.62l-1.08,1.44,1.73,1.54,1.56-.79c.06-.75,.12-1.46,.19-2.19h-2.4Zm30.99-107.38c-1.6-.39-2.82-.12-3.49,1.36,.56,.51,1.11,1.01,1.71,1.55l1.53-.84c.07-.62,.15-1.29,.24-2.07Zm34.38,71.57c-.37,.53-.71,1.02-1.01,1.44,.65,.55,1.23,1.05,1.77,1.5,.55-.29,1.07-.56,1.48-.77l.22-2.17h-2.45Zm-59.37-22.33c.62,.55,1.2,1.07,1.73,1.54,.54-.27,1.08-.54,1.56-.78,.06-.75,.12-1.46,.19-2.19h-2.39l-1.08,1.44Zm-14.25-105.72l.28-2.16h-2.5l-.99,1.44,1.72,1.49,1.49-.77Zm45.68,136.14c-.36,.56-.71,1.09-.96,1.48,.65,.55,1.18,1,1.73,1.47l1.49-.81c.07-.71,.15-1.4,.22-2.15h-2.49Zm-97.06-62.45c.05-.69,.11-1.4,.16-2.13h-2.38l-1.08,1.47c.6,.53,1.16,1.02,1.76,1.55l1.53-.89Zm73.73,72.45c-.35,.55-.68,1.06-.94,1.48,.58,.5,1.12,.95,1.71,1.46l1.49-.8c.09-.8,.16-1.44,.23-2.15h-2.49ZM-2.29,101.21l1.79,1.51,1.51-.86,.2-2.13c-.93,0-1.72,0-2.41,0l-1.09,1.48ZM133.51,230.58h-2.49c-.32,.46-.69,1.01-.99,1.44,.63,.54,1.19,1.03,1.73,1.49l1.48-.79,.27-2.14Zm-3.76-120.4l.2-2.12c-.86,0-1.65,0-2.45,0-.3,.53-.59,1.05-.78,1.4,.56,.65,1,1.17,1.43,1.67l1.6-.95Zm3.33-15.39l.21-2.15h-2.47l-.74,1.37c.49,.61,.93,1.16,1.37,1.71,.45-.26,1.03-.58,1.63-.93Zm47.51,67.87c.06-.63,.13-1.35,.2-2.1h-2.48l-.67,1.36c.53,.69,.94,1.23,1.31,1.72l1.64-.98Zm20.15,21.75l1.47-.9c0-.69,0-1.34,0-2.01-.79-.05-1.47-.09-2.13-.13-.41,.55-.81,1.08-1.09,1.47l1.76,1.57Zm-88.47-16.51c.61,.45,1.19,.89,1.83,1.36,1.12-.44,1.8-1.32,1.6-2.85-.84,0-1.62,0-2.32,0l-1.1,1.48Zm61.24-31.05c.07-.72,.13-1.38,.2-2.12h-2.31c-1.55,1.33,.31,2.07,.35,3.15,.61-.35,1.13-.66,1.75-1.02Zm32.3,29.09c-.84,.07-1.61,.14-2.48,.22,.16,1.08,.3,2,.45,2.96,.72-.39,1.3-.71,1.82-1,.07-.73,.14-1.38,.21-2.18Zm-60.18-91.58c.32,.68,.57,1.19,.77,1.61l1.71-.97c.06-.74,.12-1.4,.17-2.08-1.34-.32-1.87,.7-2.66,1.44Zm23.79,219.25c.15-1.03,.24-1.71,.34-2.39h-2.6c-.32,1.84,1.34,1.53,2.26,2.39Zm-30.46-120.38c.17,.98,.3,1.75,.44,2.63l1.63-.63,.18-2.21c-.74,.07-1.35,.13-2.25,.21Zm-9.84-7.62c.75-1.54,.6-2.23-.7-2.98l-1.12,1.49,1.82,1.5ZM103.86,7.13l1.29-1.05c-.4-.71-.77-1.37-1.16-2.06-.52,.78-.92,1.38-1.32,1.98,.37,.35,.76,.73,1.19,1.13ZM51.77,106.62c.61-.37,1.21-.73,1.81-1.1q-.56-1.18-2.4-.38l.59,1.48Zm70.21,17.2c.38-.76,.53-1.61-.34-2.11-.33-.19-1,.18-1.63,.33,.79,.72,1.34,1.22,1.97,1.79Zm9.84-57.47l-.26-.16-.87,1.38,.22,.13c.3-.45,.6-.91,.91-1.36ZM-47.4,89.44l-.16-.61-2.05,.62,.13,.48c.69-.16,1.38-.33,2.08-.49Zm225.89,86.04l.53-.21-.47-1.26-.42,.14c.12,.44,.24,.88,.36,1.32Z"/><path class="h" d="M201.79,198.46c-.47,4.07-.79,8.16-1.45,12.19-.79,4.92-1.67,9.85-2.87,14.69-.83,3.34-2.27,6.54-3.45,9.79-.07,.19-.16,.49-.29,.52-2.58,.59-2.7,3.17-3.82,4.88-1.78,2.71-3.23,5.65-4.84,8.48-.16,.28-.47,.46-.8,.77-2.44-4.98-5.81-9.08-10.03-12.68,1.23-2.54,2.58-5.02,3.62-7.62,.87-2.18,1.42-4.49,1.98-6.77,.35-1.45,1.22-2.81,.85-4.43-.05-.24,.46-.61,1.02-1.28,.25,1.41,.41,2.31,.65,3.66,.68-1,1.12-1.65,1.61-2.37,.71,.08,1.43,.17,2.41,.28-.75-1.33-1.87-2.45-.05-4.03-1.17,0-1.71,.04-2.24,0-1.4-.14-2.37-1.46-2.29-2.88,.46-7.34,.73-14.68,.32-22.05-.39-6.96-1.55-13.79-3.22-20.52-.51-2.07-.42-3.75,1.23-5.36,.6,.07,1.33,.16,2.34,.28-.5-.8-.88-1.4-1.3-2.08l.85-1.86c-1.7-.03-3.28-.07-4.42-1.57l-.12,1.67c-.13-.07-.31-.1-.33-.17-1.68-5.94-3.29-11.89-5.04-17.81-.48-1.63-.33-2.96,.87-4.29,.66,.08,1.39,.16,2.41,.29-.5-.8-.87-1.4-1.3-2.08,.24-.53,.49-1.08,.84-1.84-1-.1-1.86-.14-2.7-.29-.78-.14-.82-1.73-2.2-1.11-.62-2.38-1.27-4.82-1.88-7.27-.75-3.02-1.45-6.06-2.18-9.09-.24-1.01-.47-2.02-.71-3.03-.05-.2-.03-.45-.14-.6-.26-.36-.58-.67-.88-1-.19,.39-.58,.8-.54,1.16,.13,1.16,.39,2.32,.65,3.46,.3,1.34,.66,2.66,1.02,4.08-1.66-.36-2.57-1.93-4.56-1.88,.43,.44,.61,.69,.85,.86,.8,.55,1.63,1.05,2.44,1.59,1.4,.93,2.08,2.2,2.39,3.92,.59,3.27,1.53,6.47,2.26,9.71,.14,.6,.02,1.25,.02,1.93,.31,.56,.82,1.18,1.02,1.89,1.48,5.13,2.93,10.27,4.34,15.41,.61,2.21,.95,4.51,1.77,6.62,.35,.91-.89,1.69,.25,2.59,.6,.48,.55,1.78,.76,2.72,.21,.95,.37,1.91,.58,2.86,.21,.95,.45,1.89,.67,2.84,.04,.2,.03,.41,.05,.71-1.65,1.12-2.57-.21-3.73-1.67,0,1.3,0,2.02,0,2.85-.65,.51-1.35,1.04-2.4,1.85,1.09,.16,1.8,.27,2.64,.4l.6,2.99c.62-.94,1.03-1.55,1.43-2.15,2.41-.07,2.37-.01,2.84,2.18,1.96,9.05,1.64,18.22,1.57,27.38-.02,2.76,.03,5.62-.64,8.27-1.33,5.26-2.88,10.49-5.21,15.43-.91,1.93-1.87,3.83-2.81,5.73-2.16-.72-1.12-2.02-.83-3.28-1.7,.2-3.12-.08-4.22-1.53v2.24l-2.36,1.94c1.06,.17,1.77,.28,2.59,.41,.14,.84,.28,1.7,.51,3.03l1.55-2.36c.51,.07,1.13,.16,2.15,.3-.65,.65-1.04,.99-1.37,1.38-.75,.92-1.49,1.84-1.46,3.13,0,.34,0,.74-.17,1.01-1.06,1.82-2.17,3.61-3.49,5.77l-.97-1.82c-.31,.49-.5,.65-.49,.81,.02,.62,.09,1.23,.14,1.84-.73,.59-1.41,1.13-2.3,1.85l2.03,.58c-1.85,2.99-3.45,5.99-5.48,8.67-.88,1.17-2.62,1.71-3.98,2.52-.16,.1-.4,.12-.59,.1-1.09-.13-2.17-.41-3.25-.39-1.1,.02-2.19,.32-3.54,.53-.12-.93-.28-1.86-.36-2.8-.54-6.49-.97-12.99-1.62-19.47-1.05-10.56-2.31-21.11-3.32-31.67-.39-4.14-.23-8.33-.51-12.48-.38-5.61-.93-11.2-1.41-16.8-.04-.41-.15-.83-.12-1.24,.1-1.35,.64-1.72,2.04-1.49,.32,.05,.65,.06,1.22,.1-.51-.76-.88-1.32-1.32-1.97,.23-.57,.47-1.19,.71-1.78-.2-.13-.31-.27-.42-.27-2.86-.06-3.02-.21-3.43-2.97-.77-5.22-1.53-10.44-2.35-15.64-.23-1.43-.67-2.83-.95-4.26-.13-.63-.11-1.28-.18-2.27-.11-.14-.6-.54-.85-1.06-1.93-4-3.27-8.21-4.65-12.58h1.82c.13,.91,.25,1.72,.42,2.96,.64-.89,1.09-1.51,1.59-2.22l2.42,.12-1.21-1.92,.83-2.03c-1.86,.36-3.22-.2-4.48-1.42l.11,2.28c-.51,.37-1.06,.76-1.72,1.23-.24-.43-.49-.75-.6-1.12-1.57-4.98-2.78-10.04-3.11-15.26-.12-1.97,.23-3.94,.95-5.98,1.3,.75,.5,2.06,1.26,2.99,.52-.75,.97-1.4,1.46-2.11l2.47,.33-1.32-2,.75-1.97c-.58-.03-1.03-.06-1.48-.08-1.73-.09-2.24-.67-1.87-2.37,.65-2.98,1.37-5.95,2.06-8.92,.07-.3,.17-.59,.59-.89l.54,2.79c.64-.93,1.09-1.58,1.58-2.3,.73,.1,1.45,.2,2.49,.34l-1.33-2.01,.74-1.97c-1.61-.16-3.42,.18-3.92-2.11,1.15-2.76,2.35-5.69,3.62-8.6,.09-.2,.62-.2,.7-.22,.19-.95,.21-1.82,.54-2.54,.72-1.55,1.9-2.88,1.77-4.8-.03-.47,.7-1.2,1.25-1.48,1.6-.81,3.24-1.59,4.95-2.14,2.22-.73,4.52-1.24,6.78-1.85l.21,.36c-1.19,1.03-2.39,2.06-3.64,3.13-.51-.44-.95-.82-1.61-1.39,0,1.02,0,1.74,0,2.59-.35,.28-.78,.62-1.21,.95-.42,.32-.83,.52-.74,1.28,.06,.47-.55,1.04-.91,1.53-.84,1.13-1.78,2.2-2.26,3.57,1.92-1.55,3.08-3.8,5.39-5.5,.21,1.23,.36,2.11,.58,3.39,.62-.91,1.02-1.5,1.51-2.22l2.4,.11c-.43-.74-.78-1.33-1.17-2l.79-1.68-1.23-.69c2.62-2.29,5.35-4.19,8.65-5.63,.2,1.68-1.67,1.51-1.83,2.77l2.23,.24,.45,3.1c.7-.99,1.14-1.62,1.67-2.35l2.43,.29c-.98-1.3-1.55-2.48-.46-3.91l-2.73-.31-.05-.34c.39-.19,.77-.44,1.18-.56,4.94-1.54,9.86-1.32,14.73,.32,4.26,1.43,8.06,3.71,11.54,6.52,5.78,4.66,10.49,10.29,14.67,16.4,7.81,11.42,13.55,23.87,18.36,36.79,7.67,20.63,12.8,41.92,16.3,63.62,.33,2.06,.65,4.11,.95,6.17,.06,.39,0,.8,0,1.21-1.66,.96-2.33-.58-3.48-1.46,0,.96,0,1.67,0,2.49-.65,.53-1.34,1.08-2.32,1.88,1.03,.19,1.78,.33,2.59,.48,.14,.86,.29,1.71,.51,3.01,.65-.99,1.04-1.59,1.44-2.2,1.99-.1,2.1-.06,2.29,1.93,.88,9.19,1.84,18.37,2.58,27.57,1.19,14.83,1.24,29.69,.63,44.54-.29,7.14-1.06,14.26-1.3,21.41-.1,2.84-1.36,5.18-2.06,7.76-.54,2-1.01,4.02-1.52,6.03-.21,.86-.42,1.72-.66,2.71-1.1-.14-2.05-.23-2.99-.4-3.89-.7-7.78-1.39-11.65-2.15-1.22-.24-2.38-.75-3.59-1.05-2.76-.68-5.54-1.26-8.29-1.98-2.08-.55-4.1-1.3-6.16-1.89-3.47-.98-6.91-2.06-10.43-2.81-4.57-.97-8.98-2.31-13.24-4.24-2.26-1.02-4.63-1.81-6.99-2.72-.34-1.38-2.42-2.43-.59-4.5-1.97,.28-3.36-.06-4.47-2.04l-.18,3.37c-.93-.52-1.68-.84-2.3-1.32-3.36-2.6-6.45-5.51-8.96-8.94-1.55-2.12-2.95-4.37-4.21-6.67-1.18-2.17-.81-2.69,1.6-2.67,3.03,.03,5.96-.48,8.74-1.64,5.36-2.23,10.21-5.31,14.46-9.28,1.37-1.28,2.66-2.64,4-3.95,.76-.75,1.32-1.67,2.68-1.74,.55-.03,1.12-1.09,1.55-1.76,.52-.8,.48-1.83,1.78-2.27,.71-.24,1.05-1.69,1.46-2.63,.51-1.19,1.29-2.05,2.4-2.76,.84-.53,1.64-1.33,2.13-2.2,3.47-6.06,5.75-12.61,7.59-19.3,.9-3.26,1.28-6.67,1.89-10.01,.43-2.38,.85-4.76,1.29-7.24,.84,0,1.65,0,2.58,0l.58,3.1c.67-1,1.12-1.67,1.59-2.38l2.31,.36c-.61-1.28-1.63-2.43-.19-3.94-1.87-.06-3.42-.18-4.53-1.57,0,.72,0,1.44,0,2.38-.57,.37-1.23,.8-2.08,1.36-.08-.56-.16-.81-.14-1.06,.74-6.97,1.31-13.95,1.29-20.97,0-3.81-.15-7.62-.34-11.43-.08-1.63,.4-2.96,1.37-4.29,.75,.1,1.48,.21,2.53,.35-.53-.8-.89-1.35-1.33-2,.21-.55,.44-1.17,.66-1.77-.15-.13-.25-.28-.34-.28-2.98-.11-3.29-.31-3.5-3.35-.35-5.12-.62-10.25-.84-15.39-.21-4.92-.25-9.85-.47-14.77-.11-2.56-.45-5.11-.67-7.67-.11-1.31-.16-2.63-.27-3.94-.04-.5-.16-.98-.51-1.47-.85,1.81-.42,3.72-.46,5.57-1.73,1.2-2.64-.23-3.87-1.42v2.61c-.6,.48-1.29,1.03-2.29,1.83,1.02,.2,1.76,.34,2.64,.51l.47,2.9c.5-.74,.84-1.14,1.05-1.59,.3-.63,.8-.84,1.35-.61,.44,.19,1,.59,1.1,1,.24,1,.3,2.06,.33,3.09,.34,9.64,.62,19.28,.98,28.92,.21,5.68,.53,11.36,.8,17.04,.03,.62,0,1.24,0,1.79-1.62,1.02-1.99-.86-3.14-1.24,0,.86,0,1.58,0,2.44-.6,.47-1.29,1.01-2.27,1.78,1,.16,1.69,.27,2.61,.41,.13,.79,.27,1.65,.47,2.86,.68-.85,1.22-1.52,1.8-2.24,.84,1.68,.75,8.5-.12,14.02-1.7-.78-1.63-2.11-.8-3.85-1.98,.66-3.15-.37-4.42-1.59v2.56c-.68,.57-1.33,1.11-2.24,1.85,1.12,.2,1.9,.33,2.62,.46,.14,.93,.25,1.73,.44,2.96,.7-1.02,1.14-1.66,1.5-2.18l2.96-.26Zm19.65-52.32c.06,0,.14,.04,.19,.02,.06-.02,.1-.09,.15-.14-.16-.16-.37-.48-.48-.45-1.42,.4-2.4-.19-3.18-1.31-.07-.1-.35-.05-.62-.09,.05,.81,.1,1.55,.15,2.23-.74,.6-1.41,1.14-2.33,1.89l2.66,.46c.15,.92,.29,1.73,.44,2.64,.94-.98,1.7-1.76,2.63-2.73,.1-.64,.25-1.59,.4-2.54v.02Zm-39.38-70.23c.19,.93,.37,1.81,.61,3.01,.67-.99,1.11-1.65,1.54-2.28l2.53,.27-1.38-1.93,.79-2.16c-1.86,.47-3.16-.27-4.51-1.77,.08,1.23,.13,1.96,.18,2.66-.73,.59-1.4,1.13-2.35,1.9l2.6,.3Zm12.06,148.51c-1.88,.45-3.02-.49-4.38-1.71,1.28,2.38-.9,3.05-1.99,4.42,1.02,.12,1.74,.21,2.44,.3,.17,.98,.32,1.82,.53,3.02,.69-1.01,1.14-1.67,1.57-2.3,.81,.05,1.52,.09,2.7,.16-1.42-1.27-1.7-2.42-.88-3.88Zm16.92,41.2l2.69,.25c-1.5-1.29-1.52-2.54-.52-4.46-2.28,1.27-3.28-.21-4.61-1.19v2.47l-2.23,1.86,2.62,.46c.14,.93,.25,1.73,.44,2.97,.7-1.02,1.14-1.67,1.61-2.36Zm-38.66-46.38c-2.16,.9-3.32-.17-4.61-1.4,0,1.06,0,1.8,0,2.54-.66,.57-1.33,1.14-2.19,1.88,1.12,.16,1.84,.26,2.52,.36,.17,.97,.31,1.81,.53,3.04,.69-1.04,1.13-1.7,1.6-2.4l2.63,.35c-1.37-1.35-1.58-2.58-.49-4.38Zm58.77,7.4c-1.66,.3-2.99-.31-4.22-1.85v2.57c-.57,.94-1.71,.98-1.89,2.04,.82,.11,1.54,.21,2.25,.31,.17,.97,.31,1.81,.52,3.05,.68-1.03,1.12-1.69,1.58-2.38,.38,.04,.71,.06,1.05,.1,.38,.05,.75,.13,1.24,.22q-.99-2.07-.53-4.05Zm-45.96,31.75c.16,.95,.3,1.83,.52,3.17l1.61-2.46c.79,.09,1.5,.18,2.69,.32-1.51-1.32-1.56-2.57-.6-4.38-2.14,.98-3.25-.22-4.55-1.33,0,1.04,0,1.78,0,2.53-.66,.54-1.32,1.07-2.27,1.85l2.6,.29Zm-32.67-3.35c.71,.86,0,2.02,.94,2.81,.5-.76,.95-1.42,1.38-2.06l2.76,.3c-1.66-1.33-1.57-2.6-.88-4.08-1.8,.3-3.14-.14-4.29-1.93v2.79l-2.32,1.91c1.1,.12,1.82,.19,2.42,.26Zm29.35,18.74c.16,1.02,.3,1.87,.5,3.15,.69-1.03,1.13-1.69,1.61-2.4,.73,.09,1.44,.18,2.16,.27l.52-.2c-1.84-1.02-1.27-2.4-.86-3.93-1.86,.53-3.05-.27-4.25-1.45,.74,2.14-.79,3.11-2.3,4.33,1.12,.09,1.79,.15,2.63,.22Zm10.36-189.67l-2.34,1.92c1.14,.15,1.87,.24,2.67,.35l.47,3.02c.69-1.02,1.13-1.68,1.6-2.37,.78,.1,1.5,.19,2.49,.31l-1.32-1.99c.26-.72,.47-1.32,.77-2.18-1.93,.52-3.2-.16-4.47-1.79,.06,1.23,.1,1.96,.13,2.74Zm-16.56,107.99l.61-.35c-2.11-.89-1.13-2.31-.97-3.54-.9-.09-1.7,0-2.35-.27-.63-.27-1.09-.91-1.63-1.39,.41,2.06-.76,3.14-2.6,4.19l2.72,.49,.53,2.97c.69-1.02,1.14-1.68,1.6-2.37l2.08,.27Zm35.27-73.28c0,1.31,0,2.09,0,2.82-.72,.59-1.37,1.14-2.28,1.89,1.1,.13,1.83,.22,2.63,.32l.5,2.96c.69-.96,1.19-1.64,1.66-2.31,.78,.12,1.44,.23,2.4,.37-.54-.86-.92-1.46-1.29-2.04l.73-2.11c-1.82,.35-3.18-.08-4.35-1.91Zm1.05,125.8v2.63c-.66,.72-1.6,.96-2.09,1.97,.94,.11,1.66,.2,2.4,.28,.16,.96,.3,1.8,.5,3.03l1.58-2.32c.8,.05,1.52,.09,2.83,.17-1.8-1.26-1.51-2.56-.83-4.33-2.11,1.09-3.14-.15-4.4-1.45Zm-31.57,39v2.69c-.76,.83-1.71,1.07-2.18,2.08l2.39,.28c.16,.96,.3,1.81,.51,3.03,.69-1.01,1.14-1.67,1.58-2.31,.8,.05,1.52,.09,2.23,.14l.5-.25c-2.03-.92-1.2-2.31-.86-3.95-1.91,.86-3.01,.01-4.17-1.7Zm36.07-49.2l.34-.28c-1.33-1.05-1.22-2.32-.54-3.81-1.81,.31-3.14-.15-4.29-1.92,0,1.29,0,2.07,0,2.78-.73,.61-1.39,1.15-2.31,1.91,1.11,.12,1.82,.19,2.43,.26,.68,.87,.01,2.01,.92,2.82l1.41-2.12,2.04,.35Zm-63.33-93.83l2.72,.36c.15,.94,.28,1.78,.47,3.02,.69-1.01,1.13-1.66,1.61-2.36,.77,.1,1.49,.19,2.47,.31-.55-.83-.95-1.44-1.32-2l.76-2.17c-1.92,.49-3.19-.16-4.39-1.73,0,1.21,0,2,0,2.74-.7,.55-1.34,1.04-2.34,1.83Zm7.57,37.91c-.66,.72-1.6,.96-2.1,1.97l2.41,.29c.16,.95,.3,1.8,.5,3.03,.69-1.02,1.14-1.67,1.58-2.32,.8,.05,1.51,.1,2.82,.18-1.78-1.26-1.51-2.55-.89-4.12-1.94,.65-3.12-.2-4.32-1.71,0,1.15,0,1.87,0,2.68Zm-12.02-68.11l-.38,.29c.05,.73,.1,1.46,.15,2.17-.73,.59-1.4,1.13-2.35,1.91,1.1,.13,1.82,.21,2.6,.3,.19,.93,.37,1.81,.61,3,.67-.98,1.11-1.65,1.54-2.27l2.52,.27-1.38-1.93c.25-.68,.48-1.31,.76-2.1-1.73,.2-3.19,0-4.08-1.64Zm55.24,185.49c.17,1.05,.3,1.88,.51,3.15l1.62-2.44c.77,.1,1.48,.19,2.19,.28l.48-.22c-1.8-1-1.37-2.32-.77-3.83-1.84,.43-3.12-.32-4.36-1.7v2.63c-.65,.53-1.31,1.07-2.28,1.85,1.1,.12,1.81,.2,2.62,.28Zm.17-183.44l.82-2.33c-2.02,.78-3.22-.08-4.44-1.54,0,1.17,0,1.96,0,2.7-.73,.57-1.39,1.09-2.33,1.83,1.19,.16,1.92,.25,2.72,.35,.15,.94,.28,1.77,.47,3.02,.69-1.01,1.13-1.66,1.61-2.36l2.47,.31c-.52-.78-.89-1.34-1.32-1.98Zm-1.45,126.13c.77,.04,1.53,.07,2.81,.13-1.59-1.28-1.65-2.46-.51-4.31-2.29,1.05-3.4-.13-4.74-1.4,.05,1.1,.08,1.84,.11,2.56-.72,.59-1.39,1.14-2.31,1.9l2.59,.44c.17,.95,.31,1.77,.53,3.03l1.51-2.35Zm-50.26-1.73c-.66,.72-1.6,.96-2.1,1.97,.94,.11,1.66,.2,2.41,.29l.5,3.03,1.58-2.32c.8,.05,1.51,.1,2.82,.18-1.78-1.26-1.51-2.55-.89-4.12-1.94,.65-3.12-.2-4.32-1.71,0,1.15,0,1.87,0,2.68Zm38.87-134.39l2.51,.31c-.56-.84-.97-1.45-1.34-2.01,.27-.67,.5-1.23,.9-2.21-1.97,.64-3.28-.09-4.6-1.74,.07,1.23,.11,1.96,.16,2.72l-2.34,1.93c1.15,.15,1.88,.25,2.67,.35l.48,3.04c.66-1,1.06-1.61,1.57-2.39Zm-23.8,45.48l-.39,.25c.06,.73,.11,1.46,.17,2.17l-2.36,1.91c1.08,.14,1.79,.22,2.6,.32,.19,.91,.37,1.79,.62,3.01,.66-.99,1.1-1.65,1.52-2.29l2.55,.28-1.4-1.95c.25-.66,.48-1.28,.83-2.23-1.84,.48-3.21,.05-4.14-1.47Zm-22.23,60.52l.11,2.52c-.73,.6-1.39,1.14-2.32,1.91,1.1,.18,1.87,.31,2.61,.43,.15,.96,.29,1.78,.42,2.6h.39c.4-.63,.79-1.26,1.21-1.92,.79,.04,1.55,.07,2.45,.11q-1.13-1.75-.66-3.73-2.36-.27-4.21-1.92Zm14.33,67.85c.6,2.14-.87,3.13-2.36,4.3l2.58,.33c.16,.95,.29,1.8,.5,3.09,.69-1.02,1.12-1.67,1.6-2.38,.75,.07,1.49,.14,2.23,.21-1.23-1.26-.92-2.57-.39-4.01-1.72,.22-3.11,.03-4.16-1.52Zm35.37-132.29h2.47l-1.21-1.79c.25-.69,.46-1.29,.8-2.23-2.04,.83-3.15-.38-4.54-1.56,.09,1.12,.14,1.85,.19,2.55-.75,.6-1.41,1.14-2.35,1.9,1.11,.19,1.87,.32,2.66,.45l.51,2.94c.64-.99,1.04-1.6,1.46-2.26Zm19.4,17.78c-.74,.6-1.42,1.15-2.35,1.9,1.07,.18,1.83,.32,2.66,.46,.15,.89,.28,1.72,.48,2.92l1.51-2.2h2.46l-1.22-1.78c.25-.69,.46-1.29,.79-2.21-1.99,.71-3.16-.34-4.53-1.69,.09,1.11,.14,1.77,.21,2.61Zm-50.93-71.02c0,.85,0,1.63,0,2.37l-2.34,1.87,2.72,.35c.14,.89,.28,1.73,.48,2.95,.66-.94,1.1-1.57,1.58-2.24l2.46,.14-1.29-1.89c.25-.62,.5-1.23,.76-1.88q-2.1-.17-4.36-1.67Zm74.37,175.94l-.2-.38c-1.79,.74-2.89-.5-4.27-1.65,.08,1.13,.12,1.86,.17,2.55-.74,.6-1.41,1.14-2.33,1.89l2.66,.46,.5,2.95c.65-1.01,1.05-1.62,1.47-2.28h2.47c-.5-.74-.87-1.29-1.24-1.83,.28-.62,.53-1.16,.77-1.7Zm-83.66-98.64c-1.88,.42-3.22-.21-4.44-1.85,0,1.23,0,2,0,2.74-.71,.57-1.36,1.11-2.31,1.88,1.14,.15,1.86,.25,2.69,.36,.14,.87,.27,1.72,.47,2.95l1.58-2.24c.74,.04,1.47,.09,2.44,.15l-1.26-1.95,.83-2.03Zm14.39-47.55l.13,.4c.72,.09,1.45,.18,2.24,.29l.48,2.95c.67-.95,1.11-1.59,1.57-2.24,.76,.04,1.48,.07,2.48,.12l-1.31-1.87c.25-.64,.49-1.25,.75-1.9q-1.99-.14-4.4-1.67l.12,2.34c-.68,.52-1.37,1.06-2.06,1.59Zm39.05,17.77c.17,.99,.31,1.8,.52,3.01,.66-1.04,1.05-1.66,1.47-2.31l2.48,.15-1.25-1.96c.28-.66,.51-1.21,.84-2.01-1.87,.38-3.23-.19-4.44-1.89v2.76c-.71,.58-1.36,1.12-2.29,1.88,1.1,.15,1.82,.25,2.67,.37Zm-65.41-47.5c.17,.99,.31,1.8,.52,3.01,.66-1.04,1.05-1.66,1.47-2.31,.77,.05,1.51,.09,2.48,.15-.51-.8-.9-1.4-1.25-1.96,.28-.65,.51-1.21,.84-2.01-1.87,.38-3.23-.19-4.44-1.89,0,1.25,0,2.02,0,2.76-.71,.58-1.36,1.12-2.29,1.88,1.1,.15,1.82,.25,2.67,.37Zm92.38,190.98c-1.93,.54-3.21-.25-4.46-1.76,0,1.2,0,1.98,0,2.72-.71,.56-1.37,1.08-2.35,1.86,1.22,.16,1.94,.25,2.74,.35l.48,2.94c.66-.94,1.11-1.58,1.57-2.24l2.47,.13-1.3-1.89,.85-2.13Zm-60.28-176c.14,1,.25,1.79,.37,2.66,.99-.91,1.87-1.71,2.89-2.65,.14-.82,.32-1.9,.53-3.19-1.83,.75-2.93-.49-4.3-1.63,.07,1.13,.11,1.87,.15,2.54l-2.32,1.91c.67,.12,.99,.18,1.3,.22,.4,.05,.81,.08,1.37,.13Zm-5.51-29.44c.59,2.12-.84,3.13-2.39,4.31l2.54,.28,.43,1.14c1.25-.27,2.42-.52,3.59-.77-.21-.59-.53-1.1-.52-1.6,0-.55,.31-1.09,.58-1.97-1.85,.52-3.1,.02-4.23-1.4Zm56.85,98.35l1.23-1.39,1.72-.1-2.72-2.2c.07,1.1,.11,1.84,.15,2.51-.75,.61-1.4,1.16-2.34,1.93l2.66,.35c.14,.88,.28,1.72,.48,2.94,.66-.93,1.11-1.57,1.59-2.25,.69,.05,1.36,.1,2.31,.17-.57-.92-1-1.6-1.66-2.65,.26,1.96-1.26,1.71-1.66,2.3l-1.77-1.62Z"/><path class="h" d="M97.8,135.3c-3.21-2.86-6.53-5.57-10.24-7.77-2.8-1.66-5.47-3.54-8.3-5.13-3.59-2.01-7.53-3.15-11.43-4.41-5.28-1.7-10.47-3.66-15.75-5.36-2.63-.85-5.4-1.26-8.05-2.04-7.16-2.09-14.53-2.85-21.9-3.69q-.72-.08-1.38-.82c1.79-.54,2.08-.5,3,.53l.89-1.42c-1.93,.29-3.34-.14-4.53-1.96,0,.95-.02,1.39,0,1.83,.06,1.22-.19,1.52-1.42,1.35-2.33-.31-4.64-.77-6.98-1.04-2.34-.27-4.69-.43-7.04-.54-1.65-.08-3.3-.02-4.98-.02q.4-1.81,3.14-1.82c-.42-.62-.8-1.18-1.23-1.81l.83-2.06c-1.82,.26-3.24-.18-4.5-1.41l.13,2.23-2.35,1.86,2.69,.38c.07,.83,.13,1.67,.22,2.77-13.54,.47-26.91-.2-40.43,1.23,.09-1.16,.18-1.97,.22-2.78,.12-2.49,.29-4.98,.32-7.48,.03-2.29-.93-4.31-2.14-6.2,2.26-1.66,13.81-3.96,19.26-3.82l.56,2.36,1.48-2.19c.59,.04,1.26,.09,2.05,.15,.19-.3,.35-.76,.67-.99,.31-.22,.79-.24,1.2-.28,4.28-.45,8.57-.81,12.84-1.33,9.92-1.22,19.83-.03,29.74,.14,2.43,.04,4.86,.12,7.28-.05,3.46-.24,6.9-.76,10.35-1.03,1.58-.12,3.18,.15,4.77,.12,3.67-.08,7.35-.24,11.02-.36,.55-.02,1.11-.04,1.67-.05,2.64-.04,3.6,.76,4.13,3.44,2.22,.68,3.18,2.26,3.38,4.5,.15,1.71,.46,3.41,.73,5.3-5.12,2.42-10.24,4.84-15.71,7.42l-1.13-1.76-.32,.15v2.01l-2.42,2.19,2.7,.26,.53,3.04,1.6-2.3,2.46,.33c-.52-.84-.9-1.44-1.43-2.29,.52-.33,.96-.78,1.49-.93,4.32-1.26,8.65-2.47,13.15-3.74,.29,.63,.65,1.15,.77,1.72,.86,4.2,3.09,7.72,5.59,11.04,2.89,3.84,6.22,7.26,10.47,9.69,2.17,1.24,4.41,1.83,6.92,1.91,4.01,.12,7.87-.59,11.71-1.58,3.68-.95,7.48-1.44,11.03-2.97,.79-.34,2,.18,2.99,.41,.65,.16,1.26,.52,2.11,.88l-1.9,1.78c.94,.16,1.64,.28,2.56,.44,.13,.79,.27,1.64,.42,2.61l1.3-.62c.27,.86,.6,1.68,.79,2.53,.72,3.25,1.52,6.48,2.04,9.76,1.07,6.71,1.96,13.45,2.95,20.18,.16,1.09,.45,2.16,.75,3.52-.59-.31-1-.53-1.61-.86,.05,.91,.09,1.63,.13,2.45l-2.35,1.82c1.03,.16,1.73,.26,2.64,.4l.43,2.72c.31-.24,.56-.39,.76-.59,.22-.23,.4-.5,.79-1,.57,3.01,1.23,5.71,1.57,8.44,.56,4.54,1.08,9.1,1.32,13.67,.32,6.14,.33,12.29,.54,18.44,.17,4.99,.46,9.98,.63,14.97,.09,2.62,.02,5.25,.02,7.9-1.65,.95-2.51-.37-3.67-1.46,0,1.06,0,1.78,0,2.62-.64,.5-1.32,1.03-2.31,1.81l2.55,.39c.17,.87,.34,1.77,.6,3.13,.55-.9,.8-1.46,1.19-1.9,.23-.26,.72-.5,1.01-.43,.29,.07,.49,.54,.72,.84,.03,.05,.01,.14,.02,.2,.14,3.95,.39,7.9,.39,11.85,0,3.33-.46,6.66-.35,9.98,.08,2.46,.7,4.91,1.13,7.36,.24,1.35,.77,2.67,.86,4.02,.4,5.94,1.83,11.63,3.9,17.18,.12,.32,.26,.64,.31,.98,.11,.75,.16,1.51,.25,2.44-2.79,1.49-5.76,2.31-8.81,2.95-3.28,.69-6.6,.82-9.94,.75-3.15-.06-6.24,.4-9.21,1.4-1.68,.57-3.25,1.47-5.14,2.34-1.41-11.27-.15-22.3,1.13-33.33l.42-.07c.14,.51,.28,1.01,.35,1.29,.98-.14,1.97-.27,3.1-.43-.09,.95-.17,1.67-.23,2.31-.62,.34-1.19,.66-1.74,.96-.19-.38-.39-.76-.59-1.14l-.31,.09c.13,1,.27,1.99,.46,3.41,.66-.94,1.11-1.58,1.59-2.28,.73,.04,1.47,.09,2.45,.15-.5-.75-.86-1.31-1.27-1.92,.24-.6,.49-1.22,.85-2.11-2.22,.63-3.44-.54-4.8-2.11,.99-4.57,2.03-9.34,3.06-14.11h.46l.22,2.22c.72-1.05,1.89-.85,3.15-.69-.07,.72-.14,1.43-.21,2.11-.6,.33-1.17,.64-1.75,.96l-.45-1.04-.3,.04c.06,.95,.12,1.89,.19,2.95,1.12-.16,.99-1.31,1.76-1.85,.59,.03,1.33,.07,2.37,.12-.45-.71-.79-1.24-1.21-1.9,.21-.53,.46-1.15,.76-1.92-.43-.05-.74-.11-1.05-.11-2.41,.05-3.52-1.57-3.23-3.87,.73-5.7,2.08-11.33,2.09-17.12,.02-9.86,.14-19.72,.06-29.58-.02-2.62-.6-5.23-.91-7.84-.74-6.27-1.47-12.53-2.19-18.8-.06-.53,0-1.07,0-1.7,2.21-.07,.96,1.89,1.7,2.62,.91-.69,1.84-1.4,3.02-2.3,.09-.9,.22-2.11,.37-3.53-1.66,.42-3.07,.23-3.94-1.41-1.03,.87,.76,2.64-1.28,2.97-1.27-7.08-2.22-14.25-5.48-20.71l1.81-2.72c.73,.1,1.45,.2,2.5,.35-.53-.81-.89-1.35-1.32-2.01,.21-.55,.44-1.17,.74-1.97-1.59-.18-3.33,.18-4.05-2.01-.8,1.35,.65,3.12-1.42,3.38-2.2-2.06-4.42-4.13-6.64-6.19,1.56,.32,1.18-1.49,2.23-1.95l2.01,.27,.48-.22c-1.73-1.04-1.41-2.34-.73-3.86-1.86,.43-3.14-.32-4.39-1.69v2.62c-.67,.55-1.32,1.09-2.26,1.86,1.11,.12,1.82,.2,2.71,.3,0,.96,0,1.84,0,2.71Zm22.08,14.77c-1.63,.89-2.75-.12-4.05-1.55,.07,1.17,.11,1.89,.15,2.66-.7,.57-1.4,1.14-2.35,1.91l2.65,.34c.15,.93,.29,1.77,.43,2.61,.84-1.57,2.34-1.5,3.77-1.68l-.52-2.08,1.55-.28c-.6-.72-1.07-1.28-1.62-1.94Zm4.72,30.39c.16,.98,.31,1.82,.52,3.05l1.6-2.31,2.46,.35c-.54-.85-.92-1.46-1.28-2.03l.67-1.95q-2.34-.14-4.3-1.63v2.38c-.72,.59-1.38,1.14-2.32,1.91,1.09,.1,1.75,.16,2.65,.24ZM51.54,90.18c1.11,.13,1.82,.21,2.6,.31l.61,3c.67-.99,1.11-1.65,1.54-2.27,.82,.09,1.52,.16,2.52,.27l-1.38-1.93,.86-2.35c-2.01,.88-3.19-.2-4.58-1.5,.08,1.14,.13,1.87,.18,2.58-.73,.59-1.4,1.13-2.36,1.91ZM123.53,223.59c-.83-1.32-.96-2.55-.07-4.11-1.92,.44-3.2-.3-4.44-1.69,0,1.13,0,1.87,0,2.63-.65,.53-1.31,1.06-2.22,1.81,1.09,.17,1.86,.3,2.58,.41,.16,.97,.29,1.8,.5,3.06,.72-1.08,1.16-1.74,1.62-2.44l2.04,.33Zm8.04,21.6c-2.19,.57-3.42-.14-4.6-1.38,.68,2.13-.77,3.13-2.28,4.3,1.12,.14,1.84,.23,2.58,.32,.16,.96,.29,1.8,.51,3.09,.69-1.02,1.12-1.67,1.6-2.37,.75,.07,1.49,.14,2.79,.26-1.58-1.32-1.74-2.49-.6-4.21Zm-13.68-37.78c1.2,.21,1.97,.35,2.72,.48,.17,.93,.31,1.77,.53,2.97,.69-1.02,1.14-1.68,1.57-2.31,.82,.05,1.53,.09,2.23,.13-1.25-1.23-.88-2.54-.35-4.08-1.95,.7-3.07-.28-4.29-1.41,.61,2.09-.57,3.16-2.41,4.22ZM-30.09,100.37c1.08,.19,1.85,.32,2.65,.46l.5,2.93c.64-.97,1.03-1.58,1.46-2.24h2.48l-1.21-1.78,.8-2.22c-2.02,.78-3.15-.36-4.56-1.63l.23,2.58-2.35,1.9Zm65.17-.82c0,1.23,0,2.01,0,2.75l-2.32,1.88c1.15,.15,1.87,.25,2.7,.35,.14,.88,.27,1.72,.47,2.95l1.58-2.24c.74,.04,1.47,.09,2.44,.15l-1.26-1.95,.84-2.04c-1.9,.45-3.22-.21-4.45-1.84Zm89.44,177.28c.25-.67,.47-1.28,.8-2.19-1.96,.65-3.17-.31-4.52-1.75,.08,1.18,.14,1.91,.19,2.63-.73,.61-1.42,1.19-2.37,1.99,1.17,.16,1.89,.26,2.67,.36l.49,2.94,1.5-2.18h2.5l-1.25-1.79ZM-13.69,95.8l.5,2.99c.66-1.02,1.05-1.64,1.48-2.29h2.46l-1.23-1.83,.83-1.86c-.97-.09-1.82,0-2.53-.27-.66-.26-1.18-.91-1.99-1.57l.16,2.52-2.34,1.91,2.68,.4Zm37.2-5.25c-.74,.6-1.42,1.15-2.35,1.9,1.07,.18,1.83,.32,2.66,.46l.48,2.92,1.51-2.2c.84,0,1.55,0,2.46,0l-1.22-1.78,.8-2.21c-1.99,.71-3.16-.34-4.53-1.69l.21,2.61Zm91.66,47.46l.12,.4c.72,.09,1.44,.18,2.25,.29,.14,.89,.28,1.73,.48,2.95,.66-.94,1.1-1.57,1.58-2.24,.75,.04,1.47,.08,2.46,.14l-1.29-1.89c.25-.62,.5-1.23,.85-2.12-1.93,.52-3.21-.23-4.46-1.78v2.76c-.69,.52-1.34,1.01-1.99,1.5Z"/><path class="h" d="M116.48,99.42l1.31,2.34c-.76,1.14-1.62,2.43-2.48,3.73-.93-.05-1.3,.63-1.66,1.4l.82-.37c-.64,.98-1.37,1.77-2.56,1.29-2.01,3.71-3.48,7.69-6.42,10.72-2.94,3.02-6.53,4.55-10.89,4.88-6.82,.52-11.41-3.07-15.75-7.45-3.21-3.24-5.72-6.97-7.61-11.1-.7-1.54-1.01-3.27-1.57-5.12,2.68-.64,5.15-1.23,7.85-1.87-.08,1.03,.32,1.57,1.24,2,1.69,.79,3.21,1.92,4.84,2.82,.72,.4,1.55,1.49,2.35,.56,.82-.95-.52-1.51-.88-2.27,.04-.12,.04-.29,.12-.36,1.86-1.52,1.88-1.54-.16-2.83-.48-.3-1.02-.46-.75-1.48,1.45-.35,3.04-.74,4.63-1.12,1.65-.39,1.78-.57,1.85-2.21,.08-1.95-.74-3.52-2.08-4.81-.77-.74-1.58-1.08-2.77-.37-1.78,1.06-3.75,1.79-5.65,2.63-.35,.16-.8,.28-1.16,.2-1.34-.27-2.65-.79-4-.91-3.05-.26-4.99-2.25-6.97-4.19-.28-.28-.36-.89-.34-1.34,.31-5.46,.06-11.08,1.94-16.26,1.88-5.19,4.23-10.27,7.76-14.63,1.21-1.49,2.67-2.79,4.01-4.17l-.06,.07c.8-.4,1.68-.7,2.39-1.23,2.58-1.92,5.58-1.91,8.38-1.28,2.65,.59,5.18,1.89,7.63,3.14,1.53,.78,2.71,2.07,3.21,3.89,.2,.76,.73,1.55,1.34,2.05,1.72,1.4,2.65,3.28,3.78,5.11,1.58,2.58,2.32,5.46,3.48,8.18,.35,.82,.5,1.72,.71,2.6,.58,2.41,1.15,4.83,1.75,7.4,5.16-2.15,9.61-5.09,13.78-8.5-4.32,4.42-9.14,8.08-15,9.85-.44-.49-.84-1.16-1.04-1.11-.9,.24-1.12,.9-.62,1.76h2.72c.58,3.03,.5,5.98,.3,8.83-.24,.19-.34,.35-.44,.35-3.66,.15-7.03,1.45-10.46,2.54-1.44,.46-2.87,.84-4.44,.45-1.83-.45-3.4,.34-5.08,1.12-2.15,1-3.36,2.78-4.81,4.42-.8,.91-.33,1.73,0,2.48,.35,.8,1.88,1.32,2.63,1.02,.83-.34,1.65-.73,2.43-1.18,4.2-2.45,8.54-4.58,13.22-6.02,2.31-.71,4.5-1.79,6.74-2.7l-.04-.04c0,1.7,0,3.41-.01,5.11,0,.92,0,1.84,0,2.86l2.54-.87-.05-.04Zm-11.59-20.41c-.04-2.77-.47-4.58-1.5-6.18-1.69-2.63-4.56-2.75-6.51-.32-2.29,2.84-2.61,6.93-.8,10.1,1,1.76,3.5,2.5,5.22,1.42,2.14-1.34,3.73-3.1,3.59-5.02Zm-24.39,.1c-.25-1-.43-2.1-.81-3.12-.97-2.66-3.51-3.67-5.93-.91-.36,.41-.68,.9-.84,1.42-.74,2.31-.94,4.6,.39,6.8,.71,1.17,1.55,2.22,3.08,2.05,1.53-.17,2.79-.92,3.27-2.48,.36-1.18,.55-2.41,.84-3.75Zm26.26-12.67c-.43-.67-.74-1.38-1.25-1.9-.52-.53-1.18-.96-1.85-1.3-2.59-1.3-5.16-2.43-8.03-.55-1.38,.91-2.06,2.03-1.88,3.79,1.11-.4,2.26-1.16,3.39-1.14,2.32,.04,4.64,.48,6.95,.79,.28,.04,.55,.31,.77,.54,.76,.76,1.31,.39,1.89-.24Zm-27.21,1.56c-.24-1.17-.41-2.18-.67-3.17-.24-.95-.86-1.28-1.88-1.12-2.45,.39-4.12,1.83-5.46,3.77-.11,.16,.05,.5,.08,.73l3.06,.78c.2-.38,.4-.79,.62-1.21,1.27,1.26,2.6,.62,4.24,.23Zm16.88,34.85c-2.48,.67-4.72,1.4-7.01,1.87-2.89,.59-5.8,1.52-8.75,.18-.25-.11-.62,.06-1.42,.17,.69,.59,1.01,1.02,1.44,1.21,1.55,.67,3.22,1.01,4.87,.69,3.65-.73,7.26-1.63,10.87-2.46,0-.56,0-.95,0-1.66Zm16.27,1.44l-.42,2.23c1.85-1.28,3.58-2.47,4.4-4.66l-1.2-1.04c-.33,.73,.59,1.71-.72,2.31-.33-.63-.64-1.23-.95-1.82-1.4,1.08,1.21,2.19-.11,3.28l-1-.31Z"/><path class="h" d="M83.86-15.86c-.98-1.13-.81-2.41-.67-3.78,.16-1.58,.02-3.18,.02-4.78,0-.76,0-1.51,.15-2.32,.71,.94,2.09,1.39,1.51,3.11-.23,.68,.22,1.73,1.41,1.9,.39,.06,.84,.42,1.08,.77,.81,1.21,1.49,2.5,2.29,3.71,1.69,2.53,3.43,5.03,5.16,7.54,.24,.34,.59,.62,.75,.99,1.66,3.65,4.55,6.44,6.74,9.71,1.48,2.22,1.31,3.16-.88,4.78-.15,.11-.23,.32-.45,.63l2.06,.45,.35,2.58c.57-.97,.97-1.65,1.55-2.64,.89,1.03,1.75,1.82,2.35,2.78,3.57,5.7,7.11,11.42,10.59,17.18,.54,.9,.73,2.01,1.15,3.22,1.55-.32,2.23,.99,3.01,2.21,2.12,3.33,4.28,6.64,6.42,9.97,.35,.55,.65,1.14,1.18,2.07-1.17,.15-1.95,.33-2.73,.33-2.5,0-5.01,.09-7.49-.12-1.84-.15-3.74-.47-5.45-1.14-3.21-1.28-6.29-2.89-9.44-4.31-.81-.36-1.7-.54-2.55-.81l.08,.07c-1.56-.72-3.12-.51-4.68,0l.08-.03c-.97,.05-1.94,.17-2.91,.11-1.08-.07-1.31-.62-.83-1.66,.1-.21,.18-.44,.36-.89-1.71,.46-2.74-.3-3.83-1.53,.33,1.94-.82,2.74-2.22,3.31l.95,1.11c-2.08,0-3.87-.06-5.65,.03-.65,.03-1.47,.22-1.89,.65-1.04,1.07-1.89,2.33-2.81,3.51l.07-.09c-.43,.79-.87,1.58-1.3,2.37-.82,1.15-1.64,2.31-2.46,3.46-.11-.5-.37-1.02-.3-1.5,.5-3.26,1.06-6.5,1.61-9.75,.11-.66,.28-1.32,.45-2.09l1.84,.45-.28-1.25,.02,.05c-.3-1.15,1.03-1.19,1.46-1.95l-.66-.2,.07,.06c-1.27-1.02-1.84-2.32-1.71-3.98,.33-4.36,.39-8.75,.97-13.06,.45-3.35,1.44-6.64,2.38-9.9,.3-1.05,1.24-1.91,1.99-3.02-1.5-1-1.44-2.67-1.19-4.5,.42-3.09,.65-6.2,1.01-9.3,.09-.82-.2-1.74,.98-2.29,.37-.17,.22-1.49,.3-2.29v.05Zm36.59,57.36l2.12,.25v-2.76l-2.53-1.95-.24,1.52-2.36,1.02c2.06,.29,2.2,1.48,2.21,3.12l.8-1.22h0ZM91.44-.61l.66-.02c.38,.61,.76,1.21,1.39,2.21l.33-2.31,1.84-1.45c-2.22-.53-2.52-2.31-3.48-4.11-.66,1.23-1.15,2.14-1.64,3.05l-2.25,.31-.02,.37,1.74,1.02-.22,2.17,.3,.18,1.36-1.42Zm-2.92,18.03l.52,3.05c.69-1.01,1.15-1.67,1.58-2.31l2.23,.13c-1.23-1.22-.9-2.53-.33-4.08-1.94,.67-3.09-.25-4.3-1.43,.73,2.14-.81,3.1-2.27,4.37,1.09,.11,1.76,.18,2.58,.27Zm17.36,14.33l1.81,.26c.16,.62,.28,1.08,.46,1.76l1.14-2.03,2.05,.55c-.27-1.21-.51-2.26-.75-3.3l-3.15-1.59c-.3,1.46-.17,3.1-1.57,4.35Z"/><path class="h" d="M74.92,48.61c.82-1.15,1.64-2.31,2.46-3.46,.43-.79,.87-1.58,1.3-2.37l-.07,.09c.18-.09,.44-.13,.52-.27,1.63-2.79,4.25-3.23,7.14-3.1,.55,.03,1.11,0,1.66-.03,1.3-.08,2.59-.19,3.89-.29l-.06,.05,5.68-1-.08,.03c1.56,0,3.12,0,4.68,0l-.08-.07c2.38,1.9,5.12,3.2,7.84,4.52,.93,.45,1.91,.82,2.86,1.24,1.99,.87,4.07,1.39,6.25,1.36,3.26-.05,6.51-.12,9.77-.2,2.4-.06,4.67,1.72,4.85,4.05,.06,.73-.25,1.72-.76,2.21-1.13,1.09-2.48,1.96-3.78,2.87-1.99,1.41-4.11,2.63-6.48,3.23-2.34,.59-4.72,1.05-7.1,1.47-2.16,.38-4.35,.64-6.45,.94-2.46-3.31-5.01-6.73-7.6-10.22,.88-.66,1.95-.3,3.01-.17,1.02,.13,2.04,.19,3.06,.27,2.48,.2,4.95,.46,7.44,.58,2.06,.1,4.12,.02,6.2-.13-1.07-.73-2.28-.54-3.47-.55-1.02-.01-2.04-.14-3.06-.27-1.72-.22-3.42-.56-5.14-.69-1.85-.14-3.7,0-5.54-.63-.83-.28-1.95-.08-2.83,.23-1.01,.35-1.82,.26-2.76-.18-1.31-.62-2.67-1.17-4.06-1.6-3.56-1.11-7.08-1.37-10.36,.87-.83,.57-1.6,1.21-2.4,1.82l.06-.07c-.55,.35-1.21,.6-1.64,1.06-1.8,1.88-3.52,3.82-5.33,5.79l-.59-1.13c2.26-1.76,3.27-4.33,4.67-6.64,.74-.19,.97-.75,.85-1.52-.27,.52-.54,1.04-.81,1.55-.92,1-1.83,2.02-2.77,3.01-.64,.67-1.33,1.3-2.08,2.02q-.51-1.29,1.11-4.68Zm39.85,6.94c.31,1.16,1,.97,1.64,.75,2.6-.93,5.19-1.9,7.38-3.66,.16-.13,.33-.25,.47-.4,.14-.14,.26-.31,.38-.47-3.18,1.53-6.21,3.14-9.87,3.78Zm-23.32-10.96l.02,.46c2.87,1.1,5.38-.47,8.03-1.08-2.21-1.1-4.18,.87-6.34,.49-.54-.1-1.14,.08-1.71,.13Z"/><path class="h" d="M89.41,93.79c-11.66,2.98-23.1,5.9-34.9,8.91,.75-.43,1.18-.72,1.64-.94,4.38-2.07,8.73-4.19,13.15-6.17,2.33-1.05,4.78-1.81,7.15-2.79,1.84-.76,3.63-1.66,5.44-2.5,1.13-.52,2.26-1.06,3.41-1.53,1.3-.53,1.99-.36,2.91,.7,1.09,1.26,1.68,2.68,1.2,4.32Z"/><path class="h" d="M171.7,242.32c.4-.48,.18-1.65,1.49-1.72,.14,0,.23-.99,.41-1.78,2.18,1.83,4.08,3.62,5.65,5.7,1.08,1.44,2.09,2.95,2.96,4.52,.45,.81,.7,1.82,.75,2.75,.02,.47-.51,1.15-.97,1.4-.28,.15-1.03-.23-1.35-.58-1.3-1.44-2.49-2.98-3.76-4.44-1.67-1.93-3.38-3.83-5.17-5.85Z"/><path class="h" d="M72.9,93.65c-1.44,.52-2.71,.98-3.96,1.43-.92-1.84-1.26-4.14-.95-6.53,2.25,1.11,3.98,2.52,4.91,5.1Z"/><path class="h" d="M114.04,92.4c.38-.36,.81-.69,1.12-1.11,.16-.22,.11-.59,.16-.92l8.83-2,.1,.3c-3.42,1.23-6.83,2.46-10.25,3.69l.04,.04Z"/><path class="h" d="M134.14,131.23l-.22,2.12-1.61,.9c-.52-.52-1.08-1.07-1.67-1.67l1.09-1.35h2.41Z"/><path class="h" d="M168.15,232.85h2.4c-.06,.73-.12,1.44-.19,2.19l-1.56,.79-1.73-1.54,1.08-1.44Z"/><path class="h" d="M199.14,125.47c-.09,.78-.17,1.45-.24,2.07l-1.53,.84c-.6-.54-1.15-1.04-1.71-1.55,.66-1.48,1.89-1.75,3.49-1.36Z"/><path class="h" d="M233.52,197.04h2.45l-.22,2.17c-.4,.21-.93,.48-1.48,.77-.53-.45-1.11-.94-1.77-1.5,.3-.43,.64-.91,1.01-1.44Z"/><path class="h" d="M174.15,174.71l1.08-1.44h2.39c-.06,.73-.12,1.44-.19,2.19-.48,.24-1.02,.51-1.56,.78-.53-.47-1.11-.99-1.73-1.54Z"/><path class="h" d="M159.9,68.99l-1.49,.77-1.72-1.49,.99-1.44h2.5l-.28,2.16Z"/><path class="h" d="M205.58,205.13h2.49c-.08,.75-.15,1.44-.22,2.15l-1.49,.81c-.55-.47-1.08-.92-1.73-1.47,.25-.39,.6-.93,.96-1.48Z"/><path class="h" d="M108.52,142.68l-1.53,.89c-.61-.53-1.16-1.02-1.76-1.55l1.08-1.47h2.38c-.06,.73-.11,1.44-.16,2.13Z"/><path class="h" d="M182.25,215.13h2.49c-.08,.7-.15,1.35-.23,2.15l-1.49,.8c-.59-.51-1.13-.96-1.71-1.46,.27-.42,.59-.93,.94-1.48Z"/><path class="h" d="M-2.29,101.21l1.09-1.48c.69,0,1.48,0,2.41,0l-.2,2.13-1.51,.86-1.79-1.51Z"/><path class="h" d="M133.51,230.58l-.27,2.14-1.48,.79c-.54-.46-1.1-.95-1.73-1.49,.3-.43,.67-.98,.99-1.44h2.49Z"/><path class="h" d="M129.75,110.18l-1.6,.95c-.43-.51-.88-1.02-1.43-1.67,.19-.35,.49-.87,.78-1.4,.81,0,1.6,0,2.45,0l-.2,2.12Z"/><path class="h" d="M133.08,94.79c-.6,.34-1.17,.67-1.63,.93-.44-.55-.88-1.1-1.37-1.71l.74-1.37h2.47l-.21,2.15Z"/><path class="h" d="M180.58,162.65l-1.64,.98c-.37-.49-.79-1.03-1.31-1.72l.67-1.36h2.48c-.07,.75-.14,1.47-.2,2.1Z"/><path class="h" d="M200.73,184.41l-1.76-1.57c.29-.38,.68-.92,1.09-1.47,.67,.04,1.34,.08,2.13,.13,0,.67,0,1.32,0,2.01l-1.47,.9Z"/><path class="h" d="M112.26,167.9l1.1-1.48c.7,0,1.49,0,2.32,0,.2,1.53-.48,2.4-1.6,2.85-.64-.48-1.22-.91-1.83-1.36Z"/><path class="h" d="M173.5,136.85c-.62,.36-1.15,.67-1.75,1.02-.05-1.08-1.9-1.82-.35-3.15h2.31c-.07,.75-.13,1.41-.2,2.12Z"/><path class="h" d="M205.79,165.94c-.08,.79-.14,1.45-.21,2.18-.53,.29-1.11,.61-1.82,1-.15-.96-.28-1.87-.45-2.96,.87-.08,1.64-.14,2.48-.22Z"/><path class="h" d="M145.61,74.36c.79-.75,1.31-1.76,2.66-1.44-.06,.68-.11,1.34-.17,2.08l-1.71,.97c-.2-.43-.44-.93-.77-1.61Z"/><path class="h" d="M138.94,173.23c.9-.09,1.5-.14,2.25-.21l-.18,2.21-1.63,.63c-.15-.88-.28-1.65-.44-2.63Z"/><path class="h" d="M129.1,165.61l-1.82-1.5,1.12-1.49c1.29,.76,1.45,1.44,.7,2.98Z"/><path class="h" d="M103.86,7.13c-.43-.41-.82-.78-1.19-1.13,.4-.6,.8-1.2,1.32-1.98,.39,.69,.76,1.35,1.16,2.06l-1.29,1.05Z"/><path class="h" d="M78.24,34.48h-1.63l.4-2.84c.76,.29,1.44,.55,2.12,.8l-.07-.06c-.3,.27-.61,.53-.89,.82-.47,.47-.44,.92,.09,1.33l-.02-.05Z"/><path class="h" d="M51.77,106.62l-.59-1.48q1.84-.8,2.4,.38c-.6,.36-1.2,.73-1.81,1.1Z"/><path class="h" d="M121.98,123.82c-.63-.57-1.18-1.07-1.97-1.79,.64-.14,1.3-.52,1.63-.33,.86,.5,.71,1.36,.34,2.11Z"/><path class="h" d="M116.53,99.47c.78-.79,1.55-1.59,2.33-2.38-.23,1.42-1.24,1.95-2.37,2.34l.04,.04Z"/><path d="M114.47,106.52l-.82,.37c.36-.77,.73-1.45,1.66-1.4l-.84,1.03Z"/><path class="h" d="M131.82,66.35c-.3,.45-.6,.91-.91,1.36l-.22-.13,.87-1.38,.26,.16Z"/><path class="h" d="M178.49,175.49c-.12-.44-.24-.88-.36-1.32l.42-.14,.47,1.26-.53,.21Z"/><path d="M182.05,75.91l-2.6-.3c.95-.77,1.62-1.31,2.35-1.9-.05-.71-.1-1.44-.18-2.66,1.35,1.5,2.65,2.24,4.51,1.77l-.79,2.16,1.38,1.93-2.53-.27c-.42,.63-.87,1.29-1.54,2.28-.24-1.19-.42-2.07-.61-3.01Zm2.7-.31c.06-.65,.13-1.37,.2-2.12h-2.42l-1.09,1.49c.58,.49,1.14,.96,1.79,1.51,.27-.15,.78-.45,1.51-.87Z"/><path d="M194.11,224.42c-.82,1.47-.54,2.61,.88,3.88-1.18-.07-1.89-.11-2.7-.16-.43,.63-.88,1.29-1.57,2.3-.21-1.2-.36-2.04-.53-3.02-.7-.09-1.43-.17-2.44-.3,1.09-1.37,3.27-2.04,1.99-4.42,1.36,1.22,2.5,2.16,4.38,1.71Zm-4.53,1.92l1.76,1.56c.46-.23,1-.49,1.53-.76,.06-.72,.11-1.44,.17-2.18h-2.41l-1.05,1.38Z"/><path d="M172.37,219.24c-1.09,1.81-.88,3.03,.49,4.38l-2.63-.35c-.46,.7-.91,1.36-1.6,2.4-.21-1.23-.36-2.07-.53-3.04-.68-.1-1.41-.2-2.52-.36,.86-.74,1.52-1.31,2.19-1.88,0-.74,0-1.48,0-2.54,1.29,1.23,2.45,2.3,4.61,1.4Zm-4.87,2.34l1.76,1.52c.53-.29,1.06-.57,1.48-.79l.27-2.15h-2.49c-.3,.41-.64,.9-1.02,1.42Z"/><path d="M231.14,226.64q-.46,1.98,.53,4.05c-.49-.09-.86-.16-1.24-.22-.33-.05-.67-.07-1.05-.1-.46,.69-.9,1.36-1.58,2.38-.21-1.24-.36-2.08-.52-3.05-.7-.1-1.43-.2-2.25-.31,.18-1.06,1.32-1.1,1.89-2.04v-2.57c1.24,1.54,2.57,2.15,4.22,1.85Zm-2.67,3.52l1.46-.8c.08-.72,.15-1.41,.23-2.14h-2.47l-1.03,1.51c.56,.44,1.1,.87,1.82,1.44Z"/><path d="M192.21,84.11c-.04-.78-.07-1.51-.13-2.74,1.27,1.63,2.53,2.31,4.47,1.79-.3,.86-.52,1.46-.77,2.18l1.32,1.99c-.99-.12-1.71-.21-2.49-.31-.47,.69-.91,1.34-1.6,2.37l-.47-3.02c-.8-.1-1.52-.2-2.67-.35l2.34-1.92Zm-.32,1.2l1.75,1.6,1.54-.91,.2-2.11h-2.41l-1.08,1.41Z"/><path d="M175.65,192.1l-2.08-.27c-.47,.69-.92,1.35-1.6,2.37l-.53-2.97-2.72-.49c1.84-1.06,3-2.13,2.6-4.19,.54,.48,1,1.12,1.63,1.39,.65,.28,1.46,.19,2.35,.27-.16,1.24-1.14,2.65,.97,3.54l-.61,.35Zm-4.82-2.01c.68,.6,1.21,1.08,1.76,1.56,.46-.23,1-.49,1.53-.76,.06-.72,.11-1.44,.17-2.18h-2.41c-.4,.52-.73,.95-1.05,1.38Z"/><path d="M210.92,118.82c1.17,1.83,2.53,2.26,4.35,1.91l-.73,2.11c.36,.57,.75,1.18,1.29,2.04-.96-.15-1.62-.25-2.4-.37-.48,.66-.97,1.34-1.66,2.31l-.5-2.96c-.8-.1-1.52-.18-2.63-.32,.91-.75,1.57-1.3,2.28-1.89,0-.73,0-1.51,0-2.82Zm-.78,4.63c1.6-.54,1.82,.32,2,1.1l1.77-1.04c.07-.74,.13-1.39,.2-2.13-.88,0-1.68,0-2.39,0-.42,.55-.79,1.03-1.58,2.07Z"/><path d="M216.47,234.42l-2.04-.35-1.41,2.12c-.91-.8-.24-1.95-.92-2.82-.61-.06-1.32-.14-2.43-.26,.93-.77,1.58-1.31,2.31-1.91,0-.71,0-1.49,0-2.78,1.15,1.77,2.48,2.23,4.29,1.92-.68,1.49-.78,2.76,.54,3.81l-.34,.28Zm-1.29-3.41c-.84,0-1.69,0-2.54,0-.33,.49-.67,.98-.99,1.45,.61,.5,1.19,.98,1.78,1.47,.45-.25,.98-.54,1.47-.81,.09-.68,.18-1.34,.28-2.11Z"/><path d="M153.15,140.59c1-.78,1.64-1.28,2.34-1.83,0-.74,0-1.54,0-2.74,1.2,1.57,2.47,2.22,4.39,1.73l-.76,2.17c.36,.55,.77,1.16,1.32,2-.98-.12-1.71-.22-2.47-.31-.47,.7-.92,1.35-1.61,2.36-.19-1.24-.32-2.08-.47-3.02l-2.72-.36Zm3.14-2.11l-1.05,1.42c.62,.57,1.17,1.07,1.74,1.59l1.53-.9,.21-2.11c-.78,0-1.51,0-2.43,0Z"/><path d="M160.72,178.51c0-.81,0-1.53,0-2.68,1.2,1.51,2.38,2.36,4.32,1.71-.62,1.57-.89,2.86,.89,4.12-1.31-.08-2.02-.13-2.82-.18-.44,.65-.89,1.3-1.58,2.32-.2-1.23-.34-2.08-.5-3.03l-2.41-.29c.5-1.01,1.44-1.25,2.1-1.97Zm3.18-.2c-1.44-.16-2.86-.33-3.43,1.46,.59,.51,1.17,1.02,1.7,1.47,.56-.28,1.09-.56,1.51-.77l.23-2.16Z"/><path d="M148.7,110.4c.89,1.65,2.35,1.83,4.08,1.64-.29,.79-.52,1.42-.76,2.1l1.38,1.93-2.52-.27c-.42,.63-.87,1.29-1.54,2.27-.24-1.19-.42-2.06-.61-3-.78-.09-1.5-.18-2.6-.3,.95-.77,1.62-1.31,2.35-1.91-.05-.71-.1-1.44-.15-2.17l.38-.29Zm-.58,3.72c.59,.51,1.15,.99,1.79,1.53l1.51-.87c.06-.68,.12-1.4,.19-2.14h-2.39l-1.1,1.48Z"/><path d="M204.1,112.44c.43,.64,.8,1.2,1.32,1.98l-2.47-.31c-.48,.7-.92,1.35-1.61,2.36-.19-1.24-.33-2.08-.47-3.02-.79-.1-1.52-.2-2.72-.35,.94-.74,1.6-1.26,2.33-1.83,0-.74,0-1.53,0-2.7,1.22,1.46,2.42,2.32,4.44,1.54l-.82,2.33Zm-2.12,1.54c.35-.2,.94-.54,1.53-.88l.15-2.13c-.88,0-1.62,0-2.37,0l-1.09,1.47c.61,.53,1.16,1.01,1.77,1.54Z"/><path d="M202.65,238.57l-1.51,2.35c-.22-1.26-.36-2.08-.53-3.03l-2.59-.44c.92-.76,1.59-1.31,2.31-1.9-.03-.72-.06-1.46-.11-2.56,1.34,1.28,2.45,2.46,4.74,1.4-1.14,1.85-1.08,3.03,.51,4.31-1.28-.06-2.04-.1-2.81-.13Zm-2.66-1.78l1.73,1.54,1.56-.78c.06-.75,.13-1.46,.19-2.19h-2.4l-1.08,1.44Z"/><path d="M152.39,236.84c0-.81,0-1.53,0-2.68,1.2,1.51,2.38,2.36,4.32,1.71-.62,1.57-.89,2.86,.89,4.12-1.31-.08-2.02-.13-2.82-.18l-1.58,2.32-.5-3.03c-.74-.09-1.47-.17-2.41-.29,.5-1.01,1.43-1.25,2.1-1.97Zm2.97,1.99l.19-2.2h-2.45l-.99,1.42,1.74,1.52c.44-.21,.97-.48,1.51-.74Z"/><path d="M201.79,198.46l-2.96,.26c-.35,.52-.8,1.16-1.5,2.18-.18-1.24-.3-2.03-.44-2.96-.73-.13-1.5-.26-2.62-.46,.9-.75,1.55-1.29,2.24-1.85v-2.56c1.27,1.22,2.44,2.25,4.42,1.59-.83,1.74-.9,3.06,.8,3.85l.05-.04Zm-5.57-1.68l1.78,1.53,1.5-.76c.08-.8,.15-1.46,.22-2.17h-2.42c-.38,.5-.72,.93-1.07,1.4Z"/><path d="M191.26,102.44c-.51,.78-.91,1.39-1.57,2.39l-.48-3.04c-.79-.1-1.52-.2-2.67-.35l2.34-1.93c-.04-.76-.09-1.49-.16-2.72,1.32,1.64,2.62,2.37,4.6,1.74-.4,.98-.63,1.54-.9,2.21,.38,.56,.78,1.17,1.34,2.01l-2.51-.31Zm-.94-.12l1.51-.91c.07-.69,.13-1.36,.2-2.11h-2.42c-.4,.56-.79,1.09-1.05,1.45,.6,.53,1.1,.99,1.76,1.57Z"/><path d="M167.46,147.92c.93,1.52,2.29,1.95,4.14,1.47-.35,.95-.59,1.57-.83,2.23l1.4,1.95-2.55-.28c-.43,.64-.86,1.3-1.52,2.29-.25-1.22-.43-2.1-.62-3.01-.8-.1-1.52-.19-2.6-.32l2.36-1.91c-.06-.71-.11-1.44-.17-2.17l.39-.25Zm.49,2.2c-.42,.59-.79,1.11-1.01,1.42,.63,.64,1.15,1.15,1.64,1.64,.49-.29,1.06-.63,1.58-.93l.2-2.13h-2.42Z"/><path d="M145.22,208.45q1.86,1.65,4.21,1.92-.47,1.98,.66,3.73c-.9-.04-1.66-.08-2.45-.11-.42,.67-.82,1.3-1.21,1.92h-.39c-.13-.82-.26-1.64-.42-2.6-.73-.12-1.51-.25-2.61-.43,.93-.76,1.59-1.31,2.32-1.91l-.11-2.52Zm3.27,2.32h-2.42l-1.08,1.43c.61,.54,1.2,1.06,1.73,1.54l1.55-.78,.22-2.2Z"/><path d="M194.93,144.01c-.43,.66-.82,1.27-1.46,2.26l-.51-2.94c-.79-.13-1.55-.26-2.66-.45,.94-.76,1.6-1.3,2.35-1.9-.05-.69-.11-1.43-.19-2.55,1.39,1.18,2.5,2.38,4.54,1.56-.34,.94-.55,1.54-.8,2.23l1.21,1.79h-2.47Zm-2.63-1.85c.59,.59,1.15,1.14,1.68,1.67l1.61-.89,.21-2.12h-2.41l-1.09,1.34Z"/><path d="M214.33,161.79c-.07-.83-.12-1.5-.21-2.61,1.37,1.36,2.55,2.4,4.53,1.69-.33,.92-.55,1.52-.79,2.21l1.22,1.78h-2.46l-1.51,2.2c-.2-1.2-.33-2.03-.48-2.92-.82-.14-1.59-.27-2.66-.46,.93-.75,1.61-1.3,2.35-1.9Zm3.14-.15h-2.41c-.39,.49-.77,.96-1.09,1.35,.6,.59,1.16,1.15,1.67,1.67l1.61-.9c.07-.73,.14-1.39,.22-2.12Z"/><path d="M163.39,90.77q2.27,1.5,4.36,1.67c-.26,.65-.51,1.26-.76,1.88l1.29,1.89-2.46-.14c-.47,.67-.92,1.3-1.58,2.24-.2-1.22-.33-2.06-.48-2.95l-2.72-.35,2.34-1.87c0-.74,0-1.52,0-2.37Zm3.26,2.09c-.92,0-1.67,0-2.42,0-.39,.51-.78,1.02-1.09,1.42,.63,.61,1.17,1.12,1.71,1.63l1.56-.88,.24-2.17Z"/><path d="M154.1,168.07l-.83,2.03,1.26,1.95c-.98-.06-1.71-.1-2.44-.15l-1.58,2.24c-.2-1.24-.33-2.08-.47-2.95-.83-.11-1.55-.21-2.69-.36,.95-.77,1.6-1.3,2.31-1.88,0-.74,0-1.52,0-2.74,1.22,1.65,2.56,2.27,4.44,1.85Zm-1.22,.65h-2.41c-.42,.53-.78,.99-1.1,1.41l1.75,1.59c.35-.19,.93-.5,1.54-.84l.22-2.16Z"/><path d="M168.49,120.52c.69-.53,1.38-1.07,2.06-1.59l-.12-2.34q2.41,1.53,4.4,1.67c-.25,.65-.49,1.26-.75,1.9l1.31,1.87c-1-.05-1.71-.09-2.48-.12-.46,.65-.9,1.29-1.57,2.24l-.48-2.95c-.79-.1-1.51-.19-2.24-.29l-.13-.4Zm5.02,.34l.17-2.18h-2.33c-.42,.52-.79,.99-1.12,1.39,.58,.58,1.14,1.14,1.67,1.68,.45-.25,.98-.54,1.61-.89Z"/><path d="M207.54,138.28c-.85-.12-1.57-.22-2.67-.37,.93-.77,1.59-1.3,2.29-1.88v-2.76c1.21,1.7,2.57,2.27,4.44,1.89-.34,.81-.57,1.36-.84,2.01l1.25,1.96-2.48-.15c-.42,.66-.81,1.28-1.47,2.31-.21-1.22-.35-2.02-.52-3.01Zm2.85-2.51h-2.42c-.39,.53-.78,1.04-1.06,1.42l1.67,1.64,1.57-.89c.08-.69,.15-1.35,.24-2.17Z"/><path d="M142.13,90.79c-.85-.12-1.57-.22-2.67-.37,.93-.77,1.59-1.3,2.29-1.88,0-.74,0-1.51,0-2.76,1.21,1.7,2.57,2.27,4.44,1.89-.34,.81-.57,1.36-.84,2.01,.36,.56,.74,1.17,1.25,1.96-.97-.06-1.71-.11-2.48-.15-.42,.66-.81,1.28-1.47,2.31-.21-1.22-.35-2.02-.52-3.01Zm.42-2.52l-1.03,1.41c.63,.65,1.14,1.17,1.63,1.66,.49-.28,1.07-.6,1.63-.92l.14-2.16c-.82,0-1.5,0-2.37,0Z"/><path d="M174.23,105.76c-.56-.05-.97-.08-1.37-.13-.32-.04-.63-.11-1.3-.22l2.32-1.91c-.04-.67-.08-1.41-.15-2.54,1.37,1.14,2.47,2.38,4.3,1.63-.22,1.28-.4,2.37-.53,3.19-1.02,.94-1.9,1.74-2.89,2.65-.12-.87-.23-1.66-.37-2.66Zm1.05,.54c.37-.2,.94-.52,1.54-.85l.21-2.16c-.83,0-1.57,0-2.36,0-.38,.47-.79,.97-1.15,1.41,.61,.56,1.17,1.06,1.76,1.59Z"/><path d="M168.72,76.32c1.12,1.42,2.38,1.91,4.23,1.4-.28,.88-.58,1.42-.58,1.97,0,.5,.31,1,.52,1.6-1.17,.25-2.34,.5-3.59,.77l-.43-1.14-2.54-.28c1.55-1.18,2.98-2.19,2.39-4.31Zm-.38,3.6c.66,.58,1.23,1.06,1.75,1.52l1.47-.81c.09-.76,.18-1.41,.27-2.14h-2.5l-.99,1.43Z"/><path d="M221.43,146.12c-.15,.95-.3,1.9-.4,2.54-.93,.97-1.69,1.75-2.63,2.73-.15-.9-.29-1.72-.44-2.64l-2.66-.46c.92-.75,1.58-1.29,2.33-1.89-.05-.69-.09-1.42-.15-2.23,.28,.03,.56-.01,.62,.09,.79,1.13,1.76,1.72,3.18,1.31,.11-.03,.32,.29,.48,.45-.05,.05-.09,.12-.15,.14-.05,.02-.13-.01-.19-.01-1.03,0-2.05,0-2.99,0l-1.14,1.42c.57,.57,1.13,1.14,1.68,1.68,.48-.27,1.06-.6,1.22-.69,.53-1.05,.88-1.74,1.23-2.44Z"/><path d="M225.58,174.66l1.77,1.62c.39-.59,1.92-.34,1.66-2.3,.66,1.05,1.09,1.73,1.66,2.65-.96-.07-1.62-.12-2.31-.17-.48,.68-.93,1.31-1.59,2.25-.2-1.22-.34-2.06-.48-2.94l-2.66-.35c.94-.77,1.59-1.31,2.34-1.93-.04-.67-.08-1.41-.15-2.51l2.72,2.2-1.72,.1-1.23,1.39Z"/><path d="M119.87,150.07c.55,.66,1.02,1.22,1.62,1.94l-1.55,.28,.52,2.08c-1.43,.18-2.93,.11-3.77,1.68-.14-.84-.28-1.68-.43-2.61l-2.65-.34c.94-.77,1.64-1.34,2.35-1.91-.04-.77-.08-1.5-.15-2.66,1.3,1.43,2.42,2.44,4.05,1.55Zm-2.42,3.77c1.01-.44,1.79-1.25,1.54-2.82h-2.33l-1.03,1.48,1.83,1.34Z"/><path d="M97.8,135.3c0-.88,0-1.75,0-2.71-.89-.1-1.6-.18-2.71-.3,.94-.77,1.6-1.31,2.26-1.86v-2.62c1.25,1.37,2.53,2.12,4.39,1.69-.68,1.52-1,2.82,.73,3.86l-.48,.22-2.01-.27c-1.05,.46-.67,2.26-2.23,1.95l.05,.05Zm2.85-5.15h-2.55l-.99,1.47,1.76,1.45c.45-.24,1.03-.54,1.43-.75,.12-.76,.21-1.35,.34-2.17Z"/><path d="M124.59,180.46c-.9-.08-1.57-.14-2.65-.24,.94-.78,1.6-1.32,2.32-1.91v-2.38q1.95,1.49,4.3,1.63l-.67,1.95c.36,.57,.75,1.18,1.28,2.03l-2.46-.35-1.6,2.31c-.21-1.23-.35-2.07-.52-3.05Zm-.62-.98c.63,.58,1.18,1.08,1.75,1.6,.39-.23,.97-.57,1.54-.91l.2-2.11h-2.41c-.37,.48-.74,.96-1.08,1.41Z"/><path d="M51.54,90.18c.96-.77,1.63-1.31,2.36-1.91-.05-.71-.1-1.44-.18-2.58,1.39,1.3,2.57,2.38,4.58,1.5l-.86,2.35,1.38,1.93c-1-.11-1.7-.18-2.52-.27-.42,.63-.87,1.29-1.54,2.27l-.61-3c-.78-.09-1.5-.18-2.6-.31Zm1.53-.06c1.6-.54,1.82,.32,2,1.1,.68-.4,1.26-.74,1.77-1.04l.2-2.13h-2.39l-1.58,2.07Z"/><path d="M123.53,223.59l-2.04-.33c-.47,.7-.91,1.36-1.62,2.44-.21-1.26-.34-2.09-.5-3.06-.72-.11-1.48-.24-2.58-.41,.91-.74,1.58-1.28,2.22-1.81,0-.77,0-1.5,0-2.63,1.24,1.39,2.52,2.13,4.44,1.69-.89,1.56-.75,2.8,.07,4.11Zm-1.51-1.31l.22-2.14h-2.47c-.37,.53-.7,1.03-1.03,1.5,.61,.5,1.19,.97,1.78,1.47,.45-.25,.98-.54,1.49-.82Z"/><path d="M117.88,207.41c1.84-1.06,3.01-2.13,2.41-4.22,1.22,1.13,2.35,2.11,4.29,1.41-.53,1.54-.9,2.86,.35,4.08-.71-.04-1.41-.08-2.23-.13-.43,.63-.88,1.29-1.57,2.31-.21-1.21-.36-2.04-.53-2.97-.75-.13-1.52-.27-2.72-.48Zm5.39,.17c.06-.72,.12-1.44,.19-2.2h-2.45l-.99,1.42c.63,.55,1.17,1.02,1.74,1.52,.44-.21,.97-.48,1.51-.74Z"/><path d="M35.08,99.55c1.23,1.63,2.55,2.29,4.45,1.84l-.84,2.04,1.26,1.95c-.98-.06-1.7-.1-2.44-.15l-1.58,2.24c-.2-1.23-.33-2.07-.47-2.95-.83-.11-1.55-.2-2.7-.35l2.32-1.88c0-.74,0-1.52,0-2.75Zm3.04,4.63l.13-2.16h-2.32l-1.12,1.39,1.67,1.68c.44-.25,.97-.54,1.63-.91Z"/><path d="M23.51,90.54l-.21-2.61c1.37,1.36,2.54,2.4,4.53,1.69l-.8,2.21,1.22,1.78c-.91,0-1.61,0-2.46,0l-1.51,2.2-.48-2.92c-.82-.14-1.59-.27-2.66-.46,.93-.75,1.61-1.3,2.35-1.9Zm.72-.2l-1.04,1.41c.63,.64,1.14,1.17,1.63,1.66l1.63-.92,.14-2.16h-2.37Z"/><path d="M115.16,138c.65-.49,1.3-.98,1.99-1.5v-2.76c1.25,1.55,2.53,2.3,4.46,1.78-.36,.89-.6,1.5-.85,2.12l1.29,1.89c-.99-.06-1.71-.1-2.46-.14-.47,.67-.92,1.31-1.58,2.24-.2-1.22-.33-2.06-.48-2.95-.81-.1-1.53-.2-2.25-.29l-.12-.4Zm1.68-.4c.63,.57,1.19,1.08,1.79,1.62,.36-.2,.93-.51,1.54-.84,.07-.67,.14-1.38,.22-2.16h-2.35l-1.19,1.39Z"/><path d="M104.89,79.01c.15,1.92-1.45,3.68-3.59,5.02-1.73,1.08-4.22,.34-5.22-1.42-1.81-3.17-1.49-7.26,.8-10.1,1.95-2.42,4.82-2.3,6.51,.32,1.03,1.6,1.46,3.41,1.5,6.18Zm-.61-.98c-.46-1.5-.77-3.07-1.42-4.48-.75-1.64-1.86-1.84-3.38-.84-.44,.29-.85,.73-1.1,1.2-1.46,2.67-1.18,5.31,.25,7.9,.6,1.09,2.75,1.57,3.78,.41,1.08-1.22,1.71-2.49,1.87-4.19Z"/><path d="M80.5,79.11c-.29,1.34-.47,2.57-.84,3.75-.48,1.56-1.74,2.31-3.27,2.48-1.53,.17-2.37-.88-3.08-2.05-1.33-2.2-1.13-4.49-.39-6.8,.16-.51,.49-1.01,.84-1.42,2.41-2.76,4.95-1.75,5.93,.91,.37,1.02,.55,2.12,.81,3.12Zm-4.49,2.92c.12-.33,.14-.8,.37-.97,.27-.19,.88-.28,1.06-.11,.22,.2,.27,.77,.15,1.09-.14,.4-.52,.72-.8,1.08,1.45,.59,1.77,.54,2.24-.65,.92-2.3,.84-4.62-.16-6.88-.44-.99-1.12-1.18-2.02-.57-.49,.34-1.01,.84-1.2,1.37-.59,1.7-1.09,3.44,.35,5.62Z"/><path d="M106.76,66.44c-.58,.63-1.13,1-1.89,.24-.22-.22-.49-.5-.77-.54-2.31-.32-4.63-.76-6.95-.79-1.13-.02-2.27,.74-3.39,1.14-.18-1.76,.5-2.89,1.88-3.79,2.86-1.88,5.44-.76,8.03,.55,.67,.34,1.33,.77,1.85,1.3,.5,.52,.82,1.22,1.25,1.9Z"/><path d="M79.55,67.99c-1.65,.39-2.98,1.03-4.24-.23-.22,.42-.42,.83-.62,1.21l-3.06-.78c-.03-.22-.19-.57-.08-.73,1.34-1.94,3.02-3.39,5.46-3.77,1.02-.16,1.63,.17,1.88,1.12,.25,.99,.42,2,.67,3.17Z"/><path d="M96.43,102.84c0,.71,0,1.1,0,1.66-3.61,.83-7.23,1.72-10.87,2.46-1.65,.33-3.32-.01-4.87-.69-.43-.19-.75-.62-1.44-1.21,.8-.11,1.18-.28,1.42-.17,2.95,1.34,5.87,.4,8.75-.18,2.29-.47,4.52-1.19,7.01-1.87Z"/><path d="M112.7,104.28l1,.31c1.32-1.09-1.29-2.21,.11-3.28,.31,.59,.62,1.18,.95,1.82,1.31-.6,.39-1.58,.72-2.31l1.2,1.04c-.81,2.18-2.54,3.38-4.4,4.66l.42-2.23Z"/><path d="M97.45,38.23c-1.89,.33-3.79,.66-5.67,.99,.4-.25,.8-.5,1.19-.75-.17-.62-.35-1.25-.51-1.85-.49-.25-.98-.49-1.46-.73-.46,.57-.92,1.15-1.37,1.71-.02,1.59,1.37,1.2,2.21,1.58-1.3,.1-2.59,.2-3.89,.29-.55,.04-1.11,.06-1.66,.03-2.89-.13-5.51,.31-7.14,3.1-.08,.14-.34,.18-.52,.27,.93-1.18,1.78-2.44,2.81-3.51,.42-.43,1.24-.62,1.89-.65,1.78-.09,3.57-.03,5.65-.03l-.95-1.11c1.4-.56,2.54-1.36,2.22-3.31,1.08,1.23,2.11,1.99,3.83,1.53-.18,.45-.26,.67-.36,.89-.49,1.03-.25,1.59,.83,1.66,.96,.06,1.94-.07,2.91-.11Z"/><path d="M88.52,17.41c-.82-.09-1.49-.16-2.58-.27,1.46-1.27,3-2.23,2.27-4.37,1.21,1.18,2.36,2.1,4.3,1.43-.56,1.55-.89,2.86,.33,4.08l-2.23-.13c-.43,.63-.89,1.29-1.58,2.31l-.52-3.05Zm-.6-1.03l1.73,1.53,1.55-.77c.06-.74,.12-1.45,.18-2.16-.93,0-1.75,0-2.47,0l-1,1.4Z"/><path d="M91.44-.61l-1.36,1.42-.3-.18,.22-2.17-1.74-1.02,.02-.37,2.25-.31c.49-.91,.98-1.82,1.64-3.05,.96,1.81,1.26,3.58,3.48,4.11l-1.84,1.45-.33,2.31c-.63-1-1.01-1.61-1.39-2.21,1.3,.41,1.11-.99,1.65-1.3l-1.6-2.13c-.49,.56-1.01,1.14-1.57,1.77q.2,1.11,.86,1.67Z"/><path d="M105.88,31.74c1.4-1.26,1.27-2.89,1.57-4.35l3.15,1.59c.24,1.04,.47,2.09,.75,3.3l-2.05-.55-1.14,2.03c-.18-.68-.3-1.14-.46-1.76l-1.81-.26Zm1.17-.54l2.81-.3q-.13-1.01-2.01-2.26c-.25,.8-.49,1.57-.79,2.56Z"/><path d="M120.45,41.5l-.8,1.22c-.02-1.64-.16-2.83-2.21-3.12l2.36-1.02,.24-1.52,2.53,1.95v2.76c-.62-.07-1.37-.16-2.12-.25,.47-.58,.95-1.16,1.45-1.76q-1.29-.69-2.2-.25c.25,.67,.5,1.34,.75,2Z"/><path d="M102.04,38.27c-1.56,0-3.12,0-4.68,0,1.56-.5,3.12-.71,4.68,0Z"/><path d="M78.26,34.53c-.53-.41-.56-.86-.09-1.33,.28-.29,.59-.55,.89-.82l.66,.2c-.44,.75-1.76,.79-1.46,1.95Z"/><path d="M78.69,42.78c-.43,.79-.87,1.58-1.3,2.37,.43-.79,.87-1.58,1.3-2.37Z"/><path d="M114.77,55.55c3.66-.64,6.69-2.24,9.87-3.78-.13,.16-.24,.32-.38,.47-.14,.15-.31,.27-.47,.4-2.19,1.76-4.78,2.72-7.38,3.66-.64,.23-1.33,.41-1.64-.75Z"/><path d="M91.45,44.59c.57-.05,1.16-.23,1.71-.13,2.16,.38,4.13-1.59,6.34-.49-2.64,.61-5.16,2.18-8.03,1.08l-.02-.46Z"/><path d="M78.66,48.26c.27-.52,.54-1.04,.81-1.55,.11,.77-.11,1.32-.85,1.52l.04,.04Z"/><path class="h" d="M184.75,75.6c-.73,.42-1.24,.72-1.51,.87-.65-.55-1.21-1.02-1.79-1.51l1.09-1.49h2.42c-.07,.75-.14,1.47-.2,2.12Z"/><path class="h" d="M189.58,226.34l1.05-1.38h2.41c-.06,.74-.11,1.46-.17,2.18-.53,.26-1.07,.53-1.53,.76l-1.76-1.56Z"/><path class="h" d="M167.5,221.58c.37-.52,.72-1.01,1.02-1.42h2.49l-.27,2.15c-.42,.22-.94,.51-1.48,.79l-1.76-1.52Z"/><path class="h" d="M228.47,230.16c-.72-.57-1.26-.99-1.82-1.44l1.03-1.51h2.47c-.08,.73-.15,1.43-.23,2.14l-1.46,.8Z"/><path class="h" d="M191.89,85.31l1.08-1.41h2.41l-.2,2.11-1.54,.91-1.75-1.6Z"/><path class="h" d="M170.83,190.09c.32-.42,.65-.85,1.05-1.38h2.41c-.06,.74-.11,1.46-.17,2.18-.53,.26-1.07,.53-1.53,.76-.55-.49-1.08-.96-1.76-1.56Z"/><path class="h" d="M210.14,123.45c.8-1.04,1.16-1.53,1.58-2.07,.71,0,1.51,0,2.39,0-.07,.73-.13,1.39-.2,2.13l-1.77,1.04c-.18-.78-.4-1.64-2-1.1Z"/><path class="h" d="M215.18,231.01c-.1,.77-.19,1.43-.28,2.11-.49,.27-1.01,.56-1.47,.81-.6-.49-1.17-.97-1.78-1.47,.32-.47,.66-.96,.99-1.45,.85,0,1.7,0,2.54,0Z"/><path class="h" d="M156.28,138.49c.91,0,1.65,0,2.43,0l-.21,2.11-1.53,.9c-.57-.52-1.12-1.02-1.74-1.59l1.05-1.42Z"/><path class="h" d="M163.9,178.31l-.23,2.16c-.42,.22-.95,.49-1.51,.77-.53-.46-1.1-.96-1.7-1.47,.57-1.79,1.99-1.62,3.43-1.46Z"/><path class="h" d="M148.12,114.11l1.1-1.48h2.39c-.06,.74-.13,1.46-.19,2.14l-1.51,.87c-.63-.54-1.19-1.02-1.79-1.53Z"/><path class="h" d="M201.98,113.98c-.61-.53-1.16-1.01-1.77-1.54l1.09-1.47c.75,0,1.48,0,2.37,0l-.15,2.13c-.6,.34-1.18,.68-1.53,.88Z"/><path class="h" d="M199.99,236.79l1.08-1.44h2.4c-.06,.73-.12,1.44-.19,2.19l-1.56,.78-1.73-1.54Z"/><path class="h" d="M155.35,238.82c-.54,.26-1.07,.52-1.51,.74l-1.74-1.52,.99-1.42h2.45c-.07,.76-.13,1.48-.19,2.2Z"/><path class="h" d="M196.22,196.77c.36-.47,.69-.9,1.07-1.4h2.42c-.07,.71-.14,1.38-.22,2.17l-1.5,.76-1.78-1.53Z"/><path class="h" d="M190.32,102.33c-.65-.59-1.16-1.04-1.76-1.57,.26-.36,.65-.89,1.05-1.45h2.42c-.07,.76-.13,1.42-.2,2.11l-1.51,.91Z"/><path class="h" d="M167.95,150.13h2.42l-.2,2.13c-.52,.31-1.1,.65-1.58,.93-.5-.5-1.01-1.01-1.64-1.64,.22-.31,.59-.83,1.01-1.42Z"/><path class="h" d="M148.49,210.77l-.22,2.2-1.55,.78c-.54-.48-1.12-.99-1.73-1.54l1.08-1.43h2.42Z"/><path class="h" d="M192.3,142.16l1.09-1.34h2.41l-.21,2.12-1.61,.89c-.53-.53-1.09-1.08-1.68-1.67Z"/><path class="h" d="M217.47,161.64c-.08,.73-.14,1.39-.22,2.12l-1.61,.9c-.52-.52-1.08-1.07-1.67-1.67,.32-.4,.69-.86,1.09-1.35h2.41Z"/><path class="h" d="M166.65,92.86l-.24,2.17-1.56,.88c-.53-.51-1.07-1.02-1.71-1.63,.3-.4,.7-.91,1.09-1.42,.75,0,1.5,0,2.42,0Z"/><path class="h" d="M152.88,168.71l-.22,2.16c-.61,.33-1.19,.64-1.54,.84l-1.75-1.59c.33-.42,.69-.88,1.1-1.41h2.41Z"/><path class="h" d="M173.51,120.86c-.63,.35-1.16,.64-1.61,.89-.53-.53-1.09-1.1-1.67-1.68,.32-.4,.7-.87,1.12-1.39h2.33l-.17,2.18Z"/><path class="h" d="M210.4,135.77c-.09,.82-.17,1.48-.24,2.17l-1.57,.89-1.67-1.64c.28-.38,.67-.89,1.06-1.42h2.42Z"/><path class="h" d="M142.55,88.27c.86,0,1.55,0,2.37,0l-.14,2.16c-.56,.32-1.14,.64-1.63,.92-.48-.49-1-1.02-1.63-1.66l1.03-1.41Z"/><path class="h" d="M175.29,106.3c-.59-.54-1.15-1.04-1.76-1.59,.36-.45,.77-.95,1.15-1.41,.79,0,1.53,0,2.36,0l-.21,2.16c-.6,.33-1.17,.64-1.54,.85Z"/><path class="h" d="M168.35,79.92l.99-1.43h2.5c-.09,.74-.17,1.38-.27,2.14l-1.47,.81c-.53-.46-1.09-.95-1.75-1.52Z"/><path class="h" d="M221.43,146.12c-.35,.69-.7,1.39-1.23,2.44-.17,.09-.74,.42-1.22,.69-.54-.54-1.11-1.11-1.68-1.68l1.14-1.42c.94,0,1.97,0,2.99,0v-.02Z"/><path class="h" d="M117.45,153.84l-1.83-1.34,1.03-1.48h2.33c.26,1.57-.52,2.39-1.54,2.82Z"/><path class="h" d="M100.64,130.15c-.13,.82-.22,1.4-.34,2.17-.4,.21-.98,.51-1.43,.75l-1.76-1.45,.99-1.47h2.55Z"/><path class="h" d="M123.97,179.48c.34-.45,.71-.93,1.08-1.41h2.41l-.2,2.11c-.57,.34-1.15,.68-1.54,.91-.57-.52-1.11-1.02-1.75-1.6Z"/><path class="h" d="M53.07,90.12l1.58-2.07h2.39l-.2,2.13c-.52,.3-1.09,.64-1.77,1.04-.18-.78-.4-1.64-2-1.1Z"/><path class="h" d="M122.02,222.28c-.51,.28-1.04,.57-1.49,.82-.6-.49-1.18-.97-1.78-1.47,.32-.47,.66-.96,1.03-1.5h2.47l-.22,2.14Z"/><path class="h" d="M123.27,207.58c-.54,.26-1.07,.52-1.51,.74-.57-.5-1.11-.97-1.74-1.52l.99-1.42h2.45c-.07,.76-.13,1.48-.19,2.2Z"/><path class="h" d="M38.12,104.18c-.66,.37-1.19,.66-1.63,.91l-1.67-1.68,1.12-1.39h2.32l-.13,2.16Z"/><path class="h" d="M24.23,90.35h2.37l-.14,2.16-1.63,.92c-.49-.5-1-1.02-1.63-1.66l1.04-1.41Z"/><path class="h" d="M116.84,137.6l1.19-1.39h2.35c-.08,.78-.15,1.5-.22,2.16-.6,.33-1.18,.65-1.54,.84-.6-.54-1.16-1.05-1.79-1.62Z"/><path class="h" d="M104.28,78.03c-.16,1.7-.79,2.97-1.87,4.19-1.03,1.16-3.18,.68-3.78-.41-1.43-2.59-1.7-5.23-.25-7.9,.25-.46,.66-.9,1.1-1.2,1.52-1.01,2.63-.8,3.38,.84,.65,1.41,.96,2.98,1.42,4.48Zm-3.54,2.02l-1.42-1.11c-.29,.39-.74,.74-.84,1.18-.12,.56,.21,1.16,.89,1,.41-.09,.75-.56,1.36-1.07Z"/><path class="h" d="M76.01,82.03c-1.43-2.18-.93-3.93-.35-5.62,.19-.54,.71-1.04,1.2-1.37,.89-.61,1.58-.42,2.02,.57,1,2.26,1.08,4.58,.16,6.88-.48,1.19-.8,1.24-2.24,.65,.28-.36,.66-.68,.8-1.08,.11-.33,.06-.89-.15-1.09-.18-.17-.79-.08-1.06,.11-.23,.17-.26,.63-.37,.97Z"/><path class="h" d="M91.83,39.18c-.84-.38-2.23,.01-2.21-1.58,.45-.57,.91-1.14,1.37-1.71,.48,.24,.97,.49,1.46,.73,.17,.6,.34,1.23,.51,1.85-.39,.25-.79,.5-1.19,.75,0,0,.06-.04,.06-.04Z"/><path class="h" d="M87.92,16.39l1-1.4c.72,0,1.53,0,2.47,0-.06,.71-.12,1.42-.18,2.16l-1.55,.77-1.73-1.53Z"/><path class="h" d="M107.05,31.21c.31-.99,.55-1.76,.79-2.56q1.88,1.25,2.01,2.26l-2.81,.3Z"/><path class="h" d="M120.45,41.5c-.25-.67-.5-1.33-.75-2q.91-.45,2.2,.25c-.5,.61-.97,1.18-1.45,1.76h0Z"/><path d="M100.74,80.05c-.62,.5-.95,.97-1.36,1.07-.69,.15-1.02-.44-.89-1,.09-.43,.54-.79,.84-1.18l1.42,1.11Z"/></g></g></g></g></g></svg>