<?xml version="1.0" encoding="UTF-8"?><svg xmlns="http://www.w3.org/2000/svg" xmlns:xlink="http://www.w3.org/1999/xlink" viewBox="0 0 614.47 569.76"><defs><style>.h{fill:#fff;}.i{filter:url(#e);}.j{font-family:Avenir-Medium, Avenir;font-size:28px;}.k{fill:#f6c67b;}.l{font-family:Moonlights-on-the-Beach, Moonlights on the Beach;font-size:88px;}.m{fill:#eb566a;}.n{letter-spacing:-.06em;}.o{letter-spacing:-.09em;}</style><filter id="e" filterUnits="userSpaceOnUse"><feOffset dx="11.34" dy="7"/><feGaussianBlur result="f" stdDeviation="0"/><feFlood flood-color="#000" flood-opacity=".5"/><feComposite in2="f" operator="in"/><feComposite in="SourceGraphic"/></filter></defs><g id="a"/><g id="b"><g id="c"><circle class="m" cx="283.24" cy="283.24" r="283.24"/></g><g id="d"><g class="i"><g><path class="h" d="M259.06,189.07c-1.56,1.28-3.08,2.61-4.68,3.83-6.38,4.83-13.04,9.23-20.29,12.66-.43,.2-.93,.26-1.4,.38,3.95-2.97,7.86-5.89,12.09-8.25,4.48-2.5,8.22-5.87,12.09-9.11,1.25-1.05,2.5-2.31,3.21-3.74,3.62-7.27,6.16-14.93,7.34-22.99,.1-.69-.02-1.42-.05-2.78-1.75,1.78-2.93,3.16-4.29,4.35-5.04,4.41-9.77,9.16-15.74,12.49-4.05,2.26-7.63,5.38-11.43,8.1-1.74,1.25-3.61,2.33-5.23,3.72-4.49,3.88-8.95,7.75-12.83,12.31-3.49,4.1-5.82,8.72-7.91,13.54-.85,1.95-1.91,4-2.01,6.04-.16,3.36-1.71,5.17-4.33,7.15-6.77,5.1-13.05,10.86-18.56,17.32-5.62,6.59-11.66,12.84-16.49,20.09-2.91,4.37-6.25,8.48-7.69,13.68-.52,1.88-1.06,3.75-1.71,5.58-1.62,4.6-1.54,9.17,.09,13.75,.31,.86,.52,1.76,.69,2.33-2.01,.49-3.89,.52-5.25,1.38-2.87,1.82-5.64,3.88-8.13,6.19-6.94,6.46-13.06,13.67-18.48,21.45-1.37,1.97-2.43,3.94-5.24,3.73-.36-.03-.73,.24-1.11,.34-5.53,1.57-11.02,3.3-16.59,4.67-12.21,3-24.44,5.91-36.08,10.76-4.58,1.91-9.12,4-12.84,7.44-4.72,4.37-9.51,8.66-14.11,13.14-2.41,2.34-3.66,5.28-2.7,8.77,1.37,4.99,3.69,9.34,8.36,12.12-.61,2.71-1.2,5.46-1.86,8.18-.28,1.17-.04,1.99,.96,2.78,2.98,2.35,5.76,4.95,8.8,7.21,6.59,4.91,13.79,8.84,21.32,12.04,6.44,2.74,13.05,5.15,19.68,7.4,5.98,2.03,11.9,4.21,18.05,5.82,10.78,2.82,21.78,4.38,32.67,6.53,1.62,.32,3.3,.32,4.92,.62,1.5,.28,2.95,.78,4.43,1.17,3.56,.95,7.09,2.37,10.7,2.67,2.58,.21,5.31-.98,7.92-1.72,2.9-.83,5.73-1.9,8.62-2.78,4.38-1.34,8.75-2.7,13.17-3.88,2.85-.76,4.78-2.55,6.37-4.88,.95,1.62,1.66,3.26,2.74,4.61,9.24,11.48,26.82,10.73,36.35,3.75,.39-.29,.74-.64,1.07-.99,4.61-4.9,8.09-10.44,9.73-17.03,.2-.79,.55-1.54,.79-2.2,1.36,.16,2.4,.5,3.35,.34,4.03-.64,8.04-1.44,12.06-2.18,.77-.14,1.7-.09,2.26-.51,1.08-.82,2.15-.67,3.31-.51,2.9,.4,5.66-.06,8.12-1.68,1.61-1.06,3.38-1.35,5.24-1.55,3.94-.43,7.88-.73,11.75-1.8,6.56-1.82,13.22-3.29,19.82-4.97,18.07-4.6,36.49-7.2,54.97-9.4,2.1-.25,4.13-.7,5.85-1.96,1.16,.64,1.36,1.46,.52,2.39-1.04,1.16-2.14,2.25-3.22,3.37-1.15,1.19-2.47,2.25-3.41,3.58-1.73,2.44-1.13,4.96,1.44,6.46,1.17,.68,2.46,1.16,3.75,1.6,3.11,1.05,6.32,1.27,9.53,.63,4.86-.98,9.69-2.07,14.51-3.22,1.15-.27,2.45-.75,2.32-2.57-6.11-.51-12.21,.17-18.15-.9-.2-2.64,1.5-3.82,2.87-5.15,1.15-1.12,2.41-.15,3.6-.02,5.62,.6,11.22,1.19,16.79-.45,7.41-2.18,14.03-5.9,19.96-10.71,4.99-4.05,8.55-9.1,8.41-15.97l-.05,.05c1.22-.15,2.52-.1,3.66-.49,5.99-2.05,11.94-4.22,17.89-6.36,.45-.16,1.19-.37,1.24-.65,.27-1.61,1.59-1.36,2.63-1.68,5.45-1.73,9.67-5,12.19-10.18,.54-1.11,1.58-2.47,.6-3.83-1.05-1.47-2.49-.22-4.01-.25,.18-1.53,.42-2.97,.49-4.41,.18-3.4,.37-6.81,.38-10.22,0-3.2-1.35-5.64-4.59-6.67-1.94-.62-3.89-1.22-5.86-1.73-2.22-.58-4.48-1.04-7.05-1.63,1.61-1.75,3.26-2.1,4.89-1.99,7.14,.49,13.28,2.91,17.13,9.43,1.43,2.43,2.92,4.83,4.34,7.26,.6,1.03,1.14,2.22,2.53,2.09,1.44-.14,1.57-1.52,2-2.59,.75-1.86,.82-3.74,.7-5.73-.24-3.98-1.5-7.65-3.14-11.18-2.05-4.41-4.94-8.14-9.47-10.35-2.18-1.07-4.3-2.28-6.45-3.42-2.92-1.56-5.97-2.92-8.73-4.72-6.09-3.95-10.05-9.59-12.57-16.39-1.92-5.19-3.74-10.43-7.37-14.84-2.91-3.54-5.72-7.07-10.48-8.2,2.84-7.14,3.63-14.5,3.03-21.91-.8-9.92-3.3-19.56-5.87-29.16-2.37-8.83-6.33-16.95-10.96-24.77-1.88-3.18-3.56-6.54-5.83-9.43-1.3-1.65-1.87-3.23-2.1-5.18-.19-1.61-.56-3.23-1.07-4.78-.8-2.4-2.07-4.67-2.63-7.11-1.37-5.94-4.73-10.82-7.91-15.81-.55-.87-1.42-1.53-2.36-2.51-.85,.99-1.52,1.78-2.2,2.56-2.67,3.1-5.31,6.21-8.01,9.28-.88,1-1.97,1.76-3.61,1.66,1.93-1.83,3.83-3.35,5.39-5.16,1.64-1.91,2.99-4.07,4.41-6.16,.43-.63,.81-1.36,1-2.09,1.62-6.43,1-12.37-3.9-17.34-.14-.14-.27-.28-.4-.42-2.78-2.87-5.57-5.72-8.33-8.6-6.13-6.39-12.1-12.95-18.43-19.13-4.94-4.81-10.2-9.32-15.55-13.67-9.14-7.43-19.57-12.32-31.09-14.81-2.06-.44-4.22-.57-6.33-.59-2.42-.02-4.85,.35-7.28,.36-7.67,0-15.1,1.47-22.41,3.59-1.29,.38-2.55,.98-3.73,1.64-4.36,2.45-7.14,6.25-8.9,10.83-.76,1.98-1.26,4.05-1.91,6.18-.9-.1-1.77-.15-2.63-.31-4.07-.75-7.72,.26-11.04,2.64-4.17,2.99-6.99,7.02-8.88,11.7-.53,1.31-.97,3.05-.52,4.24,.53,1.44,.45,2.54,.02,3.85-.22,.68-.19,1.44-.25,2,1.52,.44,3.07,.43,3.8,1.19,2.44,2.52,5.56,3.91,8.48,5.63,4.15,2.44,8.5,3.85,13.63,2.16,.13,1.23,.24,2.28,.36,3.44-7.1-1.14-9.01,.13-12.97,2.22-5.32,2.81-8.97,6.28-9.54,8.8,2.1,1.02,4.44,1.61,6.7,3.7-1.49-.45-2.35-.7-3.88-1.16,3.06,3.65,5.36,7.05,9.35,8.62,4.18,1.64,8.35,1.15,12.58-.32,.26,13.85-3.49,26.46-10.01,38.36l.11-.09Zm121.96,227.09l.74,.75c.45-.48,.9-.97,1.35-1.45l-.6-.61-1.49,1.31Z"/><path d="M439.84,373.63c.14,6.87-3.42,11.92-8.41,15.97-5.94,4.82-12.55,8.53-19.96,10.71-5.57,1.64-11.17,1.06-16.79,.45-1.19-.13-2.45-1.1-3.6,.02-1.37,1.34-3.06,2.51-2.87,5.15,5.94,1.06,12.04,.39,18.15,.9,.14,1.82-1.17,2.3-2.32,2.57-4.82,1.15-9.66,2.24-14.51,3.22-3.2,.65-6.42,.43-9.53-.63-1.28-.43-2.58-.92-3.75-1.6-2.58-1.49-3.18-4.01-1.44-6.46,.94-1.33,2.27-2.4,3.41-3.58,1.08-1.12,2.19-2.21,3.22-3.37,.84-.93,.65-1.75-.52-2.39-1.72,1.26-3.75,1.71-5.85,1.96-18.48,2.19-36.9,4.8-54.97,9.4-6.6,1.68-13.26,3.15-19.82,4.97-3.87,1.07-7.81,1.37-11.75,1.8-1.86,.2-3.63,.49-5.24,1.55-2.47,1.62-5.22,2.08-8.12,1.68-1.16-.16-2.23-.31-3.31,.51-.56,.43-1.49,.37-2.26,.51-4.02,.74-8.03,1.53-12.06,2.18-.96,.15-2-.19-3.35-.34-.24,.66-.59,1.41-.79,2.2-1.64,6.59-5.12,12.14-9.73,17.03-.33,.35-.68,.71-1.07,.99-9.53,6.98-27.11,7.73-36.35-3.75-1.08-1.34-1.79-2.99-2.74-4.61-1.59,2.33-3.53,4.12-6.37,4.88-4.42,1.18-8.8,2.54-13.17,3.88-2.89,.88-5.72,1.96-8.62,2.78-2.61,.74-5.34,1.94-7.92,1.72-3.62-.3-7.14-1.72-10.7-2.67-1.48-.39-2.93-.89-4.43-1.17-1.62-.3-3.3-.3-4.92-.62-10.89-2.15-21.89-3.71-32.67-6.53-6.14-1.61-12.07-3.79-18.05-5.82-6.63-2.25-13.24-4.66-19.68-7.4-7.53-3.21-14.73-7.13-21.32-12.04-3.04-2.26-5.82-4.86-8.8-7.21-1-.79-1.24-1.61-.96-2.78,.65-2.73,1.25-5.47,1.86-8.18-4.68-2.78-7-7.13-8.36-12.12-.96-3.48,.3-6.42,2.7-8.77,4.6-4.48,9.39-8.77,14.11-13.14,3.72-3.44,8.26-5.53,12.84-7.44,11.64-4.85,23.87-7.77,36.08-10.76,5.58-1.37,11.07-3.1,16.59-4.67,.37-.11,.75-.37,1.11-.34,2.81,.21,3.87-1.76,5.24-3.73,5.42-7.77,11.54-14.98,18.48-21.45,2.48-2.31,5.26-4.37,8.13-6.19,1.36-.86,3.24-.89,5.25-1.38-.17-.57-.38-1.47-.69-2.33-1.63-4.58-1.71-9.14-.09-13.75,.65-1.83,1.19-3.71,1.71-5.58,1.43-5.2,4.78-9.31,7.69-13.68,4.82-7.25,10.87-13.5,16.49-20.09,5.51-6.46,11.79-12.22,18.56-17.32,2.62-1.98,4.17-3.79,4.33-7.15,.1-2.04,1.16-4.09,2.01-6.04,2.1-4.82,4.42-9.44,7.91-13.54,3.89-4.56,8.35-8.43,12.83-12.31,1.61-1.39,3.49-2.48,5.23-3.72,3.8-2.72,7.38-5.84,11.43-8.1,5.97-3.33,10.7-8.08,15.74-12.49,1.36-1.19,2.54-2.57,4.29-4.35,.03,1.36,.16,2.08,.05,2.78-1.18,8.07-3.72,15.72-7.34,22.99-.71,1.43-1.96,2.69-3.21,3.74-3.86,3.24-7.61,6.61-12.09,9.11-4.22,2.36-8.13,5.29-12.09,8.25,.47-.12,.97-.18,1.4-.38,7.25-3.43,13.91-7.83,20.29-12.66,1.61-1.22,3.12-2.55,4.68-3.83-.52,1.34-1.02,2.7-1.58,4.04-2.2,5.18-1.3,11.9,2.32,14.94,1.91,1.6,4.11,3.08,6.43,3.94,5.31,1.99,10.88,3.06,16.59,2.87,3.3-.11,6.59-.86,9.87-.76,9.99,.29,19-3.02,27.56-7.56,5.13-2.72,9.96-6.1,14.62-9.61,2.34-1.76,4.43-4.21,5.87-6.78,4.97-8.84,8.86-18.17,11.58-27.98,1.51-5.46,2.87-10.91,3.08-16.6,.03-.85,.25-1.87-.12-2.53-.85-1.51-.44-2.72,.26-3.97,4.85,0,9.24-3.29,9.51-7.1-1.06,1.18-2.04,2.36-3.12,3.43-2.95,2.93-7.63,2.44-9.49-1.01-1.53-2.84-1.7-9.01,1.67-11.63,1.35-1.05,2.37-2.57,3.38-3.99,1.39-1.95,1.78-4.03,.53-6.29-1.74-3.15-3.19-6.48-5.1-9.52-3.46-5.53-7.68-10.31-14.09-12.6-3.68-1.31-7.35-2.85-11.34-1.91-4.34,1.02-8.52,2.46-11.61,5.97-1.48,1.68-3.13,3.24-4.4,5.07-1.44,2.06-2.64,4.31-3.76,6.57-1.15,2.34-2.08,4.8-3.09,7.19l.08-.06c-.72,1.91-1.44,3.82-2.22,5.87-.74-.84-1.47-1.6-2.12-2.42-4.75-6.01-12.74-6.3-17.69-4.06-5.14,2.33-8.9,6.17-12.14,10.61-1.06,1.46-1.83,3.14-3.02,5.21,.86-.4,1.12-.5,1.37-.64,.33-.19,.64-.4,.96-.61-.83,1.52-1.67,3.03-2.5,4.55l.09-.06c-2.62-1.36-5.4-1.61-8.21-.92-4.68,1.15-8.39,3.94-11.69,7.34-.09,.09-.01,.36-.01,.75,3.13-.19,5.76,1.06,8.34,2.75,1.33,.87,3.05,1.41,4.63,1.54,2.85,.23,5.82,.37,8.13-1.8-.26-2.25-.51-4.34-.76-6.43,8.01,13.63,17.32,15.12,25.52,13.07,4.31-1.08,7.43-3.77,10.11-7.03,2.99-3.64,6.15-7.28,5.31-12.54-2.85-2.28-5.6-4.77-8.63-6.84-3.62-2.47-7.44-4.58-12.11-4.47-5.38,.13-9.75,2.38-13.6,5.92-1.56,1.43-3.14,2.85-4.72,4.27,3.15-6.32,7.69-11.17,14.48-13.62,5.61-2.03,10.52-.93,14.71,3.31,.68,.69,1.29,1.46,1.96,2.16,2.43,2.52,4.86,5.05,7.34,7.53,.45,.45,1.14,.66,1.72,.98l.34-.5c-1.94-2-3.88-4-5.82-6,1.29-.13,2.19,.22,3.13,.39,4.02,.71,7.46,2.73,10.87,4.8,1.72,1.04,1.59,2.25-.27,3.17-1.05,.52-2.17,.88-3.21,1.41-3.98,2.04-7.14,4.86-8.59,8.73,1.86,1.67,3.43,3.02,4.94,4.43,1.85,1.73,3.59,3.58,5.52,5.22,1.46,1.25,2.99,2.77,4.74,3.26,5.92,1.66,12.58-.13,15.69-5.35,1.37-2.3,3.35-4.22,5.1-6.37-2.18-2.91-4.31-5.71-7.62-7.36l5.29,6.01c-.81,.73-1.37,1.24-2.01,1.81l1.55,.84c-1.57,2.14-2.99,4.24-4.58,6.19-.84,1.02-1.88,2-3.03,2.63-3.58,1.93-7.47,2.25-10.86,0-3.53-2.35-6.82-5.19-9.77-8.25-1.09-1.13-1.82-2.71-3.38-3.48,.98-3.05,3.24-4.72,5.58-6.31,5.81-3.94,11.97-4.18,18.31-1.63l.85-1.25c2.28,.02,4.33,.23,6.33,0,3.12-.37,6.02-1.54,8.72-3.17,.52-.31,1.16-.43,1.83-.67,.77,4.6,.39,9.36,5.09,12.34-1.46,1.97-2.73,3.78-4.11,5.51-.72,.91-1.61,1.7-2.47,2.49-1.05,.96-.85,1.79,.4,2.85,1.29-1.68,2.55-3.33,4.13-5.39-.77,4.07-1.99,7.39-4.27,10.26-.6,.76-.78,1.33,.45,1.98,3.01-2.25,2.8-6.4,5.04-9.43-.16,4.8-.83,9.16-2.7,13.32-1.25-.14-2.3-.26-3.36-.38,.25-1.05,1-2.21-.58-2.87-4.11,2.06-4.41,3.65-1.19,6.03,.61-1.08,1.23-2.15,1.84-3.23,1.01,.49,2.02,.98,3.02,1.46-.54,5.76-3.73,10.57-5.16,15.77-2.04-.83-3.69-1.5-5.35-2.16-1.71-2.36-3.42-4.73-5.24-7.26-2.08,1.81-3.97,3.45-5.9,5.13,1.28,3.19,2.48,6.19,3.81,9.52,1.32-1.35,2.35-2.25,3.19-3.3,.94-1.16,1.93-1.16,3.06-.46,.95,.59,1.87,1.24,2.8,1.86l.3-.41c-1.37-1.06-2.73-2.12-4.34-3.37,.93-.69,1.67-1.24,2.41-1.79,1.55,1.08,3.1,2.15,4.34,3.02-3.3,12.92-11.8,20.8-23.19,26.35-.77-3.06-2.14-5.66-4.66-7.52,3.37-2.61,3.63-2.59,8.15,.9-.7-2-2.23-2.73-3.97-3.42,.92-.86,1.61-1.5,2.22-2.07-1.32-4.58-2.6-9.02-3.97-13.74-2.72,1.24-5.14,2.35-7.62,3.48,2.07,5.23,3.38,10.23,4.08,15.6,2.5,1.47,3.85,3.41,4.87,7.31-2.45,1.95-5.39,3.01-8.33,3.96-6.98,2.26-14.2,3.26-21.51,3.74-6.37,.42-12.64,.16-18.79-1.68-4.77-1.43-8.98-3.6-11.62-8.15-2.22-3.83-1.94-7,1.19-9.89l-1.21-.49c.31-1.08,1.59-2.15,.23-3.48l-1.79,.63c6.52-11.89,10.27-24.51,10.01-38.36-4.23,1.47-8.4,1.96-12.58,.32-3.99-1.57-6.3-4.97-9.35-8.62,1.53,.46,2.38,.71,3.88,1.16-2.26-2.09-4.61-2.68-6.7-3.7,.57-2.52,4.22-5.98,9.54-8.8,3.96-2.09,5.87-3.35,12.97-2.22-.12-1.16-.23-2.21-.36-3.44-5.13,1.68-9.48,.27-13.63-2.16-2.92-1.72-6.04-3.11-8.48-5.63-.74-.76-2.28-.75-3.8-1.19,.06-.55,.03-1.32,.25-2,.43-1.31,.51-2.41-.02-3.85-.44-1.2,0-2.94,.52-4.24,1.89-4.68,4.72-8.71,8.88-11.7,3.32-2.38,6.96-3.39,11.04-2.64,.85,.16,1.73,.21,2.63,.31,.65-2.13,1.15-4.21,1.91-6.18,1.76-4.57,4.53-8.38,8.9-10.83,1.18-.66,2.43-1.27,3.73-1.64,7.32-2.13,14.75-3.59,22.41-3.59,2.43,0,4.85-.38,7.28-.36,2.11,.02,4.27,.15,6.33,.59,11.52,2.48,21.95,7.38,31.09,14.81,5.35,4.35,10.62,8.86,15.55,13.67,6.34,6.18,12.3,12.74,18.43,19.13,2.76,2.88,5.55,5.74,8.33,8.6,.14,.14,.27,.29,.4,.42,4.9,4.97,5.52,10.91,3.9,17.34-.19,.74-.56,1.46-1,2.09-1.42,2.09-2.77,4.25-4.41,6.16-1.56,1.81-3.45,3.34-5.39,5.16,1.64,.09,2.73-.66,3.61-1.66,2.71-3.06,5.35-6.18,8.01-9.28,.68-.79,1.35-1.57,2.2-2.56,.94,.98,1.81,1.65,2.36,2.51,3.17,4.99,6.54,9.88,7.91,15.81,.56,2.44,1.83,4.71,2.63,7.11,.51,1.54,.88,3.16,1.07,4.78,.23,1.95,.8,3.53,2.1,5.18,2.27,2.89,3.95,6.24,5.83,9.43,4.63,7.83,8.59,15.95,10.96,24.77,2.57,9.6,5.07,19.24,5.87,29.16,.6,7.41-.19,14.76-3.03,21.91,4.76,1.13,7.57,4.67,10.48,8.2,3.63,4.4,5.45,9.65,7.37,14.84,2.52,6.8,6.47,12.44,12.57,16.39,2.77,1.8,5.81,3.16,8.73,4.72,2.15,1.15,4.26,2.36,6.45,3.42,4.53,2.21,7.42,5.94,9.47,10.35,1.64,3.53,2.9,7.21,3.14,11.18,.12,1.99,.04,3.87-.7,5.73-.43,1.07-.56,2.45-2,2.59-1.39,.13-1.93-1.06-2.53-2.09-1.43-2.43-2.91-4.84-4.34-7.26-3.85-6.52-9.99-8.94-17.13-9.43-1.63-.11-3.28,.25-4.89,1.99,2.58,.59,4.83,1.06,7.05,1.63,1.97,.51,3.92,1.11,5.86,1.73,3.24,1.03,4.6,3.47,4.59,6.67,0,3.41-.2,6.82-.38,10.22-.08,1.45-.31,2.88-.49,4.41,1.52,.03,2.96-1.22,4.01,.25,.98,1.37-.06,2.72-.6,3.83-2.52,5.18-6.74,8.45-12.19,10.18-1.03,.33-2.36,.07-2.63,1.68-.05,.28-.79,.49-1.24,.65-5.96,2.14-11.91,4.3-17.89,6.36-1.14,.39-2.44,.34-3.66,.48,.29-.98,.27-1.95,1.65-2.41,4.98-1.64,9.89-3.48,14.81-5.26,.56-.2,1.09-.51,1.34-.63-3.68-1.3-7.42-2.61-11.14-3.95-3.91-1.41-7.8-2.9-11.73-4.26-.83-.29-1.8-.15-2.64-.21-.45,1.72,.75,1.92,1.5,2.4,2.84,1.82,4.73,4.29,5.29,7.67,.36,2.19,.65,4.4,.97,6.6ZM224.85,218.54c-1.65,2.19-1.98,3.29-1.42,5.78,.3-1.12,.46-1.69,.6-2.27,.28-1.17,.55-2.35,.83-3.52l2.47-6.14c-1.53,1.78-2.89,3.64-2.47,6.15Zm29.33,12.51q-.51,1.74,1.14,3.28c-.45-1.28-.8-2.28-1.15-3.28-.39-.23-.87-.39-1.17-.72-2.6-2.87-4.08-6.28-4.6-9.8-2.18-1.46-4.11-2.75-6.04-4.04,.95,3.45,2.03,6.7,3.64,9.66,1.69,3.12,3.11,6.69,7.26,7.89-.04-1.21-1.15-2.71,.93-3ZM43.92,380.43l-.05-.07c-.32,.93-.49,1.82,.6,2.42,.76,.42,1.47,.94,2.25,1.33,1.88,.94,4.83,.63,6.02-.58,1.17-1.19,1.37-3.78,.43-5.77-.12-.26-.27-.51-.43-.76-1.95-2.97-4.77-4.76-8.08-5.82-1.79-.57-3.32,.27-3.91,1.95-.64,1.81,.53,6.06,2.05,7.23,.25,.19,.74,.06,1.12,.07ZM338.84,152.07c-.67,.64-1.35,1.28-2.2,2.09,.21,1.06,.45,2.25,.78,3.89,3.02-2.29,5.71-4.33,8.39-6.38,1.24-.94,1.05-1.94-.07-3.16-.95,.53-1.94,1.11-2.96,1.64-1.34,.69-2.7,1.34-4.05,2.01,1.01-.73,2-1.47,3.03-2.17,2.46-1.68,4.79-3.46,5.67-6.57-.51,.15-.87,.5-1.12,.9-1.51,2.38-3.8,3.85-6.1,5.33-4.74,3.06-10.14,4.41-15.44,6.02-5.11,1.55-10.3,2.26-15.57,1.26-3.53-.67-7.07-1.49-10.48-2.62-1.94-.65-3.34-.38-4.8,.84-1.31,1.09-2.68,2.11-4.12,3.23-.88-1.27-1.56-2.34-2.33-3.33-1.41-1.82-2.66-2.05-4.83-1.15-1.89,.78-3.81,1.47-5.73,2.16-2.45,.88-4.91,1.73-7.6,2.67,.51,.41,.77,.75,1.1,.85,4.93,1.52,9.79,3.35,14.81,4.42,5.51,1.17,11.15,1.79,16.77,.06,6.04-1.86,12.2-3.36,18.2-5.33,5.81-1.91,11.5-4.21,17.24-6.33,.45-.16,.94-.22,1.4-.32Zm-2.67,139.88c-1.63,.48-1.61,2.03-1.95,3.23-1.49,5.28-2.09,10.66-2.13,16.17-.02,3.11,.57,5.97,1.68,8.81,.19,.47,.19,1.02,.29,1.61-2.24-.42-2.37-.43-3.61-1.9-1.69-2.01-3.37-4.03-4.91-6.16-6.05-8.36-7.95-17.57-5.41-27.62,.66-2.63,1.25-5.17,.91-8-.41-3.42,.39-6.74,3.03-9.38,1.6-1.6,3.54-2.39,5.64-2.84,1.2-.26,2.08-.78,2.93-1.66,2.16-2.24,4.36-4.44,6.69-6.49,2.27-1.99,4.65-3.88,7.11-5.63,4.83-3.44,8.1-7.96,10.32-13.44,2.78-6.87,3.7-13.86,2.32-21.15-1.29-6.85-3.7-13.35-6.76-19.54-2.49-5.04-2.32-9.79-.59-14.92,1.78-5.28,3.84-10.38,6.89-15.06,.03-.04-.08-.17-.27-.54-.72,.86-1.44,1.58-2.01,2.4-2.71,3.96-4.64,8.31-6.44,12.75-2.62,6.45-2.2,12.72,.76,18.91,.59,1.23,1.23,2.44,1.75,3.7,2.12,5.13,4.31,10.25,4.11,15.99-.07,2.14-.04,4.28-.1,6.42-.2,6.92-2.04,13.31-6.62,18.62-2.47,2.86-5.21,5.52-8.01,8.06-2.66,2.42-5.69,4.43-8.32,6.87-2.28,2.11-4.95,3.5-7.73,4.57-5.03,1.94-7.85,7.37-6.64,11.57,.75,2.59,.32,5.16-.59,7.73-1.68,4.75-2.34,9.65-1.29,14.66,.85,4.1,1.53,8.38,3.98,11.83,2.52,3.55,5.6,6.72,8.57,9.93,.89,.96,2.21,1.58,3.43,2.13,.6,.27,1.55,.24,2.11-.06,.3-.17,.26-1.24,.14-1.85-.59-2.95-1.25-5.89-1.91-8.83-.65-2.91-.52-5.81,.02-8.71,.67-3.64,1.33-7.28,2.03-10.91,.08-.44,.37-.84,.55-1.26,1.05-1.47,1.8-3.41,3.22-4.31,3.01-1.92,4.8-4.7,6.74-7.49,.8-1.15,2.03-2.03,3.17-2.9,.76-.58,1.7-.93,2.55-1.4,9.34-5.22,18.56-10.68,28.07-15.57,6.19-3.18,12.23-6.46,17.42-11.1,3.58-3.2,6.74-6.8,8.23-11.49,2.37-7.43,4.25-14.98,4.76-22.8,.41-6.31,.92-12.61,1.17-18.93,.11-2.8,.19-5.68-1.02-8.37-.36,5.54-.22,11.08-.65,16.59-.8,10.18-2.16,20.25-5.55,30.03-2.57,7.42-7.18,12.92-13.57,16.92-8,5-16.31,9.51-24.46,14.26-5.96,3.48-11.94,6.94-17.81,10.59-1.8,1.12-3.87,2.32-3.79,5.03,0,.32-.31,.74-.59,.97-1.65,1.33-3.26,2.73-5.03,3.88-1.86,1.21-3.21,3.84-2.82,6.11Zm-83.05,108.44c1.83,5.23,1.03,10.71,1.48,16.78,1.64-3.28,.7-6.27,1.24-9.01l.63,.04c.02,2.34,.04,4.69,.06,7.29,3.28-.77,6.3-1.48,9.43-2.21-.25-.35-.33-.57-.48-.64-4.37-2.05-7.51-5.44-10.19-9.34-.68-.99-1.5-1.9-2.25-2.84-.28-1.59-.45-3.21-.87-4.77-2.5-9.41,1.41-18.3,8.89-23.57,3.38-2.38,7.37-3.89,11.08-5.83,3.01-1.57,6.34-2.77,8.93-4.87,5.76-4.66,7.91-11.37,9.13-18.41,.13-.73-.09-1.55-.27-2.3-.63-2.72-2.56-4.47-4.52-6.16-7.11,5.35-13.75,10.98-19.4,17.77-7.82,9.39-13.66,18.25-13.92,21.95,1.71-.2,3.4-.39,5.29-.61-2.32,3.48-6,4.04-8.89,1.38,7.49-17.21,19.92-30.27,34.96-41.1-1.65-.61-3.35-1.27-5.07-1.87-1.45-.5-2.55-.38-3.89,.86-3.35,3.11-6.94,5.97-10.57,8.76-8.08,6.21-15.11,13.48-21.73,21.18-2.59,3.01-5.09,6.13-8.61,8.51-1.33-.81-2.67-1.58-3.97-2.42-2.04-1.33-4.03-2.73-6.08-4.05-6.03-3.85-12.68-6.41-19.16-9.33-6.87-3.08-13.89-5.66-21.16-7.59-1.79-.48-3.51-1.24-5.46-1.94-2.89,4.31-7.34,6.99-12.43,8.65-1.63,.53-3.41,.72-5.14,.85-4.26,.32-8.53,.56-12.8,.74-3.3,.14-6.61,.1-9.91,.22-2.24,.08-3.09,1.49-2.32,3.56,.82,2.2,1.98,4,4.5,4.53,.39,.08,.71,.53,1.06,.8-.62,1.21-1.52,.92-2.36,.78-4.01-.66-7.11-2.65-9.88-5.7-2.91-3.21-2.6-9.37,1.03-12.61,3.25-2.9,7.03-4.17,11.14-4.51,4.11-.34,6.78-3.02,10.1-5.06-.51-.38-.72-.67-.95-.7-6.08-.79-12.16-1.7-18.26-2.26-2.78-.26-5.71-.24-8.41,.38-9.77,2.23-19.46,4.77-29.19,7.17-1.88,.46-3.86,.63-5.69,1.24-9.98,3.32-20.03,6.48-28.72,12.76-4.17,3.01-8.23,6.13-11.78,9.44,2.47,1.78,4.88,3.37,7.13,5.16,2.18,1.73,3.68,4.02,4.58,6.66,1.5,4.37-.32,8.32-4.63,9.93-1.44,.54-2.96,.86-4.6,1.32-.64,2.04-1.26,4.19-2,6.29-.87,2.47-.14,4.24,1.87,5.85,8.27,6.6,17.11,12.33,26.89,16.36,7.19,2.96,14.66,5.27,22.04,7.75,5.35,1.8,10.8,3.33,16.15,5.11,7.41,2.47,14.9,4.65,22.69,5.38,4.93,.47,9.83,1.55,14.85,1.01,2.01-.21,3.45-.77,4.21-2.86,.45-1.25,.96-2.69,2.67-3.49,.09,.69,.3,1.16,.17,1.53-.28,.82-.76,1.58-1.1,2.39-1.54,3.71-.96,4.82,2.85,5.85,4.81,1.3,9.55,1.68,14.18-.69,.52-.26,1.1-.41,1.65-.59,6.46-2.18,12.92-4.35,19.38-6.54,1.36-.46,2.69-1.01,4.04-1.52-.07-1.49-.22-2.75-.16-4.01,.05-1.18-.5-2.52,.85-3.75,.27,1.23,.49,2.21,.78,3.53,.4-1.16,.7-1.98,.97-2.81,1.52-4.77,3.56-9.32,6.66-13.25,2.58-3.29,5.29-6.52,8.3-9.41,6.47-6.21,14.06-10.1,23.29-9.93,3.22,.06,6.15,.88,8.07,3.86,1.1,1.71,2.41,3.29,3.63,4.93Zm70.26-66.14c.38,.27,.76,.53,1.12,.82,2.43,1.97,4.92,3.93,6.36,6.77,2.87,5.68,4.37,11.63,3.03,18.04-.13,.61-.08,1.25-.12,2.02,.8-.1,1.38-.14,1.94-.25,.54-.11,1.06-.31,1.74-.51,0-1.75-.12-3.41,.03-5.04,.14-1.52-.75-3.5,1.79-4.54,.65,3.82-.05,7.37,.17,11.17-2.37-.41-4.12,2.39-6.38,.23-1.16,2.03-2.29,3.74-3.16,5.57-4.11,8.65-10.47,15.1-18.82,19.71-5.6,3.09-11.65,4.4-17.94,4.26-4.36-.1-8.75-.64-13.05-1.37-3.31-.56-5.2,1.09-6.76,3.44-.67,1.01-1,2.32-1.22,3.55-.52,2.82,.33,5.43,1.83,7.77,1.21,1.9,4.15,2.48,6.3,1.41,2.4-1.2,.72-2.78,.28-4.21-.55-1.81-.11-2.79,1.62-3.42,2.2-.81,4.73,.5,5.48,2.91,.66,2.12,.42,4.23-.28,6.32-.25,.74-.41,1.51-.62,2.3,30.24-8.49,60.4-15.44,91.97-18.12-3.5-4.51-5.49-8.96-4.73-14.39,.73-5.18,2.49-9.75,6.56-13.24-3.4-4.48-7.39-7.9-11.58-11.06-2.07-1.56-4.44-2.8-6.81-3.87-4.67-2.11-9.75-2.52-14.78-2.92-1.59-.12-3.28,.37-4.85,.82-2.29,.66-4.51,1.54-7.06,2.43,.36-4.1-.15-7.78-2.57-10.81-2.4-3.01-5.44-5.23-9.5-5.76Zm-54.81,1.27c-5.6-2.14-10.53-4.18-15.58-5.9-5.25-1.79-10.58-3.31-15.91-4.85-7.48-2.16-14.99-4.19-22.46-6.35-1.5-.43-3.38-.17-4.27-2.07-.12-.26-1.11-.3-1.61-.16-5.59,1.61-11.26,2.85-16.71,5.08-5.93,2.43-8.81,6.59-9.71,12.67-.34,2.29-1.11,4.51-1.74,6.75-.28,.99-.71,1.94-1.13,3.06,19.97,4.95,37.45,14.78,55.33,24.56,10.33-11.68,19.64-24.44,33.79-32.79Zm-24.58,82.41c-.22-2.69-.13-5.46-.73-8.07-.99-4.36-4.24-6.42-8.68-6.78-3.49-.28-6.03,1.7-8.42,3.36-4.95,3.45-7.96,8.47-8.97,14.54-.98,5.91,.52,9.57,5.7,12.53,4.37,2.5,9.54,2.74,13.79-1.19,4.23-3.91,6.52-8.66,7.3-14.4Zm-91.27-82.28c2.67-3.75,5.33-12.63,4.51-19.5-.44-3.72,.47-7.15,2.32-10.35,.61-1.06,1.3-2.08,1.96-3.14-3.23-1.52-3.48-1.48-5.94,.33-10.33,7.6-18.47,17.24-25.72,27.7-.3,.44-.44,.99-.74,1.69,8.03,1.11,15.81,2.19,23.61,3.27ZM313.1,88.13c-2.77-2.83-5.11-5.41-7.67-7.75-1.02-.94-2.47-1.71-3.83-1.92-2.47-.38-5.01-.43-7.52-.36-1.72,.05-3.47,.36-5.13,.84-5.04,1.48-8.68,4.94-12.11,8.73,2.29,1.27,4.46,2.51,6.66,3.7,.93,.5,1.87,1.04,2.88,1.35,9.41,2.84,17.97,.55,26.71-4.59Zm-90.71,138.25c-.13,3.55,.57,7.36,1.27,11.18,.48,2.62,.94,5.25,1.37,7.68,7.12-4.46,14.51-9.09,21.81-13.67-2.39-5.44-4.85-11.05-7.26-16.57-5.67,3.75-11.17,7.39-17.2,11.38Zm196.31,142.56l-.52-.69c.62-1.92,1.77-3.6,3.15-5.04,1.32-1.39,2.95-2.49,4.58-3.83-3.94-.11-7.66,3.83-10.81,11.25,.59,.11,1.14,.21,1.7,.31,4.25,.78,6.13,4.58,4,8.35-.7,1.24-1.78,2.31-2.85,3.29-2.89,2.67-6.48,3.89-10.25,4.63-.81,.16-1.91,.33-2.25-1.06,5.15-.43,9.6-2.06,13.14-5.78,1.2-1.26,1.95-2.67,1.85-4.45-.1-1.76-1.43-3.36-3.14-3.81-1.75-.46-3.53,.22-4.51,1.67-2.18,3.22-4.39,6.43-6.58,9.65-1.99,2.94-3.97,5.88-6.2,9.18,1.56-.03,2.71,0,3.85-.1,4.94-.45,9.32-2.28,13.61-4.82,3.67-2.18,6.52-4.93,8.6-8.51,1.47-2.52,1.92-5.28,.89-8.15-.93-2.61-2.16-3.31-4.92-2.74-1.11,.23-2.23,.43-3.35,.64ZM242.06,115.4c2.24,.52,4.14,.89,6,1.41,2.24,.63,4.42,1.45,6.66,2.06,3.42,.92,6.89,1.07,10.63,.49-.1-.93-.14-1.78-.3-2.61-.94-4.68-1.62-9.38-1.56-14.18,.04-2.97-.9-3.73-3.9-3.69-.58,0-1.18,.07-1.73,.24-5.88,1.83-10.79,4.94-13.58,10.68-.84,1.73-1.43,3.57-2.23,5.61Zm212.29,211.65c-.64,.67-1.33,1.08-1.53,1.65-1.26,3.65-2.45,7.33-3.58,11.02-.15,.51,.14,1.14,.2,1.72,.35,3.32,2.52,5.64,4.5,8.03,4.7,5.67,9.7,6.63,16.06,3.6,1.44-.68,1.76-1.57,1.17-2.93-3.44,.11-4.3-.08-6.74-2.32-3.17-2.91-5.66-6.2-5.05-10.91,.32-2.47,.57-4.95,.83-7.2-1.33-2.39-4.55,.35-5.87-2.67Zm-144.95-188.65c10.75,8.58,22.08,7.62,28.26,.8-1.41-1.45-2.94-2.82-4.23-4.39-3.17-3.84-10.55-4.4-14.06-2.84-3.57,1.58-6.73,3.78-9.97,6.43Zm-86.81,109.38c-4.13-.89-5.25-4.47-7.94-6.46-1,2.37,1.46,2.7,2.18,4.01-3.25,.53-4.4-1.58-3.35-5.76-1.26-1.95-2.52-3.89-3.99-6.15-3.48,3.31-7.88,5.04-11.43,8.18,4.08,5.19,8.55,9.75,10.88,16.11,4.62-3.36,8.89-6.46,13.65-9.93Zm58.49-46.47c1.54-6.46,3.58-12.62,3.33-19.48-2.8-.69-5.48-1.35-8.29-2.03-1.78,6.11-3.45,11.83-5.17,17.73,.97,.48,1.87,1.05,2.86,1.4,2.36,.84,4.75,1.57,7.26,2.38Zm5.55-18.48c-1.41,6.73-2.69,12.87-3.97,19.02,1.03,.45,1.88,.82,2.76,1.2-.13,2.31-.26,4.45-.38,6.59l.62,.05,.73-6.38c2.09-.73,3.61,0,4.66,1.27,1.01,1.21,1.59,2.78,2.47,4.4,.22-2.24-.69-3.9-1.48-4.92,.96-6.84,1.84-13.12,2.76-19.61-2.79-.56-5.4-1.08-8.16-1.63Zm18.7,18.09c-.09-1.61-.15-2.77-.22-3.93-.23-3.49-.4-6.99-.72-10.48-.22-2.32-.36-2.36-2.76-2.16-1.36,.11-2.71,.26-4.06,.45-.97,.14-1.49,.67-1.61,1.74-.56,4.74-1.24,9.47-1.77,14.21-.1,.89,.03,1.99,.49,2.72,.74,1.17,1.84,2.11,2.79,3.15l.4-.33c-.77-1.07-1.54-2.13-2.41-3.34,4.62-.88,6.5,2.07,8.53,4.85-.11-2.41-2.41-3.5-3.3-5.45,1.64-.5,3.1-.95,4.65-1.42Zm-52.98,34.71c-2.04-1.03-3.29-2.92-5.7-1.57-3.78,2.11-6.95,5.26-11.23,6.52-.26,.08-.44,.38-.67,.55-4.98,3.53-9.97,7.05-14.96,10.58-1.35,.96-2.69,1.92-4.02,2.9-1.27,.94-2.53,1.89-3.8,2.85,1.8,.97,3.31,1.78,4.89,2.63,10.17-10.35,22.77-17.17,35.48-24.45Zm11.31-32.07c1.34-2.41,2.93-4.56,5.48-5.87,.4-.2,.6-.92,.76-1.44,1.23-4.09,2.44-8.19,3.63-12.29,.3-1.02,.57-2.08,.66-3.13,.06-.6-.05-1.5-.45-1.82-1.7-1.38-3.35-2.87-5.65-3.65-1.79,4.65-3.52,9.15-5.26,13.68,.87,1.31,1.71,2.56,2.54,3.79-1.53,1.1-3.13,1.87-3.61,4.01,4.61-3.94,4.85-3.94,7.53-.19-2.83,1.49-5.07,3.51-5.64,6.91Zm-50.76,111.04l-.06,.9c2.12,.6,4.26,1.15,6.36,1.81,9.57,2.98,19.15,5.92,28.67,9.03,6.56,2.14,13.07,4.45,19.54,6.87,3.03,1.13,4.16,.92,6.14-2.12-1.12-.35-2.21-.71-3.32-1.02-6.26-1.79-12.49-3.73-18.81-5.3-8.49-2.12-17.03-4-25.31-6.89-3.57-1.25-7.23-2.24-10.87-3.26-.72-.2-1.56-.02-2.34-.01Zm60.51-230.5l.43,.58c.74-.74,1.48-1.5,2.24-2.23,1.82-1.74,3.56-3.58,5.5-5.19,7.88-6.53,19.18-6.22,26.56,.82,1.64,1.57,2.82,3.63,4.24,5.5l-1.29,.83c1.27,1.32,2.46,2.55,3.7,3.83-.41,1.6-.4,3.48-2.52,4.25-.54,.2-.95,.97-1.27,1.55-1.6,2.93-4.14,4.97-6.88,6.6-3.97,2.37-8.28,3.38-12.85,1.49-1.12-.46-2.33-.73-3.49-1.09,3.02,2.87,6.33,4.66,10.66,3.67,4.48-1.03,7.84-3.67,10.97-6.83,2.25-2.27,4.62-4.44,7.06-6.52,1.14-.97,2.58-1.6,4.5-2.75-1.15-.03-1.23-1.28-2.13-.2-1,1.19-1.96,.98-2.87-.31l1.1-1.46c-1.81-1.89-3.45-3.54-5.03-5.25-1.38-1.49-2.62-3.1-4.04-4.54-5.93-6-13.14-6.43-20.59-4.07-6.03,1.91-10.18,6.51-13.99,11.32Zm47.59,93.76c.62,2.33,1.09,4.42,1.73,6.44,.65,2.07,.83,4.32,2.22,6.41,2.82-3.1,5.89-2.77,9.29-.86-1.12-2.27-3.07-2.39-4.82-2.89,1.63-2.36,2.86-2.64,5.11-1.23,.73,.45,1.4,1,2.1,1.5-.49-1.09-1.21-2.13-2.12-2.34-2.18-.5-2.78-2.16-3.46-3.84-.62-1.53-1.15-3.1-1.76-4.63-.46-1.13-.99-2.23-1.67-3.74-2.38,1.86-4.42,3.46-6.62,5.18Zm10.35,97.82c.08,3.42,.7,5.44,2.83,7.49,.65,.63,1.84,1.44,2.44,1.23,1.94-.69,4.15-1.12,5.43-3.03,1.66-2.47,1.48-7.59-.31-10-2.27-3.05-6.93-2.94-8.85,.31-.72,1.21-1.04,2.66-1.54,4.01Zm-21.15-93.7c-1.2,.4-2.22,.71-3.22,1.06-1.04,.37-1.45,.99-1.34,2.21,.38,4.15,.61,8.32,.9,12.47,.13,1.8,.39,3.45,2.53,4.11,.61,.19,1.02,1.09,1.49,1.68,.36,.46,.66,.96,.99,1.44-.06-1.21-.38-2.25-1.02-3.04-.59-.74-1.5-1.21-2.35-1.86,3.2-1.69,3.95,1.46,5.89,2.34-.78-1.18-1.55-2.35-2.39-3.61,.53-.26,.95-.48,1.38-.69,.51-.24,1.02-.47,1.69-.77-1.37-5.14-1.99-10.36-4.56-15.35Zm-13.75-7.6c1.32-.07,2.1-.04,2.86-.17,3.13-.55,6.26-1.13,9.38-1.74,.9-.18,1.69-.64,1.63-1.73-.11-2.29,.01-4.63-1.3-6.86-4.02,.84-7.97,1.67-12.15,2.55-.14,2.58-.28,5.15-.43,7.95Zm-14.04,.02c4.57,1.22,8.5,.4,12.6,.05,.08-2.8,.15-5.27,.22-7.93-3.79-.15-7.35-.28-11.28-.43-.51,2.76-.99,5.37-1.54,8.32Zm-12.35-4.01c2.85,1.25,5.4,2.41,7.98,3.49,.94,.39,2.07,.54,2.44-.71,.72-2.45,1.93-4.82,1.79-7.43-3.58-1.36-6.96-2.65-10.49-3.99-.59,2.96-1.12,5.62-1.72,8.65Zm-52.98,101.83c1.34,2.66,2.9,4.76,3.48,7.09,1.07,4.33,3.24,7.78,6.32,10.91,5.63,5.71,12.47,8.41,20.35,8.79,.4,.02,.82-.24,1.65-.5-.72-.4-1.01-.61-1.33-.73-3.7-1.45-7.52-2.66-11.1-4.37-6.01-2.87-10.87-7.05-13.8-13.24-1.07-2.27-2.37-4.45-3.68-6.6-.32-.52-1.07-.78-1.89-1.34Zm247.96,57.99c-4.06,6.64-1.08,13.66,6.44,15.15,.16-2.82,.37-5.62,.46-8.43,.21-6.38-.28-5.63-4.95-6.49-.65-.12-1.32-.16-1.95-.23Zm-141.75-170.6c-4.18,1.47-8.19,2.87-12.06,4.23,.26,2.52,.5,4.91,.75,7.36,3.11-.37,5.59-1.98,8.25-3.12,3.06-1.32,4.36-3.28,3.2-6.57-.15-.44-.08-.96-.15-1.89ZM43.66,369.22c2.43,1.19,4.35,1.92,6.03,3.01,2.66,1.73,4.81,3.94,5.29,7.3,.51,3.58-1.46,6.14-5.07,6.32-1.59,.08-3.2-.32-4.79-.51,.19,.21,.43,.75,.77,.81,2.36,.44,4.8,1.28,7.1,1.03,4.08-.45,5.59-3.18,5.12-7.31-.57-4.99-5.77-10.46-12.47-11.37-.46-.06-.98,.34-1.97,.71ZM324.46,159.06l1.18,5.66c2.85-1.4,5.36-2.44,7.67-3.81,2.95-1.75,3.12-2.9,1.36-6.22-1.56,.76-3.1,1.58-4.7,2.26-1.69,.72-3.43,1.32-5.52,2.1Zm17.61,2.67c-1.94,.8-3.28,2.62-4.74,4.28-.21,.24-.34,.83-.19,1.07,1.09,1.86,1.62,4.27,4.42,4.82,.95-1.57,2.04-3.08,2.79-4.75,.66-1.47,1.68-2.01,2.67-1.9-1.36-.97-2.96-2.11-4.95-3.53Zm-19.43,115.13c1.87-1.5,3.77-2.53,6-1.65,.78-1.48,1.39-2.81,2.17-4.04,.74-1.16,1.65-2.21,2.55-3.39-6.16-1.49-10.52,2.17-10.71,9.07Zm-12.9-184.53c-4.85,1.96-9.65,4.11-15.02,4.05-5.43-.06-9.95-2.77-14.51-5.34,6.18,7.5,20.23,10.08,29.53,1.29Zm-119.48,214.92c-3.42-4.65-8.3-5.53-13.48-5.55-4.25-.02-6.6,.56-7.92,1.9,.83,.09,1.89-.09,2.21,.32,.51,.66,.65,1.06,1.72,.85,5.48-1.07,10.83-.63,15.9,1.91,.49,.25,1.04,.38,1.57,.57Zm223.74-22.22l.3,.29c2.45-1.72,4.85-3.53,7.36-5.15,3.66-2.35,5.93-5.8,7.89-9.51,.53-.99,.97-2.08,.05-3.65-2.47,3.43-4.55,6.79-7.11,9.74-2.58,2.97-5.64,5.53-8.49,8.27ZM281.33,81.28l-.3-.36c-2.56,2.02-5.12,4.04-7.91,6.25l-.45,2.41c.18,.27,.31,.54,.52,.73,3.2,2.95,6.37,5.93,9.64,8.79,.69,.6,1.76,.77,2.66,1.14-3.69-3.82-6.66-8.28-12.07-10.35,.73-.49,1.53-.81,1.52-1.07-.17-2.64,2.47-3.1,3.6-4.72,.75-1.08,1.86-1.9,2.81-2.83Zm129.7,205.18c-3.69,4.26-9.59,4.84-13.68,8.42,5.24-1.65,10.64-3.04,13.68-8.42Zm-75.82-143.05c-2.93,1-5.29,2.12-7.77,2.56-2.54,.45-5.2,.23-7.74,.3,3.91,2.27,11.4,1.07,15.51-2.86Zm-79.75,.24c3.89,2.62,9.66,2.6,13.48-.17-2.45,.48-4.55,1.2-6.66,1.22-2.18,.02-4.37-.64-6.82-1.05Zm29.03-65.06c4.35-1.73,8.76-3.02,13.98-2.51-6.36-1.4-10.68-.91-13.98,2.51Zm60.66,197.03c.56-4.78-1.77-8.21-5.82-8.68,3.35,1.97,4.88,5.11,5.82,8.68Zm40.1,99.09c-.64-2.98-1.47-5.82-3.84-8.04-.75,.67-1.16,1.24-.56,2.06,1.46,2,2.94,3.99,4.41,5.98Zm68.16-59.69c.91-4.01,.56-7.81-1.31-11.43,.44,3.81,.87,7.62,1.31,11.43Zm-67.75,70.53c1.14-3.68,1.03-5.9-.22-7.49-1.09,2.56-.83,5.02,.22,7.49Zm7.27,13.8c2.79-.57,5.38-3.33,5.78-5.7-1.84,1.81-3.58,3.53-5.78,5.7Zm-57.82-113.03c-.88-.74-1.78-1.46-2.63-2.24-.78-.72-1.5-1.5-2.25-2.26,1.14,2.96,2.05,3.79,4.88,4.5Zm-74.57-163.88c-2.87-.87-5.41-1.64-7.95-2.41,2.24,1.87,4.88,2.28,7.95,2.41Zm139.59,40.49c-2.17-3.2-3.4-3.82-5.22-2.76,1.58,.84,3.09,1.63,5.22,2.76Zm-123.42,39.07c-1.63,.46-2.26,1.84-2.26,6.08,.89-2.39,1.61-4.32,2.26-6.08Zm-7.51,4.91c.47-1.14,.85-2.32,1.44-3.39,.62-1.12,1.43-2.13,2.16-3.19-2.73,1.29-3.46,3.77-3.6,6.58Zm-13.78,91.8c1.74,1.42,1.8,1.42,3.51-.16-1.26-.91-2.35-.97-3.51,.16Zm119.75-140.16c1.65,1.13,2.65,.83,3.7-.49-1.38-.94-2.39-.62-3.7,.49Zm7.41,235.31l.55,.2c1.6-2.16,1.66-2.32,1.65-4.82-.86,1.8-1.53,3.21-2.2,4.62Zm-73.95-186.75c-.13-3.8-.97-4.97-3.27-4.82q1.86,1.29,3.27,4.82Zm-26.63-5.17c-2.03,2.17-2.07,4.17-1.9,6.94,.7-2.55,1.21-4.43,1.9-6.94Zm32.24-3.43c1.17,1.4,2.35,2.8,3.52,4.21-.58-1.88-1.41-3.54-3.52-4.21Zm78.61,98.44l1.9-3.26-.36-.28c-.75,.52-1.51,1.03-2.34,1.61,.25,.61,.46,1.12,.79,1.93Zm-63.52-103.52c-1.3-1.9-2.79-2.21-4.79-2.06,1.63,.7,2.98,1.28,4.79,2.06Zm-28.43,112.96l.47,.09c.33-1.33,.67-2.65,1-3.98l-.65-.14c-.27,1.34-.54,2.69-.82,4.03Zm-54.97-202.07l-.6-.39-2.27,3.52,.51,.33c.79-1.15,1.57-2.31,2.36-3.46Zm8.83-6.94l.12,.53,3.95-.92-.12-.5c-1.32,.3-2.64,.59-3.95,.89Zm-46.82,131.65q-.26,2.38,.88,3.31c-.29-1.1-.59-2.21-.88-3.31Zm130.36-46.13l.3-.49c-.83-.51-1.67-1.03-2.5-1.54l-.28,.46c.83,.52,1.66,1.05,2.49,1.57Zm-74.9-85.93l-.02-.96-2.28,.32,.03,.54,2.27,.1Zm52.22,117.24q1.05,1.42,2.9,1.18l-2.9-1.18Zm11.01,62.66c.7,.61,1.39,1.21,2.51,2.19-.29-1.95-1.13-2.42-2.51-2.19Zm18.02-106.74l-.16,.47,1.87,.7,.18-.51-1.9-.65Zm-77.03-22.13l.03,.61h1.28l-.04-.78c-.42,.06-.85,.12-1.27,.18Zm3.77-60.65c-.59-.33-.93-.57-1.31-.68-.1-.03-.49,.44-.45,.52,.18,.34,.44,.7,.76,.88,.11,.07,.5-.34,1-.71Zm31.38-10.04l.31-.54-1.61-.56-.15,.4,1.44,.71Zm32.66,189.36l.23,.68c.51-.18,1.01-.37,1.52-.55l-.12-.44-1.63,.3Z"/><path d="M381.03,416.16l1.49-1.31,.6,.61c-.45,.48-.9,.97-1.35,1.45l-.74-.75Z"/><path class="h" d="M253.11,400.4c-1.21-1.64-2.52-3.22-3.62-4.93-1.92-2.98-4.85-3.8-8.07-3.86-9.23-.17-16.82,3.73-23.29,9.93-3.01,2.89-5.72,6.13-8.3,9.41-3.1,3.94-5.13,8.48-6.66,13.25-.27,.83-.57,1.65-.97,2.81-.29-1.32-.51-2.3-.78-3.53-1.35,1.23-.8,2.57-.85,3.75-.05,1.25,.09,2.51,.16,4.01-1.35,.51-2.68,1.06-4.04,1.52-6.46,2.19-12.92,4.36-19.38,6.54-.55,.19-1.13,.33-1.65,.59-4.63,2.38-9.37,1.99-14.18,.69-3.81-1.03-4.39-2.14-2.85-5.85,.34-.81,.82-1.56,1.1-2.39,.12-.36-.08-.84-.17-1.53-1.71,.8-2.22,2.24-2.67,3.49-.76,2.08-2.2,2.64-4.21,2.86-5.02,.53-9.92-.55-14.85-1.01-7.79-.74-15.28-2.91-22.69-5.38-5.36-1.79-10.8-3.32-16.15-5.11-7.38-2.48-14.85-4.78-22.04-7.75-9.78-4.03-18.61-9.76-26.89-16.36-2.01-1.6-2.74-3.38-1.87-5.85,.74-2.1,1.36-4.25,2-6.29,1.63-.46,3.16-.78,4.6-1.32,4.31-1.61,6.13-5.56,4.63-9.93-.91-2.64-2.41-4.93-4.58-6.66-2.25-1.79-4.65-3.38-7.13-5.16,3.55-3.31,7.61-6.43,11.78-9.44,8.69-6.28,18.74-9.44,28.72-12.76,1.83-.61,3.8-.77,5.69-1.24,9.73-2.4,19.42-4.94,29.19-7.17,2.7-.62,5.64-.63,8.41-.38,6.1,.56,12.18,1.47,18.26,2.26,.24,.03,.44,.31,.95,.7-3.33,2.04-5.99,4.72-10.1,5.06-4.11,.34-7.89,1.61-11.14,4.51-3.63,3.25-3.94,9.4-1.03,12.61,2.77,3.05,5.87,5.04,9.88,5.7,.84,.14,1.73,.43,2.36-.78-.35-.28-.67-.72-1.06-.8-2.51-.53-3.68-2.32-4.5-4.53-.77-2.06,.08-3.47,2.32-3.56,3.3-.12,6.61-.08,9.91-.22,4.27-.18,8.54-.42,12.8-.74,1.73-.13,3.5-.32,5.14-.85,5.1-1.66,9.55-4.34,12.43-8.65,1.96,.71,3.67,1.47,5.46,1.94,7.27,1.94,14.29,4.51,21.16,7.59,6.49,2.91,13.14,5.48,19.16,9.33,2.05,1.31,4.04,2.72,6.08,4.05,1.3,.84,2.64,1.61,3.97,2.42,3.52-2.38,6.02-5.5,8.61-8.51,6.63-7.7,13.65-14.97,21.73-21.18,3.63-2.79,7.23-5.65,10.57-8.76,1.33-1.24,2.44-1.36,3.89-.86,1.72,.6,3.42,1.26,5.07,1.87-15.04,10.82-27.47,23.89-34.96,41.1,2.89,2.65,6.56,2.1,8.89-1.38-1.9,.22-3.59,.41-5.29,.61,.26-3.7,6.1-12.56,13.92-21.95,5.65-6.79,12.3-12.41,19.4-17.77,1.96,1.69,3.89,3.45,4.52,6.16,.17,.75,.39,1.57,.27,2.3-1.23,7.03-3.37,13.75-9.13,18.41-2.59,2.1-5.92,3.3-8.93,4.87-3.7,1.93-7.69,3.45-11.08,5.83-7.48,5.27-11.4,14.16-8.89,23.57,.41,1.56,.58,3.18,.87,4.77l.09-.06Zm-105.99,3.74c-.8-.69-1.3-1.31-1.95-1.64-3.77-1.96-7.04-4.69-10.79-6.72-7.37-3.98-14.62-8.03-22.64-10.77-11.43-3.9-23.09-6.39-35.04-7.67-2.99-.32-6.04-.28-9.05-.18-3.14,.1-3.25,.32-3.69,3.31-.13,.87-.27,1.74-.28,2.61-.07,7.31,.28,7.55,6.36,10.04,11.72,4.81,23.64,9.07,35.79,12.66,9.9,2.93,19.8,5.91,30.11,7.13,1.16,.14,2.26,.78,3.71,1.31,1.72-3.62,3.72-7.38,7.46-10.09Zm21.83-.55c-.68-.08-1.36-.13-2.03-.24-5.33-.85-10.24,.34-14.74,3.2-6.34,4.04-7.34,13.52-2.03,18.79,2.58,2.57,5.84,3.57,9.26,4.58,7.24,2.12,13.91,.8,20.25-2.68,2.25-1.24,4.37-3.01,6.03-4.97,3.17-3.74,1.74-10.34-2.61-13.71-4.16-3.23-9.03-4.42-14.13-4.96Zm49.09-25.36l-.19-.77c-.76,0-1.52-.04-2.27,.03-8.52,.71-16.56,3.47-24.69,5.8-8.93,2.56-17.41,6.3-25.45,10.93-3.52,2.03-6.7,4.64-10.01,7.03-.34,.25-.45,.81-.67,1.22,19.61-12.19,40.9-19.61,63.28-24.24Zm-163.88,18.41c.28,.51,.34,.85,.55,.98,4.33,2.8,8.63,5.64,13.03,8.33,4.74,2.9,9.7,5.38,14.83,7.54,1.08,.45,2.09,1.05,3.16,1.52,4.35,1.94,8.58,4.3,13.1,5.68,9.78,2.98,19.67,5.6,29.6,8.05,5,1.23,10.16,1.8,15.27,2.58,.94,.14,2.08,.54,3.07-.68-.75-.18-1.29-.36-1.84-.43-9.27-1.28-18.49-2.84-27.52-5.35-8.62-2.4-17.42-4.27-25.51-8.33-3.65-1.83-7.36-3.55-11.11-5.18-5.11-2.21-9.92-4.95-14.63-7.88-3.55-2.21-7.14-4.36-10.72-6.52-.28-.17-.67-.17-1.26-.31Zm9.33-27.21l.61,.48c1.27-1.23,2.55-2.45,3.8-3.69,1.31-1.31,2.55-2.69,3.9-3.95,1.35-1.26,2.78-2.45,4.22-3.6,1.44-1.16,2.94-2.24,4.44-3.34,1.49-1.09,2.99-2.19,4.53-3.21,1.54-1.02,3.13-1.99,4.74-2.89,1.61-.9,3.28-1.71,4.94-2.52,1.67-.8,3.34-1.6,5.05-2.29,1.71-.69,3.5-1.21,5.23-1.85,1.6-.6,3.43-.66,5.18-1.94-.69-.17-.87-.27-1.04-.24-.38,.06-.76,.17-1.13,.28-7.64,2.07-15.04,4.7-21.8,8.93-1.73,1.09-3.54,2.05-5.28,3.12-6.12,3.75-11.62,8.19-15.77,14.13-.58,.83-1.09,1.71-1.63,2.56Zm76.61,47.01l.13-.96c-26.19-5.22-52.29-10.77-76.29-23.22,2.92,1.9,5.94,3.56,9.07,4.98,3.45,1.56,6.97,3,10.53,4.29,5.76,2.09,11.48,4.38,17.39,5.94,9.58,2.54,19.3,4.59,28.97,6.81,3.39,.78,6.8,1.44,10.2,2.16Zm-33.41-36.08c.3,.08,.59,.16,.89,.24l1.18-3.35c3.77-1.01,5.35-2.73,5.35-5.82,0-2.71-1.55-4.48-4.56-5.23-2.46-.61-4.28,.22-5.6,2.56-1.32,2.35-.52,4.55,2.91,7.77-.07,.6-.18,1.26-.21,1.93-.03,.63,.03,1.25,.05,1.88Zm142.75,12.54l.3-.63c-1.12-.73-2.18-1.6-3.38-2.15-7.53-3.48-14.85-2.13-21.9,1.36-8.81,4.36-14.54,11.86-19.46,20.05-.87,1.45-1.41,3.11-2.1,4.67,.68-.08,.9-.37,1.05-.7,3.33-7.16,7.95-13.42,13.9-18.58,5.76-5,12.44-7.93,20.24-7.79,3.48,.06,6.74,.84,9.64,2.87,.52,.36,1.13,.6,1.7,.89Z"/><path class="h" d="M323.38,334.26c4.06,.53,7.1,2.75,9.5,5.76,2.42,3.03,2.93,6.71,2.57,10.81,2.55-.89,4.78-1.77,7.06-2.43,1.57-.45,3.26-.94,4.85-.82,5.03,.39,10.1,.81,14.78,2.92,2.37,1.07,4.74,2.31,6.81,3.87,4.19,3.16,8.18,6.58,11.58,11.06-4.07,3.49-5.83,8.05-6.56,13.24-.76,5.42,1.23,9.88,4.73,14.39-31.57,2.68-61.73,9.63-91.97,18.12,.21-.79,.37-1.56,.62-2.3,.7-2.08,.94-4.19,.28-6.32-.75-2.4-3.28-3.71-5.48-2.91-1.73,.64-2.18,1.61-1.62,3.42,.44,1.43,2.12,3.01-.28,4.21-2.15,1.07-5.09,.49-6.3-1.41-1.5-2.34-2.35-4.95-1.83-7.77,.22-1.22,.55-2.54,1.22-3.55,1.56-2.35,3.45-4,6.76-3.44,4.31,.73,8.69,1.27,13.05,1.37,6.29,.14,12.34-1.17,17.94-4.26,8.35-4.6,14.71-11.05,18.82-19.71,.87-1.83,2-3.54,3.16-5.57,2.26,2.16,4.01-.64,6.38-.23-.22-3.8,.48-7.35-.17-11.17-2.54,1.04-1.65,3.03-1.79,4.54-.15,1.63-.03,3.29-.03,5.04-.68,.2-1.2,.4-1.74,.51-.56,.12-1.14,.15-1.94,.25,.04-.77,0-1.42,.12-2.02,1.34-6.41-.16-12.36-3.03-18.04-1.44-2.84-3.93-4.81-6.36-6.77-.36-.29-.75-.55-1.12-.82Zm17.23,61.2c.18-5.05,.24-9.5,.19-13.95-.04-4.44,.92-8.94-.56-13.5-1.56,1.72-1.57,1.72-1.47,3.74,.16,3.48,.42,6.96,.47,10.44,.05,3.1-.17,6.2-.2,9.31-.02,1.19-.23,2.49,1.57,3.96Zm-9.13-.03l-.13-.69c-10.62,1.34-20.54,5.61-30.99,7.64-.36,.07-.72,.29-1.02,.53-.19,.15-.26,.46-.55,1.01,.98-.09,1.74-.05,2.44-.24,10.09-2.73,20.17-5.48,30.25-8.23Zm15.4-3.34c1.68,.06,3.39,.37,5.03,.14,5.66-.79,11.3-1.76,16.94-2.69,.49-.08,.95-.36,1.81-.7-4.35-.61-20.92,1.38-23.78,3.24Z"/><path class="h" d="M268.57,335.52c-14.15,8.35-23.45,21.11-33.79,32.79-17.88-9.78-35.36-19.61-55.33-24.56,.42-1.11,.85-2.06,1.13-3.06,.63-2.24,1.41-4.46,1.74-6.75,.89-6.08,3.77-10.24,9.71-12.67,5.45-2.23,11.12-3.47,16.71-5.08,.5-.15,1.49-.1,1.61,.16,.88,1.9,2.77,1.64,4.27,2.07,7.47,2.16,14.99,4.2,22.46,6.35,5.33,1.54,10.67,3.06,15.91,4.85,5.05,1.72,9.98,3.76,15.58,5.9Zm-32.97,4.85c-1.62,.37-3.23,.73-4.85,1.1,1.65-.18,3.5,.3,4.83-1.12,1.2,.04,2.4,.09,3.6,.13v-.53l-3.58,.42Zm-6.46,7.82l.16,.58c4.1-.77,8.19-1.55,12.29-2.32l-.09-.52c-4.12,.75-8.23,1.51-12.35,2.26Zm7.79-22.88l-.17,.66c2.63,1.82,5.4,2.89,7.86,2.72-2.93-1.29-5.31-2.33-7.69-3.38Zm-8.8,8.74l.04,.45c2.15-.21,4.29-.41,6.44-.62l-.04-.43c-2.15,.2-4.29,.4-6.44,.6Z"/><path class="h" d="M258.95,189.16l1.79-.63c1.36,1.33,.07,2.41-.23,3.48l1.21,.49c-3.13,2.89-3.41,6.06-1.19,9.89,2.64,4.55,6.85,6.73,11.62,8.15,6.15,1.84,12.42,2.09,18.79,1.68,7.32-.48,14.53-1.47,21.51-3.74,2.94-.95,5.88-2.02,8.33-3.96-1.02-3.9-2.37-5.85-4.87-7.31-.7-5.37-2.01-10.37-4.08-15.6,2.49-1.14,4.91-2.24,7.62-3.48,1.36,4.72,2.64,9.16,3.97,13.74-.61,.57-1.3,1.21-2.22,2.07,1.74,.69,3.27,1.42,3.97,3.42-4.52-3.49-4.78-3.51-8.15-.9,2.52,1.86,3.9,4.46,4.66,7.52,11.39-5.55,19.89-13.43,23.19-26.35-1.24-.86-2.79-1.94-4.34-3.02l-.09,.06,5.34,2.17c1.43-5.2,4.62-10.01,5.16-15.77-1-.48-2.01-.97-3.02-1.46l-.06,.07,3.36,.38c1.86-4.16,2.54-8.52,2.7-13.32-2.24,3.03-2.03,7.18-5.04,9.43-1.23-.64-1.05-1.22-.45-1.98,2.28-2.87,3.5-6.19,4.27-10.26-1.58,2.06-2.84,3.71-4.13,5.39-1.26-1.06-1.45-1.89-.4-2.85,.86-.79,1.74-1.58,2.47-2.49,1.38-1.73,2.65-3.54,4.11-5.51-4.7-2.98-4.32-7.74-5.09-12.34-.67,.24-1.31,.36-1.83,.67-2.71,1.63-5.6,2.81-8.72,3.17-2,.23-4.05,.02-6.33,0l-.85,1.25c-6.34-2.55-12.51-2.3-18.31,1.63-2.34,1.59-4.61,3.25-5.58,6.31,1.56,.78,2.29,2.36,3.38,3.48,2.95,3.06,6.23,5.9,9.77,8.25,3.38,2.25,7.28,1.93,10.86,0,1.15-.62,2.19-1.6,3.03-2.63,1.6-1.95,3.02-4.05,4.58-6.19l-1.55-.84c.64-.58,1.2-1.08,2.01-1.81l-5.29-6.01c3.31,1.65,5.44,4.45,7.62,7.36-1.75,2.15-3.73,4.07-5.1,6.37-3.11,5.23-9.76,7.01-15.69,5.35-1.75-.49-3.28-2.01-4.74-3.26-1.92-1.64-3.66-3.49-5.52-5.22-1.52-1.41-3.08-2.77-4.94-4.43,1.45-3.86,4.61-6.69,8.59-8.73,1.04-.53,2.16-.89,3.21-1.41,1.86-.92,1.99-2.12,.27-3.17-3.41-2.07-6.85-4.09-10.87-4.8-.94-.17-1.85-.52-3.13-.39,1.94,2,3.88,4,5.82,6l-.34,.5c-.58-.32-1.27-.53-1.72-.98-2.48-2.47-4.91-5-7.34-7.53-.68-.7-1.28-1.47-1.96-2.16-4.19-4.25-9.1-5.34-14.71-3.31-6.79,2.45-11.32,7.3-14.48,13.62l.11-.1c-.32,.2-.63,.42-.96,.61-.24,.14-.5,.24-1.37,.64,1.19-2.07,1.96-3.75,3.02-5.21,3.23-4.44,7-8.29,12.14-10.61,4.95-2.24,12.94-1.96,17.69,4.06,.65,.82,1.38,1.58,2.12,2.42,.77-2.05,1.5-3.96,2.23-5.88,.35,.32,.68,.64,1.28,1.22,1.6-1.62,3.18-3.16,4.69-4.78,2.73-2.91,5.28-6,8.14-8.77,5.53-5.36,12.25-6.06,19.28-4.04,3.56,1.02,6.67,3.16,9.21,5.97-.85-.45-1.77-.8-2.53-1.37-6.01-4.59-12.64-5.01-19.62-2.98-4.4,1.28-7.54,4.32-10.33,7.76-2.64,3.24-5.08,6.64-8.63,9.01-.5,.33-.75,1.04-1.36,1.94,1.22,.33,2.1,.57,2.99,.8,1.96,.51,4.08,.69,5.84,1.59,5.48,2.8,11.42,3.69,17.36,4.61,2.19,.34,4.46,.16,6.69,.21l-.05-.07c-.34,.16-.67,.42-1.02,.46-4.5,.41-8.96,.13-13.29-1.21-3.9-1.21-7.76-2.51-11.66-3.73-.93-.29-1.89-.51-2.85-.65-.47-.07-.98,.11-2.09,.27,1.08,.57,1.56,.87,2.07,1.08,3.57,1.53,7.27,2.81,10.69,4.63,5.85,3.11,11.93,4.71,18.54,3.98,4.13-.46,8.02-1.58,11.07-4.68,1.36-1.39,2.89-2.62,4.17-4.09,1.19-1.37,2.44-2.78,3.08-5.08l-2.02,.72c.33-1.59,.32-1.59-.49-3.04-.33-.59-.62-1.19-.93-1.78,.97,.65,1.94,1.3,2.92,1.95-1.56-4.2-3.41-8.14-5.27-12.06-.16-.34-.48-.6-.74-.9-3.5-4.15-7.6-7.35-12.87-9.14-4.78-1.62-9.3-1.57-13.87,.49-5.04,2.26-9,5.74-11.7,10.54-1.33,2.36-2.47,4.83-3.56,7.31-.72,1.64-1.47,3.17-3.23,3.91,1.02-2.4,1.95-4.86,3.1-7.2,1.11-2.26,2.32-4.51,3.76-6.57,1.27-1.82,2.92-3.39,4.4-5.07,3.09-3.5,7.28-4.95,11.61-5.97,4-.94,7.67,.6,11.34,1.91,6.41,2.29,10.63,7.07,14.09,12.6,1.91,3.04,3.36,6.37,5.1,9.52,1.25,2.26,.86,4.34-.53,6.29-1.01,1.42-2.03,2.94-3.38,3.99-3.37,2.61-3.2,8.78-1.67,11.63,1.86,3.46,6.54,3.94,9.49,1.01,1.08-1.07,2.06-2.26,3.12-3.43-.26,3.81-4.66,7.1-9.51,7.1-.7,1.25-1.11,2.45-.26,3.97,.37,.66,.16,1.67,.12,2.53-.21,5.68-1.56,11.14-3.08,16.6-2.72,9.81-6.61,19.14-11.58,27.98-1.44,2.57-3.53,5.01-5.87,6.78-4.65,3.5-9.48,6.88-14.62,9.61-8.56,4.54-17.57,7.85-27.56,7.56-3.28-.09-6.57,.65-9.87,.76-5.71,.19-11.28-.88-16.59-2.87-2.32-.87-4.51-2.34-6.43-3.94-3.63-3.03-4.52-9.75-2.32-14.94,.56-1.33,1.06-2.69,1.58-4.04l-.12,.09Zm47.42-69.23l.35-.96-1.64-.48c-.09,.33-.3,.91-.25,.94,.49,.22,1.02,.35,1.54,.51Z"/><path class="h" d="M267.34,131.7c.83-1.52,1.67-3.03,2.5-4.55l-.11,.1c1.57-1.42,3.16-2.84,4.72-4.27,3.85-3.54,8.23-5.78,13.6-5.92,4.67-.12,8.49,2,12.11,4.47,3.03,2.07,5.78,4.56,8.63,6.84,.84,5.26-2.32,8.9-5.31,12.54-2.68,3.27-5.8,5.95-10.11,7.03-8.2,2.05-17.5,.55-25.52-13.07,.25,2.09,.49,4.18,.76,6.43-2.31,2.17-5.28,2.03-8.13,1.8-1.59-.13-3.31-.67-4.63-1.54-2.58-1.69-5.21-2.94-8.34-2.75,0-.4-.08-.66,.01-.75,3.3-3.4,7.01-6.19,11.69-7.34,2.81-.69,5.59-.44,8.21,.92,.15,.55,.15,1.19,.46,1.62,.78,1.06,1.87,1.91,2.53,3.03,1.6,2.72,3.78,4.91,6.02,7.08,5.76,5.57,17.5,5.39,22.31,.54,2.45-2.47,4.63-5.2,6.88-7.86,.44-.52,.62-1.26,.93-1.89-2.77,2.73-5.99,4.5-9.56,5.62-7.45,2.35-14.77,2.39-21.58-1.96-2.83-1.81-5.39-4.06-8.07-6.11Zm10.51,6.23c5.74,2.97,11.57,2.79,17.43,1.26,5.61-1.46,10.12-4.47,12.48-10.25-1.78-1.4-3.54-2.9-5.42-4.24-2.37-1.69-4.72-3.46-7.27-4.82-5.04-2.69-10.15-2.22-15.13,.32-4.54,2.32-7.57,6.3-10.78,10.06-.23,.27-.24,.71-.39,1.18,2.55,1.93,5.05,3.82,7.69,5.82,.26-.64,.51-1.08,.44-1.14-2.11-1.76-4.25-3.48-6.47-5.28,2.52-4.07,5.99-7.18,10.23-9.57,4.94-2.78,10.11-2.84,14.84-.28,3.84,2.07,7.05,5.29,10.85,8.24-2.38,2.13-4.31,4.06-6.44,5.73-3.36,2.63-7.22,3.82-11.51,3.2-2.69-.39-5.37-.9-8.05-1.37-.92-.16-1.92-.72-2.49,1.13Zm11.2-2.38c.81-2.11-.88-3.19-.96-4.62-.08-1.53-.14-3.06-.25-4.59-.1-1.44,1.26-2.79,.4-4.41-3.07,3.05-2.8,9.43,.8,13.63Zm-28.84,5.17c.1-2.75,.19-5.28,.28-7.89-2.17,.62-2.05,2.48-2.09,4.17-.04,1.47-.09,3.06,1.81,3.72Z"/><path class="h" d="M243.98,417.94c-.77,5.74-3.06,10.49-7.3,14.4-4.25,3.92-9.42,3.68-13.79,1.19-5.18-2.96-6.68-6.62-5.7-12.53,1-6.06,4.01-11.09,8.97-14.54,2.38-1.66,4.92-3.64,8.42-3.36,4.43,.35,7.68,2.42,8.68,6.78,.59,2.61,.51,5.37,.73,8.07Zm-9.11,1.91c.28-2.54-.51-4.16-1.94-4.67-1.5-.54-3.2,.04-4.32,1.55-1,1.35-1.67,2.8-1.41,4.58,.26,1.75,1.18,2.87,2.82,3.22,1.46,.31,2.85-.25,3.66-1.72,.6-1.08,.93-2.31,1.18-2.95Z"/><path class="h" d="M152.72,335.65c-7.8-1.08-15.58-2.16-23.61-3.27,.3-.7,.43-1.25,.74-1.69,7.25-10.46,15.38-20.1,25.72-27.7,2.46-1.81,2.71-1.85,5.94-.33-.66,1.05-1.35,2.07-1.96,3.14-1.85,3.2-2.76,6.63-2.32,10.35,.82,6.87-1.83,15.75-4.51,19.5Z"/><path class="h" d="M336.15,291.96c-.19,.42-.48,.82-.57,1.26-.7,3.63-1.36,7.27-2.03,10.91-.53,2.9-.67,5.8-.02,8.71,.66,2.94,1.32,5.88,1.91,8.83,.12,.62,.17,1.69-.14,1.85-.56,.31-1.51,.33-2.11,.06-1.22-.55-2.54-1.18-3.43-2.13-2.98-3.2-6.05-6.38-8.57-9.93-2.45-3.45-3.13-7.72-3.98-11.83-1.04-5.01-.39-9.91,1.29-14.66,.91-2.57,1.34-5.14,.59-7.73-1.21-4.19,1.62-9.63,6.64-11.57,2.77-1.07,5.45-2.46,7.73-4.57,2.64-2.44,5.66-4.45,8.32-6.87,2.8-2.54,5.54-5.2,8.01-8.06,4.58-5.31,6.42-11.7,6.62-18.62,.06-2.14,.03-4.28,.1-6.42,.2-5.74-1.99-10.85-4.11-15.99-.52-1.26-1.16-2.47-1.75-3.7-2.96-6.2-3.38-12.46-.76-18.91,1.8-4.44,3.74-8.78,6.44-12.75,.56-.83,1.29-1.55,2.01-2.4,.19,.37,.3,.5,.27,.54-3.05,4.68-5.12,9.77-6.89,15.06-1.72,5.13-1.9,9.88,.59,14.92,3.06,6.19,5.46,12.69,6.76,19.54,1.38,7.3,.46,14.28-2.32,21.15-2.22,5.48-5.49,10-10.32,13.44-2.46,1.75-4.84,3.64-7.11,5.63-2.33,2.05-4.53,4.26-6.69,6.49-.85,.88-1.73,1.4-2.93,1.66-2.1,.45-4.04,1.24-5.64,2.84-2.64,2.64-3.44,5.95-3.03,9.38,.34,2.83-.25,5.37-.91,8-2.54,10.05-.64,19.26,5.41,27.62,1.54,2.12,3.22,4.15,4.91,6.16,1.24,1.48,1.37,1.48,3.61,1.9-.1-.6-.11-1.14-.29-1.61-1.11-2.83-1.7-5.7-1.68-8.81,.04-5.5,.65-10.89,2.13-16.17,.34-1.2,.32-2.75,1.95-3.23h-.02Z"/><path class="h" d="M313.1,88.13c-8.74,5.14-17.3,7.43-26.71,4.59-1-.3-1.95-.84-2.88-1.35-2.2-1.19-4.38-2.43-6.66-3.7,3.43-3.79,7.07-7.25,12.11-8.73,1.65-.49,3.41-.79,5.13-.84,2.51-.07,5.05-.03,7.52,.36,1.36,.21,2.81,.98,3.83,1.92,2.56,2.34,4.9,4.92,7.67,7.75Zm-18.89,4.05c.2-.35,.4-.56,.36-.67-1.02-2.97-1.69-5.94-.36-9.03,.12-.28-.31-.79-.48-1.19-.51,.29-1.35,.48-1.48,.9-1.08,3.24-1.27,6.45,.89,9.4,.22,.3,.71,.4,1.08,.6Z"/><path class="h" d="M222.39,226.38c6.03-3.99,11.53-7.63,17.2-11.38,2.42,5.51,4.88,11.12,7.26,16.57-7.3,4.58-14.69,9.21-21.81,13.67-.43-2.43-.89-5.05-1.37-7.68-.71-3.81-1.4-7.63-1.27-11.18Zm12.89,1.25l.26,.56c1.34-.38,2.81-.55,3.99-1.21,.69-.39,1.17-1.55,1.29-2.42,.14-1.07-.75-1.68-1.78-1.97-.6-.17-1.19-.38-1.87-.61,.45-.74,.76-1.25,1.22-2.03-1.26,.06-2.19,.1-3.04,.14-.48,.74-.86,1.41-1.3,2.02-.74,1.01-1.23,2.13-.29,3.16,.78,.86,1.77,.47,2.62-.15,.77-.56,1.23-.27,1.5,.69-.85,.59-1.72,1.2-2.6,1.8Zm-11.73,3.55c2.41,.4,3.7,1.97,4.69,4,1.18,2.42-1.19,3.66-2,5.71,3.07-1.64,3.99-3.37,3.3-5.7-.87-2.94-3.2-4.63-5.99-4.01Z"/><path class="h" d="M418.7,368.94c1.12-.21,2.24-.41,3.35-.64,2.76-.57,3.99,.13,4.92,2.74,1.02,2.87,.58,5.63-.89,8.15-2.09,3.58-4.93,6.33-8.6,8.51-4.29,2.55-8.67,4.37-13.61,4.82-1.14,.1-2.29,.06-3.85,.1,2.23-3.3,4.21-6.25,6.2-9.18,2.19-3.22,4.4-6.43,6.58-9.65,.98-1.45,2.75-2.12,4.51-1.67,1.71,.44,3.04,2.04,3.14,3.81,.1,1.77-.65,3.19-1.85,4.45-3.54,3.71-7.99,5.35-13.14,5.78,.34,1.39,1.44,1.22,2.25,1.06,3.77-.74,7.36-1.96,10.25-4.63,1.06-.98,2.14-2.05,2.85-3.29,2.14-3.77,.26-7.57-4-8.35-.55-.1-1.11-.2-1.7-.31,3.15-7.42,6.88-11.36,10.81-11.25-1.64,1.35-3.26,2.45-4.58,3.83-1.37,1.44-2.52,3.13-3.15,5.04l.52,.69Z"/><path class="h" d="M242.06,115.4c.8-2.04,1.39-3.89,2.23-5.61,2.79-5.74,7.7-8.85,13.58-10.68,.55-.17,1.15-.24,1.73-.24,3.01-.03,3.94,.73,3.9,3.69-.06,4.8,.62,9.5,1.56,14.18,.17,.83,.2,1.68,.3,2.61-3.74,.58-7.22,.43-10.63-.49-2.24-.6-4.43-1.43-6.66-2.06-1.86-.52-3.76-.89-6-1.41Zm14.18-12.19c-2.97,.8-3.9,2.3-3.94,5.64-.04,3.25,1.35,6.28,3.41,6.92-2.27-4.17-2.33-8.19,.53-12.56Z"/><path class="h" d="M454.35,327.06c1.32,3.02,4.53,.27,5.87,2.67-.26,2.25-.51,4.73-.83,7.2-.6,4.7,1.89,8,5.05,10.91,2.44,2.24,3.29,2.43,6.74,2.32,.59,1.36,.26,2.24-1.17,2.93-6.36,3.03-11.36,2.07-16.06-3.6-1.98-2.39-4.14-4.71-4.5-8.03-.06-.58-.35-1.21-.2-1.72,1.13-3.69,2.31-7.37,3.58-11.02,.2-.57,.88-.97,1.53-1.65Z"/><path class="h" d="M336.17,291.96c-.39-2.27,.96-4.91,2.82-6.11,1.77-1.15,3.38-2.55,5.03-3.88,.28-.23,.6-.64,.59-.97-.08-2.71,2-3.91,3.79-5.03,5.86-3.65,11.84-7.11,17.81-10.59,8.15-4.76,16.46-9.26,24.46-14.26,6.39-4,11-9.5,13.57-16.92,3.39-9.78,4.75-19.85,5.55-30.03,.43-5.5,.29-11.05,.65-16.59,1.22,2.7,1.14,5.58,1.02,8.37-.25,6.31-.76,12.62-1.17,18.93-.51,7.82-2.39,15.37-4.76,22.8-1.5,4.69-4.66,8.29-8.23,11.49-5.19,4.64-11.23,7.92-17.42,11.1-9.51,4.89-18.73,10.35-28.07,15.57-.85,.47-1.79,.82-2.55,1.4-1.13,.87-2.37,1.75-3.17,2.9-1.93,2.79-3.73,5.57-6.74,7.49-1.41,.9-2.16,2.84-3.21,4.31,0,0,.02,0,.02,0Z"/><path class="h" d="M309.4,138.41c3.24-2.65,6.4-4.84,9.97-6.43,3.51-1.56,10.88-1,14.06,2.84,1.29,1.56,2.81,2.93,4.23,4.39-6.17,6.82-17.5,7.78-28.26-.8Zm15.6-4.74c-2.9,1.15-2.36,3.52-2.37,5.61,0,1.21,.48,2.27,2.67,2.01-2.63-2.6-.29-5.04-.29-7.62Z"/><path class="h" d="M222.59,247.78c-4.76,3.46-9.04,6.57-13.65,9.93-2.32-6.36-6.79-10.91-10.88-16.11,3.55-3.14,7.95-4.88,11.43-8.18,1.47,2.26,2.73,4.2,3.99,6.15-1.05,4.18,.1,6.29,3.35,5.76-.72-1.31-3.18-1.65-2.18-4.01,2.69,1.99,3.81,5.56,7.94,6.46Zm-15.39-7.7c-1.1,.07-1.95,.13-2.76,.18-1.75,3.7-1.67,3.87,2.61,4.98-.68,.55-1.23,1-1.96,1.59,3.43,.5,4.81,0,5-1.8,.08-.71-.06-1.84-.52-2.13-.86-.56-2.03-.66-3.2-.98l.83-1.83Z"/><path class="h" d="M338.84,152.07c-.47,.11-.96,.16-1.4,.33-5.75,2.12-11.43,4.42-17.24,6.33-6,1.97-12.16,3.47-18.2,5.33-5.62,1.73-11.26,1.11-16.77-.06-5.03-1.07-9.89-2.9-14.81-4.42-.33-.1-.59-.45-1.1-.85,2.69-.94,5.16-1.79,7.6-2.67,1.92-.69,3.84-1.38,5.73-2.16,2.18-.9,3.42-.67,4.83,1.15,.77,.99,1.44,2.06,2.33,3.33,1.44-1.12,2.81-2.14,4.12-3.23,1.46-1.22,2.85-1.48,4.8-.84,3.41,1.13,6.94,1.95,10.48,2.62,5.27,1,10.47,.29,15.57-1.26,5.3-1.61,10.7-2.96,15.44-6.02,2.3-1.48,4.59-2.95,6.1-5.33,.26-.41,.61-.75,1.12-.9-.89,3.11-3.22,4.89-5.67,6.57-1.03,.7-2.02,1.45-3.03,2.17l.11-.09Zm-40.54,10.76c3.05,.48,3.65-2.06,5.21-3.42l-.53,2.56,.69,.64c1.11-.87,2.22-1.73,3.05-2.37,.01-.11-.05,.47-.15,1.33,1.63-.56,2.94-.96,3.12-2.88-3.76-1.01-7.41-1.87-10.98-3-1.77-.56-2.93-.08-4.14,1.11-1.49,1.47-3.08,2.82-4.82,4.39,.07,.76-.2,2.04,1.5,2.29,1.66,.24,2.22-.84,2.69-2.07,.26-.68,.47-1.37,.71-2.06,.34,.69,.29,1.29,.2,1.88-.1,.71-.23,1.42-.35,2.11,1.88,.23,2.78-.54,3.28-2.05,.4-1.21,.97-2.37,1.47-3.54l.5,.19c-.46,1.54-.93,3.09-1.46,4.88Zm-15.52-7.24c.04,2.44,.66,4.72,2.06,6.74,.21,.31,.99,.23,1.75,.38-.31-.92-.57-1.54-.72-2.19-.15-.62-.2-1.27-.29-1.91,1.19,1.27,1.01,3.18,2.7,4.08,.88-3.01,.19-5.05-2.25-7.17-1.08-.94-2.07-.8-3.25,.06Zm-2.9,2.95q.93,3.14,3.21,3.24c-.44-1.94-.88-3.87-1.39-6.1-2.75,1.24-5.67,1.6-8.11,3.42,1.05,.38,2.09,.24,3.02,.51,.9,.26,1.68,.95,2.62,1.51,.23-.91,.4-1.61,.65-2.58Zm31.13,1.82c.91-.32,1.82-.64,3.22-1.14q-2.59-.53-3.22,1.14Z"/><path class="h" d="M281.09,201.31c-2.51-.81-4.9-1.55-7.26-2.38-.99-.35-1.89-.92-2.86-1.4,1.72-5.9,3.39-11.62,5.17-17.73,2.81,.69,5.49,1.35,8.29,2.03,.25,6.85-1.79,13.02-3.33,19.48Z"/><path class="h" d="M286.64,182.83c2.76,.55,5.37,1.07,8.16,1.63-.91,6.49-1.8,12.77-2.76,19.61,.79,1.01,1.7,2.67,1.48,4.92-.88-1.61-1.46-3.19-2.47-4.4-1.05-1.26-2.58-2-4.66-1.27l-.73,6.38-.62-.05c.12-2.14,.25-4.28,.38-6.59-.88-.38-1.73-.75-2.76-1.2,1.28-6.15,2.57-12.29,3.97-19.02Z"/><path class="h" d="M305.34,200.91c-1.55,.47-3.02,.92-4.65,1.42,.9,1.94,3.19,3.04,3.3,5.45-2.03-2.78-3.91-5.73-8.53-4.85,.87,1.21,1.64,2.27,2.41,3.34l-.4,.33c-.95-1.04-2.05-1.98-2.79-3.15-.46-.73-.59-1.83-.49-2.72,.53-4.74,1.21-9.47,1.77-14.21,.13-1.07,.64-1.6,1.61-1.74,1.35-.19,2.71-.33,4.06-.45,2.4-.2,2.54-.16,2.76,2.16,.33,3.49,.5,6.98,.72,10.48,.08,1.16,.13,2.32,.22,3.93Z"/><path class="h" d="M252.36,235.63c-12.71,7.28-25.31,14.1-35.48,24.45-1.58-.85-3.09-1.66-4.89-2.63,1.27-.95,2.52-1.91,3.8-2.85,1.33-.98,2.67-1.95,4.02-2.9,4.98-3.53,9.97-7.05,14.96-10.58,.24-.17,.42-.47,.67-.55,4.27-1.26,7.45-4.41,11.23-6.52,2.41-1.35,3.66,.54,5.7,1.57Z"/><path class="h" d="M439.84,373.63c-.32-2.2-.61-4.41-.97-6.6-.56-3.37-2.44-5.85-5.29-7.67-.75-.48-1.95-.68-1.5-2.4,.83,.05,1.81-.08,2.64,.21,3.93,1.36,7.82,2.85,11.73,4.26,3.72,1.34,7.46,2.65,11.14,3.95-.25,.12-.77,.43-1.34,.63-4.93,1.78-9.84,3.62-14.81,5.26-1.38,.45-1.36,1.43-1.65,2.41,0,0,.05-.05,.05-.05Z"/><path class="h" d="M263.67,203.55c.57-3.39,2.81-5.42,5.64-6.91-2.68-3.75-2.92-3.75-7.53,.19,.47-2.15,2.08-2.92,3.61-4.01-.83-1.24-1.66-2.49-2.54-3.79,1.74-4.53,3.47-9.02,5.26-13.68,2.3,.78,3.95,2.27,5.65,3.65,.39,.32,.5,1.21,.45,1.82-.1,1.06-.37,2.11-.66,3.13-1.18,4.11-2.4,8.2-3.63,12.29-.16,.52-.36,1.24-.76,1.44-2.55,1.31-4.15,3.45-5.48,5.87Z"/><path class="h" d="M212.91,314.59c.78,0,1.62-.19,2.34,.01,3.64,1.02,7.3,2.02,10.87,3.26,8.28,2.89,16.82,4.78,25.31,6.89,6.32,1.57,12.54,3.52,18.81,5.3,1.11,.32,2.2,.68,3.32,1.02-1.98,3.04-3.11,3.25-6.14,2.12-6.47-2.41-12.98-4.73-19.54-6.87-9.52-3.11-19.11-6.05-28.67-9.03-2.1-.66-4.24-1.21-6.36-1.81l.06-.9Z"/><path class="h" d="M273.42,84.09c3.81-4.81,7.97-9.41,13.99-11.32,7.45-2.36,14.66-1.93,20.59,4.07,1.42,1.44,2.66,3.05,4.04,4.54,1.58,1.71,3.21,3.36,5.03,5.25l-1.1,1.46c.92,1.29,1.87,1.5,2.87,.31,.9-1.07,.99,.17,2.13,.2-1.92,1.15-3.35,1.78-4.5,2.75-2.44,2.07-4.81,4.24-7.06,6.52-3.13,3.16-6.49,5.8-10.97,6.83-4.33,.99-7.64-.8-10.66-3.67,1.17,.36,2.37,.63,3.49,1.09,4.57,1.89,8.88,.87,12.85-1.49,2.74-1.63,5.28-3.67,6.88-6.6,.32-.59,.73-1.35,1.27-1.55,2.12-.77,2.12-2.65,2.52-4.25-1.24-1.28-2.43-2.51-3.7-3.83l1.29-.83c-1.42-1.87-2.6-3.94-4.24-5.5-7.38-7.03-18.68-7.35-26.56-.82-1.94,1.6-3.68,3.45-5.5,5.19-.76,.73-1.49,1.49-2.24,2.23l-.43-.58Z"/><path class="h" d="M321.01,177.85c2.2-1.72,4.25-3.32,6.62-5.18,.68,1.51,1.21,2.61,1.67,3.74,.62,1.53,1.15,3.09,1.76,4.63,.68,1.68,1.28,3.35,3.46,3.84,.91,.21,1.62,1.25,2.12,2.34-.7-.5-1.37-1.05-2.1-1.5-2.26-1.41-3.48-1.13-5.11,1.23,1.74,.5,3.7,.62,4.82,2.89-3.4-1.91-6.47-2.23-9.29,.86-1.39-2.08-1.56-4.34-2.22-6.41-.64-2.03-1.11-4.11-1.73-6.44Z"/><path class="h" d="M331.36,275.67c.5-1.34,.82-2.79,1.54-4.01,1.92-3.26,6.58-3.37,8.85-.31,1.79,2.41,1.97,7.53,.31,10-1.28,1.91-3.48,2.34-5.43,3.03-.61,.21-1.79-.6-2.44-1.23-2.13-2.05-2.75-4.07-2.83-7.49Zm6.92,7.08c.25-1.27,.67-2.35,.46-2.49-1.36-.91-1-1.77-.28-2.85,.17-.25-.2-.87-.33-1.32-.13-.46-.51-1.13-.34-1.33,1.33-1.55-.21-2.22-.95-3.21-.35,.9-.69,1.91-.39,2.66,.4,.99,.18,1.79,.13,2.73-.08,1.37,.94,2.72,.23,4.22-.08,.18,.68,.76,1.47,1.6Z"/><path class="h" d="M310.22,181.98c2.57,5,3.19,10.21,4.56,15.35-.67,.3-1.18,.53-1.69,.77-.43,.2-.85,.42-1.38,.69,.83,1.26,1.61,2.44,2.39,3.61-1.94-.88-2.69-4.03-5.89-2.34,.85,.65,1.76,1.13,2.35,1.86,.63,.8,.96,1.84,1.02,3.04-.33-.48-.63-.98-.99-1.44-.47-.6-.88-1.49-1.49-1.68-2.14-.66-2.4-2.31-2.53-4.11-.29-4.16-.51-8.32-.9-12.47-.11-1.22,.29-1.85,1.34-2.21,1-.35,2.02-.67,3.22-1.06Z"/><path class="h" d="M43.92,380.43c-.38-.02-.87,.12-1.12-.07-1.53-1.16-2.69-5.42-2.05-7.23,.6-1.68,2.13-2.52,3.91-1.95,3.31,1.06,6.13,2.85,8.08,5.82,.16,.24,.31,.49,.43,.76,.93,1.99,.73,4.58-.43,5.77-1.19,1.22-4.14,1.52-6.02,.58-.78-.39-1.49-.91-2.25-1.33-1.09-.6-.92-1.48-.6-2.41,2.22-.03,2.94-.35,4.56-2.23-1.5,.77-3.01,1.53-4.51,2.3Zm7.53,.42l-.38-.63c-1.36,.8-2.72,1.59-4.08,2.39l.34,.58c1.37-.78,2.75-1.55,4.12-2.33Zm-5.4-4.31l-.27-.47c-.76,.42-1.53,.84-2.29,1.26l.27,.49,2.28-1.28Z"/><path class="h" d="M296.47,174.37c.15-2.8,.29-5.37,.43-7.95,4.18-.88,8.13-1.71,12.15-2.55,1.31,2.23,1.19,4.58,1.3,6.86,.05,1.09-.73,1.55-1.63,1.73-3.12,.62-6.25,1.19-9.38,1.74-.75,.13-1.53,.1-2.86,.17Z"/><path class="h" d="M282.43,174.39c.55-2.95,1.03-5.56,1.54-8.32,3.94,.15,7.49,.29,11.28,.43-.08,2.66-.14,5.13-.22,7.93-4.1,.35-8.03,1.18-12.6-.05Z"/><path class="h" d="M270.08,170.39c.6-3.03,1.13-5.68,1.72-8.65,3.53,1.34,6.91,2.63,10.49,3.99,.14,2.61-1.08,4.97-1.79,7.43-.37,1.25-1.5,1.1-2.44,.71-2.58-1.08-5.13-2.24-7.98-3.49Z"/><path class="h" d="M217.09,272.21c.82,.57,1.57,.82,1.89,1.34,1.31,2.15,2.61,4.33,3.68,6.6,2.92,6.19,7.79,10.37,13.8,13.24,3.58,1.71,7.39,2.92,11.1,4.37,.32,.13,.61,.33,1.33,.73-.82,.26-1.24,.52-1.65,.5-7.88-.38-14.72-3.09-20.35-8.79-3.08-3.13-5.25-6.58-6.32-10.91-.58-2.34-2.13-4.44-3.48-7.09Z"/><path class="h" d="M465.05,330.2c.63,.07,1.29,.11,1.95,.23,4.67,.86,5.16,.12,4.95,6.49-.09,2.81-.31,5.62-.46,8.43-7.52-1.5-10.5-8.51-6.44-15.15Zm2.49,11.75c1.93-2.67,2.45-4.44,2.19-7.3-.76,2.54-1.39,4.62-2.19,7.3Zm1-8.03l-.68-.45c-.72,1.9-1.44,3.79-2.15,5.69l.67,.26c.72-1.83,1.44-3.67,2.16-5.5Z"/><path class="h" d="M323.31,159.61c.06,.94,0,1.46,.15,1.89,1.16,3.29-.14,5.25-3.2,6.57-2.66,1.15-5.14,2.75-8.25,3.12-.25-2.46-.49-4.84-.75-7.36,3.87-1.36,7.88-2.76,12.06-4.23Z"/><path class="h" d="M340.52,174.6c-.74,.55-1.48,1.1-2.41,1.79,1.6,1.25,2.97,2.31,4.34,3.37l-.3,.41c-.93-.62-1.85-1.27-2.8-1.86-1.13-.7-2.12-.71-3.06,.46-.84,1.05-1.87,1.95-3.19,3.3-1.34-3.34-2.54-6.34-3.81-9.52,1.93-1.67,3.82-3.32,5.9-5.13,1.82,2.53,3.53,4.9,5.24,7.26,0,0,.1-.07,.1-.07Z"/><path class="h" d="M43.66,369.22c.99-.37,1.51-.77,1.97-.71,6.7,.91,11.89,6.39,12.47,11.37,.48,4.12-1.04,6.86-5.12,7.31-2.3,.25-4.74-.59-7.1-1.03-.34-.06-.59-.6-.77-.81,1.6,.18,3.21,.58,4.79,.51,3.62-.18,5.58-2.74,5.07-6.32-.48-3.36-2.63-5.58-5.29-7.3-1.68-1.09-3.6-1.82-6.03-3.01Z"/><path class="h" d="M253.02,400.46c.75,.95,1.57,1.85,2.25,2.84,2.68,3.9,5.82,7.29,10.19,9.34,.15,.07,.23,.29,.48,.64-3.12,.73-6.15,1.44-9.43,2.21-.02-2.61-.04-4.95-.06-7.29l-.63-.04c-.54,2.74,.4,5.73-1.24,9.01-.45-6.06,.35-11.55-1.48-16.77l-.09,.06Z"/><path class="h" d="M254.19,231.04c-2.09,.3-.98,1.8-.95,3.01-4.15-1.2-5.57-4.77-7.26-7.89-1.6-2.96-2.68-6.21-3.64-9.66,1.93,1.29,3.86,2.58,6.04,4.04,.52,3.52,2,6.93,4.6,9.8,.29,.32,.77,.48,1.17,.72h.04Z"/><path class="h" d="M324.46,159.06c2.09-.79,3.83-1.38,5.52-2.1,1.6-.68,3.14-1.5,4.7-2.26,1.76,3.32,1.6,4.47-1.36,6.22-2.32,1.37-4.83,2.41-7.67,3.81l-1.18-5.66Z"/><path class="h" d="M342.06,161.73c1.99,1.42,3.59,2.56,4.95,3.53-.99-.1-2.01,.43-2.67,1.9-.75,1.66-1.85,3.17-2.79,4.75-2.8-.56-3.33-2.96-4.42-4.82-.14-.25-.02-.83,.19-1.07,1.46-1.66,2.8-3.48,4.74-4.28Z"/><path class="h" d="M322.63,276.86c.18-6.9,4.54-10.57,10.71-9.07-.89,1.17-1.81,2.22-2.55,3.39-.78,1.23-1.38,2.56-2.17,4.04-2.23-.88-4.12,.15-6,1.65Z"/><path class="h" d="M309.74,92.33c-9.3,8.79-23.35,6.21-29.53-1.29,4.56,2.56,9.08,5.27,14.51,5.34,5.37,.06,10.17-2.09,15.02-4.05Z"/><path class="h" d="M190.26,307.25c-.52-.19-1.07-.32-1.57-.57-5.07-2.54-10.42-2.98-15.9-1.91-1.07,.21-1.2-.2-1.72-.85-.32-.41-1.39-.23-2.21-.32,1.33-1.34,3.67-1.92,7.92-1.9,5.18,.02,10.06,.9,13.48,5.55Z"/><path class="h" d="M413.99,285.03c2.85-2.74,5.91-5.3,8.49-8.27,2.56-2.94,4.64-6.3,7.11-9.74,.92,1.57,.48,2.65-.05,3.65-1.97,3.71-4.24,7.16-7.89,9.51-2.52,1.62-4.91,3.43-7.36,5.15l-.3-.29Z"/><path class="h" d="M338.73,152.16c1.35-.67,2.72-1.32,4.05-2.01,1.02-.53,2-1.11,2.96-1.64,1.12,1.22,1.31,2.22,.07,3.16-2.68,2.04-5.37,4.08-8.39,6.38-.33-1.63-.57-2.82-.78-3.89,.85-.81,1.52-1.45,2.2-2.09l-.11,.09Z"/><path class="h" d="M281.33,81.28c-.95,.94-2.07,1.76-2.81,2.83-1.12,1.62-3.77,2.07-3.6,4.72,.02,.26-.79,.57-1.52,1.07,5.41,2.07,8.39,6.52,12.07,10.35-.9-.37-1.97-.53-2.66-1.14-3.27-2.86-6.44-5.84-9.64-8.79-.21-.19-.33-.47-.52-.73l.45-2.41c2.79-2.2,5.35-4.23,7.91-6.25l.3,.36Z"/><path class="h" d="M411.03,286.46c-3.03,5.37-8.43,6.76-13.68,8.42,4.08-3.58,9.98-4.16,13.68-8.42Z"/><path class="h" d="M347.9,159.6c-.61,1.08-1.23,2.16-1.84,3.23-3.22-2.37-2.92-3.97,1.19-6.03,1.58,.66,.84,1.82,.58,2.87l.06-.07Z"/><path class="h" d="M335.22,143.41c-4.11,3.93-11.6,5.13-15.51,2.86,2.54-.07,5.2,.15,7.74-.3,2.48-.44,4.84-1.56,7.77-2.56Z"/><path class="h" d="M255.47,143.65c2.45,.41,4.64,1.07,6.82,1.05,2.11-.02,4.21-.74,6.66-1.22-3.82,2.77-9.59,2.79-13.48,.17Z"/><path class="h" d="M284.5,78.58c3.29-3.42,7.62-3.92,13.98-2.51-5.22-.51-9.62,.79-13.98,2.51Z"/><path class="h" d="M345.16,275.61c-.94-3.57-2.46-6.72-5.82-8.68,4.04,.47,6.37,3.9,5.82,8.68Z"/><path class="h" d="M385.26,374.69c-1.47-1.99-2.95-3.98-4.41-5.98-.59-.81-.19-1.39,.56-2.06,2.37,2.22,3.2,5.06,3.84,8.04Z"/><path class="h" d="M453.43,315c-.44-3.81-.87-7.62-1.31-11.43,1.87,3.62,2.21,7.42,1.31,11.43Z"/><path class="h" d="M385.67,385.53c-1.04-2.47-1.3-4.93-.22-7.49,1.24,1.59,1.35,3.81,.22,7.49Z"/><path class="h" d="M392.95,399.32c2.2-2.17,3.94-3.89,5.78-5.7-.41,2.37-2.99,5.13-5.78,5.7Z"/><path class="h" d="M335.12,286.3c-2.83-.7-3.74-1.54-4.88-4.5,.75,.76,1.47,1.54,2.25,2.26,.85,.78,1.75,1.49,2.63,2.24Z"/><path class="h" d="M260.56,122.42c-3.07-.13-5.71-.54-7.95-2.41,2.54,.77,5.08,1.54,7.95,2.41Z"/><path class="h" d="M400.14,162.91c-2.13-1.13-3.63-1.92-5.22-2.76,1.82-1.06,3.05-.45,5.22,2.76Z"/><path class="h" d="M276.72,201.98c-.66,1.76-1.37,3.69-2.26,6.08,0-4.24,.63-5.62,2.26-6.08Z"/><path class="h" d="M269.21,206.89c.14-2.81,.87-5.29,3.6-6.58-.73,1.06-1.54,2.07-2.16,3.19-.59,1.07-.97,2.26-1.44,3.39Z"/><path class="h" d="M255.43,298.69c1.16-1.13,2.25-1.07,3.51-.16-1.7,1.58-1.77,1.59-3.51,.16Z"/><path class="h" d="M375.18,158.54c1.31-1.11,2.31-1.43,3.7-.49-1.05,1.32-2.04,1.62-3.7,.49Z"/><path class="h" d="M382.59,393.85c.67-1.41,1.34-2.82,2.2-4.62,0,2.51-.05,2.66-1.65,4.82l-.55-.2Z"/><path class="h" d="M308.64,207.1q-1.41-3.52-3.27-4.82c2.3-.15,3.14,1.02,3.27,4.82Z"/><path class="h" d="M224.85,218.54c-.28,1.17-.55,2.35-.83,3.52-.14,.58-.3,1.15-.6,2.27-.56-2.5-.23-3.59,1.42-5.78h0Z"/><path class="h" d="M282.01,201.93c-.69,2.51-1.2,4.4-1.9,6.94-.17-2.77-.13-4.78,1.9-6.94Z"/><path class="h" d="M224.85,218.54c-.42-2.51,.94-4.36,2.47-6.15-.82,2.05-1.65,4.09-2.47,6.14h0Z"/><path class="h" d="M314.25,198.49c2.11,.67,2.94,2.33,3.52,4.21-1.17-1.4-2.35-2.8-3.52-4.21Z"/><path class="h" d="M392.86,296.93c-.33-.81-.54-1.32-.79-1.93,.83-.57,1.59-1.09,2.34-1.61l.36,.28-1.9,3.26Z"/><path class="h" d="M329.34,193.41c-1.82-.78-3.16-1.36-4.79-2.06,2-.15,3.49,.16,4.79,2.06Z"/><path class="h" d="M300.9,306.36c.27-1.34,.54-2.69,.82-4.03l.65,.14c-.33,1.33-.67,2.65-1,3.98l-.47-.09Z"/><path class="h" d="M245.93,104.3c-.79,1.15-1.57,2.31-2.36,3.46l-.51-.33,2.27-3.52,.6,.39Z"/><path class="h" d="M254.76,97.36c1.32-.3,2.64-.59,3.95-.89l.12,.5-3.95,.92-.12-.53Z"/><path class="h" d="M207.94,229.01c.29,1.1,.59,2.21,.88,3.31q-1.14-.94-.88-3.31Z"/><path class="h" d="M338.3,182.87c-.83-.52-1.66-1.05-2.49-1.57l.28-.46c.83,.51,1.67,1.03,2.5,1.54l-.3,.49Z"/><path class="h" d="M263.41,96.94l-2.27-.1-.03-.54,2.28-.32,.02,.96Z"/><path class="h" d="M315.63,214.18l2.9,1.18q-1.85,.23-2.9-1.18Z"/><path class="h" d="M326.64,276.84c1.38-.24,2.22,.24,2.51,2.19-1.12-.97-1.81-1.58-2.51-2.19Z"/><path class="h" d="M254.16,231.05c.35,1,.7,2.01,1.15,3.28q-1.65-1.54-1.13-3.28s-.03,0-.03,0Z"/><path class="h" d="M344.66,170.1l1.9,.65-.18,.51-1.87-.7,.16-.47Z"/><path class="h" d="M267.63,147.96c.42-.06,.85-.12,1.27-.18l.04,.79h-1.28l-.03-.61Z"/><path class="h" d="M271.4,87.32c-.51,.37-.89,.78-1,.71-.32-.19-.57-.54-.76-.88-.04-.08,.35-.55,.45-.52,.38,.11,.72,.36,1.31,.68Z"/><path class="h" d="M302.78,77.28l-1.44-.71,.15-.4,1.61,.56-.31,.54Z"/><path class="h" d="M335.44,266.64l1.63-.3,.12,.44c-.51,.18-1.01,.37-1.52,.55l-.23-.68Z"/><path d="M147.12,404.14c-3.74,2.7-5.74,6.47-7.46,10.09-1.46-.53-2.55-1.17-3.71-1.31-10.31-1.22-20.21-4.2-30.11-7.13-12.15-3.59-24.07-7.85-35.79-12.66-6.08-2.49-6.43-2.73-6.36-10.04,0-.87,.15-1.75,.28-2.61,.44-3,.55-3.21,3.69-3.31,3.01-.1,6.06-.14,9.05,.18,11.95,1.28,23.61,3.77,35.04,7.67,8.02,2.74,15.28,6.78,22.64,10.77,3.75,2.03,7.02,4.76,10.79,6.72,.65,.34,1.14,.95,1.95,1.64Zm-45.33-1.07c2.18-5.4,3.26-10.7,3.27-16.4-2.53-.78-4.89-1.51-7.51-2.31-1.48,5.69-1.4,11.21-2.24,16.79,2.27,.67,4.27,1.27,6.49,1.93Zm12.88-13.06c-2.57-.74-5.01-2.15-7.62-2.45-1.22,5.4-2.38,10.57-3.57,15.82,2.07,.73,4.06,1.73,6.28,1.63,3.16-5.07,5.27-11.47,4.91-15.01Zm-24.94-7.62c-.34,1.93-.72,3.61-.91,5.31-.33,2.98-.62,5.98-.75,8.97-.03,.71,.48,1.78,1.06,2.1,1.41,.77,3,1.18,4.81,1.85l1.91-16.71c-1.94-.48-3.87-.96-6.13-1.52Zm29.52,25.16c2.2,.55,4.26,1.48,6.63,1.34,1.01-2.97,1.98-5.7,2.84-8.47,.28-.91,.43-1.91,.37-2.86-.03-.56-.45-1.34-.92-1.59-1.68-.89-3.46-1.6-5.24-2.4-1.25,4.77-2.43,9.23-3.68,13.98Zm-1.35-.12c1.02-3.82,1.98-7.25,2.84-10.71,.99-4.02,.95-4.03-2.88-5.48-.4-.15-.83-.23-.97-.27-1.89,5.08-3.7,9.91-5.56,14.9,2.08,.49,4.04,.96,6.57,1.56Zm-31.42-9.93l1.8-15.77c-1.81-.31-3.55-.61-5.26-.91-1.39,3.87-1.49,7.53-1.51,11.22-.03,4.89-.46,4.09,4.6,5.57,.07,.02,.17-.05,.37-.11Zm44.45-.28c-1.29,4.24-2.46,8.1-3.7,12.2,1.44,.34,2.72,.79,4.04,.9,.61,.05,1.53-.4,1.87-.91,1.78-2.68,3.05-5.58,3.44-9.12l-5.66-3.07Zm-54.47-17.05c-1,3.88-1.65,7.49-1.41,11.22,.07,1.07,.06,2.19,1.27,2.71,1.13,.49,2.28,.92,3.64,1.45,.41-5.13,.79-9.9,1.19-14.85l-4.67-.54Zm-5.85-.53c-.58,4.16-1.66,7.91-.5,11.94,1.13,.41,2.24,.83,3.35,1.24l1.45-12.69-4.3-.49Zm68.1,32.31c1.43-2.7,2.72-5.13,4.11-7.75-1.74-1.07-3.17-1.95-4.71-2.89-.69,1.94-1.16,3.52-1.81,5.04-.63,1.48-1.44,2.89-2.35,4.67,1.8,.35,3.27,.64,4.76,.93Zm-70.68-21.66l1.23-10.74-2.69,.18-1.04,9.07,2.5,1.49Z"/><path d="M168.96,403.58c5.1,.55,9.97,1.73,14.13,4.96,4.35,3.38,5.77,9.97,2.61,13.71-1.66,1.97-3.78,3.74-6.03,4.97-6.34,3.48-13.01,4.8-20.25,2.68-3.43-1-6.68-2.01-9.26-4.58-5.31-5.27-4.31-14.75,2.03-18.79,4.5-2.87,9.41-4.05,14.74-3.2,.67,.11,1.35,.16,2.03,.24Zm7.32,3.8l.09,.1c-1.95-1.6-4.32-2.1-6.71-2.51-3.41-.58-6.75-.15-10.15,.36-3.16,.47-5.69,1.78-8.03,3.78-6.56,5.63-2.36,16.31,3.66,17.97,5.55,1.53,11.11,2.28,16.75,1.38,4.68-.74,9.12-2.24,11.49-6.98,.2-.4,.61-.75,1-1.01,1.77-1.16,2.13-2.95,1.4-4.61-1.85-4.21-4.32-7.92-9.5-8.49Z"/><path d="M218.04,378.22c-22.38,4.63-43.67,12.05-63.28,24.24,.22-.42,.33-.98,.67-1.22,3.3-2.39,6.49-5.01,10.01-7.03,8.04-4.63,16.52-8.37,25.45-10.93,8.13-2.33,16.17-5.09,24.69-5.8,.75-.06,1.51-.02,2.27-.03l.19,.77Z"/><path d="M54.17,396.63c.59,.14,.97,.14,1.26,.31,3.58,2.16,7.17,4.31,10.72,6.52,4.71,2.94,9.52,5.67,14.63,7.88,3.75,1.62,7.46,3.35,11.11,5.18,8.09,4.06,16.89,5.92,25.51,8.33,9.03,2.51,18.25,4.07,27.52,5.35,.55,.08,1.09,.25,1.84,.43-.99,1.22-2.13,.83-3.07,.68-5.1-.78-10.27-1.35-15.27-2.58-9.93-2.45-19.82-5.07-29.6-8.05-4.52-1.38-8.75-3.74-13.1-5.68-1.07-.47-2.08-1.07-3.16-1.52-5.12-2.16-10.09-4.64-14.83-7.54-4.4-2.69-8.7-5.54-13.03-8.33-.2-.13-.27-.47-.55-.98Z"/><path d="M63.49,369.41c.54-.85,1.05-1.73,1.63-2.56,4.15-5.94,9.65-10.39,15.77-14.13,1.74-1.07,3.55-2.04,5.28-3.12,6.75-4.23,14.16-6.87,21.8-8.93,.37-.1,.75-.22,1.13-.28,.17-.03,.36,.08,1.04,.24-1.75,1.28-3.59,1.34-5.18,1.94-1.73,.65-3.51,1.17-5.23,1.85-1.71,.69-3.39,1.49-5.05,2.29-1.67,.8-3.33,1.62-4.94,2.52-1.62,.9-3.2,1.87-4.74,2.89-1.54,1.02-3.04,2.12-4.53,3.21-1.49,1.09-2.99,2.18-4.44,3.34-1.44,1.15-2.87,2.34-4.22,3.6-1.35,1.26-2.59,2.65-3.9,3.95-1.25,1.25-2.53,2.46-3.8,3.69l-.61-.48Z"/><path d="M140.1,416.42c-3.4-.72-6.81-1.38-10.2-2.16-9.67-2.22-19.38-4.27-28.97-6.81-5.91-1.57-11.63-3.85-17.39-5.94-3.56-1.29-7.08-2.73-10.53-4.29-3.13-1.41-6.15-3.08-9.07-4.98,24,12.46,50.1,18,76.29,23.22l-.13,.96Z"/><path d="M106.69,380.34c-.02-.63-.08-1.26-.05-1.88,.03-.67,.14-1.34,.21-1.93-3.43-3.22-4.23-5.42-2.91-7.77,1.32-2.34,3.14-3.17,5.6-2.56,3.02,.75,4.56,2.52,4.56,5.23,0,3.09-1.57,4.81-5.35,5.82l-1.18,3.35c-.3-.08-.59-.16-.89-.24Zm1.03-13.12c-.32,2.71-.53,4.94,.19,7.52,1.63-2.07,2.99-3.87,3.59-6.3-1.22-.39-2.3-.74-3.78-1.22Zm4.95,3.15c-1.68,1.47-2.64,3.07-3.22,5.29,3-1.35,3.33-1.9,3.22-5.29Zm-6.39-2.22c-2.23,2.71-2.14,3.94,.16,5.57-.05-1.82-.1-3.47-.16-5.57Z"/><path d="M249.45,392.89c-.57-.29-1.18-.53-1.7-.89-2.9-2.03-6.16-2.81-9.64-2.87-7.8-.14-14.49,2.8-20.24,7.79-5.95,5.16-10.56,11.41-13.9,18.58-.15,.32-.37,.62-1.05,.7,.69-1.56,1.22-3.22,2.1-4.67,4.92-8.19,10.65-15.69,19.46-20.05,7.05-3.49,14.38-4.85,21.9-1.36,1.2,.56,2.26,1.43,3.38,2.15l-.3,.63Z"/><path d="M340.61,395.46c-1.8-1.48-1.59-2.78-1.57-3.96,.04-3.1,.25-6.21,.2-9.31-.05-3.48-.31-6.96-.47-10.44-.09-2.01-.09-2.01,1.47-3.74,1.48,4.56,.52,9.05,.56,13.5,.04,4.46-.02,8.9-.19,13.95Z"/><path d="M331.48,395.44c-10.08,2.75-20.16,5.51-30.25,8.23-.7,.19-1.46,.15-2.44,.24,.29-.55,.36-.85,.55-1.01,.29-.23,.65-.46,1.02-.53,10.46-2.02,20.37-6.29,30.99-7.64l.13,.69Z"/><path d="M346.88,392.1c2.85-1.86,19.43-3.85,23.78-3.24-.86,.34-1.32,.62-1.81,.7-5.64,.93-11.28,1.9-16.94,2.69-1.64,.23-3.35-.08-5.03-.14Z"/><path d="M229.14,348.19c4.12-.75,8.23-1.51,12.35-2.26l.09,.52c-4.1,.77-8.19,1.55-12.29,2.32l-.16-.58Z"/><path d="M236.93,325.31c2.38,1.05,4.76,2.09,7.69,3.38-2.46,.17-5.23-.89-7.86-2.72l.17-.66Z"/><path d="M228.13,334.05c2.15-.2,4.29-.4,6.44-.6l.04,.43c-2.15,.21-4.29,.41-6.44,.62l-.04-.45Z"/><path d="M235.55,340.33c-1.31,1.45-3.15,.97-4.81,1.15l4.85-1.1-.05-.05Z"/><path d="M235.59,340.37c1.19-.14,2.38-.28,3.57-.42v.53c-1.19-.04-2.39-.09-3.6-.14-.01-.01,.04,.03,.04,.03Z"/><path d="M337.71,124.36c-2.23-.06-4.5,.13-6.69-.21-5.93-.92-11.88-1.81-17.36-4.61-1.76-.9-3.88-1.08-5.84-1.59-.89-.23-1.77-.47-2.99-.8,.61-.9,.86-1.61,1.36-1.94,3.55-2.37,5.99-5.77,8.63-9.01,2.79-3.43,5.93-6.48,10.33-7.76,6.99-2.03,13.62-1.61,19.62,2.98,.75,.57,1.68,.92,2.52,1.37h-.01c0,1.47,1.26,1.88,2.14,2.61,1.17,1.92,2.33,3.84,3.5,5.76,.31,.59,.61,1.2,.93,1.78,.81,1.45,.81,1.45,.49,3.04l2.02-.72c-.64,2.3-1.89,3.71-3.08,5.08-1.27,1.46-2.8,2.7-4.17,4.09-3.05,3.1-6.93,4.22-11.07,4.68-6.61,.73-12.7-.87-18.54-3.98-3.42-1.82-7.12-3.09-10.69-4.63-.51-.22-.99-.51-2.07-1.08,1.11-.15,1.62-.34,2.09-.27,.96,.14,1.92,.35,2.85,.65,3.89,1.23,7.76,2.53,11.66,3.73,4.34,1.34,8.79,1.62,13.29,1.21,.35-.03,.68-.3,1.03-.45,4.88,.75,10.74-1.61,14.35-6.5-3.96,3.55-8.79,5.15-13.85,6.24-.17,.04-.31,.21-.46,.33Zm-29.79-8.4c.79,.42,1.2,.72,1.65,.87,5.15,1.71,10.04,4.09,15.47,5.15,5.76,1.13,11.37,1.6,16.97-.35,4.48-1.55,8.32-4.08,11.26-7.91-1.14-1.85-2.12-3.54-3.2-5.16-4.41-6.67-10.57-10.19-18.63-10.13-4.45,.03-8.6,1.31-11.73,4.47-4.03,4.07-7.69,8.5-11.77,13.06Z"/><path d="M347.3,102.79h.01c-2.54-2.82-5.65-4.96-9.21-5.98-7.03-2.03-13.76-1.32-19.28,4.04-2.86,2.77-5.41,5.86-8.14,8.77-1.51,1.61-3.1,3.16-4.69,4.78-.59-.58-.93-.9-1.28-1.22l-.09,.07c1.75-.73,2.5-2.26,3.22-3.9,1.09-2.48,2.23-4.96,3.56-7.31,2.71-4.8,6.66-8.28,11.7-10.54,4.57-2.05,9.09-2.11,13.87-.49,5.27,1.79,9.37,4.99,12.87,9.14,.25,.3,.57,.56,.74,.9,1.87,3.92,3.71,7.86,5.27,12.06-.97-.65-1.94-1.3-2.92-1.95-1.17-1.92-2.33-3.84-3.5-5.76-.71-.87-1.42-1.73-2.14-2.6Z"/><path d="M306.37,119.92c-.52-.16-1.05-.29-1.54-.51-.05-.02,.16-.61,.25-.94l1.64,.48-.35,.96Z"/><path d="M267.34,131.7c2.68,2.05,5.23,4.3,8.07,6.11,6.8,4.35,14.13,4.31,21.58,1.96,3.57-1.12,6.79-2.89,9.56-5.62-.3,.64-.49,1.37-.93,1.89-2.25,2.66-4.43,5.39-6.88,7.86-4.81,4.85-16.55,5.03-22.31-.54-2.24-2.17-4.42-4.36-6.02-7.08-.66-1.12-1.75-1.97-2.53-3.03-.31-.42-.32-1.07-.46-1.62l-.09,.06Zm6.64,6.8c3.18,4.25,9.95,7.43,13.48,6.4-4.9-.86-8.75-3.94-13.48-6.4Z"/><path d="M277.85,137.93c.57-1.85,1.57-1.3,2.49-1.13,2.68,.48,5.36,.98,8.05,1.37,4.29,.62,8.15-.57,11.51-3.2,2.13-1.67,4.06-3.6,6.44-5.73-3.8-2.95-7.01-6.17-10.85-8.24-4.74-2.55-9.9-2.5-14.84,.28-4.24,2.38-7.72,5.5-10.23,9.57,2.22,1.8,4.36,3.52,6.47,5.28,.07,.06-.18,.49-.44,1.14-2.63-1.99-5.14-3.89-7.69-5.82,.15-.47,.16-.91,.39-1.18,3.21-3.76,6.24-7.74,10.78-10.06,4.98-2.54,10.09-3.02,15.13-.32,2.55,1.37,4.9,3.13,7.27,4.82,1.88,1.34,3.64,2.84,5.42,4.24-2.36,5.79-6.87,8.79-12.48,10.25-5.86,1.53-11.7,1.71-17.43-1.26Z"/><path d="M289.05,135.55c-3.6-4.19-3.88-10.57-.8-13.63,.86,1.62-.49,2.97-.4,4.41,.1,1.53,.17,3.06,.25,4.59,.07,1.43,1.77,2.51,.96,4.62Z"/><path d="M260.22,140.72c-1.91-.67-1.85-2.25-1.81-3.72,.04-1.69-.08-3.55,2.09-4.17-.09,2.61-.18,5.14-.28,7.89Z"/><path d="M234.87,419.84c-.25,.64-.59,1.87-1.18,2.95-.81,1.47-2.2,2.03-3.66,1.72-1.64-.35-2.56-1.46-2.82-3.22-.26-1.77,.41-3.23,1.41-4.58,1.12-1.51,2.82-2.09,4.32-1.55,1.42,.51,2.22,2.14,1.94,4.67Zm-1.45,.03c.08-.74,.23-1.08,.13-1.31-.32-.74-.58-1.69-1.17-2.05-.38-.24-1.64,.22-1.92,.7-.7,1.2-1.2,2.57-1.53,3.93-.22,.93,.41,1.64,1.41,1.85,.93,.19,1.78,.07,2.22-.86,.41-.86,.68-1.78,.85-2.26Z"/><path d="M294.21,92.18c-.36-.19-.85-.3-1.08-.6-2.15-2.94-1.96-6.16-.89-9.4,.14-.42,.97-.6,1.48-.9,.17,.4,.6,.92,.48,1.19-1.33,3.08-.66,6.05,.36,9.03,.04,.12-.17,.32-.36,.67Z"/><path d="M235.28,227.64c.88-.61,1.75-1.21,2.6-1.8-.27-.95-.73-1.25-1.5-.69-.85,.62-1.84,1.01-2.62,.15-.94-1.03-.45-2.15,.29-3.16,.45-.61,.83-1.27,1.3-2.02,.85-.04,1.78-.08,3.04-.14-.46,.77-.77,1.28-1.22,2.03,.68,.22,1.26,.44,1.87,.61,1.03,.29,1.92,.89,1.78,1.97-.12,.87-.6,2.03-1.29,2.42-1.18,.67-2.64,.84-3.99,1.21l-.26-.56Zm-.73-3.51l.43,.32c.44-.4,.93-.76,1.29-1.23,.08-.1-.31-.55-.69-1.18-.45,.92-.74,1.5-1.03,2.09Z"/><path d="M223.55,231.18c2.79-.62,5.12,1.07,5.99,4.01,.69,2.33-.23,4.06-3.3,5.7,.81-2.05,3.19-3.29,2-5.71-.99-2.03-2.28-3.6-4.69-4Z"/><path d="M256.24,103.21c-2.85,4.36-2.79,8.39-.53,12.56-2.06-.65-3.45-3.67-3.41-6.92,.04-3.33,.96-4.84,3.94-5.64Z"/><path d="M325,133.67c0,2.58-2.34,5.02,.29,7.62-2.19,.26-2.68-.8-2.67-2.01,.01-2.09-.52-4.47,2.37-5.61Z"/><path d="M207.21,240.09l-.83,1.83c1.18,.33,2.34,.42,3.2,.98,.46,.3,.6,1.42,.52,2.13-.19,1.8-1.57,2.31-5,1.8,.73-.59,1.28-1.04,1.96-1.59-4.28-1.11-4.37-1.28-2.61-4.98,.81-.05,1.65-.11,2.76-.18Zm1.06,4.81l.5-.14-.36-1.3c-.17,.05-.49,.13-.49,.14,.1,.44,.22,.87,.34,1.3Z"/><path d="M298.3,162.83c.54-1.79,1-3.33,1.46-4.88l-.5-.19c-.5,1.18-1.07,2.33-1.47,3.54-.5,1.5-1.41,2.27-3.28,2.05,.12-.69,.25-1.4,.35-2.11,.09-.59,.14-1.19-.2-1.88-.24,.69-.45,1.38-.71,2.06-.47,1.23-1.03,2.31-2.69,2.07-1.71-.25-1.43-1.52-1.5-2.29,1.73-1.57,3.33-2.93,4.82-4.39,1.21-1.19,2.37-1.67,4.14-1.11,3.57,1.13,7.23,1.99,10.98,3-.18,1.93-1.49,2.33-3.12,2.88,.1-.86,.16-1.44,.15-1.33-.83,.64-1.94,1.51-3.05,2.37l-.69-.64,.53-2.56c-1.56,1.36-2.16,3.9-5.21,3.42Z"/><path d="M282.78,155.59c1.18-.86,2.17-1,3.25-.06,2.43,2.12,3.13,4.15,2.25,7.17-1.7-.9-1.52-2.81-2.7-4.08,.09,.64,.14,1.28,.29,1.91,.16,.64,.41,1.27,.72,2.19-.76-.15-1.54-.07-1.75-.38-1.4-2.02-2.02-4.3-2.06-6.74Z"/><path d="M279.88,158.53c-.24,.97-.42,1.67-.65,2.58-.95-.57-1.72-1.25-2.62-1.51-.92-.27-1.97-.13-3.02-.51,2.44-1.81,5.35-2.18,8.11-3.42,.51,2.23,.95,4.17,1.39,6.1q-2.28-.1-3.21-3.24Z"/><path d="M311.01,160.35q.64-1.67,3.22-1.14c-1.4,.49-2.31,.82-3.22,1.14Z"/><path d="M338.28,282.76c-.79-.84-1.55-1.42-1.47-1.6,.71-1.51-.3-2.85-.23-4.22,.05-.95,.27-1.75-.13-2.73-.3-.75,.05-1.76,.39-2.66,.74,.99,2.28,1.66,.95,3.21-.17,.2,.21,.88,.34,1.33,.12,.45,.5,1.07,.33,1.32-.72,1.08-1.08,1.93,.28,2.85,.21,.14-.21,1.22-.46,2.49Z"/><path d="M51.45,380.85c-1.37,.78-2.75,1.55-4.12,2.33l-.34-.58c1.36-.8,2.72-1.59,4.08-2.39l.38,.63Z"/><path d="M43.92,380.43c1.5-.77,3.01-1.53,4.51-2.3-1.62,1.89-2.34,2.2-4.56,2.23,0,0,.05,.07,.05,.07Z"/><path d="M46.05,376.54l-2.28,1.28-.27-.49c.76-.42,1.53-.84,2.29-1.26l.27,.47Z"/><path d="M467.54,341.95c.8-2.68,1.43-4.76,2.19-7.3,.26,2.85-.26,4.63-2.19,7.3Z"/><path d="M468.54,333.92c-.72,1.83-1.44,3.67-2.16,5.5l-.67-.26c.72-1.9,1.44-3.79,2.15-5.69l.68,.45Z"/><path class="h" d="M101.79,403.06c-2.22-.66-4.23-1.26-6.49-1.93,.84-5.58,.76-11.1,2.24-16.79,2.62,.81,4.98,1.53,7.51,2.31,0,5.71-1.09,11-3.27,16.4Z"/><path class="h" d="M114.67,390c.37,3.53-1.75,9.94-4.91,15.01-2.22,.1-4.22-.91-6.28-1.63,1.18-5.25,2.35-10.42,3.57-15.82,2.61,.3,5.06,1.71,7.62,2.45Z"/><path class="h" d="M89.74,382.38c2.26,.56,4.2,1.04,6.13,1.52l-1.91,16.71c-1.81-.66-3.41-1.08-4.81-1.85-.58-.32-1.09-1.39-1.06-2.1,.12-3,.41-5.99,.75-8.97,.19-1.7,.57-3.38,.91-5.31Z"/><path class="h" d="M119.26,407.55c1.25-4.75,2.42-9.21,3.68-13.98,1.79,.8,3.56,1.51,5.24,2.4,.47,.25,.89,1.03,.92,1.59,.06,.95-.09,1.95-.37,2.86-.86,2.77-1.84,5.5-2.84,8.47-2.36,.14-4.43-.8-6.63-1.34Z"/><path class="h" d="M117.91,407.43c-2.53-.6-4.49-1.06-6.57-1.56,1.86-4.99,3.66-9.82,5.56-14.9,.14,.04,.57,.12,.97,.27,3.83,1.45,3.87,1.46,2.88,5.48-.85,3.45-1.82,6.88-2.84,10.71Z"/><path class="h" d="M86.49,397.5c-.19,.06-.29,.14-.37,.11-5.06-1.48-4.63-.68-4.6-5.57,.02-3.69,.12-7.34,1.51-11.22,1.7,.29,3.44,.6,5.26,.91l-1.8,15.77Z"/><path class="h" d="M130.94,397.23l5.66,3.07c-.39,3.53-1.67,6.44-3.44,9.12-.34,.51-1.26,.96-1.87,.91-1.31-.11-2.6-.55-4.04-.9,1.24-4.1,2.41-7.96,3.7-12.2Z"/><path class="h" d="M76.47,380.17l4.67,.54c-.39,4.94-.78,9.71-1.19,14.85-1.35-.54-2.51-.97-3.64-1.45-1.2-.52-1.2-1.64-1.27-2.71-.24-3.72,.41-7.33,1.41-11.22Z"/><path class="h" d="M70.62,379.65l4.3,.49-1.45,12.69c-1.11-.41-2.23-.82-3.35-1.24-1.15-4.04-.07-7.79,.5-11.94Z"/><path class="h" d="M138.72,411.96c-1.49-.29-2.96-.58-4.76-.93,.91-1.78,1.71-3.19,2.35-4.67,.65-1.51,1.12-3.1,1.81-5.04,1.54,.95,2.97,1.82,4.71,2.89-1.39,2.62-2.68,5.05-4.11,7.75Z"/><path class="h" d="M68.04,390.3l-2.5-1.49,1.04-9.07,2.69-.18-1.23,10.74Z"/><path class="h" d="M176.27,407.38c5.18,.57,7.65,4.28,9.5,8.49,.73,1.66,.37,3.45-1.4,4.61-.39,.26-.79,.6-1,1.01-2.38,4.73-6.82,6.23-11.49,6.98-5.64,.9-11.2,.14-16.75-1.38-6.02-1.66-10.22-12.34-3.66-17.97,2.33-2,4.87-3.31,8.03-3.78,3.4-.51,6.74-.94,10.15-.36,2.39,.41,4.76,.92,6.72,2.51-1.44-.2-2.87-.56-4.31-.58-3.11-.05-6.22,.09-9.33,.12-4.92,.05-8.18,2.78-10.62,6.68-1.43,2.29-.69,6.31,1.28,8.05,7.77,6.88,18.6,6.72,26.54,.3,4.67-3.77,3.94-9.23-.15-12.22-1.15-.84-2.34-1.64-3.51-2.45Z"/><path class="h" d="M107.72,367.22c1.48,.48,2.55,.82,3.78,1.22-.6,2.43-1.96,4.23-3.59,6.3-.72-2.58-.51-4.81-.19-7.52Z"/><path class="h" d="M112.67,370.37c.1,3.39-.22,3.93-3.22,5.29,.59-2.22,1.54-3.81,3.22-5.29Z"/><path class="h" d="M106.28,368.15c.06,2.1,.11,3.75,.16,5.57-2.31-1.63-2.39-2.86-.16-5.57Z"/><path class="h" d="M307.92,115.96c4.08-4.56,7.75-8.99,11.77-13.06,3.13-3.17,7.28-4.44,11.73-4.47,8.07-.06,14.22,3.46,18.63,10.13,1.07,1.62,2.05,3.31,3.2,5.16-2.94,3.83-6.78,6.36-11.26,7.91-5.6,1.94-11.21,1.47-16.97,.35-5.42-1.06-10.31-3.44-15.47-5.15-.45-.15-.85-.45-1.65-.87Zm26.57,3.37c-.47-.95-.8-1.51-1.03-2.11-.55-1.43-1.24-2.85-1.55-4.33-.68-3.24-.29-6.39,1.3-9.35,.39-.72,.99-1.45,.23-2.46-.36,.17-.78,.25-1.01,.5-3.16,3.37-4.03,11.46-1.66,15.48,.69,1.18,1.5,2.26,3.72,2.29Z"/><path class="h" d="M337.71,124.36c.15-.11,.29-.29,.46-.33,5.05-1.1,9.88-2.69,13.85-6.24-3.62,4.89-9.48,7.25-14.35,6.5l.05,.07Z"/><path class="h" d="M347.3,102.79c.71,.87,1.42,1.73,2.14,2.6-.88-.73-2.14-1.15-2.14-2.6Z"/><path class="h" d="M273.98,138.5c4.73,2.47,8.58,5.54,13.48,6.4-3.53,1.03-10.3-2.16-13.48-6.4Z"/><path class="h" d="M233.42,419.87c-.18,.48-.44,1.41-.85,2.26-.44,.93-1.3,1.05-2.22,.86-1-.21-1.63-.92-1.41-1.85,.32-1.36,.82-2.73,1.53-3.93,.28-.48,1.54-.94,1.92-.7,.59,.37,.85,1.32,1.17,2.05,.1,.23-.04,.56-.13,1.31Z"/><path class="h" d="M234.54,224.12c.29-.59,.58-1.17,1.03-2.09,.38,.63,.76,1.09,.69,1.18-.36,.46-.85,.83-1.29,1.23l-.43-.32Z"/><path class="h" d="M208.26,244.9c-.12-.43-.25-.86-.34-1.3,0-.01,.32-.09,.49-.14l.36,1.3-.5,.14Z"/><path d="M176.27,407.38c1.17,.82,2.36,1.61,3.51,2.45,4.09,2.99,4.82,8.45,.15,12.22-7.94,6.42-18.77,6.58-26.54-.3-1.97-1.74-2.71-5.76-1.28-8.05,2.43-3.9,5.7-6.63,10.62-6.68,3.11-.03,6.22-.17,9.33-.12,1.44,.02,2.88,.38,4.31,.58l-.09-.11Zm-22.33,11.12l-.05-.07c.04,.56-.15,1.34,.15,1.63,1.31,1.28,2.58,2.83,4.19,3.53,6.81,3,13.45,2.4,19.64-1.79,2.41-1.63,3.78-4.07,3.4-6.98-.37-2.87-2.54-4.45-5.14-5.43-.36-.14-.74-.24-1.11-.35-3.61-1.08-7.24-1.34-10.92-.39-.93,.24-1.89,.39-2.84,.53-3.88,.6-6.52,2.82-8.1,6.31-.48,1.07-.62,2.3,.78,3.01Z"/><path d="M334.49,119.33c-2.22-.03-3.03-1.12-3.72-2.29-2.37-4.02-1.5-12.1,1.66-15.48,.23-.25,.65-.32,1.01-.5,.76,1.01,.15,1.74-.23,2.46-1.59,2.96-1.98,6.11-1.3,9.35,.31,1.49,.99,2.9,1.55,4.33,.23,.6,.56,1.16,1.03,2.11Z"/><path class="h" d="M153.94,418.5c-1.4-.7-1.27-1.94-.78-3.01,1.58-3.49,4.22-5.71,8.1-6.31,.95-.15,1.91-.29,2.84-.53,3.68-.96,7.31-.69,10.92,.39,.37,.11,.75,.21,1.11,.35,2.59,.98,4.76,2.57,5.14,5.43,.38,2.91-1,5.35-3.4,6.98-6.19,4.19-12.83,4.78-19.64,1.79-1.61-.71-2.88-2.26-4.19-3.53-.3-.29-.11-1.07-.15-1.63,2.07-1.17,4.14-2.34,6.22-3.51,2.4-.22,3.55-.7,5.44-2.53-2.17,1.04-3.78,1.82-5.39,2.59-2.27,.81-4.56,1.59-6.21,3.51Zm23.32-3.05l-.35-.64c-4.73,2.67-9.47,5.35-14.2,8.02l.37,.64,14.18-8.03Zm-3.59-2.42l-.38-.52c-2.38,1.29-4.77,2.58-7.15,3.88l.29,.54c2.41-1.3,4.83-2.6,7.24-3.9Zm-10,5.26c-2.82,.27-5.05,1.35-6.31,2.91,2.2-1.01,4.26-1.96,6.31-2.91Zm6.37-7.37l-.22-.42-1.63,.91,.17,.32,1.67-.82Z"/><path d="M177.27,415.45l-14.18,8.03-.37-.64c4.73-2.67,9.47-5.35,14.2-8.02l.35,.64Z"/><path d="M173.68,413.03c-2.41,1.3-4.83,2.6-7.24,3.9l-.29-.54c2.38-1.29,4.77-2.58,7.15-3.88l.38,.52Z"/><path d="M163.68,418.29c-2.05,.95-4.11,1.89-6.31,2.91,1.27-1.56,3.49-2.63,6.31-2.91Z"/><path d="M160.1,414.92c-2.07,1.17-4.14,2.34-6.21,3.51l.05,.07c1.65-1.92,3.94-2.7,6.21-3.51l-.05-.07Z"/><path d="M160.15,414.99c1.61-.78,3.22-1.55,5.39-2.59-1.89,1.83-3.04,2.31-5.44,2.53l.05,.07Z"/><path d="M170.05,410.92l-1.67,.82-.17-.32,1.63-.91,.22,.42Z"/></g></g></g><g id="g"><polygon class="k" points="614.47 569.76 190.93 569.76 190.93 437.09 614.47 437.09 581.71 504.06 614.47 569.76"/><text class="j" transform="translate(310.62 541.18)"><tspan x="0" y="0">ES</tspan><tspan class="o" x="32.68" y="0">T</tspan><tspan x="46.17" y="0">A</tspan><tspan class="n" x="65.88" y="0">F</tspan><tspan x="80.42" y="0">ADOR</tspan></text><text class="l" transform="translate(278.7 499.71)"><tspan x="0" y="0">Monstruo</tspan></text></g></g></svg>