<?xml version="1.0" encoding="UTF-8"?><svg xmlns="http://www.w3.org/2000/svg" xmlns:xlink="http://www.w3.org/1999/xlink" viewBox="0 0 240.49 240.49"><defs><style>.h,.i{fill:#fff;}.j{fill:none;}.j,.k,.l,.i{stroke-width:.75px;}.j,.l,.i{stroke:#fff;stroke-miterlimit:10;}.k{stroke:#000;stroke-linejoin:bevel;}.m{fill:#efc5ba;}.n{clip-path:url(#e);}.o{filter:url(#f);}</style><clipPath id="e"><circle class="m" cx="120.24" cy="120.24" r="120.24"/></clipPath><filter id="f" filterUnits="userSpaceOnUse"><feOffset dx="8.5" dy="5.67"/><feGaussianBlur result="g" stdDeviation="0"/><feFlood flood-color="#000" flood-opacity=".5"/><feComposite in2="g" operator="in"/><feComposite in="SourceGraphic"/></filter></defs><g id="a"/><g id="b"><g id="c"><circle class="m" cx="120.24" cy="120.24" r="120.24"/></g><g id="d"><circle class="m" cx="120.24" cy="120.24" r="120.24"/><g class="n"><g class="o"><path d="M95.99,193.21c.24-3.42,2.07-13.59,.68-18.2-.48-1.6-.98-3.19-1.45-4.8-1.12-3.8-4.33-6.32-6.94-9.11-3.85-4.11-8.72-5.8-14.31-4.35-7.54,1.95-10,9.8-11.31,16.65-.92,4.83-.82,9.95-1.29,14.83s-.66,9.95-1.49,14.77c-.62,3.59,.02,6.8-3.28,9.13-3.21,2.27-6.33,4.77-9.17,7.51,4.08-1.56,7.72-4.64,11.75-6.37-2.26,1.66-2.52,6.58-3.23,9.07-1.34,4.73-2.26,9.46-3.17,14.29-.24,1.27-.26,3.31-1.01,4.26-.83,1.05-2.9,1.83-3.96,2.87-2.81,2.77-5.57,4.74-7.6,8.06,2.42-1.07,4.49-3.48,6.62-5.05,1.7-1.26,3.29-3.23,5.52-3.47,.98,1.36-.86,6.53-1.17,8.21-.71,3.78-2.04,7.94-1.44,11.8,1.09,7.07,8.4,11.98,15.24,9.25,4.06-1.62,7.38-5.1,9.24-8.93,2.22-4.57,4.56-8.89,5.67-13.91,2.1-9.5,4.95-18.8,7.71-28.11,1.32,1.18,2.64,2.51,4.18,3.53,1.39,.93,4.38,2.75,6.04,2.02-2.52-1-4.51-2.48-6.1-4.75-.75-1.07-2.66-3.03-2.93-4.33-.23-1.1,.65-1.82,1.19-2.79,1.27-2.28,1.98-4.9,3.01-7.3,3.23-7.49,5.4-16.01,3.01-14.77Z"/><path d="M163.68,174.76c-3.29-4.4-7.86-13.07-14.98-12.62-3.38,.21-6.49,3.38-8.22,5.99-2.8,4.23-2.8,10.74-1.89,15.54,.5,2.68,1.56,5.11,2.06,7.83,.55,3.01,1,6.07,1.4,9.11,.31,2.36,.76,4.61,1.15,6.94,.31,1.87,.18,3.83,.52,5.65-.8,.57-2.07,.79-3.01,1.18-1.86,.79-3.83,1.82-5.43,3.09-3.31,2.64-5.15,6.09-7.08,9.63,3.19-2.13,5.43-5.26,8.5-7.33,2.53-1.71,4.37-3.15,7.45-2.11-.35,6.26-.48,12.6-1.5,18.82-.73,4.44-1.3,9.03-2.14,13.54-.49,2.61-1.17,5.26-1.49,7.9-.38,3.19,.76,5.43,3.03,7.44,2.71,2.41,4.99,3.83,8.66,4.32,4.08,.54,7.57-2.84,9.53-6.11,2.38-3.96,2.93-9.06,3.13-13.61,.16-3.61,.9-7.1,1.17-10.69,1.6,2.59,5.98,5.94,9.17,5.85-1.33-2.47-3.94-4.36-5.86-6.53-1.37-1.55-2.8-2.59-2.64-4.83,.52-7.18,3.28-14.2,3.62-21.41,.21-4.46,.47-9.33,.16-13.8-.25-3.63-1.11-7.36-1.5-10.96-.29-2.64-1.1-5.12-1.63-7.67-.47-2.25-1.44-4.15-2.19-5.16Z"/><path d="M118.94,32.67c2.52-3.47,7.94-9.16,6.1-14.41-.48,3.54-2.97,6.05-4.87,8.87-1.78,2.64-3.69,5.48-7.1,6.21-2.07,.44-4.32,.1-6.46,.3-3.02,.29-6.07,.87-8.68,2.52-2.86,1.81-6.16,2.7-9.42,3.5-3.78,.93-7.72,.89-11.39,2.49-3.07,1.33-5.69,4.02-8.14,6.24-2.02,1.83-3.8,3.72-5.66,5.72-1.59,1.72-3.03,3.57-4.14,5.65-.67,1.25-.98,2.86-1.75,3.97-.61-.25-.87-1.45-1-2.07-.42-1.89,.11-3.53,.47-5.39,.34-1.76,.27-3.74,.87-5.41-2.64,4.64-4.59,10.88-3.25,16.16,.31,1.22,.21,.92-.6,1.93-.8,1-1.38,2.14-2.08,3.22-1.87,2.91-2.97,5.86-4.35,9-.17,.39-.33,1.34-.76,1.48-.3,.1-1.11-.56-1.44-.67-.81-.28-1.76-.36-2.6-.47-2.64-.33-6.56,1.2-8.15,3.29-.76,1-1.2,2.76-1.79,3.91-.69,1.32-.97,1.74-.83,3.03,.44,3.94,1.46,9.82,4.34,12.61-.1,.53-.73,.51-1.21,.86-.56,.41-1.01,1.16-1.48,1.68-1.76,1.97-3.37,4.02-4.49,6.44-.95,2.05-1.67,4.41-2.39,6.57-.87,2.62-1.96,5.16-2.48,7.88-.59,3.06-1.41,6.27-1.17,9.45,.05,.62,.51,1.12,0,1.56-.57,.48-2.23-.23-2.79-.38-1.69-.44-3.16-1.31-4.8-1.81-.92,1.36,2.74,2.01,3.47,2.27,1.35,.48,2.19,1.26,3.39,1.93,1.58,.89,1.07,1.24,.75,3.12s-.13,4.25,.23,6.12c.89,4.66,1.99,9.39,4.85,13.23,1.36,1.82,2.56,3.57,4.46,4.85,.79,.53,1.54,1.19,2.35,1.68s1.89,.48,2.53,1.1c-.26,.82-.96,1.09-1.42,1.74-.88,1.25-1.29,3.3-1.7,4.72-.94,3.25-2.49,8.03-1.28,11.35-.23-1.86,.61-3.72,1.07-5.5,.7-2.69,1.75-5.28,3-7.75,1.12-2.21,2.69-4.77,5.19-5.59,2.25-.73,4.8,.94,7.12,1.14,2.04,.18,5.38-.04,7.23,1.04-1.1,1.54-1.83,3.2-2.31,5.02-.52,1.98-.96,4.04-1.03,6.1-.04,1.21,.48,2.55,.28,3.72-.75-1.83,.53-4.97,1.47-6.58s1.89-3.66,2.95-5.28c.68-1.04,2.21-2.09,3.38-2.27,1.75-.27,3.91,.04,5.68,.09,1.6,.05,3.57,.06,5.09,.65,1.79,.7,2.27,2.24,3.2,3.82,1.79,3.03,4.53,5.18,7.4,7.09,2.98,1.98,6.47,3.78,9.79,5.1,3.47,1.38,7.66,1.43,11.34,2.01,5.46,.87,10.96,1.51,16.5,.75,3.51-.48,7.03-1.4,10.58-1.49,4.47-.12,9.43-2.46,13.49-4.18,1.9-.8,3.86-2.29,5.59-3.54,2.57-1.86,5.29-3.75,8.02-5.38,3.02-1.8,5.58-4.4,8.38-6.52,2.97-2.25,6.21-3.8,8.83-6.47s5.33-5.05,7.97-7.62c1.18-1.15,2.39-2.28,3.43-3.53,.51-.61,1.14-1.08,1.64-1.66,.57-.66,.8-1.48,1.45-2.07,1.93-1.74,4.39-3.89,5.4-6.33,.23-.55,.35-1.56,1.01-1.81,.72-.28,2.74,.91,3.59,1.04,1.93,.3,4.1-.04,5.98-.46,1.68-.38,4.65-1.66,5.34-3.27-.99-.39-2.59,.63-3.71,.84-1.66,.31-3.47,.57-5.15,.65-2.11,.09-4.3-.37-5.76-1.99,.55-.93,1.82-1.8,2.55-2.7,1.36-1.69,2.03-3.33,2.85-5.33,1.14-2.77,2.62-5.54,3.28-8.47,.32-1.44,.1-1.47,1.49-1.77s2.87-.68,4.01-1.5c1.8-1.29,3.47-2.81,4.88-4.53,.49-.74,1.02-1.44,1.6-2.11,.47-.4,.9-.84,1.31-1.31,.16-.48,.34-.73-.03-1.18-2.8,3.18-8.6,8.01-13.26,7.15,.19-.82,.77-1.69,1.02-2.58,.21-.74,.51-1.45,.75-2.2,.54-1.74,.56-3.79,.49-5.6-.12-3.05,.25-6.23-.26-9.12-.18-1.01-.64-2.4-1.06-3.35-.48-1.06-1.02-1.43-2.13-1.48-.93-.04-1.69,.22-2.27-.76-.42-.71-.95-2.48-.97-3.3s.45-1.8,.52-2.68c.1-1.21-.34-2.29-.72-3.43-1.17-3.56,.81-7.64,1.6-11.17,.99-4.47,2.75-9.13,1.73-13.75-.67-3.04-3.16-5.83-6.14-6.5-3.97-.89-6.64,2.76-8.62,5.46-1.29,1.76-2.3,3.71-3.4,5.67-.59,1.05-1.69,2.41-1.81,3.64-.78-2.73-.82-7.11-4.12-8.16-1.41-.45-1.99-.04-2.87-1.5-.95-1.6-2.22-2.33-3.49-3.62-2.49-2.52-5.12-4.84-7.6-7.34-1.31-1.33-2.46-3.15-4.06-4.18-1.61-1.05-3.5-1.71-4.83-3.15,2.33-1.14,5.02-1.19,7.42-.37,1.29,.44,2.63,.63,3.87,1.23,.83,.4,1.41,1.08,2.21,1.41,.02-2.07-3.5-2.55-4.86-2.92-1.93-.53-3.43-1.43-5.5-1.46-1.49-.02-3.25-.12-4.7,.12-.66,.11-1.37,.66-2.03,.64-.84-.04-1.19-.71-1.78-1.17-3.39-2.6-7.21-3.5-11.34-3.94-2.25-.24-4.51-.66-6.75-.73-1.81-.06-3.56,.61-5.38,.81-1.66,.19-3.24,.65-4.88,.97-1.26,.25-3.27,.96-4.48,.51,.18-.06,.37-.12,.28-.09Z"/><path class="l" d="M179.81,69.22c-1.76-2.32-3.93-4.34-6.37-5.93-2.02-1.32-4.43-2.38-6.8-1.9-2.83,.56-4.88,3.27-5.4,6.11s.23,5.76,1.3,8.44c1.76,4.4,4.42,8.44,7.77,11.79,.8,.8,1.72,1.6,2.84,1.74,1.78,.21,3.28-1.29,4.2-2.83,2.41-4.02,2.87-8.91,2.84-13.6-.01-1.88-.17-3.96-.38-3.82Z"/><path class="l" d="M69.96,104.96c-.37,.28-.8,.45-1.26,.49-1.1,.1-1.94,.16-2.99-.31-.33-.15-.67-.32-.99-.51-.83-.49-1.52-1.26-2.29-1.84-1.79-1.38-3.3-3.19-4.72-4.94s-2.56-3.61-2.83-5.94c-.32-2.74,.31-5.37,2.08-7.54,.95-1.17,2.97-2.45,4.42-2.88,.41-.12,.83-.23,1.24-.33,.84-.21,1.86-.16,2.7,0,1.02,.2,1.95,.86,2.84,1.38,2.21,1.29,3.65,3.73,4.54,6.07,1.06,2.8,1.27,5.84,1.06,8.81-.1,1.34-.56,2.74-1.13,3.95-.46,.97-.83,1.95-1.62,2.71-.35,.34-.73,.65-1.04,.88Z"/><path class="l" d="M201.36,86.78c-.06-.79-.3-2.74-.5-3.23-.66-1.6-1.77-1.39-2.39-.08-.02,.05-.53,2.28-.55,2.32-.53,1.67-.62,2.33-1.26,3.97-.39,1-.68,2.07-1.15,3.04-.37,.76-.83,1.49-1.26,2.22-.25,.43-.53,.84-.81,1.25-.84,1.22-1.62,2.46-2.48,3.65-.76,1.06-1.34,2.24-2.22,3.21-.37,.41-.65,.88-.93,1.35-.41,.7-.98,1.2-1.45,1.83-.51,.68-.91,1.48-1.53,2.04-.27,.24-.51,.52-.7,.81-.24,.37-.62,.8-.64,1.25-.06,1.96,1.8,1.51,3.08,1.56,.34,.01,2.61-.11,4.27,.07,.78,.09,3.31-.45,4.77-.86,.84-.24,1.75-.27,2.58-.57,1.18-.43,4.43-1.69,4.83-2,.62-.47,1.38-.91,1.85-1.54,.54-.72,.97-1.41,1.19-1.93,.17-.39,.23-.83,.39-1.23,.76-1.9,.5-2.85,.28-3.95-.18-.92-.54-1.27-1.04-2.05-.41-.65-.79-1.28-1.26-1.87-.34-.43-.76-1.17-.9-1.67-.39-1.38-.28-.83-.81-2.17-.28-.71-.82-2.22-.99-2.95-.1-.42-.53-2.09-.39-2.48,.02,0-.05-.94,0-.01Z"/><path class="l" d="M35.02,108.62c.29,2.61,.51,5.38,1.88,7.7,.76,1.29,1.36,2.59,2.57,3.51,2.22,1.68,5.14,2.6,7.93,2.44,.57-.03,1.22-.08,1.76-.28,.34-.12,1.49-.59,1.83-.69,.64-.19,.54,.87,.46,1.03-.32,.65-.45,1.52-.86,2.36s-.64,1.8-.95,2.65-.64,1.6-.88,2.48-.58,1.71-.98,2.51c-.69,1.38-.83,1.72-1.51,3.09-.36,.71-1.09,1.61-1.46,2.31-.22,.42-1.02,1.4-1.36,1.75s-1.27,1.13-1.62,1.45c-1.22,1.1-2.05,1.61-3.6,2.21-1.34,.53-2.98,.55-4.37,.26s-2.36-1.49-3.24-2.43c-1.16-1.25-2.09-2.66-2.39-4.39-.52-3-.46-6,.32-9.06,.32-1.25,1.74-5.75,2.04-6.78,.49-1.69,1.18-3.33,1.84-4.95,.55-1.34,.88-2.71,1.42-4.04,.31-.75,.55-1.41,.92-2.17,.03,0,0-.32,.26-.96Z"/><path class="l" d="M179.92,58.78c-.59,.18-1.01,.53-1.24,1.03-.18,.17-.2,.36-.04,.56,.02,.25,.1,.5,.17,.74,.12,.42,.27,.85,.43,1.25,.35,.87,.75,1.7,1.23,2.5,.42,.69,.73,1.64,1.51,2.01,.49,.23,1.03,0,1.26-.49,.08-.17,.03-.46,.09-.65,.04-.14,.15-.27,.18-.41,.07-.38-.08-.93-.13-1.31-.11-.88-.64-1.98-1.25-2.62-.56-.59-.98-1.31-1.61-1.82-.29-.24-.96-.34-.59-.79Z"/><path class="i" d="M176.11,68.34c-.35,.16-.73,.63-.98,.92-.69,.79-1.08,1.67-1.47,2.64-.73,1.82-1.17,3.77-1.64,5.68-.5,2.06-.75,4.06-.69,6.18,.04,1.34,.24,2.65,1.16,3.66,1.53,1.66,3.73,.41,4.86-1.08,.92-1.23,1.39-2.66,1.66-4.16,.36-1.96,.77-3.93,1.03-5.9,.14-1.04,.34-2.13,.25-3.18-.05-.61-.09-.48-.21-1.84-.15-1.7-2.95-3.37-3.97-2.9Z"/><path class="i" d="M55.29,88.57c-.09,.63-.29,1.45-.2,2.12,.03,.19,.18,1.36,.59,2.78,.08,.26,.2,.51,.28,.77,.08,.24,.75,1.83,1.56,3.15,1.03,1.66,2.38,2.93,3.22,3.78,1.62,1.66,3.37,2.84,3.77,3.1,.46,.31,.91,.71,1.44,.89,.24,.08,.5,.09,.74,.16s1.62,.38,2.43-.18c.25-.17,.4-.34,.57-.59,.79-1.13-.31-3.31-1.12-4.82-.63-1.17-3.1-5.18-3.75-6.02-.79-1.03-1.39-2.11-2.48-2.87-.92-.63-1.96-1.3-3.04-1.92-.7-.4-1.38-.83-2.2-.96-.43-.07-.86-.01-1.28,.04-.39,.05-.6,.29-.68,.67-.04,.17-.04,.83,.15-.13Z"/><path class="k" d="M180.89,60.51c-.3,.1-.57,.24-.82,.42v.06c-.05,.09-.07,.2-.1,.29-.07,.22-.12,.48-.12,.71,0,.55,.19,1.07,.4,1.58,.14,.33,.28,.66,.4,1s.25,.64,.46,.92c.35,.47,.77,1,1.42,.91,.24-.03,.45-.15,.51-.39,.1-.39,.07-.84,.02-1.24-.05-.47-.11-.89-.27-1.33-.12-.34-.21-.69-.33-1.02-.1-.29-.23-.49-.44-.72-.15-.17-.31-.34-.45-.52-.1-.13-.2-.25-.31-.38-.06-.07-.15-.15-.39-.29Z"/><path class="k" d="M60.21,93.34c-.26,.58-1.25,2.07-1.02,2.7,.06,.17,.21,.33,.3,.48,.22,.35,.46,.77,.83,.99,.39,.24,.93,.37,1.38,.35,1.43-.08,1.72-2.01,1.24-3.14-.37-.87-1.26-1.52-2.21-1.55-.43-.01-.67,.14-.86,.53-.1,.21-.18,.89,.34-.37Z"/><path class="k" d="M179.04,72.62c-.66-.67-1.33-1.58-2.31-1.79-.44-.1-.94-.14-1.38,0-.93,.29-1.5,1.21-1.83,2.07-.76,1.96-.73,4.22,.22,6.11,.57,1.12,1.36,2.08,2.51,2.63,.51,.24,1.23,.58,1.8,.45,.05-.58,.28-1.21,.4-1.76,.19-.86,.31-1.71,.42-2.6,.22-1.73,.51-3.55,.17-5.1Z"/><path class="k" d="M181.06,60.46c-.41,.22-.78,.5-1.09,.83,.07,.43-.04,.95,0,1.4,.05,.51,.17,1.06,.36,1.53,.32,.77,.93,1.74,1.87,1.66,.64-.06,.78-.37,.71-1.02-.05-.41-.1-.77-.25-1.16s-.34-.73-.48-1.1c-.19-.51-.33-1.01-.68-1.45-.15-.19-.29-.34-.52-.4-.11-.03-.34-.09,.08-.3Z"/><path class="l" d="M134.98,81.94c-2.06,1.19-4.34,3.43-5.95,5.57-1.67,2.22-2.22,4.71-2.69,7.45-1.1,6.36-.94,12.94,.47,19.25,.31,1.41,.7,2.82,1.43,4.07,.51,.88,1.19,1.65,1.9,2.37,2.61,2.65,6,4.78,9.71,4.93,3.32,.13,6.49-1.33,9.37-2.99,1.26-.73,2.5-1.51,3.58-2.49,3.5-3.2,4.83-8.1,5.63-12.77,.33-1.91,.59-3.84,.52-5.78-.18-5.38-2.93-10.4-6.51-14.43-2.29-2.57-4.87-5.67-8.12-6.79-3.25-1.12-6.19-.02-7.46,.64-.34,.18-1.88,.98-1.88,.98Z"/><path class="j" d="M156.78,93.45c.02,.36,.46,1.78,.35,2.13-.08,4.07-1.37,7.52-3.98,10.75-2.88,3.57-6.41,6.71-10.6,8.58-4.19,1.88-9.63,1.94-13.2,.45-.46-.15-.69-.25-1.14-.5-.79-.57-1.28-.92-1.53-1.14"/><path class="i" d="M157.83,98.76c-.88,5.38-5.05,9.63-9.54,12.7-1.75,1.2-3.66,2.36-4.72,4.2-1.06,1.84-.85,4.62,1.03,5.61,.81,.42,1.78,.44,2.67,.27,3.02-.57,5.32-3.03,7.06-5.57,3.18-4.63,5.3-10.59,3.5-17.22Z"/><path class="l" d="M93,95.95c-3.11,.35-7.12,3.58-8.81,6.21-1.69,2.63-2.43,5.78-2.67,8.89-.38,4.8,.36,9.68,2.12,14.15,.64,1.63,1.43,3.21,2.48,4.61,3.98,5.31,11.73,7.17,17.91,4.77,6.19-2.4,10.54-8.61,11.29-15.2,.74-6.59-1.92-13.36-6.53-18.13-2.07-2.14-4.59-3.95-7.49-4.61-3.13-.71-5.11-1.06-8.29-.69Z"/><path class="i" d="M115.31,118.19c-.53,.68-8.43,7.66-12.82,8.63-1.9,.42-3.91,.83-5.39,2.1-1.48,1.27-2.16,3.71-.88,5.18,.83,.95,2.19,1.21,3.45,1.19,3.8-.07,7.24-2.38,9.7-5.28,1.45-1.72,5.1-9.68,5.22-10.29,.1-.08,.15,.25,.24,.18-.01-.05,.84-2.17,.48-1.71Z"/><path class="j" d="M81.77,119.52c4.09,3.8,10.72,7.13,16.3,7.27,5.59,.14,11.8-1.21,15.48-5.41,.57-.65,2.01-3.39,1.88-3.72-.01-.05-.25,.07-.26,.01"/><path class="l" d="M118.5,121.48c.11,6.59-.06,13.18-.52,19.76-.22,3.1-.48,6.3,.51,9.24,.99,2.95,3.61,5.6,6.71,5.56,2.86-.04,5.29-2.35,6.33-5.01,1.04-2.66,.97-5.61,.78-8.46-.4-6.16-1.24-12.29-2.22-18.37l.08-.02"/><path class="l" d="M85.19,155.14c-.41,2.12,3.59,15.92,9.45,21.51,6.01,5.73,14.41,8.7,22.71,8.64,2.69-.02,5.4-.35,7.91-1.31,3.04-1.17,11.24-4.76,13.3-7.28,6.69-8.18,9.55-14.11,12.07-24.32,.62-2.52,.98-6.63,.74-9.21-3.09,4.57-8.5,6.5-13.62,8.56-5.12,2.06-9.65,3.27-15.15,3.71-10.06,.8-16.98,2.29-27.82,1.66-2.81-.16-6.05-.52-8.69-1.55l-.9-.4Z"/><path class="j" d="M86.2,156.89c3.16,1.62,6.63,2.57,10.1,3.34,6.89,1.51,13.99,2.33,21.02,1.67,12.64-1.19,24.76-7.34,33.14-16.87l.22-.02"/><path class="j" d="M150.55,147.11c-3.53,11.49-11.51,22.33-22.96,26.01-3.24,1.04-6.64,1.49-10.02,1.91-3.17,.4-6.4,.79-9.55,.28-4.38-.7-8.29-3.06-12.06-5.39-2.44-1.5-4.92-3.03-6.82-5.17-1.91-2.14-3.21-5-2.82-7.83"/><path class="j" d="M140.27,154.72c.23,2.55,1.1,5.04,2.52,7.16"/><path class="j" d="M128.84,159.78c-.09,4.09,.06,8.19,.46,12.26"/><path class="j" d="M111.99,162.8c.19,3.97,.53,7.93,1.01,11.87"/><path class="j" d="M97.43,161.11l1.82,10.57"/><path class="h" d="M105.63,46.52c-.14-1.16-.04-2.36-.34-3.49s-1.18-2.24-2.35-2.3c-.86-.05-1.67,.5-2.17,1.21-.5,.71-.73,1.56-.93,2.4-1.44,5.91-1.87,12.08-3.97,17.79-.59,1.61-1.27,3.54-.24,4.9,.58,.77,1.58,1.11,2.55,1.15s1.91-.19,2.86-.36c2.38-.44,4.83-.53,7.23-.28l-2.26,11.62c-.39,2.02-.79,4.05-1,6.1-.13,1.22-.18,2.49,.31,3.61,.49,1.12,1.69,2.02,2.89,1.78,.87-.17,1.56-.89,1.92-1.71,.36-.81,.46-1.71,.55-2.6,1.25-11.8,3.31-23.51,6.15-35.03,.62-2.52,1.29-5.06,1.35-7.66,.03-1.31-.37-2.96-1.66-3.18-.96-.17-1.83,.61-2.37,1.42-1.08,1.64-1.47,3.63-1.83,5.56-.98,5.32-1.83,10.66-2.71,16,.35-1.36,.6-2.74,.7-4.17-2.51,.85-5.1,1.45-7.72,1.78,2.25-4.69,3.58-10.03,3.05-14.54Z"/><path class="h" d="M135.54,39.54c-4.39-.09-8.66,3-9.95,7.2-1.29,4.2,.51,9.15,4.2,11.55-3.03,1.58-5.59,4.23-6.55,7.51-1.23,4.17,.49,9.03,4.06,11.51,3.57,2.48,8.72,2.39,12.2-.22,1.81-1.35,3.13-3.25,4.32-5.17,1.09-1.74,2.12-3.57,2.54-5.59,.85-4.08-1.22-8.59-4.85-10.61,2.21-2.74,2.83-6.67,1.56-9.96-1.26-3.28-4.33-6.16-7.52-6.22Z"/><path d="M134.13,45.48c-.81-.2-1.71,.04-2.32,.61-.31,.29-.54,.66-.73,1.04-.57,1.12-.85,2.46-.43,3.65,.38,1.07,1.3,1.91,2.37,2.31,1,.38,2.17,.39,3.13-.09,.74-.37,1.33-1.01,1.73-1.74,.76-1.38,.85-3.19-.02-4.51s-2.75-1.96-3.74-1.27Z"/><path d="M135.15,61.48c-2.42,.18-4.76,1.55-5.95,3.66-1.19,2.11-1.11,4.93,.34,6.87,1.12,1.49,2.96,2.39,4.83,2.48,2.36,.12,4.75-1.05,6.06-3.02,1.31-1.96,1.47-4.65,.34-6.73-1.12-2.07-3.5-3.42-5.62-3.26Z"/></g></g></g></g></svg>