<?xml version="1.0" encoding="UTF-8"?><svg xmlns="http://www.w3.org/2000/svg" viewBox="0 0 181.4 244.36"><defs><style>.d,.e{fill:#fff;}.f,.e,.g,.h,.i{stroke-miterlimit:10;stroke-width:.5px;}.f,.e,.g,.i{stroke:#000;}.g{fill:#c9c9c9;}.j{fill:#f5eee8;}.h{stroke:#fff;}.h,.i{fill:none;}</style></defs><g id="a"/><g id="b"><g id="c"><rect class="j" width="181.4" height="244.36" rx="14.95" ry="14.95"/><path d="M51.19,232.07c-3.16,1.2-6.79,.23-9.28-2.48,3.84,.1,7.16-3.57,9.01-7.77s2.64-8.99,4.02-13.46c4.59-14.82,15.56-25.57,19.74-40.57,3-10.74,2.08-23.08-2.46-32.95-2.59-5.63-6.32-10.59-7.67-16.85-1.54-7.14,.34-14.9,3.68-21.01,3.34-6.11,8.02-10.85,12.66-15.44,5.66-5.59,11.54-11.2,18.46-13.75,6.92-2.54,15.17-1.39,20.14,5.15,5.3,6.98,5.53,17.82,9.36,26.16,2.97,6.48,8.08,11.36,10.12,18.37,2.1,7.22,.55,15.18-.51,22.75-1.07,7.57-1.43,16.15,2.44,22.12,2.66,4.1,6.89,6.2,9.65,10.2,2.39,3.46,3.6,8.21,6.53,10.94,3.63,3.39,9.19,3,12.05,7.39,3.47,5.33,.45,13.15,.45,20.02,0,6.9,3.62,13.59,8.75,16.16-5.74,6.43-14.41,6.36-22.02,4.76-7.61-1.6-15.41-4.35-22.89-2.01-4.87,1.53-9.31,5.16-14.31,5.73-7.88,.9-15-5.91-22.84-7.23-7.98-1.34-15.74,3.08-23.47,5.88-7.73,2.8-17.09,3.54-21.62-2.12Z"/><path class="h" d="M121.68,201.54c-4.62-3.38-7.57-8.68-9.27-14.18-1.7-5.5-2.29-11.28-3.09-16.99-2.33-16.68-6.51-33.67-11.4-49.77"/><path class="h" d="M125.26,92.92c-3-2.49-7.51-2.45-10.99-.73-3.48,1.73-6.08,4.87-8.16,8.18-2.76,4.39-4.79,9.25-5.97,14.31-.6,2.56-1.15,5.44-3.28,6.96-1.44,1.03-3.35,1.19-5.08,.82s-3.32-1.19-4.88-2.01c-2.97-1.55-6.19-3.39-7.26-6.59-.76-2.28-.34-5.04-1.89-6.87-1.32-1.55-3.74-1.8-5.59-.94s-3.15,2.59-4.01,4.45c.92-13.99,9.48-27.21,21.79-33.68,5.19-2.73,11.41-4.28,16.89-2.23,3.61,1.35,6.5,4.1,9.21,6.86,3.51,3.58,6.9,7.29,10.15,11.12-.43,.22-.84,.42-.93,.34Z"/><path class="h" d="M86.94,143.11c4.72,14.06,1.36,30.58-8.47,41.62"/><path class="h" d="M81.22,149.03c.56,8.26-3.16,16.69-9.61,21.78-2.51,1.98-5.42,3.51-7.4,6.02-1.98,2.51-2.66,6.53-.4,8.78"/><path class="h" d="M126.33,119.02c-.83,8.99-1.12,18.18,1.03,26.95,2.15,8.77,6.98,17.16,14.56,21.96"/><path class="h" d="M132.37,125.03c-1.34,11.78,3.73,24.1,12.94,31.44,5.3,4.23,12.09,7.18,15.16,13.26"/><path class="h" d="M95.07,97.12c-.25,8.23,1.2,16.25,2.86,23.47-.7-1.59-2.6-2.57-3.94-3.65-1.34-1.08-2.78-2.07-3.92-3.37-1.14-1.3-1.96-3-1.78-4.73"/><path d="M138.81,85.76c.23,5.07-.76,10.3-3.53,14.54s-7.44,7.33-12.46,7.46c-7.04,.18-13.29-5.53-15.58-12.26s-1.3-14.18,.76-20.99c2.67-8.82,7.06-17,11.42-25.1l14.05-26.15c2.07-3.86,4.86-8.2,9.19-8.49,2.98-.2,5.75,1.71,7.58,4.08,3.77,4.88,4.42,11.62,3.27,17.7-1.15,6.08-3.88,11.71-6.36,17.37-4.84,11.07-8.75,22.89-8.34,31.85Z"/><path class="h" d="M115.12,80.64c.36-4.34,3.79-7.74,7.31-10.25,3.51-2.52,7.45-4.71,9.81-8.35,2.24-3.46,2.73-7.76,2.76-11.89s-.34-8.3,.4-12.36c1.02-5.59,4.08-10.55,7.08-15.37"/><path d="M31.7,69.76c4.45,4.68,15.52,5.37,19.36,10.58,6.52,8.86,4.74,21.53,9.53,31.45,2.3,4.77,6.41,8.91,11.57,10.01,5.16,1.09,11.25-1.63,12.91-6.69,1.2-3.66,.02-7.66-1.69-11.08-1.71-3.42-3.97-6.59-5.11-10.25-2.19-7.05-.06-15.34-3.86-21.65-3.28-5.46-9.98-7.66-16.22-8.88s-10.35-2.28-12.97-5.54-6.01-6.3-10.17-6.71-7.81,14.09-3.36,18.77Z"/><path class="h" d="M76.87,110.01c-3.92-1.31-6.44-5.27-7.43-9.32s-.78-8.28-1.03-12.44-1.06-8.51-3.71-11.69c-2.54-3.05-6.44-4.63-10.31-5.48-3.87-.86-5.5,.3-9.34-.7-8.61-2.24-10.98-4.01-14.87-12.04"/><path class="e" d="M83.47,70.54c-4.56-.45-8.9,2.94-10.67,7.19s-1.38,9.13-.14,13.57l-4.21-5.7c1.54,4.86,3.42,9.61,5.62,14.2,.41,.86,.84,1.72,1.5,2.4,.63,.64,1.42,1.07,2.13,1.61,1.68,1.28,2.87,3.2,3.27,5.29,.27,1.43,.19,2.96,.86,4.25,.83,1.61,2.74,2.5,4.55,2.37,1.8-.12,3.47-1.14,4.67-2.49,1.21-1.35,2-3.03,2.62-4.74,1.84-5.1,2.23-10.72,1.12-16.03,1.71-.93,2.5-3.04,2.45-4.99s-.78-3.81-1.46-5.64-1.33-3.74-1.2-5.68c-.63,1.51-.91,3.17-.79,4.81-.14-2.79-1.37-5.5-3.38-7.44-2-1.93-4.75-3.06-6.95-2.99Z"/><path class="i" d="M88.86,89.43c-.23-.06-.48-.11-.72-.07s-.47,.17-.58,.39-.06,.52,.15,.65c.24,.15,.55,.03,.81-.06,.34-.12,.73-.17,1.06-.03s.58,.54,.44,.88c-.12,.31-.49,.45-.81,.52-.27,.06-.55,.11-.83,.08s-.56-.15-.73-.38"/><path class="i" d="M87.6,89.12c.56,1.01,1.02,2.08,1.35,3.19"/><path class="i" d="M88.26,88.89c.54,.93,.95,1.93,1.21,2.98"/><path class="i" d="M76.3,93.34c.44,.85,.79,1.76,1.03,2.69"/><path class="i" d="M76.87,93.16c.4,.8,.73,1.63,.98,2.49"/><path class="i" d="M77.55,93.35c-.42-.02-.85,.15-1.13,.46-.09,.1-.17,.22-.19,.35s.04,.28,.16,.34c.13,.06,.28,0,.4-.05,.2-.09,.4-.2,.62-.25s.46-.06,.65,.05,.33,.34,.28,.56c-.06,.25-.31,.39-.56,.47-.41,.14-.9,.16-1.21-.14"/><path class="i" d="M81.73,105.59c-.19,.18-.34,.39-.42,.64s-.05,.53,.1,.74,.43,.33,.67,.26"/><path class="f" d="M90.62,102.37c-.44-.27-1-.29-1.51-.17s-.97,.37-1.42,.61l-5.41,2.89c-.16,.09-.32,.17-.43,.32s-.15,.36-.05,.51c.11,.16,.34,.19,.54,.19,2.46,.04,4.92-.63,7.04-1.89,.46-.28,.93-.6,1.18-1.08s.32-1.23,.06-1.38Z"/><path class="e" d="M89.19,107.26c-.8-1.26-1.49-2.58-2.08-3.94,.47-.41,1.04-.7,1.64-.85,0,1.59,.12,3.18,.44,4.8Z"/><path class="e" d="M84.63,104.7c-.24,.35-.89,.28-1.01,.69-.04,.14,0,.3,.06,.43,.39,1.05,1.04,2.01,1.87,2.76-.35-1.28-.63-2.58-.92-3.88Z"/><path class="g" d="M81.44,89.48c-.08-.12-.2-.33-.35-.32,.35,4.19,1.27,8.51,3.18,12.26,.21,.42,.44,.83,.78,1.15s.82,.52,1.27,.42c.68-.15,1.08-.93,1.04-1.63s-.4-1.34-.75-1.95c-1.89-3.33-3.23-6.77-5.18-9.92Z"/><path d="M72.94,74.9c-1.29-.73-2.76-1.13-4.24-1.17,1.2,.45,2.33,1.1,3.3,1.93-2.57,1.2-3.98,4.44-3.13,7.15,.31-2.24,1.85-4.26,3.92-5.15-1.37,1.61-1.78,3.99-1.04,5.98,.36-2.27,1.51-4.4,3.19-5.96,.89,.8,1.33,2.07,1.12,3.25,.86-1.71,1.08-3.74,.6-5.6,1.35,.38,2.48,1.44,2.95,2.76,.32-1.47-.33-3.11-1.56-3.97,1.97-.66,4.19-.52,6.05,.39s3.35,2.58,4.05,4.55c.02-2.52-1.65-4.97-4-5.85,2.19,.53,4.18,1.87,5.51,3.71-.27-1.89-1.29-3.67-2.78-4.86,2.63,.57,4.94,2.49,5.99,4.98,.08-2.04-.9-4.08-2.53-5.3,1.68,.1,3.31,.9,4.43,2.16-.07-1.67-1.41-3.07-2.95-3.68s-3.26-.56-4.91-.4c1.41-1.46,3.78-1.87,5.59-.97-1.18-1.34-2.86-2.23-4.63-2.44-1.77-.21-3.61,.25-5.07,1.28,1.11-1.68,3.06-2.75,5.06-2.79-1.65-.62-3.56-.51-5.13,.29-1.57,.8-2.79,2.28-3.28,3.98-.73-1.18-.62-2.74-.02-3.99s1.65-2.23,2.75-3.07c-2.15,.38-4.13,1.62-5.42,3.39-1.29,1.77-1.87,4.04-1.59,6.22-.95-1.94-.8-4.38,.38-6.19-1.36,1.19-2.56,2.62-3.18,4.33s-.6,3.7,.56,5.02Z"/><path d="M82.75,87.14c.59,.41,1.08,.97,1.39,1.63,1.98-.57,3.71-1.98,4.67-3.8s1.16-4.06,.52-6.02l-.04,.66-.2-.75c.04,.33,.09,1.1,.03,.63-.07-.64-.13-.35-.39-1.11,.62,2.06,.17,4.58-1.16,6.26l.08-.97-.78,1.54c-.05-.54,.06-1.1,.32-1.58-.2,.72-.5,1.41-.89,2.05l.04-.84-.56,1.18,.08-.74-.36,.89,.06-.67-.66,.97,.22-.58-.5,.89-.04-.46-.31,.77-.67-.58,.02,.5-.28-.3,.26,.62-.46-.38,.22,.42-.49-.45,.53,.62c-.16-.1-.32-.19-.65-.39Z"/><path d="M79.72,88.07c.25,.66-.25,1.42-.9,1.68s-1.4,.11-2.06-.1c-2.83-.92-5.13-3.31-5.96-6.18l.98,1.6-.47-.92c.72,1.27,1.73,2.37,2.93,3.19l-.71-.99,.66,.59-.31-.41,1.99,1.48-.49-.64c.26,.35,.64,.61,1.05,.74l-.22-.3,.61,.33-.1-.38,.3,.28-.05-.27,.41,.52-.11-.57,.45,.62c.01-.22-.06-.45-.2-.62l.52,.74-.12-.73,.27,.6v-.56l.24,.37,.04-.49,.15,.3-.05-.71,.49,.93-.05-.52,.21,.55,.07-.4,.12,.34,.03-.8c.12,.37,.24,.75,.29,.72Z"/><path d="M94.03,95.48c.13,1.06-.73,1.94-1.28,2.85-1.24,2.02-1.01,4.83,.54,6.62-1.32-1.9-1.37-4.61-.11-6.55,.27-.42,.6-.81,.82-1.27s.3-1.01,.03-1.65Z"/><path d="M90.12,101.71c.84,.33,1.41,1.23,1.36,2.14,.17-.45,.12-.98-.13-1.39s-.7-.69-1.23-.75Z"/><path d="M90.57,101.29c.51,.45,.95,.97,1.3,1.55-.13-.7-.62-1.31-1.3-1.55Z"/><path d="M93.99,91.41c-1.32-1.08-1.76-2.95-1.59-4.65s.84-3.3,1.38-4.92,.99-3.35,.66-5.03c.52,1.44,.35,3.05,0,4.54s-.89,2.95-1.1,4.47c-.25,1.81-.02,3.68,.65,5.59Z"/><path d="M95.03,79.87c.21,1.29-.08,2.6-.43,3.86s-.77,2.51-.84,3.81,.26,2.7,1.21,3.59c-.76-1.05-.93-2.42-.81-3.71s.52-2.53,.8-3.8,.44-2.6,.07-3.74Z"/><path d="M95.01,84.57c.21,.48,.13,1.05-.1,1.53s-.57,.88-.92,1.28c.21-.14,.42-.29,.67-.33s.54,.06,.64,.29c.09,.22,0,.47-.1,.69l-.81,1.83c.54-.64,1.05-1.34,1.24-2.16,.06-.27,.08-.58-.07-.82s-.52-.35-.72-.15c.29-.46,.48-.97,.58-1.51,.03-.18,.05-.38-.04-.53s-.34-.22-.39-.11Z"/><path d="M92.13,89.56c-.42-.91-1.1-1.73-1.99-2.19s-1.99-.56-2.9-.14c-.81,.37-1.4,1.11-1.76,1.93s-.48,1.72-.54,2.61c.27-.99,.55-2,1.11-2.86s1.47-1.55,2.5-1.59c.71-.02,1.41,.27,1.99,.7s1.05,.97,1.59,1.54Z"/><path d="M89.93,88.11c-.54-.5-1.35-.64-2.06-.44s-1.3,.7-1.71,1.32-.64,1.33-.77,2.05c.32-.97,.83-1.92,1.64-2.55s1.94-.89,2.9-.38Z"/><path d="M92.18,90.04c-.44,1.07-.97,2.16-1.87,2.88s-2.25,.99-3.21,.35c.6,.55,1.49,.72,2.28,.51s1.45-.76,1.91-1.43,.71-1.47,.9-2.3Z"/><path d="M92.83,89.92c-.53,.33-.76,.97-.88,1.58s-.18,1.26-.49,1.79c-.57,.97-1.86,1.3-2.96,1.08-1.1-.23-2.05-.89-2.96-1.54,.87,.8,1.81,1.6,2.96,1.89s2.54-.08,3.08-1.13c.29-.55,.3-1.2,.37-1.82s.2-1.28,.89-1.85Z"/><path d="M88.66,94.97c-.43,.12-.9-.03-1.27-.28s-.68-.59-1-.91-.67-.62-1.1-.76c.46,.17,.8,.55,1.11,.94s.6,.8,1.02,1.05,1.01,.3,1.25-.04Z"/><path d="M81.03,94.04c-.4-.92-.92-1.81-1.68-2.47s-1.79-1.04-2.77-.85c-.96,.18-1.76,.9-2.22,1.76s-.61,1.87-.6,2.85c.13-1.01,.48-2,1.12-2.79s1.6-1.33,2.61-1.36,2.04,.52,2.49,1.43c-.61-.7-1.51-1.14-2.43-1.19,.76,.22,1.48,.59,2.1,1.08-.71-.43-1.53-.67-2.36-.7l2.26,.9c-1.17-.75-2.78-.73-3.92,.06s-1.76,2.28-1.49,3.65c.07-1.55,1.14-3,2.58-3.52s3.19-.08,4.32,1.15Z"/><path d="M76.73,91.71c-1.54,.49-2.71,1.97-2.83,3.58-.03-.83,.24-1.67,.74-2.32s1.24-1.13,2.09-1.26Z"/><path d="M81.3,94.49c-.71,.18-1.12,.92-1.33,1.62s-.32,1.47-.77,2.04c-.59,.74-1.66,.98-2.57,.74s-1.67-.89-2.25-1.64c.71,.43,1.43,.86,2.24,1.04s1.73,.05,2.32-.53c.5-.49,.69-1.2,.96-1.84s.72-1.3,1.4-1.43Z"/><path d="M79.9,95.79c-.48,.81-1.31,1.4-2.23,1.59-.92,.19-1.91-.04-2.67-.6,1.69,.67,3.76,.2,4.89-.99Z"/><path d="M83.22,85.02c-.23,.26-.52,.46-.8,.68s-.55,.44-.74,.73-.28,.67-.16,1,.48,.58,.82,.5c-.26-.26-.54-.57-.54-.94,0-.38,.3-.69,.59-.94s.61-.51,.84-1.04Z"/><path d="M80.91,86.52c0-.75-.51-1.48-1.21-1.73,.42,.39,.71,.92,.83,1.49,.02,.09,.03,.19,.09,.26s.15,.13,.24,.09,.1-.18,.07-.12Z"/><path d="M80.32,88.38c.33-.35,.51-.93,.21-1.32-.22-.28-.6-.35-.95-.4l-.69-.1c.04,.23,.31,.33,.54,.33s.48-.03,.67,.11c.22,.16,.25,.47,.26,.75,0,.2,.01,.4-.04,.63Z"/><path d="M93.58,79.16c-.1,1.46-.47,2.91-1.1,4.23,.68-1.06,1.14-2.26,1.35-3.51,.02-.14,.04-.29,0-.43s-.2-.24-.24-.3Z"/><path d="M93.07,78.14c.16,1.27-.12,2.59-.77,3.69,.16-.61,.46-1.16,.67-1.75s.33-1.25,.09-1.94Z"/><path d="M92.69,77.31c.02,1.23-.35,2.47-1.04,3.49,.49-1.14,.75-2.38,.77-3.62,.13-.02,.27,.07,.27,.13Z"/><path d="M92.08,76.58c.03,.96-.3,1.94-.93,2.67,.43-.88,.67-1.86,.69-2.84,.18,.04,.32,.24,.23,.16Z"/><path d="M92.2,89.7c-.61-.55-1.27-1.05-2.03-1.35s-1.64-.37-2.39-.05c-.52,.22-.96,.62-1.31,1.07s-.62,.96-.89,1.46c-.22,.42-.45,.9-.3,1.36,.11,.34,.42,.58,.74,.74,1.15,.59,2.6,.45,3.72-.2s1.94-1.75,2.43-2.95c-.4,.13-.62,.54-.85,.9-.56,.9-1.39,1.66-2.39,2.03s-2.16,.3-3.06-.27c-.2-.13-.39-.3-.43-.53-.03-.18,.05-.35,.13-.52,.44-.91,1-1.78,1.82-2.37s1.93-.83,2.84-.41c.68,.31,1.19,.95,1.96,1.09Z"/><path d="M85.12,91.67c.04,.16,0,.34-.08,.48-.05,.08-.12,.14-.17,.22s-.06,.19,0,.26c.07,.1,.23,.08,.35,.06l.61-.13c-.1-.12-.28-.18-.43-.15-.08,.02-.18,.05-.24-.01-.04-.04-.04-.1-.02-.14s.05-.09,.08-.13c.07-.1,.13-.21,.17-.33,.02-.05,.03-.11,0-.15-.04-.07-.16-.06-.21,0s-.06,.15-.05,.02Z"/><path d="M80.67,94c-.61,1.15-1.68,2.05-2.92,2.45s-2.63,.3-3.79-.28c-.06,.17,.12,.31,.28,.39,1.09,.52,2.38,.54,3.55,.22,.67-.18,1.32-.48,1.85-.95,.31-.28,.57-.61,.83-.94l.49-.63c.04-.05,.08-.1,.11-.17,.04-.11,.02-.24-.06-.33s-.23-.1-.32-.02-.1,.23-.02,.26Z"/><path class="i" d="M79.67,99.07v1.86"/><path class="i" d="M78.47,99.43l-.08,1.92"/><path class="i" d="M77.55,99.46l-.06,2.11"/><path class="i" d="M88.18,95.72l-.08,2.12"/><path class="i" d="M89.14,95.67c.07,.7,.05,1.42-.08,2.12"/><path class="i" d="M90.4,95.48c-.02,.73-.12,1.45-.31,2.15"/><path class="i" d="M87.8,101.02l.43,.91"/><path class="i" d="M88.97,100.78l.38,.83"/><path class="i" d="M89.91,100.57l.39,.6"/><path class="i" d="M90.73,100.33l.36,.64"/><path class="i" d="M84.41,103.08l.32,.85"/><path class="i" d="M83.32,103.52l.42,.98"/><path class="i" d="M82.4,103.97l.12,.97"/><path class="i" d="M81.42,104.53l-.13,.8"/><path class="i" d="M82.34,108.4v1.11"/><path class="i" d="M83.68,108.31l.17,1.22"/><path class="i" d="M82.37,110.43l.09,.94"/><path class="i" d="M83.79,110.21l-.07,1.24"/><path class="i" d="M82.92,112.04l.11,1.15"/><path class="i" d="M84.28,113.59l.12,.83"/><path class="i" d="M84.98,112.64v.89"/><path class="i" d="M86.07,112.14l.09,1.15"/><path class="i" d="M86.07,113.98l.09,.74"/><path class="i" d="M85.25,110.43l.06,.95"/><path class="i" d="M86.14,110.24l.03,.86"/><path class="i" d="M86.12,108.58l.16,.89"/><path class="i" d="M87.68,108.37l.18,1"/><path class="i" d="M87.74,107.16l.1,.72"/><path class="i" d="M88.89,109.2l.26,1.14"/><path class="i" d="M87.6,110.47l-.04,.74"/><path class="i" d="M88.69,111.05l.12,1.1"/><path class="i" d="M87.39,112.56l.06,1"/><path class="i" d="M88.42,113.19v.7"/><path class="i" d="M90.41,110.57l.1,.91"/><path class="i" d="M90.16,108.99l.25,.8"/><path class="i" d="M90.31,107.38l.35,.89"/><path class="i" d="M90.89,107.07l.34,.79"/><path class="i" d="M90.76,105.7l.27,.6"/><path class="i" d="M91.76,108.58l.32,.8"/><path class="i" d="M91.31,109.48l.32,.99"/><path class="i" d="M92.73,107.41l.31,.83"/><path class="i" d="M92.24,105.97l.29,.84"/><path class="i" d="M91.96,104.18l.43,.76"/><path class="i" d="M93.07,105.68l.35,.94"/><path class="i" d="M93.88,104.82l.3,.86"/><path class="i" d="M94.2,103.73l.38,.75"/><path class="i" d="M72.68,91.24c.35,3.12,.93,6.21,1.74,9.23"/><path class="d" d="M39.28,56.15c.53,2.16-.78,4.46-2.63,5.71s-4.12,1.63-6.33,1.84c-2.21,.21-4.46,.29-6.55,1.03-4.58,1.62-7.56,6.02-11.51,8.88-.75,.54-2.11,.84-2.33-.06-.12-.48,.24-.93,.57-1.29,4.35-4.66,9.46-8.6,15.07-11.61-3.93-.18-7.69,1.64-11.04,3.74s-6.57,4.54-10.3,5.83c5.5-6.41,12.97-11.1,21.09-13.24-4.08-.93-8.35,.46-12.1,2.36-3.75,1.9-7.27,4.33-11.23,5.71,6.02-6.36,14.19-10.61,22.8-11.86-5.27-.28-10.63,1.02-15.21,3.7-.43,.25-.87,.52-1.36,.56s-1.04-.23-1.14-.72c-.12-.61,.49-1.1,1.03-1.41,7.11-4.05,15.59-5.57,23.61-4.24,1.72,.29,3.45,.71,4.92,1.64s2.39,2.47,2.63,3.42Z"/><path class="i" d="M40.11,56.55c-.16,2.05-1.58,3.86-3.32,4.95-1.74,1.09-3.79,1.57-5.81,1.91-2.02,.34-4.07,.55-6.02,1.19-5.19,1.7-8.98,6.12-13.5,9.23-.39,.27-.99,.51-1.28,.13-.26-.35,.05-.84,.35-1.16,1.75-1.85,3.72-3.47,5.7-5.08,3.51-2.87,7.16-5.81,11.1-7.43-4.11-.45-8.19,1.26-11.74,3.44-3.55,2.17-6.81,4.85-10.54,6.69-.23-.32-.18-.79,.02-1.14s.53-.61,.84-.85c2.96-2.3,6.01-4.48,9.13-6.54,3.48-2.29,7.34-4.51,11.01-4.88-4.95-1.08-10.32-.1-14.61,2.67-2.33,1.51-4.33,3.5-6.67,5-.29,.18-.69,.35-.94,.13-.33-.3,.02-.84,.36-1.14,3.06-2.67,6.33-5.14,9.94-6.98,3.61-1.84,7.6-3.03,11.56-3.17-5.98-.91-12.28,.32-17.52,3.41-.29,.17-.77,.3-.89-.02-.1-.24,.14-.48,.35-.63,5.17-3.75,11.76-4.85,18.11-5.1,4.03-.16,8.23,.02,11.78,1.9,.75,.4,1.48,.88,1.96,1.59s.63,1.67,.61,1.88Z"/><path class="i" d="M36.51,58.6c-1.84,.86-3.79,1.47-5.78,1.83"/><path class="i" d="M36.04,55.72c-2.37,.48-4.79,.76-7.2,.84"/><path class="i" d="M35.34,53.91c-1.79,.16-3.58,.18-5.37,.05"/><path class="d" d="M144.21,16.69c-1.46,1.68-1.35,4.33-.27,6.28,1.08,1.95,2.93,3.33,4.79,4.53s3.83,2.3,5.36,3.91c3.34,3.53,3.97,8.81,6.18,13.15,.42,.83,1.49,1.71,2.1,1.01,.32-.37,.21-.94,.08-1.41-1.74-6.13-4.49-11.97-8.1-17.21,3.58,1.63,6.09,4.97,8.12,8.37,2.03,3.4,3.77,7.04,6.5,9.89-1.97-8.22-6.47-15.8-12.72-21.41,4.05,1.04,7.21,4.22,9.68,7.63s4.49,7.17,7.38,10.21c-2.45-8.41-7.78-15.92-14.86-20.97,4.82,2.15,8.99,5.76,11.84,10.24,.27,.42,.53,.86,.95,1.12s1.03,.27,1.34-.12c.39-.49,.06-1.2-.28-1.72-4.48-6.85-11.32-12.08-19.07-14.56-1.66-.53-3.39-.94-5.12-.78-1.73,.16-3.26,1.11-3.9,1.84Z"/><path class="i" d="M143.29,16.67c-.79,1.9-.36,4.15,.69,5.92s2.65,3.13,4.3,4.35,3.37,2.35,4.81,3.81c3.84,3.89,5.2,9.55,7.79,14.38,.23,.42,.65,.9,1.08,.7,.39-.19,.34-.77,.22-1.19-.71-2.45-1.73-4.79-2.75-7.12-1.81-4.15-3.71-8.44-6.48-11.68,3.86,1.48,6.71,4.86,8.87,8.42,2.17,3.56,3.84,7.43,6.32,10.77,.36-.18,.52-.62,.5-1.02s-.19-.78-.36-1.14c-1.58-3.4-3.3-6.73-5.14-9.99-2.05-3.63-4.47-7.36-7.57-9.37,4.9,1.29,9.23,4.63,11.78,9.05,1.39,2.41,2.25,5.09,3.65,7.49,.17,.3,.45,.63,.78,.54,.43-.12,.37-.76,.2-1.18-1.51-3.77-3.28-7.46-5.66-10.75s-5.37-6.17-8.84-8.1c5.73,1.93,10.77,5.89,14.03,11.04,.18,.29,.54,.62,.8,.39,.19-.17,.1-.49-.02-.72-2.89-5.7-8.25-9.69-13.78-12.81-3.51-1.98-7.33-3.74-11.35-3.69-.85,.01-1.72,.11-2.47,.52s-1.32,1.2-1.4,1.39Z"/><path class="i" d="M157.81,34.27c-.12-.22-.36-.37-.61-.39s-.5,.08-.69,.24-.33,.39-.41,.63"/><path class="i" d="M156.65,35.54c.17,.22,.42,.37,.7,.4s.56-.09,.72-.32,.18-.55,.03-.78"/><path class="i" d="M157.93,34.6c-.21-.14-.47-.19-.71-.13s-.45,.22-.52,.62c.17,.13,.4,.17,.61,.1s.36-.25,.63-.6Z"/><path class="i" d="M161.63,33.65c-.14-.36,.04-.82,.39-.99s.82-.01,1,.33"/><path class="i" d="M162.01,33.88c.03-.17,.14-.32,.28-.41s.32-.12,.49-.08"/><path class="i" d="M161.99,34.21c.16,.16,.38,.27,.61,.29s.46-.07,.62-.24,.22-.42,.14-.64"/><path class="i" d="M161.98,33.76c.1,.19,.35,.29,.56,.22s.34-.31,.3-.52"/><path class="i" d="M170.63,39.07c.05,.39,.24,.75,.53,1.01,.16,.14,.37,.24,.56,.17,.26-.09,.33-.44,.3-.72-.06-.61-.34-1.17-.61-1.71-.07-.14-.14-.28-.24-.39s-.25-.2-.4-.19c-.25,0-.44,.25-.48,.5s.04,.5,.12,.74c.15,.47,.31,.96,.22,.6Z"/><path class="i" d="M168.03,42.6c-.1-.27-.21-.55-.42-.74s-.57-.25-.78-.06c-.23,.21-.18,.59-.08,.89,.2,.64,.51,1.24,.91,1.77,.11,.14,.24,.29,.41,.31,.18,.02,.35-.12,.42-.29s.06-.36,.04-.54c-.09-.67-.38-1.28-.5-1.34Z"/><path class="i" d="M162.13,44.57c-.13-.22-.2-.47-.31-.7s-.25-.46-.47-.59-.53-.12-.7,.06c-.17,.18-.17,.46-.12,.71,.12,.66,.45,1.28,.94,1.74,.09,.09,.21,.17,.33,.15,.18-.03,.24-.27,.25-.46,.01-.51-.06-1.02,.09-.9Z"/></g></g></svg>