<?xml version="1.0" encoding="UTF-8"?><svg xmlns="http://www.w3.org/2000/svg" viewBox="0 0 181.4 181.4"><defs><style>.d{fill:#fff;}.e{fill:#d3e3d6;}</style></defs><g id="a"/><g id="b"><g id="c"><rect class="e" width="181.4" height="181.4" rx="14.95" ry="14.95"/><g><path class="d" d="M74.99,63.57c-.52,.54-1.02,1.09-1.56,1.61-2.15,2.05-4.41,3.95-6.94,5.52-.15,.09-.33,.14-.5,.2,1.33-1.26,2.65-2.5,4.1-3.55,1.54-1.11,2.78-2.51,4.07-3.86,.42-.44,.82-.95,1.02-1.51,1.03-2.83,1.64-5.76,1.73-8.78,0-.26-.07-.52-.14-1.02-.57,.73-.95,1.29-1.4,1.78-1.67,1.84-3.21,3.79-5.27,5.26-1.4,1-2.58,2.3-3.87,3.47-.59,.53-1.23,1.01-1.77,1.59-1.49,1.62-2.97,3.23-4.21,5.07-1.11,1.66-1.77,3.46-2.34,5.32-.23,.75-.54,1.55-.49,2.31,.08,1.24-.41,1.98-1.29,2.81-2.28,2.16-4.35,4.55-6.1,7.16-1.79,2.66-3.75,5.22-5.23,8.09-.89,1.73-1.95,3.39-2.25,5.36-.11,.71-.23,1.43-.39,2.13-.4,1.76-.18,3.44,.61,5.06,.15,.3,.27,.63,.35,.83-.72,.27-1.41,.35-1.88,.73-.98,.79-1.92,1.67-2.73,2.62-2.28,2.67-4.23,5.59-5.9,8.68-.42,.78-.73,1.55-1.77,1.59-.13,0-.26,.12-.39,.17-1.97,.81-3.92,1.68-5.91,2.42-4.37,1.62-8.75,3.21-12.83,5.48-1.61,.9-3.19,1.86-4.41,3.28-1.55,1.81-3.14,3.59-4.64,5.43-.79,.96-1.13,2.1-.63,3.34,.71,1.78,1.75,3.29,3.59,4.11-.11,1.02-.21,2.06-.34,3.09-.05,.44,.07,.73,.47,.98,1.19,.74,2.33,1.58,3.54,2.29,2.63,1.53,5.45,2.67,8.36,3.54,2.49,.74,5.02,1.35,7.56,1.9,2.29,.5,4.56,1.05,6.89,1.38,4.09,.58,8.2,.69,12.31,1.03,.61,.05,1.23-.02,1.84,.02,.56,.04,1.12,.16,1.68,.24,1.35,.2,2.71,.57,4.05,.53,.96-.03,1.91-.58,2.85-.97,1.03-.43,2.03-.94,3.06-1.39,1.56-.68,3.11-1.36,4.69-1.98,1.02-.4,1.65-1.14,2.14-2.07,.42,.56,.75,1.13,1.2,1.58,3.89,3.84,10.33,2.82,13.55-.15,.13-.12,.24-.27,.35-.41,1.49-2,2.54-4.18,2.86-6.68,.04-.3,.14-.59,.2-.84,.51,0,.9,.08,1.25-.01,1.46-.41,2.9-.87,4.35-1.31,.28-.08,.62-.1,.81-.28,.36-.35,.76-.34,1.2-.33,1.09,.03,2.08-.26,2.92-.96,.55-.46,1.19-.64,1.87-.79,1.43-.32,2.87-.6,4.25-1.16,2.34-.95,4.73-1.77,7.09-2.67,6.46-2.45,13.13-4.19,19.85-5.78,.76-.18,1.49-.43,2.07-.97,.46,.19,.56,.48,.29,.86-.33,.47-.69,.92-1.05,1.38-.37,.49-.81,.93-1.11,1.46-.54,.97-.21,1.88,.8,2.32,.46,.2,.96,.32,1.45,.43,1.19,.26,2.38,.2,3.53-.17,1.75-.57,3.48-1.17,5.21-1.8,.41-.15,.87-.38,.74-1.04-2.27,.07-4.49,.58-6.72,.43-.18-.97,.39-1.47,.84-2.02,.38-.46,.88-.16,1.33-.16,2.09-.02,4.18-.04,6.16-.88,2.64-1.12,4.92-2.76,6.9-4.79,1.67-1.7,2.76-3.71,2.42-6.23l-.02,.02c.44-.11,.92-.14,1.33-.33,2.12-1.01,4.22-2.06,6.32-3.1,.16-.08,.42-.19,.43-.29,.03-.6,.53-.57,.9-.73,1.93-.87,3.35-2.25,4.06-4.26,.15-.43,.48-.97,.06-1.44-.45-.5-.93,.02-1.49,.08,0-.57,.03-1.11,0-1.65-.08-1.26-.15-2.52-.29-3.78-.13-1.18-.74-2.02-1.97-2.26-.74-.14-1.48-.29-2.23-.39-.84-.12-1.69-.2-2.67-.3,.52-.71,1.11-.91,1.72-.94,2.65-.12,5.01,.51,6.71,2.75,.63,.83,1.28,1.66,1.9,2.49,.26,.35,.51,.77,1.02,.66,.52-.11,.51-.62,.63-1.04,.2-.72,.15-1.41,.02-2.14-.26-1.45-.88-2.75-1.63-3.99-.94-1.54-2.16-2.79-3.92-3.41-.85-.3-1.68-.66-2.52-.99-1.14-.45-2.32-.82-3.42-1.37-2.41-1.2-4.11-3.11-5.32-5.51-.93-1.83-1.82-3.68-3.34-5.15-1.22-1.18-2.4-2.36-4.21-2.58,.74-2.75,.73-5.49,.19-8.19-.71-3.62-2.04-7.07-3.39-10.49-1.24-3.15-3.05-5.97-5.08-8.66-.83-1.09-1.59-2.26-2.54-3.23-.55-.55-.82-1.11-.99-1.82-.14-.59-.34-1.17-.6-1.71-.39-.85-.96-1.63-1.27-2.51-.75-2.13-2.2-3.78-3.58-5.49-.24-.3-.59-.5-.98-.83-.27,.4-.49,.72-.7,1.04-.85,1.25-1.69,2.51-2.56,3.75-.28,.4-.65,.73-1.26,.76,.64-.76,1.27-1.4,1.77-2.13,.52-.77,.93-1.63,1.37-2.46,.13-.25,.24-.53,.28-.81,.33-2.44-.15-4.6-2.17-6.22-.06-.05-.11-.09-.17-.14-1.14-.94-2.29-1.87-3.43-2.82-2.53-2.09-5-4.26-7.59-6.27-2.02-1.56-4.15-3-6.3-4.38-3.68-2.35-7.73-3.71-12.07-4.14-.78-.08-1.58-.03-2.36,.05-.89,.09-1.77,.33-2.67,.44-2.82,.33-5.5,1.18-8.1,2.27-.46,.19-.9,.47-1.3,.76-1.5,1.08-2.36,2.6-2.82,4.36-.2,.76-.29,1.54-.44,2.36-.34,0-.66,.02-.98,0-1.53-.1-2.83,.42-3.95,1.44-1.41,1.27-2.28,2.88-2.78,4.68-.14,.5-.23,1.16-.01,1.58,.26,.51,.27,.92,.17,1.42-.05,.26,0,.54,0,.75,.58,.1,1.15,.03,1.45,.28,1.01,.83,2.21,1.21,3.36,1.72,1.63,.72,3.29,1.06,5.11,.22l.28,1.25c-2.66-.12-3.31,.43-4.68,1.36-1.84,1.26-3.04,2.69-3.14,3.64,.82,.29,1.7,.4,2.62,1.08l-1.48-.26c1.28,1.22,2.27,2.37,3.81,2.78,1.61,.43,3.12,.07,4.62-.65,.68,5.09-.17,9.89-2.07,14.55l.04-.04Zm54.49,78.49l.3,.25,.44-.59-.24-.2-.49,.54Z"/><path d="M149.34,123.91c.34,2.52-.76,4.53-2.42,6.23-1.98,2.02-4.26,3.67-6.9,4.79-1.98,.84-4.07,.86-6.16,.88-.45,0-.95-.3-1.33,.16-.45,.55-1.02,1.05-.84,2.02,2.23,.14,4.45-.36,6.72-.43,.13,.66-.33,.89-.74,1.04-1.73,.63-3.46,1.23-5.21,1.8-1.15,.37-2.35,.43-3.53,.17-.49-.11-.99-.23-1.45-.43-1.01-.44-1.34-1.34-.8-2.32,.29-.53,.73-.98,1.11-1.46,.35-.46,.71-.91,1.05-1.38,.27-.38,.16-.67-.29-.86-.58,.54-1.31,.79-2.07,.97-6.71,1.59-13.39,3.32-19.85,5.78-2.36,.9-4.75,1.72-7.09,2.67-1.38,.56-2.82,.83-4.25,1.16-.68,.15-1.32,.33-1.87,.79-.84,.7-1.83,.99-2.92,.96-.43-.01-.83-.02-1.2,.33-.19,.18-.53,.2-.81,.28-1.45,.44-2.89,.9-4.35,1.31-.35,.1-.74,.01-1.25,.01-.06,.25-.16,.54-.2,.84-.33,2.5-1.37,4.68-2.86,6.68-.11,.14-.22,.29-.35,.41-3.22,2.97-9.66,3.99-13.55,.15-.45-.45-.79-1.02-1.2-1.58-.49,.92-1.12,1.67-2.14,2.07-1.58,.62-3.13,1.31-4.69,1.98-1.03,.45-2.02,.96-3.06,1.39-.93,.38-1.89,.94-2.85,.97-1.34,.04-2.7-.33-4.05-.53-.56-.08-1.12-.2-1.68-.24-.61-.04-1.23,.03-1.84-.02-4.1-.33-8.22-.44-12.31-1.03-2.33-.33-4.6-.89-6.89-1.38-2.54-.55-5.07-1.16-7.56-1.9-2.91-.86-5.73-2.01-8.36-3.54-1.21-.71-2.35-1.54-3.54-2.29-.4-.25-.53-.54-.47-.98,.13-1.03,.23-2.07,.34-3.09-1.84-.83-2.88-2.33-3.59-4.11-.5-1.24-.16-2.38,.63-3.34,1.51-1.84,3.09-3.63,4.64-5.43,1.22-1.42,2.81-2.39,4.41-3.28,4.08-2.28,8.46-3.87,12.83-5.48,2-.74,3.94-1.61,5.91-2.42,.13-.05,.26-.17,.39-.17,1.04-.04,1.35-.81,1.77-1.59,1.67-3.09,3.62-6,5.9-8.68,.82-.96,1.75-1.83,2.73-2.62,.46-.37,1.16-.46,1.88-.73-.09-.2-.2-.53-.35-.83-.79-1.62-1.02-3.3-.61-5.06,.16-.7,.28-1.42,.39-2.13,.31-1.98,1.37-3.63,2.25-5.36,1.47-2.87,3.43-5.43,5.23-8.09,1.76-2.61,3.83-5,6.1-7.16,.88-.84,1.38-1.57,1.29-2.81-.05-.76,.25-1.56,.49-2.31,.57-1.86,1.23-3.66,2.34-5.32,1.24-1.84,2.72-3.46,4.21-5.07,.53-.58,1.18-1.06,1.77-1.59,1.28-1.16,2.47-2.46,3.87-3.47,2.06-1.48,3.6-3.43,5.27-5.26,.45-.49,.83-1.05,1.4-1.78,.07,.5,.15,.76,.14,1.02-.09,3.02-.71,5.95-1.73,8.78-.2,.56-.61,1.07-1.02,1.51-1.29,1.36-2.52,2.75-4.07,3.86-1.46,1.05-2.77,2.29-4.1,3.55,.17-.07,.35-.11,.5-.2,2.53-1.57,4.79-3.47,6.94-5.52,.54-.52,1.04-1.07,1.56-1.61-.14,.52-.26,1.04-.41,1.55-.59,2,.02,4.44,1.48,5.4,.77,.51,1.64,.96,2.53,1.18,2.04,.51,4.14,.67,6.23,.36,1.21-.18,2.39-.59,3.6-.7,3.69-.32,6.87-1.91,9.83-3.95,1.78-1.22,3.41-2.67,4.98-4.15,.79-.75,1.45-1.74,1.88-2.74,1.46-3.47,2.5-7.06,3.09-10.79,.33-2.07,.6-4.14,.43-6.24-.02-.31,.01-.7-.15-.92-.38-.52-.28-.98-.07-1.47,1.79-.2,3.26-1.6,3.2-3.02-.34,.48-.65,.95-1,1.4-.96,1.2-2.71,1.22-3.54,.03-.68-.98-1-3.25,.13-4.35,.45-.44,.76-1.05,1.08-1.61,.43-.78,.49-1.56-.07-2.34-.77-1.09-1.45-2.25-2.28-3.29-1.51-1.89-3.26-3.47-5.72-4.05-1.41-.33-2.83-.74-4.26-.23-1.55,.56-3.03,1.27-4.03,2.69-.47,.68-1.02,1.33-1.41,2.05-.44,.82-.79,1.7-1.11,2.58-.33,.91-.56,1.85-.84,2.78l.03-.03-.57,2.25c-.31-.28-.61-.53-.88-.8-2-2.01-4.96-1.78-6.68-.75-1.79,1.07-3.02,2.65-4.02,4.42-.33,.58-.54,1.23-.89,2.04,.3-.18,.39-.23,.48-.29,.11-.08,.22-.18,.33-.26-.24,.59-.49,1.19-.73,1.78l.03-.03c-1.02-.39-2.06-.36-3.06,0-1.68,.62-2.93,1.81-4,3.2-.03,.04,.01,.13,.03,.28,1.14-.2,2.16,.15,3.19,.66,.52,.26,1.18,.39,1.77,.37,1.06-.04,2.16-.11,2.92-1l-.55-2.34c3.52,4.68,7.02,4.84,9.95,3.74,1.54-.58,2.58-1.7,3.43-3.02,.95-1.47,1.96-2.94,1.43-4.84-1.14-.72-2.26-1.52-3.47-2.16-1.44-.76-2.93-1.37-4.65-1.13-1.97,.28-3.49,1.29-4.76,2.75-.51,.59-1.04,1.18-1.56,1.77,.89-2.46,2.36-4.44,4.76-5.63,1.98-.98,3.83-.79,5.56,.6,.28,.23,.54,.48,.81,.71,1,.83,2,1.66,3.02,2.46,.18,.15,.45,.19,.68,.29l.11-.2-2.4-1.96c.47-.1,.82-.01,1.17,.01,1.51,.09,2.86,.69,4.21,1.31,.68,.31,.68,.76,.03,1.18-.36,.23-.76,.41-1.12,.65-1.38,.92-2.42,2.09-2.8,3.58,.76,.53,1.39,.97,2.01,1.42,.76,.56,1.47,1.17,2.25,1.69,.59,.4,1.22,.89,1.88,1,2.25,.36,4.63-.58,5.55-2.63,.41-.9,1.06-1.7,1.61-2.56-.93-.98-1.83-1.92-3.11-2.39l2.2,1.99-.66,.75,.61,.24c-.49,.85-.92,1.69-1.43,2.47-.27,.41-.61,.82-1,1.09-1.24,.86-2.66,1.14-4,.46-1.4-.72-2.73-1.62-3.94-2.63-.45-.37-.78-.92-1.39-1.14,.23-1.17,.99-1.87,1.79-2.56,1.97-1.69,4.23-2.05,6.68-1.37l.26-.5c.84-.09,1.6-.1,2.33-.27,1.13-.27,2.15-.82,3.08-1.54,.18-.14,.41-.21,.65-.32,.48,1.66,.54,3.43,2.4,4.33-.45,.79-.85,1.51-1.28,2.2-.23,.36-.52,.69-.8,1.02-.34,.4-.24,.69,.27,1.03l1.29-2.16c-.11,1.53-.42,2.81-1.14,3.96-.19,.3-.23,.52,.25,.71,1.01-.95,.76-2.47,1.46-3.68,.14,1.77,.08,3.41-.43,5.02-.47,0-.86,0-1.25,0,.05-.4,.28-.86-.34-1.03-1.43,.93-1.47,1.53-.19,2.27l.54-1.27,1.17,.41c.04,2.14-.93,4.05-1.23,6.02-.78-.22-1.42-.4-2.06-.57-.73-.8-1.46-1.6-2.24-2.45l-1.96,2.14c.6,1.12,1.17,2.17,1.81,3.35,.43-.55,.77-.93,1.04-1.35,.3-.47,.66-.51,1.11-.3,.38,.18,.74,.38,1.11,.57l.09-.16-1.74-1.06,.81-.76,1.73,.93c-.67,4.9-3.47,8.16-7.43,10.68-.41-1.09-1.03-1.99-2.03-2.57,1.13-1.1,1.23-1.11,3.04-.01-.34-.71-.94-.91-1.61-1.09l.73-.86c-.68-1.63-1.34-3.21-2.04-4.89l-2.66,1.6c.98,1.84,1.67,3.63,2.16,5.57,.98,.43,1.56,1.09,2.1,2.49-.82,.82-1.86,1.34-2.9,1.81-2.48,1.13-5.09,1.8-7.76,2.28-2.33,.42-4.65,.59-6.99,.17-1.82-.33-3.46-.95-4.62-2.51-.98-1.32-1.01-2.5,.02-3.69l-.46-.13c.07-.41,.5-.86-.06-1.29l-.63,.31c1.9-4.65,2.75-9.46,2.07-14.55-1.49,.72-3.01,1.07-4.62,.65-1.54-.41-2.53-1.56-3.81-2.78l1.48,.26c-.92-.67-1.81-.79-2.62-1.08,.1-.95,1.3-2.38,3.14-3.64,1.37-.94,2.02-1.48,4.68-1.36l-.28-1.25c-1.82,.84-3.48,.5-5.11-.22-1.15-.51-2.35-.89-3.36-1.72-.3-.25-.87-.18-1.45-.28,0-.21-.04-.49,0-.75,.1-.5,.09-.91-.17-1.42-.21-.42-.13-1.08,.01-1.58,.5-1.8,1.37-3.41,2.78-4.68,1.12-1.02,2.42-1.54,3.95-1.44,.32,.02,.64,0,.98,0,.15-.81,.25-1.6,.44-2.36,.45-1.76,1.32-3.28,2.82-4.36,.41-.29,.84-.57,1.3-.76,2.61-1.09,5.28-1.94,8.1-2.27,.89-.1,1.77-.34,2.67-.44,.78-.08,1.58-.12,2.36-.05,4.35,.43,8.39,1.79,12.07,4.14,2.16,1.38,4.28,2.81,6.3,4.38,2.59,2.01,5.07,4.17,7.59,6.27,1.14,.94,2.29,1.88,3.43,2.82,.06,.05,.11,.09,.17,.14,2.01,1.62,2.49,3.79,2.17,6.22-.04,.28-.15,.56-.28,.81-.44,.83-.84,1.68-1.37,2.46-.5,.73-1.13,1.37-1.77,2.13,.61-.03,.98-.36,1.26-.76,.87-1.24,1.71-2.5,2.56-3.75,.22-.32,.43-.64,.7-1.04,.39,.32,.74,.53,.98,.83,1.38,1.71,2.82,3.36,3.58,5.49,.31,.88,.87,1.66,1.27,2.51,.25,.55,.46,1.13,.6,1.71,.17,.71,.44,1.26,.99,1.82,.96,.97,1.72,2.13,2.54,3.23,2.03,2.69,3.84,5.51,5.08,8.66,1.35,3.43,2.68,6.87,3.39,10.49,.53,2.7,.55,5.44-.19,8.19,1.8,.22,2.98,1.4,4.21,2.58,1.52,1.47,2.41,3.32,3.34,5.15,1.21,2.4,2.91,4.31,5.32,5.51,1.09,.54,2.27,.92,3.42,1.37,.84,.33,1.67,.69,2.52,.99,1.76,.62,2.98,1.87,3.92,3.41,.75,1.23,1.37,2.53,1.63,3.99,.13,.73,.18,1.42-.02,2.14-.11,.41-.1,.93-.63,1.04-.51,.11-.76-.31-1.02-.66-.63-.84-1.27-1.66-1.9-2.49-1.69-2.24-4.05-2.87-6.71-2.75-.6,.03-1.2,.23-1.72,.94,.97,.11,1.82,.19,2.67,.3,.75,.1,1.49,.25,2.23,.39,1.24,.24,1.84,1.08,1.97,2.26,.14,1.25,.21,2.52,.29,3.78,.03,.54,0,1.07,0,1.65,.56-.05,1.04-.57,1.49-.08,.42,.46,.09,1-.06,1.44-.71,2.01-2.13,3.4-4.06,4.26-.37,.16-.86,.13-.9,.73,0,.1-.27,.21-.43,.29-2.1,1.04-4.2,2.09-6.32,3.1-.4,.19-.88,.23-1.33,.33,.07-.37,.02-.73,.51-.96,1.76-.81,3.49-1.7,5.23-2.56,.2-.1,.38-.23,.47-.29-1.41-.33-2.84-.65-4.27-.99-1.5-.35-2.99-.74-4.5-1.07-.32-.07-.67,.02-.98,.03-.09,.65,.36,.67,.65,.82,1.12,.55,1.92,1.38,2.27,2.6,.23,.79,.42,1.59,.64,2.39ZM63.63,75.86c-.51,.88-.59,1.29-.28,2.19,.06-.43,.1-.64,.12-.86,.05-.44,.1-.89,.16-1.33l.65-2.37c-.49,.72-.91,1.46-.65,2.37Zm11.33,3.37q-.12,.66,.56,1.16l-.56-1.16c-.15-.07-.34-.11-.46-.21-1.08-.95-1.77-2.14-2.11-3.41l-2.39-1.23c.5,1.23,1.03,2.38,1.75,3.41,.75,1.08,1.43,2.33,3.01,2.6-.07-.44-.54-.95,.21-1.14ZM3.83,143.11l-.02-.02c-.08,.36-.1,.69,.32,.86,.3,.12,.58,.28,.88,.39,.73,.27,1.81,.03,2.19-.47,.38-.49,.34-1.45-.08-2.14-.06-.09-.12-.18-.19-.26-.84-1.01-1.96-1.55-3.22-1.8-.68-.13-1.21,.24-1.36,.88-.16,.69,.45,2.21,1.06,2.58,.1,.06,.28-.01,.42-.02ZM102.81,46.58l-.72,.86,.45,1.4c1.02-.97,1.92-1.84,2.82-2.7,.42-.4,.3-.76-.16-1.16-.33,.24-.67,.49-1.02,.73-.46,.31-.94,.61-1.41,.91,.34-.31,.68-.63,1.02-.93,.83-.72,1.62-1.48,1.81-2.66-.18,.08-.3,.22-.38,.38-.46,.94-1.24,1.58-2.02,2.22-1.62,1.33-3.55,2.05-5.43,2.87-1.81,.79-3.7,1.27-5.68,1.12-1.33-.1-2.67-.25-3.97-.52-.74-.16-1.24,0-1.73,.51-.44,.46-.9,.89-1.38,1.36-.38-.43-.67-.8-1-1.13-.6-.61-1.06-.64-1.83-.22-.66,.37-1.34,.7-2.02,1.04-.86,.43-1.74,.84-2.69,1.3,.2,.13,.31,.24,.44,.27,1.88,.35,3.75,.82,5.64,1,2.08,.2,4.18,.19,6.18-.68,2.15-.94,4.35-1.75,6.48-2.73,2.06-.95,4.06-2.04,6.08-3.06,.16-.08,.34-.12,.5-.18Zm4.91,51.63c-.58,.24-.51,.81-.58,1.27-.32,2.01-.32,4.02-.1,6.04,.12,1.15,.46,2.18,.99,3.17,.09,.17,.11,.37,.18,.58-.84-.06-.89-.06-1.41-.55-.71-.67-1.41-1.34-2.07-2.06-2.58-2.82-3.67-6.13-3.16-9.94,.13-1,.24-1.95,0-2.98-.3-1.24-.14-2.5,.72-3.58,.52-.66,1.2-1.03,1.96-1.28,.43-.15,.73-.37,1.01-.74,.7-.91,1.42-1.82,2.19-2.67,.75-.83,1.55-1.62,2.38-2.37,1.63-1.47,2.65-3.27,3.23-5.39,.73-2.65,.78-5.26-.04-7.89-.76-2.47-1.92-4.76-3.31-6.91-1.13-1.75-1.27-3.51-.85-5.47,.43-2.02,.98-3.98,1.9-5.84,0-.02-.04-.06-.12-.19-.23,.35-.46,.64-.64,.97-.83,1.57-1.36,3.26-1.84,4.97-.69,2.49-.27,4.78,1.08,6.93,.27,.43,.56,.85,.8,1.29,1,1.8,2.02,3.59,2.19,5.71,.06,.79,.17,1.58,.23,2.37,.22,2.56-.19,4.99-1.65,7.14-.79,1.16-1.69,2.25-2.61,3.31-.88,1-1.91,1.87-2.78,2.88-.75,.87-1.68,1.5-2.65,2.01-1.77,.93-2.58,3.05-1.96,4.54,.38,.92,.34,1.89,.11,2.87-.42,1.82-.45,3.65,.14,5.45,.49,1.48,.92,3.02,1.96,4.19,1.08,1.2,2.34,2.24,3.58,3.29,.37,.32,.88,.49,1.35,.64,.23,.07,.58,.02,.77-.11,.1-.07,.04-.47-.03-.69-.34-1.06-.71-2.12-1.07-3.17-.36-1.04-.43-2.12-.36-3.21,.09-1.37,.18-2.74,.29-4.1,.01-.17,.1-.32,.15-.49,.33-.59,.52-1.33,1-1.72,1.03-.83,1.57-1.93,2.17-3.04,.24-.46,.66-.83,1.04-1.2,.26-.25,.59-.41,.88-.62,3.22-2.32,6.38-4.72,9.68-6.92,2.14-1.43,4.23-2.89,5.95-4.82,1.18-1.33,2.19-2.79,2.55-4.58,.56-2.84,.93-5.7,.79-8.6-.11-2.34-.19-4.68-.37-7.02-.08-1.03-.17-2.1-.73-3.04,.1,2.05,.39,4.09,.46,6.14,.13,3.78,.06,7.55-.78,11.29-.63,2.84-2.1,5.06-4.28,6.8-2.73,2.18-5.6,4.19-8.41,6.28-2.05,1.53-4.11,3.06-6.11,4.65-.61,.49-1.33,1.02-1.18,2.01,.02,.12-.08,.28-.18,.38-.55,.56-1.09,1.14-1.69,1.64-.63,.52-1.02,1.55-.78,2.37Zm-26.01,43.44c.89,1.85,.83,3.9,1.25,6.12,.46-1.28,0-2.34,.08-3.37h.23l.33,2.67c1.18-.42,2.26-.81,3.38-1.21-.11-.12-.14-.2-.2-.22-1.7-.57-2.99-1.69-4.15-3.01-.29-.34-.63-.64-.95-.95-.17-.57-.3-1.16-.52-1.72-1.32-3.36-.25-6.8,2.28-9.06,1.14-1.02,2.55-1.75,3.83-2.61,1.04-.71,2.22-1.29,3.08-2.17,1.92-1.96,2.43-4.52,2.59-7.16,.02-.27-.1-.57-.19-.83-.35-.97-1.13-1.54-1.92-2.08-2.39,2.27-4.6,4.62-6.4,7.36-2.48,3.79-4.26,7.3-4.2,8.67l1.92-.45c-.71,1.38-2.04,1.74-3.21,.88,2.03-6.65,6.06-11.99,11.14-16.61-.63-.16-1.29-.33-1.95-.47-.56-.12-.96-.03-1.4,.48-1.1,1.29-2.3,2.49-3.52,3.67-2.71,2.63-4.99,5.6-7.11,8.72-.83,1.22-1.62,2.47-2.81,3.5-.52-.24-1.05-.47-1.56-.72-.81-.4-1.6-.84-2.41-1.23-2.38-1.16-4.94-1.83-7.45-2.63-2.66-.85-5.35-1.5-8.11-1.9-.68-.1-1.34-.31-2.09-.49-.88,1.71-2.41,2.88-4.21,3.71-.58,.26-1.23,.41-1.86,.53-1.56,.3-3.12,.56-4.68,.81-1.21,.19-2.43,.31-3.64,.5-.82,.13-1.07,.68-.7,1.41,.39,.78,.9,1.39,1.85,1.48,.15,.01,.28,.16,.42,.25-.18,.47-.52,.4-.83,.39-1.5-.07-2.73-.68-3.88-1.68-1.21-1.06-1.35-3.34-.15-4.69,1.07-1.2,2.41-1.83,3.91-2.13,1.5-.3,2.37-1.4,3.51-2.29-.2-.12-.29-.22-.38-.22-2.27-.03-4.55-.11-6.82-.06-1.03,.02-2.11,.15-3.08,.49-3.5,1.23-6.97,2.58-10.45,3.87-.67,.25-1.39,.39-2.04,.7-3.54,1.64-7.1,3.23-10.04,5.91-1.41,1.29-2.77,2.6-3.94,3.97,.99,.55,1.94,1.04,2.84,1.6,.87,.54,1.52,1.33,1.97,2.26,.74,1.54,.23,3.08-1.29,3.85-.51,.26-1.06,.44-1.64,.68-.15,.78-.29,1.6-.47,2.4-.22,.94,.13,1.57,.94,2.08,3.32,2.08,6.82,3.82,10.59,4.89,2.77,.79,5.62,1.32,8.44,1.92,2.05,.44,4.12,.77,6.16,1.2,2.83,.6,5.68,1.08,8.58,1.03,1.84-.04,3.68,.16,5.51-.25,.73-.16,1.24-.43,1.43-1.23,.11-.48,.24-1.03,.84-1.4,.06,.25,.16,.42,.13,.56-.07,.32-.21,.61-.3,.92-.41,1.43-.15,1.81,1.3,2.03,1.83,.27,3.59,.22,5.19-.85,.18-.12,.39-.2,.58-.29,2.29-1.07,4.58-2.15,6.86-3.22,.48-.23,.95-.48,1.42-.73-.09-.55-.2-1.01-.23-1.47-.03-.44-.29-.91,.15-1.42l.44,1.27c.1-.44,.17-.76,.24-1.08,.36-1.82,.92-3.58,1.89-5.16,.81-1.32,1.67-2.63,2.66-3.82,2.12-2.56,4.75-4.31,8.16-4.64,1.19-.11,2.3,.06,3.13,1.08,.48,.58,1.03,1.11,1.54,1.66Zm23.09-27.32c.15,.08,.3,.16,.45,.25,.98,.62,1.98,1.24,2.63,2.23,1.3,1.97,2.1,4.1,1.88,6.52-.02,.23,.02,.46,.04,.75,.29-.07,.5-.11,.7-.18,.19-.06,.38-.16,.62-.26-.07-.64-.19-1.25-.2-1.86-.01-.56-.43-1.26,.47-1.75,.4,1.38,.29,2.72,.53,4.11-.89-.05-1.42,1.05-2.34,.35-.34,.8-.68,1.47-.93,2.18-1.15,3.36-3.22,6-6.1,8.05-1.93,1.37-4.1,2.11-6.43,2.32-1.61,.15-3.25,.13-4.87,.05-1.24-.07-1.87,.62-2.35,1.55-.2,.4-.27,.9-.3,1.36-.07,1.06,.35,1.99,1,2.78,.53,.65,1.63,.74,2.38,.25,.83-.54,.15-1.05-.07-1.56-.28-.64-.16-1.02,.45-1.33,.78-.39,1.76-.01,2.14,.84,.33,.75,.33,1.54,.16,2.34-.06,.28-.09,.57-.13,.87,10.78-4.4,21.59-8.23,33.11-10.55-1.48-1.51-2.4-3.07-2.35-5.1,.05-1.94,.51-3.7,1.86-5.15-1.44-1.51-3.06-2.6-4.73-3.58-.83-.49-1.75-.85-2.67-1.14-1.81-.58-3.7-.52-5.56-.45-.59,.02-1.19,.27-1.75,.51-.81,.34-1.6,.76-2.5,1.19-.04-1.53-.38-2.86-1.4-3.87-1.01-1.01-2.22-1.7-3.74-1.72Zm-20.13,2.78c-2.15-.55-4.05-1.1-5.99-1.52-2.01-.44-4.04-.77-6.06-1.11-2.84-.48-5.7-.91-8.54-1.39-.57-.1-1.25,.08-1.66-.58-.05-.09-.42-.06-.6,.01-1.99,.83-4.03,1.52-5.94,2.58-2.08,1.15-2.97,2.8-3.04,5.07-.03,.86-.22,1.71-.36,2.56-.06,.38-.18,.75-.29,1.17,7.56,.98,14.42,3.86,21.41,6.71,3.31-4.74,6.2-9.83,11.06-13.5Zm-5.58,31.39c-.19-.98-.28-2-.61-2.94-.55-1.56-1.83-2.19-3.48-2.13-1.3,.04-2.15,.88-2.96,1.59-1.68,1.48-2.58,3.46-2.69,5.73-.11,2.22,.6,3.5,2.63,4.37,1.71,.74,3.63,.61,5.03-1.02,1.39-1.62,2.04-3.46,2.08-5.61Zm-37.08-26.45c.83-1.49,1.43-4.87,.84-7.37-.32-1.35-.13-2.65,.42-3.91,.18-.42,.39-.82,.59-1.24-1.25-.42-1.35-.4-2.17,.37-3.48,3.23-6.08,7.13-8.3,11.29-.09,.17-.12,.38-.2,.65,3,.07,5.91,.14,8.83,.21ZM90.64,24.12c-1.14-.93-2.11-1.78-3.15-2.53-.42-.3-.98-.52-1.49-.55-.92-.04-1.86,.05-2.78,.19-.63,.09-1.26,.28-1.85,.53-1.79,.76-2.99,2.19-4.09,3.72,.9,.37,1.75,.74,2.61,1.08,.36,.15,.73,.31,1.12,.38,3.59,.65,6.64-.55,9.64-2.82Zm-27.58,54.74c.1,1.31,.52,2.69,.94,4.06,.29,.94,.57,1.89,.83,2.77l7.46-5.95c-1.11-1.9-2.25-3.87-3.37-5.79-1.93,1.62-3.8,3.19-5.85,4.92Zm78.3,44.22l-.22-.23c.15-.73,.5-1.4,.95-1.99,.43-.57,.98-1.04,1.53-1.6-1.45,.12-2.66,1.73-3.51,4.6,.22,.01,.43,.03,.64,.04,1.6,.11,2.45,1.43,1.82,2.91-.21,.49-.56,.93-.91,1.33-.95,1.1-2.22,1.71-3.58,2.14-.29,.09-.69,.2-.87-.3,1.88-.37,3.45-1.16,4.6-2.68,.39-.51,.6-1.07,.49-1.72-.11-.65-.67-1.18-1.32-1.27-.67-.09-1.29,.23-1.59,.8-.67,1.28-1.35,2.55-2.02,3.83-.61,1.17-1.21,2.33-1.9,3.64,.57-.08,1-.11,1.41-.2,1.8-.37,3.34-1.23,4.81-2.35,1.26-.96,2.19-2.09,2.81-3.5,.43-.99,.48-2.03-.01-3.04-.45-.92-.94-1.13-1.93-.8-.4,.13-.8,.25-1.21,.38ZM65.62,37.15c.85,.1,1.56,.15,2.27,.27,.85,.14,1.69,.35,2.54,.48,1.3,.19,2.58,.1,3.94-.27-.08-.34-.13-.65-.22-.95-.54-1.68-.99-3.39-1.17-5.16-.11-1.09-.49-1.33-1.59-1.2-.21,.03-.43,.08-.63,.16-2.09,.92-3.77,2.27-4.55,4.5-.24,.67-.38,1.38-.58,2.16Zm87.1,68.99c-.21,.27-.44,.45-.49,.67-.31,1.4-.59,2.8-.85,4.21-.04,.19,.1,.41,.15,.63,.27,1.21,1.17,1.97,1.99,2.77,1.97,1.89,3.85,2.03,6.07,.65,.5-.31,.58-.65,.31-1.13-1.26,.19-1.59,.15-2.58-.57-1.29-.94-2.34-2.05-2.32-3.8,.01-.92,0-1.85,0-2.69-.59-.82-1.66,.32-2.27-.73Zm-61.33-63.36c4.32,2.71,8.45,1.87,10.44-.9-.58-.48-1.2-.92-1.74-1.44-1.33-1.28-4.07-1.18-5.3-.45-1.25,.73-2.32,1.68-3.4,2.79Zm-27.36,43.94c-1.56-.16-2.12-1.42-3.2-2.04-.27,.91,.65,.93,.97,1.39-1.17,.33-1.69-.4-1.48-1.98l-1.73-2.1c-1.14,1.36-2.69,2.19-3.87,3.5,1.72,1.74,3.56,3.23,4.68,5.47,1.56-1.43,3-2.76,4.61-4.23Zm19.58-19.58c.29-2.44,.79-4.8,.41-7.31l-3.14-.4c-.4,2.32-.77,4.5-1.16,6.75,.38,.14,.73,.31,1.11,.4,.9,.21,1.82,.38,2.77,.57Zm1.26-7.04c-.23,2.54-.45,4.85-.66,7.17l1.07,.32,.14,2.44h.23v-2.39c.74-.36,1.33-.15,1.77,.27,.42,.4,.7,.96,1.09,1.52-.01-.84-.42-1.41-.75-1.75l.19-7.34-3.07-.25Zm7.65,5.87c-.1-.59-.17-1.01-.25-1.44-.23-1.28-.44-2.56-.71-3.83-.18-.84-.23-.85-1.11-.68-.5,.1-.99,.21-1.48,.34-.35,.09-.52,.31-.52,.71,0,1.77-.06,3.54-.05,5.31,0,.33,.09,.73,.29,.98,.32,.4,.77,.7,1.16,1.04l.13-.14-1.03-1.13c1.66-.52,2.48,.49,3.35,1.43-.14-.88-1.03-1.19-1.45-1.87l1.65-.72Zm-18.05,15.02c-.79-.29-1.33-.94-2.17-.34-1.3,.94-2.34,2.23-3.86,2.87-.09,.04-.14,.16-.22,.23-1.69,1.51-3.38,3.02-5.06,4.53-.46,.41-.91,.82-1.36,1.24-.43,.4-.85,.8-1.28,1.21l1.91,.76c3.31-4.24,7.66-7.28,12.04-10.5Zm2.81-12.29c.39-.95,.89-1.8,1.77-2.39,.14-.09,.18-.37,.22-.56,.28-1.56,.55-3.12,.82-4.68,.07-.39,.12-.79,.11-1.18,0-.22-.08-.55-.24-.65-.68-.44-1.36-.92-2.23-1.1-.46,1.79-.91,3.52-1.36,5.26l1.09,1.29c-.52,.47-1.08,.82-1.16,1.63,1.53-1.64,1.62-1.66,2.77-.39-.98,.67-1.72,1.51-1.79,2.78Zm-14.01,43.03v.34c.82,.13,1.63,.24,2.43,.4,3.65,.7,7.3,1.37,10.94,2.12,2.51,.51,5,1.09,7.48,1.71,1.16,.29,1.57,.16,2.17-1.04-.43-.08-.84-.17-1.27-.24-2.38-.39-4.76-.85-7.15-1.16-3.22-.42-6.44-.76-9.61-1.47-1.37-.31-2.76-.52-4.14-.74-.28-.04-.57,.06-.86,.09Zm12.57-87.44l.18,.2c.24-.31,.48-.62,.73-.92,.6-.72,1.16-1.47,1.81-2.14,2.63-2.74,6.8-3.1,9.81-.82,.67,.51,1.19,1.22,1.79,1.85l-.44,.36,1.52,1.26c-.08,.61,0,1.3-.75,1.67-.19,.1-.31,.4-.4,.63-.46,1.15-1.32,2-2.26,2.72-1.36,1.04-2.91,1.6-4.67,1.09-.43-.12-.89-.17-1.33-.26,1.23,.93,2.53,1.45,4.08,.9,1.61-.57,2.73-1.68,3.75-2.98,.73-.93,1.52-1.83,2.33-2.7,.38-.41,.88-.7,1.54-1.2-.42,.04-.51-.42-.79,.01-.32,.48-.68,.44-1.07,0l.34-.59c-.75-.62-1.42-1.16-2.07-1.72-.57-.49-1.09-1.03-1.68-1.5-2.44-1.96-5.11-1.81-7.75-.63-2.14,.96-3.47,2.83-4.68,4.76Zm21.48,32.52c.33,.83,.59,1.58,.91,2.3,.33,.73,.49,1.56,1.09,2.27,.91-1.26,2.05-1.27,3.39-.71-.51-.79-1.23-.75-1.9-.86,.5-.94,.94-1.09,1.83-.67,.29,.14,.56,.31,.84,.46-.23-.38-.54-.73-.88-.77-.82-.09-1.11-.68-1.44-1.27-.29-.54-.55-1.09-.84-1.63-.22-.4-.46-.78-.77-1.31l-2.22,2.19Zm7.94,35.59c.17,1.25,.49,1.97,1.36,2.64,.27,.2,.74,.45,.95,.35,.69-.34,1.48-.59,1.87-1.35,.51-.98,.22-2.86-.54-3.67-.96-1.03-2.67-.79-3.25,.49-.21,.48-.27,1.02-.4,1.54Zm-11.74-33.61c-.43,.2-.79,.36-1.14,.53-.37,.18-.49,.43-.4,.87,.32,1.51,.57,3.04,.86,4.56,.12,.66,.29,1.25,1.1,1.41,.23,.04,.42,.36,.62,.56,.15,.15,.28,.33,.43,.49-.07-.44-.24-.81-.5-1.08-.25-.25-.6-.38-.94-.59,1.11-.76,1.51,.37,2.27,.61l-1.03-1.23c.18-.12,.33-.22,.48-.31,.18-.11,.36-.21,.59-.36-.72-1.83-1.17-3.73-2.32-5.46Zm-5.38-2.22c.48-.08,.77-.1,1.04-.18,1.13-.33,2.26-.68,3.38-1.04,.32-.1,.59-.31,.53-.71-.14-.84-.19-1.7-.77-2.47l-4.37,1.45c.06,.96,.12,1.91,.18,2.94Zm-5.17,.6c1.73,.26,3.15-.21,4.64-.51l-.25-2.93-4.17,.32-.22,3.13Zm-4.72-.95c1.1,.34,2.09,.66,3.09,.95,.36,.1,.79,.11,.87-.36,.16-.93,.51-1.86,.35-2.81l-4.03-1.03c-.09,1.12-.17,2.11-.27,3.26Zm-15.22,39.73c.61,.92,1.27,1.63,1.58,2.47,.58,1.55,1.52,2.73,2.79,3.75,2.31,1.86,4.95,2.57,7.86,2.38,.15,0,.29-.12,.58-.25-.28-.12-.4-.18-.52-.21-1.43-.38-2.88-.66-4.27-1.14-2.33-.8-4.3-2.14-5.64-4.29-.49-.79-1.06-1.54-1.63-2.28-.14-.18-.43-.24-.75-.42Zm93.76,10.9c-1.22,2.62,.18,5.07,3.01,5.31-.06-1.04-.1-2.09-.18-3.13-.19-2.36-.34-2.06-2.1-2.18-.25-.02-.49,0-.73,0Zm-59.39-56.85c-1.48,.72-2.9,1.4-4.26,2.07l.59,2.68c1.13-.27,1.97-.96,2.91-1.5,1.07-.62,1.47-1.39,.9-2.56-.08-.16-.07-.35-.13-.69ZM3.26,138.99c.95,.34,1.68,.52,2.35,.85,1.05,.52,1.94,1.25,2.25,2.47,.34,1.3-.28,2.32-1.6,2.54-.58,.1-1.19,.02-1.79,.02,.08,.07,.19,.26,.32,.27,.89,.06,1.82,.27,2.66,.08,1.48-.34,1.93-1.41,1.58-2.91-.42-1.81-2.57-3.61-5.07-3.66-.17,0-.35,.17-.69,.35ZM97.81,49.76l.67,2.04c.99-.63,1.87-1.12,2.67-1.73,1.01-.77,1.03-1.2,.24-2.35-.54,.35-1.08,.71-1.63,1.03-.59,.34-1.21,.63-1.94,1.01Zm6.6,.24c-.68,.38-1.1,1.1-1.57,1.78-.07,.1-.09,.32-.03,.4,.48,.64,.78,1.5,1.83,1.59,.28-.62,.62-1.22,.83-1.87,.18-.57,.53-.81,.9-.81l-1.97-1.09Zm-2.3,43.22c.63-.63,1.28-1.09,2.14-.86,.23-.58,.39-1.1,.63-1.58,.22-.46,.52-.89,.79-1.35-2.33-.29-3.78,1.24-3.56,3.79Zm-12.53-67.41c-1.7,.93-3.38,1.92-5.36,2.12-2,.21-3.78-.6-5.57-1.35,2.59,2.5,7.87,2.86,10.93-.77ZM54.63,109.99c-1.46-1.57-3.29-1.69-5.2-1.48-1.57,.17-2.41,.48-2.84,1.03,.31,0,.69-.11,.83,.03,.22,.22,.28,.36,.67,.24,1.97-.62,3.96-.69,5.94,.03,.19,.07,.4,.1,.6,.14Zm81.46-17.61l.12,.1c.83-.74,1.64-1.5,2.49-2.21,1.25-1.02,1.94-2.38,2.51-3.84,.15-.39,.27-.81-.14-1.34-.77,1.37-1.39,2.69-2.21,3.89-.83,1.2-1.84,2.28-2.78,3.41ZM78.65,22.93l-.13-.12-2.65,2.63-.07,.91c.08,.09,.14,.19,.22,.25,1.3,.95,2.59,1.92,3.92,2.83,.28,.19,.68,.21,1.03,.31-1.52-1.25-2.8-2.77-4.88-3.3,.25-.21,.53-.36,.51-.46-.17-.97,.78-1.25,1.13-1.89,.23-.43,.61-.78,.92-1.16Zm56.41,70.09c-1.18,1.72-3.33,2.19-4.68,3.68,1.86-.83,3.79-1.57,4.68-3.68Zm-33.95-49.49c-1.04,.49-1.86,1.01-2.75,1.27-.92,.27-1.91,.3-2.84,.44,1.54,.67,4.24-.09,5.59-1.71Zm-29.36,3.45c1.54,.8,3.67,.55,4.96-.63-.88,.28-1.62,.63-2.4,.73-.8,.1-1.64-.05-2.56-.1Zm7.95-25.18c1.53-.82,3.1-1.48,5.04-1.52-2.4-.25-3.97,.12-5.04,1.52Zm30.65,70c0-1.78-1-2.95-2.51-2.95,1.32,.58,2.01,1.68,2.51,2.95Zm18.94,34.8c-.36-1.07-.79-2.08-1.75-2.8-.25,.28-.37,.51-.12,.78,.62,.68,1.25,1.34,1.87,2.02Zm22.59-24.86c.16-1.52-.12-2.9-.96-4.15,.32,1.38,.64,2.77,.96,4.15Zm-21.98,28.83c.26-1.4,.13-2.21-.4-2.75-.29,.99-.09,1.88,.4,2.75Zm3.26,4.77c1-.33,1.84-1.45,1.89-2.34l-1.89,2.34Zm-26.06-39.19c-.35-.24-.72-.46-1.06-.71-.32-.23-.62-.49-.92-.74,.54,1.04,.91,1.31,1.99,1.45Zm-34.37-57.21l-3.03-.55c.9,.59,1.89,.63,3.03,.55Zm53.11,9.03c-.93-1.09-1.41-1.26-2.04-.8l2.04,.8Zm-43.81,19.59c-.58,.24-.76,.77-.58,2.34l.58-2.34Zm-2.56,2.13c.13-.44,.22-.89,.39-1.31,.18-.44,.44-.85,.66-1.27-.95,.59-1.12,1.54-1.05,2.58Zm-1.21,34.39c.7,.45,.72,.45,1.28-.21-.5-.28-.91-.26-1.28,.21Zm38.19-56.66c.66,.35,1.01,.19,1.34-.34-.55-.29-.91-.13-1.34,.34Zm12.65,86.35l.21,.05c.5-.86,.51-.92,.41-1.85l-.62,1.8Zm-35.11-65.66c-.21-1.39-.57-1.79-1.41-1.64q.74,.4,1.41,1.64Zm-10.03-.78c-.66,.88-.59,1.62-.41,2.64l.41-2.64Zm11.73-2.62l1.47,1.4c-.29-.67-.67-1.24-1.47-1.4Zm33.1,32.94l.56-1.28-.14-.09-.79,.69,.37,.68Zm-27.76-35.45c-.56-.65-1.12-.7-1.85-.56l1.85,.56Zm-5.71,42.8h.18l.2-1.49-.25-.03-.13,1.52Zm-28.76-72.1l-.24-.12-.69,1.39,.2,.1,.72-1.37Zm2.96-2.93l.07,.19,1.41-.51-.06-.18-1.42,.49Zm-11.69,50.46q0,.89,.46,1.18l-.46-1.18Zm46.06-22.48l.09-.19-.99-.46-.08,.18,.98,.47Zm-31.2-28.49l-.05-.35-.83,.22,.04,.2,.84-.06Zm24.17,40.97q.45,.48,1.12,.31l-1.12-.31Zm6.69,22.61l1.02,.7c-.19-.71-.52-.84-1.02-.7Zm2.14-40.07l-.04,.18,.72,.18,.05-.2-.73-.16Zm-29.3-4.9l.04,.22,.47-.05-.05-.29-.46,.12Zm-1.17-22.49c-.23-.1-.37-.17-.51-.2-.04,0-.16,.18-.14,.21,.08,.12,.19,.24,.32,.29,.04,.02,.17-.15,.34-.31Zm11.13-5.02l.09-.21-.62-.14-.04,.15,.56,.2Zm20.01,68.36l.11,.24,.54-.27-.06-.16-.59,.18Z"/><path d="M129.48,142.06l.49-.54,.24,.2-.44,.59-.3-.25Z"/><path class="d" d="M81.71,141.64c-.52-.55-1.06-1.08-1.54-1.66-.83-1.02-1.95-1.2-3.13-1.08-3.4,.33-6.04,2.08-8.16,4.64-.99,1.19-1.85,2.5-2.66,3.82-.97,1.58-1.53,3.34-1.89,5.16-.06,.32-.14,.63-.24,1.08l-.44-1.27c-.44,.51-.19,.98-.15,1.42,.03,.46,.14,.92,.23,1.47-.48,.24-.94,.5-1.42,.73-2.29,1.08-4.57,2.15-6.86,3.22-.2,.09-.4,.17-.58,.29-1.6,1.07-3.37,1.13-5.19,.85-1.45-.22-1.71-.6-1.3-2.03,.09-.31,.24-.61,.3-.92,.03-.14-.07-.31-.13-.56-.6,.37-.72,.92-.84,1.4-.19,.8-.7,1.07-1.43,1.23-1.83,.41-3.67,.22-5.51,.25-2.9,.06-5.75-.43-8.58-1.03-2.05-.43-4.12-.77-6.16-1.2-2.82-.6-5.67-1.14-8.44-1.92-3.77-1.07-7.27-2.81-10.59-4.89-.81-.51-1.15-1.13-.94-2.08,.18-.81,.32-1.62,.47-2.4,.58-.24,1.13-.42,1.64-.68,1.52-.78,2.02-2.31,1.29-3.85-.44-.93-1.09-1.71-1.97-2.26-.9-.56-1.86-1.05-2.84-1.6,1.17-1.37,2.53-2.69,3.94-3.97,2.94-2.68,6.5-4.27,10.04-5.91,.65-.3,1.37-.44,2.04-.7,3.48-1.29,6.94-2.64,10.45-3.87,.97-.34,2.05-.47,3.08-.49,2.27-.05,4.55,.03,6.82,.06,.09,0,.18,.1,.38,.22-1.14,.89-2.01,1.99-3.51,2.29-1.5,.3-2.84,.93-3.91,2.13-1.2,1.35-1.06,3.63,.15,4.69,1.15,1.01,2.37,1.61,3.88,1.68,.31,.02,.66,.09,.83-.39-.14-.09-.28-.24-.42-.25-.95-.09-1.45-.7-1.85-1.48-.37-.73-.12-1.28,.7-1.41,1.21-.18,2.43-.31,3.64-.5,1.56-.25,3.13-.51,4.68-.81,.63-.12,1.28-.26,1.86-.53,1.81-.83,3.33-2,4.21-3.71,.75,.18,1.41,.39,2.09,.49,2.76,.41,5.45,1.06,8.11,1.9,2.51,.8,5.07,1.46,7.45,2.63,.81,.4,1.6,.83,2.41,1.23,.51,.26,1.04,.48,1.56,.72,1.2-1.02,1.98-2.28,2.81-3.5,2.12-3.11,4.4-6.09,7.11-8.72,1.22-1.18,2.42-2.39,3.52-3.67,.44-.51,.84-.61,1.4-.48,.66,.15,1.31,.32,1.95,.47-5.08,4.62-9.11,9.95-11.14,16.61,1.18,.86,2.51,.5,3.21-.88l-1.92,.45c-.06-1.37,1.72-4.88,4.2-8.67,1.8-2.74,4.01-5.09,6.4-7.36,.79,.54,1.58,1.1,1.92,2.08,.1,.27,.21,.56,.19,.83-.15,2.64-.66,5.21-2.59,7.16-.87,.88-2.04,1.46-3.08,2.17-1.28,.87-2.69,1.59-3.83,2.61-2.53,2.26-3.6,5.7-2.28,9.06,.22,.56,.35,1.14,.52,1.72l.03-.03Zm-38.87,5.84c-.32-.22-.53-.43-.79-.52-1.47-.56-2.79-1.43-4.26-2.02-2.88-1.16-5.72-2.34-8.79-3.01-4.37-.95-8.77-1.38-13.23-1.35-1.11,0-2.23,.15-3.34,.32-1.15,.17-1.18,.25-1.22,1.38-.01,.32-.03,.65,0,.97,.28,2.7,.42,2.77,2.76,3.43,4.52,1.28,9.09,2.34,13.71,3.15,3.77,.66,7.54,1.34,11.39,1.36,.43,0,.86,.19,1.42,.33,.48-1.4,1.06-2.88,2.32-4.03Zm8.02-1.12c-.25,0-.51,0-.76,0-2-.09-3.76,.56-5.29,1.8-2.17,1.75-2.13,5.29,.04,7,1.06,.84,2.3,1.07,3.6,1.3,2.75,.48,5.16-.29,7.34-1.84,.78-.55,1.48-1.29,2.01-2.09,1.01-1.51,.21-3.88-1.54-4.94-1.67-1.02-3.51-1.25-5.41-1.23Zm17.01-11.41l-.1-.28c-.28,.03-.56,.05-.83,.11-3.11,.62-5.95,1.98-8.85,3.18-3.18,1.32-6.15,3.05-8.91,5.1-1.21,.89-2.27,1.99-3.39,3.01-.12,.11-.13,.32-.2,.48,6.71-5.32,14.24-8.95,22.28-11.59Zm-59.57,13.69c.12,.18,.16,.3,.24,.34,1.71,.85,3.42,1.71,5.15,2.52,1.87,.87,3.8,1.57,5.78,2.15,.42,.12,.81,.3,1.23,.43,1.68,.53,3.34,1.22,5.06,1.54,3.73,.68,7.48,1.23,11.24,1.72,1.89,.24,3.82,.23,5.73,.31,.35,.01,.79,.11,1.1-.38-.28-.03-.49-.08-.7-.08-3.47-.08-6.93-.27-10.36-.81-3.28-.52-6.59-.84-9.75-1.99-1.42-.52-2.86-1-4.31-1.44-1.97-.6-3.86-1.4-5.72-2.29-1.4-.67-2.81-1.31-4.22-1.95-.11-.05-.26-.03-.48-.06Zm2.29-10.42l.25,.15c.42-.51,.84-1.01,1.25-1.52,.43-.54,.82-1.1,1.27-1.62,.44-.52,.92-1.02,1.4-1.5,.48-.49,.99-.95,1.49-1.42,.5-.46,1.01-.93,1.53-1.37,.53-.44,1.07-.86,1.62-1.26,.56-.4,1.13-.77,1.71-1.13,.58-.37,1.16-.73,1.76-1.06,.6-.33,1.24-.59,1.85-.9,.56-.29,1.24-.39,1.83-.93-.26-.03-.33-.06-.39-.04-.14,.04-.27,.1-.4,.15-2.73,1.08-5.34,2.36-7.65,4.21-.59,.47-1.22,.91-1.81,1.37-2.1,1.64-3.93,3.51-5.21,5.87-.18,.33-.33,.67-.49,1.01Zm30.19,14.08v-.36c-9.86-.82-19.7-1.76-29.07-5.34,1.16,.58,2.34,1.06,3.55,1.45,1.34,.43,2.69,.81,4.06,1.14,2.21,.53,4.41,1.13,6.65,1.46,3.64,.53,7.3,.88,10.96,1.29,1.28,.14,2.56,.24,3.85,.36Zm-13.82-11.88l.34,.05,.29-1.28c1.35-.53,1.86-1.23,1.72-2.37-.12-1-.76-1.58-1.9-1.73-.93-.12-1.57,.26-1.95,1.18-.39,.92,0,1.7,1.4,2.74,0,.22-.01,.47,0,.72,.02,.23,.06,.46,.1,.69Zm53.1-1.4l.09-.25c-.44-.22-.87-.5-1.34-.65-2.92-.97-5.56-.16-8.01,1.42-3.06,1.98-4.85,4.98-6.32,8.21-.26,.57-.39,1.2-.57,1.81,.25-.06,.32-.18,.36-.3,.93-2.78,2.36-5.28,4.34-7.43,1.91-2.08,4.25-3.45,7.13-3.72,1.29-.12,2.52,.03,3.67,.65,.21,.11,.44,.17,.66,.26Z"/><path class="d" d="M104.79,114.32c1.52,.03,2.73,.72,3.74,1.72,1.02,1.01,1.36,2.35,1.4,3.87,.9-.44,1.68-.85,2.5-1.19,.56-.23,1.16-.48,1.75-.51,1.87-.07,3.76-.13,5.56,.45,.92,.29,1.84,.65,2.67,1.14,1.68,.99,3.29,2.08,4.73,3.58-1.35,1.46-1.81,3.21-1.86,5.15-.05,2.03,.87,3.59,2.35,5.1-11.51,2.32-22.33,6.15-33.11,10.55,.04-.3,.07-.59,.13-.87,.17-.8,.17-1.58-.16-2.34-.38-.85-1.37-1.23-2.14-.84-.61,.31-.73,.69-.45,1.33,.22,.51,.91,1.02,.07,1.56-.74,.49-1.85,.39-2.38-.25-.65-.8-1.07-1.72-1-2.78,.03-.46,.1-.96,.3-1.36,.48-.93,1.1-1.62,2.35-1.55,1.62,.09,3.25,.1,4.87-.05,2.32-.21,4.49-.95,6.43-2.32,2.88-2.05,4.95-4.69,6.1-8.05,.24-.71,.59-1.39,.93-2.18,.92,.7,1.45-.4,2.34-.35-.24-1.39-.13-2.73-.53-4.11-.89,.49-.48,1.18-.47,1.75,.01,.61,.13,1.21,.2,1.86-.24,.1-.43,.2-.62,.26-.2,.07-.41,.1-.7,.18-.02-.29-.06-.52-.04-.75,.22-2.42-.58-4.55-1.88-6.52-.65-.99-1.65-1.6-2.63-2.23-.14-.09-.3-.17-.45-.25Zm8.93,21.81c-.15-1.87-.31-3.51-.52-5.15-.2-1.63-.04-3.33-.78-4.95-.5,.7-.5,.7-.39,1.44,.21,1.28,.45,2.55,.61,3.83,.15,1.14,.2,2.29,.32,3.44,.04,.44,.02,.93,.75,1.39Zm-3.36,.37l-.08-.25c-3.86,.94-7.33,2.93-11.09,4.12-.13,.04-.25,.14-.35,.24-.06,.06-.08,.18-.16,.39,.36-.07,.64-.09,.89-.19,3.6-1.43,7.2-2.87,10.79-4.31Zm5.53-1.88c.62-.05,1.26,0,1.86-.16,2.05-.53,4.09-1.12,6.12-1.7,.18-.05,.33-.17,.64-.33-1.63-.04-7.65,1.39-8.62,2.2Z"/><path class="d" d="M84.66,117.1c-4.86,3.67-7.75,8.76-11.06,13.5-7-2.85-13.85-5.73-21.41-6.71,.11-.43,.23-.8,.29-1.17,.14-.85,.33-1.7,.36-2.56,.07-2.27,.96-3.93,3.04-5.07,1.91-1.05,3.95-1.75,5.94-2.58,.18-.07,.55-.1,.6-.01,.4,.66,1.09,.49,1.66,.58,2.84,.48,5.7,.91,8.54,1.39,2.03,.34,4.06,.68,6.06,1.11,1.93,.42,3.83,.97,5.99,1.52Zm-11.94,3.18l-1.74,.61c.6-.14,1.3-.04,1.73-.62l1.33-.1-.03-.19-1.3,.3Zm-2.05,3.15l.08,.21c1.48-.46,2.95-.92,4.43-1.37l-.06-.19-4.45,1.35Zm1.91-8.76l-.03,.25c1.05,.56,2.11,.84,3.01,.67l-2.97-.92Zm-2.87,3.59l.03,.16,2.35-.5-.03-.16-2.35,.49Z"/><path class="d" d="M74.95,63.6l.63-.31c.56,.43,.13,.88,.06,1.29l.46,.13c-1.03,1.2-1,2.37-.02,3.69,1.16,1.57,2.81,2.19,4.62,2.51,2.34,.42,4.66,.25,6.99-.17,2.67-.49,5.29-1.16,7.76-2.28,1.04-.47,2.08-.99,2.9-1.81-.54-1.39-1.12-2.05-2.1-2.49-.48-1.95-1.18-3.73-2.16-5.57l2.66-1.6c.7,1.68,1.36,3.26,2.04,4.89l-.73,.86c.67,.18,1.26,.38,1.61,1.09-1.81-1.09-1.91-1.09-3.04,.01,1.01,.58,1.62,1.48,2.03,2.57,3.96-2.52,6.76-5.79,7.43-10.68l-1.73-.93-.03,.03,2.06,.57c.31-1.97,1.28-3.88,1.23-6.02l-1.17-.41-.02,.03h1.25c.51-1.61,.58-3.25,.43-5.02-.7,1.21-.44,2.73-1.46,3.68-.48-.18-.44-.41-.25-.71,.72-1.15,1.03-2.43,1.14-3.96l-1.29,2.16c-.51-.34-.61-.64-.27-1.03,.28-.33,.58-.65,.8-1.02,.44-.69,.83-1.42,1.28-2.2-1.86-.9-1.92-2.67-2.4-4.33-.24,.12-.47,.19-.65,.32-.93,.71-1.94,1.27-3.08,1.54-.73,.17-1.49,.18-2.33,.27l-.26,.5c-2.44-.67-4.7-.32-6.68,1.37-.8,.68-1.56,1.39-1.79,2.56,.61,.22,.94,.77,1.39,1.14,1.21,1,2.54,1.91,3.94,2.63,1.34,.69,2.76,.4,4-.46,.4-.28,.74-.68,1-1.09,.51-.79,.94-1.62,1.43-2.47l-.61-.24,.66-.75-2.2-1.99c1.29,.47,2.19,1.41,3.11,2.39-.55,.86-1.2,1.66-1.61,2.56-.93,2.06-3.3,2.99-5.55,2.63-.67-.11-1.29-.6-1.88-1-.78-.52-1.5-1.13-2.25-1.69-.62-.46-1.25-.89-2.01-1.42,.37-1.48,1.42-2.66,2.8-3.58,.36-.24,.76-.42,1.12-.65,.65-.42,.64-.87-.03-1.18-1.34-.62-2.7-1.22-4.21-1.31-.35-.02-.7-.11-1.17-.01l2.4,1.96-.11,.2c-.23-.09-.49-.14-.68-.29-1.02-.81-2.02-1.64-3.02-2.46-.28-.23-.53-.49-.81-.71-1.72-1.39-3.58-1.58-5.56-.6-2.4,1.19-3.86,3.17-4.76,5.63l.04-.04c-.11,.09-.22,.18-.33,.26-.08,.06-.17,.11-.48,.29,.35-.81,.56-1.46,.89-2.04,1-1.77,2.23-3.35,4.02-4.42,1.73-1.03,4.68-1.27,6.68,.75,.27,.28,.58,.52,.88,.8,.2-.79,.38-1.52,.57-2.26,.14,.1,.28,.21,.52,.4,.52-.66,1.04-1.3,1.53-1.96,.88-1.19,1.69-2.43,2.63-3.57,1.81-2.21,4.26-2.75,6.93-2.3,1.35,.23,2.59,.88,3.64,1.81-.33-.13-.69-.22-.99-.4-2.41-1.44-4.87-1.31-7.35-.27-1.57,.66-2.59,1.91-3.48,3.29-.83,1.3-1.59,2.66-2.8,3.68-.17,.14-.23,.42-.42,.77,.46,.07,.8,.12,1.13,.17,.74,.11,1.53,.08,2.22,.34,2.14,.8,4.36,.88,6.59,.97,.82,.03,1.65-.13,2.47-.2l-.02-.03c-.12,.07-.23,.18-.36,.21-1.64,.34-3.29,.43-4.95,.11-1.49-.28-2.97-.6-4.45-.88-.35-.07-.72-.11-1.08-.12-.18,0-.36,.08-.76,.19,.42,.16,.61,.25,.81,.31,1.38,.41,2.8,.73,4.13,1.25,2.28,.9,4.59,1.23,7,.68,1.5-.34,2.89-.92,3.88-2.19,.44-.57,.96-1.09,1.36-1.68,.38-.55,.78-1.13,.92-2l-.71,.35c.05-.6,.05-.6-.31-1.1-.14-.2-.28-.41-.42-.62l1.16,.59c-.75-1.48-1.6-2.85-2.45-4.22-.07-.12-.2-.2-.31-.3-1.46-1.38-3.11-2.39-5.12-2.82-1.83-.4-3.49-.18-5.09,.76-1.76,1.05-3.07,2.49-3.87,4.38-.39,.92-.71,1.88-1,2.84-.2,.64-.41,1.23-1.03,1.58,.28-.93,.51-1.87,.84-2.78,.32-.88,.66-1.76,1.11-2.58,.39-.73,.93-1.37,1.41-2.05,.99-1.42,2.47-2.13,4.03-2.69,1.43-.51,2.85-.1,4.26,.23,2.46,.57,4.21,2.16,5.72,4.05,.83,1.04,1.51,2.2,2.28,3.29,.56,.78,.5,1.56,.07,2.34-.31,.56-.62,1.17-1.08,1.61-1.13,1.1-.81,3.37-.13,4.35,.83,1.2,2.58,1.18,3.54-.03,.35-.44,.66-.92,1-1.4,.06,1.41-1.42,2.81-3.2,3.02-.2,.49-.3,.95,.07,1.47,.16,.23,.13,.61,.15,.92,.16,2.1-.11,4.17-.43,6.24-.59,3.73-1.63,7.33-3.09,10.79-.42,1.01-1.09,2-1.88,2.74-1.57,1.49-3.2,2.93-4.98,4.15-2.96,2.03-6.14,3.63-9.83,3.95-1.21,.1-2.39,.52-3.6,.7-2.09,.31-4.19,.15-6.23-.36-.89-.22-1.76-.67-2.53-1.18-1.46-.96-2.08-3.4-1.48-5.4,.15-.51,.28-1.04,.41-1.55l-.04,.04Zm14.54-27.5l.09-.37-.62-.11c-.02,.12-.07,.35-.05,.36,.19,.06,.39,.09,.59,.12Z"/><path class="d" d="M75.62,42.09c.24-.59,.49-1.19,.73-1.78l-.04,.04c.52-.59,1.04-1.18,1.56-1.77,1.27-1.47,2.79-2.48,4.76-2.75,1.72-.24,3.21,.38,4.65,1.13,1.2,.63,2.32,1.44,3.47,2.16,.53,1.9-.48,3.38-1.43,4.84-.85,1.32-1.89,2.44-3.43,3.02-2.93,1.1-6.42,.94-9.95-3.74l.55,2.34c-.76,.9-1.86,.97-2.92,1-.59,.02-1.25-.11-1.77-.37-1.02-.51-2.04-.86-3.19-.66-.02-.15-.06-.24-.03-.28,1.07-1.39,2.32-2.57,4-3.2,1-.37,2.04-.4,3.06,0,.08,.19,.11,.43,.24,.58,.33,.36,.77,.63,1.06,1.01,.71,.94,1.6,1.65,2.52,2.35,2.36,1.81,6.67,1.25,8.24-.74,.8-1.01,1.49-2.11,2.2-3.18,.14-.21,.18-.49,.26-.74-.91,1.12-2.02,1.91-3.29,2.47-2.65,1.18-5.34,1.5-8.03,.19-1.12-.55-2.15-1.27-3.23-1.91Zm4.13,1.85c2.24,.85,4.38,.54,6.47-.27,2.01-.78,3.54-2.07,4.16-4.3-.71-.44-1.43-.92-2.17-1.33-.94-.52-1.88-1.07-2.88-1.47-1.97-.78-3.83-.39-5.56,.76-1.58,1.05-2.52,2.64-3.55,4.16-.07,.11-.06,.27-.09,.45l3.08,1.82c.07-.25,.14-.42,.11-.44-.85-.56-1.71-1.1-2.61-1.67,.76-1.6,1.9-2.9,3.37-3.95,1.7-1.23,3.6-1.47,5.45-.73,1.5,.6,2.82,1.65,4.34,2.58-.79,.89-1.42,1.68-2.13,2.38-1.13,1.11-2.5,1.71-4.1,1.66-1.01-.03-2.02-.1-3.02-.17-.35-.02-.74-.18-.87,.52Zm4.03-1.35c.21-.81-.46-1.14-.55-1.66-.09-.56-.18-1.12-.28-1.68-.1-.53,.35-1.08-.04-1.64-1,1.25-.63,3.59,.87,4.98Zm-10.4,3.12c-.08-1.02-.15-1.95-.23-2.92-.77,.32-.65,1-.59,1.62,.05,.54,.09,1.13,.82,1.3Z"/><path class="d" d="M79.08,148.49c-.04,2.15-.69,3.99-2.08,5.61-1.4,1.62-3.31,1.75-5.03,1.02-2.03-.87-2.74-2.16-2.63-4.37,.11-2.28,1.01-4.25,2.69-5.73,.81-.71,1.66-1.55,2.96-1.59,1.65-.06,2.93,.57,3.48,2.13,.33,.94,.41,1.96,.61,2.94Zm-3.28,1.09c0-.95-.36-1.51-.91-1.64-.58-.14-1.18,.15-1.53,.75-.31,.54-.5,1.1-.33,1.74,.17,.64,.55,1.01,1.17,1.07,.55,.05,1.04-.21,1.27-.79,.17-.42,.25-.89,.31-1.14Z"/><path class="d" d="M42.01,122.03c-2.92-.07-5.83-.14-8.83-.21,.08-.27,.11-.48,.2-.65,2.23-4.16,4.82-8.05,8.3-11.29,.83-.77,.92-.79,2.17-.37-.2,.42-.41,.82-.59,1.24-.55,1.26-.74,2.56-.42,3.91,.59,2.5-.01,5.88-.84,7.37Z"/><path class="d" d="M107.72,98.21c-.05,.16-.14,.32-.16,.49-.1,1.37-.2,2.73-.29,4.1-.07,1.09,0,2.17,.36,3.21,.37,1.05,.73,2.11,1.07,3.17,.07,.22,.13,.61,.03,.69-.19,.14-.54,.19-.77,.11-.47-.15-.99-.33-1.35-.64-1.23-1.05-2.5-2.09-3.58-3.29-1.05-1.17-1.48-2.71-1.96-4.19-.6-1.8-.56-3.63-.14-5.45,.23-.98,.28-1.95-.11-2.87-.62-1.49,.19-3.61,1.96-4.54,.98-.51,1.9-1.14,2.65-2.01,.87-1.01,1.9-1.88,2.78-2.88,.92-1.05,1.82-2.15,2.61-3.31,1.46-2.15,1.87-4.58,1.65-7.14-.07-.79-.17-1.58-.23-2.37-.17-2.12-1.19-3.91-2.19-5.71-.24-.44-.53-.86-.8-1.29-1.35-2.16-1.77-4.45-1.08-6.93,.48-1.71,1.01-3.39,1.84-4.97,.17-.33,.41-.62,.64-.97,.09,.13,.13,.17,.12,.19-.93,1.85-1.47,3.82-1.9,5.84-.42,1.96-.28,3.72,.85,5.47,1.39,2.15,2.55,4.44,3.31,6.91,.81,2.63,.77,5.24,.04,7.89-.59,2.11-1.6,3.92-3.23,5.39-.83,.75-1.63,1.54-2.38,2.37-.77,.85-1.49,1.76-2.19,2.67-.28,.36-.58,.59-1.01,.74-.75,.25-1.44,.63-1.96,1.28-.86,1.08-1.02,2.34-.72,3.58,.24,1.03,.14,1.99,0,2.98-.51,3.81,.58,7.12,3.16,9.94,.66,.72,1.36,1.39,2.07,2.06,.52,.49,.57,.49,1.41,.55-.06-.22-.09-.42-.18-.58-.53-1-.87-2.03-.99-3.17-.22-2.03-.22-4.04,.1-6.04,.07-.46,0-1.03,.58-1.27h0Z"/><path class="d" d="M90.64,24.12c-3,2.26-6.06,3.46-9.64,2.82-.38-.07-.75-.23-1.12-.38-.86-.35-1.71-.71-2.61-1.08,1.1-1.54,2.3-2.97,4.09-3.72,.59-.25,1.22-.44,1.85-.53,.92-.13,1.86-.22,2.78-.19,.51,.02,1.07,.24,1.49,.55,1.04,.75,2.01,1.6,3.15,2.53Zm-6.79,2.29c.06-.14,.13-.22,.11-.26-.5-1.05-.87-2.12-.51-3.31,.03-.11-.15-.28-.23-.42-.18,.13-.48,.23-.51,.39-.26,1.24-.2,2.43,.72,3.42,.09,.1,.28,.12,.42,.17Z"/><path class="d" d="M63.06,78.85c2.05-1.72,3.92-3.3,5.85-4.92,1.12,1.93,2.26,3.89,3.37,5.79l-7.46,5.95c-.26-.88-.54-1.82-.83-2.77-.42-1.37-.84-2.75-.94-4.06Zm4.8-.08l.12,.2c.48-.2,1.01-.32,1.42-.61,.24-.17,.37-.62,.37-.94,0-.4-.35-.59-.74-.65-.23-.04-.45-.09-.71-.14l.36-.8-1.11,.18c-.14,.29-.26,.55-.4,.8-.23,.4-.36,.84,.03,1.18,.32,.28,.67,.1,.96-.16,.26-.24,.44-.15,.58,.19l-.88,.77Zm-4.17,1.8c.9,.04,1.44,.57,1.9,1.27,.54,.84-.28,1.4-.5,2.19,1.06-.73,1.33-1.41,.98-2.24-.45-1.05-1.37-1.57-2.37-1.22Z"/><path class="d" d="M141.36,123.08c.4-.13,.81-.25,1.21-.38,.99-.33,1.48-.12,1.93,.8,.5,1.01,.45,2.05,.01,3.04-.62,1.41-1.55,2.54-2.81,3.5-1.47,1.12-3.01,1.98-4.81,2.35-.42,.09-.84,.12-1.41,.2,.68-1.31,1.29-2.48,1.9-3.64,.67-1.28,1.35-2.55,2.02-3.83,.3-.57,.92-.9,1.59-.8,.65,.09,1.21,.62,1.32,1.27,.11,.65-.11,1.2-.49,1.72-1.15,1.52-2.72,2.31-4.6,2.68,.18,.5,.58,.39,.87,.3,1.36-.43,2.63-1.03,3.58-2.14,.35-.41,.7-.85,.91-1.33,.63-1.48-.22-2.8-1.82-2.91-.21-.01-.42-.03-.64-.04,.85-2.86,2.05-4.47,3.51-4.6-.55,.56-1.1,1.04-1.53,1.6-.45,.59-.8,1.26-.95,1.99l.22,.23Z"/><path class="d" d="M65.62,37.15c.21-.79,.35-1.49,.58-2.16,.78-2.23,2.46-3.58,4.55-4.5,.19-.09,.41-.14,.63-.16,1.11-.14,1.48,.1,1.59,1.2,.18,1.77,.63,3.47,1.17,5.16,.1,.3,.14,.61,.22,.95-1.35,.37-2.64,.46-3.94,.27-.85-.13-1.69-.34-2.54-.48-.71-.11-1.42-.17-2.27-.27Zm4.71-5.09c-1.06,.42-1.34,1.01-1.21,2.24,.12,1.2,.76,2.26,1.55,2.41-1.01-1.44-1.2-2.92-.34-4.65Z"/><path class="d" d="M152.73,106.15c.61,1.06,1.68-.09,2.27,.73,0,.84,.01,1.76,0,2.69-.02,1.76,1.03,2.87,2.32,3.8,.99,.72,1.32,.76,2.58,.57,.27,.48,.19,.82-.31,1.13-2.22,1.38-4.1,1.24-6.07-.65-.83-.8-1.72-1.56-1.99-2.77-.05-.21-.18-.43-.15-.63,.26-1.41,.54-2.81,.85-4.21,.05-.22,.28-.4,.49-.67Z"/><path class="d" d="M107.72,98.21c-.24-.82,.15-1.85,.78-2.37,.6-.5,1.14-1.08,1.69-1.64,.09-.1,.19-.26,.18-.38-.14-.99,.57-1.53,1.18-2.01,2.01-1.59,4.06-3.12,6.11-4.65,2.8-2.1,5.67-4.1,8.41-6.28,2.18-1.74,3.65-3.96,4.28-6.8,.84-3.75,.91-7.51,.78-11.29-.07-2.04-.36-4.08-.46-6.14,.56,.94,.65,2.01,.73,3.04,.17,2.34,.25,4.68,.37,7.02,.14,2.9-.23,5.76-.79,8.6-.35,1.79-1.37,3.25-2.55,4.58-1.72,1.93-3.8,3.39-5.95,4.82-3.3,2.2-6.46,4.6-9.68,6.92-.29,.21-.62,.38-.88,.62-.38,.37-.8,.74-1.04,1.2-.59,1.11-1.14,2.21-2.17,3.04-.48,.39-.68,1.14-1,1.72h0Z"/><path class="d" d="M91.39,42.79c1.08-1.11,2.15-2.05,3.4-2.79,1.23-.72,3.97-.83,5.3,.45,.54,.52,1.16,.96,1.74,1.44-1.99,2.77-6.12,3.6-10.44,.9Zm5.54-2.4c-1.02,.54-.72,1.4-.64,2.17,.05,.44,.27,.81,1.07,.63-1.08-.85-.32-1.84-.43-2.79Z"/><path class="d" d="M64.04,86.73c-1.61,1.48-3.05,2.8-4.61,4.23-1.12-2.24-2.96-3.73-4.68-5.47,1.18-1.31,2.72-2.13,3.87-3.5l1.73,2.1c-.21,1.58,.3,2.31,1.48,1.98-.32-.45-1.24-.47-.97-1.39,1.07,.62,1.64,1.89,3.2,2.04Zm-5.99-2.19l-1.01,.18c-.49,1.44-.45,1.5,1.17,1.73l-.65,.67c1.28,.04,1.77-.2,1.77-.88,0-.27-.1-.67-.28-.76-.34-.17-.77-.16-1.22-.23l.23-.71Z"/><path class="d" d="M102.81,46.58c-.17,.06-.35,.1-.5,.18-2.03,1.02-4.02,2.11-6.08,3.06-2.13,.98-4.33,1.79-6.48,2.73-2,.87-4.1,.88-6.18,.68-1.9-.18-3.76-.65-5.64-1-.13-.02-.23-.14-.44-.27,.95-.46,1.82-.88,2.69-1.3,.68-.34,1.36-.67,2.02-1.04,.76-.42,1.23-.39,1.83,.22,.33,.33,.62,.7,1,1.13,.48-.47,.95-.91,1.38-1.36,.49-.51,.99-.67,1.73-.51,1.3,.27,2.64,.42,3.97,.52,1.98,.15,3.87-.33,5.68-1.12,1.89-.82,3.82-1.54,5.43-2.87,.78-.64,1.57-1.28,2.02-2.22,.08-.16,.19-.3,.38-.38-.19,1.18-.98,1.94-1.81,2.66-.35,.3-.68,.62-1.02,.93l.04-.04Zm-14.48,5.67c1.14,.05,1.26-.91,1.77-1.48l-.09,.97,.28,.21,1.02-1s0,.18,0,.5c.58-.27,1.04-.48,1.03-1.19-1.43-.21-2.81-.38-4.17-.64-.68-.13-1.08,.1-1.48,.58-.49,.6-1.02,1.17-1.59,1.82,.06,.28,.01,.76,.65,.78,.62,.02,.78-.4,.9-.88,.07-.26,.12-.52,.17-.79,.16,.24,.16,.46,.15,.69,0,.27-.03,.53-.04,.79,.7,0,1-.32,1.12-.89,.1-.46,.26-.91,.39-1.37l.19,.05-.33,1.86Zm-6.02-2.01c.12,.9,.44,1.71,1.04,2.4,.09,.11,.38,.04,.66,.07-.15-.33-.27-.54-.36-.77-.08-.22-.13-.46-.19-.69,.49,.42,.5,1.13,1.17,1.39,.2-1.15-.14-1.87-1.13-2.54-.44-.3-.8-.21-1.19,.16Zm-.94,1.21q.47,1.12,1.32,1.06l-.77-2.19c-.96,.57-2.02,.83-2.84,1.6,.4,.1,.78,0,1.13,.06,.34,.06,.66,.28,1.03,.45l.13-.98Zm11.54-.64l1.14-.55q-.98-.09-1.14,.55Z"/><path class="d" d="M83.62,67.15c-.96-.19-1.87-.36-2.77-.57-.38-.09-.74-.26-1.11-.4,.38-2.24,.76-4.42,1.16-6.75l3.14,.4c.38,2.51-.11,4.87-.41,7.31Z"/><path class="d" d="M84.88,60.11l3.07,.25-.19,7.34c.33,.34,.74,.91,.75,1.75-.39-.56-.67-1.11-1.09-1.52-.44-.42-1.03-.63-1.77-.27v2.38h-.23l-.14-2.44-1.07-.32c.21-2.32,.43-4.63,.66-7.17Z"/><path class="d" d="M92.53,65.98l-1.65,.72c.41,.68,1.3,.98,1.45,1.87-.87-.94-1.68-1.95-3.35-1.43l1.03,1.13-.13,.14c-.39-.34-.84-.64-1.16-1.04-.2-.25-.29-.65-.29-.98,0-1.77,.05-3.54,.05-5.31,0-.4,.17-.62,.52-.71,.49-.13,.98-.24,1.48-.34,.87-.18,.93-.17,1.11,.68,.27,1.27,.48,2.55,.71,3.83,.08,.42,.15,.85,.25,1.44Z"/><path class="d" d="M74.49,80.99c-4.37,3.22-8.73,6.26-12.04,10.5l-1.91-.76c.43-.4,.85-.81,1.28-1.21,.45-.42,.9-.83,1.36-1.24,1.69-1.51,3.38-3.02,5.06-4.53,.08-.07,.13-.19,.22-.23,1.52-.64,2.56-1.94,3.86-2.87,.83-.6,1.37,.05,2.17,.34Z"/><path class="d" d="M149.34,123.91c-.21-.8-.41-1.6-.64-2.39-.35-1.22-1.15-2.05-2.27-2.6-.3-.15-.75-.17-.65-.82,.31-.01,.66-.11,.98-.03,1.5,.33,3,.72,4.5,1.07,1.43,.34,2.86,.66,4.27,.99-.09,.05-.27,.19-.47,.29-1.74,.86-3.47,1.75-5.23,2.56-.49,.23-.44,.58-.51,.96l.02-.02Z"/><path class="d" d="M77.3,68.71c.07-1.27,.81-2.11,1.79-2.78-1.14-1.27-1.23-1.26-2.77,.39,.08-.81,.64-1.16,1.16-1.63l-1.09-1.29c.45-1.74,.9-3.47,1.36-5.26,.88,.19,1.55,.67,2.23,1.1,.16,.1,.24,.43,.24,.65,0,.39-.05,.79-.11,1.18-.26,1.56-.54,3.12-.82,4.68-.04,.2-.08,.47-.22,.56-.89,.59-1.38,1.45-1.77,2.39Z"/><path class="d" d="M63.28,111.74c.29-.04,.59-.14,.86-.09,1.38,.22,2.77,.43,4.14,.74,3.17,.72,6.4,1.05,9.61,1.47,2.39,.31,4.77,.77,7.15,1.16,.42,.07,.84,.16,1.27,.24-.6,1.2-1.01,1.33-2.17,1.04-2.48-.62-4.98-1.19-7.48-1.71-3.64-.74-7.29-1.42-10.94-2.12-.8-.15-1.61-.27-2.42-.4v-.34Z"/><path class="d" d="M75.85,24.3c1.2-1.93,2.54-3.8,4.68-4.76,2.64-1.18,5.32-1.33,7.75,.63,.58,.47,1.11,1.01,1.68,1.5,.65,.56,1.33,1.1,2.07,1.72l-.34,.59c.39,.44,.75,.47,1.07,0,.29-.43,.37,.02,.79-.01-.66,.51-1.16,.8-1.54,1.2-.81,.87-1.59,1.77-2.33,2.7-1.02,1.29-2.15,2.41-3.75,2.98-1.55,.55-2.85,.03-4.08-.9,.44,.08,.9,.13,1.33,.26,1.76,.5,3.31-.05,4.67-1.09,.94-.72,1.79-1.57,2.26-2.72,.09-.23,.21-.53,.4-.63,.75-.37,.67-1.07,.75-1.67l-1.52-1.26,.44-.36c-.6-.63-1.12-1.34-1.79-1.85-3.01-2.28-7.19-1.92-9.81,.82-.65,.67-1.21,1.42-1.81,2.14-.25,.3-.49,.61-.73,.92l-.18-.2Z"/><path class="d" d="M97.33,56.82l2.22-2.19c.31,.53,.56,.91,.77,1.31,.29,.54,.55,1.09,.84,1.63,.32,.59,.61,1.18,1.44,1.27,.34,.04,.65,.39,.88,.77-.28-.16-.55-.33-.84-.46-.89-.42-1.33-.27-1.83,.67,.66,.11,1.39,.07,1.9,.86-1.33-.56-2.48-.55-3.39,.71-.6-.71-.76-1.53-1.09-2.27-.32-.72-.58-1.47-.91-2.3Z"/><path class="d" d="M105.27,92.41c.13-.52,.19-1.06,.4-1.54,.57-1.28,2.28-1.52,3.25-.49,.76,.81,1.04,2.69,.54,3.67-.39,.76-1.18,1.01-1.87,1.35-.21,.1-.69-.15-.95-.35-.87-.66-1.19-1.38-1.36-2.64Zm2.85,2.32c.04-.48,.15-.89,.06-.94-.54-.28-.44-.61-.22-1.04,.05-.1-.11-.31-.18-.47-.07-.16-.24-.4-.18-.48,.43-.63-.17-.81-.48-1.14-.09,.35-.17,.73-.03,1,.19,.35,.14,.65,.16,1,.03,.51,.46,.96,.26,1.55-.02,.07,.28,.25,.61,.53Z"/><path class="d" d="M93.53,58.8c1.16,1.73,1.61,3.63,2.32,5.46-.23,.14-.41,.25-.59,.36-.15,.09-.3,.19-.48,.31l1.03,1.23c-.75-.24-1.16-1.37-2.27-.61,.34,.2,.7,.34,.94,.59,.27,.27,.43,.64,.5,1.08-.14-.16-.27-.34-.43-.49-.2-.2-.39-.51-.62-.56-.82-.15-.98-.75-1.1-1.41-.28-1.52-.54-3.04-.86-4.56-.09-.44,.03-.69,.4-.87,.35-.17,.71-.33,1.14-.53Z"/><path class="d" d="M3.83,143.11c-.14,0-.32,.08-.42,.02-.61-.36-1.22-1.88-1.06-2.58,.15-.64,.68-1.02,1.36-.88,1.26,.25,2.38,.79,3.22,1.8,.07,.08,.13,.17,.19,.26,.43,.69,.46,1.65,.08,2.14-.39,.5-1.46,.74-2.19,.47-.3-.11-.59-.27-.88-.39-.43-.17-.4-.51-.32-.86,.81-.1,1.07-.25,1.58-1.02-.52,.35-1.04,.69-1.56,1.04Zm2.79-.16l-.17-.22-1.4,1.05,.15,.2,1.42-1.03Zm-2.17-1.36l-.12-.16-.79,.56,.12,.17,.79-.57Z"/><path class="d" d="M88.15,56.58c-.06-1.04-.12-1.99-.18-2.94l4.37-1.45c.58,.77,.63,1.63,.77,2.47,.07,.4-.2,.6-.53,.71-1.12,.36-2.25,.7-3.38,1.04-.27,.08-.56,.1-1.04,.18Z"/><path class="d" d="M82.98,57.18l.22-3.13,4.17-.32,.25,2.93c-1.49,.3-2.91,.77-4.64,.51Z"/><path class="d" d="M78.26,56.22c.09-1.14,.18-2.14,.27-3.26l4.03,1.03c.16,.95-.19,1.88-.35,2.81-.08,.48-.51,.47-.87,.36-1-.29-1.98-.61-3.09-.95Z"/><path class="d" d="M63.04,95.95c.33,.17,.61,.24,.75,.42,.57,.74,1.14,1.48,1.63,2.28,1.34,2.16,3.31,3.49,5.64,4.29,1.39,.48,2.85,.77,4.27,1.14,.12,.03,.24,.1,.52,.21-.29,.13-.44,.24-.58,.25-2.92,.19-5.55-.52-7.86-2.38-1.27-1.02-2.21-2.2-2.79-3.75-.31-.84-.97-1.54-1.58-2.47Z"/><path class="d" d="M156.8,106.86c.23,0,.48-.01,.73,0,1.76,.12,1.9-.17,2.1,2.18,.08,1.04,.12,2.08,.18,3.13-2.83-.23-4.23-2.69-3.01-5.31Zm1.41,4.22c.6-1.06,.72-1.74,.5-2.78l-.5,2.78Zm.03-3l-.27-.14-.55,2.19,.26,.07,.56-2.12Z"/><path class="d" d="M97.41,50.01c.06,.34,.06,.54,.13,.69,.56,1.16,.17,1.94-.9,2.56-.93,.54-1.78,1.23-2.91,1.5l-.59-2.68c1.37-.66,2.78-1.35,4.26-2.07Z"/><path class="d" d="M104.38,54.81l-.81,.76,1.74,1.06-.09,.16c-.37-.19-.73-.39-1.11-.57-.45-.21-.81-.17-1.11,.3-.27,.42-.61,.8-1.04,1.35-.63-1.17-1.2-2.23-1.81-3.35l1.96-2.14c.78,.86,1.51,1.66,2.24,2.45l.03-.03Z"/><path class="d" d="M3.26,138.99c.35-.18,.52-.35,.69-.35,2.51,.05,4.65,1.85,5.07,3.66,.35,1.5-.09,2.57-1.58,2.91-.84,.19-1.77-.02-2.66-.08-.13,0-.24-.2-.32-.27,.6,0,1.21,.08,1.79-.02,1.32-.22,1.94-1.24,1.6-2.54-.32-1.22-1.2-1.94-2.25-2.47-.67-.33-1.4-.52-2.35-.85Z"/><path class="d" d="M81.68,141.67c.32,.32,.65,.62,.95,.95,1.15,1.32,2.45,2.44,4.15,3.01,.06,.02,.1,.1,.2,.22-1.12,.4-2.2,.79-3.38,1.21l-.33-2.68h-.23c-.08,1.04,.39,2.11-.08,3.38-.42-2.21-.36-4.27-1.25-6.11l-.03,.03Z"/><path class="d" d="M74.97,79.23c-.76,.2-.29,.7-.22,1.15-1.58-.27-2.25-1.52-3.01-2.6-.72-1.02-1.25-2.17-1.75-3.41l2.39,1.23c.34,1.27,1.03,2.47,2.11,3.41,.12,.11,.31,.14,.46,.21h.01Z"/><path class="d" d="M97.81,49.76c.74-.38,1.35-.67,1.94-1.01,.56-.32,1.09-.69,1.63-1.03,.79,1.15,.78,1.58-.24,2.35-.79,.6-1.68,1.09-2.67,1.73l-.67-2.04Z"/><path class="d" d="M104.4,50l1.97,1.09c-.37,0-.72,.24-.9,.81-.21,.64-.55,1.25-.83,1.87-1.06-.09-1.35-.95-1.83-1.59-.06-.08-.04-.31,.03-.4,.47-.67,.89-1.4,1.57-1.78Z"/><path class="d" d="M102.1,93.22c-.22-2.55,1.23-4.08,3.56-3.79-.28,.47-.57,.89-.79,1.35-.23,.48-.4,1-.63,1.58-.86-.23-1.51,.23-2.14,.86Z"/><path class="d" d="M89.57,25.8c-3.05,3.63-8.34,3.27-10.93,.77,1.79,.75,3.57,1.56,5.57,1.35,1.98-.2,3.66-1.2,5.36-2.12Z"/><path class="d" d="M54.63,109.99c-.2-.05-.41-.07-.6-.14-1.98-.72-3.96-.66-5.94-.03-.38,.12-.45-.02-.67-.24-.13-.14-.52-.03-.83-.03,.43-.55,1.27-.86,2.84-1.03,1.91-.21,3.74-.09,5.2,1.48Z"/><path class="d" d="M136.09,92.37c.93-1.13,1.95-2.2,2.78-3.41,.82-1.19,1.44-2.52,2.21-3.89,.4,.54,.29,.96,.14,1.34-.57,1.45-1.26,2.82-2.51,3.84-.86,.7-1.66,1.47-2.49,2.21l-.12-.1Z"/><path class="d" d="M102.77,46.62c.47-.3,.94-.6,1.41-.91,.35-.24,.69-.49,1.02-.73,.46,.4,.58,.76,.16,1.16-.9,.87-1.81,1.73-2.82,2.7l-.45-1.4c.28-.33,.5-.6,.72-.86l-.04,.04Z"/><path class="d" d="M78.65,22.93c-.31,.38-.69,.73-.92,1.16-.35,.64-1.3,.92-1.13,1.89,.02,.09-.27,.24-.51,.46,2.08,.53,3.36,2.05,4.88,3.3-.35-.1-.75-.11-1.03-.31-1.33-.92-2.62-1.88-3.92-2.83-.08-.06-.14-.16-.22-.25l.07-.91,2.65-2.63,.13,.12Z"/><path class="d" d="M135.06,93.03c-.89,2.11-2.82,2.85-4.68,3.68,1.35-1.49,3.5-1.95,4.68-3.68Z"/><path class="d" d="M106.47,48.97l-.54,1.27c-1.29-.74-1.24-1.34,.19-2.27,.61,.18,.38,.63,.34,1.03l.02-.03Z"/><path class="d" d="M101.11,43.54c-1.35,1.62-4.05,2.38-5.59,1.71,.93-.13,1.92-.16,2.84-.44,.9-.27,1.72-.78,2.75-1.27Z"/><path class="d" d="M71.75,46.99c.92,.05,1.75,.2,2.56,.1,.78-.1,1.52-.45,2.4-.73-1.29,1.18-3.41,1.43-4.96,.63Z"/><path class="d" d="M79.7,21.81c1.07-1.4,2.64-1.76,5.04-1.52-1.94,.03-3.51,.7-5.04,1.52Z"/><path class="d" d="M110.35,91.81c-.5-1.27-1.19-2.37-2.51-2.95,1.51,0,2.51,1.17,2.51,2.95Z"/><path class="d" d="M129.29,126.6c-.63-.67-1.25-1.34-1.87-2.02-.25-.27-.13-.5,.12-.78,.97,.72,1.39,1.73,1.75,2.8Z"/><path class="d" d="M151.88,101.75c-.32-1.38-.64-2.77-.96-4.15,.84,1.25,1.13,2.64,.96,4.15Z"/><path class="d" d="M129.9,130.58c-.49-.87-.69-1.76-.4-2.75,.52,.53,.66,1.34,.4,2.75Z"/><path class="d" d="M133.16,135.35l1.89-2.34c-.05,.89-.89,2.01-1.89,2.34Z"/><path class="d" d="M107.1,96.16c-1.07-.14-1.44-.41-1.99-1.45,.31,.25,.61,.51,.92,.74,.34,.25,.71,.48,1.06,.71Z"/><path class="d" d="M72.73,38.96c-1.14,.08-2.13,.04-3.03-.55l3.03,.55Z"/><path class="d" d="M125.84,47.99l-2.04-.8c.62-.47,1.1-.29,2.04,.8Z"/><path class="d" d="M82.04,67.58l-.58,2.34c-.18-1.56,0-2.1,.58-2.34Z"/><path class="d" d="M79.48,69.7c-.07-1.04,.1-1.98,1.05-2.58-.22,.42-.48,.83-.66,1.27-.17,.42-.26,.87-.39,1.31Z"/><path class="d" d="M78.27,104.09c.38-.46,.78-.49,1.28-.21-.56,.65-.58,.66-1.28,.21Z"/><path class="d" d="M116.47,47.43c.44-.46,.79-.62,1.34-.34-.33,.53-.68,.68-1.34,.34Z"/><path class="d" d="M129.11,133.77l.62-1.8c.11,.92,.09,.98-.41,1.85l-.21-.05Z"/><path class="d" d="M94.01,68.12q-.67-1.24-1.41-1.64c.84-.15,1.2,.24,1.41,1.64Z"/><path class="d" d="M63.63,75.86c-.05,.44-.1,.89-.16,1.33-.03,.22-.06,.43-.12,.86-.31-.9-.23-1.31,.28-2.19h0Z"/><path class="d" d="M83.98,67.33l-.41,2.64c-.18-1.01-.25-1.75,.41-2.64Z"/><path class="d" d="M63.63,75.86c-.26-.91,.16-1.65,.65-2.37-.22,.79-.43,1.58-.65,2.37h0Z"/><path class="d" d="M95.71,64.71c.8,.16,1.18,.73,1.47,1.4l-1.47-1.4Z"/><path class="d" d="M128.81,97.65l-.37-.68,.79-.69,.14,.09-.56,1.28Z"/><path class="d" d="M101.05,62.2l-1.85-.56c.73-.14,1.29-.09,1.85,.56Z"/><path class="d" d="M95.34,105l.13-1.52,.25,.03-.2,1.51h-.18Z"/><path class="d" d="M66.58,32.9l-.72,1.37-.2-.1,.69-1.39,.24,.12Z"/><path class="d" d="M69.54,29.97l1.42-.49,.06,.18-1.41,.51-.07-.19Z"/><path class="d" d="M57.85,80.43l.46,1.18q-.46-.3-.46-1.18Z"/><path class="d" d="M103.91,57.94l-.98-.47,.08-.18,.99,.46-.09,.19Z"/><path class="d" d="M72.71,29.46l-.84,.06-.04-.2,.83-.22,.05,.35Z"/><path class="d" d="M96.88,70.43l1.12,.31q-.67,.16-1.12-.31Z"/><path class="d" d="M103.58,93.04c.5-.15,.83,0,1.02,.7l-1.02-.7Z"/><path class="d" d="M74.95,79.23l.56,1.16q-.67-.5-.55-1.16h0Z"/><path class="d" d="M105.71,52.97l.73,.16-.05,.2-.72-.18,.04-.18Z"/><path class="d" d="M76.41,48.07l.46-.12,.05,.29-.47,.05-.04-.22Z"/><path class="d" d="M75.24,25.57c-.17,.16-.3,.32-.34,.31-.13-.05-.23-.18-.32-.29-.02-.03,.11-.22,.14-.21,.14,.03,.28,.1,.51,.2Z"/><path class="d" d="M86.38,20.55l-.56-.2,.04-.15,.62,.14-.09,.21Z"/><path class="d" d="M106.39,88.91l.59-.18,.06,.16-.54,.27-.11-.24Z"/><path d="M42.83,147.49c-1.26,1.15-1.84,2.62-2.32,4.03-.56-.13-.99-.32-1.42-.33-3.85-.01-7.62-.69-11.39-1.36-4.63-.81-9.2-1.88-13.71-3.15-2.34-.66-2.48-.73-2.76-3.43-.03-.32-.02-.65,0-.97,.03-1.12,.07-1.21,1.22-1.38,1.11-.16,2.23-.31,3.34-.32,4.46-.03,8.85,.39,13.23,1.35,3.07,.67,5.91,1.85,8.79,3.01,1.47,.59,2.78,1.46,4.26,2.02,.25,.1,.46,.3,.79,.52Zm-16.74,1.52c.57-2.08,.75-4.08,.51-6.18l-2.87-.54c-.3,2.16-.04,4.19-.12,6.28l2.47,.44Zm4.19-5.35c-.98-.16-1.94-.58-2.91-.58l-.65,5.98c.79,.18,1.57,.47,2.38,.34,.95-2,1.46-4.45,1.17-5.73Zm-9.5-1.75c-.04,.72-.11,1.36-.11,1.99,0,1.11,.02,2.23,.1,3.34,.02,.26,.25,.64,.48,.73,.55,.22,1.16,.31,1.85,.48v-6.23l-2.32-.3Zm11.93,8.02c.83,.11,1.63,.37,2.5,.22,.25-1.14,.49-2.18,.69-3.24,.07-.35,.08-.72,.02-1.07-.04-.21-.22-.47-.41-.55-.66-.26-1.34-.44-2.03-.66-.26,1.81-.51,3.5-.76,5.3Zm-.5,.01c.21-1.45,.42-2.75,.59-4.06,.2-1.52,.18-1.52-1.29-1.9-.15-.04-.32-.05-.37-.06l-1.42,5.72,2.49,.3Zm-11.99-2.33v-5.88l-1.97-.11c-.35,1.48-.23,2.83-.08,4.19,.19,1.8,0,1.53,1.93,1.86,.03,0,.06-.03,.13-.06Zm16.36-1.98l-.85,4.65c.54,.07,1.04,.18,1.52,.16,.23,0,.55-.21,.65-.41,.54-1.06,.89-2.18,.88-3.5l-2.21-.89Zm-20.78-3.98c-.21,1.47-.29,2.83-.05,4.19,.07,.39,.12,.8,.58,.95,.44,.13,.88,.24,1.4,.38l-.19-5.52h-1.74Zm-2.18,.05c-.04,1.56-.28,2.98,.32,4.42l1.29,.31v-4.73h-1.6Zm26.44,9.03l1.19-3.03-1.86-.87c-.17,.74-.28,1.35-.46,1.93-.17,.57-.41,1.13-.67,1.82l1.79,.14Zm-26.94-5v-4.01l-.98,.18v3.38l.98,.44Z"/><path d="M50.85,146.36c1.9-.01,3.74,.22,5.41,1.23,1.74,1.06,2.55,3.43,1.54,4.94-.53,.79-1.23,1.54-2.01,2.09-2.19,1.55-4.59,2.32-7.34,1.84-1.3-.23-2.54-.46-3.6-1.3-2.18-1.72-2.21-5.25-.04-7,1.54-1.25,3.29-1.89,5.29-1.8,.25,.01,.51,0,.76,0Zm2.85,1.09l.04,.03c-.79-.51-1.68-.59-2.58-.64-1.28-.07-2.49,.23-3.72,.56-1.14,.31-2.02,.9-2.8,1.73-2.18,2.35-.18,6.11,2.11,6.46,2.11,.33,4.19,.37,6.23-.2,1.69-.47,3.26-1.21,3.94-3.05,.06-.16,.19-.3,.32-.41,.6-.5,.66-1.18,.32-1.76-.86-1.47-1.92-2.73-3.86-2.73Z"/><path d="M67.86,134.95c-8.05,2.65-15.57,6.28-22.28,11.59,.06-.16,.08-.37,.2-.48,1.12-1.02,2.18-2.12,3.39-3.01,2.77-2.04,5.73-3.78,8.91-5.1,2.9-1.2,5.74-2.56,8.85-3.18,.27-.05,.56-.07,.83-.11l.1,.28Z"/><path d="M8.28,148.64c.22,.03,.36,0,.48,.06,1.41,.64,2.82,1.28,4.22,1.95,1.86,.88,3.75,1.69,5.72,2.29,1.45,.44,2.89,.92,4.31,1.44,3.15,1.15,6.47,1.47,9.75,1.99,3.43,.55,6.89,.73,10.36,.81,.21,0,.41,.05,.7,.08-.31,.49-.75,.4-1.1,.38-1.91-.07-3.84-.06-5.73-.31-3.76-.48-7.51-1.03-11.24-1.72-1.72-.32-3.38-1.01-5.06-1.54-.41-.13-.81-.31-1.23-.43-1.98-.58-3.91-1.28-5.78-2.15-1.73-.81-3.44-1.67-5.15-2.52-.08-.04-.12-.16-.24-.34Z"/><path d="M10.57,138.22c.16-.34,.31-.68,.49-1.01,1.28-2.36,3.12-4.23,5.21-5.87,.6-.47,1.22-.9,1.81-1.37,2.31-1.84,4.92-3.13,7.65-4.21,.13-.05,.27-.11,.4-.15,.06-.02,.14,.01,.39,.04-.59,.54-1.26,.64-1.83,.93-.61,.31-1.24,.58-1.85,.9-.6,.33-1.18,.69-1.76,1.06-.58,.37-1.16,.74-1.71,1.13-.56,.4-1.1,.82-1.62,1.26-.53,.44-1.03,.91-1.53,1.37-.5,.46-1.01,.93-1.49,1.42-.48,.49-.96,.98-1.4,1.5-.44,.52-.84,1.08-1.27,1.62-.41,.51-.83,1.01-1.25,1.52l-.25-.15Z"/><path d="M40.76,152.31c-1.28-.12-2.57-.22-3.85-.36-3.65-.41-7.32-.76-10.96-1.29-2.24-.33-4.44-.93-6.65-1.46-1.37-.33-2.72-.71-4.06-1.14-1.21-.39-2.4-.87-3.55-1.45,9.37,3.58,19.21,4.52,29.08,5.34v.36Z"/><path d="M26.94,140.43c-.03-.23-.08-.46-.1-.69-.02-.25,0-.5,0-.72-1.4-1.04-1.79-1.82-1.4-2.74,.39-.92,1.02-1.3,1.95-1.18,1.14,.15,1.78,.73,1.9,1.73,.13,1.14-.38,1.84-1.72,2.37l-.29,1.28-.34-.05Zm-.17-4.88c0,1.01,.01,1.84,.39,2.76,.51-.83,.94-1.55,1.06-2.47l-1.44-.29Zm1.96,.95c-.56,.61-.84,1.24-.96,2.08,1.05-.62,1.14-.84,.96-2.08Zm-2.45-.55c-.71,1.09-.62,1.54,.29,2.04l-.29-2.04Z"/><path d="M80.04,139.03c-.22-.08-.46-.14-.66-.26-1.15-.63-2.39-.78-3.67-.65-2.88,.28-5.22,1.64-7.13,3.72-1.97,2.15-3.41,4.65-4.34,7.43-.04,.13-.11,.24-.36,.3,.19-.6,.31-1.24,.57-1.81,1.47-3.22,3.26-6.23,6.32-8.21,2.45-1.58,5.09-2.39,8.01-1.42,.47,.15,.89,.43,1.34,.65l-.09,.25Z"/><path d="M113.72,136.14c-.73-.47-.7-.96-.75-1.39-.12-1.14-.17-2.3-.32-3.44-.17-1.28-.41-2.55-.61-3.83-.12-.74-.12-.74,.39-1.44,.74,1.62,.57,3.31,.78,4.95,.2,1.64,.37,3.28,.52,5.15Z"/><path d="M110.36,136.51c-3.6,1.44-7.19,2.88-10.79,4.31-.25,.1-.53,.12-.89,.19,.08-.21,.1-.33,.16-.39,.1-.1,.22-.2,.35-.24,3.77-1.19,7.24-3.18,11.09-4.12l.08,.25Z"/><path d="M115.89,134.63c.97-.81,6.99-2.24,8.62-2.2-.3,.16-.46,.28-.64,.33-2.04,.58-4.07,1.17-6.12,1.7-.59,.15-1.24,.11-1.86,.16Z"/><path d="M70.68,123.43l4.45-1.35,.06,.19c-1.48,.46-2.95,.92-4.43,1.37l-.08-.21Z"/><path d="M72.58,114.67l2.97,.92c-.9,.17-1.96-.11-3.01-.67l.03-.25Z"/><path d="M69.71,118.26l2.35-.49,.03,.16-2.35,.5-.03-.16Z"/><path d="M72.71,120.26c-.42,.59-1.12,.49-1.72,.62l1.74-.61-.02-.02Z"/><path d="M72.73,120.28l1.3-.3,.03,.19c-.44,.03-.89,.07-1.34,.1,0,0,.01,.01,.01,.01Z"/><path d="M101.23,36.42c-.82,.07-1.65,.24-2.47,.2-2.22-.09-4.45-.17-6.59-.97-.69-.26-1.48-.23-2.22-.34-.34-.05-.67-.1-1.13-.17,.19-.36,.25-.63,.42-.77,1.21-1.02,1.96-2.38,2.8-3.68,.88-1.38,1.91-2.63,3.48-3.29,2.49-1.04,4.95-1.17,7.35,.27,.3,.18,.66,.27,.99,.4h0c.06,.54,.54,.64,.9,.87l1.53,1.98c.14,.21,.27,.42,.42,.62,.36,.5,.36,.5,.31,1.1l.71-.35c-.14,.87-.54,1.44-.92,2-.41,.59-.92,1.11-1.36,1.68-.99,1.27-2.38,1.85-3.88,2.19-2.4,.55-4.71,.21-7-.68-1.34-.53-2.75-.84-4.13-1.25-.2-.06-.38-.15-.81-.31,.4-.1,.58-.19,.76-.19,.36,.01,.72,.05,1.08,.12,1.48,.29,2.96,.6,4.45,.88,1.65,.31,3.31,.23,4.95-.11,.13-.03,.24-.14,.36-.21,1.83,.07,3.89-1.05,5.01-3-1.31,1.47-3.02,2.27-4.84,2.88-.06,.02-.1,.09-.15,.14Zm-11.32-1.84c.31,.12,.47,.21,.64,.25,1.97,.41,3.87,1.08,5.91,1.24,2.17,.17,4.25,.11,6.23-.84,1.58-.76,2.89-1.85,3.81-3.39-.5-.63-.93-1.21-1.4-1.77-1.91-2.27-4.32-3.31-7.29-2.95-1.64,.2-3.11,.84-4.13,2.14-1.31,1.67-2.48,3.45-3.79,5.31Z"/><path d="M103.85,28.07h0c-1.05-.93-2.29-1.59-3.64-1.82-2.68-.45-5.12,.09-6.93,2.3-.94,1.14-1.75,2.39-2.63,3.57-.49,.66-1.01,1.29-1.53,1.96-.24-.19-.38-.29-.52-.4l-.03,.03c.61-.34,.83-.94,1.02-1.57,.3-.96,.61-1.92,1-2.84,.79-1.88,2.11-3.33,3.87-4.38,1.6-.95,3.26-1.16,5.09-.76,2.02,.44,3.66,1.44,5.12,2.82,.1,.1,.23,.18,.31,.3,.85,1.37,1.7,2.74,2.45,4.22l-1.16-.59c-.51-.66-1.02-1.32-1.53-1.98-.3-.29-.6-.58-.9-.87Z"/><path d="M89.5,36.11c-.2-.04-.4-.06-.59-.12-.02,0,.03-.23,.05-.36l.62,.11-.09,.37Z"/><path d="M75.62,42.09c1.07,.64,2.11,1.36,3.23,1.91,2.69,1.31,5.38,.99,8.03-.19,1.27-.56,2.38-1.35,3.29-2.47-.08,.25-.12,.53-.26,.74-.72,1.07-1.4,2.17-2.2,3.18-1.57,1.99-5.88,2.55-8.24,.74-.92-.71-1.81-1.42-2.52-2.35-.29-.38-.73-.65-1.06-1.01-.13-.14-.16-.38-.24-.58l-.03,.03Zm2.73,2.22c1.35,1.43,3.98,2.32,5.23,1.79-1.84-.11-3.39-1.08-5.23-1.79Z"/><path d="M79.75,43.94c.13-.7,.52-.54,.87-.52,1.01,.06,2.01,.14,3.02,.17,1.61,.05,2.98-.55,4.1-1.66,.71-.71,1.34-1.5,2.13-2.38-1.52-.93-2.84-1.98-4.34-2.58-1.85-.74-3.75-.5-5.45,.73-1.46,1.06-2.61,2.35-3.37,3.95,.89,.57,1.76,1.11,2.61,1.67,.03,.02-.05,.19-.11,.44l-3.08-1.82c.03-.18,.02-.34,.09-.45,1.02-1.52,1.97-3.11,3.55-4.16,1.73-1.15,3.59-1.54,5.56-.76,1,.4,1.94,.95,2.88,1.47,.75,.41,1.46,.89,2.17,1.33-.63,2.23-2.16,3.53-4.16,4.3-2.09,.81-4.24,1.12-6.47,.27Z"/><path d="M83.78,42.59c-1.5-1.39-1.87-3.73-.87-4.98,.39,.56-.06,1.11,.04,1.64,.1,.56,.19,1.12,.28,1.68,.09,.52,.76,.85,.55,1.66Z"/><path d="M73.38,45.71c-.73-.17-.77-.75-.82-1.3-.06-.62-.18-1.3,.59-1.62,.08,.97,.15,1.9,.23,2.92Z"/><path d="M75.81,149.57c-.06,.25-.14,.71-.31,1.14-.24,.58-.73,.84-1.27,.79-.62-.06-1.01-.43-1.17-1.07-.17-.64,.01-1.21,.33-1.74,.35-.6,.95-.89,1.53-.75,.55,.13,.91,.69,.91,1.64Zm-.53,.07c0-.28,.04-.41,0-.49-.15-.26-.28-.6-.52-.71-.15-.07-.59,.15-.68,.34-.21,.47-.33,1-.4,1.51-.04,.35,.22,.59,.6,.62,.35,.03,.66-.05,.78-.41,.11-.33,.17-.69,.22-.87Z"/><path d="M83.85,26.4c-.14-.06-.33-.07-.42-.17-.92-.99-.98-2.19-.72-3.42,.03-.16,.33-.26,.51-.39,.08,.14,.26,.31,.23,.42-.36,1.19,.01,2.26,.51,3.31,.02,.04-.05,.13-.11,.26Z"/><path d="M67.86,78.77l.88-.77c-.14-.34-.32-.43-.58-.19-.29,.26-.63,.45-.96,.16-.39-.34-.26-.77-.03-1.18,.14-.24,.25-.5,.4-.8l1.11-.18-.36,.8c.26,.05,.48,.11,.71,.14,.39,.06,.74,.25,.74,.65,0,.33-.14,.77-.37,.94-.41,.3-.94,.42-1.42,.61l-.12-.2Zm-.42-1.26l.17,.1c.15-.17,.31-.32,.42-.51,.02-.04-.14-.19-.3-.41l-.29,.81Z"/><path d="M63.69,80.57c1-.35,1.93,.18,2.37,1.22,.35,.83,.09,1.5-.98,2.24,.21-.79,1.04-1.35,.5-2.19-.45-.71-.99-1.23-1.9-1.27Z"/><path d="M70.33,32.07c-.87,1.73-.68,3.21,.34,4.65-.79-.15-1.43-1.21-1.55-2.41-.13-1.23,.15-1.82,1.21-2.24Z"/><path d="M96.94,40.38c.11,.95-.65,1.95,.43,2.79-.8,.19-1.02-.18-1.07-.63-.08-.77-.38-1.62,.64-2.17Z"/><path d="M58.04,84.54l-.23,.71c.45,.07,.88,.06,1.22,.23,.18,.09,.28,.5,.28,.76,0,.67-.48,.92-1.77,.88l.65-.67c-1.62-.23-1.66-.29-1.17-1.73l1.01-.18Zm.59,1.73l.18-.07-.19-.46c-.06,.02-.17,.07-.17,.07,.05,.16,.12,.31,.18,.47Z"/><path d="M88.33,52.25l.33-1.86-.19-.05c-.13,.46-.29,.9-.39,1.37-.12,.57-.42,.9-1.12,.89,.01-.26,.03-.53,.04-.79,0-.22,0-.44-.15-.69-.06,.26-.11,.53-.17,.79-.12,.47-.28,.89-.9,.88-.64-.02-.59-.5-.65-.78,.57-.65,1.1-1.22,1.59-1.82,.39-.49,.8-.72,1.48-.58,1.36,.27,2.75,.43,4.17,.64,.01,.72-.45,.92-1.03,1.19,0-.32,0-.54,0-.5l-1.02,1-.28-.21,.09-.97c-.52,.57-.63,1.53-1.77,1.48Z"/><path d="M82.31,50.24c.4-.37,.76-.46,1.19-.16,.99,.68,1.33,1.4,1.13,2.54-.66-.26-.68-.97-1.17-1.39,.06,.23,.11,.47,.19,.69,.08,.23,.21,.45,.36,.77-.29-.02-.57,.04-.66-.07-.6-.69-.93-1.5-1.04-2.4Z"/><path d="M81.37,51.44l-.13,.98c-.37-.17-.69-.39-1.03-.45-.35-.06-.73,.04-1.13-.06,.82-.77,1.88-1.03,2.84-1.6l.77,2.19q-.84,.06-1.32-1.06Z"/><path d="M92.91,50.8q.16-.64,1.14-.55l-1.14,.55Z"/><path d="M108.11,94.73c-.33-.28-.63-.46-.61-.53,.2-.58-.23-1.04-.26-1.55-.02-.35,.02-.65-.16-1-.14-.26-.06-.65,.03-1,.31,.33,.91,.52,.48,1.14-.05,.08,.12,.31,.18,.48,.06,.16,.23,.37,.18,.47-.22,.43-.32,.76,.22,1.04,.08,.04-.03,.46-.06,.94Z"/><path d="M6.62,142.94l-1.42,1.03-.15-.2,1.4-1.05,.17,.22Z"/><path d="M3.83,143.11l1.56-1.04c-.52,.76-.77,.91-1.58,1.02l.02,.02Z"/><path d="M4.45,141.58l-.79,.57-.12-.17,.79-.56,.12,.16Z"/><path d="M158.21,111.08l.5-2.78c.22,1.04,.1,1.72-.5,2.78Z"/><path d="M158.24,108.08l-.56,2.12-.26-.07,.55-2.19,.27,.14Z"/><path class="d" d="M26.09,149l-2.47-.44c.07-2.09-.19-4.12,.12-6.28l2.87,.54c.24,2.1,.06,4.1-.51,6.18Z"/><path class="d" d="M30.29,143.65c.28,1.29-.22,3.73-1.17,5.73-.81,.13-1.59-.16-2.38-.34l.65-5.98c.98,0,1.93,.42,2.91,.58Z"/><path class="d" d="M20.78,141.9l2.32,.3v6.23c-.69-.17-1.3-.26-1.85-.48-.23-.09-.46-.47-.48-.73-.08-1.11-.1-2.22-.1-3.34,0-.63,.07-1.27,.11-1.99Z"/><path class="d" d="M32.72,149.92c.26-1.8,.5-3.49,.76-5.3,.69,.22,1.38,.41,2.03,.66,.18,.07,.37,.34,.41,.55,.06,.35,.05,.72-.02,1.07-.2,1.05-.44,2.1-.69,3.24-.86,.15-1.66-.11-2.5-.22Z"/><path class="d" d="M32.21,149.93l-2.49-.3,1.42-5.72c.05,0,.21,.02,.37,.06,1.47,.37,1.49,.38,1.29,1.9-.17,1.31-.38,2.61-.59,4.06Z"/><path class="d" d="M20.22,147.6c-.07,.03-.1,.06-.13,.06-1.92-.33-1.73-.06-1.93-1.86-.15-1.36-.27-2.71,.08-4.19l1.97,.11v5.88Z"/><path class="d" d="M36.58,145.62l2.21,.89c0,1.32-.34,2.44-.88,3.5-.1,.2-.42,.41-.65,.41-.49,.02-.98-.09-1.52-.16l.85-4.65Z"/><path class="d" d="M15.8,141.64h1.74l.19,5.52c-.52-.14-.96-.25-1.4-.38-.46-.14-.51-.55-.58-.95-.25-1.36-.16-2.72,.05-4.19Z"/><path class="d" d="M13.63,141.69h1.6v4.73l-1.29-.31c-.59-1.44-.36-2.86-.32-4.42Z"/><path class="d" d="M40.07,150.72l-1.79-.14c.26-.69,.5-1.25,.67-1.82,.17-.58,.28-1.19,.46-1.93l1.86,.87-1.19,3.03Z"/><path class="d" d="M13.13,145.72l-.98-.44v-3.38l.98-.18v4.01Z"/><path class="d" d="M53.7,147.45c1.93,0,3,1.25,3.86,2.73,.34,.58,.28,1.26-.32,1.76-.13,.11-.27,.26-.32,.41-.68,1.84-2.25,2.58-3.94,3.05-2.04,.57-4.12,.53-6.23,.2-2.29-.36-4.29-4.12-2.11-6.46,.77-.83,1.65-1.42,2.8-1.73,1.23-.33,2.44-.63,3.72-.56,.9,.05,1.79,.14,2.58,.64-.54-.01-1.08-.09-1.61-.03-1.15,.11-2.29,.29-3.43,.44-1.81,.22-2.9,1.37-3.63,2.91-.43,.9,.01,2.35,.81,2.91,3.15,2.21,7.13,1.69,9.79-1.01,1.56-1.59,1.06-3.56-.57-4.49-.46-.26-.93-.5-1.4-.76Z"/><path class="d" d="M26.77,135.55l1.44,.29c-.12,.92-.54,1.64-1.06,2.47-.37-.92-.39-1.75-.39-2.76Z"/><path class="d" d="M28.72,136.51c.18,1.24,.08,1.46-.96,2.08,.12-.84,.41-1.47,.96-2.08Z"/><path class="d" d="M26.27,135.96l.29,2.04c-.92-.5-1-.95-.29-2.04Z"/><path class="d" d="M89.9,34.58c1.31-1.85,2.47-3.64,3.79-5.31,1.02-1.3,2.49-1.94,4.13-2.14,2.97-.36,5.38,.68,7.29,2.95,.46,.55,.9,1.13,1.4,1.77-.92,1.54-2.23,2.63-3.81,3.39-1.98,.95-4.07,1.01-6.23,.84-2.04-.16-3.94-.83-5.91-1.24-.17-.04-.33-.13-.64-.25Zm9.93,.12c-.21-.33-.36-.52-.47-.73-.26-.5-.57-1-.75-1.53-.39-1.16-.37-2.34,.09-3.5,.11-.28,.3-.58-.02-.92-.13,.08-.28,.12-.35,.23-1.02,1.37-1,4.39,.04,5.77,.3,.4,.65,.77,1.47,.69Z"/><path class="d" d="M101.23,36.42c.05-.05,.09-.12,.15-.14,1.82-.62,3.53-1.41,4.84-2.88-1.13,1.95-3.18,3.07-5.01,3l.02,.02Z"/><path class="d" d="M103.85,28.07c.3,.29,.6,.58,.9,.87-.35-.23-.84-.33-.9-.87Z"/><path class="d" d="M78.35,44.31c1.84,.71,3.39,1.68,5.23,1.79-1.26,.53-3.88-.36-5.23-1.79Z"/><path class="d" d="M75.28,149.64c-.04,.18-.1,.54-.22,.87-.12,.36-.43,.44-.78,.41-.38-.04-.64-.27-.6-.62,.06-.52,.19-1.04,.4-1.51,.08-.19,.53-.41,.68-.34,.23,.11,.37,.45,.52,.71,.05,.08,0,.21,0,.49Z"/><path class="d" d="M67.44,77.51l.29-.81c.16,.22,.33,.37,.3,.41-.11,.19-.28,.34-.42,.51l-.17-.1Z"/><path class="d" d="M58.64,86.27c-.06-.15-.13-.31-.18-.47,0,0,.11-.05,.17-.07l.19,.46-.18,.07Z"/><path d="M53.7,147.45c.47,.25,.94,.49,1.4,.76,1.63,.93,2.13,2.91,.57,4.49-2.65,2.7-6.63,3.21-9.79,1.01-.8-.56-1.24-2.01-.81-2.91,.73-1.54,1.82-2.68,3.63-2.91,1.14-.14,2.28-.32,3.43-.44,.53-.05,1.08,.02,1.61,.03l-.04-.03Zm-7.75,5.04l-.02-.02c.04,.2,0,.5,.12,.59,.54,.42,1.07,.93,1.69,1.13,2.63,.82,5.05,.32,7.16-1.49,.82-.7,1.22-1.66,.96-2.71-.26-1.04-1.12-1.53-2.12-1.78-.14-.04-.28-.06-.42-.08-1.37-.25-2.72-.19-4.04,.32-.33,.13-.68,.22-1.02,.32-1.4,.38-2.28,1.31-2.72,2.66-.13,.41-.13,.87,.42,1.07Z"/><path d="M99.83,34.7c-.82,.08-1.16-.28-1.47-.69-1.04-1.38-1.06-4.39-.04-5.77,.08-.1,.23-.15,.35-.23,.32,.34,.13,.64,.02,.92-.46,1.16-.47,2.34-.09,3.5,.18,.53,.49,1.03,.75,1.53,.11,.21,.26,.4,.47,.73Z"/><path class="d" d="M45.95,152.49c-.55-.2-.55-.66-.41-1.07,.43-1.35,1.31-2.28,2.72-2.66,.34-.09,.69-.19,1.02-.32,1.32-.51,2.66-.56,4.04-.32,.14,.03,.28,.05,.42,.08,1,.25,1.86,.75,2.12,1.78,.26,1.06-.14,2.01-.96,2.71-2.1,1.8-4.52,2.3-7.16,1.49-.62-.19-1.16-.71-1.69-1.13-.12-.09-.09-.39-.12-.59,.71-.52,1.43-1.04,2.14-1.55,.87-.18,1.28-.41,1.9-1.16l-1.88,1.18c-.8,.39-1.61,.78-2.14,1.55Zm8.46-2.11l-.16-.22c-1.63,1.18-3.26,2.37-4.89,3.55l.16,.22,4.88-3.55Zm-1.42-.74l-.16-.18-2.47,1.73,.13,.19,2.5-1.74Zm-3.46,2.36c-1.03,.22-1.8,.71-2.2,1.34l2.2-1.34Zm2.03-2.98l-.1-.14-.56,.4,.08,.11,.58-.37Z"/><path d="M54.41,150.38l-4.88,3.55-.16-.22c1.63-1.18,3.26-2.37,4.89-3.55l.16,.22Z"/><path d="M52.99,149.64l-2.5,1.74-.13-.19,2.47-1.73,.16,.18Z"/><path d="M49.53,152l-2.2,1.34c.4-.63,1.18-1.12,2.2-1.34Z"/><path d="M48.07,150.91c-.71,.52-1.43,1.04-2.14,1.55l.02,.02c.53-.78,1.34-1.16,2.14-1.55l-.02-.02Z"/><path d="M48.09,150.93l1.88-1.18c-.62,.75-1.02,.98-1.9,1.16l.02,.02Z"/><path d="M51.56,149.02l-.58,.37-.08-.11,.56-.4,.1,.14Z"/></g></g></g></svg>