<?xml version="1.0" encoding="UTF-8"?><svg xmlns="http://www.w3.org/2000/svg" viewBox="0 0 181.4 181.4"><defs><style>.d{fill:#fff;}.d,.e,.f{stroke:#fff;stroke-miterlimit:10;stroke-width:.5px;}.g{fill:#f5eee8;}.f{fill:none;}</style></defs><g id="a"/><g id="b"><g id="c"><rect class="g" width="181.4" height="181.4" rx="14.95" ry="14.95"/><g><path d="M133.01,33.34c-1.13-1.77-2.34-3.61-3.95-5.01-.63-.55-1.27-1.22-1.8-1.87-.47-.58-1.09-1.35-1.79-1.65,.08-.23,.4-.47,.6-.63,.44-.34,.91-.68,1.41-.92,.71-.34,1.42-.69,2.13-1.04,.27-.13,.55-.31,.86-.31-.03-.41-1.87,.03-2.07,.08-.97,.23-1.88,.76-2.7,1.31-.27,.18-.52,.34-.75,.56-.12,.11-.26,.36-.41,.41-.26,.09-.75-.17-1.01-.26-.78-.28-1.6-.43-2.39-.69-1.16-.38-2.26-.91-3.48-1.05-1.26-.15-2.36-.54-3.53,.19,1.36-1.03,2.94-2.08,4.59-2.55,.78-.22,1.63-.35,2.43-.5,.44-.08,.91-.03,1.34-.12-.18-.21-.71-.26-.96-.28-.98-.07-1.93,.1-2.88,.29-1.31,.26-2.54,.68-3.7,1.37-.86,.51-1.84,.94-2.46,1.75-.12,.15-.17,.36-.28,.5-.15,.18-.4,.17-.62,.23-1.01,.28-2.05,.72-2.94,1.26-.52,.31-.95,.71-1.42,1.08-.69,.55-1.42,1.02-2.06,1.64-1.35,1.31-2.79,2.62-3.51,4.39-.11-.62,.08-1.34,.12-1.96,.06-.96,.23-1.85,.65-2.73,.38-.81,.88-1.52,1.3-2.31,.13-.25,.26-.51,.43-.74-.69,.45-1.21,1.01-1.64,1.71-.26,.42-.46,.87-.73,1.29-.33,.49-.67,.94-.89,1.5-.33,.82-.28,1.68-.44,2.53-.1,.55,0,1.02,0,1.58,0,.34,.06,.76,0,1.1-.08,.49-.75,.76-1.11,1.04-.71,.56-1.18,1.33-1.81,1.98-.23,.24-.55,.41-.75,.68-.1,.13-.1,.32-.28,.36-.24-.58,.03-1.23,.13-1.81,.19-1.03,.3-2.07,.63-3.06,.31-.93,.72-1.87,1.15-2.75,.27-.55,.69-1.07,.9-1.65-.44,.28-.94,1.05-1.18,1.51-.51,.95-.9,1.96-1.42,2.91-.77,1.39-.94,3.21-1.2,4.75-.04,.23,.03,.62-.09,.81-.15,.26-.67,.47-.98,.55-.53,.12-1.25,.09-1.79,.09-.59,0-1.16,0-1.75-.07-.7-.09-1.37-.31-2.07-.39s-1.43-.3-2.1-.6c-1.02-.45-1.95-1.13-2.76-1.87-.66-.6-1.29-1.21-2.01-1.71-.61-.42-1.35-.71-1.91-1.19,.4-.66,1.39-1,2.02-1.41,.83-.53,1.57-1.12,2.46-1.55,.75-.37,1.55-.83,2.35-1.07,.27-.08,.55-.14,.74-.35-2.08-.43-4.17,1.02-5.96,1.85-.63,.29-1.13,.53-1.57,1.04-.18,.21-.63,.82-.95,.82-.39-.66-.92-1.11-1.64-1.34-.37-.12-.72-.31-1.12-.39-.45-.1-.64-.06-.69-.5-.03-.25,.03-.5,0-.75-.02-.3-.12-.59-.18-.89-.17-.91-.01-1.83-.14-2.73-.09-.62-.49-1.12-.72-1.69-.07-.18-.13-.4-.25-.54,.02,.25,.14,.47,.16,.72,.02,.19,0,.38,0,.57,0,.64,0,1.28,0,1.91,0,.52-.03,.99-.19,1.49-.11,.35-.15,.98-.41,1.24-.48-.2-.87-.71-1.34-.98s-1-.42-1.46-.68c-.41-.23-.79-.55-1.19-.81s-.86-.58-1.31-.78c-.52-.23-1.1-.35-1.63-.56-.9-.36-1.92-.37-2.79-.81-.45-.23-.97-.37-1.38-.69-.52-.4-.76-1.09-1.07-1.65-.2-.36-.32-.73-.44-1.13-.18-.55-.22-1.14-.41-1.68-.15-.43-.39-.76-.43-1.21-.17,.25-.23,.75-.27,1.05-.07,.5-.03,1.07-.02,1.57,.02,.91,.41,1.6,.66,2.45,.09,.31,.19,.43-.12,.53-.4,.12-1.05-.09-1.44-.17-.51-.11-.99-.33-1.42-.56-1.23-.67-1.73-2.08-3.09-2.58-.78-.29-1.5-.26-2.31-.35-.31-.03-1.58-.54-1.8-.15,.53,.32,1.34,.25,1.93,.45,.31,.1,.55,.33,.85,.44,.28,.1,.5,.16,.76,.31,.34,.19,2.15,1.83,1.16,1.94-.26,.03-.7-.08-.97-.11-.41-.05-.79-.04-1.2,0-.99,.1-1.98,.2-2.95-.07-.84-.24-1.68-.29-2.53-.45-.37-.07-.72-.22-1.1-.25-.22-.02-.61,.06-.77-.05,.43,.3,.78,.57,1.27,.8,.4,.19,.83,.38,1.27,.47,.61,.12,1.32,.07,1.85,.44-.44,.32-1.03,.47-1.52,.7-.78,.37-1.56,.74-2.28,1.21-1.53,.99-3.11,1.93-4.52,3.09-.8,.66-1.54,1.4-2.34,2.06s-1.51,1.27-2.18,2.05c-.35,.41-.54,.89-.87,1.3-.45,.55-.91,1.1-1.3,1.7-.92,1.39-1.67,2.96-2.34,4.49-.26,.6-.52,1.25-.65,1.9-.09,.43-.2,.87-.23,1.31-.01,.24,.03,.49-.01,.72-.11-.13-.05-.33-.06-.5,0-.38-.07-.75-.12-1.12-.1-.89-.12-1.79-.2-2.68s-.02-1.73,.11-2.63c.06-.4,.1-.8,.24-1.18,.05-.14,.14-.21,.11-.36,.03,.45-.32,.98-.45,1.39-.17,.52-.3,1.03-.35,1.57-.11,1.15-.09,2.3-.09,3.45,0,.82,.08,1.59,.15,2.39,.03,.28,.06,.55,.07,.82s-.1,.48-.14,.74c-.29,1.89-.84,3.75-.83,5.69,0,1.11-.05,2.24,0,3.35,.03,.57,.15,1.12,.2,1.68,.01,.16,.13,.56,.08,.71-.43-.07-.78-.34-1.16-.53-.52-.26-1.02-.53-1.48-.89-.87-.68-1.27-1.67-1.66-2.66-.36,1.92,1.37,3.49,2.73,4.52,.41,.31,.82,.55,1.27,.76,.33,.16,.45,.27,.46,.67,.01,.45,0,.9,0,1.34,0,.67,.12,1.33,.15,2.01s.25,1.21,.43,1.81,.33,1.29,.46,1.93c.11,.54,.31,.98,.53,1.49,.24,.53,.41,1.06,.71,1.57,.24,.41,.51,.78,.73,1.21,.12,.24,.21,.49,.33,.73-.3,.18-.69,.19-1.01,.32-.76,.31-1.54,.81-1.91,1.56-.22,.43-.32,.91-.53,1.35-.15,.33-.3,.67-.37,1.03s-.17,.82-.1,1.17c.15-.34,.22-.69,.4-1.02,.25-.46,.59-.85,.85-1.31,.32-.57,.68-.97,1.11-1.45,.31-.35,.57-.44,1.01-.57,.21-.07,.52-.23,.73-.23,.12,0,.09-.08,.22-.02,.15,.07,.21,.59,.26,.73,.47,1.36,1.1,2.69,1.99,3.84s2.04,2.07,3.09,3.09c1.1,1.06,2.4,1.76,3.68,2.58,.55,.35,1.14,.6,1.75,.8,.72,.23,1.4,.57,2.11,.84,.67,.26,1.33,.44,2.01,.66,.43,.14,.99,.19,1.39,.4-.38,1.03-2.16,1.22-2.99,1.61-.72,.34-1.28,.63-2.1,.62-.26,0-.56-.04-.81,0,.44,.35,1.64,.26,2.17,.16s.99-.26,1.48-.41c.6-.17,1.22-.16,1.83-.29,.64-.14,1.33-.25,1.88-.56,.19-.1,.42-.22,.63-.28,.61-.19,1.37,.18,1.97,.31,1.15,.25,2.23,.9,3.38,1.25,2.35,.71,5.12,1.27,7.38-.04,1.28-.74,2.63-1.37,4.07-1.77,.88-.24,1.8-.38,2.7-.54,.46-.08,1.03-.27,1.49-.25,.35,.01,.38,.2,.32,.52-.07,.38-.37,.71-.51,1.06-.12,.3-.19,.62-.25,.94-.16,.96-.33,1.89-.15,2.86,.05,.28,.09,.47,.28,.68,.12,.13,.24,.18,.32,.35-.01-.89-.23-1.85,0-2.73,.29-1.1,.87-1.95,1.52-2.87,.53-.75,1.2-1.75,2.2-1.77,.44,0,.88-.1,1.32-.07,.41,.02,.81,.07,1.23,.07,1.17,0,2.33,.02,3.5,0,.49,0,.95-.06,1.43-.12,.41-.05,.81-.02,1.2-.12,.45-.12,.88-.19,1.34-.28,.63-.12,1.18-.41,1.82-.49,.92-.12,1.85-.25,2.77-.26,1.09-.01,2.25,0,3.33-.19,1.74-.29,3.48-.06,5.24-.04,.71,0,1.37,.26,2.08,.3,.51,.03,1.09,.17,1.59,.29,.78,.19,1.58,.44,2.3,.81,.64,.32,1.18,.83,1.6,1.41,.39,.54,.4,1.05,.4,1.7,0,.75,.1,1.58-.04,2.31-.13,.66-.58,1.2-.75,1.84,.98-.72,1.27-2.33,1.53-3.44,.15-.62,.29-1.19,.3-1.83,0-.43,.03-.89-.06-1.31-.01-.06-.16-.4-.09-.48,.24-.27,1.23,.3,1.46,.37,.61,.2,1.38,.21,2.02,.26,1.41,.1,2.81-.21,4.22-.12,1.6,.11,3.22-.14,4.73-.7,.98-.36,1.86-.94,2.83-1.33,1.23-.5,2.18-1.18,3.31-1.85,.9-.54,1.47-1.28,2.25-1.96,.29-.26,.61-.47,.89-.74,.43-.42,.77-.92,1.16-1.38,.66-.75,1.49-1.29,2.07-2.1,.53-.74,1.3-1.28,1.88-1.98,.78-.96,1.19-2.03,1.7-3.13,.3-.65,.79-1.18,1.06-1.84,.11-.28,.14-.56,.24-.83,.17-.47,.42-.77,.43-1.29,.01-.92,.34-1.81,.44-2.72,.12-1.11,.16-2.23,.24-3.34,.18-2.44,.18-5.02-.17-7.43-.32-2.2-.72-4.48-1.55-6.54-.54-1.34-.81-2.77-1.35-4.1-.42-1.04-.74-2.12-1.21-3.13-.52-1.11-1.24-2.12-1.9-3.16-.22-.34-.44-.65-.63-1.01-.1-.18-.24-.4-.38-.54-.07-.1-.16-.19-.22-.3,0,.02-.04,.08-.37-.45Z"/><path class="f" d="M46.67,47.5c.03,.78,.13,1.61,.03,2.39-.08,.63-.21,1.25-.27,1.87-.1,1.06-.35,2.11-.6,3.14-.33,1.37-.36,2.98,.06,4.35,.31,1.02,1.12,2.11,2.16,2.49,.47,.17,1.26,.38,1.71,.1,.87-.53,1-2.11,1.12-3,.22-1.61,.13-3.24,.13-4.86,0-.55,0-1.09,0-1.64,0-.24-.03-.58,.11-.79"/><path class="f" d="M77.58,53.67c.3-1.11,.63-2.18,1.33-3.11,.35-.47,.61-.99,1.03-1.4,.72-.71,1.5-1.45,2.43-1.88,.39-.18,.83-.22,1.24-.29,.37-.06,.79-.08,1.13,.1,.7,.36,.96,1.16,1.05,1.89,.12,.98-.09,1.84-.43,2.75-.28,.76-.74,1.47-1.14,2.16s-.78,1.4-1.27,2.05c-.67,.9-1.24,1.88-1.8,2.86-.3,.52-.56,1.06-.8,1.61-.26,.59-.56,1.18-.78,1.79-.38,1.01-.72,2.02-.94,3.08-.12,.56-.35,1.16-.28,1.74,.15,.03,.32-.03,.47-.05,.42-.06,.83-.13,1.24-.22,.49-.11,1-.22,1.49-.3,.7-.12,1.38-.15,2.06-.35,.53-.15,1.05-.28,1.6-.36,.49-.07,1-.04,1.48-.18,.25-.07,.59-.18,.83-.09v.07"/><path class="f" d="M94.42,43.7c-.6,2.45-1.62,4.79-2.05,7.29-.08,.47-.13,.95-.23,1.42-.08,.35-.2,.68-.29,1.03-.05,.21-.16,.43-.19,.64-.02,.09,.02,.18-.03,.25,.32,.31,1.1,.19,1.49,.19,.47,0,.92-.02,1.39-.05,.54-.04,1.09,0,1.63-.07,.83-.1,1.67-.11,2.5-.2,.28-.03,.63-.12,.91-.09,.06-.07,.13-.16,.16-.24"/><path class="f" d="M103.74,41.99c-.32,.84-.61,1.65-.85,2.51-.14,.5-.26,.99-.37,1.5-.12,.55-.37,1.04-.56,1.57s-.33,1.04-.49,1.55c-.33,1.06-.42,2.19-.72,3.27-.2,.73-.34,1.47-.54,2.2s-.4,1.4-.56,2.11c-.48,2.18-.87,4.38-1.37,6.55-.23,1.02-.43,2.04-.62,3.07-.06,.33-.08,.66-.14,.99-.02,.1-.06,.2-.05,.31"/><path class="f" d="M60.09,42.99c-1.02,.88-2.03,1.64-2.62,2.86-.22,.46-.39,1.09-.44,1.6s-.12,1.08-.05,1.61c.08,.6,.29,1.23,.51,1.79,.35,.87,1.1,1.55,1.77,2.18s1.49,.95,2.37,1.04c1.01,.11,1.99-.02,2.9-.53,.27-.15,.5-.36,.77-.49,.3-.15,.59-.24,.84-.47,.47-.42,.9-.87,1.29-1.39,.5-.66,.85-1.63,1.02-2.43,.08-.36,.04-.76,.07-1.13,.04-.45,.06-.86,0-1.31-.04-.34-.05-.7-.21-1-.18-.33-.41-.69-.64-.98-.39-.48-.82-1.03-1.36-1.35-1.15-.66-2.81-1-4.11-.76-.55,.1-1.26,.18-1.73,.5-.16,.11-.61,.49-.4,.26Z"/><path class="d" d="M57.25,47.79c.24-.02,.43-.07,.65-.15,.1-.04,.2-.06,.3-.1,.29-.09,.56-.21,.85-.27,.15-.03,.28-.09,.44-.1,.17-.01,.34,0,.51,0h.75c.19,0,.38-.02,.56,.02,.37,.06,.74,.1,1.11,.16,.49,.07,.97,.21,1.46,.29,.18,.03,.36,.05,.54,.09,.12,.03,.24,.07,.36,.09,.26,.05,.51,.14,.76,.21,.41,.12,.78,.31,1.15,.5,.27,.14,.61,.29,.79,.55,.13,.19,.17,.41,.19,.63,0,.15,.02,.34-.01,.49-.06,.25-.21,.48-.35,.7-.26,.41-.54,.83-.91,1.14-.18,.15-.34,.32-.51,.48s-.36,.27-.55,.39c-.45,.29-.99,.45-1.49,.62-.28,.09-.57,.15-.87,.18-.13,.01-.25,.05-.38,.07-.16,.02-.32,.02-.48,.02-.25,0-.47,0-.72-.08-.22-.06-.44-.15-.66-.24-.43-.18-.83-.37-1.19-.66-.27-.21-.55-.43-.8-.67-.13-.12-.21-.28-.32-.42-.22-.28-.4-.57-.57-.87-.15-.28-.33-.54-.44-.84-.1-.26-.12-.54-.15-.82-.02-.24-.04-.48-.04-.73,0-.21-.02-.42,0-.62,.01,0,.03,0,0-.05Z"/><path class="d" d="M41.87,47.54c-.18-.26-.34-.5-.59-.7-.15-.12-.28-.25-.43-.35s-.3-.24-.46-.31c-.18-.08-.36-.17-.53-.26-.15-.08-.28-.15-.45-.2-.21-.07-.42-.11-.64-.15-.46-.1-.91-.17-1.38-.17-.21,0-.42,0-.63,.03s-.41,.1-.61,.13c-.44,.07-.86,.21-1.28,.35-.33,.11-.63,.27-.94,.42-.24,.12-.5,.26-.69,.45s-.26,.43-.27,.68c0,.15,0,.3,.01,.45,.03,.24,.06,.48,.11,.71,.06,.27,.19,.53,.28,.8s.25,.53,.38,.8c.1,.2,.25,.36,.39,.54,.08,.11,.16,.21,.27,.29,.1,.07,.21,.14,.32,.21s.2,.16,.31,.22c.07,.04,.15,.07,.22,.1,.19,.1,.36,.24,.55,.34,.36,.21,.73,.37,1.15,.37,.39,0,.77-.01,1.14-.1,.14-.03,.27-.1,.41-.15,.15-.07,.32-.11,.46-.21,.1-.07,.18-.15,.28-.22,.21-.16,.43-.29,.63-.48,.26-.25,.52-.49,.77-.75,.07-.07,.14-.14,.21-.21,.13-.13,.21-.29,.31-.45,.06-.08,.12-.15,.18-.23,.09-.12,.15-.24,.2-.38,.07-.18,.19-.34,.23-.53,.03-.14,.08-.27,.07-.42,0-.09-.01-.18-.01-.28,0-.13-.03-.25,.06-.33Z"/><path class="f" d="M35.94,40.64c-.14,.04-.77,.34-.9,.41-.25,.13-.49,.28-.7,.47-.41,.38-.68,.9-.93,1.38-.54,1.04-.78,2.03-.78,3.2,0,1.02,.14,2.08,.51,3.05,.31,.81,.81,1.71,1.44,2.32,.69,.66,1.59,1.01,2.53,1.06,.52,.03,1.02,.03,1.51-.18,.65-.28,1.26-.66,1.71-1.21,.75-.92,1.45-1.95,1.71-3.12,.33-1.47,.14-3.03-.78-4.26-.44-.58-.83-1.23-1.38-1.73-.47-.43-1.03-.69-1.57-1.02-.65-.4-1.44-.49-1.54-.47,.03,0-.53,.02-.84,.11Z"/><path class="d" d="M59.81,65.71c-.79,.29-1.48,.54-2.28,.73-.14,.03-.29,.07-.42,.14-.4,.21-.31,.96-.31,1.35,0,.63,0,1.25,.12,1.86,.03,.16,0,.49,.22,.55,.17,.05,.31-.19,.4-.28,.26-.27,.55-.54,.78-.84,.54-.7,1.02-1.36,1.39-2.16,.13-.29,.28-.51,.28-.84,0-.19-.07-.63-.17-.5Z"/><path class="d" d="M55.8,67.27c-.05,1.1-.16,2.3-.06,3.4,.02,.16,.1,.31,.03,.47-.11,.22-.52,.36-.74,.44-.34,.12-.67,.19-.99,.34-.38,.18-.75,.22-1.16,.32s-.69-.08-.91-.42c-.32-.48-.29-1.24-.35-1.82-.05-.45-.06-.88-.13-1.32-.01-.09-.11-.48-.07-.55,.06-.1,.29-.06,.37-.07,.18-.03,.34-.11,.52-.15,.55-.1,1.1-.03,1.65-.08,.31-.03,.66-.05,.96-.11,.27-.06,.48-.18,.88-.44Z"/><path class="d" d="M50.4,68c.08,1.02,.14,2.05,.22,3.07,.01,.18,.04,.42,0,.6-.17,0-.35-.1-.5-.15-.21-.07-.37-.08-.58-.13-.44-.1-.84-.39-1.26-.56-.32-.13-.89-.17-1.14-.4-.15-.14-.25-.44-.28-.63-.03-.27,.03-.54,0-.8-.02-.14-.09-.24-.04-.38,.96-.16,2.05,.06,3-.23,.22-.07,.34-.28,.51-.06,.12,.14,.02,.49,.09-.33Z"/><path class="d" d="M45.83,68.5c-.03,.4-.07,.79-.13,1.18-.2-.27-2.86-.9-2.6-1.37,.17-.31,1.44,0,1.73,.04,.2,.03,.4,.02,.61,.04,.13,.01,.26,.08,.39,.11Z"/><path class="d" d="M117.16,64.45c-.11-.06-.25-.02-.36,.04-1.09,.65-2.16,1.31-3.44,1.55-.33,.06-.67,.05-1,.12-.61,.11-1.21,.3-1.83,.41-.38,.07-.78,.13-1.17,.17-.15,.02-.53,0-.65,.11-.15,.15-.05,.57-.03,.73,.09,.53,.27,1.02,.44,1.53,.43,1.29,1.11,2.32,1.87,3.44,.38,.56,.8,.9,1.29,1.35s.95,.84,1.48,1.2c.65,.43,1.36,.67,2.11,.86,.59,.15,1.14,.34,1.75,.37,.49,.02,1.39,.23,1.48-.43,.09-.61-.11-1.23-.24-1.81-.08-.38-.12-.77-.17-1.16-.08-.51-.22-1.01-.3-1.52-.15-.93-.27-1.87-.46-2.8-.1-.47-.21-.92-.25-1.41-.04-.37-.19-.69-.24-1.05-.07-.44-.18-.86-.22-1.29-.01-.1-.01-.15-.05-.33,0,.02,0-.05-.03-.07Z"/><path class="d" d="M118.62,64.15c0,.07,.68,3.62,1.02,5.63,.17,.99,.31,1.99,.49,2.98,.15,.84,.36,1.66,.52,2.49,.06,.31,.13,.71,.25,1,.27-.12,.52-.34,.77-.49,.37-.22,.77-.34,1.13-.57,.44-.27,.83-.55,1.31-.75,.4-.17,.71-.34,1.06-.6,.43-.31,.85-.64,1.19-1.05,.26-.32,.55-.55,.68-.95,.11-.32,.1-.71,.07-1.04-.16-1.66-.53-3.29-.72-4.94-.21-1.75-.52-3.54-.98-5.24-.32,0-.7,.33-.98,.46-.3,.14-.57,.3-.84,.48-.83,.55-1.8,.92-2.74,1.27-.66,.24-1.59,.63-2.24,.87-.02,0,.03,.47,.02,.45-.02-.05,.02,.02,0,0Z"/><path class="d" d="M126.4,60.04v.03c.22,1.12,.47,2.27,.67,3.4,.07,.38,.07,.76,.14,1.14,.13,.73,.33,1.46,.5,2.18,.11,.45,.15,.92,.2,1.38,.04,.34,.2,.65,.22,.98h0c.52-.39,.66-1.05,.87-1.63,.35-.99,.7-2.04,.89-3.07s.25-2.06,.24-3.12c0-.43-.13-.72-.24-1.12-.09-.32-.12-.64-.23-.95-.1-.29-.2-.61-.37-.86-.19-.27-.25-.16-.43,.07-.39,.47-.94,.75-1.44,1.1-.33,.23-.96,.41-.99,.42-.02,.03-.02,.01-.02,.05Z"/><path class="f" d="M122.36,51.62c1.04-.1,1.98-.24,2.97,.09,.38,.12,.82,.26,1.17,.45,.45,.25,.95,.43,1.39,.69s.83,.71,1.23,1.06c.73,.66,1.26,1.51,1.94,2.19,.54,.53,.9,1.22,1.6,1.58,.63,.32,1.31,.32,1.9-.11,.33-.24,.62-.64,.84-.98,.17-.27,.21-.53,.28-.84,.09-.39,.23-.76,.26-1.16,.11-1.78,.05-3.63-.57-5.32-.26-.69-.7-1.27-1.01-1.94-.28-.6-.73-1.42-1.31-1.79-.5-.32-1.08-.56-1.63-.78-.49-.2-.9-.21-1.41-.27-.66-.07-1.28-.34-1.95-.34"/><path class="d" d="M109,52.5c.81-.58,1.5-1.04,2.15-1.74,.2-.22,.42-.42,.63-.63,.58-.59,1.18-1.11,1.64-1.8,.54-.82,1.1-1.69,1.79-2.39,.59-.6,.98-1.27,1.79-1.59,.5-.2,1.07-.38,1.62-.33,.33,.03,.7,.29,.98,.46s.48,.37,.65,.67c.36,.67,.3,1.63-.06,2.28-.29,.53-.6,.91-1.06,1.31-.24,.21-.4,.48-.64,.68s-.6,.42-.89,.56c-.59,.29-1.24,.48-1.82,.79-.65,.35-1.21,.52-1.93,.66-.66,.13-1.29,.41-1.96,.54-.4,.08-.82,.05-1.22,.11-.23,.03-1.55,.26-1.66,.4Z"/><path class="d" d="M126.83,40.68c.61-.82,1.15-1.7,1.79-2.49,.37-.46,.62-1.02,.95-1.52,.37-.57,.75-1.15,1.27-1.59,.22-.19,.53-.42,.8-.52,.24-.09,.51-.05,.77-.05,.64,0,.99,.52,1.15,1.09,.14,.51,.26,1.12,.1,1.64-.25,.82-1.1,1.43-1.8,1.85-.89,.53-1.91,.6-2.84,1.01-.73,.32-1.42,.53-2.2,.71-.04,0-.06-.02,.01-.12Z"/><path class="e" d="M36.86,48.56c-.16,.16-.65,.53-.6,.86,.02,.11,.06,.24,.1,.34,.11,.27,.35,.34,.62,.37s.51-.17,.64-.4c.11-.18,.21-.46,.07-.65-.13-.18-.34-.41-.57-.45-.11-.02-.36-.02-.27-.07Z"/><path d="M61.88,50.63l-.35,.21-.13,.12s-.01,.08-.02,.1c-.03,.11-.05,.22-.03,.33s.1,.2,.15,.3c.05,.07,.08,.12,.16,.16,.37,.14,.91-.18,.97-.57,.04-.24-.18-.54-.41-.59-.1-.02-.2-.01-.3-.01-.05,0-.11-.01-.04-.03Z"/><path class="e" d="M118.32,44.81c-.41,.19-.77,.46-1.07,.79,0,.12,0,.24-.01,.36-.01,.2-.03,.39,.03,.59,.12,.38,.52,.84,.87,1.03,.7,.38,1.57-.19,1.82-.88,.27-.74-.1-1.61-.78-1.98-.28-.15-.59-.17-.9-.14-.29,.03-.71,.33,.05,.23Z"/><path class="e" d="M131.72,35.23c-.33,.23-.59,.51-.78,.85,0,.13,0,.26,0,.39,0,.15-.04,.34,.01,.49,.1,.27,.56,.63,.82,.68,.62,.11,1.17-.89,1.21-1.4s-.25-.83-.73-.91c-.26-.04-.7-.22-.55-.1Z"/><path d="M53.23,163.42c-.53-6.98-1.78-13.89-2.3-20.9-.34-4.55-.27-9.19,.15-13.73,.14-1.49,.53-2.88,.52-4.39,0-.98,.08-1.84,.19-2.79,.23-2.02-.12-4.2,.21-6.2,.94,.71,.98,2.56,2.1,3.38,.57,.42,1.95,1.11,2.71,.91-.3-.58-1.24-.84-1.71-1.31-.58-.58-.98-1.35-1.34-2.08-.53-1.08-.71-1.87-.72-3.05,0-2.32-.32-5.41-3.03-6.09-2.61-.65-4.4,3.23-4.88,5.14-.78,3.08-1.02,6.25-1.53,9.4-.71,4.42-.78,9.18-.81,13.66-.03,3.85-.25,7.92,.55,11.71,.37,1.75,.42,3.72,.52,5.51-.63,.18-1.4,0-2.06,.06-1.13,.1-2.37,.45-3.49,.64-1.3,.22-2.39,.69-3.6,1.15-1.01,.39-2.33,.79-3.21,1.42-2.75,1.97-4.46,7.74-1.11,9.99,1.96,1.32,5,.8,7.23,.81,2.31,0,4.68-.45,6.94-.9,2.78-.55,5.65-.89,8.67-2.33Z"/><path d="M59.34,95.82c-1.6,2.61-3.05,4.37-2.71,7.4,.16,1.43,1.22,2.68,1.61,4.05-1.83-.72-2.97-2.78-3.26-4.57-.6,1.1-.54,2.89-.64,4.1-.11,1.38-.3,2.67-.71,4-.54,1.74-.89,4.11-3.24,3.91-4.91-.43-4.16-6.33-3.08-9.6,.35-1.05,.97-2,1.38-3.03,.55-1.37,1.02-2.76,1.66-4.1,1.79-3.8,4-7.31,6.06-10.95,1.71-3.03,3-6.05,5.95-8.07,.83-.57,2.19-1.51,3.25-1.31,1.2,.23,1.64,1.5,1.87,2.52,.63,2.81-.94,5.44-2.7,7.51-.88,1.03-1.61,2.2-2.43,3.26-.34,.43-.72,.83-1.03,1.3-.27,.4-.49,1.17-1.97,3.59Z"/><path d="M151.4,166.84c-.73-2.05-1.34-4.06-2.58-5.83-.43-.61-.78-1.26-1.2-1.87-.71-1.03-1.62-2-2.5-2.84-1.39-1.34-2.89-2.65-4.35-3.95-2.91-2.6-3.19-6.65-3.23-10.29-.04-3.93,.3-7.98-.14-11.87-.14-1.29-.29-2.57-.41-3.88-.12-1.42,.12-2.86-.03-4.28-.22-2.08-.27-4.27-.31-6.36-.01-.55-.14-1.02-.19-1.55-.06-.67,.11-1.38,.01-2.04-.11-.75-.49-1.39-.35-2.19,1.06,.63,1.97,1.4,3.05,2.02,.57,.33,1.8,1.01,2.5,.78-.26-.48-1.62-1.15-2.14-1.49-.68-.43-1.49-.65-2.08-1.25-.96-.96-1.13-2.08-1.38-3.32-.26-1.33-1.21-2.38-2.67-2.56-1.21-.15-2.35-.37-3.41,.37-1.78,1.24-1.04,4.42-1.08,6.3-.06,2.43-1.33,5.14-3.54,6.3,1.43,.06,4.31-2,4.3-3.55,.28,.37,.25,1.5,.3,2.01,.06,.57-.03,1.14,0,1.7,.04,.87,.36,1.68,.39,2.56,.04,1.67,0,3.35-.02,5.02,0,2.16,.24,4.27,.09,6.44-.29,4.21,.09,8.41,.09,12.62,0,3.93,0,7.86,0,11.78,0,2.96,.11,5.9,.18,8.86,.03,1.12,.5,2.33,1.03,3.29,.66,1.2,1.67,1.41,2.93,1.4,1.9,0,3.88,.15,5.76-.09,2.14-.27,4.5-.16,6.67-.09,1.17,.04,2.36,.33,3.54,.15,.15-.63,.21-1.11,.75-2.31Z"/><path d="M131.44,85.21c.73,1.48,1.51,3.37,2.37,4.88,.23,.4,.55,.76,.71,1.2,.3,.8,.38,1.76,.56,2.6,.4,1.85,.69,3.79,.67,5.67s0,3.63,0,5.44c0,1.42,.35,3.53-.36,4.84-.64,1.19-1.95,2.54-3.4,1.99-1.62-.6-2.63-2.73-2.97-4.31-.28-1.3-.47-2.67-.63-3.96-.14-1.2-.4-2.49-.37-3.71-.38,2.05-2.19,4.16-4.47,4.04,1.94-1.53,4.93-3.7,4.02-6.63-.25-.79-.63-1.75-.98-2.52-.72-1.52-1.26-2.93-2.5-4.12-1.71-1.65-3.67-3.27-5.67-4.55-.88-.56-1.77-1.01-2.6-1.62-.49-.37-1.14-.68-1.44-1.22-.27-.48-.34-1.19-.39-1.73-.09-1.13,.24-1.96,1.03-2.78,1.16-1.21,2.37-1.53,3.89-2.02,2.01-.65,4.19-.69,5.98,.49,2.99,1.97,4.11,5.25,5.99,8.17,1.37,2.12,2.76,4.32,3.57,6.71,.85,2.54,1.12,5,1.12,7.69"/></g></g></g></svg>