<?xml version="1.0" encoding="UTF-8"?><svg xmlns="http://www.w3.org/2000/svg" viewBox="0 0 181.4 318.31"><defs><style>.d{fill:#fff;}.e{fill:#0f1010;}.f{fill:#e8e7e8;}.g{fill:#040404;}.h{fill:#c5c4c4;}.i{fill:#4d4d4d;}.j{fill:#efc5b9;}.k{fill:#303030;}.l{fill:#dedddd;}.m{fill:#070808;}.n{fill:#393a3a;}.o{fill:#f9f9f9;}.p{fill:#d3d2d3;}.q{fill:#171718;}.r{fill:#f1f1f1;}.s{fill:#1f1f1f;}.t{fill:#010101;}</style></defs><g id="a"/><g id="b"><g id="c"><rect class="j" width="181.4" height="318.31" rx="14.95" ry="14.95"/><g><path class="d" d="M134.44,143.24l-.06-.06c-.01-.27-.13-.41-.41-.37l-.94-.69c-1.94-1.98-3.73-4.11-6.08-5.64-1.07-1.82-2.45-3.25-4.6-3.74l-.44,.35-.51,.42c-1.17-.38-.4-.94-.16-1.49,3.56-8.09,2.88-16.31,.59-24.51-1.54-5.51-5.03-10.09-7.7-15.06-2.4-4.47-5.9-7.36-10.91-8.35-1.27-.91-2.7-.18-4.04-.4-1.24-.94-1.34-2.79-2.82-3.53-.02-.17-.1-.3-.23-.39l-.31-.63c.04-.18-.03-.28-.2-.32-1.49-1.62-2.96-3.27-5.47-3.08l-.05-1.66,.03-.96c1.08-2.14,3.25-3.03,5.07-4.29,1.04-.72,1.07-1.38,.46-2.3,.62-.71,1.02,.08,1.49,.24,4.34,1.54,8.44,1.33,12.16-1.65,4.52-3.13,5.2-3.52,2.43-8.03-.22-1.99-2.06-3.21-2.44-5.14,1.17-.57,2.36-1.12,3.5-1.74,.35-.19,.63-.59,.41-1.04-.08-.16-.5-.35-.56-.3-1.11,1.03-3.47,.76-3.29,3.13-1.8-.7-3.27-1.78-4.15-3.55,2.11-.84,2.96-2.55,3.5-4.84-1.22,.77-2.52,2.63-3.52,4.82-1.04,.85-1.97-.12-2.93-.24-4.02-.52-9.8,2.4-11.09,5.76-1.61,1.11-3.05,2.4-4.36,3.86-.68,.76-1.13,1.47-.05,1.97,3.13,1.48,5.2,4.39,8.25,5.96-.84,.46-1.98-.3-2.68,.62-1.37,1.78-3.4,3.02-4.22,5.24-.48,.19-.53,.58-.46,1.01-.38,.81-.91,1.57-.92,2.51l-.11,.6-.57-.1c0-.51,.23-1.06-.24-1.5-1.24-.82-2.49-.22-3.73,0l-1.05,.12c-.4-.11-.62,.15-.83,.42l-.82,.41-.14-.07-.09,.15-.66,.2-.48,.27c-3.92,1.07-6.86,3.78-10.07,6.05h-.55c-.16-.54-.4-1.08-.45-1.64-.66-6.81-2.68-12.94-8.52-17.19-.43-.31-1.44-.31-1.03-1.32,2.4-.46,2.48-3.36,4.47-4.25l-.97-1.06c.02-.13,.04-.25,.05-.37-.37-.37-.64-.77-.55-1.33,1.53-.86,3.89,.34,4.96-1.94-1.41-.34-2.6,.33-3.84,.32-1.35-.02-1.07,.9-1.06,1.69-1.79-1.04-2.63-2.71-3.11-4.63,1.45-.42,3.02-.68,3.34-2.57-1.08,.9-2.9,.83-3.34,2.58-.26,.38-.52,.27-.77,0-4.22-4.77-11.01-4.52-15.98,.15-2.97,2.79-3.77,6.51-4.1,10.38-.1,.12-.31,.26-.29,.36,.22,1.35,1.64,1.13,2.42,1.81,4.39,3.78,9.27,4.67,14.57,1.99,.87-.44,1.79-.75,2.48,0,2.28,2.49,5.24,4.41,6.33,7.89,1.4,4.47,2.5,9.01,3.04,13.67l-.56,.02c-.37-1.79-1.32-.8-1.89-.27-1.38,1.27-2.8,2.56-3.92,4.05-1.81,2.4-4.03,4.61-4.44,7.81-.55,.43-.55,.98-.36,1.57v.92c-.04,.05-.11,.12-.1,.16,.03,.11,.1,.22,.15,.32,.12,.27,.25,.54,.37,.8v-.05c-2.11,.69-4.04,1.61-5.05,3.78l-.45,.55c-.67,.75-1.29,1.53-1.44,2.57v.04c-.38,.41-.68,.85-.5,1.45-.17,3-.43,6,.61,8.95,.55-.92,1.01-1.86,.99-2.79-.03-1.56,2.09,.05,2.08-1.55,0-.26-.2-3.95,2.21-1.14,.35,.41,.98-.22,1.06-.7,.38-2.29,1.43-1.57,2.56-.62,.44,.59,1.11,.23,1.65,.39-.04,.33,.17,.42,.44,.46,1.44,.92,1.16,1.73-.31,2.07-.69,.16-.71,.44-.85,.92-1.41,4.9-1.45,4.92-6.43,4.62-.09,0-.19,.19-.41,.42,2.51,2.54,5.61,2.89,8.93,2.51,2.03-.43,4.09-.8,5.6-2.44,2.48-2.07,5.7-3.68,4.69-7.86-.09-.37,.53-.15,.81-.22,.26,2.64,1.9,2.75,4.05,2.42,2.46-.38,4.82-1.22,7.3-1.78,.11,1.19-1,1.5-.78,2.35l-.24,.51-.24,1.57c-.85-.03-1.56,.12-1.55,1.2l-.02,.02c-.97,.25-.97,1-.9,1.78l-.04,.56-.33,1.41-.16,1.66c-.39,2.31-.78,4.61-.03,6.92l.2,2.06,.32,1.94,.15,6.62c-.11,.69,.01,1.34,.35,1.96l.18,3.59c-.07,.14-.13,.29-.18,.44-.11,.89-.33,1.79,.35,2.57l.2,.49v1.49c-1.21,1,.3,2.05-.06,3.06l-.47,1.61-.36,.87-.15,1.64-.35,.88-.18,1.04-.32,.98-.12,1.56c-.33,1.14-.52,2.29-.36,3.47-.2,.7-.2,1.4,.02,2.09,.1,1.99,.2,3.97,.3,5.96l.04,1.06,.02,1.07c-.08,.55-.16,1.1,.15,1.61-.26,.67-.02,1.27,.26,1.87l.07,1,.18,2.05,.25,.98,.1,2.52c-.07,.54-.15,1.08,.2,1.56l.2,.98,.05,.49,.13,1.53,.35,.93,.11,.56,.23,.58,.15,.4,.09,.54c-.12,.56,.13,1,.43,1.43-.11,.93-.02,1.82,.59,2.59l1.15,3.06,.25,.48c-.04,1.18,.52,2.13,1.22,3.01l.3,.47,.38,.63-.02,.19,.16,.12c-.05,1.03,.64,1.62,1.35,2.19v.19l.18,.07,.08,.14,.38,.56,.28,.47,.47,.43c.55,.6,.69,1.62,1.74,1.7,.24,.72,1.27,1.01,1.06,1.97-.85,.13-1.22-.77-1.93-.95-.48,.67-.44,1.44-.55,2.18-1.09,7.3-.7,14.73-1.93,22.03-.34,2.03-.28,4.16,.1,6.27,1.42,7.81,2.8,15.64,4.12,23.47,.52,3.06,.32,5.85-2.49,8.05-1.59,1.24-2.59,3.2-4.42,4.29-.47,.28-.66,.84-.37,1.31,.32,.53,.73,0,1.07-.11,2.12-.74,4.24-1.48,6.34-2.27,.9-.34,1.74-.88,2.06,.65,.15,.72,.68,1.21,1.46,.97,.74-.23,.56-.96,.51-1.52-.16-1.92-.73-3.83-.42-5.76,1.05-6.54,.11-13.03-.39-19.54-.38-4.91-1.43-9.8-.56-14.77,1.03-5.92,1.33-11.97,3.04-17.76,.54-1.84,.14-2.71-1.58-3.18l.52-.42,1.98,.53,.4,.15,.58,.22,1.09,.11,.87,.26,1.16,.24c.63,.12,1.26,.24,1.88,.36l1.54,.12h1.01l1-.09,.58-.19,.47-.15,1.48-.06,1.02-.1,.89-.39c.45,0,1,.21,1.09-.54l.28-.41,.25-1.02,.18-.47c.44-.85,.34-1.76,.29-2.66l.34-1.39,.24-.52c.58,.37,.28,1.01,.45,1.5-.41,4.16-.75,8.32-1.24,12.47-1.07,9.1-1.1,18.21-.41,27.34,.43,5.76,1.66,11.43,1.75,17.23,.04,2.56-1.04,4.27-2.87,5.75-1.93,1.56-3.55,3.5-5.89,4.54-.67,.3-1.44,.95-1.13,1.69,.34,.82,1.34,.45,2.04,.32,1.65-.29,3.25-.75,4.94-.85,2.4-.14,4.28-.96,3.94-3.94-.05-.42-.05-1.03,.8-.98,.03,.58,.04,1.16,.09,1.74,.07,.88-.09,2.27,.94,2.24,1.3-.04,1.16-1.53,.97-2.44-1.11-5.41,.12-10.64,.94-15.92,.73-4.63,1.44-9.3-.32-13.89-1.62-4.23-1.11-8.28,.76-12.36,2.77-6.06,4.99-12.33,6.35-18.88,.52,.37,.11,1.28,.89,1.5,1.53,.25,2.7-.41,3.7-1.47l.15,.05,.07-.15,.12-.04c1.43-.47,2.73-1.14,3.63-2.41,.18,.04,.32-.01,.42-.16,2.82-2.34,5.75-4.58,7.44-7.97l.08-.08c2.76-3.72,4.43-7.89,5.07-12.47h0l.28-.96,.2-1.12,.29-.89,.2-1.57c.11-.65,.22-1.31,.33-1.96,.33-1.01,.31-2.04,.18-3.07,.36-.84,.25-1.68-.02-2.51,.15-2.2,.15-4.39-.14-6.57,.08-.68,.02-1.34-.32-1.96l-.16-1.56-.35-1.45-.15-1.07-.32-1.03c-.03-.86,.15-1.74-.33-2.53l-.19-.47-.16-1-.41-.84-.02-.12c.02-1.12-.37-2.11-.93-3.05l-.17-1.02c-.45-1-.9-1.99-1.35-2.99,.01-.46-.03-.9-.46-1.19l.08-.11-.14-.07-.33-.74,.03-.2-.19-.1-.46-.93v.08l-.05-.03,.04-.15-.13-.08-.42-.88-.24-.7-.24-.36-.47-.87v.08l-.03-.03-.03-.19-.18-.07-.3-.35-.07-.15-.38-.57-.23-.48-.32-.36-.84-1.19,.04-.14-.16-.02-.49-.39c.04-.17-.01-.3-.16-.4-.31-1.15-1.48-1.6-2.06-2.53,.04-.29-.1-.4-.37-.41Zm-21.77-86.99c1.74-.04,3.58,.65,5.72-.87-2.41-.49-4.17-.69-5.72,.87Zm-18.62-12.97c.38,2.26,.65,3.84,2.08,5.42,.28-2.18-.15-3.65-2.08-5.42Zm-4.34,9.12l-3.01-3.88c.11,1.97,.83,3.5,3.01,3.88Zm11.33-10.16c-.27,1.42-1,2.63-.61,4.05,.01,.05,.54,.09,.64-.03,.96-1.12,.74-2.45,.6-3.75,0-.04-.14-.06-.62-.27Zm-11.18,3.81c.44,1.81,1.15,2.98,2.43,3.78-.26-1.45-.46-2.92-2.43-3.78Zm-55.59,2.39c.3,1.84,2.01,1.95,2.72,3.02,.06,.1,.51,.08,.63-.03,.26-.26,.24-.66-.07-.85-1.03-.62-1.67-1.8-3.28-2.13Zm6.08-3.99l-.6,.35c.41,.82,.8,1.66,1.24,2.46,.2,.36,.59,.75,.98,.49,.5-.33,.34-.85-.01-1.28-.54-.67-1.07-1.35-1.61-2.02Z"/><path class="t" d="M105.73,220.1l-1,.08c-.05-.33-.09-.72-.51-.72-.42,0-.46,.4-.5,.73l-1.54-.12c-.55-.52-1.24-.31-1.88-.36-.39-.08-.78-.16-1.16-.24-.29-.09-.58-.17-.87-.26l-1.09-.11c-.2-2.34-1.44-2.26-3.05-1.31-.83-.25-1.49-1.25-2.53-.59l.05,.04c.21-.9-.07-1.32-1.04-1.06l.04,.04c.41-1.11-.45-.96-1.06-1.06l.04,.1c.2-.96-.82-1.25-1.06-1.97-.66-2.28-1.76-4.37-3-6.38-.43-.69-1.18-.87-1.98-.74-.1-.05-.21-.07-.32-.06-.7-.88-1.26-1.82-1.22-3.01l-.25-.48-1.15-3.06c1.51-1.71,.74-4.58-1.49-5.54l-.11-.56-.35-.93-.13-1.53c.32-.04,.71-.06,.75-.46,.04-.42-.34-.48-.66-.54l-.34-.46c-.35-.48-.28-1.02-.2-1.56,1.91-.74,1.92-1.41,.03-3.02l-.38-.47-.18-2.05c1.34-.64,1.35-1.31,.06-2.02l-.4-.85c-.31-.51-.23-1.06-.15-1.61l.72-.55-.75-.52-.04-1.06,.13-3.97c.91-.18,.79-.89,.87-1.55,.98-7.88,2.12-15.72,5.69-22.96,.91-1.84,2.04-3.6,2.35-5.69l2.04,.39,3.5,.72c.01,.38,.13,.7,.51,.88v3.02c0,1.26-1.71,2.92,.83,3.6l-.35,1.44c-.33,.04-.73,.06-.76,.47-.03,.43,.36,.48,.69,.54-.2,1.35-.39,2.7-.59,4.05l-.25,.68-.08,2.3c-.46,1.58-1.14,3.14-1.35,4.76-.58,4.27-1.46,8.62,1.27,12.58,1.29,1.87,2.98,2.83,5.29,2.38,2.11-.42,1.9-2.62,2.84-3.94,.43-.61-.14-1.22-.98-1.28,0-.14,0-.28-.02-.41,.05-.83,.1-1.67,.15-2.5,.29-.53,.52-1.11-.27-1.33-.62-.18-.79,.35-.87,.86-.65,1.07-1.83,1.41-2.7,.88-.97-.6-.74-1.86-.3-2.89,1.17-.78,2.5-1.55,.19-2.58l.37-1.95c.99-.27,1.09-.63,.11-1.09l.52-4.96c2.16-.41,1.26-2.37,1.82-3.59,2.14-4.66,.6-11.6,8-13.03,.66,.54,.45,1.25,.38,1.93-.82,.37-.85,.76-.03,1.18-.31,4-.62,8.01-.92,12.01-.99,.3-1,.67-.07,1.09l-1.42,9.49c-1.21,.43-1.14,.97-.13,1.59l-.35,1.94c-.82,.08-1.15,.68-1.21,1.35-.06,.69,.6,.63,1.07,.73l-.79,5.46c-.67,1.1-.29,2.38-.59,3.54-.32,.05-.71,.09-.71,.5,0,.41,.38,.46,.7,.51,.19,4.07-.52,8.28,1.91,11.99-.34,.17-.86,.34-.47,.81,.23,.29,.54-.03,.71-.31l.98,.39-.04-.05c.9,2.89,3.18,2.38,5.34,2.16,1.24,.07,1.36,0,1.29-.87l-.03-2.07-.05,.07c1.85-1.28,1.89-1.41,.48-2.55-.56-.45,.09-.67,.06-1,.67-.37,.94-.96,.61-1.64-.33-.67-1.04-.43-1.57-.35-2.37,.37-3.36-1.12-4.13-2.95l-.32-.59c-.22-1.02-.21-2.04,.06-3.06l.25-.61c.09-1.14,.18-2.28,.27-3.43l.18-.78c.3-1.4-.24-2.92,.64-4.23,.45-.04,1.06,.13,1.24-.38,.24-.67-.37-.92-.85-1.16l.26-1.48c.72-.18,1.06-.46,.27-1.04l1.24-5.03,.31-.54c.71-4.62,2.71-8.92,3.24-13.58l.17-.82,.32-3.2,.21-.8,.32-3.25c.64-1.42,.15-2.92,.29-4.37l1.53-1.06c.76-.42,1.74-.56,2.01-1.59l-.03,.03c.68-.03,1.05-.37,1.05-1.07l-.08,.07c.65,.18,1.06-.4,1.61-.53l.46-.61h.04l.51-.4,.44-.35c2.15,.49,3.53,1.93,4.6,3.74l-.07,1.7c-.15-.07-.3-.14-.44-.23-1.48-.95-2.92-2.24-4.42,.01-1.22,1.83-1.03,4.02,.83,5.33,4.39,3.09,7.57,7.19,10.36,11.68,.83,1.34,1.75,2.62,2.69,3.88,.31,.42,.67,1.18,1.36,.77,.59-.35,.33-1.08,.18-1.61-.55-1.83-.91-3.7-1.78-5.44-1.51-3.04-2.88-6.15-4.31-9.24,.3-.77,.86-1.19,1.69-1.22l.94,.69,.41,.37,.06,.06,.37,.41c.58,.93,1.76,1.37,2.06,2.53-1,.21-1.05,.81-.6,1.82l.75-1.42c.16,.13,.32,.26,.49,.39l.12,.16,.84,1.19c.05,.17,.15,.29,.32,.36l.23,.48,.38,.57,.07,.15c.07,.15,.17,.26,.3,.35l.18,.07,.03,.19,.03-.05,.47,.87c.03,.16,.11,.28,.24,.36l.24,.7,.42,.88,.13,.08-.04,.15,.05-.05,.46,.93c.02,.12,.07,.23,.17,.31l.33,.74,.07,.18c.43,.29,.48,.73,.46,1.19-.09,.68,.25,1.48-.5,2l-.12-.21-.1,.1,.21,.12c.03,1.41,1.53,.1,1.84,.99l.17,1.02c-.63,1.31-1.45,2.67,.93,3.05l.02,.12,.41,.84,.16,1,.19,.47c.47,.8,.3,1.68,.33,2.53l.32,1.03,.15,1.07c-.01,.52-.1,1.05,.35,1.45l.16,1.56c.02,.67-.19,1.37,.32,1.96,.29,2.19,.29,4.38,.14,6.57-1.52,.85-1.55,1.68,.02,2.51,.13,1.04,.15,2.06-.18,3.07-.26,.63-1.14,1.15-.33,1.96-.07,.52-.13,1.05-.2,1.57l-.29,.89-.2,1.12-.28,.95h0c-2,.06-1.7,1.99-2.03,2.98-1.05,3.15-3.52,5.88-3.05,9.5l-.08,.08c-3.21-.29-3.62,3.23-5.85,4.33-1.36,.67-1.82,2.09-1.59,3.64-.1,.15-.25,.21-.42,.16-1.9-.23-3.08,.61-3.63,2.41l-.12,.04-.22,.1c-1.01,1.06-2.18,1.72-3.7,1.47l-.08-1.03c1.6-.12,.76-1.01,.55-1.71,1.41-4.01,1.9-8.19,2.26-12.38,1.28-.85,1.29-1.69,0-2.53l-.25-1.98c-.15-1.22-.15-2.47-.82-3.57-.03-1.52-.56-2.9-1.18-4.25-.37-2.3-1.57-2.64-3.42-1.44-1.75,.79-3.06,2.07-4.05,3.7-.41,1.32-2.07,1.91-2.03,3.49l-.39,.74c-.14-.28-.31-.55-.67-.48-.09,.02-.15,.23-.22,.35l.74,.43c.09,.67-.44,1.07-.68,1.6-.39,0-.91-.17-1.03,.37-.08,.38,.33,.48,.65,.55l-.18,1.01c-.12,.09-.21,.21-.26,.36l-.02,.12c-1.11-.07-1.56,.46-1.45,1.54,.02,.57-.08,1.19,.56,1.53-.12,.52-.02,1.12-.55,1.49-.36,.06-.84,.04-.79,.56,.02,.17,.44,.3,.68,.45,.07,.63,.17,1.26-.24,1.83-.22-.2-.42-.42-.67-.57-.03-.02-.38,.27-.4,.44-.06,.63,.41,.76,.9,.82,.02,.51,.03,1.02,.05,1.53l-.24,.52c-.42,.39-.34,.9-.34,1.39,.05,.9,.15,1.81-.29,2.66l-.18,.47-.25,1.02-.28,.41c-.09,.74-.64,.53-1.09,.54-.3,.13-.6,.26-.89,.39l-1.02,.1c-1.08-1.37-2-1.72-2.52,.4Zm36.5-52.23c-.47-1.59-.79-3.25-2.02-4.49-.45-.46-.93-1.06-1.69-.72-.65,.29-.52,.99-.54,1.55-.16,3.1,1.17,5.81,2.32,8.56,.19,.47,.58,.86,1.15,.75,.56-.11,.85-.63,.89-1.1,.12-1.32,.11-2.65,.15-3.98l-.26-.57Z"/><path class="m" d="M121.4,133.51h-.04l.07-.02c-1.52-1.13-1.68,.28-2.14,1.14l.08-.07c-.65,.06-1.44-.01-1.05,1.07l.03-.03c-1.1-.61-1.39,.6-2.07,.93-1.01-.09-1.73,1.02-2.97,.63,.37-1.99-.29-3.88-2.36-4.16-2.37-.32-2.87,1.99-3.66,3.7-.51,1.11-.09,2.48-1.06,3.43l-.98,.11c-1,.12-1.99,.29-2.99,.34-3,.16-3.18-.09-2.03-2.88,1.85-4.48,3.27-9.07,4.25-13.84,.42-2.04,.04-3.4-1.7-4.43-3.41-1.23-6.12,.85-5.94,4.57-1.15,4.77-1.62,9.64-2.19,14.49-.19,1.6-.38,2.66-2.34,2.74-.85,.04-1.76,.33-2.66,.38-2.67-.7-5.12-1.73-6.45-4.4-.25-.5-.47-1.06-1.16-1.12l-.03-.04c.02-.41-.07-.77-.48-.97,.13-.75,.08-1.47-.15-2.21-1.37-4.41-1.63-8.92-1.15-13.49l.31-1.4,.24-1.57,.24-.51c-.22-.84,.89-1.15,.78-2.35-2.48,.56-4.85,1.4-7.3,1.78-2.15,.33-3.79,.22-4.05-2.42-.18-1.45-1.06-2.05-2.46-2.03-1.53-1.47-3.36-1.81-5.38-1.38-.14-.05-.11-.5-.4-.17l.34,.24-.19,1.08c-1.83-.16-2.13,2.37-3.95,2.23-.27-.03-.48-.12-.44-.46,1.27-1.82,2.83-3.53,2.3-6.04,1-1.3,.15-1.72-.95-2.04-1.32-1.59-2.22-3.94-5.05-2.8l-.37-.8c.03-.05,.1-.12,.09-.16-.03-.11-.1-.22-.15-.32v-.92l.36-1.57c.41-3.21,2.63-5.42,4.44-7.81,1.12-1.49,2.54-2.77,3.92-4.05,.58-.53,1.52-1.52,1.89,.27-.39,1.91,.35,3.73,.42,5.6,.04,1.04,.62,1.43,1.56,1.5l-.07-.06c1.01,1.55,2.26,1.36,3.61,.52l-.05,.04c2.57-1.71-.39-2.76-.49-4.14v-.95c-.51-2.35-1.01-4.69-1.51-7.04,3.21-2.26,6.14-4.97,10.07-6.05l.48-.27,.66-.2h.13l.1-.07,.82-.41,.83-.42,1.05-.12h3.73c.47,.45,.23,1,.24,1.51-.53,1.51-1.68,2.83-1.46,4.58-.31,1.66-.63,3.33-.94,4.99-.89,2.81-.62,5.9-2.12,8.56-.56,.02-1.17-.09-1.5,.55-.84,.68-.5,1.35,.03,2.01l-.04-.06c.01,.44-.12,.95,.53,1.07l-.03-.03c.68,.81,1.34,1.66,2.44,.54,1.15-.04,2.38,.17,3.13-1.05l.94-.14,1.53,1.9c1.13-1.91,.23-2.34-1.43-2.27-.35-3.25,.34-6.41,.84-9.59,1.03-3.59,1.89-7.22,2.18-10.96,2.51-.19,3.98,1.46,5.47,3.08-.05,.18,.02,.29,.2,.32l.31,.63,.23,.39c1.49,.74,1.59,2.59,2.82,3.53,.08,.41,.1,.84,.24,1.22,1.85,4.89,1.17,9.43-1.49,13.89-1.38,2.33-3.31,4.22-4.53,6.67,3.33-2.23,5.57-5.45,7.29-8.92,2.01-4.04,1.59-8.21-.69-12.29,1.22-.07,2.22-.12,3.22-.18,5.01,.99,8.5,3.88,10.91,8.35,2.67,4.97,6.16,9.55,7.7,15.06,2.3,8.2,2.97,16.42-.59,24.51-.24,.55-1.01,1.11,.16,1.49Zm-32.09-24.45c-2.51,1.57-5.02,3.15-7.53,4.72,3.19-.49,6.01-1.6,7.94-4.26,1.04-.32,1.91-.77,1.79-2.14-1.24,.09-1.7,.91-2.2,1.68Zm25.26-5.33c.7-3.01-.45-5.2-1.35-7.26-1.52-3.5-3.42-6.88-6.85-8.99-.54-.33-1.13-.81-1.82-.22-.71,.61-.9,1.38-.68,2.27,.21,.87,.84,1.49,1.51,1.95,2.53,1.74,4.15,4.29,6.16,6.51,1.45,1.59,1.27,3.87,3.03,5.74Zm-17.59-11.2c1.33-4.13,.77-7.67-1.28-11.02-.4-.66-1.12-1.28-1.82-.69-.71,.59-.18,1.37,.34,1.95,1.6,1.78,1.95,3.95,2.03,6.24,.04,1.04-.21,2.16,.74,3.53Zm19.66,14.92c-.45-.62,.14-1.92-1.16-2.08-.67-.08-.74,.53-.69,1.02,.09,.88,.24,1.82,1.31,2,.43,.07,.65-.4,.54-.94Zm-23.03-28.65c0-.53-.12-1.05-.71-1.11-1.01-.1-.77,.82-.99,1.36-.21,.52-.18,1.06,.49,1.05,.74-.01,1.1-.59,1.21-1.3Zm-12.18,41.64l-.12-.16-.14,.13,.2,.2,.07-.18Z"/><path class="e" d="M114.77,202.47c.05-.14,.14-.26,.26-.36,1.47-.77,2.37-3.08,1.79-4.57-.05-1.58,1.62-2.17,2.03-3.49,.51,.15,.91,0,1.38-.28,3.75-2.23,4.8-1.86,6.75,2.29,.19,1.35,.38,2.7,.57,4.05l.02,1.01c-.03,1.85-.05,3.69-.08,5.54l-2.52,11.11c-1.35,6.55-3.58,12.82-6.35,18.88-1.86,4.08-2.38,8.14-.76,12.36,1.76,4.6,1.05,9.26,.32,13.89-.83,5.28-2.06,10.51-.94,15.92,.19,.91,.33,2.4-.97,2.44-1.03,.03-.88-1.36-.94-2.24-.04-.58-.06-1.15-.09-1.74-.86-.04-.85,.56-.8,.98,.34,2.99-1.54,3.8-3.94,3.94-1.69,.1-3.3,.56-4.94,.85-.7,.12-1.7,.5-2.04-.32-.31-.74,.46-1.39,1.13-1.69,2.34-1.04,3.96-2.98,5.89-4.54,1.83-1.48,2.91-3.19,2.87-5.75-.09-5.8-1.31-11.47-1.75-17.23-.69-9.13-.66-18.24,.41-27.34,.49-4.15,.83-8.31,1.24-12.47,.69-3.36,1.4-6.72,2.05-10.1,.07-.39,.57-1.26-.57-1.14Zm8.71,1.84h-.06c0,1.16-.03,2.32,.02,3.48,.01,.27,.26,.62,.51,.78,.33,.23,.6-.05,.8-.32,1.22-1.73,1.24-6.38,.19-8.16-.42-.71-.94-.59-1.46-.54-.96,.09-.27,.65-.24,1.04,.09,1.24,.16,2.48,.24,3.72Z"/><path class="e" d="M93.68,218.63c1.72,.47,2.12,1.34,1.58,3.18-1.71,5.79-2.01,11.84-3.04,17.76-.87,4.98,.18,9.86,.56,14.77,.5,6.51,1.44,13,.39,19.54-.31,1.93,.27,3.84,.42,5.76,.05,.56,.23,1.28-.51,1.52-.78,.24-1.31-.25-1.46-.97-.32-1.53-1.16-.99-2.06-.65-2.1,.79-4.22,1.53-6.34,2.27-.34,.12-.75,.64-1.07,.11-.29-.47-.1-1.04,.37-1.31,1.83-1.09,2.83-3.05,4.42-4.29,2.82-2.2,3.01-4.99,2.49-8.05-1.33-7.83-2.7-15.65-4.12-23.47-.38-2.1-.44-4.24-.1-6.27,1.23-7.3,.83-14.73,1.93-22.03,.11-.74,.07-1.51,.55-2.18,.71,.19,1.07,1.08,1.93,.95l-.04-.1c.06,.65,.35,1.06,1.06,1.06l-.04-.04c.02,.67,.52,.88,1.04,1.06l-.05-.04c.47,.81,1.3,1.09,2.1,1.41Z"/><path class="s" d="M69.44,88.72v.95c-.6,1.47,.8,2.71,.5,4.14l.05-.04c-1.2-.17-2.41-.35-3.61-.52l.07,.06c-.67-2.33-.41-4.85-1.42-7.12-.54-4.66-1.64-9.19-3.04-13.67-1.09-3.48-4.05-5.4-6.33-7.89-.69-.75-1.61-.44-2.48,0-5.3,2.68-10.18,1.79-14.57-1.99-.78-.67-2.2-.46-2.42-1.81-.02-.1,.19-.24,.29-.36,.54-.49,1.07-.97,1.61-1.46-.16,1.88,1.61,1.76,2.57,2.48,.62-.02,1.06-.3,1.32-.88,1.03,1.2,2.4,.96,3.73,.89l1.1,.03c1,1.1,2.28,.15,3.38,.45,.41,.22,.8,.59,1.24,.65,1.46,.2,.38-.64,.38-1.04,1.49-.54,2.85-1.43,4.47-1.6l.24,.03h.25c-.48,.77-.32,1.3,.61,1.52-.41,1.02,.6,1.01,1.03,1.32,5.85,4.25,7.86,10.37,8.52,17.19,.05,.56,.3,1.1,.45,1.65,.1,2.13,.57,4.19,1.06,6.26,.13,.54,.33,.93,.98,.78Zm-24.22-25.06c1.76-.57,3.86,1.42,5.78-.97l-5.83,.28c-1.09-.63-2-.55-2.84,.72,1.07,.46,1.97,.54,2.89-.04Zm11.11-1.05c-.42,0-.48,.33-.5,.64,0,.14,.08,.29,.13,.43,.2-.19,.42-.36,.58-.58,.15-.21,.08-.42-.2-.49Z"/><path class="q" d="M68,110.9c1.4-.03,2.28,.58,2.46,2.03-.28,.07-.9-.15-.81,.22,1.01,4.18-2.21,5.79-4.69,7.86l-.57-.59c0-.45,.67-.87,.2-1.31-.32-.3-.81-.15-1.11,.18-1.08,1.19-2.52,1.74-3.97,2.29-.46,.18-.91,.54-.15,.99v.87c-3.32,.38-6.42,.03-8.93-2.51,.22-.23,.32-.43,.41-.42,4.98,.3,5.02,.28,6.43-4.62,.14-.48,.16-.76,.85-.92,1.47-.33,1.75-1.15,.31-2.07,1.81,.13,2.12-2.39,3.95-2.23,1.58-.42,3.11-.54,4.52,.56,.4,.31,.93,.45,1.11-.32Z"/><path class="q" d="M49.23,105.3c1.01-2.17,2.95-3.09,5.06-3.78,1.1,.41,2.01,1.1,2.89,1.85,2.54,2.18,2.98,7.52-.84,8.69-1.13-.95-2.17-1.67-2.56,.62-.08,.48-.71,1.11-1.06,.7-2.41-2.81-2.21,.88-2.21,1.14,.01,1.6-2.11-.01-2.08,1.55,.02,.93-.43,1.88-.99,2.79-1.03-2.95-.78-5.95-.61-8.95l.22-.03h.23c.06,.27-.08,.66,.38,.66,.1,0,.29-.2,.28-.29-.04-.44-.41-.3-.68-.34l.06-1.44v-.04l.46,.48c.41,.87,.73,.63,1.12-.05,.76-1.32,1.57-2.6,2.41-3.99-.92-.07-1.22,.53-1.71,.81l-.39-.38Z"/><path class="k" d="M38.1,59.01c-.54,.49-1.07,.97-1.61,1.46,.33-3.87,1.13-7.58,4.1-10.38,4.98-4.68,11.77-4.92,15.98-.15,.25,.28,.51,.39,.77,0h0c.48,1.91,1.32,3.59,3.11,4.63l-.05-.06c-.09,.56,.18,.96,.55,1.32-.84,1.26-1.47,.14-1.98-.28-.89-.74-1.62-1.67-2.43-2.51-2.48-2.58-7.53-3.84-10.21-2.05,3.34,3.39,3.5,6.89,.49,10.54l-1.1-.03c1.77-1.7,2.28-3.84,2-6.17-.14-1.14-.5-2.43-1.78-2.79-1.21-.34-2.29-.08-3.43,.85-1.01,.81-1.46,2.13-2.7,2.63-.17-.47-.38-.33-.6-.04-.5,.96-1.01,1.92-1.11,3.03Zm6.68-9.05c2.29-.52,4.48-1.68,6.99-.79-2.61-1.27-4.67-1.05-7.23,.49-.33,.3-.97,.19-1.17,1.23,.54-.57,1.15-.26,1.41-.92Z"/><path class="o" d="M46.82,61.54c3.01-3.64,2.85-7.14-.49-10.54,2.68-1.8,7.72-.54,10.21,2.05,.81,.84,1.53,1.77,2.43,2.51,.51,.42,1.14,1.55,1.98,.28-.01,.13-.03,.25-.05,.38-1.1,.07-.57,1.6-1.58,1.75-1.21,.38-2.05,1.3-3.02,2.02-1.62,.17-2.98,1.07-4.47,1.6-.58-.03-1.15-.02-1.62,.39-1.11-.3-2.38,.66-3.38-.45Z"/><path class="e" d="M78.18,142.16l-.15-6.62c0-.66,.18-1.36-.32-1.94l-.2-2.06c0-.97,.07-1.95,.02-2.92-.06-1.12,.35-1.7,1.52-1.61,.67,2.67,1.34,5.35,2,8.02-.01,.65,.25,1.04,.95,1.02l.03,.04c.02,.77,.05,1.54,.07,2.3,.27,.72-1.35,1.71,.32,2.24,.08,1.41,.16,2.83,.24,4.24l-.21,.95c-2.27,1.11-2.08,3.42-2.59,5.38h-.78l-.2-.49v-2.21l-.17-.8-.18-3.59c-.01-.67,.19-1.38-.35-1.96Z"/><path class="n" d="M109.3,65.13c-3.73,2.98-7.82,3.18-12.16,1.65-.46-.16-.87-.95-1.49-.24l.02,.07c.41-.65-.32-.58-.53-.84h-.12c-3.05-1.58-5.12-4.49-8.25-5.97-1.07-.51-.62-1.22,.05-1.97,1.31-1.46,2.75-2.75,4.36-3.86,.8,.06,1.03,.6,1.08,1.29,.13,1.35-.79,.36-1.13,.54-1.14,.62-2.5,1.22-2.48,2.82,.03,1.94,1.75,1.77,2.88,2.44,.31-.77-.2-1.36,.44-2.01,.69,2.44,2.29,3.4,4.69,2.98-.04,.11-.05,.23-.02,.35-.11,.41-1.97-.06-.58,1.04,.54,.42,1.42,.43,2.14,.6,2.49,.58,5.03,.23,7.54,.5-.09,.36-.18,.73-.27,1.09-2.7-.22-5.41-.44-8.11-.66,2.65,1.18,5.33,1.58,8.08,.65,1.38,.61,2.41-1.6,3.85-.46Z"/><path class="m" d="M87.65,72.62c-.07-.44-.02-.83,.46-1.01,.67,.5,1.34,1,2,1.51l-.03,.96c-.95,1.01-.32,2.51-1.12,3.56-1.77,1.05-1.77,2.45-.84,4.06l-.28,1.52-.26,.51-.13,2.97c-1.4,3.05-1.2,6.37-1.57,9.59-1.2,1.44-2.41,.33-3.61,0l1.5-7.06,.23-.57,.16-2.42c1.87-.7,1.84-1.78,.63-3.1l.38-2.45c1.55-1.33,1.02-3.27,1.42-4.94l.11-.6c1.1-.55,1.43-1.38,.92-2.51Z"/><path class="s" d="M92.25,55.25c-.05-.69-.28-1.23-1.08-1.29,1.28-3.37,7.06-6.29,11.09-5.76,.95,.12,1.89,1.09,2.93,.24l.02,.02c.88,1.77,2.35,2.85,4.15,3.55l-.06-.05c.37,1.92,2.21,3.14,2.43,5.13-.34,1.25-.55,.86-1.07,.02-1.01-1.65-1.39-1.75-2.53-1.23-.95-.83-1.91-1.67-2.86-2.5,.16-.43,1.13-.91,.68-1.07-1.12-.4-1.35-2.08-2.78-1.81-1.61,.29-3.28-.19-4.85,.42-.57,.22-1.34-.7-1.75,.29-.46,1.13,1.3,.62,1.17,1.53-1.29-.94-2.16,.72-3.33,.54-.24-.36-.1-1.08-.81-.96-.27,.05-.67,.34-.7,.56-.07,.63,.57,.65,.96,.87l-1.62,1.51Z"/><path class="g" d="M82.46,145.84l.21-.95c1-.65,1.22-1.85,1.89-2.73,.37-.49,.63-1.54,1.51-.47-.31,2.09-1.45,3.85-2.35,5.69-3.57,7.25-4.71,15.08-5.69,22.96-.08,.67,.03,1.38-.87,1.55-.14-.66-.28-1.32-.42-1.99-.23-.69-.22-1.39-.02-2.09,.14-1.16,1.26-2.21,.36-3.47l.12-1.56,.32-.98,.18-1.04,.35-.88,.15-1.64,.36-.87,.47-1.61c.69-1.16,.93-2.45,1.05-3.78l-.05,.03c1.05-1.97,1.86-4.03,2.44-6.18Z"/><path class="f" d="M103.21,84.09c-1,.06-2,.11-3.22,.18,2.29,4.08,2.7,8.25,.69,12.29-1.73,3.47-3.96,6.69-7.29,8.92,1.22-2.44,3.15-4.34,4.53-6.67,2.66-4.47,3.35-9.01,1.49-13.89-.15-.38-.16-.81-.24-1.22,1.34,.22,2.77-.51,4.04,.4Z"/><path class="k" d="M90.12,73.12c-.67-.5-1.34-1-2-1.51,.82-2.22,2.85-3.46,4.22-5.24,.7-.92,1.84-.16,2.68-.62h.12c-.56,.76,.15,.71,.53,.86l-.02-.07c.61,.92,.58,1.58-.46,2.3-1.82,1.26-3.99,2.15-5.07,4.29Z"/><path class="i" d="M108.13,55.88c1.15-.51,1.53-.41,2.53,1.23,.52,.84,.72,1.23,1.07-.02,2.77,4.51,2.09,4.9-2.43,8.03-1.44-1.14-2.48,1.07-3.85,.46h.03l.27-1.08c.84-.32,1.67-.67,2.52-.95,4.82-1.62,4.86-1.79,1.52-5.53-.6-.67-1.11-1.43-1.66-2.14Z"/><path class="e" d="M141.47,207.03c-.47-3.63,2-6.35,3.05-9.5,.33-.99,.03-2.92,2.03-2.97-.64,4.58-2.31,8.75-5.07,12.47Z"/><path class="l" d="M127.55,201.11l-.02-1.01,.77-.48,.25,1.98c0,.84,0,1.69,0,2.53-.37,4.2-.86,8.38-2.26,12.38-.43,.49-.77,1.01-.55,1.71l.08,1.03c-.77-.22-.37-1.13-.89-1.5,.84-3.7,1.68-7.41,2.52-11.11,.79-1.84,.62-3.69,.08-5.54Z"/><path class="e" d="M133.95,215.08c-.24-1.55,.22-2.97,1.59-3.64,2.24-1.1,2.64-4.62,5.85-4.33-1.69,3.39-4.62,5.63-7.44,7.97Z"/><path class="f" d="M81.06,135.04c-.67-2.67-1.34-5.35-2-8.02l-.12-1.5c0-1.34-.01-2.69-.02-4.03-.07-.76,1.19-1.48,.06-2.27l.02-.02c.35,.42,.91-.4,1.24,.2-.48,4.57-.22,9.08,1.15,13.49,.23,.74,.28,1.46,.15,2.21-.16,.03-.32,.01-.47-.05Z"/><path class="p" d="M56.33,112.06c3.83-1.17,3.38-6.51,.84-8.69-.88-.75-1.79-1.44-2.89-1.85v.05c2.82-1.14,3.72,1.21,5.04,2.8l.95,2.04c.53,2.51-1.04,4.22-2.3,6.04-.54-.15-1.21,.21-1.65-.39Z"/><path class="e" d="M126.88,138.18l.07-1.7c2.35,1.53,4.14,3.66,6.08,5.64-.83,.04-1.39,.45-1.69,1.22-1.37-1.82-2.65-3.72-4.47-5.16Z"/><path class="g" d="M83.59,206.2c.8-.13,1.55,.04,1.98,.74,1.24,2.01,2.34,4.09,3,6.38-1.05-.09-1.19-1.1-1.74-1.71-.15-.14-.31-.28-.47-.42l-.28-.47-.38-.56-.08-.14c-.03-.1-.09-.19-.18-.26-.71-.57-1.39-1.16-1.35-2.19-.01-.12-.06-.22-.14-.31l-.38-.63c0-.14,0-.28,.01-.42Z"/><path class="l" d="M114.77,202.47c1.15-.12,.65,.75,.57,1.14-.65,3.37-1.36,6.73-2.05,10.1-.18-.49,.12-1.13-.45-1.5l-.05-1.53,.16-.69c.4-.57,.31-1.2,.24-1.83l.11-1.01c.53-.37,.43-.97,.55-1.49,.71-.52,.38-1.33,.57-2,.38-.27,.37-.67,.32-1.07l.02-.12Z"/><path class="p" d="M88.97,77.64c.8-1.05,.17-2.55,1.12-3.56l.05,1.66c-.29,3.74-1.15,7.37-2.18,10.96-.16-.03-.33-.03-.5-.02,.04-.99,.09-1.98,.13-2.97l.26-.51,.28-1.52c.62-1.28,.8-2.65,.84-4.06Z"/><path class="l" d="M65.03,86.18c1,2.27,.75,4.79,1.42,7.12-.93-.07-1.51-.46-1.56-1.5-.08-1.87-.81-3.69-.42-5.6l.56-.02Z"/><path class="i" d="M59.32,57.97c1.01-.15,.48-1.68,1.58-1.75,.32,.36,.65,.71,.97,1.06-1.99,.89-2.07,3.79-4.47,4.25-.93-.22-1.09-.74-.6-1.52,1.36-.04,2.49-.38,2.53-2.04Z"/><path class="k" d="M60.45,54.58c-.01-.79-.29-1.71,1.06-1.69,1.24,.02,2.43-.66,3.84-.32-1.07,2.28-3.43,1.08-4.96,1.94l.06,.06Z"/><path class="i" d="M112.66,56.25c1.55-1.56,3.31-1.36,5.72-.87-2.15,1.52-3.98,.82-5.72,.87Z"/><path class="n" d="M94.04,43.28c1.93,1.77,2.37,3.25,2.08,5.42-1.44-1.58-1.7-3.16-2.08-5.42Z"/><path class="k" d="M105.19,48.44c1-2.19,2.3-4.05,3.52-4.82-.54,2.29-1.39,4-3.5,4.84l-.02-.02Z"/><path class="g" d="M79.15,194.05c2.23,.97,3,3.83,1.49,5.54-.61-.77-.7-1.66-.59-2.59,0-.52,.06-1.06-.43-1.43l-.09-.54c0-.15-.05-.29-.15-.4l-.23-.58Z"/><path class="k" d="M109.37,52.01c-.18-2.37,2.18-2.1,3.29-3.13,.06-.05,.48,.14,.56,.3,.22,.45-.06,.85-.41,1.04-1.15,.62-2.33,1.16-3.5,1.74l.07,.05Z"/><path class="p" d="M69.44,88.72c-.65,.15-.85-.24-.98-.78-.5-2.06-.96-4.13-1.06-6.26h.55c.5,2.34,1,4.68,1.5,7.03Z"/><path class="n" d="M59.36,123.45v-.87c1.9-.19,3.36-1.4,5.02-2.16l.57,.59c-1.51,1.63-3.56,2.01-5.6,2.44Z"/><path class="i" d="M89.7,52.39c-2.18-.37-2.9-1.9-3.01-3.88l3.01,3.88Z"/><path class="s" d="M86.62,75.74c-.41,1.67,.13,3.6-1.42,4.94l-.61-.46c-.21-1.75,.93-3.06,1.46-4.58l.57,.1Z"/><path class="n" d="M101.03,42.24c.48,.21,.62,.23,.62,.27,.14,1.3,.37,2.63-.6,3.75-.1,.12-.62,.08-.64,.03-.39-1.42,.34-2.63,.61-4.05Z"/><path class="s" d="M78.94,125.52l.12,1.5c-1.17-.09-1.58,.49-1.52,1.61,.05,.97,0,1.95-.02,2.92-.75-2.31-.36-4.62,.03-6.92,.07,.91,.72,.91,1.39,.89Z"/><path class="e" d="M78.94,125.52c-.67,.02-1.32,.02-1.39-.89l.16-1.66c.42-.4,.34-.91,.33-1.41l.04-.56,.84,.49c0,1.34,.01,2.69,.02,4.03Z"/><path class="n" d="M89.85,46.05c1.97,.86,2.18,2.34,2.43,3.78-1.29-.8-1.99-1.97-2.43-3.78Z"/><path class="n" d="M57.34,49.95c.44-1.75,2.26-1.68,3.34-2.58-.33,1.89-1.9,2.15-3.34,2.57h0Z"/><path class="i" d="M34.26,48.43c1.6,.33,2.25,1.52,3.28,2.13,.31,.19,.33,.59,.07,.85-.12,.12-.57,.13-.63,.03-.71-1.07-2.42-1.18-2.72-3.02Z"/><path class="i" d="M40.34,44.44c.54,.67,1.07,1.35,1.61,2.02,.35,.43,.51,.95,.01,1.28-.39,.26-.78-.13-.98-.49-.44-.81-.83-1.64-1.24-2.46l.6-.35Z"/><path class="e" d="M129.89,217.65c.55-1.8,1.73-2.64,3.63-2.41-.9,1.27-2.2,1.94-3.63,2.41Z"/><path class="g" d="M94.12,217.8c1.61-.95,2.85-1.03,3.05,1.31l-.58-.22c-.11-.11-.25-.16-.4-.15l-1.98-.53c-.04-.13-.07-.26-.09-.4Z"/><path class="g" d="M78.14,184.98c1.89,1.62,1.88,2.29-.03,3.02l-.1-2.52,.13-.51Z"/><path class="e" d="M145.47,163.84c-2.38-.38-1.56-1.75-.93-3.05,.56,.94,.96,1.93,.93,3.05Z"/><path class="e" d="M148.03,184.97c-1.56-.83-1.54-1.67-.02-2.51,.26,.84,.37,1.67,.02,2.51Z"/><path class="e" d="M142.52,158.78c.75-.52,.4-1.31,.5-2,.45,1,.9,1.99,1.35,2.99-.31-.9-1.81,.42-1.84-.99Z"/><path class="e" d="M76.73,169.9c.14,.66,.28,1.32,.42,1.99-.04,1.32-.09,2.65-.13,3.97-.1-1.99-.2-3.97-.3-5.96Z"/><path class="l" d="M80.07,151.99c-.12,1.32-.36,2.61-1.05,3.78,.37-1.01-1.15-2.06,.06-3.06,.33-.24,.65-.48,.98-.72Z"/><path class="i" d="M47.79,108.9l-.45-.48c.16-1.04,.77-1.82,1.44-2.57l.03,.61c.01,.96-.37,1.76-1.03,2.44Z"/><path class="g" d="M105.73,220.1c.52-2.12,1.44-1.77,2.52-.4l-1.48,.06-.47,.15-.58,.19Z"/><path class="e" d="M77.06,164.34c.9,1.26-.22,2.32-.36,3.47-.16-1.19,.02-2.34,.36-3.47Z"/><path class="p" d="M94.12,217.8c.02,.14,.05,.27,.09,.4l-.52,.42c-.8-.32-1.63-.6-2.1-1.41,1.04-.66,1.7,.34,2.53,.59Z"/><path class="s" d="M87.65,72.62c.51,1.14,.18,1.96-.92,2.51,.01-.95,.54-1.7,.92-2.51Z"/><path class="g" d="M77.64,180.44c1.29,.71,1.28,1.38-.06,2.02l-.07-1,.13-1.02Z"/><path class="s" d="M85.81,74.14h-3.73c1.24-.22,2.49-.82,3.73,0Z"/><path class="s" d="M78.92,121.48l-.84-.49c-.07-.78-.07-1.53,.9-1.78,1.13,.79-.13,1.51-.06,2.27Z"/><path class="e" d="M147.52,190.01c-.82-.81,.06-1.33,.33-1.96-.11,.65-.22,1.31-.33,1.96Z"/><path class="e" d="M137.02,146.57l-.75,1.42c-.45-1.01-.4-1.6,.6-1.82,.15,.1,.2,.23,.16,.4Z"/><path class="s" d="M80.23,119.39c-.32-.6-.88,.22-1.24-.2,0-1.08,.7-1.23,1.55-1.2l-.31,1.4Z"/><path class="l" d="M78.89,148.51v2.21c-.67-.78-.46-1.68-.35-2.57l.35,.36Z"/><path class="s" d="M80.07,151.99c-.33,.24-.65,.48-.98,.72,0-.5,0-.99,0-1.49h.78l.15,.8,.05-.03Z"/><path class="e" d="M100.29,219.72c.64,.05,1.33-.17,1.88,.36l-1.88-.36Z"/><path class="e" d="M147.87,175.88c-.51-.59-.3-1.29-.32-1.96,.34,.61,.4,1.27,.32,1.96Z"/><path class="g" d="M77.07,176.92l.75,.52-.72,.55-.02-1.07Z"/><path class="e" d="M103.72,220.19c.05-.33,.08-.72,.5-.73,.42,0,.46,.39,.51,.72h-1.01Z"/><path class="s" d="M78.18,142.16c.55,.57,.34,1.29,.35,1.96-.34-.61-.46-1.26-.35-1.96Z"/><path class="g" d="M78.65,190.02c.32,.06,.7,.13,.66,.54-.04,.4-.43,.42-.75,.46l-.05-.49,.14-.52Z"/><path class="s" d="M77.72,133.61c.5,.58,.31,1.28,.32,1.94l-.32-1.94Z"/><path class="s" d="M78.04,121.56c.01,.5,.09,1.01-.33,1.41l.33-1.41Z"/><path class="e" d="M112.26,214.12c0-.49-.07-1,.34-1.39l-.34,1.39Z"/><path class="i" d="M47.29,109.89h-.23l-.22,.03c-.18-.6,.12-1.03,.49-1.45l-.06,1.44,.02-.02Z"/><path class="e" d="M77.64,180.44l-.13,1.02c-.28-.6-.52-1.2-.26-1.87,.13,.28,.26,.56,.4,.85Z"/><path class="e" d="M79.63,195.57c.49,.37,.42,.91,.43,1.43-.3-.43-.55-.88-.43-1.43Z"/><path class="p" d="M54.21,97.79l-.36,1.57c-.19-.59-.19-1.15,.36-1.57Z"/><path class="e" d="M147.39,172.36c-.45-.4-.37-.94-.35-1.45,.12,.48,.23,.97,.35,1.45Z"/><path class="e" d="M77.51,161.8l-.32,.98,.32-.98Z"/><path class="e" d="M146.55,194.54l.28-.95-.28,.95Z"/><path class="e" d="M146.89,169.85l-.32-1.03,.32,1.03Z"/><path class="e" d="M145.9,164.81l-.41-.84,.41,.84Z"/><path class="e" d="M78.69,192.56l.35,.93-.35-.93Z"/><path class="s" d="M81.03,74.25l-.83,.42c.21-.27,.43-.53,.83-.42Z"/><path class="e" d="M147.03,192.46l.29-.89-.29,.89Z"/><path class="e" d="M141.39,153.26l-.42-.88,.42,.88Z"/><path class="e" d="M109.27,219.6l.89-.39-.89,.39Z"/><path class="e" d="M98.25,219.22c.29,.09,.58,.17,.87,.26l-.87-.26Z"/><path class="e" d="M78.05,159.88l-.35,.88,.35-.88Z"/><path class="q" d="M48.81,106.46l-.03-.61,.45-.55,.39,.38-.8,.79Z"/><path class="e" d="M78.65,190.02l-.14,.52c-.07-.33-.13-.65-.2-.98l.34,.46Z"/><path class="e" d="M78.55,157.37l-.36,.87,.36-.87Z"/><path class="e" d="M78.14,184.98l-.13,.51-.25-.98,.38,.47Z"/><path class="e" d="M83.59,206.2c0,.14-.01,.28-.01,.42l-.3-.47c.11,0,.22,.01,.32,.06Z"/><path class="e" d="M83.95,207.24c.08,.09,.12,.19,.14,.31l-.16-.12,.02-.19Z"/><path class="s" d="M81.03,115.91l-.24,.51,.24-.51Z"/><path class="e" d="M139.39,149.73l-.38-.57,.38,.57Z"/><path class="e" d="M85.43,209.74c.08,.07,.14,.16,.18,.26l-.18-.07v-.19Z"/><path class="e" d="M85.69,210.15l.38,.56-.38-.56Z"/><path class="e" d="M86.35,211.18c.16,.14,.31,.28,.47,.42-.16-.14-.31-.28-.47-.42Z"/><path class="e" d="M138.78,148.68c-.16-.07-.27-.19-.32-.36l.32,.36Z"/><path class="e" d="M139.77,150.23c-.14-.09-.24-.2-.3-.35l.3,.35Z"/><path class="e" d="M111.79,217.25l.18-.47-.18,.47Z"/><path class="e" d="M122.35,132.74l-.44,.35,.44-.35Z"/><path class="e" d="M79.38,194.63c.1,.11,.15,.25,.15,.4l-.15-.4Z"/><path class="p" d="M53.85,100.29c.05,.11,.12,.21,.15,.32,.01,.04-.06,.11-.09,.16-.05-.11-.12-.21-.15-.32-.01-.04,.06-.11,.09-.16Z"/><polygon class="e" points="129.55 217.8 129.77 217.7 129.7 217.84 129.55 217.8"/><path class="e" d="M111.26,218.68l.28-.41-.28,.41Z"/><path class="e" d="M96.18,218.74c.16,0,.29,.05,.4,.15l-.4-.15Z"/><polygon class="e" points="140.02 150.45 139.98 150.5 140.03 150.53 140.02 150.45"/><path class="e" d="M146.24,166.28l-.19-.47,.19,.47Z"/><path class="e" d="M106.31,219.91l.47-.15-.47,.15Z"/><path class="s" d="M78.89,148.51l-.35-.36c.05-.15,.1-.3,.18-.44l.17,.8Z"/><path class="n" d="M96.35,80.16l-.23-.39c.14,.1,.21,.23,.23,.39Z"/><path class="n" d="M95.81,79.14c-.18-.03-.25-.14-.2-.32,.18,.04,.24,.14,.2,.32Z"/><path class="s" d="M78.5,75.37l-.48,.27,.48-.27Z"/><polygon class="s" points="79.39 75.09 79.29 75.16 79.16 75.16 79.25 75.02 79.39 75.09"/><path class="e" d="M140.72,151.68c-.13-.08-.21-.2-.24-.36l.24,.36Z"/><polygon class="e" points="137.63 147.13 137.51 146.97 137.67 146.98 137.63 147.13"/><path class="e" d="M134.38,143.18l-.41-.37c.29-.04,.4,.11,.41,.37Z"/><polygon class="e" points="141.53 153.43 141.48 153.49 141.52 153.52 141.53 153.43"/><path class="e" d="M142.16,154.67c-.09-.08-.15-.18-.17-.31l.19,.1-.03,.2Z"/><polygon class="e" points="142.56 155.59 142.49 155.42 142.63 155.48 142.56 155.59"/><path class="e" d="M134.8,143.65l-.37-.41c.27,.01,.41,.13,.37,.41Z"/><path class="e" d="M81.8,202.65l.25,.48-.25-.48Z"/><path class="s" d="M104.7,195.79l.04,.05c-2.22-4.23-2.91-8.7-2.1-13.41,.92-3.05,1.05-6.23,1.41-9.37,1-8.77,3.17-17.39,3.27-26.26,.42-.49,.45-1.05,.3-1.64,.2-1.17,.22-2.34,.02-3.52l.05-1.53c-.11-1.68,.17-3.26,1.1-4.72,.51-.8,1.12-1.75,2.01-1.61,1.06,.17,1.66,1.17,1.85,2.32,.15,.88-.04,1.84,.58,2.62,.02,7.43-1.46,14.63-3.54,21.71-2.18,7.39-3.56,14.93-4.43,22.56-.54,4.79,.63,6.51,5,8.49,.2,2.22-1.7,.51-2.45,1.39,.88,.48,1.35,1.61,2.66,1.2,1.16-.36,.62,.58,.77,1l.05-.07c-.31,.53-1.43,.16-1.31,1.17-.13,0-.26,0-.39,0,.05-.03,.1-.08,.14-.08,.07,0,.14,.06,.21,.09l1.37,.88c.07,.86-.05,.94-1.29,.87-1.94-.33-3.63-1.28-5.34-2.16Zm6.26-52.25c.38-2.08,.66-4.16-.11-6.22-.16-.42-.42-.76-.91-.6-.39,.13-.38,.52-.25,.82,.83,1.91,.26,4.06,1.26,5.99Z"/><path class="o" d="M126.88,138.18c1.82,1.44,3.1,3.34,4.47,5.16,1.43,3.08,2.8,6.2,4.31,9.24,.87,1.74,1.23,3.62,1.78,5.44,.16,.53,.42,1.26-.18,1.61-.69,.4-1.04-.35-1.36-.77-.94-1.26-1.86-2.55-2.69-3.88-2.79-4.49-5.98-8.59-10.36-11.68-1.86-1.31-2.05-3.5-.83-5.33,1.5-2.25,2.94-.96,4.42-.01,.14,.09,.29,.15,.44,.23Z"/><path class="f" d="M110.26,191.5c-4.37-1.99-5.54-3.71-4.99-8.49,.87-7.63,2.25-15.17,4.43-22.56,2.08-7.07,3.56-14.28,3.54-21.71,.17-.6,.22-1.42,1.11-.54l.17,4.41c-.11,1.08-.21,2.17-.32,3.25-.07,.27-.14,.53-.21,.8-.11,1.07-.21,2.14-.32,3.2-.06,.28-.11,.55-.17,.82-.54,4.66-2.54,8.96-3.24,13.58l-.31,.54c-.41,1.68-.83,3.35-1.24,5.03-.44,.25-.36,.64-.27,1.04l-.26,1.48c-.45,.43-.38,1-.39,1.54-.88,1.31-.34,2.83-.64,4.23-.06,.26-.12,.52-.18,.78-.09,1.14-.18,2.28-.27,3.43l-.25,.61c-.27,1.01-.28,2.03-.06,3.06l.32,.59c.77,1.83,1.76,3.32,4.13,2.95,.53-.08,1.24-.32,1.57,.35,.33,.68,.06,1.27-.61,1.64-.15-.01-.31,0-.46,0-.07-.29-.16-.84-.21-.84-.48,.04-.73,.4-.89,.82l.03-.02Z"/><path class="f" d="M107.32,146.81c-.1,8.88-2.27,17.5-3.27,26.26-.36,3.13-.49,6.31-1.41,9.37-.94-1.25-.13-2.7-.44-4.03,.26-1.82,.52-3.64,.79-5.46l.15-2.08,.35-1.94,.13-1.59,1.42-9.49,.07-1.09c.31-4,.62-8.01,.92-12.01l.03-1.18c.07-.68,.28-1.39-.38-1.93-.01-.17,0-.33,.05-.49l-.48-.92,.98-.11h1.1c-.05,.54-.19,1.1,.31,1.52,.2,1.17,.18,2.35-.02,3.52-.48,.48-.4,1.06-.3,1.64Z"/><path class="f" d="M89.66,141.63c.9-.05,1.81-.35,2.66-.38,1.96-.08,2.15-1.14,2.34-2.74,.57-4.85,1.04-9.72,2.19-14.49l.78-1c.01,.42,.09,.84,.03,1.25-.84,5.69-1.53,11.39-2.12,17.11-.67,6.55-1.8,13.04-3.49,19.42l-.43-1.03,.08-2.3,.25-.68,.59-4.05,.07-1.01,.35-1.44c.77-2.15,.76-4.39,.72-6.62,.04-1.99-1.31-.71-2.05-.88l-3.5-.72c.41-.51,1.01-.35,1.54-.44Z"/><path class="l" d="M91.61,159.76l.43,1.03c-.32,2.83-.72,5.64-.93,8.48-.19,2.52,.07,5.04,1.16,7.35,.69,1.47,1.92,2.09,3.68,1.95,1.79-.14,1.23-1.53,1.83-2.44-1.07-.35-2.26-.03-3.02-1.16l2.87-1.09,.57,.03c.04,.28,.12,.49,.47,.35,.83,.05,1.41,.67,.98,1.28-.93,1.32-.72,3.52-2.84,3.94-2.3,.46-4-.51-5.29-2.38-2.74-3.96-1.85-8.31-1.27-12.58,.22-1.62,.89-3.17,1.35-4.76Z"/><path class="r" d="M142.48,168.44c-.04,1.33-.04,2.66-.15,3.98-.04,.47-.33,.99-.89,1.1-.58,.11-.96-.29-1.15-.75-1.15-2.75-2.48-5.46-2.32-8.56,.03-.56-.1-1.26,.54-1.55,.76-.34,1.24,.27,1.69,.72,1.23,1.24,1.55,2.9,2.02,4.49l.26,.57Z"/><path class="g" d="M105.73,141.16c-.04,.16-.06,.32-.05,.49-7.4,1.43-5.86,8.37-8,13.03-.56,1.22,.34,3.17-1.82,3.59l.2-2.03c1.45-4,1.36-8.33,2.67-12.37,.22-.68,.23-1.65,1.17-1.7,1.99-.1,3.79-1.23,5.83-1.02Z"/><path class="p" d="M96.06,156.24l-.2,2.03-.52,4.96-.11,1.09-.37,1.95c-.06,.86-.12,1.72-.19,2.58-.44,1.03-.67,2.29,.3,2.89,.86,.53,2.04,.19,2.7-.88,.49-.11,.82,.18,1.14,.48-.05,.83-.1,1.67-.15,2.5-.15,.04-.3,.06-.45,.06l-.57-.03c.39-.61,.87-1.2,.42-1.98-1.21,.88-2.24,2.11-3.97,1.15-1.64-.9-.58-2.18-.54-3.32,.02-.67,.01-1.33,.05-2,.24-4.07,.86-8.08,2.05-11.99l.41,.5Z"/><path class="l" d="M89.66,141.63c-.53,.09-1.13-.08-1.54,.44l-2.04-.39c-.88-1.07-1.14-.02-1.51,.47-.67,.88-.88,2.08-1.89,2.73-.08-1.41-.16-2.83-.24-4.24,.02-.76,.16-1.54-.32-2.24-.02-.77-.05-1.54-.07-2.3,.69,.06,.91,.62,1.16,1.12,1.33,2.67,3.78,3.7,6.45,4.4Z"/><path class="p" d="M107.33,140.14h-1.1c.96-.96,.55-2.34,1.06-3.44,.79-1.71,1.29-4.02,3.66-3.7,2.07,.28,2.72,2.17,2.36,4.16,1.25,.39,1.97-.72,2.97-.63l.06,.66-1.53,1.06c-.15-.09-.31-.11-.47-.04-.89-.89-.94-.06-1.11,.54-.63-.77-.44-1.74-.58-2.62-.19-1.15-.8-2.15-1.85-2.32-.89-.15-1.5,.8-2.01,1.61-.93,1.46-1.21,3.04-1.1,4.72-.12,0-.24,.01-.36,.01Z"/><path class="f" d="M126.97,196.05c-1.96-4.15-3-4.52-6.75-2.29-.46,.28-.87,.44-1.38,.28,.99-1.63,2.3-2.9,4.05-3.7,1.44-.23,2.3,.91,3.42,1.44,.62,1.35,1.15,2.73,1.18,4.25h-.52Z"/><path class="p" d="M102.2,178.41c.31,1.32-.5,2.77,.44,4.03-.81,4.71-.12,9.18,2.1,13.41-.33-.13-.65-.26-.98-.39l-.25-.5c-2.43-3.71-1.72-7.92-1.91-11.99v-1.01c.3-1.16-.08-2.44,.59-3.54Z"/><path class="g" d="M93.67,143.66c.04,2.24,.05,4.47-.72,6.62-2.53-.68-.83-2.34-.83-3.6,.65-.5,.65-1.01,0-1.51v-1.51h1.54Z"/><path class="l" d="M111.33,191.54c.15-.02,.31-.02,.46,0,.03,.33-.62,.55-.06,1,1.42,1.15,1.37,1.27-.48,2.55-.15-.42,.39-1.36-.77-1-1.31,.41-1.78-.72-2.66-1.2,.75-.88,2.64,.83,2.45-1.39l-.03,.02c.35,.71,.73,.17,1.1,.02Z"/><path class="h" d="M104.7,195.79c1.72,.88,3.4,1.83,5.34,2.16-2.16,.22-4.44,.73-5.34-2.16Z"/><path class="h" d="M126.97,196.05h.52c.67,1.09,.68,2.35,.82,3.57l-.77,.48c-.19-1.35-.38-2.7-.57-4.05Z"/><path class="h" d="M116.81,197.54c.59,1.49-.32,3.81-1.79,4.57l.18-1.01,.38-.92c.24-.53,.77-.93,.68-1.6,.14-.06,.19-.16,.15-.31l.39-.74Z"/><path class="e" d="M126.3,191.8c-1.12-.53-1.98-1.68-3.42-1.44,1.85-1.2,3.04-.85,3.42,1.44Z"/><path class="g" d="M94.67,168.86c.06-.86,.12-1.72,.19-2.58,2.31,1.03,.99,1.8-.19,2.58Z"/><path class="e" d="M128.57,204.13c0-.84,0-1.69,0-2.53,1.3,.84,1.29,1.68,0,2.53Z"/><path class="g" d="M103.13,170.87l-.15,2.08c-.46-.09-1.13-.03-1.07-.73,.06-.67,.39-1.28,1.21-1.35Z"/><path class="e" d="M114.34,138.2c.16-.07,.32-.05,.47,.04-.14,1.45,.34,2.95-.29,4.37l-.17-4.41Z"/><path class="e" d="M107.78,173.9c0-.54-.06-1.11,.39-1.54,.49,.25,1.1,.5,.85,1.16-.18,.51-.79,.34-1.24,.38Z"/><path class="e" d="M93.67,143.66h-1.54c-.38-.17-.49-.49-.51-.88,.74,.16,2.09-1.11,2.05,.88Z"/><path class="e" d="M114.42,203.66c-.18,.67,.14,1.48-.57,2-.64-.34-.54-.96-.56-1.53l1.13-.47Z"/><path class="l" d="M111.33,197.09l-1.37-.88,.04-.02c-.12-1.01,1-.64,1.31-1.17,0,.69,.02,1.38,.03,2.07Z"/><path class="g" d="M114.42,203.66l-1.13,.47c-.11-1.07,.34-1.61,1.45-1.54,.05,.4,.06,.79-.32,1.07Z"/><path class="l" d="M116.34,137.18l-.06-.66c.68-.33,.97-1.54,2.07-.93-.28,1.03-1.26,1.17-2.01,1.59Z"/><path class="g" d="M112.95,209.99l-.16,.69c-.5-.07-.97-.19-.9-.82,.02-.17,.37-.46,.4-.44,.25,.15,.45,.37,.67,.57Z"/><path class="g" d="M98.81,171.34c-.32-.29-.65-.59-1.14-.48,.08-.5,.25-1.03,.87-.86,.79,.23,.56,.81,.27,1.33Z"/><path class="g" d="M103.61,167.34l-.13,1.59c-1-.62-1.08-1.16,.13-1.59Z"/><path class="e" d="M125.76,218.23c-.22-.7,.12-1.22,.55-1.71,.22,.7,1.05,1.59-.55,1.71Z"/><path class="g" d="M105.1,156.76l-.07,1.09c-.93-.43-.92-.79,.07-1.09Z"/><path class="g" d="M115.59,200.19l-.38,.92c-.32-.06-.73-.17-.65-.55,.12-.54,.64-.37,1.03-.37Z"/><path class="g" d="M95.23,164.32l.11-1.09c.98,.47,.87,.83-.11,1.09Z"/><path class="e" d="M108.42,170.88c-.08-.39-.17-.78,.27-1.04,.79,.58,.45,.86-.27,1.04Z"/><path class="g" d="M103.52,194.96l.25,.5c-.17,.28-.48,.6-.71,.31-.39-.47,.13-.64,.47-.81Z"/><path class="g" d="M92.61,151.72l-.07,1.01c-.33-.06-.72-.11-.69-.54,.03-.41,.43-.43,.76-.47Z"/><path class="g" d="M106.06,143.58l-.03,1.18c-.82-.41-.79-.8,.03-1.18Z"/><path class="g" d="M116.42,198.28c.04,.15-.01,.25-.15,.31l-.74-.43c.07-.12,.12-.33,.22-.35,.37-.08,.53,.19,.67,.48Z"/><path class="g" d="M101.61,181.96v1.01c-.33-.05-.71-.09-.71-.51,0-.41,.39-.45,.71-.5Z"/><path class="p" d="M90.64,216.24c-.71,0-1-.41-1.06-1.06,.61,.1,1.46-.06,1.06,1.06Z"/><path class="d" d="M119.29,134.63c.45-.86,.62-2.27,2.14-1.14-.18,.2-.35,.41-.52,.61-.55,.13-.96,.71-1.61,.53Z"/><path class="g" d="M113.31,207.15l-.11,1.01c-.24-.15-.66-.28-.68-.45-.05-.52,.43-.5,.79-.56Z"/><path class="l" d="M118.32,135.62c-.39-1.08,.4-1,1.05-1.07,0,.7-.36,1.04-1.05,1.07Z"/><path class="p" d="M91.64,217.26c-.53-.18-1.02-.39-1.04-1.06,.97-.26,1.25,.16,1.04,1.06Z"/><path class="e" d="M92.13,145.17c.65,.5,.65,1.01,0,1.51v-1.51Z"/><path class="e" d="M106.7,186.59l-.32-.59,.32,.59Z"/><path class="e" d="M106.44,182.94l.25-.61-.25,.61Z"/><path class="e" d="M113.49,150.69c.06-.27,.11-.55,.17-.82-.06,.27-.11,.55-.17,.82Z"/><path class="e" d="M106.96,178.91c.06-.26,.12-.52,.18-.78-.06,.26-.12,.52-.18,.78Z"/><path class="e" d="M120.9,134.1c.17-.2,.35-.41,.52-.61h-.06c-.15,.21-.31,.41-.46,.61Z"/><path class="g" d="M98.21,173.9c.15,0,.3-.02,.45-.06,.01,.14,.02,.28,.02,.41-.35,.14-.43-.08-.47-.35Z"/><path class="e" d="M109.94,164.81l.31-.54-.31,.54Z"/><path class="e" d="M113.99,146.66c.07-.27,.14-.53,.21-.8-.07,.27-.14,.53-.21,.8Z"/><polygon class="e" points="142.52 158.78 142.31 158.66 142.4 158.56 142.52 158.78"/><path class="e" d="M142.48,168.44l-.26-.57,.26,.57Z"/><path class="e" d="M91.95,156.78l-.25,.68,.25-.68Z"/><path class="r" d="M114.57,103.73c-1.77-1.87-1.59-4.15-3.03-5.74-2.01-2.21-3.63-4.77-6.16-6.51-.67-.46-1.3-1.08-1.51-1.95-.21-.89-.03-1.65,.68-2.27,.69-.59,1.28-.12,1.82,.22,3.43,2.11,5.32,5.5,6.85,8.99,.9,2.06,2.04,4.25,1.35,7.26Z"/><path class="l" d="M96.06,156.24l-.41-.5c-.01-4.65,1.45-9.08,2.44-13.53,1.32-5.92,3.42-11.67,5.24-17.48,.58-1.85,.47-3.46-1.11-4.78l.57-.52c1.74,1.03,2.11,2.4,1.7,4.43-.97,4.76-2.4,9.36-4.25,13.84-1.15,2.79-.97,3.04,2.03,2.88,1-.05,1.99-.23,2.99-.34l.48,.92c-2.04-.21-3.84,.92-5.83,1.02-.94,.05-.95,1.01-1.17,1.7-1.3,4.03-1.22,8.37-2.67,12.37Z"/><path class="f" d="M96.98,92.53c-.95-1.37-.71-2.48-.74-3.53-.08-2.28-.42-4.45-2.03-6.24-.52-.58-1.05-1.36-.34-1.95,.71-.59,1.42,.04,1.82,.69,2.06,3.35,2.61,6.89,1.28,11.02Z"/><path class="l" d="M83.79,89.22c-.5,2.35-1,4.71-1.5,7.06-.2,.17-.34,.77-.66,.27-.55-.87-.63-1.83-.1-2.77,1.51-2.65,1.23-5.75,2.12-8.56h.47l.07,1.01c-.05,.81-.11,1.62-.16,2.42l-.23,.57Z"/><path class="h" d="M87.47,86.69c.17-.02,.33-.01,.5,.02-.5,3.18-1.19,6.34-.84,9.59-.14,.09-.17,.21-.11,.37l-.94,.14-.18-.52c.37-3.22,.17-6.54,1.57-9.59Z"/><path class="d" d="M89.72,109.53c-1.93,2.65-4.75,3.77-7.94,4.26,2.51-1.57,5.02-3.15,7.53-4.72l.41,.47Z"/><path class="s" d="M85.9,96.28l.18,.52c-.75,1.22-1.98,1.01-3.13,1.05-.93,.32-1.47-1.08-2.44-.54l.03,.03c.44-.66,.1-.93-.53-1.07l.04,.06c-.01-.67-.02-1.34-.03-2.01,.33-.64,.94-.53,1.5-.55-.53,.95-.45,1.91,.1,2.77,.32,.5,.47-.09,.66-.27,1.2,.33,2.41,1.44,3.61,0Z"/><path class="h" d="M102.78,119.43l-.57,.52c-2.98-1.17-3.35,1.59-4.59,3.05l-.78,1c-.18-3.72,2.53-5.81,5.94-4.57Z"/><path class="p" d="M68,110.9c-.17,.78-.7,.64-1.11,.32-1.41-1.1-2.94-.98-4.52-.56,.06-.36,.13-.72,.19-1.08l.06-.07c2.02-.43,3.84-.09,5.38,1.38Z"/><path class="f" d="M116.64,107.45c.11,.54-.11,1.02-.54,.94-1.07-.18-1.22-1.12-1.31-2-.05-.49,.02-1.11,.69-1.02,1.29,.16,.71,1.46,1.16,2.08Z"/><path class="p" d="M84.12,85.22h-.47c.31-1.67,.63-3.34,.94-5l.61,.46c-.13,.82-.25,1.63-.38,2.45-.41,.64,0,1.55-.7,2.1Z"/><path class="n" d="M93.61,78.81c-.1,.71-.47,1.29-1.21,1.3-.67,.01-.71-.53-.49-1.05,.22-.53-.02-1.46,.99-1.36,.59,.06,.71,.58,.71,1.11Z"/><path class="p" d="M69.95,93.81c.29-1.44-1.1-2.67-.49-4.14,.1,1.39,3.06,2.44,.49,4.14Z"/><path class="q" d="M87.02,96.66c-.06-.15-.03-.27,.11-.37,1.65-.07,2.55,.36,1.43,2.27l-1.53-1.9Z"/><path class="d" d="M89.31,109.06c.5-.77,.96-1.59,2.2-1.68,.12,1.38-.75,1.83-1.79,2.14l-.41-.47Z"/><path class="p" d="M66.39,93.25c1.2,.17,2.41,.35,3.61,.52-1.35,.84-2.61,1.03-3.61-.52Z"/><path class="q" d="M60.29,106.41l-.95-2.04c1.1,.31,1.95,.74,.95,2.04Z"/><path class="h" d="M80.5,97.3c.97-.54,1.52,.87,2.44,.54-1.1,1.12-1.77,.27-2.44-.54Z"/><path class="h" d="M80.02,94.32c.01,.67,.02,1.34,.03,2.01-.53-.66-.87-1.33-.03-2.01Z"/><path class="s" d="M81.06,135.04c.15,.06,.31,.08,.47,.05,.41,.2,.5,.56,.48,.97-.71,.02-.96-.38-.95-1.02Z"/><path class="h" d="M80.01,96.27c.63,.13,.97,.4,.53,1.07-.65-.12-.52-.63-.53-1.07Z"/><path class="s" d="M81.43,120.44l-.07,.18-.2-.2,.14-.13,.12,.16Z"/><path class="q" d="M62.56,109.59l-.34-.24c.3-.33,.27,.12,.4,.17l-.06,.07Z"/><path class="l" d="M123.47,204.31c-.08-1.24-.15-2.48-.24-3.72-.03-.38-.72-.95,.24-1.04,.52-.05,1.04-.17,1.46,.54,1.05,1.78,1.03,6.43-.19,8.16-.19,.27-.47,.55-.8,.32-.24-.17-.49-.51-.51-.78-.06-1.16-.02-2.32-.02-3.48h.06Z"/><path class="h" d="M127.55,201.11c.54,1.85,.71,3.7-.08,5.54l.08-5.54Z"/><path class="o" d="M39.81,56.02c1.24-.5,1.69-1.82,2.7-2.63,1.15-.92,2.23-1.19,3.43-.85,1.27,.36,1.63,1.64,1.78,2.79,.29,2.33-.22,4.47-2,6.17-1.33,.07-2.71,.32-3.73-.89l-1.23-1.68c-.58-.92,1.05-2.62-1.07-2.99l.05,.03,.07,.03Zm5.16,1.18c-1.14-.23-1.32-.56-1.27-1.62,.01-.21-.15-.45-.29-.64-.35-.48-.78-.24-1.06,.04-.72,.71-1.59,1.58-.75,2.57,.95,1.11,2.12,1.04,3.36-.35Z"/><path class="r" d="M38.1,59.01c.1-1.11,.61-2.07,1.11-3.03h.53l-.05-.03c-.17,1.24-.03,2.43,.62,3.53,.16,.66,.67,1.26,.36,2.01-.96-.72-2.73-.6-2.57-2.48Z"/><path class="i" d="M45.18,62.97l5.83-.28c-1.92,2.39-4.02,.4-5.78,.97-.02-.23-.03-.46-.05-.69Z"/><path class="k" d="M45.18,62.97c.02,.23,.03,.46,.05,.69-.92,.58-1.82,.5-2.89,.04,.84-1.27,1.76-1.36,2.84-.72Z"/><path class="k" d="M59.32,57.97c-.04,1.67-1.16,2.01-2.53,2.04h-.25l-.24-.02c.97-.73,1.81-1.65,3.02-2.02Z"/><path class="i" d="M40.67,61.49c.31-.75-.2-1.35-.36-2.01l.45-.54,1.23,1.68c-.25,.57-.7,.86-1.32,.88Z"/><path class="k" d="M50.21,61.99c.47-.41,1.04-.43,1.62-.39,0,.4,1.08,1.24-.38,1.04-.43-.06-.82-.42-1.24-.65Z"/><path class="i" d="M56.34,62.62c.28,.08,.35,.29,.2,.49-.15,.22-.38,.39-.58,.58-.05-.14-.14-.29-.13-.43,.02-.31,.08-.63,.5-.64Z"/><path class="l" d="M64.38,120.42c-1.66,.76-3.12,1.96-5.02,2.16-.77-.45-.32-.82,.15-.99,1.45-.55,2.89-1.1,3.97-2.29,.3-.33,.79-.48,1.11-.18,.47,.44-.19,.85-.2,1.31Z"/><path class="l" d="M48.81,106.46l.8-.79c.49-.28,.79-.88,1.71-.81-.84,1.39-1.66,2.67-2.41,3.99-.39,.68-.71,.92-1.12,.05,.66-.68,1.04-1.48,1.03-2.44Z"/><path class="i" d="M47.27,109.91c.27,.04,.64-.1,.68,.34,0,.09-.18,.29-.28,.29-.46,0-.32-.39-.38-.65l-.02,.02Z"/><path class="p" d="M44.54,49.66c2.56-1.54,4.61-1.76,7.23-.49-2.51-.89-4.7,.27-6.99,.79-.08-.1-.16-.21-.24-.31Z"/><path class="p" d="M44.78,49.96c-.26,.66-.87,.35-1.41,.92,.2-1.04,.84-.92,1.17-1.23,.08,.1,.16,.2,.24,.31Z"/><path class="i" d="M39.74,55.99h-.53c.22-.29,.43-.44,.6,.03l-.07-.03Z"/><path class="l" d="M80.02,152.01l-.15-.8c.51-1.96,.32-4.26,2.59-5.38-.58,2.15-1.39,4.21-2.44,6.18Z"/><path class="s" d="M82.12,138.4c.47,.69,.34,1.47,.32,2.24-1.67-.53-.04-1.52-.32-2.24Z"/><path class="o" d="M108.13,55.88c.55,.72,1.06,1.47,1.66,2.14,3.34,3.74,3.3,3.91-1.52,5.53-.85,.29-1.68,.63-2.52,.95-2.51-.26-5.06,.09-7.54-.5-.73-.17-1.61-.18-2.14-.6-1.39-1.1,.47-.63,.58-1.04,1.17-.38,2.19-.94,2.59-2.21,2.07-2.85,1.36-5.54-.48-8.17h2.87l3.65,1.39,2.86,2.5Z"/><path class="r" d="M94.42,53.27c1.17,.17,2.04-1.48,3.33-.54,1.38,2.11,1.88,4.34,.89,6.76l-1.98,2.53c-2.4,.42-4-.54-4.69-2.98-.64,.66-.14,1.24-.44,2.01-1.13-.68-2.85-.5-2.88-2.44-.02-1.6,1.34-2.2,2.48-2.82,.34-.19,1.25,.81,1.13-.54,.54-.5,1.08-1,1.62-1.51v-.03l.49-.44h.06Zm2.04,2.91c-.24-.2-.51-.53-.86-.68-.57-.26-1.19-.16-1.6,.33-.71,.82-.72,1.77-.39,2.78,.21,.65,.62,.96,1.27,.99,.68,.03,1.13-.4,1.31-.96,.19-.59-.34-.6-.76-.62-.35-.02-.7-.11-.68-.53,.02-.51,.36-.7,.85-.54,.54,.18,.75-.11,.87-.77Z"/><path class="p" d="M105.45,65.59c-2.75,.93-5.43,.53-8.08-.65,2.7,.22,5.41,.44,8.11,.66h-.03Z"/><path class="i" d="M96.66,62.02l1.98-2.53,.59,.67c-.4,1.27-1.42,1.83-2.59,2.21-.03-.12-.03-.23,.02-.35Z"/><path class="d" d="M95.67,66.6c-.38-.15-1.09-.09-.53-.84,.21,.26,.95,.19,.53,.84Z"/><path class="s" d="M88.97,77.64c-.04,1.4-.22,2.77-.84,4.06-.94-1.6-.93-3.01,.84-4.06Z"/><path class="s" d="M84.12,85.22c.7-.54,.29-1.46,.7-2.1,1.21,1.32,1.24,2.4-.63,3.1l-.07-1Z"/><path class="s" d="M83.79,89.22l.23-.57-.23,.57Z"/><path class="s" d="M87.86,83.21l-.26,.51,.26-.51Z"/><path class="n" d="M99.23,60.16l-.59-.67c.99-2.42,.49-4.65-.89-6.76,.12-.91-1.63-.39-1.17-1.52,.4-1,1.17-.07,1.75-.29,1.57-.61,3.24-.12,4.85-.42,1.43-.26,1.67,1.41,2.78,1.81,.45,.16-.52,.64-.68,1.07l-3.65-1.39c.16-.06,.32-.1,.47-.17,.04-.02,.03-.13,.05-.2-1.14,0-2.36-.73-3.38,.37,1.83,2.63,2.55,5.32,.48,8.17Z"/><path class="n" d="M93.87,53.75c-.39-.23-1.04-.24-.96-.87,.03-.22,.43-.51,.7-.56,.71-.12,.57,.6,.81,.96,0,0-.06,.01-.06,0-.45-.17-.53,.07-.5,.44v.03Z"/><path class="f" d="M110.95,143.54c-1-1.93-.43-4.08-1.26-5.99-.13-.3-.15-.7,.25-.82,.49-.16,.75,.17,.91,.6,.77,2.05,.49,4.13,.11,6.22Z"/><path class="h" d="M107.33,140.14c.12,0,.24,0,.36-.01l-.05,1.53c-.5-.42-.35-.98-.31-1.51Z"/><path class="h" d="M107.32,146.81c-.1-.58-.18-1.16,.3-1.64,.15,.59,.12,1.15-.3,1.64Z"/><path class="l" d="M109.96,196.21c-.07-.03-.14-.08-.21-.09-.04,0-.1,.05-.14,.08,.13,0,.26,0,.39,0l-.03,.02Z"/><path class="s" d="M111.33,191.54c-.37,.15-.74,.69-1.1-.02,.16-.42,.42-.78,.89-.82,.04,0,.14,.55,.21,.84Z"/><path class="s" d="M97.63,123.01c1.23-1.46,1.6-4.22,4.59-3.05,1.57,1.31,1.69,2.92,1.11,4.78-1.82,5.81-3.92,11.56-5.24,17.48-.99,4.45-2.45,8.88-2.44,13.53-1.19,3.91-1.82,7.92-2.05,11.99-.04,.66-.03,1.33-.05,2-.04,1.14-1.1,2.41,.54,3.32,1.73,.95,2.77-.27,3.97-1.15,.45,.78-.03,1.38-.42,1.98l-2.87,1.09c.76,1.14,1.94,.82,3.02,1.16-.6,.9-.05,2.3-1.83,2.44-1.76,.14-2.98-.48-3.68-1.95-1.09-2.31-1.35-4.84-1.16-7.35,.21-2.83,.61-5.65,.93-8.48,1.69-6.38,2.82-12.87,3.49-19.42,.59-5.72,1.28-11.42,2.12-17.11,.06-.41-.01-.83-.03-1.25Zm3.11,5.48c1.92-2.89,1.9-5.21-.2-7.05,1.04,2.53,.63,4.77,.2,7.05Z"/><path class="n" d="M44.97,57.2c-1.24,1.39-2.42,1.47-3.36,.35-.84-.99,.03-1.86,.75-2.57,.28-.28,.7-.52,1.06-.04,.14,.19,.3,.43,.29,.64-.05,1.06,.13,1.38,1.27,1.62Z"/><path class="k" d="M40.76,58.94l-.45,.54c-.65-1.1-.79-2.29-.62-3.53,2.12,.36,.49,2.07,1.07,2.99Z"/><path class="s" d="M98.76,51.99c1.02-1.1,2.24-.38,3.38-.37-.01,.07,0,.18-.05,.2-.15,.07-.31,.12-.47,.17h-2.87Z"/><path class="k" d="M96.46,56.19c-.11,.66-.32,.94-.87,.77-.5-.16-.83,.02-.85,.54-.02,.41,.34,.51,.68,.53,.42,.02,.95,.04,.76,.62-.18,.55-.63,.99-1.31,.96-.65-.03-1.06-.33-1.27-.99-.33-1.01-.32-1.96,.39-2.78,.42-.48,1.03-.59,1.6-.33,.35,.16,.62,.49,.86,.68Z"/><path class="s" d="M93.86,53.72c-.04-.37,.05-.61,.5-.44-.16,.15-.33,.3-.5,.44Z"/><path class="p" d="M100.74,128.49c.44-2.28,.84-4.51-.2-7.05,2.09,1.84,2.11,4.16,.2,7.05Z"/></g></g></g></svg>