<?xml version="1.0" encoding="UTF-8"?><svg xmlns="http://www.w3.org/2000/svg" viewBox="0 0 181.4 194.99"><defs><style>.d{fill:#e0c8bc;}.e,.f,.g{fill:#fff;}.h,.f,.g,.i,.j,.k,.l{stroke-miterlimit:10;stroke-width:.5px;}.h,.f,.l{stroke:#000;}.g,.i,.j,.k{stroke:#fff;}.j{opacity:.53;}.k,.l{fill:none;}</style></defs><g id="a"/><g id="b"><g id="c"><rect class="d" x="0" width="181.4" height="194.99" rx="14.95" ry="14.95"/><path class="h" d="M61.16,110.39c-5.52,4.46-7.11,12.7-4.76,19.4s8.03,11.86,14.47,14.84c13.94,6.47,31.01,3.32,43.84-5.15,4.41-2.92,8.61-6.66,10.35-11.65,1.33-3.81,1.1-7.97,.73-11.99-.38-4.14-.88-8.27-1.51-12.37-1.17-7.58-2.92-15.44-7.87-21.3-3.68-4.37-9.01-7.31-14.67-8.11l2.06-6.08c2.89,1.29,6.73-.4,7.72-3.41,.99-3.01-1.09-6.65-4.19-7.32,1.96-1.84,3.82-3.78,5.56-5.82,.66-.78,1.34-1.85,.83-2.73-.48-.85-1.69-.86-2.65-.67-2.81,.55-5.48,1.85-7.76,3.84-2.39-1.91-5.77-2.5-8.66-1.5-2.89,1-5.19,3.55-5.89,6.53-2.94,.2-4.5,3.14-4.56,6.09s2.97,5.83,5.59,4.69c1.2,1.84,1.86,3.05,2.53,4.58,.55,1.25-3.8,2.82-3.81,4.19-1.52-1.6-3.07-3.22-4.98-4.33s-4.27-1.65-6.36-.93c-2.63,.9-4.24,3.51-5.5,5.99-3.26,6.38-5.71,13.14-8.16,19.88-1.67,4.6-3.36,9.54-2.12,14.27,1.71,6.54,8.3,10.39,14.37,13.34"/><path class="f" d="M106.3,57.29c-1.41,3.01-2.23,6.19-2.3,9.52,0,.52,.01,1.08,.33,1.49,.36,.47,1,.61,1.59,.63,2.1,.08,4.2-1.02,5.35-2.78,1.14-1.76,1.28-4.13,.34-6.02s-2.9-3.21-4.99-3.37c-.57-2.73-2.44-5.16-4.94-6.4s-5.56-1.28-8.09-.1c-2.53,1.18-4.46,3.14-5.09,5.86-2.57,.57-4.63,3.32-4.95,5.92s1.07,5.33,3.34,6.65c.71,.41,2.03,.66,2.61,.08,.18-.18,.13-.2-.05-.8-1.07-3.57-1.1-7.86-.35-11.23,.41-1.85,1.9-3.53,3.34-4.76,1.44-1.23,3.33-1.94,5.22-1.85,1.97,.08,3.84,1,5.29,2.33,1.45,1.33,2.5,3.05,3.35,4.82,0,0,.02,.02,0,0Z"/><path class="f" d="M99.24,59.81c.73,.54,1.73,.64,2.62,.44s1.7-.67,2.45-1.17c-.03,.68-.2,1.35-.48,1.98-.24,.53-.59,1.04-1.13,1.27-.71,.31-1.57,.01-2.13-.51s-.91-1.25-1.33-2Z"/><path class="f" d="M89.61,59.59c.09-.02,.26,.05,.4,.15,.17,.12,.3,.22,.43,.33,.54,.45,1.35,.46,2.01,.23,.52-.18,.97-.57,1.52-.59,.1,.35-.14,.69-.37,.97-.36,.45-.74,.91-1.25,1.17-.63,.32-1.43,.26-2.02-.13s-.95-1.12-.89-1.82c0-.07,0-.14,.05-.21,.03-.06,.06-.06,.11-.08Z"/><path class="h" d="M91.48,61c-.15-.11-.38-.07-.49,.07s-.07,.38,.08,.48,.39,.04,.47-.12,0-.39-.07-.44Z"/><path class="h" d="M101.89,60.88h-.04c-.22,.04-.36,.29-.25,.48,.03,.05,.06,.08,.11,.11,.18,.11,.45,.02,.53-.17,0-.02,.01-.03,.02-.05,.05-.21-.15-.4-.37-.37Z"/><path class="k" d="M106,57.13c-4.98,2.37-13.23,1.91-16.78,.66-.02,0-.15-.02-.15-.02"/><path class="j" d="M101.15,64.26s0-.01-.01,0c-.41,.65-1.02,.9-1.69,1.08-1.2,.31-2.45,.4-3.68,.28-.78-.08-1.63-.29-2.1-.93-.05,1.06,.03,2.21,.69,3.03,.65,.81,1.76,1.13,2.8,1.1,.74-.02,1.49-.2,2.1-.63,.61-.43,1.03-1.08,1.3-1.78s.4-1.39,.59-2.15Z"/><path class="g" d="M98.14,66.48l.05,.96c0,.06,0,.13,.05,.18,.07,.07,.18,.06,.28,.03,.7-.21,1.31-.9,1.47-1.61-.64,.26-1.26,.44-1.84,.44Z"/><path class="g" d="M97.37,66.47c.02,.43,.03,.69,.05,1.11-.32,.09-.65,.11-.97,.07-.08-.01-.17-.03-.22-.09-.04-.05-.05-.12-.06-.19-.03-.29-.05-.7-.08-.99,.42,.05,.87,.07,1.28,.09Z"/><path class="g" d="M95.46,66.32s.04,.02,.04,.04c-.01,.35-.03,.53-.04,.82,0,.03,0,.06-.03,.07-.02,.02-.06,0-.09,0-.45-.19-.82-.58-.98-1.04,.34,.05,.95,.1,1.1,.11Z"/><path class="i" d="M97.25,61.1c-1.96,.4-3.67,1.84-4.4,3.7-.19,.49-.32,1.05-.13,1.55s.78,.87,1.26,.64c.49-.23,.59-.87,.73-1.39,.26-.97,.92-1.83,1.8-2.33s1.94-.64,2.91-.38"/><path class="k" d="M93.92,57.18c.26-.74,.55-1.49,1.11-2.04s1.46-.82,2.14-.44c.44,.24,.83,.75,1.14,1.14,.33,.41,.6,.91,.6,1.41-1.4,.21-3.6,.26-5-.07Z"/><path class="f" d="M16.6,70.7c-.97-.6-1.99-1.12-3.04-1.56-.36-.15-.75-.3-1.13-.22-.52,.11-.87,.6-1.16,1.05-.29,.45-.59,.95-.49,1.47,.07,.34,.29,.62,.52,.87,.84,.92,1.82,1.7,2.9,2.31,.81-1.34,1.63-2.68,2.38-3.92Z"/><path d="M53.39,107.82c1.43-1.04,1.96-3,1.69-4.75s-1.2-3.32-2.23-4.75c-5.96-8.3-15.44-13.37-22.19-21.04-1.94-2.2-3.68-4.64-6.11-6.27s-5.84-2.26-8.25-.59c-1.62,1.13-2.47,3.06-3.1,4.93-.49,1.46-.89,3.04-.45,4.51,.53,1.77,2.16,2.96,3.7,3.98,1.28,.84,2.59,1.67,4.07,2.06s3.15,.3,4.39-.59,1.86-2.7,1.02-3.97c-.47-.24-1.05,.25-1.12,.78s.21,1.03,.48,1.49l3.21,5.58c3.46,6,6.99,12.1,12.1,16.78,1.69,1.55,3.6,2.95,5.82,3.52s4.66,0,6.96-1.67Z"/><path class="g" d="M31.6,76.57c-.6-.26-1.4-.19-1.79,.34-.48,.65-.13,1.56,.24,2.28l-3.7,3.84c-.27,.28-.55,.58-.69,.95s-.09,.84,.21,1.09c.27,.23,.69,.22,1.02,.07s.59-.41,.84-.66l2.98-3.04c.23-.24,.48-.49,.81-.58,.61-.17,1.26,.28,1.88,.11,.66-.18,.95-1.02,.78-1.68s-.48-.88-.99-1.39c-.01,.02,0-.02,0,0,.01,0-.96-1.06-1.57-1.32Z"/><path class="f" d="M30.55,76.76c-.28,.05-.47,.32-.52,.59s.04,.56,.14,.82c.41,1.04,1.2,1.96,2.25,2.33,.3,.1,.66,.15,.92-.03,.19-.13,.3-.35,.33-.58,.06-.32-.02-.66-.16-.96s-.35-.56-.57-.8c-.38-.42-.82-.78-1.29-1.09-.18-.11-.36-.22-.57-.28s-.41-.02-.55,0Z"/><path class="f" d="M33.11,83.89l-4.02,3.21c-.3,.24-.6,.48-.82,.79s-.36,.7-.28,1.07,.41,.7,.79,.69c.31,0,.58-.22,.82-.42,1.58-1.32,3.16-2.65,4.79-3.9v-.02"/><path class="f" d="M35.78,80.71c-1.15-.24-2.39,.59-2.68,1.72s.33,2.41,1.37,2.96c.56,.3,1.25,.39,1.84,.17,.98-.35,1.52-1.51,1.35-2.54s-.95-1.88-1.89-2.31c0,0,0,.01,0,0Z"/><path class="f" d="M35.82,81.26c-.41-.12-.84-.03-1.17,.15s-.57,.51-.69,.87c-.21,.58-.14,1.26,.21,1.77s1,.81,1.61,.7c.55-.1,1.02-.52,1.22-1.04s.13-1.13-.15-1.62c-.26-.46-.57-.67-1.02-.84Z"/><path class="k" d="M17.81,71.84c-1.5,1.46-2.48,3.43-2.75,5.51s.18,4.23,1.26,6.03"/><path class="k" d="M19.81,72.87c-1.05,.08-1.95,.86-2.44,1.79s-.63,2-.7,3.06c-.08,1.29-.06,2.61,.22,3.87s.83,2.49,1.71,3.45v-.02"/><path class="k" d="M22.16,73.7c-1.21,.4-2.16,1.41-2.71,2.57s-.71,2.46-.74,3.74c-.02,1.1,.07,2.21,.41,3.26s.98,2.01,1.89,2.63"/><path class="f" d="M24.88,76.99c-.68-.17-1.45,.09-1.89,.64s-.52,1.36-.19,1.98c.21,.42,.58,.73,.93,1.04l2.68,2.32c.38,.32,.79,.66,1.28,.71,.64,.06,1.21-.4,1.6-.91,.48-.62,.82-1.46,.55-2.2-.21-.61-.77-1.02-1.31-1.38-1.21-.81-2.34-1.87-3.65-2.2Z"/><path class="l" d="M28.84,80.15c-.67-.23-1.47,0-1.92,.55s-.52,1.38-.17,1.99"/><path class="f" d="M35.13,82.23c.08,.34,.16,.68,.26,.97l.81-.95"/><path class="f" d="M30.96,77.99c.38,0,.77,.08,1.13,.22-.12,.3-.19,.63-.18,.95"/><path class="h" d="M46.67,104.17c-.15-5,.1-10.23,2.49-14.63s7.5-7.67,12.36-6.47c2.09-6.19,7.89-10.97,14.37-11.82,6.48-.85,13.32,2.26,16.94,7.7,.67,1.01,1.25,2.16,1.16,3.37-.22,2.78-3.6,4-6.37,4.28s-6.1,.62-7.36,3.11c-.9,1.78-.3,3.9-.32,5.89-.03,3.43-2.14,6.75-5.22,8.24s-7,1.08-9.7-1.03c1.27,3.68,0,8.1-3.04,10.53s-7.62,2.73-10.94,.69-4.26-6.17-4.37-9.87Z"/><path class="f" d="M14.18,164.6c-.15-.08-.21-2.9-.21-4.38,0-14.57,2.05-33.11,1.81-47.68-.02-1.03-.12-1.59,.47-2.43,.45-.65,1.24-1.13,2.1-1.2,1.64-.13,3.21,.53,4.07,1.2,.39,.3,.62,.92,.6,1.19-1.04,15.2-2.36,34.75-2.91,49.74,2.85,2.54,5.57,5.22,8.15,8.03-1.07,.54-3.03,1.47-3.4,1.6-.23-.12-6.94-4.16-10.68-6.07Z"/><path class="f" d="M14.09,164.62l6.03-3.74"/><path class="f" d="M21.46,109.59c-1.03-.41-2.19-.79-3.29-.66-1.1,.13-2.2,1.01-2.16,2.11,.02,.63,.41,1.21,.92,1.58s1.13,.56,1.75,.66c.83,.14,1.71,.13,2.48-.21s1.4-1.09,1.43-1.93-.41-1.26-1.12-1.55Z"/><path class="h" d="M20.73,85.5c-.6,8.68-1.21,17.35-1.67,26.04"/><path d="M109.31,82.64c-1.02-1.76-3.63-1.98-5.43-.46s-2.42,4.48-1.31,6.15c.64,.96,1.77,1.59,1.88,2.85,.11,1.29-.88,2.55-1.49,3.81-1.2,2.47-.96,5.18-.69,7.69,.32,2.93,.76,6.09,2.77,7.77,1,.83,2.35,1.26,3.02,2.43,.57,.99,.53,2.34,.77,3.53,.64,3.17,3.16,5.1,5.53,6.81l18.69,13.44c1.57,1.13,2.78,2.58,4.79,2.72s5.56-4.24,6.43-6.45c.83-2.12-1.38-1.64-2.84-2.81-1.46-1.17-3.04-2.37-4.74-3.15-4.16-1.92-6.39-5.66-9.22-9.38-2.43-3.2-5.31-5.67-6.02-9.99-.58-3.53,.04-7.68-1.72-10.5-.95-1.52-2.56-2.58-2.86-4.49-.22-1.36,.29-2.89,.23-4.3-.09-2.04-1.37-3.6-2.95-4.43-1.58-.83-3.45-1.04-4.87-1.24Z"/><path d="M142.1,133.9c8.74,.54,17.45,1.38,26.13,2.51,.66,.09,1.34,.18,1.9,.53,.83,.51,1.26,1.45,1.64,2.35l6.51,15.09c.14,.33,.28,.75,.05,1.03-.2,.25-.58,.25-.9,.22l-29.65-2.49c-.73-.06-1.49-.13-2.1-.52-.92-.58-1.3-1.7-1.62-2.73-1.39-4.51-2.8-9.07-3.07-13.78-.03-.44-.04-.9,.16-1.3s.65-.7,.95-.9Z"/><path class="e" d="M167.56,137.92c-8.01-1.06-15.96-1.54-24.03-2.22l2.62,13.06c.13,.67,.28,1.37,.74,1.87,.68,.74,1.8,.82,2.81,.86,8.51,.32,17.36,1.66,25.68,1.97,.29,.01,.49-.3,.36-.56-2.14-4.14-4.6-9.53-6.28-13.53-.33-.78-1.05-1.34-1.89-1.45Z"/><path class="i" d="M137.29,138.98c.97,0,1.85,.62,2.49,1.35s1.09,1.61,1.68,2.39c2.3,3.02,6.25,4.18,9.92,5.16,.52,.14,1.06,.28,1.59,.2s1.06-.43,1.17-.96c.09-.45-.14-.92-.49-1.22s-.78-.48-1.2-.65l-4.94-1.98c1.45,1.02,3.62,.85,4.89-.38,.11,1.88,1.4,3.64,3.17,4.3,.5,.19,1.2,.22,1.44-.26,.16-.32,.01-.72-.21-1s-.53-.49-.76-.77c-.71-.9-.42-2.21-.66-3.33-.26-1.19-1.2-2.21-2.37-2.56-1.17-.35-2.52,0-3.52,.71,.95-.33,1.93-.67,2.93-.65s2.07,.47,2.53,1.36c.38,.72,.36,1.68,.98,2.2,.44,.37,1.08,.4,1.66,.41,.72,.01,1.65-.14,1.79-.85,.15-.75-.74-1.22-1.39-1.61-.99-.58-1.76-1.52-2.14-2.6-.2-.59-.31-1.24-.72-1.7-.5-.56-1.34-.71-2.08-.56s-1.39,.55-2.04,.94c.57-.75,1.57-1.15,2.5-1.01,.93,.14,1.77,.82,2.09,1.71,.21,.57,.23,1.21,.55,1.72s1.16,.77,1.5,.27c.24-.36,.06-.87-.27-1.16s-.75-.43-1.12-.64c-1.05-.6-1.71-1.82-1.64-3.02,.03-.46,.15-.91,.14-1.37s-.2-.96-.61-1.16c-.4-.2-.88-.06-1.3,.09l-3.35,1.13c.46-.54,1.24-.61,1.93-.76s1.47-.53,1.55-1.23c.07-.56-.38-1.08-.91-1.28s-1.11-.17-1.67-.13c-1.99,.15-4.71,.34-6.83,.42,.29,.98-.25,1.57-.82,2.42s-.99,1.42-2.01,1.51c-.91,1.71-1.8,3.66-3.47,4.54Z"/><path class="i" d="M132.19,136.24c.66,1.09,1.85,1.73,2.99,2.31,.62,.32,1.29,.64,1.97,.53,.48-.08,.9-.36,1.31-.64,.66-.46,1.13-1.03,1.63-1.66,.47-.59,.69-.92,.94-2.01,1.12,.06,1.92-.75,2.49-1.72,.64-1.09,.64-2.99,.38-3.42-.31-.5-3.4-1.98-3.88-2.18s-.66-.18-1.06,.14c-.31,.25-.92,1.1-1.24,1.77-.5,1.02-1.15,2.62-.76,3.2,.47,.7,3.45,1.95,4.06,2.23-.94-.32-2.22-1.01-3.18-1.51-.3,1.17-1.14,2.33-2.21,2.89s-2.38,.64-3.42,.08Z"/><path class="g" d="M141.68,128.77s-.06-.03-.09-.05c-.4-.2-.78-.35-1.17-.54s-.89-.32-1.29-.11c-.29,.15-.46,.45-.61,.74-.39,.74-.72,1.52-.99,2.31-.1,.29-.19,.61-.12,.91,.1,.4,.45,.68,.79,.9,.62,.4,1.27,.74,1.96,1.01,.42,.16,.88,.3,1.31,.17,.53-.15,.87-.66,1.14-1.12,.35-.61,.63-1.26,.82-1.93,.09-.32,.16-.67,.05-.99-.14-.38-.5-.63-.86-.81-.34-.17-.66-.34-.94-.5Z"/><path class="f" d="M126.41,132.72c-1.01-.94-.72-1.44,.62-1.13,.31,.07,.63,.09,.91,0,.83-.25,2.33-1.71,2.9-2.36l2.43,1.99c-.46,.58-1.86,2-2.57,2.23-1.12,.38-2.37,.26-3.47-.17-.26-.1-.55-.31-.82-.56Z"/><path class="f" d="M136.69,124.71c1.17,1.12,1.52,3.01,.82,4.47s-2.38,2.38-3.99,2.18-3.01-1.52-3.32-3.11,.5-3.33,1.91-4.12c1.41-.79,3.35-.59,4.58,.58Z"/><path class="f" d="M135.84,125.19c.96,.75,1.36,2.14,.95,3.29s-1.61,1.96-2.82,1.93c-1.22-.03-2.37-.91-2.72-2.08s.12-2.53,1.12-3.23c1-.7,2.46-.7,3.47,.09Z"/><path d="M143.68,93.43c-2.62-3.52-5.37-7.15-9.22-9.25-3.85-2.1-9.15-2.24-12.24,.88,.49-4.65-3.11-9.29-7.69-10.23-4.58-.93-9.57,1.75-11.56,5.99-.91,1.94-1.24,4.21-.54,6.24,1.18,3.42,4.79,5.24,7.39,7.77,3.27,3.18,4.99,7.62,7.85,11.18,3.42,4.26,8.51,7.15,13.92,7.9s11.1-.65,15.54-3.83c1.87-1.33,3.56-3.02,4.43-5.14s.8-4.72-.59-6.54c-1.94-2.54-5.82-2.99-7.29-4.96Z"/><path d="M154.05,59.07c2.65,.73,5.45-.22,8.04-1.15,.87-.31,1.79-.67,2.35-1.4,.44-.59,.59-1.35,.72-2.07,.43-2.38,.81-4.83,.38-7.21s-1.83-4.72-4.06-5.65c-2.15-.89-4.59-.35-6.84,.2-1.12,.27-2.37,.65-2.98,1.67-.41,1.53-.42,3.16-.04,4.7,.15,.58,.35,1.2,.15,1.77-.2,.59-.78,.97-1.35,1.22-.98,.43-2.05,.62-3.08,.93s-2.06,.75-2.75,1.57c-.55,.64-.83,1.64-.32,2.31,.32,.42,.89,.61,1.42,.6s1.05-.19,1.55-.36c2.35-.81,4.7-1.62,7.1-2.34l-.56,3.69c-.04,.23-.07,.47-.03,.7s.16,.46,.33,.82Z"/><path class="e" d="M157.84,51.32c0,.48-.31,.92-.71,1.19s-.88,.39-1.35,.49-.95,.19-1.39,.4l.04,.25c.73-.11,1.48-.22,2.14-.56s1.22-.96,1.26-1.77Z"/><path class="e" d="M154.09,49.21c.55-.22,1.12-.44,1.72-.45s1.23,.23,1.53,.74c.26,.44,.22,1,.17,1.51-.04,.4-.1,.83-.38,1.12-.22,.23-.54,.33-.85,.42-1,.29-2.04,.58-3.08,.46,.31-1.26,.62-2.51,.89-3.79Z"/><path class="i" d="M140.08,90.84c-.45,4.07,.12,8.25,1.66,12.05,.57,1.41,1.37,2.87,2.76,3.49,1.62,.72,3.56,.06,4.96-1.03,3.53-2.72,4.61-7.55,4.88-11.99,.75-12.39-2.91-25.02-.1-37.11,.76-3.27,1.92-6.95,.12-9.78-1.31-2.05-4.12-3-6.4-2.15-1.19-.6-2.86,.38-2.9,1.72-1.5-.51-3.17,.75-3.59,2.28s.07,3.17,.76,4.6,1.57,2.79,1.97,4.33c.5,1.9,.22,3.91-.07,5.86-1.36,9.39-3.03,18.74-4.03,27.75Z"/><path d="M141.04,91.68c-.17-.45-.75-.63-1.2-.46s-.74,.61-.86,1.07-.09,.95-.06,1.42c.14,1.98,.33,3.96,.82,5.88s1.29,3.79,2.55,5.32c1.21,1.47,3.07,2.65,4.94,2.28,1.79-.36,3-1.99,4.04-3.5,.68-.99,1.39-2.1,1.25-3.3-.09-.74-.51-1.42-1.04-1.94s-1.17-.93-1.81-1.32c-2.95-1.84-5.9-3.67-8.63-5.45Z"/><path class="i" d="M140.94,47.02c-2.83-.15-5.93-.21-8.17,1.53-1.25,.97-2.07,2.42-2.59,3.91-1.11,3.18-.98,6.78,.34,9.87,.75,1.75,1.99,3.43,3.8,4.04,1.5,.5,3.15,.18,4.65-.3,1.42-.45,2.83-1.06,3.87-2.11,1.13-1.14,1.73-2.71,2.08-4.28,.52-2.28,.58-4.68-.04-6.93s-1.94-4.34-3.95-5.72Z"/><path class="e" d="M135.91,47.79c2.2,.6,4.23,2.31,5.11,4.42s.7,4.59,.47,6.86c-.15,1.47-.44,2.95-1.15,4.24s-2.24,2.65-3.65,3.1c1.26-.1,2.76-1.18,3.48-2.22s1.25-2.17,1.44-3.42c.45-2.88,.85-5.98-.27-8.67s-3.51-4.52-6.33-4.51c.2,.12,.7,.11,.91,.23,0,.01,0,.03-.02-.04Z"/><path class="e" d="M134.9,55.45c-.59,0-1.05,.39-1.34,.9s-.31,1.26-.22,1.84c.1,.66,.73,1.24,1.38,1.39,.51,.11,.96-.14,1.26-.56,.46-.64,.63-1.78,.31-2.44s-.58-1.13-1.38-1.13Z"/><path class="e" d="M157.42,48.2c.84,.6,1.31,1.68,1.17,2.7s-.88,1.94-1.85,2.29c-.09,.02-.1,.17-.03,.23s.18,.05,.28,.03c.78-.16,1.4-.79,1.7-1.52s.29-1.56,.14-2.34c-.07-.35-.18-.71-.41-.98s-.61-.45-.99-.4Z"/><path class="e" d="M151.89,43.56c1.02-.89,2.36-1.44,3.71-1.41,1.35,.03,2.7,.65,3.53,1.72,.75,.98,1.04,2.23,1.24,3.45,.37,2.26,.52,4.57,.2,6.83-.2,1.4-.63,2.87-1.71,3.79-1.3,1.13-3.22,1.18-4.91,.86-.08,.27,.13,.55,.39,.65s.55,.08,.82,.06c1.37-.13,2.83-.29,3.91-1.16,1.03-.82,1.52-2.15,1.82-3.43,.71-3.1,.55-6.39-.47-9.4-.31-.91-.71-1.82-1.41-2.47-1.12-1.04-2.79-1.23-4.31-1.1-.62,.05-1.24,.15-1.81,.4s-1.09,.65-1.37,1.21c.12,.14,.38,.12,.38,0Z"/><path class="e" d="M163.43,43.47c.61,.46,1.07,1.1,1.37,1.8s.45,1.46,.52,2.22l-.18-.04-.14-.42-.07,.18-.23-.17c-.08,.03-.16-.01-.22-.07s-.08-.14-.11-.22c-.2-.52-.49-1-.84-1.43,.35,.45,.55,1.01,.56,1.58l-.3-.03c0-.23-.09-.45-.23-.63,.12,.23,.14,.5,.07,.74-.07-.33-.25-.63-.51-.84,.12,.26,.17,.56,.12,.85l-.18-.03c-.09-.24-.21-.47-.37-.68,.16,.48,.25,.98,.25,1.49-.09-.52-.31-1.01-.63-1.43,.1,.3,.15,.62,.14,.93-.06-.24-.16-.48-.28-.7,.06,.27,.07,.54,.04,.81l-.21-.7c.04,.39,.03,.78-.04,1.16-.01-.29-.08-.58-.19-.85l.05,.42c.03-.23-.02-.46-.13-.66-.05,.24-.06,.48-.04,.72l-.15-.44c.17,.65,.13,1.36-.13,1.98-.3-1.55-.6-3.11-1.2-4.56,.48,.22,.86,.64,1.02,1.14-.11-.35-.28-.67-.51-.96,.37,.18,.67,.48,.85,.85-.04-.2-.13-.39-.27-.55,.13,.04,.24,.15,.27,.28l-.17-.3c.14,.08,.26,.21,.32,.37l-.13-.41c.16,.17,.29,.37,.38,.58-.08-.37-.21-.72-.39-1.04,.37,.41,.68,.89,.89,1.4-.08-.56-.25-1.11-.5-1.62,.18,.13,.32,.31,.39,.52l-.18-.51,.23,.35-.12-.44c.3,.38,.55,.79,.75,1.22-.07-.39-.23-.77-.44-1.1,.23,.18,.43,.41,.56,.67-.07-.27-.2-.53-.37-.76,.41,.22,.74,.58,.92,1.01-.26-.64-.63-1.23-1.1-1.73,.19-.05,.37,.09,.5,.23,.34,.38,.6,.84,.73,1.33-.14-.48-.35-.94-.63-1.36,.33,.23,.59,.56,.74,.93-.15-.37-.35-.72-.59-1.04l.54,.68c-.14-.25-.28-.5-.43-.76Z"/><path class="e" d="M165.28,51.94c.17-1.64,.33-3.33-.12-4.91,.21,1.62,.24,3.26,.12,4.91Z"/><path class="e" d="M164.39,44.52c-.56-.92-1.34-1.7-2.26-2.26,.53,.41,1,.88,1.39,1.42,.25,.33,.49,.71,.87,.84Z"/><path class="k" d="M137.77,56.92c-.22-2.8-1.17-3.8-2.76-3.8-1.44,0-2.91,1.39-2.91,4.05,0,4.28,2.05,4.61,2.91,4.58,1.03-.03,3.03-1.31,2.76-4.83Z"/><path class="k" d="M125.74,88.09c1.47-.06,2.73,1.22,3.16,2.63s.21,2.93,0,4.39"/><path class="k" d="M127.55,86.65c.12,.9,.98,1.63,1.89,1.62s1.74-.78,1.83-1.68"/><path class="k" d="M132.57,88.14c-1.16,.6-2.01,1.77-2.22,3.07s.25,2.67,1.17,3.6"/><path d="M73.57,87.03c-1.42-.15-2.48,1.39-2.68,2.81s.1,2.89-.28,4.28c-.48,1.79-2.01,3.1-3.6,4.05-1.59,.95-3.34,1.67-4.76,2.86-1.97,1.65-3.18,4.19-3.21,6.76s1.11,5.14,3.04,6.84c.9,.79,2.08,1.78,1.67,2.9-.17,.46-.57,.78-.93,1.12-2,1.87-2.79,4.79-2.55,7.52s1.42,5.3,2.86,7.63c1.56,2.53,3.52,4.9,6.09,6.41,2.57,1.5,5.83,2.04,8.56,.87s4.69-4.25,4.07-7.16c-.79-3.69-5.01-5.75-6.18-9.34-1.22-3.75,1.26-7.56,2.79-11.2,3.67-8.72,1.63-19.55-4.9-26.33Z"/><path class="i" d="M97.8,88.63l-1.91-15.91c-.07-.57-.17-1.2-.62-1.55-.48-.37-1.16-.29-1.75-.18l-4.64,.81c-1.24,.22-2.58,.48-3.45,1.4-.85,.9-1.04,2.22-1.13,3.46-.28,3.96,.13,7.93,.54,11.88,.15,1.45,.34,3,1.31,4.1,.91,1.03,2.36,1.45,3.73,1.41,1.37-.04,2.7-.48,4.01-.91,1.16-.39,2.37-.8,3.23-1.66s1.27-2.32,.69-2.84Z"/><path class="e" d="M92.15,72.04c-2.19,.39-4.55,1.15-5.71,3.05-.98,1.6-.88,3.61-.74,5.47l.59,8.01c.07,1,.17,2.07,.76,2.88l-.88-10.72c-.15-1.88-.28-3.9,.7-5.51,1.11-1.83,3.35-2.63,5.46-2.98-.08-.1-.16-.2-.17-.21Z"/><path class="i" d="M78.86,95.65c.04-2.49,.09-5,.72-7.4s2.23-5.72,4.63-6.34c.07-.02,.16,3.28,.33,4.51,.12,.86,.39,1.81,1.22,2.07s1.73,.18,2.57-.02c2.31-.54,4.42-1.91,5.85-3.81,1.43-1.89,2.56-4.29,2.45-6.66,.92,.23,.92,1.33,1,2.28,.29,3.1-.91,6.3-3.16,8.45,1.59-1.08,2.55-3.05,3.01-4.91,.96,2.47-.19,5.89-2.65,6.87,1.17-.2,1.91-1.24,2.45-2.29s.52-2.4,.52-3.59c.87,3.18,1.61,6.18-1.2,7.91-1.61,.99-5.23,2.42-6.33,3.97-.35,.49-.6,1.08-1.1,1.41-.63,.41-1.45,.29-2.19,.14-2.74-.57-5.42-1.37-8.13-2.57Z"/><path d="M79.02,95.29c-3.26,11.4-5.16,21.29-8.42,32.7-1.33,4.67-2.39,10.44,1.17,13.74,2.62,2.43,6.92,2.3,9.96,.44s5.02-5.08,6.35-8.39c4.74-11.82,3.76-24.05,1.63-36.61,.05,0-2.52,.42-10.7-1.87Z"/><path class="l" d="M116.25,133.59c.07,7-2.88,13.98-8,18.74h.03"/><path class="l" d="M114.46,129.36c1.34,7.33-.96,15.23-6.07,20.65"/><path class="f" d="M109.95,123.09c-6.29-4.62-14.17-6.7-21.97-6.99-7-.26-14.21,.92-20.22,4.53-5.36,3.22-9.57,8.34-11.68,14.23s-2.14,12.51-.05,18.41c1.06,2.99,2.75,5.92,5.48,7.53,1.88,1.11,5.26,4.55,7.41,4.92,7.65,1.34,13.17,2,21.86,1.29,8.11-1.35,16.9-5.88,20.65-12.4,3.81-6.64,7.08-14.28,4.71-21.56-1.36-4.19-3.8-8.2-6.2-9.96Z"/><path class="f" d="M41.92,99.21c3.13-1.94,10.66-1.87,15.3,.96,4.64,2.82,7.58,7.74,9.03,12.85s1.58,10.46,1.7,15.76c.12,5.29,.26,10.65,1.73,15.75,.78,2.71,1.95,5.47,1.45,8.24-.77,4.32-5.24,7.01-9.5,8.5-3.69,1.29-7.81,2.09-11.51,.82-5.41-1.85-8.38-7.53-9.67-12.94-3.36-14.03,.85-28.57,1.35-42.95,.1-2.83-1.06-5.3,.13-6.98Z"/><path class="g" d="M65.79,158.82c2.75-.93,5.38-2.77,6.28-5.46,.62-1.86,.35-3.89-.07-5.81-.38-1.7-.87-3.37-1.36-5.04-.19-.66-.43-1.38-1.03-1.75-.75-.47-1.81-.15-2.41,.49-1.05,1.13-.91,2.9-.34,4.33s1.49,2.71,1.88,4.19c.57,2.21-.23,4.69-2.01,6.18-.45,.38-.98,.72-1.22,1.25s.01,1.32,.28,1.6Z"/><path class="f" d="M30.74,150.24l3.9-36.62c.38-3.53,.78-7.16,2.54-10.27,1.76-3.11,5.23-5.58,8.87-5.13,4.04,.5,6.88,4.44,7.37,8.35s-.8,7.8-2.08,11.53l-6.04,17.65c-1.51,4.42-3.03,8.85-4.08,13.4-.49,2.1-.9,4.29-2.14,6.07s-3.6,3.06-5.71,2.36c-1.51-.49-2.57-1.9-2.94-3.4s.2-2.99,.31-3.95Z"/><path class="f" d="M31.13,149.2c1.04,1.51,2.79,2.55,4.65,2.77s3.8-.38,5.18-1.6"/><path class="e" d="M46.25,98.02c-1.01,.07-1.75,.2-2.88,.63-.93,.35-.73,1.96-.04,2.66,.58,.59,1.49,.7,2.33,.77l3.64,.31c1.17,.1,1.88,.16,2.57,1.08,.61,.81,.65,2.16,.29,3.09s-.5,1.64-.84,2.58-.4,2.07,.25,2.85c.81,.96,.46,1.16,1.48,.41s1.97-3.44,2.16-4.67c.37-2.45-.05-3.98-1.56-5.98-1.51-2-6.35-3.8-7.39-3.72Z"/><path class="e" d="M66.57,114.49l-.89,.2"/><path class="f" d="M44.73,164.84c.98-1.84,2-3.77,1.94-5.84-.07-2.19-.36-4.02-1.74-5.61s-3.56-2.48-5.32-1.3c-.91,.61-1.49,1.6-2.36,2.26-2.14,1.62-5.85,.4-6.54-2.15-.26-.93-.16-1.93-.37-2.87s-.94-1.91-1.93-1.93c-.92-.01-1.65,.81-1.93,1.66s-.27,1.77-.51,2.63c-.55,2.05-2.4,3.51-4.32,4.53-1.92,1.01-4.02,1.73-5.74,3.03-1.72,1.3-3.05,3.4-2.56,5.47,.69,2.95,4.53,4.1,7.62,3.71s6.06-1.76,9.17-1.63c1.86,.08,3.65,.7,5.45,1.16,1.8,.46,3.73,.78,5.51,.26,1.78-.52,2.88-1.75,3.63-3.37Z"/><path d="M46.75,158.13c-.35-1.72-.73-3.49-1.81-4.9s-3.07-2.32-4.73-1.65c-1.54,.62-2.31,2.33-3.75,3.13-1.76,.98-4.33,.14-5.13-1.67-.51-1.15-.35-2.46-.68-3.66s-1.55-2.41-2.75-1.95c-.8,.3-1.16,1.18-1.4,1.97-.43,1.43-.75,2.94-1.61,4.17-2.21,3.19-7.72,3.22-9.86,6.45,.55-.93,2.33-.92,3.35-.5,1.23,.51,1.77,1.93,2.8,2.76,1.36,1.09,3.39,1,5.01,.34s2.99-1.78,4.48-2.67,3.27-1.58,4.99-1.21,3.18,2.17,2.58,3.77c.83-1.51,1.95-2.91,3.47-3.78,1.52-.87,3.47-1.15,5.03-.59Z"/><path class="f" d="M46.02,161.98c-2.4,1.21-4.85,2.43-7.51,2.9-4.01,.7-8.15-.37-12.21,0-2.07,.19-4.08,.76-6.12,1.16-2.04,.4-4.16,.63-6.19,.16"/><path class="f" d="M73.13,94.76c3.34-2.44,11.7-2.87,17.02,.04s8.92,8.35,10.86,14.1,2.44,11.88,2.93,17.93,.82,12.24,2.96,17.93c1.6,4.25,1.94,6.69,1.58,9.89-.57,5-4.76,7.84-9.38,9.83-4.01,1.73-8.51,2.93-12.71,1.73-6.12-1.75-9.79-8.05-11.58-14.16-4.66-15.84-.96-32.79-1.36-49.3-.08-3.25-1.53-6-.32-8Z"/><path class="g" d="M102.26,162.59c2.99-1.25,5.78-3.55,6.59-6.68,.57-2.18,.13-4.48-.47-6.65-.53-1.92-1.19-3.8-1.84-5.68-.26-.74-.57-1.55-1.26-1.93-.87-.48-2.02-.05-2.64,.73-1.09,1.37-.82,3.39-.09,4.98s1.84,3.01,2.36,4.68c.78,2.49,.05,5.39-1.81,7.22-.47,.47-1.04,.89-1.26,1.52s.1,1.51,.42,1.81Z"/><path class="l" d="M108.79,149.57c-.04,.07-.27,.34-.33,.41-1.63,2.09-6.94,2.8-9.1,1.15-2.23-1.7-4.08-4.11-4.27-7.26-.44-7.41-.22-15.95,1.06-23.26,.52-2.97,1.21-5.91,1.37-8.92s.11-5.83-1.33-8.47c-1.13-2.07-4.32-4.57-7.33-4.54"/><path class="l" d="M89.01,100.62c1.54-.06,4.18,1.32,4.95,2.69s1.12,2.96,1.33,4.52c.87,6.44-1.85,13.46-2.81,19.89-.97,6.43-1.69,13.09,.09,19.34,.66,2.32,1.7,4.61,3.5,6.21,1.86,1.66,4.47,2.44,6.94,2.08,2.47-.36,6.14-3.95,6.18-3.95"/><path class="f" d="M63.96,154.44l1.88-42.21c.18-4.07,.39-8.26,2.14-11.94,1.74-3.68,5.43-6.75,9.49-6.48,4.51,.3,7.92,4.61,8.73,9.06s-.37,8.98-1.53,13.35l-5.52,20.64c-1.38,5.17-2.77,10.35-3.63,15.63-.4,2.44-.71,4.98-1.97,7.11s-3.78,3.75-6.17,3.1c-1.71-.46-2.98-2-3.49-3.69s.03-3.44,.08-4.55Z"/><path class="f" d="M64.32,153.23c1.26,1.66,3.26,2.73,5.34,2.85,2.08,.12,4.19-.7,5.64-2.19"/><path class="f" d="M71.4,156.02l3.68-39.67c.33-3.55,.68-7.17,2.11-10.43s4.18-6.16,7.71-6.52l1.02,2.45c-3.25,1.02-5.66,3.88-6.97,7.02s-1.69,6.58-2.05,9.97c-1.3,12.19-2.59,24.38-3.76,36.57,.02,.02,.03,.03-1.75,.62Z"/><path class="e" d="M77.68,93.55c-1.11,.15-1.93,.35-3.15,.92-1.01,.47-.68,2.29,.13,3.05,.68,.64,1.7,.69,2.63,.72l4.06,.1c1.3,.03,2.09,.06,2.92,1.06,.73,.88,.86,2.43,.52,3.52s-.44,1.92-.76,3.01-.31,2.4,.47,3.24c.97,1.05,.59,1.3,1.67,.37s1.95-4.08,2.08-5.5c.25-2.83-.32-4.56-2.13-6.74-1.81-2.19-7.29-3.91-8.44-3.76Z"/><path class="e" d="M101.3,111.02l-.97,.29"/><path class="f" d="M84.84,102.27c.63-.32,2.57-.71,3.89-.76"/><path class="f" d="M84.12,99.52c1.62-.3,3.02-.71,4.57-.63"/><path class="f" d="M80.44,170.2c.96-2.17,1.97-4.45,1.77-6.82-.22-2.5-.66-4.59-2.3-6.3-1.64-1.72-4.11-2.6-5.98-1.13-.97,.76-1.54,1.93-2.47,2.75-2.27,2-6.45,.86-7.4-2.01-.34-1.05-.3-2.2-.61-3.26s-1.16-2.13-2.27-2.08c-1.02,.05-1.77,1.04-2.03,2.03s-.18,2.04-.39,3.05c-.48,2.38-2.43,4.19-4.49,5.48s-4.34,2.26-6.17,3.86c-1.83,1.6-3.15,4.11-2.47,6.44,.97,3.33,5.29,4.38,8.7,3.72s6.6-2.44,10.06-2.49c2.07-.03,4.09,.55,6.12,.96,2.03,.41,4.19,.64,6.13-.08s3.08-2.2,3.79-4.11Z"/><path d="M82.23,162.38c-.5-1.94-1.04-3.95-2.33-5.49-1.29-1.54-3.56-2.45-5.36-1.57-1.66,.82-2.41,2.82-3.95,3.84-1.89,1.24-4.79,.46-5.8-1.56-.64-1.28-.55-2.79-1-4.15s-1.88-2.65-3.18-2.05c-.86,.4-1.21,1.43-1.42,2.35-.38,1.67-.64,3.41-1.5,4.89-2.24,3.8-8.34,4.22-10.5,8.06,.55-1.1,2.52-1.22,3.68-.8,1.4,.5,2.09,2.09,3.29,2.97,1.58,1.16,3.82,.91,5.58,.05s3.19-2.24,4.79-3.37,3.52-2.04,5.45-1.73c1.93,.31,3.67,2.27,3.11,4.15,.82-1.78,1.97-3.47,3.59-4.57s3.77-1.55,5.54-1.02Z"/><path class="f" d="M81.67,166.84c-2.58,1.55-5.21,3.12-8.13,3.84-4.4,1.08-9.06,.14-13.53,.85-2.28,.36-4.47,1.15-6.7,1.75s-4.57,1.01-6.85,.61"/></g></g></svg>