<?xml version="1.0" encoding="UTF-8"?><svg xmlns="http://www.w3.org/2000/svg" viewBox="0 0 181.4 236.17"><defs><style>.d,.e{stroke:#000;}.d,.e,.f{stroke-miterlimit:10;stroke-width:.5px;}.e{fill:#fff;}.f{fill:none;stroke:#fff;}.g{fill:#dbcfc3;}.h{opacity:.58;}</style></defs><g id="a"/><g id="b"><g id="c"><rect class="g" width="181.4" height="236.17" rx="14.95" ry="14.95"/><g><path d="M79.9,219.15c.14-16.71,.36-21.79,.5-38.5,.02-1.96-.17-9.81-.45-15.95-.2-4.5-4.26-5.49-6.21-5.36-2.96,.19-4.91,3.34-4.91,6.31,0,7.08,1.38,14.53,1.38,21.87,0,5.25,.52,10.46-.09,15.67s-3.39,10.6-8.3,12.45c-2.42,.91-5.07,.88-7.64,1.2s-5.28,1.14-6.83,3.21-1.16,5.65,1.25,6.58c1.23,.48,2.62,.17,3.9-.14,5.89-1.42,11.79-2.83,17.67-3.68,3.48,.27,7.03-.44,10.22-1.91,.1-.29,.2-.58-.52-1.75Z"/><path d="M82.05,131.47c.82-4.4,1.62-9.04,.12-13.25s-6.18-7.65-10.39-6.14c-2.56,.92-4.29,3.42-5.01,6.04s-.59,5.4-.45,8.11l1.79,34.8c.17,3.32,.85,7.36,3.98,8.48,2.46,.88,5.25-.75,6.57-3.01s1.51-4.97,1.68-7.58c.67-10.35,.48-20.81,1.72-27.46Z"/><path d="M103.42,164.82c.12-3.11-1.47-6.72-4.54-7.21-2.49-.39-4.87,1.53-5.87,3.84-.99,2.31-.92,4.92-.84,7.44l1.47,42.38c.1,3.02,.69,9.47,.69,9.47,0,0,6.05,1.87,8.91,1.87l.21-1.13,15.35,4.8c2.06,.65,5.07,1.86,5.88-.14,.71-1.77-1.04-7.92-2.58-9.06-3.28-2.43-6.64-1.36-9.92-3.79-2.68-1.99-5.45-4.07-7.05-7-1.53-2.8-1.83-6.08-2.04-9.26-.73-11.14-.08-22.28,.31-32.22Z"/><path d="M106.16,130.41c.82-4.4,1.62-9.04,.12-13.25s-6.18-7.65-10.39-6.14c-2.56,.92-4.29,3.42-5.01,6.04-.72,2.62-.59,5.4-.45,8.11l1.79,34.8c.17,3.32,.85,7.36,3.98,8.48,2.46,.88,5.25-.75,6.57-3.01s1.51-4.97,1.68-7.58c.67-10.35,.48-20.81,1.72-27.46Z"/><path class="d" d="M55.91,123.65c.04-1.68-.07-3.45-.91-4.91s-2.6-2.51-4.22-2.06c-1.23,.35-2.12,1.48-2.53,2.69s-.4,2.53-.4,3.81c.04,9.32,.08,18.69,1.61,27.89,.51,3.04,1.23,6.16,3.15,8.57,1.92,2.4,5.36,3.85,8.17,2.61-2.4-.8-4.46-2.59-5.59-4.86,2.18,.87,4.79,.57,6.72-.78-2.13,.06-4.26-1.1-5.37-2.93,1.92,1.49,5.12,.81,6.26-1.34-2.03,.99-4.59-.09-5.94-1.9-1.36-1.8-1.77-4.13-2.03-6.37-.89-7.73,.95-15.4,1.08-20.43Z"/><path class="d" d="M55.64,121.99c.81-.99,.92-12.34,1.37-18.76,.45-6.42,.29-8.5-.56-16.46-.18-1.66-1.45-4.44-4.8-4.2-2.81,.21-3.66,3.66-3.66,6.07,0,9.65-.83,16.45-.62,26.09,.07,3.13,.16,6.82,2.9,8.32,2.56,1.39,4.25,.31,5.37-1.06Z"/><path class="d" d="M121.69,115.26c-1.5-.97-3.64-.17-4.7,1.28s-1.3,3.32-1.45,5.1c-.78,9.52,.25,19.16,2.72,28.39,1.25,4.68,3.22,9.67,7.49,11.95,3.95,2.1,9.31,1.04,12.16-2.41l-5.33-.24c2.49-.83,4.43-3.12,4.85-5.72-1.38,1.71-3.44,2.86-5.62,3.13,2.19-1.71,3.34-4.67,2.87-7.41,.03,2.12-2.33,3.72-4.42,3.41s-3.74-2.07-4.53-4.03-.88-4.13-.95-6.24l-.68-18.94c-.11-3.03,.01-6.71-2.4-8.27Z"/><path class="d" d="M123.77,123.09c.81-.99,.92-12.34,1.37-18.76s.29-8.5-.56-16.46c-.18-1.66-1.45-4.44-4.8-4.2-2.81,.21-3.66,3.66-3.66,6.07,0,9.65-.83,16.45-.62,26.09,.07,3.13,.16,6.82,2.9,8.32,2.56,1.39,4.25,.31,5.37-1.06Z"/><path d="M93.67,15.18c-1.29-3.18-5.12-5.07-8.43-4.17s-5.65,4.48-5.15,7.87c-2.84-1.64-6.51-1.77-9.45-.32-2.95,1.45-5.09,4.42-5.52,7.68-4.39-2.07-9.94-1.39-13.71,1.67s-5.57,8.35-4.46,13.08c-2.97-.19-5.99,1.38-7.55,3.92-1.56,2.54-1.58,5.94-.07,8.5-4.6,.44-8.68,4.22-9.47,8.77-.79,4.56,1.77,9.49,5.96,11.45-2.45,2.07-3.69,5.48-3.16,8.64s2.82,5.97,5.81,7.13c-2.61,3.24-2.95,8.13-.81,11.7,2.14,3.57,6.6,5.58,10.69,4.81-1.28,3.72,2.14,8.2,6.07,7.93,1.82-.12,3.64-1.07,5.39-.55,1.78,.53,2.8,2.37,3.47,4.1s1.27,3.64,2.76,4.74c1.49,1.11,4.19,.7,4.51-1.13,3.44,6.88,13.52,9.31,19.71,4.74,3.24,2.24,7.78,2.45,11.21,.5,3.43-1.95,5.58-5.94,5.32-9.88,4.68,1.03,9.91-1.36,12.18-5.58,4.47,2.17,10.6-1.19,11.17-6.13,2.58,.69,5.51-.23,7.24-2.27s2.14-5.09,1.03-7.51c2.77,.05,5.52-1.54,6.85-3.97,1.33-2.43,1.2-5.6-.34-7.91,3.27-.25,4.86-4.36,4.27-7.58s-2.51-6.07-3.17-9.28c-.81-3.95,.36-8.07-.17-12.07-.52-4-4.1-8.26-7.93-7,2.6-6.82-2.67-15.4-9.93-16.17,.34-5.25-2.39-10.58-6.85-13.37-4.45-2.79-10.44-2.93-15.02-.35-.69-2.98-3.42-5.38-6.47-5.68s-6.19,1.52-5.99,3.72Z"/><path class="f" d="M77.53,25.64c-3.13,1.32-6.43,2.79-8.32,5.6s-1.54,7.4,1.55,8.81c1.57,.72,3.42,.45,5.08-.03,3.69-1.08,7.14-3.18,10.98-3.37,3.84-.19,8.27,2.78,7.58,6.56-.35,1.92-1.93,3.41-3.68,4.27s-3.7,1.21-5.57,1.74c-4.49,1.27-8.67,3.61-12.09,6.77-3.24,3-5.9,7.02-5.9,11.44,0,5.88,5.43,11.17,11.31,11.13s11.2-5.31,11.4-11.19c.11-3.17-1.05-6.45-.02-9.44,1.05-3.05,4.11-4.95,7.16-6,5.03-1.73,11.71-1.22,14.21,3.47,1.83,3.42,.62,7.78-1.74,10.85-2.37,3.07-5.7,5.2-8.75,7.59-4.91,3.85-9.2,8.5-12.64,13.71-2.92,4.42-5.2,10.34-2.35,14.8,2.4,3.75,7.5,4.75,11.94,4.33,7.95-.76,15.49-5.13,20.1-11.65,2.43-3.43,3.93-8.44,1.17-11.61-2.37-2.71-6.56-2.58-10.12-2.07-8.52,1.22-16.92,3.36-24.98,6.37-4.84,1.81-9.62,3.94-14.72,4.71-5.11,.77-10.74-.04-14.57-3.5-3.44-3.1-4.93-7.86-5.4-12.47-.59-5.76,.3-11.95,3.89-16.49,3-3.8,7.7-6.09,12.51-6.59,3.68-.38,7.67,.34,10.39,2.85,4.2,3.87,4.09,10.68,2,16s-5.76,9.9-7.94,15.18c-1.91,4.62-2.6,9.9-1.04,14.64s5.67,8.79,10.63,9.45c4.95,.66,10.36-2.71,11.22-7.64,.83-4.75-2.31-9.16-5.09-13.1-2.78-3.93-5.48-8.84-3.74-13.33,1.44-3.74,5.51-5.77,9.4-6.75,3.82-.96,8.66-.86,10.74,2.48,2.13,3.42-.02,7.8-2.06,11.27-3.45,5.87-6.66,11.87-9.62,18-1.16,2.39-2.29,4.86-2.56,7.5s.47,5.53,2.52,7.22c1.88,1.55,4.6,1.85,6.93,1.15,2.34-.7,4.32-2.29,5.93-4.13,4.39-5.04,6.09-11.91,6.49-18.58,.4-6.66-.18-13.93,3.7-19.37,2.55-3.58,8.12-5.65,11.32-2.64,3.13,2.94,1.9,8.48,4.56,11.84,2.62,3.31,8.27,2.87,11.14-.22,2.87-3.09,3.26-7.87,2.04-11.91-1.43-4.7-4.87-8.76-9.28-10.93-4.41-2.17-9.73-2.42-14.32-.67-2.09,.79-4.02,1.97-6.14,2.68-2.12,.71-4.58,.89-6.49-.27-3.66-2.22-3.14-8.03-.35-11.28s6.97-4.87,10.57-7.2,6.92-6.19,6.2-10.41c-.83-4.95-6.56-7.35-11.55-7.89-3.67-.4-7.73-.16-10.53,2.26-2.22,1.92-3.24,4.87-5.16,7.1-1.91,2.22-5.73,3.48-7.63,1.24-1.4-1.64-.85-4.26,.49-5.95,1.34-1.69,3.28-2.78,4.94-4.16s3.14-3.33,2.96-5.48c-.3-3.6-5.32-5.17-8.46-3.39s-4.61,5.51-5.4,9.04-1.18,7.26-3.08,10.34c-1.9,3.08-5.99,5.22-9.19,3.54-3.76-1.98-4.3-7.95-8.31-9.35-1.96-.68-4.2,.05-5.78,1.41s-2.58,3.24-3.42,5.14c-1.29,2.94-2.06,6.82,.31,8.99,1.67,1.53,4.48,1.67,5.66,3.61,.85,1.39,.48,3.29-.55,4.56-1.03,1.27-2.58,2-4.14,2.47-3.68,1.12-7.7,1.04-11.22,2.6s-6.4,5.82-4.54,9.19c1.18,2.13,3.76,3.03,6.17,3.4s4.94,.4,7.1,1.53c2.16,1.12,3.76,3.86,2.64,6.02-1.39,2.67-5.38,2.32-7.84,4.06-2.48,1.75-2.84,5.65-1.07,8.12s5.17,3.44,8.13,2.78c2.96-.67,5.46-2.76,7.13-5.3,1.1-1.66,1.9-3.55,3.29-4.97s3.68-2.28,5.4-1.28c1.94,1.12,2.14,3.95,1.29,6.02-.85,2.08-2.45,3.76-3.44,5.77-2.35,4.76-.76,10.95,3.21,14.49,3.97,3.53,9.86,4.49,14.98,3.05,3.84-1.08,7.62-3.91,8.06-7.88,.25-2.33-.68-4.6-1.59-6.75-2.15-5.06-4.37-10.25-8.16-14.23-2.54-2.67-5.83-4.87-7.17-8.31-1.36-3.48-.35-7.53,1.74-10.62s5.11-5.41,8.13-7.61c3.3-2.4,7.07-4.83,11.11-4.34,3.15,.38,5.79,2.47,8.2,4.54s4.91,4.27,8.01,4.95c3.1,.68,6.93-.82,7.61-3.92,.76-3.47-2.63-6.74-2.18-10.27,.43-3.34,4.42-5.34,7.69-4.58,3.28,.76,5.74,3.53,7.29,6.52,1.53,2.96,2.33,6.63,.77,9.58-1.33,2.52-4.06,3.94-6.71,4.97s-5.48,1.86-7.62,3.74c-2.14,1.88-3.34,5.23-1.79,7.62"/><path class="f" d="M118.9,102.68c2.35-2.45,4.81-5.1,5.43-8.43,.63-3.33-1.5-7.41-4.9-7.49-1.73-.04-3.32,.93-4.65,2.04-2.96,2.45-5.31,5.74-8.76,7.43-3.45,1.69-8.69,.71-9.55-3.03-.43-1.9,.43-3.89,1.7-5.37,1.27-1.48,2.92-2.57,4.43-3.8,3.62-2.94,6.54-6.74,8.44-11,1.8-4.03,2.65-8.78,.91-12.84-2.32-5.4-9.39-8.13-14.78-5.77-5.39,2.36-8.19,9.3-6.06,14.78,1.15,2.95,3.51,5.51,3.75,8.67,.24,3.22-1.82,6.17-4.21,8.34-3.93,3.58-10.28,5.74-14.43,2.42-3.03-2.42-3.64-6.91-2.68-10.66s3.19-7.03,5.05-10.43c2.99-5.48,5.1-11.44,6.21-17.58,.94-5.21,.7-11.56-3.68-14.53-3.69-2.5-8.77-1.41-12.68,.73-7.01,3.84-12.21,10.82-13.87,18.64-.88,4.11-.28,9.31,3.51,11.12,3.25,1.56,7.05-.22,10.12-2.09,7.35-4.48,14.22-9.76,20.44-15.71,3.73-3.57,7.28-7.41,11.67-10.13s9.88-4.2,14.77-2.54c4.39,1.49,7.63,5.28,9.89,9.32,2.82,5.06,4.44,11.1,2.93,16.69-1.26,4.68-4.67,8.64-8.9,10.99-3.23,1.8-7.18,2.71-10.67,1.48-5.39-1.9-7.97-8.2-8.15-13.91-.17-5.71,1.39-11.37,1.31-17.08-.07-5-1.51-10.12-4.83-13.87-3.31-3.74-8.68-5.84-13.49-4.49-4.81,1.35-8.45,6.58-7.3,11.44,1.11,4.69,5.74,7.51,9.85,10.03,4.11,2.52,8.52,5.96,8.7,10.78,.15,4.01-2.78,7.48-5.97,9.92-3.13,2.39-7.62,4.21-10.85,1.95-3.3-2.3-3.06-7.17-2.55-11.17,.85-6.75,1.44-13.54,1.74-20.33,.12-2.65,.19-5.37-.61-7.9-.79-2.53-2.61-4.9-5.16-5.64-2.34-.69-4.95,.12-6.82,1.68-1.87,1.57-3.07,3.81-3.81,6.13-2.04,6.36-.89,13.35,1.37,19.64,2.26,6.28,5.66,12.73,4.24,19.26-.93,4.29-5.23,8.39-9.36,6.89-4.04-1.47-5.09-7.04-8.87-9.08-3.71-2.01-8.73,.63-10.14,4.6-1.42,3.97,.11,8.52,2.82,11.74,3.17,3.76,7.93,6.13,12.84,6.38s9.89-1.62,13.42-5.04c1.61-1.55,2.92-3.4,4.58-4.89s3.85-2.62,6.07-2.31c4.24,.6,6.05,6.14,4.77,10.23s-4.49,7.22-6.87,10.78c-2.38,3.56-3.91,8.42-1.59,12.02,2.72,4.22,8.93,4.16,13.73,2.7,3.53-1.08,7.17-2.9,8.78-6.23,1.28-2.64,1.05-5.76,1.94-8.56s3.89-5.46,6.52-4.15c1.94,.96,2.46,3.58,1.9,5.67s-1.92,3.85-2.9,5.78-1.57,4.3-.56,6.2c1.7,3.19,6.93,2.66,9.12-.22,2.19-2.88,2.07-6.88,1.4-10.43-.67-3.55-1.78-7.14-1.25-10.72,.53-3.58,3.44-7.16,7.05-6.88,4.24,.33,7.09,5.61,11.33,5.31,2.07-.15,3.84-1.71,4.75-3.57,.91-1.86,1.1-4,1.11-6.07,.03-3.21-.8-7.08-3.83-8.14-2.14-.75-4.77,.23-6.63-1.08-1.33-.94-1.74-2.84-1.29-4.41s1.58-2.85,2.83-3.91c2.94-2.48,6.67-4,9.29-6.81,2.62-2.82,3.59-7.87,.55-10.24-1.92-1.49-4.65-1.3-7.01-.69s-4.7,1.58-7.13,1.4-4.98-2.06-4.8-4.49c.23-3.01,4.03-4.26,5.6-6.83,1.58-2.59,.38-6.31-2.22-7.88s-6.11-1.12-8.57,.66c-2.46,1.78-3.92,4.69-4.46,7.68-.35,1.96-.34,4.01-1.06,5.87s-2.48,3.54-4.46,3.31c-2.23-.27-3.52-2.78-3.56-5.03s.77-4.42,.89-6.66c.28-5.31-3.63-10.36-8.67-12.04-5.04-1.68-10.83-.24-14.97,3.1-3.1,2.51-5.46,6.6-4.3,10.42,.68,2.24,2.44,3.96,4.12,5.58,3.97,3.81,8.06,7.69,13.11,9.86,3.39,1.45,7.28,2.18,9.87,4.81,2.62,2.66,3.29,6.78,2.59,10.45-.69,3.67-2.56,6.99-4.47,10.2-2.08,3.5-4.59,7.22-8.5,8.37-3.04,.89-6.3,.02-9.33-.93-3.03-.95-6.2-1.98-9.31-1.39s-6.05,3.49-5.45,6.6c.67,3.49,5.08,5.16,6.05,8.57,.92,3.23-1.95,6.65-5.26,7.24s-6.67-.98-9.27-3.11c-2.57-2.12-4.76-5.18-4.49-8.5,.23-2.84,2.17-5.22,4.21-7.21,2.03-1.99,4.31-3.87,5.53-6.44s1-6.12-1.36-7.71"/><path class="f" d="M39.38,47.34c7.2-1.25,15.51,4.61,21.97-.69,1.5-1.23,2.61-3.01,2.56-5.01"/><path class="f" d="M128.02,26.04c-4.59-2.42-10.9-3.58-15.59-.77-2.57,1.53-3.93,4.14-4.6,6.98-.79,3.36-1.16,6.88-1.52,10.31-.38,3.62-.53,7.28-.1,10.9,.42,3.51,1.66,6.81,2.42,10.24,.74,3.34,.72,6.74-.96,9.8-1.46,2.65-3.81,4.74-6.46,6.16-5.16,2.77-11.52,3.33-17.27,3.62-5.8,.28-11.77-.83-15.1-6.06-2.9-4.56-3.4-10.18-6.18-14.79-1.42-2.36-3.47-4.26-6.16-5.03-2.83-.81-6-.18-7.6,2.46-1.5,2.46-1.39,5.47-2.09,8.18-.75,2.88-2.65,5.03-5.69,5.42-5.74,.75-9.56-4.27-10.43-9.39-.29-1.7-.34-3.43-.18-5.15"/><path class="f" d="M145.07,63.88c-5.02-1.35-9.44,1.44-13.86,3.54-2.56,1.4-5.58,1.86-8.14,.23-3.26-2.09-1.63-6.75,1.4-8.84,3.02-1.86,6.51-2.56,9.07-5.12,3.02-3.02,5.35-6.75,4.96-11.14"/><path class="f" d="M141.59,94.5c-3.63-2.66-8.05-5.68-8.05-10.57-.23-2.79,2.33-5.12,5.35-4.89,3.26,.23,6.28,1.86,9.44,1.19"/><path class="f" d="M114,113.98c-1.17-1.9-3.03-3.53-2.56-6.09,.47-1.86,1.63-3.02,3.26-3.72,4.89-1.86,9.54,1.16,14,2.88"/><path class="f" d="M66.89,121.57c5.21-3.95,8.59-10.46,15.01-12.74,2.75-.98,5.99-.94,8.47,.71,2.33,1.55,3.34,4.11,3.42,6.83,.1,3.44-.77,7.32,1.36,10.35"/><path class="f" d="M36.66,98.35c3.18,3.07,7.22,5.87,11.7,6.44,4.72,.59,8.17-2.28,12.33-3.86,2.9-1.11,7.36-1.4,9.48,1.39,2.39,3.15-.42,6.41-3.32,7.74-4.19,1.92-9.24,.5-13.17,3.22"/><path class="f" d="M38.92,49.3c3.38,4.58,8.31,7.61,13.83,8.85,4.74,1.07,11.09,.48,14.49,4.65,3.93,4.83-.09,10.92-4.93,13.03-4.69,2.05-9.9,1.4-14.86,1.34-4.58-.06-9.64,.28-13.18,3.55-.44,.41-.85,.85-1.22,1.33"/><path class="f" d="M103.48,12.57c-7.39,2.51-12.98,7.62-17.63,14.37-3.72,5.82-6.75,11.17-11.63,15.82-4.89,4.65-12.79,6.98-18.15,1.86-1.86-2.09-2.09-4.89-1.63-7.44,.93-3.72,3.02-7.21,2.93-10.94"/><path class="f" d="M73.98,124.07c3.43,.52,7,1.16,10.43,.28,2.67-.69,5.14-2.45,6.39-4.96,.93-1.86,1.17-4.26,.06-6.1-.93-1.52-2.58-2.43-4.2-3.04-3.94-1.48-8.24-1.46-12.22-2.76-2.86-.93-5.56-2.56-7.18-5.16-1.51-2.44-1.9-5.6,.09-7.9,1.73-2,4.57-2.56,7.1-2.31,3.49,.35,6.83,1.77,10.27,2.41,6.18,1.15,12.87,.98,18.74-1.43,5.22-2.14,9.78-6.31,10.67-12.11,.81-5.25-1.62-10.74-6.01-13.71-4.63-3.14-10.81-3.09-15.56-.21-2.74,1.66-4.52,4.07-5.94,6.89-1.32,2.61-2.47,5.38-4.75,7.32-4.72,3.99-11.95,2.64-16.99-.02-4.55-2.4-8.42-6.93-7.43-12.39,.89-4.93,5.58-8.07,10-9.61,3.03-1.05,6.27-1.42,9.44-1.77,3.62-.4,7.22-.81,10.8-1.53,6.77-1.35,13.65-3.61,19.51-7.32,5.18-3.28,9.77-9.04,7.41-15.49-2.1-5.77-8.5-9.31-14.04-11.03-5.69-1.76-11.86-2.01-17.7-.95-5.17,.93-10.61,3.05-13.79,7.45-1.85,2.56-2.67,5.85-1.05,8.73,1.5,2.66,4.34,4.43,6.97,5.82,2.89,1.53,5.97,2.65,9.06,3.7,3.3,1.13,6.61,2.23,9.96,3.19,6.87,1.95,13.84,3.19,20.83,4.57,6.36,1.25,12.85,3.02,18.09,7.01,5.33,4.05,8.26,10.02,7.7,16.74-.53,6.3-3.31,12.41-7.35,17.23s-9.11,7.91-15.09,8.76c-5.71,.81-11.83-.65-16.48-4.09-4.92-3.64-7.52-9.38-5.8-15.42s6.74-10.31,11.9-13.49c5.22-3.22,10.88-5.7,15.73-9.5,4.85-3.8,8.61-8.95,9.7-15.11,1.03-5.79-.61-12.12-5.35-15.87-4.17-3.3-10.19-4.11-14.8-1.2s-5.62,8.28-5.65,13.19c-.04,6.12,1.59,12.66-1.13,18.46-2.32,4.95-7.47,6.95-12.71,6.54-4.77-.38-10.65-2.44-13.55-6.46-1.42-1.97-1.98-4.5-1.12-6.82,.82-2.2,2.62-3.9,4.45-5.29,2.04-1.54,4.3-2.78,6.52-4.04,3.14-1.77,6.3-3.5,9.44-5.26,5.34-3.01,10.95-6.05,15.62-10.06,3.65-3.14,6.61-7.54,4.85-12.51"/><path class="f" d="M129.74,56.62c2.17-3.43,4.33-7.09,4.58-11.14,.25-4.05-2.08-8.57-6.06-9.38-1.6-.33-3.27-.04-4.87-.33s-3.27-1.53-3.15-3.15c.12-1.57,1.76-2.51,2.66-3.81,2.04-2.96-.32-7.19-3.51-8.85-4.91-2.56-11.85-.76-14.33,4.19-2.49,4.95,.81,12.02,6.3,12.74,3.03,.4,5.98-.93,8.76-2.2,2.78-1.27,5.78-2.54,8.78-2.02s5.74,3.66,4.67,6.51c-.78,2.09-3.08,3.08-5.07,4.09s-4.11,2.68-3.93,4.9c.17,2.14,2.5,3.52,4.64,3.59s4.2-.77,6.29-1.24,4.52-.48,6.11,.95c2.19,1.98,1.62,5.71-.19,8.04s-4.5,3.79-6.73,5.72c-2.23,1.93-4.13,4.81-3.42,7.68,.85,3.47,5.72,4.99,8.6,2.89s3.17-6.79,.83-9.49c-2.34-2.7-6.65-3.22-9.79-1.52-3.14,1.7-5.02,5.29-5.11,8.86-.07,3.02,1.14,6.16,3.59,7.93,2.44,1.77,6.14,1.84,8.35-.22,1.55-1.45,2.48-3.86,4.56-4.25,2.78-.52,4.55,3.54,3.1,5.97-1.45,2.42-4.52,3.28-7.32,3.65-1.98,.26-4.14,.45-5.59,1.81s-1.37,4.38,.57,4.86c.95,.23,1.96-.22,2.91,0,1.79,.43,2.1,3.15,.83,4.48s-3.34,1.5-5.15,1.23-3.6-.89-5.44-.82-3.83,1.09-4.22,2.88c-.56,2.6,2.22,5.93,.12,7.56-1.39,1.08-3.37-.11-4.64-1.34-1.27-1.22-2.97-2.64-4.57-1.91-2.97,1.34-.26,7.08-3.09,8.68-1.91,1.08-4.07-1.03-4.95-3.04s-1.75-4.51-3.9-4.95c-2.04-.42-3.98,1.64-3.98,3.72s1.46,3.92,3.22,5.03c1.24,.78,2.75,1.37,3.4,2.68,1,2.02-.64,4.37-2.48,5.68-3.08,2.18-7.98,2.78-10.16-.29-.99-1.4-1.15-3.21-1.3-4.92s-.36-3.53-1.42-4.88-3.29-1.93-4.51-.72c-1.24,1.23-.71,3.37,.25,4.82s2.3,2.79,2.55,4.52c.49,3.42-4.14,5.86-7.25,4.34-3.1-1.52-4.39-5.39-4.14-8.84,.21-2.99,.8-6.98-1.98-8.11-2.53-1.03-5.13,2.16-4.67,4.86s2.71,4.67,4.81,6.42c-.27,1.14-2.02,1.23-2.86,.42s-1.04-2.06-1.32-3.2-.83-2.37-1.93-2.75-2.54,.97-1.82,1.89c-1.97-.55-2.05-3.25-2.05-5.3s-1.4-4.77-3.29-4c-.84,.34-1.26,1.27-1.86,1.95-1.19,1.36-3.33,1.77-4.94,.95-1.61-.82-2.54-2.79-2.14-4.55,.32-1.43,1.37-2.58,2-3.9s.66-3.22-.61-3.96c-1.35-.79-3.05,.34-3.94,1.63s-1.52,2.89-2.9,3.62c-1.76,.93-4.09-.06-5.14-1.75s-1.07-3.84-.68-5.79c.67-3.36,2.64-6.64,5.77-8.02,3.13-1.38,7.41-.23,8.77,2.91,1.35,3.15-1.61,7.45-4.95,6.69-2.29-.52-3.68-2.84-4.51-5.04-.83-2.2-1.45-4.63-3.2-6.2-1.03-.93-2.37-1.46-3.44-2.34-2.15-1.76-2.93-5.27-1.14-7.39,1.79-2.12,6.04-1.39,6.5,1.35,.15,.92-.1,1.86,.05,2.78,.38,2.31,3.49,3.47,5.52,2.3s2.75-3.95,1.98-6.17c-.77-2.21-2.72-3.85-4.88-4.77-2.74-1.17-5.93-1.38-8.31-3.16-3.37-2.52-3.81-8.13-.83-11.1,2.98-2.97,8.67-2.43,10.98,1.09,1.55,2.36,1.44,5.73-.4,7.87-1.84,2.13-5.32,2.7-7.64,1.1s-3-5.22-1.26-7.44c1.37-1.76,3.72-2.37,5.67-3.46,1.95-1.09,3.73-3.4,2.75-5.4-.63-1.3-2.17-1.88-3.07-3.01-1.7-2.13,.01-5.92,2.74-6.05s4.79,3.48,3.3,5.76c-1.02,1.56-3.08,2.21-4.02,3.81-1.36,2.32,.72,5.6,3.39,5.86,2.67,.25,5.16-1.97,5.8-4.58s-.25-5.4-1.76-7.62c-1.25-1.84-2.96-3.46-3.56-5.61-.99-3.56,1.43-7.18,4.19-9.65,1.42-1.27,3.03-2.43,4.9-2.8,1.87-.37,4.04,.24,5.03,1.86,1.41,2.29-.08,5.34-2.12,7.09-2.04,1.75-4.63,2.86-6.37,4.91-2.9,3.39-2.6,8.88,.24,12.32s7.72,4.84,12.11,4.01c3.38-.64,6.9-3.14,6.85-6.58-.05-3.39-3.34-5.66-6.12-7.61-2.77-1.95-5.66-5.11-4.5-8.29,.72-1.98,2.77-3.1,4.68-4s3.99-1.88,4.91-3.77-.3-4.82-2.4-4.59c1.84-1.19,3.74-2.4,5.9-2.75s4.66,.39,5.69,2.32c.86,1.59,.57,3.61,1.44,5.2,1.02,1.86,3.69,2.58,5.51,1.48s2.41-3.8,1.23-5.57c-1.52-2.27-4.97-2.5-6.61-4.69-1.52-2.03-.45-5.49,2-6.14,2.45-.65,5.14,2.11,4.26,4.49-1.19,3.23-6.17,2.87-8.46,5.44-1.83,2.07-1.12,5.66,1.13,7.25,2.26,1.59,5.52,1.28,7.76-.33,2.24-1.61,3.54-4.3,3.98-7.02,.33-2.08,.23-4.32,1.26-6.16s3.85-2.9,5.24-1.31c1.4,1.6,.07,4.15-1.66,5.4-1.72,1.24-3.92,2.04-4.95,3.89-1.61,2.87,.71,6.66,3.79,7.8s6.51,.45,9.72-.26l6.41-1.42c1.88-.42,4.03-1.05,4.77-2.83,.94-2.24-1.17-4.74-3.51-5.42-4.19-1.21-8.54,1.31-11.74,4.27s-6.01,6.56-10.02,8.28c-5.74,2.47-13.05,.69-17.98,4.53-1.15,.9-2.15,2.23-2.03,3.69,.16,2.01,2.35,3.3,4.37,3.41s3.98-.57,5.99-.76c2.01-.19,4.33,.29,5.36,2.03,1.09,1.86,.16,4.34-1.44,5.79-1.6,1.45-3.7,2.16-5.65,3.06-3.16,1.47-6.04,3.53-8.45,6.04-1.09,1.14-2.15,2.53-2.1,4.11,.09,2.78,3.44,4.27,6.22,4.14,2.77-.13,5.53-1.21,8.27-.71,5.32,.97,7.87,8.01,5.54,12.89s-8,7.43-13.4,7.64c-4.17,.16-8.85-1.18-10.86-4.84-1.69-3.07-1.11-7.01-2.86-10.03-1.85-3.19-6.34-4.51-9.62-2.82-2.26,1.16-3.79,3.49-4.34,5.98-1.45,6.66,3.96,13.28,10.39,15.54,6.43,2.25,13.5,1.22,20.2-.03,6.7-1.25,13.61-2.69,20.26-1.18"/><path class="f" d="M80.28,19.02c3.46,5.12,4.5,13.28,11.18,15.43,1.95,.63,4.21,.58,5.91-.68"/><path class="f" d="M147.05,81.75c.41-4.82-.7-10.01-3.73-13.87-1.67-2.12-3.96-3.9-6.67-4.36-3.1-.53-6.09,.61-8.84,1.93-5.97,2.87-11.86,6.02-16.66,10.67-4.19,4.06-7.44,10.12-13.5,11.59-5.51,1.34-10.74-1.43-14.81-4.94-2.05-1.77-3.9-3.77-5.64-5.85-1.93-2.31-3.9-4.66-5.31-7.34s-2.16-5.75-1.55-8.8,2.25-5.64,4.01-8.08c3.17-4.37,7.35-9.02,6.17-14.85-.45-2.2-1.66-4.35-3.75-5.35-2.65-1.27-5.42-.17-7.87,1-2.39,1.14-4.88,2.48-7.59,1.74-2.41-.66-4.2-2.68-4.88-5.04-.46-1.6-.45-3.31-.06-4.92"/><path class="f" d="M142.18,93.01c1.47-1.52,2.68-3.32,3.48-5.28"/><path class="f" d="M123.67,109.71c-2.44-3.02-5.78-4.32-9.03-6.2-2.67-1.55-6-4.96-4.12-8.3,1.67-2.95,5.64-2.77,8.34-1.63,3.14,1.32,5.78,3.55,9.19,4.22,3.94,.77,8.06-.25,11.36-2.48"/><path class="f" d="M98.72,126.72c.39-3-.07-6.26,1.56-9.05,1.86-3.02,5.82-4.89,8.58-2.09"/><path class="f" d="M64.38,119.68c3.03-2.34,2.63-7.64,6.64-8.94,4.76-1.54,7.53,4,8.57,7.63,.84,2.92,1.27,5.94,2.22,8.82"/><path class="f" d="M33.75,82.06c5.67,1.81,11.93,1.34,17.33,4.09,2.19,1.12,4.19,2.76,5.22,5.04,1.18,2.61,.88,5.55-.82,7.86-2.01,2.74-5.42,3.86-7.77,6.23"/><path class="f" d="M35.65,54.41c1.08,3.68,3.5,6.14,6.68,8.14,2.78,1.75,6.16,3.16,8.02,6.01s1.22,7.02-2.33,7.97c-3.68,.99-6.7-2.05-8.82-4.62s-4.44-5.74-8.08-5.76"/><path class="f" d="M76.75,17.67c-1.37,3.45-1.6,6.94-1.14,10.66,.93,4.65,3.49,8.37,5.58,12.56,1.86,4.19,1.86,10-2.79,12.1-6.05,2.79-12.1-1.4-15.82-6.51-3.95-5.58-6.98-12.1-13.83-14.3"/><path class="f" d="M142.54,48.46c-5.06-3.19-11.1-4.41-17-4.83-6.55-.46-13.15,.55-19.68-.26-5.15-.64-10.37-2.69-13.61-6.93-2.9-3.8-2.74-9.23,1.59-11.88,4.06-2.48,9.59-2.17,12.96-5.84,.45-.49,.83-1.03,1.14-1.61"/><path class="f" d="M105.41,120.19c-8.92,2.72-19.36,1.86-26.61-4.44-6.44-5.6-10.16-15.62-6.41-23.74,1.72-3.73,5.11-6.32,9.03-7.41,4.72-1.31,9.71-.41,14.23,1.21,4.68,1.68,9.01,4.17,13.55,6.18,4.57,2.02,9.47,3.51,14.51,3.5,8.78-.02,17.95-5.51,19.01-14.87,.45-4.02-.86-8.23-3.83-11.04-3.38-3.2-8.02-3.61-12.29-2.13-8.44,2.92-14.18,13.19-23.89,12.45-4.35-.34-7.82-3.31-9.93-6.96-2.16-3.73-3.6-8.59-2.83-12.9,.7-3.89,3.69-6.59,7.65-6.84,4.56-.29,8.94,2.27,12.82,4.34,4.52,2.42,9.15,4.62,13.8,6.79,4.44,2.07,8.94,4.4,13.84,5.11,2.31,.34,4.74,.31,6.93-.55"/><path class="f" d="M37.38,92.63c1.69,2.98,3.86,6.06,7.2,7.3,2.83,1.05,6.52,.73,8.69-1.55,3.39-3.58,.06-9.61-1.65-13.18-2.51-5.25-5.24-13.04,.58-17.23,2.63-1.89,5.93-1.33,8.12,.93,2.47,2.56,3.36,6.26,4.55,9.51,2.37,6.45,6.42,12.6,12.06,16.64,5.05,3.61,11.85,5.31,17.57,2.16,5.63-3.1,8.54-10.1,6.72-16.26-.93-3.16-3.09-5.9-5.77-7.78-3.2-2.23-6.82-2.77-10.64-2.35-3.48,.38-6.97,1.3-10.39,.08-3.27-1.17-5.54-4.03-6.98-7.09-2.39-5.09-3.38-12.27,.4-16.97,4.61-5.73,12.29-3.64,17.38,.17,2.95,2.21,5.33,5.09,7.74,7.85,2.57,2.95,5.27,5.78,8.21,8.37,5.34,4.7,11.54,9.46,18.58,11.16,3.29,.8,6.88,.91,9.96-.67,3.1-1.59,4.91-4.7,5.66-8.01,1.59-7.04-.76-14.54-4.41-20.55-3.45-5.68-8.48-11.21-14.84-13.59-2.92-1.09-6.35-1.59-9.29-.3-3.2,1.41-4.55,4.69-4.65,8.02-.12,3.78,.83,7.67,1.7,11.32,.94,3.93,2.12,7.81,3.43,11.63,2.6,7.59,6.1,14.73,9.19,22.12,2.82,6.73,5.26,14.19,3.61,21.55-.74,3.3-2.35,6.34-4.72,8.75"/><g class="h"><path d="M92.31,85.64c-.01-.09-.02-.18-.03-.27-.06-1.51-.02-1.24-.22-2.56h0c-.11-1.04-.3-2.21-1.34-2.69-1.37-.73-2.13,.38-2.5,1.58-.14,.65-.13,1.31-.13,1.97-.04,1.36,.07,2.74-.06,4.1-.09,.44-.19,.87-.33,1.3-.01-.01-.02-.02-.03-.04-.01-.02-.03-.04-.04-.06-.37-.66-.1-.05-.41-.9-.25-.83-.14-.48-.26-1.48-.11-1.28-.22-2.55-.35-3.83-.06-.55-.22-1.1-.43-1.61-.08-.2-.13-.42-.29-.58-.09-.07-.11-.08-.12-.09h0c-.25-.21-.67-.24-.89,0-.38,.53-.53,1.22-.53,1.87v.04c-.45,1.47-.68,2.99-.48,4.53,.04,.45,.1,.91,.18,1.37-.01-.02-.02-.05-.03-.07-.37-.97-.59-1.27-.73-1.63-.53-1.14-1.02-2.3-1.61-3.41-.11-.19-.23-.38-.31-.58-.46-1.07-.45-.92-.71-1.73-.23-.91-.6-1.83-1.38-2.4-.44-.37-1.05-.42-1.6-.31-.49,.11-.87,.52-1.03,.99-.22,.47-.25,.41-.39,1.4l.05-.34c-.06,.22-.11,.44-.13,.67-.13,.68-.12,.67-.17,.87-.13,.74-.4,1.44-.54,2.17-.05,.1,0,0,.04-.1-.18,.41-.29,.85-.39,1.29-.15,.43-.24,.87-.31,1.32-.22,.81-.39,1.63-.61,2.44-.2,.6-.33,1.22-.39,1.85,0,.02,0,0,0-.06-.04,.47-.12,.95-.08,1.42,.07,1.13,1.12,1.77,1.92,2.41-.49-.73-1.3-1.44-1.18-2.39,.25-.98,.45-1.67,.93-2.55,.61-1.22,.68-1.54,1.16-2.57,.04-.12,.08-.22,.11-.31,0,.09,.02,.19,.02,.28,.01,.34-.25,.89-.41,1.29-.49,.97,.37,1.37,1.23,1.23,.66-.09,1.01-.39,1.5-.57,.09-.03,.22-.06,.36-.08,.33,.9,.54,1.28,.69,1.65,.33,.74,.14,.37,.62,1.43,.09,.14,.2,.27,.3,.41,.04,.05,.08,.11,.12,.16-.02-.02-.02-.02,.02,.03,.49,.78,1.09,1.61,2,1.88,1.03,.3,2.21-.49,2.21-1.59-.01-.29-.06-.58-.13-.86-.03-.26-.09-.52-.16-.77,.13,.22,.27,.43,.43,.63,.45,.52,1.04,.95,1.72,1.09,.69,.12,1.41,.19,2.09-.04,.69-.23,1.28-.73,1.73-1.3,.39-.45,.74-.95,.94-1.52,.25-.66,.4-1.35,.43-2.06,0-.77,.05-1.54-.04-2.3Zm-13.93-3.42c.06,.15,.12,.31,.19,.46-.1-.04-.21-.06-.31-.07,.03-.11,.07-.24,.12-.39Zm.37,6.12c-.4,.07-.92,.19-1.03,.19-.07,.01-.17,0-.27,0,.22-.32,.45-.65,.58-1.02,.16-.4,.16-.83,.2-1.25v-.14c.08,.24,.18,.52,.33,.88l.03,.07c.35,.85,.31,.68,.56,1.25-.14,0-.28,0-.41,.02Zm6.58-7.35s.02,.03,.03,.04c0,.05,0,.02,.01,.12,.27,1.25-.1,3.19-.2,4.79,0,.05,0,.1-.01,.15-.06-.26-.13-.53-.2-.82-.17-.87-.15-2.62,0-4.02,.08-.12,.18-.23,.28-.34h.05s.02,.04,.02,.04c.02,.02,.03,.03,.04,.03Z"/><path d="M85.79,80.49h-.02c.08,.04,.05,.02,.02,0Z"/><path d="M85.76,80.47h0Z"/></g><path class="h" d="M99.99,80.77c.55-1.06-.65-1.63-1.47-1.93-.57-.2-1.19-.09-1.78-.04-.42,.04-.82,.17-1.22,.3-.34,.07-.68,.12-1.02,.22-.36,.11-.64,.22-.89,.32l.03-.05s-.04,.04-.06,.06c-.35,.15-.66,.29-1.08,.43-.26,.18-.27,.52-.22,.8,0,.28,.08,.49,.34,.59,.16,.4,.74,.65,1.58,.94,.07,.12,.06,.09,.11,.19,.04,0-.04,.62-.06,.88-.06,.72,0,1.44-.09,2.15-.1,.36-.24,1.8-.32,2.22-.18,1.24-.41,2.6,.17,3.76l.03,.06c.24,.55,.61,1.07,1.15,1.36,1.22,.58,2.35-.06,2.71-1.31,.36-1.54,.13-3.12-.22-4.63-.01-.08-.02-.12-.03-.15-.15-1.2-.16-2.61-.23-4.36,.19-.01,.38-.04,.57-.09,.59-.19,1.1-.58,1.52-1.03,.07-.07,.13-.16,.19-.24,.03-.03,.06-.08,.1-.13,.03-.04,.06-.1,.09-.16,.02-.04,.03-.06,.04-.07,.02-.03,.05-.06,.07-.09Zm-7.44,.48c-.07-.16,0-.27,.01-.4,.02-.12,.05-.29,.14-.36,.02,0,.12,0,.18,0-.22,.31-.31,.57-.3,.79,0,0-.02-.02-.02-.02Zm1.24,.23c-.23-.05-.53-.08-.7-.21-.07-.05-.07-.14-.06-.22,.04-.21,.1-.41,.19-.6,.32-.05,.63-.11,.95-.16,.63-.09,1.26,0,1.88-.08,.47-.06,.94,0,1.41,.05h.07c.08,.03,.16,.04,.24,.06-.01,0-.03,.01-.04,.02-.05,.02-.1,.04-.16,.07-.02,0-.03,.01-.05,.01-.11,0-.4,0-.54-.03-1.4-.14-1.81,.55-1.93,1.53-.11-.12-.24-.22-.38-.29-.31-.17-.83-.12-.88-.15Z"/><path class="h" d="M109.42,85.14c-.06-.65-.23-1.27-.51-1.86-.23-.58-.38-1.2-.74-1.72-.55-.7-1.16-1.37-1.89-1.88-1.09-.62-2.44-.68-3.67-.55-1.03,.26-1.49,1.32-1.97,2.17-.03,.05-.05,.09-.07,.14-.08,.06-.15,.11-.23,.17-1.39,1.29-2.2,3.16-2.4,5.04-.09,.54,.03,1.08,.11,1.61,.09,.6,.19,1.21,.47,1.76,.49,.85,.48,.66,.76,1.09,.65,.97,1.76,1.49,2.91,1.59,.21-.03,.72,.26,1.85,.11,.78-.18,1.53-.48,2.25-.82,.87-.55,1.68-1.27,2.21-2.17,.11-.16,.36-.76,.46-1,.35-.74,.5-1.55,.5-2.37,.02-.44,0-.87-.05-1.31Zm-3.92,1.93l.03-.2c-.13,.59-.04,.43-.43,1.01-.05,.07-.13,.15-.18,.2-.06,.06-.16,.15-.22,.21-.16,.12-.32,.21-.5,.3-.05,.01-.1,.03-.15,.04-.18,.02-.35,.02-.53,.02h-.02c-.24-.06-.47-.13-.71-.19l-.06-.02c-.14-.07-.29-.13-.42-.22-.06-.06-.15-.14-.22-.22-.19-.26-.32-.55-.45-.84-.04-.12-.08-.25-.11-.38-.03-.11-.05-.22-.06-.33,0-.03,0-.06,0-.1v-.06c.07-.39,.12-.79,.26-1.16,.11-.25,.39-.89,.46-1.07,.09-.3,.58-1.13,1.12-2.16,.04-.07,.07-.14,.12-.21,.57,0,.88,.03,1.07,.07,.12,.16,.23,.33,.35,.49,.35,.44,.38,1.01,.53,1.52,.39,1.12,.32,2.08,.14,3.31Zm.51-4.08s.07,.11,.11,.19c0,.02,.02,.03,.03,.05,.44,1.27,.69,1.62,.73,2.33h0c0-.06-.01-.1-.02-.14,0,.02,0,.05,0,.07-.11-.6-.31-1.18-.61-1.71-.23-.39-.39-.82-.63-1.2,.05,.06,.11,.11,.18,.18,.07,.08,.14,.16,.21,.24Z"/><g class="h"><path d="M114.17,109.48h-.03c-.06,.04-.12,.07-.18,.09,.08-.03,.19-.06,.21-.09Z"/><polygon points="108.04 97.06 108.03 97.07 108.03 97.07 108.04 97.06"/><path d="M130.1,99.91c-.15-.24-1.08-1.4-.63-.81l-.12-.16s.01,.01-.04-.06c-.61-.88-.6-.67-.91-1.15-.06-.08-.12-.17-.18-.25,.43-.19,.53-.32,.64-.4,.55-.41,1.05-.93,1.34-1.55,.49-1.03,.32-2.25-.03-3.29-.45-1.33-1.36-1.7-2.64-1.42h0c-1.52,.07-3.61-.36-4.5,1.21-.31,.65-.41,1.36-.48,2.06-.03,.33-.06,.66-.08,.99-.04-.04-.07-.09-.11-.13-1.04-1.33-2.76-1.61-3.99-.43-.13,.03-.26,.07-.38,.14-.38,.15-.61,.5-.85,.81-.48,.58-.77,1.27-1.08,1.95-.22,.43-.37,.89-.48,1.35-.15-.6-.35-1.2-.75-1.69-1.25-1.92-3.37-1.8-5.26-.9-.54,.23-1.06,.51-1.52,.87l-.06,.05,.06-.05c-.05,.04-.11,.08-.16,.12-.05,.04-.06,.05-.07,.06-.14,.11-.29,.22-.43,.33-.5,.48-.5,1.35,0,1.84,.17,.18,.37,.28,.59,.33-.16,.75-.29,1.51-.38,2.27-.04,1.27-.21,2.53-.27,3.8,0,.23,0,.43,0,.61-.2-.42-.25-.59-.62-1.59-.46-1.1-.32-.75-.59-1.52-.11-.39-.27-.75-.38-1.14-.08-.35-.13-.71-.24-1.05-.27-.77-.42-1.6-.9-2.27-1.04-1.58-2.98-1.83-3.41,.33-.22,1.15-.09,2.29,.11,3.42-.19,.53-.39,1.06-.61,1.58-.33,1.16-.65,2.32-.93,3.48-.11,.4-.16,.82-.21,1.23-.06,.3-.11,.6-.15,.9-.21-.61-.8-1.06-1.84-1.14-1.01-.15-1.98,.24-2.92,.57-.75,.22-.86,.26-1.05,.26h-.01c-.11-.06-.22-.13-.33-.19-.09-.06-.19-.12-.28-.18h-.02c-.05-.06-.1-.11-.14-.16l-.02-.03c0-.06,0-.12,0-.19,.01-.02,.02-.04,.04-.06,.29-.35,.66-.61,.98-.92,.08-.07,.15-.14,.22-.22,.38-.01,.75-.02,1.13-.07,.54-.06,1.09-.02,1.62-.11,.37-.07,.72-.25,1.05-.43,.63-.35,.89-1.06,.87-1.76,0-.8-.35-1.62-1.07-2.02-.74-.43-1.63-.37-2.42-.08-.68,.22-1.36,.48-1.99,.81-.08,.05-.17,.09-.25,.13-.07-.31-.06-.4-.05-1.13l.02-.2v-.03c.07-.32,.13-.65,.24-.96,.13-.24,.11-.18,.45-.35,.4-.12,.82-.15,1.22-.23,.46-.13,.92-.3,1.35-.5,.11-.07,.23-.13,.34-.18,.56,.05,1.12,.12,1.66,.2-.37-.17-.74-.32-1.12-.46,.2-.11,.39-.23,.54-.4,.16-.18-.07,.03-.17,.07-.22,.11-.46,.14-.7,.2h-.03c-.51-.17-1.03-.32-1.55-.46-.71-.16-1.45-.37-2.17-.18-.65,.22-1.22,.63-1.74,1.08-.41,.41-.63,.97-.72,1.54-.16,1.3-.26,2.62-.21,3.93-.02,.75-.06,1.51-.08,2.26-.09,.39-.11,.79-.04,1.18,0,.08,0,.16,0,.23,0,.57-.03,.28-.12,1.36-.02,.44-.05,.9,.15,1.3,.46,1.13,1.69,1.55,2.83,1.5,.83,.07,1.6-.22,2.33-.58h0c.42-.11,2.22-.07,3.16-.95,.2-.21,.37-.43,.51-.66v.07c-.26,.93,.36,1.77,1.27,1.97,1.38,.26,2.41-1.11,2.76-2.29,.19-.82,.16-1.26,.19-1.57h.03c.21,.04,.6,.09,.76,.09,.03,0,.05,0,.08,0,.1,.36,.19,.72,.35,1.05l.02,.05,.03,.07c.19,.51,.36,1.05,.74,1.46,1.17,1.2,3.02,.47,3.36-1.08,.19,.07,.41,.11,.66,.12,1.29,.22,2.18-.24,3.09-1.12,.11-.09,.22-.19,.33-.28l.07-.04c.17-.1,.35-.19,.53-.28,.18-.06,.32-.11,.53-.21h.01l.03-.02h0c.06-.02,.12-.05,.19-.08,.42-.2,.78-.51,1.05-.88,.22-.25,.32-.57,.45-.87,.15-.38,.3-.75,.36-1.16,.19-.74,.27-1.5,.29-2.27,.58,.66,1.44,1.05,2.33,1.1,.97,.11,2-.01,2.84-.54,.87-.55,1.42-1.37,1.75-2.3,.08,.26,.16,.51,.24,.77,.13,.32,.16,.7,.39,.96,.25,.37,.74,.5,1.16,.4,.02,.07,.03,.14,.02,.21-.03,.14-.2,.24-.33,.23,.22,.11,.51-.04,.57-.27,.02-.09,.03-.19,.04-.28,.08-.05,.15-.1,.22-.17,.5-.49,.28-1.21,.26-1.83-.02-.7-.17-1.38-.32-2.06,0-.06,0-.13-.01-.19,.12,.04,.26,.06,.41,.05,.03,0,.17,0,.28,0,.18,1.07,.47,2.15,1.28,2.93,.87,.82,2.27,.42,2.96-.44,.64-.87,.3-2.13-.27-2.96Zm-25.38,7.35c.02-.09,.03-.17,.05-.26v.02c.04,.08,.08,.16,.11,.24-.05,0-.11,0-.16-.01Zm4.62-7.01c-.12,.73-.1,.95-.28,1.69-.1,.52-.16,1.05-.2,1.58v-.04c-.06-.52-.15-1.03-.23-1.54-.06-.72-.1-1.43-.12-2.15,.2,0,.39,0,.58,0,.09,0,.16,0,.2,.01,.05,0,.11,.02,.16,.03-.04,.14-.07,.28-.11,.42Zm.71,8.85h-.01c-.09,0-.23,.01-.38,.02-.04-.17-.04-.36-.08-.7,.09,.1,.18,.2,.29,.29,.12,.1,.24,.19,.36,.27-.06,.05-.12,.09-.17,.12Zm1.78-3.04c0,.05-.01,.1-.02,.16,0,.02,0,.03-.01,.05-.23,.45-.37,.7-.48,.88-.24-.12-.16-.1-.37-.28-.44-.44-.51-.76-.61-1.8-.1-1.24-.28-2.47-.28-3.72-.05-.46-.09-.92-.09-1.38,.03,.01,.07,.02,.1,.03,.13,.07,.26,.14,.38,.23l.02,.02c.06,.06,.12,.12,.18,.18,.07,.07,.14,.13,.2,.2,.16,.25,.29,.51,.41,.78,.19,.51,.33,1.03,.41,1.56v.02c.13,1.07,.17,1.43,.16,3.06Zm.14-7.91h.01s.07,0,.1,0c.09,.02,.17,.04,.25,.06,.04,.02,.07,.04,.11,.06l.04,.04c.05,.06,.08,.09,.09,.1,.05,.07,.11,.14,.16,.21,.05,.06,.09,.13,.13,.2,.04,.12,.08,.24,.11,.36-.28-.39-.62-.74-1.01-1.03Zm7.97-1.69c.22,.22,.33,.54,.42,.85-.07-.13-.14-.26-.21-.38,.11,1.01,.23,2.1,.22,3.19h0c-.04,.08-.1,.21-.15,.27-.01,.02-.02,.03-.04,.05-.05,.06-.18,.2-.25,.25h0c-.07,.05-.16,.09-.23,.13-.03-.03-.06-.07-.09-.11-.12-.18-.28-.49-.33-.58-.05-.15-.07-.31-.1-.47-.02-.12-.06-.35-.08-.46-.01-.1-.02-.2-.01-.31,.09-1.01,.39-1.98,.86-2.45Zm.74,5.5c-.09,.16-.19,.33-.29,.48-.07,.07-.14,.13-.21,.2-.09,.06-.18,.12-.28,.16h-.01c-.68,.18-.26,.12-1.32,.12-.04,0-.09,0-.13-.01-.04,0-.09-.02-.13-.03-.08-.04-.19-.1-.27-.15-.04-.03-.07-.07-.11-.11-.12-.16-.22-.34-.29-.53-.03-.07-.05-.11-.06-.14-.27-.68-.18-.76-.26-1.71,.09,.27,.19,.53,.33,.77,.29,.45,.72,.95,1.22,1.21-.1,.06-.19,.11-.3,.15,.12,.01,.25,0,.37-.02,.05,0,.09-.02,.14-.03,.38,.15,.8,.15,1.22-.12,.16-.1,.3-.2,.42-.32-.01,.03-.02,.05-.04,.08Zm4.75-1.9c-.04-.42-.08-.84-.14-1.25,.02-.03,.1-.11,.08-.09-.02,.01-.02,.01,0,0,0,0,.03-.02,.04-.02,.4,.09,.52,.38,.63,1.01,.03,.21,.06,.43,.1,.64-.27-.05-.52-.13-.7-.28Zm1.99-5.11s-.06,.06-.08,.07c-.04,.03-.08,.06-.12,.09h0l.06-.04s-.05,.04-.08,.05c-.46,.16-.88,.42-1.26,.71-.02,0-.04,.02-.08,.05-.34,.16-.58,.47-.69,.82,0,.03,0,.06-.01,.08-.03-1.13,.01-2.27,.31-3.36,.78-.03,1.57,.03,2.35-.04,.03,.13,.06,.26,.08,.39,.01,.17,.02,.35,.01,.53,0,.03-.01,.05-.02,.08-.04,.07-.08,.15-.13,.21-.11,.12-.22,.24-.34,.35Zm1.12,6.86s-.03,.02-.05,.03c-.06-.06-.12-.11-.18-.18-.35-.42-.49-.65-.64-1.02,.17,.18,.34,.36,.5,.54,.05,.06,.1,.12,.15,.18,.07,.11,.14,.21,.2,.33,0,.03,.02,.07,.02,.1l-.02,.02Z"/></g><path class="h" d="M88.4,100c-1.11-.12-1.29,.01-2.04-.26-.81-.46-1.76-.58-2.67-.69-.4-.01-.85-.26-1.87,0-2.03,.74-1.43,4.19,.92,3.63,.15-.02,.29-.06,.44-.09,0,1.66,.07,3.33-.08,4.98-.16,1.95-.57,3.87-.46,5.83,.01,.88,.05,1.85,.69,2.53,1.12,1.18,2.67,.44,3.09-.98,.28-.95,.06-1.94,.05-2.91,0-1.26-.02-2.22-.16-3.49-.13-1.41-.23-2.85-.53-4.24,0-.47,0-.94,0-1.41,0-.06,0-.12,0-.18,.63,.02,1.26-.04,1.89-.06,.73-.07,1.68-.07,2.06-.82,.52-1.28-.03-1.79-1.32-1.84Zm-1.12,2c-.5,.13-1,.31-1.51,.43,0-.31,.01-.62-.02-.93,.18,.04,.38,.07,.48,.08,.31,.05,.63,.07,.94,.02,.46-.04,.81-.14,1.48-.16,0,.01-.02,.03-.03,.05-.35,.24-.85,.35-1.34,.51Z"/><path class="h" d="M81.46,106.16c-.19-.67-.43-1.33-.74-1.95-.12-.21-.27-.41-.42-.61,.01,.01,.03,.03,.04,.04-1.03-1.59-1.36-4.32-3.64-4.53-.67-.1-1.32,.2-1.9,.52-.54,.34-1.04,.75-1.4,1.28-.48,.59-.86,1.26-1.22,1.93-.5,1.1-.8,2.28-.89,3.48-.34-.81-.82-1.57-1.35-2.27-.52-.62-1.25-1.05-1.99-1.35-.01,0-.03,0-.04-.02,.39-.16,.75-.37,1.05-.67,.32-.32,.46-.73,.45-1.13,.21-.9,.16-1.9-.47-2.59-.3-.27-.72-.31-1.1-.38-.93-.16-1.89-.16-2.79,.17-.1,.04-.32,.09-.43,.11-1.85,.06-2.45,1.58-2.78,3.19-.21,.78-.16,1.58-.06,2.38,.02,1.21,.05,2.43,.15,3.64,.04,.95,.02,1.91,.02,2.86,.02,.73-.08,1.51,.18,2.21,.74,2.14,3.05,2.78,5.03,1.96,.66-.23,1.23-.63,1.77-1.05,0,0,.04-.03,.11-.08,.43-.32,.86-.66,1.17-1.11,.49-.75,1.06-1.47,1.39-2.32,.03-.08,.04-.16,.07-.24,.06,.25,.12,.49,.17,.74,.61,2.52,2.23,5.13,5.16,4.81,1.68-.1,3.08-1.26,3.99-2.61,.4-.74,.62-1.56,.9-2.35,.39-1.36,.15-2.76-.41-4.03Zm-15.89,6c-.11,0-.22,0-.33-.01l-.14-.03-.11-.03c-.05-.02-.1-.05-.15-.08-.03-.04-.07-.07-.1-.11h-.01c-.06-.1-.12-.2-.17-.29,0-.02-.01-.04-.02-.06,0-.04,0-.07,0-.11,.45,.05,.91,.08,1.37,.09,.35,.02,.7,.06,1.06,.07-.27,.19-.65,.43-1.26,.55-.04,0-.09,.02-.13,.02Zm2.86-3.51c0,.28-.04,.56-.06,.84v.04c-.07,.45-.28,.74-.4,.93-.51,.3-1.45,.45-2.17,.57-.41,.1-.84,.18-1.26,.24,0-.18,0-.35,0-.53,.01-1.39,.01-2.78-.09-4.17,.72,.32,1.53,.4,2.3,.19,.13-.04,.44-.09,.58-.12,.07,0,.15-.01,.22,0,.09,.03,.26,.07,.39,.12,.04,.02,.08,.04,.11,.07,.06,.06,.12,.12,.18,.18l.03,.06c.07,.2,.11,.42,.15,.63,.04,.32,.04,.64,.03,.97Zm.05-9.71c.29,.23,.46,.56,.56,.92-.07-.09-.16-.18-.25-.26-.42-.35-.92-.57-1.46-.66,.12-.01,.25-.03,.39-.04,.31-.02,.73-.03,.75,.04Zm9.19,1.72c.37,.28,.74,.69,1.11,1.15-.79-.77-1.52-.96-3.03-.9,.53-.46,1.21-.75,1.93-.25Zm2.25,8c-.22,1.03-.17,.64-.59,1.64-.32,.76-.56,1.07-.58,1.07-1.12,1.14-1.41,1.09-1.92,1.2-.18,0-.35,.01-.53,0-.03,0-.06-.01-.09-.02-.08-.03-.17-.06-.25-.09-.09-.04-.18-.09-.27-.14-.14-.12-.27-.25-.39-.39-.17-.3-.6-.86-.82-1.74-.17-.52-.27-1.06-.4-1.6-.1-.31-.21-.63-.28-.95-.05-.66-.07-1.32-.05-1.98v-.05c.03-.13,.11-.53,.13-.69,.18-1.11,.24-1.2,.5-1.83,.13-.37,.3-.73,.77-1.55,.13-.17,.29-.36,.47-.53,.64,.16,1.29,.31,1.86,.65,.76,.59,1.04,1.62,1.58,2.47,.05,.08,.17,.34,.23,.48,.35,1.06,.28,1.22,.42,2.07,.15,.8,.24,1.04,.23,1.3,.02,.13,0,.47-.03,.68Z"/><path class="h" d="M60.35,95.21c-.12-.63-.23-1.3-.66-1.8-.46-.48-1.27-.54-1.79-.11-.51,.39-.75,1.03-1.14,1.53-.4,.67-.93,1.26-1.23,1.98-.54,1.36-.29,1.1-.55,2.33-.15,.55-.27,.65-.7,1.74-.49,1.24-.37,1.04-1.01,2.41-.45,.87-.85,1.8-.92,2.79-.05,.53-.07,1.09,.2,1.57,.52,.92,1.72,1.18,2.6,.61,1.09-.8,1.87-2.02,2.3-3.3,0-.03,.01-.06,.02-.09,.07-.03,.14-.07,.2-.13,.08-.06,.15-.13,.21-.21,0,.02,0,.04,0,.06,.04,.35,.1,.7,.21,1.04,.02,.09,.07,.18,.15,.21,.08,.02,.07-.1,.06-.16-.02-.25-.02-.06-.04,.04-.18-.44,.16-2.09,.23-2.96,.05-.28,.09-.57,.1-.86l.04-.08c0,.39,0,.79,0,1.18,.09,1.62,.16,3.26,.45,4.86,.13-1.55,.43-3.02,.68-4.67,.25-1.19,.48-2.38,.55-3.6,.09-1.47,.35-2.95,.04-4.41Zm-2.47,2.7s.01-.04,.02-.05c.15-.25,.3-.49,.45-.73,.04,.48,.07,1.05,.11,1.65-.24-.11-.51-.15-.78-.12,.05-.28,.1-.53,.19-.75Z"/><path class="h" d="M54.25,90.95c-.68-.38-1.43-.57-2.2-.67-.62-.12-1.26-.18-1.88-.04-2.27,.4-2.8,3-2.88,4.96-.09,1.14,.63,2.07,1.53,2.71,.12,.15,.24,.3,.37,.44,.52,.6,1.19,1.05,1.73,1.62,.07,.1,.12,.22,.17,.33,.04,.09,.08,.22,.11,.32,0,.14,0,.28,0,.42,0,.02,0,.04,0,.06l-.03,.1c-.02,.07-.04,.12-.05,.15h0c-.09,.22-.17,.39-.23,.52-.02,.02-.05,.05-.07,.07l-.04,.02c-.38,.24-.76,.47-1.17,.67-.1,.04-.21,.07-.31,.09-.06,0-.12,0-.19,0-.03,0-.07-.02-.13-.03-.22-.1-.39-.15-.68-.4-.18-.08-.53-.84-.59-1.02-.02-.04-.03-.07-.04-.1l-.03-.05c-.26-.64-.1-1.3-.38-2.27-.2-.38-.77-.58-1.1-.25-.69,.78-.82,1.99-.41,2.94-.12,.49-.16,.99-.1,1.48,.18,1.36,1.58,2.13,2.83,2.3,1.59,.35,2.3-.47,3.39-1.38h.03c1.42-.71,1.93-2.32,2.07-3.8,.03-.76,.07-1.6-.37-2.27-.52-.72-1.33-1.19-2.13-1.53-.23-.09-.46-.16-.68-.25-.04-.02-.09-.05-.16-.08-.01,0-.02-.02-.04-.02-.04-.05-.09-.11-.14-.18l-.05-.06c-.02-.07-.04-.13-.06-.2v-.03c.09-.42,.2-.85,.35-1.25,0-.02,.02-.04,.03-.06,.03,0,.06,0,.08,0,.17-.02,.62,0,.81,0,.14,.04,.27,.09,.41,.12,.08,.03,.16,.05,.24,.07l.08,.04c.1,.07,.2,.15,.29,.22,.1,.09,.19,.19,.29,.28,.38,.63,.2,.4,.45,.88,.15,.25,.3,.46,.56,.61,1.17,.59,2-.09,2.36-1.23,.57-1.87-.57-3.26-2.05-4.26Zm-8.46,10.12c.01-.58,.25-1.22,.62-1.64-.03,.24-.05,.47-.07,.71-.23,.38-.41,.8-.54,1.24,0-.1-.01-.21,0-.31Zm.51-.55c-.04,.45-.01,.91,.11,1.34,.12,.63,.34,1.26,.78,1.73,.04,.04,.08,.08,.11,.12-.29-.13-.53-.32-.76-.55-.41-.69-.44-1.73-.26-2.64Z"/><path class="f" d="M75.08,93.45l2.86-12.54c2.03,3.61,3.78,7.38,5.24,11.26"/><path class="f" d="M85.05,81.15c-.13,2.56,.15,5.14,.81,7.61,.15,.55,.32,1.11,.65,1.58s.86,.83,1.43,.83c.6,0,1.15-.39,1.48-.9s.47-1.11,.57-1.7c.43-2.54,.24-5.13,.06-7.69"/><path class="f" d="M95.28,80.54l.52,11.06"/><path class="f" d="M92.46,80.78l6.83-.34"/><path class="f" d="M104.75,80.94c-1.51-.43-3.19,.4-4.06,1.7s-1.06,2.97-.85,4.53c.13,1.03,.46,2.1,1.23,2.79,1.18,1.07,3.16,.89,4.39-.12s1.8-2.65,1.89-4.25c.06-1.07-.09-2.17-.6-3.11s-1.41-1.7-1.99-1.54Z"/><path class="f" d="M54.2,94.74c.01-1.36-1.02-2.65-2.34-2.95s-2.81,.43-3.38,1.67-.17,2.84,.91,3.66c.59,.44,1.32,.66,1.91,1.09,1.23,.9,1.63,2.75,.88,4.08s-2.55,1.93-3.95,1.34-2.22-2.31-1.79-3.77"/><path class="f" d="M53.65,106.62c1.49-3.3,2.99-6.6,4.67-9.9l.32,11.81"/><path class="f" d="M56.09,102.22l2.39,1.01"/><path class="f" d="M63.96,112.69c-.28-4.39-.55-8.78-.64-12.54,1.34-.48,2.78-.72,4.2-.69,.52,0,1.11,.09,1.43,.49,.28,.34,.28,.85,.12,1.25s-.49,.73-.82,1.02c-1.17,.98-2.65,1.57-4.17,2.33,1.62-.97,3.91-.62,5.16,.8s1.3,3.74,.13,5.22-3.45,1.95-5.41,2.12Z"/><path class="f" d="M78.16,101.77c-.58-.83-1.81-1-2.73-.58-.92,.42-1.57,1.28-2.01,2.19-1.26,2.54-1.23,5.68,.08,8.2,.65,1.24,1.79,2.43,3.19,2.37,1.27-.05,2.27-1.11,2.87-2.23,1.73-3.23,.57-7.11-1.39-9.94Z"/><path class="f" d="M84.74,101.02l.03,14.61"/><path class="f" d="M81.81,100.96l7.1-.04"/><path class="f" d="M92.25,100.68c-.15,3.78-.3,7.55-.4,10.98l6.76-.59"/><path class="f" d="M92.53,106.07l4.71-.61"/><path class="f" d="M92.39,100.86l5.6-.76"/><path class="f" d="M100.88,111.88c.48-4.1,.96-8.19,2.1-11.8l4.01,12.09"/><path class="f" d="M101.74,107.77l3.89-.48"/><path class="f" d="M76.9,87.72l4.17-.93"/><path class="f" d="M109.66,109.33c-.72-3.89-.95-7.86-.6-11.11,.66-.31,1.34-.63,2.07-.71s1.53,.12,2,.68c.43,.53,.51,1.25,.56,1.93l.39,4.94c.05,.61,.09,1.25-.12,1.83-.29,.77-1,1.32-1.78,1.6s-1.61,.33-2.52,.82Z"/><path class="f" d="M120.21,95.5c-.79-.39-1.8,.08-2.29,.82s-.59,1.66-.66,2.55c-.08,.88-.14,1.78,.11,2.62s.92,1.62,1.79,1.75c1.17,.17,2.2-.86,2.62-1.96,.77-2.04,.21-4.88-1.57-5.77Z"/><path class="f" d="M125.15,104.23c-.07-3.75-.15-7.51-.01-10.84,1.02-.56,2.27-1.12,3.28-.56,1.03,.57,1.21,2.08,.65,3.12-.69,1.26-2.3,1.92-3.68,1.52"/><path class="f" d="M127.34,97.4c.59,1.8,1.55,3.49,2.8,4.91"/><path class="e" d="M106.14,40.76c-1.95-.29-4,.19-5.61,1.33s-2.76,2.9-3.14,4.83c-.28,1.4-.13,2.94,.71,4.09,.8,1.08,2.14,1.68,3.48,1.83s2.69-.08,4.01-.38c2.01-.46,4.06-1.11,5.58-2.5,1.52-1.39,2.36-3.71,1.52-5.59-.53-1.17-1.62-2.01-2.81-2.5s-2.42-.91-3.75-1.1Z"/><path class="d" d="M105.67,45.11c-.88-.07-1.77,.25-2.41,.86-.34,.33-.62,.8-.49,1.25,.09,.33,.37,.57,.69,.69s.66,.13,1,.11c.57-.03,1.16-.14,1.64-.46s.82-.89,.74-1.46-.65-1.06-1.17-.99Z"/><path class="e" d="M78.01,47.61c-.7-1.71-2.31-3.1-3.98-3.85-1.67-.75-3.56-.88-5.38-.64-2.28,.3-4.72,1.38-5.56,3.53-.71,1.82-.03,3.99,1.34,5.39,1.36,1.4,3.29,2.14,5.22,2.47,1.51,.26,3.08,.3,4.54-.14s2.81-1.4,3.51-2.76,.77-2.81,.3-4Z"/><path class="d" d="M71.99,48.1c-.45-.41-1.07-.64-1.68-.63s-1.22,.27-1.65,.71c-.36,.36-.6,.89-.43,1.37,.16,.46,.64,.71,1.09,.88,.58,.21,1.2,.33,1.8,.22s1.17-.5,1.38-1.07-.14-1.12-.51-1.46Z"/><path class="e" d="M114.41,68.67c1.6-.24,1.92-2.27,.6-2.6-1.19-.29-5.79-.67-9.1-.53-13.49,.57-26.98,1.14-40.47,1.71-1.12,.05-2.29,.11-3.23,.71s-1.51,1.93-.9,2.87c.61,.93,1.93,.98,3.04,.92,16.78-.9,33.08-.52,50.05-3.08Z"/><path class="e" d="M63.06,69.47c17.13-.74,51.39-2.2,51.39-2.2"/></g></g></g></svg>