<?xml version="1.0" encoding="UTF-8"?><svg xmlns="http://www.w3.org/2000/svg" viewBox="0 0 181.4 242.11"><defs><style>.d,.e{fill:#fff;}.e,.f,.g{stroke:#fff;stroke-miterlimit:10;stroke-width:.25px;}.h{opacity:.91;}.i{fill:#d3e3d6;}.g{fill:none;}.j{opacity:.99;}</style></defs><g id="a"/><g id="b"><g id="c"><rect class="i" width="181.4" height="242.11" rx="14.95" ry="14.95"/><g><path d="M83.79,176.57c-.23-2.37-.53-4.7-1.41-6.95-.72-1.84-1.29-3.72-2.21-5.49-1.19-2.28-2.54-4.46-3.87-6.67-1.29-2.15-2.69-4.21-4.23-6.21-.39-.51-.89-.92-1.27-1.43-.31-.41-.54-.88-.8-1.32-.75-1.27-1.54-2.44-2.46-3.62-.86-1.1-1.62-2.25-2.5-3.34s-1.89-2.28-2.73-3.46c-1.75-2.45-3.5-4.9-5.17-7.39s-3.49-5.09-5.37-7.54c-.75-.98-1.47-1.99-2.24-2.96-.72-.91-1.35-1.85-2.04-2.77-.52-.69-1.11-1.28-1.69-1.91s-1.03-1.22-1.81-1.66c-1.31-.74-3.36-.15-3.77,1.29-.37,1.29-.29,2.85-.28,4.17,.02,1.98,.78,3.82,1.7,5.58,.77,1.47,1.67,2.93,2.6,4.33,.44,.67,.93,1.26,1.41,1.9s.82,1.33,1.28,1.97c.89,1.22,1.57,2.57,2.16,3.94,.94,2.16,1.83,4.36,2.61,6.57,.68,1.93,1.27,3.99,1.42,6.02,.19,2.6,.61,5.12,1.3,7.65,1.14,4.15,2.21,8.32,3.69,12.38,.47,1.29,1.07,2.53,1.66,3.77,.54,1.13,.94,2.32,1.5,3.44,.88,1.77,2,3.62,3.44,5.06,.7,.7,1.48,1.34,2.23,1.99,.42,.36,.8,.75,1.22,1.11,.49,.43,1.05,.7,1.6,1.06,.92,.6,2.04,.62,3.14,.7,1.3,.1,2.56-.11,3.83-.35,1.9-.36,4.15-1.31,5.27-2.87,.66-.92,1.07-1.98,1.54-3,.39-.85,.59-2,.34-2.9-.08-.27-.43-1-.09-1.07Z"/><path class="d" d="M42.81,126.92c.98,1.81,2.17,4.49,3.49,6.1,.94,1.15,1.22,2.66,1.88,3.97,.37,.73,.86,1.44,1.19,2.18,.45,1.01,.83,2.05,1.19,3.1,.28,.8,.43,1.66,.54,2.49,.11,.79,.38,1.52,.57,2.29,.36,1.45,.78,3.01,.83,4.5,.04,1.4,.5,2.72,.69,4.1,.17,1.23,.3,2.52,.64,3.73,.44,1.56,.81,3.13,1.4,4.64,.64,1.63,1.06,3.31,1.7,4.94,.29,.74,.6,1.46,.95,2.18,.2,.41,.32,.83,.55,1.23s.5,.79,.71,1.2c.59,1.11,1.05,2.31,1.75,3.36,.86,1.3,1.48,2.71,2.28,4.04,.31,.51,.73,.95,1.09,1.42,.53,.71,1.03,1.45,1.62,2.13,.93,1.07,2.16,2.08,3.44,2.77,.74,.41,1.4,.68,2.25,.83,.78,.13,1.52,.13,2.3,.12,1.65,0,3.26-.39,4.81-.91,1.26-.43,2.3-1.26,3.04-2.3,.37-.53,.78-1,1.11-1.55,.36-.59,.72-1.17,1.08-1.76,.32-.52,.56-.89,.62-1.47,.02-.25,.15-.49,.18-.74,.04-.36,.11-.7,.16-1.06,.05-.28,.02-.57,.06-.85s.14-.53,.17-.8-.03-.54-.03-.81c0-.43,.05-.79-.01-1.22-.12-.83-.35-1.64-.66-2.42-.16-.4-.36-.77-.46-1.19-.13-.51-.21-.96-.4-1.45s-.46-.95-.58-1.44-.14-.93-.33-1.39c-.42-1.01-1.14-1.89-1.62-2.87-.36-.74-.81-1.43-1.17-2.18-.15-.31-.36-.57-.53-.86-.23-.38-.36-.82-.57-1.21-.4-.71-.73-1.47-1.25-2.1-.24-.29-.39-.59-.59-.9-.27-.43-.64-.81-.95-1.21-1.04-1.34-1.74-2.86-2.76-4.21-.51-.67-1.08-1.31-1.48-2.04s-.96-1.51-1.48-2.19c-.49-.64-1.13-1.18-1.64-1.8-.57-.69-1.04-1.44-1.59-2.15-.49-.63-.93-1.31-1.46-1.92-.3-.34-.6-.64-.88-1-.25-.33-.48-.7-.76-1.01-.53-.58-1-1.12-1.43-1.77-.39-.6-.8-1.19-1.19-1.79-.47-.72-1-1.4-1.48-2.12-.54-.8-.96-1.65-1.52-2.44-.4-.56-.95-1.1-1.42-1.61-.56-.61-1.13-1.21-1.59-1.89-.71-1.05-1.46-2.07-2.27-3.05s-1.64-1.97-2.32-3.06c-.93-1.48-1.82-2.99-2.88-4.39-.39-.51-.69-1-1.17-1.42-.32-.28-.63-.59-.98-.83-.29-.2-.74-.62-1.09-.69,.24,.15,.5,.65,.7,.85,.35,.33,.69,.69,.98,1.07,.53,.71,1.05,1.43,1.61,2.12,.69,.86,.97,1.92,1.48,2.86s1.04,1.91,1.69,2.77c.7,.92,1.22,1.92,1.89,2.86,.81,1.15,1.77,2.18,2.61,3.31,.88,1.19,1.79,2.37,2.61,3.6,.37,.56,.83,1.04,1.22,1.59,.42,.58,.75,1.21,1.16,1.8,1.65,2.37,3.6,4.54,5.16,6.96,.41,.63,.87,1.22,1.31,1.84,.51,.72,.9,1.45,1.54,2.08,.42,.41,.78,.86,1.18,1.28,.51,.54,1.12,1.05,1.55,1.64,2.18,3.01,4.09,6.21,6.14,9.31,.46,.7,.88,1.44,1.24,2.18,.46,.94,1.05,1.83,1.56,2.75,.45,.81,.8,1.7,1.18,2.54,.35,.77,.68,1.58,.92,2.39,.2,.69,.33,1.34,.41,2.05s.3,1.38,.48,2.09c.14,.57,.18,1.21,.18,1.79s.05,1.15,.03,1.72c-.05,1.08-.32,2.11-.76,3.11-.24,.55-.6,1.02-.89,1.54-.35,.63-.68,1.18-1.22,1.7-.84,.82-1.87,1.59-3.02,1.97-1.04,.35-2.05,.58-3.14,.75-1.21,.19-2.51-.2-3.66-.51-.55-.15-1.15-.34-1.65-.58-.64-.3-1.07-.74-1.55-1.22-.52-.52-1.03-1.1-1.51-1.66s-.83-1.14-1.22-1.76c-.7-1.12-1.26-2.32-1.91-3.47-.27-.49-.46-1.01-.71-1.51-.32-.64-.68-1.23-1.04-1.85-.69-1.18-1.33-2.36-1.82-3.63-.23-.6-.58-1.17-.77-1.78-.24-.74-.37-1.51-.62-2.25-.58-1.72-1.01-3.46-1.39-5.23-.34-1.54-.63-3.07-1.09-4.58s-.59-2.96-.92-4.43c-.14-.64-.41-1.27-.52-1.92-.12-.7-.13-1.4-.25-2.1-.21-1.21-.49-2.41-.78-3.61-.54-2.26-1.53-4.36-2.3-6.54-.35-.99-.94-1.84-1.46-2.75-.22-.37-.47-.72-.72-1.07-.36-.5-.65-1.05-1.04-1.54-.58-.74-.95-1.47-1.58-2.16-.5-.55-.91-1.3-1.46-1.79-.23-.21-1.29-1.55-1.53-1.85Z"/><path class="h" d="M48.27,183.76c-.09,.27-.9,2.16-.7,2.79,.02,.05,.11,.18,.14,.24,.18,.37,.27,.83,.3,1.23,.05,.56-.3,1.19-.64,1.65-.6,.81-1.2,1.6-1.61,2.51-.52,1.19-.92,2.44-1.41,3.65-.45,1.1-.73,2.14-.92,3.3-.11,.64-.16,1.29-.28,1.94-.11,.56-.34,1.11-.49,1.66-.24,.88-.33,2.15-1.39,2.51-1.27,.43-2.05-.98-2.43-1.87-.53-1.24-.64-2.85-.42-4.16,.19-1.1,.85-2.37,.47-3.48-.23-.69-.77-1.06-1.52-.92-.44,.09-.91,.13-1.26,.41-.52,.41-1,1.09-1.31,1.63-.45,.8-.88,1.57-1.21,2.42-.3,.78-.66,1.66-1.11,2.37-.43,.67-.84,1.38-1.37,1.98-.5,.56-1.25,.94-1.86,1.39-.35,.26-.83,.75-1.31,.75-.38,0-.87-.33-1.11-.58-.44-.46-.45-1.04-.44-1.63,0-1.02,.25-2.13,.64-3.08,.58-1.43,1.29-2.96,2.5-4,.99-.86,2.12-1.53,3.04-2.47,.52-.53,1.37-1.5,.8-2.25-.33-.42-.96-.5-1.45-.35-1.09,.32-1.66,1.45-2.41,2.18-1.26,1.24-2.83,1.86-4.3,2.82-.59,.39-1.23,.87-1.89,1.14-.72,.3-1.07,.07-1.4-.55-.77-1.43-.3-3.13,.67-4.38,1.14-1.47,2.88-2.16,4.55-2.96,1.39-.66,2.86-1.31,4.33-1.8,1.48-.5,2.99-.87,4.48-1.32s3.12-1.02,4.49-1.77c.71-.39,1.83-1.32,1.8-2.15-.01-.35-.02-.55-.21-.82-.28-.4-.31-.71-.28-1.23,.04-.88-.17-1.91,.12-2.77,.11-.33,.43-.42,.53-.77,.14-.55,.11-1.25,0-1.8-.17-.91,.04-1.85-.07-2.76-.08-.65,.08-1.3,.03-1.96-.06-.78-.23-1.53-.26-2.32-.05-1.47-.14-2.94-.18-4.42-.02-.56-.15-1.11-.17-1.67-.04-1.02-.04-2.05-.15-3.07-.08-.73-.32-1.42-.45-2.14-.18-.98-.35-1.97-.53-2.96s-.13-2-.12-3.02c0-1.11-.04-2.21-.14-3.31-.13-1.52-.45-3.04-.49-4.57-.06-2.15-.04-4.28-.3-6.43-.09-.76-.23-1.53-.41-2.28-.24-1-.39-2.01-.65-3-.23-.85-.5-1.64-.62-2.52-.14-1.04-.3-2.08-.51-3.11-.5-2.48-1.49-4.94-1.52-7.48-.01-1.3,.47-2.44,1.15-3.54s1.14-1.65,2.41-2.27c.97-.47,1.9-.55,2.84,.08,1.4,.93,2,1.67,2.9,3.04,1.6,2.43,2.04,4.94,3.04,7.56,.66,1.73,1.29,3.47,2.13,5.13,.7,1.38,1.3,2.84,1.62,4.35,.18,.83,.29,1.67,.44,2.51,.2,1.12,.27,2.3,.54,3.4,.25,1.01,.35,1.97,.48,2.99s.27,2.04,.29,3.09c.03,1.8,.08,3.62,.02,5.42-.02,.56-.13,1.12-.19,1.68-.08,.82-.18,1.65-.41,2.45-.25,.88-.39,1.79-.55,2.69-.2,1.07-.46,2.12-.77,3.18-.28,.97-.67,1.95-.84,2.95-.16,.92-.36,1.83-.6,2.74s-.33,1.84-.5,2.78c-.12,.64-.25,1.28-.38,1.92-.14,.68-.17,1.34-.29,2.01-.13,.77-.32,1.53-.34,2.32-.02,.85-.08,1.71-.16,2.55-.03,.32-.16,.63,.1,.87,.11,.1,.27,.11,.37,.24,.15,.19,.19,.53,.22,.75,.19,1.15-.16,2.45-.45,3.56-.09,.37-.31,.93-.63,1.18-.41,.32-.83,.15-1.05,.63s-.1,.9,0,1.38c.06,.28,.1,.89,1.05-2.07Z"/><path class="d" d="M40.8,111.58c-.57,.03-1.28,.12-1.88,.43-.09,.05-.67,.41-.72,.47-.19,.25-.4,.54-.58,.82-.3,.47-.56,.94-.84,1.42-.52,.89-.8,1.65-.95,2.65-.11,.75,.03,1.46,.03,2.21,0,1.14,.44,2.16,.61,3.28,.36,2.4,.92,4.82,1.39,7.21,.5,2.53,.98,5.04,1.3,7.59,.19,1.55,.35,3.1,.53,4.65s.37,2.98,.42,4.46c.06,1.75,.14,3.5,.22,5.25,.08,1.53,.29,3.06,.33,4.59,.05,1.91,.27,3.82,.34,5.71,.01,.35-.07,.7,0,1.05,.05,.3,.11,.59,.14,.91,.07,.79,.14,1.58,.22,2.37,.24,2.44,.41,4.89,.57,7.33,.03,.51,.13,1.01,.13,1.5,0,.44-.08,.91-.05,1.35l.06,.14c-.08,.04-.08,.1-.02,.17-.39,.06-.71,.85-.79,1.18-.12,.48,.21,.95,.21,1.42,0,.4,.13,.8,.07,1.19-.08,.49-.04,.86,.11,1.33,.25,.83,.4,1.64,1.39,1.9,.47,.13,1.02,.14,1.5,.22s1.08,.13,1.58,.09c.44-.03,.82-.1,1.26-.07,.51,.03,.81,.02,1.05-.44,.15-.29,.23-.68,.37-1,.15-.34,.18-.6,.25-.93,.16-.69,.5-1.35,.43-2.06-.05-.51,.03-1.14-.24-1.61-.23-.39-.56-.49-.51-.96,.04-.39,.02-.78,.08-1.17,.09-.63,.16-1.23,.21-1.86,.07-.78,.28-1.51,.46-2.27,.36-1.54,.59-3.12,.72-4.69,.06-.79,.33-1.56,.42-2.35,.09-.86,.12-1.77,.36-2.61,.37-1.32,.84-2.63,1.15-3.96s.51-2.66,.96-3.93c.26-.76,.31-1.49,.44-2.26,.27-1.64,.17-3.3,.26-4.97,.05-.88,.08-1.77,.12-2.65,.04-.97-.13-1.93-.13-2.9,0-1.07-.1-2.1-.29-3.15-.17-.92-.15-1.93-.41-2.82-.22-.8-.16-1.66-.47-2.44-.25-.62-.49-1.26-.65-1.91-.28-1.12-.67-2.07-1.18-3.12s-1.01-1.99-1.43-3.05c-.35-.86-.78-1.68-1.14-2.54-.2-.48-.41-.92-.48-1.43-.06-.41,0-1.1-.27-1.45-.14-.18-.38-.26-.61-.1-.2,.14-.15,.45-.15,.67,0,.59,.17,1.06,.32,1.61,.78,2.97,2.3,5.68,3.48,8.51,.64,1.54,.9,3.29,1.25,4.9,.15,.7,.27,1.41,.38,2.11,.16,.99,.35,1.99,.44,2.99,.15,1.65,.29,3.22,.11,4.86-.1,.91-.16,1.8-.21,2.71-.05,.97,0,1.96-.14,2.92-.25,1.72-.37,3.44-.71,5.15-.18,.91-.62,1.74-.91,2.62-.32,.98-.55,1.99-.86,2.97-.74,2.32-.7,4.83-1.05,7.22-.16,1.11-.24,2.24-.48,3.33-.2,.87-.16,1.73-.23,2.61s-.36,1.87-1.23,2.32-2.1,.39-3.03,.19c-1.12-.24-1.08-1.65-1.03-2.53,.12-1.92,.27-3.94,0-5.88-.31-2.13-.57-4.27-.64-6.42-.05-1.43-.15-2.87-.17-4.31-.01-.67-.13-1.34-.19-2.01-.08-.84,.05-1.69-.04-2.52s-.11-1.71-.15-2.56-.09-1.73-.1-2.6c0-.7-.07-1.4-.09-2.1-.01-.43-.15-.85-.13-1.28,.02-.38,.04-.72,0-1.1-.16-1.67-.1-3.33-.42-4.99-.25-1.27-.53-2.51-.66-3.79-.07-.66-.15-1.31-.24-1.97-.05-.35-.14-.71-.17-1.07-.04-.43,.03-.75-.11-1.17-.19-.58-.2-1.23-.36-1.83-.17-.63-.3-1.23-.44-1.87-.21-1.03-.5-2.05-.71-3.09-.14-.71-.39-1.37-.59-2.06-.61-2.2-1.07-4.57,.19-6.67,.58-.96,.91-2.08,1.86-2.76,.84-.6,1.78-.47,2.75-.02,.68,.32,1.49,1.04,1.99,1.85-.23-.63-.9-1.7-1.34-2.15-.29-.3-.76-.55-1.16-.68-.27-.1-.63-.17-1.1-.27Z"/><path class="d" d="M41.81,184.92c-.45,.51-.67,.62-1.23,1.03-.24,.12-.82,.5-1.11,.6-.46,.17-.88,.31-1.36,.41-.61,.13-1.27,.2-1.9,.23s-1.16,.11-1.78,.21c-1.43,.23-2.79,.85-4.15,1.34s-2.89,.97-4.09,1.65c-1.4,.79-2.64,1.84-3.43,3.19-.48,.81-1.26,2.51,0,3.25,.72,.42,2.12-.7,2.69-1.24,.77-.72,1.44-.94,2.37-1.47,.81-.47,1.59-1.45,2.15-2.19,.44-.58,.88-.9,1.59-1.14,1.03-.35,2.39-.25,2.79,.84,.26,.73-.33,1.51-.66,2.13-.4,.75-1.36,1.46-2.06,1.98s-1.38,1.05-2.05,1.59c-.58,.46-.9,.94-1.22,1.57-.52,1.04-1.28,2.08-1.38,3.27-.05,.54-.07,1.07,.02,1.6s.07,1.17,.74,1.11c1.34-.11,2.67-1.12,3.33-2.18,.3-.48,.66-.92,.87-1.44,.13-.3,.39-.5,.54-.78,.18-.35,.31-.76,.47-1.12,.23-.5,.49-1,.7-1.49,.26-.59,.62-1,.96-1.53,.18-.28,.28-.57,.5-.85,.25-.3,.57-.63,.88-.87,.46-.34,1.34-.83,1.96-.89,.42-.04,.98,.29,1.24,.56,.48,.5,.51,1.06,.51,1.7,0,.78-.13,1.35-.36,2.09-.22,.69-.38,1.37-.37,2.07,.01,.58-.07,1.17,.03,1.75,.1,.63,.38,1.27,.63,1.88s.6,.83,1.25,.62c.27-.09,.58-.16,.78-.35,.4-.38,.53-1.21,.53-1.71,0-.59,.23-1.41,.39-1.98,.21-.7-.04-1.11,.17-1.8,.34-1.16,.57-2.14,.97-3.29,.2-.58,.41-1.02,.62-1.6s.4-.91,.69-1.41c.19-.32,.33-.7,.55-1.01,.28-.39,.59-.85,.92-1.22,.59-.64,.82-1.23,.82-2.05,0-.58-.29-1.57-.28-2.15,0-.68,.14-.99,.23-1.44,.13-.67,.5-.62,.68-.01,.14,.45-.43,1.14-.37,1.61s.51,1.12,.53,1.59c.03,.6-.22,1.11-.45,1.69-.29,.73-.76,1.41-1.23,2.05s-.86,1.24-1.1,2.01c-.28,.88-.69,1.72-1.03,2.58-.6,1.54-1.02,4.23-1.04,4.52-.03,.4-.32,1.94-.39,2.33-.12,.63-.27,1.23-.68,1.79-.51,.69-1.3,1.05-2.17,.83-.47-.12-.85-.73-1.07-1.13-.26-.47-.47-.95-.68-1.45-.49-1.18-.34-2.48-.04-3.7,.16-.66,.39-1.24,.44-1.92,.04-.55,.2-1.23-.12-1.69-.61-.88-.76-.96-1.73-.54-1.15,.5-1.43,1.69-1.95,2.64-.3,.54-.65,1.06-.95,1.61-.35,.64-.82,1.39-1.05,2.07-.35,1.03-1.16,2.15-1.97,2.92-.72,.69-1.8,1.3-2.84,1.48-1.17,.2-1.73-1.38-1.86-2.2-.09-.55,0-1.22,.19-1.74,.32-.84,.6-1.65,1.04-2.45,.29-.52,.59-1.04,.94-1.53,.33-.46,.66-.98,1.12-1.34s.99-.7,1.46-1.07c.59-.47,1.06-1.05,1.6-1.57,.64-.61,1.05-1.31,.37-2.12-.37-.44-.94-.3-1.37-.08-.59,.3-1.07,.99-1.52,1.44-.97,.98-1.99,1.94-3.29,2.57-.4,.19-.69,.41-1.02,.7-.52,.45-.93,.73-1.58,.97-.44,.16-1.06,.57-1.51,.44-.41-.12-.75-.61-.95-.96-.22-.39-.36-.81-.26-1.24,.15-.66,.28-1.4,.6-2,.76-1.41,1.71-2.04,3.05-2.95,2.34-1.59,5.58-2.87,8.37-3.61,1.47-.39,3.01-.62,4.47-1.07,.41-.13,.8-.26,1.2-.43,.45-.19,.9-.42,1.33-.65,.36-.19,.33-.3,.72-.7,.25-.26,.36-.9,.74-1.13,.49-.3,.6,.51,.57,.81-.03,.26-.11,.45-.22,.7-.01,.03-.27,.35-.43,.5Z"/><path class="d" d="M29.25,201.43c-.62,.29-1.21,.63-1.77,1.02,.1,.34,.03,.73,.32,1.01,.21,.21,.73,.27,1.01,.24,.39-.05,.79-.39,.99-.69,.28-.42,.17-.67,0-1.1-.28-.69-.85-.8-1.58-.52-.31,.12-.57,.36-.68,.65-.07,.19-.04,.86,1.71-.62Z"/><path class="d" d="M24.02,193.75c-.19,.02-.57,0-.71,.13-.07,.07-.12,.17-.18,.25-.11,.14-.26,.27-.31,.44-.12,.34-.04,.73,.1,1.05,.08,.19,.19,.26,.38,.36s.34,.13,.56,.11c.18-.02,.35-.03,.5-.14,.17-.12,.32-.29,.42-.47,.08-.15,.17-.31,.2-.47,.03-.15-.01-.28-.05-.42-.05-.22-.08-.45-.3-.59-.13-.08-.28-.12-.41-.19-.06-.04-.07-.03-.14-.05-.04,0-.08-.03-.04-.02Z"/><path class="d" d="M40.77,201.41c-.3,.02-.58,.1-.84,.24-.03,.07-.05,.14-.07,.21-.03,.1-.05,.2-.06,.3-.04,.31,.03,.56,.15,.84,.09,.2,.31,.35,.55,.35,.33,0,.57-.22,.76-.44,.28-.32,.29-.97-.06-1.25-.14-.11-.51-.33-.43-.24Z"/><path class="j" d="M66.04,94.95c-.87-1.07-2.05-3.02-3.76-3.26-1.05-.15-2.28,.38-3.3,.6-2.29,.48-4.06,2.21-5.48,3.88-.63,.74-1.38,1.38-2.06,2.08-.77,.78-1.5,1.59-2.21,2.41-.99,1.14-1.99,2.26-3.14,3.26s-2.11,2.05-3.5,2.79c-.48,.26-.88,.37-1.42,.5-.26,.06-.54,.09-.8,.14-.41,.08-.69,.25-1.07,.41-.58,.25-1.08,.45-1.59,.83-.61,.46-1.07,1.02-1.48,1.64-.8,1.2-1.04,2.56-1.02,3.95,.02,2.11,1.2,4.03,3.56,4.38,1.28,.19,2.63-.36,3.83-.77,1.51-.52,2.85-1.58,4.11-2.5s2.7-1.98,4.14-2.7c.84-.42,1.66-.9,2.5-1.33,.79-.4,1.67-.87,2.38-1.39,1.51-1.09,3.15-1.92,4.73-2.9,1.09-.67,2.16-1.35,3.26-2.01,1.24-.75,2.26-1.56,2.99-2.79,.27-.46,.45-1.06,.58-1.57,.15-.61,.32-1.36,.37-1.99,.07-.93-.18-1.86-.69-2.63-.19-.29-.34-.54-.58-.8-.16-.18-.43-.51-.35-.22Z"/><path class="d" d="M67.04,101.19c-.05,.32-.03,.71-.23,.98-.07,.09-.12,.18-.17,.28-.1,.19-.22,.38-.34,.56-.18,.3-.41,.54-.64,.8-.29,.32-.64,.58-1,.83-.26,.18-.5,.37-.76,.56-.24,.17-.44,.39-.69,.55-.32,.2-.63,.39-.95,.59-.37,.22-.77,.39-1.13,.62-.66,.42-1.33,.79-2.04,1.14-.38,.19-.74,.43-1.11,.63-.45,.25-.91,.49-1.36,.73-.41,.22-.76,.52-1.15,.78-.3,.2-.63,.39-.95,.58-.62,.36-1.21,.76-1.82,1.14-.49,.31-1.05,.5-1.53,.82-.25,.17-.54,.28-.79,.45-.22,.14-.47,.25-.7,.37-.21,.11-.43,.18-.62,.32-.26,.18-.51,.39-.76,.6-1.14,.92-2.34,1.74-3.65,2.45-.54,.29-1.09,.54-1.59,.87-.15,.1-.35,.19-.51,.27-.22,.1-.44,.18-.65,.29s-.44,.16-.63,.27c-.37,.21-.79,.39-1.23,.45-.42,.05-.86-.02-1.26-.11-.16-.04-.31-.1-.46-.15-.17-.05-.35-.06-.52-.1-.35-.09-.74-.24-1.07-.39-.25-.11-.49-.27-.68-.46-.22-.22-.37-.47-.57-.69-.35-.38-.58-.84-.81-1.28-.14-.26-.23-.5-.28-.79-.04-.25,0-.48,.01-.74,.02-.29,.06-.58,.07-.87,0-.12,0-.25,.02-.37,.12-.52,.35-1.01,.49-1.53,.19-.67,.53-1.26,.96-1.82,.55-.7,1.24-1.38,1.99-1.9,.61-.42,1.37-.67,2.07-.92,.38-.14,.78-.23,1.15-.39,.42-.19,.84-.4,1.25-.61,.36-.19,.71-.37,1.06-.58,.48-.3,.81-.7,1.23-1.05,.39-.32,.76-.66,1.15-.97,.42-.33,.76-.77,1.11-1.17s.73-.74,1.08-1.12c.43-.46,.81-.95,1.19-1.45,.26-.35,.42-.73,.64-1.1,.3-.51,.77-.91,1.13-1.38,.26-.34,.58-.64,.88-.95,.36-.37,.76-.72,1.18-1.02,.36-.25,.72-.5,1.06-.78,.29-.23,.54-.48,.82-.72s.62-.49,.96-.68c.36-.2,.76-.34,1.13-.53,.55-.28,1.12-.55,1.74-.68,.42-.09,.81-.1,1.24-.07,.25,.01,.59,.06,.79,.19-.04,.11-.16,.15-.26,.19-.22,.09-.46,.15-.68,.24-.55,.2-1.13,.3-1.67,.52-.46,.18-.89,.35-1.33,.59-.49,.26-.98,.53-1.43,.84-.24,.17-.48,.33-.71,.51s-.45,.3-.66,.49c-.42,.38-.84,.76-1.24,1.16-.32,.32-.61,.64-.93,.96s-.68,.68-.94,1.06c-.28,.4-.56,.78-.83,1.18s-.53,.79-.82,1.17c-.33,.42-.61,.88-.94,1.31-.36,.46-.71,.92-1.13,1.34-.57,.57-1.21,1.09-1.84,1.59-.32,.26-.67,.48-1.01,.71-.18,.12-.36,.26-.54,.37s-.36,.2-.53,.33c-.34,.26-.73,.47-1.1,.7-.33,.21-.69,.31-1.04,.47-.34,.15-.67,.28-1.02,.41-.28,.1-.62,.16-.87,.32-.45,.27-.91,.51-1.35,.79-.55,.35-1.02,.83-1.39,1.34-.44,.62-.97,1.24-1.14,1.99-.14,.61-.35,1.33-.24,1.96,.05,.32,.16,.63,.29,.93,.1,.23,.13,.47,.3,.67,.19,.24,.4,.46,.66,.64s.5,.4,.77,.58c.78,.53,1.89,.58,2.82,.48,.24-.02,.47-.03,.71-.07,.3-.06,.58-.19,.88-.27,.23-.07,.46-.14,.69-.23,.31-.11,.63-.21,.94-.35,.55-.25,1.11-.51,1.62-.84,.28-.18,.57-.36,.87-.51,.34-.17,.63-.42,.92-.65,.51-.41,.96-.84,1.54-1.16s1.21-.6,1.8-.93c.2-.12,.39-.25,.61-.33,.15-.06,.27-.13,.41-.22,.2-.14,.39-.27,.6-.39s.37-.28,.57-.42c.17-.12,.36-.19,.55-.29,.19-.1,.36-.24,.55-.35,.33-.19,.66-.39,.98-.59,.22-.14,.46-.23,.69-.35,.21-.11,.4-.26,.62-.38,.42-.24,.84-.45,1.25-.72,.36-.23,.71-.48,1.08-.71,.33-.2,.66-.4,.99-.6,.36-.23,.68-.51,1.06-.71s.78-.44,1.18-.64c.28-.14,.55-.3,.82-.46,.17-.1,.33-.2,.5-.3s.36-.13,.52-.23c.48-.28,.99-.57,1.43-.91,.16-.13,.3-.28,.45-.42,.24-.22,.52-.38,.74-.62,.3-.32,.68-.57,.99-.88,.15-.16,.26-.38,.35-.57,.06-.15,.12-.34,.22-.47,0,.01-.02,.02-.03,0Z"/><path d="M10.32,111.67c.63-.01,1.27-.05,1.9-.11-.04-.3,.54-.73,.71-.98,.28-.41,.52-.85,.59-1.34,.09-.66-.05-1.42,.2-2.05s.81-.55,1.4-.76c.51-.18,1.05-.28,1.56-.47,.59-.22,1.15-.49,1.66-.85,.35-.26,.65-.58,.94-.9,.2-.22,.56-.7,.88-.78,.35-.09,.92,.37,1.2,.55,.36,.23,.78,.44,1.06,.76,.31,.36,.46,.84,.83,1.16,.55,.48,1.16,.9,1.65,1.45,.21,.23,.4,.47,.6,.7,.57,.63,1.13,1.28,1.55,2,1.45,2.45,3.38,4.55,5.66,6.38,.62,.5,1.29,.96,1.98,1.36,1.05,.61,2.09,.96,3.31,1.06,1.02,.08,1.93-.02,2.81-.55s1.79-1.31,2.47-2.06c1.45-1.6,.8-3.75,.04-5.54-.58-1.34-1.6-2.21-2.79-3.1-1.47-1.1-3.3-1.7-4.88-2.66-1.08-.65-2.12-1.34-3.08-2.13-.88-.72-1.65-1.58-2.57-2.27s-1.88-1.45-2.8-2.21c-1.09-.89-2.55-1.42-3.88-1.9-1.07-.39-2.28-.67-3.43-.76-1.31-.1-2.61-.02-3.92-.05-1-.02-2,.02-2.99,.02-.7,0-1.36-.16-2.06-.16-.88,0-2.06,0-2.85,.44-.72,.39-1.1,1.32-1.42,1.99-.42,.88-.95,1.74-1.61,2.47-.33,.36-.6,.75-.94,1.1s-.74,.63-1.03,1.04c-.65,.94,.78,1.37,1.56,1.23,1.25-.22,2.42-1.17,3.17-2.09,.51-.63,.97-1.42,1.6-1.94,.32-.27,1.02-.55,1.1,.12,.07,.57-.51,.86-.89,1.17-.62,.5-1.22,1-1.87,1.47-.69,.5-1.41,1.09-1.92,1.75-.77,.99-1.62,2.16-1.53,3.44,.07,1.03,.89,1.8,2.01,1.38,1.45-.55,2.01-2.35,2.69-3.51,.59-1,1.5-1.83,2.53-2.43,.45-.26,1.56-.53,1.65,.27,.03,.29-.35,.74-.57,.95-.35,.32-.81,.51-1.23,.73-1.61,.83-2.59,2.7-1.97,4.35,.19,.5,.6,.82,.88,1.27,.26,.41-.05,.75,.37,1.06s.82,.11-.35-.04Z"/><path class="d" d="M41.2,108.63c-.54-.38-1.05-.73-1.6-1.08-.21-.13-.41-.29-.64-.39-.41-.17-.79-.38-1.2-.55-.32-.13-.66-.19-.98-.32-.27-.11-.51-.29-.76-.42-.34-.18-.63-.39-.94-.61-.5-.37-1.06-.64-1.54-1.03-.36-.29-.75-.54-1.13-.81s-.71-.6-1.04-.91c-.61-.57-1.23-1.14-1.85-1.7-.58-.53-1.24-.97-1.82-1.5-.63-.57-1.35-1.09-2.1-1.51-.33-.19-.7-.42-1.06-.56s-.7-.25-1.06-.39-.72-.26-1.08-.39c-.3-.1-.64-.14-.95-.2-.61-.11-1.25-.17-1.88-.16-1.27,.02-2.53,0-3.8-.06-.72-.03-1.45,0-2.17-.03-.6-.02-1.21-.02-1.81,.02-.68,.05-1.36,.09-2.05,.16-.52,.05-1.05,.18-1.45,.52-.22,.18-.41,.39-.58,.61-.19,.25-.29,.55-.46,.81-.34,.53-.71,1.01-1.01,1.56-.16,.3-.38,.55-.59,.81-.2,.25-.39,.5-.62,.73s-.47,.4-.71,.6c-.2,.17-.48,.34-.63,.55-.2,.28-.07,.74,.32,.76,.51,.03,1.02-.12,1.44-.35,.25-.13,.44-.34,.62-.55,.21-.24,.45-.47,.64-.72,.35-.47,.62-.97,.99-1.43,.49-.62,1.02-1.19,1.85-1.42,.55-.15,1.15,.1,1.53,.49,.4,.42,.46,1.07,.16,1.56-.15,.26-.46,.48-.72,.65-.39,.25-.79,.5-1.19,.73-1.07,.62-1.94,1.61-2.67,2.55-.52,.67-1.1,1.4-1.46,2.15-.16,.33-.28,1.6,.03,1.86,.58,.47,1.38-.69,1.71-1.18,.26-.38,.47-.8,.67-1.2,.28-.56,.44-1.13,.82-1.64,.35-.47,.76-.87,1.26-1.21,.46-.3,.99-.45,1.51-.63,.46-.16,.56-.07,1.05-.11,.46-.04,1.25-.25,1.46,.16,.4,.78-.87,1.21-1.39,1.67-.84,.75-1.31,1.73-1.88,2.7-.11,.19-.29,.4-.35,.61-.04,.12-.07,.32-.09,.45-.02,.17,.02,.45,.07,.62,.12,.39,.22,1.04,.44,1.27,.38,.39,.85,.85,1.3,.61,.61-.32,.98-1.47,1.09-2.07,.07-.37,.23-.64,.28-1.01,.03-.24,.23-.47,.29-.7,.08-.31,.18-.35,.3-.65,.08-.18,.54-.43,.73-.53,.26-.14,.46-.21,.75-.25,.62-.1,1.01-.24,1.63-.37,.71-.15,1.24-.7,1.91-.94,.36-.13,.68-.36,1.02-.52,.12-.05,.2-.14,.31-.21,.16-.09,.3-.11,.48-.14,.4-.06,.75-.11,1.12,.11,.22,.13,.41,.29,.61,.46,.32,.27,.52,.64,.84,.92,.39,.34,.73,.72,1.15,1.03,.54,.4,.93,.93,1.43,1.38s.85,1,1.3,1.49c.23,.26,.38,.49,.57,.78,.23,.34,.51,.65,.76,.98,.54,.71,1.1,1.43,1.69,2.1,.26,.3,.6,.52,.85,.82,.38,.47,.73,.95,1.2,1.36s1,.65,1.45,1.03c.3,.26,.56,.5,.9,.72,.21,.14,.39,.31,.6,.46,.39,.28,.85,.57,1.28,.78,.34,.17,.69,.17,1.07,.24,.3,.05,.62,.1,.91,.19,.13,.04,.28,.07,.32,.19,.11,.33-.42,.39-.64,.41-.5,.04-.96-.12-1.43-.26-.31-.1-.63-.13-.94-.25-.39-.14-.74-.33-1.07-.56-.19-.13-.37-.28-.57-.4s-.42-.2-.6-.36c-.42-.36-.85-.72-1.29-1.06-.52-.41-.96-.86-1.45-1.29-.18-.16-.38-.29-.55-.46-.23-.22-.43-.48-.65-.72-.36-.38-.74-.75-1.04-1.18s-.66-.87-.93-1.32-.55-.88-.85-1.31c-.16-.22-.32-.45-.5-.66-.27-.31-.52-.64-.8-.94-.44-.46-.87-.91-1.27-1.4-.27-.33-.55-.66-.9-.93s-.57-.62-.88-.9c-.2-.19-.41-.36-.61-.55-.24-.23-.53-.5-.89-.5-.41,0-.8,.34-1.12,.55-.19,.13-.37,.29-.55,.43-.12,.09-.27,.12-.41,.19-.17,.09-.44,.24-.62,.34-.61,.31-.79,.47-1.36,.65-.38,.13-.86,.2-1.23,.36-.47,.2-.84,.41-1.06,.82-.37,.67-.66,1.39-.91,2.11-.1,.29-.13,.6-.23,.89-.08,.22-.22,.41-.36,.61-.31,.43-.79,.78-1.35,.87-.27,.05-.61,.07-.85-.09-.27-.17-.44-.44-.58-.7-.17-.32-.66-.78-.7-1.14s-.12-.59-.16-.93c-.05-.43-.1-.86-.07-1.29,.02-.37,.42-.56,.55-.9,.23-.62,.66-1.17,1.06-1.7,.14-.19,.3-.37,.46-.54,.06-.07,.11-.17,.2-.21-.26-.02-.48,.09-.72,.17-.37,.13-.71,.27-1.02,.51-.36,.27-.65,.59-.94,.92-.36,.42-.58,.91-.86,1.37s-.66,.88-.96,1.34c-.24,.36-.42,.74-.81,.98s-.76,.34-1.22,.18c-.52-.17-.58-.72-.62-1.18-.06-.62-.25-1.45,.03-2.02,.15-.31,.46-.61,.6-.92,.17-.37,.46-.66,.69-1.01,.95-1.44,2.36-2.56,3.66-3.73,.28-.25,.57-.54,.76-.86,.13-.22,.25-.45-.15-.37-.27,.05-.52,.33-.72,.5-.31,.25-.55,.59-.8,.89-.22,.27-.5,.54-.77,.77-.3,.25-.56,.53-.83,.81-.42,.42-.87,.79-1.44,1.01-.44,.17-.9,.33-1.36,.46-.14,.04-.38,.1-.52,.03-.16-.08-.34-.29-.46-.43-.36-.42-.25-1.11,.09-1.51,.17-.2,.4-.35,.6-.53,.33-.29,.57-.61,.85-.94,.48-.56,.92-1.1,1.33-1.72,.66-.99,1.23-2.05,2.13-2.88,.42-.38,1.1-.41,1.65-.48,.96-.11,1.93-.18,2.89-.27,.39-.04,.78-.1,1.17-.1,.57,0,1.14,.02,1.71,.02,1.15-.02,2.28,.04,3.42,.15,.51,.05,1.02,.16,1.53,.23,.61,.08,1.19,.22,1.79,.33,.78,.15,1.48,.42,2.22,.69,.47,.17,.92,.31,1.37,.48,.35,.13,.66,.33,.99,.49,.28,.14,.55,.37,.82,.54,.31,.2,.58,.42,.86,.65,.87,.72,1.71,1.46,2.54,2.23,.19,.18,.39,.34,.58,.51,.22,.2,.39,.42,.62,.6,.44,.34,.91,.62,1.33,.98s.89,.61,1.29,.97c.14,.12,.28,.2,.44,.3,.25,.16,.46,.35,.72,.49,.4,.21,.83,.35,1.21,.58,.34,.21,.68,.43,1.03,.63,.42,.24,.86,.44,1.28,.68,.6,.35,1.11,.87,1.47,1.43,.06,.09,.42,.63,.25,.5Z"/><path class="d" d="M42.28,111.96c-.48,.05-.96,.12-1.42,.29-.25,.1-.51,.22-.77,.29-.45,.13-.89,.3-1.34,.42-.51,.13-1.05,.18-1.58,.09-.38-.06-.72-.18-1.09-.3-.19-.06-.38-.12-.56-.21-.19-.1-.35-.23-.52-.36-.29-.21-.54-.41-.77-.69-.27-.34-.54-.65-.75-1.02-.12-.2-.27-.38-.38-.58-.11-.19-.16-.4-.24-.6-.14-.35-.26-.69-.37-1.06s-.3-.69-.45-1.04c-.19-.43-.43-.87-.75-1.23-.22-.25-.52-.44-.8-.63-.24-.17-.53-.44-.82-.52,.06,.13,.25,.23,.34,.33,.13,.14,.23,.31,.36,.44,.12,.13,.25,.24,.33,.4,.07,.12,.11,.24,.19,.36,.25,.37,.33,.76,.5,1.17,.06,.15,.15,.3,.2,.46,.06,.21,.12,.43,.19,.64,.11,.35,.3,.67,.45,1.01,.17,.38,.41,.75,.61,1.12,.15,.28,.35,.55,.55,.8,.22,.28,.48,.49,.75,.72,.14,.12,.24,.26,.36,.39s.27,.22,.42,.31c.34,.22,.66,.47,1.06,.6,.63,.22,1.32,.35,1.99,.28,.18-.02,.36-.02,.53-.06,.15-.04,.28-.12,.42-.18,.11-.05,.22-.07,.34-.11,.18-.07,.33-.19,.49-.28,.28-.16,.52-.37,.79-.53,.19-.11,.38-.2,.57-.3,.23-.12,.48-.19,.72-.27,.11-.04,.24-.06,.36-.05,0,0-.01,.02,.08-.12Z"/><path class="d" d="M12.98,97.58c-.29-.02-.59-.02-.88,.02-.09-.02-.15,0-.19,.07-.06,.03-.13,.09-.18,.13-.2,.15-.22,.38-.22,.61,0,.12-.01,.25,.06,.35s.21,.14,.27,.24c-.3-.05-.55-.23-.76-.43-.18-.17-.38-.42-.35-.68,.03-.22,.29-.43,.46-.53,.4-.24,.86-.21,1.3-.11,.14,.03,.26,.11,.4,.16,.07,.02,.14,.03,.19,.09,0,.02,0,.03-.1,.09Z"/><path class="d" d="M13.35,100.24l-.61,.31c-.12,.02-.21,.08-.26,.16-.06,.07-.1,.15-.14,.23-.12,.22-.16,.42-.17,.67,0,.15-.03,.29,.08,.42,.09,.11,.23,.15,.33,.25-.13,.17-.57-.15-.66-.25-.23-.25-.21-.83-.01-1.1,.21-.28,.58-.42,.9-.54,.22-.08,.46-.12,.55-.15Z"/><path class="d" d="M14.87,103.1c-.2,.14-.37,.31-.51,.51,0,.06,0,.13,0,.19,0,.12,0,.25,.03,.37,.05,.25,.27,.43,.52,.51,.22,.08,.56,.17,.79,.11,.16-.04,.31-.14,.44-.22-.23,.07-.41,.23-.62,.33-.22,.1-.51,.2-.76,.14-.42-.09-.69-.48-.73-.86-.03-.34-.09-.67,.26-.89,.12-.07,.24-.14,.38-.16,.07-.01,.17-.05,.18-.04Z"/><path class="d" d="M11.69,109.79c.04-.37,0-.73-.12-1.08-.07-.05-.15-.08-.23-.1-.12-.04-.25-.08-.38-.06-.22,.02-.46,.26-.49,.46-.04,.21,.02,.49,.06,.7,.04,.2,.17,.4,.35,.52s.54,.14,.67-.05c.09-.12,.03-.46,.14-.39Z"/><path class="d" d="M6.08,107.73c.09-.23,.14-.46,.13-.7-.18-.02-.29-.11-.49-.09-.22,.02-.35,.15-.39,.36-.01,.07,0,.15,0,.22-.01,.09-.06,.16-.05,.26,0,.21,.07,.29,.28,.34,.12,.03,.28,.02,.39-.03,.15-.08,.17-.23,.21-.37s.1-.28,.12-.42c0-.06-.04-.15-.2,.44Z"/><path class="d" d="M5.78,101.88c-.21-.12-.49-.36-.74-.22-.07,.04-.15,.06-.22,.09-.23,.09-.32,.23-.5,.37-.11,.08-.22,.18-.19,.33s.19,.17,.32,.18c.39,.04,.8,.01,1.04-.31,.07-.09,.39-.45,.29-.44Z"/><path d="M176.81,154.53c-1.36-2.36-2.65-4.83-4.19-7.11-.89-1.32-1.83-2.56-2.65-3.92-.98-1.63-2.18-3.28-3.38-4.78-.32-.4-.81-.87-1.05-1.28-.3-.51-.27-1.43-.27-2,0-1.09,0-2.18,0-3.26s-.18-2.31,0-3.38c.1-.6,.25-1.19-.05-1.76-.6-1.13-1.74-1.98-2.5-3.01-.86-1.17-1.2-2.47-1.49-3.87-.15-.76-.4-1.43-.51-2.2-.16-1.13-.31-2.28-.61-3.38-.57-2.11-1.35-4.23-2.15-6.28-.53-1.36-1.21-2.7-1.81-4.03s-1.22-2.59-1.94-3.82c-.65-1.1-1.06-2.3-1.76-3.39-.73-1.15-1.36-2.31-1.91-3.53-.61-1.35-1.07-2.73-1.61-4.1-.69-1.76-.61-3.92-.67-5.77-.04-1.29,.21-2.49,.44-3.76,.16-.92,.22-1.85,.39-2.76,.23-1.21,.48-2.06,.15-3.26-.7-2.56-2.33-4.83-3.28-7.31-.42-1.08-.82-2.13-1.12-3.25-.15-.57-.25-1.12-.46-1.66s-.53-1.06-.96-1.54c-.95-1.06-2.18-2.03-3.23-3-1.31-1.21-2.51-2.58-3.86-3.75-.25-.22-.53-.43-.82-.6-.39-.22-.77-.61-1.19-.76-.29,.53-.3,1.01-.75,1.47-.51,.53-1.16,1.15-1.95,1.32s-1.72-.1-2.52-.2c-1.19-.16-2.37-.3-3.55-.46-1.81-.24-3.62-.43-5.43-.68s-3.81-.34-5.65-.8c-1.04-.26-2.08-.38-3.15-.45-1.22-.08-2.43-.35-3.65-.34-.7,0-1.12-.14-1.81,0-1.33,.27-2.56-.03-3.78-.57-1.12-.48-2.2-1.02-3.31-1.51-1.55-.68-3.16-1.24-4.73-1.89-1.2-.49-2.26-1.33-3.42-1.93-.92-.48-2.05-1.26-3.13-1.4-.79-.1-1.04,.41-1.69,.69s-1.51,.34-2.21,.57c-.45,.15-.89,.25-1.34,.36-1.3,.32-2.57,.74-3.88,1.06-1.62,.39-3.19,.87-4.83,1.23-2.62,.56-5.14,1.53-7.79,1.94-.17,.83-.54,1.64-.79,2.45-.44,1.43-1.08,2.74-1.74,4.09-.59,1.21-1.19,2.48-1.96,3.6-.87,1.27-1.35,2.73-2.25,3.99-1.1,1.54-2.54,3.14-3.22,4.88-.15,.39-.16,.8-.15,1.22,.03,.9,.12,1.79,.12,2.7,0,1.27,.11,2.58-.12,3.83-.25,1.34-.52,2.48-.98,3.78-.28,.78-.65,1.47-1.04,2.19-.32,.59-.79,1.07-1.12,1.68-.64,1.19,.16,1.96,.72,3.08,.93,1.87,2.01,3.7,2.76,5.64,.43,1.12,.6,2.25,.9,3.38s.47,1.96,.46,3.11c-.03,2.39-.58,4.91-1.1,7.25-.49,2.21-1.07,4.42-1.52,6.63-.23,1.12-.32,2.28,.06,3.37,.61,1.77,1.21,3.52,1.88,5.27,.56,1.45,1.08,2.89,1.79,4.27,.78,1.52,1.59,2.89,2.03,4.55,.28,1.07,.27,2.05,.38,3.13,.04,.35,.17,.66,.12,1.02s-.17,.62-.26,.97c-.16,.69-.24,1.36-.44,2.05-.37,1.26-.8,2.5-1.19,3.75-.43,1.4-.63,2.83-1.19,4.2-.58,1.43-1.04,2.89-1.44,4.37-.24,.88-.57,1.74-.83,2.61-.13,.44-.18,.72,.01,1.17,.31,.72,.94,1.36,1.41,1.98,.5,.65,1.12,1.21,1.62,1.87,.68,.91,1.22,1.98,1.83,2.93,2.57,4.05,5.87,7.39,9.61,10.52,1.23,1.03,2.41,2.12,3.66,3.13,.77,.62,1.59,1.17,2.33,1.83,.91,.81,1.79,1.68,2.76,2.42,1.76,1.36,3.39,2.9,4.95,4.47,1.06,1.07,2.11,2.32,3.31,3.26,1.06,.84,2.8,.95,4.15,1.06,1.72,.14,3.47,.37,5.17,.64,2.7,.43,5.33,.65,8.05,.87,1.52,.13,3.03,.04,4.54,.22,1.8,.22,3.54,.32,5.35,.32,2.62,0,5.22,.11,7.85,.11,1.9,0,3.8,.25,5.7,.37,1.57,.1,3.28-.02,4.81,.26,.61,.11,1.19,.27,1.83,.34,1.6,.19,3.23,.23,4.81,.42,1.14,.14,2.13,.54,3.29,.55,.96,0,1.87,.29,2.82,.34,.55,.03,.92-.19,1.43-.32,.58-.15,1.2-.22,1.78-.37,1.2-.3,2.45,.02,3.65-.34s1.85-.59,2.69-1.48c1.55-1.64,3.19-3.25,4.39-5.15,1.32-2.09,2.62-4.15,4.13-6.12,.62-.81,1.33-1.52,2.03-2.27,.84-.9,1.24-1.93,1.94-2.92,.41-.58,.58-1.2,.87-1.82,.39-.84,.93-1.63,1.36-2.44,.41-.75,.62-1.56,1.05-2.31s.94-1.42,1.27-2.25c.51-1.24,1.34-2.36,1.9-3.59,.51-1.11,.92-2.18,1.27-3.33,.32-1.05,.95-2.12,1.49-3.08,.11-.03,.19,0,.06-.24Z"/><path class="g" d="M130.66,56.16c-.75,1.44-1.47,2.99-2.34,4.35-.13,.21-.41,.53-.45,.88v.11c.51,1.58,1.09,3.08,1.82,4.56,.46,.93,.75,1.92,1.19,2.85,.28,.59,.7,1.14,1.02,1.7,.92,1.6,1.81,3.31,2.56,5,.53,1.19,.63,2.5,.24,3.75-.22,.7-.64,1.43-.53,2.17,.09,.56,.39,1.18,.61,1.7,.43,1.03,1.04,1.8,1.09,2.96,.03,.61,.12,1.17,.12,1.79s-.08,1.27,.16,1.85c.52,1.28,1.7,2.26,2.52,3.39,.36,.49,.61,1.04,.92,1.56,.46,.76,.7,1.57,1.14,2.33,.89,1.56,1.78,3.21,2.56,4.8,.23,.48,.39,.98,.61,1.46,.23,.51,.65,.91,.79,1.43,.2,.74,.31,1.45,.3,2.22,0,.42-.04,.86,0,1.28,.03,.33,0,1.02,.12,1.32,.15,.38,.79,.63,1.1,.92,.54,.51,1.24,.89,1.68,1.48,.3,.41,.66,.99,.76,1.47,.11,.58,0,1.27,0,1.86,0,.49-.12,.89-.12,1.38,0,.67,.09,.94,.4,1.54s.64,1.14,.94,1.71c.34,.65,.55,1.38,.89,2.05,.8,1.62,1.24,3.33,2.19,4.9,.78,1.3,2.38,1.7,3.49,2.72,.57,.52,.93,.86,1.09,1.57,.24,1.05,.57,2.21,1,3.2,.56,1.28,.98,2.63,1.55,3.92,.43,.97,1.27,2.23,1.46,3.27"/><path class="g" d="M150.43,130.94c-.8-4.94-1.58-9.86-1.58-14.87"/><path class="g" d="M164.65,167.88c-.22-1.74-.57-3.47-.7-5.23-.08-1.03-.24-2.04-.43-3.05-.37-1.93-.73-3.85-1.17-5.77-.14-.62-.34-1.31-.43-1.9-.11-.75,.47-1.69,.75-2.36,.31-.75,.61-1.5,.9-2.26,.33-.86,.74-1.68,.97-2.57,.37-1.41,.75-2.81,1.07-4.23,.14-.63,.2-1.24,.4-1.86,.09-.29,.15-.55,.15-.84"/><path class="g" d="M55.67,155.82c1.83-.75,3.67-1.44,5.6-1.95,.98-.26,1.99-.4,2.96-.67,1.88-.52,3.83-1.17,5.77-1.48,1.51-.24,3.05-.4,4.52-.85,1.08-.33,1.96-1.17,2.93-1.69,.85-.46,1.4-.7,2.39-.69,1.26,.02,2.6,.02,3.87,.12,3.84,.31,7.74-.21,11.59-.24,.94,0,1.71,.24,2.6,.46,1.22,.3,2.74,.13,3.94-.12,1.93-.41,3.73-1.25,5.59-1.84"/><path class="g" d="M112.32,150.78c-1.8,.29-3.35,.59-5.13,.57-.74,0-1.48,0-2.22,0-.97,0-1.86,.18-2.81,.23-1.9,.12-3.82,.22-5.73,.22-1.03,0-2.17,.15-3.17-.11-.88-.23-1.65-.43-2.47-.81-.7-.33-1.18-.69-1.81-1.13-.22-.15-.99-.54-1.13-.48"/><path class="g" d="M111.96,155.94c2.74-.43,5.49-.81,8.21-1.29,.46-.08,1.16-.17,1.46-.43"/><path class="g" d="M107.06,93.71c.91-1.94,1.72-4.08,2.78-5.98,.26-.46,.59-.88,.84-1.35,.34-.65,.66-1.24,.82-1.95,.17-.76,.18-1.59,.22-2.37,.03-.73-.02-1.46,.07-2.19s.41-1.29,.58-1.98c.28-1.14,.58-2.71,1.77-3.34s2.78-.71,4.06-.52c.77,.11,1.53,.29,2.3,.41,.88,.13,1.79,.19,2.63,.48,.76,.26,1.56,1.61,1.88,2.3,.6,1.32,1.71,2.02,2.8,3.01,.85,.77,1.47,1.75,1.95,2.72,.74,1.5,2,2.89,3.17,4.13,.68,.73,1.15,1.33,1.99,1.93,.53,.37,1.18,.7,1.61,1.17"/><path class="g" d="M87.97,46.15c1.09,2.61,2.21,5.4,2.2,8.25,0,.84,.07,1.69-.09,2.52-.09,.45-.09,.96-.4,1.15,2.01,1.58,3.91,3.15,5.73,4.9,.67,.64,1.16,1.42,1.85,2.05,1.67,1.53,3.19,3.16,5.09,4.46s3.48,2.75,5.29,4.06,3.92,1.49,6.03,1.49"/><path class="e" d="M84.79,58.3c-1.56-.54-3.02-1.03-4.41-1.84-.63-.37-1.2-.84-1.84-1.21-.82-.48-1.67-.9-2.44-1.45-1.05-.75-2.05-.44-3.31-.43-.66,0-1.4,.09-2.01-.1-.53-.17-.93-.6-1.33-.93-.65-.52-1.31-1.2-1.79-1.84"/><path class="e" d="M112.55,104.11c-.22,.2-.44,.38-.56,.64-.06,.13-.11,.26-.16,.4-.09,.28-.14,.57-.18,.86-.06,.52-.1,1.08,.09,1.58,.11,.27,.2,.54,.33,.8,.06,.11,.09,.24,.15,.35,.07,.14,.16,.26,.21,.41,.08,.23,.25,.44,.37,.66,.1,.19,.22,.37,.34,.55s.25,.29,.41,.43c.17,.15,.34,.29,.51,.42,.34,.26,.72,.4,1.14,.48,.46,.09,.97,.12,1.44,.05,.28-.04,.57-.08,.84-.16s.57-.15,.82-.29c.23-.13,.45-.33,.64-.51,.16-.15,.32-.38,.39-.58,.12-.34,.23-.69,.22-1.06,.06,.12,.04,.28,.04,.41,0,.33-.01,.65-.08,.97-.06,.3-.1,.64-.28,.9-.1,.14-.19,.22-.34,.3-.16,.1-.3,.21-.46,.31-.29,.19-.63,.3-.94,.45-.34,.16-.7,.23-1.08,.28-.35,.04-.69,.03-1.04,0-.4-.03-.84-.04-1.23-.13-.69-.16-1.3-.44-1.71-1-.24-.33-.44-.7-.66-1.04s-.36-.74-.48-1.13c-.21-.7-.3-1.44-.3-2.17,0-.29-.01-.57,.04-.86s.11-.57,.21-.86c.09-.25,.19-.48,.33-.71,.05-.08,.12-.14,.19-.21,.08-.08,.12-.17,.21-.24,.17-.12,.34-.25,.58-.31Z"/><path class="e" d="M55.67,114.06c1.54-.46,3.07-.97,4.64-1.35,.97-.24,1.96-.52,2.96-.6s2.03-.25,3.05-.36c.52-.05,1.02-.16,1.53-.23s1.06-.08,1.59-.13,1.09-.06,1.64-.13c.46-.06,.93-.11,1.39-.16,.43-.05,.86-.14,1.28-.26,.55-.16,1.11-.27,1.66-.43,.99-.3,1.99-.79,3.04-.88,.96-.08,1.92-.16,2.89-.08,.85,.07,1.7,.02,2.49,.4,.46,.22,1.04,.37,1.44,.68,.45,.34,.92,.67,1.41,.96s1.1,.5,1.67,.71c.38,.14,.78,.28,1.18,.34,1.11,.18,2.26,.26,3.38,.1,.55-.08,1.09-.16,1.63-.32,.65-.2,1.37-.4,2.05-.45,.54-.04,1-.02,1.53,.04s1.15,0,1.64,.25c.36,.19,.67,.45,1.04,.64,.4,.21,.78,.52,1.21,.67,1.05,.37,2.35,.37,3.45,.34,.69-.02,1.38,.05,2.07,.01,.6-.03,1.1-.14,1.65-.36,.44-.17,.88-.35,1.31-.55,.32-.15,.67-.26,.98-.43,.4-.23,.62-.62,.98-.88,.32-.24,.63,.01,.88,.23,.47,.41-.05,.86-.46,1.11-.66,.39-1.33,.8-2.04,1.13-1.16,.54-2.5,1.11-3.82,1.07-1.43-.05-2.85-.21-4.27-.38-.47-.06-.91-.18-1.37-.25-.35-.05-.82-.16-1.12-.34-.35-.21-.65-.46-1.02-.65-.4-.22-.85-.36-1.31-.42-.37-.05-.79-.11-1.17-.07-.46,.05-.94,.26-1.38,.38-.78,.21-1.55,.49-2.33,.66-1,.21-2.01,.13-2.99-.17-.58-.18-1.19-.19-1.77-.38-.66-.21-1.27-.47-1.88-.79-.46-.24-.88-.56-1.35-.78-.55-.26-1.11-.49-1.68-.71-.35-.13-.7-.2-1.08-.28-.57-.11-1.2-.23-1.79-.15-1.05,.15-2.11,.27-3.16,.49-.6,.13-1.18,.32-1.76,.48-.7,.19-1.42,.31-2.13,.45-1.53,.29-3.07,.44-4.6,.65-1.1,.15-2.18,.37-3.24,.69-.64,.19-1.24,.36-1.91,.44-.6,.07-1.2,.21-1.8,.31-.65,.11-1.31,.22-1.95,.4-.23,.06-.47,.1-.71,.16-.32,.08-.61,.21-.94,.27-.43,.08-.84,.27-1.25,.38-.35,.1-.69,.24-1.04,.34-.25,.07-.43-.02-.68-.02,0,.01,.01,.02,.37-1.77Z"/><path class="e" d="M104.62,107.87c.16,.65,.36,1.27,.39,1.93,.01,.22,.02,.44,.06,.66,.06,.35,.22,.68,.28,1.03,.04,.27,.1,.55,.13,.82,.01,.11,.09,.34,.02,.45-.11,.2-.73,.34-.93,.36-.61,.05-1.38-.08-1.92-.37-.13-.07-.19-.09-.15-.23,.02-.08,.15-.2,.2-.28,.11-.18,.2-.38,.31-.56,.39-.66,.68-1.38,.97-2.08,.18-.42,.36-.85,.5-1.28,.03-.1,.12-.41,.13-.46Z"/><path class="e" d="M94.69,111.26c-1.35,.34-2.7,.8-4.09,.48-.26-.06-.56-.11-.81-.23-.05-.03-.25-.11-.28-.14-.12-.14,.14-.32,.25-.48,.33-.48,.62-.98,.93-1.47s.61-.95,.95-1.42c.13-.17,.19-.39,.33-.55,.31,.93,.81,1.8,1.45,2.57,.12,.14,.27,.26,.38,.4s.14,.3,.25,.44c.09,.11,.25,.26,.65,.4Z"/><path class="e" d="M88.72,111.21c-.09-.94-.1-1.83-.15-2.76-.03-.53,0-1.07-.03-1.6-.02-.34-.03-.67-.06-1.01-.01-.15-.06-.28-.02-.44-.24,.16-.42,.43-.57,.66-.38,.59-.81,1.14-1.32,1.64-.38,.38-.75,.76-1.13,1.14-.17,.17-.34,.38-.54,.52,.04,.26,.41,.28,.61,.4,.38,.23,.69,.53,1.12,.71,.48,.19,.96,.38,1.42,.61,.18,.09,.41,.16,.67,.12Z"/><path class="e" d="M82.69,108.81c-.83-.14-1.63-.36-2.46-.16-.36,.09-.7,.21-1.07,.27-.22,.04-.4,.15-.62,.19-.09,.01-.17-.02-.27,0-.39-.6-.02-1.42,.22-1.99,.27-.64,.47-1.3,.71-1.95,.11-.28,.22-.57,.34-.85,.06-.15,.11-.41,.22-.54,.13,.15,.18,.38,.26,.55,.18,.39,.44,.75,.62,1.15,.28,.6,.6,1.21,.95,1.78,.13,.22,.35,.35,.46,.58,.07,.15,.12,.27,.23,.4,.11,.14,.25,.34,.41,.57Z"/><path class="e" d="M75.52,109.8c-.95,.29-1.66,.56-2.63,.63-.49,.03-.98,.22-1.48,.2-.8-.04-1.56-.08-2.33-.22,.62-1.03,1.25-2.1,1.63-3.24,.23-.69,.44-1.38,.67-2.06,.11-.34,.18-.79,.37-1.1,.12,.18,.18,.41,.28,.61,.18,.37,.43,.7,.62,1.07,.2,.38,.44,.71,.67,1.08,.28,.45,.45,.92,.76,1.35,.25,.35,.51,.7,.79,1.03,.11,.13,.18,.3,.3,.42s.28,.12,.36,.24Z"/><path class="e" d="M67.15,110.64c-.83,.12-1.64,.27-2.47,.37-.65,.08-1.25,.18-1.88,.36-.27,.07-.54,.05-.81,.12-.25,.07-.47,.18-.72,.24-.15,.03-.38,.13-.53,.09-.03-.11,.11-.21,.17-.3,.17-.27,.26-.59,.4-.88,.19-.39,.43-.76,.63-1.16,.17-.34,.27-.71,.39-1.07,.23-.67,.6-1.33,.74-2.02,.05-.26,.14-.51,.19-.77,.02-.12,.02-.26,.09-.36,.14,.15,.23,.35,.34,.53,.22,.34,.46,.67,.72,.99,.49,.62,.75,1.37,1.21,2.01,.3,.42,.63,.82,.92,1.24,.13,.2,.31,.38,.61,.61Z"/><path class="e" d="M59.76,112.07c-.88,.18-2.07,.32-2.83,.86-.1,.07-.18,.17-.3,.22,.13-.29,.25-.58,.37-.87,.25-.59,.35-1.21,.51-1.82,.11-.44,.23-.88,.35-1.32,.06-.23,.03-.62,.16-.83,.32,.5,.5,1.11,.77,1.64,.13,.26,.24,.53,.42,.77,.12,.16,.26,.3,.35,.48,.09,.16,.13,.33,.23,.49,.04,.06,.19,.2,.16,.29-.05,.14-.25,.12-.2,.12Z"/><path class="e" d="M111.94,145.74c-.49,.02-1.07-.01-1.57,.09-.2,.04-.41,.08-.61,.12-.3,.07-.61,.09-.9,.17s-.55,.2-.83,.28c-.18,.06-.35,.09-.53,.18-.2,.09-.4,.18-.59,.29-.07,.04-.28,.11-.3,.18-.03,.08,.05,.36,.12,.37s.22-.07,.28-.09c.2-.08,.41-.17,.62-.24,.31-.1,.61-.22,.92-.32,.34-.11,.69-.17,1.02-.3,.57-.22,1.17-.38,1.74-.61,.12-.05,.69-.28,.64-.14Z"/><path class="e" d="M111.95,150.7c.6-.25,1.22-.53,1.89-.62,.44-.06,.87-.1,1.31-.14s.83-.1,1.26-.1c.13,0,.33-.05,.43,.02-.07,.04-.14,.04-.22,.06-.18,.05-.35,.13-.52,.2-.38,.15-.77,.28-1.17,.37-.7,.15-1.4,.24-2.09,.38-.42,.08-.83,.15-1.25,.2-.36,.04-.74,.1,.36-.36Z"/><path class="e" d="M94.25,79.43c-.55-.92-.99-1.91-1.46-2.88-.16-.32-.28-.65-.45-.97-.09-.18-.16-.36-.23-.55-.13-.39-.35-.76-.5-1.15-.08-.22-.21-.43-.31-.65-.13-.28-.23-.58-.39-.85-.13-.21-.24-.42-.34-.64-.09-.2-.16-.42-.28-.61-.25-.39-.53-.78-.82-1.15-.24-.31-.51-.62-.8-.89-.35-.34-.6-.76-.96-1.1s-.66-.73-1.04-1.05c-.18-.15-.37-.3-.53-.47-.14-.15-.32-.23-.48-.36-.44-.35-.89-.7-1.39-.97-.93-.49-1.94-.97-2.97-1.27-.5-.14-.99-.32-1.5-.39-.56-.08-1.13-.11-1.69-.14-.5-.03-.99-.12-1.5-.1-.55,.02-1.12,.04-1.67,.14-.29,.05-.59,.08-.88,.13-.27,.05-.52,.14-.78,.19-.53,.11-.95,.33-1.42,.57s-.96,.39-1.41,.66c-.58,.34-1.2,.58-1.75,.98-.82,.6-1.69,1.14-2.45,1.8s-1.48,1.46-2.14,2.26c-.7,.84-1.44,1.64-1.97,2.58-.43,.76-.86,1.53-1.23,2.32-.33,.72-.65,1.46-.84,2.22-.15,.59-.3,1.23-.36,1.84-.02,.25,0,.52-.05,.77-.03,.15-.05,.28-.03,.43s.05,.33,.22,.39c.09-.09,.14-.28,.19-.39,.08-.18,.13-.36,.18-.55,.11-.47,.2-.95,.35-1.42,.39-1.17,1-2.29,1.63-3.37,.51-.87,.97-1.78,1.61-2.58,.34-.43,.7-.84,1.06-1.24,.43-.48,.85-.99,1.36-1.4,.54-.44,1.12-.84,1.69-1.25,.52-.37,1.12-.62,1.67-.94,.63-.37,1.37-.66,2.06-.92,.78-.3,1.6-.55,2.43-.7,.63-.11,1.28-.13,1.91-.24,.58-.1,1.25-.11,1.84-.05s1.16,.03,1.74,.1c.6,.07,1.22,.16,1.81,.3,.51,.12,1.03,.26,1.52,.44,.43,.16,.83,.34,1.24,.53,.33,.15,.64,.32,.96,.5,.3,.16,.52,.39,.79,.59,.22,.17,.44,.31,.64,.51,.28,.28,.5,.64,.81,.89,.14,.11,.24,.25,.36,.38,.11,.12,.24,.22,.35,.34,.29,.3,.54,.63,.82,.94,.23,.25,.45,.51,.66,.77,.24,.29,.41,.61,.62,.92,.28,.41,.58,.8,.83,1.23,.23,.39,.51,.76,.72,1.16s.4,.76,.62,1.12c.24,.4,.45,.8,.62,1.23,.13,.32,.33,.61,.47,.93,.1,.24,.18,.58,.39,.77,.08,.07,.22,.11,.31,.17,.07,.05,.13,.1,.19,.15,0,.02-.01,.02,0,0Z"/><path class="e" d="M92.94,83.76c-.36,.22-1.06,.53-1.35,.92-.07,.1-.14,.19-.23,.27-.27,.27-.49,.49-.71,.81-.51,.74-1,1.46-1.33,2.29-.3,.74-.71,1.43-1.17,2.09-.2,.29-.41,.58-.64,.85-.27,.33-.63,.61-.93,.92-.34,.36-.77,.71-1.2,.96-.63,.37-1.2,.75-1.9,1-.29,.1-.58,.19-.87,.29-.23,.08-.44,.17-.69,.21-.17,.03-.34,.04-.51,.08-.43,.1-.81,.18-1.25,.21s-.91,.12-1.37,.15c-1.04,.09-2.09,.14-3.13,.14-.95,0-1.91-.04-2.84-.26-.7-.17-1.39-.42-2.01-.77-.54-.3-1.05-.62-1.61-.88-.51-.23-.94-.5-1.39-.83-.48-.35-.91-.75-1.4-1.09-.2-.14-.39-.31-.58-.46-.24-.18-.49-.33-.72-.53-.45-.38-.92-.72-1.34-1.14-.39-.39-.85-.69-1.32-.97-.37-.22-.73-.48-1.12-.68-.41-.21-.84-.35-1.29-.48,.17,.04,.31,.15,.46,.23,.23,.13,.47,.21,.69,.36,.32,.22,.56,.52,.86,.77,.19,.16,.35,.34,.52,.52,.3,.32,.64,.59,.94,.91,.56,.61,1.09,1.25,1.69,1.82,1.38,1.3,3.12,2.22,4.84,3.06,.59,.29,1.22,.52,1.84,.76,.18,.07,.36,.14,.55,.2,.22,.07,.44,.16,.65,.23,.15,.05,.3,.02,.45,.02,.14,0,.28,.06,.42,.07,.16,.01,.32,0,.48-.01,.33-.04,.63-.04,.96-.04,.19,0,.39,.03,.57,.02,.23,0,.48-.05,.72-.07s.44-.07,.67-.08c.17,0,.35,0,.52-.01,.32-.01,.64-.07,.95-.09s.63-.06,.95-.12c.38-.08,.77-.1,1.14-.21,.51-.15,1.12-.18,1.59-.43,.29-.16,.6-.27,.92-.37,.39-.12,.76-.25,1.14-.41,.12-.05,.22-.1,.32-.18,.17-.12,.38-.17,.55-.28,.13-.08,.22-.19,.36-.27,.17-.09,.3-.18,.44-.31,.24-.22,.5-.42,.76-.62,.33-.26,.59-.55,.88-.84,.31-.31,.48-.72,.76-1.05,.21-.25,.41-.49,.56-.76,.13-.23,.19-.48,.29-.72,.17-.4,.36-.8,.55-1.19,.2-.41,.39-.84,.6-1.25,.18-.34,.37-.67,.58-1s.43-.63,.69-.93c.19-.22,.42-.37,.63-.56,.11-.1,.25-.21,.38-.28-.01,0-.02,0,0-.01Z"/><path class="e" d="M89.14,91.8c-.32,.33-.65,.63-.9,1-.15,.23-.3,.46-.46,.68-.21,.31-.52,.56-.77,.85-.33,.39-.69,.75-1.08,1.08-.43,.36-.81,.77-1.21,1.16-.32,.31-.74,.49-1.13,.72-.21,.13-.4,.28-.6,.41-.47,.29-1.02,.48-1.54,.7-.32,.14-.62,.3-.95,.4-.3,.09-.59,.18-.88,.29-.49,.17-1.02,.31-1.54,.36-1.3,.13-2.66-.07-3.91-.41-.59-.16-1.11-.44-1.66-.68-.2-.09-.4-.17-.61-.25-.26-.1-.48-.24-.74-.34-.37-.14-.71-.19-1.05-.41-.3-.19-.63-.33-.94-.52s-.64-.29-.97-.43c-.28-.11-.52-.24-.8-.33,.18,.08,.34,.2,.5,.32,.25,.19,.55,.34,.84,.5,.85,.46,1.66,1.03,2.57,1.4,.26,.11,.5,.26,.76,.37,.21,.09,.43,.13,.65,.21,.26,.1,.5,.23,.75,.35s.5,.17,.75,.25c.44,.14,.86,.27,1.33,.35,.24,.04,.49,.03,.74,.06s.5,.04,.75,.02,.51-.03,.74-.1c.14-.04,.25-.1,.4-.13,.13-.02,.26-.01,.39-.03,.23-.04,.46-.12,.68-.18,.25-.06,.49-.09,.74-.14,1.06-.2,2.11-.6,3.08-1.03s1.58-1.13,2.26-1.82c.54-.54,1.07-1.06,1.48-1.69,.21-.31,.46-.6,.68-.91,.19-.27,.37-.55,.56-.83,.28-.41,.68-.72,1.11-1.25Z"/><path class="e" d="M91.36,79.94c-.06,.49-.09,1.02-.23,1.51-.07,.25-.17,.49-.25,.74-.14,.43-.44,.79-.64,1.2-.39,.8-.9,1.55-1.39,2.29-.43,.64-.81,1.3-1.26,1.92s-1.04,1.11-1.67,1.57-1.25,.85-1.92,1.2c-.63,.33-1.31,.58-1.97,.85s-1.37,.43-2.07,.53c-.55,.08-1.11,.09-1.66,.12-.63,.03-1.24,.08-1.87,.07-1.12-.02-2.24-.14-3.35-.28s-2.21-.32-3.3-.65c-.75-.22-1.5-.44-2.2-.78-.64-.3-1.23-.61-1.82-.99-.24-.15-.47-.31-.69-.49-.27-.21-.59-.36-.83-.6-.31-.3-.6-.63-.94-.9-.2-.16-.37-.34-.58-.48-.28-.19-.56-.38-.84-.56-.2-.13-.38-.29-.6-.39-.18-.09-.39-.14-.56-.23-.57-.3-1.16-.49-1.81-.39,.14-.12,.37-.18,.56-.2,.35-.02,.79-.02,1.13,.1,.26,.09,.51,.23,.75,.36,.26,.14,.52,.24,.76,.41,.39,.29,.79,.55,1.17,.85,.27,.21,.53,.43,.77,.68s.44,.45,.73,.64,.52,.41,.79,.61c.35,.27,.68,.52,1.06,.76,.31,.19,.68,.32,1.01,.5,.36,.19,.81,.3,1.2,.41,.55,.16,1.09,.31,1.66,.39,1,.14,1.98,.37,2.99,.48,.35,.03,.69,.02,1.04,.05,.45,.03,.91,.09,1.37,.09,.48,0,.96,0,1.44,.02,.44,0,.89-.07,1.33-.12,.39-.04,.75-.19,1.14-.26,.43-.08,.89-.1,1.3-.24,.83-.27,1.68-.53,2.45-.93,.35-.18,.66-.42,1-.63,.38-.23,.82-.42,1.15-.71,.52-.45,1.03-.94,1.48-1.46s.86-1.07,1.22-1.67c.18-.3,.35-.6,.53-.91,.16-.28,.34-.55,.5-.83,.09-.17,.21-.3,.33-.44,.09-.1,.13-.22,.22-.32,.13-.16,.27-.32,.39-.49,.19-.27,.4-.55,.54-.84s.23-.57,.33-.87c.07-.2,.07-.39,.14-.72Z"/><path class="e" d="M92.91,81.17c-.27-.16-.55-.29-.75-.51-.06-.07-.12-.14-.18-.2-.15-.14-.26-.3-.36-.47-.26-.47-.55-.91-.78-1.39-.13-.28-.27-.53-.46-.79-.2-.28-.39-.59-.61-.85-.6-.68-1.39-1.22-1.93-1.95-.36-.48-.75-.93-1.14-1.38-.5-.58-1.08-1.09-1.65-1.61-.73-.66-1.56-1.34-2.43-1.82-.4-.22-.76-.5-1.18-.68-.45-.2-.9-.4-1.38-.54-.32-.09-.64-.17-.97-.24-.47-.11-.96-.25-1.45-.27-.56-.03-1.09-.11-1.65-.1-.5,0-.98,.09-1.48,.14s-.96,.17-1.45,.26-.97,.2-1.44,.4c-.43,.18-.85,.32-1.25,.56-.36,.22-.7,.46-1.03,.71s-.65,.46-.94,.73-.54,.52-.81,.79c-.59,.57-1.13,1.15-1.63,1.79-.18,.23-.37,.44-.55,.66-.25,.33-.57,.58-.8,.93-.37,.57-.77,1.11-1.1,1.7-.72,1.26-1.42,2.54-2.01,3.86-.17,.37-.38,.72-.54,1.1s-.37,.76-.52,1.15-.35,.78-.56,1.15c-.14,.23-.29,.51-.47,.72,.02-.22,.19-.46,.28-.67,.17-.39,.27-.79,.45-1.17,.44-.97,.68-2.01,1.1-2.99,.2-.46,.37-.93,.59-1.37,.27-.56,.48-1.13,.78-1.68,.31-.58,.58-1.17,.91-1.74,.4-.69,.88-1.34,1.36-1.98,.24-.32,.54-.6,.8-.9,.25-.28,.48-.58,.75-.84,.61-.59,1.34-1.04,2.01-1.57,.3-.24,.63-.41,.95-.62,.28-.18,.54-.39,.82-.57,.66-.42,1.41-.73,2.16-.98,.32-.11,.67-.19,1-.27,.29-.06,.56-.17,.85-.23,.78-.17,1.61-.14,2.4-.1,.7,.03,1.42,.07,2.11,.19,.62,.1,1.26,.34,1.86,.53,.47,.14,.87,.41,1.29,.65,.45,.25,.9,.54,1.31,.84,.37,.26,.76,.51,1.11,.8s.68,.62,1.03,.92c.39,.32,.78,.65,1.13,1.01,.25,.26,.45,.57,.71,.82,.2,.2,.38,.37,.56,.59,.27,.34,.55,.67,.77,1.04,.25,.43,.53,.85,.83,1.25,.21,.27,.46,.48,.69,.74,.18,.2,.34,.41,.52,.61,.24,.28,.45,.56,.6,.89,.17,.39,.45,.71,.62,1.11,.14,.32,.17,.71,.38,1,.16,.21,.36,.41,.57,.58,.07,.06,.15,.13,.23,.18,.09,.06,.19,.07,.29,.12-.06,.1-.16,.02-.24,.02-.09,0-.19,.05-.1,0Z"/><path class="e" d="M97.63,72.43c-.62,.17-1.23,.35-1.86,.5-.3,.08-.55,.24-.84,.35-.32,.12-.57,.27-.86,.44-.2,.12-.37,.26-.6,.32s-.7,.09-.74-.2c-.06-.4,.43-.74,.75-.92,.53-.29,1.11-.56,1.72-.66,.54-.09,1.13-.24,1.68-.21,.26,.02,.91,.06,.75,.38Z"/><path class="e" d="M93.87,66.09c-.76,.51-1.57,.95-2.34,1.45-.3,.2-.68,.41-1.05,.46-.12,.02-.28,.08-.36,.01-.08-.06-.07-.19-.06-.27,.06-.46,.59-.75,.95-1,.75-.51,1.55-1.13,2.54-1.07,.34,.02,.26,.24,.31,.41Z"/><path class="e" d="M87.42,60.36c-.44,.62-.95,1.18-1.44,1.77-.3,.36-.53,.83-.91,1.12-.12,.09-.51,.27-.61,.08-.05-.1,.06-.33,.1-.42,.09-.25,.28-.47,.43-.7,.24-.36,.54-.7,.84-1.01,.27-.29,.56-.61,.9-.84,.16-.1,.34-.18,.52-.11s.16,.12,.17,.11Z"/><path class="e" d="M76.85,58.31c-.1,.6-.22,1.21-.24,1.82-.01,.38,0,.77-.02,1.14-.01,.17,.06,.6-.21,.61-.03,0-.26-.04-.29-.06-.15-.07-.1-.33-.11-.49-.03-.57,0-1.14,.07-1.71,.04-.37,.04-.84,.27-1.17,.06-.09,.29-.3,.44-.25,.07,.02,.21,.21,.1,.1Z"/><path class="e" d="M69.97,63.19c.12-.26,.19-.52,.2-.8l-.07-.05c-.04-.07-.07-.11-.11-.18-.09-.19-.22-.36-.32-.54-.2-.36-.33-.74-.52-1.09-.12-.22-.21-.44-.46-.55-.23-.1-.34,.13-.34,.33,0,.16,.09,.35,.13,.5,.05,.18,.12,.37,.18,.55s.12,.4,.23,.57c.1,.15,.21,.28,.31,.44s.47,.95,.75,.81Z"/><path class="e" d="M65.72,66.33c-.02-.3-.09-.58-.21-.86-.16,0-.26-.11-.37-.2-.14-.13-.31-.24-.44-.39-.28-.34-.56-.67-.9-.98-.1-.09-.33-.35-.5-.3-.09,.03-.14,.21-.15,.29-.03,.16,.04,.33,.11,.48,.2,.37,.54,.65,.82,.96,.14,.16,.27,.31,.43,.45s.34,.22,.5,.35c.12,.1,.33,.27,.5,.26,.24,0,.25-.31,.19-.07Z"/><path class="e" d="M62.3,69.74c.14-.3,.34-.55,.06-.79-.13-.11-.28-.16-.41-.25-.32-.2-.58-.48-.84-.73-.16-.15-.91-.77-1-.21-.06,.39,.29,.72,.54,.99,.28,.29,.56,.59,.97,.73,.32,.11,.74,.08,.68,.26Z"/><path class="e" d="M89.62,79.08c-.27-.37-.62-.76-.82-1.16-.07-.14-.12-.26-.22-.4-.18-.23-.4-.43-.6-.64-.42-.44-.79-.91-1.18-1.37-.28-.34-.65-.62-.95-.95-.33-.37-.63-.75-.96-1.12-.45-.5-.93-.98-1.42-1.44-.64-.59-1.4-1.04-2.17-1.45-.73-.39-1.37-.81-2.18-1.05-.47-.13-.93-.26-1.42-.29-.32-.02-.65-.08-.97-.06-.3,.02-.57-.05-.86-.03-1.21,.08-2.33,.28-3.46,.69-1.32,.47-2.45,1.29-3.53,2.1-2.09,1.56-3.63,3.64-4.91,5.81-.57,.97-1.01,2.02-1.5,3.03-.32,.66-.77,1.34-.79,2.09-.02,.7,.57,1.57,1.09,2.04,.21,.19,.38,.42,.61,.59,.21,.16,.46,.29,.66,.46,.51,.41,.95,.91,1.48,1.29,.22,.16,.4,.33,.63,.47,.29,.18,.48,.45,.75,.66s.54,.39,.83,.54c.24,.13,.53,.19,.76,.32,.09,.05,.12,.12,.23,.16s.2,.05,.31,.11c.2,.1,.38,.12,.6,.17,.84,.19,1.57,.6,2.38,.84,1.41,.42,2.96,.48,4.42,.44,.63-.02,1.24-.13,1.86-.2,.49-.06,.96-.08,1.43-.2,1.26-.32,2.59-.72,3.66-1.46,.36-.25,.8-.57,1.08-.9s.62-.65,.92-.99c.67-.76,1.4-1.48,1.93-2.34,.42-.67,1.01-1.31,1.32-2.04,.21-.49,.55-.9,.8-1.38,.15-.29,.21-.66,.22-.98,0-.3,.11-.6,.09-.9-.02-.23-.05-.41-.1-.48Z"/><path class="f" d="M75.27,70.06c-.8-.03-1.59-.12-2.36,.1-.42,.12-.78,.33-1.15,.55-.78,.47-1.6,.88-2.18,1.58s-1.23,1.37-1.62,2.19c-.33,.71-.6,1.45-.79,2.21-.18,.7-.22,1.45-.29,2.17-.06,.67-.07,1.45,.06,2.11,.14,.75,.4,1.49,.62,2.22,.1,.32,.23,.66,.39,.95,.19,.35,.3,.73,.53,1.07,.47,.69,1.12,1.16,1.76,1.71,.57,.49,1.3,.7,2.03,.9,1.55,.43,3.27,.21,4.7-.47,.91-.44,1.94-.92,2.63-1.64,.36-.38,.74-.73,.97-1.19,.29-.57,.47-1.13,.59-1.75,.25-1.25,.2-2.54,.16-3.8-.03-1.1-.04-2.36-.47-3.41s-.76-2.16-1.44-3.05c-.52-.68-1.08-1.26-1.82-1.73-.45-.29-.94-.65-1.5-.7-.2-.02-.85,.13-.83-.06Z"/><path class="e" d="M74.06,70.65c-.96,.27-1.86,.44-2.65,1.01-.27,.2-.59,.35-.85,.56-.63,.51-1.13,1.1-1.58,1.76s-.87,1.33-1.02,2.08c-.11,.58-.23,1.15-.32,1.73-.17,1.17,.05,2.44,.27,3.6,.19,.98,.4,1.95,.91,2.83,.29,.5,.71,.97,1.18,1.34s.96,.81,1.5,1.09,1.18,.51,1.81,.52c.38,0,.73,.08,1.11,.05s.78-.06,1.16-.2c.83-.32,1.58-.61,2.27-1.16,.4-.31,.79-.57,1.09-.98,.31-.44,.55-.86,.79-1.34,.26-.52,.4-1.08,.49-1.64,.1-.63,.23-1.2,.2-1.84-.05-1.22,.06-2.48-.19-3.7-.11-.51-.26-1.01-.42-1.5-.19-.55-.58-.94-.89-1.42-.46-.7-.84-1.37-1.54-1.9-.47-.36-.97-.65-1.55-.8-.39-.1-.84-.09-1.23-.11-.24-.01-.5,0-.53,0Z"/><path class="f" d="M74.7,71.89c-.61,.12-1.28,.14-1.74,.53-.11,.09-.24,.21-.34,.3-.19,.19-.34,.44-.49,.66-.17,.24-.32,.48-.45,.74-.17,.36-.26,.74-.42,1.1-.15,.31-.22,.6-.3,.93-.06,.26-.18,.5-.24,.76-.1,.5-.19,1.01-.26,1.51-.13,.86-.03,1.93,.18,2.78,.23,.94,.58,1.76,1.13,2.57s1.47,1.36,2.48,.96c.6-.24,1.1-.69,1.45-1.19,.48-.69,.89-1.44,1.11-2.24s.48-1.62,.39-2.49-.04-1.8-.14-2.7c-.08-.71-.3-1.45-.56-2.11-.21-.52-.46-.99-.85-1.4-.36-.38-.61-.69-.94-.71Z"/><path d="M76.43,72.34c.31,.37,.91,.94,1.12,1.44,.07,.16,.12,.34,.19,.5,.17,.39,.35,.77,.51,1.17,.27,.69,.46,1.45,.57,2.18,.29,1.8,.03,3.67-.56,5.39-.26,.78-.55,1.7-1.29,2.2-.36,.24-.76,.32-1.14,.51-.35,.18-.64,.36-1.04,.44-1.57,.28-3.15-.45-4.24-1.46,.16,.6,.94,.99,1.48,1.23,.63,.28,1.26,.5,1.98,.56,.37,.03,.72,.03,1.09,0,.45-.04,.82-.25,1.21-.46,.8-.42,1.23-1.02,1.79-1.66,.91-1.05,1.41-2.34,1.51-3.69s.05-2.79-.31-4.13c-.25-.97-.58-2.01-1.28-2.8-.23-.26-.5-.51-.75-.74-.12-.11-.27-.2-.4-.3-.09-.08-.18-.19-.46-.37Z"/><path class="d" d="M74.65,72.98c-.39,.03-.72,.17-.99,.41,.08,.24-.05,.37,.13,.58,.09,.1,.21,.21,.34,.25,.24,.06,.55-.04,.67-.23,.14-.22,.14-.85-.15-1Z"/><path class="d" d="M73.6,75.34c-.15-.33-.34-.63-.58-.9-.06,.14-.25,.27-.33,.42-.1,.17-.14,.33-.2,.51-.11,.36-.13,.73-.1,1.1,.03,.3,.05,.81,.41,.96s.71-.04,.87-.33c.11-.19,.13-.47,.2-.68,.08-.24,.07-.42,.04-.66-.03-.31-.01-.65-.15-.94-.1-.2-.18-.39-.42-.44-.23-.05-.48,.06,.27,.96Z"/><path d="M153.93,191.46c.7-2.38,1.32-4.74,1.37-7.23,.04-2.03,.24-4.06,.06-6.09-.23-2.62-.65-5.21-1.03-7.82-.37-2.54-.88-5.03-1.55-7.5-.17-.63-.48-1.21-.64-1.83-.13-.51-.16-1.04-.23-1.56-.21-1.49-.49-2.9-.9-4.37-.38-1.36-.64-2.75-1.04-4.11s-.88-2.87-1.21-4.31c-.68-2.99-1.37-5.97-1.97-8.98s-1.29-6.15-2.1-9.19c-.32-1.21-.6-2.44-.95-3.65-.32-1.13-.55-2.26-.83-3.4-.21-.85-.54-1.63-.84-2.45s-.49-1.55-1.04-2.24c-.93-1.17-3.08-1.32-4.02-.08-.85,1.12-1.37,2.66-1.87,3.94-.75,1.92-.74,3.98-.57,6,.15,1.7,.43,3.43,.75,5.1,.16,.81,.38,1.55,.58,2.33s.25,1.58,.44,2.35c.36,1.5,.47,3.04,.5,4.58,.04,2.42,.02,4.86-.1,7.28-.11,2.11-.35,4.31-1,6.32-.83,2.59-1.41,5.18-1.74,7.87-.54,4.42-1.15,8.84-1.34,13.29-.06,1.41,.02,2.83,.09,4.24,.06,1.28-.02,2.58,.07,3.86,.14,2.02,.47,4.21,1.25,6.1,.38,.93,.86,1.82,1.31,2.72,.25,.5,.46,1.01,.71,1.51,.3,.59,.71,1.05,1.08,1.58,.63,.9,1.66,1.31,2.66,1.78,1.17,.55,2.43,.79,3.71,1.01,1.91,.32,4.38,.2,6.02-.92,.97-.66,1.77-1.54,2.59-2.36,.69-.69,1.32-1.72,1.43-2.69,.03-.29-.01-1.12,.33-1.06Z"/><path class="d" d="M134.89,128.97c.22,2.1,.29,5.11,.9,7.14,.43,1.44,.11,3.01,.22,4.51,.06,.84,.25,1.69,.27,2.53,.03,1.14-.02,2.27-.09,3.41-.05,.88-.24,1.75-.46,2.6-.2,.81-.23,1.61-.35,2.42-.23,1.53-.43,3.19-.96,4.65-.5,1.37-.59,2.81-.94,4.21-.32,1.25-.69,2.55-.84,3.84-.19,1.66-.45,3.31-.48,4.99-.03,1.8-.29,3.58-.33,5.38-.02,.82,0,1.63,.05,2.45,.03,.47-.02,.92,.04,1.39s.16,.94,.2,1.41c.12,1.28,.09,2.61,.33,3.87,.3,1.56,.33,3.14,.57,4.71,.09,.6,.32,1.17,.46,1.76,.22,.88,.4,1.77,.68,2.63,.46,1.37,1.22,2.77,2.13,3.9,.53,.65,1.04,1.15,1.78,1.59,.68,.4,1.36,.66,2.1,.93,1.55,.57,3.19,.77,4.84,.81,1.34,.03,2.63-.41,3.72-1.16,.55-.38,1.11-.69,1.64-1.11,.56-.44,1.12-.88,1.68-1.32,.5-.39,.87-.67,1.14-1.21,.12-.23,.32-.42,.45-.65,.18-.33,.37-.64,.56-.96,.15-.26,.24-.54,.39-.8s.34-.47,.47-.72,.18-.53,.28-.79c.17-.41,.35-.75,.46-1.19,.21-.84,.31-1.71,.32-2.58,0-.44-.04-.88,.03-1.32,.08-.53,.18-1,.18-1.54s-.06-1.08,.01-1.6,.23-.95,.23-1.47c0-1.12-.33-2.23-.4-3.35-.05-.85-.2-1.67-.25-2.52-.02-.35-.12-.67-.17-1.02-.06-.45-.02-.92-.07-1.37-.09-.83-.11-1.68-.36-2.48-.11-.36-.14-.71-.2-1.08-.08-.51-.28-1.01-.42-1.51-.46-1.66-.52-3.38-.95-5.05-.22-.83-.51-1.65-.59-2.5s-.32-1.8-.54-2.64c-.21-.79-.6-1.54-.84-2.32-.27-.87-.42-1.76-.66-2.64-.22-.79-.36-1.59-.62-2.37-.15-.43-.31-.83-.43-1.28-.11-.41-.17-.84-.32-1.24-.27-.75-.5-1.44-.65-2.22-.13-.72-.28-1.43-.42-2.15-.16-.86-.39-1.71-.56-2.57-.19-.96-.25-1.94-.47-2.89-.16-.68-.46-1.4-.7-2.06-.29-.79-.58-1.57-.75-2.39-.26-1.26-.56-2.52-.95-3.75s-.76-2.48-.98-3.78c-.3-1.76-.54-3.53-.99-5.26-.16-.63-.26-1.21-.54-1.79-.19-.39-.36-.79-.59-1.14-.2-.3-.46-.86-.75-1.05,.16,.23,.22,.81,.33,1.07,.2,.44,.38,.91,.5,1.37,.22,.88,.43,1.75,.68,2.62,.31,1.07,.16,2.2,.28,3.29s.23,2.22,.51,3.28c.3,1.14,.4,2.28,.66,3.43,.31,1.39,.81,2.74,1.16,4.13,.36,1.46,.75,2.92,1.04,4.4,.13,.67,.37,1.3,.52,1.97,.17,.71,.23,1.44,.39,2.15,.62,2.88,1.6,5.66,2.13,8.56,.14,.76,.34,1.49,.51,2.24,.2,.87,.28,1.72,.63,2.55,.23,.54,.4,1.11,.61,1.66,.27,.7,.64,1.41,.81,2.13,.87,3.68,1.41,7.45,2.13,11.17,.16,.84,.27,1.7,.32,2.55,.06,1.07,.27,2.14,.39,3.21,.11,.95,.09,1.93,.12,2.88,.03,.87,.02,1.77-.07,2.64-.07,.74-.21,1.41-.41,2.13s-.25,1.44-.36,2.19c-.09,.6-.3,1.23-.52,1.8s-.4,1.14-.64,1.68c-.46,1.03-1.12,1.93-1.91,2.75-.43,.45-.96,.78-1.43,1.18-.57,.49-1.09,.9-1.79,1.22-1.1,.5-2.36,.88-3.58,.85-1.1-.03-2.14-.16-3.22-.38-1.2-.24-2.26-1.07-3.22-1.78-.45-.34-.94-.73-1.32-1.15-.47-.52-.71-1.09-.98-1.72-.29-.68-.54-1.43-.76-2.14s-.34-1.4-.46-2.14c-.22-1.33-.28-2.69-.44-4.03-.07-.57-.04-1.14-.08-1.71-.05-.73-.16-1.43-.25-2.16-.19-1.39-.33-2.75-.29-4.16,.02-.66-.09-1.33-.03-2,.07-.8,.23-1.59,.29-2.39,.13-1.87,.4-3.71,.72-5.55,.28-1.61,.6-3.19,.75-4.82s.59-3.07,.86-4.62c.12-.67,.11-1.38,.25-2.04,.16-.71,.42-1.4,.58-2.12,.27-1.25,.47-2.51,.67-3.77,.36-2.38,.26-4.75,.38-7.15,.06-1.09-.16-2.12-.3-3.17-.06-.44-.16-.86-.26-1.29-.14-.61-.21-1.24-.37-1.86-.25-.92-.32-1.76-.64-2.65-.26-.71-.35-1.58-.67-2.25-.13-.28-.6-1.95-.71-2.33Z"/><path class="h" d="M118.04,185.93c-.19,.23-1.67,1.78-1.73,2.45,0,.06,.04,.21,.04,.28,.02,.42-.07,.9-.19,1.3-.17,.56-.74,1.05-1.24,1.37-.87,.57-1.74,1.12-2.47,1.87-.95,.97-1.8,2.04-2.72,3.04-.84,.91-1.5,1.81-2.13,2.87-.35,.59-.65,1.2-1.01,1.78-.32,.51-.75,.95-1.1,1.43-.57,.77-1.13,1.97-2.26,1.94-1.35-.03-1.53-1.67-1.54-2.67-.01-1.38,.5-2.99,1.21-4.17,.6-1,1.7-2,1.78-3.21,.05-.75-.3-1.3-1.07-1.42-.44-.07-.9-.2-1.33-.05-.64,.21-1.36,.7-1.85,1.12-.72,.62-1.43,1.21-2.06,1.91-.58,.65-1.26,1.38-1.95,1.9-.66,.5-1.31,1.04-2.04,1.44-.68,.37-1.53,.47-2.27,.69-.43,.13-1.06,.43-1.52,.27-.36-.13-.69-.63-.81-.95-.23-.6-.02-1.16,.22-1.73,.4-.99,1.05-1.97,1.78-2.76,1.09-1.18,2.34-2.41,3.87-3,1.25-.48,2.57-.74,3.78-1.33,.69-.33,1.86-.97,1.61-1.9-.14-.52-.7-.82-1.22-.85-1.14-.07-2.11,.82-3.09,1.26-1.66,.75-3.36,.8-5.1,1.22-.7,.17-1.48,.41-2.21,.44-.79,.03-1.02-.31-1.09-1.03-.17-1.66,.92-3.13,2.32-4.01,1.63-1.02,3.52-1.08,5.39-1.26,1.55-.15,3.17-.26,4.74-.22,1.57,.03,3.12,.21,4.69,.3,1.59,.1,3.3,.11,4.87-.14,.81-.13,2.21-.64,2.5-1.45,.12-.34,.19-.54,.12-.87-.1-.49-.02-.79,.21-1.29,.38-.83,.58-1.91,1.18-2.64,.23-.28,.57-.25,.79-.56,.35-.48,.58-1.17,.7-1.74,.19-.94,.75-1.78,1.01-2.7,.18-.66,.58-1.23,.78-1.88,.25-.77,.37-1.56,.66-2.33,.53-1.44,1.01-2.9,1.53-4.34,.2-.55,.29-1.12,.49-1.68,.35-1,.75-2.01,1.04-3.03,.21-.73,.25-1.49,.4-2.23,.21-1.02,.43-2.03,.65-3.05s.65-1.98,1.05-2.97c.43-1.07,.81-2.16,1.15-3.26,.47-1.52,.76-3.1,1.31-4.6,.78-2.11,1.62-4.16,2.2-6.33,.21-.77,.38-1.57,.49-2.35,.16-1.05,.42-2.08,.55-3.14,.12-.9,.17-1.77,.39-2.66,.27-1.06,.52-2.12,.73-3.19,.49-2.57,.51-5.31,1.48-7.78,.49-1.26,1.38-2.2,2.44-3.02s1.7-1.2,3.12-1.35c1.09-.12,1.98,.13,2.62,1.07,.94,1.39,1.22,2.32,1.53,3.96,.55,2.92,0,5.5-.08,8.39-.05,1.91-.14,3.81,0,5.72,.12,1.59,.11,3.21-.16,4.78-.15,.87-.37,1.72-.56,2.58-.25,1.16-.64,2.32-.81,3.48-.16,1.06-.44,2.03-.7,3.07s-.54,2.07-.92,3.09c-.67,1.76-1.32,3.53-2.08,5.25-.23,.54-.56,1.04-.82,1.56-.39,.77-.81,1.53-1.33,2.23-.57,.77-1.05,1.6-1.55,2.41-.6,.97-1.25,1.9-1.94,2.81-.64,.84-1.38,1.65-1.93,2.56-.51,.84-1.04,1.64-1.62,2.44s-1.02,1.67-1.54,2.51c-.36,.58-.73,1.15-1.1,1.72-.39,.61-.68,1.23-1.04,1.84-.42,.7-.89,1.37-1.21,2.12-.35,.82-.73,1.63-1.13,2.42-.15,.3-.39,.55-.25,.88,.06,.14,.21,.2,.25,.36,.07,.24-.03,.57-.08,.81-.27,1.18-1.1,2.31-1.79,3.29-.23,.32-.65,.79-1.04,.92-.5,.16-.84-.15-1.23,.24s-.44,.84-.53,1.33c-.06,.29-.25,.9,1.77-1.63Z"/><path class="d" d="M138.94,113.41c-.55-.17-1.24-.34-1.92-.24-.1,.01-.79,.16-.85,.2-.27,.18-.58,.38-.85,.59-.46,.35-.88,.71-1.33,1.08-.83,.68-1.38,1.32-1.91,2.24-.4,.69-.53,1.42-.82,2.15-.43,1.1-.42,2.24-.7,3.39-.59,2.46-1,4.99-1.49,7.47-.51,2.62-1.03,5.22-1.72,7.8-.42,1.57-.86,3.12-1.3,4.69s-.8,3.01-1.33,4.46c-.62,1.71-1.23,3.44-1.82,5.16-.52,1.51-.91,3.06-1.47,4.56-.69,1.86-1.23,3.8-1.88,5.65-.12,.34-.33,.65-.41,1.01-.07,.31-.12,.62-.22,.93-.24,.79-.47,1.58-.71,2.37-.72,2.45-1.51,4.88-2.29,7.29-.16,.5-.27,1.02-.46,1.5-.17,.43-.43,.85-.56,1.29v.16c-.09,.01-.11,.07-.08,.16-.39-.08-.99,.57-1.19,.86-.29,.43-.17,.99-.35,1.45-.15,.39-.18,.82-.39,1.18-.26,.45-.36,.82-.41,1.33-.08,.89-.26,1.73,.57,2.33,.39,.29,.9,.49,1.31,.74s.95,.51,1.43,.65c.42,.12,.8,.19,1.21,.37,.47,.21,.74,.31,1.15-.06,.25-.23,.48-.57,.73-.84,.27-.28,.4-.52,.59-.81,.41-.61,.99-1.13,1.2-1.85,.15-.51,.47-1.1,.4-1.65-.06-.46-.34-.68-.11-1.11,.19-.36,.32-.74,.53-1.11,.32-.58,.62-1.13,.92-1.73,.36-.73,.85-1.36,1.3-2.04,.93-1.36,1.76-2.81,2.48-4.29,.37-.75,.91-1.4,1.3-2.13,.42-.8,.8-1.67,1.34-2.4,.85-1.15,1.8-2.25,2.6-3.43s1.51-2.39,2.41-3.47c.54-.64,.87-1.33,1.29-2.04,.89-1.5,1.44-3.13,2.16-4.72,.39-.84,.76-1.68,1.13-2.53,.41-.92,.63-1.91,.99-2.85,.41-1.04,.72-2.07,.94-3.15,.2-.95,.6-1.92,.71-2.88,.1-.85,.49-1.67,.5-2.53,0-.69,.03-1.4,.13-2.08,.17-1.18,.18-2.24,.1-3.43s-.17-2.29-.16-3.46c0-.95-.08-1.91-.08-2.86,0-.54-.03-1.04,.1-1.56,.1-.42,.42-1.07,.31-1.5-.06-.22-.26-.39-.53-.31-.24,.07-.31,.38-.4,.6-.22,.57-.25,1.08-.32,1.68-.42,3.15-.05,6.31-.04,9.46,0,1.72-.43,3.5-.72,5.19-.13,.73-.29,1.46-.46,2.18-.24,1.02-.45,2.05-.75,3.05-.5,1.65-.97,3.21-1.77,4.75-.44,.84-.84,1.69-1.24,2.55-.42,.92-.75,1.9-1.25,2.78-.9,1.58-1.68,3.2-2.65,4.74-.52,.82-1.25,1.46-1.86,2.21-.68,.84-1.28,1.74-1.95,2.58-1.59,1.98-2.51,4.43-3.77,6.62-.58,1.01-1.09,2.09-1.73,3.06-.52,.78-.81,1.62-1.22,2.44s-1.05,1.69-2.04,1.81-2.11-.37-2.9-.88c-.95-.62-.37-1.98,.02-2.81,.86-1.82,1.77-3.72,2.26-5.69,.54-2.17,1.12-4.33,1.88-6.45,.51-1.41,.97-2.83,1.5-4.23,.25-.66,.4-1.34,.6-2.01,.25-.84,.7-1.62,.94-2.45s.55-1.69,.85-2.53,.58-1.71,.91-2.55c.27-.68,.48-1.38,.73-2.07,.15-.42,.19-.88,.38-1.29,.16-.36,.31-.68,.42-1.07,.5-1.68,1.19-3.26,1.53-4.98,.26-1.31,.47-2.62,.85-3.9,.19-.66,.36-1.33,.54-1.99,.09-.36,.15-.74,.26-1.09,.13-.43,.32-.72,.35-1.17,.04-.63,.29-1.26,.37-1.9,.08-.67,.19-1.3,.31-1.96,.2-1.07,.32-2.17,.53-3.25,.14-.74,.16-1.46,.25-2.2,.28-2.34,.77-4.8,2.75-6.39,.91-.73,1.65-1.69,2.8-2.02,1.01-.29,1.84,.17,2.57,.95,.52,.55,.99,1.54,1.15,2.49,.03-.69-.18-1.96-.42-2.55-.16-.39-.5-.8-.81-1.07-.22-.19-.52-.39-.92-.65Z"/><path class="d" d="M111.56,184.79c-.62,.34-.86,.36-1.55,.56-.27,.03-.96,.19-1.26,.19-.49,0-.94,0-1.42-.08-.62-.09-1.26-.25-1.86-.44s-1.12-.31-1.74-.42c-1.43-.28-2.93-.16-4.39-.16s-3.06-.08-4.45,.16c-1.61,.28-3.17,.85-4.43,1.88-.76,.61-2.14,1.99-1.25,3.15,.51,.66,2.24,.07,2.98-.25,1-.43,1.7-.4,2.78-.59,.94-.17,2.04-.84,2.85-1.37,.63-.41,1.17-.56,1.92-.55,1.09,.02,2.33,.6,2.27,1.8-.04,.8-.89,1.35-1.44,1.83-.67,.58-1.83,.93-2.68,1.2-.85,.26-1.69,.53-2.53,.82-.72,.24-1.2,.59-1.74,1.09-.89,.83-2,1.57-2.55,2.68-.25,.51-.48,1.01-.6,1.56s-.39,1.15,.26,1.34c1.29,.37,2.92-.15,3.94-.94,.47-.36,.97-.66,1.37-1.09,.23-.25,.56-.35,.8-.57,.3-.27,.58-.63,.88-.92,.41-.41,.84-.79,1.23-1.19,.47-.48,.96-.75,1.49-1.15,.28-.21,.48-.46,.79-.64,.35-.21,.77-.41,1.16-.53,.56-.17,1.57-.34,2.17-.18,.41,.11,.8,.63,.94,.98,.25,.66,.07,1.2-.18,1.82-.3,.76-.64,1.26-1.15,1.9-.47,.59-.88,1.19-1.14,1.88-.21,.57-.52,1.11-.65,1.71-.15,.65-.14,1.37-.14,2.04s.24,1.02,.93,1.04c.29,0,.6,.04,.86-.07,.52-.23,.96-.99,1.16-1.47,.23-.57,.76-1.29,1.13-1.78,.46-.61,.39-1.08,.85-1.69,.77-1,1.36-1.87,2.17-2.85,.41-.5,.77-.85,1.19-1.33s.72-.74,1.19-1.12c.3-.24,.58-.56,.9-.79,.41-.28,.88-.62,1.33-.85,.8-.41,1.24-.91,1.56-1.7,.23-.56,.34-1.62,.57-2.19,.27-.66,.51-.91,.77-1.31,.38-.6,.7-.42,.64,.22-.05,.48-.84,.95-.97,1.43s.04,1.26-.12,1.73c-.2,.6-.63,.99-1.07,1.47-.55,.61-1.26,1.1-1.94,1.56s-1.28,.9-1.8,1.56c-.6,.76-1.31,1.42-1.95,2.14-1.15,1.28-2.58,3.73-2.72,4.01-.18,.38-1.04,1.77-1.26,2.12-.35,.57-.73,1.1-1.32,1.49-.74,.49-1.62,.56-2.34,.04-.39-.28-.51-1.01-.56-1.47-.06-.55-.07-1.09-.08-1.65,0-1.31,.64-2.52,1.39-3.6,.4-.58,.84-1.07,1.16-1.71,.25-.52,.66-1.12,.54-1.68-.24-1.06-.34-1.2-1.41-1.13-1.27,.08-1.99,1.14-2.84,1.87-.49,.42-1.02,.8-1.51,1.22-.57,.49-1.3,1.06-1.77,1.64-.72,.87-1.91,1.67-2.97,2.14-.93,.42-2.18,.63-3.22,.44-1.17-.22-1.08-1.94-.89-2.79,.13-.56,.47-1.18,.85-1.62,.63-.7,1.19-1.39,1.92-2.01,.47-.4,.95-.8,1.47-1.15,.49-.33,1-.72,1.57-.91s1.19-.33,1.78-.53c.73-.24,1.39-.65,2.1-.95,.83-.36,1.48-.9,1.16-1.92-.18-.56-.76-.62-1.25-.56-.66,.09-1.38,.58-1.97,.86-1.28,.6-2.6,1.18-4.06,1.33-.44,.05-.8,.15-1.22,.31-.66,.25-1.15,.39-1.85,.39-.47,0-1.21,.17-1.58-.11-.34-.26-.46-.86-.51-1.26-.06-.46-.02-.91,.24-1.3,.39-.58,.8-1.26,1.33-1.72,1.26-1.1,2.39-1.38,3.99-1.79,2.8-.72,6.31-.81,9.19-.55,1.52,.14,3.05,.46,4.58,.53,.44,.02,.85,.03,1.28,0,.5-.03,1-.09,1.49-.16,.41-.06,.42-.17,.94-.42,.34-.17,.68-.75,1.13-.84,.58-.12,.36,.71,.22,.98-.13,.24-.28,.39-.47,.6-.02,.03-.38,.25-.59,.33Z"/><path class="d" d="M93.48,196.35c-.69,.06-1.37,.18-2.04,.36-.04,.36-.25,.71-.09,1.09,.11,.27,.58,.52,.85,.59,.38,.09,.89-.1,1.19-.32,.42-.31,.42-.59,.42-1.06,0-.77-.48-1.07-1.27-1.06-.33,0-.67,.14-.88,.39-.14,.16-.37,.81,1.83,0Z"/><path class="d" d="M91.57,187.07c-.18-.05-.53-.2-.71-.12-.09,.04-.18,.13-.26,.18-.15,.1-.34,.17-.46,.31-.24,.29-.32,.69-.32,1.05,0,.21,.08,.32,.22,.48s.26,.24,.48,.3c.18,.05,.34,.09,.52,.04,.2-.06,.42-.17,.57-.31,.13-.12,.27-.24,.37-.39,.08-.14,.1-.27,.12-.43,.03-.23,.1-.47-.06-.68-.09-.12-.22-.21-.31-.33-.04-.06-.05-.06-.12-.09-.04-.02-.07-.06-.03-.03Z"/><path class="d" d="M104.23,200.39c-.29-.08-.58-.11-.87-.06-.05,.06-.1,.11-.15,.17-.06,.08-.12,.18-.17,.27-.15,.28-.19,.55-.18,.87,0,.23,.16,.44,.38,.53,.31,.12,.62-.02,.88-.16,.39-.21,.65-.83,.43-1.23-.09-.16-.35-.5-.31-.38Z"/><path class="j" d="M134.27,92.99c-1.4-.31-3.63-1.13-5.11-.3-.91,.51-1.5,1.65-2.15,2.42-1.45,1.73-1.65,4.12-1.62,6.25,.01,.95-.14,1.89-.2,2.83-.06,1.06-.08,2.12-.08,3.18,0,1.46,0,2.93-.23,4.38s-.25,2.84-.82,4.24c-.2,.49-.43,.81-.76,1.23-.16,.2-.36,.38-.53,.58-.26,.3-.37,.61-.55,.95-.28,.54-.53,.98-.67,1.58-.16,.71-.14,1.43-.04,2.15,.19,1.41,.92,2.59,1.88,3.66,1.44,1.62,3.65,2.41,5.71,1.28,1.12-.61,1.79-1.84,2.44-2.87,.82-1.3,1.14-2.92,1.49-4.37s.75-3.13,1.38-4.55c.37-.83,.67-1.68,1.04-2.51,.34-.78,.7-1.66,.9-2.49,.43-1.73,1.14-3.36,1.71-5.05,.39-1.17,.76-2.32,1.17-3.48,.46-1.31,.7-2.55,.43-3.93-.1-.51-.37-1.09-.61-1.56-.3-.57-.67-1.24-1.06-1.76-.57-.76-1.39-1.33-2.31-1.63-.34-.11-.63-.22-.99-.28-.24-.04-.68-.14-.42,.03Z"/><path class="d" d="M139.27,97.23c.18,.27,.46,.57,.48,.89,0,.11,.03,.21,.06,.32,.05,.21,.08,.43,.12,.64,.06,.34,.05,.66,.05,1,0,.42-.1,.83-.21,1.23-.08,.29-.14,.58-.21,.88-.07,.27-.08,.56-.16,.83-.11,.34-.22,.68-.34,1.02-.13,.39-.33,.76-.45,1.15-.22,.72-.5,1.41-.8,2.09-.17,.37-.28,.77-.43,1.15-.18,.46-.38,.92-.56,1.38-.17,.42-.24,.86-.36,1.29-.1,.34-.23,.68-.35,1.01-.23,.65-.43,1.31-.63,1.96-.17,.53-.47,1.01-.63,1.54-.08,.28-.22,.54-.31,.82-.07,.24-.2,.47-.3,.7-.09,.21-.21,.4-.27,.62-.08,.3-.13,.61-.19,.91-.26,1.39-.64,2.74-1.17,4.06-.22,.54-.48,1.06-.64,1.62-.05,.17-.14,.35-.22,.51-.1,.2-.21,.4-.31,.61s-.23,.38-.31,.58c-.15,.38-.34,.77-.65,1.08-.29,.29-.67,.5-1.05,.66-.15,.07-.31,.1-.46,.16-.16,.06-.31,.16-.47,.23-.33,.14-.74,.26-1.09,.34-.27,.06-.56,.08-.84,.05-.32-.04-.6-.15-.91-.2-.52-.09-1.01-.31-1.49-.51-.28-.12-.52-.25-.75-.44-.2-.17-.33-.37-.49-.58-.18-.24-.34-.48-.53-.71-.08-.1-.18-.19-.24-.3-.26-.47-.42-.99-.65-1.48-.31-.63-.45-1.29-.48-1.98-.05-.87,.02-1.8,.25-2.65,.19-.69,.61-1.33,.99-1.94,.21-.33,.45-.64,.62-.99,.2-.4,.38-.8,.56-1.21,.15-.36,.3-.71,.42-1.08,.17-.51,.15-1.02,.24-1.55,.08-.48,.14-.96,.24-1.43,.1-.51,.07-1.05,.07-1.56s.07-1.01,.08-1.51c.02-.61,0-1.22-.06-1.82-.03-.42-.17-.82-.25-1.23-.11-.57-.02-1.16-.06-1.74-.03-.42,.02-.84,.04-1.26,.03-.5,.1-1.01,.23-1.49,.11-.41,.22-.82,.3-1.23,.07-.35,.09-.7,.16-1.04s.15-.75,.28-1.09c.15-.37,.36-.72,.52-1.08,.24-.55,.5-1.09,.89-1.56,.27-.32,.56-.56,.91-.79,.2-.14,.49-.31,.74-.33,.04,.11-.02,.21-.07,.3-.11,.2-.25,.39-.37,.59-.29,.48-.67,.9-.95,1.39-.24,.41-.45,.8-.63,1.24-.2,.49-.4,.99-.54,1.5-.07,.27-.15,.54-.2,.81s-.15,.5-.18,.77c-.06,.55-.13,1.09-.18,1.64-.03,.43-.04,.86-.07,1.29s-.06,.93-.01,1.38c.05,.47,.09,.94,.16,1.41s.13,.93,.15,1.39c.03,.52,.12,1.05,.15,1.57,.04,.57,.07,1.14,.03,1.71-.06,.78-.2,1.56-.35,2.32-.07,.39-.19,.77-.3,1.15-.06,.2-.1,.41-.17,.61s-.14,.37-.19,.57c-.09,.41-.25,.8-.38,1.2-.12,.36-.32,.65-.49,.98-.16,.32-.33,.62-.52,.92-.15,.24-.37,.49-.45,.76-.16,.48-.36,.94-.51,1.42-.19,.59-.23,1.24-.17,1.86,.08,.74,.09,1.54,.46,2.22,.31,.55,.63,1.23,1.13,1.66,.26,.22,.55,.39,.86,.55,.23,.12,.42,.28,.69,.34,.31,.07,.62,.12,.94,.1s.66,.01,.98,0c.96-.05,1.86-.67,2.51-1.29,.17-.16,.35-.3,.5-.47,.19-.23,.33-.49,.49-.73,.13-.19,.26-.39,.38-.59,.17-.27,.35-.54,.49-.83,.26-.53,.51-1.05,.69-1.61,.1-.31,.19-.62,.33-.91,.15-.33,.2-.7,.27-1.05,.12-.61,.18-1.22,.41-1.81s.54-1.18,.77-1.79c.08-.21,.13-.42,.25-.62,.08-.13,.13-.26,.17-.41,.06-.22,.12-.44,.2-.66s.1-.44,.16-.66c.05-.19,.15-.36,.23-.55,.08-.19,.11-.4,.19-.59,.13-.34,.25-.69,.37-1.04,.08-.24,.2-.45,.3-.68,.09-.21,.14-.44,.22-.66,.16-.43,.35-.85,.48-1.3,.12-.4,.22-.79,.35-1.19,.12-.35,.24-.7,.36-1.05,.13-.39,.18-.8,.34-1.18s.3-.8,.47-1.2c.12-.28,.23-.56,.32-.85,.06-.18,.12-.35,.19-.53s.19-.32,.25-.48c.19-.5,.38-1.03,.49-1.55,.04-.2,.04-.39,.06-.59,.03-.31,.14-.6,.15-.92,.01-.42,.14-.85,.17-1.27,.01-.21-.05-.45-.12-.64-.05-.15-.14-.33-.15-.5,0,.01,0,.03-.03,.02Z"/><path d="M102.44,138.96c.48-.39,.95-.79,1.39-1.21-.23-.21-.07-.88-.11-1.18-.06-.48-.17-.97-.45-1.39-.37-.56-1-1.07-1.22-1.71s.26-.91,.57-1.42c.28-.44,.63-.84,.89-1.29,.31-.52,.56-1.06,.71-1.64,.1-.41,.11-.83,.12-1.25,0-.28-.04-.87,.15-1.13,.21-.27,.96-.26,1.29-.29,.43-.03,.9-.12,1.33-.04,.48,.09,.92,.37,1.43,.4,.75,.05,1.51,.01,2.26,.14,.31,.05,.62,.13,.94,.18,.86,.15,1.74,.32,2.55,.63,2.78,1.04,5.69,1.52,8.7,1.58,.82,.02,1.64-.02,2.46-.12,1.23-.15,2.26-.49,3.27-1.14,.84-.54,1.48-1.17,1.8-2.09s.5-2.07,.52-3.06c.04-2.1-1.92-3.38-3.71-4.31-1.35-.7-2.73-.77-4.26-.75-1.89,.02-3.7,.64-5.57,.83-1.28,.13-2.55,.22-3.83,.18-1.17-.04-2.34-.24-3.52-.24s-2.44-.01-3.66-.05c-1.44-.04-2.93,.41-4.29,.83-1.09,.33-2.22,.83-3.17,1.45-1.08,.7-2.03,1.53-3.07,2.28-.79,.57-1.53,1.19-2.3,1.79-.54,.42-1.16,.68-1.71,1.1-.69,.52-1.59,1.23-1.91,2.03-.29,.73,.04,1.67,.25,2.39,.27,.93,.44,1.91,.42,2.87,0,.47,.05,.94,.02,1.41s-.15,.93-.09,1.42c.13,1.12,1.53,.6,2.04,.03,.82-.91,1.08-2.34,1.04-3.5-.03-.79-.2-1.67-.07-2.45,.07-.4,.42-1.03,.94-.56,.44,.4,.19,.97,.1,1.44-.14,.75-.27,1.5-.45,2.24-.2,.8-.35,1.68-.3,2.5,.07,1.22,.21,2.63,1.14,3.57,.75,.75,1.91,.86,2.48-.13,.75-1.28-.04-3.01-.29-4.31-.22-1.12-.08-2.31,.32-3.38,.17-.47,.85-1.34,1.46-.77,.22,.2,.23,.78,.2,1.07-.06,.46-.28,.87-.46,1.29-.69,1.6-.18,3.62,1.41,4.54,.48,.28,1.02,.28,1.55,.46,.48,.17,.47,.61,1.01,.61s.71-.4-.3,.17Z"/><path class="d" d="M124.29,118.3c-.67,.02-1.31,.06-1.97,.12-.25,.02-.52,.02-.76,.08-.43,.11-.87,.18-1.3,.29-.34,.09-.64,.24-.98,.33-.28,.08-.59,.08-.88,.13-.38,.06-.75,.07-1.14,.08-.63,0-1.25,.13-1.89,.12-.48,0-.94,.03-1.42,.04s-.96-.04-1.42-.09c-.86-.08-1.72-.15-2.59-.22-.8-.07-1.62-.02-2.42-.08-.87-.06-1.78-.04-2.65,.07-.38,.05-.82,.09-1.2,.19s-.72,.22-1.08,.33-.74,.22-1.1,.34c-.3,.1-.59,.27-.87,.41-.55,.27-1.08,.61-1.56,.99-.97,.77-1.97,1.49-2.99,2.21-.58,.41-1.13,.85-1.7,1.27-.48,.34-.95,.7-1.39,1.09-.5,.44-.99,.88-1.48,1.34-.37,.35-.69,.77-.77,1.26-.04,.27-.06,.54-.03,.82,.03,.31,.14,.59,.19,.9,.09,.61,.13,1.21,.27,1.81,.07,.32,.08,.65,.09,.98,.01,.31,.04,.62,.01,.93s-.1,.59-.15,.88c-.04,.25-.15,.55-.12,.8,.04,.34,.44,.62,.77,.4,.41-.28,.71-.69,.88-1.12,.1-.25,.11-.52,.11-.79,0-.31,.03-.63,0-.94-.05-.57-.18-1.12-.2-1.69-.04-.77-.02-1.53,.47-2.19,.33-.44,.96-.6,1.51-.52,.59,.09,1.08,.56,1.18,1.11,.06,.29-.03,.65-.12,.93-.13,.43-.27,.86-.43,1.28-.41,1.11-.41,2.39-.34,3.55,.05,.82,.1,1.74,.32,2.53,.1,.36,.86,1.41,1.28,1.42,.76,.02,.6-1.36,.53-1.93-.06-.45-.18-.89-.29-1.33-.16-.6-.42-1.14-.47-1.76-.05-.58,0-1.12,.16-1.69,.15-.51,.46-.94,.75-1.38,.25-.39,.39-.38,.73-.71,.32-.31,.79-.94,1.24-.74,.83,.37,.14,1.45,.05,2.11-.15,1.08,.15,2.12,.37,3.21,.04,.21,.04,.48,.14,.68,.06,.12,.16,.29,.23,.4,.1,.15,.32,.34,.47,.44,.36,.24,.87,.67,1.2,.72,.56,.08,1.24,.16,1.42-.3,.25-.61-.23-1.71-.56-2.25-.2-.32-.26-.63-.47-.95-.14-.2-.14-.5-.25-.71-.15-.29-.1-.38-.2-.68-.06-.19,.13-.65,.2-.84,.1-.26,.21-.43,.41-.64,.41-.44,.62-.79,1.01-1.25,.45-.53,.49-1.27,.85-1.86,.19-.31,.28-.68,.44-1.01,.05-.11,.06-.23,.1-.34,.06-.16,.16-.26,.28-.39,.27-.29,.51-.52,.94-.58,.26-.03,.52-.02,.78,0,.43,.02,.84,.19,1.27,.21,.53,.03,1.05,.12,1.59,.12,.69,0,1.35,.17,2.04,.22s1.33,.27,2.01,.39c.35,.06,.63,.16,.97,.26,.4,.13,.84,.2,1.25,.31,.9,.23,1.82,.45,2.73,.63,.4,.08,.82,.04,1.21,.13,.62,.14,1.21,.3,1.85,.34s1.21-.09,1.82-.06c.41,.02,.77,.06,1.18,.03,.26-.02,.52,0,.77,0,.49-.02,1.04-.06,1.52-.15,.38-.07,.65-.27,.99-.45,.27-.14,.55-.29,.83-.39,.12-.04,.26-.11,.37-.04,.31,.19-.06,.55-.22,.69-.36,.32-.82,.48-1.28,.65-.31,.11-.58,.27-.9,.37-.4,.12-.79,.19-1.21,.2-.24,.01-.47,0-.71,.03s-.46,.09-.71,.08c-.56-.03-1.14-.05-1.71-.06-.67,0-1.33-.1-2-.14-.24-.02-.49,0-.73-.03-.33-.04-.66-.12-.99-.17-.54-.08-1.08-.14-1.6-.3s-1.1-.28-1.62-.47-1.02-.35-1.54-.51c-.27-.08-.55-.16-.83-.21-.42-.08-.83-.19-1.25-.25-.65-.09-1.29-.19-1.93-.33-.44-.09-.88-.19-1.32-.19s-.86-.14-1.29-.18c-.28-.03-.57-.04-.85-.07-.34-.04-.75-.07-1.03,.14-.32,.25-.39,.74-.5,1.09-.06,.22-.09,.44-.14,.66-.03,.15-.13,.26-.19,.39-.07,.17-.18,.45-.26,.63-.26,.6-.3,.83-.61,1.31-.21,.33-.53,.67-.71,1.01-.22,.43-.37,.82-.27,1.27,.16,.74,.42,1.47,.72,2.17,.12,.29,.31,.54,.43,.83,.09,.21,.11,.45,.13,.68,.05,.52-.09,1.07-.45,1.48-.18,.19-.43,.41-.71,.43-.32,.02-.64-.08-.92-.2-.35-.15-1.04-.22-1.32-.47s-.49-.38-.75-.63c-.33-.31-.66-.61-.93-.96-.23-.3-.05-.68-.18-1.02-.24-.62-.28-1.3-.33-1.95-.02-.23-.02-.46-.01-.69,0-.09-.02-.2,.01-.28-.22,.14-.31,.35-.44,.56-.19,.32-.37,.63-.45,1-.09,.42-.11,.84-.1,1.27,0,.53,.17,1.04,.26,1.57s.09,1.07,.16,1.61c.06,.42,.17,.82,.04,1.24s-.36,.71-.82,.87c-.52,.17-.93-.21-1.28-.54-.47-.45-1.17-.97-1.34-1.58-.09-.33-.06-.74-.16-1.07-.12-.39-.09-.79-.15-1.19-.24-1.68,.1-3.39,.31-5.06,.05-.36,.08-.76,.01-1.11-.04-.24-.11-.5-.37-.2-.17,.2-.18,.56-.22,.81-.07,.38-.03,.78-.02,1.16,.01,.34-.02,.71-.07,1.05-.06,.37-.07,.74-.1,1.12-.04,.57-.14,1.13-.44,1.64-.23,.39-.48,.79-.74,1.17-.08,.12-.22,.3-.38,.33-.18,.03-.46-.03-.64-.06-.57-.11-.94-.71-.95-1.22,0-.26,.07-.51,.1-.77,.05-.42,.03-.81,.03-1.23-.01-.72-.03-1.4-.13-2.12-.16-1.16-.44-2.32-.3-3.49,.06-.54,.57-.97,.95-1.35,.67-.66,1.37-1.28,2.05-1.92,.28-.26,.54-.54,.84-.78,.43-.35,.9-.66,1.33-1,.88-.7,1.79-1.32,2.75-1.91,.43-.26,.9-.48,1.34-.73,.52-.3,1.07-.54,1.61-.8,.7-.34,1.43-.55,2.19-.78,.48-.14,.92-.31,1.39-.44,.36-.1,.73-.14,1.09-.21,.31-.06,.67-.04,1-.07,.37-.02,.73-.02,1.11,0,1.16,.04,2.32,.12,3.47,.22,.27,.02,.53,.03,.8,.05,.3,.02,.59,.09,.89,.1,.57,0,1.12-.06,1.69-.03s1.11-.06,1.65-.02c.19,.01,.35-.01,.54-.03,.3-.02,.59,0,.89-.05,.45-.08,.88-.22,1.33-.27,.41-.04,.82-.06,1.23-.12,.49-.07,.96-.17,1.45-.23,.7-.09,1.45,.02,2.1,.23,.1,.03,.75,.24,.54,.24Z"/><path class="d" d="M127.38,120.25c-.34,.33-.66,.66-.9,1.07-.13,.22-.24,.47-.39,.68-.26,.36-.48,.76-.76,1.12-.31,.41-.7,.76-1.16,1.01-.34,.18-.68,.29-1.04,.41-.19,.07-.37,.14-.58,.17-.21,.04-.42,.03-.64,.03-.37,0-.7,0-1.06-.08-.43-.1-.86-.19-1.27-.35-.23-.09-.47-.14-.69-.23-.21-.08-.4-.21-.6-.32-.35-.19-.67-.38-1-.6s-.7-.36-1.05-.53c-.44-.22-.92-.42-1.41-.51-.34-.06-.69-.03-1.04-.02-.3,.01-.71-.03-.99,.09,.14,.06,.34,.03,.49,.05,.19,.04,.38,.1,.58,.13,.18,.03,.35,.04,.52,.11,.13,.05,.25,.12,.39,.16,.44,.14,.77,.39,1.18,.61,.15,.08,.32,.14,.46,.24,.19,.13,.38,.26,.58,.38,.33,.21,.68,.34,1.03,.52,.39,.19,.82,.34,1.23,.51,.31,.13,.64,.22,.97,.29,.36,.08,.7,.1,1.07,.11,.19,0,.36,.06,.55,.09s.35,0,.54,0c.41-.03,.83-.03,1.23-.16,.64-.2,1.26-.51,1.73-.96,.13-.12,.26-.23,.37-.36,.09-.12,.13-.26,.2-.39,.05-.1,.13-.19,.19-.28,.1-.16,.13-.34,.19-.51,.11-.29,.15-.59,.25-.88,.07-.2,.16-.38,.24-.57,.1-.22,.24-.43,.37-.64,.06-.1,.15-.19,.24-.26,0,0,0,.02-.02-.14Z"/><path class="d" d="M94.97,126.48c-.24,.16-.46,.34-.66,.54-.08,.04-.11,.09-.1,.17-.02,.06-.04,.14-.06,.21-.05,.24,.09,.43,.24,.61,.08,.09,.16,.2,.28,.23s.26-.01,.37,.02c-.27,.14-.58,.15-.88,.12-.25-.03-.58-.1-.73-.32-.12-.18-.07-.5,0-.69,.15-.43,.52-.67,.94-.86,.13-.06,.27-.07,.41-.11,.07-.02,.13-.06,.21-.05,.02,0,.02,.02-.02,.13Z"/><path class="d" d="M97.05,128.32l-.26,.61c-.08,.09-.11,.18-.09,.28,0,.09,.03,.18,.05,.26,.05,.25,.15,.42,.32,.62,.1,.12,.18,.24,.34,.28,.14,.03,.28-.02,.42,0,.01,.21-.55,.22-.68,.2-.34-.06-.73-.52-.75-.84-.03-.34,.16-.67,.33-.95,.12-.19,.27-.36,.32-.44Z"/><path class="d" d="M100.16,129.63c-.06,.23-.07,.46-.05,.7,.05,.05,.09,.1,.14,.15,.08,.09,.18,.19,.28,.27,.21,.17,.5,.17,.75,.09,.22-.07,.55-.2,.69-.38,.09-.12,.14-.29,.19-.43-.13,.18-.16,.42-.26,.62-.1,.21-.26,.46-.49,.56-.39,.18-.86,.04-1.15-.23-.26-.24-.53-.47-.39-.84,.04-.13,.09-.25,.18-.35,.04-.05,.1-.14,.11-.14Z"/><path class="d" d="M102.23,136.69c-.22-.31-.49-.57-.82-.76-.09,0-.17,.02-.25,.06-.12,.04-.25,.09-.34,.17-.16,.15-.18,.47-.07,.65,.12,.19,.34,.37,.52,.51,.17,.13,.4,.21,.62,.2s.51-.21,.49-.44c-.02-.15-.29-.37-.16-.39Z"/><path class="d" d="M96.49,138.43c-.08-.23-.21-.44-.37-.62-.15,.09-.3,.08-.44,.21-.16,.15-.17,.32-.05,.51,.04,.07,.1,.11,.14,.17,.05,.08,.07,.16,.13,.23,.14,.16,.25,.18,.44,.1,.11-.05,.23-.15,.28-.26,.07-.15-.02-.28-.08-.41s-.11-.27-.19-.39c-.04-.05-.13-.09,.14,.45Z"/><path class="d" d="M92.31,134.07c-.24,.04-.62,.01-.72,.27-.03,.07-.07,.13-.11,.2-.12,.2-.09,.37-.14,.58-.03,.12-.05,.27,.08,.37s.26,.02,.37-.05c.33-.2,.63-.47,.6-.86,0-.11,0-.57-.07-.51Z"/></g></g></g></svg>