<?xml version="1.0" encoding="UTF-8"?><svg xmlns="http://www.w3.org/2000/svg" viewBox="0 0 181.4 318.31"><defs><style>.d{fill:#fff;}.e{fill:#dbcfc3;}</style></defs><g id="a"/><g id="b"><g id="c"><rect class="e" width="181.4" height="318.31" rx="14.95" ry="14.95"/><g><path d="M14.15,198.14c-.74-2.43-1.4-4.86-1.47-7.44-.09-3.21-.44-6.42-.59-9.63-.32-6.74-.12-13.47,.31-20.2,.46-7.23,1.31-14.41,2.54-21.56,1.48-8.6,3.47-17.07,6.27-25.34,2.41-7.13,5.37-14.01,9.43-20.38,1.73-2.72,3.69-5.27,6-7.54,1.93-1.89,4.04-3.52,6.54-4.6,2.94-1.27,5.94-1.54,9.02-.56,.37,.12,.78,.16,1.11,.34,.74,.38,1.45,.83,2.18,1.24,.14,.08,.31,.19,.46,.17,1.56-.17,2.96,.4,4.36,.93,.98,.38,1.91,.89,2.85,1.34-.26-4.07-.11-5.57,.7-6.66,.26,.85,.16,1.8,.93,2.43-.62-1.22-.64-2.5-.43-3.81,.03-.19,.04-.41-.03-.59-.46-1.2-.27-2.44-.21-3.67,.02-.38,.22-.62,.66-.76,.62-.2,1.13-.56,1.47-1.22,.63-1.22,1.39-2.37,2.16-3.5,1.02-1.49,2.17-2.9,3.14-4.42,2.18-3.41,4.3-6.87,6.43-10.32,.65-1.05,1.21-2.17,1.91-3.18,.84-1.21,1.71-2.38,2.46-3.66,1.09-1.88,2.4-3.62,3.55-5.47,1-1.61,2.35-3,3.04-4.81,.05-.14,.2-.23,.32-.37,.45,.39,.35,.87,.25,1.25-.41,1.52-.19,3.06-.15,4.57,.1,3.45,.61,6.87,1.14,10.28,.15,.96,.28,1.92,.51,2.86,.44,1.8,.6,3.61,.59,5.47,0,1.8,.2,3.6,.4,5.4,.23,1.99,.52,3.98,.87,5.96,.22,1.24,.58,2.46,.95,3.68,.13,.42,.09,.77-.04,1.16-.21,.66-.59,1.36-.52,1.99,.08,.69,.58,1.33,.91,1.99,.18,.36,.36,.72,.57,1.06,.74,1.19,1.1,2.51,1.3,3.88,.16,1.06,.23,2.13,.35,3.2,.05,.49,.12,.98,.17,1.44,1.32,.23,2.28-.07,3.01-1.2,.47-.72,1.19-1.27,1.88-1.98,.17,.84-.35,1.16-.71,1.57-.39,.45-.74,.93-1.11,1.39,.13,.1,.18,.17,.23,.17,2.44,.04,4.89,.08,7.33,.11,.6,0,1.21-.02,1.8,.03,1.13,.1,2.26,.29,3.4,.36,1.54,.1,3.08,.19,4.61,.16,2.54-.06,5.08-.22,7.63-.33,2.92-.12,5.83,.16,8.73,.48,2.73,.3,5.47,.57,8.18,.96,2.42,.35,4.83,.78,7.21,1.3,.99,.21,1.85,.5,2.88,.01,1.01-.48,1.79,.08,2.03,1.16,1.24,.33,2.46,.66,3.68,.99,.9,.24,1.8,.51,2.71,.74,1.85,.47,3.73,.84,5.54,1.41,1.75,.56,3.43,1.33,5.14,2,.75,.3,.86,.27,1.39-.32,.5-.55,.66-1.22,.69-1.94,.01-.29-.12-.68,.38-.82,.34,1.38,.05,2.54-1.03,3.55,.28,.13,.5,.21,.68,.32,.86,.54,1.65,1.21,1.92,2.21,.19,.7,.21,1.46,.22,2.19,.03,1.67-1.14,3.38-2.78,3.91-.76,.25-1.53,.44-2.31,.67-.56,9.52-.7,19.03-.43,28.6,.34,.09,.66,.15,.97,.27,.5,.19,1.02,.34,1.47,.62,2.74,1.69,3.65,5.83,1.89,8.53-1.37,2.1-4.04,2.71-6.18,1.38-1.54-.96-2.43-2.39-2.76-4.15-.61-3.26,1.24-5.81,3.54-6.41,.09-.02,.18-.09,.36-.18,0-.29,0-.62,0-.95,0-2.31-.01-4.62,0-6.94,0-1.37,.02-2.75,.05-4.12,.08-4.12,.15-8.24,.26-12.36,.04-1.3,.22-2.6,.32-3.9,.01-.12-.03-.25-.04-.36-1.79-.31-2.91-1.49-2.94-3.06,0-.5-.04-1,.34-1.42,.72-.8,1.57-1.34,2.67-1.37-.14-.84,.72-1.02,.93-1.59,.21-.59,.41-1.18,.64-1.81-2.33-1.19-4.75-2.12-7.3-2.71-2.35-.55-4.67-1.2-7-1.78-1.01-.25-2.02-.45-3.04-.68-.42-.09-.72,.05-.89,.45-.08,.19-.16,.37-.24,.55-.77,1.9-.72,3.93-.98,5.92,0,.05,.05,.11,.11,.23,.19,.02,.42,.04,.65,.05,1.5,.08,3,.12,4.5,.26,1.5,.14,2.99,.34,4.47,.58,1.68,.28,3.33,.68,4.9,1.38,.14,.06,.26,.17,.38,.26-.3,.07-.54,0-.79-.06-1.09-.3-2.17-.67-3.27-.9-1.17-.25-2.39-.3-3.56-.58-2.28-.55-4.59-.39-6.89-.52-.31-.02-.54,.05-.78,.32-.57,.63-.91,.6-1.61,.02-.17-.14-.37-.3-.58-.32-.83-.1-1.66-.2-2.5-.21-4.32-.09-8.64-.15-12.97-.22-1.27-.02-2.56,.07-3.82-.08-3.11-.36-6.14,.23-9.18,.69-.09,.01-.21,.04-.27,.11-.24,.28-.51,.21-.82,.15-.29-.06-.6-.05-.9-.01-3.01,.44-6.02,.89-9.03,1.36-.56,.09-1.1,.28-1.65,.42-1.39,.35-2.8,.64-4.17,1.06-2.43,.76-4.82,1.63-7.25,2.39-2.05,.64-4.12,1.24-5.99,2.29-1.57,.89-3.04,1.95-4.6,2.86-2.17,1.27-3.97,2.96-5.57,4.86-.47,.56-.73,1.31-1.27,1.77-.69,.59-.77,1.35-.99,2.1-.06,.19-.14,.38-.21,.56-.66,1.68-1.46,3.31-1.44,5.18,0,.23-.05,.48-.13,.69-.49,1.21-.45,2.49-.59,3.75-.38,3.39-.78,6.78-1.15,10.18-.17,1.63-.5,3.23-.47,4.89,.08,3.79,.12,7.58,.06,11.36-.06,3.99,.47,7.88,1.56,11.7,.14,.48,.32,.96,.38,1.45,.1,.95,.07,1.92,.21,2.87,.26,1.78,.66,3.55,.9,5.34,.28,2.09,.52,4.19,.66,6.29,.11,1.7,.07,3.42,.04,5.13-.02,.87-.13,1.74-.26,2.6-.09,.58-.43,.72-.94,.47-.18-.09-.33-.22-.5-.33-.94-.61-1.96-1.06-3.07-1.2-1.36-.17-2.73-.31-4.1-.31-2.54-.01-5-.44-7.37-1.34-.2-.08-.41-.11-.67-.18-.07,.45-.15,.81-.17,1.17-.22,3.95-.45,7.89-.64,11.84-.17,3.61-.28,7.23-.43,10.84-.03,.65-.23,1.26-.67,1.75-.38,.42-.52,.9-.56,1.46-.11,1.64-.26,3.27-.38,4.9-.19,2.5-.48,5-.53,7.51-.09,4.79,.31,9.58,.71,14.35,.23,2.8,.56,5.61,1.1,8.36,.42,2.13,.64,4.23,.55,6.38-.02,.37,.02,.74-.02,1.1-.1,.78,.27,1.23,.95,1.57,2.37,1.19,4.86,2.06,7.37,2.9,.92,.31,1.84,.6,2.76,.93,1.01,.36,2,.75,3.01,1.12,1,.37,2.02,.7,3.02,1.09,.67,.26,.74,.61,.44,1.25-.23,.49-.58,.75-1.1,.71-.63-.05-1.26-.12-1.87-.27-.61-.16-1.18-.48-1.79-.65-2.77-.77-5.57-1.42-8.31-2.29-1.9-.6-3.85-.87-5.78-1.25-.76-.15-1.58-.44-2.18-.91-.84-.65-1.01-2.58-.4-3.52,.25-.38,.28-.72,.3-1.12,.13-2.42-.16-4.82-.34-7.22-.06-.8-.12-1.6-.22-2.4-.24-1.86-.51-3.71-.75-5.57-.1-.76-.12-1.54-.21-2.3-.38-3.36-.74-6.72-1.15-10.08-.19-1.56-.51-3.1-.69-4.66-.24-2.06-.71-4.08-.6-6.19,.09-1.81,.23-3.6,.48-5.4,.29-2.1,.66-4.16,1.41-6.15,.15-.4,.25-.85,.24-1.27-.04-1.43-.14-2.87-.22-4.3-.1-1.67-.11-3.35-.31-5.01-.36-2.99-.84-5.97-1.28-8.95-.04-.29-.13-.57-.22-.93-.25,.17-.44,.3-.62,.44-.71,.56-1.38,1.17-2.12,1.69-.75,.53-1.44,1.15-2.37,1.41-.87,.24-1.7,.61-2.54,.94-.37,.14-.76,.29-.82,.78-.2,1.45-.4,2.9-.6,4.35-.54,3.85-.49,7.68,.37,11.49,.13,.57,.07,1.19,.05,1.79-.01,.47-.14,.93-.15,1.39,0,2.32-.12,4.62-.49,6.91-.13,.82-.09,1.67-.12,2.51-.11,3.72-.07,7.45-.37,11.15-.33,4.15-.23,8.3-.4,12.45-.06,1.57,.14,3.15,.18,4.72,.08,2.81,.38,5.62-.04,8.43-.04,.29,0,.6,.06,.9,.18,.89,.36,1.77,.58,2.65,.06,.24,.19,.51,.37,.67,1.51,1.32,3.05,2.62,4.57,3.93,1.39,1.21,2.75,2.45,4.15,3.65,1.35,1.15,2.73,2.27,4.1,3.39,.51,.42,1.04,.81,1.19,1.52-.49,.35-.95,.2-1.38,.03-1.59-.62-3.19-1.25-4.57-2.28-1.18-.89-2.27-1.88-3.43-2.79-1.21-.95-2.5-1.8-3.69-2.77-1.45-1.18-2.83-2.45-4.27-3.65-.53-.44-1.07-.89-1.86-.86-.55,.02-.85-.31-.95-.85-.05-.26-.03-.53-.02-.8,.09-3.55,.19-7.1,.28-10.65,.07-2.78,.1-5.56,.16-8.34,.05-2.14,.17-4.29,.19-6.43,.03-2.48-.04-4.96-.02-7.44,.03-3.13-.28-6.23-.72-9.31-.32-2.19-.63-4.37-.64-6.58,0-.58,.1-1.11,.41-1.63,.21-.36,.39-.83,.36-1.23-.13-1.94-.32-3.87-.53-5.8-.24-2.16-.52-4.32-.78-6.48-.08-.62-.15-1.25-.24-1.99-.88,.22-1.66,.38-2.42,.62-1.56,.51-3.09,1.11-4.65,1.61-.92,.29-1.89,.44-2.83,.67-1.56,.38-3.11,.81-4.67,1.15-1.53,.33-3.08,.6-4.63,.85-.65,.11-1.31,.09-2.06,.14,.13-1.23-.11-2.21-.4-3.15ZM92.31,74.57c.31,.32,.64,.63,1,.98q.25-.62-.54-2.26c.05-.24,.18-.49,.15-.72-.24-1.57-.51-3.14-.78-4.71-.05-.32-.14-.64-.22-1.01l-.89,.22,.13-.6h.78l-.19-1.37-1.02,.39c.62-.49,.89-1.12,.83-1.92-.16-2.1-.19-4.22-.47-6.31-.22-1.62-.69-3.2-1.15-4.78-.15-.51-.6-.92-.96-1.46,.72-.48,.69-1.29,.57-2.17-.2-1.49-.31-3-.49-4.49-.05-.39,.09-.84-.47-1.11-.18-.08-.1-.72-.15-1.11l.46,.99,.05-1.11-.51,.16c.47-.56,.39-1.18,.32-1.84-.08-.76-.01-1.54,0-2.31,0-.37,0-.73-.07-1.12-.34,.45-1.01,.67-.73,1.5,.11,.33-.11,.83-.68,.91-.19,.03-.41,.2-.52,.37-.39,.58-.72,1.21-1.11,1.79-.82,1.22-1.66,2.43-2.49,3.64-.11,.17-.28,.3-.36,.48-.8,1.76-2.2,3.11-3.25,4.69-.71,1.07-.63,1.53,.42,2.31,.07,.05,.11,.15,.22,.31l-.99,.22-.17,1.25-.75-1.27c-.43,.5-.84,.88-1.13,1.34-1.72,2.75-3.43,5.51-5.11,8.29-.26,.43-.35,.97-.56,1.55-.75-.15-1.08,.48-1.45,1.07-1.02,1.61-2.07,3.21-3.1,4.81-.17,.27-.32,.55-.57,1,.56,.07,.94,.16,1.32,.16,1.21,0,2.42,.04,3.62-.06,.89-.07,1.81-.22,2.63-.55,1.55-.62,3.04-1.39,4.56-2.08,.39-.18,.82-.26,1.23-.39-1.15,.92-2.47,1.55-3.78,2.18-.45,.22-.92,.4-1.38,.6-.96,.42-1.96,.67-3.02,.66-1.57-.02-3.14-.06-4.72-.1-1.16-.03-2.25,.83-2.34,1.95-.03,.35,.12,.83,.37,1.07,.55,.53,1.2,.95,1.82,1.39,.96,.68,1.98,1.27,3.13,1.56,1.13,.28,2.28,.5,3.43,.71,1.04,.18,2.1,.31,3.11,.45,1.19-1.6,2.42-3.25,3.67-4.93-.43-.32-.94-.15-1.45-.08-.49,.06-.99,.09-1.48,.13-1.2,.1-2.39,.22-3.59,.28-.99,.05-1.99,0-2.99-.06,.52-.35,1.1-.26,1.68-.27,.49,0,.99-.07,1.48-.13,.83-.1,1.65-.27,2.48-.33,.89-.07,1.79,0,2.67-.3,.4-.14,.94-.04,1.36,.11,.49,.17,.88,.13,1.33-.09,.63-.3,1.29-.56,1.96-.77,1.72-.54,3.42-.66,5,.42,.4,.27,.77,.58,1.16,.88-.38-.19-.81-.34-1.15-.59-1.25-.93-2.69-.92-4.05-.62-1.28,.29-2.5,.91-3.69,1.51-.74,.37-1.31,1-1.55,1.88-.1,.37-.35,.75-.65,.99-.83,.68-1.28,1.58-1.82,2.47-.76,1.24-1.12,2.63-1.68,3.95-.17,.39-.24,.83-.34,1.25-.28,1.16-.55,2.33-.85,3.57-2.49-1.04-4.64-2.46-6.65-4.11,2.09,2.14,4.41,3.9,7.24,4.76,.21-.23,.41-.56,.5-.53,.43,.12,.54,.43,.3,.85h-1.31c-.28,1.46-.24,2.89-.14,4.26,.11,.09,.16,.17,.21,.17,1.77,.07,3.4,.7,5.05,1.23,.69,.22,1.38,.4,2.15,.22,.88-.22,1.64,.16,2.45,.54,1.04,.48,1.62,1.34,2.32,2.13,.39,.44,.16,.83,0,1.2-.17,.39-.91,.64-1.27,.49-.4-.16-.8-.35-1.17-.57-2.03-1.18-4.12-2.21-6.38-2.9-1.11-.34-2.17-.86-3.26-1.3-.18-.18-.39-.33-.54-.53-.08-.1-.05-.28-.08-.44l-4.26-.96-.05,.14,4.95,1.78c0,.82,0,1.64,0,2.47,0,.44,0,.89,0,1.38l-1.23-.42-1.12-1.15c.11,.69,.6,.94,1.14,1.13-.18,.33-.37,.67-.63,1.13l1.19,1.8,.41,.5c.31,.47,.66,.85,1.24,.62,.97,1.79,1.68,3.71,3.1,5.17,1.42,1.46,3.15,2.2,5.26,2.36,3.29,.25,5.51-1.48,7.6-3.6,1.55-1.56,2.76-3.37,3.67-5.36,.34-.74,.49-1.58,.76-2.47l-3.79-.9c.04,.5-.15,.76-.6,.97-.81,.38-1.55,.93-2.34,1.36-.35,.19-.75,.72-1.13,.27-.4-.46,.25-.73,.43-1.09-.02-.06-.02-.14-.06-.17-.9-.74-.91-.74,.08-1.36,.23-.15,.49-.22,.36-.71-.7-.17-1.47-.36-2.24-.54-.8-.19-.86-.28-.9-1.07-.04-.94,.36-1.7,1-2.32,.37-.36,.76-.52,1.34-.18,.86,.51,1.81,.87,2.73,1.27,.17,.08,.39,.13,.56,.1,.65-.13,1.28-.38,1.93-.44,1.47-.13,2.41-1.09,3.37-2.02,.14-.13,.18-.43,.16-.65-.15-2.64-.03-5.35-.94-7.85-.91-2.51-2.04-4.96-3.74-7.06-.58-.72-1.29-1.34-1.94-2.01,.27,.17,.58,.29,.79,.51,.87,.91,1.7,1.84,2.57,2.8l.29-.55c-1.09-.85-1.58-2.09-2.25-3.2l-.02,.02c.45,.48,.88,.98,1.34,1.45Zm-5.63,36.81c1.35-.8,2.64-1.71,4.01-2.48,1.73-.97,3.63-1.52,5.52-2.13,2.55-.82,5.05-1.77,7.6-2.59,1.27-.41,2.6-.61,3.89-.98,3.46-1.01,7.02-1.38,10.57-1.78q.35-.04,.67-.4c-.86-.26-1-.24-1.45,.25l-.43-.68c.93,.14,1.61-.07,2.18-.94,0,.46,0,.67,0,.88-.03,.59,.09,.73,.68,.65,1.13-.15,2.24-.37,3.37-.5,1.13-.13,2.26-.21,3.4-.26,.8-.04,1.6,0,2.4,0q-.19-.87-1.52-.88l.59-.88-.4-.99c.88,.12,1.56-.09,2.17-.68l-.06,1.08,1.13,.9-1.3,.18-.11,1.34c6.54,.22,12.99-.1,19.52,.59-.04-.56-.08-.95-.1-1.34-.06-1.2-.14-2.41-.15-3.61-.01-1.11,.45-2.08,1.03-2.99-1.09-.8-6.67-1.91-9.3-1.85l-.27,1.14-.72-1.06-.99,.07c-.09-.14-.17-.37-.32-.48-.15-.11-.38-.12-.58-.14-2.07-.22-4.14-.39-6.2-.64-4.79-.59-9.57-.02-14.36,.07-1.17,.02-2.35,.06-3.52-.03-1.67-.12-3.33-.37-5-.5-.76-.06-1.54,.07-2.3,.06-1.77-.04-3.55-.11-5.32-.17-.27,0-.54-.02-.8-.03-1.27-.02-1.74,.37-1.99,1.66-1.07,.33-1.54,1.09-1.63,2.17-.07,.83-.22,1.65-.35,2.56,2.47,1.17,4.95,2.34,7.59,3.58l.55-.85,.15,.07v.97l1.17,1.06-1.3,.13-.26,1.47-.77-1.11-1.19,.16,.69-1.11c-.25-.16-.46-.38-.72-.45-2.08-.61-4.18-1.19-6.35-1.81-.14,.3-.31,.56-.37,.83-.41,2.03-1.49,3.73-2.7,5.33-1.4,1.85-3,3.51-5.06,4.68-1.05,.6-2.13,.88-3.34,.92-1.94,.06-3.8-.29-5.65-.76-1.78-.46-3.61-.7-5.32-1.44-.38-.17-.96,.09-1.44,.2-.31,.08-.61,.25-1.02,.43l.92,.86-1.24,.21-.2,1.26-.63-.3c-.13,.41-.29,.81-.38,1.22-.35,1.57-.73,3.13-.99,4.71-.51,3.24-.95,6.49-1.43,9.74-.08,.53-.22,1.04-.36,1.7l.78-.41-.06,1.18,1.13,.88-1.27,.19-.21,1.31c-.15-.11-.27-.19-.37-.29-.11-.11-.19-.24-.38-.48-.28,1.45-.59,2.75-.76,4.08-.27,2.19-.52,4.39-.64,6.6-.16,2.96-.16,5.94-.26,8.9-.08,2.41-.22,4.82-.3,7.23-.04,1.27,0,2.53,0,3.81,.8,.46,1.21-.18,1.77-.71v1.27l1.11,.87-1.23,.19-.29,1.51c-.27-.44-.39-.71-.58-.92-.11-.12-.35-.24-.49-.21-.14,.03-.24,.26-.35,.41-.02,.02,0,.07,0,.1-.07,1.91-.19,3.81-.19,5.72,0,1.61,.22,3.21,.17,4.82-.04,1.19-.34,2.37-.54,3.55-.12,.65-.37,1.29-.41,1.94-.19,2.87-.88,5.61-1.88,8.29-.06,.15-.13,.31-.15,.47-.05,.36-.08,.73-.12,1.18,1.35,.72,2.78,1.11,4.25,1.42,1.59,.33,3.19,.4,4.8,.36,1.52-.03,3.01,.19,4.45,.68,.81,.27,1.57,.71,2.48,1.13,.68-5.44,.07-10.77-.55-16.09l-.2-.03-.17,.62-1.5-.21,.11,1.11,.84,.46,.28-.55,.15,.05-.22,1.64-.77-1.1-1.18,.07,.61-.92-.41-1.02c1.07,.31,1.66-.26,2.32-1.02l-1.48-6.81h-.22l-.11,1.07c-.35-.51-.91-.41-1.52-.33l.1,1.02,.84,.46,.22-.5,.14,.02-.09,1.43c-.54-.08-.48-.63-.85-.89l-1.15,.06,.59-.92-.37-.93c.21-.02,.36-.05,.51-.05,1.16,.02,1.7-.76,1.56-1.87-.35-2.75-1-5.47-1.01-8.27-.01-4.76-.07-9.52-.03-14.28,0-1.26,.29-2.52,.44-3.79,.36-3.02,.71-6.05,1.06-9.08,.03-.26,0-.52,0-.82-1.07-.03-.46,.91-.82,1.27l-1.46-1.11-.18-1.7c.8,.2,1.48,.11,1.9-.68,.5,.42-.37,1.27,.62,1.43,.61-3.42,1.07-6.88,2.64-10l-.87-1.32-1.21,.17,.64-.97-.36-.95c.77-.09,1.61,.09,1.95-.97,.39,.65-.31,1.51,.69,1.63,1.06-.99,2.14-1.99,3.21-2.99l-.02,.02c1.55-1.38,3.15-2.69,4.95-3.75Zm-55.15,34.24c.23,1.96,.38,3.94,.7,5.89,.38,2.38,.81,4.76,1.39,7.09,.4,1.61,1.1,3.16,1.67,4.73,.03,.09,.08,.24,.14,.25,1.25,.29,1.31,1.53,1.85,2.36,.86,1.31,1.56,2.73,2.33,4.09,.08,.13,.23,.22,.38,.37,1.18-2.4,2.8-4.38,4.84-6.12-.59-1.23-1.25-2.42-1.75-3.68-.42-1.05-.69-2.17-.96-3.27-.17-.7-.59-1.35-.41-2.14,.03-.11-.22-.29-.49-.62l-.31,1.76-.78-1.14-1.16,.14c.36-.64,.9-1.18,.02-1.95,.57,0,.83,.02,1.08,0,.68-.07,1.15-.7,1.1-1.39-.22-3.54-.35-7.09-.15-10.64,.19-3.36,.75-6.65,1.55-9.91,.25-1,.2-1.81-.59-2.59l-1.13,.13,.63-1.01-.41-.9c.82-.01,1.59-.03,2.13-.76l.06,.8c.06-.03,.15-.05,.16-.08,.81-2.87,1.59-5.74,2.43-8.6,.23-.79,.16-1.43-.42-2.07l-1.16,.14,.63-1-.4-.89c.48-.05,.9-.07,1.3-.14,.38-.07,.4-.84,1.06-.54,.3-1.15,.61-2.33,.91-3.51,.36-1.46,.7-2.92,1.05-4.39,.12-.49,.23-.97,.34-1.46,.02-.1,.01-.22,.07-.29,.13-.17,.28-.32,.43-.48,.09,.19,.28,.38,.26,.56-.06,.56-.19,1.12-.32,1.67-.15,.64-.32,1.28-.49,1.97,.8-.18,1.24-.93,2.2-.91-.21,.21-.29,.33-.41,.41-.39,.26-.79,.51-1.18,.77-.68,.45-1,1.06-1.15,1.89-.29,1.58-.74,3.12-1.09,4.69-.07,.29,0,.6,0,.93-.15,.27-.39,.57-.49,.91-.72,2.47-1.41,4.96-2.1,7.44-.29,1.06-.46,2.18-.85,3.2-.17,.44,.43,.81-.12,1.25-.29,.23-.27,.86-.37,1.31-.1,.46-.18,.92-.28,1.38-.1,.46-.22,.91-.32,1.37-.02,.09-.01,.2-.02,.34,.8,.54,1.24-.1,1.8-.8v1.38l1.16,.89-1.27,.19-.29,1.44-.69-1.04c-1.16-.03-1.14,0-1.37,1.05-.94,4.37-.79,8.8-.76,13.22,.01,1.33-.01,2.71,.31,3.99,.64,2.54,1.39,5.06,2.52,7.45,.44,.93,.9,1.85,1.35,2.76,1.04-.35,.54-.98,.4-1.58,.82,.1,1.5-.04,2.04-.74v1.08l1.14,.94-1.25,.2-.24,1.46-.75-1.14-1.04,.14c.31,.31,.5,.48,.66,.67,.36,.44,.72,.89,.71,1.51,0,.16,0,.36,.08,.49,.51,.88,1.05,1.74,1.68,2.78l.47-.88c.15,.24,.24,.32,.24,.39,0,.3-.04,.59-.07,.89l1.11,.89-.98,.28c.89,1.44,1.67,2.89,2.64,4.19,.43,.57,1.26,.83,1.92,1.22,.08,.05,.19,.06,.29,.05,.52-.06,1.05-.2,1.57-.19,.53,0,1.06,.15,1.71,.26,.06-.45,.13-.9,.17-1.35,.26-3.13,.47-6.27,.78-9.4,.51-5.1,1.12-10.19,1.6-15.29,.19-2,.11-4.02,.25-6.02,.18-2.71,.45-5.41,.68-8.11,.02-.2,.07-.4,.06-.6-.05-.65-.31-.83-.98-.72-.15,.03-.31,.03-.59,.05l.64-.95-.34-.86c.1-.06,.15-.13,.2-.13,1.38-.03,1.46-.1,1.66-1.43,.37-2.52,.74-5.04,1.13-7.55,.11-.69,.32-1.37,.46-2.06,.06-.3,.05-.62,.09-1.09,.05-.07,.29-.26,.41-.51,.93-1.93,1.58-3.96,2.25-6.07h-.88l-.2,1.43-.77-1.07-1.17,.06,.59-.93-.4-.98c.9,.17,1.55-.1,2.16-.69l-.05,1.1,.83,.59c.11-.21,.23-.36,.29-.54,.76-2.4,1.34-4.85,1.5-7.37,.06-.95-.11-1.9-.46-2.89-.63,.36-.24,1-.61,1.44l-.7-1.02-1.19,.16,.64-.97-.36-.95c.28-.02,.5-.03,.71-.04,.83-.04,1.08-.32,.9-1.14-.31-1.44-.66-2.87-1-4.31-.03-.14-.08-.28-.29-.43l-.26,1.35-.76-1.11-1.2,.17,.64-.97-.36-.95c.78-.08,1.65,.09,1.89-1.02-.55-1.33-1.14-2.75-1.75-4.15-.04-.09-.3-.1-.34-.11-.09-.46-.1-.88-.26-1.22-.35-.75-.92-1.39-.85-2.32,.02-.23-.34-.58-.6-.71-.77-.39-1.57-.77-2.39-1.04-1.07-.35-2.18-.6-3.27-.89l-.1,.18,1.76,1.51,.78-.67v1.25c.17,.13,.37,.3,.58,.46,.2,.16,.4,.25,.36,.62-.03,.23,.26,.5,.44,.74,.4,.55,.86,1.06,1.09,1.72-.93-.75-1.49-1.83-2.6-2.66l-.28,1.64-.73-1.07-1.16,.05,.57-.97-.38-.81,.6-.33c-1.26-1.1-2.58-2.02-4.18-2.72-.09,.81,.81,.73,.88,1.34l-1.08,.12-.22,1.5-.8-1.14-1.17,.14c.47-.63,.75-1.2,.22-1.89l1.32-.15,.03-.16c-.19-.09-.37-.21-.57-.27-2.39-.74-4.76-.64-7.11,.16-2.06,.69-3.89,1.79-5.57,3.15-2.79,2.25-5.07,4.97-7.08,7.91-3.77,5.51-6.54,11.53-8.86,17.76-3.7,9.96-6.18,20.23-7.87,30.71-.16,.99-.31,1.99-.46,2.98-.03,.19,0,.39,0,.58,.8,.46,1.12-.28,1.68-.71v1.2l1.12,.91-1.25,.23-.24,1.45-.7-1.06c-.96-.05-1.01-.03-1.11,.93-.43,4.44-.89,8.87-1.25,13.31-.58,7.16-.6,14.33-.3,21.5,.14,3.45,.51,6.89,.63,10.33,.05,1.37,.65,2.5,.99,3.75,.26,.97,.49,1.94,.73,2.91,.1,.42,.2,.83,.32,1.31,.53-.07,.99-.11,1.45-.19,1.88-.34,3.75-.67,5.63-1.04,.59-.12,1.15-.36,1.73-.51,1.33-.33,2.68-.61,4-.96,1-.26,1.98-.63,2.98-.91,1.67-.47,3.34-.99,5.04-1.36,2.2-.47,4.33-1.12,6.39-2.04,1.09-.49,2.24-.88,3.37-1.32,.16-.66,1.17-1.17,.28-2.17,.95,.13,1.62-.03,2.16-.98l.08,1.63c.45-.25,.81-.41,1.11-.64,1.62-1.26,3.11-2.66,4.33-4.32,.75-1.02,1.43-2.11,2.03-3.22,.57-1.05,.39-1.3-.77-1.29-1.46,.01-2.88-.23-4.22-.79-2.59-1.08-4.93-2.56-6.98-4.48-.66-.62-1.29-1.27-1.93-1.91-.37-.36-.64-.81-1.29-.84-.27-.01-.54-.52-.75-.85-.25-.39-.23-.88-.86-1.1-.34-.12-.51-.81-.71-1.27-.25-.58-.62-.99-1.16-1.33-.41-.26-.79-.64-1.03-1.06-1.67-2.92-2.78-6.09-3.67-9.32-.43-1.57-.62-3.22-.91-4.83-.21-1.15-.41-2.3-.62-3.5h-1.24l-.28,1.5-.77-1.15-1.11,.17c.29-.62,.79-1.17,.09-1.9,.9-.03,1.65-.08,2.19-.76v1.15l1.01,.65c.04-.27,.08-.39,.07-.51-.36-3.36-.63-6.74-.62-10.12,0-1.84,.07-3.68,.17-5.52,.04-.78-.19-1.43-.66-2.07l-1.22,.17,.64-.97-.32-.86c.07-.06,.12-.14,.17-.14,1.44-.05,1.59-.15,1.69-1.62,.17-2.47,.3-4.95,.41-7.43,.1-2.38,.12-4.76,.23-7.13,.05-1.24,.22-2.47,.32-3.7,.05-.63,.08-1.27,.13-1.9,.02-.24,.08-.48,.24-.71,.41,.88,.2,1.79,.22,2.69,.84,.58,1.27-.11,1.87-.68v1.26l1.11,.88-1.27,.25-.23,1.4c-.24-.36-.4-.55-.51-.77-.14-.3-.39-.41-.65-.29-.21,.09-.48,.29-.53,.48-.12,.48-.14,.99-.16,1.49-.16,4.65-.3,9.31-.47,13.96-.1,2.74-.26,5.48-.39,8.23-.01,.3,0,.6,0,.86,.78,.49,.96-.41,1.51-.6v1.18l1.09,.86-1.26,.2-.23,1.38-.87-1.08c-.4,.81-.36,4.1,.05,6.77l-.02-.02Zm12.67,24.54c-.66,1.03-1.49,1.95-2.3,2.99,1.2,1.35,2.5,2.59,3.89,3.74,1.56,1.28,3.22,2.4,5.12,3.11,1.36,.5,2.74,.88,4.21,.69,.18-.02,.39,.03,.57,.09,.5,.15,.99,.34,1.5,.46,.48,.11,.87-.07,1.01-.58,.11-.45,.18-.9,.25-1.24,.39-.3,.78-.5,1.02-.81,.29-.37,.14-.88-.24-1.02-.9-.31-1.71-.89-2.72-.81-.49,.04-.98,.12-1.47,.17-.22,.03-.48,.13-.66,.05-1.1-.49-2.2-.97-2.86-2.09-1.25-2.13-2.53-4.25-3.8-6.37-.2-.34-.42-.67-.64-1.04-1.18,.71-2.14,1.53-2.86,2.67Zm127.09-69.26c.11,.13-.48,.35-.17,.69,.2,.22,.4,.45,.19,.81l-.37-.44-.41,.83c-.84,.1-1.75-.12-2.54,.5,.2,1.04,.85,1.61,1.92,1.84-1.06,.21-1.52-.11-2.22-1.49-.87,.46-1.21,1.19-.83,2.13,.59,1.43,1.3,2.31,3.13,1.97,1.29-.24,2.57-.46,3.55-1.46,.69-.7,1.1-1.5,1.13-2.49,0-.4,0-.8-.04-1.2-.16-1.79-1.14-2.88-3.05-3.31-.27,.53-.89,.92-.3,1.61Zm-68.66-1.5c-.36-.21-.57-.35-.79-.46-2.11-1-4.22-2.02-6.35-2.98-1.12-.51-2.31-.87-3.45-1.35-.89-.37-1.75-.8-2.63-1.21-.55-.25-1.09-.51-1.65-.74-.63-.26-.96-.18-1.41,.34-.53,.61-.81,1.3-.58,2.09,5.63,1.44,11.15,2.85,16.85,4.3Zm63.91,39.39c-2.51,2.64-1.13,7.73,2.37,8.74,1.58,.46,2.92,.05,3.99-1.17,2.37-2.7,.97-7.55-2.48-8.58-.38-.11-.79-.11-1.18-.16-1.08-.02-1.97,.39-2.7,1.16Zm-13.99-45.1c-.41-.12-.75-.22-1.08-.31-.68-.16-.99-.09-1.3,.55-.31,.65-.63,1.37-.67,2.08-.07,1.4,.03,2.81,.12,4.21,.05,.84,.22,.9,1.23,.75,.52-2.39,.25-4.97,1.7-7.28ZM45.34,165.97c-.07,0-.11-.48-.2-.86-1.05,.88-1.97,1.75-2.73,2.75-.52,.69-1.01,1.43-1.43,2.18-.22,.39-.34,.88-.36,1.33-.01,.23,.25,.56,.47,.68,.13,.07,.5-.11,.65-.28,.63-.7,1.2-1.44,1.82-2.15,.81-.93,1.63-1.85,2.5-2.82-.19-.23-.09-.79-.72-.83Zm50.32-70.25c.44-.89,.61-2,.46-3.15-1.09,.54-1.92,1.22-2.37,2.46l1.91,.69Zm-31.37,18.48l.78,.43,.81-.81-.53-.65h-1.16l.11,1.02Zm-17.68,48.04l.09,1.06,.75,.38,.84-.74-.52-.69h-1.16Zm-13.69-50.84l.74,.41,.83-.75c-.32-.71-.91-.85-1.68-.66l.12,1Zm-17.9,33.55l.11,1.05,.71,.37,.85-.72-.49-.7h-1.18Zm29.32-11.47h-1.16l.09,1.06,.75,.38,.84-.74-.52-.69Zm8.12-49.97l.83-.72-.48-.7h-1.2l.13,1.04,.72,.37Zm-23.97,65.35l.11,1.04,.72,.39,.84-.71-.46-.72h-1.2Zm48.8-29.72l.85-.75-.52-.71h-1.15l.08,1.03,.74,.43Zm-37.54,34.55l.11,1.04,.72,.38,.83-.7-.46-.72h-1.2Zm89.76-55.71h-1.16l.09,1.03,.73,.41,.87-.73-.53-.72Zm-64.9,64.2l.72,.38,.84-.72-.48-.7h-1.2l.13,1.03Zm2.46-58.7l.69-.81-.38-.68h-1.18l.1,1.02,.77,.46Zm-1.6-7.44l.66-.83-.36-.66h-1.19l.1,1.04,.78,.45Zm-22.93,32.79l.63-.83-.32-.65h-1.2l.1,1.01,.79,.47Zm-9.66,9.27l-.53-.71-1.03,.06v.97l.71,.44,.85-.76Zm41.33-7.92h-1.12c-.1,.74,.23,1.16,.77,1.37l.88-.66-.53-.72Zm-28.19-13.78c.02-.52,.92-.88,.17-1.52h-1.11l.1,1.03,.85,.49Zm-16.33,14.6l.88,.48,.22-1.43-1.2-.11,.1,1.05Zm27.67-45.96l.08,1.01,.83,.47,.37-.78c-.38-.36-.63-.85-1.28-.7Zm-9.11,105.39h-1.26l.16,1.15c.45-.41,1.25-.27,1.09-1.15Zm12.53-57.06l.08,1.07,.79,.31,.21-1.27-1.08-.1Zm6.71-4.3l-.54-.72c-.62,.37-.7,.7-.34,1.44l.88-.72Zm11.88-76.33l-.64-.95-.56,.99,.62,.51,.57-.55Zm24.86,47.86q-.89-.38-1.16,.18l.87,.53,.29-.71Zm-33.23,8.15c-.31-.07-.63-.25-.79-.16-.42,.24-.34,.66-.16,1.02l.95-.86Zm-5.27-26.22l.11-.06-.42-.67-.12,.08,.44,.66Zm87.08,10.73l.06-.23-.99-.3-.08,.3,1,.24Zm-109.88,40.66l-.2-.07-.23,.61,.26,.1,.17-.64Z"/><path class="d" d="M32.96,145.74l.72,1.05,.21-1.43,1.27-.22-1.08-.9v-1.23c-.61,.59-1.18,1.09-2.13,.77,.4,.84,.43,1.48-.39,1.86-.42-2.67-.46-5.96-.06-6.77l.87,1.08,.23-1.38,1.26-.2-1.09-.86v-1.18c-.56,.19-.73,1.09-1.51,.6,0-.26-.01-.56,0-.86,.13-2.74,.28-5.48,.39-8.23,.17-4.65,.31-9.31,.47-13.96,.02-.5,.05-1.01,.16-1.49,.05-.2,.32-.39,.53-.48,.27-.11,.51,0,.65,.29,.1,.22,.27,.41,.51,.77l.23-1.4,1.27-.25-1.11-.88v-1.26c-.59,.57-1.03,1.26-1.87,.68-.02-.9,.19-1.81-.22-2.69-.17,.23-.23,.47-.24,.71-.05,.63-.07,1.27-.13,1.9-.1,1.23-.27,2.47-.32,3.7-.1,2.38-.13,4.76-.23,7.13-.1,2.48-.24,4.95-.41,7.43-.1,1.47-.25,1.56-1.69,1.62-.05,0-.09,.07-.17,.14l.32,.86-.64,.97,1.22-.17c.47,.64,.7,1.29,.66,2.07-.09,1.84-.16,3.68-.17,5.52,0,3.39,.27,6.76,.62,10.12,.01,.12-.03,.24-.07,.51l-1.01-.65v-1.15c-.54,.67-1.29,.73-2.19,.76,.69,.73,.2,1.28-.09,1.9l1.11-.17,.77,1.15,.28-1.5h1.24c.21,1.2,.41,2.35,.62,3.5,.29,1.61,.48,3.26,.91,4.83,.89,3.23,1.99,6.39,3.67,9.32,.24,.42,.62,.8,1.03,1.06,.54,.34,.91,.76,1.16,1.33,.2,.46,.36,1.15,.71,1.27,.63,.21,.61,.71,.86,1.1,.21,.32,.48,.84,.75,.85,.65,.03,.92,.48,1.29,.84,.64,.63,1.27,1.29,1.93,1.91,2.05,1.92,4.39,3.4,6.98,4.48,1.34,.56,2.76,.8,4.22,.79,1.16-.01,1.34,.24,.77,1.29-.61,1.11-1.28,2.2-2.03,3.22-1.22,1.66-2.7,3.06-4.33,4.32-.3,.23-.66,.38-1.11,.64l-.08-1.63c-.53,.95-1.21,1.12-2.16,.98,.89,1-.12,1.51-.28,2.17-1.14,.44-2.28,.82-3.37,1.32-2.06,.93-4.19,1.57-6.39,2.04-1.7,.36-3.36,.88-5.04,1.36-1,.28-1.97,.65-2.98,.91-1.33,.35-2.67,.63-4,.96-.58,.14-1.15,.39-1.73,.51-1.87,.37-3.75,.7-5.63,1.04-.45,.08-.92,.12-1.45,.19-.12-.48-.22-.89-.32-1.31-.24-.97-.47-1.95-.73-2.91-.34-1.24-.95-2.38-.99-3.75-.12-3.45-.48-6.89-.63-10.33-.3-7.17-.27-14.34,.3-21.5,.36-4.44,.82-8.87,1.25-13.31,.09-.96,.14-.98,1.11-.93,.19,.29,.38,.58,.69,1.06l.24-1.45,1.25-.23-1.12-.91v-1.2c-.56,.42-.88,1.17-1.68,.71,0-.2-.02-.39,0-.58,.15-.99,.3-1.99,.46-2.98,1.69-10.48,4.17-20.75,7.87-30.71,2.32-6.24,5.09-12.25,8.86-17.76,2.02-2.95,4.29-5.66,7.08-7.91,1.68-1.36,3.51-2.46,5.57-3.15,2.35-.79,4.73-.9,7.11-.16,.2,.06,.38,.18,.57,.27l-.03,.16-1.32,.15c.53,.69,.25,1.26-.22,1.89l1.17-.14,.8,1.14,.22-1.5,1.08-.12c-.08-.61-.98-.53-.88-1.34,1.59,.69,2.91,1.61,4.18,2.72l-.6,.33,.38,.81-.57,.97,1.16-.05,.73,1.07,.28-1.64c1.12,.82,1.68,1.91,2.6,2.66-.23-.66-.69-1.17-1.09-1.72-.17-.24-.47-.51-.44-.74,.05-.37-.15-.46-.36-.62-.21-.16-.41-.32-.58-.46v-1.25l-.78,.67-1.76-1.51,.1-.18c1.09,.29,2.2,.54,3.27,.89,.82,.27,1.62,.64,2.39,1.04,.27,.13,.62,.48,.6,.71-.06,.93,.51,1.57,.85,2.32,.16,.35,.17,.77,.26,1.22,.04,.01,.29,.01,.34,.11,.61,1.4,1.19,2.82,1.75,4.15-.24,1.1-1.12,.94-1.89,1.02l.36,.95-.64,.97,1.2-.17,.76,1.11,.26-1.35c.2,.15,.25,.29,.29,.43,.34,1.44,.68,2.87,1,4.31,.18,.82-.07,1.1-.9,1.14-.22,.01-.43,.02-.71,.04l.36,.95-.64,.97,1.19-.16,.7,1.02c.37-.45-.02-1.08,.61-1.44,.35,.98,.52,1.93,.46,2.89-.16,2.52-.74,4.96-1.5,7.37-.06,.18-.18,.33-.29,.54l-.83-.59,.05-1.1c-.61,.59-1.27,.86-2.16,.69l.4,.98-.59,.93,1.17-.06,.77,1.07,.2-1.43h.88c-.67,2.11-1.32,4.14-2.25,6.07-.12,.25-.36,.45-.41,.51-.03,.48-.03,.79-.09,1.09-.14,.69-.35,1.36-.46,2.06-.39,2.51-.76,5.03-1.13,7.55-.2,1.33-.28,1.4-1.66,1.43-.05,0-.1,.06-.2,.13l.34,.86-.64,.95c.27-.02,.43-.02,.59-.05,.67-.11,.93,.07,.98,.72,.02,.2-.04,.4-.06,.6-.23,2.7-.5,5.4-.68,8.11-.13,2-.06,4.03-.25,6.02-.49,5.1-1.1,10.19-1.6,15.29-.31,3.13-.52,6.27-.78,9.4-.04,.45-.11,.9-.17,1.35-.65-.1-1.18-.25-1.71-.26-.52,0-1.05,.13-1.57,.19-.09,.01-.21,0-.29-.05-.66-.39-1.49-.65-1.92-1.22-.98-1.3-1.75-2.75-2.64-4.19l.98-.28-1.11-.89c.03-.29,.06-.59,.07-.89,0-.07-.09-.15-.24-.39l-.47,.88c-.63-1.04-1.17-1.91-1.68-2.78-.08-.13-.08-.32-.08-.49,.01-.62-.34-1.07-.71-1.51-.16-.19-.35-.35-.66-.67l1.04-.14,.75,1.14,.24-1.46,1.25-.2-1.14-.94v-1.08c-.53,.7-1.22,.84-2.04,.74,.14,.61,.64,1.24-.4,1.58-.45-.92-.92-1.83-1.35-2.76-1.12-2.39-1.87-4.91-2.52-7.45-.32-1.28-.3-2.66-.31-3.99-.03-4.42-.19-8.85,.76-13.22,.23-1.06,.21-1.09,1.37-1.05l.69,1.04,.29-1.44,1.27-.19-1.16-.89v-1.38c-.56,.7-1,1.35-1.8,.8,0-.15,0-.25,.02-.34,.1-.46,.22-.91,.32-1.37,.1-.46,.18-.92,.28-1.38,.1-.45,.08-1.09,.37-1.31,.55-.44-.05-.81,.12-1.25,.4-1.02,.56-2.13,.85-3.2,.68-2.48,1.38-4.96,2.1-7.44,.1-.34,.34-.64,.49-.91,0-.33-.06-.65,0-.93,.36-1.56,.81-3.11,1.09-4.69,.15-.83,.48-1.44,1.15-1.89,.39-.26,.79-.5,1.18-.77,.12-.08,.2-.2,.41-.41-.96-.02-1.4,.73-2.2,.91,.17-.68,.34-1.32,.49-1.97,.13-.55,.25-1.11,.32-1.67,.02-.17-.17-.37-.26-.56-.14,.16-.3,.31-.43,.48-.05,.07-.05,.19-.07,.29-.11,.49-.22,.97-.34,1.46-.35,1.46-.69,2.93-1.05,4.39-.29,1.18-.61,2.36-.91,3.51-.67-.3-.69,.47-1.06,.54-.41,.07-.82,.09-1.3,.14l.4,.89-.63,1,1.16-.14c.58,.64,.65,1.28,.42,2.07-.84,2.86-1.62,5.73-2.43,8.6-.01,.04-.09,.05-.16,.08l-.06-.8c-.55,.72-1.31,.74-2.13,.76l.41,.9-.63,1.01,1.13-.13c.79,.78,.84,1.59,.59,2.59-.81,3.25-1.37,6.55-1.55,9.91-.2,3.55-.07,7.1,.15,10.64,.04,.69-.43,1.32-1.1,1.39-.26,.02-.52,0-1.08,0,.88,.76,.34,1.3-.02,1.95l1.16-.14,.78,1.14,.31-1.76c.27,.33,.52,.5,.49,.62-.18,.78,.24,1.44,.41,2.14,.27,1.1,.54,2.22,.96,3.27,.5,1.26,1.16,2.45,1.75,3.68-2.04,1.74-3.66,3.72-4.84,6.12-.16-.15-.31-.24-.38-.37-.78-1.37-1.47-2.78-2.33-4.09-.54-.82-.6-2.07-1.85-2.36-.06-.01-.11-.16-.14-.25-.57-1.57-1.26-3.11-1.67-4.73-.58-2.33-1-4.71-1.39-7.09-.31-1.95-.47-3.92-.7-5.89l1.43,.12Zm-10.91-25.39l.19,1.23,1.27,1.32,.21-1.27,1.29-.22-1.12-.91,.07-1.08c-.13,.02-.27,0-.3,.04-.38,.54-.85,.83-1.54,.63-.05-.01-.15,.14-.23,.22,.02,.02,.04,.06,.07,.07,.03,0,.06,0,.09,0h0Zm20.27-34.05l-1.14-.92,.09-1.29c-.65,.72-1.28,1.08-2.18,.85l.38,1.04-.67,.93,1.22-.13,.74,1.1,.29-1.45,1.26-.15Zm-7.5,73.72l1.3-.08,.76,1.11,.26-1.46,1.18-.14c-.53-.66-1.58-.98-.96-2.13-.65,.59-1.21,1.04-2.11,.83,.4,.71,.26,1.26-.42,1.88Zm-6.97,19.15l.21-1.43,1.27-.22-1.08-.9v-1.19c-.64,.47-1.12,1.18-2.23,.57,.49,.92,.48,1.53-.25,2.15l1.3-.12,.78,1.14Zm17.65-21.41l1.27-.17,.77,1.16,.26-1.47,1.22-.17-1.06-.91v-1.23c-.62,.59-1.18,1.11-2.22,.68,.52,.87,.43,1.46-.24,2.12Zm-28.39,3.41c.24-.04,.42-.08,.6-.1,.16-.02,.32-.03,.51-.05l.76,1.15,.25-1.47,1.08-.15c-.09-.51-.64-.53-.91-.98v-1.24c-.6,.74-1.24,1.04-2.04,.89q.22,.95-.25,1.95Zm23.7,13.23l-1.1-.89v-1.22c-.63,.53-1.16,1.11-2.2,.64,.46,.87,.44,1.48-.29,2.11l1.3-.16,.78,1.19,.25-1.53,1.26-.14Zm15.68-1.6l-1.12-.92v-1.35c-.55,.86-1.2,1.07-2.07,.93,.33,.72,.37,1.33-.43,1.97l1.33-.15,.66,.99c.45-.38,.11-.94,.45-1.35l1.17-.13Zm-14.07,9.07c-.73-.59-1.47-1.06-1.11-2.09-.58,.56-1.16,.95-2.05,.7,.2,.74,.47,1.41-.42,1.9l.25,.09,1.04-.13,.78,1.16,.24-1.52,1.27-.11Zm-6.2-92.78c-.61,.79-1.22,1.11-2.16,.87l.37,1.05-.64,.96,1.2-.15,.77,1.14,.22-1.46,1.29-.17-1.13-.92,.06-1.32Zm8.93,53.32l.77,1.14,.26-1.43,1.31-.24c-.89-.51-1.45-1.03-1.25-2.02-.26,.23-.48,.54-.79,.67-.31,.13-.7,.09-1.14,.13,.08,.6,.55,1.28-.47,1.71l.3,.17,1-.13Zm-20.13-34.32l.35,1.02-.62,.98,1.16-.18,.8,1.11,.24-1.43,1.27-.15-1.1-.91v-1.36c-.56,.88-1.22,1.09-2.1,.92Zm-.53,60.51c.33,.86,.47,1.48-.4,2.09l1.36-.08,.76,1.12,.24-1.46,1.16-.14c-.23-.49-.69-.6-1.01-.95v-1.27c-.61,.63-1.1,1.23-2.12,.7Zm15.35,18.95c.17,.8,.57,1.46-.41,1.91l.24,.12,1.08-.07,.76,1.12,.24-1.46,1.15-.14c-.23-.49-.68-.6-1.05-1v-1.3c-.56,.83-1.09,1.24-2.01,.82Zm-14.42-24.74l.68,1.02c.44-.39,.12-.94,.44-1.36l1.17-.12-1.12-.92v-1.34c-.56,.85-1.2,1.08-2.07,.92,.33,.72,.38,1.33-.26,1.84l.16,.13,.99-.17Zm28.46-46.01v-1.32c-.58,.76-1.19,1.07-2.12,.83l.37,1.05-.64,.96,1.19-.15,.78,1.14,.23-1.46,1.32-.17-1.13-.88Zm-2.53,17.89c-.58,.73-1.15,1.14-2.08,.83,.3,.76,.43,1.38-.43,1.99l1.36-.09,.76,1.12,.24-1.46,1.16-.14c-.24-.49-.69-.6-1.01-.95v-1.3Zm3.83-30.79l.37,1.01-.66,.93,1.22-.13,.74,1.1,.3-1.45,1.26-.15-1.14-.92,.07-1.05-.18-.14c-.43,.79-1.13,.88-1.97,.79Zm-23.43,88.62l-1.1-.89v-1.27c-.6,.67-1.22,1.03-2.11,.82,.29,.73,.5,1.37-.37,1.85l.23,.11,1.05-.14,.78,1.18,.25-1.52,1.26-.14Zm-1.98-87.46l1.19-.15,.78,1.14,.23-1.46,1.31-.17-1.13-.88v-1.3c-.59,.7-1.17,1.12-2.14,.74l.4,1.13-.64,.96Zm2.07,61.07l.26-1.46,1.25-.21-1.12-.92,.05-1.24c-.65,.62-1.18,1.19-2.29,.68,.55,.89,.52,1.46-.24,2.08l1.36-.06,.73,1.14Zm23.53-3.27c-.58,.73-1.15,1.14-2.08,.83,.3,.76,.43,1.38-.43,1.99l1.36-.09,.76,1.12,.24-1.46,1.16-.14c-.24-.49-.69-.6-1.01-.95v-1.3Zm-18.01-62.43l.23-1.47,1.29-.17-1.13-.93,.08-1.31c-.64,.79-1.27,1.15-2.22,.84l.43,1.06-.65,.97,1.21-.15,.76,1.15Zm8.74,21.51l.4,1.08-.68,.94,1.23-.14,.73,1.11,.3-1.45,1.25-.16-1.14-.92,.08-1.05-.19-.12c-.45,.73-1.11,.94-2,.71Zm10.7,29.44q.23,.95-.32,1.8l1.18-.05,.59,.93h.19l.2-1.26,1.26-.21-1.12-.92,.05-1.22q-.9,.8-2.03,.93Zm-6.89,32.56c.25,.7,.4,1.33-.19,1.94l1.08-.1,.77,1.15,.24-1.49,1.25-.16c-.72-.56-1.43-1.04-1.14-2.07-.51,.75-1.17,.84-2.01,.74Zm-14.36-63.51l.24-1.42,1.28-.22-1.13-.92,.09-1.23c-.67,.57-1.21,1.15-2.19,.75l.39,1.08-.58,.86h1.19l.71,1.09Zm-9.97,6.23c-.66,.65-1.23,1.16-2.19,.82l.38,1.07-.59,.86h1.19l.73,1.06,.23-1.41,1.28-.22-1.14-.92,.1-1.26Zm22.38-32.22l.36,.91-.63,.91,1.19-.07,.76,1.08,.23-1.42,1.32-.17-1.13-.9v-1.15q-1.1,.72-2.11,.81ZM14.54,179.39l-.6,.89h1.19l.71,1.1,.24-1.42,1.28-.22-1.13-.91,.08-1.23c-.66,.56-1.19,1.16-2.06,.8l-.1,.18,.37,.82Zm40.42-47.46l-.61,.94,1.18-.07,.76,1.08,.23-1.42,1.3-.17-1.12-.91v-1.32c-.59,.8-1.24,1.1-2.14,.9l.4,.98Zm-8.35-24.7l.06-1.13q-1.16,.74-2.12,.81l.36,.92-.63,.9,1.2-.06,.76,1.08,.23-1.42,1.08-.14,.06-.19-1-.77Zm-16.57,9.17l-1.11-.91v-1.33c-.59,.82-1.24,1.1-2.14,.91l.41,.97-.6,.95,1.2-.07,.71,1.12,.25-1.45,1.29-.18Zm31.58-22.93l-1.11-.91v-1.33c-.59,.82-1.24,1.1-2.14,.91l.41,.97-.6,.95,1.2-.07,.71,1.12,.25-1.45,1.29-.18ZM16.15,186.86l-.63,.91,1.19-.06,.76,1.08,.23-1.42,1.32-.17-1.14-.9v-1.31c-.6,.73-1.22,1.11-2.15,.85l.41,1.03Zm29.35-86.06c.15-.02,.31-.05,.63-.11l-1.12-.92,.07-1.23c-.66,.55-1.19,1.15-2.08,.79l.26,1.54,1.4,1.28,.18-1.28c.27-.03,.47-.04,.66-.06Zm-.04-13.47c.13,.42,.28,.69,.28,.95,0,.24-.15,.48-.25,.77l1.73,.37,.21-.55,1.23-.13c-.75-.57-1.44-1.05-1.16-2.08-.54,.68-1.15,.92-2.04,.67Zm-26.26,47.58c-.19-.28-.93-.16-.8-1.11l-.8,1.28,1.12-.08,.77,1.09,.23-1.42,1.28-.17-1.13-.93,.07-1.21-1.31,1.06,.83,.05,.59,.67-.85,.78Z"/><path class="d" d="M81.74,113.82l1.31-.15-1.09-.9v-1.26c-.6,.66-1.22,1.02-2.12,.82,.33,.74,.48,1.36-.35,1.86l.23,.11,.97-.13c.51,.22,.32,1.09,1.07,.94-1.07,1-2.14,2-3.21,2.99-1-.13-.3-.98-.69-1.63-.35,1.06-1.19,.88-1.95,.97l.36,.95-.64,.97,1.21-.17,.87,1.32c-1.57,3.12-2.03,6.58-2.64,10-.98-.16-.12-1.01-.62-1.43-.42,.79-1.1,.88-1.9,.68l.18,1.7,1.46,1.11c.36-.35-.24-1.3,.82-1.27,0,.3,.03,.57,0,.82-.35,3.03-.7,6.05-1.06,9.08-.15,1.26-.43,2.52-.44,3.79-.04,4.76,.02,9.52,.03,14.28,0,2.8,.66,5.51,1.01,8.27,.14,1.11-.39,1.89-1.56,1.87-.15,0-.3,.03-.51,.05l.37,.93-.59,.92,1.15-.06c.37,.26,.31,.81,.85,.89l.09-1.43-.14-.02-.22,.5-.84-.46-.1-1.02c.61-.08,1.17-.18,1.52,.33l.11-1.07h.22l1.48,6.81c-.66,.76-1.25,1.32-2.32,1.02l.41,1.02-.61,.92,1.18-.07,.77,1.1,.22-1.64-.15-.05-.28,.55-.84-.46-.11-1.11,1.5,.21,.17-.62,.2,.03c.62,5.32,1.22,10.65,.55,16.09-.91-.42-1.67-.86-2.48-1.13-1.43-.48-2.92-.71-4.45-.68-1.61,.03-3.21-.03-4.8-.36-1.47-.31-2.91-.71-4.25-1.42,.05-.45,.07-.81,.12-1.18,.02-.16,.09-.32,.15-.47,1-2.68,1.69-5.43,1.88-8.29,.04-.65,.3-1.29,.41-1.94,.21-1.18,.51-2.36,.54-3.55,.05-1.6-.17-3.21-.17-4.82,0-1.91,.12-3.81,.19-5.72,0-.03,0-.08,0-.1,.11-.15,.21-.37,.35-.41,.14-.03,.38,.08,.49,.21,.19,.21,.31,.48,.58,.92l.29-1.51,1.23-.19-1.11-.87v-1.27c-.56,.53-.97,1.17-1.77,.71,0-1.28-.03-2.55,0-3.81,.08-2.41,.22-4.82,.3-7.23,.1-2.97,.1-5.94,.26-8.9,.12-2.21,.37-4.41,.64-6.6,.16-1.32,.48-2.62,.76-4.08,.19,.25,.28,.38,.38,.48,.1,.1,.22,.17,.37,.29l.21-1.31,1.27-.19-1.13-.88,.06-1.18-.78,.41c.14-.66,.28-1.17,.36-1.7,.48-3.25,.91-6.5,1.43-9.74,.25-1.58,.64-3.14,.99-4.71,.09-.41,.25-.81,.38-1.22l.63,.3,.2-1.26,1.24-.21-.92-.86c.41-.18,.7-.35,1.02-.43,.48-.11,1.06-.36,1.44-.2,1.71,.74,3.55,.98,5.32,1.44,1.85,.48,3.72,.82,5.65,.76,1.21-.04,2.29-.32,3.34-.92,2.05-1.17,3.66-2.83,5.06-4.68,1.21-1.6,2.28-3.31,2.7-5.33,.06-.28,.23-.53,.37-.83,2.17,.61,4.26,1.2,6.35,1.81,.25,.07,.47,.29,.72,.45l-.69,1.11,1.19-.16,.77,1.11,.26-1.47,1.3-.13-1.17-1.06v-.97l-.15-.07-.55,.85c-2.64-1.25-5.11-2.41-7.59-3.58,.13-.91,.28-1.73,.35-2.56,.09-1.08,.56-1.84,1.63-2.17,.26-1.29,.72-1.68,1.99-1.66,.27,0,.54,.02,.8,.03,1.77,.06,3.55,.14,5.32,.17,.77,.02,1.54-.12,2.3-.06,1.67,.13,3.33,.38,5,.5,1.17,.08,2.34,.04,3.52,.03,4.79-.08,9.57-.66,14.36-.07,2.06,.25,4.13,.43,6.2,.64,.2,.02,.43,.03,.58,.14,.16,.11,.23,.34,.32,.48l.99-.07,.72,1.06,.27-1.14c2.63-.07,8.21,1.04,9.3,1.85-.59,.91-1.05,1.88-1.03,2.99,.01,1.2,.1,2.41,.15,3.61,.02,.39,.06,.78,.1,1.34-6.53-.69-12.98-.37-19.52-.59l.11-1.34,1.3-.18-1.13-.9,.06-1.08c-.61,.59-1.29,.8-2.17,.68l.4,.99-.59,.88q1.32,0,1.52,.88c-.81,0-1.61-.03-2.4,0-1.13,.06-2.27,.13-3.4,.26-1.13,.13-2.24,.35-3.37,.5-.59,.08-.71-.07-.68-.65,0-.21,0-.42,0-.88-.57,.87-1.25,1.08-2.18,.94l.43,.68c.45-.5,.58-.51,1.45-.25q-.32,.36-.67,.4c-3.56,.4-7.12,.77-10.57,1.78-1.28,.37-2.62,.57-3.89,.98-2.55,.82-5.05,1.77-7.6,2.59-1.88,.61-3.79,1.16-5.52,2.13-1.37,.77-2.66,1.67-4.01,2.48-1.79,1.06-3.4,2.37-4.95,3.75v-1.31Zm-11.44,9.37l.75,.13-.25,1.01c.69,.09,1.41,.05,1.82,.81l.21-1.26,1.28-.17-1.13-.92,.07-1.29c-.63,.69-1.17,1.18-1.96,.75l-.78,.93Zm-.21,13.62l-1.12-.92v-1.15q-.94,.72-2.07,.79l.32,.94-.62,.98,1.19-.17,.77,1.12,.25-1.47,1.28-.12Zm32.85-44.38l.09-1.25c-.67,.63-1.24,1.15-2.21,.72l.41,1.14-.67,.93,1.22-.13,.74,1.1,.29-1.45,1.26-.15-1.14-.92Zm-32.63,65.16l.78,1.18,.24-1.48,1.24-.2-1.07-.87v-1.27c-.6,.67-1.22,1.03-2.14,.82,.43,.75,.36,1.35-.04,1.99l.98-.16Zm-5.16,12.62l1.35-.12,.77,1.15,.24-1.49,1.25-.15c-.73-.56-1.43-1.05-1.1-2.07-.57,.6-1.16,.94-2.22,.67,.55,.83,.47,1.39-.29,2.03Zm5.73-22.3c-.59,.55-1.13,1.02-2.07,.68,.26,.75,.43,1.38-.17,1.97l1.08-.06,.76,1.11,.26-1.44,1.31-.23c-.89-.51-1.46-1.03-1.16-2.04Zm71.47-50.56l.11-1.25c-.68,.61-1.23,1.16-2.2,.79l.38,1.07-.59,.86h1.2l.71,1.08,.24-1.41,1.28-.22-1.13-.92Zm-32.48,1.41l.4,.99-.61,.94,1.18-.07,.76,1.08,.23-1.42,1.3-.17-1.12-.91v-1.33c-.59,.79-1.23,1.11-2.15,.89Zm-41.64,85.56h1.2l.73,1.05,.23-1.42,1.29-.17-1.15-.96,.09-1.27c-.65,.7-1.23,1.16-2.18,.85l.39,1.06-.6,.86Zm68.62-88.45l-1.13-.92,.08-1.22c-.39,.32-.64,.63-.96,.76-.34,.13-.75,.09-1.22,.13l.4,.9-.59,.88h1.19l.71,1.11,.24-1.44,1.29-.19Zm-19.15-3.6c-.66,.65-1.23,1.16-2.19,.82l.38,1.07-.59,.86h1.19l.73,1.06,.23-1.41,1.28-.22-1.14-.92,.1-1.26Zm-45.31,23.45v-1.33c-.6,.75-1.22,1.11-2.15,.86l.41,1.02-.62,.91,1.19-.07,.76,1.08,.23-1.42,1.09-.14,.06-.19-.96-.72Z"/><path class="d" d="M72.69,97.83l1.23,.42c0-.5,0-.94,0-1.38,0-.82,0-1.64,0-2.47l-.02,.02c1.08,.44,2.14,.96,3.26,1.3,2.26,.69,4.35,1.72,6.38,2.9,.37,.22,.77,.41,1.17,.57,.36,.15,1.1-.11,1.27-.49,.16-.36,.39-.76,0-1.2-.7-.79-1.28-1.65-2.32-2.13-.81-.38-1.57-.76-2.45-.54-.76,.19-1.45,0-2.15-.22-1.66-.53-3.29-1.15-5.05-1.23-.05,0-.1-.08-.21-.17-.1-1.38-.13-2.8,.14-4.26h1.31c.24-.42,.13-.73-.3-.85-.1-.03-.29,.3-.5,.53-2.83-.86-5.16-2.62-7.24-4.76,2.01,1.65,4.16,3.07,6.65,4.11,.29-1.24,.57-2.41,.85-3.57,.1-.42,.17-.86,.34-1.25,.56-1.32,.92-2.71,1.68-3.95,.54-.88,.99-1.79,1.82-2.47,.29-.24,.55-.62,.65-.99,.24-.88,.81-1.5,1.55-1.88,1.18-.6,2.41-1.23,3.69-1.51,1.35-.3,2.8-.31,4.05,.62,.34,.25,.77,.4,1.15,.59l-.03-.03c.65,.67,1.35,1.29,1.94,2.01,1.7,2.11,2.84,4.56,3.74,7.06,.91,2.5,.79,5.21,.94,7.85,.01,.22-.03,.51-.16,.65-.96,.94-1.9,1.89-3.37,2.02-.65,.06-1.28,.31-1.93,.44-.17,.03-.39-.02-.56-.1-.92-.4-1.87-.76-2.73-1.27-.58-.34-.97-.18-1.34,.18-.65,.62-1.04,1.38-1,2.32,.03,.79,.1,.88,.9,1.07,.77,.18,1.54,.37,2.24,.54,.13,.49-.13,.57-.36,.71-.99,.62-.98,.63-.08,1.36,.04,.03,.04,.12,.06,.17-.17,.36-.82,.64-.43,1.09,.39,.45,.79-.08,1.13-.27,.79-.44,1.52-.98,2.34-1.36,.45-.21,.64-.47,.6-.97l3.79,.9c-.27,.9-.42,1.73-.76,2.47-.91,1.99-2.13,3.8-3.67,5.36-2.09,2.12-4.31,3.85-7.6,3.6-2.1-.16-3.84-.9-5.26-2.36-1.42-1.46-2.13-3.38-3.1-5.17-.58,.23-.93-.15-1.24-.62l.4,.18c-.17-.37-.35-.7-.8-.67l-1.19-1.8,.63-1.13-.02,.02Zm7.35-7.45c.83,.52,2.04,.16,2.52-.68,.87-1.53,.72-3.51-.39-4.88-.94-1.17-2.33-1.11-3.14,.16-.5,.77-.71,1.65-.72,2.98-.07,.93,.7,1.77,1.73,2.42Zm10.44-.57c.23,.75,.84,1.11,1.58,1.2,.74,.08,1.14-.42,1.49-.99,.64-1.06,.55-2.17,.19-3.28-.08-.25-.23-.49-.41-.68-1.17-1.33-2.39-.85-2.86,.44-.18,.49-.27,1.02-.39,1.51,.14,.65,.23,1.24,.4,1.81Zm-12.17-7.81c.11-.11,.24-.24,.37-.26,1.12-.15,2.23-.37,3.36-.38,.55,0,1.1,.36,1.64,.55,.09-.85-.24-1.39-.91-1.83-1.38-.91-2.63-.36-3.87,.26-.32,.16-.64,.37-.89,.63-.24,.25-.39,.59-.6,.92,.28,.3,.55,.48,.91,.11Zm14.27,.53l.3,.59,1.48-.38c.01-.11,.09-.27,.04-.35-.65-.94-1.46-1.64-2.64-1.82-.49-.08-.79,.08-.91,.54-.12,.48-.2,.96-.32,1.53,.8,.19,1.44,.5,2.05-.11Zm-10.2,17.73c1.74,.4,3.49,.83,5.25,1.19,.79,.16,1.6,0,2.35-.33,.21-.09,.36-.3,.69-.58-.39-.05-.57-.14-.69-.08-1.43,.65-2.83,.2-4.23-.09-1.1-.23-2.18-.58-3.38-.9v.8Zm-8.34,.04c-.64-.53,.62-1.06-.05-1.59l-.46,.88c-.63-.29-.19-.76-.35-1.12l-.58,.5c.39,1.05,1.23,1.63,2.12,2.25l-.2-1.08-.48,.15Z"/><path class="d" d="M88.47,42.14c.04,.38-.04,1.02,.15,1.11,.57,.26,.43,.71,.47,1.11,.17,1.5,.28,3,.49,4.49,.12,.88,.15,1.69-.57,2.17,.36,.53,.81,.95,.96,1.46,.46,1.57,.93,3.16,1.15,4.78,.28,2.09,.31,4.2,.47,6.31,.06,.8-.21,1.43-.83,1.92l.04-.03-.32,.1c.21,.36,.85,.38,.71,.94v-.02l-.12,.6,.89-.22c.08,.37,.16,.69,.22,1.01,.27,1.57,.54,3.13,.78,4.71,.03,.23-.09,.48-.15,.72l-1.19-1.67-.63-1.14,.03,.04c-.45-.57-.86-1.18-1.36-1.69-.2-.21-.6-.3-.91-.31-.86-.04-1.72-.01-2.73-.01l.46-.53c-.68-.27-1.23-.66-1.07-1.6-.52,.59-1.02,.96-1.85,.74,.09,.22,.12,.33,.17,.43,.23,.5,.12,.77-.4,.8-.46,.03-.93-.03-1.4-.06h.04c-.75-.23-1.51-.33-2.26,.02l.04-.03c-.41,.13-.84,.21-1.23,.39-1.52,.69-3.01,1.46-4.56,2.08-.82,.33-1.74,.48-2.63,.55-1.2,.1-2.41,.06-3.62,.06-.38,0-.75-.09-1.32-.16,.25-.45,.4-.73,.57-1,1.03-1.61,2.07-3.2,3.1-4.81,.38-.59,.7-1.22,1.45-1.07,.2-.58,.29-1.12,.56-1.55,1.68-2.78,3.39-5.54,5.11-8.29,.29-.46,.71-.84,1.13-1.34l.75,1.27,.17-1.25,.99-.22c-.11-.15-.14-.25-.22-.31-1.06-.78-1.14-1.24-.42-2.31,1.06-1.58,2.45-2.93,3.25-4.69,.08-.18,.25-.31,.36-.48,.83-1.21,1.67-2.42,2.49-3.64,.39-.58,.72-1.21,1.11-1.79,.11-.17,.33-.35,.52-.37,.57-.08,.79-.59,.68-.91-.28-.83,.39-1.05,.73-1.5,.07,.39,.07,.75,.07,1.12,0,.77-.07,1.54,0,2.31,.07,.66,.15,1.28-.32,1.82v-.02Zm-17.66,27.71l.38,.59c0-.79,.08-1.36,1.07-1.51l-1.14-.49-.12-.74-1.22,.94v1.33l1.02-.12h0Zm14.66-19.65l.14-.08-.11-1.05,.84-.49v-.18l-1.1-.15-.79-1.47c-.46,.87-.61,1.73-1.68,1.99l.89,.7,.16,1.11,.67-1.07h.32l.66,.69Zm2,7.89c-.7-.61-1.45-1.08-1.1-2.11-.59,.57-1.14,1.01-2.08,.69,.27,.75,.43,1.38-.16,1.97l1.07-.06,.76,1.11,.25-1.47,1.25-.13Zm-10.38,4.95l-1.52,.77-.36,1.59,.99-.27,.55,.98,.22-.85,.87-.12c-.67-.61-.61-1.4-.76-2.1Z"/><path class="d" d="M93.32,75.54c-.36-.35-.69-.65-1-.98-.45-.48-.89-.97-1.34-1.45l-.39-.75c-.05,.37,.05,.64,.41,.73,.67,1.11,1.16,2.35,2.25,3.2l-.29,.55c-.87-.95-1.71-1.89-2.57-2.8-.21-.22-.52-.34-.79-.51l.03,.03c-.39-.29-.76-.61-1.16-.88-1.58-1.08-3.28-.96-5-.42-.67,.21-1.33,.47-1.96,.77-.45,.21-.84,.26-1.33,.09-.42-.15-.96-.25-1.36-.11-.89,.3-1.78,.24-2.67,.3-.83,.06-1.65,.23-2.48,.33-.49,.06-.98,.12-1.48,.13-.58,0-1.16-.08-1.68,.27,1,.07,2,.11,2.99,.06,1.2-.06,2.39-.18,3.59-.28,.49-.04,.99-.07,1.48-.13,.51-.06,1.03-.24,1.45,.08-1.25,1.68-2.48,3.34-3.67,4.93-1.01-.15-2.07-.27-3.11-.45-1.15-.2-2.3-.42-3.43-.71-1.15-.29-2.17-.88-3.13-1.56-.62-.44-1.28-.86-1.82-1.39-.25-.24-.39-.72-.37-1.07,.09-1.13,1.18-1.98,2.34-1.95,1.57,.04,3.14,.08,4.72,.1,1.05,.02,2.06-.24,3.02-.66,.46-.2,.93-.38,1.38-.6,1.31-.64,2.63-1.26,3.78-2.18l-.04,.03h2.26l-.04-.02,2.74,.48-.03-.02c.63,.05,1.25,.1,1.88,.14,.27,.02,.54,.03,.8,.01,1.39-.06,2.66,.15,3.45,1.5,.04,.07,.17,.09,.25,.13l-.03-.04,.63,1.14c.4,.56,.79,1.11,1.19,1.67q.78,1.64,.54,2.26Zm-24.54-.73c.06,.08,.12,.16,.18,.23,.07,.07,.15,.13,.23,.19,1.06,.85,2.31,1.32,3.56,1.77,.31,.11,.64,.2,.79-.36-1.77-.31-3.23-1.08-4.77-1.82Zm15.2-3.53c-1.05,.18-1.99-.77-3.06-.24,1.28,.29,2.49,1.05,3.87,.52v-.22c-.26-.02-.55-.11-.81-.06Z"/><path class="d" d="M47.07,167.48c-1.18,.71-2.14,1.53-2.86,2.67-.66,1.03-1.49,1.95-2.3,2.99,1.2,1.35,2.5,2.59,3.89,3.74,1.56,1.28,3.22,2.4,5.12,3.11,1.36,.5,2.74,.88,4.21,.69,.18-.02,.39,.03,.57,.09,.5,.15,.99,.34,1.5,.46,.48,.11,.87-.07,1.01-.58,.11-.45,.18-.9,.25-1.24,.39-.3,.78-.5,1.02-.81,.29-.37,.14-.88-.24-1.02-.9-.31-1.71-.89-2.72-.81-.49,.04-.98,.12-1.47,.17-.22,.03-.48,.13-.66,.05-1.1-.49-2.2-.97-2.86-2.09-1.25-2.13-2.53-4.25-3.8-6.37-.2-.34-.42-.67-.64-1.04Z"/><path class="d" d="M174.64,102.6c.04,.4,.05,.8,.04,1.2-.02,.99-.44,1.79-1.13,2.49-.99,1-2.26,1.22-3.55,1.46-1.83,.34-2.54-.53-3.13-1.97-.39-.94-.04-1.67,.83-2.13,.7,1.37,1.16,1.7,2.22,1.49-1.07-.24-1.72-.8-1.92-1.84,.79-.61,1.69-.4,2.54-.5l.41-.83,.37,.44c.21-.36,.01-.59-.19-.81-.31-.34,.28-.56,.17-.69-.59-.69,.03-1.08,.3-1.61,1.91,.43,2.88,1.52,3.05,3.31Zm-5.45,4.17l-1.43-1.04c.47,.82,.67,.95,1.43,1.04Z"/><path class="d" d="M85.79,95.09c5.63,1.44,11.15,2.85,16.85,4.3-.36-.21-.57-.35-.79-.46-2.11-1-4.22-2.02-6.35-2.98-1.12-.51-2.31-.87-3.45-1.35-.89-.37-1.75-.8-2.63-1.21-.55-.25-1.09-.51-1.65-.74-.63-.26-.96-.18-1.41,.34-.53,.61-.81,1.3-.58,2.09Z"/><path class="d" d="M170.43,137.78c3.45,1.02,4.85,5.87,2.48,8.58-1.07,1.22-2.41,1.63-3.99,1.17-3.5-1.02-4.88-6.1-2.37-8.74,.73-.77,1.62-1.17,2.7-1.16,.4,.05,.81,.04,1.18,.16Zm-2.14,8.44c1.79,1.18,3.8,.54,4.62-1.44,1.07-2.58-.25-5.55-2.9-6.43-.93-.31-1.79-.03-2.51,.62-.91,.84-1.33,1.9-1.32,3.5,.06,1.34,.64,2.79,2.1,3.75Z"/><path class="d" d="M150.85,100.97c.52-2.39,.25-4.97,1.7-7.28-.41-.12-.75-.22-1.08-.31-.68-.16-.99-.09-1.3,.55-.31,.65-.63,1.37-.67,2.08-.07,1.4,.03,2.81,.12,4.21,.05,.84,.22,.9,1.23,.75Z"/><path class="d" d="M46.06,166.79c-.19-.23-.09-.79-.72-.83-.07,0-.11-.48-.2-.86-1.05,.88-1.97,1.75-2.73,2.75-.52,.69-1.01,1.43-1.43,2.18-.22,.39-.34,.88-.36,1.33-.01,.23,.25,.56,.47,.68,.13,.07,.5-.11,.65-.28,.63-.7,1.2-1.44,1.82-2.15,.81-.93,1.63-1.85,2.5-2.82Z"/><path class="d" d="M93.75,95.02l1.91,.69c.44-.89,.61-2,.46-3.15-1.09,.54-1.92,1.22-2.37,2.46Z"/><path class="d" d="M73.89,94.42c-.18-.18-.39-.33-.54-.53-.08-.1-.05-.28-.08-.44l-4.26-.96-.05,.14c1.65,.59,3.3,1.19,4.95,1.78l-.02,.02Z"/><path class="d" d="M64.19,113.16l.11,1.02,.78,.43,.81-.81-.53-.65h-1.16Z"/><path class="d" d="M47.78,162.22h-1.16l.09,1.06,.75,.38,.84-.74-.52-.69Z"/><path class="d" d="M32.81,110.39l.12,1,.74,.41,.83-.75c-.32-.71-.91-.85-1.68-.66Z"/><path class="d" d="M16.22,144.93h-1.18l.11,1.05,.71,.37,.85-.72-.49-.7Z"/><path class="d" d="M44.88,134.16l-.52-.69h-1.16l.09,1.06,.75,.38,.84-.74Z"/><path class="d" d="M51.76,83.12l.72,.37,.83-.72-.48-.7h-1.2l.13,1.04Z"/><path class="d" d="M29.71,148.84h-1.2l.11,1.04,.72,.39,.84-.71-.46-.72Z"/><path class="d" d="M76.56,118.69l.74,.43,.85-.75-.52-.71h-1.15l.08,1.03Z"/><path class="d" d="M40.97,153.67h-1.2l.11,1.04,.72,.38,.83-.7-.46-.72Z"/><path class="d" d="M130.06,98.67l-.53-.72h-1.16l.09,1.03,.73,.41,.87-.73Z"/><path class="d" d="M64.5,161.13l.13,1.03,.72,.38,.84-.72-.48-.7h-1.2Z"/><path class="d" d="M66.31,103l.77,.46,.69-.81-.38-.68h-1.18l.1,1.02Z"/><path class="d" d="M64.71,95.57l.78,.45,.66-.83-.36-.66h-1.19l.1,1.04Z"/><path class="d" d="M41.77,128.34l.79,.47,.63-.83-.32-.65h-1.2l.1,1.01Z"/><path class="d" d="M32.05,138.84l.85-.76-.53-.71-1.03,.06v.97l.71,.44Z"/><path class="d" d="M74.76,130.87l-.53-.72h-1.12c-.1,.74,.23,1.16,.77,1.37l.88-.66Z"/><path class="d" d="M45.19,115.88l.85,.49c.02-.52,.92-.88,.17-1.52h-1.11l.1,1.03Z"/><path class="d" d="M29.6,129.92l.1,1.05,.88,.48,.22-1.43-1.2-.11Z"/><path class="d" d="M58.66,85.71c-.38-.36-.63-.85-1.28-.7l.08,1.01,.83,.47,.37-.78Z"/><path class="d" d="M47.17,191.56c.45-.41,1.25-.27,1.09-1.15h-1.26l.16,1.15Z"/><path class="d" d="M61.88,133.44l-1.08-.1,.08,1.07,.79,.31,.21-1.27Z"/><path class="d" d="M66.63,129.77l.88-.72-.54-.72c-.62,.37-.7,.7-.34,1.44Z"/><path class="d" d="M78.81,53.26l.57-.55-.64-.95-.56,.99,.62,.51Z"/><path class="d" d="M91.18,66.46h.78l-.19-1.37c-.36,.14-.69,.26-1.02,.39l.04-.03c.14,.13,.29,.26,.43,.39,.22,.23,.21,.45-.04,.64v-.02Z"/><path class="d" d="M103.96,101.29l.29-.71q-.89-.38-1.16,.18l.87,.53Z"/><path class="d" d="M70.06,109.59l.95-.86c-.31-.07-.63-.25-.79-.16-.42,.24-.34,.66-.16,1.02Z"/><path class="d" d="M72.69,97.83l-1.12-1.15c.11,.69,.6,.94,1.15,1.13l-.02,.02Z"/><path d="M73.69,101.24l.4,.18c-.17-.37-.35-.7-.8-.67l.41,.5Z"/><path class="d" d="M65.31,81.85l.44,.66,.11-.06-.42-.67-.12,.08Z"/><path class="d" d="M151.83,92.99l1,.24,.06-.23-.99-.3-.08,.3Z"/><path class="d" d="M42.78,134.53l.17-.64-.2-.07-.23,.61,.26,.1Z"/><path class="d" d="M88.47,42.14l.46,.99,.05-1.11c-.23,.07-.37,.12-.51,.15,0,0,0-.03,0-.03Z"/><path d="M40.77,87.91l-.74-1.1-1.22,.13,.67-.93-.38-1.04c.9,.23,1.53-.13,2.18-.85l-.09,1.29,1.14,.92-1.26,.15-.29,1.45Zm-.28-1.18l.87-.73-.53-.72h-1.17l.1,1.03,.73,.42Z"/><path d="M37.36,157.33c-.62,1.15,.44,1.47,.96,2.13l-1.18,.14-.26,1.46-.76-1.11-1.3,.08c.68-.61,.82-1.17,.42-1.88,.91,.22,1.46-.24,2.11-.83Zm-.43,1.09h-1.16l.08,1.05,.74,.36,.85-.75-.51-.66Z"/><path d="M25.77,178.16c.73-.62,.74-1.23,.25-2.15,1.1,.61,1.58-.1,2.23-.57v1.19l1.08,.9-1.27,.22-.21,1.43-.78-1.14-1.3,.12Zm1.03-.6l.73,.37,.82-.71c-.27-.86-.96-.78-1.66-.7l.11,1.04Z"/><path d="M47.96,154.98v1.23l1.06,.91-1.22,.17-.26,1.47-.77-1.16-1.27,.17c.66-.65,.76-1.24,.24-2.12,1.04,.43,1.6-.08,2.22-.68Zm-.36,1.12h-1.2l.13,1.04,.71,.38,.85-.73-.49-.69Z"/><path d="M19.41,158.33v1.24c.28,.45,.83,.47,.91,.98l-1.08,.15-.25,1.47-.76-1.15c-.18,.02-.35,.03-.51,.05-.18,.03-.36,.06-.6,.1q.48-1,.25-1.95c.8,.14,1.44-.15,2.04-.89Zm.13,1.9l-.5-.73h-1.19l.11,1.03,.7,.39,.88-.69Z"/><path d="M39.3,176.08l-.78-1.19-1.3,.16c.73-.64,.75-1.24,.29-2.11,1.03,.47,1.57-.11,2.2-.64v1.22l1.1,.89-1.26,.14-.25,1.53Zm-.3-1.27l.83-.71-.47-.7h-1.22l.14,1.04,.72,.38Z"/><path d="M54.88,174.29l-.66-.99-1.33,.15c.8-.64,.76-1.25,.43-1.97,.87,.14,1.52-.07,2.07-.93v1.35l1.12,.92-1.17,.13c-.34,.42,0,.97-.45,1.35Zm.17-2.51h-1.2l.13,1.03,.71,.39,.85-.73-.48-.69Z"/><path d="M40.92,183.5l-.78-1.16-1.04,.13-.25-.09c.89-.49,.61-1.16,.42-1.9,.9,.26,1.47-.13,2.05-.7-.36,1.03,.38,1.5,1.11,2.09l-1.27,.11-.24,1.52Zm-1.16-2.67l.13,1.03,.71,.38,.84-.72-.47-.7h-1.21Z"/><path d="M37.29,91.34l-1.29,.17-.22,1.46-.77-1.14-1.2,.15,.64-.96-.37-1.05c.93,.25,1.54-.08,2.16-.87l-.06,1.32,1.13,.92Zm-1.49-1.02h-1.16l.1,1.02,.74,.44,.84-.77-.52-.68Z"/><path d="M43.86,142.38c1.02-.43,.54-1.11,.47-1.71,.43-.04,.82,0,1.14-.13,.3-.13,.53-.44,.79-.67-.2,.99,.36,1.51,1.25,2.02l-1.31,.24-.26,1.43-.77-1.14-1,.13-.3-.17Zm2.12-1.46h-1.16l.08,1.05,.74,.36,.85-.75-.51-.66Z"/><path d="M27.13,108.54l1.1,.91-1.27,.15-.24,1.43-.8-1.11-1.16,.18,.62-.98-.35-1.02c.88,.17,1.54-.04,2.1-.92v1.36Zm-.39-.13h-1.15l.1,1.03,.86,.5c.09-.38,.19-.79,.96-.53l-.76-1Z"/><path d="M26.62,169.18c.32,.35,.77,.46,1.01,.95l-1.16,.14-.24,1.46-.76-1.12-1.36,.08c.87-.61,.73-1.23,.4-2.09,1.02,.53,1.51-.07,2.12-.7v1.27Zm.14,.59l-.48-.69h-1.19l.1,1.05,.73,.37,.84-.73Z"/><path d="M41.86,188.03c.37,.4,.82,.52,1.05,1l-1.15,.14-.24,1.46-.76-1.12-1.08,.07-.24-.12c.98-.45,.58-1.11,.41-1.91,.92,.42,1.45,0,2.01-.82v1.3Zm-.32-.06h-1.16l.09,1.06,.75,.38,.84-.74-.52-.69Z"/><path d="M24.28,162.85c.64-.51,.59-1.12,.26-1.84,.87,.15,1.52-.07,2.07-.92v1.34l1.12,.92-1.17,.12c-.33,.42,0,.97-.44,1.36l-.68-1.02-.99,.17-.16-.13Zm.92-.49l.71,.39,.86-.71-.48-.7h-1.22l.13,1.02Z"/><path d="M53.7,117.86l-.23,1.46-.78-1.14-1.19,.15,.64-.96-.37-1.05c.92,.24,1.54-.08,2.12-.83v1.32l1.13,.88-1.32,.17Zm-1.37-1.19l.1,1.02,.74,.44,.84-.77-.51-.68h-1.17Z"/><path d="M52.37,136.94l-1.16,.14-.24,1.46-.76-1.12-1.36,.09c.86-.61,.73-1.23,.43-1.99,.94,.31,1.51-.1,2.08-.83v1.3c.32,.35,.77,.46,1.01,.95Zm-2.44,0l.73,.37,.82-.71c-.27-.86-.96-.78-1.66-.7l.11,1.04Z"/><path d="M57.35,103.25l-.07,1.05,1.14,.92-1.26,.15-.3,1.45-.74-1.1-1.22,.13,.66-.93-.37-1.01c.84,.1,1.54,0,1.97-.79l.18,.14Zm-.43,.94h-1.15l.09,1.03,.73,.42,.86-.74-.53-.71Z"/><path d="M30.25,194.17l-.78-1.18-1.05,.14-.23-.11c.87-.48,.66-1.12,.37-1.85,.89,.21,1.51-.15,2.11-.82v1.27l1.1,.89-1.26,.14-.25,1.52Zm.05-2.69h-1.19l.11,1.03,.72,.4,.86-.71-.49-.72Z"/><path d="M30.02,102.97c.98,.38,1.55-.04,2.14-.74v1.3l1.13,.88-1.31,.17-.23,1.46-.78-1.14-1.19,.15,.64-.96-.4-1.13Zm2.27,1.12l-.52-.71h-1.14l.07,1.03,.74,.43,.86-.74Z"/><path d="M29.76,165.05c.77-.62,.79-1.19,.24-2.08,1.1,.51,1.64-.06,2.29-.68l-.05,1.24,1.12,.92-1.25,.21-.26,1.46-.73-1.14-1.36,.06Zm2.12-1.62h-1.16l.09,1.06,.75,.38,.84-.74-.52-.69Z"/><path d="M56.4,165.1l-1.16,.14-.24,1.46-.76-1.12-1.36,.09c.86-.61,.73-1.23,.43-1.99,.94,.31,1.5-.1,2.08-.83v1.3c.32,.35,.77,.46,1.01,.95Zm-1.71,.36l.84-.73-.48-.69h-1.18l.09,1.06c.26,.13,.52,.25,.73,.36Z"/><path d="M31.56,145.64c.82-.38,.79-1.02,.39-1.86,.96,.32,1.52-.18,2.13-.77v1.23l1.08,.9-1.27,.22-.21,1.43-.72-1.05-1.43-.12,.02,.02Zm2.14-1.51h-1.17l.11,1.05,.72,.36,.86-.74-.52-.68Z"/><path d="M35.41,99.42l.65-.97-.43-1.06c.95,.31,1.58-.04,2.22-.84l-.08,1.31,1.13,.93-1.29,.17-.23,1.47-.76-1.15-1.21,.15Zm2.51-.96l-.51-.7h-1.17l.1,1.02,.73,.44,.85-.76Z"/><path d="M48.3,121.35l-.08,1.05,1.14,.92-1.25,.16-.3,1.45-.73-1.11-1.23,.14,.68-.94-.4-1.08c.89,.23,1.55,.03,2-.71l.19,.12Zm-1.6,.94l.1,1.03,.76,.45,.79-.79-.49-.69h-1.17Z"/><path d="M58.79,151.66l1.12,.92-1.26,.21-.2,1.26h-.19l-.59-.93-1.18,.05q.55-.85,.32-1.8,1.14-.13,2.03-.93l-.05,1.22Zm-1.42,.96l.75,.37,.84-.74-.52-.69h-1.17l.11,1.06Z"/><path d="M53.06,185.27l-1.25,.16-.24,1.49-.77-1.15-1.08,.1c.6-.61,.44-1.24,.19-1.94,.83,.1,1.5,.02,2.01-.74-.29,1.03,.42,1.51,1.14,2.07Zm-2.64-1.03l.11,1.04,.73,.4,.82-.72-.45-.72h-1.21Z"/><path d="M33.65,119.34l.58-.86-.39-1.08c.98,.4,1.52-.18,2.19-.75l-.09,1.23,1.13,.92-1.28,.22-.24,1.42-.71-1.09h-1.19Zm1.94-1.54h-1.16l.1,1.02,.78,.43,.81-.81-.52-.65Z"/><path d="M26.62,128.84l-1.28,.22-.23,1.41-.73-1.06h-1.19l.59-.86-.38-1.07c.96,.34,1.53-.16,2.19-.82l-.1,1.26,1.14,.92Zm-2.55,.03l.78,.43,.81-.81-.53-.65h-1.16l.11,1.02Z"/><path d="M50.07,94.78l1.13,.9-1.32,.17-.23,1.42-.76-1.08-1.19,.07,.63-.91-.36-.91q1.01-.08,2.11-.81v1.15Zm-1.46,.91l.75,.42,.82-.79-.52-.69c-.36,0-.73,0-1.17,0l.12,1.05Z"/><path d="M14.26,178.39c.87,.36,1.4-.24,2.06-.8l-.08,1.23,1.13,.91-1.28,.22-.24,1.42-.71-1.1h-1.19l.6-.89-.37-.82,.1-.18Zm1.33,1.81l.81-.81-.54-.67h-1.13l.08,1.05,.78,.43Z"/><path d="M56.7,130.05v1.32l1.12,.91-1.3,.17-.23,1.42-.76-1.08-1.18,.07,.61-.94-.4-.98c.91,.2,1.55-.1,2.14-.9Zm-1.45,2.25l.74,.4,.85-.77-.53-.68h-1.16l.11,1.04Z"/><path d="M47.55,108.19l-1.08,.14-.23,1.42-.76-1.08-1.2,.06,.63-.9-.36-.92q.96-.07,2.12-.81l-.06,1.13,1,.77-.06,.19Zm-1.58,.41l.81-.81-.54-.67h-1.13l.08,1.05,.78,.43Z"/><path d="M28.51,118.03l-.71-1.12-1.2,.07,.6-.95-.41-.97c.9,.18,1.56-.09,2.14-.91v1.33l1.11,.91-1.29,.18-.25,1.45Zm-1.01-1.62l.76,.43,.8-.79-.51-.68h-1.17l.12,1.05Z"/><path d="M60.09,95.1l-.71-1.12-1.2,.07,.6-.95-.41-.97c.9,.18,1.56-.09,2.14-.91v1.33l1.11,.91-1.29,.18-.25,1.45Zm-1.1-2.67l.07,1.04,.79,.44,.79-.8-.5-.68h-1.14Z"/><path d="M17.89,184.98v1.31l1.14,.9-1.32,.17-.23,1.42-.76-1.08-1.19,.06,.63-.91-.41-1.03c.93,.26,1.55-.12,2.15-.85Zm-.41,1.18h-1.14l.09,1.04,.76,.43,.85-.8-.55-.67Z"/><path d="M44.66,102.15l-1.4-1.28-.26-1.54c.88,.36,1.42-.24,2.08-.79l-.07,1.23,1.12,.92c-.32,.06-.48,.09-.63,.11-.2,.02-.39,.04-.66,.06l-.18,1.28Zm.52-1.79l-.55-.68h-1.14l.1,1.04,.74,.41,.85-.77Z"/><path d="M48.65,88.74l-1.23,.13-.21,.55-1.73-.37c.1-.29,.25-.53,.25-.77,0-.26-.15-.53-.28-.95,.89,.25,1.5,.01,2.04-.67-.28,1.03,.41,1.51,1.16,2.08Zm-1.45-1.03h-1.21l.13,1.04,.71,.39,.85-.74-.48-.69Z"/><path d="M22.05,120.36l.19,1.23,1.27,1.32,.21-1.27,1.29-.22-1.12-.91,.07-1.08c-.13,.02-.27,0-.3,.04-.38,.54-.85,.83-1.54,.63-.05-.01-.15,.14-.23,.22,.02,.02,.04,.06,.07,.07,.03,0,.06,0,.09,0,.49,0,.99,0,1.44,0l.55,.69-.81,.81-.59-.33-.59-1.18Z"/><path d="M20.05,134.13l-.85,.78c-.19-.28-.93-.16-.8-1.11l-.8,1.28,1.12-.08,.77,1.09,.23-1.42,1.28-.17-1.13-.93,.07-1.21-1.31,1.06,.83,.05,.59,.67Z"/><path d="M73.04,121.51l-.07,1.29,1.13,.92-1.28,.17-.21,1.26c-.4-.76-1.13-.73-1.82-.81l.25-1.01-.75-.13,.78-.93c.79,.43,1.33-.06,1.96-.75Zm.1,1.92l-.5-.71h-1.13c-.12,.76,.25,1.15,.74,1.36l.88-.65Z"/><path d="M81.76,115.11c-.75,.15-.57-.72-1.07-.94l-.97,.13-.23-.11c.83-.5,.68-1.13,.35-1.86,.9,.21,1.52-.16,2.12-.82v1.26l1.09,.9-1.31,.15v1.31l.02-.02Zm-1.23-1.42l.69,.36,.85-.7-.48-.71h-1.23l.17,1.05Z"/><path d="M68.55,138.4l-.77-1.12-1.19,.17,.62-.98-.32-.94q1.13-.07,2.07-.79v1.15l1.12,.92-1.28,.12-.25,1.47Zm.03-2.63h-1.16l.1,1.02,.74,.44,.84-.77-.52-.68Z"/><path d="M102.81,93.5l-.29,1.45-.74-1.1-1.22,.13,.67-.93-.41-1.14c.97,.43,1.54-.09,2.21-.72l-.09,1.25,1.14,.92-1.26,.15Zm-.25-1.18h-1.15l.1,1.03,.86,.5c.09-.38,.19-.79,.96-.53l-.76-1Z"/><path d="M69.35,155.77c.93,.21,1.54-.14,2.14-.82v1.27l1.07,.87-1.24,.2-.24,1.48-.78-1.18-.98,.16c.4-.64,.46-1.23,.04-1.99Zm1.41,1.75l.86-.71-.49-.72h-1.19l.11,1.04,.72,.39Z"/><path d="M67.66,167.51c-.33,1.03,.37,1.51,1.1,2.07l-1.25,.15-.24,1.49-.77-1.15-1.35,.12c.76-.64,.84-1.2,.29-2.03,1.06,.28,1.65-.07,2.22-.67Zm.13,1.76l-.46-.72h-1.21l.12,1.03,.71,.4,.84-.71Z"/><path d="M70.73,150.18l-.26,1.44-.76-1.11-1.08,.06c.6-.59,.43-1.23,.17-1.97,.94,.34,1.48-.14,2.07-.68-.29,1.01,.27,1.52,1.16,2.04l-1.31,.23Zm-.56,.2l.84-.73-.48-.69h-1.18l.09,1.06c.26,.13,.52,.25,.73,.36Z"/><path d="M142.2,98.49l-.24,1.41-.71-1.08h-1.2l.59-.86-.38-1.07c.97,.38,1.52-.17,2.2-.79l-.11,1.25,1.13,.92-1.28,.22Zm-.21-1.22h-1.16l.11,1.05,.78,.4,.8-.79-.53-.66Z"/><path d="M112.01,99.2l1.12,.91-1.3,.17-.23,1.42-.76-1.08-1.18,.07,.61-.94-.4-.99c.92,.22,1.55-.1,2.15-.89v1.33Zm-.68,1.35l.81-.81-.54-.67h-1.12l.06,1.04,.79,.44Z"/><path d="M68.45,182.4c.95,.31,1.53-.15,2.18-.85l-.09,1.27,1.15,.96-1.29,.17-.23,1.42-.73-1.05h-1.2l.6-.86-.39-1.06Zm2.27,1.03l-.55-.69h-1.14l.1,1.01,.74,.45,.85-.78Z"/><path d="M135.32,97.51l-.71-1.11h-1.19l.59-.88-.4-.9c.47-.04,.88,0,1.22-.13,.32-.12,.57-.44,.96-.76l-.08,1.22,1.13,.92-1.29,.19-.24,1.44Zm-1.1-2.67l.07,1.04,.79,.44,.79-.8-.5-.68h-1.14Z"/><path d="M118.74,94.44l-1.28,.22-.23,1.41-.73-1.06h-1.19l.59-.86-.38-1.07c.96,.34,1.53-.16,2.19-.82l-.1,1.26,1.14,.92Zm-2.63-1.01l.07,1.04,.79,.44,.79-.8-.5-.68h-1.14Z"/><path d="M73.3,116.63l-1.09,.14-.23,1.42-.76-1.08-1.19,.07,.62-.91-.41-1.02c.93,.25,1.55-.11,2.15-.86v1.33l.96,.72-.06,.19Zm-1.33-1.06h-1.13l.11,1.04,.74,.41,.86-.78-.58-.67Z"/><path d="M79.04,84.98c.82-1.27,2.2-1.33,3.14-.16,1.1,1.37,1.26,3.35,.39,4.88-.48,.85-1.69,1.21-2.52,.68-1.03-.65-1.8-1.5-1.73-2.42,.02-1.34,.23-2.21,.72-2.98Zm.47,4.53c.5,.56,1.53,.33,1.82-.2,.69-1.25,.82-2.52,.12-3.81-.12-.22-.32-.44-.53-.58-.73-.49-1.27-.39-1.63,.4-.31,.68-.46,1.44-.68,2.16,.08,.82,.38,1.44,.9,2.02Z"/><path d="M90.48,86.5c.47-1.29,1.7-1.77,2.86-.44,.17,.2,.33,.44,.41,.68,.36,1.11,.45,2.22-.19,3.28-.34,.56-.75,1.07-1.49,.99-.74-.08-1.35-.45-1.58-1.2-.18-.57-.26-1.16-.4-1.81,.12-.49,.21-1.01,.39-1.51Zm1.94,.2c-.09-.26-.34-.5-.58-.66-.43-.3-.76-.2-.97,.28-.48,1.09-.52,2.21-.08,3.32,.23,.57,.39,.6,1.08,.31-.14-.17-.32-.33-.39-.52-.05-.16-.03-.43,.07-.53,.09-.08,.38-.04,.51,.05,.11,.08,.12,.31,.18,.47,.69-1.05,.45-1.9,.17-2.71Z"/><path d="M77.41,81.89c.28,.3,.55,.48,.91,.11,.11-.11,.24-.24,.37-.26,1.12-.15,2.23-.37,3.36-.38,.55,0,1.1,.36,1.64,.55,.09-.85-.24-1.39-.91-1.83-1.38-.91-2.63-.36-3.87,.26-.32,.16-.64,.37-.89,.63-.24,.25-.39,.59-.6,.92Z"/><path d="M90.55,82.64c.8,.19,1.44,.5,2.05-.11l.3,.59,1.48-.38c.01-.11,.09-.27,.04-.35-.65-.94-1.46-1.64-2.64-1.82-.49-.08-.79,.08-.91,.54-.12,.48-.2,.96-.32,1.53Z"/><path d="M82.4,99.46v.8c1.74,.4,3.49,.83,5.25,1.19,.79,.16,1.6,0,2.35-.33,.21-.09,.36-.3,.69-.58-.39-.05-.57-.14-.69-.08-1.43,.65-2.83,.2-4.23-.09-1.1-.23-2.18-.58-3.38-.9Z"/><path d="M74.54,100.16l-.48,.15c-.64-.53,.62-1.06-.05-1.59l-.46,.88c-.63-.29-.19-.76-.35-1.12l-.58,.5c.39,1.05,1.23,1.63,2.12,2.25l-.2-1.08Z"/><path d="M81.91,68.27c.91,.16,1.83,.32,2.74,.48-.19-.12-.38-.24-.57-.36l.25-.89c.24-.12,.47-.24,.71-.35,.22,.28,.44,.55,.66,.83,0,.77-.66,.58-1.07,.76,.63,.05,1.25,.1,1.88,.14,.27,.02,.54,.03,.8,.01,1.39-.06,2.66,.15,3.45,1.5,.04,.07,.17,.09,.25,.13-.45-.57-.86-1.18-1.36-1.69-.2-.21-.6-.3-.91-.31-.86-.04-1.72-.01-2.73-.01l.46-.53c-.68-.27-1.23-.66-1.07-1.6-.52,.59-1.02,.96-1.85,.74,.09,.22,.12,.33,.17,.43,.23,.5,.12,.77-.4,.8-.46,.03-.93-.03-1.4-.06Z"/><path d="M85.96,59.69l-.76-1.11-1.07,.06c.59-.59,.43-1.22,.16-1.97,.94,.32,1.49-.12,2.08-.69-.35,1.03,.39,1.49,1.1,2.11l-1.25,.13-.25,1.47Zm.06-2.64h-1.19l.09,1.04,.75,.37,.84-.74-.48-.68Z"/><path d="M84.81,49.52l.66,.69,.14-.08-.11-1.05,.84-.49v-.18l-1.1-.15-.79-1.47c-.46,.87-.61,1.73-1.68,1.99l.89,.7,.16,1.11,.67-1.07c-.63,.2-.54-.48-.8-.63l.77-1.03,.76,.86q-.1,.53-.42,.8Z"/><path d="M76.96,65.26l-.22,.85-.55-.98-.99,.27,.36-1.59,1.52-.77c.14,.71,.08,1.49,.76,2.1l-.87,.12Zm-.07-1.62q-.91,.6-.97,1.09l1.35,.15-.38-1.24Z"/><path d="M70.8,69.85l.38,.59c0-.79,.08-1.36,1.07-1.51l-1.14-.49-.12-.74-1.22,.94v1.33c.3-.04,.66-.08,1.02-.12-.23-.28-.46-.56-.7-.85q.62-.33,1.06-.12l-.36,.97Z"/><path class="d" d="M84.81,49.52q.32-.27,.42-.8l-.76-.86-.77,1.03c.26,.15,.17,.82,.8,.63h.32Z"/><path d="M79.69,68.29h2.26c-.75-.25-1.51-.35-2.26,0Z"/><path d="M91.17,66.48c.26-.2,.27-.42,.04-.64-.14-.14-.29-.26-.43-.39l-.32,.1c.21,.36,.85,.38,.71,.94Z"/><path d="M90.96,70.47l.63,1.14-.63-1.14Z"/><path d="M73.54,76.63c-1.77-.31-3.23-1.08-4.77-1.82,.06,.08,.12,.16,.18,.23,.07,.07,.15,.13,.23,.19,1.06,.85,2.31,1.32,3.56,1.77,.31,.11,.64,.2,.79-.36Z"/><path d="M84.8,71.34c-.28-.02-.56-.11-.82-.06-1.05,.18-1.99-.77-3.06-.24,1.28,.29,2.49,1.05,3.87,.52v-.22Z"/><path d="M90.97,73.11l-.39-.75c-.05,.37,.05,.64,.41,.73l-.02,.02Z"/><path d="M167.76,105.72c.47,.82,.67,.95,1.43,1.04l-1.43-1.04Z"/><path d="M167.49,138.97c.71-.66,1.57-.93,2.51-.62,2.65,.89,3.98,3.86,2.9,6.43-.82,1.98-2.83,2.62-4.62,1.44-1.46-.97-2.05-2.41-2.1-3.75-.02-1.6,.4-2.66,1.32-3.5Zm-.79,2.89c-.11,1.41,.36,2.64,1.4,3.61,.91,.85,2.05,1.02,3.05,.49,1.11-.59,1.71-1.84,1.49-3.08-.02-.09,.04-.19,.05-.28,.2-1.64-1.52-3.67-3.1-3.67-1.7,0-2.75,1.03-2.9,2.93Z"/><path class="d" d="M39.76,86.31l.73,.42,.87-.73-.53-.72h-1.17l.1,1.03Z"/><path class="d" d="M37.43,159.08l-.51-.66h-1.16l.08,1.05,.74,.36,.85-.75Z"/><path class="d" d="M26.7,176.52l.11,1.04,.73,.37,.82-.71c-.27-.86-.96-.78-1.66-.7Z"/><path class="d" d="M48.09,156.78l-.49-.69h-1.2l.13,1.04,.71,.38,.85-.73Z"/><path class="d" d="M18.66,160.92l.88-.69-.5-.73h-1.19l.11,1.03,.7,.39Z"/><path class="d" d="M38.28,174.43l.72,.38,.83-.71-.47-.7h-1.22l.14,1.04Z"/><path class="d" d="M55.53,172.47l-.48-.69h-1.2l.13,1.03,.71,.39,.85-.73Z"/><path class="d" d="M40.97,180.83h-1.21l.13,1.03,.71,.38,.84-.72-.47-.7Z"/><path class="d" d="M36.32,91l-.52-.68h-1.16l.1,1.02,.74,.44,.84-.77Z"/><path class="d" d="M46.48,141.58l-.51-.66h-1.16l.08,1.05,.74,.36,.85-.75Z"/><path class="d" d="M27.5,109.41l-.76-1h-1.15l.1,1.03,.86,.5c.09-.38,.19-.79,.96-.53Z"/><path class="d" d="M25.92,170.49l.84-.73-.48-.69h-1.19l.1,1.05,.73,.37Z"/><path class="d" d="M42.06,188.66l-.52-.69h-1.16l.09,1.06,.75,.38,.84-.74Z"/><path class="d" d="M25.07,161.34l.13,1.02,.71,.39,.86-.71-.48-.7h-1.22Z"/><path class="d" d="M53.5,116.67h-1.17l.1,1.02,.74,.44,.84-.77-.51-.68Z"/><path class="d" d="M49.83,135.89l.11,1.04,.73,.37,.82-.71c-.27-.86-.96-.78-1.66-.7Z"/><path class="d" d="M57.44,104.9l-.53-.71h-1.15l.09,1.03,.73,.42,.86-.74Z"/><path class="d" d="M30.79,192.21l-.49-.72h-1.19l.11,1.03,.72,.4,.86-.71Z"/><path class="d" d="M31.44,104.84l.86-.74-.52-.71h-1.14l.07,1.03,.74,.43Z"/><path class="d" d="M32.41,164.12l-.52-.69h-1.16l.09,1.06,.75,.38,.84-.74Z"/><path class="d" d="M53.95,165.11c.26,.13,.52,.25,.73,.36l.84-.73-.48-.69h-1.18c.03,.37,.06,.71,.09,1.06Z"/><path class="d" d="M34.22,144.81l-.52-.68h-1.17l.11,1.05,.72,.36,.86-.74Z"/><path class="d" d="M37.07,99.21l.85-.76-.51-.7h-1.17l.1,1.02,.73,.44Z"/><path class="d" d="M47.87,122.29h-1.17l.1,1.03,.76,.45,.79-.79-.49-.69Z"/><path class="d" d="M57.27,151.56l.11,1.06,.75,.37,.84-.74-.52-.69h-1.17Z"/><path class="d" d="M51.63,184.24h-1.21l.11,1.04,.73,.4,.82-.72-.45-.72Z"/><path class="d" d="M36.12,118.44l-.52-.65h-1.16l.1,1.02,.78,.43,.81-.81Z"/><path class="d" d="M23.97,127.85l.11,1.02,.78,.43,.81-.81-.53-.65h-1.16Z"/><path class="d" d="M48.5,94.64l.12,1.05,.75,.42,.82-.79c-.15-.19-.34-.44-.53-.69-.36,0-.73,0-1.17,0Z"/><path class="d" d="M14.82,179.76l.78,.43,.81-.81-.54-.67h-1.13l.08,1.05Z"/><path class="d" d="M55.15,131.26l.11,1.04,.74,.4,.85-.77-.53-.68h-1.16Z"/><path class="d" d="M45.19,108.16l.78,.43,.81-.81-.54-.67h-1.13l.08,1.05Z"/><path class="d" d="M27.38,115.36l.12,1.05,.76,.43,.8-.79-.51-.68h-1.17Z"/><path class="d" d="M60.13,92.43h-1.14l.07,1.04,.79,.44,.79-.8-.5-.68Z"/><path class="d" d="M18.03,186.83l-.55-.67h-1.14l.09,1.04,.76,.43,.85-.8Z"/><path class="d" d="M44.33,101.13l.85-.77-.55-.68h-1.14l.1,1.04,.74,.41Z"/><path class="d" d="M47.68,88.4l-.48-.69h-1.21l.13,1.04,.71,.39,.85-.74Z"/><path class="d" d="M22.05,120.36l.59,1.18,.59,.33,.81-.81-.55-.69c-.45,0-.95,0-1.44,0h0Z"/><path class="d" d="M72.25,124.08l.88-.65-.5-.71h-1.13c-.12,.76,.25,1.15,.74,1.36Z"/><path class="d" d="M80.36,112.64l.17,1.05,.69,.36,.85-.7-.48-.71h-1.23Z"/><path class="d" d="M69.1,136.46l-.52-.68h-1.16l.1,1.02,.74,.44,.84-.77Z"/><path class="d" d="M103.33,93.32l-.76-1h-1.15l.1,1.03,.86,.5c.09-.38,.19-.79,.96-.53Z"/><path class="d" d="M70.04,157.12l.72,.39,.86-.71-.49-.72h-1.19l.11,1.04Z"/><path class="d" d="M66.94,169.98l.84-.71-.46-.72h-1.21l.12,1.03,.71,.4Z"/><path class="d" d="M69.44,150.02c.26,.13,.52,.25,.73,.36l.84-.73-.48-.69h-1.18c.03,.37,.06,.71,.09,1.06Z"/><path class="d" d="M142.52,97.93l-.53-.66h-1.16l.11,1.05,.78,.4,.8-.79Z"/><path class="d" d="M110.55,100.11l.79,.44,.81-.81-.54-.67h-1.12l.06,1.04Z"/><path class="d" d="M69.87,184.21l.85-.78-.55-.69h-1.14l.1,1.01,.74,.45Z"/><path class="d" d="M135.36,94.84h-1.14l.07,1.04,.79,.44,.79-.8-.5-.68Z"/><path class="d" d="M117.25,93.43h-1.14l.07,1.04,.79,.44,.79-.8-.5-.68Z"/><path class="d" d="M72.55,116.24l-.58-.67h-1.13l.11,1.04,.74,.41,.86-.78Z"/><path class="d" d="M79.29,85.32c.36-.79,.9-.89,1.63-.4,.21,.14,.41,.35,.53,.58,.7,1.29,.57,2.56-.12,3.81-.29,.53-1.33,.76-1.82,.2-.52-.59-.82-1.2-.9-2.02,.22-.72,.37-1.48,.68-2.16Zm1.68,3.65c.33,.07,.49-.21,.43-.48-.05-.21-.26-.38-.4-.57l-.69,.54c.3,.24,.46,.47,.66,.52Z"/><path class="d" d="M92.25,89.42c.69-1.05,.45-1.9,.17-2.71-.09-.26-.34-.5-.58-.66-.43-.3-.76-.2-.97,.28-.48,1.09-.52,2.21-.08,3.32,.23,.57,.39,.6,1.08,.31-.14-.17-.32-.33-.39-.52-.05-.16-.03-.43,.07-.53,.09-.08,.38-.04,.51,.05,.11,.08,.12,.31,.18,.47Z"/><path class="d" d="M84.62,68.73c.4-.19,1.08,0,1.07-.76-.22-.27-.44-.55-.66-.83-.23,.12-.47,.23-.71,.35l-.25,.89c.19,.12,.38,.24,.57,.36l-.03-.02Z"/><path class="d" d="M86.5,57.73l-.48-.68h-1.19l.09,1.04,.75,.37,.84-.74Z"/><path class="d" d="M77.27,64.88l-.38-1.24q-.91,.6-.97,1.09l1.35,.15Z"/><path class="d" d="M70.8,69.85l.36-.97q-.44-.22-1.06,.12c.24,.29,.47,.57,.7,.85h0Z"/><path class="d" d="M172.7,142.6c-.01,.1-.07,.2-.05,.28,.22,1.24-.38,2.49-1.49,3.08-1,.53-2.14,.36-3.05-.49-1.04-.98-1.51-2.21-1.4-3.61,.15-1.9,1.2-2.93,2.9-2.93,1.58,0,3.3,2.03,3.1,3.67Zm-3.25,.86c-.84,.19-1.06,.41-1.35,1.25,.66-.2,1.01-.61,1.35-1.25Zm.5-1.89c.39-.58,.39-.88,.08-1.69h-.23l.15,1.69Zm.48,1.51c.09-.29,.15-.6-.19-.78-.08-.04-.3,.02-.34,.09-.2,.38-.14,.69,.35,.89,.1-.11,.17-.15,.18-.21Z"/><path d="M80.32,88.46c.3,.24,.46,.47,.66,.52,.33,.07,.49-.21,.43-.48-.05-.21-.26-.38-.4-.57l-.69,.54Z"/><path d="M168.1,144.7c.66-.2,1.01-.61,1.35-1.25-.84,.19-1.06,.41-1.35,1.25Z"/><path d="M169.81,139.87l.15,1.7c.39-.58,.39-.88,.08-1.69h-.23Z"/><path d="M170.24,143.28c.1-.11,.17-.15,.18-.21,.09-.29,.15-.6-.19-.78-.08-.04-.3,.02-.34,.09-.2,.38-.14,.69,.35,.89Z"/></g></g></g></svg>