<?xml version="1.0" encoding="UTF-8"?><svg xmlns="http://www.w3.org/2000/svg" viewBox="0 0 181.4 300.33"><defs><style>.d,.e,.f,.g{fill:#fff;}.h,.e,.f,.i,.j,.k,.l,.m{stroke-miterlimit:10;stroke-width:.5px;}.h,.e,.m{stroke:#000;}.f,.i,.j,.k,.l{stroke:#fff;}.g{opacity:.94;}.i{opacity:.81;}.n{fill:#efc5b9;}.k,.m{fill:none;}.l{opacity:.87;}</style></defs><g id="a"/><g id="b"><g id="c"><rect class="n" width="181.4" height="300.33" rx="14.95" ry="14.95"/><g><path d="M83.54,24.74c-2.28-.59-3.35-3.13-4.25-5.31s-2.46-4.63-4.81-4.57c-1.49,.04-2.79,1.16-3.45,2.5s-.81,2.86-.93,4.35c-1.71,22.58,2.58,45.14,6.85,67.39,.09,.47,1.15,1.08,1.45,1.45,.81,1.03,3.14,1.11,2.73-4.35l-3.86-51.53c-.11-1.41,.06-3.24,1.41-3.64,1.85-.55,2.84,2.16,4.47,3.18,1.61,1.01,3.96,.06,4.78-1.66s.32-3.85-.83-5.36c-1.16-1.51-2.87-2.49-3.55-2.44Z"/><path d="M81.34,89.27c.09-1.52,.13-3.28-1.17-4.06-1.24-.74-2.94,.03-3.71,1.25s-.85,2.75-.9,4.19l-2.22,55.69c-.06,1.39-.1,2.84,.45,4.12s1.9,2.33,3.27,2.08c1.09-.2,1.91-1.17,2.26-2.23s.31-2.19,.27-3.3c-.61-18.76,1.7-53.87,1.54-52.68"/><path d="M84.8,177.68c-1.81-1.36-3.84-8.18-4.28-12.67s-.28-9.04-.85-13.52c-.14-1.07-.33-2.17-.89-3.09s-1.6-1.63-2.67-1.52c-1.01,.1-1.84,.9-2.26,1.82s-.52,1.95-.61,2.96c-.44,5.1-.83,10.22-.41,15.32,.41,5.1,1.66,10.21,4.29,14.6,.95,1.59,2.63,3.3,4.46,3.06-1.46-1.46-2.71-2.99-3-4.44-.19-.96-.68-1.82-.56-2.79,.13-1.14,.05-.68,.56-1.81,.22,1.65,.76,2.47,1.46,3.98s1.93,2.93,3.55,3.35c-2.06-2.43-3.22-4.57-3.22-8.49,.62-.11,.74,.29,1.09,.81s.51,1.14,.7,1.74,.58,1.02,1.07,1.41,1.46,1.02,1.9,.58,.04-1.02-.32-1.28Z"/><path class="e" d="M90.25,274.81c.48-1.3-.13-2.91-1.35-3.56-.23,1.2-1.86,1.85-2.86,1.15-.69-.48-1-1.39-1.72-1.82-.61-.36-1.36-.29-2.06-.19-8.76,1.28-16.56,6.12-24.99,8.85-1.52,.49-3.39,.85-4.56-.23l.75,1.31c-.59-.09-1.09,.7-.76,1.19-2.28-.25-4.66,.63-6.23,2.3l36.92-6.51c2.52-.44,6.08-.34,6.87-2.49Z"/><path class="h" d="M53.46,279.7c-1.71,.26-3.49,.04-5.09-.62-.98-.41-2.08-.98-3.02-.49-.69,.35-1.02,1.22-.86,1.97s.72,1.38,1.39,1.75,1.46,.5,2.23,.53c1.99,.08,4-.49,5.36-3.13Z"/><path class="d" d="M47.5,279.14c-.26-.15-.52-.3-.81-.38s-.61-.09-.88,.04c-.26,.13-.44,.36-.62,.59-.09,.12-.19,.26-.15,.41,.02,.1,.11,.17,.19,.24l.51,.44c.11,.1,.24,.2,.39,.2,.16,0,.29-.11,.4-.23,.41-.41,.75-.89,.98-1.32Z"/><path class="d" d="M48.17,279.29c-.69,.29-1.2,.98-1.27,1.73,.24-.68,.68-1.28,1.27-1.73Z"/><path class="d" d="M48.69,279.41c-.63,.22-1.13,.79-1.27,1.45,.3-.58,.75-1.08,1.27-1.45Z"/><path class="m" d="M82.29,277.81c.69-1.41,.65-3.14-.09-4.52s-2.18-2.36-3.73-2.55"/><path class="m" d="M79.45,271.15c1.19-.39,2.48-.5,3.72-.32,.46,.07,1.02,.31,.99,.77-.03,.4-.51,.59-.92,.63-1.25,.11-2.54-.41-3.79-1.08Z"/><path class="m" d="M81,271.65c.34-1.74-.88-3.64-2.6-4.06-.04,1.52,.78,3.04,2.6,4.06Z"/><path class="m" d="M79.24,270.74c.97,1.1,1.64,2.46,1.93,3.9"/><path class="m" d="M76.67,272.38c.77,.63,1.38,1.45,1.75,2.36"/><path class="m" d="M74.38,273.29l1.65,2.41"/><path class="m" d="M71.22,274.49l1.75,2.06"/><path class="m" d="M68.02,275.43c.92,.44,1.74,1.1,2.36,1.91"/><path class="m" d="M66.13,276.29c.67,.53,1.2,1.25,1.51,2.05"/><path class="m" d="M64.23,276.75l1.65,1.8"/><path class="m" d="M60.93,279.21c-.8,.44-1.71,.69-2.62,.74"/><path class="m" d="M53.46,279.95l-1.04-1.02,1.04,1.02Z"/><path d="M90.89,274.06c-7.33,1.76-14.96,3.65-22.35,5.18-6.92,1.43-15.2,2.92-22.11,4.35-.65,.14-.96,.56-.3,.47,13.29-1.95,26.82-3.86,40.1-6.97,1.05-.24,3.84-1.5,4.27-1.79s.39-.67,.39-1.23Z"/><path d="M84.71,272.04l-23.94-64.49c-2.55-.61-4.12-3.77-3.07-6.17,1.05-2.4,4.44-3.39,6.62-1.93,2.04,1.37,2.6,4.07,3.06,6.48,2.78,14.54,8.09,28.46,13.37,42.29l7.25,18.99c.46,1.21,.94,2.48,.83,3.78s-.97,2.63-2.26,2.82-2.62-1.3-1.86-1.76Z"/><path class="k" d="M62.88,205.63l1.59,4.86"/><path class="k" d="M66.99,212.55l1.12,3.97"/><path class="k" d="M65.9,217.79l1.2,3.17"/><path class="k" d="M69.19,220.71c.37,1.45,.91,2.86,1.61,4.18"/><path class="k" d="M69.54,227.05l1.41,3.12"/><path class="k" d="M72.01,227.7c.3,1.23,.82,2.39,1.54,3.43"/><path class="k" d="M71.69,233.54l1.71,3.77"/><path class="k" d="M74.02,235.25l1.51,2.31"/><path class="k" d="M74.42,240.08l1.46,3.17"/><path class="k" d="M76.58,240.84l1.31,2.97"/><path class="k" d="M76.58,246.02c.35,1.17,.82,2.3,1.41,3.37"/><path class="k" d="M78.7,246.82l1.16,2.67"/><path class="k" d="M79.4,251.6l1.21,2.87"/><path class="k" d="M81.97,253.26l.55,2.01"/><path class="k" d="M80.01,256.13l1.06,2.42"/><path class="k" d="M82.47,260.76l.86,2.42"/><path class="k" d="M83.58,259.65l1.06,2.37"/><path class="k" d="M84.74,265.29l.86,2.21"/><path class="k" d="M86.55,266.5l.55,2.16"/><path d="M65.03,203.59c3.54-18.53,9.8-36.53,18.52-53.26l.68,1.93,.34-2.03,.25,1.41c1.68-6.17,4.93-11.9,9.36-16.5,1.87-1.95,3.98-3.72,5.39-6.03,1.41-2.31,2-5.36,.63-7.69-1.33-2.28-4.22-3.27-6.85-3.1-2.63,.17-5.1,1.3-7.5,2.41-.14,3.95-1.9,7.62-3.57,11.2-9.85,21.16-17.37,43.41-22.38,66.21-.32,1.44-.63,2.94-.34,4.39s1.33,2.85,2.78,3.1,3.08-1.16,2.68-2.01Z"/><path class="k" d="M73.27,162.8l-2.32,4.92"/><path class="k" d="M74.44,164.83l-1.34,4.29"/><path class="k" d="M75.22,153.79l-1.89,4.08"/><path class="k" d="M68.82,169.82l-1.19,4.43"/><path class="k" d="M71.42,171.5l-1.05,3.73"/><path class="k" d="M68.26,177.83l-.91,4.29"/><path class="k" d="M66.52,178.61l-1.47,4.57"/><path class="k" d="M67.06,184.79l-.98,4.36"/><path class="k" d="M65.02,186.9l-.77,3.37"/><path class="k" d="M62.7,189.43l-.63,3.3"/><path class="k" d="M64.11,193.01l-.63,4.01"/><path class="k" d="M61.65,195.96l-.28,2.18"/><path class="k" d="M65.59,194.49l-.7,3.37"/><path class="e" d="M95.4,134.38c1.91-1.41,3.74-3,4.93-5.05,1.19-2.05,1.64-4.64,.7-6.82-1-2.32-3.4-3.78-5.85-4.38-2.99-.73-6.48-.24-8.55,2.02-1.12,1.22-1.72,2.81-2.3,4.36l-8.81,23.67,1.18-.79-.2,2.1,1.32-1.12-.12,2.25,1.21-1.34,.47,2.06,1.42-2.07,.15,1.81,1.38-2.23,.09,1.63,.85-2.05c-.09,1.24,.36,2.51,1.21,3.41,2.56-6.81,5.96-13.78,10.94-17.46Z"/><path class="e" d="M87.73,122.02c-.45,.94-1.16,1.75-2.04,2.32"/><path class="e" d="M92.51,133.76l-1.27,1.69"/><path class="e" d="M90.54,136.99l-1.41,1.69"/><path class="e" d="M88.43,140.15l-.77,1.27"/><path class="e" d="M86.88,143.32c-.37,.54-.75,1.08-1.76,2.74-.19,.52-.37,1.03,1.76-2.74Z"/><path d="M86.14,207.51c-.94-1.45-3.22-1.56-4.57-.49s-1.86,2.94-1.7,4.66,.88,3.33,1.59,4.9l21.17,46.87c2.14,4.73,4.27,9.46,6.66,14.07,.82,1.58,2.01,3.36,3.79,3.36,1.79,0,3.04-2,2.95-3.78s-1.12-3.37-2.09-4.87c-12.96-20.04-15.29-45.38-27.79-64.71Z"/><path class="k" d="M84.26,218.86l2.13,4.37"/><path class="k" d="M88.87,224.25c.6,1.7,1.36,3.35,2.27,4.91"/><path class="k" d="M89.19,219.12c.43,1.15,.97,2.25,1.6,3.3"/><path class="k" d="M84.42,214.72l1.01,2.75"/><path class="k" d="M92.61,227.32l1.7,4.35"/><path class="k" d="M89.77,231.27l2.11,3.8"/><path class="k" d="M94.22,235.53l1.88,4.35"/><path class="k" d="M96.56,234.33l1.65,4.26"/><path class="k" d="M94.9,241.31l2.38,4.17"/><path class="k" d="M98.62,242.72l1.79,4.81"/><path class="k" d="M97.51,248.29l2.21,5.25"/><path class="k" d="M100.74,251.75l2.05,4.51"/><path class="k" d="M103.25,252.23l2.3,5"/><path class="k" d="M102.26,258.3l2.62,5.49"/><path class="k" d="M105.54,262.07l2.21,4.02"/><path class="k" d="M106.83,267.82l2.62,4.51"/><path class="k" d="M109.64,274.69l1.48,2.79"/><path class="k" d="M109.64,269.12l1.48,2.21"/><path class="k" d="M111.69,273.55l1.39,2.21"/><path d="M94.32,154.12l-14.51,51.84c-.63,2.26-1.26,4.69-.52,6.92s3.49,3.93,5.51,2.72c1.74-1.05,1.93-3.44,2.03-5.46,.76-15.89,7.42-30.79,13.33-45.56,.75-1.88,1.5-3.8,1.56-5.82s-.72-4.18-2.43-5.26c-1.71-1.07-4.61-.67-4.97,.62Z"/><path class="e" d="M100.64,166.66l11.9-26.82c1.77-3.98,3.55-8.02,4.16-12.34,.21-1.45,.1-3.06-.84-4.18-1.92-2.27-2.3-2.67-5.1-2.87-2.65-.19-5.24,1-6.75,3.18-2.22,3.2-3.61,6.89-4.99,10.54l-8.94,23.71,2.42-2.04-.88,5.9,4.5-5.2-1.01,6.1,2.57-3.02-.92,3.38,2.72-2.99-.34,3.85,1.9-2.63c-.08,1.84-.16,3.68-.41,5.45Z"/><path class="m" d="M82.2,202.63l1.18-3.62"/><path class="k" d="M85.74,200.12l1.18-5.01"/><path class="k" d="M84.42,195.39l1.11-4.24"/><path class="k" d="M87.48,191.22l1.18-3.2"/><path class="k" d="M87.41,185.31l1.25-3.89"/><path class="k" d="M90.75,182.46l1.18-3.34"/><path class="k" d="M94.3,174.53l1.46-4.03"/><path class="k" d="M92.49,170.98l.49-2.3"/><path class="k" d="M96.59,166.11l.9-2.43"/><path class="k" d="M94.86,165.07l.63-2.23"/><path class="k" d="M90.96,174.6l-.63,2.36"/><path class="k" d="M95.2,160.83l.56-3.83"/><path class="k" d="M99.31,161.52l.7-3.48"/><path class="k" d="M83.03,199.36l-1.74,4.87"/><path class="k" d="M85.67,202.7l-.49,1.88"/><path class="m" d="M100.43,134.21c.65-2.03,2.71-3.52,4.84-3.5"/><path class="m" d="M99.02,143.28l2.08-1.31"/><path class="m" d="M98.71,144.52l2.6-1.54"/><path class="m" d="M97.74,145.43c1.18-.85,2.45-1.59,3.77-2.21"/><path class="m" d="M97.52,146.06c1.46-1.08,2.99-2.05,4.58-2.91"/><path class="m" d="M102.09,143.22c-1.64,1-3.23,2.08-4.7,3.35,1.47-1.14,3.02-2.19,4.7-3.35Z"/><path class="m" d="M101.46,144.31c-1.51,.67-2.94,1.53-3.86,2.45,1.32-.94,2.72-1.76,3.86-2.45Z"/><path class="m" d="M101.12,144.96c-1,.47-1.96,1.04-2.98,1.93,.87-.59,1.79-1.09,2.98-1.93Z"/><path class="m" d="M96.18,148.28l5.15-2.86"/><path class="m" d="M99.79,146.49c-1.51,.83-2.97,1.77-4.77,3.22,1.33-1.05,2.75-1.99,4.77-3.22Z"/><path class="m" d="M100,146.85c-1.67,.87-3.26,1.88-4.83,3.43,1.55-1.23,3.24-2.3,4.83-3.43Z"/><path class="m" d="M95.92,149.95c1.43-1.12,3-2.06,4.67-2.77"/><path class="m" d="M97.46,149.11c1.45-.96,2.99-1.78,4.6-2.43"/><path class="m" d="M98.48,148.97c1.13-.7,2.32-1.32,3.54-1.85"/><path class="m" d="M98.54,148.19c.7-.5,1.48-.9,2.3-1.18"/><path class="m" d="M99.32,147.82l1.42-.83"/><path class="m" d="M115.36,127.97c-.22,.75-.49,1.49-.81,2.2"/><path class="m" d="M113.87,131.78c-.29,.86-.69,1.67-1.19,2.43"/><path class="m" d="M112.11,135.94l-1.33,2.88"/><path class="m" d="M109.31,141.83l-1.32,3.11"/><path class="m" d="M107.6,146.49c-.68,1.13-1.29,2.3-1.81,3.5"/><path class="m" d="M104.63,152.63c-.28,.87-.66,1.71-1.14,2.49"/><path class="m" d="M102.42,157.57l-1.1,2.16"/><path class="e" d="M109.22,276.85c-15.69,2.22-31.12,6.25-45.9,11.98-.83,.32-1.7,.68-2.21,1.41s-.41,1.94,.4,2.3c.39,.17,.85,.11,1.27,.05l53.03-8.17c1.08-.17,2.24-.37,3.04-1.12,1.19-1.12,1.13-3.12,.3-4.54s-2.23-2.37-3.59-3.29c.42,1.67-.74,3.57-2.42,3.94s-3.55-.85-3.92-2.57Z"/><path d="M118.86,283.7c.45-.24,1.18-1.56,.68-1.45-13.05,3.12-39.4,6.2-58.9,9.1-.06,.5,.36,.95,.83,1.1s.99,.09,1.48,.02c11.55-1.65,23.11-3.29,34.66-4.94,7.08-1.01,16.49-1.29,21.24-3.84Z"/><path class="m" d="M111.11,280.13c-.63,1.16-1.56,2.16-2.68,2.86"/><path class="m" d="M112.56,280.18c-.43,.97-1.14,1.81-2.01,2.4"/><path class="m" d="M109.16,280.93l4.82-.32"/><path class="m" d="M108.52,281.75c1.61-.23,3.23-.32,4.86-.28"/><path class="m" d="M104.17,282.61c.12-1.47,.24-2.96-.13-4.39s-1.32-2.79-2.71-3.24c-.39-.13-.83-.18-1.22-.05s-.73,.48-.76,.89c-.05,.61,.54,1.08,1.12,1.29,1.21,.44,2.54,.25,3.82,.13,1.28-.12,2.67-.12,3.73,.62,.46,.32,.84,.83,.77,1.39-.09,.64-.79,1.06-1.44,1.04s-1.24-.37-1.77-.74c-1.15-.8-2.2-1.76-3.09-2.84"/><path class="m" d="M102.03,277.28c.81,1.3,1.06,2.93,.69,4.42"/><path class="m" d="M102.1,280.06c-.88-1.16-1.95-2.17-3.17-2.97"/><path class="m" d="M97.03,278.83c1.32,.78,2.41,1.93,3.11,3.29"/><path class="m" d="M93.95,279.74c1.03,.21,1.93,.96,2.34,1.93,.2,.47,.31,1.03,.73,1.31"/><path class="m" d="M90.5,280.14c1.25,.85,2.2,2.13,2.64,3.58"/><path class="m" d="M87.73,281.01c1.17,.53,2.18,1.44,2.82,2.56"/><path class="m" d="M85.04,281.9c1.31,.46,2.4,1.5,2.91,2.79"/><path class="m" d="M84.31,286.78c-1.21,.54-2.53,.84-3.85,.88,.71-.75,1.63-1.3,2.62-1.57,.32-.09,.66-.16,.92-.37s.4-.62,.2-.88c-.27-.34-.81-.18-1.19,.02-1.89,.97-3.76,1.98-5.62,3.02"/><path class="m" d="M78.58,285.96c1.57,.41,3.07,1.09,4.41,2.02"/><path class="m" d="M80.85,285.1c1.15,.75,2.3,1.5,4.04,2.28,3.59-.98,7.25-1.68,10.95-2.1"/><path class="m" d="M86.8,286.32c3.01-.61,6.05-1.06,9.11-1.35"/><path class="m" d="M76.01,285.24c-3.04,.69-6.05,1.57-8.99,2.62"/><path class="m" d="M72.92,289.16l-10.16,1.38"/><path class="f" d="M116.22,116.79c.25-1.01,.42-2.3-.43-2.91-.97-.7-2.12,1.08-3.1,1.77-3.29,2.34-7.95,3.86-11.98,3.88s-8.35-1.02-12.19-2.25c-1.07-.34-1.65-2-2.43-1.2-.64,.65-.54,1.76-.08,2.54s1.2,1.36,1.83,2.02c1.54,1.61,2.44,3.73,3.23,5.81s1.54,4.23,2.87,6.02c1.33,1.79,3.38,3.21,5.62,3.16,2.27-.04,4.23-1.54,5.94-3.04s3.48-3.13,5.71-3.57c1.09-.21,2.21-.12,3.31-.27,1.1-.15,2.25-.63,2.77-1.61,.39-.73,.35-1.61,.3-2.44l-.38-6.52c-.05-.81-.38-1.89-.98-1.4Z"/><path class="e" d="M107.96,38.5c-2.3-7.66-3.25-15.73-2.77-23.72l-5.18,3.14c-3.32,2.01-6.73,4.06-10.54,4.8s-8.17-.09-10.68-3.05c3.44,6.37-.33,14.13-.07,21.36,.35,9.77,7.95,17.63,11.16,26.86,2.67,7.68,3.47,15.91-.25,23.08-.47,.91-.79,1.87-1.44,2.78-.19,.26-3.04,3.18-3.04,3.18,0,0,1.79-.88,2.18-.88,.29,0-1.16,1.94-1.16,1.94,0,0,1.85-.94,1.81-.78-1.8,6.65-5.64,13.15-1.74,17.94,5.64,3.52,12.64,4.65,19.18,3.44,3.36-.62,6.75-1.93,8.95-4.54s2.83-6.75,.72-9.44l1.43,.11c-1.13-11.28-.68-22.67-1.36-33.99-.68-11.32-6.78-30.87-7.19-32.26Z"/><path d="M104.9,26.04c.88,.98,1.94,1.79,2.85,2.75s1.67,2.14,1.77,3.45l-2.18-2.94c.65,1.44,1.06,2.98,1.2,4.56-.35-.98-.86-1.91-1.51-2.73,.52,.95,.86,1.99,1.02,3.05-1.19-.9-1.77-2.39-2.08-3.85s-.42-2.97-1.06-4.3Z"/><path class="j" d="M103.7,16.13c.34-.58,.69-1.19,1.26-1.56s1.4-.41,1.85,.09c.36,.4,.37,1.02,.22,1.53-.02-.21-.28-.31-.48-.24s-.32,.25-.43,.42c-1.47,2.32-1.71,5.37-.63,7.89,.46,1.07,1.13,2.04,1.53,3.13s.48,2.4-.2,3.34c.1-2.35-1.46-4.41-2.24-6.63-.9-2.55-.78-5.34-.88-7.97Z"/><path d="M105.68,33.93c-.21,.56,.02,1.19,.27,1.74s.53,1.14,.4,1.73c.05-.68,.09-1.39-.14-2.03-.19-.52-.56-1.01-.53-1.44Z"/><path d="M105.9,33.16c-.41-.96-1.45-1.63-2.5-1.6s-2.04,.75-2.4,1.74c.59-.38,1.19-.76,1.87-.96s1.44-.21,2.04,.15c.32,.19,.64,.48,.99,.67Z"/><path d="M105.97,32.78c-.47-.4-.83-.91-1.2-1.41s-.76-.99-1.26-1.34-1.15-.55-1.75-.39c.61-.05,1.2,.28,1.64,.7s.78,.94,1.17,1.42,.85,.92,1.41,1.02Z"/><path d="M106.37,33.56c-.73-.43-1.7-.43-2.43,.01s-1.18,1.3-1.13,2.15c.38-.66,.82-1.32,1.46-1.74s1.5-.59,2.11-.42Z"/><path d="M91.66,69.13c.8,.5,1.75,.76,2.7,.74,.3,0,.64-.06,.81-.31-1.17,.2-2.41-.05-3.41-.69-.11,.12-.1,.34-.1,.26Z"/><path d="M91.3,73.28c.46,.41,.86,.89,1.3,1.32s.95,.82,1.54,1,1.29,.1,1.74-.31c-1.79-.46-3.43-1.47-4.58-2Z"/><path d="M92.44,76.17c.93,1.74,2.55,3.1,4.42,3.73-2.16-.4-4.08-1.93-4.95-3.95,.24-.05,.47,.11,.53,.22Z"/><path d="M110.02,53.11c.27,5.25-2.17,10.57-6.32,13.8-1.72,1.33-3.84,2.35-6,2.11,3.52-.76,6.53-3.18,8.56-6.15,2.03-2.97,3.16-6.48,3.76-9.76Z"/><path d="M110.71,59.49c-.58,5.33-3.81,10.31-8.45,13.01-.77,.45-1.68,.84-2.52,.57,2.96-.62,5.44-2.74,7.14-5.24s2.74-5.39,3.83-8.34Z"/><path d="M111.59,66.08c-1.07,4.11-4.28,7.26-7.36,10.19,4.36-1.61,7.51-6.05,7.61-10.69-.16,.4-.32,.8-.24,.51Z"/><path class="d" d="M114.69,102.6l-4.12-3.54-17.99-5.43-3.25-1.43-1.41,1.93-3.02,2.88c1.18-.26,2.28-.9,3.08-1.81-.6,1.19-1.4,2.27-2.38,3.18,1.65-1.46,3.9-2.12,6.1-2.21s4.39,.36,6.54,.89c3.68,.91,7.4,2.12,10.33,4.52-.18-.22-.36-.46-.39-.74s.17-.6,.45-.59c.27,.01,.44,.3,.55,.54l.97,2.13c-.41-.05-.24-.78,.17-.83s.75,.3,1.01,.62l.96,1.14-.13-1.05c1.16,1.12,2.74,1.8,4.35,1.83l-1.82-2.03Z"/><path class="h" d="M87.97,97.23c-.72,3.19-2.12,5.88-2.8,9.08s-.42,6.88,1.85,9.22c1.6,1.65,3.92,2.36,6.16,2.91,3.5,.86,7.15,1.47,10.7,.84,3.48-.62,6.63-2.38,9.71-4.12,.7-.4,1.45-.84,1.8-1.56,.27-.56,.69-1.49,.87-2.09,.51-1.77,.2-2.72-.05-4.49-.12-.82-.76-1.63-1.12-2.38-.48-1-1.42-1.71-2.38-2.27-5.19-3.03-10.92-5.11-16.84-6.12-2.79-.48-6.04-.32-7.89,.98Z"/><path d="M97.55,124.11c-1.36,1.89-1.91,4.34-1.47,6.63,0-1.9,.41-3.79,1.18-5.52,.16-.36,.33-.71,.29-1.11Z"/><path d="M103.37,130.8c-.7-.14-1.42,.16-1.96,.63s-.9,1.1-1.24,1.72c-.11,.2-.21,.49-.03,.63,.13,.1,.32,.05,.44-.06s.18-.26,.25-.41c.39-.84,1.11-1.51,1.98-1.85,.17-.07,.37-.13,.48-.27s.1-.41,.08-.39Z"/><path d="M115.9,126.53c.18-.19,.13-.52-.04-.73s-.41-.33-.65-.45c-1.65-.88-2.97-2.34-3.67-4.07-.38,.41-.2,1.07,.06,1.57,.83,1.58,2.24,2.85,3.9,3.5,.14,.06,.29,.11,.44,.07s.26-.21-.04,.11Z"/><path d="M116.62,127.99c.53-.13,.9-.64,1.02-1.16s.05-1.08-.04-1.62c-.39-2.3-.99-4.67-.35-6.92,.1-.36,.24-.74,.16-1.11s-.5-.69-.84-.52c.37-.23,.35-.79,.14-1.18s-.55-.69-.72-1.09c-.06-.16-.1-.33-.19-.48-.23-.36-.82-.41-1.11-.1s-.24,.88,.11,1.13c.39,.28,1.01,.2,1.28,.59,.26,.36,0,.89-.37,1.11s-.85,.22-1.29,.26c-1.54,.13-3.04,.77-4.19,1.81,1.75-.59,3.56-1.01,5.38-1.26,.38-.05,.82-.07,1.07,.22,.3,.35,.08,.89-.09,1.32-.38,.92-.5,1.95-.37,2.94,.14,1.06,.58,2.05,.8,3.1s.18,2.23-.38,2.97Z"/><path d="M108.53,118.55c-3.58,1.29-7.4,1.88-11.2,1.73,1.94,.35,3.91,.7,5.88,.56,1.97-.14,3.97-.82,5.33-2.29Z"/><path d="M111.97,119.99c-7.02,1.96-14.53,2.02-21.63,.39,.69,.78,1.77,1.03,2.79,1.2,5.13,.89,10.41,.87,15.53-.05,1.22-.22,2.55-.57,3.3-1.54Z"/><path d="M97.47,122.63c-.33-.12-.72-.19-1.01,0-.34,.22-.38,.77-.08,1.05s.83,.21,1.06-.12,.15-.88,.04-.93Z"/><path class="d" d="M90.69,107.85c-.48-.39-.16-.84,.21-1.66,.4-.9,1.12-.67,1.74-.33s.26,.73-.07,1.36c-.28,.53-.99,1.36-1.88,.63Z"/><path class="d" d="M90.25,108.16c.13,.27,.41,.44,.71,.49s.6-.02,.87-.13c.66-.27,1.21-.82,1.48-1.48-.14,.95-.96,1.76-1.92,1.9-.27,.04-.56,.02-.8-.11s-.42-.41-.34-.67Z"/><path d="M93.69,119.41c-2.27,.22-4.61-.32-6.55-1.52,.92,.83,1.97,1.57,3.17,1.92,1.19,.35,2.56,.27,3.38-.39Z"/><path d="M89.39,120.06c-.61-.31-1.17-.7-1.66-1.17,0,.69,.5,1.36,1.18,1.53,.12,.03,.24,.04,.35,0s.21-.15,.2-.27-.15-.22-.07-.09Z"/><path d="M90.37,117.96c-.88-.42-1.77-.82-2.68-1.17-.34-.14-.73-.27-1.07-.12-.35,.15-.53,.57-.51,.95s.21,.73,.41,1.06c1.08,1.69,2.85,2.92,4.8,3.34-.92,.24-1.92-.03-2.74-.53s-1.48-1.2-2.13-1.9c-.47-.5-.95-1.03-1.1-1.7s.22-1.49,.89-1.59c-.44-.26-.44-1-.01-1.27,.57,.98,1.67,1.51,2.72,1.93s2.17,.8,2.95,1.62c-.57-.24-1.15-.43-1.54-.62Z"/><path d="M92.72,128.92c.77,2.48,2.85,4.52,5.35,5.24,.28,.08,.58,.15,.82,.32s.42,.47,.34,.76c-.12,.45-.71,.54-1.18,.49-1.6-.18-3.11-1.01-4.12-2.26s-1.5-2.91-1.22-4.54Z"/><path d="M92.15,127.87c-.11-.62-.27-1.24-.47-1.83-.35,.63-.24,1.48,.26,2,.01-.12,.12-.23,.21-.17Z"/><path d="M106.88,15.42c-1.98,.64-3.9,1.62-5.32,3.14-1.42,1.52-2.28,3.66-1.92,5.71s2.09,3.89,4.17,4.02c1.75,.11,3.5-.91,5.21-.48,2.45,.61,3.22,3.66,3.53,6.17,2.27,18.58,4.06,36.56,4.67,55.27,.06,1.74,1.2,3.44,2.53,3.39,1.42-.05,2.24-1.23,2.24-3.24,0-24.17,.25-46.52-4.17-70.28-.32-1.72-.74-3.57-2.09-4.68-1.25-1.03-3.06-1.15-4.62-.71s-2.96,1.29-4.22,1.7Z"/><path d="M121.91,88.49c-.07-1.08-.26-3.02-2.62-3.02-2,0-2.1,2.24-2.09,2.9,.14,19.11,1.32,37.84,1.46,56.95,.01,1.51,.04,3.09,.72,4.44s2.23,2.4,3.68,1.99c2.18-.6,2.47-3.53,2.31-5.78-1.31-19.36-1.89-34.44-3.45-57.48Z"/><path d="M142.04,168.25c-7.72-1.29-14.16-8.13-14.99-15.91-.18-1.68-.13-3.41-.7-4.99s-1.99-3.04-3.67-2.96c-2.55,.12-3.63,3.27-3.96,5.8-1.33,10.3-.99,20.82,.99,31.02,.74,3.82,1.81,7.76,4.43,10.64,2.62,2.88,7.24,4.28,10.52,2.19,.46-.29,.92-.72,.92-1.27,0-1.19-1.74-1.24-2.93-1.15-3.59,.28-7.17-2.47-7.82-6.02-.16-.9-.06-2.01,.74-2.45,1.21-.67,2.45,.75,3.32,1.83,2.46,3.03,6.79,4.41,10.55,3.34,.83-.24,1.74-.72,1.87-1.57,.13-.86-.65-1.62-1.49-1.86s-1.72-.12-2.59-.14c-4.01-.12-7.51-4.01-7.2-8.01,.08-1,.62-2.19,1.62-2.17,.93,.02,1.43,1.05,1.84,1.89,1.42,2.88,4.21,5.04,7.35,5.69,.87,.18,1.82,.24,2.6-.18s1.26-1.48,.81-2.24c-.43-.72-1.4-.84-2.23-.98-5.5-.91-9.85-6.35-9.53-11.91,1.58,.07,2.83,1.27,3.96,2.38,1.13,1.1,2.48,2.25,4.05,2.16s3.08-2.84,1.54-3.1Z"/><path class="j" d="M77.41,98.29l2.45-9.48,.91,2.27,1.96-11.09,.88,4.36,2.61-7.84,.51,5.14,.74-8.78,1.17,4.15,2.28-10.95c1.79,.63,3.86-1.44,3.23-3.23-.41-1.16-1.45-2.55-2.14-2.98-.63-.39-.7-3.99-.31-3.99,2.95,0,3.78-2.01,4.92-3.41,.86-1.05,2.34-1.51,2.96-2.72s1.27-2.19,.11-2.89c-1.1-.67-3.44-.85-4.68-.43-1.22,.41-2.09,1.13-3.16,1.94,.53-1.49-1.24-4.22-2.52-5.15-7.62-5.6-11.77-4.98-15.24-3.22-4.06,2.06-13.63,10.09-13.63,12.04,.88-1.01,1.56-2.01,2.89-2.09-.48,.89-.19,1.44-.09,2.45-1.32-.32-3.88,.17-4.45,1.4-.5,1.08,.04,2.2,1.14,2.64,1.1,.44,3.07,.46,3.65,1.49s1.47,1.25,2.34,1.99c-.99,.71-2.01,1.46-2.63,2.51s-.75,2.49,.03,3.43,2.56,.91,3.72,.04c1.76,5.87,2.95,11.92,3.54,18.02l1.68-3.29,.43,7.1c.71-.96,1.16-2.1,1.31-3.28l.28,8.03,1.58-2.1c-.19,2.89,.29,5.81,1.4,8.48,.13-.24,.26-.49,.11-.56Z"/><path class="d" d="M99.1,48.95c-.03,.52-.38,.96-.78,1.28s-.88,.54-1.31,.83c-1.15,.78-1.9,1.99-2.78,3.07-.22,.26-.45,.53-.76,.66s-.73,.1-.93-.17c-.33-.43,.05-1.06,.53-1.32s1.05-.34,1.45-.7c.62-.56,.63-1.64,1.34-2.08,.28-.17,.63-.21,.96-.25s.68-.1,.93-.32,.38-.63,.17-.89c-.16-.19-.43-.24-.68-.24-1.03,.01-1.96,.58-2.76,1.22s-1.55,1.38-2.47,1.83c-.17,.08-.38,.15-.53,.04s-.04-.43,.12-.35l1.94-1.47c.82-.62,1.66-1.25,2.64-1.51,.99-.27,2.17-.09,2.92,.35Z"/><path class="d" d="M91.06,55.84c.22-1.27,.18-2.56,.14-3.84l.7,2.43c.05,.18,.1,.36,.08,.55-.03,.23-.19,.43-.37,.56s-.4,.22-.54,.31Z"/><path class="d" d="M66.04,59.57l.59-.04c-.09-1.75-.59-3.47-1.44-4.99,.45,1.24,.91,2.56,.65,3.85-.04,.21-.1,.42-.09,.64s.11,.44,.3,.54,.48-.02,0,.01Z"/><path class="d" d="M65.28,58.89c.39-.81,.14-1.82-.42-2.51s-1.38-1.14-2.22-1.47c-.73-.29-1.55-.52-2.31-.29-.31,.09-.61,.3-.68,.61-.08,.36,.19,.71,.51,.87s.7,.19,1.06,.24c1.47,.23,2.83,1.1,3.66,2.34-.24-.56-.48-1.14-.85-1.62s-.89-.89-1.49-.99c-.51-.09-1.04,.05-1.55,0-.18-.02-.36-.07-.51-.18s-.24-.3-.2-.47c.07-.34,.5-.43,.84-.42,1.04,.04,2.08,.39,2.93,1,.52,.37,1.02,.98,.86,1.6-.03,.11-.08,.22-.1,.34-.05,.39,.29,.71,.47,.97Z"/><path class="d" d="M72.73,64.71l1.75,5.34c.03-.67,.26-1.34,.66-1.88,.55,2,1.01,4.02,1.38,6.06-.12-1.63,.36-3.3,1.32-4.61l1.07,5.64c-.08-1.63,.09-3.28,.5-4.86,.09-.35,.27-.76,.63-.8,.4-.04,.66,.43,.7,.83s0,.85,.26,1.16c-.37-2.05-.19-4.2,.53-6.16,.74,.52,1.26,1.35,1.4,2.24-.13-.66,.11-1.33,.25-1.98s.12-1.44-.39-1.88c-.33-.28-.79-.35-1.23-.39-2.2-.2-4.42-.11-6.6,.28-.85,.15-1.75,.38-2.23,.99Z"/><path class="d" d="M87.66,66.49c-1.84,3.88-3.61,7.22-4.64,10.93-.73-1-1.3-2.75-1.23-3.99-1.28,4.39-1.79,8.43-2.03,12.99-1.2-2.3-2-4.44-1.84-7.03-1.2,4.05-1.45,8.38-.73,12.54-1.24-4.95-1.3-10.19-.18-15.17-1.18,3.49-1.31,4.46-1.93,7.25-.24-5.01-.12-9.18-1.53-13.76-.36,1.75-.98,3.44-1.81,5.02,.3-3.05-.26-6.18-1.58-8.94,1.15,3.25,1.56,6.77,1.18,10.2,1.2-1.44,1.96-3.24,2.16-5.1,.89,4.82,.95,9.54,1.55,14.4,0-2.1,.87-4.07,1.22-6.14-.71,4.5-.28,9.17,1.25,13.46-.49-3.73-.48-7.53,.05-11.26,.44,2.1,1.34,4.08,2.43,5.93,.36-4.21,.45-7.55,1.69-11.8,.61,1,.91,1.25,1.52,2.25,1.49-3.94,2.98-7.87,4.46-11.76Z"/><path class="i" d="M80.83,56.22c3.2,.52,6.33,1.48,9.27,2.85,1.02,.48,2.04,1.02,2.79,1.86s1.18,2.04,.85,3.11c-.42,1.38-1.96,2.15-3.4,2.2s-2.83-.45-4.23-.82c-6.44-1.7-13.26-.66-19.82,.54-.97,.18-2.12,.31-2.83-.38-.65-.63-.63-1.7-.3-2.55,.74-1.89,2.62-3.06,4.44-3.96,4.12-2.04,8.77-3.58,13.23-2.86Z"/><path class="d" d="M70.37,59.59c-1.1-.35-2.42,.14-3.02,1.13-.08,.14-.16,.32-.07,.46,.13,.2,.44,.11,.65,0l1.69-.88c.18-.09,.36-.19,.49-.34s.2-.37,.26-.38Z"/><path class="d" d="M66.67,61.68c-.18-.12-.43-.13-.62-.01-.12,.08-.22,.22-.19,.36,.03,.15,.18,.26,.34,.25s.29-.11,.37-.25,.09-.29,.11-.35Z"/><path class="d" d="M91.02,63.25c.18-.19,.16-.51,.02-.74s-.37-.38-.6-.52c-2.83-1.72-6.2-2.37-9.51-2.38s-6.59,.6-9.84,1.23c-1.34,.26-2.78,.58-3.72,1.57-.25,.26-.43,.71-.15,.93,.13,.1,.32,.1,.48,.09,3.71-.18,7.38-.81,11.08-1.1s7.5-.22,11.02,.97c.28,.1,.58,.2,.88,.13s.55-.38,.33-.21Z"/><path d="M91.12,37.99c2.02-3.9,6.09-6.65,10.46-7.07-2.5-.7-5.3-.23-7.44,1.25,1.7-3.35,3.48-6.8,6.39-9.16-1.91,.25-3.72,1.19-5.03,2.6,1.39-4.37,4.29-8.24,8.1-10.79-3.49,.83-6.85,2.19-9.94,4.02,2.03-1.8,4.24-3.39,6.6-4.72-3.42-.04-6.84,1.08-9.58,3.13l5.47-5.28c-4.76,1.36-8.79,5.08-10.52,9.72-.11-1.35,.35-2.69,1.05-3.85s1.63-2.16,2.55-3.14c-3.4,1.48-6.15,4.41-7.41,7.9-.29-2.17,.24-4.43,1.45-6.24-1.83,1.28-2.65,3.56-3.11,5.74s-.69,4.47-1.75,6.43c-.68,1.26-1.72,2.43-1.73,3.86,0,1.16,.7,2.23,1.62,2.92s2.05,1.05,3.17,1.34c2.02,.51,1.02,1.51,3.07,1.12s3.33,2.78,4.42,.99c-.89,1.4,2.35-2.03,2.14-.75Z"/><path class="d" d="M87.82,26.46l4.7-4.09c-.77,1.78-1.55,3.56-2.32,5.35,.21-1.34,.59-2.64,1.13-3.88-1.09,1-2.27,1.89-3.5,2.62Z"/><path class="d" d="M85.45,26.92c.8-1.48,1.39-3.07,1.76-4.71-1.24,1.37-2.7,2.54-4.3,3.45,1.27-.59,2.46-1.33,3.53-2.22-.48,1.2-.85,2.45-.99,3.47Z"/><path class="j" d="M80.63,49.85c1.25,1.54,2.09,3.51,3.81,4.49,1.56,.89,3.65,.7,5.08-.4s2.15-3.01,1.89-4.79c-.26-1.77-1.47-3.38-3.1-4.11-1.63-.74-3.63-.59-5.14,.38-1.5,.97-2.46,2.74-2.55,4.43Z"/><path class="l" d="M74.02,50.84c-.46-1.38-1.46-2.59-2.77-3.23-1.31-.64-2.91-.69-4.22-.05s-2.29,1.95-2.45,3.4c-.11,1.02,.17,2.06,.63,2.98,.77,1.52,2.21,2.85,3.92,2.91,1.46,.05,2.85-.86,3.65-2.08s1.62-2.77,1.23-3.92Z"/><path class="d" d="M90.26,47.67c-.41-.8-1.19-1.39-2.07-1.57,.42,.17,.72,.52,1.03,.85s.67,.65,1.04,.72Z"/><path class="d" d="M87.8,45.73c-1.29-.27-2.67-.29-3.9,.18s-2.3,1.47-2.65,2.74c1.49-2.04,4.14-3.18,6.55-2.92Z"/><path class="d" d="M89.87,50.73c-.67,.83-1.66,1.46-2.73,1.5,.58,.1,1.19,0,1.71-.28s.93-.75,1.02-1.22Z"/><path class="d" d="M87.97,52.41c-1.88,.46-3.96,.11-5.58-.96,.85,.52,1.73,1.01,2.69,1.26s2.03,.22,2.89-.3Z"/><path class="d" d="M90.79,49.72c.17,1.62-.86,3.27-2.35,3.94-1.49,.67-3.32,.41-4.65-.54,1.17,1.3,3.23,1.7,4.8,.94s2.53-2.63,2.2-4.34Z"/><path class="g" d="M90.75,49.04c-.74-1.33-2.11-2.28-3.61-2.52-1.5-.23-3.1,.26-4.21,1.31-.53,.5-.95,1.11-1.54,1.52-.26,.18-.6,.44-.48,.74,.1,.25,.43,.28,.7,.32,.49,.09,.91,.38,1.35,.61,1.32,.71,2.91,.9,4.36,.54s2.76-1.28,3.43-2.53Z"/><path class="d" d="M73.55,51.88c.17,.03,.34-.11,.38-.28s-.03-.35-.14-.48-.26-.22-.42-.31c-.97-.52-2.1-.73-3.2-.64s-2.17,.48-3.09,1.08c-.57,.37-1.1,.84-1.34,1.47-.1,.27-.15,.57-.02,.83,.15,.3,.49,.45,.82,.48s.66-.04,1-.07c.54-.05,1.08,.01,1.62-.05,.83-.1,1.59-.47,2.31-.89s1.42-.88,2.07-1.15Z"/><path d="M89.52,47.86c-.46-.38-1.04-.57-1.61-.72-.94-.25-1.94-.41-2.88-.16-.87,.24-1.59,.81-2.3,1.37l-1.64,1.3c-.14,.11-.28,.24-.28,.41,0,.16,.13,.29,.27,.35s.3,.07,.46,.09c.62,.08,1.19,.37,1.79,.57,2.26,.77,5.32-.23,6.57-1.34,.12-.1,.26-.27,.22-.45-1.1,.97-2.53,1.6-3.98,1.79-1.46,.18-2.97-.08-4.28-.75-.18-.09-.38-.24-.35-.44,.02-.12,.12-.21,.21-.28,1.33-1.07,2.78-2.19,4.48-2.34,1.57-.14,3.51,.38,3.9,1.92,0,0-.12-.94-.58-1.32Z"/><path d="M85.73,47.96c-.15-.25-.47-.36-.75-.3s-.52,.27-.66,.53-.19,.55-.21,.84c-.02,.39,.02,.78,.13,1.15,.05,.19,.13,.38,.27,.52,.24,.23,.63,.25,.93,.11s.51-.43,.63-.73c.24-.59,.2-1.28-.11-1.84-.05-.09-.14-.2-.25-.17-.08,.01-.13,.09-.14,.17s.01,.16,.03,.23c.1,.36,.13,.74,.09,1.11-.02,.2-.06,.4-.17,.56s-.32,.28-.51,.23c-.15-.03-.27-.15-.34-.29s-.1-.29-.12-.45c-.05-.34-.1-.7,.02-1.02s.46-.59,.79-.51c.09,.02,.17,.06,.26,.04s.14-.16,.1-.17Z"/><path d="M70.52,52.21c.03-.36,.06-.72-.05-1.07s-.38-.65-.73-.72c-.41-.07-.81,.2-1.06,.53-.36,.47-.54,1.08-.48,1.68,.04,.47,.27,.96,.7,1.14,.41,.17,.91,0,1.2-.33s.4-.8,.39-1.24c0-.09-.02-.2-.1-.23-.13-.05-.23,.11-.27,.24-.06,.24-.07,.49-.16,.72s-.27,.45-.52,.47c-.19,.02-.38-.08-.5-.23s-.18-.34-.21-.52c-.06-.39,0-.8,.17-1.16,.11-.24,.29-.47,.55-.55s.58,.02,.66,.28c.04,.12,.02,.25,0,.37s-.05,.25-.03,.37,.09,.25,.21,.28,.27-.06,.25-.02Z"/><path d="M73.85,51.76c.15-.07,.22-.24,.19-.4s-.12-.3-.23-.42c-.31-.35-.74-.57-1.17-.74-1.01-.39-2.12-.5-3.18-.31s-2.07,.67-2.88,1.38c-.48,.42-.89,.92-1.12,1.51-.08,.22-.14,.46-.12,.7s.15,.47,.35,.6c.3,.18,.68,.08,1.02,.04,.85-.11,1.71,.14,2.56,.05,.81-.08,1.55-.46,2.24-.89s1.31-.83,2-1.25c.06-.04,.31-.24,.31-.24,0,0-.11,.02-.37,.12-.87,.34-1.5,.77-2.33,1.21s-1.74,.79-2.67,.72c-.61-.05-1.21-.27-1.81-.16-.25,.05-.54,.14-.73-.03-.2-.18-.11-.5,.01-.74,.44-.85,1.2-1.52,2.06-1.93s1.83-.59,2.79-.58c.59,0,1.19,.08,1.75,.28s.94,.35,1.31,.81c0,0,.14,.19,0,.29Z"/><path class="d" d="M73.69,50.55c-1.03-1.32-2.78-2.06-4.45-1.87-1.67,.19-3.21,1.28-3.93,2.8-.19,.41-.33,.85-.34,1.31,0,.07,0,.15,.07,.18,.1,.05,.19-.08,.23-.19,.24-.7,.58-1.38,1.05-1.95s1.08-1.04,1.78-1.28c1.03-.36,2.16-.22,3.22,.04,.85,.2,1.71,.49,2.38,.96Z"/><path class="d" d="M68.68,48.32c-1.54,.14-2.98,1.15-3.64,2.55,.17-.82,.67-1.57,1.35-2.05s1.56-.68,2.28-.5Z"/><path class="d" d="M73.78,52.02c-.44,.05-.8,.35-1.15,.63-.56,.45-1.15,.86-1.79,1.17s-1.35,.52-2.06,.54c-.8,.02-1.6-.19-2.39-.1-.03,.03-.01,.09,.02,.11s.08,.03,.12,.04l1.04,.13c.68,.09,1.37,.17,2.04,.06,.91-.15,1.73-.65,2.45-1.24,.56-.47,1.08-1.01,1.73-1.34Z"/><path class="d" d="M73.65,52.35c-.17-.01-.33,.07-.45,.19s-.2,.26-.3,.4c-.43,.66-1.01,1.21-1.7,1.6,.57-.05,1.04-.47,1.39-.92s.65-.95,1.05-1.28Z"/><path class="d" d="M70.48,54.92c-.3,.26-.71,.37-1.1,.38s-.79-.07-1.18-.16c-.61-.13-1.23-.26-1.75-.59,.47,.61,1.2,1.02,1.97,1.08s1.56-.22,2.06-.71Z"/><path class="j" d="M87.95,41.47c1.84-.21,3.2-1.75,4.4-3.16,1.2-1.41,2.63-2.92,4.48-3-2.82-.17-5.69,.66-7.99,2.31,.85-2.05,2.39-3.81,4.3-4.92-2.35,.4-4.59,1.38-6.48,2.84,.59-2.48,2.17-4.7,4.31-6.08-3.3,.46-6.49,1.74-9.2,3.68-.14-2.22,.62-4.48,2.07-6.16-2.55,1.08-4.79,2.87-6.41,5.11-.28-2.43,.07-4.92,1.01-7.18-3.21,1.85-5.56,5.13-6.27,8.76-1.59-.96-3.49-1.39-5.34-1.23,2,.92,3.5,2.87,3.88,5.05-1.32,0-2.63-.64-3.45-1.67,.67,1.45,1.84,2.65,3.27,3.37-2.41-.96-5.34-.51-7.35,1.14,1.65-.33,3.47,.39,4.44,1.77-1.97-.89-4.6,.37-5.15,2.46,1.87-1.29,4.33-1.17,6.57-1.52,1.94-.3,3.8-.99,5.68-1.55s3.85-1,5.8-.8,3.92,1.14,5.24,2.74c.49-.01,.97-.03,2.2-1.95Z"/><path class="j" d="M78.67,40.65c-2.42,1.25-4.04,3.91-4.05,6.63-.76-1.79-.7-3.91,.17-5.65-1.73,1.77-2.61,4.33-2.34,6.78-1.06-1.75-1.41-3.92-.9-5.85-1.34,1.14-2.31,2.7-2.74,4.4-.92-1.85-.51-4.27,.98-5.71-2.11,1.23-3.59,3.48-3.88,5.9-.41-1.47-.24-3.1,.45-4.46,.03-.07-.09-.13-.13-.07s.05,.14,.1,.1c-1.22,.08-2.38,.74-3.05,1.77,.79-1.34,2.03-2.4,3.5-2.97,1.19-1.79,2.92-3.22,4.91-4.04-.51-.38-1.08-.68-1.69-.88,2.04-.93,4.56-.71,6.42,.56,.76-1.66,2.13-3.04,3.78-3.83-.92,1.17-1.63,2.49-2.12,3.89,2.6-.81,5.57-.33,7.87,1.36,.88-.46,1.96-.55,2.9-.24,.95,.31,1.76,1.02,2.2,1.91-2.05-.33-4.16-.32-6.21,.04,1.68-.27,3.44,.06,4.91,.92s2.61,2.25,3.19,3.84c-2.03-.91-4.19-1.55-6.39-1.88,1.61,.25,3.04,1.41,3.62,2.93-1.75-1.81-4.07-2.94-6.34-4.04,1.2,.47,1.97,1.86,1.72,3.13-.83-1.34-1.92-2.51-3.2-3.43,.62,1.16,.61,2.63-.01,3.79,.13-1.44-.28-2.92-1.12-4.09,.8,1.61,.71,3.64-.23,5.17-.12-2.15-1.07-4.25-2.3-6.01Z"/><path class="h" d="M69.68,61.1c.15,.78,.23,1.58,.23,2.37"/><path class="h" d="M71.88,60.34c.18,1.03,.29,2.07,.32,3.12"/><path class="h" d="M74.62,59.59c.37,1.11,.53,2.28,.47,3.45"/><path class="h" d="M76.94,59.43c.37,1.08,.53,2.24,.47,3.39"/><path class="h" d="M80.37,58.64c.47,1.21,.61,2.55,.38,3.83"/><path class="h" d="M82.65,59.01c.4,1.16,.46,2.43,.19,3.63"/><path class="h" d="M85.47,59.27c.3,1.27,.34,2.6,.11,3.88"/><path class="h" d="M88.22,60.06c.34,1.14,.35,2.38,.03,3.53"/><path class="h" d="M89.66,61.01c.15,.97,0,1.98-.4,2.88"/><path class="j" d="M77.12,43.88c-1.23,2.38-2.15,4.93-2.73,7.54-.53,2.4-.75,5.01,.3,7.24,.65,1.38,2.08,2.62,3.56,2.26,1-.24,1.72-1.17,2-2.16s.2-2.04,.1-3.07c-.37-3.81-.97-7.6-3.23-11.81Z"/></g></g></g></svg>