<?xml version="1.0" encoding="UTF-8"?><svg xmlns="http://www.w3.org/2000/svg" xmlns:xlink="http://www.w3.org/1999/xlink" viewBox="0 0 229.72 340.13"><defs><style>.f{fill:#fff;}.g{filter:url(#d);}</style><filter id="d" filterUnits="userSpaceOnUse"><feOffset dx="14.17" dy="8.5"/><feGaussianBlur result="e" stdDeviation="0"/><feFlood flood-color="#000" flood-opacity=".5"/><feComposite in2="e" operator="in"/><feComposite in="SourceGraphic"/></filter></defs><g id="a"/><g id="b"><g id="c"><g class="g"><g><path d="M226.03,234.41c-1.05-.07-1.99-.05-2.9-.2-2.18-.36-4.37-.73-6.53-1.2-2.21-.48-4.39-1.08-6.58-1.62-1.33-.32-2.69-.54-3.99-.95-2.2-.7-4.35-1.54-6.55-2.27-1.06-.35-2.17-.56-3.41-.88-.13,1.05-.24,1.92-.34,2.8-.37,3.04-.77,6.08-1.1,9.13-.3,2.72-.55,5.45-.74,8.18-.04,.57,.2,1.23,.5,1.73,.44,.73,.58,1.47,.57,2.29-.01,3.12-.46,6.19-.9,9.27-.63,4.35-1.05,8.72-1.02,13.12,.03,3.49-.07,6.99-.03,10.48,.03,3.02,.2,6.04,.27,9.06,.09,3.92,.14,7.84,.23,11.76,.12,5,.26,10.01,.39,15.01,0,.38,.04,.76-.03,1.13-.13,.77-.56,1.22-1.34,1.2-1.11-.03-1.87,.59-2.61,1.22-2.02,1.69-3.97,3.48-6.01,5.14-1.68,1.36-3.49,2.57-5.2,3.91-1.64,1.28-3.17,2.68-4.83,3.93-1.94,1.46-4.19,2.34-6.43,3.22-.6,.23-1.25,.45-1.94-.04,.22-1.01,.96-1.56,1.68-2.15,1.93-1.58,3.88-3.15,5.78-4.77,1.97-1.68,3.89-3.44,5.85-5.14,2.14-1.86,4.31-3.68,6.44-5.54,.26-.22,.44-.6,.52-.94,.3-1.24,.57-2.48,.81-3.73,.08-.41,.15-.85,.09-1.26-.59-3.96-.17-7.92-.06-11.88,.06-2.22,.34-4.44,.25-6.65-.24-5.85-.1-11.7-.57-17.54-.42-5.22-.36-10.47-.52-15.71-.04-1.18,.02-2.38-.16-3.53-.52-3.23-.68-6.47-.7-9.74,0-.65-.18-1.31-.21-1.96-.03-.84-.11-1.72,.07-2.52,1.22-5.37,1.29-10.76,.53-16.19-.29-2.04-.57-4.09-.85-6.13-.09-.69-.64-.9-1.16-1.1-1.19-.46-2.36-.97-3.58-1.32-1.31-.37-2.29-1.24-3.34-1.99-1.03-.74-1.99-1.59-2.98-2.38-.25-.2-.52-.37-.87-.62-.12,.51-.25,.91-.31,1.31-.61,4.2-1.28,8.4-1.8,12.61-.28,2.34-.3,4.7-.44,7.06-.11,2.02-.26,4.04-.32,6.06-.02,.59,.12,1.22,.33,1.78,1.05,2.8,1.57,5.71,1.98,8.67,.35,2.53,.54,5.06,.68,7.6,.15,2.97-.52,5.82-.85,8.72-.25,2.2-.7,4.37-.97,6.57-.57,4.73-1.09,9.47-1.62,14.2-.12,1.08-.15,2.17-.29,3.24-.33,2.62-.72,5.23-1.06,7.84-.14,1.12-.23,2.25-.32,3.38-.25,3.39-.65,6.77-.48,10.17,.03,.56,.07,1.04,.42,1.57,.87,1.32,.63,4.05-.56,4.96-.85,.66-2,1.07-3.07,1.28-2.73,.54-5.47,.92-8.14,1.76-3.86,1.22-7.81,2.14-11.71,3.22-.86,.24-1.66,.69-2.53,.91-.85,.22-1.75,.32-2.63,.38-.72,.05-1.22-.32-1.54-1-.43-.9-.33-1.39,.61-1.76,1.4-.55,2.84-1.02,4.25-1.54,1.41-.52,2.82-1.08,4.24-1.58,1.29-.46,2.59-.87,3.88-1.31,3.53-1.18,7.05-2.41,10.38-4.09,.96-.48,1.47-1.11,1.33-2.21-.06-.51,0-1.04-.03-1.56-.13-3.03,.18-5.99,.77-8.99,.77-3.88,1.22-7.84,1.55-11.78,.56-6.73,1.12-13.46,1-20.22-.06-3.53-.48-7.05-.74-10.58-.17-2.3-.39-4.6-.54-6.91-.05-.79-.25-1.47-.79-2.06-.63-.69-.91-1.54-.95-2.46-.2-5.09-.36-10.18-.6-15.27-.26-5.56-.59-11.12-.9-16.68-.03-.51-.15-1.02-.24-1.65-.36,.1-.66,.15-.94,.26-3.34,1.28-6.8,1.88-10.38,1.89-1.93,0-3.86,.2-5.77,.44-1.56,.2-2.99,.83-4.32,1.68-.24,.15-.46,.35-.71,.47-.72,.36-1.2,.15-1.32-.66-.18-1.21-.34-2.44-.36-3.66-.04-2.41-.1-4.82,.06-7.22,.19-2.96,.53-5.92,.92-8.86,.34-2.52,.9-5,1.27-7.52,.2-1.33,.14-2.7,.29-4.05,.08-.69,.34-1.37,.53-2.05,1.54-5.39,2.28-10.87,2.19-16.49-.08-5.33-.03-10.67,.08-16.01,.05-2.34-.41-4.6-.66-6.9-.51-4.78-1.09-9.56-1.62-14.34-.2-1.78-.14-3.59-.83-5.29-.12-.3-.19-.65-.19-.97,.04-2.63-1.09-4.94-2.03-7.3-.1-.26-.22-.52-.3-.79-.31-1.06-.43-2.13-1.39-2.96-.75-.65-1.13-1.71-1.79-2.5-2.26-2.69-4.79-5.06-7.85-6.85-2.19-1.29-4.26-2.79-6.48-4.04-2.64-1.49-5.56-2.33-8.44-3.23-3.42-1.07-6.79-2.3-10.21-3.37-1.93-.6-3.92-1-5.88-1.5-.78-.2-1.54-.47-2.32-.59-4.24-.66-8.48-1.29-12.72-1.92-.41-.06-.86-.07-1.27,.02-.44,.09-.82,.18-1.16-.21-.08-.09-.25-.13-.38-.15-4.28-.65-8.55-1.48-12.93-.98-1.77,.21-3.58,.08-5.38,.11-6.09,.1-12.18,.19-18.27,.32-1.17,.02-2.35,.16-3.52,.3-.29,.03-.58,.26-.81,.45-.98,.82-1.47,.86-2.26-.03-.34-.38-.67-.48-1.1-.45-3.24,.18-6.5-.04-9.71,.74-1.64,.4-3.36,.47-5.01,.82-1.56,.33-3.07,.84-4.61,1.27-.34,.1-.69,.18-1.11,.09,.18-.13,.34-.28,.54-.37,2.2-.99,4.53-1.56,6.9-1.95,2.09-.34,4.2-.62,6.3-.82,2.11-.19,4.23-.24,6.34-.36,.32-.02,.64-.05,.91-.08,.08-.17,.17-.25,.16-.33-.36-2.8-.3-5.66-1.38-8.34-.11-.26-.22-.52-.33-.78-.24-.57-.66-.76-1.25-.63-1.43,.32-2.86,.6-4.28,.95-3.29,.82-6.56,1.74-9.87,2.51-3.6,.84-7.01,2.15-10.29,3.82,.31,.89,.59,1.73,.89,2.55,.29,.8,1.51,1.05,1.31,2.24,1.54,.04,2.74,.79,3.76,1.93,.54,.6,.5,1.3,.48,2-.04,2.21-1.62,3.87-4.14,4.31-.02,.16-.07,.34-.06,.51,.15,1.83,.41,3.66,.46,5.49,.16,5.8,.26,11.61,.37,17.41,.04,1.94,.06,3.87,.07,5.81,0,3.26,0,6.51-.01,9.77,0,.46,0,.93,0,1.33,.26,.13,.37,.22,.51,.26,3.24,.85,5.85,4.45,4.99,9.03-.46,2.48-1.72,4.49-3.89,5.84-3.02,1.88-6.78,1.02-8.71-1.94-2.48-3.8-1.2-9.65,2.67-12.02,.63-.39,1.37-.61,2.08-.87,.43-.16,.89-.25,1.37-.38,.38-13.48,.19-26.87-.6-40.29-1.1-.32-2.18-.6-3.25-.94C1.6,101.61-.04,99.21,0,96.85c.02-1.03,.04-2.1,.31-3.09,.39-1.42,1.49-2.35,2.71-3.12,.26-.17,.56-.27,.96-.46-1.53-1.42-1.93-3.06-1.46-5,.7,.21,.51,.76,.53,1.16,.04,1.02,.27,1.96,.97,2.74,.75,.83,.9,.87,1.96,.45,2.41-.95,4.78-2.04,7.24-2.82,2.56-.81,5.21-1.33,7.81-1.99,1.28-.33,2.54-.7,3.82-1.05,1.72-.47,3.45-.93,5.19-1.39,.33-1.51,1.44-2.3,2.85-1.63,1.45,.69,2.66,.29,4.05-.02,3.36-.73,6.76-1.34,10.16-1.83,3.83-.55,7.68-.93,11.53-1.35,4.08-.44,8.18-.84,12.29-.67,3.58,.14,7.16,.38,10.75,.46,2.16,.05,4.34-.08,6.5-.22,1.6-.1,3.19-.37,4.79-.51,.84-.07,1.69-.03,2.54-.05,3.44-.05,6.89-.1,10.33-.16,.07,0,.15-.1,.33-.24-.52-.66-1.02-1.33-1.57-1.96-.5-.59-1.24-1.04-1-2.22,.97,1,1.99,1.77,2.65,2.79,1.03,1.59,2.38,2,4.24,1.68,.08-.65,.17-1.34,.25-2.03,.16-1.5,.27-3.01,.49-4.5,.28-1.92,.79-3.78,1.83-5.46,.3-.48,.55-.99,.8-1.5,.46-.93,1.18-1.84,1.29-2.81,.1-.9-.44-1.88-.73-2.81-.17-.55-.23-1.04-.05-1.64,.51-1.71,1.02-3.43,1.33-5.18,.5-2.78,.9-5.59,1.22-8.4,.29-2.52,.58-5.07,.57-7.6-.01-2.62,.2-5.17,.83-7.71,.33-1.32,.52-2.68,.73-4.03,.74-4.81,1.46-9.62,1.6-14.49,.06-2.14,.37-4.3-.21-6.44-.15-.54-.29-1.21,.35-1.76,.17,.19,.38,.33,.45,.52,.97,2.55,2.87,4.5,4.28,6.77,1.61,2.6,3.47,5.06,5,7.7,1.05,1.81,2.28,3.45,3.46,5.15,1,1.43,1.78,3,2.7,4.48,3,4.86,5.98,9.73,9.05,14.54,1.37,2.14,2.99,4.12,4.42,6.22,1.09,1.6,2.16,3.22,3.05,4.93,.49,.94,1.21,1.44,2.08,1.73,.61,.2,.9,.53,.92,1.07,.08,1.73,.35,3.47-.29,5.17-.09,.25-.08,.56-.04,.83,.3,1.84,.27,3.65-.6,5.37,1.08-.88,.93-2.23,1.31-3.42,1.15,1.55,1.36,3.66,.98,9.39,1.32-.63,2.63-1.36,4.01-1.89,1.97-.75,3.94-1.56,6.14-1.31,.2,.02,.44-.13,.64-.24,1.02-.58,2.02-1.21,3.07-1.74,.48-.25,1.05-.31,1.57-.48,4.34-1.38,8.57-1,12.71,.78,3.52,1.52,6.5,3.82,9.21,6.49,3.26,3.19,6.01,6.79,8.45,10.62,5.72,8.97,9.89,18.67,13.29,28.72,3.94,11.65,6.75,23.58,8.83,35.7,1.73,10.06,2.93,20.19,3.57,30.37,.6,9.48,.89,18.97,.43,28.46-.22,4.53-.7,9.04-.83,13.57-.11,3.64-1.03,7.06-2.07,10.49-.4,1.33-.74,2.7-.56,4.44ZM118.36,53.83l-.03-.03c-.95,1.57-1.64,3.32-3.17,4.51l.4,.77c1.23-1.34,2.4-2.66,3.62-3.94,.3-.31,.74-.48,1.12-.72-.91,.94-1.91,1.82-2.73,2.84-2.4,2.97-3.99,6.42-5.28,9.95-1.28,3.53-1.11,7.34-1.32,11.06-.02,.3,.04,.72,.23,.91,1.35,1.32,2.67,2.67,4.74,2.85,.92,.08,1.81,.44,2.72,.62,.25,.05,.55-.03,.79-.14,1.29-.57,2.63-1.07,3.84-1.79,.81-.48,1.36-.26,1.88,.25,.91,.88,1.47,1.95,1.42,3.27-.05,1.11-.14,1.23-1.26,1.5-1.08,.26-2.17,.53-3.15,.76-.19,.69,.18,.8,.51,1,1.39,.87,1.38,.89,.11,1.92-.06,.05-.06,.16-.08,.24,.24,.51,1.16,.9,.6,1.54-.55,.63-1.11-.11-1.6-.38-1.11-.61-2.15-1.38-3.29-1.92-.63-.29-.9-.66-.85-1.36-1.83,.44-3.52,.84-5.34,1.27,.38,1.26,.59,2.43,1.07,3.48,1.28,2.81,2.99,5.35,5.17,7.55,2.95,2.98,6.07,5.42,10.71,5.07,2.96-.23,5.41-1.27,7.41-3.32,2-2.06,3-4.76,4.37-7.29,.81,.33,1.31-.21,1.74-.88l.57-.7,1.68-2.53c-.36-.65-.63-1.12-.89-1.59,.77-.26,1.45-.63,1.61-1.59-.53,.54-1.06,1.08-1.58,1.62l-1.73,.59c0-.7,0-1.32,0-1.95,0-1.16,0-2.32,.01-3.47l6.97-2.51-.06-.2-6.01,1.36c-.03,.23,0,.48-.11,.63-.21,.28-.5,.5-.76,.75-1.53,.62-3.02,1.35-4.59,1.83-3.18,.98-6.13,2.42-8.99,4.09-.53,.31-1.08,.58-1.65,.81-.51,.21-1.55-.15-1.79-.69-.22-.51-.55-1.07,0-1.69,.99-1.12,1.81-2.32,3.27-3.01,1.14-.53,2.21-1.07,3.45-.76,1.07,.26,2.04,0,3.02-.3,2.33-.74,4.63-1.62,7.12-1.73,.07,0,.14-.11,.3-.24,.14-1.94,.19-3.95-.2-6.01h-1.85c-.34-.59-.19-1.03,.42-1.2,.14-.04,.41,.42,.71,.75,3.99-1.21,7.26-3.69,10.2-6.7-2.83,2.32-5.86,4.32-9.37,5.78-.41-1.75-.8-3.39-1.19-5.03-.14-.59-.25-1.21-.48-1.77-.79-1.85-1.29-3.81-2.37-5.57-.76-1.24-1.4-2.53-2.57-3.48-.41-.34-.78-.88-.91-1.39-.33-1.24-1.14-2.12-2.18-2.65-1.67-.85-3.39-1.73-5.19-2.13-1.91-.43-3.94-.43-5.7,.87-.48,.36-1.08,.56-1.62,.83,.54-.41,1.07-.85,1.63-1.24,2.23-1.53,4.63-1.35,7.04-.59,.94,.29,1.87,.66,2.76,1.09,.64,.3,1.19,.36,1.88,.12,.6-.21,1.36-.35,1.92-.15,1.25,.43,2.5,.33,3.77,.43,1.17,.09,2.33,.32,3.5,.47,.69,.09,1.39,.18,2.08,.18,.81,0,1.63-.12,2.36,.37-1.41,.1-2.82,.15-4.22,.09-1.69-.08-3.37-.26-5.06-.4-.69-.06-1.39-.1-2.08-.18-.72-.09-1.45-.34-2.04,.12,1.76,2.37,3.49,4.7,5.17,6.95,1.43-.2,2.91-.38,4.39-.64,1.62-.29,3.23-.6,4.83-1,1.62-.41,3.05-1.24,4.41-2.19,.88-.62,1.8-1.21,2.57-1.95,.35-.33,.55-1.01,.52-1.5-.12-1.59-1.67-2.8-3.3-2.75-2.21,.06-4.43,.11-6.64,.14-1.49,.02-2.9-.33-4.25-.92-.65-.28-1.31-.54-1.94-.84-1.85-.9-3.71-1.78-5.33-3.07,.58,.18,1.18,.3,1.73,.55,2.15,.97,4.24,2.06,6.42,2.93,1.16,.46,2.45,.67,3.7,.78,1.69,.14,3.4,.09,5.09,.08,.53,0,1.06-.12,1.86-.22-.36-.63-.56-1.03-.8-1.41-1.45-2.26-2.92-4.51-4.36-6.78-.53-.83-.99-1.72-2.04-1.5-.29-.82-.41-1.58-.78-2.19-2.37-3.92-4.77-7.81-7.2-11.68-.41-.65-.99-1.19-1.6-1.89l-1.05,1.8-.23-1.76-1.4-.31c.15-.22,.2-.36,.3-.43,1.49-1.1,1.6-1.74,.6-3.25-1.49-2.23-3.45-4.13-4.58-6.61-.11-.25-.35-.44-.51-.67-1.17-1.71-2.36-3.41-3.51-5.13-.55-.82-1.01-1.7-1.56-2.52-.16-.24-.47-.49-.73-.53-.81-.11-1.11-.82-.96-1.29,.39-1.17-.55-1.48-1.03-2.12-.1,.55-.1,1.06-.1,1.58,0,1.08,.1,2.18-.01,3.25-.09,.93-.21,1.8,.45,2.59l-.72-.23,.08,1.57,.65-1.39c-.06,.54,.05,1.44-.2,1.56-.8,.37-.6,1-.67,1.56-.24,2.11-.4,4.23-.69,6.33-.17,1.24-.21,2.38,.81,3.06-.51,.75-1.14,1.34-1.35,2.05-.64,2.22-1.31,4.45-1.62,6.73-.4,2.94-.44,5.92-.66,8.89-.09,1.13,.3,2.01,1.17,2.7l-1.44-.55-.27,1.93h1.11l.19,.85-1.25-.31c-.11,.52-.23,.97-.3,1.42-.38,2.21-.76,4.42-1.09,6.63-.05,.32,.13,.68,.2,1.02q-1.11,2.31-.76,3.18c.51-.49,.98-.92,1.41-1.37,.64-.67,1.26-1.36,1.89-2.05Zm13.01,59.2l-.03-.03c1.51,1.41,3.02,2.82,4.52,4.21,1.41-.18,.42-1.38,.97-2.3,.49,1.49,1.67,1.24,2.75,1.37l-.5,1.34,.9,1.36-1.7-.24-1.23,1.85c2.22,4.4,2.86,9.27,3.72,14.09,1.39-.22,.17-1.42,.87-2.02,.59,1.12,1.55,1.25,2.68,.96l-.25,2.4-2.05,1.56c-.51-.5,.34-1.83-1.16-1.78,0,.43-.04,.8,0,1.16,.49,4.26,.99,8.53,1.49,12.79,.21,1.78,.6,3.55,.62,5.33,.05,6.7-.03,13.41-.04,20.11,0,3.94-.92,7.77-1.42,11.65-.2,1.57,.55,2.67,2.2,2.64,.21,0,.42,.04,.71,.07l-.52,1.31,.83,1.29-1.61-.08c-.53,.37-.44,1.15-1.2,1.26-.05-.72-.09-1.36-.13-2.01l.2-.03,.31,.71,1.19-.65,.14-1.44c-.86-.11-1.65-.25-2.14,.47l-.15-1.51h-.32l-2.08,9.59c.93,1.07,1.76,1.86,3.27,1.43l-.58,1.44,.86,1.3c-.67-.04-1.17-.07-1.67-.1l-1.08,1.55-.31-2.32,.21-.06,.4,.78,1.18-.65,.16-1.57c-.77,.11-1.44,.2-2.11,.29l-.24-.88-.28,.05c-.87,7.5-1.73,15-.77,22.67,1.29-.6,2.36-1.21,3.5-1.59,2.02-.68,4.12-1,6.26-.95,2.27,.05,4.53-.04,6.76-.51,2.07-.43,4.1-.99,5.99-2-.06-.63-.1-1.15-.17-1.66-.03-.23-.13-.45-.21-.66-1.41-3.77-2.38-7.64-2.65-11.68-.06-.92-.42-1.82-.58-2.74-.29-1.66-.72-3.33-.77-5-.07-2.26,.24-4.52,.24-6.78,0-2.69-.17-5.37-.27-8.06,0-.05,.01-.11-.01-.14-.16-.21-.29-.53-.49-.57-.2-.05-.53,.12-.69,.29-.26,.3-.44,.68-.81,1.29-.18-.92-.3-1.54-.41-2.13l-1.73-.27,1.57-1.23c0-.57,0-1.06,0-1.78,.79,.74,1.37,1.64,2.5,1,0-1.8,.05-3.59-.01-5.37-.11-3.39-.31-6.79-.43-10.18-.14-4.18-.15-8.37-.37-12.54-.16-3.11-.52-6.21-.9-9.3-.23-1.86-.68-3.69-1.07-5.74-.27,.35-.39,.53-.54,.68-.14,.14-.31,.24-.52,.4l-.29-1.85-1.8-.27,1.6-1.24c-.03-.55-.06-1.05-.09-1.66l1.1,.58c-.2-.92-.4-1.65-.51-2.39-.67-4.57-1.28-9.16-2.01-13.72-.35-2.23-.9-4.43-1.39-6.64-.13-.58-.35-1.13-.54-1.72l-.88,.42-.29-1.77-1.74-.3,1.29-1.21c-.58-.25-.99-.5-1.43-.6-.67-.16-1.49-.51-2.03-.28-2.41,1.04-5,1.38-7.5,2.02-2.61,.67-5.24,1.16-7.96,1.08-1.71-.05-3.23-.45-4.7-1.3-2.89-1.65-5.16-3.98-7.12-6.59-1.7-2.26-3.22-4.66-3.8-7.51-.08-.39-.33-.74-.52-1.17-3.06,.87-6.01,1.69-8.95,2.55-.36,.1-.66,.41-1.01,.63l.97,1.56-1.67-.23-1.08,1.56-.36-2.07-1.84-.18,1.64-1.49v-1.37l.22-.1,.77,1.2c3.72-1.76,7.2-3.4,10.69-5.05-.18-1.28-.4-2.44-.5-3.6-.13-1.52-.79-2.6-2.3-3.06-.36-1.82-1.01-2.36-2.81-2.34-.38,0-.75,.02-1.13,.04-2.5,.09-5,.19-7.5,.25-1.08,.02-2.17-.16-3.24-.08-2.35,.18-4.69,.54-7.04,.7-1.64,.12-3.3,.06-4.95,.04-6.74-.11-13.48-.92-20.23-.09-2.9,.36-5.82,.6-8.73,.91-.28,.03-.6,.04-.81,.19-.22,.16-.33,.47-.46,.67-.53-.04-.99-.07-1.39-.1l-1.01,1.49-.38-1.61c-3.71-.09-11.56,1.47-13.1,2.6,.83,1.29,1.48,2.65,1.46,4.22-.02,1.7-.14,3.39-.22,5.09-.03,.55-.08,1.1-.15,1.89,9.2-.98,18.29-.52,27.5-.84l-.15-1.88-1.83-.26,1.6-1.27-.09-1.52c.86,.83,1.82,1.13,3.06,.96l-.56,1.4,.84,1.23q-1.86,0-2.13,1.24c1.14,0,2.27-.05,3.39,.01,1.6,.08,3.2,.19,4.79,.37,1.59,.18,3.16,.49,4.75,.7,.83,.11,1-.09,.96-.92-.01-.3,0-.6,0-1.24,.8,1.23,1.77,1.53,3.08,1.33l-.61,.96c-.63-.7-.82-.72-2.04-.36q.45,.5,.94,.56c5.01,.57,10.02,1.09,14.89,2.51,1.81,.53,3.69,.81,5.48,1.38,3.59,1.16,7.12,2.49,10.71,3.65,2.65,.85,5.33,1.63,7.77,3,1.93,1.08,3.74,2.36,5.65,3.49,2.53,1.5,4.79,3.34,6.97,5.29Zm70.7,42.98c.58-3.75,.64-8.39,.07-9.53l-1.23,1.53c-.13-.82-.23-1.41-.32-1.95l-1.78-.28,1.54-1.21c0-.58,0-1.07,0-1.66,.78,.26,1.03,1.54,2.13,.84,0-.37,.02-.79,0-1.21-.18-3.86-.4-7.73-.54-11.59-.24-6.56-.44-13.11-.67-19.67-.02-.71-.06-1.42-.23-2.1-.07-.28-.45-.55-.75-.68-.37-.16-.72-.01-.92,.41-.15,.31-.38,.58-.72,1.08l-.32-1.97-1.79-.35c.68-.54,1.15-.92,1.56-1.24v-1.77c.84,.81,1.46,1.78,2.63,.96,.03-1.26-.26-2.55,.31-3.79,.24,.33,.32,.66,.34,1,.07,.89,.11,1.79,.18,2.68,.15,1.74,.38,3.47,.46,5.22,.15,3.35,.18,6.7,.32,10.05,.15,3.49,.33,6.98,.57,10.46,.14,2.07,.35,2.2,2.38,2.28,.07,0,.13,.1,.23,.19l-.45,1.21c.29,.45,.54,.82,.9,1.36l-1.72-.24c-.66,.9-.99,1.81-.94,2.92,.13,2.59,.23,5.18,.23,7.77,0,4.77-.37,9.52-.88,14.26-.02,.16,.04,.34,.09,.72l1.42-.92c0-.64,0-1.13,0-1.62,.76,.95,1.81,1.03,3.08,1.07-.98,1.03-.28,1.81,.13,2.68l-1.57-.24-1.08,1.62-.4-2.11c-.63,0-1.18,0-1.75,0-.3,1.68-.58,3.31-.88,4.92-.41,2.27-.67,4.59-1.28,6.81-1.25,4.55-2.81,9.01-5.16,13.12-.34,.59-.88,1.13-1.45,1.49-.76,.48-1.28,1.07-1.63,1.88-.28,.64-.51,1.63-1,1.79-.88,.3-.86,1-1.21,1.55-.3,.46-.68,1.18-1.06,1.19-.92,.04-1.3,.67-1.82,1.18-.91,.89-1.79,1.82-2.72,2.69-2.89,2.71-6.19,4.79-9.84,6.31-1.89,.79-3.89,1.13-5.95,1.11-1.64-.01-1.89,.34-1.09,1.82,.85,1.57,1.81,3.1,2.86,4.54,1.71,2.33,3.81,4.31,6.1,6.08,.42,.33,.93,.54,1.56,.9l.12-2.29c.75,1.34,1.7,1.57,3.04,1.38-1.25,1.41,.17,2.13,.4,3.06,1.6,.62,3.21,1.16,4.75,1.85,2.9,1.31,5.9,2.22,9,2.88,2.39,.51,4.74,1.24,7.09,1.91,1.41,.4,2.78,.91,4.19,1.28,1.87,.49,3.76,.88,5.64,1.35,.82,.2,1.61,.55,2.44,.71,2.64,.52,5.28,.99,7.93,1.47,.64,.12,1.29,.17,2.04,.27,.16-.67,.3-1.26,.45-1.84,.34-1.37,.66-2.74,1.03-4.1,.48-1.75,1.33-3.35,1.4-5.28,.16-4.86,.68-9.7,.88-14.56,.42-10.1,.38-20.21-.43-30.29-.5-6.26-1.15-12.5-1.75-18.75-.13-1.35-.2-1.38-1.56-1.31l-.98,1.49c-.15-.88-.25-1.46-.34-2.05l-1.76-.33c.67-.54,1.14-.92,1.58-1.28,0-.56,0-1.04,0-1.69,.79,.6,1.24,1.65,2.37,.99,0-.28,.03-.56,0-.82-.21-1.4-.42-2.8-.65-4.2-2.38-14.76-5.87-29.23-11.08-43.27-3.27-8.79-7.17-17.26-12.48-25.02-2.84-4.15-6.04-7.98-9.98-11.15-2.37-1.91-4.95-3.46-7.85-4.44-3.31-1.12-6.66-1.26-10.02-.22-.28,.09-.54,.25-.8,.38l.04,.23,1.86,.21c-.74,.97-.36,1.78,.31,2.66l-1.65-.2-1.13,1.6-.31-2.11-1.52-.17c.11-.86,1.38-.74,1.24-1.89-2.24,.98-4.1,2.27-5.88,3.83l.84,.47-.54,1.14,.8,1.36-1.63-.08-1.03,1.51c-.15-.87-.25-1.47-.39-2.31-1.57,1.16-2.36,2.69-3.67,3.74,.33-.93,.97-1.66,1.54-2.43,.25-.33,.66-.72,.62-1.04-.06-.52,.22-.65,.5-.87,.29-.23,.58-.46,.82-.64,0-.58,0-1.06,0-1.76l1.1,.95,2.47-2.13-.14-.25c-1.54,.41-3.1,.76-4.61,1.26-1.16,.38-2.28,.9-3.36,1.46-.37,.19-.87,.68-.85,1,.09,1.31-.71,2.21-1.2,3.26-.23,.49-.24,1.08-.37,1.73-.05,.02-.42,.02-.47,.15-.86,1.98-1.68,3.98-2.46,5.85,.34,1.56,1.57,1.32,2.67,1.43l-.5,1.34,.9,1.36-1.69-.23-1.08,1.56-.37-1.9c-.29,.21-.36,.4-.4,.61-.47,2.02-.96,4.04-1.4,6.07-.25,1.15,.1,1.55,1.27,1.61,.31,.02,.61,.03,1.01,.06l-.51,1.34,.9,1.36-1.68-.23-.99,1.44c-.51-.63,.03-1.52-.86-2.03-.49,1.38-.73,2.73-.65,4.07,.22,3.55,1.04,6.99,2.11,10.38,.08,.25,.25,.46,.41,.76l1.17-.84-.07-1.55c.86,.83,1.79,1.22,3.05,.97l-.56,1.38,.83,1.31-1.64-.08-1.08,1.51-.29-2.01h-1.24c.94,2.97,1.86,5.84,3.16,8.55,.17,.35,.5,.63,.58,.72,.05,.67,.04,1.12,.12,1.54,.19,.97,.5,1.92,.65,2.9,.56,3.54,1.07,7.09,1.6,10.64,.28,1.87,.39,1.98,2.33,2.02,.07,0,.14,.09,.28,.18-.16,.41-.33,.83-.48,1.21l.89,1.34c-.39-.03-.61-.03-.83-.07-.95-.15-1.32,.1-1.39,1.02-.02,.28,.06,.56,.08,.84,.33,3.81,.7,7.61,.96,11.43,.19,2.82,.08,5.67,.35,8.49,.68,7.19,1.54,14.36,2.26,21.54,.44,4.41,.73,8.83,1.1,13.24,.05,.64,.16,1.27,.24,1.9,.92-.15,1.66-.35,2.41-.36,.74-.01,1.47,.18,2.21,.26,.13,.02,.29,0,.4-.07,.92-.55,2.1-.92,2.7-1.72,1.38-1.83,2.47-3.87,3.72-5.9l-1.38-.4,1.57-1.26c-.04-.42-.09-.83-.1-1.25,0-.11,.12-.21,.33-.55l.66,1.24c.89-1.47,1.65-2.69,2.37-3.92,.11-.19,.12-.46,.11-.69-.02-.88,.49-1.51,.99-2.13,.22-.27,.49-.5,.93-.94l-1.46-.2-1.05,1.6-.35-2.06-1.76-.28,1.6-1.32v-1.52c.75,.98,1.71,1.18,2.87,1.04-.19,.86-.9,1.74,.57,2.23,.63-1.29,1.29-2.58,1.91-3.89,1.58-3.36,2.64-6.92,3.54-10.5,.45-1.8,.42-3.74,.44-5.62,.05-6.23,.26-12.47-1.07-18.62-.32-1.49-.3-1.53-1.93-1.48l-.98,1.47-.41-2.03-1.79-.27,1.63-1.26c0-.57,0-1.06,0-1.94,.79,.99,1.41,1.9,2.54,1.13-.01-.21,0-.35-.03-.48-.15-.64-.31-1.28-.45-1.93-.14-.65-.25-1.3-.39-1.94-.14-.64-.11-1.53-.52-1.85-.78-.62,.07-1.15-.17-1.76-.56-1.44-.79-3-1.2-4.5-.96-3.5-1.94-6.99-2.95-10.48-.14-.48-.48-.9-.69-1.28,0-.47,.08-.91-.01-1.32-.5-2.2-1.14-4.38-1.54-6.6-.21-1.17-.67-2.03-1.63-2.67-.55-.37-1.12-.71-1.66-1.08-.16-.11-.29-.28-.58-.58,1.35-.03,1.97,1.03,3.1,1.28-.24-.96-.48-1.86-.69-2.77-.18-.78-.36-1.56-.44-2.36-.03-.25,.24-.52,.37-.79,.2,.22,.42,.44,.6,.68,.08,.1,.06,.27,.1,.41,.16,.69,.32,1.37,.48,2.06,.49,2.06,.97,4.12,1.48,6.18,.41,1.67,.86,3.33,1.28,4.95,.94-.42,.97,.66,1.5,.76,.57,.1,1.15,.13,1.83,.2l-.57,1.25c.29,.46,.54,.87,.88,1.42l-1.64-.19c-.81,.91-.92,1.81-.59,2.92,1.19,4.02,2.29,8.07,3.42,12.11,.01,.05,.13,.07,.22,.12l.08-1.13c.77,1.02,1.85,1.05,3,1.07l-.58,1.26,.89,1.42-1.59-.19c-1.12,1.1-1.19,2.24-.84,3.64,1.14,4.58,1.93,9.22,2.19,13.96,.28,5.01,.09,10-.21,14.99-.06,.97,.6,1.87,1.55,1.96,.36,.03,.73,0,1.52,0-1.24,1.08-.47,1.84,.03,2.74l-1.64-.19-1.09,1.61-.44-2.49c-.38,.46-.73,.71-.69,.87,.26,1.1-.34,2.03-.58,3.01-.38,1.55-.76,3.12-1.35,4.61-.7,1.77-1.63,3.45-2.46,5.18,2.87,2.45,5.16,5.24,6.82,8.62,.22-.21,.43-.34,.54-.53,1.09-1.92,2.08-3.92,3.29-5.77,.76-1.16,.84-2.92,2.6-3.32,.09-.02,.15-.23,.2-.36,.8-2.22,1.78-4.39,2.35-6.66,.82-3.29,1.41-6.64,1.95-9.99,.44-2.75,.66-5.53,.98-8.29l-.03,.02Zm-21.85,30.78c-.32,.52-.62,.99-.9,1.47-1.79,2.99-3.59,5.97-5.36,8.97-.93,1.57-2.48,2.26-4.03,2.95-.25,.11-.62-.03-.94-.07-.69-.08-1.38-.19-2.08-.25-1.42-.11-2.57,.71-3.83,1.14-.55,.19-.75,.91-.34,1.43,.35,.44,.9,.72,1.44,1.14,.09,.48,.19,1.12,.35,1.75,.19,.73,.74,.97,1.42,.82,.72-.16,1.41-.44,2.11-.64,.26-.08,.55-.16,.81-.12,2.08,.26,4.02-.27,5.93-.98,2.69-1,5.03-2.57,7.22-4.38,1.96-1.61,3.79-3.37,5.48-5.27-1.14-1.46-2.31-2.75-3.24-4.21-1.02-1.61-2.38-2.76-4.04-3.76ZM4.77,90.7c-2.68,.61-4.06,2.15-4.29,4.67-.05,.56-.07,1.13-.05,1.7,.03,1.39,.61,2.52,1.59,3.5,1.39,1.4,3.19,1.72,5,2.06,2.57,.48,3.58-.75,4.41-2.77,.55-1.33,.06-2.36-1.16-3-.98,1.93-1.63,2.39-3.13,2.09,1.51-.33,2.42-1.13,2.71-2.6-1.11-.87-2.39-.56-3.57-.7l-.58-1.17-.52,.62c-.29-.51-.02-.83,.26-1.14,.43-.48-.4-.79-.24-.98,.84-.97-.04-1.52-.42-2.27Zm120.89-5.91c.33-1.11-.08-2.08-.82-2.94-.63-.73-1.1-.84-1.98-.48-.78,.32-1.55,.69-2.32,1.04-1.23,.57-2.45,1.18-3.7,1.7-1.61,.67-3.28,1.19-4.86,1.9-3,1.35-5.97,2.79-8.94,4.2-.32,.15-.61,.35-1.12,.64,8.03-2.05,15.81-4.04,23.74-6.06ZM8.09,144.72c-.56,.07-1.14,.06-1.67,.22-4.86,1.44-6.84,8.27-3.49,12.08,1.51,1.72,3.4,2.3,5.62,1.65,4.93-1.43,6.87-8.6,3.34-12.32-1.03-1.08-2.28-1.65-3.8-1.63Zm25.91-51.65c1.43,.22,1.66,.13,1.74-1.05,.13-1.98,.26-3.96,.17-5.93-.05-.99-.5-2-.94-2.93-.43-.91-.87-1.01-1.84-.78-.48,.11-.94,.26-1.53,.43,2.04,3.26,1.65,6.89,2.39,10.26Zm147.64,92.74c1.22,1.37,2.38,2.66,3.52,3.98,.86,1,1.67,2.04,2.56,3.02,.21,.24,.73,.5,.92,.4,.31-.17,.68-.63,.66-.95-.03-.63-.2-1.32-.51-1.87-.6-1.07-1.28-2.1-2.02-3.08-1.07-1.42-2.36-2.63-3.84-3.88-.12,.54-.18,1.21-.28,1.21-.89,.05-.74,.84-1.01,1.17ZM114.44,84.7c-.63-1.76-1.81-2.71-3.34-3.47-.21,1.63,.02,3.19,.65,4.44,.85-.31,1.71-.62,2.69-.97Zm41.65,25.56h-1.64l-.74,.92,1.14,1.13,1.1-.61,.15-1.44Zm23.13,69.12l-.73,.98,1.18,1.05,1.06-.54,.13-1.49h-1.63Zm21.08-73.03c-1.09-.27-1.92-.08-2.37,.93l1.16,1.06,1.04-.57,.17-1.41Zm23.38,48.68l-.69,.98,1.2,1.02,1-.52,.15-1.48h-1.67Zm-40.38-15.19l1.18,1.05,1.06-.53,.13-1.49h-1.63l-.74,.98Zm-9.69-71.9l.19-1.47h-1.7l-.68,.98,1.17,1.01,1.01-.53Zm31.07,92.6l-.65,1.01,1.18,1,1.02-.55,.15-1.46h-1.69Zm-66.01-42.48l.11-1.45h-1.62l-.73,1,1.2,1.05,1.04-.6Zm50.15,49.27l-.64,1.01,1.16,.99,1.01-.54,.16-1.46h-1.69ZM63.29,89.84l1.22,1.03,1.03-.58,.13-1.45c-.63,0-1.17,0-1.64,0l-.74,1.01Zm92.36,87.99h-1.7l-.67,.98c.43,.37,.81,.7,1.18,1.02l1.01-.54,.18-1.46Zm-2.55-81.89l.14-1.44c-.58,0-1.12,0-1.67,0l-.53,.95,.98,1.14,1.09-.65Zm2.26-10.47l.14-1.46h-1.68l-.5,.93c.33,.42,.63,.79,.93,1.16l1.11-.63Zm32.31,46.16l.14-1.43h-1.69l-.45,.92,.89,1.17,1.11-.66Zm13.7,14.79l1-.62c0-.47,0-.91,0-1.36l-1.45-.09-.74,1,1.2,1.07Zm-60.17-11.23l1.24,.93c.76-.3,1.22-.9,1.09-1.94-.57,0-1.1,0-1.58,0l-.75,1.01Zm41.65-21.12c.05-.49,.09-.94,.14-1.44h-1.57c-1.05,.9,.21,1.41,.24,2.14l1.19-.7Zm21.96,19.78l-1.69,.15,.3,2.01,1.24-.68,.15-1.48Zm-40.93-62.28l.52,1.1,1.17-.66,.12-1.42c-.91-.22-1.27,.47-1.81,.98Zm16.18,149.12l.23-1.62h-1.77c-.22,1.25,.91,1.04,1.54,1.62Zm-20.72-81.87l.3,1.79,1.11-.43,.12-1.51-1.53,.15Zm-6.69-5.18c.51-1.05,.4-1.52-.48-2.03l-.76,1.01,1.24,1.02Zm-17.17-107.79l.87-.71-.79-1.4-.89,1.34,.81,.77Zm-35.43,67.66l1.23-.75q-.38-.8-1.64-.26l.4,1Zm47.75,11.7c.26-.52,.36-1.1-.23-1.44-.23-.13-.68,.12-1.11,.22l1.34,1.22Zm6.69-39.08l-.18-.11-.59,.94,.15,.09,.62-.93Zm-121.89,15.71l-.11-.42-1.39,.42,.09,.33,1.41-.34Zm153.63,58.52l.36-.14-.32-.85-.29,.1,.25,.9Z"/><path class="f" d="M202.1,155.99c-.32,2.77-.54,5.55-.98,8.29-.54,3.35-1.14,6.7-1.95,9.99-.57,2.27-1.55,4.45-2.35,6.66-.05,.13-.11,.34-.2,.36-1.76,.4-1.84,2.16-2.6,3.32-1.21,1.85-2.19,3.84-3.29,5.77-.11,.19-.32,.31-.54,.53-1.66-3.38-3.95-6.18-6.82-8.62,.83-1.73,1.76-3.41,2.46-5.18,.59-1.48,.97-3.05,1.35-4.61,.24-.98,.83-1.91,.58-3.01-.04-.16,.32-.41,.69-.87l.44,2.49,1.09-1.61,1.64,.19c-.51-.9-1.27-1.67-.03-2.74-.8,0-1.16,.03-1.52,0-.95-.09-1.61-.99-1.55-1.96,.31-4.99,.49-9.99,.21-14.99-.26-4.73-1.05-9.38-2.19-13.96-.35-1.41-.28-2.55,.84-3.64l1.59,.19-.89-1.42,.58-1.26c-1.16-.02-2.23-.05-3-1.07l-.08,1.13c-.09-.04-.21-.07-.22-.12-1.14-4.04-2.23-8.09-3.42-12.11-.33-1.11-.22-2.01,.59-2.92l1.64,.19c-.34-.54-.59-.95-.88-1.42l.57-1.25c-.68-.07-1.26-.1-1.83-.2-.53-.09-.56-1.18-1.5-.76-.42-1.62-.87-3.28-1.28-4.95-.51-2.06-.99-4.12-1.48-6.18-.16-.69-.32-1.37-.48-2.06-.03-.14-.02-.31-.1-.41-.18-.24-.4-.45-.6-.68-.13,.26-.4,.54-.37,.79,.09,.79,.27,1.58,.44,2.36,.21,.91,.45,1.81,.69,2.77-1.13-.25-1.75-1.31-3.1-1.28,.29,.3,.42,.47,.58,.58,.55,.37,1.11,.71,1.66,1.08,.95,.64,1.42,1.5,1.63,2.67,.4,2.22,1.04,4.4,1.54,6.6,.09,.41,.01,.85,.01,1.32,.21,.38,.55,.8,.69,1.28,1.01,3.49,1.99,6.98,2.95,10.48,.41,1.5,.64,3.06,1.2,4.5,.24,.62-.61,1.15,.17,1.76,.41,.32,.38,1.21,.52,1.85,.14,.64,.25,1.3,.39,1.94,.14,.65,.31,1.28,.45,1.93,.03,.13,.02,.28,.03,.48-1.12,.76-1.74-.14-2.54-1.13,0,.88,0,1.37,0,1.94l-1.63,1.26,1.79,.27,.41,2.03,.98-1.47c1.64-.04,1.61,0,1.93,1.48,1.33,6.15,1.11,12.39,1.07,18.62-.01,1.88,.02,3.82-.44,5.62-.91,3.58-1.96,7.14-3.54,10.5-.62,1.31-1.27,2.6-1.91,3.89-1.47-.49-.76-1.38-.57-2.23-1.16,.14-2.12-.06-2.87-1.04v1.52l-1.6,1.32,1.76,.28,.35,2.06,1.05-1.6,1.46,.2c-.44,.44-.71,.67-.93,.94-.51,.62-1.01,1.25-.99,2.13,0,.23,0,.5-.11,.69-.72,1.23-1.48,2.45-2.37,3.92l-.66-1.24c-.21,.34-.34,.44-.33,.55,.01,.42,.06,.84,.1,1.25l-1.57,1.26,1.38,.4c-1.26,2.03-2.35,4.07-3.72,5.9-.6,.8-1.78,1.17-2.7,1.72-.11,.07-.27,.08-.4,.07-.74-.09-1.48-.28-2.21-.26-.75,.01-1.49,.21-2.41,.36-.08-.64-.19-1.27-.24-1.9-.37-4.41-.66-8.84-1.1-13.24-.71-7.18-1.57-14.35-2.26-21.54-.27-2.81-.16-5.66-.35-8.49-.26-3.81-.63-7.62-.96-11.43-.02-.28-.1-.57-.08-.84,.07-.92,.44-1.17,1.39-1.02,.22,.04,.44,.04,.83,.07l-.89-1.34c.15-.39,.32-.81,.48-1.21-.14-.09-.21-.18-.28-.18-1.94-.04-2.06-.14-2.33-2.02-.52-3.55-1.04-7.1-1.6-10.64-.15-.98-.45-1.93-.65-2.9-.09-.43-.07-.87-.12-1.54-.08-.09-.41-.37-.58-.72-1.31-2.72-2.22-5.58-3.16-8.55h1.24l.29,2.01,1.08-1.51,1.64,.08-.83-1.31,.56-1.38c-1.26,.25-2.19-.14-3.05-.97l.07,1.55-1.17,.84c-.16-.29-.33-.51-.41-.76-1.07-3.38-1.89-6.83-2.11-10.38-.08-1.34,.16-2.68,.65-4.07,.89,.51,.34,1.4,.86,2.03l.99-1.44,1.68,.23-.9-1.36,.51-1.34c-.39-.02-.7-.04-1.01-.06-1.17-.06-1.52-.45-1.27-1.61,.44-2.03,.93-4.05,1.4-6.07,.05-.2,.11-.4,.4-.61l.37,1.9,1.08-1.56,1.69,.23-.9-1.36,.5-1.34c-1.09-.11-2.33,.12-2.67-1.43,.78-1.87,1.6-3.87,2.46-5.85,.06-.13,.42-.14,.47-.15,.13-.65,.14-1.24,.37-1.73,.49-1.06,1.29-1.96,1.2-3.26-.02-.32,.48-.81,.85-1,1.09-.55,2.21-1.08,3.36-1.46,1.51-.5,3.07-.84,4.61-1.26l.14,.25-2.47,2.13-1.1-.95c0,.7,0,1.18,0,1.76-.24,.19-.53,.42-.82,.64-.29,.22-.57,.36-.5,.87,.04,.32-.37,.71-.62,1.04-.57,.77-1.21,1.5-1.54,2.43,1.3-1.05,2.1-2.58,3.67-3.74,.14,.84,.25,1.44,.39,2.31l1.03-1.51,1.63,.08-.8-1.36,.54-1.14-.84-.47c1.78-1.56,3.64-2.85,5.88-3.83,.13,1.15-1.14,1.03-1.24,1.89l1.52,.17,.31,2.11,1.13-1.6,1.65,.2c-.67-.88-1.05-1.69-.31-2.66l-1.86-.21-.04-.23c.27-.13,.52-.3,.8-.38,3.36-1.05,6.71-.9,10.02,.22,2.9,.98,5.48,2.53,7.85,4.44,3.93,3.17,7.14,7,9.98,11.15,5.31,7.77,9.22,16.24,12.48,25.02,5.22,14.03,8.7,28.51,11.08,43.27,.23,1.4,.44,2.8,.65,4.2,.04,.27,0,.54,0,.82-1.13,.65-1.58-.4-2.37-.99,0,.65,0,1.13,0,1.69-.44,.36-.91,.73-1.58,1.28l1.76,.33c.1,.59,.2,1.16,.34,2.05,.44-.67,.71-1.08,.98-1.49,1.36-.07,1.43-.04,1.56,1.31,.6,6.25,1.25,12.49,1.75,18.75,.81,10.09,.85,20.19,.43,30.29-.2,4.86-.72,9.7-.88,14.56-.06,1.93-.92,3.53-1.4,5.28-.37,1.36-.69,2.73-1.03,4.1-.15,.59-.29,1.17-.45,1.84-.75-.1-1.4-.16-2.04-.27-2.64-.48-5.29-.95-7.93-1.47-.83-.16-1.62-.51-2.44-.71-1.88-.46-3.77-.85-5.64-1.35-1.41-.37-2.79-.89-4.19-1.28-2.36-.67-4.7-1.4-7.09-1.91-3.11-.66-6.11-1.57-9-2.88-1.54-.69-3.15-1.23-4.75-1.85-.23-.94-1.65-1.65-.4-3.06-1.34,.19-2.29-.04-3.04-1.38l-.12,2.29c-.63-.36-1.14-.57-1.56-.9-2.29-1.77-4.38-3.75-6.1-6.08-1.06-1.44-2.01-2.97-2.86-4.54-.8-1.48-.55-1.83,1.09-1.82,2.06,.02,4.05-.33,5.95-1.11,3.65-1.52,6.95-3.61,9.84-6.31,.93-.87,1.81-1.79,2.72-2.69,.52-.51,.9-1.14,1.82-1.18,.37-.02,.76-.74,1.06-1.19,.35-.55,.33-1.24,1.21-1.55,.48-.17,.72-1.15,1-1.79,.35-.81,.88-1.4,1.63-1.88,.57-.36,1.11-.91,1.45-1.49,2.36-4.12,3.91-8.58,5.16-13.12,.61-2.22,.87-4.53,1.28-6.81,.29-1.62,.58-3.24,.88-4.92,.57,0,1.12,0,1.75,0l.4,2.11,1.08-1.62,1.57,.24c-.41-.87-1.11-1.65-.13-2.68-1.27-.04-2.32-.12-3.08-1.07,0,.49,0,.98,0,1.62l-1.42,.92c-.05-.38-.11-.55-.09-.72,.5-4.74,.89-9.49,.88-14.26,0-2.59-.1-5.18-.23-7.77-.06-1.11,.27-2.01,.94-2.92l1.72,.24c-.36-.55-.61-.92-.9-1.36l.45-1.21c-.1-.09-.17-.19-.23-.19-2.03-.07-2.24-.21-2.38-2.28-.24-3.48-.42-6.97-.57-10.46-.14-3.35-.17-6.7-.32-10.05-.08-1.74-.31-3.48-.46-5.22-.08-.89-.11-1.79-.18-2.68-.03-.34-.11-.67-.34-1-.58,1.23-.28,2.53-.31,3.79-1.18,.82-1.8-.15-2.63-.96v1.77c-.41,.33-.88,.7-1.56,1.24l1.79,.35,.32,1.97c.34-.5,.57-.77,.72-1.08,.2-.43,.55-.57,.92-.41,.3,.13,.68,.4,.75,.68,.16,.68,.2,1.4,.23,2.1,.23,6.56,.42,13.12,.67,19.67,.14,3.86,.36,7.73,.54,11.59,.02,.42,0,.84,0,1.21-1.1,.69-1.35-.58-2.13-.84,0,.58,0,1.07,0,1.66l-1.54,1.21,1.78,.28c.09,.54,.18,1.12,.32,1.95l1.23-1.53c.57,1.15,.51,5.78-.08,9.54-1.16-.53-1.11-1.43-.55-2.62-1.35,.45-2.15-.25-3.01-1.08v1.74l-1.52,1.26,1.78,.31,.3,2.02,1.02-1.48,2.01-.17Zm13.36-35.58s.09,.03,.13,.01c.04-.01,.07-.06,.1-.09-.11-.11-.25-.33-.33-.31-.97,.27-1.63-.13-2.17-.89-.05-.07-.24-.04-.42-.06l.1,1.52-1.58,1.29,1.81,.31,.3,1.79c.64-.66,1.15-1.2,1.79-1.86l.27-1.73h0Zm-26.79-47.76l.42,2.04,1.05-1.55,1.72,.18-.94-1.32,.53-1.47c-1.27,.32-2.15-.18-3.07-1.2l.12,1.81-1.6,1.3,1.77,.21Zm8.2,101.01c-1.28,.31-2.05-.33-2.98-1.16,.87,1.62-.61,2.07-1.35,3.01l1.66,.2c.12,.67,.22,1.24,.36,2.06l1.07-1.57,1.84,.11c-.96-.86-1.16-1.65-.6-2.64Zm11.51,28.02l1.83,.17c-1.02-.88-1.04-1.73-.35-3.03-1.55,.86-2.23-.14-3.14-.81v1.68l-1.52,1.26,1.78,.31,.3,2.02,1.1-1.6Zm-26.3-31.54c-1.47,.61-2.26-.11-3.13-.95,0,.72,0,1.22,0,1.73l-1.49,1.28,1.72,.25,.36,2.07,1.09-1.63,1.79,.24c-.93-.92-1.07-1.75-.33-2.98Zm39.97,5.03c-1.13,.2-2.03-.21-2.87-1.26v1.74c-.39,.64-1.17,.66-1.29,1.39,.56,.08,1.05,.14,1.53,.21,.11,.66,.21,1.23,.36,2.07,.46-.7,.76-1.15,1.08-1.62,.26,.02,.49,.04,.71,.07,.26,.04,.51,.09,.84,.15q-.67-1.41-.36-2.75Zm-31.26,21.59c.11,.65,.21,1.24,.36,2.16l1.09-1.67,1.83,.22c-1.02-.9-1.06-1.75-.41-2.98-1.45,.67-2.21-.15-3.09-.9,0,.71,0,1.21,0,1.72l-1.54,1.26,1.77,.2Zm-22.22-2.28c.48,.58,0,1.37,.64,1.91l.94-1.4,1.88,.21c-1.13-.9-1.07-1.77-.6-2.78-1.23,.2-2.14-.1-2.92-1.31v1.9l-1.57,1.3c.75,.08,1.24,.13,1.64,.18Zm19.96,12.75l.34,2.14,1.09-1.63,1.47,.18,.35-.13c-1.25-.69-.86-1.64-.59-2.67-1.26,.36-2.07-.19-2.89-.98,.5,1.46-.54,2.12-1.57,2.94l1.79,.15Zm7.04-129l-1.59,1.3,1.81,.24,.32,2.05,1.09-1.61,1.69,.21-.9-1.36,.52-1.48c-1.31,.35-2.17-.11-3.04-1.22l.09,1.86Zm-11.26,73.45l.42-.24c-1.43-.61-.77-1.57-.66-2.41-.61-.06-1.16,0-1.6-.19-.43-.18-.74-.62-1.11-.94,.28,1.4-.51,2.13-1.77,2.85l1.85,.33,.36,2.02,1.09-1.61,1.41,.18Zm23.98-49.84c0,.89,0,1.42,0,1.92l-1.55,1.29,1.79,.22,.34,2.02,1.13-1.57,1.63,.25-.87-1.39,.5-1.44c-1.24,.24-2.17-.05-2.96-1.3Zm.71,85.56v1.79c-.45,.49-1.09,.65-1.42,1.34l1.63,.19,.34,2.06,1.07-1.57,1.92,.12c-1.22-.86-1.03-1.74-.56-2.95-1.44,.74-2.13-.1-2.99-.98Zm-21.47,26.53v1.83c-.52,.57-1.16,.73-1.48,1.41l1.63,.19,.34,2.06c.47-.69,.78-1.14,1.07-1.57l1.52,.09,.34-.17c-1.38-.63-.82-1.57-.58-2.69-1.3,.59-2.05,0-2.84-1.16Zm24.54-33.46l.23-.19c-.9-.71-.83-1.58-.37-2.59-1.23,.21-2.14-.1-2.92-1.3,0,.88,0,1.41,0,1.89l-1.57,1.3,1.65,.18c.46,.59,0,1.37,.62,1.92l.96-1.44,1.39,.24Zm-43.07-63.82l1.85,.24c.1,.64,.19,1.21,.32,2.05l1.09-1.6,1.68,.21-.89-1.36,.52-1.48c-1.3,.33-2.17-.11-2.98-1.18,0,.82,0,1.36,0,1.87-.48,.37-.91,.71-1.59,1.24Zm5.15,25.78c-.45,.49-1.09,.65-1.43,1.34l1.64,.2c.11,.65,.2,1.22,.34,2.06l1.08-1.58,1.92,.12c-1.21-.86-1.03-1.74-.61-2.8-1.32,.44-2.12-.14-2.94-1.17,0,.78,0,1.27,0,1.83Zm-8.18-46.32l-.26,.2,.1,1.48c-.5,.4-.95,.77-1.6,1.3,.75,.09,1.24,.14,1.77,.21,.13,.63,.25,1.23,.42,2.04,.45-.67,.76-1.12,1.05-1.55l1.72,.18-.94-1.31,.52-1.43c-1.18,.13-2.17,0-2.77-1.11Zm37.57,126.16l.35,2.14,1.1-1.66,1.49,.19,.32-.15c-1.22-.68-.93-1.58-.52-2.61-1.25,.29-2.12-.22-2.97-1.16v1.79l-1.55,1.26,1.78,.19Zm.11-124.77l.56-1.59c-1.37,.53-2.19-.06-3.02-1.05,0,.79,0,1.33,0,1.83l-1.59,1.24,1.85,.24,.32,2.05,1.09-1.6,1.68,.21-.9-1.35Zm-.99,85.78l1.91,.09c-1.08-.87-1.12-1.67-.34-2.93-1.56,.72-2.31-.09-3.22-.95,.03,.75,.06,1.25,.08,1.74l-1.57,1.29,1.76,.3,.36,2.06,1.03-1.6Zm-34.19-1.18c-.45,.49-1.09,.65-1.43,1.34l1.64,.19,.34,2.06,1.08-1.58,1.92,.12c-1.21-.86-1.03-1.74-.61-2.8-1.32,.44-2.12-.14-2.94-1.16,0,.78,0,1.27,0,1.83Zm26.44-91.41l1.71,.21-.91-1.37,.61-1.5c-1.34,.43-2.23-.06-3.13-1.18l.11,1.85-1.59,1.31,1.81,.24,.32,2.07,1.07-1.62Zm-16.19,30.93l-.27,.17,.12,1.48-1.6,1.3c.73,.09,1.22,.15,1.77,.22,.13,.62,.25,1.22,.42,2.05l1.03-1.56,1.74,.19-.95-1.33,.57-1.52c-1.25,.33-2.18,.04-2.81-1Zm-15.12,41.16l.08,1.72c-.49,.41-.94,.78-1.58,1.3l1.77,.29,.28,1.77h.26l.83-1.31,1.66,.08q-.77-1.19-.45-2.54-1.6-.18-2.86-1.31Zm9.75,46.15c.41,1.46-.59,2.13-1.61,2.92l1.76,.22,.34,2.1,1.09-1.62,1.52,.14c-.84-.86-.62-1.75-.27-2.73-1.17,.15-2.12,.02-2.83-1.04Zm24.06-89.98h1.68l-.82-1.22,.55-1.52c-1.39,.56-2.14-.26-3.09-1.06l.13,1.73-1.6,1.29,1.81,.3,.34,2,1-1.54Zm13.2,12.09l-1.6,1.29,1.81,.31,.33,1.98,1.03-1.5h1.67l-.83-1.21,.54-1.5c-1.35,.48-2.15-.23-3.08-1.15,.06,.75,.1,1.21,.14,1.77Zm-34.64-48.31c0,.58,0,1.11,0,1.61l-1.59,1.27,1.85,.24c.1,.6,.19,1.17,.33,2l1.07-1.52,1.67,.09-.88-1.29,.51-1.28q-1.43-.12-2.97-1.13Zm50.58,119.66l-.14-.26c-1.22,.51-1.97-.34-2.9-1.12,.05,.77,.08,1.27,.12,1.73l-1.59,1.28,1.81,.31,.34,2,1-1.55h1.68l-.84-1.25,.53-1.16Zm-56.9-67.09c-1.28,.28-2.19-.14-3.02-1.26,0,.83,0,1.36,0,1.87l-1.57,1.28,1.83,.24,.32,2.01,1.07-1.53,1.66,.1-.85-1.33,.57-1.38Zm9.79-32.34l.09,.27,1.52,.19,.33,2,1.07-1.52c.52,.03,1.01,.05,1.68,.08l-.89-1.27,.51-1.29q-1.35-.1-2.99-1.14l.08,1.59-1.4,1.08Zm26.56,12.08l.35,2.05,1-1.57,1.69,.1-.85-1.33,.57-1.37c-1.27,.26-2.2-.13-3.02-1.29v1.88l-1.56,1.28,1.82,.25Zm-44.49-32.3l.35,2.05,1-1.57c.53,.03,1.02,.06,1.69,.1l-.85-1.33,.57-1.37c-1.27,.26-2.2-.13-3.02-1.29,0,.85,0,1.38,0,1.88l-1.56,1.28,1.82,.25Zm62.83,129.89c-1.32,.37-2.18-.17-3.03-1.2,0,.81,0,1.35,0,1.85-.48,.38-.93,.74-1.6,1.27l1.87,.24,.33,2c.45-.64,.75-1.07,1.07-1.52l1.68,.09-.88-1.28,.58-1.45Zm-41-119.71l.25,1.81,1.97-1.8c.09-.56,.22-1.29,.36-2.17-1.24,.51-1.99-.33-2.93-1.11l.1,1.73-1.58,1.3c.46,.08,.67,.12,.89,.15,.27,.03,.55,.05,.93,.09Zm-3.75-20.02c.4,1.44-.57,2.13-1.63,2.93l1.73,.19,.29,.78,2.44-.52c-.14-.4-.36-.75-.36-1.09,0-.37,.21-.74,.4-1.34-1.26,.35-2.11,.01-2.87-.95Zm38.67,66.89l.84-.94,1.17-.07-1.85-1.49,.1,1.71c-.51,.42-.95,.79-1.59,1.31l1.81,.24,.33,2c.45-.64,.75-1.07,1.08-1.53l1.57,.11c-.39-.62-.68-1.09-1.13-1.8,.18,1.34-.86,1.17-1.13,1.57l-1.2-1.1Z"/><path class="f" d="M131.37,113.03c-2.18-1.95-4.44-3.79-6.97-5.29-1.9-1.13-3.72-2.41-5.65-3.49-2.44-1.36-5.12-2.14-7.77-3-3.59-1.16-7.12-2.49-10.71-3.65-1.79-.58-3.67-.86-5.48-1.38-4.87-1.42-9.88-1.94-14.89-2.51q-.49-.06-.94-.56c1.22-.37,1.41-.34,2.04,.36l.61-.96c-1.31,.2-2.27-.1-3.08-1.33,0,.65-.01,.94,0,1.24,.04,.83-.13,1.03-.96,.92-1.59-.21-3.16-.52-4.75-.7-1.59-.18-3.19-.29-4.79-.37-1.12-.06-2.25-.01-3.39-.01q.27-1.23,2.13-1.24l-.84-1.23,.56-1.4c-1.24,.17-2.2-.13-3.06-.96l.09,1.52-1.6,1.27,1.83,.26,.15,1.88c-9.21,.32-18.3-.14-27.5,.84,.06-.79,.12-1.34,.15-1.89,.08-1.7,.2-3.39,.22-5.09,.02-1.56-.63-2.93-1.46-4.22,1.54-1.13,9.39-2.69,13.1-2.6l.38,1.61,1.01-1.49c.4,.03,.86,.06,1.39,.1,.13-.2,.23-.52,.46-.67,.21-.15,.54-.16,.81-.19,2.91-.3,5.83-.55,8.73-.91,6.75-.83,13.49-.02,20.23,.09,1.65,.03,3.31,.08,4.95-.04,2.35-.17,4.69-.52,7.04-.7,1.07-.08,2.16,.1,3.24,.08,2.5-.05,5-.16,7.5-.25,.38-.01,.75-.03,1.13-.04,1.8-.03,2.45,.52,2.81,2.34,1.51,.47,2.17,1.54,2.3,3.06,.1,1.16,.32,2.32,.5,3.6-3.49,1.65-6.97,3.29-10.69,5.05l-.77-1.2-.22,.1v1.37l-1.64,1.49,1.84,.18,.36,2.07,1.08-1.56,1.67,.23-.97-1.56c.35-.23,.65-.53,1.01-.63,2.94-.86,5.89-1.68,8.95-2.55,.2,.43,.44,.78,.52,1.17,.58,2.85,2.1,5.25,3.8,7.51,1.97,2.61,4.23,4.94,7.12,6.59,1.48,.84,3,1.25,4.7,1.3,2.73,.08,5.36-.4,7.96-1.08,2.5-.65,5.09-.98,7.5-2.02,.54-.23,1.36,.12,2.03,.28,.44,.11,.85,.35,1.43,.6l-1.29,1.21,1.74,.3,.29,1.77,.88-.42c.19,.58,.41,1.14,.54,1.72,.49,2.21,1.04,4.41,1.39,6.64,.73,4.57,1.33,9.15,2.01,13.72,.11,.74,.31,1.47,.51,2.39l-1.1-.58c.03,.62,.06,1.11,.09,1.66l-1.6,1.24,1.8,.27,.29,1.85c.21-.16,.38-.26,.52-.4,.15-.15,.27-.34,.54-.68,.39,2.05,.84,3.88,1.07,5.74,.38,3.09,.73,6.19,.9,9.3,.22,4.18,.23,8.36,.37,12.54,.11,3.39,.32,6.79,.43,10.18,.06,1.78,.01,3.57,.01,5.37-1.13,.65-1.71-.25-2.5-1,0,.72,0,1.21,0,1.78l-1.57,1.23,1.73,.27c.11,.59,.23,1.2,.41,2.13,.38-.62,.55-.99,.81-1.29,.16-.18,.49-.34,.69-.29,.2,.05,.33,.37,.49,.57,.02,.03,0,.09,.01,.14,.1,2.69,.26,5.37,.27,8.06,0,2.26-.31,4.53-.24,6.78,.05,1.67,.47,3.34,.77,5,.16,.92,.52,1.82,.58,2.74,.27,4.04,1.24,7.91,2.65,11.68,.08,.22,.18,.44,.21,.66,.07,.51,.11,1.02,.17,1.66-1.9,1.01-3.92,1.57-5.99,2-2.23,.47-4.49,.56-6.76,.51-2.14-.04-4.24,.27-6.26,.95-1.14,.39-2.21,1-3.5,1.59-.96-7.67-.1-15.17,.77-22.67l.28-.05,.24,.88c.66-.09,1.34-.19,2.11-.29l-.16,1.57-1.18,.65-.4-.78-.21,.06,.31,2.32,1.08-1.55c.5,.03,1,.06,1.67,.1l-.86-1.3,.58-1.44c-1.51,.43-2.34-.36-3.27-1.43l2.08-9.59h.32l.15,1.51c.49-.72,1.28-.58,2.14-.47l-.14,1.44-1.19,.65-.31-.71-.2,.03c.04,.64,.08,1.29,.13,2.01,.76-.11,.67-.89,1.2-1.26l1.61,.08-.83-1.29,.52-1.31c-.29-.03-.5-.08-.71-.07-1.64,.03-2.4-1.07-2.2-2.64,.5-3.88,1.42-7.71,1.42-11.65,.01-6.71,.09-13.41,.04-20.11-.01-1.78-.41-3.55-.62-5.33-.5-4.26-1-8.52-1.49-12.79-.04-.36,0-.73,0-1.16,1.5-.05,.65,1.29,1.16,1.78l2.05-1.56,.25-2.4c-1.13,.29-2.09,.15-2.68-.96-.7,.59,.52,1.79-.87,2.02-.86-4.81-1.51-9.69-3.72-14.09l1.23-1.85,1.7,.24-.9-1.36,.5-1.34c-1.08-.12-2.27,.12-2.75-1.37-.55,.92,.44,2.12-.97,2.3-1.5-1.4-3.01-2.81-4.52-4.21,1.06,.22,.8-1.01,1.51-1.32l1.37,.18,.33-.15c-1.17-.7-.96-1.59-.5-2.63-1.27,.29-2.14-.22-2.99-1.15v1.78c-.45,.37-.9,.74-1.54,1.26,.75,.08,1.24,.14,1.84,.21,0,.65,0,1.25,0,1.85Zm15.02,10.05c-1.11,.61-1.87-.08-2.76-1.05l.1,1.81-1.59,1.3,1.8,.23,.29,1.77c.57-1.07,1.59-1.02,2.56-1.14l-.36-1.42,1.06-.19-1.1-1.32Zm3.21,20.67l.35,2.07,1.09-1.57,1.67,.24-.87-1.38,.46-1.33q-1.59-.1-2.92-1.11v1.62l-1.57,1.3,1.8,.16Zm-49.69-61.4c.75,.09,1.24,.15,1.77,.21l.42,2.04c.45-.67,.76-1.12,1.05-1.55,.56,.06,1.03,.11,1.72,.18l-.94-1.31,.58-1.6c-1.37,.6-2.17-.13-3.12-1.02l.12,1.75-1.6,1.3Zm48.96,90.73c-.56-.9-.65-1.74-.05-2.8-1.3,.3-2.17-.2-3.02-1.15,0,.77,0,1.27,0,1.79l-1.51,1.23,1.75,.28,.34,2.08c.49-.73,.79-1.18,1.1-1.66l1.39,.22Zm5.47,14.69c-1.49,.39-2.33-.1-3.13-.94,.46,1.45-.52,2.13-1.55,2.92l1.76,.22,.34,2.1c.47-.69,.76-1.13,1.09-1.62l1.9,.17c-1.08-.9-1.19-1.69-.41-2.86Zm-9.31-25.69c.82,.15,1.34,.24,1.85,.33,.11,.63,.21,1.2,.36,2.02l1.06-1.57,1.52,.09c-.85-.83-.6-1.73-.24-2.78-1.32,.47-2.09-.19-2.92-.96,.41,1.42-.39,2.15-1.64,2.87ZM44.39,89.27l1.8,.31,.34,1.99,1-1.52h1.68l-.82-1.21,.54-1.51c-1.37,.53-2.15-.25-3.1-1.11l.15,1.76-1.59,1.29Zm44.33-.56c0,.84,0,1.37,0,1.87l-1.58,1.28c.78,.1,1.27,.17,1.83,.24l.32,2.01,1.07-1.53c.5,.03,1,.06,1.66,.1l-.86-1.33,.57-1.39c-1.29,.31-2.19-.14-3.02-1.25Zm60.83,120.58l.55-1.49c-1.34,.44-2.16-.21-3.08-1.19l.13,1.79-1.62,1.35,1.82,.25,.33,2,1.02-1.49h1.7l-.85-1.22ZM55.54,86.16l.34,2.03,1-1.56h1.67l-.84-1.24,.56-1.27c-.66-.06-1.24,0-1.72-.18-.45-.18-.8-.62-1.35-1.07l.11,1.71-1.59,1.3,1.82,.27Zm25.3-3.57l-1.6,1.29,1.81,.31,.33,1.98,1.03-1.5c.57,0,1.05,0,1.67,0l-.83-1.21,.54-1.5c-1.35,.48-2.15-.23-3.08-1.15l.14,1.77Zm62.34,32.28l.08,.27,1.53,.2,.32,2,1.07-1.52,1.67,.09-.88-1.29c.17-.42,.34-.84,.58-1.44-1.31,.35-2.19-.16-3.03-1.21v1.88l-1.35,1.02Z"/><path class="f" d="M144.08,88.63l.89,1.59-1.68,2.53c-.63-.03-.89,.43-1.13,.95l.56-.25c-.43,.67-.93,1.2-1.74,.88-1.37,2.53-2.37,5.23-4.37,7.29-2,2.05-4.44,3.09-7.41,3.32-4.64,.35-7.76-2.09-10.71-5.07-2.18-2.2-3.89-4.74-5.17-7.55-.48-1.05-.69-2.22-1.07-3.48,1.82-.43,3.5-.84,5.34-1.27-.05,.7,.22,1.07,.85,1.36,1.15,.53,2.18,1.31,3.29,1.92,.49,.27,1.05,1.01,1.6,.38,.56-.64-.36-1.03-.6-1.54,.03-.08,.03-.2,.08-.24,1.27-1.04,1.28-1.05-.11-1.92-.33-.21-.69-.31-.51-1,.98-.24,2.07-.51,3.15-.76,1.12-.27,1.21-.39,1.26-1.5,.06-1.33-.5-2.39-1.42-3.27-.52-.51-1.07-.73-1.88-.25-1.21,.72-2.55,1.22-3.84,1.79-.24,.11-.54,.19-.79,.14-.91-.18-1.8-.54-2.72-.62-2.07-.18-3.39-1.53-4.74-2.85-.19-.19-.25-.61-.23-.91,.21-3.72,.04-7.53,1.32-11.06,1.28-3.53,2.88-6.98,5.28-9.95,.82-1.02,1.81-1.89,2.73-2.84l-.04,.05c.54-.27,1.14-.48,1.62-.83,1.76-1.31,3.79-1.3,5.7-.87,1.8,.4,3.52,1.29,5.19,2.13,1.04,.53,1.85,1.41,2.18,2.65,.14,.51,.5,1.05,.91,1.39,1.17,.95,1.8,2.23,2.57,3.48,1.07,1.75,1.58,3.71,2.37,5.57,.24,.56,.34,1.17,.48,1.77,.4,1.64,.78,3.28,1.19,5.03,3.51-1.46,6.54-3.46,9.37-5.78-2.94,3.01-6.21,5.49-10.2,6.7-.3-.33-.57-.79-.71-.75-.61,.17-.76,.61-.42,1.2h1.85c.39,2.06,.34,4.07,.2,6.01-.16,.13-.23,.24-.3,.24-2.49,.1-4.78,.99-7.12,1.73-.98,.31-1.95,.57-3.02,.3-1.24-.31-2.31,.23-3.45,.76-1.46,.68-2.28,1.89-3.27,3.01-.54,.62-.22,1.17,0,1.69,.24,.55,1.28,.9,1.79,.69,.57-.23,1.12-.5,1.65-.81,2.86-1.67,5.81-3.12,8.99-4.09,1.57-.48,3.06-1.21,4.59-1.83l-.03-.03c0,1.16,0,2.32,0,3.48,0,.62,0,1.25,0,1.95l1.73-.59-.03-.03Zm-7.89-13.88c-.03-1.88-.32-3.11-1.02-4.2-1.15-1.79-3.1-1.87-4.43-.22-1.55,1.93-1.78,4.71-.54,6.87,.68,1.2,2.38,1.7,3.55,.96,1.46-.91,2.54-2.11,2.44-3.41Zm-16.59,.07c-.17-.68-.29-1.43-.55-2.12-.66-1.81-2.39-2.49-4.03-.62-.24,.28-.46,.62-.57,.96-.5,1.57-.64,3.13,.27,4.62,.48,.8,1.05,1.51,2.1,1.39,1.04-.12,1.9-.63,2.22-1.69,.25-.8,.37-1.64,.57-2.55Zm17.86-8.62c-.29-.46-.5-.94-.85-1.29-.35-.36-.8-.66-1.26-.89-1.76-.89-3.51-1.65-5.46-.37-.94,.62-1.4,1.38-1.28,2.58,.76-.27,1.53-.79,2.3-.78,1.58,.03,3.15,.32,4.73,.54,.19,.03,.37,.21,.52,.36,.51,.52,.89,.27,1.29-.16Zm-18.51,1.06c-.16-.8-.28-1.49-.45-2.16-.17-.65-.58-.87-1.28-.76-1.66,.26-2.8,1.25-3.72,2.57-.07,.11,.04,.34,.06,.49l2.08,.53,.42-.82c.86,.86,1.77,.42,2.89,.16Zm11.48,23.7c-1.69,.46-3.21,.95-4.76,1.27-1.96,.4-3.95,1.03-5.95,.13-.17-.08-.42,.04-.97,.11,.47,.4,.69,.7,.98,.82,1.05,.46,2.19,.69,3.31,.47,2.48-.5,4.94-1.11,7.39-1.67,0-.38,0-.65,0-1.13Zm11.06,.98l-.29,1.52c1.26-.87,2.44-1.68,2.99-3.17l-.82-.71c-.22,.5,.4,1.16-.49,1.57l-.65-1.23c-.95,.73,.82,1.49-.07,2.23l-.68-.21Z"/><path class="f" d="M121.89,10.22c-.67-.77-.55-1.64-.46-2.57,.11-1.07,.02-2.16,.01-3.25,0-.52,0-1.03,.1-1.58,.48,.64,1.42,.95,1.03,2.12-.15,.46,.15,1.18,.96,1.29,.27,.04,.57,.29,.73,.53,.55,.82,1.01,1.7,1.56,2.52,1.15,1.72,2.33,3.42,3.51,5.13,.16,.23,.4,.42,.51,.67,1.13,2.48,3.09,4.38,4.58,6.61,1.01,1.51,.89,2.15-.6,3.25-.1,.07-.15,.21-.3,.43l1.4,.31,.23,1.76,1.05-1.8c.6,.7,1.19,1.24,1.6,1.89,2.43,3.88,4.83,7.77,7.2,11.68,.37,.61,.5,1.37,.78,2.19,1.06-.22,1.52,.67,2.04,1.5,1.44,2.27,2.91,4.52,4.36,6.78,.24,.38,.44,.78,.8,1.41-.79,.1-1.33,.22-1.86,.22-1.7,0-3.41,.06-5.09-.08-1.25-.1-2.55-.32-3.7-.78-2.18-.87-4.28-1.96-6.42-2.93-.55-.25-1.15-.37-1.73-.55l.06,.05c-1.06-.49-2.12-.35-3.18,0l.05-.02c-.66,.03-1.32,.12-1.98,.08-.74-.04-.89-.42-.56-1.13,.07-.14,.12-.3,.24-.6-1.17,.31-1.87-.21-2.6-1.04,.22,1.32-.56,1.87-1.51,2.25l.65,.75c-1.42,0-2.63-.04-3.85,.02-.44,.02-1,.15-1.28,.44-.71,.73-1.28,1.58-1.91,2.39l.05-.06c-.29,.54-.59,1.07-.88,1.61-.56,.79-1.12,1.57-1.68,2.36-.07-.34-.25-.7-.2-1.02,.34-2.21,.72-4.42,1.09-6.63,.08-.45,.19-.9,.3-1.42l1.25,.31-.19-.85v.03c-.19-.78,.71-.81,1.01-1.32l-.45-.14,.05,.04c-.87-.7-1.25-1.58-1.17-2.7,.23-2.96,.26-5.95,.66-8.89,.31-2.28,.98-4.52,1.62-6.73,.21-.71,.84-1.3,1.35-2.05-1.02-.68-.98-1.82-.81-3.06,.29-2.1,.44-4.22,.69-6.33,.06-.56-.13-1.19,.67-1.56,.25-.12,.15-1.02,.2-1.56v.03Zm24.88,39.01l1.44,.17v-1.88l-1.72-1.33-.16,1.04-1.61,.7c1.4,.2,1.49,1.01,1.5,2.12l.54-.83h0Zm-19.73-28.64h.45l.95,1.49,.23-1.57,1.25-.98c-1.51-.36-1.72-1.57-2.37-2.8-.45,.84-.79,1.46-1.12,2.08l-1.53,.21-.02,.25,1.18,.7-.15,1.47,.2,.12,.92-.97Zm-1.98,12.26l.36,2.07,1.07-1.57,1.51,.09c-.84-.83-.61-1.72-.23-2.78-1.32,.46-2.1-.17-2.93-.97,.5,1.45-.55,2.11-1.54,2.97l1.76,.18Zm11.8,9.75l1.23,.17,.31,1.2,.78-1.38,1.39,.38c-.19-.82-.35-1.54-.51-2.24l-2.14-1.08c-.2,.99-.12,2.11-1.07,2.96Z"/><path class="f" d="M115.81,54.07c.56-.79,1.12-1.57,1.68-2.36l.88-1.61-.05,.06c.12-.06,.3-.09,.35-.18,1.11-1.89,2.89-2.2,4.86-2.11,.38,.02,.75,0,1.13-.02,.88-.06,1.76-.13,2.64-.2l-.04,.03,3.86-.68-.05,.02c1.06,0,2.12,0,3.18,0l-.06-.05c1.62,1.29,3.48,2.18,5.33,3.07,.64,.31,1.3,.56,1.94,.84,1.36,.59,2.77,.95,4.25,.92,2.22-.03,4.43-.08,6.64-.14,1.63-.04,3.17,1.17,3.3,2.75,.04,.5-.17,1.17-.52,1.5-.77,.74-1.69,1.33-2.57,1.95-1.36,.96-2.79,1.79-4.41,2.19-1.59,.4-3.21,.71-4.83,1-1.47,.26-2.96,.43-4.39,.64-1.67-2.25-3.4-4.58-5.17-6.95,.6-.45,1.32-.21,2.04-.12,.69,.09,1.39,.13,2.08,.18,1.69,.14,3.37,.32,5.06,.4,1.4,.07,2.8,.01,4.22-.09-.73-.49-1.55-.37-2.36-.37-.69,0-1.39-.1-2.08-.18-1.17-.15-2.33-.38-3.5-.47-1.26-.1-2.52,0-3.77-.43-.56-.19-1.33-.05-1.92,.15-.69,.24-1.24,.18-1.88-.12-.89-.42-1.82-.79-2.76-1.09-2.42-.76-4.81-.93-7.04,.59-.56,.38-1.09,.82-1.64,1.24l.04-.05c-.38,.24-.82,.41-1.12,.72-1.22,1.28-2.4,2.6-3.62,3.94l-.4-.77c1.54-1.2,2.22-2.94,3.17-4.51,.5-.13,.66-.51,.58-1.03l-.55,1.06c-.63,.68-1.24,1.38-1.89,2.05-.44,.46-.91,.88-1.41,1.37q-.35-.88,.76-3.18Zm27.1,4.72c.21,.79,.68,.66,1.11,.51,1.77-.63,3.53-1.29,5.02-2.49,.11-.09,.22-.17,.32-.27,.1-.1,.17-.21,.26-.32-2.16,1.04-4.22,2.13-6.72,2.57Zm-15.86-7.45v.31c1.97,.75,3.68-.32,5.47-.73-1.5-.75-2.84,.59-4.31,.33-.37-.07-.77,.05-1.16,.09Z"/><path class="f" d="M180.22,186.79c1.66,1.01,3.01,2.16,4.04,3.76,.93,1.46,2.11,2.75,3.24,4.21-1.69,1.9-3.52,3.65-5.48,5.27-2.19,1.81-4.53,3.38-7.22,4.38-1.91,.71-3.85,1.24-5.93,.98-.26-.03-.55,.05-.81,.12-.71,.2-1.4,.48-2.11,.64-.68,.15-1.23-.09-1.42-.82-.16-.63-.25-1.27-.35-1.75-.55-.42-1.1-.7-1.44-1.14-.41-.52-.2-1.25,.34-1.43,1.26-.43,2.42-1.26,3.83-1.14,.69,.06,1.38,.17,2.08,.25,.31,.04,.68,.18,.94,.07,1.55-.69,3.1-1.37,4.03-2.95,1.76-3,3.57-5.98,5.36-8.97,.29-.48,.59-.95,.9-1.47Z"/><path class="f" d="M4.77,90.7c.38,.75,1.26,1.3,.42,2.27-.16,.18,.67,.5,.24,.98-.28,.31-.56,.63-.26,1.14l.52-.62,.58,1.17c1.19,.15,2.46-.16,3.57,.7-.28,1.46-1.19,2.26-2.71,2.6,1.49,.3,2.14-.16,3.13-2.09,1.22,.65,1.71,1.68,1.16,3-.83,2.02-1.84,3.25-4.41,2.77-1.81-.34-3.61-.65-5-2.06-.98-.99-1.56-2.11-1.59-3.5-.01-.56,0-1.13,.05-1.7,.23-2.52,1.61-4.06,4.29-4.67Zm5.4,9.07c-.69,.5-1.41,1.03-2.01,1.47,1.07-.12,1.36-.32,2.01-1.47Z"/><path class="f" d="M125.66,84.8c-7.93,2.02-15.71,4.01-23.74,6.06,.51-.29,.8-.49,1.12-.64,2.98-1.41,5.94-2.85,8.94-4.2,1.58-.71,3.25-1.23,4.86-1.9,1.25-.52,2.47-1.13,3.7-1.7,.77-.35,1.53-.72,2.32-1.04,.89-.36,1.35-.25,1.98,.48,.74,.86,1.14,1.83,.82,2.94Z"/><path class="f" d="M8.09,144.72c1.52-.02,2.77,.55,3.8,1.63,3.54,3.72,1.59,10.89-3.34,12.32-2.23,.65-4.11,.07-5.62-1.65-3.34-3.81-1.36-10.64,3.49-12.08,.53-.16,1.11-.15,1.67-.22Zm4.32,6.82c.03-2.25-.57-3.75-1.85-4.93-1-.92-2.22-1.32-3.53-.88-3.74,1.25-5.6,5.43-4.09,9.06,1.16,2.79,3.99,3.69,6.51,2.03,2.06-1.36,2.89-3.4,2.97-5.28Z"/><path class="f" d="M33.99,93.07c-.74-3.37-.35-7-2.39-10.26,.58-.17,1.05-.32,1.53-.43,.96-.23,1.4-.13,1.84,.78,.44,.92,.89,1.93,.94,2.93,.09,1.97-.04,3.96-.17,5.93-.08,1.18-.31,1.27-1.74,1.05Z"/><path class="f" d="M181.63,185.82c.27-.33,.12-1.12,1.01-1.17,.1,0,.16-.68,.28-1.21,1.48,1.25,2.78,2.46,3.84,3.88,.74,.98,1.42,2.01,2.02,3.08,.31,.55,.48,1.24,.51,1.87,.02,.32-.35,.78-.66,.95-.19,.1-.7-.16-.92-.4-.88-.98-1.69-2.03-2.56-3.02-1.14-1.31-2.3-2.61-3.52-3.98Z"/><path class="f" d="M114.44,84.7c-.98,.35-1.84,.66-2.69,.97-.63-1.25-.86-2.81-.65-4.44,1.53,.76,2.71,1.71,3.34,3.47Z"/><path class="f" d="M142.42,83.85c.26-.25,.55-.47,.76-.75,.11-.15,.08-.4,.11-.63l6.01-1.36,.06,.2c-2.32,.84-4.65,1.67-6.97,2.51l.03,.03Z"/><path class="f" d="M156.08,110.26l-.15,1.44-1.1,.61-1.14-1.13,.74-.92h1.64Z"/><path class="f" d="M179.22,179.38h1.63l-.13,1.49-1.06,.54-1.18-1.05,.73-.98Z"/><path class="f" d="M200.3,106.34l-.17,1.41-1.04,.57-1.16-1.06c.45-1,1.28-1.19,2.37-.93Z"/><path class="f" d="M223.68,155.02h1.67l-.15,1.48-1,.52-1.2-1.02,.69-.98Z"/><path class="f" d="M183.3,139.83l.74-.98h1.63l-.13,1.49-1.06,.53-1.18-1.05Z"/><path class="f" d="M173.61,67.93l-1.01,.53-1.17-1.01,.68-.98h1.7l-.19,1.47Z"/><path class="f" d="M204.67,160.53h1.69l-.15,1.46-1.02,.55-1.18-1,.65-1.01Z"/><path class="f" d="M138.66,118.05l-1.04,.6-1.2-1.05,.73-1h1.62l-.11,1.45Z"/><path class="f" d="M188.81,167.33h1.69l-.16,1.46-1.01,.54-1.16-.99,.64-1.01Z"/><path class="f" d="M63.29,89.84l.74-1.01c.47,0,1.01,0,1.64,0l-.13,1.45-1.03,.58-1.22-1.03Z"/><path class="f" d="M155.66,177.83l-.18,1.46-1.01,.54c-.37-.32-.75-.65-1.18-1.02l.67-.98h1.7Z"/><path class="f" d="M153.1,95.94l-1.09,.65-.98-1.14,.53-.95c.55,0,1.09,0,1.67,0l-.14,1.44Z"/><path class="f" d="M155.36,85.48l-1.11,.63c-.3-.38-.6-.75-.93-1.16l.5-.93h1.68l-.14,1.46Z"/><path class="f" d="M187.67,131.64l-1.11,.66-.89-1.17,.45-.92h1.69l-.14,1.43Z"/><path class="f" d="M201.38,146.43l-1.2-1.07,.74-1,1.45,.09c0,.46,0,.9,0,1.36l-1,.62Z"/><path class="f" d="M141.2,135.2l.75-1.01c.48,0,1.01,0,1.58,0,.14,1.04-.33,1.63-1.09,1.94l-1.24-.93Z"/><path class="f" d="M182.85,114.08l-1.19,.7c-.03-.73-1.29-1.24-.24-2.14h1.57c-.05,.51-.09,.96-.14,1.44Z"/><path class="f" d="M204.82,133.87l-.15,1.48-1.24,.68-.3-2.01,1.69-.15Z"/><path class="f" d="M163.89,71.58c.54-.51,.89-1.2,1.81-.98l-.12,1.42-1.17,.66-.52-1.1Z"/><path class="f" d="M180.07,220.7c-.63-.58-1.76-.37-1.54-1.62h1.77l-.23,1.62Z"/><path class="f" d="M159.35,138.83l1.53-.15-.12,1.51-1.11,.43-.3-1.79Z"/><path class="f" d="M152.66,133.65l-1.24-1.02,.76-1.01c.88,.51,.98,.98,.48,2.03Z"/><path class="f" d="M135.49,25.86l-.81-.77,.89-1.34,.79,1.4-.87,.71Z"/><path class="f" d="M118.07,44.46h-1.11l.27-1.93c.51,.19,.98,.37,1.44,.55l-.05-.04c-.2,.18-.41,.36-.61,.56-.32,.32-.3,.63,.06,.91v-.03Z"/><path class="f" d="M100.06,93.52l-.4-1q1.25-.54,1.64,.26l-1.23,.75Z"/><path class="f" d="M147.82,105.22l-1.34-1.22c.43-.1,.89-.35,1.11-.22,.59,.34,.48,.92,.23,1.44Z"/><path class="f" d="M144.11,88.66l1.58-1.62c-.16,.97-.84,1.33-1.61,1.59l.03,.03Z"/><path d="M142.71,93.46l-.56,.25c.24-.52,.5-.98,1.13-.95l-.57,.7Z"/><path class="f" d="M154.51,66.14l-.62,.93-.15-.09,.59-.94,.18,.11Z"/><path class="f" d="M32.62,81.84l-1.41,.34-.09-.33,1.39-.42,.11,.42Z"/><path class="f" d="M186.25,140.36l-.25-.9,.29-.1,.32,.85-.36,.14Z"/><path class="f" d="M121.89,10.19l-.65,1.39-.08-1.57c.32,.1,.52,.16,.72,.22,0,0,0-.04,0-.04Z"/><path d="M188.67,72.64l-1.77-.21,1.6-1.3-.12-1.81c.92,1.02,1.8,1.52,3.07,1.2l-.53,1.47,.94,1.32-1.72-.18-1.05,1.55-.42-2.04Zm1.83-.21l.14-1.44h-1.64l-.74,1.01,1.22,1.03,1.03-.59Z"/><path d="M196.87,173.64c-.56,1-.37,1.78,.6,2.64l-1.84-.11-1.07,1.57c-.14-.82-.24-1.39-.36-2.06l-1.66-.2c.74-.93,2.23-1.39,1.35-3.01,.92,.83,1.7,1.47,2.98,1.16Zm-3.08,1.31l1.19,1.06,1.04-.51,.12-1.48h-1.64l-.71,.94Z"/><path d="M208.38,201.66l-1.1,1.6-.3-2.02-1.78-.31,1.52-1.26v-1.68c.9,.66,1.58,1.67,3.14,.81-.69,1.3-.67,2.15,.35,3.03l-1.83-.17Zm.53-2.14c-.98-.11-1.95-.22-2.33,.99,.4,.35,.8,.69,1.15,1l1.03-.53,.15-1.47Z"/><path d="M182.09,170.12c-.74,1.23-.6,2.06,.33,2.98l-1.79-.24-1.09,1.63-.36-2.07-1.72-.25,1.49-1.28c0-.5,0-1,0-1.73,.87,.84,1.66,1.56,3.13,.95Zm-3.31,1.59l1.2,1.03,1-.54,.19-1.46h-1.7l-.69,.97Z"/><path d="M222.06,175.16q-.32,1.35,.36,2.75c-.33-.06-.59-.11-.84-.15-.23-.03-.46-.05-.71-.07-.31,.47-.61,.92-1.08,1.62-.14-.84-.24-1.41-.36-2.07-.48-.07-.97-.13-1.53-.21,.12-.72,.9-.75,1.29-1.39v-1.74c.84,1.05,1.75,1.46,2.87,1.26Zm-1.81,2.39l.99-.55,.15-1.46h-1.68l-.7,1.03,1.24,.98Z"/><path d="M190.8,196.75l-1.77-.2,1.54-1.26c0-.51,0-1.01,0-1.72,.89,.75,1.64,1.57,3.09,.9-.65,1.23-.61,2.08,.41,2.98l-1.83-.22-1.09,1.67c-.15-.91-.25-1.51-.36-2.16Zm1.79-.16l.19-1.46h-1.72l-.66,.99,1.17,1.01,1.02-.53Z"/><path d="M168.58,194.47c-.41-.04-.89-.1-1.64-.18l1.57-1.3v-1.9c.78,1.21,1.69,1.51,2.92,1.31-.47,1.01-.53,1.88,.6,2.78l-1.88-.21-.94,1.4c-.63-.54-.16-1.32-.64-1.91Zm-.28-.65l1.2,1.02,.99-.54,.18-1.46c-.58,0-1.12,0-1.7,0l-.68,.98Z"/><path d="M188.54,207.22l-1.79-.15c1.03-.83,2.07-1.49,1.57-2.94,.82,.8,1.63,1.34,2.89,.98-.28,1.04-.66,1.98,.59,2.67l-.35,.13-1.47-.18-1.09,1.63-.34-2.14Zm.27-1.62l-.66,.99,1.18,1.01,1-.54,.18-1.46c-.57,0-1.12,0-1.7,0Z"/><path d="M195.58,78.21l-.09-1.86c.86,1.11,1.72,1.57,3.04,1.22l-.52,1.48,.9,1.36-1.69-.21-1.09,1.61-.32-2.05-1.81-.24,1.59-1.3Zm-.22,.82l1.19,1.09,1.04-.62,.14-1.43h-1.64l-.73,.96Z"/><path d="M184.32,151.66l-1.41-.18-1.09,1.61-.36-2.02-1.85-.33c1.25-.72,2.04-1.45,1.77-2.85,.37,.32,.68,.76,1.11,.94,.44,.19,.99,.13,1.6,.19-.11,.84-.78,1.8,.66,2.41l-.42,.24Zm-3.28-1.37l1.19,1.06,1.04-.51,.12-1.48h-1.64l-.71,.94Z"/><path d="M208.3,101.82c.79,1.25,1.72,1.54,2.96,1.3l-.5,1.44,.87,1.39-1.63-.25-1.13,1.57-.34-2.02-1.79-.22,1.55-1.29c0-.5,0-1.03,0-1.92Zm-.53,3.15c1.09-.37,1.24,.22,1.36,.75l1.21-.71,.14-1.45c-.6,0-1.14,0-1.62,0l-1.08,1.41Z"/><path d="M209.02,187.38c.86,.88,1.55,1.73,2.99,.98-.47,1.21-.66,2.09,.56,2.95l-1.92-.12-1.07,1.57-.34-2.06-1.63-.19c.33-.69,.97-.85,1.42-1.34v-1.79Zm.99,3.64l1.02-.52,.15-1.48h-1.67l-.68,.97,1.18,1.02Z"/><path d="M187.55,213.91c.79,1.17,1.54,1.74,2.84,1.16-.23,1.12-.8,2.06,.58,2.69l-.34,.17-1.52-.09c-.3,.43-.6,.88-1.07,1.57l-.34-2.06-1.63-.19c.32-.69,.96-.85,1.48-1.41v-1.83Zm-.28,2.72c.42,.37,.82,.73,1.18,1.05l1.06-.53,.13-1.49h-1.63l-.74,.98Z"/><path d="M212.08,180.45l-1.39-.24-.96,1.44c-.62-.55-.16-1.33-.62-1.92l-1.65-.18,1.57-1.3c0-.48,0-1.02,0-1.89,.78,1.2,1.69,1.51,2.92,1.3-.46,1.01-.53,1.88,.37,2.59l-.23,.19Zm-.88-2.32c-.57,0-1.15,0-1.73,0l-.67,.98,1.21,1,1-.55,.19-1.43Z"/><path d="M169.01,116.63c.68-.53,1.11-.87,1.59-1.24,0-.51,0-1.04,0-1.87,.81,1.07,1.68,1.51,2.98,1.18l-.52,1.48,.89,1.36-1.68-.21-1.09,1.6c-.13-.85-.22-1.42-.32-2.05l-1.85-.24Zm2.13-1.43l-.72,.96,1.18,1.08,1.04-.61,.14-1.43c-.53,0-1.03,0-1.65,0Z"/><path d="M174.16,142.42c0-.55,0-1.04,0-1.83,.82,1.03,1.62,1.61,2.94,1.17-.42,1.07-.61,1.95,.61,2.8l-1.92-.12-1.08,1.58c-.14-.84-.23-1.41-.34-2.06l-1.64-.2c.34-.69,.98-.85,1.43-1.34Zm2.16-.13c-.98-.11-1.95-.22-2.33,.99l1.15,1,1.03-.53,.15-1.47Z"/><path d="M165.99,96.09c.61,1.12,1.6,1.25,2.77,1.11l-.52,1.43,.94,1.31-1.72-.18c-.29,.43-.59,.88-1.05,1.55-.17-.81-.29-1.4-.42-2.04-.53-.06-1.02-.12-1.77-.21,.65-.52,1.1-.89,1.6-1.3l-.1-1.48,.26-.2Zm-.39,2.53l1.21,1.04,1.03-.59,.13-1.45h-1.63l-.75,1Z"/><path d="M203.56,222.25l-1.78-.19,1.55-1.26v-1.79c.84,.94,1.71,1.45,2.97,1.16-.41,1.03-.7,1.92,.52,2.61l-.32,.15-1.49-.19-1.1,1.66-.35-2.14Zm-.42-.63c.41,.34,.81,.67,1.21,1l1.02-.56,.15-1.46h-1.68l-.7,1.02Z"/><path d="M203.67,97.48l.9,1.35-1.68-.21-1.09,1.6-.32-2.05-1.85-.24,1.59-1.24c0-.5,0-1.04,0-1.83,.83,.99,1.65,1.58,3.02,1.05l-.56,1.59Zm-1.44,1.04l1.04-.6,.1-1.45c-.6,0-1.1,0-1.61,0l-.74,1,1.21,1.05Z"/><path d="M202.68,183.27l-1.03,1.6-.36-2.06-1.76-.3,1.57-1.29c-.02-.49-.04-.99-.08-1.74,.91,.87,1.67,1.67,3.22,.95-.77,1.26-.74,2.06,.34,2.93l-1.91-.09Zm-1.81-1.21l1.18,1.05,1.06-.53,.13-1.49h-1.63l-.74,.98Z"/><path d="M168.5,182.09c0-.55,0-1.04,0-1.83,.82,1.03,1.62,1.61,2.94,1.16-.42,1.07-.61,1.95,.61,2.8l-1.92-.12-1.08,1.58-.34-2.06-1.64-.19c.34-.69,.98-.85,1.43-1.34Zm2.02,1.35l.13-1.5h-1.67l-.67,.97,1.18,1.03c.3-.15,.66-.32,1.03-.5Z"/><path d="M202.1,155.99l-2.01,.17-1.02,1.48-.3-2.02-1.78-.31,1.52-1.26v-1.74c.86,.83,1.66,1.53,3.01,1.08-.56,1.18-.61,2.08,.55,2.62l.03-.03Zm-3.78-1.14l1.21,1.04,1.02-.51,.15-1.48h-1.65l-.73,.95Z"/><path d="M194.93,90.68l-1.07,1.62-.32-2.07-1.81-.24,1.59-1.31-.11-1.85c.9,1.12,1.78,1.61,3.13,1.18l-.61,1.5,.91,1.37-1.71-.21Zm-.64-.08l1.03-.62,.14-1.44h-1.64l-.71,.99,1.19,1.07Z"/><path d="M178.75,121.62c.63,1.04,1.56,1.33,2.81,1l-.57,1.52,.95,1.33-1.74-.19-1.03,1.56c-.17-.83-.29-1.43-.42-2.05-.55-.07-1.03-.13-1.77-.22l1.6-1.3-.12-1.48,.27-.17Zm.34,1.5l-.69,.97,1.12,1.12,1.08-.63,.14-1.45h-1.64Z"/><path d="M163.62,162.78q1.26,1.12,2.86,1.31-.32,1.34,.45,2.54l-1.66-.08-.83,1.31h-.26l-.28-1.77-1.77-.29c.63-.52,1.08-.89,1.58-1.3l-.08-1.72Zm2.22,1.58h-1.64l-.74,.98,1.18,1.05,1.05-.53,.15-1.49Z"/><path d="M173.37,208.93c.71,1.06,1.65,1.18,2.83,1.04-.36,.98-.57,1.87,.27,2.73l-1.52-.14-1.09,1.62-.34-2.1-1.76-.22c1.01-.79,2.02-1.47,1.61-2.92Zm.41,1.47l-.64,1.01,1.15,1.01,1.03-.57,.15-1.46h-1.7Z"/><path d="M197.43,118.95l-1,1.54-.34-2-1.81-.3,1.6-1.29-.13-1.73c.94,.8,1.7,1.62,3.09,1.06l-.55,1.52,.82,1.22h-1.68Zm-1.79-1.26l1.14,1.13,1.09-.61,.14-1.44h-1.64l-.74,.91Z"/><path d="M210.62,131.05c-.05-.57-.08-1.02-.14-1.77,.93,.92,1.73,1.63,3.08,1.15l-.54,1.5,.83,1.21h-1.67l-1.03,1.5-.33-1.98-1.81-.31,1.6-1.29Zm2.13-.1h-1.64l-.74,.92,1.14,1.13,1.1-.61,.15-1.44Z"/><path d="M175.98,82.74q1.54,1.02,2.97,1.13l-.51,1.28,.88,1.29-1.67-.09-1.07,1.52c-.13-.83-.23-1.4-.33-2l-1.85-.24,1.59-1.27c0-.5,0-1.04,0-1.61Zm2.21,1.42c-.62,0-1.14,0-1.65,0l-.74,.97,1.16,1.11,1.06-.6,.16-1.47Z"/><path d="M226.56,202.41l-.53,1.16,.84,1.25h-1.68l-1,1.55-.34-2-1.81-.31,1.59-1.28c-.03-.47-.06-.97-.12-1.73,.94,.78,1.68,1.63,2.9,1.12l.14,.26Zm-.91,1.68l.11-1.48c-.61,0-1.12,0-1.59,0l-.76,.95,1.14,1.14,1.1-.61Z"/><path d="M169.66,135.32l-.57,1.38,.85,1.33-1.66-.1-1.07,1.53-.32-2.01-1.83-.24,1.57-1.28c0-.5,0-1.03,0-1.87,.83,1.12,1.74,1.54,3.02,1.26Zm-.83,.44h-1.64l-.75,.96,1.19,1.08,1.05-.57,.15-1.47Z"/><path d="M179.45,102.98l1.4-1.08-.08-1.59q1.64,1.04,2.99,1.14l-.51,1.29,.89,1.27c-.68-.03-1.17-.06-1.68-.08l-1.07,1.52-.33-2-1.52-.19-.09-.27Zm3.41,.23l.11-1.48h-1.59l-.76,.95,1.14,1.14,1.1-.61Z"/><path d="M206.01,115.06l-1.82-.25,1.56-1.28v-1.88c.83,1.16,1.75,1.54,3.02,1.29l-.57,1.37,.85,1.33-1.69-.1-1,1.57-.35-2.05Zm1.94-1.71h-1.65l-.72,.96,1.13,1.12,1.07-.61,.17-1.47Z"/><path d="M161.52,82.75l-1.82-.25,1.56-1.28c0-.5,0-1.03,0-1.88,.83,1.16,1.75,1.54,3.02,1.29l-.57,1.37,.85,1.33c-.66-.04-1.16-.07-1.69-.1l-1,1.57-.35-2.05Zm.29-1.71l-.7,.96,1.11,1.13,1.11-.62,.1-1.47c-.56,0-1.02,0-1.61,0Z"/><path d="M224.35,212.64l-.58,1.45,.88,1.28-1.68-.09c-.32,.45-.62,.88-1.07,1.52l-.33-2-1.87-.24c.67-.53,1.12-.88,1.6-1.27,0-.5,0-1.04,0-1.85,.85,1.03,1.72,1.57,3.03,1.2Zm-3.23,1.4l1.19,1.13,1.07-.6,.13-1.47c-.6,0-1.11,0-1.61,0l-.78,.95Z"/><path d="M183.36,92.94c-.38-.04-.66-.06-.93-.09-.22-.03-.43-.07-.89-.15l1.58-1.3-.1-1.73c.93,.78,1.68,1.62,2.93,1.11-.15,.87-.27,1.61-.36,2.17l-1.97,1.8-.25-1.81Zm.71,.37l1.05-.57,.14-1.47c-.56,0-1.07,0-1.61,0l-.78,.96,1.2,1.08Z"/><path d="M179.61,72.91c.76,.96,1.62,1.3,2.87,.95-.19,.6-.39,.97-.4,1.34,0,.34,.21,.68,.36,1.09l-2.44,.52-.29-.78-1.73-.19c1.06-.8,2.03-1.49,1.63-2.93Zm-.26,2.45l1.19,1.04,1-.55,.18-1.46h-1.7l-.68,.97Z"/><path d="M215.46,120.39l-.27,1.73c-.63,.66-1.15,1.19-1.79,1.86l-.3-1.79-1.81-.31,1.58-1.29-.1-1.52c.19,.02,.38,0,.42,.06,.53,.77,1.2,1.17,2.17,.89,.07-.02,.22,.2,.33,.31-.03,.03-.06,.08-.1,.09-.04,.01-.09,0-.13,0-.7,0-1.39,0-2.03,0l-.77,.97,1.14,1.14,.83-.47c.36-.71,.6-1.19,.83-1.66Z"/><path d="M218.27,139.8l1.2,1.1c.27-.4,1.3-.23,1.13-1.57,.45,.71,.74,1.18,1.13,1.8l-1.57-.11c-.33,.46-.63,.89-1.08,1.53l-.33-2-1.81-.24c.64-.52,1.08-.89,1.59-1.31l-.1-1.71,1.85,1.49-1.17,.07-.84,.94Z"/><path d="M146.38,123.08l1.1,1.32-1.06,.19,.36,1.42c-.97,.12-1.99,.07-2.56,1.14l-.29-1.77-1.8-.23,1.59-1.3-.1-1.81c.88,.97,1.64,1.66,2.76,1.05Zm-1.65,2.56c.69-.3,1.22-.85,1.05-1.92h-1.59l-.7,1.01,1.24,.91Z"/><path d="M131.37,113.03c0-.6,0-1.19,0-1.85-.6-.07-1.09-.12-1.84-.21,.64-.52,1.09-.89,1.54-1.26v-1.78c.85,.93,1.72,1.44,2.99,1.15-.46,1.04-.68,1.92,.5,2.63l-.33,.15-1.37-.18c-.71,.31-.45,1.54-1.51,1.32l.03,.03Zm1.94-3.5h-1.74l-.67,1,1.2,.98,.97-.51,.23-1.47Z"/><path d="M149.59,143.74l-1.8-.16,1.57-1.3v-1.62q1.33,1.01,2.92,1.11l-.46,1.33,.87,1.38-1.67-.24-1.09,1.57-.35-2.07Zm-.42-.67l1.19,1.09,1.04-.62,.14-1.43h-1.64l-.73,.96Z"/><path d="M99.91,82.35l1.6-1.3-.12-1.75c.95,.89,1.75,1.62,3.12,1.02l-.58,1.6,.94,1.31c-.68-.07-1.16-.12-1.72-.18-.29,.43-.59,.88-1.05,1.55l-.42-2.04c-.53-.06-1.02-.12-1.77-.21Zm1.04-.04c1.09-.37,1.24,.22,1.36,.75l1.21-.71,.14-1.45h-1.62l-1.08,1.41Z"/><path d="M148.87,173.08l-1.39-.22c-.32,.48-.62,.93-1.1,1.66l-.34-2.08-1.75-.28,1.51-1.23c0-.52,0-1.02,0-1.79,.84,.95,1.72,1.45,3.02,1.15-.6,1.06-.51,1.9,.05,2.8Zm-1.03-.89l.15-1.46h-1.68l-.7,1.02,1.21,1,1.01-.56Z"/><path d="M154.34,187.77c-.77,1.17-.66,1.96,.41,2.86l-1.9-.17c-.32,.48-.62,.92-1.09,1.62l-.34-2.1-1.76-.22c1.03-.79,2.01-1.47,1.55-2.92,.8,.84,1.64,1.33,3.13,.94Zm-2.12,2.54l1.01-.57,.17-1.45h-1.7l-.66,1.01,1.18,1Z"/><path d="M145.03,162.08c1.25-.72,2.05-1.45,1.64-2.87,.83,.77,1.6,1.43,2.92,.96-.36,1.05-.61,1.94,.24,2.78l-1.52-.09-1.06,1.57c-.15-.82-.25-1.39-.36-2.02-.51-.09-1.04-.18-1.85-.33Zm3.66,.11c.04-.49,.08-.98,.13-1.5h-1.67l-.67,.97,1.18,1.03c.3-.15,.66-.32,1.03-.5Z"/><path d="M44.39,89.27l1.59-1.29-.15-1.76c.95,.86,1.73,1.64,3.1,1.11l-.54,1.51,.82,1.21h-1.68l-1,1.52-.34-1.99-1.8-.31Zm1.35-.47l1.13,1.11,1.09-.56,.15-1.48c-.59,0-1.14,0-1.64,0l-.74,.94Z"/><path d="M88.71,88.71c.84,1.11,1.74,1.56,3.02,1.25l-.57,1.39,.86,1.33c-.66-.04-1.16-.07-1.66-.1l-1.07,1.53-.32-2.01c-.56-.07-1.05-.14-1.83-.24l1.58-1.28c0-.5,0-1.03,0-1.87Zm2.07,3.15l.09-1.47h-1.57l-.76,.95,1.14,1.14,1.11-.62Z"/><path d="M149.54,209.29l.85,1.22h-1.7l-1.02,1.49-.33-2-1.82-.25,1.62-1.35-.13-1.79c.92,.98,1.74,1.63,3.08,1.19l-.55,1.49Zm-1.45,1.07l1.05-.64,.14-1.43c-.58,0-1.09,0-1.61,0l-.77,.97,1.2,1.1Z"/><path d="M55.54,86.16l-1.82-.27,1.59-1.3-.11-1.71c.55,.45,.9,.89,1.35,1.07,.48,.19,1.06,.13,1.72,.18l-.56,1.27,.84,1.24h-1.67l-1,1.56-.34-2.03Zm.29-1.72l-.7,.96,1.11,1.13,1.11-.62,.1-1.47c-.56,0-1.02,0-1.61,0Z"/><path d="M80.84,82.59l-.14-1.77c.93,.92,1.73,1.63,3.08,1.15l-.54,1.5,.83,1.21c-.62,0-1.1,0-1.67,0l-1.03,1.5-.33-1.98-1.81-.31,1.6-1.29Zm.49-.13l-.71,.96,1.11,1.13,1.11-.63,.1-1.47h-1.61Z"/><path d="M143.18,114.87l1.35-1.02v-1.88c.85,1.05,1.72,1.57,3.03,1.21-.24,.6-.41,1.02-.58,1.44l.88,1.29-1.67-.09-1.07,1.52-.32-2-1.53-.2-.08-.27Zm1.14-.27l1.21,1.1,1.04-.57,.15-1.47h-1.6l-.81,.94Z"/><path d="M136.19,74.75c.1,1.31-.99,2.5-2.44,3.41-1.17,.74-2.87,.23-3.55-.96-1.23-2.16-1.01-4.94,.54-6.87,1.33-1.65,3.28-1.57,4.43,.22,.7,1.09,1,2.32,1.02,4.2Zm-.42-.67c-.31-1.02-.52-2.09-.96-3.05-.51-1.12-1.27-1.25-2.3-.57-.3,.2-.58,.5-.75,.81-.99,1.81-.8,3.61,.17,5.37,.41,.74,1.87,1.07,2.57,.28,.74-.83,1.16-1.69,1.27-2.85Z"/><path d="M119.61,74.81c-.2,.91-.32,1.75-.57,2.55-.33,1.06-1.18,1.57-2.22,1.69-1.04,.12-1.61-.6-2.1-1.39-.91-1.5-.77-3.06-.27-4.62,.11-.35,.33-.69,.57-.96,1.64-1.87,3.37-1.19,4.03,.62,.25,.69,.38,1.44,.55,2.12Zm-3.05,1.99c.08-.23,.09-.54,.25-.66,.18-.13,.6-.19,.72-.07,.15,.14,.18,.52,.1,.74-.09,.27-.35,.49-.54,.74,.98,.4,1.2,.37,1.53-.44,.63-1.56,.57-3.14-.11-4.68-.3-.67-.76-.81-1.37-.39-.33,.23-.69,.57-.81,.93-.4,1.15-.74,2.34,.23,3.82Z"/><path d="M137.46,66.19c-.39,.43-.77,.68-1.29,.16-.15-.15-.33-.34-.52-.36-1.57-.22-3.15-.51-4.73-.54-.77-.01-1.55,.51-2.3,.78-.12-1.2,.34-1.96,1.28-2.58,1.95-1.28,3.7-.51,5.46,.37,.45,.23,.91,.52,1.26,.89,.34,.35,.55,.83,.85,1.29Z"/><path d="M118.96,67.25c-1.12,.26-2.03,.7-2.89-.16l-.42,.82-2.08-.53c-.02-.15-.13-.39-.06-.49,.91-1.32,2.05-2.3,3.72-2.57,.69-.11,1.11,.11,1.28,.76,.17,.67,.29,1.36,.45,2.16Z"/><path d="M130.44,90.95c0,.48,0,.75,0,1.13-2.46,.56-4.91,1.17-7.39,1.67-1.12,.22-2.26,0-3.31-.47-.29-.13-.51-.42-.98-.82,.54-.07,.8-.19,.97-.11,2.01,.91,3.99,.28,5.95-.13,1.56-.32,3.08-.81,4.76-1.27Z"/><path d="M141.5,91.93l.68,.21c.9-.74-.88-1.5,.07-2.23l.65,1.23c.89-.41,.26-1.08,.49-1.57l.82,.71c-.55,1.48-1.73,2.3-2.99,3.17l.29-1.52Z"/><path d="M131.13,47.01c-1.29,.23-2.58,.45-3.86,.67,.27-.17,.54-.34,.81-.51l-.35-1.26c-.34-.17-.66-.33-.99-.5-.31,.39-.62,.78-.93,1.16-.01,1.08,.93,.81,1.5,1.07-.88,.07-1.76,.14-2.64,.2-.38,.02-.75,.04-1.13,.02-1.96-.09-3.75,.21-4.86,2.11-.06,.1-.23,.12-.35,.18,.63-.8,1.21-1.66,1.91-2.39,.28-.29,.84-.42,1.28-.44,1.21-.06,2.43-.02,3.85-.02l-.65-.75c.95-.38,1.73-.93,1.51-2.25,.74,.84,1.44,1.36,2.6,1.04-.12,.31-.18,.46-.24,.6-.33,.7-.17,1.08,.56,1.13,.65,.04,1.32-.05,1.98-.08Z"/><path d="M125.06,32.85l-1.76-.18c.99-.86,2.04-1.52,1.54-2.97,.82,.8,1.61,1.43,2.93,.97-.38,1.05-.61,1.94,.23,2.78l-1.51-.09-1.07,1.57-.36-2.07Zm-.41-.7l1.18,1.04,1.05-.53,.12-1.47c-.63,0-1.19,0-1.68,0l-.68,.95Z"/><path d="M127.04,20.59l-.92,.97-.2-.12,.15-1.47-1.18-.7,.02-.25,1.53-.21c.33-.62,.67-1.24,1.12-2.08,.65,1.23,.86,2.44,2.37,2.8l-1.25,.98-.23,1.57-.95-1.5c.88,.28,.75-.68,1.12-.88l-1.09-1.45-1.07,1.21q.14,.75,.59,1.13Z"/><path d="M136.87,42.6c.95-.86,.86-1.97,1.07-2.96l2.14,1.08c.16,.71,.32,1.42,.51,2.24l-1.39-.38-.78,1.38-.31-1.2-1.23-.17Zm.79-.36l1.91-.21q-.09-.69-1.37-1.54l-.54,1.74Z"/><path d="M146.77,49.23l-.54,.83c-.01-1.11-.11-1.92-1.5-2.12l1.61-.7,.16-1.04,1.72,1.33v1.88c-.42-.05-.93-.11-1.44-.17,.32-.39,.65-.79,.98-1.2q-.88-.47-1.5-.17c.17,.46,.34,.91,.51,1.36Z"/><path class="f" d="M127.04,20.59q-.45-.38-.59-1.13l1.07-1.21,1.09,1.45c-.37,.21-.24,1.16-1.12,.88h-.45Z"/><path d="M134.26,47.03c-1.06,0-2.12,0-3.18,0,1.06-.34,2.12-.48,3.18,0Z"/><path d="M118.08,44.49c-.36-.28-.38-.59-.06-.91,.19-.19,.4-.37,.61-.56l.45,.14c-.3,.51-1.2,.54-.99,1.32Z"/><path d="M118.37,50.1l-.88,1.61c.29-.54,.59-1.07,.88-1.61Z"/><path d="M142.91,58.79c2.49-.44,4.55-1.53,6.72-2.57-.09,.11-.16,.22-.26,.32-.1,.1-.21,.18-.32,.27-1.49,1.2-3.25,1.85-5.02,2.49-.43,.16-.9,.28-1.11-.51Z"/><path d="M127.05,51.34c.39-.03,.79-.15,1.16-.09,1.47,.26,2.81-1.08,4.31-.33-1.8,.42-3.51,1.48-5.46,.73v-.31Z"/><path d="M118.36,53.83l.55-1.06c.08,.52-.07,.9-.58,1.03l.03,.03Z"/><path d="M10.17,99.78c-.66,1.15-.94,1.34-2.01,1.47,.6-.44,1.32-.96,2.01-1.47Z"/><path d="M12.4,151.54c-.08,1.89-.9,3.92-2.97,5.28-2.52,1.67-5.35,.76-6.51-2.03-1.51-3.63,.36-7.81,4.09-9.06,1.31-.44,2.53-.05,3.53,.88,1.28,1.18,1.88,2.68,1.85,4.93Zm-4.83-4.99c-2.23,0-4.64,2.86-4.36,5.17,.02,.13,.1,.28,.08,.4-.31,1.74,.54,3.51,2.1,4.34,1.4,.75,3.02,.51,4.3-.69,1.47-1.37,2.13-3.11,1.97-5.09-.22-2.68-1.7-4.12-4.09-4.12Z"/><path class="f" d="M190.51,72.43l-1.03,.59-1.22-1.03,.74-1.01h1.64l-.14,1.44Z"/><path class="f" d="M193.79,174.95l.71-.94h1.64l-.12,1.48-1.04,.51-1.19-1.06Z"/><path class="f" d="M208.91,199.52l-.15,1.47-1.03,.53c-.36-.31-.75-.65-1.15-1,.39-1.22,1.35-1.1,2.33-.99Z"/><path class="f" d="M178.77,171.71l.69-.97h1.7l-.19,1.46-1,.54-1.2-1.03Z"/><path class="f" d="M220.24,177.55l-1.24-.98,.7-1.03h1.68l-.15,1.46-.99,.55Z"/><path class="f" d="M192.59,196.58l-1.02,.53-1.17-1.01,.66-.99h1.72l-.19,1.46Z"/><path class="f" d="M168.29,193.82l.68-.98c.58,0,1.12,0,1.7,0l-.18,1.46-.99,.54-1.2-1.02Z"/><path class="f" d="M188.81,205.6c.58,0,1.13,0,1.7,0l-.18,1.46-1,.54-1.18-1.01,.66-.99Z"/><path class="f" d="M195.36,79.03l.73-.96h1.64l-.14,1.43-1.04,.62-1.19-1.09Z"/><path class="f" d="M181.04,150.3l.71-.94h1.64l-.12,1.48-1.04,.51-1.19-1.06Z"/><path class="f" d="M207.78,104.97l1.08-1.41c.48,0,1.03,0,1.62,0l-.14,1.45-1.21,.71c-.12-.53-.27-1.12-1.36-.75Z"/><path class="f" d="M210.01,191.02l-1.18-1.02,.68-.97h1.67l-.15,1.48-1.02,.52Z"/><path class="f" d="M187.27,216.63l.74-.98h1.63l-.13,1.49-1.06,.53c-.36-.32-.76-.67-1.18-1.05Z"/><path class="f" d="M211.21,178.13l-.19,1.43-1,.55-1.21-1,.67-.98c.58,0,1.15,0,1.73,0Z"/><path class="f" d="M171.15,115.2c.62,0,1.12,0,1.65,0l-.14,1.43-1.04,.61-1.18-1.08,.72-.96Z"/><path class="f" d="M176.33,142.28l-.15,1.47-1.03,.53-1.15-1c.39-1.22,1.35-1.1,2.33-.99Z"/><path class="f" d="M165.59,98.62l.75-1h1.63l-.13,1.45-1.03,.59-1.21-1.04Z"/><path class="f" d="M203.14,221.62l.7-1.02h1.68l-.15,1.46-1.02,.56c-.4-.33-.79-.66-1.21-1Z"/><path class="f" d="M202.23,98.53l-1.21-1.05,.74-1c.51,0,1.01,0,1.61,0l-.1,1.45-1.04,.6Z"/><path class="f" d="M200.87,182.06l.74-.98h1.63l-.13,1.49-1.06,.53-1.18-1.05Z"/><path class="f" d="M170.51,183.44c-.36,.18-.73,.36-1.03,.5l-1.18-1.03,.67-.97h1.67c-.04,.52-.09,1.01-.13,1.5Z"/><path class="f" d="M198.31,154.84l.73-.95h1.65l-.15,1.48-1.02,.51-1.21-1.04Z"/><path class="f" d="M194.3,90.6l-1.19-1.07,.71-.99h1.64l-.14,1.44-1.03,.62Z"/><path class="f" d="M179.08,123.11h1.64l-.14,1.45-1.08,.63-1.12-1.12,.69-.97Z"/><path class="f" d="M165.85,164.36l-.15,1.49-1.05,.53-1.18-1.05,.74-.98h1.64Z"/><path class="f" d="M173.78,210.4h1.7l-.15,1.46-1.03,.57-1.15-1.01,.64-1.01Z"/><path class="f" d="M195.64,117.69l.74-.91h1.64l-.14,1.44-1.09,.61-1.14-1.13Z"/><path class="f" d="M212.76,130.95l-.15,1.44-1.1,.61-1.14-1.13,.74-.92h1.64Z"/><path class="f" d="M178.2,84.17l-.16,1.47-1.06,.6-1.16-1.11c.21-.27,.47-.62,.74-.97,.51,0,1.02,0,1.65,0Z"/><path class="f" d="M225.65,204.09l-1.1,.61-1.14-1.14,.76-.95c.46,0,.97,0,1.59,0l-.11,1.48Z"/><path class="f" d="M168.83,135.76l-.15,1.47-1.05,.57-1.19-1.08,.75-.96h1.64Z"/><path class="f" d="M182.86,103.21l-1.1,.61-1.14-1.14,.76-.95h1.59l-.11,1.48Z"/><path class="f" d="M207.95,113.35l-.17,1.47-1.07,.61-1.13-1.12,.72-.96h1.65Z"/><path class="f" d="M161.81,81.04c.59,0,1.05,0,1.61,0l-.1,1.47-1.11,.62-1.11-1.13,.7-.96Z"/><path class="f" d="M221.12,214.05l.78-.95c.5,0,1.01,0,1.61,0l-.13,1.47-1.07,.6-1.19-1.13Z"/><path class="f" d="M184.07,93.31l-1.2-1.08,.78-.96c.54,0,1.04,0,1.61,0l-.14,1.47-1.05,.57Z"/><path class="f" d="M179.35,75.37l.68-.97h1.7l-.18,1.46-1,.55-1.19-1.04Z"/><path class="f" d="M215.46,120.39c-.24,.47-.48,.94-.83,1.66l-.83,.47-1.14-1.14,.77-.97c.64,0,1.34,0,2.03,0h0Z"/><path class="f" d="M144.74,125.64l-1.24-.91,.7-1.01h1.59c.17,1.07-.36,1.62-1.05,1.92Z"/><path class="f" d="M133.3,109.53l-.23,1.47-.97,.51-1.2-.98,.67-1h1.74Z"/><path class="f" d="M149.17,143.08l.73-.96h1.64l-.14,1.43-1.04,.62-1.19-1.09Z"/><path class="f" d="M100.95,82.3l1.08-1.41h1.62l-.14,1.45-1.21,.71c-.12-.53-.27-1.12-1.36-.75Z"/><path class="f" d="M147.84,172.19l-1.01,.56-1.21-1,.7-1.02h1.68l-.15,1.46Z"/><path class="f" d="M152.21,190.31l-1.18-1,.66-1.01h1.7l-.17,1.45-1.01,.57Z"/><path class="f" d="M148.69,162.19c-.36,.18-.73,.36-1.03,.5l-1.18-1.03,.67-.97h1.67c-.04,.52-.09,1.01-.13,1.5Z"/><path class="f" d="M45.74,88.8l.74-.94c.5,0,1.04,0,1.64,0l-.15,1.48-1.09,.56-1.13-1.11Z"/><path class="f" d="M90.78,91.86l-1.11,.62-1.14-1.14,.76-.95h1.57l-.09,1.47Z"/><path class="f" d="M148.09,210.35l-1.2-1.1,.77-.97c.53,0,1.03,0,1.61,0l-.14,1.43-1.05,.64Z"/><path class="f" d="M55.83,84.44c.59,0,1.05,0,1.61,0l-.1,1.47-1.11,.62-1.11-1.13,.7-.96Z"/><path class="f" d="M81.33,82.46h1.61l-.1,1.47-1.11,.63-1.11-1.13,.71-.96Z"/><path class="f" d="M144.32,114.59l.81-.94h1.6l-.15,1.47-1.04,.57-1.21-1.1Z"/><path class="f" d="M135.78,74.08c-.11,1.16-.53,2.02-1.27,2.85-.7,.79-2.16,.46-2.57-.28-.97-1.76-1.16-3.56-.17-5.37,.17-.32,.45-.61,.75-.81,1.03-.68,1.79-.55,2.3,.57,.44,.96,.65,2.03,.96,3.05Zm-2.41,1.37l-.97-.76c-.2,.26-.5,.51-.57,.8-.08,.38,.14,.79,.61,.68,.28-.06,.51-.38,.93-.73Z"/><path class="f" d="M116.55,76.8c-.97-1.48-.63-2.67-.23-3.82,.13-.37,.48-.7,.81-.93,.61-.42,1.07-.29,1.37,.39,.68,1.54,.74,3.12,.11,4.68-.32,.81-.54,.84-1.53,.44,.19-.25,.45-.46,.54-.74,.08-.22,.04-.61-.1-.74-.12-.12-.54-.06-.72,.07-.16,.11-.18,.43-.25,.66Z"/><path class="f" d="M127.31,47.66c-.57-.26-1.52,0-1.5-1.07,.31-.38,.62-.77,.93-1.16,.33,.17,.66,.33,.99,.5l.35,1.26c-.27,.17-.54,.34-.81,.51,0,0,.04-.03,.04-.03Z"/><path class="f" d="M124.65,32.16l.68-.95c.49,0,1.04,0,1.68,0l-.12,1.47-1.05,.53-1.18-1.04Z"/><path class="f" d="M137.66,42.23l.54-1.74q1.28,.85,1.37,1.54l-1.91,.21Z"/><path class="f" d="M146.77,49.23c-.17-.45-.34-.91-.51-1.36q.62-.3,1.5,.17c-.34,.41-.66,.8-.98,1.2h0Z"/><path class="f" d="M7.57,146.55c2.39,0,3.87,1.45,4.09,4.12,.16,1.99-.5,3.72-1.97,5.09-1.28,1.2-2.89,1.44-4.3,.69-1.56-.83-2.41-2.6-2.1-4.34,.02-.12-.06-.26-.08-.4-.28-2.31,2.14-5.17,4.36-5.17Zm2.12,8.14c-.41-1.19-.72-1.49-1.9-1.76,.48,.9,.97,1.48,1.9,1.76Zm-2.41-6.81h-.32c-.44,1.15-.44,1.57,.11,2.39l.21-2.39Zm-.62,4.81c.68-.29,.77-.73,.49-1.26-.06-.1-.36-.18-.48-.13-.48,.24-.39,.68-.27,1.09,.02,.08,.12,.14,.26,.29Z"/><path d="M133.37,75.45c-.42,.34-.64,.66-.93,.73-.47,.11-.69-.3-.61-.68,.06-.29,.37-.54,.57-.8l.97,.76Z"/><path d="M9.7,154.69c-.94-.28-1.43-.86-1.9-1.76,1.18,.27,1.49,.57,1.9,1.76Z"/><path d="M7.29,147.88l-.21,2.39c-.55-.82-.55-1.24-.11-2.39h.32Z"/><path d="M6.67,152.68c-.14-.16-.24-.21-.26-.29-.13-.41-.22-.85,.27-1.09,.12-.06,.42,.02,.48,.13,.29,.53,.2,.97-.49,1.26Z"/></g></g></g></g></svg>