<?xml version="1.0" encoding="UTF-8"?><svg xmlns="http://www.w3.org/2000/svg" xmlns:xlink="http://www.w3.org/1999/xlink" viewBox="0 0 114.12 320.14"><defs><style>.f,.g,.h,.i{fill:#fff;}.g,.j,.i,.k,.l,.m,.n,.o{stroke-miterlimit:10;stroke-width:.25px;}.g,.k,.m,.n,.o{stroke:#fff;}.j,.i,.l{stroke:#000;}.h{opacity:.94;}.k{opacity:.81;}.l,.n{fill:none;}.p{filter:url(#d);}.o{opacity:.87;}</style><filter id="d" filterUnits="userSpaceOnUse"><feOffset dx="5.67" dy="11.34"/><feGaussianBlur result="e" stdDeviation="0"/><feFlood flood-color="#000" flood-opacity=".5"/><feComposite in2="e" operator="in"/><feComposite in="SourceGraphic"/></filter></defs><g id="a"/><g id="b"><g id="c"><g class="p"><path d="M44.7,14.57c-2.6-.67-3.82-3.57-4.85-6.06-1.03-2.49-2.8-5.27-5.49-5.21-1.7,.04-3.18,1.33-3.93,2.85-.76,1.52-.93,3.26-1.06,4.96-1.95,25.75,2.94,51.47,7.8,76.83,.1,.53,1.32,1.23,1.65,1.66,.93,1.17,3.58,1.26,3.12-4.96l-4.41-58.75c-.12-1.61,.07-3.69,1.61-4.15,2.11-.62,3.24,2.46,5.1,3.63,1.84,1.15,4.51,.07,5.45-1.89s.37-4.39-.95-6.11-3.27-2.84-4.05-2.78Z"/><path d="M42.19,88.14c.1-1.73,.15-3.74-1.33-4.63-1.41-.85-3.35,.03-4.23,1.43s-.96,3.13-1.03,4.78l-2.53,63.49c-.06,1.59-.12,3.24,.52,4.7s2.16,2.66,3.73,2.37c1.24-.23,2.18-1.34,2.57-2.54s.35-2.5,.31-3.76c-.7-21.39,1.94-61.42,1.76-60.06"/><path d="M46.14,188.94c-2.06-1.55-4.38-9.32-4.88-14.45s-.32-10.31-.97-15.42c-.16-1.22-.37-2.47-1.02-3.52s-1.82-1.86-3.05-1.73c-1.15,.12-2.09,1.03-2.58,2.08s-.6,2.23-.7,3.38c-.51,5.81-.94,11.66-.47,17.47,.47,5.81,1.9,11.63,4.89,16.64,1.08,1.81,3,3.77,5.08,3.48-1.67-1.67-3.1-3.41-3.43-5.06-.22-1.1-.77-2.07-.64-3.19,.15-1.3,.05-.78,.64-2.07,.25,1.88,.87,2.81,1.66,4.54s2.2,3.34,4.04,3.82c-2.35-2.77-3.67-5.21-3.67-9.68,.7-.12,.84,.33,1.24,.93s.58,1.3,.8,1.98,.66,1.16,1.22,1.6,1.67,1.17,2.17,.66,.04-1.16-.36-1.46Z"/><path class="i" d="M52.35,299.68c.54-1.48-.15-3.31-1.54-4.06-.27,1.36-2.12,2.11-3.26,1.31-.78-.55-1.14-1.59-1.96-2.07-.69-.41-1.56-.33-2.35-.21-9.99,1.46-18.88,6.97-28.49,10.09-1.74,.56-3.86,.97-5.2-.26l.85,1.49c-.67-.1-1.24,.79-.87,1.36-2.6-.28-5.31,.72-7.11,2.62l42.1-7.43c2.87-.51,6.93-.39,7.83-2.84Z"/><path class="j" d="M10.4,305.25c-1.95,.3-3.98,.05-5.81-.71-1.11-.46-2.37-1.11-3.44-.56-.78,.4-1.16,1.39-.98,2.25s.82,1.58,1.59,1.99,1.66,.57,2.54,.6c2.27,.09,4.56-.56,6.11-3.57Z"/><path class="f" d="M3.61,304.61c-.3-.17-.6-.34-.92-.43s-.69-.1-1,.05c-.3,.14-.51,.41-.71,.67-.1,.14-.21,.3-.17,.46,.03,.11,.12,.2,.21,.28l.58,.5c.13,.11,.27,.23,.45,.23,.18,0,.33-.13,.45-.26,.46-.47,.85-1.01,1.12-1.5Z"/><path class="f" d="M4.37,304.79c-.79,.33-1.37,1.12-1.45,1.97,.27-.77,.78-1.46,1.45-1.97Z"/><path class="f" d="M4.97,304.92c-.72,.25-1.29,.91-1.45,1.66,.34-.66,.85-1.23,1.45-1.66Z"/><path class="l" d="M43.27,303.1c.78-1.6,.74-3.59-.1-5.16-.85-1.57-2.48-2.69-4.26-2.91"/><path class="l" d="M40.04,295.51c1.36-.44,2.83-.57,4.24-.37,.52,.07,1.17,.35,1.13,.88-.04,.46-.59,.68-1.05,.72-1.43,.13-2.9-.47-4.32-1.23Z"/><path class="l" d="M41.81,296.08c.39-1.99-1-4.15-2.97-4.63-.05,1.74,.89,3.47,2.97,4.63Z"/><path class="l" d="M39.79,295.04c1.1,1.26,1.87,2.81,2.2,4.44"/><path class="l" d="M36.87,296.91c.88,.71,1.57,1.65,2,2.69"/><path class="l" d="M34.25,297.95l1.88,2.75"/><path class="l" d="M30.66,299.31l1.99,2.35"/><path class="l" d="M27.01,300.38c1.05,.5,1.98,1.25,2.69,2.18"/><path class="l" d="M24.85,301.37c.77,.61,1.37,1.42,1.72,2.33"/><path class="l" d="M22.68,301.89l1.88,2.05"/><path class="l" d="M18.93,304.7c-.92,.5-1.94,.79-2.99,.84"/><path class="l" d="M10.41,305.54l-1.19-1.16,1.19,1.16Z"/><path d="M53.08,298.83c-8.36,2.01-17.06,4.17-25.48,5.91-7.89,1.63-17.32,3.33-25.21,4.96-.75,.15-1.09,.64-.34,.53,15.15-2.22,30.58-4.4,45.72-7.94,1.19-.28,4.37-1.71,4.87-2.05s.45-.76,.45-1.41Z"/><path d="M46.04,296.52l-27.3-73.52c-2.91-.69-4.7-4.3-3.5-7.04s5.07-3.87,7.55-2.2c2.33,1.56,2.97,4.64,3.49,7.39,3.17,16.58,9.22,32.44,15.24,48.21l8.27,21.65c.53,1.38,1.07,2.83,.95,4.3-.12,1.48-1.11,3-2.57,3.22s-2.99-1.48-2.12-2.01Z"/><path class="n" d="M21.15,220.8l1.81,5.54"/><path class="n" d="M25.83,228.7l1.27,4.53"/><path class="n" d="M24.59,234.67l1.37,3.62"/><path class="n" d="M28.34,238c.42,1.65,1.04,3.26,1.84,4.76"/><path class="n" d="M28.74,245.22l1.61,3.56"/><path class="n" d="M31.56,245.97c.34,1.4,.94,2.73,1.76,3.91"/><path class="n" d="M31.2,252.63l1.95,4.3"/><path class="n" d="M33.84,254.58l1.72,2.64"/><path class="n" d="M34.3,260.08l1.66,3.61"/><path class="n" d="M36.77,260.94l1.49,3.38"/><path class="n" d="M36.77,266.85c.4,1.33,.94,2.62,1.61,3.84"/><path class="n" d="M39.18,267.77l1.32,3.04"/><path class="n" d="M39.98,273.22l1.38,3.27"/><path class="n" d="M42.91,275.11l.63,2.29"/><path class="n" d="M40.67,278.38l1.2,2.75"/><path class="n" d="M43.48,283.66l.98,2.75"/><path class="n" d="M44.75,282.4l1.2,2.7"/><path class="n" d="M46.06,288.83l.98,2.52"/><path class="n" d="M48.13,290.2l.63,2.47"/><path d="M23.59,218.48c4.04-21.12,11.18-41.65,21.11-60.72l.77,2.2,.39-2.31,.29,1.61c1.91-7.03,5.62-13.57,10.67-18.81,2.14-2.22,4.54-4.25,6.14-6.87,1.61-2.63,2.28-6.11,.72-8.77-1.52-2.6-4.81-3.73-7.81-3.54s-5.81,1.48-8.55,2.74c-.16,4.5-2.17,8.69-4.07,12.77-11.23,24.13-19.8,49.49-25.52,75.48-.36,1.64-.71,3.35-.38,5,.33,1.65,1.51,3.25,3.17,3.53s3.51-1.32,3.06-2.3Z"/><path class="n" d="M32.99,171.97l-2.64,5.61"/><path class="n" d="M34.33,174.28l-1.52,4.89"/><path class="n" d="M35.22,161.71l-2.16,4.65"/><path class="n" d="M27.92,179.97l-1.36,5.05"/><path class="n" d="M30.88,181.9l-1.2,4.25"/><path class="n" d="M27.28,189.11l-1.04,4.89"/><path class="n" d="M25.29,190l-1.68,5.21"/><path class="n" d="M25.91,197.04l-1.12,4.97"/><path class="n" d="M23.59,199.45l-.88,3.85"/><path class="n" d="M20.95,202.33l-.72,3.77"/><path class="n" d="M22.55,206.42l-.72,4.57"/><path class="n" d="M19.74,209.79l-.32,2.48"/><path class="n" d="M24.23,208.1l-.8,3.85"/><path class="i" d="M58.22,139.57c2.17-1.61,4.27-3.42,5.62-5.76,1.35-2.34,1.87-5.29,.8-7.77-1.14-2.64-3.87-4.31-6.67-4.99-3.41-.83-7.38-.28-9.75,2.31-1.28,1.39-1.96,3.21-2.62,4.97l-10.04,26.98,1.34-.9-.23,2.4,1.5-1.27-.14,2.56,1.38-1.53,.53,2.35,1.62-2.36,.17,2.06,1.57-2.55,.1,1.86,.97-2.34c-.1,1.41,.41,2.86,1.38,3.89,2.92-7.76,6.79-15.71,12.47-19.91Z"/><path class="i" d="M49.48,125.48c-.51,1.07-1.33,2-2.32,2.65"/><path class="i" d="M54.93,138.86l-1.44,1.92"/><path class="i" d="M52.68,142.55l-1.6,1.92"/><path class="i" d="M50.28,146.15l-.88,1.44"/><path class="i" d="M48.51,149.76c-.43,.61-.85,1.23-2,3.13-.21,.59-.43,1.18,2-3.13Z"/><path d="M47.67,222.95c-1.07-1.65-3.67-1.78-5.21-.56-1.55,1.21-2.12,3.36-1.94,5.31s1,3.79,1.81,5.59l24.14,53.44c2.43,5.39,4.87,10.78,7.59,16.04,.93,1.8,2.29,3.84,4.32,3.83,2.04,0,3.47-2.27,3.36-4.31s-1.27-3.84-2.38-5.56c-14.78-22.84-17.43-51.73-31.68-73.78Z"/><path class="n" d="M45.52,235.89l2.43,4.99"/><path class="n" d="M50.78,242.03c.69,1.94,1.56,3.82,2.59,5.6"/><path class="n" d="M51.14,236.18c.49,1.31,1.1,2.57,1.83,3.76"/><path class="n" d="M45.71,231.17l1.15,3.13"/><path class="n" d="M55.05,245.54l1.93,4.96"/><path class="n" d="M51.8,250.04l2.4,4.34"/><path class="n" d="M56.88,254.89l2.14,4.96"/><path class="n" d="M59.55,253.53l1.88,4.86"/><path class="n" d="M57.65,261.48l2.72,4.75"/><path class="n" d="M61.9,263.09l2.04,5.49"/><path class="n" d="M60.62,269.44l2.52,5.98"/><path class="n" d="M64.31,273.39l2.34,5.14"/><path class="n" d="M67.17,273.93l2.62,5.7"/><path class="n" d="M66.05,280.85l2.99,6.26"/><path class="n" d="M69.78,285.15l2.52,4.58"/><path class="n" d="M71.25,291.71l2.99,5.14"/><path class="n" d="M74.46,299.55l1.68,3.18"/><path class="n" d="M74.46,293.19l1.68,2.52"/><path class="n" d="M76.8,298.24l1.59,2.52"/><path d="M56.99,162.08l-16.54,59.1c-.72,2.58-1.44,5.35-.59,7.89,.85,2.54,3.98,4.48,6.28,3.1,1.98-1.19,2.21-3.92,2.32-6.23,.87-18.11,8.46-35.11,15.2-51.94,.86-2.14,1.71-4.34,1.78-6.64s-.82-4.77-2.77-5.99-5.25-.77-5.67,.71Z"/><path class="i" d="M64.19,176.37l13.57-30.58c2.01-4.54,4.05-9.14,4.75-14.07,.23-1.65,.12-3.49-.96-4.77-2.18-2.59-2.63-3.04-5.82-3.27-3.02-.22-5.97,1.14-7.69,3.63-2.53,3.65-4.12,7.86-5.69,12.01l-10.19,27.04,2.76-2.33-1,6.73,5.13-5.93-1.15,6.95,2.93-3.45-1.05,3.85,3.11-3.41-.39,4.39,2.17-3c-.09,2.1-.18,4.2-.47,6.21Z"/><path class="l" d="M43.17,217.38l1.35-4.12"/><path class="n" d="M47.21,214.53l1.35-5.71"/><path class="n" d="M45.71,209.13l1.27-4.84"/><path class="n" d="M49.2,204.38l1.35-3.65"/><path class="n" d="M49.12,197.64l1.43-4.44"/><path class="n" d="M52.92,194.39l1.35-3.81"/><path class="n" d="M56.97,185.35l1.67-4.6"/><path class="n" d="M54.91,181.3l.56-2.62"/><path class="n" d="M59.58,175.75l1.03-2.78"/><path class="n" d="M57.6,174.56l.71-2.54"/><path class="n" d="M53.16,185.43l-.71,2.7"/><path class="n" d="M58,169.72l.63-4.36"/><path class="n" d="M62.68,170.52l.79-3.96"/><path class="n" d="M44.12,213.65l-1.98,5.55"/><path class="n" d="M47.13,217.46l-.56,2.14"/><path class="l" d="M63.95,139.38c.74-2.31,3.09-4.01,5.52-3.99"/><path class="l" d="M62.35,149.72l2.37-1.5"/><path class="l" d="M61.99,151.13l2.96-1.75"/><path class="l" d="M60.89,152.18c1.35-.97,2.79-1.81,4.29-2.52"/><path class="l" d="M60.63,152.89c1.66-1.23,3.41-2.34,5.23-3.32"/><path class="l" d="M65.85,149.65c-1.87,1.14-3.68,2.37-5.35,3.82,1.68-1.3,3.44-2.49,5.35-3.82Z"/><path class="l" d="M65.14,150.9c-1.73,.76-3.35,1.75-4.4,2.79,1.51-1.07,3.1-2.01,4.4-2.79Z"/><path class="l" d="M64.74,151.63c-1.14,.54-2.23,1.18-3.4,2.21,.99-.67,2.04-1.25,3.4-2.21Z"/><path class="l" d="M59.12,155.43l5.87-3.26"/><path class="l" d="M63.23,153.38c-1.73,.95-3.38,2.02-5.43,3.67,1.51-1.2,3.13-2.27,5.43-3.67Z"/><path class="l" d="M63.47,153.79c-1.9,.99-3.71,2.15-5.51,3.91,1.77-1.41,3.7-2.62,5.51-3.91Z"/><path class="l" d="M58.81,157.33c1.63-1.28,3.42-2.34,5.32-3.16"/><path class="l" d="M60.57,156.37c1.65-1.09,3.41-2.02,5.25-2.77"/><path class="l" d="M61.73,156.21c1.29-.8,2.64-1.5,4.03-2.11"/><path class="l" d="M61.8,155.32c.8-.57,1.69-1.03,2.63-1.34"/><path class="l" d="M62.69,154.9l1.62-.94"/><path class="l" d="M80.98,132.27c-.25,.86-.55,1.7-.92,2.51"/><path class="l" d="M79.28,136.61c-.33,.98-.78,1.91-1.35,2.77"/><path class="l" d="M77.27,141.36l-1.52,3.29"/><path class="l" d="M74.08,148.07l-1.51,3.55"/><path class="l" d="M72.14,153.38c-.77,1.28-1.47,2.62-2.07,3.99"/><path class="l" d="M68.74,160.39c-.32,.99-.76,1.95-1.3,2.84"/><path class="l" d="M66.23,166.01l-1.26,2.46"/><path class="i" d="M73.98,302c-17.89,2.54-35.48,7.13-52.33,13.66-.94,.37-1.94,.78-2.52,1.61-.58,.83-.47,2.21,.46,2.62,.45,.2,.97,.13,1.45,.05l60.46-9.31c1.24-.19,2.55-.42,3.47-1.28,1.36-1.28,1.29-3.56,.34-5.17s-2.55-2.71-4.09-3.75c.48,1.9-.85,4.07-2.76,4.5s-4.04-.97-4.47-2.93Z"/><path d="M84.97,309.81c.51-.27,1.34-1.78,.78-1.65-14.88,3.56-44.92,7.07-67.15,10.38-.07,.57,.41,1.08,.95,1.26s1.13,.1,1.69,.02c13.17-1.88,26.35-3.75,39.52-5.63,8.07-1.15,18.8-1.47,24.21-4.38Z"/><path class="l" d="M76.13,305.74c-.72,1.33-1.78,2.46-3.06,3.26"/><path class="l" d="M77.79,305.8c-.49,1.1-1.3,2.06-2.3,2.74"/><path class="l" d="M73.91,306.65l5.49-.37"/><path class="l" d="M73.18,307.59c1.83-.26,3.69-.37,5.54-.32"/><path class="l" d="M68.22,308.57c.14-1.67,.27-3.38-.15-5-.42-1.62-1.5-3.18-3.09-3.7-.45-.15-.94-.21-1.39-.06s-.83,.55-.87,1.02c-.05,.7,.62,1.23,1.27,1.47,1.38,.5,2.9,.28,4.36,.15s3.05-.14,4.25,.7c.52,.36,.96,.95,.88,1.58-.1,.73-.9,1.21-1.64,1.18s-1.41-.42-2.02-.84c-1.31-.91-2.5-2-3.52-3.24"/><path class="l" d="M65.79,302.5c.92,1.49,1.21,3.35,.79,5.04"/><path class="l" d="M65.86,305.67c-1-1.32-2.23-2.48-3.62-3.39"/><path class="l" d="M60.09,304.26c1.5,.89,2.75,2.2,3.55,3.75"/><path class="l" d="M56.56,305.3c1.17,.24,2.21,1.09,2.67,2.2,.22,.54,.35,1.17,.83,1.49"/><path class="l" d="M52.64,305.76c1.43,.97,2.51,2.43,3.01,4.08"/><path class="l" d="M49.48,306.75c1.34,.61,2.48,1.64,3.21,2.91"/><path class="l" d="M46.42,307.76c1.49,.52,2.74,1.71,3.32,3.18"/><path class="l" d="M45.58,313.33c-1.38,.61-2.88,.95-4.39,1,.81-.85,1.85-1.48,2.99-1.79,.37-.1,.76-.18,1.05-.42s.46-.7,.23-1.01c-.3-.39-.92-.2-1.36,.02-2.16,1.11-4.29,2.26-6.4,3.45"/><path class="l" d="M39.04,312.39c1.79,.46,3.51,1.25,5.03,2.3"/><path class="l" d="M41.64,311.41c1.31,.85,2.62,1.71,4.6,2.59,4.09-1.12,8.27-1.92,12.48-2.39"/><path class="l" d="M48.42,312.8c3.43-.7,6.9-1.21,10.39-1.54"/><path class="l" d="M36.11,311.57c-3.47,.79-6.9,1.79-10.25,2.98"/><path class="l" d="M32.59,316.04l-11.59,1.58"/><path class="g" d="M81.96,119.52c.29-1.16,.47-2.62-.49-3.32-1.1-.8-2.42,1.23-3.53,2.02-3.75,2.66-9.07,4.4-13.66,4.42-4.6,.02-9.52-1.17-13.9-2.56-1.22-.39-1.88-2.28-2.78-1.37-.73,.74-.61,2-.09,2.9s1.37,1.55,2.09,2.3c1.76,1.84,2.78,4.25,3.68,6.63,.9,2.38,1.76,4.83,3.28,6.87s3.86,3.66,6.4,3.61c2.59-.05,4.83-1.76,6.77-3.46,1.95-1.71,3.97-3.57,6.51-4.07,1.24-.24,2.53-.14,3.78-.31s2.57-.72,3.15-1.84c.44-.84,.4-1.84,.34-2.78l-.44-7.44c-.05-.92-.44-2.15-1.12-1.6Z"/><path class="i" d="M72.54,30.26c-2.63-8.74-3.7-17.94-3.15-27.04l-5.9,3.58c-3.79,2.3-7.68,4.63-12.02,5.47s-9.32-.1-12.18-3.48c3.92,7.26-.38,16.11-.08,24.36,.4,11.14,9.06,20.1,12.72,30.63,3.04,8.76,3.95,18.14-.28,26.32-.54,1.04-.9,2.14-1.65,3.17-.21,.29-3.46,3.63-3.46,3.63,0,0,2.04-1,2.48-1,.34,0-1.32,2.22-1.32,2.22,0,0,2.11-1.07,2.06-.89-2.05,7.58-6.43,15-1.99,20.46,6.43,4.02,14.42,5.3,21.87,3.92,3.83-.71,7.7-2.2,10.21-5.18s3.22-7.7,.82-10.76l1.63,.13c-1.29-12.86-.78-25.84-1.55-38.75-.78-12.91-7.74-35.19-8.19-36.78Z"/><path d="M69.06,16.05c1.01,1.12,2.21,2.04,3.24,3.13s1.91,2.44,2.02,3.93l-2.49-3.35c.74,1.64,1.21,3.4,1.37,5.19-.4-1.12-.98-2.18-1.72-3.11,.59,1.08,.99,2.26,1.16,3.48-1.35-1.03-2.02-2.73-2.37-4.39s-.48-3.38-1.21-4.9Z"/><path class="m" d="M67.69,4.76c.38-.67,.79-1.36,1.43-1.77s1.6-.47,2.11,.1c.41,.46,.43,1.16,.25,1.75-.02-.23-.32-.36-.54-.28s-.37,.28-.49,.48c-1.67,2.64-1.95,6.12-.72,8.99,.52,1.22,1.29,2.32,1.75,3.57,.46,1.24,.55,2.74-.23,3.81,.12-2.68-1.66-5.03-2.56-7.56-1.03-2.91-.89-6.08-1.01-9.09Z"/><path d="M69.94,25.05c-.24,.64,.02,1.36,.31,1.98s.6,1.3,.46,1.97c.05-.78,.1-1.58-.16-2.31-.22-.6-.64-1.15-.61-1.64Z"/><path d="M70.19,24.17c-.47-1.1-1.65-1.85-2.85-1.82s-2.33,.86-2.74,1.98c.68-.43,1.36-.86,2.13-1.09s1.64-.24,2.33,.17c.37,.21,.73,.55,1.13,.77Z"/><path d="M70.27,23.73c-.53-.46-.95-1.04-1.37-1.6s-.86-1.13-1.44-1.53-1.32-.63-2-.44c.7-.05,1.36,.31,1.87,.8s.89,1.07,1.33,1.61,.97,1.05,1.61,1.17Z"/><path d="M70.73,24.63c-.83-.5-1.94-.49-2.77,.01s-1.35,1.48-1.29,2.45c.43-.76,.94-1.5,1.66-1.99s1.7-.67,2.4-.47Z"/><path d="M53.96,65.18c.91,.57,2,.86,3.07,.84,.34,0,.73-.07,.93-.35-1.33,.23-2.75-.05-3.89-.79-.13,.14-.11,.39-.11,.3Z"/><path d="M53.55,69.91c.53,.47,.98,1.01,1.48,1.5s1.08,.94,1.75,1.14,1.47,.11,1.99-.36c-2.04-.52-3.9-1.68-5.22-2.28Z"/><path d="M54.85,73.21c1.07,1.98,2.9,3.53,5.03,4.25-2.47-.45-4.66-2.2-5.64-4.51,.27-.05,.54,.12,.61,.25Z"/><path d="M74.89,46.92c.3,5.99-2.48,12.05-7.21,15.74-1.96,1.52-4.38,2.68-6.84,2.4,4.01-.87,7.45-3.63,9.76-7.02,2.31-3.39,3.6-7.38,4.29-11.12Z"/><path d="M75.68,54.2c-.66,6.08-4.35,11.76-9.64,14.83-.88,.51-1.91,.96-2.88,.65,3.38-.71,6.2-3.12,8.14-5.97s3.12-6.14,4.37-9.51Z"/><path d="M76.68,61.7c-1.22,4.69-4.88,8.28-8.39,11.61,4.97-1.84,8.57-6.89,8.67-12.19-.18,.46-.37,.91-.28,.58Z"/><path class="f" d="M80.21,103.34l-4.7-4.04-20.52-6.19-3.7-1.63-1.6,2.2-3.44,3.28c1.35-.29,2.59-1.03,3.51-2.06-.68,1.36-1.6,2.59-2.71,3.63,1.88-1.67,4.44-2.42,6.96-2.52,2.51-.1,5.01,.41,7.45,1.02,4.19,1.04,8.43,2.41,11.78,5.15-.2-.25-.41-.52-.45-.84s.19-.69,.52-.68c.31,.01,.5,.34,.63,.62l1.1,2.43c-.47-.06-.28-.89,.19-.94s.85,.35,1.16,.71l1.09,1.3-.15-1.2c1.32,1.28,3.12,2.05,4.97,2.08l-2.08-2.31Z"/><path class="j" d="M49.75,97.22c-.82,3.63-2.42,6.71-3.19,10.35s-.48,7.84,2.11,10.51c1.83,1.88,4.47,2.69,7.02,3.32,3.99,.98,8.15,1.67,12.2,.96,3.97-.7,7.56-2.72,11.07-4.7,.8-.45,1.65-.95,2.05-1.78,.31-.64,.79-1.7,.99-2.38,.59-2.01,.23-3.1-.06-5.11-.13-.93-.87-1.86-1.27-2.71-.54-1.14-1.62-1.95-2.71-2.59-5.91-3.45-12.45-5.82-19.2-6.97-3.18-.54-6.89-.37-9,1.12Z"/><path d="M60.68,127.87c-1.55,2.15-2.17,4.95-1.68,7.56,0-2.16,.47-4.32,1.34-6.3,.18-.41,.38-.81,.33-1.26Z"/><path d="M67.31,135.49c-.79-.16-1.62,.18-2.23,.72s-1.02,1.25-1.41,1.96c-.13,.23-.24,.55-.03,.72,.14,.11,.37,.06,.5-.06s.2-.3,.28-.47c.44-.96,1.27-1.73,2.25-2.1,.2-.08,.42-.15,.55-.31s.12-.47,.09-.45Z"/><path d="M81.59,130.62c.2-.22,.15-.59-.04-.83s-.47-.37-.74-.51c-1.88-1-3.39-2.67-4.19-4.64-.44,.46-.23,1.22,.06,1.79,.95,1.8,2.55,3.25,4.45,4,.16,.06,.33,.12,.5,.08s.3-.24-.05,.13Z"/><path d="M82.41,132.29c.6-.15,1.02-.72,1.16-1.33s.05-1.23-.05-1.84c-.44-2.62-1.13-5.33-.4-7.89,.12-.42,.27-.85,.18-1.27s-.57-.79-.95-.59c.43-.26,.4-.9,.16-1.34s-.63-.79-.82-1.25c-.07-.18-.12-.38-.22-.54-.27-.41-.93-.46-1.27-.11s-.27,1,.12,1.29c.44,.32,1.15,.23,1.46,.67,.29,.41,0,1.02-.43,1.27s-.96,.25-1.47,.29c-1.76,.15-3.47,.88-4.78,2.06,2-.67,4.05-1.15,6.14-1.44,.43-.06,.94-.08,1.22,.25,.34,.4,.1,1.01-.1,1.5-.43,1.05-.58,2.22-.42,3.35,.16,1.21,.66,2.34,.91,3.53s.21,2.55-.44,3.39Z"/><path d="M73.19,121.52c-4.08,1.47-8.44,2.14-12.77,1.98,2.21,.4,4.46,.8,6.7,.64s4.53-.94,6.07-2.61Z"/><path d="M77.12,123.16c-8,2.23-16.57,2.3-24.66,.44,.78,.88,2.02,1.17,3.19,1.37,5.85,1.01,11.87,.99,17.71-.06,1.39-.25,2.91-.65,3.77-1.76Z"/><path d="M60.58,126.18c-.38-.14-.82-.22-1.16,0-.39,.25-.43,.88-.1,1.19s.94,.24,1.21-.13,.17-1.01,.04-1.06Z"/><path class="f" d="M52.86,109.32c-.55-.44-.18-.96,.24-1.89,.46-1.03,1.27-.76,1.99-.38s.3,.83-.08,1.55c-.32,.61-1.13,1.55-2.15,.72Z"/><path class="f" d="M52.35,109.67c.14,.31,.47,.51,.81,.56s.68-.02,1-.15c.76-.31,1.38-.93,1.69-1.69-.16,1.09-1.1,2.01-2.19,2.16-.31,.04-.64,.03-.92-.13s-.48-.46-.39-.76Z"/><path d="M56.27,122.5c-2.59,.25-5.26-.37-7.47-1.74,1.05,.95,2.25,1.79,3.61,2.19s2.91,.31,3.86-.45Z"/><path d="M51.37,123.25c-.69-.35-1.33-.8-1.89-1.34,0,.79,.58,1.55,1.34,1.74,.13,.03,.27,.05,.4,0s.24-.17,.23-.3-.17-.25-.08-.1Z"/><path d="M52.49,120.85c-1-.48-2.02-.93-3.05-1.34-.39-.15-.84-.3-1.22-.14-.4,.17-.61,.65-.58,1.08s.24,.84,.47,1.21c1.23,1.93,3.24,3.33,5.48,3.81-1.05,.28-2.19-.04-3.12-.6s-1.69-1.37-2.43-2.17c-.53-.57-1.09-1.17-1.25-1.94s.25-1.7,1.02-1.82c-.5-.29-.51-1.14-.01-1.44,.65,1.11,1.9,1.72,3.1,2.2s2.48,.91,3.37,1.85c-.65-.27-1.31-.49-1.76-.71Z"/><path d="M55.17,133.35c.88,2.83,3.25,5.15,6.1,5.97,.32,.09,.66,.17,.93,.36s.48,.54,.39,.86c-.14,.51-.81,.61-1.34,.56-1.82-.2-3.55-1.15-4.7-2.58-1.15-1.43-1.71-3.31-1.39-5.18Z"/><path d="M54.52,132.15c-.12-.71-.3-1.41-.54-2.09-.4,.72-.28,1.69,.3,2.28,.01-.14,.14-.26,.24-.19Z"/><path d="M71.31,3.95c-2.26,.73-4.45,1.84-6.07,3.58-1.62,1.74-2.6,4.18-2.19,6.52,.4,2.34,2.38,4.43,4.75,4.59,2,.13,3.99-1.04,5.93-.55,2.79,.7,3.67,4.17,4.02,7.03,2.59,21.18,4.63,41.68,5.33,63.01,.06,1.99,1.36,3.92,2.88,3.86,1.62-.06,2.56-1.4,2.56-3.7,0-27.55,.29-53.04-4.76-80.13-.36-1.96-.84-4.07-2.38-5.33-1.43-1.17-3.49-1.31-5.27-.81s-3.37,1.47-4.81,1.94Z"/><path d="M88.45,87.25c-.08-1.23-.3-3.45-2.99-3.45-2.29,0-2.39,2.55-2.39,3.3,.16,21.78,1.51,43.15,1.66,64.93,.01,1.73,.04,3.52,.82,5.06s2.54,2.74,4.2,2.27c2.48-.69,2.81-4.02,2.64-6.59-1.5-22.07-2.16-39.27-3.94-65.53Z"/><path d="M111.39,178.19c-8.8-1.47-16.15-9.27-17.09-18.14-.2-1.91-.15-3.88-.79-5.69s-2.27-3.47-4.19-3.38c-2.91,.14-4.14,3.72-4.51,6.61-1.52,11.75-1.13,23.74,1.13,35.36,.85,4.36,2.06,8.85,5.05,12.13s8.25,4.88,11.99,2.49c.52-.33,1.05-.82,1.05-1.44,0-1.36-1.98-1.42-3.34-1.31-4.1,.32-8.18-2.82-8.91-6.86-.19-1.02-.07-2.29,.84-2.8,1.38-.77,2.79,.86,3.78,2.09,2.8,3.46,7.74,5.02,12.02,3.81,.95-.27,1.99-.82,2.13-1.79,.15-.98-.74-1.85-1.69-2.12s-1.96-.13-2.95-.16c-4.57-.14-8.56-4.57-8.21-9.14,.09-1.14,.71-2.5,1.85-2.47,1.06,.02,1.63,1.2,2.1,2.15,1.62,3.28,4.8,5.74,8.38,6.49,.99,.21,2.08,.28,2.97-.21s1.44-1.69,.92-2.56c-.49-.82-1.6-.96-2.55-1.12-6.27-1.03-11.23-7.24-10.87-13.58,1.8,.08,3.23,1.45,4.52,2.71s2.82,2.56,4.62,2.46,3.51-3.24,1.76-3.54Z"/><path class="m" d="M37.71,98.43l2.79-10.81,1.04,2.59,2.24-12.65,1,4.97,2.98-8.93,.58,5.86,.85-10.01,1.34,4.73,2.6-12.48c2.04,.71,4.4-1.64,3.69-3.69-.46-1.32-1.65-2.91-2.44-3.39-.72-.44-.79-4.55-.36-4.55,3.37,0,4.31-2.29,5.61-3.89,.98-1.2,2.67-1.73,3.38-3.1s1.44-2.49,.12-3.3c-1.25-.77-3.92-.97-5.33-.49s-2.39,1.29-3.6,2.21c.6-1.7-1.42-4.81-2.87-5.87-8.69-6.38-13.42-5.68-17.37-3.67-4.62,2.35-15.54,11.5-15.54,13.73,1-1.15,1.78-2.3,3.3-2.39-.55,1.02-.22,1.64-.11,2.79-1.5-.37-4.43,.19-5.08,1.6-.57,1.23,.04,2.51,1.3,3.01s3.5,.52,4.16,1.7c.66,1.18,1.68,1.43,2.66,2.27-1.13,.81-2.29,1.66-3,2.86s-.86,2.84,.03,3.91c.89,1.07,2.92,1.03,4.25,.05,2.01,6.7,3.36,13.59,4.04,20.55l1.92-3.76,.49,8.09c.81-1.09,1.33-2.39,1.5-3.74l.31,9.16,1.8-2.39c-.22,3.29,.33,6.63,1.6,9.67,.15-.28,.29-.56,.12-.64Z"/><path class="f" d="M62.44,42.18c-.04,.59-.43,1.1-.89,1.46s-1,.62-1.49,.95c-1.31,.89-2.17,2.27-3.17,3.5-.25,.3-.51,.6-.87,.76s-.83,.11-1.07-.19c-.38-.48,.06-1.21,.6-1.5s1.2-.39,1.65-.8c.7-.64,.72-1.87,1.53-2.37,.32-.2,.72-.24,1.09-.29s.77-.12,1.07-.36,.43-.71,.19-1.01c-.18-.22-.49-.27-.78-.27-1.17,.01-2.24,.66-3.15,1.39s-1.76,1.57-2.81,2.08c-.19,.09-.43,.17-.61,.05s-.05-.5,.14-.4l2.21-1.67c.93-.7,1.89-1.42,3.01-1.73s2.47-.1,3.33,.4Z"/><path class="f" d="M53.28,50.03c.25-1.44,.21-2.92,.16-4.38l.8,2.77c.06,.2,.12,.41,.09,.62-.04,.26-.21,.49-.43,.64s-.46,.25-.62,.35Z"/><path class="f" d="M24.75,54.28l.67-.05c-.1-1.99-.67-3.96-1.64-5.69,.51,1.41,1.03,2.91,.74,4.39-.05,.24-.12,.48-.11,.73s.12,.51,.34,.61,.55-.02,0,.01Z"/><path class="f" d="M23.88,53.51c.45-.92,.16-2.07-.48-2.87s-1.58-1.3-2.53-1.68c-.84-.34-1.77-.6-2.63-.33-.35,.11-.7,.34-.78,.7-.09,.4,.21,.81,.58,1s.8,.21,1.21,.28c1.68,.26,3.23,1.25,4.17,2.67-.27-.64-.55-1.29-.97-1.85s-1.02-1.01-1.7-1.13c-.58-.1-1.18,.06-1.77,0-.21-.02-.41-.08-.58-.2s-.27-.34-.23-.54c.08-.38,.57-.49,.96-.48,1.19,.04,2.37,.44,3.34,1.14,.6,.43,1.16,1.11,.98,1.82-.03,.13-.09,.26-.11,.39-.06,.44,.33,.81,.54,1.1Z"/><path class="f" d="M32.38,60.15l1.99,6.09c.03-.77,.3-1.53,.75-2.15,.63,2.28,1.16,4.58,1.58,6.91-.14-1.86,.41-3.76,1.51-5.26l1.22,6.43c-.09-1.86,.11-3.74,.57-5.54,.1-.4,.3-.87,.71-.91,.46-.05,.75,.49,.8,.95s0,.97,.3,1.32c-.43-2.34-.21-4.79,.61-7.02,.84,.59,1.43,1.54,1.59,2.56-.15-.75,.13-1.51,.28-2.26s.14-1.64-.45-2.14c-.38-.32-.9-.39-1.4-.44-2.51-.23-5.04-.12-7.52,.32-.97,.17-1.99,.43-2.54,1.13Z"/><path class="f" d="M49.4,62.17c-2.1,4.42-4.12,8.24-5.3,12.47-.84-1.14-1.48-3.14-1.41-4.55-1.45,5-2.05,9.61-2.31,14.81-1.37-2.62-2.28-5.07-2.09-8.02-1.37,4.62-1.65,9.55-.83,14.3-1.41-5.65-1.48-11.62-.21-17.3-1.35,3.98-1.49,5.08-2.21,8.26-.28-5.71-.13-10.46-1.74-15.69-.42,1.99-1.11,3.93-2.07,5.73,.34-3.48-.29-7.04-1.8-10.19,1.32,3.71,1.78,7.71,1.34,11.62,1.37-1.64,2.24-3.69,2.47-5.82,1.01,5.49,1.09,10.87,1.77,16.41,0-2.39,.99-4.64,1.39-7-.81,5.13-.32,10.45,1.43,15.34-.56-4.26-.54-8.59,.05-12.84,.5,2.4,1.53,4.65,2.77,6.76,.41-4.8,.51-8.6,1.92-13.45,.7,1.14,1.04,1.43,1.74,2.56,1.7-4.49,3.4-8.97,5.08-13.41Z"/><path class="k" d="M41.61,50.46c3.65,.59,7.22,1.69,10.57,3.25,1.16,.54,2.32,1.16,3.18,2.12s1.35,2.32,.97,3.55c-.48,1.57-2.24,2.45-3.88,2.5s-3.23-.51-4.82-.93c-7.35-1.94-15.12-.75-22.6,.62-1.11,.2-2.41,.36-3.22-.43-.74-.72-.71-1.94-.34-2.91,.84-2.16,2.99-3.49,5.06-4.52,4.7-2.33,10-4.08,15.08-3.26Z"/><path class="f" d="M29.69,54.3c-1.26-.4-2.76,.16-3.44,1.29-.1,.16-.18,.37-.08,.52,.15,.23,.5,.13,.74,0l1.92-1c.2-.1,.41-.21,.56-.39s.23-.42,.3-.43Z"/><path class="f" d="M25.46,56.69c-.2-.14-.5-.15-.71-.01-.14,.09-.25,.25-.22,.41,.03,.17,.21,.29,.38,.29s.33-.13,.42-.28,.11-.33,.12-.4Z"/><path class="f" d="M53.22,58.48c.21-.22,.19-.59,.03-.84s-.42-.43-.68-.59c-3.22-1.96-7.07-2.7-10.85-2.71-3.77,0-7.51,.68-11.22,1.41-1.53,.3-3.16,.66-4.24,1.8-.28,.3-.49,.81-.17,1.07,.15,.12,.36,.12,.55,.11,4.23-.2,8.41-.92,12.64-1.25,4.22-.33,8.55-.25,12.56,1.1,.32,.11,.67,.23,1,.15s.63-.44,.37-.23Z"/><path d="M53.35,29.67c2.3-4.44,6.95-7.58,11.93-8.06-2.85-.8-6.05-.26-8.48,1.43,1.93-3.82,3.96-7.75,7.29-10.45-2.17,.29-4.24,1.35-5.73,2.96,1.58-4.98,4.89-9.39,9.23-12.3-3.98,.95-7.82,2.5-11.34,4.58,2.31-2.05,4.84-3.86,7.53-5.39-3.9-.05-7.8,1.23-10.92,3.57L59.1,0c-5.43,1.55-10.02,5.79-12,11.09-.13-1.54,.4-3.07,1.19-4.39s1.86-2.46,2.91-3.59c-3.88,1.69-7.01,5.03-8.45,9.01-.33-2.47,.27-5.05,1.66-7.12-2.08,1.46-3.02,4.06-3.55,6.55s-.78,5.1-2,7.33c-.78,1.43-1.96,2.77-1.97,4.4-.01,1.32,.79,2.54,1.85,3.33,1.06,.79,2.34,1.2,3.62,1.52,2.31,.58,1.17,1.72,3.5,1.28s3.8,3.17,5.04,1.13c-1.02,1.6,2.68-2.32,2.44-.86Z"/><path class="f" d="M49.58,16.54l5.35-4.66c-.88,2.03-1.76,4.05-2.65,6.1,.24-1.52,.68-3.01,1.29-4.43-1.24,1.13-2.58,2.16-4,2.99Z"/><path class="f" d="M46.87,17.06c.91-1.69,1.59-3.5,2-5.37-1.41,1.56-3.07,2.89-4.9,3.94,1.44-.67,2.8-1.52,4.03-2.53-.55,1.37-.97,2.8-1.13,3.96Z"/><path class="m" d="M41.38,43.2c1.42,1.75,2.39,4,4.35,5.12,1.78,1.02,4.17,.8,5.79-.45,1.63-1.25,2.45-3.43,2.15-5.46-.3-2.02-1.67-3.85-3.53-4.69-1.86-.84-4.14-.67-5.86,.44s-2.8,3.12-2.91,5.05Z"/><path class="o" d="M33.84,44.33c-.52-1.58-1.67-2.95-3.16-3.69s-3.32-.78-4.82-.06-2.61,2.22-2.79,3.87c-.13,1.17,.19,2.35,.72,3.4,.88,1.74,2.52,3.25,4.47,3.32,1.67,.06,3.25-.98,4.17-2.37,.92-1.39,1.84-3.16,1.41-4.47Z"/><path class="f" d="M52.36,40.72c-.47-.91-1.36-1.59-2.36-1.79,.48,.19,.82,.6,1.18,.97s.76,.74,1.18,.82Z"/><path class="f" d="M49.56,38.5c-1.47-.31-3.04-.33-4.45,.21s-2.62,1.68-3.02,3.13c1.7-2.33,4.72-3.62,7.46-3.33Z"/><path class="f" d="M51.92,44.2c-.76,.95-1.89,1.67-3.11,1.72,.66,.12,1.36,0,1.95-.32s1.06-.85,1.16-1.39Z"/><path class="f" d="M49.75,46.11c-2.15,.53-4.51,.12-6.36-1.1,.97,.59,1.97,1.16,3.07,1.44s2.32,.26,3.29-.34Z"/><path class="f" d="M52.97,43.06c.19,1.85-.98,3.72-2.68,4.49s-3.79,.47-5.3-.61c1.33,1.48,3.68,1.94,5.47,1.07s2.88-3,2.51-4.95Z"/><path class="h" d="M52.92,42.28c-.84-1.51-2.41-2.6-4.12-2.87s-3.53,.3-4.79,1.49c-.6,.56-1.08,1.26-1.75,1.73-.3,.21-.68,.51-.55,.85,.11,.29,.5,.31,.8,.37,.56,.1,1.04,.43,1.54,.7,1.51,.81,3.32,1.03,4.97,.62s3.15-1.46,3.91-2.88Z"/><path class="f" d="M33.31,45.52c.19,.04,.39-.12,.44-.31s-.03-.4-.16-.55-.3-.26-.48-.35c-1.11-.59-2.39-.83-3.65-.73s-2.47,.55-3.53,1.23c-.64,.42-1.25,.95-1.53,1.67-.12,.3-.17,.65-.02,.95,.17,.34,.56,.52,.94,.55s.76-.04,1.14-.08c.61-.05,1.23,.01,1.84-.06,.94-.11,1.82-.54,2.64-1.01s1.62-1,2.36-1.31Z"/><path d="M51.52,40.94c-.52-.43-1.18-.65-1.84-.82-1.07-.28-2.21-.47-3.28-.18-.99,.27-1.82,.92-2.62,1.56l-1.87,1.48c-.15,.12-.32,.27-.32,.47,0,.18,.14,.33,.31,.4s.34,.08,.52,.1c.71,.09,1.36,.42,2.04,.65,2.58,.88,6.06-.26,7.5-1.52,.13-.12,.29-.31,.25-.52-1.26,1.11-2.88,1.83-4.54,2.04-1.66,.21-3.38-.09-4.88-.86-.2-.1-.43-.27-.4-.5,.02-.14,.14-.23,.24-.32,1.52-1.22,3.17-2.49,5.11-2.66,1.79-.16,4,.43,4.44,2.19,0,0-.14-1.07-.66-1.5Z"/><path d="M47.2,41.05c-.17-.29-.54-.41-.86-.34s-.59,.31-.75,.6-.22,.62-.24,.95c-.02,.44,.03,.89,.15,1.31,.06,.22,.15,.44,.31,.59,.27,.26,.72,.29,1.05,.12s.58-.49,.72-.84c.28-.67,.23-1.46-.13-2.09-.06-.11-.16-.22-.28-.2-.09,.02-.15,.11-.16,.2s.02,.18,.04,.27c.11,.41,.14,.84,.11,1.27-.02,.22-.07,.46-.19,.64s-.36,.32-.58,.27c-.17-.04-.31-.18-.39-.33s-.11-.34-.14-.51c-.06-.39-.11-.8,.03-1.16s.52-.67,.9-.58c.1,.02,.2,.07,.29,.04s.15-.18,.11-.2Z"/><path d="M29.86,45.89c.04-.41,.06-.83-.06-1.22s-.43-.75-.83-.82c-.47-.08-.92,.23-1.21,.61-.41,.54-.62,1.23-.55,1.91,.05,.53,.31,1.1,.8,1.3,.47,.19,1.04,0,1.37-.38s.46-.91,.44-1.41c0-.1-.03-.22-.12-.26-.14-.06-.27,.12-.3,.27-.07,.27-.08,.56-.18,.82s-.31,.51-.59,.54c-.22,.02-.43-.09-.57-.26s-.21-.38-.24-.6c-.07-.45,0-.92,.19-1.32,.13-.27,.34-.53,.62-.63s.66,.03,.76,.31c.04,.13,.03,.28,0,.42s-.06,.28-.04,.42,.11,.28,.24,.32,.31-.07,.28-.02Z"/><path d="M33.65,45.38c.17-.08,.25-.27,.22-.46s-.14-.34-.26-.48c-.36-.4-.84-.65-1.34-.85-1.15-.44-2.41-.57-3.62-.35s-2.36,.76-3.28,1.57c-.54,.47-1.02,1.05-1.27,1.72-.1,.25-.16,.53-.13,.8s.17,.54,.4,.68c.34,.2,.77,.1,1.16,.05,.97-.12,1.95,.15,2.91,.05,.92-.1,1.77-.53,2.56-1.01s1.49-.94,2.28-1.43c.07-.05,.35-.27,.35-.27,0,0-.12,.02-.42,.13-.99,.38-1.71,.87-2.65,1.38s-1.98,.9-3.04,.82c-.69-.06-1.38-.31-2.06-.18-.28,.05-.62,.16-.83-.03-.22-.2-.13-.57,.01-.84,.51-.97,1.36-1.73,2.35-2.21s2.09-.67,3.18-.66c.68,0,1.36,.09,1.99,.32s1.07,.39,1.49,.93c0,0,.15,.22,0,.33Z"/><path class="f" d="M33.48,43.99c-1.18-1.51-3.17-2.35-5.07-2.14-1.9,.21-3.66,1.46-4.48,3.19-.22,.47-.38,.97-.39,1.49,0,.08,0,.17,.08,.21,.11,.06,.22-.09,.26-.21,.27-.8,.66-1.57,1.2-2.22s1.24-1.18,2.03-1.46c1.17-.41,2.46-.25,3.67,.04,.97,.23,1.95,.56,2.71,1.09Z"/><path class="f" d="M27.76,41.46c-1.76,.16-3.39,1.31-4.15,2.9,.19-.94,.76-1.79,1.54-2.33s1.78-.78,2.6-.57Z"/><path class="f" d="M33.57,45.67c-.5,.06-.91,.4-1.31,.72-.64,.51-1.31,.98-2.05,1.33s-1.54,.59-2.35,.61c-.91,.02-1.82-.22-2.73-.12-.03,.04-.01,.1,.02,.13s.09,.04,.14,.04l1.18,.15c.77,.1,1.56,.2,2.33,.07,1.04-.17,1.98-.74,2.79-1.41,.64-.53,1.23-1.15,1.97-1.53Z"/><path class="f" d="M33.42,46.05c-.19-.02-.38,.08-.51,.22s-.23,.3-.34,.46c-.49,.75-1.16,1.38-1.94,1.82,.65-.06,1.18-.53,1.58-1.04s.74-1.09,1.2-1.46Z"/><path class="f" d="M29.82,48.98c-.34,.3-.81,.42-1.26,.43s-.9-.08-1.34-.18c-.69-.15-1.4-.3-1.99-.67,.53,.7,1.37,1.16,2.25,1.23s1.78-.25,2.35-.81Z"/><path class="m" d="M49.72,33.65c2.1-.24,3.65-1.99,5.01-3.6,1.36-1.61,3-3.32,5.1-3.42-3.22-.19-6.49,.75-9.1,2.63,.97-2.34,2.72-4.34,4.9-5.61-2.68,.46-5.24,1.58-7.39,3.23,.67-2.82,2.47-5.36,4.91-6.93-3.77,.53-7.4,1.98-10.49,4.2-.16-2.53,.7-5.1,2.36-7.02-2.9,1.24-5.46,3.27-7.31,5.83-.32-2.77,.08-5.61,1.15-8.18-3.66,2.11-6.33,5.85-7.15,9.99-1.82-1.09-3.98-1.59-6.09-1.41,2.28,1.05,3.99,3.27,4.42,5.75-1.51,0-2.99-.72-3.93-1.9,.77,1.65,2.1,3.02,3.73,3.84-2.75-1.1-6.09-.58-8.38,1.3,1.88-.38,3.95,.45,5.06,2.02-2.25-1.01-5.24,.42-5.87,2.81,2.13-1.47,4.93-1.34,7.49-1.74,2.21-.35,4.33-1.13,6.48-1.77,2.15-.64,4.39-1.14,6.61-.91s4.47,1.3,5.97,3.12c.55-.02,1.11-.03,2.51-2.22Z"/><path class="m" d="M39.15,32.71c-2.76,1.42-4.61,4.45-4.62,7.56-.87-2.04-.8-4.46,.19-6.44-1.97,2.01-2.98,4.93-2.67,7.73-1.21-2-1.61-4.47-1.03-6.67-1.52,1.3-2.63,3.07-3.13,5.01-1.05-2.11-.58-4.87,1.11-6.51-2.4,1.4-4.09,3.96-4.43,6.72-.47-1.68-.27-3.53,.51-5.08,.03-.07-.1-.14-.14-.08s.06,.16,.12,.11c-1.39,.09-2.72,.85-3.47,2.02,.9-1.52,2.31-2.74,3.99-3.39,1.36-2.04,3.33-3.67,5.6-4.6-.58-.44-1.23-.78-1.93-1,2.33-1.06,5.2-.81,7.32,.63,.87-1.9,2.43-3.47,4.31-4.36-1.04,1.33-1.86,2.84-2.41,4.44,2.96-.93,6.35-.38,8.97,1.55,1.01-.53,2.23-.63,3.31-.28s2.01,1.16,2.5,2.18c-2.34-.38-4.74-.36-7.08,.05,1.91-.31,3.93,.07,5.6,1.05s2.98,2.56,3.64,4.38c-2.32-1.04-4.78-1.77-7.29-2.14,1.83,.28,3.47,1.6,4.13,3.34-1.99-2.07-4.64-3.36-7.23-4.6,1.37,.54,2.24,2.12,1.97,3.57-.94-1.53-2.19-2.86-3.65-3.91,.7,1.33,.7,3-.02,4.32,.14-1.64-.32-3.33-1.28-4.66,.92,1.84,.81,4.15-.26,5.9-.13-2.46-1.22-4.85-2.63-6.85Z"/><path class="j" d="M28.9,56.02c.17,.89,.26,1.8,.27,2.7"/><path class="j" d="M31.4,55.17c.21,1.18,.33,2.37,.36,3.56"/><path class="j" d="M34.53,54.31c.42,1.26,.6,2.6,.54,3.93"/><path class="j" d="M37.18,54.12c.42,1.24,.6,2.55,.54,3.86"/><path class="j" d="M41.09,53.22c.54,1.38,.69,2.91,.43,4.37"/><path class="j" d="M43.68,53.64c.45,1.32,.53,2.77,.22,4.13"/><path class="j" d="M46.9,53.94c.34,1.45,.38,2.96,.13,4.43"/><path class="j" d="M50.04,54.84c.39,1.3,.4,2.71,.03,4.02"/><path class="j" d="M51.68,55.93c.17,1.11,.01,2.26-.46,3.28"/><path class="m" d="M37.38,36.39c-1.4,2.72-2.45,5.62-3.11,8.6-.6,2.74-.85,5.72,.35,8.25,.74,1.57,2.37,2.99,4.06,2.58,1.14-.28,1.96-1.34,2.28-2.47,.32-1.13,.23-2.33,.11-3.5-.43-4.35-1.11-8.67-3.68-13.46Z"/></g></g></g></svg>