<?xml version="1.0" encoding="UTF-8"?><svg xmlns="http://www.w3.org/2000/svg" xmlns:xlink="http://www.w3.org/1999/xlink" viewBox="0 0 164.52 297.77"><defs><style>.f{fill:none;stroke:#fff;}.f,.g,.h{stroke-miterlimit:10;}.g,.h{stroke:#000;}.i{filter:url(#d);}.h{fill:#fff;}.j{opacity:.58;}</style><filter id="d" filterUnits="userSpaceOnUse"><feOffset dx="5.67" dy="2.83"/><feGaussianBlur result="e" stdDeviation="0"/><feFlood flood-color="#000" flood-opacity=".5"/><feComposite in2="e" operator="in"/><feComposite in="SourceGraphic"/></filter></defs><g id="a"/><g id="b"><g id="c"><g class="i"><path d="M69.02,286.63c.19-22.98,.5-29.97,.69-52.95,.02-2.69-.24-13.5-.62-21.94-.28-6.19-5.86-7.55-8.54-7.38-4.08,.26-6.76,4.59-6.76,8.68,0,9.74,1.9,19.99,1.9,30.08,0,7.22,.71,14.38-.12,21.55-.83,7.17-4.66,14.57-11.41,17.12-3.33,1.26-6.98,1.21-10.51,1.66-3.53,.44-7.26,1.57-9.39,4.41-2.13,2.85-1.6,7.77,1.72,9.05,1.7,.66,3.6,.24,5.37-.19,8.11-1.95,16.21-3.9,24.3-5.07,4.79,.37,9.67-.6,14.06-2.63,.14-.4,.28-.79-.71-2.41Z"/><path d="M71.98,166.02c1.12-6.05,2.22-12.43,.16-18.23s-8.5-10.52-14.29-8.44c-3.52,1.27-5.91,4.7-6.9,8.31-.99,3.61-.81,7.42-.61,11.16l2.46,47.87c.23,4.56,1.17,10.12,5.47,11.66,3.39,1.21,7.22-1.03,9.03-4.14,1.81-3.11,2.08-6.84,2.31-10.43,.92-14.24,.66-28.62,2.36-37.77Z"/><path d="M101.38,211.9c.17-4.27-2.02-9.25-6.25-9.91-3.42-.54-6.7,2.1-8.07,5.29s-1.27,6.77-1.15,10.24c.67,19.43,1.34,38.87,2.02,58.3,.14,4.16,.95,13.02,.95,13.02,0,0,8.32,2.57,12.26,2.57l.29-1.56,21.12,6.61c2.84,.89,6.98,2.56,8.09-.2,.98-2.43-1.44-10.9-3.54-12.46-4.51-3.34-9.14-1.88-13.65-5.21-3.69-2.73-7.5-5.59-9.7-9.62-2.1-3.85-2.52-8.37-2.8-12.74-1-15.32-.12-30.65,.43-44.32Z"/><path d="M105.14,164.56c1.12-6.05,2.22-12.43,.16-18.23s-8.5-10.52-14.29-8.44c-3.52,1.27-5.91,4.7-6.9,8.31s-.81,7.42-.61,11.16l2.46,47.87c.23,4.56,1.17,10.12,5.47,11.66,3.39,1.21,7.22-1.03,9.03-4.14,1.81-3.11,2.08-6.84,2.31-10.43,.92-14.24,.66-28.62,2.36-37.77Z"/><path class="g" d="M36.02,155.27c.06-2.32-.1-4.74-1.26-6.75s-3.57-3.46-5.8-2.83c-1.7,.48-2.92,2.03-3.48,3.7-.56,1.67-.56,3.47-.55,5.24,.05,12.82,.1,25.72,2.22,38.36,.7,4.18,1.7,8.48,4.34,11.78,2.64,3.31,7.37,5.3,11.24,3.59-3.31-1.11-6.14-3.57-7.69-6.69,3,1.2,6.59,.78,9.24-1.07-2.94,.08-5.86-1.51-7.38-4.02,2.64,2.05,7.04,1.11,8.61-1.84-2.79,1.36-6.31-.13-8.18-2.61s-2.44-5.68-2.79-8.76c-1.22-10.63,1.31-21.19,1.48-28.1Z"/><path class="g" d="M35.66,152.98c1.11-1.37,1.27-16.98,1.89-25.81,.62-8.83,.4-11.69-.78-22.64-.25-2.28-1.99-6.11-6.61-5.77-3.87,.28-5.04,5.03-5.04,8.35,0,13.27-1.14,22.62-.85,35.89,.1,4.3,.21,9.38,3.99,11.44,3.52,1.92,5.85,.43,7.39-1.46Z"/><path class="g" d="M126.5,143.73c-2.07-1.34-5.01-.23-6.47,1.76-1.46,1.99-1.79,4.56-1.99,7.02-1.07,13.1,.34,26.35,3.74,39.05,1.72,6.43,4.42,13.31,10.3,16.44,5.43,2.89,12.81,1.43,16.73-3.31l-7.33-.33c3.43-1.15,6.1-4.3,6.67-7.86-1.9,2.35-4.73,3.93-7.73,4.3,3.02-2.35,4.59-6.42,3.94-10.19,.04,2.91-3.2,5.12-6.08,4.69-2.88-.43-5.14-2.85-6.23-5.55s-1.2-5.68-1.31-8.59l-.94-26.06c-.15-4.17,.02-9.22-3.3-11.37Z"/><path class="g" d="M129.37,154.49c1.11-1.37,1.27-16.98,1.89-25.81,.62-8.83,.4-11.69-.78-22.64-.25-2.28-1.99-6.11-6.61-5.77-3.87,.28-5.04,5.03-5.04,8.35,0,13.27-1.14,22.62-.85,35.89,.1,4.3,.21,9.38,3.99,11.44,3.52,1.92,5.85,.43,7.39-1.46Z"/><path d="M87.97,6.05c-1.77-4.37-7.05-6.98-11.6-5.74-4.55,1.24-7.77,6.16-7.08,10.83-3.91-2.26-8.95-2.43-13-.44s-7,6.09-7.59,10.56c-6.04-2.84-13.68-1.92-18.87,2.29-5.19,4.21-7.67,11.49-6.13,17.99-4.09-.26-8.24,1.9-10.38,5.39-2.14,3.49-2.18,8.17-.09,11.7-6.33,.61-11.94,5.8-13.03,12.07s2.44,13.05,8.19,15.76c-3.37,2.85-5.08,7.53-4.34,11.88s3.88,8.21,8,9.8c-3.59,4.46-4.05,11.18-1.11,16.09s9.09,7.67,14.71,6.62c-1.77,5.12,2.94,11.28,8.35,10.91,2.5-.17,5-1.47,7.41-.76,2.45,.72,3.85,3.26,4.77,5.64s1.75,5,3.8,6.53,5.76,.96,6.2-1.56c4.73,9.47,18.59,12.8,27.11,6.52,4.46,3.09,10.7,3.36,15.42,.69s7.68-8.18,7.32-13.59c6.44,1.42,13.63-1.87,16.76-7.68,6.14,2.99,14.58-1.64,15.36-8.43,3.55,.95,7.59-.32,9.96-3.13s2.95-7,1.42-10.34c3.82,.07,7.59-2.11,9.43-5.46s1.65-7.71-.47-10.89c4.49-.34,6.68-6,5.88-10.43s-3.45-8.36-4.36-12.77c-1.12-5.44,.49-11.1-.23-16.61s-5.64-11.36-10.91-9.63c3.57-9.39-3.67-21.18-13.66-22.25,.46-7.22-3.29-14.55-9.42-18.4-6.13-3.84-14.37-4.03-20.66-.48-.95-4.11-4.71-7.4-8.9-7.81s-8.52,2.09-8.24,5.11Z"/><path class="f" d="M65.77,20.44c-4.3,1.82-8.84,3.83-11.44,7.71-2.61,3.87-2.12,10.18,2.13,12.12,2.17,.99,4.7,.62,6.99-.05,5.07-1.49,9.82-4.37,15.1-4.64s11.38,3.82,10.42,9.02c-.48,2.64-2.66,4.69-5.06,5.87-2.41,1.18-5.08,1.66-7.66,2.39-6.17,1.75-11.92,4.97-16.63,9.32-4.46,4.12-8.12,9.66-8.12,15.73,0,8.09,7.46,15.37,15.55,15.31s15.4-7.31,15.68-15.39c.15-4.36-1.45-8.87-.03-12.99,1.44-4.2,5.65-6.81,9.85-8.26,6.91-2.39,16.11-1.67,19.55,4.78,2.51,4.7,.85,10.71-2.4,14.93-3.25,4.22-7.85,7.16-12.04,10.45-6.76,5.3-12.65,11.69-17.39,18.85-4.02,6.08-7.16,14.23-3.23,20.36,3.31,5.16,10.32,6.54,16.42,5.95,10.94-1.05,21.3-7.06,27.65-16.03,3.34-4.72,5.41-11.61,1.61-15.96-3.26-3.73-9.03-3.55-13.93-2.85-11.72,1.67-23.27,4.62-34.36,8.76-6.65,2.48-13.23,5.42-20.25,6.47-7.02,1.05-14.77-.05-20.05-4.81-4.73-4.27-6.78-10.81-7.43-17.15-.82-7.92,.41-16.43,5.35-22.68,4.13-5.22,10.59-8.38,17.21-9.07,5.07-.52,10.55,.47,14.29,3.92,5.78,5.33,5.63,14.69,2.75,22.01-2.88,7.32-7.93,13.61-10.92,20.88-2.62,6.36-3.58,13.61-1.43,20.14,2.15,6.53,7.8,12.1,14.62,13s14.25-3.73,15.43-10.51c1.14-6.53-3.18-12.61-7-18.02s-7.53-12.16-5.15-18.34c1.99-5.15,7.58-7.94,12.93-9.29,5.25-1.32,11.91-1.18,14.77,3.42,2.92,4.7-.03,10.72-2.83,15.5-4.74,8.07-9.16,16.33-13.23,24.76-1.59,3.29-3.15,6.68-3.52,10.32-.37,3.63,.65,7.61,3.46,9.94,2.59,2.14,6.32,2.54,9.54,1.58,3.21-.97,5.95-3.15,8.15-5.68,6.03-6.94,8.37-16.39,8.93-25.56,.56-9.16-.24-19.17,5.09-26.64,3.51-4.92,11.16-7.77,15.57-3.63,4.3,4.04,2.61,11.66,6.28,16.29,3.6,4.55,11.37,3.94,15.32-.31s4.49-10.83,2.81-16.38c-1.96-6.47-6.7-12.05-12.77-15.03-6.07-2.98-13.38-3.32-19.7-.92-2.87,1.09-5.53,2.71-8.44,3.69s-6.29,1.22-8.92-.37c-5.03-3.06-4.31-11.04-.48-15.51,3.83-4.47,9.59-6.69,14.53-9.9,4.94-3.21,9.51-8.51,8.54-14.32-1.15-6.81-9.03-10.11-15.89-10.86-5.05-.55-10.64-.22-14.48,3.1-3.05,2.64-4.46,6.71-7.09,9.76s-7.88,4.78-10.5,1.71c-1.93-2.26-1.17-5.86,.68-8.19,1.84-2.33,4.51-3.83,6.8-5.73s4.32-4.58,4.07-7.54c-.42-4.96-7.32-7.12-11.64-4.66-4.33,2.45-6.35,7.57-7.43,12.43-1.09,4.85-1.62,9.99-4.24,14.22-2.62,4.23-8.24,7.19-12.64,4.87-5.18-2.72-5.91-10.94-11.44-12.86-2.7-.94-5.78,.07-7.95,1.94-2.16,1.86-3.56,4.46-4.7,7.07-1.77,4.04-2.83,9.39,.43,12.37,2.3,2.1,6.16,2.3,7.79,4.96,1.17,1.91,.66,4.53-.76,6.27s-3.55,2.75-5.7,3.4c-5.06,1.54-10.6,1.43-15.44,3.57-4.84,2.14-8.81,8.01-6.25,12.64,1.62,2.93,5.18,4.17,8.49,4.68,3.31,.5,6.8,.55,9.77,2.1s5.18,5.3,3.63,8.27c-1.92,3.68-7.4,3.19-10.79,5.59-3.41,2.41-3.9,7.78-1.47,11.17s7.11,4.74,11.18,3.82,7.51-3.8,9.8-7.29c1.51-2.29,2.61-4.88,4.53-6.84,1.92-1.96,5.06-3.13,7.43-1.76,2.67,1.55,2.94,5.43,1.77,8.29-1.17,2.86-3.37,5.17-4.74,7.94-3.24,6.55-1.04,15.07,4.42,19.93s13.56,6.18,20.6,4.2c5.28-1.48,10.49-5.38,11.08-10.83,.35-3.2-.93-6.33-2.19-9.29-2.95-6.96-6.01-14.09-11.22-19.57-3.5-3.68-8.02-6.7-9.86-11.43-1.87-4.78-.48-10.35,2.39-14.61s7.04-7.44,11.19-10.46c4.54-3.3,9.72-6.64,15.29-5.97,4.33,.52,7.97,3.4,11.28,6.24,3.31,2.84,6.76,5.87,11.02,6.81,4.26,.94,9.54-1.13,10.47-5.39,1.04-4.77-3.62-9.28-3-14.12,.59-4.59,6.08-7.35,10.58-6.3s7.9,4.85,10.02,8.96c2.1,4.07,3.2,9.12,1.06,13.18-1.83,3.46-5.58,5.42-9.23,6.83-3.65,1.41-7.54,2.55-10.49,5.14s-4.59,7.19-2.47,10.49"/><path class="f" d="M122.67,126.42c3.23-3.37,6.61-7.01,7.48-11.6,.87-4.59-2.07-10.19-6.73-10.3-2.38-.05-4.57,1.28-6.4,2.8-4.08,3.37-7.3,7.9-12.05,10.22-4.75,2.32-11.96,.98-13.13-4.17-.6-2.61,.59-5.36,2.34-7.39s4.01-3.54,6.1-5.22c4.98-4.04,8.99-9.27,11.6-15.12,2.47-5.55,3.65-12.08,1.25-17.66-3.19-7.43-12.92-11.18-20.33-7.93-7.41,3.25-11.27,12.79-8.33,20.33,1.58,4.06,4.83,7.58,5.15,11.93,.33,4.43-2.51,8.49-5.79,11.47-5.41,4.92-14.14,7.89-19.85,3.33-4.16-3.33-5.01-9.5-3.68-14.66,1.32-5.16,4.38-9.67,6.94-14.35,4.12-7.53,7.01-15.73,8.54-24.18,1.29-7.17,.96-15.9-5.07-19.98-5.08-3.44-12.06-1.94-17.44,1.01-9.64,5.28-16.79,14.89-19.08,25.63-1.21,5.65-.39,12.81,4.82,15.3,4.46,2.14,9.69-.3,13.92-2.87,10.11-6.16,19.56-13.42,28.12-21.6,5.13-4.91,10.02-10.2,16.05-13.94,6.04-3.74,13.59-5.78,20.32-3.49,6.03,2.06,10.5,7.26,13.6,12.83,3.88,6.96,6.11,15.26,4.03,22.95-1.74,6.43-6.42,11.88-12.24,15.12-4.45,2.48-9.88,3.73-14.68,2.03-7.42-2.62-10.97-11.28-11.21-19.14s1.91-15.64,1.8-23.5c-.1-6.87-2.08-13.92-6.64-19.07s-11.94-8.04-18.56-6.18c-6.62,1.86-11.63,9.05-10.04,15.74,1.53,6.45,7.89,10.33,13.55,13.79,5.65,3.46,11.72,8.2,11.97,14.82,.21,5.52-3.83,10.29-8.22,13.64-4.3,3.29-10.48,5.79-14.92,2.69-4.54-3.17-4.21-9.86-3.51-15.36,1.18-9.29,1.97-18.62,2.39-27.97,.16-3.65,.26-7.38-.83-10.87s-3.6-6.74-7.1-7.76c-3.22-.94-6.81,.16-9.39,2.32-2.57,2.16-4.22,5.24-5.25,8.44-2.81,8.75-1.23,18.36,1.88,27.01,3.1,8.64,7.79,17.52,5.84,26.49-1.28,5.9-7.19,11.54-12.87,9.48-5.55-2.02-7-9.68-12.2-12.49-5.1-2.76-12,.86-13.95,6.33-1.95,5.46,.15,11.72,3.88,16.16,4.36,5.17,10.91,8.43,17.66,8.77s13.61-2.23,18.47-6.93c2.21-2.14,4.01-4.68,6.3-6.72,2.29-2.04,5.3-3.61,8.34-3.18,5.83,.82,8.32,8.44,6.56,14.07s-6.17,9.94-9.45,14.83c-3.27,4.9-5.38,11.58-2.19,16.53,3.74,5.8,12.29,5.73,18.89,3.71,4.86-1.49,9.86-3.99,12.08-8.57,1.76-3.63,1.45-7.92,2.66-11.77s5.36-7.51,8.97-5.71c2.66,1.32,3.38,4.93,2.61,7.79-.78,2.87-2.64,5.3-3.98,7.94s-2.16,5.91-.77,8.53c2.34,4.39,9.53,3.65,12.54-.31s2.84-9.46,1.93-14.35c-.92-4.89-2.45-9.82-1.72-14.74s4.74-9.86,9.7-9.46c5.83,.46,9.75,7.72,15.58,7.3,2.85-.2,5.28-2.35,6.54-4.92,1.25-2.57,1.51-5.5,1.53-8.35,.04-4.41-1.1-9.74-5.27-11.19-2.95-1.03-6.57,.31-9.11-1.49-1.83-1.29-2.39-3.9-1.78-6.06,.61-2.16,2.18-3.93,3.89-5.37,4.05-3.41,9.17-5.5,12.77-9.37,3.6-3.88,4.94-10.83,.76-14.08-2.65-2.05-6.4-1.79-9.64-.95s-6.46,2.17-9.8,1.93-6.85-2.83-6.6-6.17c.31-4.13,5.54-5.86,7.71-9.39,2.18-3.56,.52-8.68-3.05-10.84s-8.4-1.55-11.78,.9-5.4,6.46-6.13,10.57c-.48,2.7-.47,5.52-1.46,8.08-.99,2.56-3.41,4.87-6.14,4.55-3.06-.37-4.85-3.83-4.9-6.91s1.06-6.08,1.22-9.16c.39-7.3-4.99-14.26-11.92-16.57-6.94-2.31-14.9-.32-20.59,4.27-4.27,3.45-7.51,9.08-5.91,14.33,.94,3.08,3.35,5.44,5.67,7.67,5.46,5.24,11.08,10.58,18.03,13.56,4.66,2,10.01,3,13.57,6.61,3.6,3.66,4.52,9.32,3.57,14.37-.95,5.04-3.53,9.62-6.15,14.03-2.87,4.82-6.31,9.94-11.69,11.52-4.19,1.23-8.67,.02-12.83-1.28-4.17-1.3-8.52-2.73-12.81-1.91s-8.32,4.8-7.49,9.08c.93,4.79,6.98,7.1,8.32,11.79,1.27,4.45-2.69,9.15-7.24,9.96s-9.17-1.34-12.75-4.28c-3.54-2.92-6.54-7.12-6.18-11.69,.31-3.9,2.99-7.18,5.79-9.92,2.8-2.74,5.93-5.32,7.61-8.86,1.68-3.54,1.38-8.42-1.87-10.61"/><path class="f" d="M13.29,50.29c9.9-1.72,21.34,6.35,30.23-.95,2.06-1.69,3.59-4.15,3.52-6.88"/><path class="f" d="M135.22,20.99c-6.31-3.33-14.99-4.92-21.45-1.07-3.54,2.11-5.41,5.69-6.32,9.6-1.08,4.62-1.6,9.47-2.09,14.18-.52,4.98-.73,10.01-.13,14.99,.58,4.82,2.28,9.36,3.33,14.08,1.02,4.59,1,9.26-1.32,13.47-2.01,3.65-5.24,6.52-8.89,8.48-7.1,3.81-15.84,4.59-23.76,4.97s-16.19-1.15-20.77-8.34c-3.99-6.27-4.68-14-8.5-20.35-1.95-3.24-4.77-5.86-8.47-6.92-3.89-1.11-8.25-.25-10.46,3.38-2.06,3.39-1.91,7.53-2.88,11.26-1.03,3.96-3.65,6.91-7.83,7.46-7.89,1.03-13.15-5.88-14.35-12.91-.4-2.34-.47-4.72-.25-7.08"/><path class="f" d="M158.67,73.05c-6.9-1.85-12.98,1.99-19.06,4.87-3.52,1.92-7.68,2.56-11.2,.32-4.48-2.88-2.24-9.28,1.92-12.16,4.16-2.56,8.96-3.52,12.48-7.04,4.16-4.16,7.36-9.28,6.82-15.32"/><path class="f" d="M153.88,115.17c-5-3.66-11.08-7.82-11.08-14.54-.32-3.84,3.2-7.04,7.36-6.72,4.48,.32,8.64,2.56,12.98,1.64"/><path class="f" d="M115.93,141.97c-1.61-2.61-4.17-4.85-3.53-8.37,.64-2.56,2.24-4.16,4.48-5.12,6.72-2.56,13.12,1.6,19.26,3.96"/><path class="f" d="M51.13,152.4c7.17-5.43,11.82-14.39,20.64-17.53,3.78-1.34,8.24-1.3,11.66,.97,3.2,2.13,4.59,5.66,4.7,9.39,.13,4.74-1.06,10.07,1.87,14.23"/><path class="f" d="M9.55,120.46c4.37,4.22,9.93,8.08,16.09,8.86,6.5,.82,11.23-3.13,16.96-5.31,3.99-1.52,10.13-1.93,13.04,1.91,3.29,4.33-.58,8.82-4.57,10.65-5.76,2.64-12.71,.69-18.11,4.43"/><path class="f" d="M12.65,52.99c4.64,6.3,11.43,10.46,19.03,12.17,6.52,1.47,15.25,.65,19.93,6.4,5.41,6.64-.12,15.02-6.78,17.93-6.45,2.82-13.61,1.92-20.44,1.84-6.29-.08-13.26,.38-18.13,4.88-.61,.56-1.17,1.17-1.68,1.82"/><path class="f" d="M101.46,2.47c-10.17,3.45-17.85,10.49-24.25,19.77-5.12,8-9.28,15.36-16,21.76s-17.6,9.6-24.96,2.56c-2.56-2.88-2.88-6.72-2.24-10.24,1.28-5.12,4.16-9.92,4.03-15.04"/><path class="f" d="M60.89,155.84c4.72,.71,9.63,1.6,14.34,.38,3.68-.95,7.07-3.37,8.78-6.82,1.28-2.56,1.62-5.86,.08-8.39-1.27-2.09-3.55-3.34-5.78-4.18-5.42-2.04-11.33-2.01-16.81-3.8-3.93-1.28-7.65-3.52-9.87-7.1-2.08-3.35-2.62-7.71,.12-10.87,2.38-2.75,6.29-3.52,9.77-3.18,4.79,.48,9.39,2.43,14.13,3.32,8.5,1.58,17.71,1.34,25.78-1.97,7.18-2.95,13.46-8.68,14.68-16.65,1.11-7.22-2.22-14.77-8.26-18.86-6.37-4.32-14.87-4.25-21.4-.29-3.76,2.28-6.21,5.6-8.17,9.48-1.82,3.59-3.39,7.4-6.54,10.07-6.49,5.49-16.44,3.63-23.37-.03-6.26-3.3-11.58-9.53-10.22-17.04,1.22-6.78,7.67-11.1,13.75-13.21,4.17-1.45,8.62-1.95,12.98-2.44,4.98-.55,9.94-1.12,14.85-2.1,9.31-1.86,18.77-4.97,26.84-10.07,7.13-4.51,13.44-12.43,10.2-21.31-2.89-7.93-11.69-12.8-19.31-15.17-7.82-2.42-16.31-2.76-24.35-1.31-7.11,1.28-14.59,4.2-18.97,10.24-2.55,3.51-3.67,8.05-1.45,12.01,2.06,3.66,5.98,6.1,9.59,8.01,3.97,2.1,8.21,3.64,12.46,5.09,4.54,1.55,9.09,3.07,13.71,4.38,9.44,2.69,19.03,4.39,28.65,6.29,8.75,1.72,17.67,4.16,24.88,9.64s11.36,13.78,10.59,23.03c-.72,8.67-4.55,17.07-10.1,23.71-5.29,6.32-12.53,10.89-20.76,12.05-7.85,1.11-16.28-.89-22.67-5.62-6.77-5-10.34-12.9-7.98-21.21,2.37-8.32,9.27-14.18,16.37-18.55,7.18-4.42,14.97-7.84,21.64-13.07,6.68-5.23,11.85-12.31,13.35-20.79,1.41-7.97-.84-16.67-7.35-21.83-5.73-4.55-14.02-5.65-20.35-1.65s-7.73,11.39-7.77,18.14c-.06,8.42,2.18,17.42-1.55,25.39-3.19,6.81-10.28,9.56-17.48,9-6.57-.52-14.65-3.35-18.63-8.89-1.95-2.71-2.73-6.19-1.55-9.38,1.12-3.03,3.6-5.37,6.12-7.27,2.81-2.12,5.91-3.82,8.97-5.55,4.31-2.44,8.67-4.81,12.98-7.24,7.35-4.14,15.06-8.32,21.49-13.84,5.02-4.32,9.1-10.37,6.67-17.2"/><path class="f" d="M137.58,63.06c2.98-4.72,5.96-9.75,6.31-15.33,.35-5.58-2.86-11.78-8.33-12.9-2.2-.45-4.49-.05-6.7-.45s-4.5-2.1-4.33-4.34c.17-2.16,2.43-3.45,3.66-5.24,2.81-4.07-.45-9.89-4.83-12.17-6.76-3.53-16.29-1.05-19.71,5.76s1.11,16.54,8.67,17.53c4.16,.55,8.23-1.28,12.05-3.03,3.82-1.74,7.95-3.49,12.08-2.77,4.14,.72,7.9,5.03,6.43,8.96-1.08,2.87-4.24,4.24-6.97,5.62-2.73,1.38-5.65,3.69-5.41,6.74,.23,2.94,3.44,4.84,6.39,4.94s5.77-1.06,8.65-1.7,6.22-.66,8.41,1.31c3.02,2.72,2.23,7.85-.26,11.07-2.49,3.21-6.19,5.21-9.26,7.87-3.07,2.66-5.68,6.62-4.71,10.57,1.17,4.77,7.86,6.86,11.83,3.98,3.97-2.89,4.36-9.34,1.15-13.05s-9.15-4.43-13.47-2.09c-4.32,2.34-6.91,7.27-7.03,12.18-.1,4.15,1.57,8.47,4.93,10.91,3.36,2.44,8.45,2.53,11.48-.3,2.13-2,3.41-5.32,6.28-5.85,3.82-.71,6.26,4.88,4.26,8.21-2,3.33-6.22,4.51-10.07,5.02-2.72,.36-5.69,.61-7.69,2.49s-1.88,6.02,.78,6.68c1.3,.32,2.7-.3,4,.01,2.46,.59,2.88,4.33,1.14,6.16s-4.59,2.07-7.09,1.7-4.95-1.22-7.48-1.13-5.28,1.5-5.81,3.96c-.77,3.57,3.05,8.16,.17,10.4-1.91,1.49-4.64-.15-6.38-1.84s-4.08-3.63-6.29-2.63c-4.08,1.84-.35,9.73-4.24,11.94-2.62,1.49-5.6-1.42-6.81-4.18-1.21-2.76-2.41-6.2-5.37-6.8-2.8-.57-5.48,2.25-5.48,5.11,0,2.86,2.01,5.4,4.43,6.91,1.71,1.07,3.78,1.88,4.68,3.69,1.38,2.78-.88,6.02-3.41,7.81-4.23,3-10.98,3.83-13.98-.4-1.37-1.93-1.59-4.42-1.79-6.77-.21-2.36-.49-4.85-1.95-6.71-1.46-1.86-4.52-2.66-6.2-.99-1.71,1.69-.97,4.63,.35,6.64,1.32,2.01,3.17,3.84,3.51,6.22,.67,4.7-5.7,8.06-9.97,5.96-4.27-2.09-6.03-7.42-5.7-12.16,.29-4.12,1.1-9.6-2.72-11.15-3.48-1.42-7.06,2.97-6.42,6.68,.63,3.71,3.72,6.43,6.62,8.83-.37,1.57-2.78,1.69-3.94,.57s-1.43-2.84-1.82-4.4-1.14-3.27-2.66-3.78-3.49,1.33-2.51,2.61c-2.71-.76-2.82-4.47-2.82-7.29s-1.92-6.56-4.53-5.5c-1.16,.47-1.74,1.74-2.56,2.69-1.64,1.87-4.58,2.44-6.8,1.31-2.22-1.12-3.49-3.84-2.95-6.26,.44-1.97,1.89-3.54,2.75-5.37,.86-1.82,.91-4.42-.83-5.44-1.86-1.09-4.2,.46-5.42,2.24-1.22,1.78-2.09,3.98-3.99,4.99-2.42,1.28-5.62-.08-7.07-2.41s-1.47-5.28-.93-7.97c.92-4.62,3.63-9.14,7.94-11.03s10.2-.32,12.06,4.01c1.86,4.33-2.21,10.24-6.81,9.21-3.16-.71-5.06-3.9-6.2-6.93s-2-6.37-4.4-8.53c-1.42-1.28-3.25-2.01-4.73-3.22-2.95-2.42-4.03-7.25-1.57-10.17s8.32-1.91,8.94,1.85c.21,1.26-.14,2.56,.07,3.82,.52,3.18,4.81,4.77,7.6,3.17,2.79-1.6,3.78-5.44,2.73-8.48s-3.75-5.3-6.71-6.56c-3.77-1.61-8.15-1.89-11.43-4.35-4.63-3.47-5.24-11.18-1.14-15.26,4.1-4.08,11.93-3.34,15.1,1.5,2.13,3.24,1.98,7.89-.55,10.82-2.53,2.94-7.32,3.71-10.51,1.52s-4.12-7.18-1.74-10.24c1.89-2.42,5.12-3.26,7.8-4.76s5.14-4.67,3.79-7.43c-.87-1.78-2.98-2.59-4.22-4.14-2.34-2.94,.02-8.14,3.77-8.32,3.75-.18,6.59,4.78,4.54,7.92-1.4,2.14-4.23,3.04-5.53,5.24-1.87,3.19,.99,7.71,4.67,8.06,3.68,.35,7.1-2.71,7.99-6.3,.88-3.59-.35-7.43-2.43-10.48-1.73-2.53-4.07-4.76-4.89-7.72-1.36-4.9,1.97-9.88,5.76-13.27,1.95-1.75,4.17-3.35,6.74-3.86s5.55,.33,6.92,2.56c1.94,3.15-.11,7.34-2.92,9.75s-6.37,3.94-8.77,6.75c-3.98,4.67-3.57,12.21,.33,16.95,3.9,4.74,10.62,6.66,16.65,5.52,4.66-.88,9.49-4.32,9.42-9.06-.07-4.66-4.6-7.79-8.41-10.47-3.81-2.68-7.78-7.02-6.18-11.4,.99-2.72,3.81-4.27,6.44-5.5s5.48-2.58,6.76-5.19c1.27-2.6-.42-6.64-3.3-6.32,2.53-1.63,5.15-3.3,8.12-3.79s6.4,.54,7.83,3.19c1.18,2.19,.78,4.97,1.97,7.15,1.4,2.56,5.08,3.55,7.58,2.04s3.32-5.23,1.7-7.66c-2.09-3.12-6.84-3.44-9.09-6.45-2.09-2.8-.62-7.55,2.75-8.45s7.07,2.9,5.86,6.17c-1.64,4.44-8.49,3.94-11.63,7.49-2.52,2.84-1.55,7.79,1.56,9.98,3.11,2.19,7.59,1.76,10.68-.46,3.09-2.22,4.87-5.91,5.47-9.66,.46-2.87,.32-5.94,1.73-8.48,1.41-2.54,5.29-3.99,7.21-1.8,1.92,2.2,.09,5.71-2.28,7.42-2.37,1.71-5.39,2.81-6.81,5.36-2.21,3.94,.98,9.16,5.22,10.74,4.24,1.58,8.95,.62,13.36-.36l8.82-1.96c2.59-.57,5.54-1.44,6.56-3.89,1.29-3.09-1.61-6.52-4.82-7.45-5.76-1.67-11.75,1.8-16.15,5.87-4.4,4.07-8.27,9.02-13.78,11.39-7.89,3.4-17.95,.94-24.73,6.23-1.59,1.24-2.95,3.07-2.79,5.07,.22,2.77,3.23,4.54,6.01,4.69,2.77,.16,5.48-.79,8.25-1.05,2.76-.26,5.96,.4,7.37,2.8,1.5,2.55,.22,5.98-1.98,7.97s-5.09,2.97-7.78,4.22c-4.34,2.02-8.31,4.85-11.62,8.31-1.5,1.57-2.95,3.48-2.88,5.66,.12,3.82,4.74,5.88,8.55,5.69s7.61-1.66,11.37-.98c7.32,1.33,10.83,11.02,7.62,17.73s-11,10.22-18.44,10.52c-5.74,.23-12.17-1.62-14.94-6.66-2.32-4.22-1.52-9.64-3.94-13.8-2.55-4.39-8.73-6.2-13.24-3.88-3.11,1.6-5.22,4.81-5.97,8.23-2,9.16,5.45,18.27,14.3,21.37s18.57,1.68,27.79-.04c9.22-1.72,18.72-3.7,27.86-1.63"/><path class="f" d="M69.55,11.33c4.76,7.04,6.19,18.27,15.37,21.23,2.68,.87,5.79,.79,8.13-.94"/><path class="f" d="M161.39,97.63c.56-6.64-.96-13.77-5.14-19.08-2.3-2.92-5.44-5.36-9.18-6-4.26-.72-8.38,.85-12.15,2.66-8.22,3.95-16.32,8.29-22.91,14.68-5.77,5.59-10.23,13.91-18.57,15.94-7.57,1.84-14.78-1.97-20.37-6.8-2.83-2.44-5.37-5.19-7.76-8.05-2.66-3.18-5.36-6.4-7.3-10.09-1.96-3.74-2.98-7.91-2.13-12.11,.83-4.11,3.09-7.76,5.52-11.11,4.36-6.02,10.11-12.41,8.49-20.43-.61-3.03-2.28-5.98-5.16-7.36-3.65-1.75-7.45-.24-10.83,1.38s-6.71,3.41-10.45,2.39c-3.31-.91-5.77-3.68-6.72-6.93-.64-2.19-.62-4.55-.09-6.77"/><path class="f" d="M154.69,113.11c2.03-2.1,3.68-4.57,4.78-7.27"/><path class="f" d="M129.23,136.08c-3.35-4.15-7.95-5.94-12.42-8.53-3.68-2.13-8.25-6.83-5.66-11.42,2.29-4.06,7.76-3.81,11.48-2.24,4.32,1.82,7.95,4.89,12.64,5.8,5.42,1.06,11.08-.34,15.62-3.41"/><path class="f" d="M94.91,159.48c.54-4.13-.1-8.61,2.14-12.45,2.56-4.16,8-6.72,11.8-2.87"/><path class="f" d="M47.68,149.8c4.17-3.21,3.62-10.51,9.13-12.29,6.54-2.11,10.36,5.5,11.79,10.49,1.15,4.01,1.75,8.16,3.06,12.13"/><path class="f" d="M5.54,98.06c7.8,2.49,16.41,1.85,23.84,5.63,3.01,1.53,5.76,3.8,7.19,6.94,1.63,3.59,1.21,7.63-1.13,10.81-2.77,3.76-7.46,5.31-10.69,8.57"/><path class="f" d="M8.16,60.02c1.48,5.06,4.81,8.45,9.19,11.2,3.82,2.4,8.47,4.35,11.03,8.27,2.48,3.8,1.67,9.65-3.21,10.96-5.06,1.36-9.22-2.82-12.13-6.36-2.88-3.5-6.11-7.9-11.12-7.92"/><path class="f" d="M64.69,9.48c-1.88,4.75-2.2,9.55-1.56,14.67,1.28,6.4,4.8,11.52,7.68,17.28,2.56,5.76,2.56,13.76-3.84,16.64-8.32,3.84-16.64-1.92-21.76-8.96-5.44-7.68-9.6-16.64-19.02-19.67"/><path class="f" d="M155.19,51.84c-6.96-4.39-15.27-6.07-23.38-6.64-9.01-.63-18.08,.76-27.07-.36-7.08-.88-14.26-3.69-18.72-9.54-3.98-5.22-3.76-12.7,2.19-16.34,5.59-3.41,13.19-2.99,17.82-8.04,.62-.67,1.14-1.42,1.57-2.22"/><path class="f" d="M104.12,150.5c-12.28,3.74-26.63,2.56-36.6-6.11-8.86-7.7-13.98-21.49-8.82-32.66,2.37-5.13,7.03-8.7,12.42-10.2,6.49-1.8,13.36-.56,19.58,1.67,6.44,2.3,12.39,5.74,18.63,8.5,6.29,2.78,13.03,4.83,19.96,4.82,12.08-.03,24.69-7.59,26.15-20.45,.62-5.52-1.19-11.32-5.26-15.18-4.65-4.41-11.03-4.96-16.9-2.93-11.61,4.02-19.51,18.15-32.87,17.12-5.98-.46-10.75-4.55-13.66-9.57-2.97-5.13-4.95-11.81-3.89-17.74,.96-5.35,5.07-9.07,10.52-9.41,6.27-.4,12.3,3.12,17.63,5.97,6.22,3.33,12.59,6.36,18.99,9.34s12.3,6.05,19.04,7.03c3.18,.46,6.52,.43,9.54-.76"/><path class="f" d="M10.53,112.59c2.32,4.11,5.31,8.34,9.91,10.05,3.89,1.45,8.97,1,11.95-2.14,4.67-4.92,.09-13.21-2.27-18.14-3.45-7.23-7.2-17.94,.8-23.7,3.61-2.6,8.16-1.83,11.17,1.28,3.4,3.52,4.62,8.61,6.26,13.07,3.25,8.87,8.83,17.34,16.59,22.88,6.95,4.97,16.3,7.3,24.16,2.97,7.74-4.26,11.75-13.89,9.25-22.37-1.28-4.34-4.25-8.12-7.94-10.69-4.4-3.07-9.39-3.81-14.64-3.24-4.79,.52-9.58,1.79-14.3,.1-4.5-1.61-7.62-5.55-9.6-9.75-3.29-7-4.65-16.88,.56-23.34,6.35-7.89,16.9-5.01,23.9,.23,4.06,3.04,7.33,7,10.65,10.79,3.54,4.06,7.25,7.95,11.29,11.51,7.35,6.47,15.88,13.01,25.56,15.35,4.53,1.09,9.46,1.26,13.71-.92,4.27-2.19,6.76-6.46,7.79-11.02,2.19-9.68-1.04-20-6.06-28.27-4.74-7.82-11.67-15.42-20.41-18.7-4.01-1.51-8.74-2.19-12.78-.41-4.4,1.94-6.26,6.45-6.4,11.03-.16,5.19,1.14,10.55,2.34,15.57,1.29,5.41,2.92,10.74,4.72,16,3.58,10.44,8.39,20.27,12.64,30.43,3.88,9.26,7.24,19.52,4.97,29.64-1.02,4.53-3.23,8.72-6.49,12.04"/><g class="j"><path d="M86.1,102.97c-.01-.12-.03-.24-.04-.37-.08-2.08-.03-1.71-.3-3.52h0c-.15-1.43-.41-3.04-1.84-3.7-1.88-1-2.93,.52-3.44,2.17-.19,.89-.17,1.81-.18,2.71-.05,1.88,.1,3.77-.08,5.64-.12,.6-.26,1.2-.45,1.78-.02-.02-.03-.03-.05-.05-.02-.03-.04-.05-.05-.08-.51-.9-.14-.07-.57-1.24-.35-1.14-.2-.66-.36-2.04-.15-1.76-.3-3.51-.48-5.27-.08-.76-.31-1.51-.59-2.22-.11-.28-.18-.58-.4-.79-.12-.09-.16-.12-.17-.12h0c-.34-.29-.92-.33-1.22,0-.52,.73-.72,1.68-.73,2.57v.05c-.61,2.02-.93,4.12-.67,6.23,.06,.62,.13,1.25,.25,1.88-.02-.03-.03-.07-.05-.1-.5-1.33-.81-1.75-1-2.25-.73-1.57-1.41-3.16-2.22-4.69-.15-.26-.31-.52-.43-.8-.63-1.47-.62-1.27-.98-2.38-.31-1.25-.83-2.52-1.9-3.3-.6-.52-1.44-.58-2.19-.43-.67,.15-1.19,.72-1.41,1.36-.3,.65-.35,.56-.54,1.93,.02-.15,.04-.31,.06-.46-.08,.3-.15,.6-.18,.92-.18,.93-.16,.93-.23,1.2-.18,1.01-.55,1.98-.74,2.98-.06,.14,0,0,.06-.13-.25,.57-.4,1.17-.53,1.77-.2,.59-.33,1.2-.43,1.81-.31,1.11-.54,2.24-.84,3.36-.27,.82-.46,1.68-.54,2.54,0,.03,0,0,.01-.09-.05,.65-.16,1.3-.11,1.96,.1,1.55,1.54,2.44,2.64,3.32-.68-1-1.78-1.98-1.63-3.29,.34-1.35,.62-2.29,1.27-3.5,.83-1.68,.94-2.12,1.59-3.54,.06-.16,.1-.3,.15-.43,.01,.13,.02,.26,.03,.39,.02,.47-.34,1.22-.57,1.77-.68,1.34,.5,1.88,1.69,1.69,.91-.12,1.39-.53,2.07-.78,.13-.04,.3-.08,.49-.12,.45,1.23,.75,1.77,.95,2.27,.45,1.02,.19,.51,.86,1.97,.13,.19,.27,.38,.42,.56,.06,.07,.11,.15,.17,.22-.03-.03-.03-.03,.03,.04,.68,1.07,1.5,2.21,2.76,2.59,1.42,.42,3.04-.68,3.03-2.18-.02-.4-.08-.8-.18-1.18-.04-.36-.12-.71-.22-1.06,.18,.3,.37,.59,.58,.87,.62,.72,1.43,1.3,2.37,1.5,.95,.17,1.94,.25,2.88-.06,.96-.32,1.76-1.01,2.37-1.79,.54-.62,1.01-1.3,1.29-2.09,.35-.91,.55-1.86,.59-2.83,0-1.05,.07-2.12-.06-3.17Zm-19.16-4.7c.08,.21,.17,.42,.26,.63-.14-.05-.29-.09-.43-.1,.05-.15,.1-.33,.17-.53Zm.5,8.42c-.55,.09-1.26,.25-1.42,.27-.1,.02-.23,0-.37-.01,.3-.45,.61-.89,.8-1.4,.22-.54,.22-1.14,.28-1.72l.02-.2c.1,.33,.23,.72,.44,1.21l.04,.1c.48,1.17,.43,.93,.77,1.72-.19,0-.38,0-.57,.03Zm9.05-10.11s.02,.04,.04,.06c0,.06,0,.02,.01,.17,.37,1.72-.14,4.38-.28,6.59,0,.07-.01,.14-.02,.2-.09-.35-.18-.73-.28-1.13-.24-1.2-.21-3.6-.01-5.53,.12-.17,.24-.32,.38-.47l.07,.02s.02,.03,.03,.04c.03,.03,.04,.04,.05,.05Z"/><path d="M77.13,95.89l-.03-.02c.11,.08,.07,.05,.03,.02Z"/><path d="M77.09,95.86h0Z"/></g><path class="j" d="M96.65,96.28c.76-1.45-.9-2.25-2.02-2.65-.78-.28-1.64-.13-2.44-.05-.58,.05-1.13,.23-1.68,.41-.47,.1-.94,.16-1.4,.3-.5,.15-.88,.3-1.22,.44l.04-.07s-.06,.06-.09,.09c-.48,.2-.9,.39-1.49,.59-.35,.25-.37,.71-.31,1.11,0,.38,.11,.67,.47,.81,.22,.55,1.02,.9,2.17,1.29,.09,.16,.09,.12,.15,.26,.05,.01-.05,.85-.08,1.21-.08,.98,0,1.97-.12,2.96-.14,.49-.33,2.47-.44,3.05-.25,1.71-.56,3.57,.24,5.18l.04,.08c.33,.76,.84,1.47,1.58,1.87,1.67,.79,3.23-.08,3.73-1.81,.5-2.11,.18-4.29-.3-6.37-.02-.1-.03-.17-.04-.21-.21-1.65-.21-3.59-.32-6,.26-.02,.53-.05,.78-.12,.81-.26,1.52-.79,2.09-1.42,.09-.1,.18-.21,.26-.33,.04-.05,.08-.11,.14-.18,.04-.06,.09-.14,.12-.22,.03-.05,.05-.08,.05-.1,.03-.04,.06-.08,.09-.13Zm-10.23,.66c-.09-.21,.01-.37,.02-.55,.03-.17,.07-.4,.19-.49,.03,0,.16,0,.24,0-.3,.43-.42,.78-.41,1.08,0-.01-.02-.02-.03-.03Zm1.71,.31c-.32-.07-.73-.11-.96-.29-.1-.07-.09-.2-.08-.31,.05-.29,.14-.56,.25-.83,.44-.07,.87-.15,1.31-.22,.86-.12,1.73,0,2.59-.11,.65-.09,1.3,0,1.94,.07l.1,.02c.11,.02,.22,.04,.33,.07-.02,0-.04,.02-.05,.03-.06,.03-.14,.06-.21,.09-.02,0-.05,.01-.07,.02-.15-.01-.56-.01-.75-.04-1.93-.19-2.5,.75-2.66,2.11-.15-.16-.32-.3-.52-.4-.43-.23-1.14-.16-1.21-.21Z"/><path class="j" d="M109.63,102.29c-.08-.89-.31-1.74-.7-2.55-.32-.79-.52-1.66-1.02-2.36-.75-.96-1.59-1.88-2.59-2.59-1.5-.85-3.36-.93-5.04-.76-1.42,.36-2.05,1.82-2.71,2.98-.04,.06-.07,.12-.1,.19-.11,.08-.21,.16-.31,.24-1.92,1.78-3.03,4.35-3.3,6.94-.12,.74,.04,1.48,.15,2.22,.13,.83,.27,1.66,.64,2.42,.68,1.17,.66,.91,1.05,1.49,.9,1.33,2.42,2.05,4,2.18,.29-.04,.98,.35,2.55,.14,1.07-.25,2.11-.66,3.1-1.12,1.2-.76,2.31-1.75,3.04-2.98,.15-.22,.49-1.04,.63-1.37,.49-1.02,.69-2.13,.69-3.26,.02-.6,0-1.2-.07-1.8Zm-5.39,2.66l.04-.28c-.17,.82-.05,.59-.59,1.38-.07,.09-.18,.21-.25,.28-.08,.09-.21,.21-.31,.29-.21,.16-.45,.29-.69,.41-.07,.02-.14,.04-.21,.05-.24,.02-.49,.02-.73,.03h-.03c-.33-.08-.65-.18-.97-.26l-.09-.03c-.2-.09-.39-.18-.58-.3-.09-.08-.21-.2-.3-.31-.26-.35-.44-.76-.62-1.15-.06-.17-.11-.34-.15-.52-.04-.15-.06-.31-.09-.46,0-.04,0-.09,0-.13v-.08c.1-.54,.17-1.09,.36-1.6,.16-.35,.54-1.22,.64-1.47,.12-.42,.8-1.56,1.54-2.97,.05-.1,.1-.2,.16-.29,.78,0,1.21,.05,1.47,.1,.16,.22,.32,.45,.48,.67,.48,.6,.53,1.38,.73,2.1,.54,1.54,.44,2.86,.19,4.55Zm.7-5.61c.04,.07,.09,.15,.15,.25,.01,.02,.02,.05,.03,.07,.6,1.74,.94,2.22,1.01,3.2h0c0-.08-.02-.14-.03-.19,0,.03,0,.06,0,.1-.15-.82-.43-1.62-.84-2.36-.32-.53-.54-1.13-.87-1.65,.07,.08,.15,.16,.25,.25,.1,.11,.2,.22,.3,.33Z"/><g class="j"><path d="M116.17,135.76l-.05,.02c-.08,.04-.16,.07-.24,.1,.11-.04,.26-.09,.29-.12Z"/><polygon points="107.73 118.69 107.72 118.7 107.72 118.69 107.73 118.69"/><path d="M138.08,122.61c-.21-.33-1.48-1.92-.86-1.11-.06-.07-.11-.15-.17-.22,.02,.03,.01,.01-.06-.08-.84-1.21-.82-.92-1.25-1.58-.08-.12-.17-.23-.25-.35,.6-.26,.73-.43,.88-.54,.76-.56,1.44-1.28,1.84-2.14,.68-1.41,.44-3.09-.04-4.53-.62-1.83-1.88-2.34-3.64-1.95h0c-2.09,.09-4.96-.5-6.19,1.67-.43,.89-.56,1.87-.66,2.84-.04,.45-.08,.91-.11,1.36-.05-.06-.1-.12-.15-.17-1.43-1.84-3.8-2.22-5.49-.58-.18,.04-.36,.1-.53,.2-.52,.21-.84,.69-1.17,1.11-.66,.79-1.06,1.75-1.49,2.68-.3,.6-.52,1.22-.66,1.86-.21-.83-.48-1.66-1.03-2.32-1.73-2.64-4.64-2.47-7.24-1.24-.74,.32-1.45,.71-2.1,1.19-.03,.02-.06,.05-.09,.07,.03-.03,.07-.05,.09-.07-.07,.06-.15,.11-.22,.16-.06,.05-.09,.07-.1,.08-.2,.15-.39,.3-.59,.45-.69,.66-.69,1.86,0,2.53,.23,.25,.51,.38,.81,.45-.22,1.03-.4,2.08-.53,3.13-.05,1.75-.29,3.48-.37,5.22,0,.31,0,.59,0,.83-.28-.58-.34-.81-.86-2.19-.63-1.51-.45-1.04-.81-2.09-.15-.53-.38-1.04-.52-1.57-.11-.48-.18-.97-.33-1.44-.37-1.05-.57-2.2-1.24-3.12-1.43-2.18-4.1-2.52-4.69,.45-.3,1.58-.12,3.15,.16,4.71-.26,.73-.53,1.45-.84,2.17-.45,1.59-.89,3.18-1.28,4.79-.15,.55-.23,1.12-.29,1.69-.08,.41-.15,.83-.21,1.24-.29-.84-1.1-1.46-2.52-1.56-1.39-.2-2.73,.33-4.01,.79-1.03,.3-1.18,.36-1.44,.36h-.02c-.16-.09-.31-.18-.46-.27-.13-.08-.25-.17-.38-.25l-.02-.02c-.07-.07-.13-.13-.2-.2l-.02-.04c0-.09,0-.17,0-.26,.02-.03,.03-.06,.05-.09,.4-.48,.91-.84,1.35-1.27,.11-.1,.21-.2,.31-.3,.52-.01,1.04-.03,1.55-.1,.74-.08,1.49-.02,2.23-.15,.51-.1,.99-.35,1.44-.59,.87-.48,1.23-1.46,1.19-2.42,0-1.1-.48-2.22-1.47-2.78-1.02-.59-2.25-.5-3.32-.1-.94,.3-1.87,.66-2.74,1.11-.12,.06-.23,.12-.35,.18-.09-.43-.09-.54-.07-1.55,.01-.09,.02-.19,.03-.28v-.05c.1-.44,.18-.89,.33-1.32,.18-.33,.15-.24,.62-.47,.55-.17,1.12-.21,1.68-.32,.64-.19,1.26-.42,1.86-.69,.15-.09,.31-.17,.47-.25,.78,.07,1.54,.16,2.29,.28-.5-.24-1.02-.45-1.54-.64,.27-.15,.53-.32,.74-.55,.21-.24-.1,.04-.24,.1-.3,.16-.64,.2-.96,.27h-.05c-.7-.23-1.41-.44-2.13-.64-.98-.22-1.99-.51-2.99-.25-.89,.3-1.68,.87-2.39,1.48-.56,.57-.87,1.33-.98,2.11-.22,1.79-.36,3.6-.28,5.41-.03,1.04-.08,2.08-.12,3.11-.13,.53-.15,1.09-.05,1.63,0,.11,0,.21,0,.32,0,.79-.05,.38-.16,1.88-.03,.6-.06,1.24,.21,1.79,.63,1.55,2.32,2.13,3.89,2.06,1.14,.1,2.2-.31,3.2-.8h.01c.57-.16,3.05-.1,4.35-1.31,.28-.29,.51-.6,.7-.91l-.02,.1c-.34,1.28,.51,2.43,1.77,2.71,1.9,.35,3.31-1.52,3.8-3.15,.27-1.13,.22-1.73,.26-2.16,.01,0,.03,0,.04,0,.3,.05,.83,.12,1.05,.13,.04,0,.07,0,.11,0,.14,.49,.26,.99,.48,1.45l.03,.07,.04,.1c.26,.71,.5,1.44,1.01,2.01,1.61,1.65,4.16,.65,4.63-1.49,.27,.09,.57,.15,.9,.16,1.77,.31,3-.33,4.25-1.54,.15-.13,.3-.26,.45-.39l.09-.06c.23-.14,.48-.26,.73-.38,.24-.09,.45-.15,.73-.29h.02s.03-.02,.05-.03h-.01c.09-.03,.17-.07,.26-.1,.58-.27,1.08-.7,1.45-1.21,.3-.34,.44-.78,.61-1.19,.21-.52,.42-1.04,.5-1.59,.26-1.02,.37-2.07,.4-3.12,.8,.91,1.99,1.44,3.2,1.51,1.33,.16,2.75-.02,3.9-.74,1.2-.76,1.95-1.89,2.41-3.16,.11,.35,.22,.71,.34,1.06,.18,.44,.22,.96,.53,1.32,.35,.51,1.01,.69,1.6,.54,.03,.09,.05,.19,.03,.28-.04,.19-.27,.33-.46,.32,.3,.15,.7-.05,.78-.37,.02-.13,.04-.26,.05-.39,.11-.06,.21-.14,.3-.23,.69-.68,.38-1.67,.36-2.52-.03-.96-.23-1.9-.45-2.83,0-.09-.01-.18-.02-.27,.17,.05,.36,.08,.57,.07,.04,0,.23,0,.38-.01,.25,1.48,.64,2.96,1.76,4.03,1.19,1.12,3.13,.58,4.07-.61,.89-1.2,.41-2.93-.37-4.07Zm-34.92,10.11c.03-.12,.05-.24,.06-.35v.03c.06,.12,.11,.23,.15,.34-.07,0-.14-.01-.22-.02Zm6.35-9.64c-.17,1.01-.14,1.31-.38,2.32-.14,.72-.22,1.45-.28,2.18v-.05c-.08-.71-.21-1.41-.32-2.12-.08-.98-.14-1.97-.17-2.96,.27,0,.54,0,.8,0,.13,0,.22,.01,.28,.02,.07,.01,.15,.03,.22,.04-.05,.19-.1,.38-.15,.57Zm.98,12.18h-.02c-.12,.01-.32,.02-.52,.02-.06-.23-.06-.49-.11-.96,.12,.14,.25,.27,.4,.4,.17,.14,.33,.26,.49,.37-.08,.07-.16,.12-.24,.17Zm2.45-4.18c0,.07-.02,.14-.02,.22,0,.02-.01,.05-.02,.07-.32,.61-.5,.97-.67,1.21-.33-.17-.22-.14-.51-.38-.6-.6-.7-1.05-.84-2.47-.14-1.71-.38-3.4-.38-5.11-.07-.63-.12-1.27-.12-1.9,.05,.01,.09,.03,.14,.05,.18,.1,.35,.2,.52,.32l.03,.02c.09,.08,.17,.17,.25,.25,.09,.1,.19,.18,.28,.28,.22,.34,.39,.71,.57,1.07,.26,.7,.45,1.42,.56,2.15v.03c.18,1.47,.23,1.97,.22,4.21Zm.19-10.89h.02s.09,0,.14,0c.12,.02,.23,.05,.35,.09,.05,.03,.1,.05,.15,.09l.06,.05c.07,.09,.11,.13,.13,.14,.07,.1,.15,.19,.22,.29,.07,.09,.13,.18,.18,.28,.06,.16,.11,.33,.15,.49-.38-.54-.86-1.02-1.39-1.42Zm10.96-2.33c.3,.3,.46,.74,.58,1.17-.09-.18-.19-.35-.29-.52,.15,1.39,.32,2.89,.3,4.39h0c-.05,.11-.14,.29-.2,.37-.02,.02-.03,.05-.05,.07-.07,.08-.25,.28-.34,.35h0c-.1,.07-.22,.13-.32,.18-.04-.05-.09-.1-.13-.15-.16-.25-.38-.67-.46-.79-.07-.21-.1-.43-.13-.65-.03-.16-.08-.48-.11-.63-.01-.14-.02-.28-.02-.42,.12-1.38,.54-2.72,1.18-3.37Zm1.02,7.57c-.13,.22-.26,.45-.41,.66-.09,.1-.19,.18-.29,.27-.12,.09-.25,.16-.39,.23h-.01c-.93,.25-.36,.17-1.81,.17-.06,0-.12-.01-.18-.02-.06-.01-.12-.03-.18-.05-.11-.06-.26-.13-.38-.2-.05-.05-.1-.1-.15-.15-.16-.23-.3-.47-.4-.73-.04-.09-.06-.15-.08-.19-.37-.93-.25-1.04-.36-2.36,.12,.37,.26,.73,.46,1.05,.4,.62,.99,1.3,1.67,1.67-.13,.08-.27,.15-.41,.21,.17,.02,.34,0,.51-.03,.07-.01,.13-.03,.19-.04,.53,.21,1.1,.21,1.68-.17,.22-.13,.41-.28,.58-.44-.02,.04-.03,.07-.05,.11Zm6.53-2.61c-.05-.58-.12-1.15-.19-1.72,.02-.04,.14-.15,.11-.12-.02,.02-.02,.01,0,0,.01,0,.04-.03,.05-.03,.55,.13,.71,.53,.86,1.38,.04,.29,.09,.59,.13,.88-.37-.07-.71-.18-.97-.39Zm2.73-7.03c-.06,.05-.09,.08-.11,.09-.06,.04-.11,.08-.16,.13h0l.08-.06s-.07,.05-.11,.07c-.63,.22-1.21,.57-1.73,.98-.02,.01-.06,.03-.11,.07-.47,.22-.8,.64-.95,1.13,0,.04-.01,.08-.02,.12-.03-1.56,.02-3.13,.42-4.62,1.08-.05,2.16,.04,3.23-.06,.05,.18,.08,.36,.11,.54,.02,.24,.03,.48,.02,.72,0,.04-.02,.08-.03,.11-.05,.1-.11,.2-.17,.3-.15,.17-.3,.32-.46,.48Zm1.54,9.44s-.04,.03-.06,.04c-.09-.08-.17-.16-.24-.25-.48-.58-.67-.9-.88-1.4,.23,.25,.46,.49,.69,.75,.07,.08,.14,.16,.21,.25,.1,.15,.2,.3,.28,.45,.01,.04,.02,.09,.03,.14l-.03,.02Z"/></g><path class="j" d="M80.71,122.73c-1.53-.16-1.78,.02-2.8-.36-1.12-.63-2.42-.79-3.68-.94-.54-.02-1.17-.36-2.58,0-2.8,1.01-1.97,5.76,1.26,4.99,.2-.03,.4-.08,.6-.13,0,2.29,.09,4.58-.11,6.85-.21,2.68-.78,5.33-.64,8.02,.02,1.22,.07,2.55,.95,3.48,1.53,1.62,3.67,.6,4.25-1.35,.38-1.3,.08-2.67,.07-4-.01-1.73-.02-3.06-.22-4.8-.17-1.93-.32-3.92-.72-5.84,0-.65,0-1.3,0-1.94,0-.08,0-.16,0-.24,.86,.03,1.74-.06,2.6-.09,1.01-.1,2.31-.09,2.83-1.13,.72-1.76-.04-2.46-1.81-2.53Zm-1.54,2.76c-.69,.18-1.38,.43-2.08,.59,0-.43,.02-.86-.02-1.28,.25,.05,.53,.1,.66,.11,.43,.07,.86,.09,1.29,.02,.63-.06,1.11-.2,2.03-.21-.01,.02-.03,.05-.04,.07-.49,.33-1.17,.48-1.85,.7Z"/><path class="j" d="M71.17,131.2c-.26-.92-.59-1.83-1.02-2.68-.17-.29-.37-.57-.58-.84,.02,.02,.04,.04,.06,.05-1.42-2.19-1.88-5.94-5.01-6.23-.93-.13-1.82,.28-2.62,.71-.74,.47-1.43,1.04-1.93,1.76-.66,.81-1.19,1.73-1.67,2.65-.68,1.51-1.1,3.14-1.23,4.78-.47-1.12-1.13-2.16-1.85-3.13-.71-.85-1.71-1.45-2.74-1.86-.02,0-.04-.01-.06-.02,.53-.22,1.03-.51,1.44-.92,.44-.44,.64-1,.63-1.56,.29-1.24,.22-2.61-.65-3.56-.41-.37-.99-.43-1.52-.52-1.28-.21-2.61-.21-3.84,.23-.13,.05-.44,.12-.6,.16-2.55,.08-3.37,2.17-3.83,4.38-.29,1.08-.22,2.18-.08,3.27,.03,1.67,.07,3.34,.2,5,.05,1.31,.02,2.63,.03,3.94,.03,1.01-.12,2.07,.25,3.04,1.02,2.94,4.2,3.83,6.93,2.7,.9-.31,1.69-.86,2.43-1.45,.01,0,.06-.04,.15-.11,.6-.44,1.18-.91,1.6-1.53,.68-1.04,1.46-2.02,1.91-3.19,.04-.11,.06-.22,.09-.33,.09,.34,.17,.68,.23,1.02,.84,3.46,3.06,7.05,7.1,6.61,2.31-.14,4.24-1.73,5.49-3.59,.55-1.02,.86-2.15,1.24-3.24,.54-1.86,.2-3.8-.56-5.55Zm-21.86,8.26c-.15,0-.31,0-.46-.02l-.2-.04-.15-.05c-.07-.03-.14-.07-.2-.11-.05-.05-.09-.1-.14-.15l-.02-.02c-.08-.12-.16-.25-.23-.38,0-.03-.02-.06-.03-.09,0-.05,0-.1,0-.15,.63,.07,1.25,.11,1.89,.12,.48,.03,.97,.08,1.45,.09-.37,.26-.89,.59-1.73,.76-.06,.01-.12,.02-.18,.03Zm3.93-4.83c0,.39-.05,.77-.09,1.16v.05c-.1,.61-.39,1.01-.55,1.27-.7,.41-1.99,.62-2.99,.78-.57,.14-1.16,.25-1.73,.33,0-.24,0-.49,0-.73,.01-1.91,.02-3.83-.13-5.73,.99,.45,2.11,.55,3.16,.26,.18-.05,.61-.13,.8-.16,.1,0,.2-.02,.3-.01,.13,.03,.36,.1,.54,.16,.05,.03,.1,.06,.15,.09,.09,.08,.17,.16,.25,.25,.01,.02,.03,.05,.05,.08,.09,.28,.16,.57,.2,.86,.05,.44,.05,.89,.03,1.33Zm.07-13.36c.41,.32,.63,.77,.77,1.26-.1-.13-.21-.25-.34-.36-.57-.49-1.27-.78-2-.91,.17-.02,.35-.04,.54-.05,.43-.03,1-.04,1.04,.05Zm12.64,2.36c.51,.38,1.01,.96,1.52,1.58-1.09-1.06-2.09-1.32-4.17-1.24,.73-.63,1.66-1.04,2.65-.34Zm3.09,11c-.3,1.42-.24,.88-.81,2.26-.44,1.04-.77,1.48-.8,1.48-1.54,1.56-1.94,1.5-2.64,1.66-.24,.01-.48,.01-.73,0-.04-.01-.09-.02-.13-.03-.11-.03-.23-.08-.34-.12-.13-.06-.25-.12-.37-.2-.19-.17-.37-.34-.54-.53-.23-.42-.82-1.18-1.13-2.39-.23-.72-.37-1.46-.55-2.19-.14-.43-.29-.86-.38-1.31-.07-.91-.1-1.82-.07-2.73,0-.02,0-.04,0-.06,.04-.17,.14-.73,.17-.95,.24-1.52,.34-1.66,.68-2.52,.18-.5,.41-1,1.06-2.13,.18-.24,.4-.5,.64-.73,.88,.22,1.77,.43,2.56,.89,1.04,.81,1.42,2.23,2.17,3.39,.07,.11,.24,.47,.32,.66,.48,1.46,.39,1.67,.58,2.84,.21,1.11,.32,1.43,.32,1.78,.03,.18-.01,.65-.04,.94Z"/><path class="j" d="M42.14,116.14c-.17-.86-.31-1.79-.9-2.47-.64-.66-1.75-.74-2.46-.15-.7,.54-1.03,1.42-1.57,2.1-.54,.92-1.28,1.73-1.7,2.73-.74,1.88-.4,1.52-.76,3.21-.2,.75-.37,.89-.97,2.4-.68,1.71-.52,1.43-1.39,3.31-.62,1.19-1.17,2.47-1.27,3.83-.06,.73-.09,1.5,.27,2.16,.71,1.27,2.37,1.62,3.58,.84,1.51-1.1,2.57-2.78,3.17-4.53,0-.04,.02-.08,.03-.12,.1-.04,.19-.1,.28-.18,.11-.08,.2-.18,.28-.28,0,.03,0,.06,.01,.09,.05,.49,.14,.97,.29,1.44,.03,.12,.09,.24,.21,.29,.12,.03,.09-.14,.09-.22-.02-.35-.02-.08-.06,.06-.24-.61,.22-2.87,.31-4.07,.07-.39,.12-.79,.14-1.18l.06-.12c0,.54,0,1.08,0,1.62,.12,2.23,.21,4.48,.61,6.68,.18-2.13,.59-4.15,.94-6.42,.34-1.64,.66-3.28,.75-4.95,.12-2.02,.48-4.06,.05-6.06Zm-3.4,3.71s.02-.05,.03-.07c.2-.34,.41-.67,.62-1.01,.06,.65,.1,1.45,.16,2.28-.33-.16-.7-.21-1.07-.16,.06-.39,.13-.73,.27-1.04Z"/><path class="j" d="M33.74,110.28c-.93-.52-1.97-.79-3.03-.92-.85-.17-1.73-.24-2.59-.06-3.13,.55-3.86,4.13-3.96,6.83-.12,1.57,.87,2.85,2.1,3.73,.16,.21,.33,.41,.51,.61,.71,.83,1.64,1.44,2.38,2.23,.09,.14,.17,.3,.24,.45,.05,.13,.11,.3,.15,.44,.01,.19,.01,.38,.01,.57,0,.03,0,.05,0,.08l-.04,.14c-.03,.1-.06,.17-.07,.21h0c-.13,.3-.23,.53-.31,.72-.03,.03-.07,.07-.1,.1l-.05,.03c-.52,.33-1.05,.65-1.61,.92-.14,.05-.29,.09-.43,.12-.09,0-.17,0-.26,0-.04-.01-.1-.02-.18-.05-.31-.14-.54-.21-.93-.55-.25-.11-.73-1.15-.81-1.4-.02-.05-.04-.09-.06-.13l-.04-.08c-.36-.88-.14-1.79-.52-3.12-.28-.52-1.06-.8-1.52-.34-.95,1.08-1.13,2.74-.57,4.05-.16,.67-.22,1.36-.14,2.03,.25,1.87,2.18,2.93,3.9,3.17,2.18,.48,3.17-.65,4.66-1.9l.04-.02c1.95-.96,2.66-3.18,2.84-5.21,.05-1.05,.1-2.2-.51-3.12-.71-.98-1.83-1.64-2.93-2.1-.31-.12-.63-.23-.94-.35-.06-.03-.13-.07-.22-.11-.02-.01-.03-.02-.05-.03-.06-.07-.12-.16-.2-.25l-.07-.09c-.03-.09-.06-.18-.08-.27v-.05c.12-.58,.27-1.16,.48-1.72,.01-.03,.03-.05,.04-.08,.04,0,.08,0,.12,0,.24-.02,.86,0,1.11,0,.19,.05,.37,.12,.56,.17,.11,.04,.22,.07,.33,.1l.1,.06c.14,.1,.27,.2,.41,.3,.14,.12,.27,.26,.4,.39,.53,.87,.27,.56,.62,1.21,.21,.34,.41,.63,.77,.84,1.61,.81,2.75-.12,3.25-1.69,.78-2.57-.79-4.48-2.82-5.86Zm-11.63,13.91c.02-.8,.34-1.68,.85-2.25-.03,.32-.07,.65-.1,.97-.31,.53-.57,1.1-.74,1.7-.01-.14-.02-.28-.01-.43Zm.7-.76c-.05,.62-.02,1.25,.15,1.85,.16,.87,.47,1.73,1.08,2.38,.05,.06,.11,.11,.16,.16-.4-.17-.73-.43-1.04-.76-.57-.95-.61-2.39-.35-3.63Z"/><path class="f" d="M62.39,113.71l3.93-17.25c2.79,4.97,5.21,10.16,7.21,15.49"/><path class="f" d="M76.11,96.81c-.17,3.52,.21,7.07,1.11,10.47,.2,.76,.44,1.53,.9,2.17s1.18,1.14,1.96,1.14c.83,0,1.59-.54,2.04-1.23s.64-1.52,.78-2.34c.59-3.49,.34-7.06,.08-10.58"/><path class="f" d="M90.18,95.96l.72,15.21"/><path class="f" d="M86.31,96.29l9.39-.47"/><path class="f" d="M103.21,96.51c-2.08-.59-4.38,.55-5.59,2.34-1.2,1.79-1.45,4.08-1.18,6.22,.18,1.42,.63,2.88,1.69,3.84,1.63,1.47,4.34,1.22,6.04-.17,1.7-1.39,2.48-3.65,2.6-5.84,.08-1.47-.13-2.99-.82-4.28-.7-1.3-1.94-2.34-2.74-2.11Z"/><path class="f" d="M33.68,115.49c.01-1.87-1.4-3.65-3.22-4.06s-3.86,.6-4.65,2.29-.23,3.9,1.26,5.03c.81,.61,1.81,.91,2.63,1.5,1.69,1.23,2.24,3.79,1.21,5.61-1.03,1.82-3.5,2.66-5.43,1.85s-3.05-3.17-2.46-5.18"/><path class="f" d="M32.91,131.84c2.06-4.54,4.11-9.08,6.42-13.62l.44,16.24"/><path class="f" d="M36.28,125.78l3.29,1.39"/><path class="f" d="M47.1,140.18c-.38-6.04-.76-12.08-.88-17.25,1.85-.67,3.82-.99,5.78-.95,.72,.01,1.52,.12,1.97,.68,.38,.47,.39,1.16,.16,1.72s-.67,1.01-1.13,1.4c-1.61,1.35-3.65,2.16-5.73,3.21,2.23-1.34,5.38-.85,7.09,1.11s1.79,5.14,.18,7.18-4.74,2.68-7.44,2.91Z"/><path class="f" d="M66.64,125.16c-.79-1.14-2.49-1.37-3.76-.8s-2.15,1.76-2.77,3.01c-1.73,3.5-1.69,7.82,.11,11.28,.89,1.71,2.47,3.34,4.39,3.26,1.74-.07,3.12-1.53,3.94-3.07,2.38-4.44,.78-9.78-1.91-13.68Z"/><path class="f" d="M75.68,124.13l.04,20.09"/><path class="f" d="M71.66,124.05l9.76-.05"/><path class="f" d="M86.02,123.66c-.2,5.19-.41,10.39-.55,15.1l9.3-.82"/><path class="f" d="M86.4,131.07l6.48-.85"/><path class="f" d="M86.21,123.92l7.7-1.04"/><path class="f" d="M97.89,139.07c.66-5.64,1.32-11.27,2.89-16.23l5.51,16.63"/><path class="f" d="M99.07,133.42l5.35-.66"/><path class="f" d="M64.9,105.84l5.73-1.28"/><path class="f" d="M109.96,135.57c-.99-5.34-1.31-10.81-.82-15.28,.91-.43,1.85-.86,2.85-.97s2.1,.16,2.75,.94c.6,.72,.7,1.72,.77,2.66l.53,6.8c.07,.85,.13,1.72-.17,2.52-.39,1.06-1.38,1.82-2.44,2.2s-2.21,.46-3.47,1.13Z"/><path class="f" d="M124.47,116.53c-1.09-.54-2.47,.12-3.15,1.13s-.81,2.29-.91,3.5c-.11,1.2-.2,2.44,.16,3.6s1.26,2.22,2.46,2.4c1.61,.24,3.03-1.18,3.61-2.7,1.06-2.81,.29-6.71-2.16-7.93Z"/><path class="f" d="M131.27,128.54c-.1-5.16-.2-10.33-.02-14.92,1.4-.76,3.12-1.53,4.52-.77,1.42,.78,1.67,2.86,.89,4.28-.95,1.73-3.16,2.64-5.06,2.09"/><path class="f" d="M134.28,119.15c.81,2.48,2.13,4.8,3.85,6.76"/><path class="h" d="M105.12,41.24c-2.68-.4-5.5,.27-7.71,1.83-2.21,1.56-3.79,3.99-4.32,6.64-.38,1.92-.18,4.05,.98,5.62,1.1,1.49,2.95,2.3,4.79,2.52s3.7-.11,5.51-.52c2.77-.63,5.58-1.53,7.67-3.44,2.09-1.92,3.25-5.1,2.09-7.68-.72-1.61-2.23-2.77-3.86-3.44-1.63-.68-3.32-1.25-5.15-1.52Z"/><path class="g" d="M104.48,47.22c-1.2-.1-2.44,.34-3.31,1.18-.47,.45-.85,1.1-.68,1.72,.12,.45,.51,.79,.94,.95s.91,.18,1.37,.15c.79-.04,1.6-.2,2.25-.64s1.13-1.22,1.02-2.01-.9-1.46-1.6-1.36Z"/><path class="h" d="M66.42,50.66c-.96-2.35-3.18-4.26-5.47-5.3-2.29-1.04-4.9-1.21-7.39-.88-3.14,.42-6.49,1.9-7.64,4.85-.98,2.51-.04,5.49,1.84,7.42,1.88,1.93,4.53,2.94,7.18,3.4,2.07,.36,4.23,.41,6.25-.2s3.87-1.92,4.82-3.79c.96-1.87,1.06-3.86,.41-5.5Z"/><path class="g" d="M58.14,51.34c-.62-.57-1.47-.89-2.31-.87s-1.67,.38-2.27,.97c-.49,.49-.82,1.22-.59,1.88,.22,.63,.88,.98,1.5,1.21,.79,.28,1.65,.45,2.47,.3s1.61-.69,1.9-1.48-.19-1.54-.71-2.01Z"/><path class="h" d="M116.49,79.63c2.2-.33,2.64-3.13,.83-3.57-1.63-.4-7.97-.92-12.51-.72-18.55,.78-37.11,1.56-55.66,2.35-1.53,.06-3.15,.15-4.44,.98s-2.08,2.66-1.24,3.95c.83,1.28,2.66,1.34,4.18,1.26,23.08-1.24,45.5-.71,68.85-4.24Z"/><path class="h" d="M45.86,80.73c23.56-1.02,70.69-3.03,70.69-3.03"/></g></g></g></svg>