<?xml version="1.0" encoding="UTF-8"?><svg xmlns="http://www.w3.org/2000/svg" xmlns:xlink="http://www.w3.org/1999/xlink" viewBox="0 0 157.84 320"><defs><style>.f,.g{fill:#fff;}.g{stroke:#000;}.g,.h,.i{stroke-miterlimit:10;stroke-width:.25px;}.h{opacity:.97;}.h,.i{stroke:#fff;}.j{filter:url(#d);}</style><filter id="d" filterUnits="userSpaceOnUse"><feOffset dx="5.67" dy="8.5"/><feGaussianBlur result="e" stdDeviation="0"/><feFlood flood-color="#000" flood-opacity=".5"/><feComposite in2="e" operator="in"/><feComposite in="SourceGraphic"/></filter></defs><g id="a"/><g id="b"><g id="c"><g class="j"><path class="i" d="M86.44,136.82c.2-2.56-1.81-4.08-4.04-5.26s-5.39-1.23-7.69-.13c-3.48,1.67-4.34,5.18-4.87,8.29-3.55,20.93-7.1,41.85-10.65,62.78-.73,4.31-1.39,8.93,1.29,12.77,2.68,3.83,10.14,5.96,14.23,2.94-2.76-.13-5.46-.91-7.63-2.21,3.93,.79,8.43-1.36,9.22-4.4-2.53,1.47-5.81,2.18-8.97,1.93,3.74,.18,7.19-2.71,6.59-5.53-.36,2.67-5.9,3.09-8.21,1.07-2.31-2.02-2.18-5.02-1.78-7.68,2.47-16.41,10.46-32,17.88-47.51,2.86-5.99,4.64-12,4.64-17.05Z"/><path class="i" d="M69.92,105.74c.02,3.75-.42,7.5-1.31,11.14"/><path class="i" d="M73.81,107.38c.14-2.35-1.27-3.76-2.84-4.85-1.57-1.08-3.79-1.13-5.4-.12-2.45,1.54-3.05,4.78-3.42,7.64-2.49,19.29-4.98,38.57-7.48,57.86-.51,3.97-.98,8.23,.9,11.77,1.88,3.53,7.12,5.5,9.99,2.71-1.94-.12-3.83-.84-5.36-2.04,2.76,.72,5.92-1.26,6.48-4.05-1.77,1.36-4.08,2.01-6.3,1.78,2.63,.17,5.04-2.5,4.63-5.1-.26,2.46-4.14,2.85-5.76,.98-1.62-1.86-1.53-4.62-1.25-7.08,1.74-15.12,7.34-29.49,12.55-43.79,2.01-5.52,3.26-11.06,3.26-15.71Z"/><path class="i" d="M80.13,136.1c.13,5.02-1.02,10.08-3.31,14.55"/><path class="i" d="M77.35,266.57c8.06-16.79,13.12-35.11,14.85-53.75,.24-2.64,.41-5.36-.39-7.87-.81-2.51-2.82-4.79-5.37-5.09-3.85-.45-6.78,3.47-8.29,7.14-2.46,6.01-3.4,12.54-4.14,19.01-1.46,12.81-2.02,37.92-2.2,38.6-.41,1.56-.8,3.18,.02,4.14,.44,.51,.54,17.46,1.31,26.16,.35,3.96,.75,8.11-.7,11.8-2.11,5.36-7.51,8.41-12.53,11.03l14.96-1.74,.65-6.66c.99,2.38,1.04,7.12,1.04,7.12,0,0,1.56,.02,1.77,.02,.69-6.17,.59-12.39,1.28-18.56,1.2-10.7,2.3-22.04-2.27-31.33Z"/><path class="f" d="M85.07,210.67c2.05,4.37,2.15,9.66,.27,14.11,1.28-1.39,2.44-2.94,3.15-4.71,.71-1.77,.95-3.79,.4-5.62s-1.97-3.43-3.82-3.78Z"/><path class="f" d="M74.98,263.49c-.67,1.71-.8,3.63-.38,5.42-.56-.67-.97-1.47-1.19-2.32-.21-.78-.24-1.67,.21-2.33l.22,.48c.4-.31,.79-.61,1.15-1.26Z"/><path class="i" d="M108.35,118.28c-15.24-4.48-31.6,6.69-38.26,21.12s-5.92,31.05-4.51,46.87c1.28,14.31,3.39,29.49,12.69,40.44,9.42,11.08,25.37,15.71,39.58,12.61,14.21-3.1,26.4-13.34,33.12-26.24,6.71-12.9,8.19-28.2,5.41-42.48-4.57-23.45-20.8-44.32-48.04-52.32Z"/><path class="f" d="M141.22,157.15c-1.21-8.6-5.85-16.33-11-23.32-1.44-1.96-3.02-3.96-5.23-4.99s-5.22-.77-6.61,1.23c-1.24,1.78-.8,4.31,.43,6.1s3.09,3.02,4.85,4.28c6.56,4.69,12.38,10.42,17.57,16.71Z"/><path class="f" d="M142.83,160.45c-.73-.06-1.2,.14-1.37,1.15-.17,5.33,.98,10.69,3.34,15.48,.22,.44,.63,.78,1.11,.85,1.16,.17,1.6-1.14,1.71-2.17,.33-3.19,.18-6.43-.45-9.57-.23-1.17-.55-2.37-1.28-3.32-.63-.82-1-1.48-1.79-1.94-.36-.21-1.07-.46-1.26-.47Z"/><path class="h" d="M95.17,58.85c-5.62-1.88-12.01,.34-16.36,4.36-4.35,4.02-6.97,9.56-8.94,15.15-3.84,10.91-5.56,22.56-5.04,34.12,.26,5.87,1.3,12.16,5.44,16.34,5.3,5.35,13.85,5.5,21.3,4.4,10.87-1.6,22.46-5.9,27.7-15.57,3.02-5.57,3.48-12.24,2.49-18.49s-3.32-12.21-5.66-18.09c-2.15-5.41-4.37-10.93-8.18-15.34-3.8-4.41-9.53-7.59-12.75-6.88Z"/><path class="f" d="M111.17,82.37c-1.35-6.63-4.37-12.91-8.69-18.11-.81-.98-1.72-1.95-2.9-2.41s-2.72-.24-3.44,.81c-1.1,1.62,.31,3.72,1.65,5.15,4.48,4.78,8.96,9.56,13.39,14.57Z"/><path class="f" d="M112.62,86.73c-1.45,.05-2.3,2.14-1.32,3.2,.98,1.06,3.11,.4,3.33-1.03s-1.59-2.7-2.01-2.17Z"/><path class="i" d="M112.92,266.84c8.59-17.39,13.98-36.35,15.82-55.65,.26-2.73,.44-5.55-.42-8.15s-3-4.96-5.73-5.27c-4.1-.46-7.23,3.59-8.83,7.4-2.62,6.22-3.62,12.98-4.41,19.68-1.55,13.26-2.15,39.25-2.34,39.96-.43,1.62-.85,3.29,.03,4.29,.47,.53,.57,18.08,1.4,27.08,.37,4.1,.8,8.39-.75,12.21-2.24,5.55-8.01,8.71-13.35,11.42l15.94-1.8,.69-6.9c1.05,2.46,1.11,7.37,1.11,7.37,0,0,1.66,.02,1.89,.02,.74-6.39,.63-12.83,1.36-19.21,1.28-11.08,2.45-22.81-2.42-32.43Z"/><path class="f" d="M121.14,208.98c2.19,4.52,2.3,10,.29,14.61,1.37-1.44,2.6-3.04,3.36-4.88,.76-1.83,1.01-3.93,.42-5.82s-2.1-3.55-4.07-3.91Z"/><path class="f" d="M110.39,263.65c-.71,1.77-.86,3.76-.4,5.61-.59-.69-1.03-1.52-1.27-2.4-.22-.81-.25-1.73,.22-2.41l.23,.5c.42-.32,.85-.63,1.22-1.3Z"/><path class="i" d="M98.34,108.66c.14-2.35-1.27-3.76-2.84-4.85s-3.79-1.13-5.4-.12c-2.45,1.54-3.05,4.78-3.42,7.64-2.49,19.29-4.98,38.57-7.48,57.86-.51,3.97-.98,8.23,.9,11.77,1.88,3.53,7.12,5.5,9.99,2.71-1.94-.12-3.83-.84-5.36-2.04,2.76,.72,5.92-1.26,6.48-4.05-1.77,1.36-4.08,2.01-6.3,1.78,2.63,.17,5.04-2.5,4.63-5.1-.26,2.46-4.14,2.85-5.76,.98-1.62-1.86-1.53-4.62-1.25-7.08,1.74-15.12,7.34-29.49,12.55-43.79,2.01-5.52,3.26-11.06,3.26-15.71Z"/><path class="i" d="M93.99,110.13c.2,5.23-.87,10.51-3.07,15.25"/><path class="i" d="M107.92,136.83c.2-2.56-1.81-4.08-4.04-5.26s-5.39-1.23-7.69-.13c-3.48,1.67-4.34,5.18-4.87,8.29-3.55,20.93-7.1,41.85-10.65,62.78-.73,4.31-1.39,8.93,1.29,12.77,2.68,3.83,10.14,5.96,14.23,2.94-2.76-.13-5.46-.91-7.63-2.21,3.93,.79,8.43-1.36,9.22-4.4-2.53,1.47-5.81,2.18-8.97,1.93,3.74,.18,7.19-2.71,6.59-5.53-.36,2.67-5.9,3.09-8.21,1.07s-2.18-5.02-1.78-7.68c2.47-16.41,10.46-32,17.88-47.51,2.86-5.99,4.64-12,4.64-17.05Z"/><path class="i" d="M101.87,135.8c.45,6.31-1.21,12.75-4.65,18.06"/><path class="i" d="M82.62,47.99c-3.67-3.12-8.23-4.57-12.67-4.29-4.45,.28-8.62,2.23-12.46,4.49-7.17,4.2-13.65,9.57-19.09,15.84-3.27,3.77-6.27,8.06-7.04,12.99-1.03,6.53,2.2,13.33,7.44,17.35,5.24,4.02,12.21,5.41,18.77,4.6,6.56-.82,12.72-3.7,18.15-7.47,5.16-3.59,9.81-8.09,12.8-13.63,2.99-5.53,4.21-12.17,2.55-18.23s-5.09-9.01-8.43-11.65Z"/><path class="f" d="M84.81,52.78c-.73-.85-1.97-.69-2.08,.15,.33,1.72,1.65,3.04,2.56,4.54,2.17,3.6,1.9,8.1,1.57,12.28,1.96-4.72,1.72-10.29-.63-14.82-.61-1.18-.89-1.46-1.41-2.15Z"/><path class="f" d="M81.85,49.72c-.32-.18-.74-.09-1.01,.15s-.41,.61-.45,.97c-.03,.27-.01,.56,.13,.79,.17,.26,.48,.39,.78,.4,.56,.02,1.1-.41,1.22-.96s-.24-1.1-.67-1.35Z"/><path class="f" d="M65.76,70.13c-1.24,.59-1.89,2.1-1.71,3.46,.19,1.36,1.1,2.55,2.23,3.33,.43,.3,.92,.54,1.44,.6s1.09-.12,1.41-.54c.16-.21,.22-.56,0-.69-.17-.1-.38,0-.57,.07-.75,.29-1.65,.09-2.28-.41s-1.04-1.26-1.21-2.05c-.27-1.25,.02-2.61,.7-3.77Z"/><path class="f" d="M54.04,68.01c.39,.72,.29,1.63-.11,2.34s-1.09,1.23-1.83,1.57-1.54,.54-2.33,.72c.7,.25,1.49,.16,2.17-.13s1.28-.76,1.82-1.26c.49-.45,.96-.96,1.19-1.59s.16-1.41-.33-1.86c-.16-.15-.39-.26-.59-.17s-.22,.44,0,.37Z"/><path class="i" d="M50.44,101.13c2.59-1.53,3.59-5.2,2.24-7.88-1.35-2.69-4.79-4.07-7.66-3.18-2.87,.89-4.9,3.89-4.77,6.9-.8-.35-1.52-.89-2.07-1.57l-.83,4.34c-.72-.4-1.31-1.02-1.68-1.75-.71,1.58-1.06,3.31-1.02,5.03l-1.12-.25c.49,1.66-.99,3.38-2.67,3.79s-3.43-.11-5.06-.67c1.67,2.82,5.01,4.39,8.29,4.45s6.46-1.21,9.19-3.04c2.72-1.82,5.04-4.17,7.45-6.44,.02,0,.04,0-.28,.27Z"/><path class="i" d="M34.73,94.26c1.3-1.05,2.58-2.17,3.53-3.55s1.58-3.04,1.45-4.71c-.2-2.64-2.36-4.9-4.92-5.59s-5.36,.04-7.51,1.58c-2.15,1.54-3.69,3.82-4.74,6.25-2.07,4.82-2.29,10.4-.59,15.37l1.76-6.35c.01,.99,.33,1.98,.9,2.79,.74-2.31,1.96-4.47,3.56-6.3,.05,1.1,.4,2.18,1,3.1l2.3-4.68c.06,.98,.83,1.87,1.79,2.09s2.03-.28,1.45,0Z"/><path class="f" d="M27.44,84.65c-1.64,.74-2.95,2.13-3.76,3.74-.81,1.61-1.14,3.44-1.15,5.24,1.13-3.21,2.82-6.23,4.91-8.98Z"/><path class="f" d="M44.94,103.92l-.16-.23c-.2-.28-.6-.32-.85-.09-1.78,1.65-7.59,4.42-7.59,4.42,0,0,1.33-.1,1.51-.07s.76-.11,.94-.16c2.59-.81,4.32-1.88,6.1-3.42,.13-.11,.15-.31,.05-.45Z"/><path class="f" d="M46.71,101.53c-.18-.04-.19-.03-.32,0s-.23,.12-.31,.22c-.18,.24-.22,.6-.03,.83,.14,.17,.38,.25,.6,.2s.39-.24,.44-.46-.01-.45-.16-.62c-.09-.11-.1-.13-.22-.18Z"/><path class="i" d="M73.16,73.6c-1.05,.93-1.79,1.21-3.08,1.31-1.12,.09-2.23-.41-2.83-1.37-1.08-1.73,.09-3.65,.9-5.38,1.64-3.53,1.77-7.54,2.39-11.38,1.46-9.11,5.86-17.73,12.39-24.25l-9.57-7.14c-.41-.31-.87-.69-.9-1.2-.03-.53,.4-.95,.79-1.3l6.9-6.22c1.99-1.79,3.99-3.6,6.34-4.88s5.1-2.01,7.71-1.47c3.86,.79,7.41,3.68,9.54,6.99,2.14,3.31,3.28,7.37,6.47,9.69-3.42,2.97-7.92,6.65-12.13,8.31-5.73,2.25-9.61-.21-10.21-.11-.72,.12-3.12,2.34-4.76,4.4-7.34,9.27-10.05,22.61-9.32,32.46,.04,.58-.2,1.15-.64,1.54Z"/><path class="f" d="M74.19,23.86c-.17-.17-.48-.17-.64,0s-.15,.49,.03,.64c.08,.07,.18,.11,.28,.09,.14-.02,.24-.15,.28-.29s.02-.28,.05-.45Z"/><path class="f" d="M108.15,26.75c-2.52-1.81-3.39-5.1-5.06-7.71-1.92-3-5.06-5.19-8.54-5.95-3.48-.76-7.25-.09-10.25,1.83-3.64,2.33-6.12,6.35-10.09,8.07,3-1.18,5.49-3.34,8.08-5.26,2.59-1.92,5.5-3.69,8.72-3.85,3.99-.2,7.73,2.12,10.49,5.01,1.54,1.62,2.88,3.44,3.95,5.4,.63,1.15,1.45,2.53,2.69,2.47Z"/><path class="f" d="M76.15,22.68c-.18,.14-.36,.28-.5,.46s-.23,.4-.21,.63c.02,.24,.17,.45,.31,.64l.86,1.18c-.31-.27-.72-.38-1.1-.53s-.77-.39-.89-.79c-.13-.43,.11-.9,.46-1.17s.8-.39,1.08-.42Z"/><path class="f" d="M104.27,30.35c-4.03,2.97-9.54,3.3-14.39,2.04-4.85-1.26-9.2-3.91-13.47-6.53,3.94,3.31,8.24,6.39,13.21,7.69s10.75,.54,14.65-3.2Z"/><path class="f" d="M107.8,27.62c-1.7-.88-2.68-2.67-3.72-4.27-1.83-2.81-4.18-5.36-7.14-6.92-2.96-1.57-6.59-2.06-9.71-.85-3.23,1.26-5.56,4.13-8.61,5.78-.59,.32-1.21,.6-1.69,1.06s-.8,1.17-.59,1.8c.19,.58,.75,.95,1.28,1.27,4.67,2.79,9.62,5.35,15.01,6.16,5.38,.8,11.32-.42,15.17-4.02Z"/><path class="f" d="M87.79,34.62c-1.2-.28-2.33-.86-3.27-1.65-.24-.2-.5-.43-.81-.4-.35,.04-.58,.42-.56,.77s.22,.66,.44,.93c.52,.64,1.23,1.18,2.05,1.29s1.74-.32,2.15-.94Z"/><path class="f" d="M80.37,43.01c-.35,.58-1.17,.7-1.8,.45s-1.08-.79-1.49-1.32c-.15-.19-.3-.4-.52-.51s-.52-.11-.67,.08c-.14,.17-.12,.42-.05,.63,.13,.4,.38,.74,.65,1.05,.38,.44,.8,.86,1.33,1.11s1.17,.3,1.68,.01,.81-.95,.86-1.51Z"/><path class="g" d="M91.69,20.89c.3-1.85-.88-3.77-2.59-4.54s-3.79-.46-5.34,.59-2.57,2.77-3.01,4.59c-.36,1.51-.33,3.16,.3,4.58s1.91,2.6,3.44,2.89c2.04,.39,4.13-.82,5.32-2.52s1.59-3.81,1.88-5.6Z"/><path d="M87.45,24.36c-.72,.55-1.21,.67-2.12,.72-.86,.05-1.96-.41-2.43-.77-.75-.57-.92-1.51-.97-2.22-.05-.84,.48-1.88,1.47-2.42,.93-.5,2.03-.82,2.95-.46,.92,.36,1.49,1.52,1.72,2.36-.48-.34-.9-.99-1.51-1.15s-1.29-.15-1.82,.22c-.6,.41-.96,.92-.9,1.63,.05,.61,.42,1.43,1.04,1.72,.81,.37,2.64,.08,3.1-.81-.18,.21-.39,1.06-.55,1.17Z"/><path d="M93.98,2.32l-.62-.59c-.45,.21-.58,.79-.65,1.28l-.51,3.64c-.04,.29-.05,.64,.2,.8,.19,.12,.45,.04,.61-.12s.23-.38,.3-.6c.46-1.52,.61-3.13,.66-4.42Z"/><path d="M102.57,3.85l-3.2,4.89c-.11,.16-.22,.33-.24,.53s.05,.42,.23,.49c.23,.1,.48-.07,.67-.24,1.22-1.11,2.24-2.44,2.98-3.91,.16-.31,.3-.64,.28-.99s-.29-.7-.72-.77Z"/><path d="M108.84,10.62c-1.51,1.09-3.28,1.81-4.73,2.98-.25,.2-.52,.51-.4,.81,.08,.2,.31,.31,.52,.31s.42-.08,.62-.17c1.39-.58,2.79-1.24,3.83-2.33,.22-.23,.42-.48,.47-.79s-.1-.67-.32-.83Z"/><path d="M115.11,19.48c-1.56,.29-3.17,.31-4.73,.05-.43-.07-.87-.16-1.28-.04s-.79,.51-.72,.93c.09,.52,.71,.72,1.23,.79,1.85,.25,3.82,.07,5.42-.89,.18-.11,.37-.25,.42-.46,.06-.26-.15-.53-.41-.62s-.54-.06,.08,.23Z"/><path d="M83.96,4.1c-.28,1.72,.15,3.54,1.17,4.96,.24,.33,.58,.68,.99,.64,.3-.03,.55-.26,.66-.54s.12-.59,.09-.89c-.13-1.3-.83-2.46-1.5-3.58-.14-.23-.29-.47-.5-.64s-.51-.25-.76-.14-.38,.46-.14,.19Z"/><path d="M78.3,6.55c1.36,1.36,2.42,3.01,3.09,4.81,.07,.19,.14,.4,.13,.6s-.12,.42-.31,.5c-.19,.08-.41,0-.56-.12s-.25-.31-.34-.49c-.56-1.11-.91-2.35-1.7-3.31-.25-.3-.54-.58-.75-.91s-.32-.76-.16-1.12c.27-.09,.57-.06,.6,.04Z"/><path d="M77.62,15.51c-1.16-1.26-2.2-2.62-3.11-4.07-.15-.24-.3-.49-.53-.65s-.55-.24-.79-.1c.16,.98,.62,1.9,1.2,2.71s1.29,1.52,1.99,2.23c.14,.14,.29,.29,.47,.37s.41,.1,.57-.02,.21-.39,.19-.46Z"/><path d="M107.14,35.18c-.35-.29-.78-.48-1.23-.53-.12,.22-.09,.5,.02,.73s.29,.42,.46,.6l1.81,1.9c.16,.17,.37,.35,.59,.29,.19-.05,.29-.27,.28-.47s-.12-.37-.23-.54c-.56-.86-1.28-1.62-1.72-1.99Z"/><path d="M99.99,38.75c.24,1.53,.51,3.14,1.5,4.32,.1,.12,.22,.25,.37,.3s.35,.02,.43-.12c.09-.15,.02-.34-.05-.49l-1.59-3.68c-.05-.12-.11-.25-.2-.34s-.25-.14-.36-.08-.16,.25-.1,.1Z"/><path d="M89.57,39.63c-.07-.23-.23-.43-.44-.54-.42,1.29-.42,2.67-.42,4.02,0,.23,0,.47,.11,.68s.35,.36,.57,.29c.24-.08,.32-.37,.37-.61,.25-1.46,.08-2.98-.19-3.83Z"/><path d="M76.39,29.26c.14-.11,.27-.23,.35-.39s.07-.37-.05-.49c-.2-.18-.52-.05-.74,.09-1.11,.71-2.17,1.51-3.15,2.4-.11,.1-.23,.21-.28,.36s0,.33,.14,.39c.11,.04,.22,0,.33-.05,1.34-.58,2.46-1.53,3.4-2.31Z"/><path class="i" d="M52.33,68.95l-5.26-23.95c-.43-1.96-.87-3.95-1.7-5.78-2.12-4.65-6.51-7.79-10.65-11.39,2.31-1.64,6.74-5.36,6.51-6.28-.33-1.28-1.89-3.82-2.56-4.96-1.71-2.87-4.22-4.81-7-6.66-3.05-2.04-6.99-2.58-10.55-1.71-3.56,.87-6.73,3.08-9.02,5.95-2.21,2.78-4.71,6.96-4.97,9.37-.1,.96-1.98,1.93-1.76,2.78,.28,1.11,3.05,1.89,3.86,2.7,3.42,3.42,7.98,5.22,13.52,4.78,1.99-.16,6.74-2.7,8.73-2.59,2.55,.14,4.68,1.98,6.28,3.98,6.26,7.83,6,18.66,7.51,28.56,.28,1.86,.54,3.61,.69,5.22,.02,.25,1.57,2.37,3.23,2.25s3.11-1.27,3.17-2.28Z"/><path class="i" d="M22.57,36.65c-.1,.21-.29,.37-.51,.45"/><path class="f" d="M39.04,21.69c-1.89-2.2-3.81-4.41-6.11-6.17-2.3-1.76-5.06-3.06-7.96-3.15-3.74-.12-7.33,1.78-10.02,4.38-2.7,2.6-3.67,4.08-5.58,7.3,1.12,1.55,2.43,2.63,4.19,3.3,1.76,.67,3.76,.32,5.6,.69,2.63,.53,8.73-.35,11.27-1.2,4.3-1.45,5.08-3.16,8.61-5.14Z"/><path class="f" d="M38.63,23.03c-3.79,3.49-8.62,5.85-13.71,6.69s-10.42,.15-15.13-1.94c1.88,1.21,4.01,1.99,6.19,2.45,8.08,1.73,16.97-1.06,22.66-7.2Z"/><path class="f" d="M38.47,19.35c-2.25-4.67-6.97-7.94-12.07-8.84-2.94-.52-6.06-.29-8.74,1.01-2.43,1.18-4.4,3.2-5.85,5.48-1.46,2.28-2.44,4.84-3.26,7.41,1.32-6.31,6.75-11.55,13.11-12.65s13.23,2.03,16.83,7.58Z"/><path class="f" d="M10.59,27.1c-.99-.5-1.82-1.29-2.38-2.25-.08,.43-.37,.81-.83,1.1,.71,.74,1.81,1.08,3.21,1.15Z"/><path class="f" d="M20.04,31.26c-1.65,.07-3.31-.05-4.93-.36,1.55,.83,3.42,1.04,5.11,.56,.02-.13-.15-.25-.18-.2Z"/><path class="f" d="M33.96,27.8l-3.89,2.96c.8,.21,1.66,.02,2.38-.38s1.29-1.02,1.77-1.69c.12-.16,.23-.35,.22-.55s-.27-.49-.47-.34Z"/><path class="f" d="M44.05,37.86l-3.13,1.17c-.08,.03-.16,.06-.21,.12-.1,.11-.07,.29,.02,.4s.23,.18,.37,.22c.63,.22,1.33,.18,1.99,.04,.33-.07,.67-.18,.94-.38s.48-.51,.49-.85-.22-.69-.47-.71Z"/><g><path class="g" d="M19.4,16.63c-1.12-1.03-2.79-.97-4-.09s-1.98,2.47-2.27,4.12c-.45,2.54,.29,5.49,2.15,6.85,1.52,1.12,3.61,.97,5.05-.29s2.2-3.53,1.94-5.64c-.26-2.11-1.6-3.79-2.87-4.95Z"/><path d="M18.66,19.46c-.66-.33-1.05-.33-1.76-.16-.67,.16-1.41,.84-1.7,1.28-.46,.7-.41,1.6-.3,2.26,.13,.78,.74,1.61,1.6,1.87,.81,.24,1.71,.27,2.34-.28s.84-1.74,.85-2.57c-.3,.42-.5,1.12-.93,1.41s-.95,.44-1.43,.23c-.54-.24-.92-.62-1.01-1.28-.08-.57,.04-1.41,.46-1.82,.54-.53,2-.7,2.53,0-.18-.15-.51-.87-.65-.95Z"/></g><path d="M44.36,16.89c-1.06,.23-2.14,.38-3.23,.44-.45,.02-1.05-.11-1.05-.56,0-.37,.45-.55,.81-.64l5.78-1.33c.28-.07,.67-.08,.77,.19,.08,.21-.08,.42-.24,.58-.88,.84-2.08,1.34-2.84,1.32Z"/><path d="M44.42,30.84l-4.37-2.62c-.2-.12-.47-.24-.66-.11-.27,.19-.09,.61,.12,.87,.61,.75,1.32,1.42,2.1,1.99,.41,.3,.86,.57,1.36,.64s1.06-.13,1.46-.77Z"/><path d="M24.27,37.6l-1.32-.87c-.38,.7,.17,1.51,.58,2.2,.53,.88,.86,1.89,.94,2.92,.03,.39,.04,.81,.25,1.15s.73,.51,1.01,.23c.2-.2,.18-.52,.15-.8-.25-1.94-.99-3.82-2.15-5.4-.11-.15-.25-.31-.43-.34s-.39,.2,.97,.91Z"/><path d="M15.95,37.38c-.2-.36-.52-.65-.89-.82l-1.07,4.47c-.04,.16-.07,.33,0,.47,.1,.19,.37,.24,.57,.16s.35-.26,.47-.44c.95-1.37,1.22-3.33,.93-3.85Z"/><path d="M9.05,33.98l.56-1.35c-.41-.27-.94,.09-1.27,.46-1.14,1.27-1.91,2.87-2.22,4.55,1.43-.93,2.4-2.39,2.93-3.67Z"/><path d="M5.86,19.21l.08,.87L.49,17.14c-.22-.12-.47-.28-.49-.53-.02-.25,.23-.46,.48-.49s.5,.07,.73,.17c1.46,.64,2.85,1.43,4.14,2.36,.31,.22,.63,.49,.67,.87s-.42,.77-.17-.31Z"/><path d="M8.93,14.41c-1.74-.84-3.33-2-4.66-3.41-.17-.18-.33-.49-.13-.64,.11-.09,.27-.05,.41,0,1.98,.65,3.72,1.97,4.89,3.69-.3,.26-.72,.36-.5,.36Z"/><path d="M11.18,4.63l2.39,3.98c.3,.5,.85,1.08,1.37,.8,.52-.28,.32-1.08,.03-1.59-.57-.99-1.24-1.92-1.99-2.77-.25-.29-.54-.58-.91-.67s-.84,.13-.88,.25Z"/><path d="M20.2,.25l-.52,4.92c-.04,.4-.02,.93,.36,1.07,.46,.17,.83-.4,.96-.87,.37-1.3,.49-2.66,.38-4-.03-.32-.08-.66-.25-.94s-.5-.48-.82-.42-.55,.47-.11,.23Z"/><path d="M30.89,2.01l-3.04,4.15c-.1,.13-.2,.29-.18,.45,.06,.4,.67,.31,1,.09,1.26-.82,2.27-2.02,2.87-3.4,.13-.3,.23-.65,.08-.93s-.68-.32-.73-.37Z"/><path d="M40.09,8.07l-4.07,2.98c-.34,.25-.71,.71-.45,1.03,.22,.27,.66,.13,.97-.04,1.32-.73,2.56-1.61,3.68-2.62,.2-.18,.41-.38,.51-.64s.06-.59-.17-.74-.61-.01-.47,.03Z"/></g></g></g></svg>