<?xml version="1.0" encoding="UTF-8"?><svg xmlns="http://www.w3.org/2000/svg" xmlns:xlink="http://www.w3.org/1999/xlink" viewBox="0 0 167.49 275.09"><defs><style>.f,.g{fill:#fff;}.h{fill:none;}.h,.i,.j,.g{stroke-width:.75px;}.h,.j,.g{stroke:#fff;stroke-miterlimit:10;}.i{stroke:#000;stroke-linejoin:bevel;}.k{filter:url(#d);}</style><filter id="d" filterUnits="userSpaceOnUse"><feOffset dx="8.5" dy="5.67"/><feGaussianBlur result="e" stdDeviation="0"/><feFlood flood-color="#000" flood-opacity=".5"/><feComposite in2="e" operator="in"/><feComposite in="SourceGraphic"/></filter></defs><g id="a"/><g id="b"><g id="c"><g class="k"><path d="M75.63,131.1c.18-2.56,1.55-10.18,.51-13.64-.36-1.2-.73-2.39-1.09-3.6-.84-2.85-3.24-4.73-5.2-6.83-2.88-3.08-6.53-4.34-10.72-3.26-5.65,1.46-7.49,7.34-8.47,12.48-.69,3.62-.61,7.45-.97,11.12-.35,3.65-.5,7.46-1.12,11.06-.47,2.69,.01,5.1-2.46,6.84-2.41,1.7-4.75,3.57-6.87,5.63,3.06-1.17,5.79-3.48,8.81-4.77-1.69,1.24-1.89,4.93-2.42,6.8-1.01,3.54-1.7,7.09-2.37,10.71-.18,.95-.2,2.48-.76,3.19-.62,.78-2.18,1.37-2.97,2.15-2.11,2.08-4.17,3.56-5.69,6.04,1.81-.8,3.37-2.61,4.96-3.78,1.27-.94,2.46-2.42,4.13-2.6,.73,1.02-.64,4.89-.88,6.15-.53,2.83-1.53,5.95-1.08,8.84,.82,5.3,6.29,8.97,11.42,6.93,3.05-1.21,5.53-3.82,6.92-6.69,1.66-3.42,3.42-6.66,4.25-10.42,1.57-7.12,3.71-14.09,5.78-21.06,.99,.88,1.98,1.88,3.13,2.64,1.04,.69,3.28,2.06,4.53,1.51-1.88-.75-3.38-1.86-4.57-3.56-.56-.8-1.99-2.27-2.19-3.24-.17-.82,.49-1.37,.89-2.09,.95-1.71,1.48-3.67,2.25-5.47,2.42-5.61,4.04-12,2.25-11.07Z"/><path d="M45.28,271c-.2-10.46,.32-20.61,2.25-30.93,.98-5.22,2.25-10.36,3.21-15.56,.78-4.23,1.26-8.5,2.08-12.7,1.11-5.65,2.99-11.1,4.04-16.77,.38-2.08,.98-4.02,1.43-6.1,.48-2.24,1.57-4.39,1.78-6.67,.11-1.23,.22-2.18-.18-3.29-.48-1.31-1.17-2.74-2.11-3.8-1.6-1.8-3.84-2.68-6.24-2.75-3.39-.09-6.58,2.18-8.37,5.02-1.07,1.69-1.29,3.54-2,5.36-1.05,2.7-1.97,5.77-2.54,8.62-.75,3.73-1.67,7.4-2.38,11.14-.58,3.1-1.14,6.33-2.07,9.34-1.58,5.15-2.52,10.72-4.85,15.42-.76,1.54-1.74,3.18-3.33,4.01-2.36,1.24-4.77,.28-7.22,.19,1.62,2.28,8.01,3.96,9.91,1.54,.05,2.57-1.09,5.55-2.07,7.86s-1.83,3.37-3.76,4.59c-1.46,.93-3,1.89-4.4,3.02-1.63,1.3-3.37,2.46-4.93,3.83-1.05,.92-2.21,1.67-3.27,2.6-1.83,1.61-3.18,3.64-4.92,5.31-3.22,3.1-4.35,6.15-5.21,10.5-.96,4.87,3.36,4.57,6.94,3.98,4.4-.73,8.34-1.02,12.8-.69,3.82,.28,7.57-1.43,11.38-.99,2.99,.35,5.54,.18,8.43-.25,1.09-.16,2.16-.41,3.04-1.01,.65-.44,1.2-1.52,2.55-.83Z"/><path d="M126.35,117.28c-2.47-3.3-5.89-9.79-11.22-9.45-2.53,.16-4.87,2.53-6.16,4.49-2.1,3.17-2.09,8.04-1.42,11.65,.38,2.01,1.17,3.83,1.54,5.87,.41,2.26,.75,4.55,1.05,6.82,.23,1.77,.57,3.46,.86,5.2,.24,1.4,.14,2.87,.39,4.23-.6,.43-1.55,.59-2.26,.89-1.4,.59-2.87,1.36-4.07,2.32-2.48,1.97-3.86,4.56-5.31,7.21,2.39-1.6,4.07-3.94,6.37-5.49,1.9-1.28,3.28-2.36,5.58-1.58-.26,4.69-.36,9.44-1.12,14.1-.54,3.33-.97,6.76-1.61,10.15-.37,1.96-.88,3.94-1.12,5.92-.29,2.39,.57,4.07,2.27,5.58,2.03,1.81,3.74,2.87,6.49,3.23,3.06,.4,5.67-2.13,7.14-4.58,1.78-2.96,2.19-6.79,2.35-10.2,.12-2.7,.68-5.32,.88-8.01,1.2,1.94,4.48,4.45,6.87,4.39-1-1.85-2.95-3.27-4.39-4.9-1.03-1.16-2.1-1.94-1.98-3.62,.39-5.38,2.46-10.64,2.71-16.04,.16-3.34,.35-6.99,.12-10.34-.19-2.72-.83-5.52-1.12-8.21-.21-1.98-.82-3.84-1.22-5.75-.35-1.69-1.08-3.11-1.64-3.87Z"/><path d="M136.57,269.21c-.16-1.47-.26-7.09-1.47-9.31-.49-.91-1.32-1.77-1.85-2.7-.98-1.72-2.06-3-3.34-4.51-2.57-3.04-5.55-5.53-8.92-7.67-1.28-.81-2.34-1.74-3.54-2.66-.68-.52-1.93-.89-2.48-1.4-1.21-1.09-.63-2.86-.36-4.26,1.23-6.57,1.77-13.08,2.53-19.69,.28-2.39,.87-4.78,1.32-7.15,.22-1.17,.17-2.55,.41-3.6,1.81,.61,3.06,3.37,4.84,4.35s2.34,.77,3.97-.08c-3.53-.26-6.55-5.09-7.16-8.12-.33-1.62,.01-3.65,.32-5.28,.51-2.68,1.26-5.11,2.04-7.66,1.63-5.32,2.97-13.12-1.89-17.1-1.84-1.5-5.65-2.78-7.83-1.32-1.7,1.14-3.07,4.06-3.63,5.98-.83,2.85-1.12,5.64-1.59,8.58-.61,3.78-1.69,7.41-2.69,11.08-1.2,4.43-1.54,9.1-2.88,13.5-1.48,4.88-2.11,10.11-3.07,15.14-.51,2.67-.94,5.66-.93,8.38,0,1.33,.3,2.51,.13,3.86-.14,1.18-.46,2.36-.68,3.53-.48,2.59-1.19,5.22-1.4,7.84-.17,2.06-.41,4.19-.92,6.22-.84,3.29-2.37,6.21-2.72,9.66-.37,3.62,3.75,4.26,6.52,4.78,1.91,.36,3.81,.77,5.74,.93,2.34,.19,4.69,0,6.97,.28,4.04,.48,8.12,.44,12.19,.28,2.5-.1,5.02,.15,7.33-.16,1.71-.23,4.18-.24,5.04-1.73Z"/><path d="M92.82,10.8c1.88-2.6,5.95-6.86,4.57-10.8-.36,2.65-2.23,4.53-3.65,6.64-1.33,1.98-2.77,4.11-5.32,4.66-1.55,.33-3.24,.07-4.84,.22-2.26,.22-4.55,.65-6.51,1.89-2.14,1.36-4.61,2.03-7.06,2.62-2.83,.69-5.78,.67-8.53,1.86-2.3,1-4.26,3.01-6.1,4.67-1.51,1.37-2.85,2.79-4.24,4.29-1.19,1.29-2.27,2.68-3.1,4.23-.5,.94-.74,2.14-1.31,2.98-.46-.18-.65-1.09-.75-1.55-.31-1.42,.08-2.64,.35-4.04,.25-1.32,.21-2.8,.65-4.05-1.98,3.48-3.44,8.15-2.43,12.11,.23,.92,.16,.69-.45,1.44s-1.03,1.6-1.56,2.41c-1.4,2.18-2.23,4.39-3.26,6.75-.13,.29-.25,1.01-.57,1.11-.22,.07-.83-.42-1.08-.5-.61-.21-1.32-.27-1.95-.35-1.98-.25-4.92,.9-6.11,2.46-.57,.75-.9,2.07-1.34,2.93-.51,.99-.73,1.3-.62,2.27,.33,2.95,1.1,7.36,3.25,9.45-.08,.4-.55,.38-.91,.64-.42,.31-.76,.87-1.11,1.26-1.32,1.48-2.53,3.01-3.37,4.83-.71,1.54-1.25,3.3-1.79,4.93-.65,1.96-1.47,3.86-1.86,5.9-.44,2.29-1.06,4.7-.88,7.08,.03,.46,.38,.84,0,1.17-.43,.36-1.67-.17-2.09-.28-1.27-.33-2.37-.98-3.6-1.36-.69,1.02,2.05,1.51,2.6,1.7,1.01,.36,1.64,.94,2.54,1.45,1.19,.67,.8,.93,.56,2.34s-.1,3.18,.17,4.58c.67,3.49,1.49,7.04,3.63,9.91,1.02,1.36,1.92,2.68,3.34,3.63,.59,.4,1.15,.89,1.76,1.26s1.42,.36,1.89,.82c-.19,.61-.72,.82-1.07,1.3-.66,.93-.97,2.48-1.28,3.54-.7,2.43-1.86,6.02-.96,8.51-.17-1.4,.45-2.79,.8-4.12,.52-2.02,1.31-3.95,2.25-5.81,.84-1.66,2.01-3.58,3.89-4.19,1.69-.55,3.6,.7,5.34,.85,1.53,.13,4.03-.03,5.42,.78-.82,1.15-1.37,2.4-1.73,3.76-.39,1.49-.72,3.03-.77,4.57-.03,.91,.36,1.91,.21,2.79-.56-1.37,.4-3.72,1.1-4.93s1.42-2.74,2.21-3.95c.51-.78,1.66-1.56,2.53-1.7,1.31-.21,2.93,.03,4.26,.07,1.2,.03,2.68,.04,3.81,.49,1.34,.52,1.7,1.68,2.4,2.86,1.34,2.27,3.39,3.88,5.55,5.31,2.23,1.48,4.85,2.83,7.33,3.82,2.6,1.03,5.74,1.07,8.5,1.51,4.09,.65,8.21,1.13,12.36,.56,2.63-.36,5.27-1.05,7.93-1.12,3.35-.09,7.06-1.84,10.11-3.13,1.42-.6,2.89-1.72,4.19-2.65,1.93-1.39,3.97-2.81,6.01-4.03,2.26-1.35,4.18-3.3,6.28-4.88,2.23-1.68,4.65-2.85,6.62-4.84,1.94-1.96,4-3.78,5.97-5.71,.88-.86,1.79-1.7,2.57-2.65,.38-.46,.85-.81,1.23-1.25,.43-.49,.6-1.11,1.09-1.55,1.45-1.3,3.29-2.92,4.04-4.75,.17-.41,.27-1.17,.76-1.36,.54-.21,2.05,.68,2.69,.78,1.45,.23,3.07-.03,4.48-.34,1.26-.28,3.48-1.25,4-2.45-.74-.3-1.94,.47-2.78,.63-1.25,.24-2.6,.43-3.86,.48-1.58,.07-3.22-.28-4.32-1.49,.41-.69,1.36-1.35,1.91-2.02,1.02-1.26,1.52-2.49,2.14-3.99,.85-2.07,1.96-4.15,2.45-6.35,.24-1.08,.07-1.1,1.12-1.32s2.15-.51,3-1.12c1.35-.97,2.6-2.1,3.65-3.39,.37-.55,.77-1.08,1.2-1.58,.35-.3,.68-.63,.98-.98,.12-.36,.25-.54-.02-.89-2.1,2.39-6.45,6-9.93,5.36,.14-.62,.58-1.27,.76-1.93,.16-.55,.39-1.09,.56-1.65,.41-1.3,.42-2.84,.36-4.2-.09-2.29,.19-4.66-.19-6.83-.13-.76-.48-1.8-.8-2.51-.36-.8-.77-1.07-1.6-1.11-.7-.03-1.27,.16-1.7-.57-.31-.53-.71-1.86-.73-2.47s.34-1.35,.39-2.01c.07-.91-.26-1.71-.54-2.57-.88-2.67,.61-5.72,1.2-8.37,.74-3.35,2.06-6.84,1.3-10.3-.5-2.28-2.37-4.37-4.6-4.87-2.98-.67-4.97,2.07-6.46,4.09-.97,1.32-1.72,2.78-2.55,4.25-.45,.79-1.26,1.8-1.36,2.72-.58-2.05-.62-5.32-3.09-6.11-1.05-.34-1.49-.03-2.15-1.13-.71-1.2-1.66-1.75-2.62-2.71-1.87-1.89-3.83-3.62-5.69-5.5-.98-.99-1.84-2.36-3.04-3.14-1.21-.78-2.62-1.28-3.62-2.36,1.74-.85,3.76-.89,5.56-.28,.97,.33,1.97,.47,2.9,.92,.62,.3,1.05,.81,1.66,1.06,.02-1.55-2.62-1.91-3.64-2.19-1.45-.4-2.57-1.07-4.12-1.1-1.12-.02-2.44-.09-3.52,.09-.49,.08-1.02,.5-1.52,.48-.63-.03-.89-.53-1.34-.88-2.54-1.95-5.4-2.62-8.5-2.95-1.69-.18-3.38-.49-5.06-.55-1.36-.04-2.67,.45-4.03,.61-1.24,.14-2.43,.48-3.66,.73-.94,.19-2.45,.72-3.36,.38,.14-.04,.28-.09,.21-.07Z"/><path class="j" d="M138.43,38.19c-1.32-1.74-2.94-3.25-4.77-4.44-1.52-.99-3.32-1.78-5.1-1.43-2.12,.42-3.66,2.45-4.05,4.58s.17,4.32,.97,6.33c1.32,3.3,3.31,6.32,5.82,8.84,.6,.6,1.29,1.2,2.13,1.3,1.33,.16,2.46-.97,3.15-2.12,1.81-3.01,2.15-6.68,2.13-10.19,0-1.41-.13-2.97-.29-2.87Z"/><path class="j" d="M56.12,64.97c-.27,.21-.6,.34-.95,.37-.83,.07-1.45,.12-2.24-.23-.25-.11-.5-.24-.74-.38-.62-.37-1.14-.94-1.71-1.38-1.34-1.03-2.48-2.39-3.54-3.7-1.09-1.34-1.92-2.7-2.12-4.45-.24-2.06,.23-4.03,1.56-5.65,.72-.88,2.22-1.83,3.31-2.16,.31-.09,.62-.17,.93-.25,.63-.16,1.39-.12,2.02,0,.76,.15,1.46,.64,2.12,1.03,1.65,.97,2.74,2.8,3.4,4.55,.79,2.1,.95,4.38,.79,6.6-.07,1-.42,2.05-.85,2.96-.34,.72-.62,1.46-1.21,2.03-.26,.25-.55,.48-.78,.66Z"/><path class="j" d="M154.58,51.35c-.04-.59-.23-2.05-.38-2.42-.5-1.2-1.33-1.04-1.79-.06-.02,.04-.4,1.71-.41,1.74-.4,1.25-.46,1.74-.95,2.98-.29,.75-.51,1.55-.86,2.28-.28,.57-.62,1.12-.94,1.67-.19,.32-.39,.63-.6,.93-.63,.91-1.21,1.84-1.86,2.74-.57,.79-1.01,1.68-1.66,2.41-.28,.3-.49,.66-.7,1.01-.31,.53-.73,.9-1.09,1.37-.38,.51-.68,1.11-1.15,1.53-.2,.18-.38,.39-.52,.6-.18,.28-.47,.6-.48,.94-.04,1.47,1.35,1.13,2.31,1.17,.26,0,1.95-.08,3.2,.05,.58,.06,2.48-.34,3.57-.64,.63-.18,1.31-.2,1.93-.43,.89-.32,3.32-1.27,3.62-1.5,.47-.35,1.03-.68,1.39-1.15,.41-.54,.73-1.06,.9-1.44,.13-.29,.17-.62,.29-.92,.57-1.42,.38-2.13,.21-2.96-.14-.69-.41-.95-.78-1.54-.31-.49-.59-.96-.94-1.4-.26-.32-.57-.88-.68-1.25-.29-1.04-.21-.62-.6-1.63-.21-.53-.61-1.66-.74-2.21-.08-.31-.4-1.56-.29-1.86,.01,0-.04-.7,0,0Z"/><path class="j" d="M29.95,67.72c.22,1.96,.38,4.03,1.41,5.77,.57,.97,1.02,1.94,1.92,2.63,1.67,1.26,3.85,1.95,5.94,1.83,.43-.03,.92-.06,1.32-.21,.26-.09,1.12-.44,1.37-.52,.48-.14,.4,.65,.34,.77-.24,.49-.34,1.14-.65,1.77s-.48,1.35-.71,1.99-.48,1.2-.66,1.86-.44,1.28-.74,1.88c-.52,1.03-.62,1.29-1.13,2.31-.27,.54-.82,1.2-1.1,1.73-.17,.32-.77,1.05-1.02,1.32s-.95,.85-1.21,1.08c-.91,.82-1.54,1.21-2.7,1.66-1.01,.39-2.23,.41-3.28,.2s-1.77-1.11-2.42-1.82c-.87-.94-1.56-1.99-1.79-3.29-.39-2.24-.35-4.5,.24-6.79,.24-.93,1.3-4.31,1.53-5.08,.37-1.27,.88-2.49,1.38-3.71,.41-1.01,.66-2.03,1.07-3.03,.23-.56,.41-1.06,.69-1.62,.03,0,0-.24,.2-.72Z"/><path class="j" d="M138.52,30.37c-.44,.14-.75,.39-.93,.77-.14,.13-.15,.27-.03,.42,.01,.18,.08,.38,.13,.55,.09,.32,.2,.63,.32,.94,.26,.65,.56,1.27,.92,1.87,.31,.52,.54,1.23,1.13,1.5,.36,.17,.77,0,.94-.37,.06-.13,.02-.34,.06-.49,.03-.11,.12-.2,.13-.31,.05-.29-.06-.69-.1-.98-.08-.66-.48-1.48-.94-1.96-.42-.44-.73-.98-1.21-1.37-.22-.18-.72-.25-.44-.59Z"/><path class="g" d="M135.67,37.53c-.26,.12-.54,.47-.73,.69-.52,.59-.81,1.25-1.1,1.98-.55,1.37-.88,2.82-1.23,4.26-.38,1.55-.56,3.04-.52,4.63,.03,1,.18,1.99,.87,2.74,1.15,1.25,2.8,.31,3.64-.81,.69-.92,1.04-1.99,1.24-3.12,.27-1.47,.57-2.94,.77-4.42,.1-.78,.26-1.59,.19-2.38-.04-.46-.07-.36-.16-1.38-.11-1.27-2.21-2.53-2.98-2.17Z"/><path class="g" d="M45.13,52.69c-.07,.47-.22,1.09-.15,1.59,.02,.14,.14,1.02,.44,2.08,.06,.2,.15,.38,.21,.58,.06,.18,.56,1.37,1.17,2.36,.77,1.25,1.78,2.19,2.41,2.83,1.22,1.24,2.53,2.13,2.82,2.33,.34,.23,.68,.54,1.08,.67,.18,.06,.37,.06,.56,.12s1.21,.29,1.82-.13c.19-.13,.3-.26,.43-.44,.6-.85-.23-2.48-.84-3.61-.47-.88-2.32-3.88-2.81-4.51-.59-.77-1.04-1.58-1.86-2.15-.69-.48-1.47-.97-2.28-1.44-.52-.3-1.03-.62-1.65-.72-.32-.05-.64-.01-.96,.03-.29,.04-.45,.22-.51,.51-.03,.12-.03,.62,.11-.09Z"/><path class="i" d="M139.25,31.66c-.22,.07-.43,.18-.61,.31v.05c-.03,.07-.05,.15-.08,.22-.05,.17-.09,.36-.09,.53,0,.41,.14,.8,.3,1.18,.1,.25,.21,.49,.3,.75s.19,.48,.35,.69c.26,.35,.57,.75,1.07,.69,.18-.02,.33-.11,.38-.3,.08-.29,.05-.63,.02-.93-.04-.35-.09-.67-.2-1-.09-.25-.16-.51-.25-.77-.08-.22-.17-.37-.33-.54-.11-.13-.23-.26-.34-.39-.08-.09-.15-.19-.23-.28-.04-.05-.11-.11-.29-.22Z"/><path class="i" d="M48.82,56.26c-.2,.44-.94,1.55-.77,2.03,.04,.13,.16,.25,.23,.36,.17,.26,.35,.58,.62,.75,.29,.18,.7,.28,1.04,.26,1.07-.06,1.29-1.51,.93-2.35-.28-.65-.94-1.14-1.66-1.16-.32-.01-.51,.1-.64,.4-.07,.15-.13,.67,.26-.28Z"/><path class="i" d="M137.86,40.74c-.49-.5-1-1.18-1.73-1.34-.33-.07-.71-.11-1.03,0-.7,.21-1.12,.9-1.37,1.55-.57,1.47-.55,3.16,.17,4.58,.42,.84,1.02,1.56,1.88,1.97,.38,.18,.92,.44,1.35,.34,.04-.43,.21-.9,.3-1.32,.14-.64,.23-1.28,.31-1.95,.16-1.3,.38-2.66,.13-3.82Z"/><path class="i" d="M139.37,31.62c-.31,.16-.58,.37-.82,.63,.05,.32-.03,.71,0,1.05,.03,.38,.13,.8,.27,1.15,.24,.58,.7,1.31,1.4,1.25,.48-.04,.59-.27,.53-.76-.04-.31-.07-.58-.19-.87s-.25-.54-.36-.83c-.14-.38-.25-.76-.51-1.09-.11-.14-.21-.25-.39-.3-.08-.02-.25-.07,.06-.22Z"/><path class="j" d="M104.84,47.72c-1.54,.89-3.25,2.57-4.46,4.18s-1.67,3.53-2.02,5.58c-.82,4.77-.7,9.7,.35,14.42,.24,1.06,.52,2.12,1.07,3.05,.39,.66,.89,1.24,1.43,1.78,1.96,1.99,4.49,3.58,7.28,3.69,2.49,.1,4.87-1,7.02-2.24,.94-.55,1.88-1.13,2.68-1.87,2.62-2.4,3.62-6.07,4.22-9.57,.24-1.43,.44-2.88,.39-4.33-.14-4.03-2.19-7.8-4.88-10.81-1.71-1.93-3.65-4.25-6.09-5.09-2.44-.84-4.64-.01-5.59,.48-.25,.13-1.41,.73-1.41,.73Z"/><path class="h" d="M121.18,56.34c.01,.27,.34,1.33,.26,1.59-.06,3.05-1.03,5.64-2.98,8.06-2.16,2.68-4.8,5.02-7.94,6.43-3.14,1.41-7.21,1.45-9.89,.34-.35-.12-.52-.19-.86-.38-.59-.43-.96-.69-1.14-.85"/><path class="g" d="M121.97,60.32c-.66,4.03-3.78,7.21-7.15,9.52-1.31,.9-2.74,1.77-3.54,3.14-.8,1.38-.64,3.46,.77,4.2,.61,.32,1.33,.33,2,.2,2.27-.42,3.99-2.27,5.29-4.17,2.38-3.47,3.97-7.94,2.62-12.9Z"/><path class="j" d="M73.39,58.22c-2.33,.27-5.34,2.68-6.6,4.65s-1.82,4.33-2,6.66c-.28,3.59,.27,7.25,1.59,10.6,.48,1.22,1.07,2.4,1.86,3.45,2.98,3.98,8.79,5.38,13.42,3.58s7.9-6.45,8.46-11.39c.56-4.94-1.44-10.01-4.89-13.58-1.55-1.6-3.44-2.96-5.61-3.45-2.35-.53-3.83-.79-6.21-.52Z"/><path class="g" d="M90.1,74.89c-.4,.51-6.31,5.74-9.6,6.47-1.43,.32-2.93,.62-4.04,1.57-1.11,.95-1.62,2.78-.66,3.88,.62,.71,1.64,.91,2.58,.89,2.85-.06,5.43-1.78,7.27-3.95,1.09-1.29,3.82-7.25,3.91-7.71,.07-.06,.11,.19,.18,.13,0-.04,.63-1.63,.36-1.28Z"/><path class="h" d="M64.97,75.88c3.07,2.85,8.03,5.34,12.21,5.45s8.84-.9,11.6-4.06c.43-.49,1.51-2.54,1.41-2.78,0-.04-.19,.05-.2,.01"/><path class="j" d="M92.5,77.35c.08,4.94-.05,9.88-.39,14.8-.16,2.32-.36,4.72,.38,6.93,.74,2.21,2.7,4.19,5.03,4.16,2.14-.03,3.97-1.76,4.75-3.75s.72-4.2,.58-6.34c-.3-4.61-.93-9.21-1.66-13.76h.06"/><path class="j" d="M67.54,102.57c-.31,1.59,2.69,11.93,7.08,16.12,4.5,4.29,10.8,6.52,17.02,6.48,2.01-.01,4.05-.26,5.92-.98,2.27-.88,8.42-3.57,9.97-5.46,5.01-6.13,7.16-10.57,9.05-18.22,.47-1.89,.74-4.96,.55-6.9-2.31,3.43-6.37,4.87-10.2,6.41-3.84,1.54-7.23,2.45-11.35,2.78-7.54,.6-12.73,1.72-20.85,1.24-2.11-.12-4.54-.39-6.51-1.16l-.68-.3Z"/><path class="h" d="M68.29,103.88c2.37,1.22,4.97,1.93,7.57,2.5,5.16,1.14,10.49,1.75,15.75,1.25,9.47-.89,18.55-5.5,24.83-12.64l.16-.02"/><path class="h" d="M116.51,96.55c-2.65,8.61-8.62,16.73-17.2,19.49-2.43,.78-4.98,1.11-7.51,1.43-2.38,.3-4.79,.59-7.16,.21-3.28-.53-6.21-2.3-9.04-4.04-1.83-1.12-3.68-2.27-5.11-3.87s-2.4-3.74-2.11-5.87"/><path class="h" d="M108.81,102.25c.17,1.91,.82,3.77,1.89,5.37"/><path class="h" d="M100.24,106.05c-.07,3.07,.05,6.14,.35,9.19"/><path class="h" d="M87.62,108.31c.15,2.97,.4,5.94,.76,8.89"/><path class="h" d="M76.71,107.04l1.36,7.92"/><path class="f" d="M82.85,21.18c-.1-.87-.03-1.77-.25-2.62-.23-.85-.88-1.68-1.76-1.73-.65-.03-1.25,.38-1.63,.91s-.55,1.17-.7,1.8c-1.08,4.43-1.4,9.05-2.98,13.33-.44,1.2-.95,2.65-.18,3.67,.44,.57,1.19,.83,1.91,.86s1.43-.14,2.14-.27c1.78-.33,3.62-.4,5.42-.21l-1.69,8.71c-.3,1.52-.59,3.03-.75,4.57-.1,.91-.14,1.87,.23,2.7,.37,.84,1.26,1.51,2.16,1.34,.65-.13,1.17-.67,1.44-1.28s.34-1.28,.41-1.95c.94-8.84,2.48-17.62,4.61-26.25,.47-1.89,.97-3.79,1.01-5.74,.02-.98-.28-2.22-1.25-2.38-.72-.13-1.37,.45-1.77,1.07-.81,1.23-1.1,2.72-1.37,4.16-.74,3.98-1.37,7.99-2.03,11.99,.26-1.02,.45-2.05,.53-3.12-1.88,.64-3.82,1.08-5.78,1.34,1.68-3.52,2.68-7.52,2.28-10.9Z"/><path class="f" d="M105.27,15.95c-3.29-.07-6.49,2.25-7.46,5.4-.97,3.15,.38,6.86,3.14,8.65-2.27,1.18-4.19,3.17-4.91,5.62-.92,3.12,.37,6.77,3.04,8.62,2.67,1.86,6.54,1.79,9.14-.16,1.36-1.01,2.34-2.44,3.24-3.87,.82-1.31,1.59-2.68,1.9-4.19,.63-3.05-.91-6.43-3.64-7.95,1.66-2.05,2.12-5,1.17-7.46-.95-2.46-3.25-4.62-5.64-4.66Z"/><path d="M104.21,20.4c-.61-.15-1.28,.03-1.74,.46-.23,.22-.41,.49-.55,.78-.43,.84-.63,1.84-.32,2.73,.28,.8,.98,1.43,1.77,1.73,.75,.29,1.62,.29,2.35-.06,.56-.28,1-.76,1.3-1.3,.57-1.04,.64-2.39-.01-3.38-.65-.99-2.06-1.47-2.8-.95Z"/><path d="M104.97,32.39c-1.81,.14-3.57,1.16-4.46,2.74-.89,1.58-.83,3.69,.26,5.15,.84,1.12,2.22,1.79,3.62,1.86,1.77,.09,3.56-.79,4.54-2.26,.98-1.47,1.1-3.49,.26-5.04s-2.62-2.57-4.21-2.45Z"/></g></g></g></svg>