<?xml version="1.0" encoding="UTF-8"?><svg xmlns="http://www.w3.org/2000/svg" viewBox="0 0 340.88 319.73"><defs><style>.d,.e{fill:#fff;}.f,.g,.e,.h{stroke:#000;}.f,.g,.e,.h,.i{stroke-miterlimit:10;stroke-width:.25px;}.g{fill:#c9c9c9;}.h,.i{fill:none;}.i{stroke:#fff;}</style></defs><g id="a"/><g id="b"><g id="c"><path d="M125.98,313.92c-5.34,1.64-11.48,.31-15.69-3.39,6.49,.13,12.1-4.89,15.23-10.63,3.13-5.74,4.46-12.29,6.8-18.4,7.76-20.25,26.3-34.95,33.37-55.46,5.07-14.68,3.51-31.55-4.16-45.04-4.37-7.69-10.68-14.47-12.97-23.04-2.61-9.76,.57-20.37,6.22-28.72,5.65-8.35,13.55-14.83,21.4-21.11,9.56-7.64,19.51-15.32,31.2-18.79s25.65-1.9,34.04,7.03c8.96,9.54,9.35,24.36,15.82,35.77,5.02,8.85,13.65,15.53,17.11,25.12,3.56,9.87,.94,20.76-.87,31.1-1.81,10.34-2.42,22.08,4.12,30.24,4.5,5.61,11.64,8.48,16.31,13.94,4.04,4.73,6.08,11.22,11.03,14.96,6.13,4.63,15.54,4.1,20.37,10.1,5.87,7.29,.76,17.97,.77,27.37,0,9.44,6.13,18.58,14.79,22.09-9.71,8.79-24.36,8.69-37.22,6.5-12.86-2.19-26.05-5.95-38.69-2.74-8.24,2.09-15.73,7.05-24.19,7.83-13.31,1.23-25.35-8.08-38.6-9.88-13.48-1.83-26.6,4.21-39.67,8.03-13.07,3.83-28.89,4.84-36.54-2.89Z"/><path class="i" d="M245.13,315.83c-7.81-5.71-12.79-14.67-15.66-23.97-2.88-9.3-3.87-19.07-5.21-28.72-3.93-28.2-11-56.91-19.26-84.12"/><path class="i" d="M251.17,132.24c-5.06-4.21-12.69-4.15-18.58-1.23-5.89,2.92-10.28,8.22-13.8,13.82-4.66,7.42-8.09,15.64-10.1,24.19-1.02,4.33-1.95,9.2-5.55,11.76-2.43,1.74-5.66,2-8.58,1.39-2.92-.61-5.61-2.01-8.26-3.39-5.01-2.62-10.46-5.73-12.27-11.14-1.29-3.85-.57-8.53-3.19-11.61-2.23-2.63-6.33-3.04-9.44-1.6s-5.33,4.38-6.77,7.52c1.56-23.64,16.03-46,36.83-56.92,8.77-4.61,19.28-7.24,28.55-3.77,6.1,2.28,10.99,6.94,15.57,11.6,5.94,6.05,11.66,12.32,17.15,18.79-.73,.38-1.42,.71-1.58,.58Z"/><path class="i" d="M186.4,217.07c7.99,23.76,2.3,51.69-14.31,70.34"/><path class="i" d="M176.74,227.09c.95,13.95-5.33,28.21-16.24,36.81-4.23,3.34-9.16,5.94-12.51,10.18-3.35,4.25-4.5,11.03-.67,14.84"/><path class="i" d="M252.98,176.36c-1.41,15.2-1.89,30.73,1.73,45.55,3.63,14.82,11.81,29.01,24.6,37.12"/><path class="i" d="M263.19,186.52c-2.27,19.91,6.3,40.73,21.87,53.14,8.97,7.14,20.44,12.13,25.62,22.41"/><path class="i" d="M200.15,139.34c-.42,13.92,2.02,27.47,4.84,39.68-1.18-2.68-4.39-4.35-6.66-6.17-2.27-1.83-4.7-3.5-6.63-5.7-1.92-2.2-3.32-5.08-3.01-8"/><path d="M274.08,120.14c.39,8.57-1.29,17.42-5.96,24.58-4.67,7.16-12.58,12.4-21.06,12.62-11.91,.31-22.47-9.35-26.34-20.73-3.87-11.38-2.2-23.97,1.28-35.48,4.52-14.91,11.93-28.73,19.29-42.43l23.75-44.19c3.5-6.52,8.21-13.85,15.53-14.35,5.03-.34,9.72,2.89,12.82,6.9,6.37,8.24,7.47,19.64,5.53,29.91-1.94,10.27-6.56,19.79-10.75,29.35-8.18,18.71-14.79,38.7-14.09,53.82Z"/><path class="i" d="M234.04,111.49c.61-7.33,6.41-13.08,12.35-17.33,5.94-4.25,12.6-7.96,16.58-14.12,3.78-5.84,4.62-13.12,4.67-20.1s-.58-14.03,.68-20.89c1.73-9.45,6.9-17.84,11.96-25.97"/><path d="M31.77,56.29c-.81,10.99,8.35,20.66,18.66,24.25,10.31,3.59,21.55,2.59,32.43,1.89,10.88-.7,22.31-.95,32.1,3.92,16.65,8.28,23.75,28.71,38.62,39.93,7.14,5.39,16.51,8.46,25.12,6.11,8.61-2.35,15.65-11.14,14.25-20.03-1.01-6.42-5.88-11.53-11.09-15.35s-11.06-6.85-15.59-11.47c-8.74-8.91-11.93-23.02-22.51-29.57-9.15-5.67-20.93-3.82-31.25-.83-10.32,2.98-20.97,6.95-31.51,4.9-6.92-1.35-13.07-5.19-19.52-8.07s-13.91-4.83-20.47-2.24c-6.57,2.59-10.94,11.36-9.22,6.56Z"/><path class="i" d="M176.68,111.04c-6.92,1.06-13.75-2.96-18.37-8.27-4.62-5.31-7.57-11.84-11.15-17.91-3.59-6.07-8.16-11.97-14.6-14.72-6.17-2.63-13.25-1.99-19.73-.29-6.48,1.7-12.69,4.41-19.23,5.87-14.67,3.27-30.69-.21-42.74-9.28"/><path class="e" d="M180.54,94.41c-7.71-.75-15.04,4.96-18.03,12.15-2.99,7.19-2.34,15.44-.24,22.94l-7.11-9.63c2.61,8.21,5.78,16.24,9.5,24.01,.69,1.45,1.42,2.91,2.54,4.05,1.06,1.08,2.41,1.81,3.61,2.72,2.85,2.16,4.85,5.41,5.52,8.94,.46,2.41,.33,5,1.45,7.18,1.41,2.73,4.64,4.22,7.68,4.01,3.05-.21,5.86-1.92,7.9-4.21,2.04-2.29,3.38-5.12,4.42-8.01,3.11-8.62,3.78-18.12,1.89-27.09,2.88-1.58,4.23-5.13,4.15-8.43-.08-3.3-1.32-6.44-2.47-9.53-1.15-3.09-2.25-6.31-2.03-9.61-1.07,2.55-1.53,5.37-1.34,8.13-.24-4.71-2.32-9.3-5.71-12.57s-8.03-5.17-11.74-5.05Z"/><path class="h" d="M189.66,126.34c-.4-.11-.81-.18-1.22-.12s-.8,.29-.99,.66-.1,.88,.25,1.1c.4,.26,.92,.05,1.38-.1,.58-.19,1.23-.3,1.79-.06s.97,.91,.75,1.48c-.21,.53-.82,.75-1.38,.88-.46,.11-.94,.19-1.41,.14s-.94-.26-1.23-.64"/><path class="h" d="M187.53,125.82c.95,1.71,1.72,3.52,2.28,5.39"/><path class="h" d="M188.64,125.44c.92,1.57,1.61,3.27,2.04,5.03"/><path class="h" d="M168.42,132.96c.74,1.44,1.33,2.97,1.74,4.54"/><path class="h" d="M169.39,132.65c.68,1.35,1.24,2.75,1.66,4.2"/><path class="h" d="M170.53,132.98c-.71-.04-1.43,.26-1.92,.78-.15,.17-.29,.36-.32,.59s.06,.48,.27,.58c.21,.1,.47,0,.68-.09,.34-.16,.68-.33,1.05-.43s.77-.09,1.1,.09,.56,.57,.48,.94c-.1,.42-.53,.67-.94,.8-.69,.23-1.53,.27-2.05-.23"/><path class="h" d="M177.61,153.65c-.31,.3-.58,.66-.7,1.08s-.09,.9,.16,1.26c.25,.36,.72,.57,1.14,.44"/><path class="f" d="M192.63,148.22c-.75-.45-1.69-.49-2.54-.28s-1.63,.62-2.41,1.03l-9.14,4.89c-.27,.14-.55,.29-.73,.54s-.26,.6-.08,.85c.19,.27,.57,.31,.91,.32,4.16,.06,8.32-1.06,11.89-3.2,.78-.47,1.56-1.02,2-1.82,.44-.8,.54-2.07,.11-2.33Z"/><path class="e" d="M190.21,156.48c-1.35-2.12-2.52-4.35-3.51-6.67,.79-.69,1.75-1.19,2.77-1.44,0,2.69,.21,5.38,.74,8.11Z"/><path class="e" d="M182.51,152.15c-.41,.58-1.5,.48-1.7,1.16-.07,.24,0,.5,.1,.73,.66,1.78,1.75,3.39,3.16,4.66-.59-2.16-1.07-4.35-1.55-6.56Z"/><path class="g" d="M177.11,126.43c-.13-.21-.34-.56-.59-.54,.6,7.09,2.14,14.39,5.37,20.71,.36,.7,.75,1.41,1.32,1.94,.58,.53,1.39,.88,2.15,.71,1.16-.25,1.82-1.57,1.75-2.76-.07-1.19-.68-2.26-1.26-3.3-3.2-5.63-5.45-11.43-8.75-16.77Z"/><path d="M162.75,101.79c-2.18-1.23-4.67-1.91-7.17-1.97,2.03,.75,3.93,1.86,5.59,3.27-4.34,2.02-6.73,7.51-5.29,12.09,.53-3.78,3.13-7.2,6.62-8.7-2.32,2.73-3.01,6.75-1.76,10.1,.61-3.84,2.54-7.44,5.39-10.07,1.5,1.35,2.24,3.5,1.89,5.5,1.45-2.89,1.82-6.32,1.01-9.46,2.28,.64,4.2,2.43,4.99,4.67,.53-2.49-.55-5.25-2.63-6.71,3.32-1.12,7.08-.88,10.23,.67,3.15,1.54,5.67,4.36,6.85,7.68,.04-4.26-2.8-8.41-6.77-9.89,3.71,.9,7.07,3.17,9.32,6.27-.46-3.2-2.18-6.2-4.7-8.21,4.45,.96,8.34,4.21,10.12,8.42,.13-3.44-1.52-6.9-4.27-8.95,2.84,.17,5.6,1.51,7.5,3.65-.12-2.82-2.38-5.2-4.99-6.23-2.61-1.03-5.51-.95-8.3-.67,2.38-2.46,6.39-3.15,9.45-1.63-2-2.27-4.84-3.76-7.83-4.12s-6.1,.42-8.58,2.16c1.87-2.83,5.17-4.65,8.55-4.71-2.79-1.04-6.01-.86-8.67,.49-2.66,1.35-4.72,3.85-5.54,6.73-1.23-2-1.05-4.64-.03-6.75,1.02-2.11,2.78-3.77,4.64-5.19-3.63,.64-6.98,2.74-9.16,5.73s-3.16,6.83-2.68,10.51c-1.6-3.28-1.35-7.4,.63-10.46-2.29,2.02-4.33,4.44-5.38,7.31-1.05,2.88-1.02,6.26,.95,8.48Z"/><path d="M179.32,122.47c1,.69,1.83,1.65,2.35,2.75,3.35-.96,6.26-3.34,7.9-6.43,1.63-3.09,1.96-6.85,.89-10.18l-.07,1.11-.34-1.27c.06,.56,.14,1.87,.06,1.07-.12-1.07-.22-.59-.67-1.87,1.05,3.48,.3,7.74-1.96,10.59l.14-1.64-1.32,2.61c-.09-.92,.1-1.86,.54-2.67-.34,1.22-.85,2.39-1.51,3.46l.08-1.42-.95,2,.13-1.26-.6,1.5,.1-1.13-1.12,1.64,.38-.98-.84,1.51-.07-.78-.53,1.3-1.13-.98,.04,.84-.48-.51,.45,1.05-.78-.65,.38,.71-.84-.76,.9,1.04c-.27-.16-.55-.32-1.1-.66Z"/><path d="M174.21,124.05c.43,1.12-.42,2.41-1.53,2.83s-2.36,.19-3.49-.17c-4.78-1.56-8.68-5.6-10.08-10.45l1.66,2.71-.79-1.55c1.21,2.15,2.92,4.01,4.95,5.39l-1.2-1.67,1.11,1-.52-.69,3.36,2.5-.82-1.08c.45,.58,1.08,1.02,1.78,1.24l-.38-.5,1.04,.55-.17-.65,.5,.47-.09-.45,.69,.88-.19-.97,.76,1.06c.02-.38-.1-.76-.34-1.05l.88,1.26-.21-1.24,.46,1.02v-.95l.4,.62,.07-.82,.25,.51-.09-1.2,.83,1.57-.08-.87,.35,.93,.12-.68,.2,.58,.04-1.34c.2,.63,.4,1.26,.48,1.21Z"/><path d="M198.4,136.57c.21,1.79-1.23,3.28-2.17,4.81-2.09,3.41-1.7,8.17,.92,11.19-2.23-3.21-2.31-7.79-.19-11.07,.46-.72,1.02-1.38,1.38-2.15,.36-.77,.51-1.71,.06-2.78Z"/><path d="M191.79,147.09c1.41,.56,2.39,2.09,2.3,3.61,.29-.76,.2-1.65-.23-2.34s-1.18-1.16-2.07-1.27Z"/><path d="M192.54,146.39c.85,.76,1.6,1.64,2.2,2.61-.23-1.18-1.05-2.22-2.2-2.61Z"/><path d="M198.33,129.7c-2.23-1.82-2.97-4.99-2.69-7.87,.28-2.88,1.41-5.58,2.34-8.32,.93-2.73,1.67-5.66,1.12-8.49,.88,2.44,.6,5.15,0,7.67-.6,2.52-1.51,4.98-1.86,7.55-.42,3.06-.03,6.22,1.1,9.45Z"/><path d="M200.09,110.18c.35,2.18-.13,4.4-.72,6.52-.59,2.12-1.31,4.24-1.43,6.44-.12,2.2,.44,4.56,2.04,6.06-1.28-1.77-1.57-4.1-1.36-6.28,.21-2.18,.88-4.28,1.35-6.42,.47-2.14,.74-4.39,.12-6.32Z"/><path d="M200.04,118.13c.35,.82,.21,1.78-.16,2.59-.38,.81-.97,1.49-1.55,2.16,.35-.24,.72-.49,1.14-.56s.91,.1,1.08,.49c.16,.37,0,.79-.17,1.16l-1.36,3.09c.91-1.09,1.78-2.26,2.1-3.65,.11-.46,.14-.98-.11-1.39s-.87-.59-1.21-.26c.48-.78,.82-1.65,.98-2.55,.05-.3,.08-.64-.07-.9s-.58-.38-.65-.19Z"/><path d="M195.18,126.56c-.72-1.54-1.87-2.92-3.37-3.71s-3.36-.94-4.9-.23c-1.36,.63-2.37,1.88-2.97,3.27s-.81,2.9-.91,4.41c.46-1.68,.93-3.39,1.88-4.84,.95-1.45,2.49-2.63,4.22-2.68,1.21-.04,2.38,.46,3.36,1.18s1.78,1.64,2.69,2.61Z"/><path d="M191.47,124.12c-.91-.84-2.29-1.08-3.48-.74s-2.2,1.19-2.89,2.22c-.69,1.04-1.07,2.25-1.3,3.47,.55-1.65,1.41-3.24,2.77-4.3,1.36-1.06,3.29-1.5,4.9-.65Z"/><path d="M195.27,127.37c-.74,1.81-1.64,3.64-3.16,4.87-1.52,1.22-3.81,1.67-5.43,.59,1.01,.93,2.52,1.21,3.85,.86s2.46-1.28,3.23-2.42c.77-1.14,1.21-2.48,1.52-3.89Z"/><path d="M196.36,127.17c-.89,.55-1.29,1.64-1.49,2.68s-.3,2.12-.83,3.03c-.96,1.64-3.15,2.21-5,1.82s-3.46-1.51-5.01-2.6c1.47,1.36,3.06,2.7,5,3.19s4.29-.13,5.21-1.91c.48-.94,.51-2.03,.62-3.08,.11-1.05,.34-2.17,1.5-3.13Z"/><path d="M189.31,135.7c-.73,.2-1.52-.06-2.15-.48s-1.14-1-1.68-1.53c-.54-.53-1.14-1.04-1.86-1.28,.78,.28,1.36,.93,1.87,1.58,.51,.65,1.01,1.35,1.72,1.78s1.7,.51,2.11-.07Z"/><path d="M176.42,134.13c-.68-1.56-1.56-3.06-2.85-4.17s-3.03-1.76-4.69-1.45c-1.62,.31-2.98,1.52-3.76,2.98-.78,1.46-1.03,3.16-1.02,4.82,.21-1.7,.81-3.39,1.89-4.71,1.09-1.32,2.7-2.25,4.41-2.3s3.45,.87,4.21,2.41c-1.03-1.19-2.55-1.93-4.11-2.02,1.28,.38,2.5,1,3.55,1.82-1.2-.73-2.59-1.14-3.99-1.18l3.83,1.52c-1.97-1.27-4.7-1.23-6.63,.1-1.93,1.33-2.97,3.86-2.52,6.17,.12-2.61,1.92-5.07,4.37-5.95s5.39-.13,7.3,1.94Z"/><path d="M169.15,130.21c-2.59,.82-4.57,3.33-4.78,6.06-.05-1.4,.4-2.82,1.25-3.93,.85-1.11,2.09-1.92,3.53-2.13Z"/><path d="M176.87,134.9c-1.19,.3-1.89,1.56-2.24,2.74s-.54,2.48-1.3,3.45c-.99,1.26-2.8,1.66-4.35,1.25s-2.83-1.5-3.8-2.77c1.2,.72,2.42,1.46,3.79,1.75s2.92,.08,3.92-.9c.84-.82,1.16-2.02,1.62-3.11,.46-1.09,1.22-2.2,2.37-2.41Z"/><path d="M174.51,137.1c-.81,1.37-2.21,2.37-3.76,2.69s-3.23-.06-4.51-1.01c2.85,1.13,6.36,.34,8.27-1.68Z"/><path d="M180.13,118.9c-.39,.44-.88,.79-1.35,1.14s-.94,.74-1.26,1.24-.47,1.13-.28,1.69,.8,.98,1.38,.84c-.44-.44-.92-.96-.92-1.58,0-.64,.51-1.16,.99-1.58s1.03-.86,1.43-1.75Z"/><path d="M176.22,121.43c0-1.27-.86-2.5-2.05-2.92,.71,.67,1.2,1.56,1.4,2.52,.03,.15,.06,.31,.14,.44s.26,.22,.4,.15,.17-.31,.11-.2Z"/><path d="M175.22,124.58c.56-.6,.86-1.58,.36-2.23-.36-.47-1.01-.59-1.6-.68l-1.17-.17c.06,.38,.52,.55,.91,.57s.81-.04,1.13,.18c.38,.27,.43,.8,.44,1.27,0,.34,.02,.67-.07,1.07Z"/><path d="M197.63,108.98c-.17,2.47-.8,4.92-1.86,7.16,1.15-1.79,1.92-3.83,2.28-5.93,.04-.24,.07-.49-.01-.72s-.33-.41-.4-.51Z"/><path d="M196.76,107.26c.27,2.14-.2,4.37-1.29,6.23,.27-1.02,.78-1.96,1.14-2.96,.36-1,.56-2.11,.15-3.27Z"/><path d="M196.13,105.86c.03,2.08-.59,4.18-1.76,5.9,.83-1.93,1.27-4.02,1.31-6.12,.23-.03,.45,.11,.45,.22Z"/><path d="M195.1,104.63c.06,1.63-.51,3.28-1.57,4.52,.72-1.49,1.13-3.14,1.17-4.79,.31,.07,.54,.4,.4,.28Z"/><path d="M195.3,126.8c-1.03-.93-2.15-1.78-3.43-2.28s-2.76-.62-4.03-.08c-.88,.38-1.62,1.05-2.21,1.81s-1.04,1.62-1.5,2.47c-.38,.71-.77,1.53-.51,2.29,.19,.57,.71,.97,1.25,1.25,1.95,1,4.39,.76,6.28-.34,1.89-1.1,3.27-2.96,4.11-4.99-.68,.22-1.05,.92-1.43,1.52-.95,1.53-2.35,2.81-4.03,3.43s-3.66,.51-5.17-.46c-.33-.21-.66-.5-.72-.9-.04-.3,.09-.6,.22-.87,.74-1.53,1.69-3.02,3.07-4,1.38-.99,3.26-1.4,4.8-.69,1.15,.53,2.01,1.61,3.31,1.85Z"/><path d="M183.33,130.13c.07,.27,.01,.58-.14,.81-.09,.13-.21,.24-.28,.38s-.11,.32-.01,.45c.13,.17,.38,.14,.59,.1l1.04-.23c-.18-.21-.47-.31-.73-.26-.14,.03-.3,.08-.4-.02-.06-.06-.07-.16-.04-.24s.08-.15,.13-.22c.12-.17,.22-.36,.29-.55,.03-.09,.05-.18,0-.26-.07-.12-.27-.1-.36,.01s-.1,.26-.08,.04Z"/><path d="M175.81,134.07c-1.03,1.95-2.84,3.47-4.93,4.14-2.09,.68-4.44,.5-6.4-.48-.1,.28,.21,.53,.48,.66,1.85,.87,4.02,.91,6,.37,1.14-.31,2.24-.82,3.12-1.6,.53-.47,.97-1.03,1.4-1.59l.83-1.06c.07-.09,.14-.18,.18-.28,.07-.18,.04-.41-.1-.55s-.39-.16-.54-.04-.16,.4-.03,.43Z"/><path class="h" d="M174.12,142.64l.02,3.15"/><path class="h" d="M172.09,143.26l-.13,3.25"/><path class="h" d="M170.54,143.3l-.1,3.56"/><path class="h" d="M188.5,136.97l-.13,3.58"/><path class="h" d="M190.12,136.88c.12,1.19,.08,2.4-.13,3.58"/><path class="h" d="M192.25,136.57c-.03,1.23-.2,2.45-.52,3.64"/><path class="h" d="M187.87,145.94l.73,1.53"/><path class="h" d="M189.84,145.52l.64,1.4"/><path class="h" d="M191.43,145.17l.67,1.02"/><path class="h" d="M192.82,144.76l.61,1.08"/><path class="h" d="M182.13,149.42l.54,1.44"/><path class="h" d="M180.3,150.15l.71,1.66"/><path class="h" d="M178.73,150.91l.21,1.64"/><path class="h" d="M177.09,151.86l-.23,1.36"/><path class="h" d="M178.64,158.41v1.88"/><path class="h" d="M180.9,158.25l.28,2.07"/><path class="h" d="M178.69,161.84l.14,1.59"/><path class="h" d="M181.08,161.47l-.11,2.09"/><path class="h" d="M179.61,164.56l.19,1.94"/><path class="h" d="M181.91,167.18l.2,1.4"/><path class="h" d="M183.09,165.58l.02,1.51"/><path class="h" d="M184.93,164.72l.15,1.95"/><path class="h" d="M184.93,167.85l.14,1.26"/><path class="h" d="M183.55,161.85l.11,1.6"/><path class="h" d="M185.06,161.52l.05,1.46"/><path class="h" d="M185.02,158.71l.27,1.5"/><path class="h" d="M187.67,158.36l.3,1.69"/><path class="h" d="M187.76,156.32l.17,1.21"/><path class="h" d="M189.7,159.77l.43,1.93"/><path class="h" d="M187.52,161.9l-.06,1.25"/><path class="h" d="M189.36,162.89l.2,1.85"/><path class="h" d="M187.17,165.44l.1,1.69"/><path class="h" d="M188.92,166.5v1.19"/><path class="h" d="M192.28,162.08l.17,1.54"/><path class="h" d="M191.85,159.41l.43,1.36"/><path class="h" d="M192.1,156.69l.6,1.5"/><path class="h" d="M193.08,156.15l.58,1.34"/><path class="h" d="M192.87,153.85l.46,1.02"/><path class="h" d="M194.57,158.71l.55,1.35"/><path class="h" d="M193.79,160.23l.55,1.68"/><path class="h" d="M196.19,156.74l.52,1.4"/><path class="h" d="M195.37,154.3l.49,1.42"/><path class="h" d="M194.89,151.28l.72,1.28"/><path class="h" d="M196.77,153.81l.59,1.58"/><path class="h" d="M198.14,152.35l.5,1.45"/><path class="h" d="M198.68,150.51l.64,1.28"/><path class="h" d="M162.3,129.4c.59,5.27,1.57,10.49,2.94,15.61"/><path class="d" d="M49.19,53.53c2.47,2.83,2.28,7.31,.45,10.61s-4.95,5.63-8.1,7.65-6.48,3.88-9.06,6.61c-5.64,5.97-6.71,14.89-10.44,22.23-.71,1.4-2.52,2.89-3.55,1.71-.54-.62-.36-1.58-.13-2.38,2.94-10.37,7.59-20.24,13.7-29.08-6.05,2.76-10.29,8.41-13.72,14.15-3.43,5.74-6.38,11.89-10.99,16.72,3.32-13.89,10.93-26.7,21.5-36.19-6.84,1.75-12.19,7.14-16.37,12.89-4.18,5.75-7.58,12.12-12.48,17.26,4.13-14.21,13.14-26.91,25.12-35.44-8.14,3.64-15.19,9.73-20.01,17.3-.45,.7-.9,1.45-1.61,1.89s-1.75,.46-2.26-.2c-.65-.83-.11-2.03,.47-2.91,7.56-11.58,19.14-20.41,32.23-24.6,2.8-.9,5.73-1.59,8.66-1.33s5.51,1.87,6.59,3.11Z"/><path class="h" d="M50.74,53.5c1.34,3.21,.61,7.02-1.17,10.01s-4.48,5.29-7.26,7.36-5.7,3.98-8.14,6.45c-6.49,6.57-8.78,16.14-13.17,24.3-.38,.71-1.1,1.53-1.83,1.18-.67-.32-.58-1.3-.37-2.02,1.2-4.14,2.92-8.09,4.64-12.04,3.06-7.02,6.28-14.26,10.95-19.75-6.53,2.51-11.34,8.22-15,14.23-3.66,6.01-6.49,12.55-10.68,18.2-.6-.31-.89-1.05-.85-1.73s.32-1.32,.61-1.93c2.68-5.74,5.57-11.37,8.68-16.88,3.46-6.13,7.55-12.44,12.79-15.84-8.27,2.19-15.6,7.82-19.9,15.29-2.34,4.07-3.8,8.61-6.16,12.66-.29,.5-.76,1.06-1.31,.91-.73-.2-.62-1.28-.34-2,2.55-6.38,5.55-12.61,9.56-18.17,4.01-5.55,9.08-10.42,14.93-13.7-9.69,3.26-18.21,9.96-23.71,18.66-.31,.49-.92,1.04-1.35,.67-.33-.29-.16-.82,.04-1.21,4.88-9.63,13.95-16.37,23.3-21.64,5.94-3.35,12.39-6.32,19.19-6.23,1.43,.02,2.91,.19,4.17,.88s2.23,2.02,2.37,2.35Z"/><path class="h" d="M46.91,59.35c-2.1,2.71-4.56,5.14-7.27,7.21"/><path class="h" d="M43.99,55.38c-3.2,2.56-6.61,4.84-10.18,6.83"/><path class="h" d="M41.53,53.22c-2.56,1.63-5.25,3.04-8.03,4.22"/><path class="h" d="M28.49,58.77c-.41,.35-1.06,.37-1.48,.05s-.58-.97-.35-1.46"/><path class="h" d="M31.52,62.8c-.4,.15-.86,.18-1.26,.02s-.74-.5-.84-.92,.05-.9,.4-1.15"/><path class="h" d="M35.28,66.79c-.39,.31-.94,.41-1.41,.24s-.84-.59-.94-1.08,.06-1.03,.42-1.38"/><path class="h" d="M39.11,70.76c-.4,.2-.81,.41-1.25,.46s-.93-.08-1.2-.45c-.23-.32-.24-.75-.13-1.12s.34-.7,.58-1.01"/><path class="h" d="M26.2,83.24c.2-.38,.61-.62,1.03-.65s.85,.13,1.17,.41,.55,.66,.69,1.06"/><path class="h" d="M28.15,85.4c-.29,.37-.71,.63-1.18,.67s-.94-.16-1.22-.54-.3-.93-.04-1.32"/><path class="h" d="M26,83.81c.35-.23,.79-.31,1.2-.22s.77,.37,.89,1.06c-.28,.23-.68,.29-1.03,.17s-.62-.42-1.06-1.01Z"/><path class="h" d="M19.74,82.21c.24-.61-.07-1.39-.66-1.67s-1.38-.02-1.69,.56"/><path class="h" d="M19.1,82.59c-.06-.28-.23-.54-.47-.7s-.55-.21-.83-.14"/><path class="h" d="M19.14,83.14c-.27,.27-.64,.46-1.03,.48s-.78-.12-1.04-.41-.37-.72-.24-1.09"/><path class="h" d="M19.14,82.39c-.17,.33-.59,.5-.94,.38s-.58-.52-.51-.88"/><path class="h" d="M12.37,73.4c.3-.37,.92-.41,1.27-.08,.23,.22,.32,.56,.32,.88s-.1,.63-.53,.93c-.35,.13-.76,.04-1.03-.22s-.59-.81-.03-1.5Z"/><path class="h" d="M13.19,75.6c-.36,.35-.96,.39-1.36,.1s-.55-.89-.33-1.34"/><path class="h" d="M13.35,64.3c.52-.19,1.16,.07,1.42,.57s.09,1.17-.36,1.5"/><path class="h" d="M13.77,66.78c.26-.42,.31-.97,.11-1.42s-.62-.8-1.1-.89"/><path class="h" d="M13.16,67.15c-.4-.15-.73-.47-.88-.87s-.13-.87,.07-1.25"/><path class="h" d="M1.63,78.61c.32-1.09,.87-2.11,1.6-2.97,.15-.18,.31-.35,.52-.44s.47-.1,.65,.05c.29,.25,.17,.73,0,1.08-.4,.87-.91,1.69-1.57,2.38-.13,.14-.27,.27-.45,.34s-.39,.06-.53-.06c-.23-.21-.15-.58-.22-.37Z"/><path class="h" d="M4.53,91.36c-.08,.65-.41,1.27-.9,1.7-.26,.23-.62,.41-.95,.29-.45-.16-.55-.75-.5-1.22,.1-1.02,.57-1.97,1.03-2.89,.12-.23,.23-.47,.41-.66s.42-.33,.68-.33c.42,.01,.74,.43,.8,.85s-.07,.84-.2,1.25c-.26,.8-.53,1.63-.37,1.01Z"/><path class="h" d="M8.92,97.33c.17-.46,.35-.93,.72-1.25s.96-.43,1.32-.1c.39,.36,.3,.99,.14,1.5-.34,1.08-.87,2.09-1.54,3-.18,.24-.4,.49-.69,.52-.31,.03-.59-.2-.71-.49s-.11-.61-.07-.92c.15-1.12,.65-2.17,.84-2.26Z"/><path class="h" d="M18.89,100.66c.21-.38,.34-.79,.52-1.19s.43-.78,.8-.99,.89-.21,1.19,.1c.29,.3,.28,.78,.21,1.2-.2,1.12-.76,2.17-1.59,2.94-.15,.14-.35,.29-.56,.25-.31-.06-.41-.46-.42-.78-.02-.86,.1-1.73-.16-1.53Z"/><path class="d" d="M283.2,3.4c-2.47,2.83-2.28,7.31-.45,10.61,1.82,3.29,4.95,5.63,8.1,7.65s6.48,3.88,9.06,6.61c5.64,5.97,6.71,14.89,10.44,22.23,.71,1.4,2.52,2.89,3.55,1.71,.54-.62,.36-1.58,.13-2.38-2.94-10.37-7.59-20.24-13.7-29.08,6.05,2.76,10.29,8.41,13.72,14.15,3.43,5.74,6.38,11.89,10.99,16.72-3.32-13.89-10.93-26.7-21.5-36.19,6.84,1.75,12.19,7.14,16.37,12.89,4.18,5.75,7.58,12.12,12.48,17.26-4.13-14.21-13.14-26.91-25.12-35.44,8.14,3.64,15.19,9.73,20.01,17.3,.45,.7,.9,1.45,1.61,1.89s1.75,.46,2.26-.2c.65-.83,.11-2.03-.47-2.91-7.56-11.58-19.14-20.41-32.23-24.6-2.8-.9-5.73-1.59-8.66-1.33s-5.51,1.87-6.59,3.11Z"/><path class="h" d="M281.65,3.36c-1.34,3.21-.61,7.02,1.17,10.01s4.48,5.29,7.26,7.36c2.78,2.07,5.7,3.98,8.14,6.45,6.49,6.57,8.78,16.14,13.17,24.3,.38,.71,1.1,1.53,1.83,1.18,.67-.32,.58-1.3,.37-2.02-1.2-4.14-2.92-8.09-4.64-12.04-3.06-7.02-6.28-14.26-10.95-19.75,6.53,2.51,11.34,8.22,15,14.23,3.66,6.01,6.49,12.55,10.68,18.2,.6-.31,.89-1.05,.85-1.73-.03-.68-.32-1.32-.61-1.93-2.68-5.74-5.57-11.37-8.68-16.88-3.46-6.13-7.55-12.44-12.79-15.84,8.27,2.19,15.6,7.82,19.9,15.29,2.34,4.07,3.8,8.61,6.16,12.66,.29,.5,.76,1.06,1.31,.91,.73-.2,.62-1.28,.34-2-2.55-6.38-5.55-12.61-9.56-18.17-4.01-5.55-9.08-10.42-14.93-13.7,9.69,3.26,18.21,9.96,23.71,18.66,.31,.49,.92,1.04,1.35,.67,.33-.29,.16-.82-.04-1.21-4.88-9.63-13.95-16.37-23.3-21.64-5.94-3.35-12.39-6.32-19.19-6.23-1.43,.02-2.91,.19-4.17,.88s-2.23,2.02-2.37,2.35Z"/><path class="h" d="M285.48,9.21c2.1,2.71,4.56,5.14,7.27,7.21"/><path class="h" d="M288.41,5.24c3.2,2.56,6.61,4.84,10.18,6.83"/><path class="h" d="M290.86,3.08c2.56,1.63,5.25,3.04,8.03,4.22"/><path class="h" d="M303.9,8.64c.41,.35,1.06,.37,1.48,.05s.58-.97,.35-1.46"/><path class="h" d="M300.87,12.66c.4,.15,.86,.18,1.26,.02s.74-.5,.84-.92-.05-.9-.4-1.15"/><path class="h" d="M297.11,16.66c.39,.31,.94,.41,1.41,.24s.84-.59,.94-1.08-.06-1.03-.42-1.38"/><path class="h" d="M293.28,20.62c.4,.2,.81,.41,1.25,.46s.93-.08,1.2-.45c.23-.32,.24-.75,.13-1.12s-.34-.7-.58-1.01"/><path class="h" d="M306.2,33.11c-.2-.38-.61-.62-1.03-.65s-.85,.13-1.17,.41-.55,.66-.69,1.06"/><path class="h" d="M304.24,35.26c.29,.37,.71,.63,1.18,.67s.94-.16,1.22-.54,.3-.93,.04-1.32"/><path class="h" d="M306.4,33.68c-.35-.23-.79-.31-1.2-.22s-.77,.37-.89,1.06c.28,.23,.68,.29,1.03,.17s.62-.42,1.06-1.01Z"/><path class="h" d="M312.65,32.07c-.24-.61,.07-1.39,.66-1.67s1.38-.02,1.69,.56"/><path class="h" d="M313.29,32.45c.06-.28,.23-.54,.47-.7s.55-.21,.83-.14"/><path class="h" d="M313.25,33.01c.27,.27,.64,.46,1.03,.48s.78-.12,1.04-.41,.37-.72,.24-1.09"/><path class="h" d="M313.25,32.26c.17,.33,.59,.5,.94,.38s.58-.52,.51-.88"/><path class="h" d="M320.03,23.27c-.3-.37-.92-.41-1.27-.08-.23,.22-.32,.56-.32,.88s.1,.63,.53,.93c.35,.13,.76,.04,1.03-.22s.59-.81,.03-1.5Z"/><path class="h" d="M319.2,25.46c.36,.35,.96,.39,1.36,.1s.55-.89,.33-1.34"/><path class="h" d="M319.04,14.16c-.52-.19-1.16,.07-1.42,.57s-.09,1.17,.36,1.5"/><path class="h" d="M318.62,16.64c-.26-.42-.31-.97-.11-1.42s.62-.8,1.1-.89"/><path class="h" d="M319.24,17.01c.4-.15,.73-.47,.88-.87s.13-.87-.07-1.25"/><path class="h" d="M330.76,28.47c-.32-1.09-.87-2.11-1.6-2.97-.15-.18-.31-.35-.52-.44s-.47-.1-.65,.05c-.29,.25-.17,.73,0,1.08,.4,.87,.91,1.69,1.57,2.38,.13,.14,.27,.27,.45,.34s.39,.06,.53-.06c.23-.21,.15-.58,.22-.37Z"/><path class="h" d="M327.87,41.22c.08,.65,.41,1.27,.9,1.7,.26,.23,.62,.41,.95,.29,.45-.16,.55-.75,.5-1.22-.1-1.02-.57-1.97-1.03-2.89-.12-.23-.23-.47-.41-.66s-.42-.33-.68-.33c-.42,.01-.74,.43-.8,.85s.07,.84,.2,1.25c.26,.8,.53,1.63,.37,1.01Z"/><path class="h" d="M323.47,47.2c-.17-.46-.35-.93-.72-1.25s-.96-.43-1.32-.1c-.39,.36-.3,.99-.14,1.5,.34,1.08,.87,2.09,1.54,3,.18,.24,.4,.49,.69,.52,.31,.03,.59-.2,.71-.49s.11-.61,.07-.92c-.15-1.12-.65-2.17-.84-2.26Z"/><path class="h" d="M313.5,50.52c-.21-.38-.34-.79-.52-1.19s-.43-.78-.8-.99-.89-.21-1.19,.1c-.29,.3-.28,.78-.21,1.2,.2,1.12,.76,2.17,1.59,2.94,.15,.14,.35,.29,.56,.25,.31-.06,.41-.46,.42-.78,.02-.86-.1-1.73,.16-1.53Z"/></g></g></svg>