<?xml version="1.0" encoding="UTF-8"?><svg xmlns="http://www.w3.org/2000/svg" xmlns:xlink="http://www.w3.org/1999/xlink" viewBox="0 0 296.3 279.87"><defs><style>.f{stroke-width:5px;}.f,.g,.h,.i,.j,.k,.l,.m,.n,.o,.p,.q,.r,.s{stroke-miterlimit:10;}.f,.h,.l,.m,.p,.q{stroke:#000;}.t,.i,.p,.q,.r{fill:#fff;}.g,.i,.j,.k,.n,.o,.r,.s{stroke:#fff;}.g,.j,.m,.o{fill:none;}.i,.j,.k,.l,.m,.q,.s{stroke-width:2px;}.u{filter:url(#d);}.o{stroke-width:6px;}.s{opacity:.53;}</style><filter id="d" filterUnits="userSpaceOnUse"><feOffset dx="8.5" dy="5.67"/><feGaussianBlur result="e" stdDeviation="0"/><feFlood flood-color="#000" flood-opacity=".5"/><feComposite in2="e" operator="in"/><feComposite in="SourceGraphic"/></filter></defs><g id="a"/><g id="b"><g id="c"><g class="u"><path class="f" d="M71.76,137.26c-10.94,8.84-14.08,25.17-9.44,38.44,4.65,13.27,15.91,23.49,28.66,29.41,27.62,12.82,61.44,6.57,86.85-10.21,8.74-5.78,17.05-13.19,20.5-23.08,2.63-7.55,2.18-15.79,1.45-23.76-.75-8.2-1.75-16.38-3-24.51-2.31-15.01-5.79-30.58-15.58-42.2-7.29-8.65-17.85-14.49-29.05-16.06l4.09-12.04c5.73,2.56,13.33-.8,15.28-6.76,1.96-5.97-2.17-13.17-8.31-14.5,3.88-3.64,7.57-7.49,11.02-11.54,1.31-1.54,2.65-3.66,1.65-5.42-.96-1.68-3.35-1.7-5.25-1.33-5.57,1.08-10.85,3.66-15.38,7.61-4.73-3.79-11.44-4.95-17.16-2.97-5.73,1.98-10.28,7.04-11.66,12.94-5.83,.39-8.91,6.21-9.03,12.06-.11,5.84,5.88,11.54,11.08,9.29,2.37,3.65,3.68,6.04,5.01,9.07,1.08,2.47-7.53,5.59-7.54,8.29-3.01-3.17-44.68,27.49-49.52,40.84-3.3,9.1-6.65,18.91-4.2,28.28,3.38,12.95,16.44,20.57,28.47,26.42"/><path class="q" d="M161.19,32.07c-2.79,5.97-4.43,12.27-4.55,18.86-.02,1.02,.02,2.13,.65,2.94,.71,.92,1.98,1.2,3.15,1.25,4.16,.16,8.33-2.01,10.59-5.51,2.26-3.49,2.53-8.19,.68-11.92-1.85-3.73-5.75-6.36-9.89-6.67-1.13-5.41-4.84-10.22-9.79-12.69-4.94-2.47-11.02-2.54-16.02-.19-5,2.35-8.83,6.23-10.09,11.61-5.08,1.13-9.16,6.57-9.81,11.74-.65,5.17,2.11,10.57,6.62,13.18,1.41,.82,4.01,1.31,5.17,.15,.35-.35,.26-.39-.1-1.58-2.13-7.08-2.19-15.58-.69-22.24,.82-3.66,3.77-7,6.62-9.43s6.6-3.83,10.35-3.67c3.89,.17,7.61,1.99,10.48,4.62s4.95,6.04,6.64,9.55c0-.02,.03,.03,0,0Z"/><path class="q" d="M147.2,37.06c1.46,1.07,3.42,1.26,5.18,.86s3.36-1.32,4.86-2.33c-.07,1.35-.39,2.68-.95,3.91-.48,1.05-1.18,2.07-2.23,2.52-1.41,.61-3.1,.03-4.23-1.02-1.12-1.04-1.8-2.47-2.63-3.95Z"/><path class="q" d="M128.12,36.62c.18-.03,.51,.1,.8,.3,.33,.24,.59,.44,.85,.65,1.07,.89,2.68,.91,3.99,.45,1.03-.36,1.93-1.14,3.02-1.17,.19,.69-.28,1.36-.73,1.92-.71,.89-1.46,1.8-2.48,2.31-1.25,.62-2.84,.52-4-.27-1.16-.79-1.88-2.22-1.76-3.61,.01-.14,.02-.27,.1-.41,.07-.12,.12-.13,.21-.17Z"/><path class="l" d="M131.82,39.41c-.29-.21-.76-.15-.97,.15s-.14,.76,.17,.96,.77,.09,.94-.24,0-.78-.13-.87Z"/><path class="l" d="M152.45,39.17h-.08c-.44,.08-.71,.57-.49,.95,.05,.09,.12,.17,.21,.22,.36,.22,.9,.05,1.05-.34,.01-.03,.02-.07,.03-.1,.09-.42-.31-.8-.73-.73Z"/><path class="j" d="M160.59,31.75c-9.87,4.69-26.2,3.79-33.24,1.3-.04-.01-.29-.04-.29-.04"/><path class="s" d="M150.98,45.88s-.01-.02-.02,0c-.82,1.29-2.03,1.79-3.35,2.13-2.37,.61-4.85,.8-7.28,.55-1.55-.16-3.23-.57-4.15-1.84-.09,2.1,.05,4.37,1.37,6,1.3,1.6,3.49,2.23,5.54,2.18,1.47-.04,2.96-.39,4.16-1.24,1.2-.85,2.04-2.14,2.58-3.52s.79-2.76,1.16-4.27Z"/><path class="i" d="M145.02,50.27l.09,1.9c0,.13,.02,.26,.1,.36,.13,.15,.36,.12,.55,.06,1.39-.41,2.59-1.77,2.91-3.18-1.27,.52-2.5,.86-3.65,.86Z"/><path class="i" d="M143.49,50.25c.03,.85,.06,1.36,.1,2.21-.62,.18-1.28,.23-1.93,.14-.16-.02-.33-.06-.43-.18-.08-.1-.1-.25-.11-.38-.05-.57-.1-1.4-.15-1.97,.83,.1,1.73,.13,2.53,.18Z"/><path class="i" d="M139.71,49.95s.07,.04,.07,.08c-.03,.7-.06,1.05-.08,1.62,0,.05,0,.12-.05,.15-.05,.04-.12,.02-.17,0-.9-.37-1.63-1.14-1.95-2.06,.68,.11,1.87,.2,2.18,.22Z"/><path class="k" d="M143.25,39.61c-3.88,.78-7.28,3.64-8.72,7.33-.38,.98-.63,2.08-.26,3.07s1.54,1.71,2.5,1.27c.98-.45,1.16-1.72,1.44-2.76,.52-1.92,1.83-3.62,3.56-4.61,1.73-.99,3.85-1.27,5.77-.75"/><path class="o" d="M136.67,31.84c.51-1.46,1.09-2.96,2.21-4.03,1.11-1.08,2.89-1.62,4.24-.87,.86,.47,1.65,1.48,2.27,2.25,.65,.81,1.19,1.8,1.19,2.78-2.77,.42-7.12,.52-9.91-.13Z"/><path class="h" d="M60.31,128.6c-.3-9.91,.19-20.27,4.94-28.97,4.75-8.71,14.86-15.2,24.49-12.82,4.13-12.27,15.63-21.72,28.47-23.41,12.84-1.69,26.39,4.47,33.56,15.25,1.33,2,2.48,4.28,2.3,6.67-.43,5.51-7.13,7.92-12.62,8.48s-12.09,1.23-14.58,6.15c-1.78,3.52-.59,7.73-.63,11.67-.06,6.79-4.23,13.38-10.34,16.33-6.11,2.95-13.86,2.13-19.22-2.04,2.52,7.29,0,16.04-6.03,20.87-6.02,4.83-15.1,5.41-21.68,1.37-6.58-4.03-8.43-12.23-8.65-19.56Z"/><path d="M170.18,129.02l41.48,43.27c3.5,3.65,6.05,7.75,10.8,9.45,4.76,1.71,14.18-5.67,16.73-10.03,2.45-4.19-2.92-4.66-6.13-8.3-3.21-3.65-6.71-7.44-10.58-10.39-9.48-7.21-13.95-17.19-19.85-27.54-5.07-8.89-37.73-1.97-32.45,3.54Z"/><path d="M233.76,173.71c16.77,4.42,33.38,9.42,49.81,14.96,1.25,.42,2.53,.87,3.49,1.76,1.41,1.31,1.88,3.31,2.29,5.19l6.83,31.84c.15,.7,.25,1.56-.3,2.01-.49,.41-1.23,.25-1.84,.08l-56.65-16.29c-1.39-.4-2.84-.83-3.88-1.82-1.56-1.47-1.87-3.8-2.09-5.93-.97-9.3-1.94-18.7-.65-27.96,.12-.86,.28-1.76,.8-2.46s1.54-1.1,2.19-1.38Z"/><path class="t" d="M281.7,191.35c-15.16-5.15-30.43-9.15-45.84-13.6l.04,26.39c0,1.35,.02,2.77,.72,3.92,1.03,1.71,3.18,2.29,5.12,2.75,16.41,3.9,33.08,9.93,49.13,13.74,.57,.14,1.07-.39,.91-.95-2.57-8.87-5.27-20.29-6.98-28.71-.34-1.65-1.52-3-3.11-3.54Z"/><path class="n" d="M222.46,181.74c1.89,.38,3.36,1.91,4.31,3.59s1.5,3.55,2.35,5.29c3.3,6.76,10.52,10.53,17.28,13.85,.96,.47,1.94,.95,3.01,1,1.06,.05,2.23-.43,2.64-1.41,.35-.84,.07-1.84-.47-2.56s-1.33-1.24-2.09-1.73l-8.83-5.74c2.42,2.54,6.7,3.05,9.65,1.15-.52,3.69,1.32,7.61,4.5,9.57,.9,.56,2.25,.89,2.9,.05,.44-.56,.31-1.39-.03-2.02-.34-.63-.85-1.15-1.18-1.79-1.04-2.02,.03-4.45,0-6.72-.04-2.42-1.48-4.76-3.62-5.89-2.14-1.12-4.89-.98-7.11,.02,1.97-.28,4-.55,5.95-.12s3.83,1.71,4.4,3.63c.46,1.55,.05,3.4,1.06,4.66,.72,.9,1.93,1.19,3.06,1.43,1.4,.3,3.26,.37,3.81-.95,.58-1.4-.96-2.66-2.09-3.66-1.7-1.51-2.83-3.63-3.15-5.88-.17-1.22-.13-2.53-.75-3.59-.75-1.29-2.33-1.9-3.82-1.89-1.49,0-2.92,.53-4.32,1.05,1.41-1.23,3.5-1.63,5.26-1s3.12,2.27,3.41,4.12c.19,1.18-.02,2.43,.4,3.55s1.95,1.94,2.81,1.11c.61-.6,.44-1.66-.07-2.35s-1.28-1.12-1.93-1.68c-1.81-1.56-2.62-4.19-2.02-6.5,.23-.88,.65-1.71,.81-2.61s0-1.94-.73-2.49c-.71-.54-1.69-.45-2.57-.33l-6.95,.91c1.1-.86,2.65-.71,4.05-.73,1.4-.02,3.06-.45,3.49-1.79,.34-1.06-.33-2.24-1.26-2.84-.94-.6-2.09-.76-3.19-.89-3.92-.48-9.28-1.15-13.44-1.82,.19,2.02-1.08,2.95-2.53,4.38s-2.47,2.37-4.5,2.16c-2.42,2.96-4.91,6.41-8.49,7.48Z"/><path class="n" d="M213.62,174.45c.86,2.38,2.93,4.07,4.91,5.64,1.08,.85,2.26,1.74,3.63,1.8,.97,.04,1.9-.36,2.79-.74,1.45-.63,2.6-1.56,3.81-2.59,1.14-.97,1.69-1.52,2.6-3.54,2.15,.55,4.03-.71,5.5-2.37,1.66-1.88,2.4-5.56,2.05-6.5-.4-1.09-5.85-5.15-6.7-5.74s-1.21-.61-2.1-.14c-.69,.36-2.21,1.78-3.1,2.95-1.37,1.79-3.25,4.65-2.72,5.93,.65,1.55,5.95,5.12,7.03,5.9-1.71-.99-3.92-2.82-5.6-4.17-1.03,2.16-3.11,4.08-5.41,4.76s-4.87,.32-6.68-1.17Z"/><path class="r" d="M234.93,163.59c-.05-.05-.1-.09-.16-.13-.7-.53-1.38-.98-2.06-1.5-.71-.54-1.61-.96-2.46-.71-.62,.19-1.07,.7-1.48,1.19-1.05,1.29-1.99,2.67-2.82,4.11-.3,.53-.6,1.11-.58,1.72,.03,.81,.61,1.49,1.19,2.06,1.04,1.02,2.19,1.93,3.42,2.72,.75,.48,1.6,.92,2.48,.84,1.08-.1,1.95-.94,2.65-1.74,.91-1.05,1.71-2.2,2.34-3.43,.31-.59,.56-1.24,.47-1.9-.12-.79-.72-1.42-1.36-1.9-.61-.45-1.15-.91-1.64-1.34Z"/><path class="p" d="M203.75,165.38c-1.6-2.21-.85-3.08,1.64-1.96,.58,.26,1.19,.41,1.78,.35,1.71-.17,5.18-2.42,6.54-3.46l3.95,4.8c-1.12,.96-4.38,3.16-5.85,3.35-2.33,.3-4.72-.4-6.68-1.68-.47-.3-.95-.81-1.38-1.41Z"/><path class="p" d="M226.81,153.77c1.84,2.63,1.78,6.43-.14,9-1.92,2.57-5.55,3.71-8.59,2.69-3.04-1.02-5.26-4.11-5.25-7.32,.01-3.21,2.26-6.28,5.31-7.27,3.05-.99,6.73,.14,8.67,2.9Z"/><path class="p" d="M224.96,154.37c1.58,1.83,1.82,4.68,.58,6.75-1.24,2.07-3.88,3.2-6.23,2.67-2.36-.53-4.25-2.68-4.48-5.08s1.22-4.88,3.43-5.85,5.05-.41,6.71,1.51Z"/><path d="M235.23,103.66c-5.2-6.97-10.63-14.16-18.26-18.33-7.63-4.17-18.12-4.44-24.24,1.74,.98-9.21-6.15-18.41-15.23-20.26-9.08-1.85-18.96,3.47-22.9,11.86-1.8,3.84-2.45,8.35-1.07,12.36,2.33,6.78,9.49,10.39,14.63,15.39,6.48,6.3,9.88,15.1,15.54,22.16,6.78,8.45,16.86,14.16,27.59,15.65,10.73,1.48,21.98-1.29,30.79-7.59,3.69-2.64,7.05-5.99,8.77-10.18,1.73-4.2,1.59-9.35-1.17-12.96-3.85-5.02-11.53-5.92-14.45-9.83Z"/><path d="M255.78,35.59c5.26,1.45,10.8-.43,15.93-2.28,1.72-.62,3.55-1.32,4.65-2.78,.88-1.17,1.17-2.67,1.43-4.11,.84-4.72,1.6-9.56,.75-14.28s-3.62-9.35-8.05-11.19c-4.25-1.77-9.09-.7-13.56,.39-2.22,.54-4.7,1.29-5.91,3.31-.81,3.03-.84,6.27-.09,9.31,.29,1.16,.69,2.38,.3,3.51-.4,1.17-1.54,1.92-2.68,2.42-1.94,.85-4.06,1.23-6.09,1.83-2.03,.6-4.08,1.49-5.45,3.11-1.08,1.27-1.64,3.25-.63,4.58,.64,.84,1.75,1.2,2.81,1.18s2.07-.37,3.07-.71c4.65-1.6,9.31-3.21,14.06-4.63l-1.11,7.31c-.07,.46-.14,.93-.07,1.39s.31,.92,.65,1.63Z"/><path class="t" d="M263.3,20.23c0,.95-.61,1.83-1.41,2.36-.79,.53-1.74,.78-2.67,.98s-1.89,.37-2.75,.78l.08,.5c1.45-.22,2.93-.44,4.24-1.12s2.42-1.89,2.5-3.51Z"/><path class="t" d="M255.85,16.05c1.1-.43,2.22-.87,3.4-.9,1.18-.02,2.44,.45,3.03,1.47,.51,.88,.44,1.97,.34,2.99-.08,.79-.2,1.65-.76,2.22-.44,.45-1.08,.65-1.69,.82-1.99,.58-4.04,1.16-6.1,.91,.61-2.49,1.23-4.97,1.77-7.52Z"/><path class="k" d="M228.1,98.52c-.89,8.06,.25,16.34,3.29,23.87,1.13,2.79,2.71,5.68,5.46,6.91,3.21,1.43,7.05,.12,9.83-2.03,6.98-5.39,9.13-14.95,9.66-23.76,1.49-24.54-5.76-49.56-.2-73.52,1.5-6.48,3.81-13.77,.23-19.38-2.59-4.07-8.16-5.94-12.69-4.26-2.36-1.2-5.66,.75-5.75,3.4-2.98-1.01-6.27,1.48-7.12,4.51-.85,3.03,.14,6.27,1.5,9.11s3.1,5.53,3.9,8.58c.98,3.77,.43,7.75-.13,11.61-2.7,18.6-6,37.12-7.98,54.98Z"/><path d="M230.01,100.2c-.33-.88-1.49-1.25-2.37-.92s-1.47,1.21-1.7,2.12-.18,1.87-.11,2.81c.28,3.92,.65,7.85,1.61,11.65s2.55,7.51,5.04,10.54c2.4,2.91,6.08,5.26,9.78,4.52,3.55-.71,5.95-3.94,8-6.93,1.35-1.97,2.76-4.17,2.47-6.54-.18-1.47-1.01-2.8-2.06-3.85s-2.32-1.84-3.58-2.62c-5.84-3.64-11.69-7.28-17.09-10.79Z"/><path class="k" d="M229.82,11.73c-5.61-.29-11.76-.42-16.19,3.03-2.48,1.93-4.1,4.78-5.13,7.75-2.2,6.3-1.95,13.42,.68,19.55,1.49,3.47,3.95,6.8,7.53,7.99,2.97,.99,6.23,.36,9.22-.59,2.8-.89,5.6-2.09,7.67-4.19,2.24-2.27,3.43-5.38,4.13-8.49,1.02-4.51,1.14-9.27-.08-13.73-1.22-4.46-3.85-8.59-7.83-11.34Z"/><path class="t" d="M219.84,13.25c4.36,1.2,8.38,4.57,10.12,8.75s1.39,9.1,.93,13.6c-.29,2.91-.88,5.84-2.27,8.4-1.39,2.57-4.43,5.26-7.23,6.14,2.5-.2,5.47-2.34,6.9-4.39,1.43-2.06,2.47-4.3,2.86-6.77,.9-5.71,1.68-11.85-.54-17.17-2.16-5.18-6.96-8.95-12.54-8.93,.4,.24,1.39,.22,1.8,.46,0,.03,0,.05-.03-.09Z"/><path class="t" d="M217.83,28.43c-1.17,.02-2.08,.78-2.66,1.79-.58,1.01-.62,2.49-.44,3.64,.2,1.31,1.44,2.46,2.73,2.74,1.01,.22,1.89-.27,2.5-1.11,.91-1.26,1.24-3.52,.6-4.83s-1.14-2.23-2.74-2.23Z"/><path class="t" d="M262.45,14.06c1.67,1.18,2.59,3.33,2.32,5.35-.28,2.03-1.75,3.84-3.67,4.54-.19,.03-.2,.33-.05,.45s.36,.1,.55,.06c1.54-.32,2.78-1.56,3.37-3.02s.58-3.1,.27-4.63c-.14-.7-.36-1.4-.81-1.95s-1.21-.89-1.97-.79Z"/><path class="t" d="M251.5,4.87c2.01-1.77,4.67-2.85,7.35-2.8,2.68,.05,5.36,1.29,6.99,3.41,1.49,1.94,2.06,4.43,2.45,6.84,.73,4.47,1.04,9.05,.4,13.54-.4,2.78-1.25,5.68-3.38,7.52-2.58,2.23-6.38,2.35-9.73,1.7-.15,.53,.26,1.09,.77,1.3s1.08,.16,1.63,.11c2.72-.26,5.61-.58,7.75-2.29,2.04-1.63,3.02-4.25,3.6-6.8,1.41-6.13,1.09-12.66-.93-18.62-.61-1.8-1.41-3.6-2.8-4.89-2.22-2.06-5.53-2.44-8.54-2.19-1.23,.1-2.46,.3-3.59,.79s-2.16,1.3-2.72,2.39c.24,.28,.75,.24,.75,0Z"/><path class="t" d="M274.36,4.68c1.22,.9,2.12,2.18,2.71,3.57,.59,1.39,.89,2.9,1.03,4.4l-.36-.08-.27-.82-.14,.36-.46-.34c-.15,.06-.33-.02-.44-.14s-.17-.28-.23-.43c-.4-1.02-.96-1.98-1.66-2.83,.7,.88,1.09,2,1.12,3.13l-.59-.05c-.01-.45-.18-.89-.46-1.24,.23,.45,.28,.98,.14,1.46-.14-.65-.5-1.25-1.01-1.67,.24,.52,.33,1.11,.24,1.68l-.36-.07c-.17-.48-.42-.93-.73-1.34,.32,.95,.49,1.95,.5,2.95-.19-1.02-.62-2-1.25-2.83,.2,.59,.29,1.22,.27,1.84-.13-.48-.31-.95-.55-1.38,.11,.53,.14,1.07,.08,1.61l-.41-1.39c.08,.77,.05,1.54-.09,2.3-.02-.58-.15-1.15-.38-1.68l.09,.84c.05-.45-.04-.91-.27-1.3-.1,.47-.13,.95-.09,1.42l-.29-.86c.34,1.29,.25,2.69-.25,3.93-.59-3.06-1.19-6.15-2.38-9.03,.94,.43,1.69,1.27,2.02,2.26-.22-.69-.56-1.34-1-1.91,.73,.35,1.33,.96,1.68,1.69-.08-.4-.27-.78-.53-1.09,.26,.07,.48,.29,.54,.55l-.33-.6c.29,.16,.52,.43,.64,.73l-.26-.82c.31,.34,.57,.73,.75,1.14-.15-.72-.41-1.42-.77-2.07,.74,.81,1.34,1.76,1.76,2.78-.16-1.11-.49-2.19-.99-3.2,.36,.25,.63,.61,.78,1.02l-.35-1.02,.45,.7-.25-.87c.59,.74,1.09,1.56,1.49,2.42-.15-.77-.45-1.52-.88-2.18,.46,.35,.84,.81,1.11,1.33-.14-.54-.39-1.05-.73-1.5,.81,.43,1.47,1.16,1.82,2.01-.52-1.26-1.26-2.43-2.17-3.44,.37-.11,.73,.18,.99,.46,.68,.75,1.19,1.66,1.45,2.64-.27-.96-.69-1.87-1.24-2.69,.65,.45,1.17,1.11,1.46,1.85-.3-.73-.7-1.43-1.17-2.06l1.07,1.35c-.28-.49-.56-.98-.85-1.5Z"/><path class="t" d="M278.03,21.47c.33-3.25,.66-6.59-.23-9.73,.41,3.2,.47,6.45,.23,9.73Z"/><path class="t" d="M276.27,6.77c-1.12-1.81-2.66-3.36-4.48-4.48,1.04,.8,1.97,1.75,2.76,2.8,.5,.66,.97,1.4,1.72,1.67Z"/><path class="j" d="M223.54,31.32c-.43-5.54-2.33-7.52-5.46-7.52-2.85,0-5.77,2.76-5.77,8.02,0,8.49,4.07,9.13,5.77,9.08,2.05-.07,6.01-2.6,5.46-9.58Z"/><path class="g" d="M199.7,93.08c2.92-.12,5.41,2.41,6.25,5.21,.84,2.8,.42,5.8,0,8.69"/><path class="g" d="M203.28,90.23c.25,1.78,1.95,3.23,3.74,3.2s3.44-1.55,3.62-3.33"/><path class="g" d="M213.23,93.19c-2.31,1.18-3.99,3.51-4.39,6.07s.49,5.29,2.32,7.13"/><path d="M120.51,102.36c-2.82-.29-4.92,2.75-5.32,5.56s.19,5.73-.55,8.47c-.96,3.54-3.98,6.15-7.13,8.03-3.15,1.88-6.61,3.3-9.42,5.66-3.91,3.27-6.3,8.3-6.36,13.4s2.2,10.18,6.02,13.55c1.77,1.56,4.12,3.52,3.32,5.74-.33,.91-1.13,1.55-1.84,2.21-3.96,3.71-5.53,9.49-5.05,14.89,.48,5.41,2.81,10.49,5.66,15.11,3.1,5.02,6.98,9.71,12.06,12.69,5.09,2.98,11.54,4.03,16.96,1.72,5.42-2.31,9.3-8.42,8.06-14.19-1.57-7.31-9.93-11.39-12.24-18.5-2.41-7.43,2.49-14.98,5.52-22.18,7.27-17.28,3.23-38.73-9.71-52.16Z"/><path class="n" d="M155.09,91.05l-17.16-26.7c-.61-.96-1.34-1.99-2.45-2.23-1.18-.25-2.31,.49-3.29,1.19l-7.58,5.46c-2.03,1.46-4.18,3.09-4.93,5.48-.73,2.34,.07,4.86,.98,7.14,2.93,7.3,7.09,14.02,11.23,20.71,1.52,2.46,3.21,5.06,5.87,6.17,2.51,1.05,5.46,.54,7.87-.72s4.4-3.18,6.35-5.08c1.74-1.69,3.53-3.47,4.33-5.75,.8-2.29,.27-5.23-1.23-5.65Z"/><path class="t" d="M130.68,66.37c-3.57,2.59-7.11,5.99-7.55,10.38-.37,3.69,1.56,7.18,3.42,10.4l7.97,13.76c1,1.73,2.09,3.54,3.84,4.48l-10.84-18.34c-1.9-3.21-3.86-6.71-3.52-10.42,.4-4.22,3.7-7.59,7.16-10.04-.23-.11-.45-.22-.49-.22Z"/><path class="n" d="M127.4,119.94c-2.07-4.47-4.17-8.99-5.13-13.82s-.97-12.13,2.77-15.3c.1-.09,3.11,5.72,4.49,7.74,.96,1.42,2.27,2.88,3.97,2.64,1.7-.24,3.23-1.18,4.56-2.26,3.65-2.97,6.22-7.23,7.14-11.84,.92-4.61,.85-9.86-1.39-14,1.84-.39,2.79,1.58,3.76,3.19,3.19,5.27,3.82,12.01,1.68,17.78,1.9-3.29,1.9-7.63,1.12-11.35,3.85,3.57,4.76,10.65,1.21,14.53,1.92-1.36,2.34-3.86,2.39-6.21s-1.15-4.72-2.18-6.85c4.3,4.93,8.21,9.63,4.7,15.14-2.02,3.17-7.22,8.84-7.85,12.54-.2,1.17-.13,2.44-.74,3.47-.76,1.28-2.34,1.78-3.78,2.15-5.37,1.36-10.86,2.24-16.72,2.45Z"/><path d="M131.3,118.74c-6.45,22.59-10.22,42.18-16.67,64.77-2.64,9.24-4.73,20.68,2.33,27.22,5.19,4.81,13.7,4.55,19.74,.87,6.04-3.68,9.95-10.06,12.58-16.62,9.39-23.42,7.44-47.64,3.23-72.53,.09,0-4.99,.84-21.2-3.7Z"/><path class="m" d="M180.9,183.22c.14,13.86-5.71,27.69-15.86,37.13h.06"/><path class="m" d="M177.35,174.84c2.66,14.52-1.9,30.18-12.03,40.91"/><path class="q" d="M192.57,173.81c-12.45-9.15-28.08-13.28-43.52-13.85-13.86-.51-28.15,1.83-40.05,8.97-10.63,6.38-18.95,16.52-23.15,28.19-4.2,11.67-4.23,24.78-.1,36.47,2.09,5.92,5.45,11.72,10.86,14.92,3.72,2.2,10.43,9.01,14.69,9.76,15.15,2.66,26.08,3.96,43.31,2.56,16.06-2.68,33.48-11.64,40.9-24.57,7.55-13.15,14.03-28.29,9.34-42.71-2.7-8.3-7.54-16.25-12.28-19.73Z"/><path class="p" d="M57.81,126.5c6.2-3.85,21.12-3.7,30.31,1.89,9.18,5.59,15.01,15.34,17.89,25.46s3.12,20.73,3.36,31.21,.51,21.1,3.42,31.21c1.55,5.37,3.86,10.84,2.88,16.32-1.52,8.56-10.38,13.89-18.82,16.84-7.31,2.55-15.46,4.13-22.81,1.62-10.72-3.67-16.59-14.92-19.16-25.64-6.66-27.79,1.69-56.6,2.67-85.09,.19-5.61-2.1-10.5,.26-13.82Z"/><path class="i" d="M105.09,244.59c5.46-1.84,10.65-5.49,12.43-10.81,1.23-3.69,.7-7.71-.15-11.51-.75-3.36-1.72-6.67-2.69-9.98-.38-1.31-.85-2.73-2.04-3.46-1.49-.92-3.59-.29-4.77,.97-2.08,2.24-1.81,5.75-.68,8.57,1.13,2.82,2.96,5.38,3.72,8.31,1.13,4.38-.47,9.3-3.97,12.25-.89,.75-1.94,1.43-2.41,2.48s.02,2.61,.56,3.17Z"/><path class="q" d="M35.66,227.59l7.72-72.54c.74-6.99,1.55-14.19,5.04-20.34s10.37-11.05,17.57-10.16c8,.99,13.62,8.79,14.6,16.54,.98,7.75-1.58,15.44-4.11,22.84l-11.97,34.97c-3,8.76-6,17.54-8.08,26.55-.96,4.16-1.78,8.5-4.24,12.03-2.46,3.53-7.12,6.05-11.31,4.68-2.99-.98-5.1-3.76-5.83-6.74-.73-2.97,.4-5.92,.61-7.83Z"/><path class="q" d="M36.43,225.54c2.07,2.99,5.52,5.04,9.21,5.48s7.53-.76,10.27-3.18"/><path class="t" d="M82.48,145.38l-1.75,.39"/><path class="q" d="M63.38,256.52c1.94-3.64,3.97-7.46,3.85-11.56-.13-4.33-.7-7.97-3.45-11.11-2.74-3.13-7.06-4.91-10.53-2.58-1.8,1.21-2.95,3.16-4.68,4.47-4.24,3.21-11.58,.8-12.96-4.25-.51-1.85-.31-3.82-.74-5.69-.43-1.87-1.85-3.79-3.83-3.82-1.83-.03-3.27,1.6-3.83,3.28-.56,1.68-.54,3.5-1,5.21-1.1,4.05-4.76,6.96-8.56,8.97-3.8,2.01-7.96,3.43-11.38,6s-6.03,6.74-5.07,10.84c1.38,5.84,8.97,8.12,15.1,7.34,6.13-.78,12-3.49,18.17-3.22,3.69,.16,7.23,1.38,10.8,2.3,3.57,.92,7.39,1.54,10.92,.51,3.53-1.03,5.71-3.47,7.18-6.68Z"/><path d="M67.37,243.22c-.7-3.4-1.45-6.92-3.59-9.71s-6.08-4.6-9.38-3.27c-3.04,1.23-4.58,4.61-7.43,6.19-3.49,1.94-8.57,.29-10.16-3.31-1-2.27-.7-4.87-1.35-7.26-.65-2.39-3.08-4.76-5.45-3.87-1.58,.59-2.3,2.33-2.77,3.91-.85,2.84-1.48,5.82-3.18,8.27-4.38,6.32-15.29,6.37-19.52,12.77,1.09-1.84,4.62-1.83,6.64-.99,2.45,1.01,3.5,3.82,5.55,5.46,2.69,2.16,6.71,1.98,9.93,.68,3.22-1.3,5.92-3.52,8.88-5.3,2.96-1.77,6.48-3.13,9.89-2.4,3.41,.73,6.3,4.3,5.11,7.47,1.64-2.99,3.86-5.76,6.87-7.49,3-1.73,6.87-2.27,9.96-1.17Z"/><path class="q" d="M65.93,250.85c-4.75,2.39-9.6,4.82-14.88,5.74-7.94,1.39-16.14-.73-24.18,.01-4.1,.38-8.08,1.5-12.11,2.3-4.03,.79-8.25,1.26-12.25,.32"/><path class="p" d="M119.63,117.68c6.61-4.84,23.17-5.69,33.72,.09,10.55,5.78,17.66,16.54,21.52,27.93,3.86,11.4,4.84,23.53,5.8,35.53,.96,11.99,1.62,24.26,5.87,35.51,3.17,8.41,3.84,13.25,3.12,19.6-1.12,9.91-9.43,15.53-18.59,19.48-7.93,3.42-16.87,5.8-25.18,3.42-12.13-3.47-19.39-15.95-22.95-28.05-9.23-31.38-1.89-64.96-2.7-97.66-.16-6.44-3.03-11.88-.63-15.85Z"/><path class="i" d="M177.34,252.06c5.93-2.48,11.44-7.02,13.06-13.24,1.12-4.31,.26-8.88-.93-13.17-1.05-3.8-2.35-7.52-3.65-11.24-.51-1.47-1.13-3.07-2.49-3.82-1.72-.95-4-.09-5.22,1.44-2.16,2.71-1.62,6.71-.19,9.86,1.44,3.15,3.64,5.96,4.68,9.26,1.55,4.94,.1,10.69-3.59,14.31-.94,.92-2.05,1.77-2.51,3.01-.45,1.24,.2,2.98,.83,3.59Z"/><path class="m" d="M190.29,226.27c-.09,.14-.54,.67-.65,.8-3.23,4.13-13.74,5.55-18.03,2.28s-8.09-8.15-8.47-14.39c-.88-14.68-.43-31.6,2.09-46.08,1.02-5.88,2.39-11.72,2.71-17.67s.21-11.55-2.64-16.78c-2.24-4.1-8.55-9.06-14.51-9"/><path class="m" d="M151.09,129.3c3.04-.12,8.27,2.61,9.81,5.34,1.54,2.73,2.21,5.85,2.63,8.96,1.72,12.76-3.66,26.67-5.58,39.4-1.91,12.73-3.34,25.94,.17,38.32,1.3,4.59,3.37,9.12,6.93,12.3,3.69,3.29,8.86,4.84,13.75,4.13s12.16-7.82,12.24-7.82"/><path class="q" d="M101.46,235.91l3.73-83.63c.36-8.06,.78-16.36,4.23-23.65,3.45-7.29,10.76-13.37,18.8-12.85,8.93,.59,15.68,9.14,17.29,17.94s-.73,17.8-3.04,26.45l-10.94,40.88c-2.74,10.24-5.49,20.5-7.19,30.97-.79,4.84-1.41,9.86-3.9,14.08-2.5,4.22-7.49,7.42-12.22,6.14-3.38-.92-5.9-3.96-6.91-7.32-1.01-3.36,.05-6.81,.15-9.02Z"/><path class="q" d="M102.18,233.5c2.49,3.28,6.46,5.4,10.57,5.64s8.3-1.38,11.17-4.34"/><path class="q" d="M116.21,239.05l7.29-78.59c.65-7.03,1.34-14.2,4.19-20.66s8.28-12.2,15.27-12.92l2.02,4.85c-6.43,2.03-11.21,7.68-13.81,13.91-2.6,6.22-3.34,13.04-4.05,19.75-2.57,24.15-5.13,48.29-7.45,72.45,.03,.03,.06,.06-3.46,1.22Z"/><path class="t" d="M151.28,138.51l-1.92,.57"/><path class="q" d="M117.24,115.73c3.21-.6,5.98-1.4,9.05-1.25"/><path class="q" d="M134.11,267.14c1.91-4.3,3.91-8.82,3.5-13.51-.43-4.95-1.31-9.09-4.56-12.49-3.25-3.4-8.15-5.14-11.85-2.23-1.92,1.51-3.06,3.82-4.89,5.44-4.49,3.97-12.79,1.71-14.65-3.98-.68-2.08-.59-4.35-1.2-6.46-.61-2.11-2.31-4.21-4.5-4.11-2.03,.09-3.51,2.05-4.03,4.02s-.36,4.05-.76,6.04c-.95,4.72-4.82,8.3-8.89,10.86-4.08,2.56-8.6,4.48-12.21,7.65-3.62,3.18-6.24,8.14-4.9,12.76,1.91,6.6,10.49,8.69,17.23,7.37,6.74-1.32,13.07-4.83,19.93-4.94,4.1-.07,8.11,1.09,12.13,1.89,4.02,.81,8.29,1.26,12.14-.16,3.85-1.42,6.1-4.37,7.52-8.15Z"/><path d="M137.65,251.63c-1-3.85-2.07-7.83-4.62-10.88-2.55-3.05-7.04-4.86-10.61-3.1-3.29,1.61-4.77,5.59-7.83,7.61-3.74,2.46-9.48,.92-11.48-3.09-1.26-2.53-1.1-5.53-1.97-8.22-.87-2.69-3.73-5.25-6.3-4.06-1.71,.79-2.39,2.83-2.81,4.66-.75,3.31-1.26,6.76-2.98,9.69-4.44,7.54-16.52,8.35-20.79,15.97,1.08-2.18,5-2.41,7.29-1.59,2.78,.99,4.13,4.13,6.51,5.88,3.13,2.29,7.57,1.81,11.05,.1,3.48-1.71,6.33-4.44,9.49-6.68,3.17-2.23,6.98-4.03,10.8-3.42,3.83,.61,7.27,4.5,6.16,8.21,1.62-3.53,3.9-6.87,7.11-9.06s7.47-3.07,10.97-2.02Z"/><path class="q" d="M136.56,260.47c-5.11,3.07-10.32,6.18-16.11,7.6-8.71,2.14-17.94,.27-26.81,1.68-4.52,.72-8.86,2.28-13.28,3.46-4.42,1.19-9.06,2.01-13.56,1.21"/></g></g></g></svg>