<svg xmlns="http://www.w3.org/2000/svg" viewBox="0 0 352.11 544.46"><defs><style>.cls-1{fill:#eb566a;}</style></defs><g id="Capa_5" data-name="Capa 5"><path class="cls-1" d="M294.47,443.85c2,.81,5.75-.83,5.75-.83s-3.37-.79-3.63-3.56a4.2,4.2,0,0,1-1.85-.59c-1.44-.83-2.2-2.23-1.69-3.12s2.1-.93,3.55-.09l.31.19a5.63,5.63,0,0,1,2.84-2.68,4.24,4.24,0,0,1-.39-.7c-.68-1.52-.47-3.1.46-3.52s2.25.48,2.93,2a4.33,4.33,0,0,1,.4,1.85c2.5.07,3.75,2.66,3.75,2.66s1.54-3.21.86-5.26,6.3-5.82,10.83,1.16c0,0,.88,1.77-1.77,1.81-2.15,0-3.21,2-3.44,3.08a.81.81,0,0,1-.64.62c-.83.18-2.29.63-2.7,1.68l0-.05c2.65,3.09,3,7.13.81,9.07s-8.15-.95-8.15-.95c-1.07.34-1.6,1.77-1.83,2.59a.8.8,0,0,1-.66.6c-1.05.17-3.13,1.1-3.28,3.25-.2,2.65-1.91,1.66-1.91,1.66C288.29,449.79,292.48,443.05,294.47,443.85Z"/><path class="cls-1" d="M41.74,421.21c2.53,1,7.29-1.06,7.29-1.06s-4.27-1-4.61-4.51a5.46,5.46,0,0,1-2.34-.75c-1.84-1.06-2.79-2.83-2.14-4s2.66-1.18,4.49-.12l.4.25a7.08,7.08,0,0,1,3.6-3.4,5.83,5.83,0,0,1-.49-.89c-.87-1.93-.61-3.93.58-4.46s2.85.61,3.72,2.54a5.5,5.5,0,0,1,.5,2.35c3.17.09,4.76,3.38,4.76,3.38s2-4.08,1.09-6.67,8-7.38,13.74,1.47c0,0,1.12,2.24-2.25,2.29-2.73,0-4.07,2.59-4.36,3.9a1.05,1.05,0,0,1-.81.8c-1.06.22-2.91.79-3.42,2.12l-.06-.06c3.36,3.92,3.83,9,1,11.5s-10.34-1.2-10.34-1.2c-1.35.43-2,2.24-2.32,3.29a1,1,0,0,1-.84.76c-1.33.21-4,1.4-4.16,4.12-.25,3.36-2.42,2.1-2.42,2.1C33.89,428.74,39.2,420.19,41.74,421.21Z"/><path class="cls-1" d="M85.38,424.43c1.8,2.06,7,2.36,7,2.36S89,424,90.29,420.68A5.3,5.3,0,0,1,88.55,419c-1.16-1.77-1.21-3.79-.12-4.49s2.91.15,4.06,1.92c.09.14.17.27.24.4a7.09,7.09,0,0,1,4.75-1.39,5.74,5.74,0,0,1,0-1c.1-2.12,1.24-3.78,2.54-3.71s2.26,1.83,2.16,3.94a5.67,5.67,0,0,1-.61,2.33c2.78,1.52,2.71,5.16,2.71,5.16s3.59-2.75,4-5.45,10.47-3,11.58,7.53c0,0,0,2.51-3,1-2.45-1.2-4.8.47-5.66,1.51a1.05,1.05,0,0,1-1.08.35c-1-.29-3-.62-4,.34l0-.09c1.21,5-.68,9.8-4.29,10.73s-8.67-5.75-8.67-5.75c-1.41-.23-2.84,1.07-3.56,1.88a1.06,1.06,0,0,1-1.1.29c-1.28-.41-4.17-.55-5.58,1.79-1.74,2.88-3.11.78-3.11.78C75,427.59,83.58,422.38,85.38,424.43Z"/><path class="cls-1" d="M147.49,385.18c2.54,1,7.29-1.06,7.29-1.06s-4.27-1-4.61-4.51a5.6,5.6,0,0,1-2.34-.75c-1.83-1.06-2.79-2.83-2.14-4s2.66-1.18,4.5-.12l.39.25a7.08,7.08,0,0,1,3.6-3.4,5.83,5.83,0,0,1-.49-.89c-.86-1.93-.6-3.93.59-4.46s2.85.61,3.71,2.54a5.5,5.5,0,0,1,.5,2.35c3.18.09,4.76,3.37,4.76,3.37s2-4.07,1.1-6.66,8-7.39,13.73,1.47c0,0,1.12,2.24-2.25,2.28-2.72,0-4.06,2.6-4.36,3.91a1.05,1.05,0,0,1-.81.8c-1.06.22-2.9.79-3.42,2.12l-.06-.06c3.36,3.92,3.83,9,1,11.5s-10.33-1.2-10.33-1.2c-1.36.43-2,2.24-2.32,3.29a1.07,1.07,0,0,1-.85.76c-1.33.21-4,1.4-4.16,4.12-.24,3.36-2.42,2.1-2.42,2.1C139.64,392.71,145,384.16,147.49,385.18Z"/><path class="cls-1" d="M196.4,433.27c1.66.67,4.77-.69,4.77-.69s-2.8-.65-3-2.94a3.65,3.65,0,0,1-1.52-.49c-1.2-.69-1.83-1.85-1.4-2.59s1.74-.77,2.93-.08l.26.17a4.63,4.63,0,0,1,2.35-2.22,4.71,4.71,0,0,1-.32-.59c-.56-1.26-.39-2.56.38-2.91s1.87.39,2.43,1.66a3.56,3.56,0,0,1,.33,1.53,4,4,0,0,1,3.11,2.21s1.28-2.66.71-4.36,5.22-4.82,9,1c0,0,.73,1.47-1.47,1.5a3.17,3.17,0,0,0-2.85,2.55.7.7,0,0,1-.53.52c-.69.14-1.9.52-2.24,1.38l0,0c2.2,2.57,2.51,5.91.68,7.52s-6.75-.78-6.75-.78c-.89.28-1.33,1.46-1.52,2.14a.69.69,0,0,1-.55.5,3.17,3.17,0,0,0-2.72,2.69c-.16,2.2-1.58,1.38-1.58,1.38C191.27,438.19,194.75,432.61,196.4,433.27Z"/><path class="cls-1" d="M253.45,464.87c1.66.66,4.77-.69,4.77-.69s-2.8-.66-3-2.95a3.59,3.59,0,0,1-1.53-.49c-1.19-.69-1.82-1.85-1.4-2.58s1.75-.77,2.94-.08a2.26,2.26,0,0,1,.26.16,4.63,4.63,0,0,1,2.35-2.22,3.6,3.6,0,0,1-.32-.58c-.56-1.27-.39-2.57.38-2.92s1.87.4,2.43,1.66a3.6,3.6,0,0,1,.33,1.54,4,4,0,0,1,3.11,2.2s1.28-2.66.71-4.35,5.22-4.83,9,1c0,0,.74,1.46-1.46,1.49a3.18,3.18,0,0,0-2.85,2.55.67.67,0,0,1-.53.52c-.69.15-1.9.52-2.24,1.39l0,0c2.2,2.56,2.51,5.91.68,7.51s-6.75-.78-6.75-.78c-.89.28-1.33,1.47-1.52,2.15a.68.68,0,0,1-.55.49,3.19,3.19,0,0,0-2.72,2.7c-.16,2.19-1.58,1.37-1.58,1.37C248.32,469.79,251.8,464.2,253.45,464.87Z"/><path class="cls-1" d="M307.63,469.06c1.66.66,4.77-.69,4.77-.69s-2.79-.65-3-2.95a3.51,3.51,0,0,1-1.53-.49c-1.2-.69-1.83-1.85-1.4-2.58s1.74-.77,2.94-.08l.25.16a4.61,4.61,0,0,1,2.36-2.22,4.61,4.61,0,0,1-.33-.58c-.56-1.26-.39-2.57.39-2.92s1.86.4,2.42,1.66a3.46,3.46,0,0,1,.33,1.54,4,4,0,0,1,3.11,2.2s1.28-2.66.72-4.35,5.22-4.83,9,1c0,0,.73,1.46-1.47,1.49a3.19,3.19,0,0,0-2.85,2.55.66.66,0,0,1-.53.52c-.69.15-1.9.52-2.23,1.39l0,0c2.19,2.56,2.5,5.91.67,7.51s-6.75-.78-6.75-.78c-.89.28-1.33,1.47-1.52,2.15a.66.66,0,0,1-.55.49,3.19,3.19,0,0,0-2.72,2.7c-.16,2.19-1.58,1.37-1.58,1.37C302.51,474,306,468.39,307.63,469.06Z"/><path class="cls-1" d="M100.4,385c.69,1.64,3.84,2.9,3.84,2.9s-1.5-2.45,0-4.22a3.45,3.45,0,0,1-.73-1.43c-.35-1.34,0-2.6.85-2.81s1.78.69,2.13,2l.06.3a4.56,4.56,0,0,1,3.23.11,5.17,5.17,0,0,1,.19-.64c.5-1.29,1.55-2.09,2.34-1.78s1,1.6.53,2.89a3.65,3.65,0,0,1-.86,1.32,4,4,0,0,1,.62,3.76s2.79-1,3.6-2.56,7.1.32,5.63,7.05c0,0-.53,1.56-2.1,0a3.19,3.19,0,0,0-3.82-.23.68.68,0,0,1-.74,0,3,3,0,0,0-2.55-.61V391c-.28,3.36-2.44,5.94-4.87,5.77s-4.19-5.35-4.19-5.35a3,3,0,0,0-2.6.43.67.67,0,0,1-.73,0,3.18,3.18,0,0,0-3.83,0c-1.67,1.43-2.09-.16-2.09-.16C93.3,384.82,99.71,383.36,100.4,385Z"/><path class="cls-1" d="M136.46,438.38c1.66.66,4.76-.69,4.76-.69s-2.79-.66-3-2.95a3.55,3.55,0,0,1-1.53-.49c-1.19-.69-1.82-1.85-1.4-2.59s1.74-.77,2.94-.07a2.26,2.26,0,0,1,.26.16,4.59,4.59,0,0,1,2.35-2.22,3.6,3.6,0,0,1-.32-.58c-.56-1.27-.39-2.57.38-2.92s1.86.4,2.43,1.66a3.6,3.6,0,0,1,.33,1.54,4,4,0,0,1,3.11,2.2s1.28-2.66.71-4.35,5.22-4.83,9,.95c0,0,.74,1.47-1.46,1.5a3.16,3.16,0,0,0-2.85,2.55.69.69,0,0,1-.53.52c-.69.15-1.9.52-2.24,1.39l0,0c2.2,2.56,2.51,5.91.68,7.51s-6.75-.78-6.75-.78c-.89.28-1.33,1.46-1.52,2.15a.68.68,0,0,1-.55.49,3.19,3.19,0,0,0-2.72,2.69c-.16,2.2-1.58,1.38-1.58,1.38C131.33,443.3,134.81,437.71,136.46,438.38Z"/><path class="cls-1" d="M60.86,368.3c1.66.67,4.77-.69,4.77-.69s-2.8-.65-3-2.95a3.51,3.51,0,0,1-1.52-.49c-1.2-.69-1.83-1.85-1.4-2.58s1.74-.77,2.93-.08l.26.16a4.63,4.63,0,0,1,2.35-2.22,4.57,4.57,0,0,1-.32-.58c-.56-1.26-.39-2.57.38-2.92s1.87.4,2.43,1.66a3.6,3.6,0,0,1,.33,1.54,4,4,0,0,1,3.11,2.2s1.28-2.66.72-4.35,5.21-4.82,9,1c0,0,.73,1.47-1.47,1.49A3.19,3.19,0,0,0,76.53,362a.7.7,0,0,1-.53.52c-.69.14-1.9.51-2.23,1.38l0,0c2.2,2.56,2.51,5.91.68,7.52s-6.75-.79-6.75-.79c-.89.28-1.33,1.47-1.52,2.15a.66.66,0,0,1-.55.49,3.2,3.2,0,0,0-2.72,2.7c-.16,2.19-1.58,1.37-1.58,1.37C55.73,373.22,59.21,367.64,60.86,368.3Z"/><path class="cls-1" d="M202.62,520.08c1.13.45,3.23-.47,3.23-.47s-1.89-.44-2-2a2.46,2.46,0,0,1-1-.33c-.81-.47-1.23-1.25-.94-1.75s1.18-.52,2,0l.17.11a3.15,3.15,0,0,1,1.6-1.51,1.87,1.87,0,0,1-.22-.39c-.39-.86-.27-1.74.26-2s1.26.27,1.64,1.13a2.38,2.38,0,0,1,.22,1,2.7,2.7,0,0,1,2.11,1.49,5,5,0,0,0,.48-3c-.38-1.15,3.54-3.27,6.08.65,0,0,.5,1-1,1a2.16,2.16,0,0,0-1.93,1.73.45.45,0,0,1-.36.35c-.47.1-1.29.35-1.51.94l0,0c1.49,1.73,1.7,4,.46,5.09s-4.58-.53-4.58-.53c-.6.19-.9,1-1,1.45a.45.45,0,0,1-.37.34,2.15,2.15,0,0,0-1.84,1.82c-.11,1.49-1.07.93-1.07.93C199.15,523.41,201.5,519.63,202.62,520.08Z"/><path class="cls-1" d="M204.06,493.67c1.12.45,3.22-.47,3.22-.47s-1.89-.45-2-2a2.43,2.43,0,0,1-1-.33c-.81-.47-1.24-1.25-1-1.75s1.18-.52,2-.06l.17.11a3.17,3.17,0,0,1,1.6-1.5,2.46,2.46,0,0,1-.22-.39c-.38-.86-.27-1.74.26-2s1.26.27,1.64,1.13a2.4,2.4,0,0,1,.23,1A2.7,2.7,0,0,1,211,489a5,5,0,0,0,.49-2.95c-.38-1.15,3.53-3.27,6.08.65,0,0,.49,1-1,1a2.16,2.16,0,0,0-1.93,1.73.45.45,0,0,1-.36.35c-.47.1-1.28.35-1.51.94l0,0c1.49,1.74,1.7,4,.46,5.1s-4.58-.53-4.58-.53c-.6.19-.9,1-1,1.45a.47.47,0,0,1-.38.34,2.15,2.15,0,0,0-1.84,1.82c-.11,1.49-1.07.93-1.07.93C200.58,497,202.93,493.22,204.06,493.67Z"/><path class="cls-1" d="M177.51,497.58c.6,1,2.82,1.62,2.82,1.62s-1.21-1.51-.37-2.83a2.51,2.51,0,0,1-.61-.9c-.35-.87-.2-1.75.33-2s1.26.31,1.6,1.18a1.59,1.59,0,0,1,.07.2,3.16,3.16,0,0,1,2.19-.2,2.34,2.34,0,0,1,.07-.45c.23-.91.86-1.53,1.42-1.39s.83,1,.6,1.9a2.23,2.23,0,0,1-.47.95,2.72,2.72,0,0,1,.74,2.48s1.8-.88,2.2-2,4.8-.39,4.38,4.26c0,0-.22,1.09-1.4.18a2.17,2.17,0,0,0-2.59.17.46.46,0,0,1-.5.06,2.06,2.06,0,0,0-1.77-.2v0c.1,2.29-1.13,4.2-2.78,4.29s-3.27-3.24-3.27-3.24c-.59-.22-1.32.23-1.71.51a.47.47,0,0,1-.5,0,2.15,2.15,0,0,0-2.57.29c-1,1.11-1.42.08-1.42.08C172.71,498.06,176.9,496.53,177.51,497.58Z"/><path class="cls-1" d="M112.54,327.94c-.75.95-.46,3.23-.46,3.23s1-1.69,2.49-1.4a2.33,2.33,0,0,1,.61-.9c.68-.65,1.55-.84,1.95-.42s.17,1.27-.51,1.92l-.15.14a3.18,3.18,0,0,1,1,1.95,2.6,2.6,0,0,1,.44-.1c.92-.13,1.74.23,1.82.8s-.61,1.14-1.54,1.27a2.43,2.43,0,0,1-1.06-.08,2.69,2.69,0,0,1-2,1.6,5.07,5.07,0,0,0,2.7,1.3c1.21-.05,2.15,4.31-2.33,5.65,0,0-1.09.2-.69-1.24a2.17,2.17,0,0,0-1.12-2.34.47.47,0,0,1-.24-.44,2,2,0,0,0-.47-1.72l0,0c-2.08.94-4.32.51-5-1s1.8-4.25,1.8-4.25c0-.63-.7-1.14-1.11-1.39a.45.45,0,0,1-.22-.45,2.15,2.15,0,0,0-1.24-2.28c-1.39-.52-.59-1.29-.59-1.29C110.31,323.67,113.29,327,112.54,327.94Z"/><path class="cls-1" d="M173.69,470.35c.32,1.17,2.33,2.29,2.33,2.29s-.79-1.78.35-2.83a2.56,2.56,0,0,1-.36-1c-.11-.93.25-1.74.83-1.81s1.12.62,1.24,1.55a1.49,1.49,0,0,1,0,.21,3.07,3.07,0,0,1,2.16.36,3.79,3.79,0,0,1,.18-.42c.45-.82,1.23-1.26,1.73-1s.55,1.16.1,2a2.38,2.38,0,0,1-.69.8,2.72,2.72,0,0,1,.08,2.58,5,5,0,0,0,2.64-1.39c.69-1,4.74.84,3.16,5.23,0,0-.49,1-1.41-.18a2.15,2.15,0,0,0-2.54-.49.48.48,0,0,1-.5-.07c-.36-.32-1.06-.82-1.66-.64v0c-.48,2.23-2.16,3.77-3.78,3.44s-2.34-4-2.34-4a2,2,0,0,0-1.78.07.47.47,0,0,1-.49-.1,2.16,2.16,0,0,0-2.57-.36c-1.25.81-1.39-.29-1.39-.29C168.94,469.6,173.38,469.18,173.69,470.35Z"/><path class="cls-1" d="M243.9,422.08c.14,1.93,2.93,4.31,2.93,4.31s-.69-3,1.44-4.33a3.76,3.76,0,0,1-.25-1.72c.1-1.49.93-2.65,1.85-2.59s1.58,1.33,1.47,2.82a3.31,3.31,0,0,1,0,.33,5,5,0,0,1,3.28,1.24,4.47,4.47,0,0,1,.41-.59c1-1.15,2.32-1.6,3-1s.5,2-.46,3.15a4.13,4.13,0,0,1-1.34,1.05c.92,2-.67,4.07-.67,4.07s3.19,0,4.57-1.37,7.17,2.79,3.32,9.18c0,0-1.08,1.41-2.15-.72a3.44,3.44,0,0,0-3.83-1.56.76.76,0,0,1-.76-.27c-.47-.61-1.4-1.6-2.4-1.52l0-.06c-1.46,3.35-4.57,5.24-7,4.22s-2.43-6.94-2.43-6.94c-.7-.73-2.06-.6-2.81-.45a.76.76,0,0,1-.75-.31,3.43,3.43,0,0,0-3.9-1.36c-2.22.88-2.09-.89-2.09-.89C236.68,419.42,243.76,420.15,243.9,422.08Z"/><path class="cls-1" d="M159.13,488.42a3.65,3.65,0,0,0,2.11.35s-1.1-.65-.88-1.65a1.61,1.61,0,0,1-.59-.42c-.41-.45-.52-1-.24-1.28s.84-.1,1.26.36l.08.1a2.06,2.06,0,0,1,1.3-.63,1.24,1.24,0,0,1-.06-.29c-.07-.61.18-1.14.55-1.18s.74.42.81,1a1.7,1.7,0,0,1-.06.69,1.79,1.79,0,0,1,1,1.36,3.33,3.33,0,0,0,.89-1.76c0-.79,2.86-1.34,3.68,1.61,0,0,.11.73-.83.44a1.41,1.41,0,0,0-1.55.7.28.28,0,0,1-.29.15,1.37,1.37,0,0,0-1.14.29v0c.59,1.38.27,2.84-.72,3.28s-2.76-1.24-2.76-1.24c-.42,0-.76.44-.93.71a.34.34,0,0,1-.3.14,1.42,1.42,0,0,0-1.52.77c-.36.91-.85.38-.85.38C156.29,489.82,158.51,487.92,159.13,488.42Z"/><path class="cls-1" d="M63,316.93c.28,1.1,2.13,2.19,2.13,2.19s-.7-1.68.39-2.64a2.37,2.37,0,0,1-.32-1c-.09-.88.27-1.63.81-1.69s1.05.61,1.14,1.49c0,.06,0,.12,0,.19a2.92,2.92,0,0,1,2,.38,1.46,1.46,0,0,1,.18-.38c.43-.76,1.17-1.16,1.64-.89s.49,1.1,0,1.86a2.21,2.21,0,0,1-.67.74,2.55,2.55,0,0,1,0,2.42,4.69,4.69,0,0,0,2.5-1.25c.66-.92,4.43.88,2.85,5,0,0-.48.93-1.31-.19a2,2,0,0,0-2.38-.52.43.43,0,0,1-.46-.07,1.89,1.89,0,0,0-1.54-.64v0c-.5,2.08-2.1,3.49-3.61,3.15s-2.11-3.76-2.11-3.76a1.88,1.88,0,0,0-1.67,0,.44.44,0,0,1-.46-.1,2,2,0,0,0-2.4-.4c-1.19.74-1.29-.3-1.29-.3C58.54,316.13,62.71,315.83,63,316.93Z"/><path class="cls-1" d="M121.5,490.14c-2.53,1-7.29-1.05-7.29-1.05s4.27-1,4.61-4.51a5.6,5.6,0,0,0,2.34-.75c1.83-1.06,2.79-2.83,2.14-4s-2.66-1.18-4.5-.12l-.39.25a7.08,7.08,0,0,0-3.6-3.4,5.83,5.83,0,0,0,.49-.89c.87-1.93.6-3.93-.58-4.46s-2.85.6-3.72,2.54a5.5,5.5,0,0,0-.5,2.35c-3.18.09-4.76,3.37-4.76,3.37s-2-4.07-1.1-6.66-8-7.39-13.73,1.46c0,0-1.12,2.25,2.25,2.29,2.73,0,4.07,2.6,4.36,3.91a1.07,1.07,0,0,0,.81.8c1.06.22,2.91.78,3.42,2.11l.06-.06c-3.36,3.93-3.83,9.05-1,11.51s10.33-1.2,10.33-1.2c1.36.43,2,2.24,2.32,3.29a1,1,0,0,0,.85.75c1.33.22,4,1.4,4.16,4.13.25,3.35,2.42,2.1,2.42,2.1C129.35,497.68,124,489.13,121.5,490.14Z"/><path class="cls-1" d="M242.08,271.26c-2.53,1-7.29-1.06-7.29-1.06s4.27-1,4.61-4.51a5.6,5.6,0,0,0,2.34-.75c1.83-1.06,2.79-2.83,2.14-4s-2.66-1.18-4.5-.12l-.39.25a7.08,7.08,0,0,0-3.6-3.4,5.83,5.83,0,0,0,.49-.89c.87-1.93.6-3.93-.58-4.46s-2.85.61-3.72,2.54a5.5,5.5,0,0,0-.5,2.35c-3.18.09-4.76,3.37-4.76,3.37s-2-4.07-1.1-6.66-8-7.39-13.73,1.47c0,0-1.12,2.24,2.25,2.28,2.73,0,4.07,2.6,4.36,3.91a1.07,1.07,0,0,0,.81.8c1.06.22,2.91.79,3.42,2.12l.06-.06c-3.36,3.92-3.83,9-1,11.5s10.33-1.2,10.33-1.2c1.36.43,2,2.24,2.33,3.29a1,1,0,0,0,.84.76c1.33.21,4,1.4,4.16,4.12.25,3.36,2.42,2.1,2.42,2.1C249.93,278.79,244.61,270.24,242.08,271.26Z"/><path class="cls-1" d="M87.42,283.32c-1.66.67-4.77-.69-4.77-.69s2.79-.65,3-2.95a3.51,3.51,0,0,0,1.53-.49c1.2-.69,1.83-1.84,1.4-2.58s-1.74-.77-2.94-.08l-.25.16A4.66,4.66,0,0,0,83,274.47a4.61,4.61,0,0,0,.33-.58c.56-1.26.39-2.57-.39-2.91s-1.86.39-2.42,1.66a3.53,3.53,0,0,0-.33,1.53,4,4,0,0,0-3.11,2.2s-1.28-2.66-.72-4.35-5.22-4.82-9,1c0,0-.73,1.47,1.47,1.49A3.19,3.19,0,0,1,71.75,277a.69.69,0,0,0,.53.52c.69.14,1.9.51,2.23,1.38l0,0c-2.19,2.57-2.5,5.91-.67,7.52s6.75-.79,6.75-.79c.89.29,1.33,1.47,1.52,2.15a.69.69,0,0,0,.55.5A3.17,3.17,0,0,1,85.42,291c.16,2.19,1.58,1.37,1.58,1.37C92.54,288.24,89.07,282.66,87.42,283.32Z"/><path class="cls-1" d="M208.49,465.66c-1.66.66-4.77-.69-4.77-.69s2.79-.66,3-3a3.51,3.51,0,0,0,1.53-.49c1.2-.69,1.83-1.85,1.4-2.58s-1.74-.77-2.94-.08l-.25.16a4.63,4.63,0,0,0-2.35-2.22,6.29,6.29,0,0,0,.32-.58c.56-1.27.39-2.57-.39-2.92s-1.86.4-2.42,1.66a3.6,3.6,0,0,0-.33,1.54,4,4,0,0,0-3.11,2.2s-1.28-2.66-.72-4.35-5.22-4.83-9,1c0,0-.73,1.46,1.47,1.49a3.18,3.18,0,0,1,2.85,2.55.67.67,0,0,0,.53.52c.69.15,1.9.52,2.23,1.39l0,0c-2.19,2.56-2.5,5.91-.67,7.51s6.75-.78,6.75-.78c.89.28,1.33,1.47,1.52,2.15a.66.66,0,0,0,.55.49,3.19,3.19,0,0,1,2.72,2.7c.16,2.19,1.58,1.37,1.58,1.37C213.61,470.58,210.14,465,208.49,465.66Z"/><path class="cls-1" d="M154.3,469.85c-1.65.66-4.76-.69-4.76-.69s2.79-.65,3-3a3.51,3.51,0,0,0,1.53-.49c1.2-.69,1.83-1.85,1.4-2.58s-1.74-.77-2.94-.08l-.26.16a4.59,4.59,0,0,0-2.35-2.22,3.6,3.6,0,0,0,.32-.58c.57-1.26.4-2.57-.38-2.92s-1.86.4-2.43,1.66a3.75,3.75,0,0,0-.33,1.54,4,4,0,0,0-3.1,2.2s-1.28-2.66-.72-4.35-5.22-4.83-9,1c0,0-.73,1.46,1.47,1.49a3.19,3.19,0,0,1,2.85,2.55.66.66,0,0,0,.52.52c.7.15,1.9.52,2.24,1.39l0,0c-2.19,2.56-2.5,5.91-.67,7.51s6.75-.78,6.75-.78c.89.28,1.33,1.47,1.51,2.15a.68.68,0,0,0,.55.49,3.2,3.2,0,0,1,2.72,2.7c.16,2.19,1.58,1.37,1.58,1.37C159.43,474.77,156,469.18,154.3,469.85Z"/><path class="cls-1" d="M183.42,235.05c-.69,1.65-3.84,2.9-3.84,2.9s1.5-2.44,0-4.21a3.65,3.65,0,0,0,.73-1.43c.35-1.34,0-2.6-.85-2.81s-1.78.69-2.13,2c0,.1,0,.2-.06.3a4.59,4.59,0,0,0-3.24.11,3.83,3.83,0,0,0-.18-.64c-.5-1.29-1.55-2.09-2.34-1.78s-1,1.6-.53,2.89a3.6,3.6,0,0,0,.86,1.32,4,4,0,0,0-.62,3.76s-2.8-1-3.6-2.56-7.1.32-5.63,7c0,0,.53,1.55,2.09,0a3.18,3.18,0,0,1,3.82-.23.68.68,0,0,0,.74,0c.59-.39,1.71-1,2.56-.61v-.06c.28,3.36,2.44,5.94,4.87,5.77s4.19-5.35,4.19-5.35a3,3,0,0,1,2.59.43.7.7,0,0,0,.74,0,3.18,3.18,0,0,1,3.83,0c1.67,1.43,2.09-.16,2.09-.16C190.52,234.87,184.11,233.41,183.42,235.05Z"/><path class="cls-1" d="M183.6,294.74c-1.65.67-4.76-.69-4.76-.69s2.79-.65,3-2.94a3.64,3.64,0,0,0,1.53-.49c1.2-.7,1.83-1.85,1.4-2.59s-1.74-.77-2.94-.08l-.25.16a4.7,4.7,0,0,0-2.36-2.22,4,4,0,0,0,.33-.58c.56-1.26.39-2.57-.39-2.91s-1.86.39-2.42,1.66a3.42,3.42,0,0,0-.33,1.53,4,4,0,0,0-3.11,2.21s-1.28-2.67-.72-4.36-5.22-4.82-9,1c0,0-.73,1.47,1.47,1.5a3.17,3.17,0,0,1,2.85,2.55.69.69,0,0,0,.53.52c.69.14,1.9.51,2.23,1.38l0,0c-2.19,2.57-2.5,5.91-.67,7.52s6.75-.79,6.75-.79c.89.29,1.33,1.47,1.52,2.15a.69.69,0,0,0,.55.5,3.18,3.18,0,0,1,2.72,2.69c.16,2.2,1.58,1.37,1.58,1.37C188.73,299.66,185.26,294.08,183.6,294.74Z"/><path class="cls-1" d="M244.94,162.12c.47,1.72-1.24,4.65-1.24,4.65s-.33-2.85-2.58-3.33a3.47,3.47,0,0,0-.31-1.58c-.55-1.27-1.62-2-2.4-1.69s-1,1.64-.42,2.91a2.39,2.39,0,0,0,.13.28,4.62,4.62,0,0,0-2.48,2.08,3.74,3.74,0,0,0-.54-.39c-1.19-.71-2.5-.69-2.94,0s.18,1.9,1.37,2.6a3.53,3.53,0,0,0,1.49.51,4,4,0,0,0,1.83,3.34s-2.8,1-4.41.21-5.4,4.62-.09,9c0,0,1.37.9,1.66-1.28a3.18,3.18,0,0,1,2.86-2.54.7.7,0,0,0,.58-.46c.22-.68.73-1.83,1.63-2.06l0-.05c2.29,2.48,5.58,3.17,7.38,1.54s0-6.79,0-6.79c.38-.85,1.61-1.16,2.31-1.26a.68.68,0,0,0,.55-.49,3.18,3.18,0,0,1,3-2.39c2.2.09,1.55-1.41,1.55-1.41C250.42,157.59,244.47,160.4,244.94,162.12Z"/><path class="cls-1" d="M260.43,228.25c-1.12.45-3.23-.47-3.23-.47s1.9-.44,2-2a2.42,2.42,0,0,0,1-.33c.81-.47,1.24-1.25,1-1.75s-1.18-.52-2,0l-.18.11a3.09,3.09,0,0,0-1.59-1.51,3.61,3.61,0,0,0,.22-.39c.38-.86.26-1.74-.26-2s-1.26.27-1.65,1.13a2.41,2.41,0,0,0-.22,1,2.72,2.72,0,0,0-2.11,1.49,5.05,5.05,0,0,1-.48-2.95c.38-1.15-3.54-3.27-6.08.65,0,0-.49,1,1,1a2.17,2.17,0,0,1,1.93,1.73.48.48,0,0,0,.35.36c.47.09,1.29.35,1.52.93l0,0c-1.49,1.73-1.7,4-.46,5.09s4.57-.53,4.57-.53c.61.19.91,1,1,1.45a.47.47,0,0,0,.37.34,2.16,2.16,0,0,1,1.85,1.82c.11,1.49,1.07.93,1.07.93C263.91,231.58,261.55,227.8,260.43,228.25Z"/><path class="cls-1" d="M237.25,123.15c.32,1.16-.84,3.15-.84,3.15s-.22-1.93-1.75-2.26a2.4,2.4,0,0,0-.21-1.07c-.37-.86-1.1-1.37-1.63-1.14s-.65,1.11-.28,2l.09.18a3.17,3.17,0,0,0-1.68,1.41,2.68,2.68,0,0,0-.37-.26c-.8-.48-1.69-.46-2,0s.12,1.28.93,1.76a2.49,2.49,0,0,0,1,.35,2.67,2.67,0,0,0,1.24,2.26,5.07,5.07,0,0,1-3,.14c-1.1-.51-3.66,3.13-.06,6.11,0,0,.93.61,1.12-.87a2.18,2.18,0,0,1,1.94-1.72.44.44,0,0,0,.39-.31c.16-.45.5-1.24,1.11-1.4l0,0c1.55,1.68,3.78,2.15,5,1.05s0-4.61,0-4.61c.26-.57,1.09-.78,1.56-.85a.48.48,0,0,0,.38-.33,2.15,2.15,0,0,1,2-1.62c1.49.07,1.05-1,1.05-1C241,120.08,236.93,122,237.25,123.15Z"/><path class="cls-1" d="M203.68,112.34c.32,1.16-.84,3.15-.84,3.15s-.22-1.93-1.74-2.26a2.54,2.54,0,0,0-.21-1.07c-.37-.86-1.1-1.37-1.63-1.14s-.66,1.11-.29,2l.09.19a3.15,3.15,0,0,0-1.68,1.4,3.32,3.32,0,0,0-.36-.26c-.81-.48-1.7-.46-2,0s.12,1.29.92,1.76a2.49,2.49,0,0,0,1,.35,2.7,2.7,0,0,0,1.24,2.26,5.06,5.06,0,0,1-3,.14c-1.09-.51-3.65,3.14-.06,6.11,0,0,.93.61,1.13-.87a2.14,2.14,0,0,1,1.94-1.71.48.48,0,0,0,.39-.32c.15-.45.49-1.24,1.1-1.39l0,0c1.55,1.67,3.78,2.14,5,1s0-4.61,0-4.61c.26-.57,1.09-.78,1.56-.85a.48.48,0,0,0,.38-.33,2.16,2.16,0,0,1,2-1.62c1.49.07,1.05-1,1.05-1C207.39,109.27,203.36,111.17,203.68,112.34Z"/><path class="cls-1" d="M179.78,84.6c.73,1,.4,3.24.4,3.24s-.93-1.71-2.46-1.45a2.4,2.4,0,0,0-.6-.91c-.66-.66-1.53-.87-1.93-.46s-.2,1.27.46,1.93a1.07,1.07,0,0,0,.16.14,3.15,3.15,0,0,0-1,1.93,2.84,2.84,0,0,0-.44-.1c-.92-.15-1.75.19-1.84.76s.59,1.15,1.52,1.3a2.45,2.45,0,0,0,1.06-.06,2.69,2.69,0,0,0,2,1.64,5,5,0,0,1-2.72,1.24c-1.2-.07-2.23,4.27,2.22,5.7,0,0,1.09.22.72-1.22A2.14,2.14,0,0,1,178.44,96a.48.48,0,0,0,.25-.44,2,2,0,0,1,.51-1.7l0,0c2.07,1,4.31.59,5-.89s-1.71-4.28-1.71-4.28c0-.63.72-1.13,1.14-1.37a.47.47,0,0,0,.22-.45,2.15,2.15,0,0,1,1.28-2.25c1.41-.5.62-1.28.62-1.28C182.09,80.38,179.06,83.63,179.78,84.6Z"/><path class="cls-1" d="M150.76,82.28a2.34,2.34,0,0,1,.16,1.34s-.38-.71-1-.6a.93.93,0,0,0-.24-.38c-.28-.27-.63-.35-.8-.19s-.08.53.19.81l.06,0a1.3,1.3,0,0,0-.42.8l-.18,0c-.39-.06-.73.08-.76.31s.24.48.62.54a1.27,1.27,0,0,0,.44,0,1.11,1.11,0,0,0,.82.67,2,2,0,0,1-1.12.52c-.5,0-.92,1.76.92,2.35,0,0,.45.09.29-.5a.9.9,0,0,1,.48-1,.21.21,0,0,0,.11-.18.83.83,0,0,1,.21-.71h0a1.54,1.54,0,0,0,2.08-.36c.3-.6-.7-1.77-.7-1.77,0-.26.3-.47.47-.57a.19.19,0,0,0,.09-.18.91.91,0,0,1,.53-.94c.58-.2.26-.52.26-.52C151.71,80.53,150.46,81.88,150.76,82.28Z"/><path class="cls-1" d="M134.15,80.52c.06.5-.53,1.24-.53,1.24s0-.8-.58-1a1,1,0,0,0,0-.45c-.1-.38-.37-.63-.6-.57s-.33.42-.23.79a.24.24,0,0,0,0,.08,1.3,1.3,0,0,0-.77.48.8.8,0,0,0-.13-.13c-.3-.25-.67-.29-.82-.11s0,.53.27.78a1.07,1.07,0,0,0,.4.2,1.11,1.11,0,0,0,.37,1,2.12,2.12,0,0,1-1.23-.12c-.42-.28-1.69,1.06-.39,2.5,0,0,.34.3.51-.29a.89.89,0,0,1,.9-.59.21.21,0,0,0,.18-.11c.08-.17.27-.47.53-.5h0a1.56,1.56,0,0,0,2,.72c.56-.37.27-1.88.27-1.88a.87.87,0,0,1,.7-.26.18.18,0,0,0,.17-.11.87.87,0,0,1,.93-.54c.6.11.48-.33.48-.33C135.85,79.49,134.09,80,134.15,80.52Z"/><path class="cls-1" d="M135.26,66.91c.06.5-.53,1.24-.53,1.24s0-.8-.58-1a1.16,1.16,0,0,0,0-.45c-.11-.37-.37-.63-.6-.56s-.34.41-.24.79l0,.08a1.26,1.26,0,0,0-.77.47l-.14-.13c-.3-.24-.66-.29-.81-.1s0,.53.27.77a.91.91,0,0,0,.39.2,1.14,1.14,0,0,0,.37,1,2.07,2.07,0,0,1-1.23-.13c-.41-.27-1.68,1.07-.39,2.5,0,0,.35.31.52-.29a.88.88,0,0,1,.89-.58.19.19,0,0,0,.18-.11c.09-.18.28-.48.54-.5v0a1.55,1.55,0,0,0,2,.73c.55-.37.27-1.89.27-1.89.14-.22.49-.25.69-.25a.21.21,0,0,0,.18-.11.89.89,0,0,1,.92-.55c.61.12.49-.32.49-.32C137,65.88,135.2,66.41,135.26,66.91Z"/><path class="cls-1" d="M199.55,85.23c.41.28.57,1.22.57,1.22s-.58-.56-1.15-.26a1.13,1.13,0,0,0-.35-.28c-.34-.17-.71-.14-.82.07s.09.53.43.7l.08,0a1.29,1.29,0,0,0-.16.89H198c-.39.06-.67.3-.63.54s.38.38.76.31a1,1,0,0,0,.41-.15,1.15,1.15,0,0,0,1,.39s-.43.7-.91.83-.33,2,1.6,2c0,0,.45-.06.12-.58a.89.89,0,0,1,.16-1.06.17.17,0,0,0,0-.2.83.83,0,0,1,0-.74h0c.94.12,1.77-.32,1.87-1s-1.22-1.47-1.22-1.47a.81.81,0,0,1,.27-.68.2.2,0,0,0,0-.21.89.89,0,0,1,.21-1c.49-.37.08-.58.08-.58C199.92,83.27,199.14,84.94,199.55,85.23Z"/><path class="cls-1" d="M221.29,145.19c.07.5-.53,1.24-.53,1.24s0-.8-.58-1a1,1,0,0,0,0-.45c-.1-.37-.37-.62-.6-.56s-.33.41-.23.79a.19.19,0,0,1,0,.08,1.34,1.34,0,0,0-.77.47l-.13-.12c-.3-.25-.67-.3-.82-.11s0,.53.28.78a1.05,1.05,0,0,1,.76,1.2,2.12,2.12,0,0,1-1.23-.12c-.42-.28-1.68,1.06-.39,2.49,0,0,.34.31.51-.29a.89.89,0,0,1,.9-.58.21.21,0,0,0,.18-.11c.09-.18.27-.48.53-.5v0a1.54,1.54,0,0,0,2,.73c.56-.37.28-1.89.28-1.89.14-.22.49-.25.69-.25a.2.2,0,0,0,.17-.11.9.9,0,0,1,.93-.55c.6.12.48-.32.48-.32C223,144.16,221.23,144.7,221.29,145.19Z"/><path class="cls-1" d="M123.7,65.43c.15.47-.31,1.31-.31,1.31s-.11-.8-.75-.91a.91.91,0,0,0-.1-.44c-.16-.35-.47-.55-.69-.45s-.25.47-.09.82l0,.07a1.28,1.28,0,0,0-.67.61.91.91,0,0,0-.16-.11c-.34-.18-.71-.17-.82,0s.06.53.4.72a1.06,1.06,0,0,0,.42.13,1.12,1.12,0,0,0,.55.92,2.1,2.1,0,0,1-1.24.09c-.46-.19-1.47,1.35.06,2.53,0,0,.39.24.45-.37a.89.89,0,0,1,.78-.74.18.18,0,0,0,.16-.13c.06-.19.19-.52.44-.6h0a1.54,1.54,0,0,0,2.08.37c.48-.47-.06-1.91-.06-1.91.1-.24.44-.33.64-.37a.19.19,0,0,0,.15-.14.89.89,0,0,1,.81-.7c.62,0,.43-.4.43-.4C125.19,64.11,123.55,65,123.7,65.43Z"/><path class="cls-1" d="M116.38,57.12c.11.33-.21.92-.21.92s-.09-.56-.53-.64a.79.79,0,0,0-.08-.31c-.11-.25-.33-.39-.48-.32s-.18.33-.07.58l0,0a1,1,0,0,0-.48.43.41.41,0,0,0-.11-.07c-.24-.14-.5-.12-.58,0s0,.38.29.51a.58.58,0,0,0,.3.09.77.77,0,0,0,.38.65,1.47,1.47,0,0,1-.87.07c-.33-.14-1,.95,0,1.79,0,0,.27.17.32-.27a.64.64,0,0,1,.55-.52A.14.14,0,0,0,115,60c0-.14.13-.37.31-.42h0a1.1,1.1,0,0,0,1.48.26c.34-.33,0-1.35,0-1.35.07-.17.32-.23.45-.26a.13.13,0,0,0,.11-.1.62.62,0,0,1,.58-.49c.43,0,.29-.29.29-.29C117.44,56.19,116.28,56.78,116.38,57.12Z"/><path class="cls-1" d="M109.88,49.52a1.61,1.61,0,0,1,.09.95s-.26-.5-.71-.44a.77.77,0,0,0-.16-.27c-.19-.19-.45-.26-.57-.14s-.06.37.13.57l0,0a.9.9,0,0,0-.31.56l-.13,0c-.27,0-.51,0-.54.22s.16.34.43.38a.64.64,0,0,0,.31,0,.8.8,0,0,0,.58.5,1.46,1.46,0,0,1-.81.34c-.35,0-.67,1.24.62,1.68,0,0,.32.07.22-.35a.6.6,0,0,1,.35-.67.13.13,0,0,0,.07-.13c0-.14,0-.39.16-.5h0a1.09,1.09,0,0,0,1.48-.23c.22-.42-.47-1.26-.47-1.26,0-.19.21-.33.34-.4a.12.12,0,0,0,.06-.13.65.65,0,0,1,.39-.65c.42-.14.19-.37.19-.37C110.58,48.3,109.67,49.24,109.88,49.52Z"/><path class="cls-1" d="M100.35,48.41a1.64,1.64,0,0,1,.1,1s-.26-.5-.71-.44a.81.81,0,0,0-.17-.27c-.19-.19-.44-.26-.56-.14s-.07.37.12.57l.05,0a.88.88,0,0,0-.32.56l-.12,0c-.27,0-.52,0-.55.22s.17.34.44.38a.64.64,0,0,0,.31,0,.77.77,0,0,0,.57.49,1.44,1.44,0,0,1-.8.35c-.35,0-.68,1.24.61,1.68,0,0,.32.07.22-.35a.62.62,0,0,1,.35-.67.16.16,0,0,0,.08-.13.6.6,0,0,1,.16-.5h0a1.1,1.1,0,0,0,1.48-.23c.21-.42-.48-1.26-.48-1.26,0-.19.22-.33.34-.4a.13.13,0,0,0,.07-.13.63.63,0,0,1,.39-.65c.41-.14.19-.37.19-.37C101.05,47.19,100.15,48.13,100.35,48.41Z"/><path class="cls-1" d="M95.91,41.94a1.74,1.74,0,0,1-.37.89s0-.57-.42-.72a.7.7,0,0,0,0-.32c-.07-.27-.27-.44-.43-.4s-.23.3-.15.56c0,0,0,0,0,.06a1,1,0,0,0-.54.35.76.76,0,0,0-.09-.09c-.22-.17-.48-.2-.58-.07s0,.38.2.55a.71.71,0,0,0,.28.13.81.81,0,0,0,.27.71,1.49,1.49,0,0,1-.87-.08c-.3-.19-1.18.77-.25,1.77,0,0,.25.22.36-.21a.64.64,0,0,1,.63-.42.13.13,0,0,0,.12-.08c.07-.12.2-.34.38-.36h0c.39.55,1,.77,1.41.49s.18-1.33.18-1.33a.59.59,0,0,1,.49-.19.13.13,0,0,0,.12-.08.63.63,0,0,1,.65-.39c.43.07.34-.24.34-.24C97.1,41.2,95.86,41.59,95.91,41.94Z"/><path class="cls-1" d="M220.75,89.38c.73,1,.39,3.23.39,3.23s-.92-1.71-2.46-1.44a2.36,2.36,0,0,0-.59-.92c-.66-.66-1.53-.86-1.94-.46s-.19,1.28.47,1.94l.15.14a3.09,3.09,0,0,0-1,1.93,3.15,3.15,0,0,0-.44-.11c-.93-.14-1.75.2-1.84.77s.59,1.15,1.52,1.29a2.48,2.48,0,0,0,1.06,0,2.7,2.7,0,0,0,2,1.64,5,5,0,0,1-2.72,1.24c-1.21-.07-2.23,4.27,2.21,5.7,0,0,1.09.22.72-1.23a2.16,2.16,0,0,1,1.17-2.32.45.45,0,0,0,.24-.43c0-.48,0-1.34.51-1.71l0,0c2.07,1,4.31.59,5-.89s-1.7-4.27-1.7-4.27c0-.63.72-1.13,1.13-1.38a.45.45,0,0,0,.23-.44,2.16,2.16,0,0,1,1.28-2.26c1.41-.49.62-1.28.62-1.28C223.06,85.15,220,88.41,220.75,89.38Z"/><path class="cls-1" d="M205.87,384.91c-.14,1.93-2.93,4.31-2.93,4.31s.69-3-1.44-4.33a3.9,3.9,0,0,0,.25-1.72c-.11-1.49-.94-2.65-1.85-2.59s-1.58,1.33-1.47,2.83a3.16,3.16,0,0,0,0,.32,5,5,0,0,0-3.27,1.24,4.56,4.56,0,0,0-.42-.59c-1-1.15-2.31-1.6-3-1s-.5,2,.46,3.15a3.91,3.91,0,0,0,1.34,1.05c-.93,2,.67,4.07.67,4.07s-3.2,0-4.58-1.37-7.16,2.79-3.32,9.18c0,0,1.08,1.41,2.15-.72a3.45,3.45,0,0,1,3.84-1.56.74.74,0,0,0,.75-.27c.47-.6,1.41-1.6,2.41-1.52l0-.05c1.46,3.35,4.56,5.23,7,4.22s2.44-6.95,2.44-6.95c.7-.73,2.06-.6,2.81-.45a.75.75,0,0,0,.74-.3,3.44,3.44,0,0,1,3.91-1.37c2.21.88,2.09-.89,2.09-.89C213.09,382.25,206,383,205.87,384.91Z"/><path class="cls-1" d="M120,283.88c1.72.87,2.82,4.37,2.82,4.37s-2.52-1.81-4.54-.36a3.91,3.91,0,0,0-1.49-.9c-1.42-.48-2.81-.17-3.1.7s.6,2,2,2.45l.32.1a5,5,0,0,0-.14,3.5,3.75,3.75,0,0,0-.71.15c-1.43.43-2.37,1.5-2.1,2.38s1.65,1.24,3.08.8a3.83,3.83,0,0,0,1.48-.82c1.53,1.65,4,1,4,1s-1.26,2.93-3,3.68-.22,7.68,7.16,6.63c0,0,1.72-.44.18-2.26a3.45,3.45,0,0,1,0-4.14.75.75,0,0,0,0-.8c-.37-.67-.93-1.91-.46-2.81h-.06c3.65,0,6.6-2.16,6.61-4.79s-5.44-5-5.44-5c-.4-.93.25-2.13.68-2.77a.75.75,0,0,0,0-.8,3.42,3.42,0,0,1,.26-4.13c1.68-1.69,0-2.27,0-2.27C120.38,276.19,118.3,283,120,283.88Z"/><path class="cls-1" d="M215.41,213.66c.87-.72,3-.5,3-.5s-1.57.94-1.26,2.37a2.32,2.32,0,0,0-.83.59c-.59.65-.74,1.47-.34,1.83s1.2.13,1.79-.52l.12-.15a2.93,2.93,0,0,0,1.85.89c0,.13-.06.27-.08.41-.1.88.26,1.63.8,1.69s1-.6,1.14-1.47a2.43,2.43,0,0,0-.09-1,2.53,2.53,0,0,0,1.45-1.93,4.67,4.67,0,0,1,1.27,2.49c0,1.13,4.09,1.91,5.24-2.31,0,0,.16-1-1.17-.62a2,2,0,0,1-2.22-1,.44.44,0,0,0-.42-.21,1.9,1.9,0,0,1-1.62-.4l0,0c.84-2,.38-4.06-1-4.68s-3.93,1.78-3.93,1.78c-.59,0-1.09-.63-1.33-1a.43.43,0,0,0-.43-.2,2,2,0,0,1-2.16-1.1c-.53-1.3-1.23-.53-1.23-.53C211.36,211.68,214.54,214.39,215.41,213.66Z"/></g></svg>