<svg xmlns="http://www.w3.org/2000/svg" viewBox="0 0 126.29 128.87"><defs><style>.cls-1{fill:#ec475a;}.cls-2{fill:#f1676c;}.cls-3{fill:#f15f6f;}</style></defs><g id="Layer_2" data-name="Layer 2"><g id="Capa_5" data-name="Capa 5"><g id="RMzng2.tif"><path class="cls-1" d="M114.76,3.49a23.28,23.28,0,0,1,11,15.66,7.62,7.62,0,0,0,.5,2.5v.76c-.42.31-.25.76-.25,1.16q0,26,0,52c0,.39-.17.85.25,1.16v1a15.3,15.3,0,0,0-.76,3.36,23.75,23.75,0,0,1-20.4,17.8c-4.35.44-11.81.12-16.16.21-1.72,0-1.78.07-1.79,1.77,0,7.84,0,15.67,0,23.51,0,2-.57,3.59-2.52,4.44H82.93c-2.43-1.41-4-3.67-5.84-5.7,0-.55,0-1.09,0-1.64V91.22c0-2,.16-2.11,2.17-2.11,3.65,0,10.39,0,14,0a14.43,14.43,0,0,0,3.34-.44,22.31,22.31,0,0,0,12.18-7.42,24,24,0,0,0,6.06-15.68c.09-19.25,0-38.49,0-57.74,0-.63-.12-1.24-.18-1.86C114.71,5.16,114,4.32,114.76,3.49Z"/><path class="cls-2" d="M126.29,76.77c-.42-.31-.25-.77-.25-1.16q0-26,0-52c0-.4-.17-.85.25-1.16Z"/><path class="cls-3" d="M114.76,3.49c-.76.83-.05,1.67,0,2.49.06.62.18,1.23.18,1.86,0,19.25.06,38.49,0,57.74a24,24,0,0,1-6.06,15.68,22.31,22.31,0,0,1-12.18,7.42,14.43,14.43,0,0,1-3.34.44c-3.65,0-10.39,0-14,0-2,0-2.17.16-2.17,2.11v30.31c0,.55,0,1.09,0,1.64q-5.67-6-11.34-12c-3.51-3.71-7-7.44-10.49-11.19a2.72,2.72,0,0,0-2.2-.92c-10.57,0-18,0-28.6,0A23.85,23.85,0,0,1,11.09,95.4,23.26,23.26,0,0,1,.14,77.13C0,75.29,0,73.45,0,71.6v-47A24.12,24.12,0,0,1,3.66,11.17,23.44,23.44,0,0,1,22.5.05c.62,0,1.25,0,1.88,0h77.49A23.6,23.6,0,0,1,114.76,3.49Z"/></g></g></g></svg>