<svg xmlns="http://www.w3.org/2000/svg" viewBox="0 0 204.06 208.23"><defs><style>.cls-1{fill:#e63b51;}.cls-2{fill:#ec5f68;}.cls-3{fill:#eb566a;}.cls-4{fill:#fef5f5;}.cls-5{fill:#dde6ea;}</style></defs><g id="Capa_2" data-name="Capa 2"><g id="Capa_5" data-name="Capa 5"><g id="RMzng2.tif"><path class="cls-1" d="M185.43,5.64c9.68,5.8,15.39,14.38,17.82,25.3.3,1.35.06,2.79.81,4V36.2c-.68.51-.4,1.25-.4,1.89q0,42,0,84.07c0,.64-.27,1.38.4,1.89v1.62c-.86,1.71-.77,3.63-1.22,5.43a38.4,38.4,0,0,1-33,28.77c-7,.7-19.07.19-26.1.34-2.78,0-2.89.11-2.89,2.86,0,12.66-.05,25.32,0,38,0,3.29-.91,5.8-4.06,7.18H134c-3.91-2.28-6.49-5.93-9.42-9.22,0-.88.06-1.76.06-2.64q0-24.48,0-49c0-3.15.26-3.4,3.51-3.41,5.9,0,16.79,0,22.68,0a22.63,22.63,0,0,0,5.39-.7,35.83,35.83,0,0,0,19.69-12c6.22-7.33,9.75-15.76,9.79-25.33.15-31.1.06-62.19.06-93.29,0-1-.21-2-.29-3C185.35,8.35,184.19,7,185.43,5.64Z"/><path class="cls-2" d="M204.06,124.05c-.67-.51-.4-1.25-.4-1.89q0-42,0-84.07c0-.64-.28-1.38.4-1.89Z"/><path class="cls-3" d="M185.43,5.64c-1.24,1.33-.08,2.71,0,4,.08,1,.29,2,.29,3,0,31.1.09,62.19-.06,93.29,0,9.57-3.57,18-9.79,25.33a35.83,35.83,0,0,1-19.69,12,22.63,22.63,0,0,1-5.39.7c-5.89,0-16.78,0-22.68,0-3.25,0-3.51.26-3.51,3.41q0,24.5,0,49c0,.88,0,1.76-.06,2.64q-9.16-9.64-18.33-19.3-8.51-9-17-18.08a4.32,4.32,0,0,0-3.54-1.49c-17.08,0-29.15,0-46.22,0-7.75,0-15.06-1.71-21.59-6-10.62-7-16.6-16.79-17.7-29.52-.26-3-.22-6-.22-8.94q0-38,0-76c0-7.74,1.66-15,5.91-21.62C13.07,7,23.27,1.09,36.35.08c1-.08,2-.07,3-.07H164.6A38.2,38.2,0,0,1,185.43,5.64ZM95.76,121.82c1,1.08,2,2.19,3.07,3.23,2.37,2.33,4,2.33,6.42,0,4.41-4.39,8.81-8.81,13.21-13.21,8.81-8.82,17.67-17.58,26.42-26.45C155.28,74.8,155,58.51,144,48.89c-6.6-5.83-14.32-7.79-23-5.4a21,21,0,0,0-9.63,4.95c-2.28,2-4.39,4.23-6.59,6.33-2,1.93-3.66,1.94-5.65,0s-3.79-3.88-5.8-5.69a24.88,24.88,0,0,0-33.47-.28c-10.83,9.79-11.16,25.9-.65,36.5Q77.47,103.64,95.76,121.82Z"/><path class="cls-4" d="M95.76,121.82q-18.24-18.24-36.47-36.5c-10.51-10.6-10.18-26.71.65-36.5a24.88,24.88,0,0,1,33.47.28c2,1.81,3.85,3.81,5.8,5.69s3.64,1.91,5.65,0c2.2-2.1,4.31-4.32,6.59-6.33a21,21,0,0,1,9.63-4.95,24.3,24.3,0,0,1,13,8.77c5.5,7.46,6.73,15.51,3.5,24.27a28.6,28.6,0,0,1-7,10.08c-11,11.12-22.1,22.15-33.16,33.22A6.62,6.62,0,0,0,95.76,121.82Z"/><path class="cls-5" d="M95.76,121.82a6.62,6.62,0,0,1,1.7-2c11.06-11.07,22.16-22.1,33.16-33.22a28.6,28.6,0,0,0,7-10.08c3.23-8.76,2-16.81-3.5-24.27a24.3,24.3,0,0,0-13-8.77c8.63-2.39,16.35-.43,23,5.4,10.92,9.62,11.25,25.91.85,36.46-8.75,8.87-17.61,17.63-26.42,26.45-4.4,4.4-8.8,8.82-13.21,13.21-2.39,2.37-4,2.37-6.42,0C97.77,124,96.78,122.9,95.76,121.82Z"/></g></g></g></svg>