<svg xmlns="http://www.w3.org/2000/svg" viewBox="0 0 53.67 39.21"><defs><style>.cls-1{fill:#d3e3d6;}.cls-2{fill:none;stroke:#000;stroke-linecap:round;stroke-linejoin:round;stroke-width:3px;}</style></defs><g id="Capa_2" data-name="Capa 2"><g id="video-view"><path class="cls-1" d="M52.49,1.09a1.54,1.54,0,0,0-3,.23c-.76,4.73-4.74,5.5-7.15,5.51a19.58,19.58,0,0,0-29.67-.06c-1.77.19-7.56.36-8.5-5.45A1.52,1.52,0,0,0,3,.05a1.54,1.54,0,0,0-1.86,1C0,5.07-2.55,16.3,7.8,17.13H8a20.09,20.09,0,0,0-.16,2.47,19.61,19.61,0,1,0,39.21,0A18.61,18.61,0,0,0,46.9,17C56,15.52,53.67,4.93,52.49,1.09Z"/><line class="cls-2" x1="18.07" y1="12.01" x2="35.6" y2="29.55"/><line class="cls-2" x1="18.07" y1="29.55" x2="35.6" y2="12.01"/></g></g></svg>