<?xml version="1.0" encoding="UTF-8"?><svg xmlns="http://www.w3.org/2000/svg" viewBox="0 0 111.6 28.94"><defs><style>.d{fill:#fff;}.e{fill:#f6c67a;}</style></defs><g id="a"/><g id="b"><g id="c"><path class="e" d="M5.21,28.93l88.6-4.76,12.58-.68c7.07-.38,6.81-20.37,0-20L17.79,8.26l-12.58,.68c-7.07,.38-6.81,20.37,0,20h0Z"/><g><path class="d" d="M19.6,13.73c.88,.31,2.4,1.43,2.4,2.76,0,.9-.55,1.64-2.07,2.85-1.31,1.02-1.97,1.71-1.97,2.59s.57,1.59,1.62,1.59c1.57,0,2.5-1.47,2.81-1.47,.36,0,1.02,.55,1.02,1.12,0,.33-.12,.57-.45,.88-.76,.64-1.83,.86-2.57,.86-2.16,0-3.78-1.88-3.78-3.73,0-1,.33-1.85,1.69-2.97,1.19-1,1.83-1.45,1.83-2.24,0-.64-.33-1.07-.97-1.66l.45-.57Zm.59-4.94c.86,0,1.47,.62,1.47,1.52,0,.86-.59,1.52-1.47,1.52-.83,0-1.47-.67-1.47-1.52,0-.9,.64-1.52,1.47-1.52Z"/><path class="d" d="M27.8,21.44c-.76-.06-1.4-.29-1.91-.69-.51-.4-.89-.88-1.13-1.46-.24-.58-.32-1.2-.26-1.88,.06-.67,.3-1.33,.71-1.96,.13-.19,.25-.36,.37-.51s.24-.29,.37-.42c.55-.52,1.11-.86,1.66-1.01,.55-.15,1.01-.23,1.38-.23,.03-.06,.07-.12,.12-.17-.16-.32-.24-.7-.24-1.15s.14-.93,.43-1.44c.19-.37,.48-.73,.88-1.09,.51-.48,.99-.82,1.45-1.05,.46-.22,.88-.37,1.25-.45s.69-.11,.95-.1c.26,.02,.44,.03,.53,.05,.22,.03,.44,.1,.65,.19,.21,.09,.42,.25,.61,.48,.25,.29,.43,.61,.52,.96,.1,.36,.12,.72,.08,1.11-.04,.38-.12,.75-.25,1.12s-.29,.69-.48,.97c-.27,.43-.54,.77-.81,1.03s-.53,.46-.77,.61c-.25,.14-.49,.24-.72,.29-.24,.05-.45,.07-.64,.07s-.37-.04-.54-.11-.29-.17-.38-.3c-.09-.13-.13-.28-.12-.45,0-.17,.09-.36,.25-.55,.03-.05,.07-.09,.12-.12,.1-.06,.17-.06,.21,0,.08,.1,.17,.16,.29,.19,.11,.03,.27-.03,.48-.19,.08-.06,.2-.17,.37-.33,.17-.16,.34-.36,.54-.59s.36-.51,.52-.82c.16-.31,.28-.64,.36-.99v-.02c.13-.57,.15-.98,.08-1.22s-.19-.39-.37-.44c-.05-.02-.12-.02-.21-.02-.19,0-.39,.05-.61,.14-.21,.1-.42,.21-.62,.34-.2,.13-.39,.28-.57,.44-.18,.16-.34,.31-.49,.45-.32,.3-.58,.6-.78,.9-.22,.32-.38,.63-.49,.93-.1,.3-.17,.57-.2,.82-.03,.25-.04,.46-.02,.64,.02,.18,.03,.32,.05,.42,.19,.19,.33,.38,.43,.58,.1,.2,.1,.36,.02,.49-.08,.16-.17,.22-.29,.19-.06-.02-.11-.05-.14-.09-.06-.11-.18-.2-.36-.26-.08-.03-.17-.05-.26-.05-.55-.08-1.04-.02-1.45,.19s-.75,.44-1.02,.71c-.32,.32-.59,.7-.83,1.14l-.07,.14c-.36,.84-.47,1.51-.31,2.01s.41,.88,.76,1.13c.41,.3,.93,.51,1.57,.62,.43,.06,.81,.07,1.15,.02,.34-.05,.64-.13,.89-.25,.25-.12,.47-.26,.64-.42,.17-.16,.31-.31,.4-.45,.09-.14,.17-.29,.21-.43,.05-.14,.08-.27,.09-.38,.02-.13,.02-.25,.02-.38-.05-.19-.14-.32-.27-.39s-.29-.11-.46-.11-.37,.02-.57,.05c-.21,.03-.41,.05-.62,.05-.22,.02-.36-.02-.42-.12-.06-.1-.08-.21-.08-.33,0-.14,.04-.3,.12-.48,.27-.49,.64-.81,1.1-.95,.47-.14,.92-.14,1.35,.01,.44,.15,.8,.42,1.09,.81,.29,.39,.39,.85,.3,1.39-.03,.03-.05,.06-.05,.07-.09,.51-.27,.94-.52,1.31-.49,.71-1.18,1.23-2.08,1.56-.9,.32-1.89,.4-2.98,.23Z"/><path class="d" d="M38.18,12.1c.21-.06,.4-.08,.57-.06,.17,.02,.32,.08,.44,.17,.12,.09,.21,.19,.26,.31,.06,.12,.07,.23,.04,.34-.03,.08-.09,.13-.18,.14-.09,.02-.15,.02-.18,.02-.03,.09-.07,.31-.11,.65-.04,.34-.03,.81,.04,1.41,.03,.35,.08,.65,.13,.92s.1,.5,.14,.7c.04,.21,.06,.39,.06,.56s-.04,.33-.12,.49c-.22,.46-.57,.87-1.04,1.24-.48,.37-.98,.59-1.52,.69-.35,.08-.65,.09-.9,.02-.25-.06-.46-.17-.62-.33s-.27-.34-.32-.56-.04-.43,.04-.65c.05-.22,.22-.47,.52-.76s.69-.54,1.18-.76c.48-.22,1.05-.38,1.7-.48,.65-.09,1.35-.06,2.12,.1,.21,.05,.36,.14,.45,.29s.1,.25,.02,.33c-.05,.05-.13,.06-.24,.02-.05-.02-.09-.04-.14-.07-.79-.13-1.49-.09-2.1,.11s-1.11,.45-1.51,.76c-.4,.31-.68,.61-.84,.9s-.19,.46-.06,.51c.24,.14,.51,.09,.82-.14,.31-.24,.55-.59,.72-1.05,.06-.17,.09-.38,.08-.61s-.04-.48-.09-.75c-.06-.27-.12-.55-.18-.84s-.11-.59-.14-.89c-.25,.32-.47,.6-.65,.84-.18,.25-.34,.46-.46,.63-.16,.19-.29,.37-.38,.52-.14,.17-.26,.28-.36,.32-.09,.04-.17,.06-.24,.06s-.11-.03-.14-.09l-.05-.1c-.03-.06-.03-.13,0-.21,.06-.16,.19-.38,.37-.65,.18-.28,.38-.57,.61-.89,.22-.32,.45-.63,.69-.95,.24-.32,.44-.59,.62-.83,.05-.27,.13-.49,.24-.67,.11-.17,.22-.32,.33-.43,.13-.13,.26-.22,.4-.29Z"/><path class="d" d="M44.67,16.23c.11-.14,.21-.25,.31-.31,.08-.05,.15-.05,.21-.01,.06,.04,.1,.17,.12,.39,.02,.06,.02,.13,0,.21-.02,.08-.05,.17-.09,.29-.05,.11-.13,.23-.24,.36-.11,.14-.25,.32-.43,.54-.17,.21-.35,.42-.52,.63-.17,.21-.33,.39-.46,.56-.13,.17-.23,.27-.27,.32-.22,.24-.48,.37-.77,.39-.29,.02-.58-.05-.84-.23-.11-.06-.23-.16-.37-.29-.13-.13-.25-.27-.36-.44-.1-.17-.19-.36-.26-.57s-.1-.44-.08-.68c.03-.17,.08-.38,.13-.63,.06-.25,.14-.48,.25-.7,.11-.27,.24-.53,.38-.78,.14-.25,.28-.48,.4-.69,.14-.24,.29-.47,.43-.69,.25-.38,.52-.79,.81-1.24,.29-.44,.51-.81,.69-1.09-.81,0-1.47-.04-1.97-.12s-.9-.17-1.19-.27c-.29-.1-.48-.21-.57-.31-.09-.1-.13-.18-.09-.23,.06-.14,.16-.2,.29-.17,.06,.02,.12,.06,.17,.12,.05,.06,.25,.11,.59,.14,.35,.03,.74,.05,1.16,.05s.84,0,1.25-.02,.69-.03,.87-.05c-.13-.22-.21-.42-.26-.61-.05-.18,0-.43,.14-.75,.16-.33,.33-.58,.52-.75,.19-.17,.37-.29,.55-.37,.19-.08,.39-.12,.59-.12,.3,.03,.57,.21,.8,.55,.23,.33,.29,.7,.18,1.09h-.02c-.02,.06-.06,.17-.12,.33-.03,.06-.07,.13-.11,.21-.04,.08-.09,.17-.15,.29,.46-.13,.93-.24,1.4-.33,.48-.1,.9-.16,1.28-.19,.43-.03,.76,0,1,.08,.24,.09,.42,.2,.54,.34s.19,.29,.23,.43c.03,.14,.05,.25,.05,.31-.02,.19-.05,.35-.1,.47-.05,.11-.11,.21-.19,.29s-.18,.08-.31,0c-.09-.05-.25-.12-.45-.21-.21-.09-.47-.18-.78-.26-.32-.08-.69-.13-1.11-.16-.42-.02-.88,.01-1.39,.11-.13,.03-.25,.06-.37,.08-.12,.02-.24,.05-.37,.08-.02,0-.06,.02-.12,.05-.27,.41-.56,.85-.87,1.31-.31,.46-.61,.9-.89,1.33s-.55,.82-.78,1.18c-.24,.36-.42,.64-.55,.84l-.26,.48c-.27,.46-.41,.84-.42,1.15s.09,.53,.3,.65c.1,.05,.2,.06,.31,.02,.09-.03,.21-.1,.36-.19s.3-.25,.48-.48c.17-.22,.34-.44,.51-.64,.17-.21,.31-.4,.44-.57,.16-.19,.3-.37,.43-.55Zm.59-7.27c-.16,.02-.32,.14-.47,.37-.16,.23-.21,.49-.17,.77,.14-.22,.25-.4,.32-.53s.13-.24,.18-.32c.05-.08,.08-.14,.1-.18,.02-.04,.03-.08,.05-.11Z"/><path class="d" d="M48.88,16.83c-.44,.68-.88,1.27-1.31,1.76-.19,.21-.38,.4-.58,.58-.2,.18-.4,.33-.61,.44s-.4,.18-.59,.2c-.19,.02-.37-.02-.55-.13-.33-.24-.58-.51-.75-.82-.17-.31-.26-.64-.3-.99-.03-.35,0-.7,.08-1.04,.09-.35,.22-.67,.39-.97,.16-.29,.4-.6,.72-.94,.33-.34,.69-.65,1.11-.94l.14-.09s.06-.05,.09-.06,.07-.03,.12-.06c.41-.25,.93-.47,1.57-.67s1.31-.22,2.02-.1c.19,.05,.36,.12,.52,.21,.13,.08,.24,.2,.34,.36,.1,.16,.16,.36,.18,.62-.02,.11-.03,.19-.04,.24,0,.05-.03,.1-.06,.17-.05,.08-.09,.13-.14,.14v.02c-.06,.03-.11,.05-.14,.05-.05,0-.09,0-.12-.02-.08-.03-.11-.1-.09-.21v-.14c-.03-.19-.18-.3-.45-.33-.14-.03-.4,0-.76,.09-.37,.1-.8,.3-1.31,.62-.09,.05-.19,.1-.27,.17-.09,.06-.18,.13-.27,.19-.03,.03-.06,.05-.07,.06-.02,0-.04,.03-.07,.06h-.02c-.22,.17-.46,.39-.71,.64-.24,.27-.48,.57-.72,.89-.25,.33-.45,.63-.61,.93s-.25,.55-.29,.77c-.03,.22,.05,.36,.24,.43,.16,.05,.42-.08,.77-.37,.36-.29,.73-.65,1.12-1.06,.39-.41,.76-.83,1.12-1.26s.62-.75,.8-.97c.01,0,.02,0,.02-.01s0-.01,.02-.01c.14-.17,.31-.33,.5-.46,.19-.13,.4-.16,.62-.08,.41,.13,.67,.31,.78,.55,.11,.24,.1,.47-.02,.69v.05s-.02,0-.02,.02c0,.02,0,.02-.01,.02s-.01,0-.01,.02l-.02,.02v.02l-.02,.02s-.06,.07-.07,.12c-.02,.05-.04,.09-.07,.12v.02s-.02,0-.02,.02v.02s-.02,0-.02,.02l-.02,.02v.02s-.02,0-.02,.02c-.14,.24-.28,.47-.4,.69-.13,.22-.23,.43-.3,.63-.07,.2-.11,.37-.11,.51s.05,.25,.14,.31c.08,.05,.18,.06,.31,.02,.09-.03,.22-.09,.37-.19,.15-.1,.32-.26,.51-.5,.19-.22,.37-.44,.55-.64,.17-.21,.33-.4,.48-.57,.17-.19,.33-.37,.48-.55,.11-.14,.21-.25,.31-.31,.08-.05,.15-.05,.21-.01,.06,.04,.09,.17,.09,.39,0,.08,0,.16-.02,.24-.03,.08-.07,.17-.11,.27-.04,.1-.12,.22-.23,.34-.13,.14-.29,.32-.47,.53-.19,.21-.38,.42-.57,.63-.19,.21-.36,.39-.5,.56-.14,.17-.24,.27-.29,.32-.24,.24-.5,.37-.8,.39-.29,.02-.57-.05-.84-.23-.14-.09-.29-.22-.45-.37-.16-.15-.29-.34-.4-.56-.11-.22-.18-.47-.2-.74-.02-.27,.03-.57,.15-.9Z"/><path class="d" d="M55.94,12.1c.21-.06,.4-.08,.57-.06,.17,.02,.32,.08,.44,.17,.12,.09,.21,.19,.26,.31,.06,.12,.07,.23,.04,.34-.03,.08-.09,.13-.18,.14-.09,.02-.15,.02-.18,.02-.03,.09-.07,.31-.11,.65-.04,.34-.03,.81,.04,1.41,.03,.35,.08,.65,.13,.92s.1,.5,.14,.7c.04,.21,.06,.39,.06,.56s-.04,.33-.12,.49c-.22,.46-.57,.87-1.04,1.24-.48,.37-.98,.59-1.52,.69-.35,.08-.65,.09-.9,.02-.25-.06-.46-.17-.62-.33s-.27-.34-.32-.56-.04-.43,.04-.65c.05-.22,.22-.47,.52-.76s.69-.54,1.18-.76c.48-.22,1.05-.38,1.7-.48,.65-.09,1.35-.06,2.12,.1,.21,.05,.36,.14,.45,.29s.1,.25,.02,.33c-.05,.05-.13,.06-.24,.02-.05-.02-.09-.04-.14-.07-.79-.13-1.49-.09-2.1,.11s-1.11,.45-1.51,.76c-.4,.31-.68,.61-.84,.9s-.19,.46-.06,.51c.24,.14,.51,.09,.82-.14,.31-.24,.55-.59,.72-1.05,.06-.17,.09-.38,.08-.61s-.04-.48-.09-.75c-.06-.27-.12-.55-.18-.84s-.11-.59-.14-.89c-.25,.32-.47,.6-.65,.84-.18,.25-.34,.46-.46,.63-.16,.19-.29,.37-.38,.52-.14,.17-.26,.28-.36,.32-.09,.04-.17,.06-.24,.06s-.11-.03-.14-.09l-.05-.1c-.03-.06-.03-.13,0-.21,.06-.16,.19-.38,.37-.65,.18-.28,.38-.57,.61-.89,.22-.32,.45-.63,.69-.95,.24-.32,.44-.59,.62-.83,.05-.27,.13-.49,.24-.67,.11-.17,.22-.32,.33-.43,.13-.13,.26-.22,.4-.29Z"/><path class="d" d="M64.66,16.83c-.3,.46-.5,.85-.59,1.16-.1,.32-.05,.54,.14,.67,.13,.05,.27,.06,.43,.02,.13-.03,.28-.09,.45-.19,.17-.09,.36-.26,.55-.5,.19-.22,.37-.44,.55-.64,.17-.21,.33-.4,.47-.57,.17-.19,.33-.37,.48-.55,.11-.14,.21-.25,.31-.31,.08-.05,.15-.05,.21,0s.1,.18,.1,.4c0,.06,0,.13-.02,.21-.03,.08-.07,.17-.11,.27-.04,.1-.12,.22-.23,.34-.13,.14-.29,.33-.48,.55s-.38,.44-.57,.64c-.19,.21-.36,.39-.5,.55s-.24,.26-.29,.31c-.24,.25-.54,.39-.92,.4s-.69-.06-.96-.24c-.22-.14-.45-.38-.69-.71-.24-.33-.33-.75-.29-1.26,.02-.21,.08-.46,.2-.75,.12-.29,.27-.6,.44-.92,.17-.32,.36-.63,.57-.95,.21-.32,.4-.61,.59-.88,.68-.9,1.21-1.64,1.58-2.2s.65-1,.84-1.32c.21-.38,.34-.66,.4-.83,0-.1,0-.16-.02-.19-.02,0-.02-.02-.02-.05-.02-.02-.02-.06-.02-.14-.02-.08,0-.15,.05-.21,.03-.05,.08-.09,.15-.13,.07-.04,.19-.06,.34-.06,.14,0,.3,.05,.46,.15,.17,.1,.31,.23,.44,.38,.13,.15,.22,.33,.27,.52s.04,.4-.04,.61c-.02,.08-.06,.18-.14,.31-.14,.27-.39,.66-.74,1.16-.35,.51-.72,1.04-1.12,1.6-.4,.56-.78,1.11-1.15,1.64-.37,.53-.65,.94-.84,1.22l-.31,.45Z"/><path class="d" d="M67.53,19.39c-.22-.14-.45-.38-.69-.71-.24-.33-.33-.75-.29-1.26,.03-.17,.08-.38,.15-.63,.07-.25,.17-.48,.3-.7,.17-.36,.37-.71,.59-1.03,.22-.33,.4-.59,.52-.8,.11-.16,.17-.27,.19-.33,.02-.05,.02-.09,.02-.12,0-.11,0-.18-.02-.21-.02-.02-.02-.03-.02-.05-.02-.02-.02-.05-.02-.12-.02-.08,0-.15,.05-.21,.03-.05,.08-.09,.15-.13,.07-.04,.19-.06,.34-.06,.03,0,.06,0,.09,.01,.03,0,.06,.01,.1,.01,.14,.05,.28,.12,.42,.23,.13,.1,.25,.23,.34,.37,.09,.14,.16,.3,.19,.47,.03,.17,.02,.36-.05,.55-.02,.08-.06,.18-.14,.31-.03,.05-.06,.1-.1,.16-.03,.06-.07,.12-.12,.2v-.02c-.16,.22-.3,.43-.43,.62-.13,.19-.23,.35-.31,.48l-.31,.45c-.3,.46-.5,.85-.59,1.16-.09,.32-.05,.54,.14,.67,.08,.05,.18,.06,.31,.02,.09-.03,.22-.09,.37-.19,.15-.1,.32-.25,.51-.48,.19-.22,.37-.44,.55-.65,.17-.21,.33-.41,.48-.58,.17-.19,.33-.36,.47-.52,.11-.14,.21-.25,.31-.31,.08-.05,.15-.05,.21-.01,.06,.04,.09,.17,.09,.39,0,.06,0,.13-.02,.21-.03,.08-.07,.17-.11,.27-.04,.1-.12,.22-.23,.34-.13,.14-.29,.32-.48,.55-.19,.22-.38,.44-.57,.64-.19,.21-.36,.39-.5,.56-.14,.17-.24,.27-.29,.32-.24,.24-.5,.36-.8,.38s-.57-.06-.84-.24Zm3.56-7.58c-.21,.13-.37,.26-.49,.39-.12,.13-.16,.27-.13,.39,.08,.02,.15,.04,.21,.07,.13,.06,.17,.13,.12,.21-.05,.06-.12,.12-.23,.15-.1,.04-.22,.05-.36,.02-.13-.02-.27-.07-.39-.15-.13-.08-.22-.21-.29-.38-.13-.33-.15-.68-.07-1.03,.08-.36,.34-.7,.78-1.03,.13-.11,.25-.19,.38-.24,.11-.03,.23-.04,.34-.02s.23,.1,.32,.26c.21,.3,.26,.57,.17,.81-.1,.24-.22,.42-.38,.55Z"/><path class="d" d="M73.69,12.1c.21-.06,.4-.08,.57-.06,.17,.02,.32,.08,.44,.17,.12,.09,.21,.19,.26,.31,.06,.12,.07,.23,.04,.34-.03,.08-.09,.13-.18,.14-.09,.02-.15,.02-.18,.02-.03,.09-.07,.31-.11,.65-.04,.34-.03,.81,.04,1.41,.03,.35,.08,.65,.13,.92s.1,.5,.14,.7c.04,.21,.06,.39,.06,.56s-.04,.33-.12,.49c-.22,.46-.57,.87-1.04,1.24-.48,.37-.98,.59-1.52,.69-.35,.08-.65,.09-.9,.02-.25-.06-.46-.17-.62-.33s-.27-.34-.32-.56-.04-.43,.04-.65c.05-.22,.22-.47,.52-.76s.69-.54,1.18-.76c.48-.22,1.05-.38,1.7-.48,.65-.09,1.35-.06,2.12,.1,.21,.05,.36,.14,.45,.29s.1,.25,.02,.33c-.05,.05-.13,.06-.24,.02-.05-.02-.09-.04-.14-.07-.79-.13-1.49-.09-2.1,.11s-1.11,.45-1.51,.76c-.4,.31-.68,.61-.84,.9s-.19,.46-.06,.51c.24,.14,.51,.09,.82-.14,.31-.24,.55-.59,.72-1.05,.06-.17,.09-.38,.08-.61s-.04-.48-.09-.75c-.06-.27-.12-.55-.18-.84s-.11-.59-.14-.89c-.25,.32-.47,.6-.65,.84-.18,.25-.34,.46-.46,.63-.16,.19-.29,.37-.38,.52-.14,.17-.26,.28-.36,.32-.09,.04-.17,.06-.24,.06s-.11-.03-.14-.09l-.05-.1c-.03-.06-.03-.13,0-.21,.06-.16,.19-.38,.37-.65,.18-.28,.38-.57,.61-.89,.22-.32,.45-.63,.69-.95,.24-.32,.44-.59,.62-.83,.05-.27,.13-.49,.24-.67,.11-.17,.22-.32,.33-.43,.13-.13,.26-.22,.4-.29Z"/><path class="d" d="M80.18,16.23c.11-.14,.21-.25,.31-.31,.08-.05,.15-.05,.21-.01,.06,.04,.1,.17,.12,.39,.02,.06,.02,.13,0,.21-.02,.08-.05,.17-.09,.29-.05,.11-.13,.23-.24,.36-.11,.14-.25,.32-.43,.54-.17,.21-.35,.42-.52,.63-.17,.21-.33,.39-.46,.56-.13,.17-.23,.27-.27,.32-.22,.24-.48,.37-.77,.39-.29,.02-.58-.05-.84-.23-.11-.06-.23-.16-.37-.29-.13-.13-.25-.27-.36-.44-.1-.17-.19-.36-.26-.57s-.1-.44-.08-.68c.03-.17,.08-.38,.13-.63,.06-.25,.14-.48,.25-.7,.11-.27,.24-.53,.38-.78,.14-.25,.28-.48,.4-.69,.14-.24,.29-.47,.43-.69,.25-.38,.52-.79,.81-1.24,.29-.44,.51-.81,.69-1.09-.81,0-1.47-.04-1.97-.12s-.9-.17-1.19-.27c-.29-.1-.48-.21-.57-.31-.09-.1-.13-.18-.09-.23,.06-.14,.16-.2,.29-.17,.06,.02,.12,.06,.17,.12,.05,.06,.25,.11,.59,.14,.35,.03,.74,.05,1.16,.05s.84,0,1.25-.02,.69-.03,.87-.05c-.13-.22-.21-.42-.26-.61-.05-.18,0-.43,.14-.75,.16-.33,.33-.58,.52-.75,.19-.17,.37-.29,.55-.37,.19-.08,.39-.12,.59-.12,.3,.03,.57,.21,.8,.55,.23,.33,.29,.7,.18,1.09h-.02c-.02,.06-.06,.17-.12,.33-.03,.06-.07,.13-.11,.21-.04,.08-.09,.17-.15,.29,.46-.13,.93-.24,1.4-.33,.48-.1,.9-.16,1.28-.19,.43-.03,.76,0,1,.08,.24,.09,.42,.2,.54,.34s.19,.29,.23,.43c.03,.14,.05,.25,.05,.31-.02,.19-.05,.35-.1,.47-.05,.11-.11,.21-.19,.29s-.18,.08-.31,0c-.09-.05-.25-.12-.45-.21-.21-.09-.47-.18-.78-.26-.32-.08-.69-.13-1.11-.16-.42-.02-.88,.01-1.39,.11-.13,.03-.25,.06-.37,.08-.12,.02-.24,.05-.37,.08-.02,0-.06,.02-.12,.05-.27,.41-.56,.85-.87,1.31-.31,.46-.61,.9-.89,1.33s-.55,.82-.78,1.18c-.24,.36-.42,.64-.55,.84l-.26,.48c-.27,.46-.41,.84-.42,1.15s.09,.53,.3,.65c.1,.05,.2,.06,.31,.02,.09-.03,.21-.1,.36-.19s.3-.25,.48-.48c.17-.22,.34-.44,.51-.64,.17-.21,.31-.4,.44-.57,.16-.19,.3-.37,.43-.55Zm.59-7.27c-.16,.02-.32,.14-.47,.37-.16,.23-.21,.49-.17,.77,.14-.22,.25-.4,.32-.53s.13-.24,.18-.32c.05-.08,.08-.14,.1-.18,.02-.04,.03-.08,.05-.11Z"/><path class="d" d="M85.36,16.92s-.03,0-.04-.01c0,0-.02-.01-.04-.01-.06,0-.11,0-.14-.02-.13,.27-.25,.5-.36,.68-.11,.18-.26,.38-.45,.61-.41,.52-.8,.89-1.18,1.09s-.7,.35-.99,.43c-.06,.03-.13,.05-.19,.06-.06,0-.13,.02-.19,.04-.32,.06-.6,.07-.84,.01-.25-.06-.46-.15-.63-.27-.17-.13-.32-.27-.44-.43-.12-.16-.21-.31-.27-.45-.13-.3-.19-.61-.18-.92,0-.31,.08-.65,.2-1.01,.1-.3,.26-.64,.5-1.02,.24-.38,.52-.75,.83-1.12,.02-.02,.03-.03,.05-.05l.07-.07s.06-.06,.08-.09c.02-.03,.07-.07,.13-.12,.33-.33,.8-.66,1.39-.99,.59-.32,1.23-.52,1.91-.58,.19,0,.37,.03,.55,.09,.14,.05,.28,.13,.4,.25,.13,.12,.21,.3,.26,.53v.23s-.02,.1-.05,.18c-.02,.03-.03,.06-.05,.08s-.03,.05-.05,.08h-.02s-.05,.08-.09,.1-.09,.02-.14,.02c-.09,0-.14-.06-.14-.19,.03-.05,.03-.09,0-.12-.03-.19-.2-.26-.5-.21-.13,.03-.35,.13-.68,.3-.32,.17-.71,.46-1.15,.89-.08,.08-.15,.16-.21,.24l-.19,.24c-.08,.05-.13,.09-.14,.14-.09,.13-.19,.25-.29,.37-.09,.12-.19,.27-.29,.44-.27,.43-.46,.8-.58,1.12-.12,.32-.19,.64-.23,.97,.02,.3,.1,.5,.25,.58,.15,.09,.33,.11,.55,.06,.21-.05,.44-.15,.68-.3,.24-.15,.45-.3,.64-.46,.16-.16,.26-.26,.32-.31s.15-.14,.27-.29c.24-.29,.39-.51,.45-.69,.06-.14,.07-.27,.02-.38-.05-.11-.11-.23-.18-.34s-.13-.25-.18-.39c-.05-.14-.03-.33,.05-.55,.05-.11,.09-.21,.13-.3,.04-.09,.09-.16,.15-.23,.16-.19,.32-.32,.49-.39,.17-.07,.31-.12,.44-.13,.03-.03,.07-.05,.12-.05h.07c.06,0,.11,.02,.14,.05,.08,.02,.15,.07,.21,.17,.03,.05,.05,.13,.05,.26s-.01,.27-.04,.43c-.02,.16-.05,.31-.07,.46-.02,.15-.04,.27-.06,.37-.02,.06-.03,.13-.04,.19s-.03,.13-.06,.21c.05,0,.08,0,.1-.02,.24-.05,.44-.11,.59-.18s.28-.12,.36-.15c.17-.08,.3-.13,.39-.17,.09-.03,.13,.02,.13,.14-.02,.03-.02,.07-.02,.12v.05c0,.08-.03,.17-.08,.29-.06,.11-.17,.21-.34,.31-.11,.06-.27,.12-.46,.15-.2,.04-.44,.04-.73-.01Z"/><path class="d" d="M92.58,14.99c-.88-.31-2.4-1.43-2.4-2.76,0-.9,.55-1.64,2.07-2.85,1.31-1.02,1.97-1.71,1.97-2.59s-.57-1.59-1.62-1.59c-1.57,0-2.5,1.47-2.8,1.47-.36,0-1.02-.55-1.02-1.12,0-.33,.12-.57,.45-.88,.76-.64,1.83-.86,2.57-.86,2.16,0,3.78,1.88,3.78,3.73,0,1-.33,1.85-1.69,2.97-1.19,1-1.83,1.45-1.83,2.23,0,.64,.33,1.07,.97,1.66l-.45,.57Zm-.59,4.95c-.86,0-1.47-.62-1.47-1.52,0-.86,.59-1.52,1.47-1.52,.83,0,1.47,.67,1.47,1.52,0,.9-.64,1.52-1.47,1.52Z"/></g></g></g></svg>