<?xml version="1.0" encoding="UTF-8"?><svg xmlns="http://www.w3.org/2000/svg" viewBox="0 0 99.6 101.64"><defs><style>.e{fill:#ec5f68;}.f{fill:#e63b51;}.g{fill:#eb566a;}.h{fill:#fef5f5;}.i{fill:#dde6ea;}</style></defs><g id="a"/><g id="b"><g id="c"><g id="d"><g><path class="f" d="M90.51,2.75c4.72,2.83,7.51,7.02,8.7,12.35,.15,.66,.03,1.36,.39,1.97v.6c-.33,.25-.19,.61-.2,.92,0,13.68,0,27.36,0,41.04,0,.31-.13,.67,.2,.92v.79c-.42,.83-.38,1.77-.59,2.65-1.88,7.55-8.44,13.28-16.1,14.04-3.43,.34-13.31,.09-16.74,.16-1.36,.03-1.41,.06-1.41,1.4,0,6.18-.03,12.36,.02,18.54,.01,1.61-.45,2.83-1.99,3.51h-1.39c-1.91-1.11-3.17-2.89-4.6-4.5,.01-.43,.03-.86,.03-1.29,0-7.97,0-15.94,0-23.91,0-1.54,.13-1.66,1.72-1.66,2.88,0,8.19-.02,11.07,0,.9,0,1.77-.14,2.63-.34,3.84-.91,11.04-2.83,13.61-5.86,3.03-3.58,4.76-7.7,4.78-12.37,.07-15.18,.03-30.35,.03-45.53,0-.5-.1-.98-.14-1.47-.05-.65-.62-1.32-.02-1.97Z"/><path class="e" d="M99.6,60.55c-.33-.25-.2-.61-.2-.92,0-13.68,0-27.36,0-41.04,0-.31-.14-.67,.2-.92V60.55Z"/><path class="g" d="M90.51,2.75c-.61,.65-.04,1.32,.02,1.97,.04,.48,.14,.97,.14,1.47,0,15.18,.04,30.35-.03,45.53-.02,4.67-1.75,8.79-4.78,12.37-2.57,3.03-9.77,4.95-13.61,5.86-.86,.2-1.73,.35-2.63,.34-2.88-.02-8.19,0-11.07,0-1.59,0-1.72,.12-1.72,1.66,0,7.97,0,15.94,0,23.91,0,.43-.02,.86-.03,1.29-2.98-3.14-5.97-6.27-8.94-9.42-2.77-2.93-5.54-5.87-8.28-8.83-.49-.53-1.01-.73-1.73-.73-8.33,.02-10.23,.02-18.56,0-3.78,0-7.35-.84-10.54-2.93C3.57,71.83,.65,67.04,.11,60.83-.02,59.38,0,57.92,0,56.47c0-12.37,0-24.74,0-37.11,0-3.78,.81-7.34,2.89-10.55C6.38,3.41,11.36,.53,17.74,.04c.49-.04,.99-.03,1.49-.03C39.6,0,59.97,0,80.34,0c3.64,0,7.06,.8,10.17,2.75Z"/><path class="h" d="M42.74,59.46c-5.93-5.94-11.89-11.86-17.8-17.82-5.13-5.17-4.97-13.04,.32-17.81,4.62-4.17,11.65-4.12,16.34,.13,.98,.89,1.88,1.86,2.83,2.78,.97,.94,1.78,.93,2.76,0,1.07-1.03,2.1-2.11,3.21-3.09,1.35-1.2,2.92-2.04,4.7-2.42,2.56,.77,4.74,2.11,6.35,4.28,2.69,3.64,3.28,7.57,1.71,11.84-.72,1.95-1.99,3.49-3.4,4.92-5.37,5.43-10.79,10.81-16.19,16.22-.3,.3-.66,.56-.83,.97Z"/><path class="i" d="M42.74,59.46c.17-.41,.53-.67,.83-.97,5.4-5.4,10.82-10.79,16.19-16.22,1.41-1.43,2.68-2.97,3.4-4.92,1.58-4.28,.98-8.21-1.71-11.84-1.61-2.17-3.79-3.51-6.35-4.28,4.22-1.17,7.98-.21,11.21,2.64,5.33,4.7,5.49,12.65,.41,17.8-4.27,4.33-8.59,8.61-12.89,12.91-2.15,2.15-4.3,4.3-6.45,6.45-1.16,1.16-1.97,1.16-3.13,.02-.52-.51-1-1.05-1.5-1.57Z"/></g></g></g></g></svg>