<svg xmlns="http://www.w3.org/2000/svg" viewBox="0 0 289.81 532.59"><defs><style>.cls-1{fill:#eb566a;}.cls-2{fill:#fef5f5;}.cls-3{fill:#dde6ea;}</style></defs><g id="Capa_7" data-name="Capa 7"><g id="RMzng2.tif"><path class="cls-1" d="M186.58,482.79a7.41,7.41,0,0,0-2.63,1.72,8.94,8.94,0,0,0-1,11.57,9.09,9.09,0,0,0,6.53,3.69l16,1.82c1.27.15,2.54.3,3.82.43a1.28,1.28,0,0,0,1.63-1.28c.08-.57.12-1.15.18-1.72s.09-.87.14-1.3c.65-5.68,1.33-11.36,1.94-17a8.87,8.87,0,1,0-17.63-2c-.1.74-.17,1.48-.26,2.22-.15,1.25-.57,1.58-1.84,1.44-.72-.08-1.43-.18-2.15-.25A8.58,8.58,0,0,0,186.58,482.79Z"/><path class="cls-2" d="M186.58,482.79a8.58,8.58,0,0,1,4.66-.72c.72.07,1.43.17,2.15.25,1.27.14,1.69-.19,1.84-1.44.09-.74.16-1.48.26-2.22a8.87,8.87,0,1,1,17.63,2c-.61,5.68-1.29,11.36-1.94,17-.05.43-.09.86-.14,1.3-.36-.07-.71-.16-1.07-.2-5.91-.74-11.86-1.21-17.75-2.13a8.24,8.24,0,0,1-6.43-4.84A8.7,8.7,0,0,1,186.58,482.79Z"/><path class="cls-3" d="M186.58,482.79a8.7,8.7,0,0,0-.79,9.06,8.24,8.24,0,0,0,6.43,4.84c5.89.92,11.84,1.39,17.75,2.13.36,0,.71.13,1.07.2-.06.57-.1,1.15-.18,1.72a1.28,1.28,0,0,1-1.63,1.28c-1.28-.13-2.55-.28-3.82-.43l-16-1.82a9.09,9.09,0,0,1-6.53-3.69,8.94,8.94,0,0,1,1-11.57A7.41,7.41,0,0,1,186.58,482.79Z"/></g><g id="RMzng2.tif-2" data-name="RMzng2.tif"><path class="cls-1" d="M209.58,416.06a7.38,7.38,0,0,0-2.86-1.31A8.92,8.92,0,0,0,196.37,420a9.1,9.1,0,0,0,.34,7.5q3.48,7.25,6.95,14.5c.56,1.15,1.1,2.31,1.67,3.46a1.28,1.28,0,0,0,1.95.71c.53-.24,1-.52,1.55-.77l1.18-.57c5.15-2.47,10.32-4.92,15.46-7.42a8.87,8.87,0,1,0-7.66-16c-.67.31-1.34.65-2,1-1.14.53-1.63.35-2.19-.8-.32-.65-.62-1.3-.94-1.95A8.37,8.37,0,0,0,209.58,416.06Z"/><path class="cls-2" d="M209.58,416.06a8.37,8.37,0,0,1,3.08,3.56c.32.65.62,1.3.94,1.95.56,1.15,1.05,1.33,2.19.8.68-.32,1.35-.66,2-1a8.87,8.87,0,1,1,7.66,16c-5.14,2.5-10.31,4.95-15.46,7.42l-1.18.57c-.13-.34-.24-.68-.4-1-2.52-5.4-5.28-10.69-7.63-16.17a8.24,8.24,0,0,1,.69-8A8.67,8.67,0,0,1,209.58,416.06Z"/><path class="cls-3" d="M209.58,416.06a8.67,8.67,0,0,0-8.09,4.14,8.24,8.24,0,0,0-.69,8c2.35,5.48,5.11,10.77,7.63,16.17.16.33.27.67.4,1-.51.25-1,.53-1.55.77a1.28,1.28,0,0,1-1.95-.71c-.57-1.15-1.11-2.31-1.67-3.46q-3.47-7.26-6.95-14.5a9.1,9.1,0,0,1-.34-7.5,8.92,8.92,0,0,1,10.35-5.25A7.38,7.38,0,0,1,209.58,416.06Z"/></g><g id="RMzng2.tif-3" data-name="RMzng2.tif"><path class="cls-1" d="M149.55,488.77a2.11,2.11,0,0,0-.69-.57,2.54,2.54,0,0,0-3.24.7,2.58,2.58,0,0,0-.45,2.1l.87,4.51c.07.36.13.72.21,1.08a.37.37,0,0,0,.48.34l.49-.11.37-.07c1.6-.31,3.21-.61,4.81-.93a2.54,2.54,0,1,0-1-5l-.63.12c-.35.07-.48,0-.55-.37s-.07-.41-.11-.61A2.39,2.39,0,0,0,149.55,488.77Z"/><path class="cls-2" d="M149.55,488.77a2.39,2.39,0,0,1,.6,1.21c0,.2.07.4.11.61s.2.44.55.37l.63-.12a2.54,2.54,0,1,1,1,5c-1.6.32-3.21.62-4.81.93l-.37.07c0-.1,0-.2,0-.3-.3-1.68-.68-3.34-.94-5a2.36,2.36,0,0,1,.78-2.17A2.45,2.45,0,0,1,149.55,488.77Z"/><path class="cls-3" d="M149.55,488.77a2.45,2.45,0,0,0-2.53.56,2.36,2.36,0,0,0-.78,2.17c.26,1.68.64,3.34.94,5,0,.1,0,.2,0,.3l-.49.11a.37.37,0,0,1-.48-.34c-.08-.36-.14-.72-.21-1.08l-.87-4.51a2.58,2.58,0,0,1,.45-2.1,2.54,2.54,0,0,1,3.24-.7A2.11,2.11,0,0,1,149.55,488.77Z"/></g><g id="RMzng2.tif-4" data-name="RMzng2.tif"><path class="cls-1" d="M160.63,470.55a3,3,0,0,0-1,.68,3.54,3.54,0,0,0-.42,4.58,3.59,3.59,0,0,0,2.59,1.46l6.33.72,1.51.17c.4,0,.59-.1.64-.5,0-.23,0-.46.07-.69l.06-.51q.39-3.37.77-6.75a3.51,3.51,0,1,0-7-.8c0,.3-.07.59-.11.89-.06.49-.22.62-.72.56l-.86-.09A3.35,3.35,0,0,0,160.63,470.55Z"/><path class="cls-2" d="M160.63,470.55a3.35,3.35,0,0,1,1.84-.28l.86.09c.5.06.66-.07.72-.56,0-.3.07-.59.11-.89a3.51,3.51,0,1,1,7,.8q-.37,3.38-.77,6.75l-.06.51c-.14,0-.28-.06-.42-.07-2.34-.29-4.69-.48-7-.85a3.25,3.25,0,0,1-2.54-1.91A3.45,3.45,0,0,1,160.63,470.55Z"/><path class="cls-3" d="M160.63,470.55a3.45,3.45,0,0,0-.31,3.59,3.25,3.25,0,0,0,2.54,1.91c2.34.37,4.69.56,7,.85.14,0,.28.05.42.07,0,.23,0,.46-.07.69-.05.4-.24.54-.64.5l-1.51-.17-6.33-.72a3.59,3.59,0,0,1-2.59-1.46,3.54,3.54,0,0,1,.42-4.58A3,3,0,0,1,160.63,470.55Z"/></g><g id="RMzng2.tif-5" data-name="RMzng2.tif"><path class="cls-1" d="M130.22,476.24a2.76,2.76,0,0,0-1,.68,3.53,3.53,0,0,0-.42,4.57,3.6,3.6,0,0,0,2.59,1.47l6.32.72,1.51.17c.41,0,.59-.11.65-.51,0-.22,0-.45.07-.68l.06-.51c.25-2.25.52-4.5.76-6.75a3.51,3.51,0,1,0-7-.8c0,.29-.06.59-.1.88-.06.49-.22.62-.73.57l-.85-.1A3.32,3.32,0,0,0,130.22,476.24Z"/><path class="cls-2" d="M130.22,476.24a3.32,3.32,0,0,1,1.84-.29l.85.1c.51.05.67-.08.73-.57,0-.29.06-.59.1-.88a3.51,3.51,0,1,1,7,.8c-.24,2.25-.51,4.5-.76,6.75l-.06.51-.42-.08c-2.34-.29-4.7-.48-7-.84a3.25,3.25,0,0,1-2.54-1.92A3.43,3.43,0,0,1,130.22,476.24Z"/><path class="cls-3" d="M130.22,476.24a3.43,3.43,0,0,0-.31,3.58,3.25,3.25,0,0,0,2.54,1.92c2.33.36,4.69.55,7,.84l.42.08c0,.23,0,.46-.07.68-.06.4-.24.55-.65.51l-1.51-.17-6.32-.72a3.6,3.6,0,0,1-2.59-1.47,3.53,3.53,0,0,1,.42-4.57A2.76,2.76,0,0,1,130.22,476.24Z"/></g><g id="RMzng2.tif-6" data-name="RMzng2.tif"><path class="cls-1" d="M159,366.92a7.44,7.44,0,0,0-1.79-2.58,8.94,8.94,0,0,0-11.59-.77,9.12,9.12,0,0,0-3.53,6.62q-.71,8-1.42,16c-.12,1.28-.24,2.55-.34,3.83-.08,1,.31,1.48,1.32,1.6.57.07,1.15.09,1.73.13l1.3.12c5.69.5,11.39,1,17.08,1.51a8.88,8.88,0,1,0,1.59-17.68c-.74-.08-1.49-.13-2.24-.2-1.25-.12-1.58-.53-1.47-1.8.06-.72.13-1.44.19-2.16A8.63,8.63,0,0,0,159,366.92Z"/><path class="cls-2" d="M159,366.92a8.63,8.63,0,0,1,.83,4.64c-.06.72-.13,1.44-.19,2.16-.11,1.27.22,1.68,1.47,1.8.75.07,1.5.12,2.24.2a8.88,8.88,0,1,1-1.59,17.68c-5.69-.47-11.39-1-17.08-1.51l-1.3-.12c.06-.35.13-.71.17-1.07.59-5.93.91-11.88,1.69-17.8a8.22,8.22,0,0,1,4.68-6.54A8.7,8.7,0,0,1,159,366.92Z"/><path class="cls-3" d="M159,366.92a8.7,8.7,0,0,0-9.08-.56,8.22,8.22,0,0,0-4.68,6.54c-.78,5.92-1.1,11.87-1.69,17.8,0,.36-.11.72-.17,1.07-.58,0-1.16-.06-1.73-.13-1-.12-1.4-.58-1.32-1.6.1-1.28.22-2.55.34-3.83q.7-8,1.42-16a9.12,9.12,0,0,1,3.53-6.62,8.94,8.94,0,0,1,11.59.77A7.44,7.44,0,0,1,159,366.92Z"/></g><g id="RMzng2.tif-7" data-name="RMzng2.tif"><path class="cls-1" d="M163.83,430.93a4.45,4.45,0,0,0-1.69-.71,5.22,5.22,0,0,0-5.95,3.26,5.34,5.34,0,0,0,.34,4.37c1.45,2.78,2.88,5.56,4.33,8.34.34.67.68,1.33,1,2a.75.75,0,0,0,1.15.38c.31-.15.6-.32.9-.48l.67-.35c3-1.54,5.94-3.06,8.9-4.62a5.19,5.19,0,1,0-4.77-9.21l-1.16.61c-.66.33-1,.23-1.3-.43-.19-.37-.38-.75-.58-1.12A5,5,0,0,0,163.83,430.93Z"/><path class="cls-2" d="M163.83,430.93a5,5,0,0,1,1.87,2c.2.37.39.75.58,1.12.35.66.64.76,1.3.43l1.16-.61a5.19,5.19,0,1,1,4.77,9.21c-3,1.56-5.93,3.08-8.9,4.62l-.67.35c-.09-.19-.16-.39-.25-.58-1.58-3.11-3.28-6.15-4.76-9.3a4.8,4.8,0,0,1,.26-4.7A5.08,5.08,0,0,1,163.83,430.93Z"/><path class="cls-3" d="M163.83,430.93a5.08,5.08,0,0,0-4.64,2.57,4.8,4.8,0,0,0-.26,4.7c1.48,3.15,3.18,6.19,4.76,9.3.09.19.16.39.25.58-.3.16-.59.33-.9.48a.75.75,0,0,1-1.15-.38c-.35-.66-.69-1.32-1-2-1.45-2.78-2.88-5.56-4.33-8.34a5.34,5.34,0,0,1-.34-4.37,5.22,5.22,0,0,1,5.95-3.26A4.45,4.45,0,0,1,163.83,430.93Z"/></g><g id="RMzng2.tif-8" data-name="RMzng2.tif"><path class="cls-1" d="M110,392.06a2.22,2.22,0,0,0-.86-.45,2.76,2.76,0,0,0-3.29,1.45,2.84,2.84,0,0,0,0,2.32l1.92,4.6.45,1.1a.41.41,0,0,0,.6.25l.49-.22.37-.15c1.64-.68,3.27-1.35,4.9-2a2.75,2.75,0,1,0-2.1-5.08l-.64.27c-.36.15-.51.08-.67-.28-.08-.21-.17-.42-.26-.62A2.59,2.59,0,0,0,110,392.06Z"/><path class="cls-2" d="M110,392.06a2.59,2.59,0,0,1,.89,1.15c.09.2.18.41.26.62.16.36.31.43.67.28l.64-.27a2.75,2.75,0,1,1,2.1,5.08c-1.63.69-3.26,1.36-4.9,2l-.37.15c0-.1-.07-.21-.11-.31-.69-1.71-1.46-3.39-2.09-5.13a2.53,2.53,0,0,1,.34-2.46A2.68,2.68,0,0,1,110,392.06Z"/><path class="cls-3" d="M110,392.06a2.68,2.68,0,0,0-2.57,1.15,2.53,2.53,0,0,0-.34,2.46c.63,1.74,1.4,3.42,2.09,5.13,0,.1.07.21.11.31l-.49.22a.41.41,0,0,1-.6-.25l-.45-1.1-1.92-4.6a2.84,2.84,0,0,1,0-2.32,2.76,2.76,0,0,1,3.29-1.45A2.22,2.22,0,0,1,110,392.06Z"/></g><g id="RMzng2.tif-9" data-name="RMzng2.tif"><path class="cls-1" d="M118.57,211.18a2.32,2.32,0,0,0,.67-.69,2.71,2.71,0,0,0-.44-3.49,2.77,2.77,0,0,0-2.18-.68l-4.86.5c-.38,0-.77.07-1.15.12a.39.39,0,0,0-.41.48l.06.53c0,.13,0,.26,0,.39.18,1.73.35,3.46.54,5.18a2.69,2.69,0,1,0,5.36-.54c0-.23,0-.45-.07-.68,0-.38.06-.5.45-.54l.65-.07A2.6,2.6,0,0,0,118.57,211.18Z"/><path class="cls-2" d="M118.57,211.18a2.6,2.6,0,0,1-1.34.51l-.65.07c-.39,0-.49.16-.45.54,0,.23.05.45.07.68a2.69,2.69,0,1,1-5.36.54c-.19-1.72-.36-3.45-.54-5.18,0-.13,0-.26,0-.39h.33c1.8-.17,3.6-.41,5.4-.52a2.49,2.49,0,0,1,2.23,1A2.66,2.66,0,0,1,118.57,211.18Z"/><path class="cls-3" d="M118.57,211.18a2.66,2.66,0,0,0-.35-2.74,2.49,2.49,0,0,0-2.23-1c-1.8.11-3.6.35-5.4.52h-.33l-.06-.53a.39.39,0,0,1,.41-.48c.38-.05.77-.08,1.15-.12l4.86-.5a2.77,2.77,0,0,1,2.18.68,2.71,2.71,0,0,1,.44,3.49A2.32,2.32,0,0,1,118.57,211.18Z"/></g><g id="RMzng2.tif-10" data-name="RMzng2.tif"><path class="cls-1" d="M64,209a3.07,3.07,0,0,0-.86-.9,3.55,3.55,0,0,0-4.59.43,3.66,3.66,0,0,0-1,2.82q.24,3.18.46,6.37c0,.5.06,1,.11,1.51s.21.57.61.55l.69-.06.52,0,6.79-.49a3.52,3.52,0,1,0-.5-7l-.89.07c-.49,0-.65-.11-.69-.62l-.06-.86A3.43,3.43,0,0,0,64,209Z"/><path class="cls-2" d="M64,209a3.43,3.43,0,0,1,.62,1.76l.06.86c0,.51.2.65.69.62l.89-.07a3.52,3.52,0,1,1,.5,7l-6.79.49-.52,0c0-.14,0-.28,0-.43-.14-2.36-.39-4.71-.46-7.08a3.26,3.26,0,0,1,1.42-2.86A3.45,3.45,0,0,1,64,209Z"/><path class="cls-3" d="M64,209a3.45,3.45,0,0,0-3.59.35A3.26,3.26,0,0,0,59,212.17c.07,2.37.32,4.72.46,7.08,0,.15,0,.29,0,.43l-.69.06c-.4,0-.58-.14-.61-.55s-.08-1-.11-1.51q-.23-3.19-.46-6.37a3.66,3.66,0,0,1,1-2.82,3.55,3.55,0,0,1,4.59-.43A3.07,3.07,0,0,1,64,209Z"/></g><g id="RMzng2.tif-11" data-name="RMzng2.tif"><path class="cls-1" d="M91.07,163.08a3,3,0,0,0-.34-1.2,3.56,3.56,0,0,0-4.26-1.77,3.64,3.64,0,0,0-2.17,2Q83,165.08,81.71,168c-.2.47-.41.93-.61,1.4a.51.51,0,0,0,.29.77l.63.27.48.21c2.07.92,4.14,1.85,6.22,2.75A3.52,3.52,0,1,0,91.58,167l-.82-.37c-.45-.2-.52-.4-.32-.86.12-.26.24-.52.35-.79A3.35,3.35,0,0,0,91.07,163.08Z"/><path class="cls-2" d="M91.07,163.08a3.35,3.35,0,0,1-.28,1.85c-.11.27-.23.53-.35.79-.2.46-.13.66.32.86l.82.37a3.52,3.52,0,1,1-2.86,6.43c-2.08-.9-4.15-1.83-6.22-2.75l-.48-.21c.07-.13.14-.25.2-.38,1-2.15,1.87-4.35,2.92-6.47a3.28,3.28,0,0,1,2.59-1.86A3.45,3.45,0,0,1,91.07,163.08Z"/><path class="cls-3" d="M91.07,163.08a3.45,3.45,0,0,0-3.34-1.37,3.28,3.28,0,0,0-2.59,1.86c-1,2.12-1.94,4.32-2.92,6.47-.06.13-.13.25-.2.38l-.63-.27a.51.51,0,0,1-.29-.77c.2-.47.41-.93.61-1.4q1.31-2.91,2.59-5.83a3.64,3.64,0,0,1,2.17-2,3.56,3.56,0,0,1,4.26,1.77A3,3,0,0,1,91.07,163.08Z"/></g><g id="RMzng2.tif-12" data-name="RMzng2.tif"><path class="cls-1" d="M49.47,128a2.89,2.89,0,0,0-1.24-.11,3.54,3.54,0,0,0-3.18,3.33A3.62,3.62,0,0,0,46.16,134l4.52,4.51c.36.36.71.72,1.08,1.08a.51.51,0,0,0,.82,0c.17-.16.32-.33.48-.5l.37-.36,4.81-4.82a3.52,3.52,0,1,0-5-5l-.63.63c-.36.35-.57.34-.93,0l-.61-.61A3.31,3.31,0,0,0,49.47,128Z"/><path class="cls-2" d="M49.47,128a3.31,3.31,0,0,1,1.62.93l.61.61c.36.35.57.36.93,0l.63-.63a3.52,3.52,0,1,1,5,5l-4.81,4.82-.37.36c-.09-.11-.18-.22-.28-.32-1.66-1.69-3.39-3.31-5-5a3.25,3.25,0,0,1-.8-3.09A3.45,3.45,0,0,1,49.47,128Z"/><path class="cls-3" d="M49.47,128A3.45,3.45,0,0,0,47,130.62a3.25,3.25,0,0,0,.8,3.09c1.6,1.74,3.33,3.36,5,5,.1.1.19.21.28.32-.16.17-.31.34-.48.5a.51.51,0,0,1-.82,0c-.37-.36-.72-.72-1.08-1.08L46.16,134a3.62,3.62,0,0,1-1.11-2.76,3.54,3.54,0,0,1,3.18-3.33A2.89,2.89,0,0,1,49.47,128Z"/></g><g id="RMzng2.tif-13" data-name="RMzng2.tif"><path class="cls-1" d="M87.79,123.24a1.81,1.81,0,0,0-.65-.45,2.23,2.23,0,0,0-2.77.82,2.3,2.3,0,0,0-.25,1.86l1,3.86c.09.31.17.62.26.92s.2.33.44.27l.42-.12.31-.09c1.38-.38,2.75-.74,4.13-1.13a2.21,2.21,0,1,0-1.17-4.26l-.53.14c-.31.08-.42,0-.51-.29s-.09-.35-.14-.52A2.07,2.07,0,0,0,87.79,123.24Z"/><path class="cls-2" d="M87.79,123.24a2.07,2.07,0,0,1,.59,1c.05.17.1.35.14.52s.2.37.51.29l.53-.14a2.21,2.21,0,1,1,1.17,4.26c-1.38.39-2.75.75-4.13,1.13l-.31.09c0-.09,0-.18-.05-.27-.38-1.43-.82-2.85-1.15-4.3a2,2,0,0,1,.53-1.94A2.17,2.17,0,0,1,87.79,123.24Z"/><path class="cls-3" d="M87.79,123.24a2.17,2.17,0,0,0-2.17.65,2,2,0,0,0-.53,1.94c.33,1.45.77,2.87,1.15,4.3,0,.09,0,.18.05.27l-.42.12c-.24.06-.37,0-.44-.27s-.17-.61-.26-.92l-1-3.86a2.3,2.3,0,0,1,.25-1.86,2.23,2.23,0,0,1,2.77-.82A1.81,1.81,0,0,1,87.79,123.24Z"/></g><g id="RMzng2.tif-14" data-name="RMzng2.tif"><path class="cls-1" d="M107.81,140.2a1.91,1.91,0,0,0-.64-.45,2.24,2.24,0,0,0-2.78.82,2.3,2.3,0,0,0-.25,1.86c.36,1.29.71,2.57,1.06,3.86.08.31.16.62.25.93a.32.32,0,0,0,.45.26l.41-.12.32-.09c1.37-.37,2.75-.74,4.12-1.13a2.21,2.21,0,1,0-1.16-4.26l-.54.14c-.3.08-.42,0-.5-.29l-.15-.52A2.07,2.07,0,0,0,107.81,140.2Z"/><path class="cls-2" d="M107.81,140.2a2.07,2.07,0,0,1,.59,1l.15.52c.08.31.2.37.5.29l.54-.14a2.21,2.21,0,1,1,1.16,4.26c-1.37.39-2.75.76-4.12,1.13l-.32.09a2.56,2.56,0,0,0,0-.27c-.38-1.43-.82-2.85-1.15-4.3a2.07,2.07,0,0,1,.53-1.94A2.18,2.18,0,0,1,107.81,140.2Z"/><path class="cls-3" d="M107.81,140.2a2.18,2.18,0,0,0-2.17.65,2.07,2.07,0,0,0-.53,1.94c.33,1.45.77,2.87,1.15,4.3a2.56,2.56,0,0,1,0,.27l-.41.12a.32.32,0,0,1-.45-.26c-.09-.31-.17-.62-.25-.93-.35-1.29-.7-2.57-1.06-3.86a2.3,2.3,0,0,1,.25-1.86,2.24,2.24,0,0,1,2.78-.82A1.91,1.91,0,0,1,107.81,140.2Z"/></g><g id="RMzng2.tif-15" data-name="RMzng2.tif"><path class="cls-1" d="M121.71,107.24a2.44,2.44,0,0,0-.77-.54,2.69,2.69,0,0,0-3.35,1,2.73,2.73,0,0,0-.3,2.23c.43,1.55.85,3.11,1.27,4.66.1.37.2.74.31,1.11a.39.39,0,0,0,.54.32l.5-.15.37-.1,5-1.36a2.66,2.66,0,1,0-1.4-5.14l-.65.17c-.36.1-.5,0-.6-.35-.06-.21-.11-.42-.17-.63A2.63,2.63,0,0,0,121.71,107.24Z"/><path class="cls-2" d="M121.71,107.24a2.63,2.63,0,0,1,.72,1.22c.06.21.11.42.17.63.1.37.24.45.6.35l.65-.17a2.66,2.66,0,1,1,1.4,5.14l-5,1.36-.37.1c0-.1,0-.21-.07-.32-.45-1.73-1-3.44-1.38-5.18a2.49,2.49,0,0,1,.64-2.34A2.63,2.63,0,0,1,121.71,107.24Z"/><path class="cls-3" d="M121.71,107.24a2.63,2.63,0,0,0-2.61.79,2.49,2.49,0,0,0-.64,2.34c.4,1.74.93,3.45,1.38,5.18,0,.11,0,.22.07.32l-.5.15a.39.39,0,0,1-.54-.32c-.11-.37-.21-.74-.31-1.11-.42-1.55-.84-3.11-1.27-4.66a2.73,2.73,0,0,1,.3-2.23,2.69,2.69,0,0,1,3.35-1A2.44,2.44,0,0,1,121.71,107.24Z"/></g><g id="RMzng2.tif-16" data-name="RMzng2.tif"><path class="cls-1" d="M115.73,79.13a.9.9,0,0,0-.32-.23,1.12,1.12,0,0,0-1.38.41,1.13,1.13,0,0,0-.13.93c.18.64.35,1.28.53,1.92l.12.46a.17.17,0,0,0,.23.13l.2-.06.16,0c.68-.19,1.37-.37,2-.57a1.09,1.09,0,0,0,.78-1.35,1.1,1.1,0,0,0-1.36-.77l-.27.08c-.15,0-.2,0-.25-.15a2.5,2.5,0,0,0-.07-.26A1,1,0,0,0,115.73,79.13Z"/><path class="cls-2" d="M115.73,79.13a1,1,0,0,1,.29.5,2.5,2.5,0,0,1,.07.26c0,.15.1.19.25.15l.27-.08a1.1,1.1,0,0,1,1.36.77,1.09,1.09,0,0,1-.78,1.35c-.68.2-1.37.38-2,.57l-.16,0s0-.09,0-.13c-.19-.72-.41-1.42-.57-2.14a1,1,0,0,1,.26-1A1.08,1.08,0,0,1,115.73,79.13Z"/><path class="cls-3" d="M115.73,79.13a1.08,1.08,0,0,0-1.08.32,1,1,0,0,0-.26,1c.16.72.38,1.42.57,2.14,0,0,0,.08,0,.13l-.2.06a.17.17,0,0,1-.23-.13l-.12-.46c-.18-.64-.35-1.28-.53-1.92a1.13,1.13,0,0,1,.13-.93,1.12,1.12,0,0,1,1.38-.41A.9.9,0,0,1,115.73,79.13Z"/></g><g id="RMzng2.tif-17" data-name="RMzng2.tif"><path class="cls-1" d="M164.36,68.64a.91.91,0,0,0-.32-.22,1.11,1.11,0,0,0-1.38.41,1.15,1.15,0,0,0-.12.92c.17.64.35,1.28.52,1.93.05.15.09.3.13.45s.1.16.22.13l.21-.06.15,0,2.06-.56a1.1,1.1,0,1,0-.58-2.12l-.27.07c-.15,0-.21,0-.25-.14s0-.18-.07-.26A1.1,1.1,0,0,0,164.36,68.64Z"/><path class="cls-2" d="M164.36,68.64a1.1,1.1,0,0,1,.3.51c0,.08.05.17.07.26s.1.18.25.14l.27-.07a1.1,1.1,0,1,1,.58,2.12l-2.06.56-.15,0,0-.13c-.18-.71-.4-1.42-.57-2.14a1,1,0,0,1,.26-1A1.1,1.1,0,0,1,164.36,68.64Z"/><path class="cls-3" d="M164.36,68.64a1.1,1.1,0,0,0-1.08.33,1,1,0,0,0-.26,1c.17.72.39,1.43.57,2.14l0,.13-.21.06c-.12,0-.19,0-.22-.13s-.08-.3-.13-.45c-.17-.65-.35-1.29-.52-1.93a1.15,1.15,0,0,1,.12-.92,1.11,1.11,0,0,1,1.38-.41A.91.91,0,0,1,164.36,68.64Z"/></g><g id="RMzng2.tif-18" data-name="RMzng2.tif"><path class="cls-1" d="M190.5,50a1,1,0,0,0-.32-.22,1.11,1.11,0,0,0-1.51,1.33c.18.64.35,1.28.53,1.92l.12.46a.17.17,0,0,0,.23.13,1.52,1.52,0,0,0,.2-.06l.16,0,2.05-.56a1.1,1.1,0,1,0-.58-2.12l-.27.07c-.15,0-.2,0-.25-.15a2.33,2.33,0,0,0-.07-.25A1,1,0,0,0,190.5,50Z"/><path class="cls-2" d="M190.5,50a1,1,0,0,1,.29.51,2.33,2.33,0,0,1,.07.25c0,.16.1.19.25.15l.27-.07a1.1,1.1,0,1,1,.58,2.12l-2.05.56-.16,0s0-.09,0-.13c-.19-.71-.41-1.42-.57-2.14a1,1,0,0,1,.26-1A1.07,1.07,0,0,1,190.5,50Z"/><path class="cls-3" d="M190.5,50a1.07,1.07,0,0,0-1.08.33,1,1,0,0,0-.26,1c.16.72.38,1.43.57,2.14,0,0,0,.09,0,.13a1.52,1.52,0,0,1-.2.06.17.17,0,0,1-.23-.13L189.2,53c-.18-.64-.35-1.28-.53-1.92a1.11,1.11,0,0,1,1.51-1.33A1,1,0,0,1,190.5,50Z"/></g><g id="RMzng2.tif-19" data-name="RMzng2.tif"><path class="cls-1" d="M201.85,31a.66.66,0,0,0-.17-.12.6.6,0,0,0-.82.73c.09.34.19.69.28,1,0,.09.05.17.07.25s.06.09.12.07l.12,0,.08,0,1.12-.31a.58.58,0,0,0,.42-.73.59.59,0,0,0-.74-.42l-.14,0c-.08,0-.12,0-.14-.08a.57.57,0,0,0,0-.14A.61.61,0,0,0,201.85,31Z"/><path class="cls-2" d="M201.85,31a.61.61,0,0,1,.16.28.57.57,0,0,1,0,.14c0,.08.06.1.14.08l.14,0a.59.59,0,0,1,.74.42.58.58,0,0,1-.42.73l-1.12.31-.08,0s0,0,0-.07c-.1-.39-.22-.77-.31-1.17a.59.59,0,0,1,.14-.52A.59.59,0,0,1,201.85,31Z"/><path class="cls-3" d="M201.85,31a.59.59,0,0,0-.59.18.59.59,0,0,0-.14.52c.09.4.21.78.31,1.17,0,0,0,.05,0,.07l-.12,0c-.06,0-.1,0-.12-.07s0-.16-.07-.25c-.09-.35-.19-.7-.28-1a.6.6,0,0,1,.82-.73A.66.66,0,0,1,201.85,31Z"/></g><g id="RMzng2.tif-20" data-name="RMzng2.tif"><path class="cls-1" d="M210.34,28.81a.57.57,0,0,0-.18-.12.61.61,0,0,0-.75.22.65.65,0,0,0-.07.51l.29,1a1.82,1.82,0,0,0,.07.25c0,.07.05.09.12.07l.11,0,.09,0,1.11-.31a.59.59,0,0,0,.43-.73.6.6,0,0,0-.74-.42l-.15,0c-.08,0-.11,0-.13-.08a1,1,0,0,1,0-.14A.61.61,0,0,0,210.34,28.81Z"/><path class="cls-2" d="M210.34,28.81a.61.61,0,0,1,.16.28,1,1,0,0,0,0,.14c0,.08.05.1.13.08l.15,0a.6.6,0,0,1,.74.42.59.59,0,0,1-.43.73l-1.11.31-.09,0s0-.05,0-.07c-.11-.39-.22-.77-.31-1.17a.53.53,0,0,1,.14-.52A.59.59,0,0,1,210.34,28.81Z"/><path class="cls-3" d="M210.34,28.81a.59.59,0,0,0-.59.18.53.53,0,0,0-.14.52c.09.4.2.78.31,1.17,0,0,0,.05,0,.07l-.11,0c-.07,0-.1,0-.12-.07a1.82,1.82,0,0,1-.07-.25l-.29-1a.65.65,0,0,1,.07-.51.61.61,0,0,1,.75-.22A.57.57,0,0,1,210.34,28.81Z"/></g><g id="RMzng2.tif-21" data-name="RMzng2.tif"><path class="cls-1" d="M216.73,20.17a.52.52,0,0,0-.17-.12.6.6,0,0,0-.75.23.58.58,0,0,0-.07.5l.29,1,.06.25a.09.09,0,0,0,.13.07l.11,0,.08,0,1.12-.31a.6.6,0,1,0-.32-1.15l-.14,0c-.08,0-.11,0-.14-.08a.57.57,0,0,0,0-.14A.53.53,0,0,0,216.73,20.17Z"/><path class="cls-2" d="M216.73,20.17a.53.53,0,0,1,.16.28.57.57,0,0,1,0,.14c0,.08.06.1.14.08l.14,0a.6.6,0,1,1,.32,1.15l-1.12.31-.08,0s0-.05,0-.07c-.1-.39-.22-.77-.31-1.16a.58.58,0,0,1,.15-.53A.6.6,0,0,1,216.73,20.17Z"/><path class="cls-3" d="M216.73,20.17a.6.6,0,0,0-.58.18.58.58,0,0,0-.15.53c.09.39.21.77.31,1.16,0,0,0,.05,0,.07l-.11,0a.09.09,0,0,1-.13-.07l-.06-.25-.29-1a.58.58,0,0,1,.07-.5.6.6,0,0,1,.75-.23A.52.52,0,0,1,216.73,20.17Z"/></g><g id="RMzng2.tif-22" data-name="RMzng2.tif"><path class="cls-1" d="M197,38a.87.87,0,0,0-.32-.22,1.11,1.11,0,0,0-1.51,1.33c.18.64.35,1.28.53,1.92l.12.46a.17.17,0,0,0,.23.13l.2-.06.16,0,2-.56a1.1,1.1,0,1,0-.58-2.13l-.27.08c-.15,0-.2,0-.25-.15s0-.17-.07-.26A1,1,0,0,0,197,38Z"/><path class="cls-2" d="M197,38a1,1,0,0,1,.29.5c0,.09,0,.18.07.26s.1.19.25.15l.27-.08a1.1,1.1,0,1,1,.58,2.13l-2,.56-.16,0s0-.09,0-.13c-.19-.72-.41-1.42-.57-2.14a1,1,0,0,1,.26-1A1.07,1.07,0,0,1,197,38Z"/><path class="cls-3" d="M197,38a1.07,1.07,0,0,0-1.08.33,1,1,0,0,0-.26,1c.16.72.38,1.42.57,2.14,0,0,0,.09,0,.13l-.2.06a.17.17,0,0,1-.23-.13l-.12-.46c-.18-.64-.35-1.28-.53-1.92a1.11,1.11,0,0,1,1.51-1.33A.87.87,0,0,1,197,38Z"/></g><g id="RMzng2.tif-23" data-name="RMzng2.tif"><path class="cls-1" d="M179.3,52a.87.87,0,0,0-.31-.23,1.12,1.12,0,0,0-1.38.41,1.13,1.13,0,0,0-.13.93c.18.64.35,1.28.53,1.92l.12.46c0,.12.1.16.22.13l.21-.06.16,0,2.05-.57a1.1,1.1,0,1,0-.58-2.12l-.27.08c-.15,0-.21,0-.25-.15a2.5,2.5,0,0,0-.07-.26A1,1,0,0,0,179.3,52Z"/><path class="cls-2" d="M179.3,52a1,1,0,0,1,.3.5,2.5,2.5,0,0,1,.07.26c0,.15.1.19.25.15l.27-.08a1.1,1.1,0,1,1,.58,2.12l-2.05.57-.16,0a.5.5,0,0,0,0-.13c-.18-.72-.4-1.42-.57-2.14a1,1,0,0,1,.27-1A1.07,1.07,0,0,1,179.3,52Z"/><path class="cls-3" d="M179.3,52a1.07,1.07,0,0,0-1.07.32,1,1,0,0,0-.27,1c.17.72.39,1.42.57,2.14a.5.5,0,0,1,0,.13l-.21.06c-.12,0-.18,0-.22-.13L178,55c-.18-.64-.35-1.28-.53-1.92a1.13,1.13,0,0,1,.13-.93,1.12,1.12,0,0,1,1.38-.41A.87.87,0,0,1,179.3,52Z"/></g><g id="RMzng2.tif-24" data-name="RMzng2.tif"><path class="cls-1" d="M183.63,65.44a.9.9,0,0,0-.32-.23,1.1,1.1,0,0,0-1.5,1.33c.17.65.35,1.29.52,1.93,0,.15.08.3.13.46a.16.16,0,0,0,.22.13l.21-.06.15,0,2.05-.56a1.09,1.09,0,0,0,.79-1.35,1.12,1.12,0,0,0-1.37-.77l-.26.07c-.15,0-.21,0-.25-.14a2.5,2.5,0,0,1-.07-.26A1.07,1.07,0,0,0,183.63,65.44Z"/><path class="cls-2" d="M183.63,65.44a1.07,1.07,0,0,1,.3.5,2.5,2.5,0,0,0,.07.26c0,.15.1.18.25.14l.26-.07a1.12,1.12,0,0,1,1.37.77,1.09,1.09,0,0,1-.79,1.35L183,69l-.15,0,0-.13c-.19-.72-.41-1.43-.57-2.15a1,1,0,0,1,.26-1A1.08,1.08,0,0,1,183.63,65.44Z"/><path class="cls-3" d="M183.63,65.44a1.08,1.08,0,0,0-1.08.32,1,1,0,0,0-.26,1c.16.72.38,1.43.57,2.15l0,.13-.21.06a.16.16,0,0,1-.22-.13c-.05-.16-.09-.31-.13-.46-.17-.64-.35-1.28-.52-1.93a1.1,1.1,0,0,1,1.5-1.33A.9.9,0,0,1,183.63,65.44Z"/></g><g id="RMzng2.tif-25" data-name="RMzng2.tif"><path class="cls-1" d="M96.19,84.86a3.06,3.06,0,0,0-1-.73,3.62,3.62,0,0,0-4.5,1.34,3.67,3.67,0,0,0-.41,3L92,94.75c.14.5.27,1,.41,1.5a.52.52,0,0,0,.73.42c.22,0,.45-.13.67-.19l.51-.14L101,94.51a3.59,3.59,0,1,0-1.88-6.92l-.88.23c-.49.13-.67,0-.81-.47-.08-.28-.15-.57-.23-.85A3.52,3.52,0,0,0,96.19,84.86Z"/><path class="cls-2" d="M96.19,84.86a3.52,3.52,0,0,1,1,1.64c.08.28.15.57.23.85.14.5.32.6.81.47l.88-.23A3.59,3.59,0,1,1,101,94.51l-6.69,1.83-.51.14c0-.14-.05-.29-.08-.43-.61-2.33-1.33-4.64-1.87-7a3.34,3.34,0,0,1,.86-3.14A3.52,3.52,0,0,1,96.19,84.86Z"/><path class="cls-3" d="M96.19,84.86a3.52,3.52,0,0,0-3.52,1.06,3.34,3.34,0,0,0-.86,3.14c.54,2.35,1.26,4.66,1.87,7,0,.14,0,.29.08.43-.22.06-.45.14-.67.19a.52.52,0,0,1-.73-.42c-.14-.5-.27-1-.41-1.5l-1.71-6.27a3.67,3.67,0,0,1,.41-3,3.62,3.62,0,0,1,4.5-1.34A3.06,3.06,0,0,1,96.19,84.86Z"/></g><g id="RMzng2.tif-26" data-name="RMzng2.tif"><path class="cls-1" d="M136.79,74.15a3.06,3.06,0,0,0-1-.73,3.62,3.62,0,0,0-4.5,1.34,3.67,3.67,0,0,0-.41,3L132.55,84c.14.5.27,1,.41,1.5a.52.52,0,0,0,.73.42c.23,0,.45-.13.67-.19l.51-.14c2.23-.61,4.47-1.21,6.69-1.83a3.59,3.59,0,1,0-1.88-6.92l-.88.23c-.49.13-.67,0-.81-.47-.08-.28-.15-.57-.23-.85A3.52,3.52,0,0,0,136.79,74.15Z"/><path class="cls-2" d="M136.79,74.15a3.52,3.52,0,0,1,1,1.64c.08.28.15.57.23.85.14.5.32.6.81.47l.88-.23a3.59,3.59,0,1,1,1.88,6.92c-2.22.62-4.46,1.22-6.69,1.83l-.51.14c0-.14-.05-.29-.08-.43-.61-2.33-1.33-4.64-1.86-7a3.31,3.31,0,0,1,.85-3.14A3.52,3.52,0,0,1,136.79,74.15Z"/><path class="cls-3" d="M136.79,74.15a3.52,3.52,0,0,0-3.52,1.06,3.31,3.31,0,0,0-.85,3.14c.53,2.35,1.25,4.66,1.86,7,0,.14.05.29.08.43-.22.06-.44.14-.67.19a.52.52,0,0,1-.73-.42c-.14-.5-.27-1-.41-1.5l-1.71-6.27a3.67,3.67,0,0,1,.41-3,3.62,3.62,0,0,1,4.5-1.34A3.06,3.06,0,0,1,136.79,74.15Z"/></g><g id="RMzng2.tif-27" data-name="RMzng2.tif"><path class="cls-1" d="M71.51,272.27a3.77,3.77,0,0,0-1.18,1.17,4.72,4.72,0,0,0,.64,6.11,4.84,4.84,0,0,0,3.77,1.24l8.48-.7,2-.17c.54-.05.74-.3.71-.83,0-.31,0-.61-.08-.92l-.06-.68c-.25-3-.49-6-.76-9.05a4.69,4.69,0,1,0-9.35.77c0,.39.06.79.09,1.18,0,.66-.13.87-.8.93l-1.15.1A4.42,4.42,0,0,0,71.51,272.27Z"/><path class="cls-2" d="M71.51,272.27a4.42,4.42,0,0,1,2.34-.85l1.15-.1c.67-.06.85-.27.8-.93,0-.39-.07-.79-.09-1.18a4.69,4.69,0,1,1,9.35-.77c.27,3,.51,6,.76,9.05l.06.68H85.3c-3.14.23-6.28.59-9.43.72A4.33,4.33,0,0,1,72,277.05,4.59,4.59,0,0,1,71.51,272.27Z"/><path class="cls-3" d="M71.51,272.27a4.59,4.59,0,0,0,.53,4.78,4.33,4.33,0,0,0,3.83,1.85c3.15-.13,6.29-.49,9.43-.72h.58c0,.31.07.61.08.92,0,.53-.17.78-.71.83l-2,.17-8.48.7A4.84,4.84,0,0,1,71,279.55a4.72,4.72,0,0,1-.64-6.11A3.77,3.77,0,0,1,71.51,272.27Z"/></g><g id="RMzng2.tif-28" data-name="RMzng2.tif"><path class="cls-1" d="M187,293.77a2.24,2.24,0,0,0-.69-.57,2.55,2.55,0,0,0-3.69,2.8l.87,4.52c.07.35.13.71.21,1.07s.2.39.49.34l.48-.1.37-.07c1.6-.31,3.21-.61,4.81-.93a2.54,2.54,0,1,0-1-5c-.21,0-.42.08-.63.12s-.47,0-.55-.38c0-.2-.07-.41-.11-.61A2.43,2.43,0,0,0,187,293.77Z"/><path class="cls-2" d="M187,293.77a2.43,2.43,0,0,1,.6,1.21c0,.2.07.41.11.61.08.36.2.44.55.38s.42-.09.63-.12a2.54,2.54,0,1,1,1,5c-1.6.32-3.21.62-4.81.93l-.37.07c0-.1,0-.21,0-.31-.3-1.67-.68-3.33-.93-5a2.34,2.34,0,0,1,.77-2.17A2.5,2.5,0,0,1,187,293.77Z"/><path class="cls-3" d="M187,293.77a2.5,2.5,0,0,0-2.53.56,2.34,2.34,0,0,0-.77,2.17c.25,1.69.63,3.35.93,5,0,.1,0,.21,0,.31l-.48.1c-.29.05-.43-.05-.49-.34s-.14-.72-.21-1.07l-.87-4.52a2.55,2.55,0,0,1,3.69-2.8A2.24,2.24,0,0,1,187,293.77Z"/></g><g id="RMzng2.tif-29" data-name="RMzng2.tif"><path class="cls-1" d="M223.8,285.27a2.84,2.84,0,0,0-1,.68,3.53,3.53,0,0,0-.41,4.58,3.6,3.6,0,0,0,2.58,1.46l6.33.72,1.51.17a.51.51,0,0,0,.65-.51c0-.22,0-.45.06-.68l.06-.51c.26-2.25.53-4.5.77-6.75a3.51,3.51,0,1,0-7-.8c0,.29-.07.59-.1.88-.06.5-.23.62-.73.57l-.85-.1A3.37,3.37,0,0,0,223.8,285.27Z"/><path class="cls-2" d="M223.8,285.27a3.37,3.37,0,0,1,1.85-.29l.85.1c.5.05.67-.07.73-.57,0-.29.06-.59.1-.88a3.51,3.51,0,1,1,7,.8c-.24,2.25-.51,4.5-.77,6.75l-.06.51-.42-.08c-2.34-.29-4.69-.48-7-.84a3.26,3.26,0,0,1-2.55-1.92A3.43,3.43,0,0,1,223.8,285.27Z"/><path class="cls-3" d="M223.8,285.27a3.43,3.43,0,0,0-.31,3.58,3.26,3.26,0,0,0,2.55,1.92c2.33.36,4.68.55,7,.84l.42.08c0,.23,0,.46-.06.68a.51.51,0,0,1-.65.51l-1.51-.17-6.33-.72a3.6,3.6,0,0,1-2.58-1.46,3.53,3.53,0,0,1,.41-4.58A2.84,2.84,0,0,1,223.8,285.27Z"/></g><g id="RMzng2.tif-30" data-name="RMzng2.tif"><path class="cls-1" d="M241.22,319.1a3.1,3.1,0,0,0-1.25,0,3.52,3.52,0,0,0-1.73,6.18l4.73,4.25,1.13,1a.51.51,0,0,0,.82,0c.16-.17.31-.35.46-.52l.34-.38c1.51-1.69,3-3.36,4.54-5.05a3.51,3.51,0,1,0-5.22-4.7c-.21.21-.4.44-.6.66s-.54.37-.92,0l-.64-.58A3.37,3.37,0,0,0,241.22,319.1Z"/><path class="cls-2" d="M241.22,319.1a3.37,3.37,0,0,1,1.66.84l.64.58c.38.33.59.32.92,0s.39-.45.6-.66a3.51,3.51,0,1,1,5.22,4.7c-1.51,1.69-3,3.36-4.54,5.05l-.34.38-.3-.31c-1.74-1.59-3.55-3.11-5.24-4.76a3.25,3.25,0,0,1-1-3A3.44,3.44,0,0,1,241.22,319.1Z"/><path class="cls-3" d="M241.22,319.1a3.44,3.44,0,0,0-2.34,2.74,3.25,3.25,0,0,0,1,3c1.69,1.65,3.5,3.17,5.24,4.76l.3.31c-.15.17-.3.35-.46.52a.51.51,0,0,1-.82,0l-1.13-1-4.73-4.25a3.52,3.52,0,0,1,1.73-6.18A3.1,3.1,0,0,1,241.22,319.1Z"/></g><g id="RMzng2.tif-31" data-name="RMzng2.tif"><path class="cls-1" d="M125.78,292.25a4.16,4.16,0,0,0-1.44,1,5,5,0,0,0-.36,6.51,5.08,5.08,0,0,0,3.74,2l9,.7,2.15.17c.58,0,.84-.18.9-.75,0-.32,0-.65.06-1l.06-.73c.25-3.2.52-6.41.75-9.61a5,5,0,1,0-9.94-.79c0,.42-.07.84-.1,1.26-.06.7-.29.89-1,.84-.41,0-.81-.07-1.22-.09A4.69,4.69,0,0,0,125.78,292.25Z"/><path class="cls-2" d="M125.78,292.25a4.69,4.69,0,0,1,2.6-.49c.41,0,.81.06,1.22.09.71,0,.94-.14,1-.84,0-.42.06-.84.1-1.26a5,5,0,1,1,9.94.79c-.23,3.2-.5,6.41-.75,9.61l-.06.73-.6-.09c-3.33-.3-6.68-.45-10-.85a4.6,4.6,0,0,1-3.7-2.59A4.88,4.88,0,0,1,125.78,292.25Z"/><path class="cls-3" d="M125.78,292.25a4.88,4.88,0,0,0-.26,5.1,4.6,4.6,0,0,0,3.7,2.59c3.33.4,6.68.55,10,.85l.6.09c0,.32,0,.65-.06,1-.06.57-.32.79-.9.75l-2.15-.17-9-.7a5.08,5.08,0,0,1-3.74-2,5,5,0,0,1,.36-6.51A4.16,4.16,0,0,1,125.78,292.25Z"/></g><g id="RMzng2.tif-32" data-name="RMzng2.tif"><path class="cls-1" d="M199.54,384.7a4.51,4.51,0,0,0-1.69-.71,5.21,5.21,0,0,0-5.95,3.26,5.27,5.27,0,0,0,.34,4.37l4.32,8.34c.34.66.68,1.33,1,2a.75.75,0,0,0,1.15.38c.3-.15.59-.32.89-.48l.68-.35c3-1.54,5.94-3.06,8.89-4.62a5.18,5.18,0,1,0-4.76-9.21l-1.17.6c-.65.34-.94.24-1.29-.42l-.59-1.12A4.93,4.93,0,0,0,199.54,384.7Z"/><path class="cls-2" d="M199.54,384.7a4.93,4.93,0,0,1,1.86,2l.59,1.12c.35.66.64.76,1.29.42l1.17-.6a5.18,5.18,0,1,1,4.76,9.21c-3,1.56-5.93,3.08-8.89,4.62l-.68.35c-.08-.19-.15-.39-.25-.58-1.57-3.11-3.28-6.15-4.75-9.3a4.8,4.8,0,0,1,.25-4.7A5.11,5.11,0,0,1,199.54,384.7Z"/><path class="cls-3" d="M199.54,384.7a5.11,5.11,0,0,0-4.65,2.57,4.8,4.8,0,0,0-.25,4.7c1.47,3.15,3.18,6.19,4.75,9.3.1.19.17.39.25.58-.3.16-.59.33-.89.48a.75.75,0,0,1-1.15-.38c-.36-.66-.7-1.33-1-2l-4.32-8.34a5.27,5.27,0,0,1-.34-4.37,5.21,5.21,0,0,1,5.95-3.26A4.51,4.51,0,0,1,199.54,384.7Z"/></g><g id="RMzng2.tif-33" data-name="RMzng2.tif"><path class="cls-1" d="M244.88,362.34a4.25,4.25,0,0,0-1.32-1.28,5.22,5.22,0,0,0-6.72.89,5.32,5.32,0,0,0-1.27,4.2c.35,3.11.68,6.22,1,9.34.08.74.16,1.48.25,2.23.07.59.35.81.94.76.33,0,.67-.08,1-.12l.76-.08c3.32-.36,6.64-.71,10-1.09a5.19,5.19,0,1,0-1.11-10.31l-1.31.14c-.73.08-1-.12-1.05-.86-.05-.42-.09-.84-.14-1.26A4.9,4.9,0,0,0,244.88,362.34Z"/><path class="cls-2" d="M244.88,362.34a4.9,4.9,0,0,1,1,2.56c.05.42.09.84.14,1.26.08.74.32.94,1.05.86l1.31-.14a5.19,5.19,0,1,1,1.11,10.31c-3.32.38-6.64.73-10,1.09l-.76.08c0-.21,0-.42,0-.63-.34-3.46-.84-6.91-1.07-10.39a4.82,4.82,0,0,1,1.93-4.29A5.07,5.07,0,0,1,244.88,362.34Z"/><path class="cls-3" d="M244.88,362.34a5.07,5.07,0,0,0-5.26.71,4.82,4.82,0,0,0-1.93,4.29c.23,3.48.73,6.93,1.07,10.39,0,.21,0,.42,0,.63-.33,0-.67.1-1,.12-.59,0-.87-.17-.94-.76-.09-.75-.17-1.49-.25-2.23-.34-3.12-.67-6.23-1-9.34a5.32,5.32,0,0,1,1.27-4.2,5.22,5.22,0,0,1,6.72-.89A4.25,4.25,0,0,1,244.88,362.34Z"/></g><g id="RMzng2.tif-34" data-name="RMzng2.tif"><path class="cls-1" d="M253.6,413.45a4.21,4.21,0,0,0-1.69-.71A5.22,5.22,0,0,0,246,416a5.29,5.29,0,0,0,.34,4.38l4.32,8.34c.35.66.68,1.33,1,2a.75.75,0,0,0,1.15.37c.3-.14.6-.32.89-.48l.68-.35c3-1.54,5.94-3.06,8.89-4.62a5.18,5.18,0,1,0-4.76-9.2l-1.17.6c-.65.33-.94.24-1.29-.42-.2-.38-.38-.76-.59-1.13A4.89,4.89,0,0,0,253.6,413.45Z"/><path class="cls-2" d="M253.6,413.45a4.89,4.89,0,0,1,1.86,2c.21.37.39.75.59,1.13.35.66.64.75,1.29.42l1.17-.6a5.18,5.18,0,1,1,4.76,9.2c-2.95,1.56-5.93,3.08-8.89,4.62l-.68.35c-.08-.19-.15-.39-.25-.58-1.57-3.1-3.28-6.14-4.75-9.3A4.81,4.81,0,0,1,249,416,5.07,5.07,0,0,1,253.6,413.45Z"/><path class="cls-3" d="M253.6,413.45A5.07,5.07,0,0,0,249,416a4.81,4.81,0,0,0-.25,4.69c1.47,3.16,3.18,6.2,4.75,9.3.1.19.17.39.25.58-.29.16-.59.34-.89.48a.75.75,0,0,1-1.15-.37c-.36-.66-.69-1.33-1-2l-4.32-8.34A5.29,5.29,0,0,1,246,416a5.22,5.22,0,0,1,5.95-3.25A4.21,4.21,0,0,1,253.6,413.45Z"/></g><g id="RMzng2.tif-35" data-name="RMzng2.tif"><path class="cls-1" d="M190.65,341a2.14,2.14,0,0,0-.72.65,2.76,2.76,0,0,0,.21,3.59,2.85,2.85,0,0,0,2.18.83l5-.19,1.19-.05c.31,0,.44-.15.44-.47s0-.35,0-.53,0-.27,0-.41c-.07-1.76-.13-3.53-.21-5.3a2.75,2.75,0,1,0-5.49.2l0,.7c0,.38-.1.5-.5.52l-.67,0A2.56,2.56,0,0,0,190.65,341Z"/><path class="cls-2" d="M190.65,341a2.56,2.56,0,0,1,1.39-.43l.67,0c.4,0,.51-.14.5-.52l0-.7a2.75,2.75,0,1,1,5.49-.2c.08,1.77.14,3.54.21,5.3,0,.14,0,.27,0,.41a1.82,1.82,0,0,0-.33,0c-1.85.05-3.69.18-5.53.17a2.53,2.53,0,0,1-2.2-1.18A2.71,2.71,0,0,1,190.65,341Z"/><path class="cls-3" d="M190.65,341a2.71,2.71,0,0,0,.18,2.81A2.53,2.53,0,0,0,193,345c1.84,0,3.68-.12,5.53-.17a1.82,1.82,0,0,1,.33,0c0,.18,0,.35,0,.53s-.13.46-.44.47l-1.19.05-5,.19a2.85,2.85,0,0,1-2.18-.83,2.76,2.76,0,0,1-.21-3.59A2.14,2.14,0,0,1,190.65,341Z"/></g></g></svg>