<?xml version="1.0" encoding="UTF-8"?><svg xmlns="http://www.w3.org/2000/svg" viewBox="0 0 183.18 286.5"><defs><style>.e{fill:#ec5f68;}.f,.g,.h,.i{fill:#fff;}.g{stroke:#fff;}.g,.j,.h,.k,.i,.l,.m,.n,.o{stroke-miterlimit:10;stroke-width:.25px;}.j,.h,.l{stroke:#20201e;}.j,.l,.m,.p,.o{fill:#d9d9d9;}.q{fill:#fafafa;}.r{fill:#e63b51;}.s{fill:#0f1010;}.t{fill:#040404;}.u{fill:#e8e7e9;}.k,.i,.m,.n,.o{stroke:#010101;}.k,.v{fill:#010101;}.w{fill:#dedddd;}.x{fill:#efc5ba;}.y{fill:#313131;}.a`{fill:#070808;}.aa{fill:#4e4d4d;}.l{opacity:.65;}.ab{fill:#3a3a3a;}.ac{fill:#eb566a;}.ad{fill:#fef5f5;}.ae{fill:#202020;}.af{fill:#c6c4c4;}.n{fill:none;}.ag{fill:#171718;}.ah{fill:#f1f1f1;}.ai{fill:#dde6ea;}.aj{fill:#d3d1d2;}.ak{fill:#010202;}.o{opacity:.99;}.al{fill:#1d1d1b;}</style></defs><g id="a"/><g id="b"><g id="c"><g><path class="al" d="M36.02,110.78c.78,.31,2.23-.32,2.23-.32,0,0-1.31-.31-1.41-1.38-.22-.01-.48-.09-.72-.23-.56-.32-.86-.87-.66-1.21,.2-.35,.82-.36,1.38-.04,.04,.02,.08,.05,.12,.08,.22-.45,.61-.83,1.1-1.04-.06-.08-.11-.17-.15-.27-.26-.59-.18-1.2,.18-1.37,.36-.16,.87,.19,1.14,.78,.11,.25,.16,.5,.15,.72,.97,.03,1.46,1.03,1.46,1.03,0,0,.6-1.25,.34-2.04-.26-.79,2.45-2.26,4.21,.45,0,0,.34,.69-.69,.7-.84,.01-1.25,.79-1.34,1.2-.03,.12-.12,.22-.25,.24-.33,.07-.89,.24-1.05,.65l-.02-.02c1.03,1.2,1.17,2.77,.32,3.52-.84,.74-3.17-.37-3.17-.37-.42,.13-.62,.69-.71,1.01-.03,.12-.13,.21-.26,.23-.41,.07-1.21,.43-1.28,1.26-.08,1.03-.74,.64-.74,.64-2.6-1.92-.97-4.54-.2-4.23Z"/><path class="x" d="M20.08,118.94c.64,.26,1.85-.27,1.85-.27,0,0-1.09-.25-1.17-1.15-.19-.01-.39-.07-.59-.19-.47-.27-.71-.72-.54-1,.17-.29,.68-.3,1.14-.03,.03,.02,.07,.04,.1,.06,.18-.38,.5-.69,.91-.86-.05-.07-.09-.14-.12-.23-.22-.49-.15-1,.15-1.13,.3-.13,.72,.15,.94,.64,.09,.21,.13,.41,.13,.6,.81,.02,1.21,.86,1.21,.86,0,0,.5-1.03,.28-1.69-.22-.66,2.03-1.87,3.49,.37,0,0,.29,.57-.57,.58-.69,0-1.03,.66-1.11,.99-.02,.1-.1,.18-.2,.2-.27,.06-.74,.2-.87,.54l-.02-.02c.85,1,.97,2.3,.26,2.92-.7,.61-2.62-.3-2.62-.3-.34,.11-.52,.57-.59,.83-.03,.1-.11,.18-.21,.19-.34,.05-1.01,.36-1.06,1.05-.06,.85-.61,.53-.61,.53-2.16-1.59-.81-3.76-.16-3.5Z"/><path class="al" d="M41.13,120.57c.64,.26,1.85-.27,1.85-.27,0,0-1.09-.25-1.17-1.15-.19-.01-.39-.07-.59-.19-.47-.27-.71-.72-.54-1,.17-.29,.68-.3,1.14-.03,.03,.02,.07,.04,.1,.06,.18-.38,.5-.69,.91-.86-.05-.07-.09-.14-.12-.23-.22-.49-.15-1,.15-1.13,.3-.13,.72,.15,.94,.64,.09,.21,.13,.41,.13,.6,.81,.02,1.21,.86,1.21,.86,0,0,.5-1.03,.28-1.69-.22-.66,2.03-1.87,3.49,.37,0,0,.29,.57-.57,.58-.69,0-1.03,.66-1.11,.99-.02,.1-.1,.18-.2,.2-.27,.06-.74,.2-.87,.54l-.02-.02c.85,1,.97,2.3,.26,2.92-.7,.61-2.62-.3-2.62-.3-.34,.11-.52,.57-.59,.83-.03,.1-.11,.18-.21,.19-.34,.05-1.01,.36-1.06,1.05-.06,.85-.61,.53-.61,.53-2.16-1.59-.81-3.76-.16-3.5Z"/><path class="ac" d="M16.37,102.32c.05,.75,1.14,1.67,1.14,1.67,0,0-.27-1.18,.56-1.68-.08-.19-.11-.42-.1-.67,.04-.58,.36-1.03,.72-1.01,.36,.03,.61,.52,.57,1.1,0,.04,0,.09-.01,.13,.45,0,.91,.16,1.27,.48,.05-.08,.1-.15,.16-.23,.37-.45,.9-.62,1.17-.39,.27,.23,.19,.78-.18,1.22-.16,.19-.34,.33-.52,.41,.36,.79-.26,1.58-.26,1.58,0,0,1.24,0,1.78-.53,.54-.53,2.78,1.08,1.29,3.57,0,0-.42,.55-.84-.28-.34-.67-1.13-.69-1.49-.61-.11,.03-.22-.01-.29-.1-.18-.24-.54-.62-.94-.59v-.02c-.56,1.3-1.76,2.04-2.71,1.64-.93-.39-.95-2.7-.95-2.7-.27-.28-.8-.23-1.09-.18-.11,.02-.22-.03-.29-.12-.21-.3-.82-.81-1.52-.53-.86,.34-.81-.34-.81-.34,.53-2.85,3.28-2.57,3.33-1.82Z"/><path class="al" d="M120.91,110.78c-.78,.31-2.23-.32-2.23-.32,0,0,1.31-.31,1.41-1.38,.22-.01,.48-.09,.72-.23,.56-.32,.86-.87,.66-1.21-.2-.35-.82-.36-1.38-.04-.04,.02-.08,.05-.12,.08-.22-.45-.61-.83-1.1-1.04,.06-.08,.11-.17,.15-.27,.26-.59,.18-1.2-.18-1.37-.36-.16-.87,.19-1.14,.78-.11,.25-.16,.5-.15,.72-.97,.03-1.46,1.03-1.46,1.03,0,0-.6-1.25-.34-2.04,.26-.79-2.45-2.26-4.21,.45,0,0-.34,.69,.69,.7,.84,.01,1.25,.79,1.34,1.2,.03,.12,.12,.22,.25,.24,.33,.07,.89,.24,1.05,.65l.02-.02c-1.03,1.2-1.17,2.77-.32,3.52,.84,.74,3.17-.37,3.17-.37,.42,.13,.62,.69,.71,1.01,.03,.12,.13,.21,.26,.23,.41,.07,1.21,.43,1.28,1.26,.08,1.03,.74,.64,.74,.64,2.6-1.92,.97-4.54,.2-4.23Z"/><g id="d"><g><path class="r" d="M80.36,1.29c2.22,1.33,3.53,3.3,4.09,5.8,.07,.31,.01,.64,.18,.93v.28c-.16,.12-.09,.28-.09,.43,0,6.43,0,12.85,0,19.28,0,.15-.06,.31,.09,.43v.37c-.2,.39-.18,.83-.28,1.24-.88,3.54-3.97,6.24-7.56,6.6-1.61,.16-4.37,.04-5.99,.08-.64,.01-.66,.03-.66,.66,0,2.9-.01,5.81,0,8.71,0,.76-.21,1.33-.93,1.65h-.65c-.9-.52-1.49-1.36-2.16-2.11,0-.2,.02-.4,.02-.61,0-3.74,0-7.49,0-11.23,0-.72,.06-.78,.81-.78,1.35,0,3.85,0,5.2,0,.42,0,.83-.07,1.24-.16,1.8-.43,3.31-1.33,4.51-2.75,1.43-1.68,2.24-3.62,2.25-5.81,.03-7.13,.01-14.26,.01-21.39,0-.23-.05-.46-.07-.69-.03-.3-.29-.62,0-.92Z"/><path class="e" d="M84.63,28.44c-.15-.12-.09-.29-.09-.43,0-6.43,0-12.85,0-19.28,0-.15-.06-.31,.09-.43V28.44Z"/><path class="ac" d="M80.36,1.29c-.28,.31-.02,.62,0,.92,.02,.23,.07,.46,.07,.69,0,7.13,.02,14.26-.01,21.39-.01,2.19-.82,4.13-2.25,5.81-1.21,1.42-2.71,2.33-4.51,2.75-.4,.1-.81,.16-1.24,.16-1.35,0-3.85,0-5.2,0-.75,0-.81,.06-.81,.78,0,3.74,0,7.49,0,11.23,0,.2,0,.4-.02,.61-1.4-1.47-2.8-2.95-4.2-4.43-1.3-1.38-2.6-2.76-3.89-4.15-.23-.25-.48-.34-.81-.34-3.91,0-6.68,.01-10.6,0-1.77,0-3.45-.39-4.95-1.38-2.44-1.6-3.81-3.85-4.06-6.77-.06-.68-.05-1.37-.05-2.05,0-5.81,0-11.62,0-17.43,0-1.77,.38-3.45,1.36-4.96C40.83,1.6,43.17,.25,46.17,.02c.23-.02,.47-.02,.7-.02C56.44,0,66.01,0,75.58,0c1.71,0,3.32,.38,4.78,1.29Zm-20.56,26.64c.23,.25,.46,.5,.71,.74,.54,.54,.92,.53,1.47,0,1.01-1.01,2.02-2.02,3.03-3.03,2.02-2.02,4.05-4.03,6.06-6.06,2.39-2.42,2.31-6.15-.19-8.36-1.52-1.34-3.28-1.79-5.26-1.24-.84,.18-1.57,.57-2.21,1.14-.52,.46-1.01,.97-1.51,1.45-.46,.44-.84,.44-1.3,0-.45-.43-.87-.89-1.33-1.31-2.2-2-5.51-2.02-7.68-.06-2.48,2.24-2.56,5.94-.15,8.37,2.78,2.8,5.57,5.58,8.36,8.37Z"/><path class="ad" d="M59.79,27.93c-2.79-2.79-5.58-5.57-8.36-8.37-2.41-2.43-2.34-6.13,.15-8.37,2.17-1.96,5.47-1.94,7.68,.06,.46,.42,.88,.88,1.33,1.31,.46,.44,.84,.44,1.3,0,.5-.48,.99-.99,1.51-1.45,.64-.56,1.37-.96,2.21-1.14,1.2,.36,2.23,.99,2.98,2.01,1.26,1.71,1.54,3.55,.8,5.56-.34,.92-.93,1.64-1.6,2.31-2.52,2.55-5.07,5.08-7.6,7.62-.14,.14-.31,.26-.39,.46Z"/><path class="ai" d="M59.79,27.93c.08-.19,.25-.32,.39-.46,2.54-2.54,5.08-5.07,7.6-7.62,.66-.67,1.26-1.4,1.6-2.31,.74-2.01,.46-3.85-.8-5.56-.75-1.02-1.78-1.65-2.98-2.01,1.98-.55,3.75-.1,5.26,1.24,2.5,2.21,2.58,5.94,.19,8.36-2.01,2.03-4.04,4.04-6.06,6.06-1.01,1.01-2.02,2.02-3.03,3.03-.55,.54-.93,.54-1.47,0-.24-.24-.47-.49-.71-.74Z"/></g></g><g><path class="f" d="M120.24,94.22l9.59-5.33c.67-.37,1.38-.75,2.14-.73s1.56,.62,1.51,1.38c-.03,.45-.34,.83-.54,1.24s-.26,.98,.1,1.25c2.07-.79,4.31-1.14,6.52-1.02-.72,1.52-1.99,2.78-3.52,3.48l3.57,.15c.68,.03,1.54,.22,1.63,.89,.08,.64-.66,1.05-1.27,1.26-1.15,.41-2.31,.81-3.46,1.21,2.13,.44,4.2,1.17,6.14,2.16-.27,.75-1.27,.85-2.06,.83l-5.87-.2,2.68,1.9c.38,.27,.81,.61,.82,1.08,.02,.59-.67,1-1.26,.95s-1.11-.39-1.64-.66c-1.78-.87-3.84-.86-5.82-.84l-8.07,.11"/><path class="v" d="M120.15,94.27l5.67-3.15,2.83-1.58c.92-.51,1.92-1.26,3.01-1.32,.67-.04,1.45,.31,1.67,.99,.26,.82-.57,1.38-.65,2.15-.02,.17,0,.35,.07,.51,.12,.23,.18,.19,.4,.14,.48-.11,.94-.32,1.42-.44,.96-.25,1.94-.41,2.93-.48,.53-.04,1.2-.14,1.72-.02,.19,.04,.18-.07,.19,.1,0,.09-.14,.27-.18,.34-.11,.2-.23,.39-.36,.58-.69,.99-1.62,1.83-2.72,2.35-.05,.03-.16,.13-.22,.12l3.09,.13c.62,.03,1.6-.01,1.99,.6,.55,.87-.68,1.36-1.28,1.57-1.04,.36-2.08,.73-3.11,1.09-.05,.02-.17,.13-.22,.12,1.25,.26,2.48,.61,3.67,1.07,.56,.21,1.11,.45,1.66,.7,.21,.1,.78,.28,.78,.46,0,.17-.29,.38-.41,.46l.2-.12c-.95,.53-2.29,.27-3.32,.23l-4.15-.14s-.19,.14-.22,.12c.89,.63,1.8,1.25,2.68,1.9,.65,.48,1.23,1.24,.35,1.84l.21-.12c-1.15,.59-2.37-.54-3.45-.87-1.3-.4-2.68-.45-4.03-.44-2.95,0-5.89,.08-8.84,.12-.07,0-.14,.12-.22,.12l7.09-.1c2.06-.03,4.23-.17,6.19,.56,1.06,.4,2.13,1.36,3.25,.6,.78-.53,.43-1.25-.2-1.74-.91-.71-1.89-1.34-2.83-2l-.22,.12,4.89,.17c.91,.03,1.88,.17,2.7-.32,.17-.1,.38-.22,.46-.41,.1-.22,.14-.12-.11-.29-.15-.11-.34-.17-.51-.25-.34-.16-.68-.31-1.03-.46-1.42-.59-2.9-1.04-4.4-1.36l-.22,.12c1.25-.43,2.57-.79,3.77-1.33,.31-.14,.68-.33,.92-.58,.76-.81-.23-1.44-.99-1.54-1.29-.18-2.65-.13-3.94-.18l-.22,.12c1.13-.54,2.15-1.29,2.92-2.29,.24-.32,.62-.75,.73-1.15,.09-.33,.09-.1-.14-.19-.1-.04-.37-.01-.46-.01-.31,0-.61,0-.92,.02-1.14,.05-2.28,.23-3.39,.53-.26,.07-.51,.15-.77,.23-.12,.04-.63,.31-.76,.27-.39-.12-.25-.86-.16-1.11,.31-.83,1.04-1.58,.16-2.35-.72-.62-1.67-.43-2.46-.07-1.01,.46-1.97,1.07-2.93,1.61l-7.41,4.12s-.2,.11-.19,.11h0Z"/></g><path class="o" d="M48.82,110.72l14.2-.45,57.4-5.76-1.52-11.13-60.9,2.73-12.1-7.02s-1.46-1.68-6.42-.79"/><path class="h" d="M48.25,166.38c-.64-.53-1.66-.29-2.23,.31s-.79,1.45-.95,2.27c-.29,1.49-.45,3-.61,4.51l-.44,4.13c-.42-.07-.52-.63-.55-1.06s-.27-.99-.69-.91c-.31,.06-.44,.43-.46,.74-.11,1.32,.72,2.67,1.94,3.18,.64,.54,1.67,.5,2.27-.07,.02,.59,.52,1.13,1.1,1.18s1.17-.39,1.29-.97c-.05,.44,.5,.74,.92,.61s.7-.51,.95-.86c.98-1.39,1.98-2.81,2.47-4.43,.81-2.69,.13-5.58-.54-8.32-.13-.54-.28-1.1-.68-1.49-.39-.37-.95-.5-1.49-.53-1.63-.09-3.28,.67-2.3,1.72Z"/><path class="h" d="M44.02,177.55c-.05,.3,.08,.63,.33,.81"/><path class="h" d="M43.56,177.33c-.23,.04-.42,.28-.4,.52"/><path class="h" d="M44.01,179.38c.25,.1,.55,.02,.77-.15s.37-.4,.52-.63c.62-.96,1.25-1.95,1.52-3.06"/><path class="h" d="M47.25,174.68c.16-.3,.26-.64,.28-.98"/><path class="h" d="M49.43,175.01c.18-.33,.26-.71,.22-1.08"/><path class="h" d="M51.25,175.11c.27-.28,.4-.69,.37-1.08"/><path class="h" d="M50.37,176.46l.19-.54"/><path class="h" d="M48.42,176.19l.28-.53"/><path class="h" d="M46.63,179.47c.58-.79,1.05-1.67,1.38-2.6"/><path class="h" d="M48.81,179.96c.5-.59,.87-1.29,1.08-2.04"/><path class="j" d="M53.05,167.39l-.98-23.04c-.12-2.79-.46-6.02-2.77-7.57-1.63-1.1-3.9-.97-5.58,.05-1.68,1.02-2.81,2.8-3.36,4.69s-.56,3.91-.41,5.87c.56,7.26,3.34,14.21,3.62,21.55,1.56,.88,3.42,1.2,5.18,.9,1.76-.3,3.41-1.23,4.3-2.45Z"/><path class="p" d="M41.41,140.58c-.87-1.47-.39-3.49,.83-4.67s3.02-1.61,4.71-1.48c1.27,.1,2.56,.52,3.47,1.41s1.35,2.33,.86,3.51c-.99-1.83-3.28-2.72-5.32-2.36s-3.77,1.82-4.55,3.58Z"/><path class="l" d="M43.28,165.24c3.47,.95,7.46-.49,9.53-3.45"/><path class="l" d="M45.1,165.6c-.73,1.22-.65,2.88,.19,4.02"/><path class="l" d="M47.68,165.11c-.58,1.43-.46,3.13,.3,4.47"/><path class="l" d="M50.16,164.18c-.49,1.52-.22,3.27,.69,4.57"/><path class="p" d="M50.66,140.38c.03,.99-.56,1.94-1.38,2.5s-1.82,.78-2.81,.81c-1.13,.03-2.29-.2-3.23-.82s-2.17-2.11-2.19-3.24c-.5,.9,.37,2.46,.86,3.36,.51,.92,1.19,1.78,2.08,2.33,1.67,1.04,4,.86,5.48-.44s2.62-3.72,1.82-5.52c.03,.48-.58,1.09-.62,1.02Z"/><path class="m" d="M38.07,259.54l-.49,6.85c4.6,3.49,9.48,6.58,14.57,9.25-.79-5.24-5.85-8.95-6.59-14.19-.16-1.14-.12-2.33-.56-3.39-.73-1.73-2.84-2.66-4.54-2.01s-2.72,2.79-2.38,3.5Z"/><path class="m" d="M42.42,265.64c.86-1.18,2.34-1.84,3.76-1.67"/><path class="m" d="M44.42,268.77c.52-1.41,1.96-2.39,3.41-2.34"/><path class="m" d="M46.38,269.45c.49-.69,1.33-1.09,2.16-1.02"/><path class="m" d="M47.68,269.76c.39-.37,.89-.6,1.4-.65"/><path class="i" d="M44.54,262l1.74-.36,2.26-34.29c.16-2.41,.25-5.06-1.12-6.96-1.76-2.43-5.44-2.47-7.73-.61s-3.33,5.07-3.48,8.16,.01,5.95,.44,9.01c.72,5.15,1.09,10.19,.73,15.38-.12,1.73,.14,7.48,.33,9.2,.09,.84,.61,.46,2.35,.68,1.59,.2,3.2,.06,4.47-.2Z"/><path class="i" d="M46.4,255.95c-2.7,1.52-5.91,1.93-8.58,1.13-.51,.32-.65,1.13-.38,1.7s.85,.91,1.43,1.03,1.18,.03,1.77-.05,1.19-.18,1.77-.08"/><path class="f" d="M48.02,229.18c-.17-1.78,.49-4.35-.14-6-.64-1.65-1.81-3.15-3.39-3.67-1.92-.64-4.06,.44-5.5,1.95-1.44,1.51-1.29,2.56-2.15,4.52,.46-2.61-.52-3.7,.82-5.92s5.05-3.16,7.47-2.69c2.18,.42,3.98,1.83,3.82,6.73-.08,2.39-.64,2.08-.93,5.09Z"/><path class="n" d="M38.83,219.4l.07,2.34"/><path class="n" d="M38.88,223.92v2.16"/><path class="n" d="M38.66,228.83v2.27"/><path class="n" d="M38.75,234.1l.25,2.45"/><path class="n" d="M39.08,239.46l.08,2.73"/><path class="n" d="M39.25,245l-.17,2.64"/><path class="n" d="M38.92,249.91l-.08,2.45"/><path class="n" d="M38.75,254.72l-.25,1.73"/><path class="i" d="M42.52,229.94c.89,1.65,3.56,1.38,4.78-.05,1.22-1.43,1.39-3.44,1.5-5.31l1.46-24.13,1.66-27.5c.17-2.74,.24-5.78-1.51-7.89-2.47-2.99-7.57-2.41-10.35,.3s-3.71,6.78-4.06,10.64c-.34,3.74-.24,7.51-.14,11.27l.78,30.2c.07,2.82,.16,5.7,1.21,8.32,1.06,2.61,3.3,4.93,4.67,4.16Z"/><path class="i" d="M41.44,224.13c1.74-.11,3.43-.82,4.73-1.99"/><path class="i" d="M42.89,226.14l3.46-1.53"/><path class="i" d="M38.55,181.74l.18,2.67"/><path class="i" d="M38.92,186.72l-.18,2.31"/><path class="i" d="M38.83,191.79l-.09,2.31"/><path class="i" d="M38.62,197.78l-.11,3.6"/><path class="i" d="M38.43,204.51l.07,2.58"/><path class="i" d="M38.64,209.12l-.09,2.77"/><path class="i" d="M38.43,215.21l.17,2.86"/><path class="i" d="M38.73,220.56l.09,1.75"/><path class="g" d="M37.46,223.57c.28,2.09,1.07,4.08,2.52,5.61,.33,.35,.7,.69,1.15,.87s.99,.19,1.39-.08c.8,.79,2.02,1.13,3.11,.88s2.07-2.13,2.09-2.26"/><path class="i" d="M27.65,229.79c1.31-16.59,3.63-33.09,6.94-49.39,.74-3.62,1.49-7.52-.03-10.89-1.32-2.9-4.14-4.87-7.11-6.04-4.52-1.78-10.51-1.58-13.26,2.42-1.62,2.36-1.69,5.42-1.7,8.29-.05,15.49-.11,30.97-.16,46.46-.02,4.38,.24,9.36,3.59,12.17,1.89,1.58,4.59,2.14,6.95,1.44s4.63-2.6,4.78-4.46Z"/><path class="i" d="M15.63,179.82l.24,4.16"/><path class="i" d="M15.75,186.84v4.28"/><path class="i" d="M15.75,195.76l.24,4.04"/><path class="i" d="M15.87,202.78l.24,3.57"/><path class="i" d="M16.11,208.96l-.24,2.38"/><path class="i" d="M15.75,214.43l-.12,2.38"/><path class="i" d="M15.39,221.69l.12,2.74"/><path class="i" d="M15.63,227.64v2.74"/><path class="i" d="M21.22,224.43l3.87,.03c.05-.21,.09-.42-3.87-.03Z"/><path class="m" d="M14.27,267.66l-.59,7.92c5.54,4.04,11.4,7.62,17.52,10.7-.95-6.06-7.03-10.35-7.93-16.42-.2-1.32-.14-2.7-.67-3.92-.88-2-3.42-3.08-5.46-2.32-2.05,.76-3.27,3.23-2.87,4.05Z"/><path class="m" d="M19.49,274.72c1.04-1.37,2.82-2.13,4.52-1.93"/><path class="m" d="M21.91,278.34c.63-1.63,2.35-2.77,4.1-2.71"/><path class="m" d="M24.26,279.13c.59-.8,1.61-1.26,2.59-1.18"/><path class="m" d="M25.83,279.49c.46-.42,1.07-.69,1.69-.75"/><path class="i" d="M22.27,270.36l2.06-.39,2.67-37.41c.19-2.62,.3-5.52-1.33-7.59-2.08-2.66-6.41-2.69-9.11-.66s-3.93,5.53-4.11,8.9,.01,6.49,.52,9.83c.85,5.62,1.29,11.11,.86,16.77-.14,1.89,.17,8.15,.39,10.03,.11,.92,.72,.51,2.77,.74,1.88,.21,3.77,.07,5.27-.22Z"/><path class="i" d="M24.47,263.75c-3.18,1.65-6.97,2.1-10.12,1.24-.61,.35-.76,1.23-.44,1.85s1,1,1.69,1.12,1.4,.03,2.09-.06,1.4-.19,2.09-.08"/><path class="f" d="M26.38,234.55c-.2-1.94,.58-4.74-.17-6.54s-2.13-3.43-3.99-4c-2.27-.7-4.79,.48-6.49,2.13-1.7,1.65-1.52,2.79-2.54,4.93,.55-2.85-.62-4.04,.97-6.46,1.59-2.43,5.96-3.45,8.82-2.94,2.57,.46,4.7,2,4.51,7.34-.09,2.61-.76,2.27-1.1,5.55Z"/><path class="n" d="M15.54,223.89l.08,2.55"/><path class="n" d="M15.59,228.82v2.36"/><path class="n" d="M15.34,234.17v2.48"/><path class="n" d="M15.44,239.92l.3,2.68"/><path class="n" d="M15.83,245.77l.1,2.97"/><path class="n" d="M16.03,251.81l-.2,2.87"/><path class="n" d="M15.64,257.17l-.1,2.68"/><path class="n" d="M15.44,262.42l-.3,1.88"/><path class="f" d="M34.65,180.08c3.18-1.45,6.33-2.98,9.43-4.6,2.53-1.32,5.18-2.82,6.53-5.34,1.11-2.05,1.2-4.48,1.26-6.81l.26-9.33c.02-.85,.03-1.77-.47-2.46-.86-1.19-2.72-1.02-4.03-.37-2.78,1.37-4.62,4.2-7.38,5.61-3.7,1.9-8.15,.89-12.17-.16l-9.1-2.38c-1.39-.36-2.83-.73-4.25-.51-2.27,.36-4.11,2.22-4.89,4.38-.79,2.16-.67,4.55-.17,6.8,.75,3.44,2.33,6.64,3.98,9.75,.53,1,1.09,2.02,1.97,2.73,.92,.74,2.08,1.06,3.22,1.37,5.3,1.44,11.2,3.4,15.81,1.3Z"/><path class="f" d="M51.75,165.94c-3.87,6.42-10.34,11.23-17.61,13.07,.38,1.01,1.56,1.54,2.64,1.5s2.09-.52,3.06-1c2.86-1.39,5.76-2.81,8.09-4.97,2.34-2.15,4.07-5.18,3.81-8.61Z"/><path class="f" d="M33.57,179.33c-.42,1.3-1.65,2.22-2.96,2.61-1.31,.39-2.72,.31-4.08,.15-3.36-.39-6.73-1.3-9.52-3.21-2.79-1.91-4.95-4.91-5.3-8.28,4.36,6.85,12.92,10.77,20.95,9.59,.29-.38,.72-.64,.91-.86Z"/><path class="n" d="M49.88,153.26c-3.66,2.33-7.43,4.71-11.67,5.6-6.05,1.27-12.27-.6-18.17-2.46"/><path class="n" d="M37.25,164.42c-.18,2.7,0,5.42,.54,8.06"/><path class="n" d="M38.82,174.16c1.8-.57,3.48-1.51,4.91-2.74"/><path class="n" d="M40.33,175.51c1.85-.88,3.59-1.99,5.18-3.3"/><path class="n" d="M48.96,165.62c.28,1.17,.8,2.28,1.52,3.24"/><path class="n" d="M37.86,176.27c-2.21,1.42-4.7,2.38-7.29,2.8"/><path class="n" d="M36.25,175.88c-1.82,.78-3.71,1.37-5.65,1.78"/><path class="n" d="M34,175.14c-2.51,.94-5.17,1.51-7.84,1.69"/><path class="n" d="M31.8,174.36l-5.75,.1"/><path class="n" d="M22.53,166.31c-.86,1.47-1.86,2.9-3.24,3.89-1.38,.99-3.21,1.48-4.82,.91"/><path class="n" d="M15.58,173.78l.05,2.35"/><path class="n" d="M37.95,160.88c-.43-.54-1.36-.54-1.79,0s-.22,1.45,.4,1.74,1.46-.14,1.58-.82-.51-1.37-.2-.92Z"/><path class="i" d="M37.89,93.07c-.68-2.15,.14-4.48,1.2-6.46s2.42-3.87,2.92-6.06c.55-2.39,.05-4.89-.59-7.26-.62-2.32-1.53-4.81-3.6-6.02-1.5-.88-3.35-.91-5.07-.72-1.24,.14-2.55,.43-3.39,1.35-.76,.83-.97,2.01-1.15,3.12l-1.66,10.16c-.44,2.71-.87,5.56,.1,8.13,1.39,3.68,5.84,5.9,9.61,4.78,.94-.28,1.92-.85,1.62-1.01Z"/><path class="o" d="M52.91,164.1l-3.31-62.08c-.15-2.83-.39-5.89-2.24-8.03-1.33-1.54-3.44-2.56-3.96-4.53-.51-1.91,.46-4.58-1.29-5.5-1.43-.75-3.06,.8-3.53,2.34s-.46,3.33-1.49,4.57c-1.21,1.45-3.48,1.59-5.21,.83-1.73-.76-3.04-2.21-4.29-3.62-1.29-1.44-2.62-3.61-1.42-5.12,.37-.46,.96-.83,.99-1.43,.04-.66-.74-1.13-1.39-1.05s-1.2,.54-1.7,.98c-6.15,5.35-13.66,9.4-16.45,17.06-2.56,7.01-.64,16.37-.45,23.83,.24,9.34-.54,18.7-2.31,27.88-.4,2.06-.82,4.3,.15,6.16,.95,1.81,2.9,2.91,4.83,3.56,11.26,3.8,25.05,11.66,24.92,11.51,.13,.2-1.07-4.41-1.03-8.85-.02,.5-.37-2.61-.39-2.12,.03-.56-.27-2.44-.25-3,.79-.17,2.26,.58,3.73,.35,1.47-.23,2.84-1.01,3.63-1.18-.19,4.97-.11,9.94,.24,14.9,2.65-4.19,7.36-7.01,12.21-7.48Z"/><path class="i" d="M31.58,91.56c2.27,7.12,2.16,42.7,1.47,63.82-.02,.51,.04,2.13,.04,2.13,0,0,1.83,.25,2.48,.3,1.46,.12,2.7-.03,4.88-1.13-1.95-6.56,.12-13.46-.16-20.26-.27-6.55-1.08-12.88-.74-19.43,.26-4.83,.85-9.67,.37-14.48-.38-3.89-1.73-7.56-2.49-11.44,.02,.02-3.65,1.5-5.87,.49Z"/><path class="m" d="M25.27,94.49c.01-1.92,.73-4.23,2.61-4.64,1.33-.29,2.7,.61,3.39,1.79,.69,1.18,.84,2.58,.97,3.94,1.93,21.25,.82,61.83,.85,61.72"/><path class="m" d="M40.36,156.49h.14c-1.68-5.75-.13-11.93-.13-17.92,0-4.37-.84-8.7-1.08-13.07-.32-5.88,.45-11.76,.41-17.65-.03-5.26-.7-10.51-1.99-15.61-.13-.52-.27-1.06-.13-1.58,.34-1.32,2.29-1.57,3.37-.75s1.51,2.23,2.04,3.37l.28-4.25"/><path class="m" d="M25.47,94.46c.33-1.27-.23-2.62-1.01-3.68s-1.79-1.93-2.55-3.01-1.25-2.47-.82-3.71"/><path class="m" d="M48.34,97.96c-.97,2.41-1.25,5.09-.82,7.65"/><path class="m" d="M48.65,122.64c-1.12,2.95-2.41,5.84-3.88,8.64"/><path class="m" d="M49.52,152.02c-2.42,1.57-4.52,3.63-6.14,6.01-.43,.63-.83,1.49-.38,2.12"/><path class="m" d="M49.75,155.96c-2.37,1.54-4.2,3.9-5.09,6.59"/><path class="m" d="M17.66,131.18c.4,3.17,1.71,6.23,3.73,8.71"/><path class="m" d="M17.99,136.87c1,2.74,2.73,5.21,4.96,7.09"/><path class="m" d="M17.13,139.89c.87,4.13,3.37,7.9,6.85,10.3"/><path class="m" d="M20.72,109.19c2.55,.58,5.29,.34,7.7-.68"/><path class="m" d="M24.68,108.07c1.07-.41,2.21-.64,3.35-.67"/><path class="m" d="M18.56,109.64c-.88,1.56-1.39,3.33-1.46,5.12"/><path class="i" d="M24.41,59.97c-.57-1.71-1.08-3.48-1.13-5.29s.39-3.68,1.52-5.09,3.04-2.25,4.8-1.84c3.07-3.13,7.73-4.85,11.98-3.8,4.26,1.05,7.73,5.19,7.42,9.56-.2,2.79-1.8,5.41-1.59,8.2,.3,3.89,3.96,6.72,4.98,10.5,.65,2.41,.14,4.97-.55,7.37-.57,1.99-1.34,4.04-2.92,5.37-2.43,2.05-6,1.83-9.15,1.39-2.39-.33-4.87-.75-6.86-2.11-2.29-1.57-3.65-4.22-4.23-6.94s-.46-5.52-.34-8.29c-.59,.8-1.74,1.05-2.69,.78s-1.75-.95-2.39-1.71c-1.06-1.27-1.78-2.83-2.06-4.46-.22-1.23-.1-2.69,.89-3.46,.96-.75,2.42-.52,3.36,.26,.93,.77,1.43,1.96,1.72,3.14s.42,2.4,.81,3.55"/><path class="n" d="M22.71,48.39c.59-.31,1.31-.37,1.95-.17s1.18,.69,1.42,1.7c-.11-1.42-.61-2.8-1.42-3.96,1.23,.79,1.81,2.46,1.33,3.84"/><path class="n" d="M31.78,50.27c-.99,.49-1.63,1.61-1.56,2.71-.19-.53-.15-1.14,.13-1.63s.76-.86,1.43-1.08Z"/><path class="n" d="M30.88,49.87c-1.03,.64-1.76,1.75-1.94,2.95s.19,2.47,.99,3.38c-.84-.84-1.25-2.09-1.07-3.26s.95-2.24,2.02-3.07Z"/><path class="n" d="M30.8,49.53c-2.64,1.94-3.79,5.69-2.7,8.79-.65-1.07-.8-2.43-.38-3.61-.64,1.8-.67,3.82-.08,5.64-.64-1.66-.84-3.49-.55-5.25-.68,3.17-.23,6.57,1.24,9.46-.98-1.4-1.63-3.03-1.86-4.73"/><path class="n" d="M33.73,52.93c.21-1.4-.66-2.89-2.02-3.72,.79-.19,1.66,.04,2.25,.6s.85,1.43,.69,2.22c.28-.84,.05-1.82-.57-2.45s-1.61-.87-2.45-.59"/><path class="n" d="M44.89,49.14c1.49,.5,2.74,1.68,3.33,3.14s.51,3.18-.22,4.58c.15-1.53,.28-3.11-.12-4.6s-1.43-2.9-2.99-3.12Z"/><path class="n" d="M48.64,52.6c-.28-2.07-1.81-3.92-4.02-4.64,.79-.54,1.94-.13,2.54,.62s.78,1.74,1.48,4.02Z"/><path class="n" d="M44.62,47.33c.34-.54,1.19-.54,1.71-.16s.79,1-1.71,.16Z"/><path class="n" d="M47.1,48.62c.85,.81,1.36,1.96,1.4,3.13l-.24-.25"/><path class="n" d="M31.28,48.2c3.51-2.9,8.69-3.61,12.85-1.76"/><path class="n" d="M44.07,47.28c-1.84-1.05-4.02-1.5-6.13-1.26s-4.13,1.17-5.15,2.81c2.51-1.52,5.42-2.38,8.36-2.47,.72-.02,1.46,0,2.13,.27s1.22,.89,.8,.65Z"/><path class="n" d="M34.38,49.68c3.02-1.61,6.6-2.14,9.95-1.46"/><path class="n" d="M43.95,48.83c-2.75-.38-5.58-.22-7.9,.85,2.23,.24,4.51,.06,7.9-.85Z"/><path class="n" d="M36.33,50.08c2.08,.13,4.18-.05,6.21-.52"/><path class="n" d="M37.36,50.33c1.71,.23,3.46,.15,5.14-.21"/><path class="n" d="M38.2,50.65c1.98,.55,4.21,.02,5.74-1.34"/><path class="n" d="M41.18,50.66c1.07-.42,2.07-1.03,2.93-1.79"/><path class="n" d="M43.41,49.6c-1.22,1.05-2.84,1.64-4.46,1.61-1.61-.03-3.21-.67-4.4-1.77"/><path class="n" d="M36.24,50.11c2.1,.79,4.47,.84,6.6,.12"/><path class="n" d="M43.24,49c-3.43,1.16-7.24,1.13-10.65-.07"/><path class="n" d="M35.68,49.47c2.83,.27,5.71-.07,8.4-.98"/><path class="n" d="M37.12,49.73c2.37-.27,4.71-.83,7.53-.9,.76-.21,1.58-.21,2.35,0"/><path class="n" d="M45.55,48.81l.74-.04"/><path class="n" d="M31.27,49.15c-.86-.18-1.64,.49-2.26,1.11-.72,.72-1.45,1.46-1.91,2.37-.46,.91-.59,2.04-.1,2.93"/><path class="n" d="M26.04,56.96c-.6-1.48-.57-3.21,.08-4.67s1.92-2.63,2.64-3.43c-1.81,.5-3.36,1.88-4.06,3.63s-.53,3.82,1.34,4.46Z"/><path class="n" d="M27.14,49.18c-.52-.2-1.13,.01-1.55,.38s-.68,.88-.92,1.39c-.47,.98-.91,1.98-1.09,3.05s-.11,2.21,.4,3.16"/><path class="n" d="M26.21,49.59c-1.15,.17-1.82,1.4-2.12,2.53-.69,2.6-.38,5.46,.88,7.85"/><path class="n" d="M24.78,54.49c-.14,1.99,.24,4.02,1.76,6.05-.85-2.35-.94-4.98-1.76-6.05Z"/><path class="n" d="M28.5,50.88c-2,2.86-2.51,6.7-1.56,10.44-1.9-3.9-1.15-8.94,1.56-10.44Z"/><path class="n" d="M25.96,60.95c-.86-1.42-1.28-3.12-1.16-4.78s.76-3.28,1.81-4.57"/><path class="n" d="M28.24,50.46l-2.19,2.95"/><path class="n" d="M30.18,48.95c-1.79,.72-3.24,2.25-3.85,4.08"/><path class="n" d="M24.96,55.08c.37-1.83,1.19-3.57,1.88-4.54-1.2,1.32-1.74,3.22-1.88,4.54Z"/><path class="n" d="M25.86,51.02c-.89,1.54-.95,3.53-.16,5.12"/><path class="n" d="M33.21,47.89c1.09-.62,2.23-1.14,3.41-1.56"/><path class="n" d="M32.07,48.27l2.02-1.1"/><path class="n" d="M30.65,48.53c.91-1.12,2.13-1.98,3.48-2.47"/><path class="n" d="M39.11,45.72c-1.94,.06-3.87,.57-5.1,2.26,1.66-.46,3.35-.81,5.1-2.26Z"/><path class="n" d="M36.12,48.69l3.16-.13"/><path class="n" d="M37.22,49.62l3.29-.3"/><path class="n" d="M25.46,60.08c-1.21-1.87-1.58-4.27-.97-6.41s2.18-3.99,4.19-4.95"/><path class="n" d="M24.81,51.29c.88-1.31,2.18-2.33,3.65-2.88,.43-.16,.91-.27,1.32-.09"/><path class="n" d="M30.36,48.61c-1.1-.49-2.51-.15-3.4,1.4,1.12-.66,2.43-1,3.4-1.4Z"/><path class="n" d="M34.3,46.94c-.82,.51-1.64,1.02-2.04,1.92,1.03-.81,2.19-1.47,2.04-1.92Z"/><path class="n" d="M37.57,46.42c-1.46,.62-2.88,1.33-3.54,2.39,1.28-.75,2.62-1.41,3.54-2.39Z"/><path class="n" d="M34.52,48.97l2.92-1.81"/><path class="n" d="M36.54,46.26c-1.55,.44-2.97,1.33-4.7,1.88,1.08-1.18,2.53-2.02,4.7-1.88Z"/><path class="n" d="M35.43,45.53c-1.35,.43-2.61,1.15-4.08,1.97,1.32-1,2.76-1.83,4.08-1.97Z"/><path class="n" d="M33.29,45.89c1.63-1.06,3.57-1.65,5.52-1.68"/><path class="n" d="M35.94,46.39c1.58-.49,3.3-.52,4.91-.11"/><path class="v" d="M36.3,56.56s-.22-.04-.26-.05c-.28-.02-.54,.35-.58,.5-.05,.2,.05,.48,.27,.68,.4,.16,.7,.22,.81-.17,.06-.22,.21-.58,.04-.73-.14-.13-.21-.22-.29-.23Z"/><path class="v" d="M44.89,55.89c-.24-.14-.65,.06-.77,.23s-.1,.49,.03,.75c.27,.35,.91,.27,1.09-.14s-.19-.75-.35-.84Z"/><path class="k" d="M42.87,54.36c-.02-.29,.18-.58,.44-.72s.57-.16,.86-.14c.92,.07,1.77,.56,2.47,1.15-1.24-.17-2.47-.34-3.77-.3Z"/><path class="k" d="M38.41,54.46v-.43c-.52-.2-1.11-.03-1.64,.17-1.25,.48-2.42,1.18-3.43,2.05,1.79-.6,3.55-1.28,5.07-1.79Z"/><path class="n" d="M42.09,56.48c-.32-.21-.78,0-.97,.32s-.21,.73-.21,1.11l-.09,7.82c0,.59,.03,1.27,.51,1.62,.26,.19,.61,.23,.92,.18s.62-.18,.91-.31l2.05-.89c.14-.06,.3-.14,.35-.29,.04-.12,0-.24-.03-.36-1-3.18-2.01-6.37-3.44-9.21Z"/><path class="n" d="M37,60.79l-1.47,2.58"/><path class="n" d="M35.95,60.93c-.53,.79-1.04,1.6-1.51,2.43"/><path class="n" d="M34.92,61.07c-.4,.56-.78,1.15-1.12,1.75"/><path class="n" d="M45.27,59.45l-.69,.92"/><path class="n" d="M45.83,59.84c-.31,.32-.56,.69-.73,1.1"/><path class="n" d="M49.05,70.4c-3.09,2.12-7.31,2.46-10.69,.87"/><path class="n" d="M43.84,78.84c.14-.48,.56-.88,1.04-1s1.04,.03,1.39,.39"/><path class="n" d="M46.75,76.4l.34,1.12"/><path class="n" d="M47.9,76.45l.2,1.18"/><path class="n" d="M47.73,74.49l.31,1.4"/><path class="n" d="M48.65,73.82l.56,1.15"/><path class="n" d="M48.04,72.5l.06,1.15"/><path class="n" d="M48.48,71.72l.5,1.12"/><path class="n" d="M49.44,71.08l.67,.9"/><path class="n" d="M49.8,70.32l.7,.7"/><path class="n" d="M50,69.17l.84,.89"/><path class="n" d="M50.84,71.49l.28,1.79"/><path class="n" d="M49.72,73.12l.59,1.18"/><path class="n" d="M50.75,74.88l.2,1.48"/><path class="n" d="M49.69,75.78l.03,1.32"/><path class="n" d="M49.69,77.82v1.29"/><path class="n" d="M50.84,77.26l-.03,1.18"/><path class="n" d="M50.64,79.76l-.03,1.29"/><path class="n" d="M50.16,80.46l-.25,1.57"/><path class="n" d="M48.51,79.45l.06,1.23"/><path class="n" d="M48.68,81.8l-.06,1.23"/><path class="n" d="M48.37,83.9l-.08,.64"/><path class="n" d="M47.9,81.8l.03,1.2"/><path class="n" d="M47.22,84.04l-.11,.98"/><path class="n" d="M46.44,83.12l-.08,.95"/><path class="n" d="M45.6,84.57l-.28,.92"/><path class="n" d="M46.94,80.06l.06,1.18"/><path class="n" d="M45.8,80.29l.03,1.09"/><path class="n" d="M47.42,78.22l.06,1.01"/><path class="n" d="M45.01,75.44l.2,1.09"/><path class="n" d="M46.1,74.04l.36,1.04"/><path class="n" d="M46.66,73.06l.36,1.04"/><path class="n" d="M45,73.29l-.12,1.26"/><path class="n" d="M43.67,73.04c.02,.39,.04,.78,.56,1.43l.06,1.23"/><path class="n" d="M42.6,73.37l-.06,1.26"/><path class="n" d="M42.83,75.19c.04,.5,.16,1,.36,1.47"/><path class="n" d="M41.8,75.25l-.02,1.32"/><path class="n" d="M42.01,77.4l.2,1.12"/><path class="n" d="M42.82,78.78l.42,1.65"/><path class="n" d="M44.56,79.9c-.07,.45-.05,.91,.06,1.34"/><path class="n" d="M44.96,82.02l-.08,1.32"/><path class="n" d="M43.72,83.09l-.11,1.46"/><path class="n" d="M42.43,82.39l-.08,.9"/><path class="n" d="M42.27,80.65l.42,1.37"/><path class="n" d="M41.48,79.17l.14,1.43"/><path class="n" d="M40.61,77.99l.08,1.4"/><path class="n" d="M39.94,75.81l.06,1.37"/><path class="n" d="M40.87,73.43l-.14,1.4"/><path class="n" d="M39.8,73.04l-.36,1.65"/><path class="n" d="M38.57,73.01l-.08,1.06"/><path class="n" d="M37.77,74.43l-.13,1.48"/><path class="n" d="M38.91,75.05l-.2,1.6"/><path class="n" d="M40.92,81.94l.05,1.79"/><path class="n" d="M41.59,83.31l-.06,1.6"/><path class="n" d="M39.57,82.36l.02,1.29"/><path class="n" d="M40,79.87l.06,1.18"/><path class="n" d="M38.29,79.73l-.06,1.26"/><path class="n" d="M38.68,78.08v1.32"/><path class="n" d="M37.34,77.46v1.26"/><path class="n" d="M36.41,75.67l.08,1.18"/><path class="n" d="M36.13,74.44l-.06,.92"/><path class="n" d="M36.4,72.81l.25,1.09"/><path class="n" d="M37.41,71.44v1.09"/><path class="n" d="M35.55,72.67l.03,.98"/><path class="n" d="M34.58,73.48c.03,.41,.06,.82,.58,1.71l.11,1.46"/><path class="n" d="M36.04,77.49v1.54"/><path class="n" d="M36.67,79.53l.11,1.26"/><path class="n" d="M37.31,81.58l.03,1.09"/><path class="n" d="M38.04,82.36l.08,1.51"/><path class="n" d="M37.03,84.07v.98"/><path class="n" d="M35.24,83.79l-.03,.73"/><path class="n" d="M35.62,82.19l.22,1.18"/><path class="n" d="M34.14,81.86l.02,1.18"/><path class="n" d="M35.1,80.2l.08,.98"/><path class="n" d="M34.48,78.94l-.03,1.29"/><path class="n" d="M34.48,77.49l.03,.84"/><path class="n" d="M33.14,74.83l.5,1.18"/><path class="n" d="M33,76.73l-.08,1.29"/><path class="n" d="M32.77,79.22l.08,.84"/><path class="n" d="M33.11,81.32l-.14,.95"/><path class="n" d="M31.87,81.1l-.09,1.12"/><path class="n" d="M31.96,78.89v1.01"/><path class="n" d="M30.65,78.97l.11,.98"/><path class="n" d="M31.85,76.17l-.03,1.04"/><path class="n" d="M31.63,74.6v1.04"/><path class="n" d="M30.17,74.41l.25,1.15"/><path class="n" d="M31.45,72.48l.16,1.12"/><path class="n" d="M32.69,72.84l-.06,1.26"/><path class="n" d="M33.92,71.47l-.08,1.34"/><path class="n" d="M32.33,70.88l.2,.95"/><path class="n" d="M32.77,70.1l.34,1.01"/><path class="n" d="M31.32,69.17l.11,1.12"/><path class="n" d="M30.48,68.28l.08,.95"/><path class="n" d="M30.03,69.9l.11,.9"/><path class="n" d="M28.21,69.62l1.57-1.57"/><path class="n" d="M28.35,70.8l1.01-1.09"/><path class="n" d="M28.27,71.94l1.01-1.12"/><path class="n" d="M28.35,72.98l1.23-1.4"/><path class="n" d="M28.35,74.13l1.4-1.48"/><path class="n" d="M28.43,75.53l1.26-1.4"/><path class="n" d="M28.49,76.79l1.43-1.48"/><path class="n" d="M28.88,77.96l1.32-1.29"/><path class="n" d="M29.33,79.17l1.15-1.29"/><path class="n" d="M29.89,80.34l.95-1.12"/><path class="n" d="M37.42,69.79l-.06,.92"/><path class="n" d="M38.74,68.72l-.11,1.26"/><path class="n" d="M40.19,68.25l-.28,1.37"/><path class="n" d="M41.17,68.7l-.28,1.32"/><path class="n" d="M42.49,68.98l.08,1.43"/><path class="n" d="M43.86,68.89l.31,1.32"/><path class="n" d="M45,68.5l.33,1.37"/><path class="n" d="M46.13,68.42l.36,1.23"/><path class="n" d="M47.03,68.28l.84,.98"/><path class="n" d="M47.95,67.88l.59,.98"/><path class="n" d="M26.9,66.66c-.56-.4-.69-1.16-.74-1.84s-.11-1.43-.59-1.92c-.54-.55-1.52-.53-2.1-.02s-.77,1.39-.53,2.12"/><path class="n" d="M26.15,65.45c-.33,.16-.71-.04-1.01-.25s-.66-.44-1-.31c-.35,.13-.47,.61-.29,.93s.58,.48,.95,.44c.25-.02,.53-.11,.75,.01,.27,.16,.29,.54,.61-.83Z"/><path class="n" d="M26.82,58.87c.74,1.21,1.5,2.45,1.77,3.84"/><path class="n" d="M26.89,57.39c.76,1.02,1.42,2.12,1.98,3.27"/><path class="n" d="M29.61,58.19c-1.08-1.68-1.36-3.85-.96-5.99-.98,1.85-.92,4.22,.96,5.99Z"/><path class="n" d="M29.74,51.12c-.34,1.51-.15,3.14,.54,4.53"/><path class="n" d="M31.28,49.83c-.44,1.3-.36,2.76,.2,4"/><path class="n" d="M32.38,49.84c.97,.31,1.86,.83,2.61,1.51"/><path class="n" d="M45.35,50.38l1.37,.56"/><path class="h" d="M7.51,171.71c-.64-.62-1.77-.45-2.43,.15s-.97,1.49-1.21,2.36c-.44,1.57-.74,3.18-1.03,4.78l-.82,4.39c-.45-.11-.51-.72-.51-1.18s-.21-1.08-.67-1.03c-.34,.04-.51,.42-.56,.75-.23,1.41,.55,2.92,1.83,3.56,.64,.63,1.76,.68,2.46,.11-.03,.63,.47,1.25,1.09,1.35s1.29-.32,1.47-.93c-.09,.46,.48,.83,.94,.73s.8-.48,1.1-.85c1.17-1.41,2.36-2.85,3.03-4.55,1.09-2.82,.61-5.98,.1-8.96-.1-.59-.21-1.21-.61-1.65-.39-.43-.98-.62-1.56-.69-1.75-.23-3.6,.44-2.62,1.65Z"/><path class="h" d="M2.01,183.33c-.08,.32,.04,.68,.29,.9"/><path class="h" d="M1.54,183.06c-.26,.03-.47,.26-.47,.52"/><path class="h" d="M1.86,185.3c.27,.13,.6,.06,.84-.1s.43-.4,.61-.64c.75-.98,1.51-1.98,1.9-3.15"/><path class="h" d="M5.74,180.52c.2-.31,.33-.66,.39-1.03"/><path class="h" d="M8.06,181.06c.22-.34,.34-.74,.33-1.14"/><path class="h" d="M10.02,181.31c.31-.28,.49-.7,.49-1.12"/><path class="h" d="M8.95,182.69l.25-.56"/><path class="h" d="M6.88,182.24l.35-.54"/><path class="h" d="M4.68,185.61c.7-.8,1.27-1.7,1.7-2.67"/><path class="h" d="M6.99,186.32c.59-.59,1.04-1.32,1.33-2.1"/><path class="j" d="M12.6,173.19l.85-24.78c.1-3.01,0-6.49-2.37-8.35-1.67-1.31-4.12-1.36-6.02-.41-1.9,.95-3.26,2.77-4.01,4.76s-.93,4.14-.93,6.26c0,7.83,2.43,15.51,2.11,23.4,1.61,1.07,3.59,1.57,5.52,1.39s3.78-1.04,4.84-2.27Z"/><path class="p" d="M2.27,143.49c-.81-1.64-.14-3.77,1.28-4.94,1.42-1.17,3.39-1.48,5.21-1.2,1.36,.21,2.72,.76,3.62,1.8s1.27,2.61,.63,3.84c-.92-2.04-3.32-3.19-5.54-2.97-2.23,.22-4.22,1.65-5.2,3.46Z"/><path class="j" d="M1.95,145.43c.19,2.09,1.97,3.92,4.05,4.17"/><path class="j" d="M3.65,144.26c.03,1.12,.64,2.2,1.59,2.8,.95,.59,2.2,.67,3.21,.21"/><path class="l" d="M2.24,170.08c3.67,1.3,8.09,.08,10.57-2.91"/><path class="l" d="M4.17,170.61c-.89,1.25-.94,3.03-.13,4.33"/><path class="l" d="M7,170.3c-.74,1.49-.76,3.32-.04,4.82"/><path class="l" d="M9.75,169.51c-.65,1.59-.51,3.48,.37,4.96"/><path class="j" d="M13.31,143.71c2.7-10.5,3.79-21.4,3.23-32.23-.25-4.77-.88-9.71-3.49-13.71-.67-1.03-1.64-2.06-2.87-2.02-1.56,.05-2.48,1.74-3,3.22-2.74,7.8-3.44,16.14-4.12,24.37l-1.27,15.34c-.16,1.9-.3,3.9,.45,5.65,.98,2.31,3.57,3.83,6.06,3.57,2.5-.26,4.52-2.33,5-4.19Z"/><path class="j" d="M2.86,139.6c-.24,1.43,.32,2.97,1.44,3.91,1.11,.93,2.73,1.22,4.1,.72"/><path class="j" d="M4.29,140.73c.5,.82,1.03,1.68,1.85,2.2s2.01,.58,2.67-.12"/><path class="p" d="M12.26,144.03c-.05,1.07-.77,2.03-1.69,2.57s-2.03,.69-3.1,.63c-1.22-.06-2.45-.4-3.42-1.14s-2.17-2.44-2.09-3.66c-.62,.92,.19,2.67,.65,3.68,.47,1.03,1.13,2,2.05,2.67,1.71,1.26,4.24,1.25,5.94-.02,1.7-1.27,3.13-3.77,2.42-5.77-.01,.52-.72,1.12-.76,1.04Z"/><path class="v" d="M24.24,59.95c-.57-1.71-1.08-3.48-1.13-5.29-.05-1.81,.39-3.68,1.52-5.09s3.04-2.25,4.8-1.84c3.07-3.13,7.73-4.85,11.98-3.8,4.26,1.05,7.73,5.19,7.42,9.56-.2,2.79-.94,5.11-1.39,5.38,1.41-8.6-1.46-8.24-2.1-9-5.81,4.22-12.07-.37-13.57,.41-1.5,.77-5.71,5.57-5.18,11.67-.74-2.03-2.36-2-2.36-2Z"/><g><path class="f" d="M170.16,138.56l-.05-.05c0-.25-.12-.39-.39-.35l-.88-.65c-1.82-1.86-3.51-3.87-5.73-5.31-1.01-1.71-2.31-3.06-4.33-3.53l-.42,.33-.48,.39c-1.1-.36-.38-.88-.15-1.41,3.36-7.62,2.72-15.37,.55-23.1-1.45-5.19-4.74-9.5-7.26-14.19-2.26-4.21-5.56-6.93-10.28-7.87-1.2-.86-2.55-.17-3.81-.38-1.17-.89-1.26-2.63-2.66-3.33-.02-.16-.09-.28-.22-.37l-.29-.59c.04-.17-.03-.27-.19-.3-1.4-1.53-2.79-3.08-5.15-2.9l-.05-1.57,.03-.91c1.02-2.02,3.06-2.86,4.78-4.04,.98-.67,1.01-1.3,.43-2.16,.58-.67,.96,.08,1.4,.23,4.09,1.45,7.95,1.25,11.46-1.55,4.26-2.95,4.9-3.32,2.29-7.57-.21-1.88-1.94-3.03-2.29-4.84,1.1-.54,2.22-1.06,3.3-1.64,.33-.18,.59-.56,.39-.98-.07-.15-.47-.33-.53-.28-1.05,.97-3.27,.72-3.1,2.95-1.69-.66-3.08-1.68-3.91-3.35,1.99-.79,2.79-2.4,3.3-4.56-1.15,.72-2.37,2.48-3.32,4.54-.98,.8-1.86-.11-2.76-.23-3.79-.49-9.24,2.26-10.45,5.43-1.52,1.05-2.87,2.26-4.11,3.64-.64,.71-1.06,1.38-.05,1.86,2.95,1.4,4.9,4.14,7.78,5.61-.79,.43-1.86-.28-2.53,.58-1.29,1.68-3.21,2.85-3.98,4.94-.45,.18-.5,.54-.44,.96-.36,.76-.85,1.48-.86,2.37l-.11,.57-.53-.09c0-.48,.22-1-.23-1.42-1.17-.78-2.34-.21-3.52,0l-.98,.11c-.38-.1-.58,.15-.78,.4l-.77,.39-.13-.07-.08,.14-.62,.19-.46,.25c-3.7,1.01-6.46,3.56-9.49,5.7h-.52c-.15-.51-.37-1.02-.43-1.54-.62-6.42-2.52-12.19-8.03-16.19-.41-.3-1.36-.29-.97-1.25,2.26-.44,2.34-3.17,4.21-4.01l-.91-1c.02-.12,.03-.24,.05-.35-.35-.34-.6-.72-.52-1.25,1.44-.81,3.66,.32,4.67-1.83-1.33-.32-2.45,.31-3.62,.3-1.27-.02-1.01,.85-1,1.59-1.68-.98-2.48-2.55-2.93-4.36,1.36-.4,2.84-.64,3.15-2.42-1.02,.85-2.74,.78-3.15,2.43-.24,.36-.49,.26-.73,0-3.97-4.5-10.37-4.26-15.06,.14-2.8,2.63-3.55,6.13-3.86,9.78-.1,.11-.29,.25-.27,.34,.21,1.27,1.55,1.07,2.28,1.7,4.14,3.56,8.73,4.4,13.73,1.87,.82-.41,1.68-.71,2.33,0,2.15,2.34,4.93,4.16,5.96,7.43,1.32,4.22,2.35,8.49,2.86,12.88l-.53,.02c-.35-1.69-1.24-.76-1.78-.26-1.3,1.2-2.64,2.41-3.7,3.81-1.71,2.26-3.8,4.34-4.19,7.36-.52,.4-.52,.92-.34,1.48v.87c-.03,.05-.1,.11-.09,.15,.03,.11,.09,.2,.14,.3,.12,.25,.23,.5,.35,.76v-.05c-1.98,.65-3.81,1.52-4.76,3.56l-.42,.52c-.63,.71-1.21,1.44-1.36,2.42v.04c-.36,.39-.64,.8-.47,1.36-.16,2.83-.4,5.66,.57,8.44,.52-.87,.95-1.75,.93-2.63-.03-1.47,1.97,.05,1.96-1.46,0-.25-.19-3.72,2.08-1.07,.33,.38,.92-.21,1-.66,.36-2.15,1.35-1.48,2.41-.58,.42,.56,1.04,.22,1.56,.36-.04,.31,.16,.4,.41,.43,1.36,.87,1.09,1.63-.29,1.95-.65,.15-.67,.41-.8,.87-1.33,4.62-1.36,4.63-6.06,4.35-.08,0-.18,.18-.39,.4,2.36,2.39,5.28,2.73,8.41,2.37,1.92-.4,3.85-.76,5.27-2.3,2.33-1.95,5.37-3.46,4.42-7.4-.08-.34,.5-.14,.76-.21,.25,2.48,1.79,2.59,3.82,2.28,2.32-.36,4.54-1.15,6.88-1.68,.1,1.12-.94,1.42-.74,2.21l-.23,.48-.22,1.48c-.8-.03-1.47,.12-1.46,1.13l-.02,.02c-.92,.24-.92,.94-.85,1.68l-.04,.53-.31,1.33-.15,1.56c-.37,2.17-.74,4.35-.03,6.52l.19,1.94,.3,1.83,.14,6.24c-.1,.65,.01,1.27,.33,1.84l.17,3.38c-.07,.13-.12,.27-.17,.42-.1,.84-.31,1.68,.33,2.42l.19,.47v1.4c-1.14,.94,.29,1.93-.06,2.88l-.45,1.52-.34,.82-.14,1.54-.33,.83-.17,.98-.31,.92-.12,1.47c-.31,1.07-.49,2.15-.34,3.27-.18,.66-.19,1.31,.02,1.97,.09,1.87,.19,3.74,.28,5.61l.04,1,.02,1.01c-.08,.52-.15,1.03,.14,1.52-.25,.63-.02,1.2,.25,1.76l.07,.94,.17,1.93,.24,.92,.09,2.37c-.07,.51-.14,1.01,.19,1.47l.19,.92,.05,.46,.12,1.44,.33,.88,.1,.53,.22,.55,.14,.38,.08,.5c-.11,.52,.12,.94,.41,1.35-.11,.88-.02,1.72,.55,2.44l1.08,2.88,.23,.45c-.04,1.12,.49,2,1.15,2.83l.29,.45,.36,.6-.02,.18,.15,.11c-.04,.97,.6,1.53,1.27,2.06v.18l.17,.07,.08,.13,.36,.53,.26,.44,.44,.4c.52,.56,.65,1.52,1.64,1.6,.23,.68,1.19,.95,1,1.86-.8,.12-1.15-.72-1.82-.9-.46,.63-.42,1.36-.52,2.06-1.03,6.88-.66,13.88-1.82,20.75-.32,1.91-.27,3.92,.09,5.9,1.34,7.36,2.64,14.73,3.89,22.11,.49,2.88,.3,5.51-2.35,7.59-1.5,1.17-2.44,3.02-4.16,4.04-.44,.26-.62,.79-.34,1.24,.31,.49,.69,0,1.01-.1,2-.69,4-1.39,5.97-2.14,.85-.32,1.64-.83,1.94,.61,.14,.68,.64,1.14,1.37,.91,.7-.22,.53-.9,.48-1.43-.15-1.81-.69-3.61-.4-5.43,.99-6.17,.11-12.28-.37-18.41-.36-4.63-1.34-9.23-.53-13.92,.97-5.58,1.25-11.28,2.86-16.74,.51-1.73,.13-2.55-1.49-3l.49-.4,1.87,.5,.38,.15,.55,.21,1.02,.1,.82,.25,1.1,.22c.59,.11,1.18,.22,1.78,.34l1.45,.11h.95l.95-.08,.55-.18,.44-.14,1.39-.06,.96-.09,.84-.37c.42,0,.95,.2,1.03-.5l.26-.39,.24-.96,.17-.44c.41-.8,.32-1.66,.27-2.51l.32-1.31,.22-.49c.54,.35,.26,.95,.43,1.41-.39,3.92-.71,7.84-1.17,11.75-1.01,8.58-1.03,17.16-.38,25.76,.41,5.43,1.56,10.77,1.65,16.24,.04,2.41-.98,4.02-2.7,5.42-1.82,1.47-3.35,3.3-5.55,4.28-.64,.28-1.36,.9-1.07,1.6,.32,.78,1.27,.42,1.92,.31,1.55-.27,3.06-.71,4.65-.8,2.27-.13,4.03-.9,3.72-3.72-.04-.4-.05-.97,.76-.93,.03,.55,.04,1.09,.08,1.64,.06,.83-.08,2.14,.89,2.11,1.23-.04,1.09-1.44,.92-2.3-1.05-5.09,.11-10.02,.89-15,.68-4.36,1.36-8.76-.31-13.09-1.53-3.98-1.04-7.81,.71-11.65,2.61-5.71,4.71-11.62,5.98-17.79,.49,.35,.1,1.21,.83,1.42,1.44,.24,2.54-.38,3.49-1.38l.14,.05,.07-.14,.12-.04c1.35-.44,2.57-1.08,3.42-2.27,.17,.04,.3-.01,.4-.15,2.66-2.2,5.42-4.31,7.01-7.51l.08-.08c2.6-3.51,4.17-7.43,4.78-11.75h0l.27-.91,.19-1.06,.27-.84,.19-1.48,.31-1.85c.31-.95,.29-1.92,.17-2.89,.34-.79,.23-1.58-.01-2.37,.14-2.07,.14-4.13-.14-6.19,.08-.64,.02-1.26-.3-1.84l-.15-1.47-.33-1.37-.14-1-.31-.97c-.03-.81,.14-1.64-.31-2.39l-.17-.44-.15-.94-.39-.8-.02-.12c.02-1.05-.35-1.99-.88-2.87l-.16-.96c-.42-.94-.85-1.88-1.27-2.82,.01-.43-.03-.85-.44-1.12l.07-.1-.14-.06-.31-.7,.02-.19-.18-.1-.43-.88v.08l-.05-.03,.04-.14-.12-.08-.4-.83-.23-.66-.23-.34-.44-.82v.07l-.03-.03-.03-.18-.17-.06-.29-.33-.06-.14-.36-.54-.21-.45-.3-.34-.79-1.12,.04-.14h-.15l-.46-.38c.04-.16-.01-.28-.15-.37-.29-1.09-1.4-1.51-1.94-2.38,.04-.27-.1-.38-.35-.39Zm-20.51-81.96c1.64-.04,3.37,.61,5.39-.82-2.27-.46-3.93-.65-5.39,.82Zm-17.55-12.22c.36,2.13,.61,3.62,1.96,5.11,.27-2.05-.14-3.44-1.96-5.11Zm-4.09,8.59l-2.84-3.65c.1,1.86,.78,3.3,2.84,3.65Zm10.68-9.57c-.26,1.34-.94,2.48-.58,3.82,.01,.05,.51,.08,.6-.03,.91-1.05,.69-2.3,.56-3.53,0-.04-.13-.06-.58-.25Zm-10.53,3.59c.42,1.71,1.08,2.81,2.29,3.57-.24-1.36-.43-2.76-2.29-3.57Zm-52.38,2.25c.28,1.74,1.89,1.84,2.56,2.84,.06,.09,.48,.08,.59-.03,.24-.24,.23-.62-.07-.8-.97-.58-1.58-1.7-3.09-2.01Zm5.73-3.76l-.57,.33c.39,.78,.75,1.56,1.17,2.32,.19,.34,.56,.71,.92,.46,.47-.31,.32-.8,0-1.21-.51-.63-1.01-1.27-1.52-1.9Z"/><path class="ak" d="M143.11,210.99l-.95,.08c-.04-.31-.08-.68-.48-.68-.4,0-.43,.37-.47,.68l-1.45-.11c-.52-.49-1.17-.29-1.78-.34-.37-.07-.73-.15-1.1-.22-.27-.08-.55-.16-.82-.25l-1.02-.1c-.19-2.2-1.36-2.13-2.88-1.23-.78-.23-1.4-1.17-2.38-.55l.05,.04c.2-.85-.07-1.25-.98-1l.04,.04c.38-1.05-.43-.9-1-1l.04,.09c.19-.9-.77-1.18-1-1.86-.62-2.15-1.66-4.12-2.82-6.01-.4-.65-1.11-.82-1.86-.69-.09-.04-.19-.06-.3-.06-.66-.83-1.19-1.72-1.15-2.83l-.23-.45-1.08-2.88c1.42-1.61,.7-4.31-1.41-5.22l-.1-.53-.33-.88-.12-1.44c.3-.04,.67-.06,.7-.44,.04-.39-.32-.46-.62-.51l-.32-.43c-.33-.46-.26-.96-.19-1.47,1.8-.7,1.81-1.33,.03-2.85l-.36-.45-.17-1.93c1.26-.6,1.27-1.23,.05-1.9l-.38-.8c-.29-.48-.21-1-.14-1.52l.68-.52-.71-.49-.04-1,.12-3.74c.85-.17,.74-.84,.82-1.46,.92-7.42,2-14.81,5.36-21.64,.85-1.73,1.92-3.39,2.21-5.36l1.93,.36,3.3,.68c.01,.36,.12,.66,.48,.83v2.85c0,1.19-1.61,2.75,.78,3.39l-.33,1.36c-.31,.04-.69,.06-.72,.44-.03,.41,.34,.45,.65,.51-.18,1.27-.37,2.54-.55,3.81l-.24,.65-.08,2.17c-.44,1.49-1.07,2.96-1.28,4.48-.54,4.03-1.38,8.12,1.2,11.85,1.22,1.76,2.81,2.67,4.98,2.24,1.99-.4,1.79-2.47,2.67-3.71,.41-.58-.14-1.15-.92-1.2,0-.13,0-.26-.02-.39,.05-.79,.09-1.57,.14-2.36,.27-.49,.49-1.04-.26-1.26-.58-.17-.74,.33-.82,.81-.62,1.01-1.73,1.33-2.54,.83-.92-.57-.7-1.75-.28-2.72,1.1-.74,2.35-1.46,.17-2.43l.35-1.84c.93-.25,1.03-.59,.11-1.03l.49-4.67c2.03-.39,1.19-2.23,1.72-3.38,2.02-4.39,.56-10.93,7.54-12.28,.62,.51,.42,1.17,.35,1.81-.77,.35-.8,.72-.03,1.11-.29,3.77-.58,7.54-.87,11.31-.93,.28-.94,.63-.07,1.03l-1.34,8.94c-1.14,.41-1.07,.92-.12,1.5l-.33,1.82c-.77,.07-1.09,.64-1.14,1.28-.06,.65,.57,.6,1.01,.68l-.74,5.15c-.63,1.04-.27,2.24-.55,3.34-.3,.05-.66,.09-.67,.47,0,.39,.36,.43,.66,.48,.18,3.83-.49,7.8,1.8,11.3-.32,.16-.81,.32-.44,.76,.22,.27,.51-.03,.67-.29l.92,.37-.04-.05c.85,2.73,3,2.25,5.03,2.04,1.17,.07,1.28,0,1.22-.82l-.02-1.95-.05,.07c1.74-1.21,1.78-1.32,.45-2.4-.53-.43,.08-.63,.06-.94,.63-.35,.89-.91,.58-1.55-.31-.63-.98-.4-1.48-.33-2.23,.35-3.17-1.06-3.9-2.78l-.3-.56c-.21-.96-.2-1.92,.05-2.88l.23-.57c.09-1.08,.17-2.15,.26-3.23l.17-.74c.28-1.32-.23-2.75,.6-3.98,.42-.04,.99,.12,1.17-.36,.23-.63-.34-.86-.8-1.1l.24-1.39c.68-.17,1-.43,.26-.98l1.17-4.74,.29-.51c.66-4.35,2.55-8.41,3.06-12.79l.16-.78,.3-3.02,.19-.76,.3-3.06c.6-1.34,.15-2.75,.28-4.12l1.45-1c.71-.4,1.64-.52,1.9-1.5l-.03,.03c.64-.03,.99-.34,.99-1.01l-.08,.06c.62,.17,1-.37,1.52-.5l.43-.57h.03l.48-.38,.42-.33c2.02,.46,3.32,1.81,4.33,3.53l-.07,1.6c-.14-.07-.29-.13-.42-.21-1.39-.9-2.75-2.11-4.16,.01-1.15,1.73-.97,3.79,.78,5.02,4.13,2.91,7.14,6.77,9.76,11,.78,1.26,1.65,2.47,2.54,3.66,.3,.4,.63,1.11,1.28,.73,.56-.33,.31-1.02,.16-1.52-.52-1.72-.86-3.49-1.68-5.13-1.42-2.87-2.71-5.8-4.06-8.7,.28-.73,.81-1.12,1.59-1.15l.88,.65,.39,.35,.05,.05,.35,.39c.55,.88,1.66,1.29,1.94,2.38-.94,.2-.99,.76-.56,1.71l.71-1.34c.15,.12,.3,.25,.46,.37l.11,.15,.79,1.12c.04,.16,.14,.28,.3,.34l.21,.45,.36,.54,.06,.14c.06,.14,.16,.25,.29,.33l.17,.06,.03,.18,.03-.04,.44,.82c.03,.15,.1,.26,.23,.34l.23,.66,.4,.83,.12,.08-.04,.14,.05-.05,.43,.88c.02,.12,.07,.21,.16,.29l.31,.7,.06,.17c.41,.27,.45,.68,.44,1.12-.09,.64,.23,1.39-.47,1.88l-.11-.2-.09,.09,.2,.11c.03,1.33,1.44,.09,1.74,.94l.16,.96c-.59,1.23-1.37,2.51,.88,2.87l.02,.12,.39,.8,.15,.94,.17,.44c.45,.75,.28,1.58,.31,2.39l.31,.97,.14,1c-.01,.49-.09,.99,.33,1.37l.15,1.47c.02,.63-.18,1.29,.3,1.84,.28,2.06,.28,4.13,.14,6.19-1.43,.8-1.46,1.59,.01,2.37,.12,.98,.14,1.94-.17,2.89-.25,.59-1.08,1.09-.31,1.85l-.19,1.48-.27,.84-.19,1.06-.27,.9h0c-1.88,.05-1.6,1.87-1.91,2.81-.99,2.97-3.31,5.54-2.87,8.96l-.08,.08c-3.03-.27-3.41,3.04-5.52,4.08-1.29,.63-1.72,1.97-1.5,3.43-.1,.14-.23,.19-.4,.15-1.79-.22-2.9,.58-3.42,2.27l-.12,.04-.21,.09c-.95,1-2.05,1.62-3.49,1.38l-.08-.97c1.51-.11,.72-.95,.51-1.61,1.32-3.78,1.79-7.71,2.13-11.67,1.21-.8,1.22-1.59,0-2.38l-.24-1.87c-.14-1.15-.14-2.33-.78-3.37-.03-1.43-.53-2.73-1.12-4-.35-2.16-1.48-2.49-3.22-1.36-1.65,.75-2.89,1.95-3.82,3.48-.38,1.24-1.95,1.8-1.91,3.29l-.37,.69c-.13-.27-.29-.52-.63-.45-.09,.02-.14,.22-.21,.33l.7,.41c.09,.63-.42,1.01-.64,1.51-.37,0-.86-.16-.97,.35-.08,.36,.31,.46,.61,.52l-.17,.95c-.11,.09-.19,.2-.24,.34l-.02,.11c-1.04-.07-1.47,.44-1.37,1.45,.02,.54-.07,1.12,.53,1.44-.11,.49-.02,1.06-.52,1.41-.34,.06-.79,.04-.74,.53,.02,.16,.41,.28,.64,.42,.07,.59,.16,1.19-.23,1.73-.2-.19-.4-.4-.63-.54-.03-.02-.36,.26-.38,.41-.06,.59,.38,.71,.85,.78,.02,.48,.03,.96,.05,1.44l-.22,.49c-.39,.37-.32,.85-.32,1.31,.05,.85,.14,1.71-.27,2.51l-.17,.44-.24,.96-.26,.39c-.08,.7-.6,.5-1.03,.5l-.84,.37-.96,.09c-1.02-1.29-1.88-1.62-2.38,.38Zm34.39-49.21c-.44-1.5-.75-3.06-1.91-4.23-.43-.43-.88-1-1.59-.68-.61,.28-.49,.93-.51,1.46-.15,2.93,1.1,5.48,2.18,8.07,.18,.44,.54,.81,1.08,.71,.53-.1,.8-.59,.84-1.03,.11-1.25,.1-2.5,.14-3.75l-.24-.54Z"/><path class="a`" d="M157.87,129.4h-.03l.06-.02c-1.43-1.07-1.58,.26-2.01,1.08l.08-.06c-.61,.06-1.35-.01-.99,1.01l.03-.03c-1.04-.57-1.31,.56-1.95,.87-.95-.08-1.63,.96-2.8,.59,.34-1.88-.27-3.66-2.22-3.92-2.23-.3-2.71,1.88-3.45,3.49-.48,1.04-.09,2.34-1,3.23l-.93,.1c-.94,.11-1.87,.27-2.81,.32-2.82,.15-3-.08-1.91-2.71,1.74-4.22,3.08-8.55,4-13.04,.39-1.92,.04-3.2-1.6-4.18-3.21-1.16-5.76,.8-5.59,4.31-1.08,4.49-1.52,9.08-2.06,13.65-.18,1.51-.35,2.51-2.2,2.59-.8,.03-1.66,.31-2.51,.36-2.52-.66-4.82-1.63-6.07-4.15-.24-.47-.44-1-1.1-1.06l-.03-.04c.02-.39-.06-.73-.45-.92,.12-.7,.07-1.39-.14-2.08-1.3-4.16-1.54-8.41-1.09-12.71l.3-1.32,.22-1.48,.23-.48c-.2-.79,.83-1.09,.74-2.21-2.34,.53-4.57,1.32-6.88,1.68-2.03,.31-3.57,.21-3.82-2.28-.17-1.37-1-1.93-2.31-1.91-1.45-1.38-3.16-1.7-5.07-1.3-.13-.05-.1-.47-.38-.16l.32,.22-.18,1.01c-1.72-.15-2.01,2.23-3.72,2.1-.25-.03-.45-.12-.41-.43,1.19-1.72,2.67-3.33,2.17-5.69,.94-1.22,.14-1.62-.9-1.92-1.24-1.5-2.09-3.71-4.76-2.64l-.35-.76c.03-.05,.1-.11,.09-.15-.03-.11-.09-.2-.14-.31v-.87l.34-1.48c.39-3.02,2.48-5.1,4.19-7.36,1.06-1.4,2.4-2.61,3.7-3.81,.54-.5,1.43-1.43,1.78,.26-.37,1.8,.33,3.52,.4,5.28,.04,.98,.59,1.35,1.47,1.41l-.06-.05c.95,1.46,2.13,1.29,3.4,.49l-.05,.04c2.42-1.61-.37-2.6-.46-3.91v-.89c-.48-2.21-.95-4.42-1.42-6.63,3.02-2.13,5.79-4.69,9.49-5.7l.46-.25,.62-.19h.12l.1-.07,.77-.39,.78-.4,.98-.11h3.52c.44,.42,.22,.94,.23,1.42-.5,1.43-1.58,2.66-1.38,4.31-.3,1.57-.59,3.14-.89,4.71-.84,2.64-.58,5.56-2,8.06-.53,.02-1.1-.08-1.42,.52-.79,.64-.47,1.27,.03,1.9l-.04-.06c.01,.41-.12,.89,.5,1l-.03-.03c.64,.76,1.26,1.56,2.3,.51,1.08-.04,2.24,.16,2.95-.99l.89-.13,1.44,1.79c1.06-1.8,.22-2.2-1.34-2.14-.33-3.06,.32-6.04,.79-9.03,.97-3.39,1.78-6.8,2.05-10.33,2.36-.18,3.75,1.37,5.15,2.9-.05,.17,.02,.27,.19,.3l.29,.59,.22,.37c1.4,.7,1.49,2.44,2.66,3.33,.07,.39,.09,.79,.23,1.15,1.75,4.61,1.1,8.88-1.41,13.09-1.3,2.19-3.12,3.98-4.27,6.28,3.14-2.1,5.24-5.13,6.87-8.41,1.89-3.8,1.5-7.74-.65-11.58,1.15-.06,2.09-.12,3.03-.17,4.72,.94,8.01,3.65,10.28,7.87,2.52,4.68,5.8,8.99,7.26,14.19,2.16,7.73,2.8,15.48-.55,23.1-.23,.52-.95,1.05,.15,1.41Zm-30.23-23.03c-2.36,1.48-4.73,2.97-7.09,4.45,3.01-.46,5.66-1.51,7.48-4.01,.98-.3,1.8-.72,1.69-2.02-1.17,.09-1.6,.86-2.08,1.58Zm23.8-5.02c.66-2.83-.42-4.9-1.27-6.84-1.44-3.29-3.22-6.49-6.45-8.47-.51-.31-1.07-.76-1.72-.2-.67,.58-.85,1.3-.64,2.14,.2,.82,.79,1.41,1.42,1.84,2.38,1.64,3.91,4.05,5.8,6.13,1.36,1.5,1.19,3.65,2.86,5.41Zm-16.57-10.55c1.25-3.9,.73-7.23-1.21-10.38-.38-.62-1.05-1.21-1.72-.65-.67,.56-.17,1.29,.32,1.84,1.51,1.68,1.83,3.73,1.91,5.88,.03,.98-.2,2.03,.7,3.33Zm18.53,14.06c-.42-.58,.13-1.81-1.09-1.96-.63-.08-.7,.5-.65,.96,.08,.83,.23,1.72,1.23,1.88,.4,.07,.61-.38,.51-.89Zm-21.7-26.99c0-.5-.11-.99-.67-1.04-.95-.1-.73,.78-.93,1.28-.2,.49-.17,1,.46,.99,.69-.01,1.04-.55,1.14-1.23Zm-11.48,39.23l-.11-.15-.14,.12,.18,.19,.06-.17Z"/><path class="s" d="M151.63,194.38c.05-.13,.13-.25,.24-.33,1.38-.72,2.23-2.91,1.68-4.31-.04-1.49,1.53-2.05,1.91-3.29,.48,.14,.86,0,1.3-.27,3.54-2.1,4.52-1.76,6.36,2.15,.18,1.27,.36,2.54,.54,3.81l.02,.95c-.02,1.74-.05,3.48-.07,5.22l-2.37,10.47c-1.28,6.17-3.37,12.08-5.98,17.79-1.76,3.84-2.24,7.67-.71,11.65,1.66,4.33,.99,8.73,.31,13.09-.78,4.98-1.94,9.91-.89,15,.18,.86,.31,2.26-.92,2.3-.97,.03-.83-1.28-.89-2.11-.04-.54-.06-1.09-.08-1.64-.81-.04-.8,.53-.76,.93,.32,2.81-1.45,3.58-3.72,3.72-1.59,.09-3.1,.53-4.65,.8-.66,.12-1.6,.47-1.92-.31-.29-.7,.43-1.31,1.07-1.6,2.2-.98,3.73-2.81,5.55-4.28,1.72-1.39,2.74-3,2.7-5.42-.09-5.47-1.24-10.81-1.65-16.24-.65-8.6-.62-17.18,.38-25.76,.46-3.91,.78-7.83,1.17-11.75,.65-3.17,1.32-6.34,1.93-9.51,.07-.37,.54-1.18-.54-1.07Zm8.21,1.74h-.06c0,1.09-.03,2.19,.02,3.28,.01,.26,.25,.58,.48,.74,.31,.21,.57-.05,.75-.31,1.15-1.63,1.16-6.01,.18-7.68-.4-.67-.89-.55-1.37-.51-.91,.08-.25,.62-.23,.98,.09,1.17,.15,2.34,.23,3.51Z"/><path class="s" d="M131.76,209.6c1.62,.45,2,1.27,1.49,3-1.61,5.45-1.89,11.16-2.86,16.74-.82,4.69,.17,9.29,.53,13.92,.47,6.13,1.36,12.25,.37,18.41-.29,1.82,.25,3.62,.4,5.43,.04,.52,.21,1.21-.48,1.43-.74,.23-1.24-.23-1.37-.91-.3-1.45-1.09-.93-1.94-.61-1.98,.74-3.98,1.44-5.97,2.14-.32,.11-.7,.6-1.01,.1-.28-.45-.09-.98,.34-1.24,1.72-1.02,2.67-2.87,4.16-4.04,2.65-2.07,2.84-4.71,2.35-7.59-1.25-7.38-2.55-14.75-3.89-22.11-.36-1.98-.42-3.99-.09-5.9,1.16-6.88,.79-13.88,1.82-20.75,.1-.7,.07-1.42,.52-2.06,.67,.18,1.01,1.02,1.82,.9l-.04-.09c.05,.61,.33,1,1,1l-.04-.04c.02,.64,.49,.83,.98,1l-.05-.04c.44,.76,1.22,1.03,1.97,1.33Z"/><path class="ae" d="M108.92,87.2v.89c-.56,1.39,.75,2.55,.47,3.91l.05-.04c-1.13-.16-2.27-.33-3.4-.49l.06,.05c-.63-2.2-.39-4.57-1.34-6.71-.51-4.39-1.54-8.66-2.86-12.88-1.03-3.28-3.81-5.09-5.96-7.43-.65-.71-1.52-.41-2.33,0-4.99,2.53-9.59,1.69-13.73-1.87-.74-.63-2.08-.43-2.28-1.7-.02-.1,.18-.23,.27-.34,.5-.46,1.01-.92,1.51-1.38-.15,1.77,1.51,1.66,2.42,2.34,.58-.02,1-.29,1.24-.83,.97,1.13,2.26,.9,3.52,.84l1.04,.03c.94,1.04,2.14,.14,3.19,.42,.39,.21,.76,.55,1.16,.61,1.38,.19,.36-.6,.36-.98,1.4-.51,2.69-1.35,4.21-1.51l.23,.03h.23c-.45,.73-.3,1.22,.57,1.43-.39,.96,.56,.95,.97,1.25,5.51,4,7.41,9.77,8.03,16.19,.05,.53,.28,1.03,.43,1.55,.1,2.01,.53,3.95,1,5.89,.12,.5,.31,.87,.93,.73Zm-22.82-23.61c1.66-.54,3.63,1.34,5.45-.91l-5.49,.26c-1.02-.59-1.89-.52-2.68,.68,1.01,.43,1.86,.51,2.73-.04Zm10.47-.99c-.4,0-.45,.31-.47,.6,0,.13,.08,.27,.12,.4,.18-.18,.4-.34,.54-.54,.14-.2,.08-.39-.19-.47Z"/><path class="ag" d="M107.56,108.1c1.32-.02,2.15,.54,2.31,1.91-.27,.06-.85-.14-.76,.21,.95,3.94-2.08,5.45-4.42,7.4l-.54-.55c0-.43,.63-.82,.19-1.23-.3-.28-.76-.14-1.04,.17-1.02,1.12-2.37,1.64-3.74,2.16-.44,.17-.86,.51-.14,.94v.82c-3.13,.36-6.05,.02-8.41-2.37,.2-.22,.3-.41,.39-.4,4.69,.28,4.73,.26,6.06-4.35,.13-.45,.15-.72,.8-.87,1.38-.32,1.65-1.08,.29-1.95,1.71,.13,2-2.25,3.72-2.1,1.49-.4,2.93-.51,4.26,.53,.38,.3,.88,.43,1.04-.31Z"/><path class="ag" d="M89.87,102.82c.95-2.04,2.78-2.91,4.77-3.56,1.03,.39,1.9,1.04,2.72,1.75,2.39,2.05,2.81,7.08-.8,8.19-1.06-.9-2.05-1.57-2.41,.58-.08,.45-.67,1.05-1,.66-2.27-2.64-2.08,.83-2.08,1.07,.01,1.51-1.99-.01-1.96,1.46,.02,.88-.41,1.77-.93,2.63-.97-2.78-.74-5.61-.57-8.44l.21-.03h.21c.05,.25-.07,.62,.36,.62,.09,0,.27-.19,.26-.27-.04-.42-.39-.28-.64-.32l.06-1.36v-.04l.44,.45c.39,.82,.69,.59,1.06-.05,.71-1.24,1.48-2.45,2.27-3.76-.86-.07-1.15,.5-1.61,.76l-.36-.35Z"/><path class="y" d="M79.39,59.21c-.5,.46-1.01,.92-1.51,1.38,.31-3.64,1.06-7.15,3.86-9.78,4.69-4.41,11.09-4.64,15.06-.14,.23,.26,.48,.37,.73,0h0c.45,1.8,1.25,3.38,2.93,4.36l-.05-.06c-.09,.52,.17,.9,.52,1.25-.79,1.19-1.39,.13-1.86-.27-.84-.69-1.52-1.57-2.29-2.36-2.34-2.43-7.09-3.62-9.62-1.93,3.14,3.2,3.3,6.5,.46,9.93l-1.04-.03c1.67-1.6,2.15-3.62,1.88-5.81-.13-1.08-.47-2.29-1.67-2.63-1.14-.32-2.15-.07-3.23,.8-.95,.76-1.37,2-2.54,2.48-.16-.45-.36-.31-.56-.04-.48,.91-.95,1.81-1.05,2.86Zm6.3-8.52c2.16-.49,4.22-1.58,6.58-.75-2.46-1.2-4.4-.99-6.81,.46-.31,.29-.91,.18-1.1,1.16,.51-.54,1.09-.25,1.33-.87Z"/><path class="q" d="M87.61,61.59c2.84-3.43,2.68-6.73-.46-9.93,2.52-1.69,7.28-.51,9.62,1.93,.76,.79,1.45,1.67,2.29,2.36,.48,.4,1.08,1.46,1.86,.27-.01,.12-.03,.24-.05,.35-1.03,.06-.54,1.51-1.49,1.65-1.14,.35-1.93,1.22-2.84,1.91-1.53,.16-2.81,1.01-4.21,1.51-.55-.03-1.08-.02-1.53,.37-1.04-.28-2.24,.62-3.19-.42Z"/><path class="s" d="M117.16,137.55l-.14-6.24c0-.62,.17-1.28-.3-1.83l-.19-1.94c0-.92,.07-1.84,.01-2.75-.06-1.06,.33-1.6,1.43-1.52,.63,2.52,1.26,5.04,1.89,7.56,0,.61,.23,.98,.9,.96l.03,.04c.02,.72,.05,1.45,.07,2.17,.26,.68-1.27,1.61,.3,2.11l.23,4-.2,.9c-2.14,1.05-1.96,3.22-2.44,5.07h-.74l-.19-.46v-2.08l-.16-.76-.17-3.38c-.01-.63,.18-1.3-.33-1.84Z"/><path class="ab" d="M146.48,64.97c-3.51,2.8-7.37,3-11.46,1.55-.44-.15-.82-.9-1.4-.23l.02,.07c.39-.62-.3-.55-.5-.79h-.11c-2.87-1.49-4.83-4.23-7.78-5.63-1.01-.48-.59-1.15,.05-1.86,1.23-1.38,2.59-2.59,4.11-3.64,.76,.06,.97,.57,1.02,1.22,.12,1.28-.74,.34-1.06,.51-1.08,.58-2.36,1.15-2.33,2.66,.03,1.83,1.65,1.66,2.71,2.3,.29-.72-.19-1.28,.42-1.9,.65,2.3,2.16,3.2,4.42,2.81-.04,.11-.04,.22-.01,.33-.1,.39-1.86-.06-.55,.98,.51,.4,1.33,.4,2.02,.57,2.34,.55,4.74,.22,7.11,.47-.09,.34-.17,.69-.25,1.03-2.55-.21-5.09-.41-7.64-.62,2.5,1.11,5.03,1.49,7.62,.61,1.3,.57,2.27-1.51,3.63-.44Z"/><path class="a`" d="M126.08,72.03c-.06-.41-.02-.78,.44-.96,.63,.47,1.26,.95,1.89,1.42l-.03,.91c-.89,.95-.3,2.36-1.05,3.35-1.66,.99-1.67,2.31-.79,3.82l-.26,1.43-.25,.48-.12,2.8c-1.32,2.88-1.13,6-1.48,9.04-1.14,1.35-2.27,.31-3.4,0l1.42-6.65,.22-.54,.15-2.28c1.76-.66,1.73-1.68,.59-2.92l.35-2.3c1.46-1.26,.96-3.08,1.34-4.65l.11-.57c1.03-.52,1.35-1.3,.86-2.37Z"/><path class="ae" d="M130.41,55.66c-.05-.65-.26-1.16-1.02-1.22,1.21-3.17,6.66-5.92,10.45-5.43,.9,.12,1.78,1.02,2.76,.23l.02,.02c.83,1.67,2.22,2.69,3.91,3.35l-.06-.05c.35,1.81,2.08,2.96,2.29,4.84-.32,1.17-.52,.81-1.01,.02-.95-1.55-1.31-1.65-2.39-1.16-.9-.79-1.8-1.57-2.7-2.36,.15-.41,1.07-.86,.64-1.01-1.05-.38-1.27-1.96-2.62-1.71-1.51,.28-3.09-.18-4.57,.39-.54,.21-1.27-.66-1.64,.27-.43,1.07,1.22,.58,1.11,1.44-1.22-.89-2.04,.67-3.14,.51-.23-.34-.09-1.02-.77-.9-.25,.04-.63,.32-.66,.53-.07,.6,.54,.61,.91,.82l-1.53,1.42Z"/><path class="t" d="M121.19,141.01l.2-.9c.95-.62,1.15-1.74,1.78-2.58,.35-.46,.59-1.45,1.42-.45-.3,1.97-1.36,3.63-2.21,5.36-3.36,6.83-4.44,14.21-5.36,21.64-.08,.63,.03,1.3-.82,1.46-.13-.62-.27-1.25-.4-1.87-.21-.65-.21-1.31-.02-1.97,.13-1.09,1.18-2.08,.34-3.27l.12-1.47,.31-.92,.17-.98,.33-.83,.14-1.54,.34-.82,.45-1.52c.65-1.1,.87-2.31,.98-3.56l-.05,.02c.99-1.85,1.75-3.79,2.3-5.82Z"/><path class="u" d="M140.74,82.84c-.94,.05-1.88,.1-3.03,.17,2.15,3.84,2.54,7.77,.65,11.58-1.63,3.27-3.73,6.3-6.87,8.41,1.15-2.3,2.96-4.09,4.27-6.28,2.51-4.21,3.15-8.49,1.41-13.09-.14-.36-.16-.77-.23-1.15,1.26,.2,2.61-.48,3.81,.38Z"/><path class="y" d="M128.4,72.5c-.63-.47-1.26-.95-1.89-1.42,.77-2.09,2.69-3.26,3.98-4.94,.66-.87,1.74-.15,2.53-.58h.11c-.53,.72,.14,.66,.5,.81l-.02-.07c.58,.87,.55,1.49-.43,2.16-1.72,1.18-3.76,2.02-4.78,4.04Z"/><path class="aa" d="M145.38,56.26c1.08-.49,1.44-.39,2.39,1.16,.49,.79,.68,1.16,1.01-.02,2.61,4.25,1.97,4.62-2.29,7.57-1.36-1.08-2.33,1.01-3.63,.44h.03l.26-1.02c.79-.3,1.58-.63,2.38-.9,4.54-1.53,4.58-1.68,1.43-5.21-.57-.63-1.04-1.34-1.56-2.02Z"/><path class="s" d="M176.79,198.67c-.44-3.42,1.88-5.98,2.87-8.96,.31-.94,.03-2.76,1.91-2.8-.61,4.32-2.18,8.25-4.78,11.75Z"/><path class="w" d="M163.68,193.09l-.02-.95,.73-.45,.24,1.87c0,.79,0,1.59,0,2.38-.34,3.96-.81,7.89-2.13,11.67-.4,.46-.72,.95-.51,1.61l.08,.97c-.73-.21-.35-1.07-.83-1.42,.79-3.49,1.58-6.98,2.37-10.47,.74-1.73,.58-3.47,.07-5.22Z"/><path class="s" d="M169.7,206.26c-.22-1.46,.21-2.79,1.5-3.43,2.11-1.04,2.49-4.35,5.52-4.08-1.59,3.2-4.35,5.31-7.01,7.51Z"/><path class="u" d="M119.87,130.84c-.63-2.52-1.26-5.04-1.89-7.56l-.11-1.42-.02-3.8c-.07-.72,1.12-1.4,.06-2.14l.02-.02c.33,.4,.86-.38,1.16,.19-.45,4.31-.21,8.56,1.09,12.71,.22,.69,.27,1.37,.14,2.08-.15,.03-.3,.01-.45-.05Z"/><path class="aj" d="M96.57,109.19c3.61-1.1,3.18-6.13,.8-8.19-.83-.71-1.69-1.36-2.72-1.75v.05c2.66-1.07,3.51,1.14,4.75,2.64l.9,1.92c.5,2.36-.98,3.97-2.17,5.69-.51-.14-1.14,.2-1.56-.36Z"/><path class="s" d="M163.04,133.8l.07-1.6c2.22,1.44,3.91,3.45,5.73,5.31-.78,.04-1.31,.42-1.59,1.15-1.29-1.72-2.5-3.51-4.21-4.86Z"/><path class="t" d="M122.25,197.89c.75-.12,1.46,.04,1.86,.69,1.17,1.89,2.2,3.86,2.82,6.01-.99-.08-1.12-1.04-1.64-1.61-.15-.13-.29-.27-.44-.4l-.26-.44-.36-.53-.08-.13c-.03-.1-.09-.18-.17-.25-.67-.54-1.31-1.09-1.27-2.06-.01-.11-.06-.21-.13-.29l-.36-.6c0-.13,0-.26,.01-.39Z"/><path class="w" d="M151.63,194.38c1.08-.11,.61,.71,.54,1.07-.61,3.18-1.28,6.34-1.93,9.51-.17-.46,.12-1.06-.43-1.41l-.05-1.44,.15-.65c.38-.54,.29-1.13,.23-1.73l.11-.95c.5-.35,.4-.92,.52-1.41,.67-.49,.36-1.25,.53-1.88,.36-.26,.35-.63,.3-1.01l.02-.11Z"/><path class="aj" d="M127.32,76.76c.75-.99,.16-2.4,1.05-3.35l.05,1.57c-.27,3.52-1.08,6.94-2.05,10.33-.16-.03-.31-.03-.47-.01,.04-.93,.08-1.87,.12-2.8l.25-.48,.26-1.43c.58-1.21,.75-2.5,.79-3.82Z"/><path class="w" d="M104.77,84.81c.95,2.14,.7,4.51,1.34,6.71-.88-.07-1.43-.44-1.47-1.41-.07-1.76-.76-3.48-.4-5.28l.53-.02Z"/><path class="aa" d="M99.38,58.22c.95-.14,.45-1.59,1.49-1.65,.3,.33,.61,.67,.91,1-1.87,.84-1.95,3.57-4.21,4.01-.87-.21-1.02-.7-.57-1.44,1.29-.04,2.34-.35,2.38-1.93Z"/><path class="y" d="M100.45,55.03c0-.74-.27-1.61,1-1.59,1.17,.02,2.29-.62,3.62-.3-1.01,2.15-3.24,1.02-4.67,1.83l.05,.06Z"/><path class="aa" d="M149.64,56.6c1.46-1.47,3.12-1.28,5.39-.82-2.02,1.43-3.75,.78-5.39,.82Z"/><path class="ab" d="M132.1,44.38c1.82,1.66,2.23,3.06,1.96,5.11-1.36-1.49-1.61-2.98-1.96-5.11Z"/><path class="y" d="M142.6,49.24c.95-2.06,2.17-3.82,3.32-4.54-.51,2.16-1.31,3.77-3.3,4.56l-.02-.02Z"/><path class="t" d="M118.07,186.44c2.1,.91,2.83,3.61,1.41,5.22-.58-.73-.66-1.56-.55-2.44,0-.49,.06-1-.41-1.35l-.08-.5c0-.15-.05-.27-.14-.38l-.22-.55Z"/><path class="y" d="M146.54,52.61c-.17-2.23,2.05-1.98,3.1-2.95,.05-.05,.45,.13,.53,.28,.21,.42-.06,.8-.39,.98-1.08,.58-2.2,1.1-3.3,1.64l.06,.05Z"/><path class="aj" d="M108.92,87.2c-.61,.14-.8-.23-.93-.73-.47-1.94-.91-3.89-1-5.89h.52c.47,2.2,.94,4.41,1.41,6.63Z"/><path class="ab" d="M99.42,119.92v-.82c1.79-.18,3.17-1.31,4.73-2.03l.54,.55c-1.42,1.54-3.36,1.9-5.27,2.3Z"/><path class="aa" d="M128.01,52.97c-2.05-.35-2.73-1.79-2.84-3.65l2.84,3.65Z"/><path class="ae" d="M125.1,74.97c-.38,1.57,.12,3.39-1.34,4.65l-.57-.43c-.2-1.65,.88-2.89,1.38-4.31l.53,.09Z"/><path class="ab" d="M138.69,43.4c.46,.19,.58,.22,.58,.25,.13,1.23,.35,2.48-.56,3.53-.09,.11-.59,.08-.6,.03-.36-1.34,.32-2.47,.58-3.82Z"/><path class="ae" d="M117.87,121.87l.11,1.42c-1.1-.08-1.49,.46-1.43,1.52,.05,.91,0,1.83-.01,2.75-.71-2.18-.34-4.35,.03-6.52,.07,.86,.68,.86,1.31,.84Z"/><path class="s" d="M117.87,121.87c-.63,.02-1.24,.02-1.31-.84l.15-1.56c.4-.37,.32-.86,.31-1.33l.04-.53,.79,.46,.02,3.8Z"/><path class="ab" d="M128.15,46.99c1.86,.81,2.05,2.2,2.29,3.57-1.21-.76-1.87-1.86-2.29-3.57Z"/><path class="ab" d="M97.52,50.67c.41-1.65,2.13-1.58,3.15-2.43-.31,1.78-1.79,2.03-3.15,2.42h0Z"/><path class="aa" d="M75.78,49.24c1.51,.31,2.12,1.43,3.09,2.01,.3,.18,.31,.56,.07,.8-.11,.11-.53,.12-.59,.03-.67-1-2.28-1.11-2.56-2.84Z"/><path class="aa" d="M81.5,45.47c.5,.63,1.01,1.27,1.52,1.9,.33,.41,.48,.9,0,1.21-.37,.25-.74-.12-.92-.46-.42-.76-.78-1.55-1.17-2.32l.57-.33Z"/><path class="s" d="M165.88,208.68c.52-1.69,1.63-2.49,3.42-2.27-.85,1.19-2.07,1.83-3.42,2.27Z"/><path class="t" d="M132.17,208.83c1.52-.89,2.69-.97,2.88,1.23l-.55-.21c-.11-.1-.23-.15-.38-.15l-1.87-.5c-.04-.12-.07-.25-.08-.38Z"/><path class="t" d="M117.12,177.9c1.78,1.52,1.77,2.15-.03,2.85l-.09-2.37,.12-.48Z"/><path class="s" d="M180.56,157.98c-2.25-.36-1.47-1.65-.88-2.87,.53,.89,.9,1.82,.88,2.87Z"/><path class="s" d="M182.97,177.89c-1.47-.78-1.45-1.57-.01-2.37,.25,.79,.35,1.58,.01,2.37Z"/><path class="s" d="M177.78,153.21c.7-.49,.38-1.24,.47-1.88,.42,.94,.85,1.88,1.27,2.82-.29-.84-1.71,.39-1.74-.94Z"/><path class="s" d="M115.79,163.69c.13,.62,.27,1.25,.4,1.87-.04,1.25-.08,2.5-.12,3.74-.09-1.87-.19-3.74-.28-5.61Z"/><path class="w" d="M118.94,146.81c-.11,1.25-.34,2.46-.98,3.56,.35-.95-1.08-1.94,.06-2.88,.31-.23,.62-.45,.93-.68Z"/><path class="aa" d="M88.52,106.21l-.43-.45c.15-.98,.73-1.72,1.36-2.42l.03,.58c.01,.91-.35,1.66-.97,2.3Z"/><path class="t" d="M143.11,210.99c.49-2,1.36-1.67,2.38-.38l-1.39,.06-.44,.14-.55,.18Z"/><path class="s" d="M116.1,158.45c.85,1.19-.21,2.18-.34,3.27-.15-1.12,.02-2.2,.34-3.27Z"/><path class="aj" d="M132.17,208.83c.02,.13,.04,.25,.08,.38l-.49,.4c-.75-.3-1.53-.56-1.97-1.33,.98-.62,1.6,.32,2.38,.55Z"/><path class="ae" d="M126.08,72.03c.48,1.07,.17,1.85-.86,2.37,0-.89,.51-1.6,.86-2.37Z"/><path class="t" d="M116.64,173.62c1.22,.67,1.2,1.3-.05,1.9l-.07-.94,.12-.96Z"/><path class="ae" d="M124.34,73.46h-3.52c1.17-.21,2.35-.78,3.52,0Z"/><path class="ae" d="M117.85,118.07l-.79-.46c-.07-.74-.07-1.44,.85-1.68,1.07,.74-.12,1.42-.06,2.14Z"/><path class="s" d="M182.49,182.63c-.77-.76,.06-1.26,.31-1.85-.1,.62-.21,1.23-.31,1.85Z"/><path class="s" d="M172.6,141.71l-.71,1.34c-.43-.95-.38-1.51,.56-1.71,.14,.09,.19,.21,.15,.37Z"/><path class="ae" d="M119.09,116.1c-.31-.57-.83,.21-1.16-.19,0-1.01,.66-1.16,1.46-1.13l-.3,1.32Z"/><path class="w" d="M117.83,143.54v2.08c-.64-.74-.43-1.59-.33-2.42l.33,.34Z"/><path class="ae" d="M118.94,146.81c-.31,.23-.62,.45-.93,.68,0-.47,0-.93,0-1.4h.74l.14,.75,.05-.02Z"/><path class="s" d="M137.99,210.63c.6,.04,1.26-.16,1.78,.34l-1.78-.34Z"/><path class="s" d="M182.82,169.33c-.48-.55-.28-1.22-.3-1.84,.32,.58,.38,1.2,.3,1.84Z"/><path class="t" d="M116.11,170.3l.71,.49-.68,.52-.02-1.01Z"/><path class="s" d="M141.21,211.07c.04-.31,.08-.68,.47-.68,.4,0,.43,.37,.48,.68h-.95Z"/><path class="ae" d="M117.16,137.55c.52,.54,.32,1.21,.33,1.84-.32-.58-.43-1.19-.33-1.84Z"/><path class="t" d="M117.6,182.65c.3,.06,.66,.12,.62,.51-.04,.38-.4,.4-.7,.44l-.05-.46,.13-.49Z"/><path class="ae" d="M116.72,129.49c.47,.55,.3,1.2,.3,1.83l-.3-1.83Z"/><path class="ae" d="M117.02,118.14c.01,.47,.09,.96-.31,1.33l.31-1.33Z"/><path class="s" d="M149.26,205.36c0-.46-.07-.95,.32-1.31l-.32,1.31Z"/><path class="aa" d="M88.04,107.14h-.21l-.21,.02c-.17-.56,.11-.97,.46-1.36l-.06,1.36,.02-.02Z"/><path class="s" d="M116.64,173.62l-.12,.96c-.26-.56-.49-1.13-.25-1.76,.12,.27,.25,.53,.37,.8Z"/><path class="s" d="M118.52,187.88c.47,.35,.4,.86,.41,1.35-.28-.41-.52-.82-.41-1.35Z"/><path class="aj" d="M94.57,95.74l-.34,1.48c-.18-.56-.18-1.08,.34-1.48Z"/><path class="s" d="M182.37,166.01c-.42-.38-.34-.88-.33-1.37l.33,1.37Z"/><path class="s" d="M116.52,156.06l-.31,.92,.31-.92Z"/><path class="s" d="M181.57,186.91l.27-.9-.27,.9Z"/><path class="s" d="M181.9,163.64l-.31-.97,.31,.97Z"/><path class="s" d="M180.96,158.89l-.39-.8,.39,.8Z"/><path class="s" d="M117.64,185.04l.33,.88-.33-.88Z"/><path class="ae" d="M119.84,73.57l-.78,.4c.2-.25,.4-.5,.78-.4Z"/><path class="s" d="M182.03,184.95l.27-.84-.27,.84Z"/><path class="s" d="M176.71,148.01l-.4-.83,.4,.83Z"/><path class="s" d="M146.45,210.52l.84-.37-.84,.37Z"/><path class="s" d="M136.07,210.16c.27,.08,.55,.16,.82,.25l-.82-.25Z"/><path class="s" d="M117.03,154.25l-.33,.83,.33-.83Z"/><path class="ag" d="M89.48,103.92l-.03-.58,.42-.52,.36,.35-.75,.74Z"/><path class="s" d="M117.6,182.65l-.13,.49c-.06-.31-.12-.61-.19-.92l.32,.43Z"/><path class="s" d="M117.51,151.89l-.34,.82,.34-.82Z"/><path class="s" d="M117.12,177.9l-.12,.48-.24-.92,.36,.45Z"/><path class="s" d="M122.25,197.89c0,.13-.01,.26-.01,.39l-.29-.45c.1,0,.2,.01,.3,.06Z"/><path class="s" d="M122.59,198.88c.07,.08,.12,.18,.13,.29l-.15-.11,.02-.18Z"/><path class="ae" d="M119.84,112.82l-.23,.48,.23-.48Z"/><path class="s" d="M174.83,144.69l-.36-.54,.36,.54Z"/><path class="s" d="M123.99,201.23c.08,.07,.13,.15,.17,.25l-.17-.07v-.18Z"/><path class="s" d="M124.23,201.61l.36,.53-.36-.53Z"/><path class="s" d="M124.85,202.58c.15,.13,.29,.26,.44,.4-.15-.13-.29-.27-.44-.4Z"/><path class="s" d="M174.25,143.69c-.15-.06-.25-.18-.3-.34l.3,.34Z"/><path class="s" d="M175.18,145.16c-.13-.08-.22-.19-.29-.33l.29,.33Z"/><path class="s" d="M148.82,208.3l.17-.44-.17,.44Z"/><path class="s" d="M158.77,128.67l-.42,.33,.42-.33Z"/><path class="s" d="M118.29,186.99c.1,.11,.15,.23,.14,.38l-.14-.38Z"/><path class="aj" d="M94.23,98.1c.05,.1,.11,.2,.14,.31,.01,.04-.06,.1-.09,.15-.05-.1-.11-.2-.14-.3-.01-.04,.06-.1,.09-.15Z"/><polygon class="s" points="165.55 208.82 165.76 208.73 165.69 208.86 165.55 208.82"/><path class="s" d="M148.32,209.65l.26-.39-.26,.39Z"/><path class="s" d="M134.12,209.7c.15,0,.27,.05,.38,.15l-.38-.15Z"/><polygon class="s" points="175.42 145.36 175.39 145.41 175.43 145.43 175.42 145.36"/><path class="s" d="M181.28,160.28l-.17-.44,.17,.44Z"/><path class="s" d="M143.66,210.81l.44-.14-.44,.14Z"/><path class="ae" d="M117.83,143.54l-.33-.34c.04-.14,.1-.28,.17-.42l.16,.76Z"/><path class="ab" d="M134.27,79.14l-.22-.37c.13,.09,.2,.21,.22,.37Z"/><path class="ab" d="M133.77,78.17c-.17-.03-.24-.13-.19-.3,.17,.04,.23,.14,.19,.3Z"/><path class="ae" d="M117.45,74.61l-.46,.25,.46-.25Z"/><polygon class="ae" points="118.29 74.35 118.2 74.42 118.08 74.42 118.16 74.29 118.29 74.35"/><path class="s" d="M176.08,146.52c-.13-.08-.2-.19-.23-.34l.23,.34Z"/><polygon class="s" points="173.17 142.23 173.06 142.08 173.21 142.09 173.17 142.23"/><path class="s" d="M170.11,138.51l-.39-.35c.27-.04,.38,.1,.39,.35Z"/><polygon class="s" points="176.85 148.17 176.8 148.23 176.83 148.25 176.85 148.17"/><path class="s" d="M177.44,149.34c-.09-.08-.14-.17-.16-.29l.18,.1-.02,.19Z"/><polygon class="s" points="177.81 150.21 177.75 150.04 177.88 150.11 177.81 150.21"/><path class="s" d="M170.51,138.95l-.35-.39c.25,0,.39,.12,.35,.39Z"/><path class="s" d="M120.56,194.55l.23,.45-.23-.45Z"/><path class="ae" d="M142.14,188.09l.04,.05c-2.09-3.99-2.75-8.2-1.98-12.63,.87-2.88,.99-5.87,1.33-8.82,.94-8.26,2.98-16.38,3.08-24.74,.4-.46,.42-.99,.28-1.55,.19-1.1,.21-2.21,.02-3.31l.05-1.44c-.1-1.59,.16-3.07,1.04-4.45,.48-.76,1.05-1.65,1.89-1.52,1,.16,1.56,1.1,1.75,2.19,.14,.83-.04,1.74,.55,2.47,.02,7-1.37,13.79-3.33,20.45-2.05,6.97-3.36,14.07-4.17,21.26-.51,4.51,.59,6.13,4.71,8,.19,2.09-1.6,.48-2.31,1.31,.83,.45,1.27,1.52,2.51,1.13,1.09-.34,.59,.55,.73,.94l.05-.07c-.29,.5-1.34,.15-1.24,1.1-.12,0-.25,0-.37,0,.05-.03,.09-.08,.14-.07,.07,0,.14,.06,.2,.09l1.29,.83c.06,.81-.04,.88-1.22,.82-1.83-.31-3.42-1.21-5.03-2.04Zm5.9-49.24c.36-1.96,.62-3.92-.1-5.86-.15-.4-.39-.71-.85-.56-.37,.12-.36,.49-.23,.77,.78,1.8,.25,3.83,1.19,5.64Z"/><path class="q" d="M163.04,133.8c1.71,1.35,2.92,3.15,4.21,4.86,1.35,2.9,2.64,5.84,4.06,8.7,.82,1.64,1.16,3.41,1.68,5.13,.15,.5,.39,1.19-.16,1.52-.65,.38-.98-.33-1.28-.73-.89-1.19-1.76-2.4-2.54-3.66-2.63-4.23-5.63-8.09-9.76-11-1.75-1.23-1.93-3.29-.78-5.02,1.42-2.12,2.77-.91,4.16-.01,.13,.08,.28,.14,.42,.21Z"/><path class="u" d="M147.38,184.04c-4.12-1.87-5.22-3.49-4.71-8,.82-7.19,2.12-14.29,4.17-21.26,1.96-6.67,3.35-13.45,3.33-20.45,.16-.56,.2-1.34,1.04-.51l.16,4.16c-.1,1.02-.2,2.04-.3,3.06-.06,.25-.13,.5-.19,.76-.1,1.01-.2,2.01-.3,3.02-.05,.26-.11,.52-.16,.78-.5,4.39-2.39,8.44-3.06,12.79l-.29,.51c-.39,1.58-.78,3.16-1.17,4.74-.42,.24-.34,.61-.26,.98l-.24,1.39c-.42,.41-.36,.94-.36,1.45-.83,1.23-.32,2.67-.6,3.98-.06,.25-.11,.49-.17,.74-.09,1.08-.17,2.15-.26,3.23l-.23,.57c-.25,.96-.26,1.91-.05,2.88l.3,.56c.73,1.73,1.66,3.13,3.9,2.78,.5-.08,1.17-.3,1.48,.33,.31,.64,.05,1.19-.58,1.55-.14,0-.29,0-.43,0-.07-.28-.15-.79-.19-.79-.45,.04-.69,.37-.84,.77l.03-.02Z"/><path class="u" d="M144.61,141.93c-.1,8.36-2.14,16.49-3.08,24.74-.34,2.95-.46,5.95-1.33,8.82-.89-1.18-.12-2.55-.42-3.79,.25-1.72,.49-3.43,.74-5.15l.14-1.96,.33-1.82,.12-1.5,1.34-8.94,.07-1.03c.29-3.77,.58-7.54,.87-11.31l.03-1.11c.07-.64,.26-1.31-.35-1.81-.01-.16,0-.31,.04-.46l-.45-.87,.93-.1h1.04c-.04,.51-.18,1.04,.29,1.43,.19,1.11,.17,2.21-.02,3.31-.45,.45-.38,1-.28,1.55Z"/><path class="u" d="M127.97,137.05c.85-.05,1.71-.33,2.51-.36,1.85-.08,2.03-1.08,2.2-2.59,.54-4.57,.98-9.16,2.06-13.65l.74-.94c.01,.39,.08,.79,.03,1.18-.79,5.36-1.45,10.73-2,16.12-.63,6.17-1.69,12.29-3.29,18.3l-.41-.97,.08-2.17,.24-.65,.55-3.81,.07-.95,.33-1.36c.72-2.03,.72-4.13,.68-6.24,.04-1.87-1.24-.67-1.93-.83l-3.3-.68c.39-.48,.95-.33,1.45-.41Z"/><path class="w" d="M129.81,154.14l.41,.97c-.3,2.66-.68,5.32-.88,7.99-.18,2.37,.06,4.75,1.09,6.93,.65,1.38,1.81,1.97,3.47,1.84,1.68-.13,1.16-1.45,1.73-2.3-1.01-.33-2.13-.02-2.84-1.1l2.7-1.03,.54,.02c.04,.26,.12,.46,.44,.33,.79,.05,1.33,.63,.92,1.2-.88,1.24-.68,3.32-2.67,3.71-2.17,.43-3.77-.48-4.98-2.24-2.58-3.73-1.74-7.83-1.2-11.85,.21-1.52,.84-2.99,1.28-4.48Z"/><path class="ah" d="M177.74,162.32c-.04,1.25-.03,2.51-.14,3.75-.04,.44-.31,.93-.84,1.03-.54,.1-.9-.27-1.08-.71-1.08-2.59-2.34-5.14-2.18-8.07,.03-.53-.09-1.19,.51-1.46,.71-.32,1.16,.25,1.59,.68,1.16,1.17,1.46,2.73,1.91,4.23l.24,.54Z"/><path class="t" d="M143.11,136.61c-.04,.15-.06,.31-.04,.46-6.97,1.35-5.52,7.89-7.54,12.28-.53,1.15,.32,2.99-1.72,3.38l.19-1.91c1.37-3.77,1.29-7.85,2.51-11.65,.21-.64,.22-1.55,1.1-1.6,1.88-.1,3.57-1.16,5.49-.96Z"/><path class="aj" d="M134,150.82l-.19,1.91-.49,4.67-.11,1.03-.35,1.84c-.06,.81-.12,1.62-.17,2.43-.41,.97-.63,2.16,.28,2.72,.81,.5,1.93,.18,2.54-.83,.46-.1,.77,.17,1.07,.45-.05,.79-.09,1.57-.14,2.36-.14,.04-.28,.06-.42,.06l-.54-.02c.37-.57,.82-1.13,.39-1.87-1.14,.83-2.11,1.98-3.74,1.09-1.54-.85-.54-2.05-.5-3.13,.02-.63,.01-1.26,.05-1.88,.22-3.84,.81-7.61,1.94-11.3l.39,.47Z"/><path class="w" d="M127.97,137.05c-.5,.08-1.07-.07-1.45,.41l-1.93-.36c-.83-1.01-1.07-.02-1.42,.45-.63,.83-.83,1.96-1.78,2.58l-.23-4c.02-.72,.15-1.46-.3-2.11-.02-.72-.05-1.45-.07-2.17,.65,.06,.86,.58,1.1,1.06,1.25,2.52,3.56,3.49,6.07,4.15Z"/><path class="aj" d="M144.62,135.65h-1.04c.91-.91,.52-2.2,1-3.24,.74-1.61,1.22-3.79,3.45-3.49,1.95,.26,2.57,2.04,2.22,3.92,1.18,.37,1.85-.67,2.8-.59l.06,.62-1.45,1c-.14-.09-.29-.1-.44-.04-.84-.83-.89-.05-1.04,.51-.59-.73-.41-1.64-.55-2.47-.18-1.09-.75-2.03-1.75-2.19-.84-.14-1.41,.76-1.89,1.52-.87,1.38-1.14,2.86-1.04,4.45-.11,0-.22,.01-.34,.01Z"/><path class="u" d="M163.12,188.33c-1.84-3.91-2.83-4.26-6.36-2.15-.44,.26-.82,.41-1.3,.27,.93-1.54,2.17-2.74,3.82-3.48,1.36-.22,2.17,.86,3.22,1.36,.59,1.27,1.09,2.57,1.12,4h-.49Z"/><path class="aj" d="M139.78,171.71c.3,1.25-.47,2.61,.42,3.79-.76,4.43-.11,8.65,1.98,12.63-.31-.12-.61-.24-.92-.37l-.23-.47c-2.29-3.5-1.62-7.47-1.8-11.3v-.95c.28-1.1-.07-2.3,.56-3.34Z"/><path class="t" d="M131.75,138.96c.04,2.11,.04,4.21-.68,6.24-2.39-.64-.78-2.2-.78-3.39,.61-.48,.61-.95,0-1.42v-1.42h1.46Z"/><path class="w" d="M148.39,184.08c.14-.02,.29-.02,.43,0,.02,.31-.59,.52-.06,.94,1.33,1.08,1.29,1.2-.45,2.4-.14-.39,.36-1.28-.73-.94-1.24,.39-1.68-.68-2.51-1.13,.71-.83,2.49,.78,2.31-1.31l-.03,.02c.33,.67,.69,.16,1.04,.02Z"/><path class="af" d="M142.14,188.09c1.62,.83,3.21,1.73,5.03,2.04-2.04,.21-4.19,.69-5.03-2.04Z"/><path class="af" d="M163.12,188.33h.49c.63,1.03,.64,2.21,.78,3.36l-.73,.45c-.18-1.27-.36-2.54-.54-3.81Z"/><path class="af" d="M153.55,189.74c.55,1.4-.3,3.59-1.68,4.31l.17-.95,.36-.87c.22-.5,.73-.88,.64-1.51,.13-.05,.18-.15,.14-.29l.37-.69Z"/><path class="s" d="M162.5,184.32c-1.05-.5-1.86-1.58-3.22-1.36,1.74-1.13,2.87-.8,3.22,1.36Z"/><path class="t" d="M132.69,162.7c.06-.81,.12-1.62,.17-2.43,2.18,.97,.93,1.7-.17,2.43Z"/><path class="s" d="M164.63,195.95c0-.79,0-1.59,0-2.38,1.22,.79,1.21,1.59,0,2.38Z"/><path class="t" d="M140.66,164.6l-.14,1.96c-.44-.09-1.07-.03-1.01-.68,.06-.63,.37-1.2,1.14-1.28Z"/><path class="s" d="M151.23,133.82c.15-.06,.3-.05,.44,.04-.13,1.37,.32,2.78-.28,4.12l-.16-4.16Z"/><path class="s" d="M145.04,167.45c0-.51-.06-1.04,.36-1.45,.46,.23,1.03,.47,.8,1.1-.17,.48-.75,.32-1.17,.36Z"/><path class="s" d="M131.75,138.96h-1.46c-.35-.16-.47-.46-.48-.83,.7,.16,1.97-1.05,1.93,.83Z"/><path class="s" d="M151.3,195.5c-.17,.63,.13,1.39-.53,1.88-.6-.32-.51-.9-.53-1.44l1.06-.44Z"/><path class="w" d="M148.39,189.31l-1.29-.83,.03-.02c-.11-.95,.94-.6,1.23-1.1l.02,1.95Z"/><path class="t" d="M151.3,195.5l-1.06,.44c-.11-1.01,.32-1.52,1.37-1.45,.05,.38,.06,.75-.3,1.01Z"/><path class="w" d="M153.11,132.86l-.06-.62c.64-.31,.92-1.45,1.95-.87-.26,.97-1.19,1.1-1.9,1.5Z"/><path class="t" d="M149.92,201.47l-.15,.65c-.47-.06-.91-.18-.85-.78,.02-.16,.34-.43,.38-.41,.23,.14,.42,.35,.63,.54Z"/><path class="t" d="M136.59,165.05c-.3-.28-.61-.55-1.07-.45,.08-.47,.24-.97,.82-.81,.75,.21,.53,.76,.26,1.26Z"/><path class="t" d="M141.11,161.28l-.12,1.5c-.95-.58-1.02-1.09,.12-1.5Z"/><path class="s" d="M161.99,209.23c-.21-.66,.11-1.15,.51-1.61,.21,.66,.99,1.5-.51,1.61Z"/><path class="t" d="M142.52,151.31l-.07,1.03c-.87-.4-.87-.75,.07-1.03Z"/><path class="t" d="M152.4,192.23l-.36,.87c-.31-.06-.69-.16-.61-.52,.11-.51,.6-.35,.97-.35Z"/><path class="t" d="M133.22,158.43l.11-1.03c.93,.44,.82,.78-.11,1.03Z"/><path class="s" d="M145.65,164.61c-.08-.37-.16-.74,.26-.98,.74,.54,.42,.81-.26,.98Z"/><path class="t" d="M141.03,187.3l.23,.47c-.16,.27-.45,.56-.67,.29-.37-.45,.12-.6,.44-.76Z"/><path class="t" d="M130.75,146.56l-.07,.95c-.31-.05-.68-.1-.65-.51,.03-.39,.41-.4,.72-.44Z"/><path class="t" d="M143.42,138.89l-.03,1.11c-.78-.39-.75-.76,.03-1.11Z"/><path class="t" d="M153.18,190.43c.03,.14-.01,.23-.14,.29l-.7-.41c.07-.11,.12-.31,.21-.33,.35-.07,.5,.18,.63,.45Z"/><path class="t" d="M139.23,175.05v.95c-.31-.05-.67-.09-.67-.48,0-.39,.36-.43,.67-.47Z"/><path class="aj" d="M128.89,207.35c-.66,0-.94-.38-1-1,.57,.09,1.38-.05,1,1Z"/><path class="f" d="M155.89,130.45c.43-.81,.58-2.14,2.01-1.08-.17,.19-.33,.38-.49,.58-.52,.13-.9,.67-1.52,.5Z"/><path class="t" d="M150.25,198.79l-.11,.95c-.22-.14-.62-.26-.64-.42-.05-.49,.4-.47,.74-.53Z"/><path class="w" d="M154.98,131.39c-.37-1.02,.38-.95,.99-1.01,0,.66-.34,.98-.99,1.01Z"/><path class="aj" d="M129.84,208.32c-.49-.17-.96-.37-.98-1,.92-.24,1.18,.15,.98,1Z"/><path class="s" d="M130.29,140.39c.61,.47,.61,.95,0,1.42v-1.42Z"/><path class="s" d="M144.03,179.42l-.3-.56,.3,.56Z"/><path class="s" d="M143.78,175.98l.23-.57-.23,.57Z"/><path class="s" d="M150.43,145.59c.05-.26,.11-.52,.16-.78-.05,.26-.11,.52-.16,.78Z"/><path class="s" d="M144.27,172.18c.06-.25,.11-.49,.17-.74-.06,.25-.11,.49-.17,.74Z"/><path class="s" d="M157.41,129.95c.16-.19,.33-.38,.49-.58h-.06c-.14,.2-.29,.39-.43,.58Z"/><path class="t" d="M136.02,167.46c.14,0,.29-.02,.42-.06,.01,.13,.02,.26,.02,.39-.33,.13-.41-.07-.44-.33Z"/><path class="s" d="M147.08,158.89l.29-.51-.29,.51Z"/><path class="s" d="M150.89,141.8c.06-.25,.13-.5,.19-.76-.06,.25-.13,.5-.19,.76Z"/><polygon class="s" points="177.78 153.21 177.58 153.1 177.67 153.01 177.78 153.21"/><path class="s" d="M177.74,162.32l-.24-.54,.24,.54Z"/><path class="s" d="M130.13,151.32l-.24,.65,.24-.65Z"/><path class="ah" d="M151.44,101.34c-1.67-1.77-1.5-3.91-2.86-5.41-1.89-2.08-3.42-4.49-5.8-6.13-.63-.43-1.22-1.02-1.42-1.84-.2-.84-.03-1.56,.64-2.14,.65-.56,1.21-.11,1.72,.2,3.23,1.99,5.02,5.18,6.45,8.47,.84,1.94,1.92,4.01,1.27,6.84Z"/><path class="w" d="M134,150.82l-.39-.47c0-4.38,1.36-8.55,2.3-12.75,1.24-5.58,3.22-11,4.93-16.47,.55-1.75,.44-3.26-1.04-4.5l.53-.49c1.63,.97,1.99,2.26,1.6,4.18-.92,4.49-2.26,8.82-4,13.04-1.08,2.63-.91,2.86,1.91,2.71,.94-.05,1.88-.21,2.81-.32l.45,.87c-1.92-.2-3.61,.86-5.49,.96-.89,.05-.9,.96-1.1,1.6-1.23,3.8-1.15,7.88-2.51,11.65Z"/><path class="u" d="M134.87,90.79c-.9-1.29-.67-2.34-.7-3.33-.08-2.15-.4-4.2-1.91-5.88-.49-.54-.99-1.28-.32-1.84,.67-.55,1.34,.03,1.72,.65,1.94,3.15,2.46,6.49,1.21,10.38Z"/><path class="w" d="M122.44,87.67c-.47,2.22-.94,4.43-1.42,6.65-.18,.16-.32,.72-.63,.25-.52-.82-.6-1.72-.1-2.61,1.42-2.5,1.16-5.42,2-8.06h.45l.06,.95-.15,2.28-.22,.54Z"/><path class="af" d="M125.91,85.29c.16-.02,.31-.01,.47,.01-.47,2.99-1.12,5.97-.79,9.03-.13,.09-.16,.2-.1,.34l-.89,.13-.17-.49c.35-3.04,.16-6.16,1.48-9.04Z"/><path class="f" d="M128.03,106.8c-1.82,2.5-4.48,3.55-7.48,4.01,2.36-1.48,4.73-2.97,7.09-4.45l.39,.44Z"/><path class="ae" d="M124.43,94.32l.17,.49c-.71,1.15-1.87,.95-2.95,.99-.87,.31-1.38-1.02-2.3-.51l.03,.03c.42-.62,.09-.88-.5-1l.04,.06c0-.63-.02-1.26-.03-1.9,.32-.6,.89-.5,1.42-.52-.5,.89-.42,1.8,.1,2.61,.3,.47,.44-.09,.63-.25,1.13,.31,2.27,1.36,3.4,0Z"/><path class="af" d="M140.33,116.14l-.53,.49c-2.81-1.1-3.16,1.5-4.32,2.87l-.74,.94c-.17-3.51,2.38-5.47,5.59-4.31Z"/><path class="aj" d="M107.56,108.1c-.16,.73-.66,.6-1.04,.31-1.33-1.04-2.77-.92-4.26-.53,.06-.34,.12-.68,.18-1.01l.06-.06c1.9-.41,3.62-.08,5.07,1.3Z"/><path class="u" d="M153.39,104.85c.11,.51-.1,.96-.51,.89-1.01-.17-1.15-1.05-1.23-1.88-.05-.47,.02-1.04,.65-.96,1.22,.15,.67,1.38,1.09,1.96Z"/><path class="aj" d="M122.75,83.9h-.45l.89-4.71,.57,.43c-.12,.77-.24,1.54-.35,2.3-.39,.6,0,1.47-.66,1.98Z"/><path class="ab" d="M131.69,77.86c-.1,.67-.44,1.21-1.14,1.23-.63,.01-.66-.5-.46-.99,.21-.5-.02-1.38,.93-1.28,.56,.06,.67,.55,.67,1.05Z"/><path class="aj" d="M109.4,92c.28-1.35-1.04-2.52-.46-3.91,.09,1.31,2.88,2.3,.46,3.91Z"/><path class="ag" d="M125.48,94.68c-.06-.14-.03-.26,.1-.34,1.56-.06,2.41,.34,1.34,2.14l-1.44-1.79Z"/><path class="f" d="M127.64,106.36c.47-.73,.91-1.49,2.08-1.58,.12,1.3-.7,1.72-1.69,2.02l-.39-.44Z"/><path class="aj" d="M106.04,91.47c1.13,.16,2.27,.33,3.4,.49-1.27,.8-2.46,.97-3.4-.49Z"/><path class="ag" d="M100.29,103.86l-.9-1.92c1.04,.29,1.84,.7,.9,1.92Z"/><path class="af" d="M119.34,95.29c.92-.51,1.43,.82,2.3,.51-1.04,1.05-1.67,.25-2.3-.51Z"/><path class="af" d="M118.89,92.48c0,.63,.02,1.26,.03,1.9-.5-.62-.82-1.25-.03-1.9Z"/><path class="ae" d="M119.87,130.84c.14,.06,.29,.08,.45,.05,.39,.19,.47,.53,.45,.92-.66,.02-.91-.35-.9-.96Z"/><path class="af" d="M118.87,94.31c.59,.12,.92,.38,.5,1-.61-.11-.49-.59-.5-1Z"/><path class="ae" d="M120.21,117.09l-.06,.17-.18-.19,.14-.12,.11,.15Z"/><path class="ag" d="M102.44,106.87l-.32-.22c.28-.31,.25,.11,.38,.16l-.05,.06Z"/><path class="w" d="M159.83,196.12c-.08-1.17-.14-2.34-.23-3.51-.03-.36-.68-.9,.23-.98,.49-.04,.98-.16,1.37,.51,.99,1.68,.97,6.06-.18,7.68-.18,.26-.44,.52-.75,.31-.23-.16-.46-.48-.48-.74-.05-1.09-.02-2.18-.02-3.28h.06Z"/><path class="af" d="M163.68,193.09c.51,1.75,.67,3.49-.07,5.22l.07-5.22Z"/><path class="q" d="M81,56.39c1.17-.47,1.59-1.72,2.54-2.48,1.08-.87,2.1-1.12,3.23-.8,1.2,.34,1.54,1.55,1.67,2.63,.27,2.2-.21,4.21-1.88,5.81-1.26,.07-2.55,.3-3.52-.84l-1.16-1.58c-.54-.86,.99-2.47-1.01-2.81l.05,.03,.07,.03Zm4.86,1.11c-1.08-.22-1.25-.52-1.2-1.52,0-.2-.14-.43-.27-.6-.33-.45-.73-.23-1,.03-.67,.67-1.5,1.49-.71,2.42,.89,1.05,2,.98,3.17-.33Z"/><path class="ah" d="M79.39,59.21c.1-1.04,.57-1.95,1.05-2.86h.5l-.05-.03c-.16,1.17-.03,2.29,.58,3.33,.15,.63,.63,1.19,.34,1.9-.91-.68-2.57-.57-2.42-2.34Z"/><path class="aa" d="M86.06,62.94l5.49-.26c-1.81,2.25-3.79,.37-5.44,.91-.02-.22-.03-.43-.05-.65Z"/><path class="y" d="M86.06,62.94c.02,.22,.03,.43,.05,.65-.87,.54-1.72,.47-2.73,.04,.79-1.2,1.66-1.28,2.68-.68Z"/><path class="y" d="M99.38,58.22c-.04,1.57-1.1,1.89-2.38,1.93h-.23l-.23-.02c.91-.69,1.71-1.55,2.84-1.91Z"/><path class="aa" d="M81.81,61.54c.3-.7-.19-1.27-.34-1.9l.42-.51,1.16,1.58c-.24,.54-.66,.81-1.24,.83Z"/><path class="y" d="M90.79,62.01c.45-.39,.98-.4,1.53-.37,0,.38,1.01,1.17-.36,.98-.41-.06-.78-.4-1.16-.61Z"/><path class="aa" d="M96.58,62.6c.27,.07,.33,.27,.19,.46-.14,.21-.36,.36-.54,.54-.04-.13-.13-.27-.12-.4,.02-.29,.07-.59,.47-.6Z"/><path class="w" d="M104.15,117.07c-1.56,.72-2.94,1.85-4.73,2.03-.72-.42-.3-.77,.14-.94,1.37-.52,2.72-1.04,3.74-2.16,.28-.31,.74-.45,1.04-.17,.44,.41-.18,.8-.19,1.23Z"/><path class="w" d="M89.48,103.92l.75-.74c.46-.26,.75-.83,1.61-.76-.79,1.31-1.56,2.52-2.27,3.76-.37,.64-.67,.87-1.06,.05,.62-.64,.98-1.39,.97-2.3Z"/><path class="aa" d="M88.02,107.16c.25,.04,.6-.1,.64,.32,0,.09-.17,.27-.26,.27-.43,0-.3-.37-.36-.61l-.02,.02Z"/><path class="aj" d="M85.46,50.39c2.42-1.45,4.35-1.66,6.81-.46-2.36-.84-4.43,.25-6.58,.75-.08-.1-.15-.19-.23-.29Z"/><path class="aj" d="M85.69,50.68c-.24,.62-.82,.33-1.33,.87,.19-.98,.79-.87,1.1-1.16,.08,.1,.15,.19,.23,.29Z"/><path class="aa" d="M80.93,56.36h-.5c.21-.28,.4-.41,.56,.03l-.07-.03Z"/><path class="w" d="M118.89,146.83l-.14-.75c.48-1.85,.3-4.02,2.44-5.07-.55,2.03-1.31,3.97-2.3,5.82Z"/><path class="ae" d="M120.87,134.01c.44,.65,.32,1.39,.3,2.11-1.57-.5-.04-1.43-.3-2.11Z"/><path class="q" d="M145.38,56.26c.52,.68,1,1.39,1.56,2.02,3.15,3.53,3.11,3.68-1.43,5.21-.8,.27-1.59,.6-2.38,.9-2.36-.25-4.76,.08-7.11-.47-.69-.16-1.51-.17-2.02-.57-1.31-1.04,.45-.59,.55-.98,1.1-.36,2.06-.88,2.44-2.08,1.95-2.69,1.28-5.22-.45-7.7h2.7l3.44,1.31,2.7,2.36Z"/><path class="ah" d="M132.46,53.8c1.1,.16,1.92-1.4,3.14-.51,1.3,1.99,1.77,4.09,.84,6.37l-1.87,2.38c-2.26,.4-3.77-.51-4.42-2.81-.61,.62-.13,1.17-.42,1.9-1.06-.64-2.69-.47-2.71-2.3-.02-1.51,1.26-2.08,2.33-2.66,.32-.17,1.18,.77,1.06-.51,.51-.47,1.02-.95,1.53-1.42v-.02l.46-.41h.05Zm1.92,2.74c-.22-.18-.48-.5-.81-.64-.54-.25-1.12-.15-1.51,.31-.67,.77-.68,1.67-.37,2.62,.2,.62,.58,.9,1.19,.93,.64,.03,1.06-.38,1.23-.9,.18-.55-.32-.57-.72-.59-.33-.02-.66-.11-.64-.49,.02-.48,.34-.66,.8-.51,.51,.17,.71-.1,.82-.72Z"/><path class="aj" d="M142.85,65.4c-2.59,.88-5.12,.5-7.62-.61,2.55,.21,5.1,.41,7.64,.62h-.03Z"/><path class="aa" d="M134.57,62.04l1.87-2.38,.56,.63c-.38,1.2-1.34,1.73-2.44,2.08-.03-.11-.02-.22,.01-.33Z"/><path class="f" d="M133.63,66.36c-.36-.14-1.03-.09-.5-.79,.2,.24,.89,.18,.5,.79Z"/><path class="ae" d="M127.32,76.76c-.03,1.32-.2,2.61-.79,3.82-.88-1.51-.88-2.84,.79-3.82Z"/><path class="ae" d="M122.75,83.9c.66-.51,.27-1.37,.66-1.98,1.14,1.24,1.17,2.27-.59,2.92l-.06-.94Z"/><path class="ae" d="M122.44,87.67l.22-.54-.22,.54Z"/><path class="ae" d="M126.28,82.01l-.25,.48,.25-.48Z"/><path class="ab" d="M136.99,60.29l-.56-.63c.93-2.28,.46-4.38-.84-6.37,.12-.86-1.54-.37-1.11-1.44,.38-.94,1.11-.07,1.64-.27,1.48-.57,3.05-.12,4.57-.39,1.35-.25,1.57,1.33,2.62,1.71,.42,.15-.49,.6-.64,1.01l-3.44-1.31c.15-.05,.3-.09,.44-.16,.04-.02,.03-.12,.05-.18-1.08,0-2.23-.69-3.19,.35,1.73,2.47,2.4,5.01,.45,7.7Z"/><path class="ab" d="M131.94,54.25c-.37-.21-.98-.23-.91-.82,.02-.21,.41-.48,.66-.53,.67-.11,.54,.57,.77,.9,0,0-.05,.01-.06,0-.42-.16-.5,.07-.47,.42v.02Z"/><path class="u" d="M148.03,138.85c-.94-1.82-.41-3.85-1.19-5.64-.12-.28-.14-.65,.23-.77,.46-.15,.7,.16,.85,.56,.73,1.93,.46,3.9,.1,5.86Z"/><path class="af" d="M144.62,135.65c.11,0,.22,0,.34-.01l-.05,1.44c-.47-.4-.33-.92-.29-1.42Z"/><path class="af" d="M144.61,141.93c-.1-.55-.17-1.1,.28-1.55,.14,.56,.12,1.09-.28,1.55Z"/><path class="w" d="M147.1,188.48c-.07-.03-.13-.08-.2-.09-.04,0-.09,.05-.14,.07,.12,0,.25,0,.37,0l-.03,.02Z"/><path class="ae" d="M148.39,184.08c-.35,.14-.7,.65-1.04-.02,.16-.4,.39-.73,.84-.77,.04,0,.13,.51,.19,.79Z"/><path class="ae" d="M135.48,119.51c1.16-1.37,1.51-3.98,4.32-2.87,1.48,1.24,1.59,2.75,1.04,4.5-1.71,5.47-3.69,10.89-4.93,16.47-.93,4.19-2.31,8.36-2.3,12.75-1.13,3.68-1.71,7.46-1.94,11.3-.04,.63-.03,1.26-.05,1.88-.04,1.07-1.04,2.27,.5,3.13,1.63,.9,2.61-.25,3.74-1.09,.43,.74-.02,1.3-.39,1.87l-2.7,1.03c.71,1.07,1.83,.77,2.84,1.1-.57,.85-.04,2.17-1.73,2.3-1.66,.13-2.81-.46-3.47-1.84-1.03-2.18-1.27-4.56-1.09-6.93,.2-2.67,.58-5.33,.88-7.99,1.59-6.01,2.65-12.13,3.29-18.3,.55-5.39,1.21-10.76,2-16.12,.06-.38-.01-.78-.03-1.18Zm2.93,5.16c1.81-2.73,1.79-4.91-.19-6.64,.98,2.39,.6,4.5,.19,6.64Z"/><path class="ab" d="M85.86,57.5c-1.17,1.31-2.28,1.38-3.17,.33-.79-.93,.03-1.75,.71-2.42,.26-.26,.66-.49,1-.03,.13,.18,.28,.41,.27,.6-.05,1,.12,1.3,1.2,1.52Z"/><path class="y" d="M81.89,59.14l-.42,.51c-.61-1.04-.75-2.15-.58-3.33,2,.34,.46,1.95,1.01,2.81Z"/><path class="ae" d="M136.54,52.59c.96-1.04,2.11-.36,3.19-.35-.01,.06,0,.17-.05,.18-.14,.07-.29,.11-.44,.16h-2.7Z"/><path class="y" d="M134.38,56.55c-.11,.62-.3,.89-.82,.72-.47-.15-.78,.02-.8,.51-.02,.39,.32,.48,.64,.49,.4,.02,.9,.04,.72,.59-.17,.52-.59,.93-1.23,.9-.61-.03-.99-.31-1.19-.93-.31-.95-.3-1.84,.37-2.62,.39-.45,.97-.55,1.51-.31,.33,.15,.58,.46,.81,.64Z"/><path class="ae" d="M131.93,54.22c-.04-.35,.04-.57,.47-.42-.15,.14-.31,.28-.47,.42Z"/><path class="aj" d="M138.41,124.67c.41-2.14,.79-4.25-.19-6.64,1.97,1.74,1.99,3.92,.19,6.64Z"/></g></g></g></g></svg>