<svg xmlns="http://www.w3.org/2000/svg" viewBox="0 0 132.35 84.83"><defs><style>.cls-1,.cls-12,.cls-9{fill:#fff;}.cls-1,.cls-10,.cls-2,.cls-3,.cls-4,.cls-5,.cls-6,.cls-9{stroke:#000;}.cls-1,.cls-10,.cls-11,.cls-2,.cls-3,.cls-4,.cls-5,.cls-6,.cls-7,.cls-9{stroke-miterlimit:10;}.cls-1,.cls-2,.cls-3,.cls-4,.cls-5,.cls-6,.cls-7{stroke-width:0.5px;}.cls-2,.cls-3,.cls-7{fill:#d9d9d9;}.cls-2{opacity:0.99;}.cls-10,.cls-11,.cls-4{fill:none;}.cls-6{fill:#dbdbdb;}.cls-7{stroke:#1f1f1e;}.cls-8{fill:#010101;}.cls-10,.cls-11,.cls-9{stroke-width:0.25px;}.cls-11{stroke:#fff;}</style></defs><g id="Capa_2" data-name="Capa 2"><g id="home"><path class="cls-1" d="M45.69,73.22c-1-3.17.2-6.61,1.77-9.54s3.57-5.72,4.32-9c.82-3.52.08-7.22-.86-10.71s-2.26-7.1-5.32-8.9c-2.21-1.29-4.94-1.35-7.49-1.06-1.82.2-3.77.63-5,2a8.73,8.73,0,0,0-1.69,4.61L29,55.65c-.65,4-1.29,8.22.14,12a12.07,12.07,0,0,0,14.2,7.06C44.68,74.31,46.13,73.47,45.69,73.22Z"/><path class="cls-2" d="M62.82,83.94c-.23-4.18-.41-6.19-3.14-9.36-2-2.27-5.08-3.78-5.85-6.68s.69-6.77-1.9-8.12c-2.12-1.11-4.52,1.18-5.22,3.46S46,68.15,44.51,70c-1.78,2.14-5.13,2.34-7.69,1.22S32.34,68,30.49,65.87s-3.87-5.32-2.1-7.56c.55-.69,1.43-1.23,1.47-2.11s-1.09-1.67-2.06-1.54a5.12,5.12,0,0,0-2.51,1.44C16.21,64,2.11,72.67.29,83.55Z"/><path class="cls-1" d="M36.38,71c1.29,9.45,1.35,12.75,1.35,12.75l9.91,0C47.07,78.05,46.15,76,45,70.28,45.07,70.31,39.66,72.5,36.38,71Z"/><path class="cls-3" d="M27.06,75.32c0-2.83,1.07-6.25,3.85-6.85,2-.42,4,.9,5,2.64a14,14,0,0,1,1.43,5.82c.34,3.81.16,2.33.39,6.82"/><path class="cls-3" d="M47.64,83.79A87.76,87.76,0,0,0,45.42,72a4.89,4.89,0,0,1-.2-2.33c.51-2,3.38-2.31,5-1.1s2.23,3.29,3,5l.42-6.27"/><path class="cls-3" d="M27.35,75.28a6.58,6.58,0,0,0-1.49-5.43C24.7,68.29,23.21,67,22.1,65.4s-1.85-3.64-1.21-5.47"/><path class="cls-3" d="M61.12,80.45a4.08,4.08,0,0,0-1,3.49"/><path class="cls-1" d="M31.05,34.89c-.57-1.7-.76-3.5-1.19-5.24A8.53,8.53,0,0,0,27.32,25a4.11,4.11,0,0,0-5-.38c-1.46,1.14-1.63,3.29-1.31,5.11a14.12,14.12,0,0,0,3.05,6.59,7.37,7.37,0,0,0,3.52,2.52,3.75,3.75,0,0,0,4-1.15A48.72,48.72,0,0,0,32.1,50C33,54,35,57.87,38.35,60.19c2.95,2,6.6,2.63,10.14,3.11,4.65.65,9.92,1,13.51-2,2.34-2,3.46-5,4.31-7.94,1-3.54,1.76-7.32.8-10.88-1.49-5.57-6.9-9.75-7.34-15.5-.32-4.12,2-8,2.34-12.11.46-6.46-4.67-12.56-11-14.11S38,1.7,33.46,6.31A7.33,7.33,0,0,0,26.37,9a11.37,11.37,0,0,0-2.25,7.51,26.91,26.91,0,0,0,1.66,7.8"/><path class="cls-4" d="M23.28,7.25A3.72,3.72,0,0,1,26.15,7a3.17,3.17,0,0,1,2.11,2.51,11.75,11.75,0,0,0-2.11-5.85,5,5,0,0,1,2,5.66"/><path class="cls-4" d="M36.66,10a4.28,4.28,0,0,0-2.3,4,3,3,0,0,1,.19-2.41A3.63,3.63,0,0,1,36.66,10Z"/><path class="cls-4" d="M35.35,9.43A6.19,6.19,0,0,0,34,18.78,5.66,5.66,0,0,1,32.37,14,7.4,7.4,0,0,1,35.35,9.43Z"/><path class="cls-4" d="M35.22,8.93a11.71,11.71,0,0,0-4,13,6.36,6.36,0,0,1-.56-5.33,13,13,0,0,0-.11,8.33,15.06,15.06,0,0,1-.82-7.75,21.3,21.3,0,0,0,1.83,14,16,16,0,0,1-2.74-7"/><path class="cls-4" d="M39.55,14a5.81,5.81,0,0,0-3-5.49,3.56,3.56,0,0,1,4.33,4.17,3.53,3.53,0,0,0-4.45-4.49"/><path class="cls-4" d="M38.58,8a16.21,16.21,0,0,0,11.59,3.46,9,9,0,0,0,3.74-1,4.52,4.52,0,0,0,2.27-3,3,3,0,0,0-1.63-3.25,4.59,4.59,0,0,1,.67,4.46,4.58,4.58,0,0,1-3.52,2.81"/><path class="cls-4" d="M56,8.36a8.08,8.08,0,0,1,4.6,11.4A18.87,18.87,0,0,0,60.44,13C59.85,10.77,58.33,8.69,56,8.36Z"/><path class="cls-4" d="M61.56,13.47a8.56,8.56,0,0,0-5.93-6.85,3,3,0,0,1,3.75.91C60.26,8.64,60.53,10.1,61.56,13.47Z"/><path class="cls-4" d="M55.62,5.68a1.82,1.82,0,0,1,2.52-.24C58.91,6,59.31,6.92,55.62,5.68Z"/><path class="cls-4" d="M59.28,7.59a6.7,6.7,0,0,1,2.07,4.63L61,11.84"/><path class="cls-4" d="M44.75,1c-4,.47-7.8,2.28-9.85,5.53C39.54,2.13,48.73.56,44.75,1Z"/><path class="cls-4" d="M35.93,7a18.6,18.6,0,0,1,19-2.6"/><path class="cls-4" d="M54.81,5.61a15,15,0,0,0-9.05-1.86c-3.11.36-6.1,1.73-7.61,4.15A25.37,25.37,0,0,1,50.49,4.25a8.11,8.11,0,0,1,3.14.39C54.62,5,55.44,6,54.81,5.61Z"/><path class="cls-4" d="M55.77,7.31C54,5.12,50.8,4.44,48,4.9s-5.34,1.86-8.14,4.24A14.39,14.39,0,0,1,53.2,6.4a2.9,2.9,0,0,1,1.4.78C54.94,7.6,55,8.27,55.77,7.31Z"/><path class="cls-4" d="M40.51,9.16A22.15,22.15,0,0,1,55.2,7"/><path class="cls-4" d="M54.63,7.9A21.27,21.27,0,0,0,43,9.16,29.88,29.88,0,0,0,54.63,7.9Z"/><path class="cls-4" d="M43.39,9.75A31.83,31.83,0,0,0,52.57,9"/><path class="cls-4" d="M44.91,10.12a22,22,0,0,0,7.59-.31"/><path class="cls-4" d="M46.15,10.59a9.25,9.25,0,0,0,8.48-2"/><path class="cls-4" d="M50.55,10.6A14.79,14.79,0,0,0,54.88,8"/><path class="cls-4" d="M53.84,9a9.87,9.87,0,0,1-6.59,2.37,10,10,0,0,1-6.49-2.6"/><path class="cls-4" d="M43.26,9.79A14.6,14.6,0,0,0,53,10"/><path class="cls-4" d="M47,10.63a14.57,14.57,0,0,0,5.35-.1,5.3,5.3,0,0,0,3.88-3.36"/><path class="cls-4" d="M53.59,8.15a24.29,24.29,0,0,1-15.73-.1"/><path class="cls-4" d="M42.42,8.84A30,30,0,0,0,54.82,7.4"/><path class="cls-4" d="M44.55,9.22c3.5-.39,7-1.22,11.12-1.33a6.8,6.8,0,0,1,3.47,0"/><path class="cls-4" d="M57,7.87l1.09-.06"/><path class="cls-4" d="M35.91,8.37c-1.26-.27-2.42.72-3.34,1.64a14.32,14.32,0,0,0-2.82,3.49,4.77,4.77,0,0,0-.15,4.33"/><path class="cls-4" d="M28.2,19.9A8.9,8.9,0,0,1,28.32,13,20.48,20.48,0,0,1,32.21,8a9.22,9.22,0,0,0-6,5.36C25.18,15.89,25.43,19,28.2,19.9Z"/><path class="cls-4" d="M29.82,8.42A2.34,2.34,0,0,0,27.53,9a6.39,6.39,0,0,0-1.36,2,17.66,17.66,0,0,0-1.61,4.5,7.28,7.28,0,0,0,.59,4.67"/><path class="cls-4" d="M28.45,9c-1.7.25-2.69,2.07-3.13,3.73a16.19,16.19,0,0,0,1.29,11.59"/><path class="cls-4" d="M26.33,16.25a12.79,12.79,0,0,0,2.59,8.94C27.66,21.71,27.53,17.84,26.33,16.25Z"/><path class="cls-4" d="M31.83,10.93c-2.95,4.22-3.71,9.89-2.31,15.42C26.72,20.59,27.82,13.15,31.83,10.93Z"/><path class="cls-4" d="M28.07,25.8A12,12,0,0,1,29,12"/><path class="cls-4" d="M31.44,10.31,28.2,14.67"/><path class="cls-4" d="M34.31,8.08a10,10,0,0,0-5.69,6"/><path class="cls-4" d="M26.6,17.13a19.17,19.17,0,0,1,2.77-6.71A12.41,12.41,0,0,0,26.6,17.13Z"/><path class="cls-4" d="M27.92,11.13a8.18,8.18,0,0,0-.23,7.56"/><path class="cls-4" d="M38.78,6.52a31.41,31.41,0,0,1,5-2.31"/><path class="cls-4" d="M37.1,7.08l3-1.62"/><path class="cls-4" d="M35,7.46a11.73,11.73,0,0,1,5.14-3.64"/><path class="cls-4" d="M47.49,3.31c-2.87.08-5.71.84-7.52,3.33C42.42,6,44.91,5.44,47.49,3.31Z"/><path class="cls-4" d="M43.08,7.7l4.66-.19"/><path class="cls-4" d="M44.69,9.07l4.86-.44"/><path class="cls-4" d="M27.33,24.51A11.59,11.59,0,0,1,32.09,7.74"/><path class="cls-4" d="M27.51,17.3A8.5,8.5,0,0,1,35,7.94"/><path class="cls-4" d="M30.89,19.41A8.47,8.47,0,0,1,34.86,9"/><path class="cls-4" d="M28.57,17.37A8,8,0,0,1,34.28,7.13"/><path class="cls-4" d="M26.06,14.92A8.07,8.07,0,0,1,33,6.25"/><path class="cls-4" d="M26.38,11.53a11.25,11.25,0,0,1,5.39-4.25,2.63,2.63,0,0,1,2-.13"/><path class="cls-4" d="M34.57,7.57c-1.63-.72-3.71-.22-5,2.08A37.38,37.38,0,0,1,34.57,7.57Z"/><path class="cls-4" d="M40.39,5.1a7,7,0,0,0-3,2.84C38.91,6.74,40.61,5.77,40.39,5.1Z"/><path class="cls-4" d="M45.21,4.35c-2.15.91-4.24,2-5.22,3.52A23.27,23.27,0,0,0,45.21,4.35Z"/><path class="cls-4" d="M40.72,8.11,45,5.44"/><path class="cls-4" d="M43.7,4.11c-2.3.65-4.39,2-7,2.77A8.14,8.14,0,0,1,43.7,4.11Z"/><path class="cls-4" d="M42.06,3a33.59,33.59,0,0,0-6,2.91A13.25,13.25,0,0,1,42.06,3Z"/><path class="cls-4" d="M39.57,2.84a27.76,27.76,0,0,0-6,3.45C36.27,4.28,39.23,2.65,39.57,2.84Z"/><path class="cls-4" d="M38.89,3.55A15.32,15.32,0,0,1,47,1.08"/><path class="cls-4" d="M40.54,3.32a15.46,15.46,0,0,1,8.8-1.45"/><path class="cls-4" d="M42.8,4.29a13.43,13.43,0,0,1,7.25-.15"/><path class="cls-4" d="M41,6.62A31.69,31.69,0,0,1,49,6"/><path class="cls-5" d="M43.34,19.32,43,19.25c-.41,0-.79.52-.85.73a1.08,1.08,0,0,0,.4,1c.59.24,1,.33,1.2-.25.09-.32.31-.85.06-1.08S43.45,19.33,43.34,19.32Z"/><path class="cls-5" d="M56,18.32a1.1,1.1,0,0,0-1.15.33,1.19,1.19,0,0,0,0,1.11,1,1,0,0,0,1.62-.21A1,1,0,0,0,56,18.32Z"/><path class="cls-5" d="M52.58,15.8a1.16,1.16,0,0,1,.75-1,2.23,2.23,0,0,1,1.28-.08,6.68,6.68,0,0,1,3.47,2.06A32,32,0,0,0,52.58,15.8Z"/><path class="cls-5" d="M46.46,16.21v-.64a3.5,3.5,0,0,0-2.43.25,17.29,17.29,0,0,0-5.07,3C41.61,18,44.21,17,46.46,16.21Z"/><path class="cls-6" d="M51.89,19.2a1.11,1.11,0,0,0-1.44.48,3.26,3.26,0,0,0-.31,1.64L50,32.87a2.81,2.81,0,0,0,.75,2.39,1.83,1.83,0,0,0,1.37.27,5.5,5.5,0,0,0,1.35-.45l3-1.32a.88.88,0,0,0,.52-.42A.84.84,0,0,0,57,32.8,90.16,90.16,0,0,0,51.89,19.2Z"/><path class="cls-4" d="M54.29,19.84,56.8,22"/><path class="cls-4" d="M44.52,21a5.39,5.39,0,0,1-1.13,1.47"/><path class="cls-4" d="M44.37,25.56,42.2,29.37"/><path class="cls-4" d="M42.82,25.77c-.78,1.17-1.53,2.36-2.22,3.59"/><path class="cls-4" d="M41.31,26a29,29,0,0,0-1.66,2.58"/><path class="cls-4" d="M56.59,23.58l-1,1.36"/><path class="cls-4" d="M57.41,24.16a5.24,5.24,0,0,0-1.07,1.63"/><path class="cls-4" d="M62.16,39.74C56,45.87,46.37,41,46.37,41"/><path class="cls-4" d="M54.48,52.22A2.19,2.19,0,0,1,56,50.74a2.22,2.22,0,0,1,2,.59"/><path class="cls-4" d="M58.77,48.6l.49,1.66"/><path class="cls-4" d="M60.46,48.69l.29,1.73"/><path class="cls-4" d="M60.21,45.79l.46,2.07"/><path class="cls-4" d="M61.58,44.8l.83,1.69"/><path class="cls-4" d="M60.67,42.86l.08,1.69"/><path class="cls-4" d="M61.33,41.7l.75,1.65"/><path class="cls-4" d="M62.74,40.75l1,1.32"/><path class="cls-4" d="M63.27,39.63l1,1"/><path class="cls-4" d="M63.57,37.93l1.25,1.32"/><path class="cls-4" d="M64.81,41.37,65.23,44"/><path class="cls-4" d="M63.15,43.77,64,45.5"/><path class="cls-4" d="M64.68,46.37,65,48.56"/><path class="cls-4" d="M63.11,47.69l0,2"/><path class="cls-4" d="M63.11,50.71v1.9"/><path class="cls-4" d="M64.8,49.88l0,1.74"/><path class="cls-4" d="M64.51,53.56l0,1.91"/><path class="cls-4" d="M63.81,54.6l-.37,2.31"/><path class="cls-4" d="M61.37,53.11l.09,1.82"/><path class="cls-4" d="M61.62,56.58l-.08,1.82"/><path class="cls-4" d="M61.17,59.68l-.13,1"/><path class="cls-4" d="M60.46,56.58l0,1.78"/><path class="cls-4" d="M59.47,59.89l-.16,1.45"/><path class="cls-4" d="M58.31,58.53l-.12,1.4"/><path class="cls-4" d="M57.07,60.68,56.66,62"/><path class="cls-4" d="M59.06,54l.08,1.74"/><path class="cls-4" d="M57.36,54.35l0,1.61"/><path class="cls-4" d="M59.76,51.29l.08,1.49"/><path class="cls-4" d="M56.2,47.2l.29,1.61"/><path class="cls-4" d="M57.82,45.13l.53,1.53"/><path class="cls-4" d="M58.64,43.68l.54,1.53"/><path class="cls-4" d="M56.19,44,56,45.87"/><path class="cls-4" d="M54.22,43.64a3,3,0,0,0,.83,2.11l.08,1.82"/><path class="cls-4" d="M52.65,44.14,52.57,46"/><path class="cls-4" d="M53,46.82A7,7,0,0,0,53.52,49"/><path class="cls-4" d="M51.46,46.91l0,1.94"/><path class="cls-4" d="M51.78,50.09l.29,1.66"/><path class="cls-4" d="M53,52.12l.61,2.44"/><path class="cls-4" d="M55.54,53.77a5.13,5.13,0,0,0,.09,2"/><path class="cls-4" d="M56.12,56.91l-.12,2"/><path class="cls-4" d="M54.3,58.48l-.16,2.15"/><path class="cls-4" d="M52.4,57.45l-.12,1.32"/><path class="cls-4" d="M52.15,54.89l.62,2"/><path class="cls-4" d="M51,52.7l.21,2.1"/><path class="cls-4" d="M49.71,51,49.84,53"/><path class="cls-4" d="M48.72,47.73l.08,2"/><path class="cls-4" d="M50.08,44.22l-.2,2.07"/><path class="cls-4" d="M48.51,43.64,48,46.08"/><path class="cls-4" d="M46.69,43.6l-.12,1.57"/><path class="cls-4" d="M45.51,45.71l-.19,2.19"/><path class="cls-4" d="M47.19,46.62,46.9,49"/><path class="cls-4" d="M50.16,56.79l.07,2.65"/><path class="cls-4" d="M51.16,58.82l-.08,2.35"/><path class="cls-4" d="M48.17,57.41l0,1.9"/><path class="cls-4" d="M48.8,53.73l.09,1.74"/><path class="cls-4" d="M46.28,53.52l-.08,1.86"/><path class="cls-4" d="M46.86,51.08v2"/><path class="cls-4" d="M44.88,50.17V52"/><path class="cls-4" d="M43.51,47.53l.12,1.73"/><path class="cls-4" d="M43.1,45.71,43,47.07"/><path class="cls-4" d="M43.48,43.31l.38,1.61"/><path class="cls-4" d="M45,41.28V42.9"/><path class="cls-4" d="M42.23,43.1l0,1.45"/><path class="cls-4" d="M40.8,44.3a5,5,0,0,0,.85,2.53L41.82,49"/><path class="cls-4" d="M43,50.22v2.27"/><path class="cls-4" d="M43.88,53.23l.17,1.86"/><path class="cls-4" d="M44.83,56.25l.05,1.61"/><path class="cls-4" d="M45.91,57.41,46,59.64"/><path class="cls-4" d="M44.42,59.93v1.45"/><path class="cls-4" d="M41.77,59.52l0,1.07"/><path class="cls-4" d="M42.34,57.16l.33,1.74"/><path class="cls-4" d="M40.15,56.67l0,1.73"/><path class="cls-4" d="M41.57,54.23l.12,1.44"/><path class="cls-4" d="M40.66,52.37l0,1.9"/><path class="cls-4" d="M40.66,50.22l0,1.24"/><path class="cls-4" d="M38.67,46.29,39.42,48"/><path class="cls-4" d="M38.47,49.1,38.34,51"/><path class="cls-4" d="M38.14,52.78,38.26,54"/><path class="cls-4" d="M38.63,55.88l-.2,1.41"/><path class="cls-4" d="M36.8,55.55l-.13,1.65"/><path class="cls-4" d="M36.94,52.28v1.49"/><path class="cls-4" d="M35,52.41l.17,1.44"/><path class="cls-4" d="M36.77,48.27l0,1.53"/><path class="cls-4" d="M36.44,46v1.53"/><path class="cls-4" d="M34.29,45.67l.37,1.69"/><path class="cls-4" d="M36.18,42.82l.24,1.65"/><path class="cls-4" d="M38,43.35l-.08,1.86"/><path class="cls-4" d="M39.83,41.33l-.12,2"/><path class="cls-4" d="M37.47,40.46l.29,1.4"/><path class="cls-4" d="M38.14,39.3l.49,1.49"/><path class="cls-4" d="M36,37.94l.16,1.65"/><path class="cls-4" d="M34.75,36.61,34.87,38"/><path class="cls-4" d="M34.08,39l.17,1.32"/><path class="cls-4" d="M31.39,38.59l2.32-2.31"/><path class="cls-4" d="M31.6,40.33l1.49-1.61"/><path class="cls-4" d="M31.48,42,33,40.38"/><path class="cls-4" d="M31.6,43.56l1.82-2.07"/><path class="cls-4" d="M31.6,45.25l2.07-2.19"/><path class="cls-4" d="M31.73,47.32l1.86-2.07"/><path class="cls-4" d="M31.81,49.18,33.92,47"/><path class="cls-4" d="M32.39,50.92,34.33,49"/><path class="cls-4" d="M33.05,52.7l1.7-1.91"/><path class="cls-4" d="M33.88,54.43l1.4-1.65"/><path class="cls-4" d="M45,38.85l-.08,1.36"/><path class="cls-4" d="M46.94,37.27l-.16,1.86"/><path class="cls-4" d="M49.09,36.57l-.41,2"/><path class="cls-4" d="M50.54,37.23l-.41,2"/><path class="cls-4" d="M52.48,37.65l.13,2.1"/><path class="cls-4" d="M54.51,37.52,55,39.47"/><path class="cls-4" d="M56.19,37l.5,2"/><path class="cls-4" d="M57.86,36.82l.54,1.82"/><path class="cls-4" d="M59.18,36.61l1.24,1.45"/><path class="cls-4" d="M60.55,36l.86,1.45"/><path class="cls-4" d="M29.46,34.23a3.59,3.59,0,0,1-1.1-2.72,4.38,4.38,0,0,0-.87-2.83,2.36,2.36,0,0,0-3.1,0,3,3,0,0,0-.79,3.14"/><path class="cls-4" d="M28.36,32.44c-.48.24-1.05-.07-1.49-.38s-1-.64-1.48-.45A1,1,0,0,0,25,33a1.45,1.45,0,0,0,1.4.66c.37,0,.78-.17,1.1,0S27.89,34.45,28.36,32.44Z"/><path class="cls-4" d="M29.35,22.72A17.28,17.28,0,0,1,32,28.39"/><path class="cls-4" d="M29.45,20.53a30.42,30.42,0,0,1,2.92,4.83"/><path class="cls-4" d="M33.47,21.72a12.22,12.22,0,0,1-1.42-8.84A7.16,7.16,0,0,0,33.47,21.72Z"/><path class="cls-4" d="M33.65,11.28a10.17,10.17,0,0,0,.8,6.69"/><path class="cls-4" d="M35.92,9.37a8.15,8.15,0,0,0,.3,5.91"/><path class="cls-4" d="M37.55,9.39a10.55,10.55,0,0,1,3.86,2.24"/><path class="cls-4" d="M48.91,10.3a6.55,6.55,0,0,0,4.76.43,6.5,6.5,0,0,0,3.73-3"/><path class="cls-4" d="M56.7,10.19l2,.83"/><path class="cls-7" d="M12.11,83.4a26,26,0,0,0-2.1-4c-1-1.52-2.43-3-4.24-3-2.31.07-3.66,2.57-4.42,4.75-.26.72-.5,1.44-.73,2.17Z"/><path class="cls-8" d="M25.8,24.31a26.92,26.92,0,0,1-1.66-7.79A11.41,11.41,0,0,1,26.38,9,7.33,7.33,0,0,1,33.46,6.3C38,1.7,44.85-.84,51.12.7s11.4,7.65,10.94,14.09c-.29,4.12-1.39,7.54-2.05,7.93,2.08-12.67-2.16-12.14-3.1-13.27-8.56,6.22-17.79-.54-20,.6s-8.41,8.21-7.63,17.2C28.18,24.25,25.8,24.31,25.8,24.31Z"/></g><g id="Capa_20" data-name="Capa 20"><path class="cls-9" d="M123.85,67.53c-4.74-3.3-11.45-2.66-17.66-4.16-3.52-.84-7.17-1.7-10.72-1-3.82.77-7,3.25-10.69,4.62-2.77,1-5.87,1.51-8.11,3.44A10.79,10.79,0,0,0,73.39,78,22.15,22.15,0,0,0,74,84.61l49.75,0c.12-.89-.12-1.63,0-2.53C124.18,77.23,125.94,73.07,123.85,67.53Z"/><path class="cls-10" d="M83.53,73.23c-1.1,2.48-3,4.52-4.64,6.67a18.67,18.67,0,0,0-2.83,4.7"/><path class="cls-11" d="M107.11,63.58C101,62,94.8,60.91,89,65.17"/><path class="cls-10" d="M107.43,63.31a71.33,71.33,0,0,1-7.3,11.82,13.17,13.17,0,0,1-5.2,4.24,6,6,0,0,1-6.33-1c-1.43-1.47-1.7-3.7-1.61-5.75a21.73,21.73,0,0,1,1.85-7.85"/><path class="cls-10" d="M87.69,65.62a13.86,13.86,0,0,1,1.71-1.25c.17-.1.42-.18.53,0s-.07.37-.23.5A5,5,0,0,0,87.86,68"/><path class="cls-10" d="M106.17,65.57a3.18,3.18,0,0,0,.48-1.87.77.77,0,0,1,.06-.5.47.47,0,0,1,.59-.07c.18.11.3.3.44.35l.55.24"/><path class="cls-9" d="M116.54,84.71a38,38,0,0,1-.7-10.08c.22-3.29,1.63-7.28,5.48-7.89a7,7,0,0,1,6.22,2.52A13.94,13.94,0,0,1,130,75c.81,3.18,1.53,6.37,2.18,9.58Z"/><path class="cls-9" d="M95.78,44.17a7.18,7.18,0,0,0-5.06,2,7.09,7.09,0,0,0-2.07,5c0,2.26,1.1,4.35,1.73,6.52s.7,4.82-.78,6.59c-1.55,2.38-.26,5.84,2.15,7.32s5.52,1.37,8.24.55a8.41,8.41,0,0,0,4.75-3.83,12.26,12.26,0,0,0,2.06-6.64c0-3.11-.09-6.22-.29-9.33A10.89,10.89,0,0,0,105.15,47a7,7,0,0,0-5.06-2.9A20.76,20.76,0,0,0,95.78,44.17Z"/><path d="M111.48,8.22a11,11,0,0,0-6-4.13A30.3,30.3,0,0,0,98.24,3,28,28,0,0,0,90,3.33C83.62,4.82,78.89,10.48,76.8,16.65s-2,12.86-1.64,19.37q.65,12.21,2.22,24.35a120.68,120.68,0,0,0,28.36-11.51l.14,13.25,13.46-4a4.7,4.7,0,0,0,2.49-1.36,4.58,4.58,0,0,0,.69-2.47c.6-7.29,1.18-14.61.59-21.9s-2.39-14.59-6.24-20.8C115.7,9.69,113.84,7.7,111.48,8.22Z"/><path class="cls-9" d="M95.73,17.77A15.09,15.09,0,0,0,89,13.31a7.8,7.8,0,0,0-7.62,1.78c-1.44,1.52-2,3.65-2.52,5.69-2.11,8.46-4.22,17.44-1.63,25.77,1.47,4.71,5,9.3,9.92,9.86,2.74.32,5.46-.66,8-1.74s5-2.25,7.46-3.53a6.39,6.39,0,0,0,2.63-2.09,6.58,6.58,0,0,0,.46-4.15l-2-19.37c-.25-2.33-.54-4.78-2-6.65S97.34,16.1,95.73,17.77Z"/><path class="cls-10" d="M86.36,27.05a51.15,51.15,0,0,0-3.24,11.44,1.46,1.46,0,0,0,.1,1.07,1.51,1.51,0,0,0,1,.48c1.13.21,2.27.38,3.41.53a1.36,1.36,0,0,0,1.07-.16A1.39,1.39,0,0,0,89,39.12,95.29,95.29,0,0,0,86.36,27.05Z"/><path d="M99.86,27.58a6.42,6.42,0,0,0-7.54-2.17c-.2.08-.43.24-.39.45s.38.26.62.22a13.48,13.48,0,0,1,3.16-.24,4.25,4.25,0,0,1,2.83,1.29,2,2,0,0,0,.49.48A.87.87,0,0,0,99.86,27.58Z"/><path d="M94.86,29.47a1.1,1.1,0,1,1-1.51.5A1.11,1.11,0,0,1,94.86,29.47Z"/><path d="M92.77,32a1,1,0,0,1,.8.47,6.64,6.64,0,0,0,.57.79.74.74,0,0,0,.89.18.75.75,0,0,1-.94.14,2,2,0,0,1-.68-.76A2.8,2.8,0,0,0,92.77,32Z"/><path d="M94.92,35a11.32,11.32,0,0,0-1.08,1,.73.73,0,0,0-.16.23.23.23,0,0,0,.07.26c.12.08.28,0,.39-.13l.74-.7a.63.63,0,0,0,.22-.29A.38.38,0,0,0,94.92,35Z"/><path d="M93.63,34.73a4.37,4.37,0,0,0-1.3,1.34A1.35,1.35,0,0,0,93.63,34.73Z"/><path d="M92.5,34.57a3.38,3.38,0,0,0-1.2,1.56A1.6,1.6,0,0,0,92.5,34.57Z"/><path d="M80.59,27.93a1.1,1.1,0,0,0-1.29.62,1.06,1.06,0,0,0,.53,1.32,1,1,0,0,0,1.32-.51A1.11,1.11,0,0,0,80.59,27.93Z"/><path d="M83.25,23.73a7.17,7.17,0,0,0-3.18-.43,2.62,2.62,0,0,0-1.2.35,1.14,1.14,0,0,0-.53,1.08,3.85,3.85,0,0,1,3.2-.42,7,7,0,0,0,.74.23,1,1,0,0,0,.74-.12A.63.63,0,0,0,83.25,23.73Z"/><path d="M81.21,30.46l-2.12,1c-.13.06-.28.16-.28.3A.26.26,0,0,0,79,32a.62.62,0,0,0,.33,0A3.12,3.12,0,0,0,81.21,30.46Z"/><path d="M80.59,33.71a3.3,3.3,0,0,1-1,1.11,1.58,1.58,0,0,0-.68,1.28,5.53,5.53,0,0,0,1.56-1.6A.75.75,0,0,0,80.59,33.71Z"/><path d="M79.09,34a3,3,0,0,0-1.25,1c-.08.11-.15.28-.06.37s.24,0,.35,0A1.93,1.93,0,0,0,79.09,34Z"/><path d="M77.83,33.66l-.94.83c-.09.09-.19.21-.13.32s.3.07.44,0a7.48,7.48,0,0,0,1.11-1.14C78.07,33.52,77.75,33.62,77.83,33.66Z"/><path d="M92.94,44.49a9.69,9.69,0,0,1-8.36,1.62,2.33,2.33,0,0,0-.82-.15.64.64,0,0,0-.38,1.2,1.81,1.81,0,0,0,.82.3,10.54,10.54,0,0,0,4.9-.13A6.25,6.25,0,0,0,92.94,44.49Z"/><path d="M104.15,28.61a162.86,162.86,0,0,1-1.88,28c2-7.52,4-15.22,3.32-23"/><path class="cls-12" d="M107.11,30.51a5.25,5.25,0,0,1,1-2.11,1.77,1.77,0,0,1,2.14-.43,2.64,2.64,0,0,1,.86,2l.64,5.94a1.87,1.87,0,0,1-.14,1.22,1.79,1.79,0,0,1-1.52.57,3.84,3.84,0,0,1-2.82-.76,3.51,3.51,0,0,1-.69-3.09A21.67,21.67,0,0,1,107.11,30.51Z"/><path d="M110,31.22a.92.92,0,0,0-.83-1,1.53,1.53,0,0,0-1.29.58,4.86,4.86,0,0,0-.77,3.45,2.79,2.79,0,0,1,.95-.38,1,1,0,0,1,.93.29.63.63,0,0,1-.09.9c-.19.12-.45.09-.66.18s-.37.4-.17.53a.36.36,0,0,0,.18,0,1.37,1.37,0,1,0-.42-2.68,4.32,4.32,0,0,1,.25-1.38,1.45,1.45,0,0,1,1-.91C109.55,30.73,110.09,31,110,31.22Z"/><path class="cls-12" d="M110.18,9.17A18.29,18.29,0,0,0,96.26,16.3a18.47,18.47,0,0,1,6.59-4.8C105.33,10.53,106.19,9.73,110.18,9.17Z"/></g></g></svg>