<?xml version="1.0" encoding="UTF-8"?><svg xmlns="http://www.w3.org/2000/svg" viewBox="0 0 139.66 267.16"><defs><style>.d,.e,.f,.g{fill:#fff;}.e,.h,.i,.j,.f,.k,.g,.l,.m,.n,.o,.p,.q{stroke-miterlimit:10;stroke-width:.25px;}.e,.p{stroke:#fff;}.h{stroke:#bababa;}.h,.j,.r{fill:#b8baba;}.i,.j,.f,.l,.m,.n,.q{stroke:#000;}.k,.g,.o{stroke:#1f1f1e;}.k,.l,.o,.s,.q{fill:#d9d9d9;}.m,.p{fill:none;}.n{fill:#dbdbdb;}.o{opacity:.65;}.q{opacity:.99;}</style></defs><g id="a"/><g id="b"><g id="c"><g><path class="g" d="M53.05,135.09c-.7-.59-1.83-.32-2.45,.35s-.87,1.6-1.04,2.5c-.32,1.64-.5,3.3-.67,4.96l-.49,4.54c-.47-.08-.57-.69-.61-1.17s-.29-1.09-.76-1c-.34,.06-.48,.47-.51,.81-.12,1.46,.79,2.94,2.13,3.49,.7,.59,1.84,.55,2.5-.08,.02,.65,.57,1.24,1.21,1.3s1.29-.43,1.41-1.07c-.06,.48,.55,.81,1.01,.67,.46-.14,.77-.56,1.05-.95,1.08-1.52,2.17-3.09,2.71-4.88,.89-2.96,.15-6.14-.6-9.14-.15-.59-.31-1.21-.75-1.63-.43-.41-1.04-.55-1.63-.59-1.79-.1-3.61,.73-2.53,1.89Z"/><path class="g" d="M48.39,147.37c-.05,.33,.09,.69,.36,.89"/><path class="g" d="M47.89,147.13c-.26,.05-.46,.31-.44,.57"/><path class="g" d="M48.39,149.39c.28,.11,.61,.02,.85-.17s.41-.44,.57-.7c.68-1.06,1.37-2.14,1.68-3.36"/><path class="g" d="M51.95,144.21c.18-.33,.28-.7,.31-1.08"/><path class="g" d="M54.34,144.58c.2-.36,.29-.78,.24-1.19"/><path class="g" d="M56.34,144.69c.29-.31,.44-.75,.41-1.18"/><path class="g" d="M55.37,146.17l.21-.59"/><path class="g" d="M53.24,145.88l.31-.58"/><path class="g" d="M51.27,149.49c.64-.87,1.15-1.84,1.52-2.86"/><path class="g" d="M53.67,150.03c.55-.65,.95-1.42,1.18-2.25"/><path class="k" d="M58.32,136.2l-1.08-25.33c-.13-3.07-.51-6.61-3.05-8.33-1.79-1.21-4.28-1.07-6.13,.05-1.85,1.12-3.09,3.08-3.69,5.16s-.62,4.3-.45,6.46c.62,7.98,3.68,15.62,3.98,23.7,1.72,.97,3.76,1.32,5.7,.99,1.94-.33,3.75-1.35,4.73-2.7Z"/><path class="s" d="M45.53,106.72c-.95-1.61-.43-3.83,.91-5.13s3.32-1.77,5.18-1.62c1.4,.11,2.81,.57,3.81,1.55s1.49,2.57,.94,3.86c-1.09-2.01-3.61-2.99-5.85-2.59s-4.15,2.01-5,3.93Z"/><path class="o" d="M47.59,133.84c3.82,1.04,8.2-.54,10.48-3.79"/><path class="o" d="M49.58,134.23c-.8,1.34-.72,3.17,.21,4.42"/><path class="o" d="M52.42,133.69c-.63,1.57-.51,3.44,.33,4.92"/><path class="o" d="M55.14,132.67c-.53,1.67-.24,3.59,.76,5.03"/><path class="k" d="M56.74,106.09c1.91-10.91,2.17-22.12,.75-33.11-.62-4.84-1.65-9.84-4.61-13.71-.76-.99-1.83-1.97-3.07-1.84-1.58,.17-2.38,1.97-2.79,3.51-2.16,8.16-2.22,16.72-2.27,25.17l-.08,15.74c-.01,1.95,0,4,.9,5.73,1.18,2.28,3.91,3.63,6.42,3.16,2.51-.46,4.4-2.72,4.74-4.66Z"/><path class="s" d="M55.69,106.5c.03,1.09-.62,2.13-1.52,2.75s-2,.86-3.09,.89c-1.24,.03-2.51-.22-3.55-.9s-2.39-2.32-2.41-3.57c-.55,.98,.4,2.71,.95,3.7,.56,1.02,1.31,1.95,2.29,2.57,1.83,1.15,4.4,.94,6.02-.48s2.88-4.09,2-6.07c.03,.53-.64,1.2-.69,1.12Z"/><path class="l" d="M41.85,237.54l-.53,7.53c5.06,3.84,10.42,7.24,16.02,10.17-.87-5.76-6.43-9.84-7.25-15.61-.18-1.25-.13-2.57-.62-3.72-.8-1.9-3.12-2.93-4.99-2.21-1.87,.72-2.99,3.07-2.62,3.85Z"/><path class="l" d="M46.63,244.24c.95-1.3,2.58-2.02,4.13-1.84"/><path class="l" d="M48.84,247.69c.58-1.55,2.15-2.63,3.75-2.57"/><path class="l" d="M50.99,248.44c.54-.76,1.47-1.2,2.37-1.12"/><path class="l" d="M52.43,248.78c.42-.4,.97-.66,1.54-.72"/><path class="f" d="M48.97,240.24l1.92-.39,2.49-37.71c.17-2.65,.28-5.56-1.24-7.65-1.94-2.68-5.98-2.71-8.5-.67s-3.67,5.57-3.83,8.97,.01,6.54,.49,9.91c.8,5.66,1.2,11.2,.8,16.91-.13,1.9,.16,8.22,.37,10.11,.1,.93,.67,.51,2.59,.75,1.75,.21,3.52,.07,4.92-.22Z"/><path class="f" d="M51.02,233.58c-2.96,1.67-6.5,2.12-9.43,1.25-.57,.35-.71,1.24-.41,1.87s.93,1.01,1.57,1.13,1.3,.03,1.95-.06,1.3-.19,1.95-.08"/><path class="d" d="M52.8,204.15c-.19-1.95,.54-4.78-.16-6.6s-1.99-3.46-3.72-4.04c-2.11-.7-4.46,.49-6.05,2.15-1.59,1.66-1.41,2.81-2.37,4.97,.51-2.87-.57-4.07,.9-6.52s5.56-3.47,8.22-2.96c2.4,.46,4.38,2.01,4.2,7.4-.09,2.63-.7,2.29-1.02,5.59Z"/><path class="m" d="M42.69,193.4l.08,2.58"/><path class="m" d="M42.74,198.37v2.37"/><path class="m" d="M42.51,203.76v2.5"/><path class="m" d="M42.6,209.56l.28,2.7"/><path class="m" d="M42.97,215.45l.09,3"/><path class="m" d="M43.15,221.55l-.18,2.9"/><path class="m" d="M42.78,226.94l-.09,2.7"/><path class="m" d="M42.6,232.24l-.28,1.9"/><path class="f" d="M46.74,204.98c.98,1.81,3.92,1.51,5.25-.05,1.34-1.57,1.52-3.78,1.65-5.84l1.6-26.53,1.83-30.24c.18-3.02,.27-6.35-1.66-8.68-2.72-3.29-8.32-2.65-11.38,.33s-4.08,7.45-4.47,11.7c-.37,4.12-.26,8.26-.16,12.4l.85,33.21c.08,3.1,.17,6.27,1.34,9.14s3.63,5.43,5.14,4.57Z"/><path class="f" d="M45.56,198.6c1.91-.12,3.78-.91,5.2-2.18"/><path class="f" d="M47.15,200.8l3.8-1.68"/><path class="f" d="M42.38,151.98l.2,2.94"/><path class="f" d="M42.79,157.45l-.2,2.53"/><path class="f" d="M42.68,163.03l-.1,2.53"/><path class="f" d="M42.46,169.62l-.12,3.95"/><path class="f" d="M42.24,177.02l.08,2.84"/><path class="f" d="M42.48,182.09l-.1,3.04"/><path class="f" d="M42.25,188.79l.18,3.14"/><path class="f" d="M42.58,194.67l.1,1.93"/><path class="e" d="M41.18,197.98c.31,2.3,1.18,4.49,2.77,6.17,.37,.39,.77,.75,1.26,.96s1.09,.21,1.53-.09c.88,.86,2.22,1.24,3.42,.96s2.27-2.34,2.3-2.48"/><path class="f" d="M30.39,204.82c1.44-18.24,3.99-36.39,7.64-54.32,.81-3.98,1.64-8.27-.03-11.97-1.45-3.19-4.56-5.35-7.82-6.64-4.97-1.96-11.56-1.74-14.58,2.66-1.78,2.6-1.86,5.97-1.87,9.12-.06,17.03-.12,34.06-.18,51.09-.02,4.82,.26,10.29,3.95,13.39,2.08,1.74,5.05,2.35,7.64,1.58s5.09-2.85,5.25-4.91Z"/><path class="f" d="M17.17,149.87l.26,4.58"/><path class="f" d="M17.31,157.58v4.71"/><path class="f" d="M17.31,167.39l.26,4.45"/><path class="f" d="M17.44,175.11l.26,3.92"/><path class="f" d="M17.7,181.91l-.26,2.62"/><path class="f" d="M17.31,187.93l-.13,2.62"/><path class="f" d="M16.91,195.91l.13,3.01"/><path class="f" d="M17.17,202.45v3.01"/><path class="f" d="M23.32,198.92l4.26,.04c.05-.23,.1-.47-4.26-.04Z"/><path class="l" d="M15.68,246.47l-.64,8.71c6.09,4.44,12.54,8.38,19.27,11.76-1.04-6.66-7.73-11.39-8.72-18.06-.21-1.45-.15-2.97-.74-4.31-.96-2.2-3.76-3.38-6.01-2.55-2.25,.83-3.6,3.55-3.15,4.45Z"/><path class="l" d="M21.42,254.23c1.14-1.5,3.1-2.34,4.97-2.13"/><path class="l" d="M24.08,258.21c.69-1.79,2.59-3.04,4.51-2.98"/><path class="l" d="M26.67,259.08c.65-.88,1.77-1.38,2.85-1.29"/><path class="l" d="M28.39,259.47c.51-.47,1.17-.76,1.86-.83"/><path class="f" d="M24.48,249.43l2.26-.43,2.93-41.14c.21-2.89,.33-6.07-1.46-8.35-2.29-2.92-7.05-2.96-10.02-.73-2.97,2.23-4.33,6.08-4.52,9.78-.19,3.71,.02,7.14,.57,10.81,.94,6.18,1.42,12.22,.94,18.45-.16,2.07,.18,8.97,.43,11.03,.12,1.01,.79,.56,3.05,.81,2.07,.23,4.15,.07,5.8-.24Z"/><path class="f" d="M26.89,242.17c-3.5,1.82-7.66,2.31-11.13,1.36-.67,.38-.84,1.35-.49,2.03s1.1,1.1,1.86,1.23,1.54,.04,2.3-.07,1.54-.21,2.3-.09"/><path class="d" d="M28.99,210.06c-.22-2.13,.64-5.22-.19-7.19s-2.35-3.77-4.39-4.4c-2.49-.77-5.27,.53-7.14,2.34-1.87,1.81-1.67,3.07-2.79,5.42,.6-3.13-.68-4.44,1.07-7.11s6.55-3.79,9.69-3.23c2.83,.5,5.17,2.2,4.96,8.07-.1,2.87-.83,2.5-1.21,6.1Z"/><path class="m" d="M17.07,198.33l.09,2.81"/><path class="m" d="M17.13,203.75v2.59"/><path class="m" d="M16.85,209.64v2.72"/><path class="m" d="M16.96,215.96l.33,2.94"/><path class="m" d="M17.4,222.39l.11,3.27"/><path class="m" d="M17.62,229.04l-.22,3.16"/><path class="m" d="M17.18,234.92l-.11,2.94"/><path class="m" d="M16.96,240.7l-.33,2.07"/><path class="f" d="M38.09,150.16c3.5-1.59,6.96-3.28,10.37-5.05,2.79-1.45,5.69-3.11,7.19-5.87,1.22-2.25,1.32-4.92,1.39-7.49l.29-10.26c.03-.93,.03-1.94-.52-2.7-.95-1.31-2.99-1.13-4.44-.41-3.06,1.51-5.08,4.61-8.11,6.17-4.07,2.09-8.97,.98-13.39-.18l-10.01-2.61c-1.53-.4-3.11-.8-4.67-.56-2.5,.39-4.51,2.45-5.38,4.82-.87,2.37-.73,5.01-.19,7.47,.83,3.78,2.56,7.3,4.38,10.72,.58,1.1,1.2,2.22,2.17,3,1.01,.81,2.29,1.17,3.54,1.51,5.83,1.59,12.31,3.74,17.38,1.43Z"/><path class="d" d="M56.89,134.6c-4.25,7.07-11.37,12.35-19.36,14.38,.42,1.11,1.71,1.69,2.9,1.65s2.3-.58,3.37-1.1c3.14-1.53,6.33-3.09,8.9-5.46,2.57-2.37,4.47-5.7,4.19-9.47Z"/><path class="d" d="M36.9,149.33c-.47,1.43-1.81,2.45-3.26,2.87s-2.99,.34-4.48,.17c-3.69-.43-7.4-1.43-10.47-3.53s-5.45-5.4-5.83-9.1c4.79,7.54,14.2,11.84,23.04,10.54,.31-.42,.79-.71,1-.95Z"/><path class="m" d="M54.84,120.66c-4.03,2.57-8.17,5.18-12.84,6.16-6.65,1.4-13.49-.66-19.98-2.71"/><path class="m" d="M40.95,132.93c-.2,2.96,0,5.95,.59,8.87"/><path class="m" d="M42.67,143.65c1.98-.63,3.82-1.66,5.39-3.02"/><path class="m" d="M44.34,145.13c2.04-.97,3.95-2.19,5.7-3.62"/><path class="m" d="M53.83,134.26c.31,1.28,.88,2.51,1.67,3.57"/><path class="m" d="M41.62,145.97c-2.43,1.56-5.17,2.62-8.02,3.08"/><path class="m" d="M39.85,145.53c-2,.85-4.08,1.51-6.21,1.96"/><path class="m" d="M37.37,144.72c-2.77,1.03-5.68,1.66-8.63,1.86"/><path class="m" d="M34.96,143.86l-6.33,.12"/><path class="m" d="M24.77,135.02c-.94,1.61-2.04,3.19-3.56,4.27-1.52,1.09-3.53,1.62-5.3,1"/><path class="m" d="M17.12,143.23l.06,2.59"/><path class="m" d="M41.72,129.05c-.47-.59-1.5-.6-1.97,0s-.24,1.59,.44,1.91,1.61-.16,1.74-.9-.57-1.51-.22-1.01Z"/><path class="f" d="M41.65,54.47c-.74-2.36,.15-4.93,1.32-7.11,1.17-2.18,2.66-4.26,3.22-6.67,.61-2.63,.05-5.38-.64-7.98-.68-2.55-1.68-5.29-3.96-6.62-1.65-.97-3.68-1-5.58-.79-1.36,.15-2.81,.47-3.73,1.48-.83,.91-1.07,2.21-1.26,3.43l-1.82,11.18c-.49,2.98-.96,6.12,.11,8.94,1.53,4.05,6.42,6.49,10.57,5.26,1.03-.3,2.11-.93,1.78-1.12Z"/><path class="q" d="M58.17,132.58l-3.64-68.27c-.17-3.11-.43-6.47-2.46-8.83-1.46-1.69-3.78-2.82-4.35-4.98-.56-2.1,.51-5.04-1.42-6.05-1.58-.82-3.37,.88-3.89,2.58s-.5,3.66-1.64,5.02c-1.33,1.59-3.83,1.74-5.73,.91-1.9-.83-3.34-2.43-4.72-3.98-1.41-1.59-2.88-3.96-1.56-5.63,.4-.51,1.06-.92,1.09-1.57,.04-.73-.81-1.25-1.53-1.15s-1.32,.6-1.87,1.07c-6.76,5.89-15.02,10.34-18.09,18.77-2.82,7.71-.71,18-.5,26.21,.26,10.27-.59,20.57-2.54,30.65-.44,2.26-.9,4.73,.17,6.77,1.04,1.99,3.19,3.2,5.32,3.92,12.38,4.18,27.55,12.83,27.4,12.66,.14,.22-1.17-4.85-1.13-9.73-.02,.55-.41-2.87-.43-2.33,.03-.62-.3-2.68-.27-3.3,.87-.19,2.49,.64,4.11,.39s3.12-1.11,3.99-1.3c-.21,5.46-.12,10.93,.27,16.38,2.91-4.61,8.1-7.71,13.43-8.23Z"/><path class="f" d="M34.72,52.82c2.49,7.83,2.38,46.96,1.62,70.19-.02,.57,.05,2.34,.05,2.34,0,0,2.01,.27,2.72,.33,1.6,.13,2.97-.04,5.37-1.24-2.14-7.22,.14-14.81-.17-22.28-.3-7.2-1.19-14.17-.81-21.37,.28-5.31,.93-10.63,.41-15.92-.42-4.28-1.91-8.31-2.73-12.58,.02,.02-4.01,1.65-6.45,.54Z"/><path class="l" d="M27.78,56.03c.02-2.11,.8-4.66,2.87-5.1,1.47-.32,2.97,.67,3.73,1.96s.93,2.84,1.06,4.34c2.12,23.36,.9,67.99,.94,67.87"/><path class="l" d="M44.37,124.21h.15c-1.84-6.32-.14-13.12-.15-19.71,0-4.81-.92-9.57-1.19-14.37-.35-6.46,.49-12.94,.46-19.41-.03-5.78-.77-11.56-2.19-17.17-.14-.57-.3-1.17-.15-1.74,.38-1.45,2.51-1.72,3.71-.82,1.19,.9,1.66,2.45,2.25,3.7l.31-4.67"/><path class="l" d="M28,56c.37-1.4-.25-2.88-1.11-4.04s-1.97-2.13-2.8-3.31-1.37-2.71-.9-4.08"/><path class="l" d="M53.15,59.85c-1.06,2.65-1.38,5.6-.9,8.41"/><path class="l" d="M53.48,86.99c-1.23,3.25-2.65,6.42-4.26,9.5"/><path class="l" d="M54.45,119.3c-2.66,1.73-4.97,3.99-6.76,6.61-.47,.7-.91,1.64-.42,2.33"/><path class="l" d="M54.69,123.63c-2.61,1.69-4.62,4.29-5.59,7.24"/><path class="l" d="M19.41,96.38c.44,3.49,1.88,6.85,4.1,9.58"/><path class="l" d="M19.77,102.64c1.1,3.01,3,5.73,5.45,7.8"/><path class="l" d="M18.83,105.96c.95,4.54,3.71,8.69,7.53,11.32"/><path class="l" d="M22.77,72.2c2.81,.64,5.82,.38,8.47-.75"/><path class="l" d="M27.13,70.97c1.17-.45,2.43-.7,3.68-.74"/><path class="l" d="M20.4,72.7c-.97,1.72-1.52,3.67-1.6,5.63"/><path class="f" d="M30.75,25.92c-.43-1.27-.57-2.61-.89-3.9s-.86-2.6-1.89-3.45-2.64-1.1-3.69-.28c-1.09,.85-1.21,2.45-.98,3.81,.31,1.79,1.1,3.5,2.27,4.9,.7,.84,1.57,1.59,2.62,1.88s2.31,.02,2.96-.86c-.13,3.05-.26,6.14,.38,9.12s2.13,5.9,4.65,7.63c2.19,1.5,4.92,1.96,7.55,2.32,3.47,.48,7.39,.73,10.07-1.53,1.74-1.47,2.58-3.72,3.21-5.91,.76-2.64,1.31-5.46,.6-8.11-1.11-4.15-5.14-7.26-5.47-11.54-.24-3.07,1.52-5.95,1.74-9.02,.35-4.81-3.48-9.36-8.16-10.51-4.68-1.15-9.8,.74-13.18,4.18-1.94-.45-4.03,.48-5.28,2.03s-1.73,3.61-1.68,5.59,.61,3.93,1.24,5.81"/><path class="m" d="M24.96,5.34c.65-.34,1.44-.41,2.14-.18s1.3,.75,1.57,1.87c-.12-1.56-.67-3.08-1.57-4.36,1.35,.86,1.99,2.7,1.46,4.22"/><path class="m" d="M34.93,7.41c-1.09,.54-1.79,1.77-1.71,2.98-.21-.58-.16-1.25,.14-1.79s.84-.94,1.57-1.19Z"/><path class="m" d="M33.95,6.96c-1.13,.7-1.94,1.92-2.13,3.24s.21,2.72,1.09,3.72c-.93-.92-1.38-2.29-1.18-3.58s1.05-2.46,2.22-3.38Z"/><path class="m" d="M33.85,6.59c-2.91,2.14-4.17,6.26-2.97,9.66-.72-1.17-.88-2.67-.42-3.97-.71,1.98-.74,4.2-.08,6.2-.71-1.83-.92-3.84-.61-5.78-.75,3.49-.26,7.23,1.36,10.41-1.08-1.54-1.79-3.34-2.04-5.2"/><path class="m" d="M37.08,10.33c.23-1.54-.73-3.18-2.22-4.09,.86-.21,1.83,.05,2.47,.66s.94,1.57,.76,2.44c.31-.92,.06-2.01-.62-2.7s-1.77-.95-2.69-.65"/><path class="m" d="M36.36,5.9c2.37,1.96,5.56,2.84,8.63,2.58,.97-.08,1.95-.28,2.79-.76s1.53-1.3,1.69-2.26-.32-2.04-1.21-2.42c.73,.92,.93,2.23,.5,3.32s-1.46,1.92-2.62,2.1"/><path class="m" d="M49.35,6.17c1.64,.55,3.02,1.85,3.67,3.46s.56,3.49-.24,5.03c.17-1.69,.31-3.42-.13-5.05s-1.57-3.19-3.29-3.43Z"/><path class="m" d="M53.48,9.97c-.31-2.27-1.99-4.31-4.42-5.1,.87-.59,2.14-.15,2.79,.68s.86,1.91,1.63,4.42Z"/><path class="m" d="M49.05,4.17c.38-.6,1.31-.59,1.88-.18s.87,1.1-1.88,.18Z"/><path class="m" d="M48.9,3.13l1.49-.65c.27,.22,.54,.43-1.49,.65Z"/><path class="m" d="M48.95,3.33c.57-.26,1.27-.22,1.81,.1"/><path class="m" d="M49.97,3.34c.91,.11,1.69,.73,2.19,1.49s.79,1.64,1.06,2.51"/><path class="m" d="M51.78,5.59c.94,.89,1.5,2.16,1.53,3.44l-.27-.28"/><path class="m" d="M49.55,2.55c-2.56-1.53-5.63-2.19-8.6-1.85-2.96,.35-5.8,1.69-7.33,4.11,3.45-3.29,8.7-4.57,15.93-2.27Z"/><path class="m" d="M34.39,5.13c3.86-3.19,9.56-3.97,14.13-1.93"/><path class="m" d="M48.45,4.12c-2.03-1.16-4.42-1.65-6.74-1.38s-4.54,1.29-5.67,3.09c2.76-1.67,5.96-2.62,9.19-2.72,.79-.02,1.6,0,2.34,.3s1.35,.98,.88,.72Z"/><path class="m" d="M49.16,5.38c-1.35-1.63-3.7-2.13-5.79-1.8s-3.98,1.39-6.06,3.16c2.69-2.28,6.57-3.1,9.93-2.04,.38,.12,.78,.28,1.04,.58s.33,.81,.88,.09Z"/><path class="m" d="M37.79,6.76c3.32-1.78,7.26-2.35,10.95-1.61"/><path class="m" d="M48.31,5.83c-3.03-.42-6.14-.24-8.69,.94,2.46,.26,4.96,.07,8.69-.94Z"/><path class="m" d="M39.94,7.2c2.29,.14,4.6-.05,6.83-.57"/><path class="m" d="M41.07,7.48c1.88,.25,3.8,.17,5.65-.23"/><path class="m" d="M41.99,7.82c2.17,.6,4.63,.03,6.32-1.48"/><path class="m" d="M45.28,7.83c1.18-.46,2.28-1.13,3.22-1.97"/><path class="m" d="M47.72,6.67c-1.35,1.16-3.13,1.8-4.9,1.77-1.78-.03-3.53-.74-4.83-1.94"/><path class="m" d="M39.84,7.23c2.31,.87,4.92,.92,7.26,.13"/><path class="m" d="M42.65,7.86c1.33,.14,2.69,.26,3.98-.08s2.52-1.23,2.9-2.51"/><path class="m" d="M47.54,6.01c-3.77,1.27-7.96,1.25-11.71-.08"/><path class="m" d="M39.22,6.52c3.11,.29,6.28-.07,9.23-1.07"/><path class="m" d="M40.8,6.81c2.61-.29,5.18-.91,8.28-.99,.84-.23,1.74-.23,2.58,0"/><path class="m" d="M50.08,5.8l.81-.05"/><path class="m" d="M34.37,6.17c-.94-.2-1.8,.54-2.49,1.22-.79,.79-1.6,1.6-2.1,2.6s-.65,2.25-.11,3.23"/><path class="m" d="M28.63,14.76c-.66-1.63-.63-3.53,.09-5.13s2.11-2.89,2.9-3.77c-2,.55-3.7,2.07-4.47,3.99s-.59,4.2,1.48,4.91Z"/><path class="m" d="M29.83,6.21c-.57-.22-1.24,.01-1.7,.42s-.75,.97-1.01,1.53c-.52,1.07-1,2.18-1.2,3.35s-.12,2.43,.44,3.48"/><path class="m" d="M28.81,6.66c-1.27,.19-2,1.54-2.33,2.78-.76,2.86-.41,6.01,.96,8.63"/><path class="m" d="M27.23,12.04c-.15,2.19,.27,4.42,1.93,6.65-.94-2.59-1.03-5.47-1.93-6.65Z"/><path class="m" d="M31.33,8.08c-2.2,3.14-2.76,7.37-1.72,11.48-2.09-4.29-1.27-9.83,1.72-11.48Z"/><path class="m" d="M28.53,19.15c-.95-1.56-1.4-3.43-1.28-5.25s.83-3.61,1.99-5.03"/><path class="m" d="M31.04,7.62l-2.41,3.24"/><path class="m" d="M33.18,5.96c-1.97,.79-3.56,2.47-4.23,4.49"/><path class="m" d="M27.44,12.7c.4-2.02,1.31-3.93,2.06-5-1.32,1.45-1.91,3.54-2.06,5Z"/><path class="m" d="M28.42,8.23c-.97,1.7-1.04,3.88-.17,5.63"/><path class="m" d="M36.51,4.79c1.2-.68,2.46-1.26,3.75-1.71"/><path class="m" d="M35.26,5.21l2.22-1.2"/><path class="m" d="M33.69,5.49c1-1.23,2.34-2.18,3.83-2.71"/><path class="m" d="M43,2.4c-2.14,.07-4.26,.63-5.61,2.48,1.83-.5,3.69-.89,5.61-2.48Z"/><path class="m" d="M39.71,5.67l3.48-.14"/><path class="m" d="M40.91,6.69l3.61-.32"/><path class="m" d="M27.98,18.19c-1.33-2.05-1.73-4.69-1.06-7.05s2.39-4.39,4.61-5.44"/><path class="m" d="M28.12,12.82c-.18-1.64,.32-3.34,1.34-4.63,1.03-1.29,2.57-2.15,4.21-2.34"/><path class="m" d="M30.63,14.39c-.51-1.41-.5-3.01,.04-4.41s1.6-2.6,2.92-3.31"/><path class="m" d="M28.91,12.87c-.5-1.55-.33-3.31,.47-4.73s2.2-2.5,3.78-2.89"/><path class="m" d="M27.03,11.05c-.13-1.51,.35-3.07,1.29-4.25s2.35-1.99,3.86-2.21"/><path class="m" d="M27.27,8.53c.96-1.44,2.39-2.57,4.02-3.17,.47-.17,1-.3,1.46-.1"/><path class="m" d="M33.38,5.58c-1.21-.54-2.76-.16-3.74,1.54,1.24-.73,2.68-1.1,3.74-1.54Z"/><path class="m" d="M37.71,3.74c-.9,.56-1.81,1.12-2.24,2.11,1.14-.89,2.4-1.62,2.24-2.11Z"/><path class="m" d="M41.3,3.18c-1.6,.68-3.16,1.46-3.89,2.62,1.41-.82,2.88-1.55,3.89-2.62Z"/><path class="m" d="M37.95,5.98l3.21-1.99"/><path class="m" d="M40.17,3c-1.71,.48-3.27,1.47-5.17,2.06,1.18-1.3,2.78-2.22,5.17-2.06Z"/><path class="m" d="M38.95,2.19c-1.48,.48-2.87,1.26-4.48,2.16,1.45-1.1,3.03-2.01,4.48-2.16Z"/><path class="m" d="M37.1,2.06c-1.34,.51-2.58,1.27-4.44,2.57,1.98-1.5,4.18-2.71,4.44-2.57Z"/><path class="m" d="M36.59,2.58c1.79-1.17,3.92-1.82,6.07-1.84"/><path class="m" d="M37.82,2.41c2.02-.99,4.33-1.37,6.56-1.08"/><path class="m" d="M39.51,3.14c1.74-.53,3.63-.57,5.4-.12"/><path class="m" d="M38.18,4.87c1.96-.41,3.97-.57,5.97-.47"/><path class="i" d="M39.91,14.33s-.24-.05-.28-.05c-.31-.03-.6,.39-.64,.55-.06,.22,.06,.53,.3,.74,.44,.18,.77,.24,.89-.19,.07-.24,.23-.63,.04-.81-.15-.14-.24-.24-.32-.25Z"/><path class="i" d="M49.35,13.58c-.27-.15-.71,.07-.85,.25s-.11,.54,.03,.82c.3,.38,1,.29,1.2-.15s-.21-.82-.38-.92Z"/><path class="i" d="M47.13,11.91c-.03-.32,.19-.63,.48-.79s.63-.18,.95-.15c1.01,.08,1.94,.61,2.72,1.27-1.36-.19-2.72-.38-4.15-.33Z"/><path class="i" d="M42.23,12.01v-.47c-.58-.22-1.23-.04-1.8,.18-1.38,.53-2.66,1.29-3.77,2.26,1.97-.66,3.91-1.41,5.58-1.97Z"/><path class="n" d="M46.27,14.24c-.35-.23-.85,0-1.07,.36s-.23,.8-.23,1.22l-.1,8.6c0,.65,.03,1.4,.56,1.78,.29,.21,.67,.25,1.02,.2s.68-.2,1-.34l2.26-.98c.16-.07,.33-.15,.39-.32,.05-.13,0-.27-.04-.4-1.1-3.49-2.21-7-3.78-10.13Z"/><path class="m" d="M48.06,14.72l1.87,1.59"/><path class="m" d="M40.78,15.57c-.21,.41-.5,.78-.84,1.09"/><path class="m" d="M40.67,18.97l-1.62,2.84"/><path class="m" d="M39.52,19.13c-.59,.87-1.14,1.76-1.66,2.67"/><path class="m" d="M38.39,19.28c-.44,.62-.86,1.26-1.23,1.92"/><path class="m" d="M49.77,17.5l-.76,1.01"/><path class="m" d="M50.38,17.93c-.34,.35-.61,.76-.8,1.21"/><path class="m" d="M53.92,29.54c-3.39,2.33-8.04,2.71-11.76,.95"/><path class="m" d="M48.2,38.83c.16-.53,.61-.96,1.15-1.1s1.14,.04,1.53,.43"/><path class="m" d="M51.39,36.14l.37,1.23"/><path class="m" d="M52.66,36.2l.22,1.29"/><path class="m" d="M52.47,34.04l.34,1.54"/><path class="m" d="M53.49,33.3l.62,1.26"/><path class="m" d="M52.81,31.86l.06,1.26"/><path class="m" d="M53.3,30.99l.55,1.23"/><path class="m" d="M54.35,30.28l.74,.99"/><path class="m" d="M54.75,29.45l.77,.77"/><path class="m" d="M54.97,28.19l.93,.98"/><path class="m" d="M55.9,30.75l.31,1.97"/><path class="m" d="M54.66,32.53l.65,1.29"/><path class="m" d="M55.8,34.47l.22,1.63"/><path class="m" d="M54.63,35.46l.03,1.45"/><path class="m" d="M54.63,37.71v1.42"/><path class="m" d="M55.89,37.09l-.03,1.29"/><path class="m" d="M55.67,39.83l-.03,1.42"/><path class="m" d="M55.15,40.6l-.28,1.72"/><path class="m" d="M53.33,39.49l.06,1.35"/><path class="m" d="M53.52,42.08l-.06,1.35"/><path class="m" d="M53.18,44.39l-.09,.71"/><path class="m" d="M52.66,42.08l.03,1.32"/><path class="m" d="M51.92,44.54l-.12,1.08"/><path class="m" d="M51.06,43.53l-.09,1.05"/><path class="m" d="M50.13,45.13l-.31,1.02"/><path class="m" d="M51.61,40.17l.06,1.29"/><path class="m" d="M50.35,40.42l.03,1.2"/><path class="m" d="M52.13,38.14l.06,1.11"/><path class="m" d="M49.49,35.09l.22,1.2"/><path class="m" d="M50.69,33.55l.4,1.14"/><path class="m" d="M51.3,32.47l.4,1.14"/><path class="m" d="M49.48,32.72l-.13,1.39"/><path class="m" d="M48.01,32.44c.02,.43,.04,.86,.62,1.57l.06,1.35"/><path class="m" d="M46.84,32.81l-.06,1.39"/><path class="m" d="M47.09,34.81c.04,.55,.18,1.1,.4,1.61"/><path class="m" d="M45.95,34.87l-.02,1.45"/><path class="m" d="M46.19,37.24l.22,1.23"/><path class="m" d="M47.07,38.75l.46,1.82"/><path class="m" d="M48.99,39.98c-.07,.49-.05,1,.06,1.48"/><path class="m" d="M49.42,42.32l-.09,1.45"/><path class="m" d="M48.07,43.49l-.12,1.6"/><path class="m" d="M46.65,42.72l-.09,.99"/><path class="m" d="M46.47,40.82l.46,1.51"/><path class="m" d="M45.61,39.18l.15,1.57"/><path class="m" d="M44.65,37.89l.09,1.54"/><path class="m" d="M43.91,35.49l.06,1.51"/><path class="m" d="M44.93,32.87l-.15,1.54"/><path class="m" d="M43.76,32.44l-.4,1.82"/><path class="m" d="M42.4,32.41l-.09,1.17"/><path class="m" d="M41.52,33.98l-.15,1.63"/><path class="m" d="M42.77,34.66l-.22,1.76"/><path class="m" d="M44.98,42.23l.06,1.97"/><path class="m" d="M45.73,43.74l-.06,1.76"/><path class="m" d="M43.5,42.69l.02,1.42"/><path class="m" d="M43.97,39.95l.06,1.29"/><path class="m" d="M42.09,39.8l-.06,1.39"/><path class="m" d="M42.53,37.98v1.45"/><path class="m" d="M41.05,37.31v1.39"/><path class="m" d="M40.03,35.33l.09,1.29"/><path class="m" d="M39.72,33.98l-.06,1.02"/><path class="m" d="M40.01,32.19l.28,1.2"/><path class="m" d="M41.12,30.69v1.2"/><path class="m" d="M39.08,32.04l.03,1.08"/><path class="m" d="M38.01,32.93c.03,.45,.07,.9,.63,1.88l.12,1.6"/><path class="m" d="M39.62,37.34v1.69"/><path class="m" d="M40.31,39.58l.12,1.39"/><path class="m" d="M41.02,41.83l.03,1.2"/><path class="m" d="M41.82,42.69l.09,1.66"/><path class="m" d="M40.71,44.57v1.08"/><path class="m" d="M38.74,44.26l-.03,.8"/><path class="m" d="M39.16,42.51l.24,1.29"/><path class="m" d="M37.53,42.14l.03,1.29"/><path class="m" d="M38.58,40.32l.09,1.08"/><path class="m" d="M37.91,38.94l-.03,1.42"/><path class="m" d="M37.91,37.34l.03,.92"/><path class="m" d="M36.43,34.41l.55,1.29"/><path class="m" d="M36.28,36.5l-.09,1.42"/><path class="m" d="M36.03,39.25l.09,.92"/><path class="m" d="M36.4,41.55l-.15,1.05"/><path class="m" d="M35.03,41.31l-.1,1.23"/><path class="m" d="M35.14,38.88v1.11"/><path class="m" d="M33.69,38.97l.12,1.08"/><path class="m" d="M35.01,35.89l-.03,1.14"/><path class="m" d="M34.77,34.16v1.14"/><path class="m" d="M33.17,33.95l.28,1.26"/><path class="m" d="M34.57,31.83l.18,1.23"/><path class="m" d="M35.94,32.22l-.06,1.39"/><path class="m" d="M37.29,30.72l-.09,1.48"/><path class="m" d="M35.54,30.07l.22,1.05"/><path class="m" d="M36.03,29.21l.37,1.11"/><path class="m" d="M34.43,28.19l.12,1.23"/><path class="m" d="M33.5,27.21l.09,1.05"/><path class="m" d="M33.01,28.99l.12,.99"/><path class="m" d="M31.01,28.68l1.72-1.72"/><path class="m" d="M31.16,29.98l1.11-1.2"/><path class="m" d="M31.07,31.24l1.11-1.23"/><path class="m" d="M31.16,32.38l1.35-1.54"/><path class="m" d="M31.16,33.64l1.54-1.63"/><path class="m" d="M31.26,35.18l1.39-1.54"/><path class="m" d="M31.32,36.57l1.57-1.63"/><path class="m" d="M31.75,37.86l1.45-1.42"/><path class="m" d="M32.24,39.18l1.26-1.42"/><path class="m" d="M32.86,40.48l1.05-1.23"/><path class="m" d="M41.14,28.87l-.06,1.02"/><path class="m" d="M42.59,27.7l-.12,1.39"/><path class="m" d="M44.19,27.17l-.31,1.51"/><path class="m" d="M45.27,27.67l-.31,1.45"/><path class="m" d="M46.71,27.98l.09,1.57"/><path class="m" d="M48.22,27.88l.34,1.45"/><path class="m" d="M49.48,27.45l.37,1.51"/><path class="m" d="M50.72,27.36l.4,1.35"/><path class="m" d="M51.7,27.21l.92,1.08"/><path class="m" d="M52.72,26.77l.65,1.08"/><path class="m" d="M29.57,25.43c-.61-.44-.75-1.27-.82-2.02s-.12-1.57-.65-2.11c-.6-.6-1.67-.58-2.31-.03s-.84,1.52-.58,2.33"/><path class="m" d="M28.75,24.1c-.36,.18-.78-.05-1.11-.28s-.73-.48-1.1-.34c-.38,.14-.52,.67-.32,1.02s.64,.52,1.04,.49c.28-.02,.58-.13,.82,.01,.3,.17,.31,.59,.67-.91Z"/><path class="m" d="M29.48,16.86c.82,1.33,1.65,2.69,1.94,4.22"/><path class="m" d="M29.56,15.23c.83,1.13,1.56,2.33,2.18,3.59"/><path class="m" d="M32.55,16.12c-1.19-1.84-1.49-4.23-1.06-6.59-1.08,2.04-1.01,4.64,1.06,6.59Z"/><path class="m" d="M32.69,8.34c-.38,1.66-.16,3.45,.6,4.98"/><path class="m" d="M34.38,6.92c-.48,1.43-.4,3.03,.23,4.4"/><path class="m" d="M35.59,6.93c1.06,.34,2.05,.92,2.88,1.67"/><path class="m" d="M44.06,7.61c1.08,.55,2.38,.67,3.54,.32,1.16-.35,2.18-1.16,2.78-2.22"/><path class="m" d="M49.85,7.53l1.51,.62"/><path class="g" d="M8.24,140.95c-.71-.69-1.94-.49-2.68,.17s-1.07,1.64-1.33,2.59c-.48,1.73-.81,3.5-1.14,5.26l-.9,4.83c-.5-.12-.56-.79-.56-1.3s-.23-1.19-.73-1.13c-.37,.04-.56,.46-.62,.83-.25,1.55,.61,3.22,2.01,3.92,.71,.69,1.94,.74,2.7,.12-.04,.7,.51,1.38,1.2,1.49s1.42-.35,1.61-1.03c-.1,.51,.53,.92,1.04,.81s.88-.53,1.21-.93c1.29-1.55,2.6-3.13,3.33-5.01,1.2-3.1,.67-6.57,.11-9.85-.11-.64-.23-1.33-.67-1.81-.43-.48-1.08-.68-1.71-.76-1.93-.25-3.96,.49-2.88,1.82Z"/><path class="g" d="M2.2,153.73c-.09,.35,.04,.75,.32,.99"/><path class="g" d="M1.68,153.43c-.28,.03-.52,.29-.52,.57"/><path class="g" d="M2.03,155.89c.29,.14,.65,.07,.93-.11s.48-.44,.67-.7c.82-1.08,1.66-2.18,2.09-3.47"/><path class="g" d="M6.3,150.64c.22-.34,.36-.73,.43-1.13"/><path class="g" d="M8.85,151.23c.25-.37,.37-.81,.36-1.26"/><path class="g" d="M11,151.51c.34-.31,.54-.77,.54-1.23"/><path class="g" d="M9.83,153.02l.28-.62"/><path class="g" d="M7.55,152.53l.38-.6"/><path class="g" d="M5.13,156.24c.76-.88,1.4-1.87,1.87-2.94"/><path class="g" d="M7.67,157.01c.65-.65,1.15-1.45,1.46-2.31"/><path class="k" d="M13.84,142.58l.93-27.25c.11-3.31,0-7.13-2.6-9.18-1.83-1.44-4.53-1.5-6.62-.45s-3.59,3.05-4.41,5.23-1.02,4.55-1.02,6.89c0,8.61,2.67,17.05,2.33,25.73,1.77,1.18,3.95,1.73,6.07,1.53,2.12-.2,4.16-1.14,5.32-2.5Z"/><path class="s" d="M2.48,109.92c-.89-1.81-.15-4.15,1.41-5.43,1.56-1.28,3.73-1.63,5.73-1.31,1.5,.23,2.99,.84,3.99,1.98,1,1.14,1.39,2.87,.69,4.22-1.01-2.24-3.65-3.51-6.09-3.26s-4.64,1.81-5.72,3.81Z"/><path class="k" d="M2.13,112.05c.2,2.3,2.16,4.31,4.45,4.59"/><path class="k" d="M4,110.76c.03,1.23,.71,2.42,1.75,3.08,1.04,.65,2.42,.74,3.53,.23"/><path class="o" d="M2.45,139.16c4.03,1.43,8.89,.09,11.62-3.2"/><path class="o" d="M4.57,139.74c-.98,1.37-1.04,3.34-.14,4.76"/><path class="o" d="M7.68,139.39c-.81,1.64-.83,3.65-.05,5.3"/><path class="o" d="M10.7,138.53c-.72,1.75-.56,3.83,.41,5.45"/><path class="k" d="M14.62,110.16c2.97-11.54,4.17-23.54,3.55-35.44-.27-5.24-.97-10.68-3.84-15.08-.74-1.13-1.81-2.27-3.15-2.23-1.72,.05-2.73,1.92-3.3,3.54-3.01,8.57-3.78,17.75-4.53,26.8l-1.39,16.87c-.17,2.09-.33,4.28,.49,6.22,1.08,2.54,3.92,4.21,6.67,3.92s4.97-2.56,5.5-4.61Z"/><path class="k" d="M3.13,105.63c-.27,1.57,.36,3.27,1.58,4.29,1.23,1.02,3.01,1.34,4.51,.79"/><path class="k" d="M4.7,106.89c.55,.91,1.14,1.85,2.03,2.41s2.21,.64,2.94-.13"/><path class="s" d="M13.46,110.51c-.06,1.17-.85,2.23-1.86,2.82s-2.23,.76-3.41,.7c-1.34-.07-2.69-.44-3.76-1.26-1.06-.82-2.38-2.69-2.3-4.02-.68,1.01,.21,2.94,.71,4.04,.52,1.14,1.25,2.2,2.25,2.94,1.88,1.38,4.66,1.37,6.54-.02s3.44-4.15,2.66-6.34c-.01,.57-.79,1.23-.83,1.14Z"/></g><g><path class="i" d="M100.28,241.25c-3.31,2.85-6.45,5.93-9.41,9.21-.23,.25-.46,.52-.57,.85s-.06,.76,.2,.97c.25,.2,.61,.15,.91,.08,3.69-.79,7.35-1.93,10.67-3.88,1.3-.76,2.59-1.7,3.29-3.11s.62-3.4-.53-4.39c-.71-.61-1.69-.74-2.57-.54s-1.74,.59-1.99,.8Z"/><path class="f" d="M105.03,241.81l.08-6.5c0-.77,0-1.59-.36-2.26-.65-1.17-2.27-1.35-3.32-.6-1.05,.75-1.56,2.16-1.64,3.53s.18,2.72,.38,4.07c.09,.63,.18,1.29,.52,1.8,.48,.71,1.36,.97,2.16,.88s1.54-.49,2.18-.92Z"/><path class="j" d="M93.38,143.46c-.9-3.76,.11-7.9,2.28-10.98,2.18-3.08,5.42-5.14,8.85-6.16,3.2-.95,7.21-.75,9.11,2.22,1.35,2.12,1.18,4.93,.95,7.49l-2.38,27.13c-.55,6.31-1.11,12.65-2.46,18.82-.49,2.23-1.1,4.47-2.3,6.35s-3.1,3.35-5.2,3.42c-2.72,.09-5.13-2.19-6.26-4.89s-1.26-5.75-1.37-8.72c-.43-11.93,1.28-24.21-1.22-34.67Z"/><path class="j" d="M105.84,234.66c3.61-13.2,5.02-27.12,4.14-40.86-.21-3.33-.6-6.77-2.21-9.61-1.61-2.83-4.78-4.87-7.73-3.99-2.84,.85-4.6,4.11-4.93,7.3-.33,3.19,.47,6.37,1.13,9.5,2.04,9.64,2.88,19.57,2.49,29.46-.1,2.46,.04,6.47,.48,8.38,.17,.75,5.65,.99,6.64-.18Z"/><path class="h" d="M95.73,185.13c.32-2.12,1.76-3.96,3.58-4.76,1.83-.79,3.98-.56,5.68,.53s2.93,2.96,3.68,4.9h.04"/><path class="i" d="M119.23,249.67c-4.81,3.24-9.42,6.79-13.8,10.63-.34,.3-.68,.61-.87,1.02s-.17,.96,.16,1.27c.32,.29,.8,.27,1.23,.22,5.08-.56,10.17-1.56,14.87-3.64,1.84-.81,3.7-1.86,4.81-3.58,1.12-1.72,1.24-4.28-.2-5.7-.89-.87-2.2-1.16-3.41-1.01-1.22,.15-2.42,.53-2.78,.78Z"/><path class="f" d="M125.52,251.74l.87-8.32c.1-.99,.2-2.04-.22-2.93-.73-1.58-2.91-2.01-4.42-1.18-1.5,.83-2.36,2.58-2.64,4.31s-.07,3.51,.03,5.26c.05,.82,.09,1.67,.49,2.38,.56,.97,1.72,1.41,2.82,1.39s2.14-.43,3.06-.91Z"/><path class="j" d="M112.27,151.16c-.9-3.79,.11-7.96,2.29-11.06,2.18-3.1,5.44-5.18,8.89-6.21,3.21-.96,7.23-.76,9.14,2.24,1.35,2.13,1.18,4.96,.96,7.54l-2.39,27.31c-.56,6.36-1.12,12.73-2.47,18.94-.49,2.24-1.1,4.5-2.31,6.39-1.21,1.89-3.11,3.37-5.22,3.44-2.73,.09-5.14-2.21-6.28-4.92s-1.27-5.79-1.37-8.78c-.43-12.01,1.28-24.37-1.23-34.9Z"/><path class="j" d="M126.03,244.44c3.63-13.29,5.04-27.3,4.15-41.13-.21-3.35-.6-6.82-2.22-9.67-1.62-2.85-4.8-4.91-7.76-4.02-2.85,.85-4.61,4.14-4.94,7.35s.47,6.41,1.13,9.56c2.05,9.7,2.89,19.7,2.5,29.65-.1,2.47,.04,6.51,.48,8.44,.17,.76,5.67,.99,6.66-.18Z"/><path class="h" d="M115.71,194.04c.32-2.13,1.76-3.99,3.59-4.79,1.83-.8,3.99-.56,5.7,.53s2.94,2.98,3.69,4.93h.04"/><path class="j" d="M98.36,119.23c-1.94,3.76-3.42,7.76-4.38,11.88-1.19,5.12-1.47,10.88,1.45,15.24,3.46,5.18,10.6,6.84,16.7,5.58,6.1-1.26,11.43-4.85,16.54-8.41,2-1.39,4.17-3.03,4.6-5.43,.36-2-.61-3.97-1.54-5.78l-5.29-10.22c-.63-1.22-1.33-2.51-2.52-3.21-1.24-.73-2.77-.67-4.2-.59-7.26,.4-14.52,.81-21.36,.93Z"/><path class="r" d="M133.12,137.19c.17,.83,.34,2.16-.02,3.67-1.35,5.69-8.84,8.28-13.46,9.88-5.29,1.83-9.41,1.94-10.7,1.96-4.66,.04-8.38,.08-11.43-2.5-4.24-3.58-4.09-9.62-4.04-10.88,1.62,5.43,7.91,9.21,13.57,9.67,6.2,.51,11.19-1.73,16.16-4.41,4.55-2.46,7.82-5.3,9.92-7.39Z"/><path class="f" d="M107.52,55.31c-1.46-.02-2.91,.57-3.95,1.59s-1.63,2.48-1.62,3.94c.01,1.77,.86,3.4,1.36,5.1s.55,3.76-.61,5.15c-1.21,1.86-.21,4.56,1.68,5.72,1.89,1.16,4.31,1.07,6.44,.43,1.66-.5,3.3-1.38,4.24-2.84,1-1.55,1.08-3.5,1.08-5.35,0-2.43-.07-4.86-.23-7.29-.09-1.48-.24-3.04-1.06-4.28-.87-1.31-2.4-2.07-3.96-2.26s-3.13,.09-3.37,.09Z"/><path d="M119.79,27.21c-1.07-1.6-2.82-2.65-4.65-3.23-1.84-.58-3.77-.73-5.69-.85-2.16-.14-4.36-.25-6.47,.25-4.96,1.17-8.65,5.59-10.28,10.41-1.64,4.82-1.55,10.05-1.28,15.13,.33,6.36,.91,12.71,1.73,19.03,7.73-2.04,15.2-5.07,22.16-8.99l.11,10.35,10.51-3.13c.72-.21,1.49-.46,1.95-1.06,.41-.54,.48-1.26,.54-1.93,.47-5.69,.92-11.42,.46-17.11-.46-5.69-1.87-11.4-4.88-16.26-.91-1.47-2.36-3.03-4.21-2.62Z"/><path class="f" d="M107.49,34.68c-1.47-1.55-3.23-2.93-5.29-3.49-2.07-.56-4.48-.16-5.95,1.39-1.13,1.19-1.57,2.86-1.97,4.45-1.66,6.61-3.3,13.63-1.27,20.14,1.15,3.68,3.92,7.26,7.75,7.71,2.15,.25,4.27-.52,6.26-1.36,1.98-.84,3.92-1.76,5.82-2.76,.78-.41,1.59-.87,2.05-1.63,.58-.95,.48-2.14,.37-3.25l-1.58-15.14c-.19-1.82-.42-3.73-1.52-5.19s-3.4-2.17-4.66-.87Z"/><path class="m" d="M100.17,41.93c-1.18,2.87-2.04,5.88-2.53,8.94-.05,.28-.08,.6,.08,.83,.17,.25,.5,.32,.79,.38,.88,.16,1.77,.3,2.66,.42,.29,.04,.62,.06,.84-.13,.27-.23,.24-.65,.19-1.01-.49-3.22-1.16-6.42-2.03-9.43Z"/><path d="M110.72,42.34c-.65-.89-1.6-1.55-2.66-1.86s-2.22-.25-3.24,.16c-.16,.06-.34,.18-.3,.35,.04,.19,.3,.2,.48,.17,.82-.13,1.65-.26,2.47-.19s1.66,.38,2.21,1c.12,.13,.23,.29,.38,.38s.38,.1,.65-.02Z"/><path d="M106.81,43.82c.39,.21,.56,.75,.35,1.15s-.74,.57-1.14,.37-.58-.73-.39-1.13,.74-.63,1.18-.39Z"/><path d="M105.17,45.83c.25-.02,.48,.17,.63,.37s.26,.44,.44,.62,.48,.28,.69,.14c-.15,.22-.49,.24-.73,.11s-.39-.36-.53-.59-.28-.47-.5-.64Z"/><path d="M106.86,48.13c-.3,.24-.58,.5-.84,.78-.05,.05-.1,.11-.12,.18s0,.16,.06,.2c.1,.06,.22-.02,.3-.1l.58-.55c.07-.07,.14-.14,.17-.23s-.03-.21-.14-.29Z"/><path d="M105.85,47.93c-.41,.27-.76,.63-1.02,1.05,.54-.02,1.03-.47,1.02-1.05Z"/><path d="M104.97,47.8c-.42,.3-.76,.73-.94,1.22,.54-.16,.97-.66,.94-1.22Z"/><path d="M95.65,42.62c-.39-.12-.86,.1-1.01,.48s.04,.86,.42,1.03,.87-.02,1.03-.4,0-.98-.44-1.11Z"/><path d="M97.73,39.34c-.79-.3-1.64-.42-2.48-.34-.33,.03-.66,.09-.94,.28s-.47,.51-.41,.84c.73-.47,1.68-.59,2.5-.32,.19,.06,.38,.14,.58,.18s.42,.02,.58-.1,.25-.36,.18-.53Z"/><path d="M96.14,44.6l-1.66,.79c-.1,.05-.22,.12-.22,.23,0,.09,.08,.16,.17,.18s.18,0,.26-.03c.59-.18,1.11-.57,1.45-1.18Z"/><path d="M95.66,47.13c-.15,.36-.49,.61-.78,.87s-.57,.61-.53,1c.49-.33,.91-.76,1.22-1.25,.11-.18,.22-.41,.09-.61Z"/><path d="M94.48,47.35c-.39,.17-.73,.45-.98,.79-.06,.09-.12,.22-.04,.29,.07,.07,.18,.03,.27-.02,.39-.23,.69-.6,.75-1.06Z"/><path d="M93.5,47.1l-.73,.65c-.07,.06-.15,.16-.11,.24,.06,.12,.24,.05,.35-.03,.32-.26,.61-.56,.87-.89-.19-.09-.43-.01-.38,.02Z"/><path d="M105.31,55.56c-1.82,1.4-4.32,1.89-6.54,1.27-.21-.06-.42-.13-.64-.12s-.45,.13-.52,.33c-.08,.22,.04,.47,.22,.61s.42,.19,.64,.24c1.27,.24,2.59,.26,3.83-.1,1.24-.36,2.39-1.1,3-2.23Z"/><path d="M114.06,43.15c.14,7.32-.35,14.65-1.46,21.88,1.54-5.88,3.1-11.9,2.6-17.96"/><path class="d" d="M116.38,44.63c.18-.59,.37-1.2,.8-1.65s1.15-.67,1.67-.34c.5,.32,.61,.99,.67,1.58l.5,4.65c.03,.32,.06,.67-.11,.95-.24,.37-.75,.44-1.19,.45-.78,.02-1.64-.05-2.2-.6-.62-.6-.67-1.57-.54-2.41s.13-1.74,.4-2.63Z"/><path d="M118.65,45.19c.08-.38-.27-.75-.65-.79s-.75,.17-1.01,.46c-.63,.71-.63,1.75-.6,2.69,.23-.13,.48-.26,.74-.3s.56,.02,.73,.23,.16,.56-.07,.7c-.15,.09-.35,.07-.52,.14s-.29,.32-.13,.41c.04,.03,.1,.03,.15,.03,.62,0,1.16-.63,1.06-1.24s-.8-1.04-1.39-.86c.02-.37,.05-.74,.19-1.08s.42-.64,.78-.71,.78,.16,.72,.31Z"/><path class="d" d="M118.78,27.96c-4.21,.1-8.33,2.22-10.88,5.58,1.4-1.54,3.3-2.54,5.24-3.29,1.94-.76,3.96-1.3,5.64-2.28Z"/><path class="f" d="M91.06,92.21c-1.22-4.37-1.33-8.95-.31-13.29,.49-2.08,1.77-4.48,4.13-4.48,1.47,0,2.79,1.03,3.44,2.24s.77,2.58,.86,3.91c.58,8.86,.19,17.71-.63,26.51-.12,1.3-.26,2.64-.92,3.79-.66,1.15-1.95,2.08-3.4,2-1.69-.1-3.02-1.53-3.45-3.02-.42-1.49-.15-3.04,.06-4.55,.63-4.62,1.26-9.41,.23-13.12Z"/><path class="f" d="M91.29,92.2c2.82,.28,5.7-.18,8.16-1.35"/><path class="f" d="M97.43,108.53c-.73,.66-1.61,1.17-2.57,1.49"/><path class="f" d="M97.38,109.52c-.58,.53-1.29,.96-2.06,1.24"/><path class="e" d="M95.82,74.96c-1.14-.52-1.9-.53-2.91,.12-1.01,.65-1.65,1.68-2,2.76s-.43,2.23-.54,3.33"/><path class="f" d="M88.76,142.24c1.05-5.44,3.34-10.57,5.35-15.76,2-5.19,3.75-10.58,3.65-16.14-.03-1.51-.36-3.27-1.82-4.05-1.5-.8-3.48-.05-4.44,1.21-.96,1.26-1.16,2.86-1.35,4.4-1.04,8.36-2.57,16.65-4.6,24.83-.22,.88-.44,1.77-.37,2.68s.5,1.85,1.34,2.37,2.11,.5,2.25,.47Z"/><path class="e" d="M90.93,108.25c.55-.8,1.22-1.57,2.15-2.01s2.14-.5,3.02,.05c.95,.59,1.3,1.68,1.57,2.68"/><path class="f" d="M85.14,138.28c-2.56,1.91-3.62,4.98-4.55,7.89-.08,.24-.14,.54,.05,.73,.31,.3,.82,0,1.12-.28,.62-.59,.1-1.12,.72-1.71-.46,2.15-.73,3.68-1.09,5.96-.05,.3,.59,.49,.54,.79s.54,.13,.84,.24c.2,.07,1.37,.28,1.58,.24,1.6-.32,1-.23,2.17-1.25,1.02-.89,1-2.36,1.38-3.62,.59-1.95,1.01-3.96,.97-6-.01-.64-.07-1.29-.33-1.9s-.74-1.16-1.4-1.42-1.45-.11-2.01,.31Z"/><path class="e" d="M85.46,138.16c.37-.34,.96-.42,1.47-.27s.94,.49,1.24,.9,.49,.87,.64,1.33"/><path class="f" d="M82.59,144.73c.42-.66,1.22-.94,1.89-1.35,.77-.47,1.4-1.17,1.79-1.99"/><path class="f" d="M83.09,145.71c1.17,.68,2.58,.93,3.91,.71"/><path class="f" d="M83.84,146.15l-1.49,5.44"/><path class="f" d="M83.34,151.99c.73-1.41,1.3-2.91,1.68-4.45"/><path class="f" d="M84.78,151.87c.83-1.41,1.43-2.95,1.79-4.55"/><path class="f" d="M129.46,73.57c-3.7-2.58-8.95-2.08-13.8-3.25-2.75-.66-5.6-1.33-8.37-.77-2.98,.6-5.51,2.53-8.36,3.61-2.16,.82-4.59,1.18-6.34,2.69-1.66,1.43-2.41,3.69-2.56,5.88-.32,4.82,1.87,9.39,3.6,13.9,2.67,6.98,4.32,14.38,5.09,21.98-.4,1.35,.44,2.81,1.61,3.58,1.17,.77,2.61,.98,4.01,1.15,6.06,.72,12.36,.77,18.09-1.34,.73-.27,1.48-.59,2.02-1.16s.83-1.43,.52-2.15c.52,.08,1.02-.33,1.22-.82s.17-1.04,.15-1.56c-.4-7.3-.8-14.59-.99-21.98,1.52-.61,2.6-2.02,3.18-3.55s.73-3.18,.87-4.81c.34-3.82,1.71-7.07,.08-11.4Z"/><path class="m" d="M97.95,78.01c-.86,1.94-2.32,3.54-3.62,5.21-1.3,1.67-2.51,3.56-2.68,5.68-.2,2.47,1.03,4.81,2.22,6.98"/><path class="m" d="M108.78,95.25c3.01,1.44,6.84,1.01,9.45-1.08"/><path class="m" d="M99,103.35c1.74,.82,3.65,1.25,5.57,1.24"/><path class="m" d="M99.44,106.36c1.92,.8,4.03,1.15,6.11,1.02"/><path class="m" d="M101.54,109.73c1.78,.78,3.69,1.28,5.63,1.46"/><path class="m" d="M98.8,117.08c8.59,2.95,18.14,3.01,26.82,.33v-.22"/><path class="p" d="M116.38,70.47c-4.8-1.27-9.62-2.08-14.15,1.24"/><path class="m" d="M116.63,70.26c-1.7,3.2-3.42,6.43-5.71,9.24-1.12,1.37-2.42,2.67-4.06,3.32s-3.71,.48-4.94-.79c-1.12-1.15-1.33-2.89-1.26-4.49,.09-2.11,.59-4.21,1.45-6.14"/><path class="m" d="M101.21,72.07c.42-.36,.87-.69,1.34-.98,.13-.08,.32-.14,.41-.02,.09,.13-.06,.29-.18,.39-.77,.61-1.3,1.52-1.44,2.49"/><path class="m" d="M115.65,72.03c.28-.43,.41-.95,.37-1.46,0-.13-.03-.28,.05-.39,.1-.14,.31-.14,.46-.05s.24,.24,.35,.27l.43,.19"/><path class="f" d="M126.48,94.84c-2.5-4.94-3.63-10.37-3.28-15.73,.17-2.57,1.27-5.69,4.28-6.16,1.87-.3,3.77,.66,4.86,1.97,1.09,1.31,1.54,2.91,1.94,4.48,2.65,10.41,4.08,21.02,4.95,31.64,.13,1.57,.24,3.19-.35,4.69-.58,1.5-2.03,2.87-3.89,3.06-2.16,.23-4.18-1.21-5.04-2.89s-.85-3.58-.92-5.42c-.2-5.62-.44-11.44-2.56-15.64Z"/><path class="f" d="M126.78,94.78c3.64-.24,7.2-1.37,10.08-3.27"/><path class="f" d="M138.12,112.95c-.78,.93-1.79,1.71-2.95,2.3"/><path class="f" d="M138.26,114.13c-.63,.75-1.43,1.4-2.34,1.9"/><path class="f" d="M134.41,154.78c.16-6.68,1.95-13.25,3.38-19.82,1.42-6.58,2.47-13.34,1.14-19.92-.36-1.79-1.17-3.82-3.19-4.45-2.08-.64-4.44,.65-5.38,2.33s-.85,3.64-.76,5.51c.5,10.15,.34,20.32-.46,30.45-.09,1.09-.18,2.19,.11,3.26s1.04,2.09,2.21,2.55c1.18,.46,2.79,.16,2.96,.1Z"/><path class="e" d="M129.79,113.94c.52-1.07,1.22-2.11,2.29-2.83,1.08-.71,2.61-1.03,3.85-.55,1.33,.51,2.01,1.74,2.58,2.87"/><path class="f" d="M128.95,150.81c-2.84,2.79-3.52,6.66-4.07,10.3-.05,.31-.06,.67,.23,.86,.45,.29,1.05-.16,1.36-.56l1.97-2.48c-.12,2.65-.83,5.28-2.08,7.71-.17,.33-.35,.66-.34,1.02s.26,.74,.67,.81c.27,.05,.54-.05,.8-.14,1.96-.7,4.01-1.46,5.27-2.91,1.11-1.27,1.44-2.89,1.65-4.46,.32-2.44,.42-4.92-.07-7.33-.15-.76-.37-1.52-.83-2.19s-1.19-1.23-2.08-1.4-1.86,.17-2.48,.78Z"/><path class="f" d="M126.48,168.26c2.46-2.32,4.02-5.31,4.37-8.4"/><path class="f" d="M128.45,167.86c1.98-1.86,3.32-4.19,3.83-6.64"/><path class="f" d="M131.72,166.23c.99-1.8,1.6-3.75,1.8-5.73"/><path class="e" d="M129.33,150.6c.39-.47,1.13-.69,1.81-.62s1.3,.4,1.77,.82,.81,.93,1.11,1.45"/></g></g></g></svg>