<svg xmlns="http://www.w3.org/2000/svg" viewBox="0 0 110.36 104.66"><defs><style>.cls-1{fill:#1d1d1b;}.cls-2{fill:#efc5ba;}.cls-3{fill:#eb566a;}.cls-4{fill:#e63b51;}.cls-5{fill:#ec5f68;}.cls-6{fill:#fef5f5;}.cls-7{fill:#dde6ea;}.cls-11,.cls-18,.cls-8{fill:#fff;}.cls-14,.cls-9{fill:#010101;}.cls-10,.cls-12,.cls-15{fill:#d9d9d9;}.cls-10,.cls-11,.cls-12,.cls-13,.cls-14{stroke:#010101;}.cls-10,.cls-11,.cls-12,.cls-13,.cls-14,.cls-15,.cls-16,.cls-17,.cls-18{stroke-miterlimit:10;}.cls-10,.cls-11,.cls-12,.cls-13,.cls-14,.cls-15{stroke-width:0.3px;}.cls-10{opacity:0.99;}.cls-13{fill:none;}.cls-15{stroke:#20201e;}.cls-16,.cls-17{stroke:#fff;}.cls-16,.cls-17,.cls-18{stroke-width:0.25px;}.cls-17{opacity:0.97;}.cls-18{stroke:#000;}</style></defs><g id="Capa_2" data-name="Capa 2"><g id="home"><path class="cls-1" d="M26.26,88.35A3.06,3.06,0,0,0,28,88.1s-1-.24-1.1-1.07a1.31,1.31,0,0,1-.56-.18c-.43-.25-.66-.67-.51-.94s.64-.28,1.07,0l.1.06a1.68,1.68,0,0,1,.85-.81,2.12,2.12,0,0,1-.11-.21c-.21-.46-.15-.94.14-1.06s.67.14.88.6a1.32,1.32,0,0,1,.12.56,1.45,1.45,0,0,1,1.13.8,2.66,2.66,0,0,0,.26-1.58c-.2-.62,1.9-1.76,3.27.35,0,0,.27.53-.53.54a1.16,1.16,0,0,0-1,.93.26.26,0,0,1-.19.19c-.26,0-.7.19-.82.5h0a2,2,0,0,1,.24,2.74c-.65.57-2.46-.29-2.46-.29-.32.1-.48.53-.55.78a.22.22,0,0,1-.2.18,1.16,1.16,0,0,0-1,1c-.06.8-.58.5-.58.5C24.39,90.14,25.66,88.11,26.26,88.35Z"/><path class="cls-2" d="M13.88,94.69a2.54,2.54,0,0,0,1.44-.2s-.84-.2-.91-.89a1.13,1.13,0,0,1-.46-.15c-.36-.21-.55-.56-.42-.78s.52-.23.89,0l.07,0A1.41,1.41,0,0,1,15.2,92a.91.91,0,0,1-.09-.17c-.17-.38-.12-.78.11-.88s.56.12.73.5a1,1,0,0,1,.1.46,1.21,1.21,0,0,1,.94.67,2.26,2.26,0,0,0,.22-1.32c-.17-.51,1.57-1.45,2.7.29,0,0,.22.45-.44.45a1,1,0,0,0-.86.77.22.22,0,0,1-.16.16c-.21,0-.57.16-.67.42h0A1.65,1.65,0,0,1,18,95.62c-.54.48-2-.23-2-.23-.27.08-.4.44-.46.65a.22.22,0,0,1-.16.15,1,1,0,0,0-.82.81c-.05.66-.48.41-.48.41C12.34,96.18,13.38,94.49,13.88,94.69Z"/><path class="cls-1" d="M30.23,96a2.52,2.52,0,0,0,1.44-.21s-.84-.2-.91-.89a1.13,1.13,0,0,1-.46-.15c-.36-.21-.55-.56-.42-.78s.52-.23.89,0l.07,0a1.37,1.37,0,0,1,.71-.67,1,1,0,0,1-.09-.18c-.17-.38-.12-.77.11-.88s.56.12.73.5a1,1,0,0,1,.1.47,1.18,1.18,0,0,1,.94.66,2.22,2.22,0,0,0,.22-1.31c-.17-.51,1.57-1.46,2.7.29,0,0,.22.44-.44.45a1,1,0,0,0-.86.77.22.22,0,0,1-.16.16c-.21,0-.57.15-.67.41h0a1.66,1.66,0,0,1,.21,2.27c-.54.48-2-.24-2-.24-.27.09-.4.44-.46.65a.19.19,0,0,1-.16.15,1,1,0,0,0-.82.81c-.05.66-.48.42-.48.42C28.69,97.44,29.73,95.76,30.23,96Z"/><path class="cls-3" d="M11,81.78c0,.58.88,1.3.88,1.3s-.2-.91.44-1.3a1.24,1.24,0,0,1-.08-.52c0-.45.29-.8.56-.78s.48.4.45.85a.31.31,0,0,0,0,.1,1.46,1.46,0,0,1,1,.37l.13-.18c.29-.34.7-.48.91-.3s.15.6-.14,1a1.14,1.14,0,0,1-.4.31,1.33,1.33,0,0,1-.21,1.23,2.38,2.38,0,0,0,1.38-.41c.42-.41,2.17.84,1,2.77,0,0-.33.42-.65-.22a1,1,0,0,0-1.16-.47.23.23,0,0,1-.23-.08c-.14-.18-.42-.48-.72-.46v0c-.44,1-1.38,1.58-2.11,1.28s-.73-2.1-.73-2.1a1,1,0,0,0-.85-.13.23.23,0,0,1-.23-.1A1,1,0,0,0,9,83.46c-.66.27-.62-.27-.62-.27C8.82,81,11,81.2,11,81.78Z"/><g id="RMzng2.tif"><path class="cls-4" d="M52.56,1a6.73,6.73,0,0,1,3.17,4.51,2.19,2.19,0,0,0,.14.72v.22c-.12.09-.07.22-.07.33v15c0,.12,0,.25.07.34v.29a4.42,4.42,0,0,0-.22,1,6.83,6.83,0,0,1-5.87,5.12c-1.25.12-3.39,0-4.65.06-.49,0-.51,0-.51.51,0,2.25,0,4.51,0,6.76a1.23,1.23,0,0,1-.73,1.28h-.51a7.64,7.64,0,0,1-1.67-1.64c0-.16,0-.32,0-.47V26.25c0-.57.05-.61.62-.61,1,0,3,0,4,0a4.35,4.35,0,0,0,1-.12,6.45,6.45,0,0,0,3.51-2.14,6.9,6.9,0,0,0,1.74-4.51c0-5.54,0-11.08,0-16.61a4.93,4.93,0,0,0,0-.54C52.54,1.49,52.33,1.24,52.56,1Z"/><path class="cls-5" d="M55.87,22.09c-.12-.09-.07-.22-.07-.34v-15c0-.11,0-.24.07-.33Z"/><path class="cls-3" d="M52.56,1c-.23.24,0,.49,0,.72a4.93,4.93,0,0,1,0,.54c0,5.53,0,11.07,0,16.61a6.9,6.9,0,0,1-1.74,4.51,6.45,6.45,0,0,1-3.51,2.14,4.35,4.35,0,0,1-1,.12c-1,0-3,0-4,0-.57,0-.62,0-.62.61V35c0,.15,0,.31,0,.47L38.45,32q-1.52-1.61-3-3.22a.79.79,0,0,0-.63-.26H26.57a6.84,6.84,0,0,1-3.84-1.07,6.71,6.71,0,0,1-3.16-5.26c0-.53,0-1.06,0-1.59q0-6.77,0-13.54a6.92,6.92,0,0,1,1.05-3.85A6.76,6.76,0,0,1,26,0H48.85A6.86,6.86,0,0,1,52.56,1Zm-16,20.69.54.58c.43.41.72.41,1.15,0l2.35-2.35c1.57-1.57,3.15-3.13,4.7-4.71a4.4,4.4,0,0,0-.15-6.49,4.19,4.19,0,0,0-4.09-1,3.71,3.71,0,0,0-1.71.89c-.41.35-.78.75-1.17,1.12a.62.62,0,0,1-1,0c-.35-.34-.67-.69-1-1a4.43,4.43,0,0,0-6.08,6.45Q33.33,18.46,36.59,21.69Z"/><path class="cls-6" d="M36.59,21.69q-3.26-3.24-6.5-6.5a4.43,4.43,0,0,1,6.08-6.45c.36.33.68.68,1,1a.62.62,0,0,0,1,0c.39-.37.76-.77,1.17-1.12a3.71,3.71,0,0,1,1.71-.89A4.46,4.46,0,0,1,44,13.63a5.12,5.12,0,0,1-1.25,1.79q-2.94,3-5.9,5.92A1.12,1.12,0,0,0,36.59,21.69Z"/><path class="cls-7" d="M36.59,21.69a1.12,1.12,0,0,1,.3-.35q3-3,5.9-5.92A5.12,5.12,0,0,0,44,13.63a4.46,4.46,0,0,0-2.95-5.89,4.19,4.19,0,0,1,4.09,1,4.4,4.4,0,0,1,.15,6.49c-1.55,1.58-3.13,3.14-4.7,4.71l-2.35,2.35c-.43.42-.72.42-1.15,0Z"/></g><path class="cls-8" d="M91.67,75.49l7.44-4.14a3.31,3.31,0,0,1,1.66-.57c.6,0,1.22.48,1.18,1.07a2.8,2.8,0,0,1-.43,1,.81.81,0,0,0,.08,1,12.14,12.14,0,0,1,5.06-.79,5.68,5.68,0,0,1-2.73,2.7l2.77.12c.53,0,1.2.17,1.26.69s-.51.81-1,1l-2.69.94a18.81,18.81,0,0,1,4.77,1.68c-.21.58-1,.66-1.6.64l-4.56-.15L105,82.07c.29.21.62.48.63.84s-.52.78-1,.74a3.77,3.77,0,0,1-1.27-.51,9.85,9.85,0,0,0-4.52-.65l-6.27.08"/><path class="cls-9" d="M91.55,75.56l5.75-3.2,1.28-.71a4.85,4.85,0,0,1,1.84-.79c.69,0,1.56.44,1.37,1.24-.09.37-.38.65-.48,1a.92.92,0,0,0,0,.52c.11.26.15.2.38.15.51-.1,1-.32,1.51-.43a11.9,11.9,0,0,1,1.33-.22,11.64,11.64,0,0,1,1.56-.07h.34c.15,0,.16,0,0,.17a1.94,1.94,0,0,1-.28.48,5.39,5.39,0,0,1-2.11,1.91c-.07,0-.19.15-.26.15l2.42.1c.48,0,1.23,0,1.52.46s-.4,1-.86,1.15l-2.46.86c-.06,0-.2.17-.26.15a19.06,19.06,0,0,1,2.77.8c.46.18.92.37,1.38.58.1.05.61.23.62.3s-.3.37-.39.4a6.4,6.4,0,0,1-2.39,0L103,80.52s-.23.17-.26.15c.7.49,1.4,1,2.09,1.48.52.38.94,1,.26,1.43l.26-.15c-.91.44-1.85-.43-2.69-.68a10.47,10.47,0,0,0-3-.34c-2.31,0-4.62.06-6.93.09-.08,0-.17.15-.26.15L98,82.57a12.11,12.11,0,0,1,5,.55c.79.35,1.51.88,2.33.32.59-.4.38-.94-.1-1.33-.71-.57-1.5-1.07-2.24-1.59l-.26.15,3.84.13a3.7,3.7,0,0,0,2.06-.25,1.14,1.14,0,0,0,.32-.22c.25-.25.18-.31-.11-.45s-.56-.26-.84-.39a20,20,0,0,0-3.62-1.14l-.26.15a30.94,30.94,0,0,0,3-1,4.48,4.48,0,0,0,.6-.35c.73-.57.17-1.19-.54-1.32a23.42,23.42,0,0,0-3.14-.15l-.25.15a9.36,9.36,0,0,0,1.06-.61,6.2,6.2,0,0,0,1.11-1,2.88,2.88,0,0,0,.73-1.08c.15-.18.1-.24-.14-.18h-.45c-.3,0-.6,0-.9,0a11.81,11.81,0,0,0-1.77.26c-.49.1-1,.38-1.51.43-.13.13-.24.12-.31,0a.52.52,0,0,1-.1-.27,1.14,1.14,0,0,1,.12-.6c.19-.41.54-.78.39-1.27a1.19,1.19,0,0,0-.82-.71c-1-.28-2,.55-2.85,1l-6.59,3.66-.23.14Z"/><path class="cls-10" d="M36.2,88.31l11-.35L91.8,83.49l-1.18-8.64L43.33,77l-9.4-5.45s-1.13-1.3-5-.61"/><path class="cls-11" d="M27.71,74.6a6.69,6.69,0,0,1,.94-5,20,20,0,0,0,2.27-4.71,11.68,11.68,0,0,0-.46-5.64c-.48-1.8-1.18-3.73-2.79-4.67A6.32,6.32,0,0,0,23.73,54a4,4,0,0,0-2.63,1,4.58,4.58,0,0,0-.9,2.43l-1.28,7.89c-.35,2.1-.68,4.32.07,6.31a6.37,6.37,0,0,0,7.47,3.72C27.19,75.17,28,74.73,27.71,74.6Z"/><path class="cls-10" d="M38,104.28,36.81,81.55c-.12-2.2-.3-4.57-1.74-6.24-1-1.19-2.67-2-3.07-3.51s.36-3.56-1-4.27c-1.12-.58-2.38.62-2.75,1.82s-.35,2.58-1.15,3.55a3.53,3.53,0,0,1-4.05.64,10.19,10.19,0,0,1-3.33-2.81c-1-1.12-2-2.8-1.1-4,.28-.36.75-.65.77-1.11s-.57-.88-1.08-.81A2.61,2.61,0,0,0,17,65.6C12.21,69.75,6.38,72.9,4.21,78.85c-2,5.44-.5,12.71-.35,18.51.06,2.22,0,6.66,0,6.66Z"/><path class="cls-11" d="M22.82,73.43c1.76,5.53,1.39,31,1.39,31h5.45A67.35,67.35,0,0,1,29,93.18c.2-3.75.66-7.51.29-11.25-.29-3-1.34-5.87-1.93-8.88C27.39,73.07,24.54,74.22,22.82,73.43Z"/><path class="cls-12" d="M17.92,75.7c0-1.49.56-3.28,2-3.6a2.6,2.6,0,0,1,2.63,1.39,7.09,7.09,0,0,1,.75,3.06,221.5,221.5,0,0,1,.89,27.91"/><path class="cls-12" d="M29.66,104.46l-.86-4.67c-.25-4.57.34-9.14.32-13.71A50.52,50.52,0,0,0,27.58,74a2.48,2.48,0,0,1-.11-1.23c.27-1,1.78-1.22,2.62-.58a6.5,6.5,0,0,1,1.59,2.62l.22-3.3"/><path class="cls-12" d="M18.07,75.68a3.46,3.46,0,0,0-.78-2.85c-.61-.83-1.39-1.51-2-2.34a3.31,3.31,0,0,1-.64-2.88"/><path class="cls-12" d="M35.83,78.4a11.15,11.15,0,0,0-.64,5.94"/><path class="cls-12" d="M36.07,97.57a63.93,63.93,0,0,1-3,6.71"/><path class="cls-12" d="M14.38,87.12a9.88,9.88,0,0,0,6-.53"/><path class="cls-12" d="M17.46,86.25a7.72,7.72,0,0,1,2.6-.52"/><path class="cls-12" d="M12.7,87.47a9,9,0,0,0-1.13,4"/><path class="cls-11" d="M17.25,48.9a14.18,14.18,0,0,1-.88-4.11,6,6,0,0,1,1.18-3.95,3.86,3.86,0,0,1,3.73-1.43,10.07,10.07,0,0,1,9.31-2.95c3.3.82,6,4,5.76,7.42-.16,2.17-1.4,4.21-1.23,6.38.23,3,3.08,5.22,3.86,8.15a10.86,10.86,0,0,1-.42,5.72A8.25,8.25,0,0,1,36.3,68.3c-1.89,1.6-4.66,1.42-7.11,1.08a12.1,12.1,0,0,1-5.33-1.64,8.56,8.56,0,0,1-3.29-5.38,25.69,25.69,0,0,1-.27-6.44,2,2,0,0,1-2.09.6,3.76,3.76,0,0,1-1.85-1.33,7.39,7.39,0,0,1-1.6-3.46A2.76,2.76,0,0,1,15.45,49a2.16,2.16,0,0,1,2.61.2,4.56,4.56,0,0,1,1.33,2.44c.23.92.33,1.86.63,2.76"/><path class="cls-13" d="M15.93,39.9a2,2,0,0,1,1.51-.13,1.69,1.69,0,0,1,1.11,1.32A6.25,6.25,0,0,0,17.44,38a2.62,2.62,0,0,1,1,3"/><path class="cls-13" d="M23,41.37a2.22,2.22,0,0,0-1.21,2.1,1.57,1.57,0,0,1,.1-1.27A1.87,1.87,0,0,1,23,41.37Z"/><path class="cls-13" d="M22.28,41.05A3.26,3.26,0,0,0,21.54,46a3,3,0,0,1-.83-2.54A3.9,3.9,0,0,1,22.28,41.05Z"/><path class="cls-13" d="M22.21,40.79a6.15,6.15,0,0,0-2.1,6.82,3.29,3.29,0,0,1-.29-2.8,6.84,6.84,0,0,0-.06,4.38,7.88,7.88,0,0,1-.43-4.08,11.18,11.18,0,0,0,1,7.35,8.37,8.37,0,0,1-1.44-3.67"/><path class="cls-13" d="M24.48,43.43a3,3,0,0,0-1.56-2.89,1.89,1.89,0,0,1,1.74.47,1.92,1.92,0,0,1,.54,1.72,1.86,1.86,0,0,0-2.34-2.36"/><path class="cls-13" d="M33.15,40.49a4.25,4.25,0,0,1,2.42,6,10,10,0,0,0-.1-3.57A3.07,3.07,0,0,0,33.15,40.49Z"/><path class="cls-13" d="M36.06,43.17a4.51,4.51,0,0,0-3.12-3.6,1.55,1.55,0,0,1,2,.48C35.38,40.64,35.52,41.4,36.06,43.17Z"/><path class="cls-13" d="M32.94,39.08A1,1,0,0,1,34.27,39C34.67,39.25,34.88,39.73,32.94,39.08Z"/><path class="cls-13" d="M34.87,40.08A3.51,3.51,0,0,1,36,42.51l-.19-.19"/><path class="cls-13" d="M22.59,39.75a9.78,9.78,0,0,1,10-1.36"/><path class="cls-13" d="M32.51,39a7.9,7.9,0,0,0-4.76-1,5.33,5.33,0,0,0-4,2.19,13.31,13.31,0,0,1,6.49-1.93,4.36,4.36,0,0,1,1.65.21C32.41,38.74,32.84,39.23,32.51,39Z"/><path class="cls-13" d="M25,40.91a11.58,11.58,0,0,1,7.73-1.14"/><path class="cls-13" d="M32.42,40.25a11.13,11.13,0,0,0-6.13.66A15.79,15.79,0,0,0,32.42,40.25Z"/><path class="cls-13" d="M26.51,41.22a16.65,16.65,0,0,0,4.82-.41"/><path class="cls-13" d="M27.3,41.41a11.69,11.69,0,0,0,4-.16"/><path class="cls-13" d="M28,41.66a4.89,4.89,0,0,0,4.46-1"/><path class="cls-13" d="M30.27,41.66a7.51,7.51,0,0,0,2.28-1.39"/><path class="cls-13" d="M32,40.84a5.17,5.17,0,0,1-6.88-.12"/><path class="cls-13" d="M26.44,41.24a7.63,7.63,0,0,0,5.12.09"/><path class="cls-13" d="M31.87,40.38a12.74,12.74,0,0,1-8.27-.06"/><path class="cls-13" d="M26,40.74A15.63,15.63,0,0,0,32.51,40"/><path class="cls-13" d="M27.11,40.94c1.85-.21,3.66-.64,5.85-.7a3.55,3.55,0,0,1,1.83,0"/><path class="cls-13" d="M33.66,40.23l.58,0"/><path class="cls-13" d="M22.57,40.49c-.66-.14-1.27.38-1.75.86a7.53,7.53,0,0,0-1.49,1.84,2.52,2.52,0,0,0-.08,2.28"/><path class="cls-13" d="M18.52,46.56a4.67,4.67,0,0,1,.06-3.63,10.71,10.71,0,0,1,2.05-2.66,4.86,4.86,0,0,0-3.16,2.82C16.93,44.45,17.06,46.05,18.52,46.56Z"/><path class="cls-13" d="M19.37,40.52a1.22,1.22,0,0,0-1.2.3,3.2,3.2,0,0,0-.72,1.08,9.38,9.38,0,0,0-.85,2.36,3.92,3.92,0,0,0,.31,2.46"/><path class="cls-13" d="M18.65,40.83c-.9.14-1.42,1.09-1.65,2a8.54,8.54,0,0,0,.68,6.1"/><path class="cls-13" d="M17.53,44.64a6.79,6.79,0,0,0,1.36,4.7C18.23,47.51,18.17,45.47,17.53,44.64Z"/><path class="cls-13" d="M20.42,41.84A9.94,9.94,0,0,0,19.21,50C17.74,46.92,18.32,43,20.42,41.84Z"/><path class="cls-13" d="M18.45,49.66a6.37,6.37,0,0,1-.9-3.71A6.26,6.26,0,0,1,19,42.4"/><path class="cls-13" d="M20.22,41.51l-1.7,2.29"/><path class="cls-13" d="M21.73,40.34a5.29,5.29,0,0,0-3,3.17"/><path class="cls-13" d="M17.68,45.1a10.06,10.06,0,0,1,1.45-3.53A6.52,6.52,0,0,0,17.68,45.1Z"/><path class="cls-13" d="M18.37,41.94a4.31,4.31,0,0,0-.12,4"/><path class="cls-13" d="M24.08,39.52a16.63,16.63,0,0,1,2.65-1.21"/><path class="cls-13" d="M23.2,39.81,24.77,39"/><path class="cls-13" d="M22.09,40A6.12,6.12,0,0,1,24.8,38.1"/><path class="cls-13" d="M28.66,37.83a4.8,4.8,0,0,0-4,1.75A9.28,9.28,0,0,0,28.66,37.83Z"/><path class="cls-13" d="M26.34,40.14,28.8,40"/><path class="cls-13" d="M27.19,40.86l2.55-.23"/><path class="cls-13" d="M18.06,49a6.09,6.09,0,0,1,2.5-8.82"/><path class="cls-13" d="M17.56,42.15a5.9,5.9,0,0,1,2.84-2.23,1.42,1.42,0,0,1,1-.07"/><path class="cls-13" d="M21.87,40.07a2.05,2.05,0,0,0-2.64,1.09A20.92,20.92,0,0,1,21.87,40.07Z"/><path class="cls-13" d="M24.93,38.77a3.62,3.62,0,0,0-1.58,1.49C24.15,39.64,25,39.12,24.93,38.77Z"/><path class="cls-13" d="M27.46,38.38a5.81,5.81,0,0,0-2.74,1.85A12.29,12.29,0,0,0,27.46,38.38Z"/><path class="cls-13" d="M25.1,40.36,27.37,39"/><path class="cls-13" d="M26.67,38.25c-1.21.34-2.31,1-3.66,1.46A4.29,4.29,0,0,1,26.67,38.25Z"/><path class="cls-13" d="M25.81,37.68a17.88,17.88,0,0,0-3.17,1.53A6.89,6.89,0,0,1,25.81,37.68Z"/><path class="cls-13" d="M24.14,38a8.05,8.05,0,0,1,4.28-1.3"/><path class="cls-13" d="M26.2,38.35A7,7,0,0,1,30,38.27"/><path class="cls-9" d="M26.48,46.25l-.2,0c-.22,0-.42.28-.45.39a.61.61,0,0,0,.21.53c.31.12.55.17.63-.14s.17-.44,0-.56S26.54,46.26,26.48,46.25Z"/><path class="cls-9" d="M33.15,45.72a.58.58,0,0,0-.6.18.6.6,0,0,0,0,.58.52.52,0,0,0,.85-.11C33.56,46.06,33.27,45.79,33.15,45.72Z"/><path class="cls-14" d="M31.58,44.54a.6.6,0,0,1,.34-.55,1.18,1.18,0,0,1,.67-.11,3.49,3.49,0,0,1,1.92.9A16.63,16.63,0,0,0,31.58,44.54Z"/><path class="cls-14" d="M28.12,44.62v-.34a1.82,1.82,0,0,0-1.27.13A8.92,8.92,0,0,0,24.18,46C25.57,45.54,26.94,45,28.12,44.62Z"/><path class="cls-13" d="M31,46.19a.59.59,0,0,0-.76.25,1.68,1.68,0,0,0-.16.86L30,53.38a1.5,1.5,0,0,0,.4,1.26,1,1,0,0,0,.72.14,2.9,2.9,0,0,0,.7-.24l1.6-.69a.44.44,0,0,0,.27-.23.39.39,0,0,0,0-.28A48.18,48.18,0,0,0,31,46.19Z"/><path class="cls-13" d="M27,49.53l-1.14,2"/><path class="cls-13" d="M26.21,49.64q-.63.93-1.17,1.89"/><path class="cls-13" d="M25.41,49.75c-.31.44-.6.89-.87,1.36"/><path class="cls-13" d="M33.45,48.49l-.54.72"/><path class="cls-13" d="M33.88,48.8a2.67,2.67,0,0,0-.56.85"/><path class="cls-13" d="M36.38,57a8.56,8.56,0,0,1-8.31.68"/><path class="cls-13" d="M32.34,63.55a1.14,1.14,0,0,1,1.89-.47"/><path class="cls-13" d="M34.59,61.65l.26.87"/><path class="cls-13" d="M35.48,61.69l.16.92"/><path class="cls-13" d="M35.35,60.17l.24,1.09"/><path class="cls-13" d="M36.07,59.65l.44.89"/><path class="cls-13" d="M35.59,58.63l0,.89"/><path class="cls-13" d="M35.94,58l.39.87"/><path class="cls-13" d="M36.68,57.52l.52.7"/><path class="cls-13" d="M37,56.93l.55.55"/><path class="cls-13" d="M37.12,56l.66.69"/><path class="cls-13" d="M37.77,57.85,38,59.24"/><path class="cls-13" d="M36.9,59.11l.45.91"/><path class="cls-13" d="M37.7,60.48l.16,1.15"/><path class="cls-13" d="M36.88,61.17l0,1"/><path class="cls-13" d="M36.88,62.76v1"/><path class="cls-13" d="M37.77,62.33l0,.91"/><path class="cls-13" d="M37.62,64.26l0,1"/><path class="cls-13" d="M37.25,64.8,37.05,66"/><path class="cls-13" d="M36,64l0,1"/><path class="cls-13" d="M36.09,65.85l0,1"/><path class="cls-13" d="M35.85,67.48l-.06.5"/><path class="cls-13" d="M35.48,65.85l0,.93"/><path class="cls-13" d="M35,67.59l-.08.76"/><path class="cls-13" d="M34.35,66.87l-.06.74"/><path class="cls-13" d="M33.7,68l-.22.72"/><path class="cls-13" d="M34.75,64.5l0,.91"/><path class="cls-13" d="M33.85,64.67l0,.85"/><path class="cls-13" d="M35.12,63.06l0,.79"/><path class="cls-13" d="M33.25,60.91l.15.85"/><path class="cls-13" d="M34.09,59.82l.29.81"/><path class="cls-13" d="M34.53,59.06l.28.81"/><path class="cls-13" d="M33.24,59.24l-.09,1"/><path class="cls-13" d="M32.2,59a1.62,1.62,0,0,0,.44,1.11l0,1"/><path class="cls-13" d="M31.38,59.3l-.05,1"/><path class="cls-13" d="M31.55,60.72a3.43,3.43,0,0,0,.29,1.13"/><path class="cls-13" d="M30.75,60.76v1"/><path class="cls-13" d="M30.92,62.43l.15.87"/><path class="cls-13" d="M31.54,63.5l.33,1.28"/><path class="cls-13" d="M32.9,64.37a2.6,2.6,0,0,0,0,1"/><path class="cls-13" d="M33.2,66l-.06,1"/><path class="cls-13" d="M32.24,66.85,32.16,68"/><path class="cls-13" d="M31.24,66.3l-.06.7"/><path class="cls-13" d="M31.11,65,31.44,66"/><path class="cls-13" d="M30.51,63.8l.1,1.11"/><path class="cls-13" d="M29.83,62.89,29.9,64"/><path class="cls-13" d="M29.31,61.19l0,1.07"/><path class="cls-13" d="M30,59.35l-.11,1.08"/><path class="cls-13" d="M29.2,59l-.28,1.29"/><path class="cls-13" d="M28.24,59l-.06.83"/><path class="cls-13" d="M27.62,60.13l-.1,1.15"/><path class="cls-13" d="M28.5,60.61l-.15,1.24"/><path class="cls-13" d="M30.06,66l0,1.39"/><path class="cls-13" d="M30.59,67l0,1.24"/><path class="cls-13" d="M29,66.28v1"/><path class="cls-13" d="M29.35,64.35l0,.91"/><path class="cls-13" d="M28,64.24l-.05,1"/><path class="cls-13" d="M28.33,63v1"/><path class="cls-13" d="M27.29,62.48v1"/><path class="cls-13" d="M26.57,61.09l.06.91"/><path class="cls-13" d="M26.35,60.13l0,.72"/><path class="cls-13" d="M26.55,58.87l.2.84"/><path class="cls-13" d="M27.34,57.8v.85"/><path class="cls-13" d="M25.9,58.76l0,.76"/><path class="cls-13" d="M25.14,59.39a2.71,2.71,0,0,0,.45,1.33l.09,1.13"/><path class="cls-13" d="M26.28,62.5v1.2"/><path class="cls-13" d="M26.77,64.09l.08,1"/><path class="cls-13" d="M27.27,65.67l0,.85"/><path class="cls-13" d="M27.83,66.28l.07,1.18"/><path class="cls-13" d="M27.05,67.61v.76"/><path class="cls-13" d="M25.66,67.39l0,.57"/><path class="cls-13" d="M26,66.15l.17.92"/><path class="cls-13" d="M24.8,65.89l0,.92"/><path class="cls-13" d="M25.55,64.61l.06.76"/><path class="cls-13" d="M25.07,63.63l0,1"/><path class="cls-13" d="M25.07,62.5l0,.65"/><path class="cls-13" d="M24,60.43l.39.92"/><path class="cls-13" d="M23.92,61.91l-.07,1"/><path class="cls-13" d="M23.74,63.85l.07.65"/><path class="cls-13" d="M24,65.48l-.11.74"/><path class="cls-13" d="M23,65.3l-.07.87"/><path class="cls-13" d="M23.11,63.59v.78"/><path class="cls-13" d="M22.09,63.65l.09.76"/><path class="cls-13" d="M23,61.48l0,.8"/><path class="cls-13" d="M22.85,60.26v.8"/><path class="cls-13" d="M21.72,60.11l.2.89"/><path class="cls-13" d="M22.72,58.61l.12.87"/><path class="cls-13" d="M23.68,58.89l-.05,1"/><path class="cls-13" d="M24.63,57.82l-.06,1"/><path class="cls-13" d="M23.39,57.37l.16.74"/><path class="cls-13" d="M23.74,56.76l.26.78"/><path class="cls-13" d="M22.61,56l.09.87"/><path class="cls-13" d="M22,55.35l.06.73"/><path class="cls-13" d="M21.61,56.61l.09.69"/><path class="cls-13" d="M20.2,56.39l1.21-1.22"/><path class="cls-13" d="M20.31,57.3l.78-.85"/><path class="cls-13" d="M20.24,58.19l.78-.87"/><path class="cls-13" d="M20.31,59l1-1.09"/><path class="cls-13" d="M20.31,59.89l1.08-1.15"/><path class="cls-13" d="M20.37,61l1-1.09"/><path class="cls-13" d="M20.42,62l1.1-1.16"/><path class="cls-13" d="M20.72,62.87l1-1"/><path class="cls-13" d="M21.07,63.8l.89-1"/><path class="cls-13" d="M21.5,64.72l.74-.87"/><path class="cls-13" d="M27.35,56.52l0,.72"/><path class="cls-13" d="M28.37,55.69l-.08,1"/><path class="cls-13" d="M29.51,55.32l-.22,1.07"/><path class="cls-13" d="M30.27,55.67l-.22,1"/><path class="cls-13" d="M31.29,55.89,31.35,57"/><path class="cls-13" d="M32.35,55.82l.24,1"/><path class="cls-13" d="M33.24,55.52l.26,1.07"/><path class="cls-13" d="M34.11,55.45l.29,1"/><path class="cls-13" d="M34.81,55.35l.65.76"/><path class="cls-13" d="M35.53,55l.45.76"/><path class="cls-13" d="M19.18,54.09a1.91,1.91,0,0,1-.58-1.43,2.26,2.26,0,0,0-.46-1.49,1.24,1.24,0,0,0-1.63,0,1.6,1.6,0,0,0-.41,1.65"/><path class="cls-13" d="M18.6,53.15c-.25.13-.55,0-.78-.2s-.52-.34-.78-.24a.53.53,0,0,0-.23.73.76.76,0,0,0,.74.34c.2,0,.41-.09.58,0S18.35,54.21,18.6,53.15Z"/><path class="cls-13" d="M19.12,48a9,9,0,0,1,1.37,3"/><path class="cls-13" d="M19.17,46.89a15.62,15.62,0,0,1,1.54,2.54"/><path class="cls-13" d="M21.29,47.52a6.45,6.45,0,0,1-.75-4.66A3.78,3.78,0,0,0,21.29,47.52Z"/><path class="cls-13" d="M21.38,42a5.35,5.35,0,0,0,.43,3.52"/><path class="cls-13" d="M22.58,41a4.29,4.29,0,0,0,.16,3.11"/><path class="cls-13" d="M23.43,41a5.51,5.51,0,0,1,2,1.17"/><path class="cls-13" d="M33.51,41.45l1.06.44"/><path class="cls-15" d="M10.51,104.26a83.94,83.94,0,0,0,.63-15.36c-.2-3.7-.69-7.55-2.72-10.65A2.83,2.83,0,0,0,6.2,76.68C5,76.72,4.27,78,3.87,79.18c-2.13,6-2.67,12.53-3.2,18.93l-.51,6.14Z"/><path class="cls-9" d="M17.11,48.88a14.5,14.5,0,0,1-.87-4.11,6,6,0,0,1,1.18-4,3.86,3.86,0,0,1,3.73-1.43,10.1,10.1,0,0,1,9.31-3c3.3.82,6,4,5.76,7.43-.16,2.16-.73,4-1.08,4.17,1.09-6.67-1.14-6.4-1.63-7-4.51,3.28-9.38-.29-10.54.32s-4.43,4.32-4,9.06A2.06,2.06,0,0,0,17.11,48.88Z"/><path class="cls-16" d="M80.74,95.18a26.05,26.05,0,0,1-.74,6.28"/><path class="cls-16" d="M82.93,96.1a3,3,0,0,0-1.6-2.73,2.83,2.83,0,0,0-3-.07c-1.38.87-1.72,2.7-1.93,4.31-.3,2.36-.48,4.57-.78,6.92l5.57-.11A24.12,24.12,0,0,0,82.93,96.1Z"/><path class="cls-17" d="M95,68.74c-3.17-1.06-6.77.19-9.23,2.46a20.71,20.71,0,0,0-5,8.54A51.35,51.35,0,0,0,77.87,99a46.41,46.41,0,0,0,.87,5.48l28.37-.43a12.57,12.57,0,0,0,1.45-2.14A16.45,16.45,0,0,0,110,91.47a49.14,49.14,0,0,0-3.19-10.21c-1.21-3.05-2.47-6.16-4.61-8.64S96.79,68.34,95,68.74Z"/><path class="cls-8" d="M104,82a23.49,23.49,0,0,0-4.9-10.21,4.3,4.3,0,0,0-1.64-1.36,1.65,1.65,0,0,0-1.94.45c-.62.92.17,2.1.93,2.91C99,76.48,101.5,79.18,104,82Z"/><path class="cls-8" d="M104.81,84.46a1.13,1.13,0,0,0-.74,1.8,1.15,1.15,0,0,0,1.88-.58C106.07,84.87,105.05,84.16,104.81,84.46Z"/><path class="cls-16" d="M96.76,96.82a3,3,0,0,0-1.6-2.73,2.85,2.85,0,0,0-3-.07c-1.38.87-1.71,2.7-1.92,4.31l-.77,6,6-.09A25.2,25.2,0,0,0,96.76,96.82Z"/><path class="cls-16" d="M94.31,97.65c.11,2.95.12,3.89-1.13,6.57"/><path class="cls-16" d="M87.9,62.62a10.06,10.06,0,0,0-7.15-2.42,16.27,16.27,0,0,0-7,2.53A43.43,43.43,0,0,0,63,71.66c-1.84,2.13-3.53,4.55-4,7.33a10.62,10.62,0,0,0,4.2,9.78,14.46,14.46,0,0,0,10.58,2.59A23.2,23.2,0,0,0,84,87.15a22.86,22.86,0,0,0,7.22-7.68,14.11,14.11,0,0,0,1.43-10.28A11.84,11.84,0,0,0,87.9,62.62Z"/><path class="cls-8" d="M89.13,65.32c-.41-.48-1.11-.39-1.17.08A8.41,8.41,0,0,0,89.4,68c1.22,2,1.07,4.56.88,6.92a10,10,0,0,0-.36-8.36A6.49,6.49,0,0,0,89.13,65.32Z"/><path class="cls-8" d="M87.46,63.59a.5.5,0,0,0-.57.09.85.85,0,0,0-.25.55.67.67,0,0,0,.07.44.58.58,0,0,0,.44.23.73.73,0,0,0,.69-.55A.75.75,0,0,0,87.46,63.59Z"/><path class="cls-8" d="M78.39,75.1a1.9,1.9,0,0,0-1,2,2.85,2.85,0,0,0,1.26,1.88,1.86,1.86,0,0,0,.81.33.87.87,0,0,0,.79-.3c.09-.12.13-.31,0-.39a.4.4,0,0,0-.32,0,1.37,1.37,0,0,1-1.29-.23A2,2,0,0,1,78,77.23,3,3,0,0,1,78.39,75.1Z"/><path class="cls-8" d="M71.78,73.9a1.4,1.4,0,0,1-.06,1.33,2.27,2.27,0,0,1-1,.88,6.12,6.12,0,0,1-1.32.41,1.74,1.74,0,0,0,1.23-.07,3.83,3.83,0,0,0,1-.72,2.44,2.44,0,0,0,.67-.89,1,1,0,0,0-.19-1,.35.35,0,0,0-.33-.1C71.67,73.74,71.65,74,71.78,73.9Z"/><path class="cls-16" d="M69.75,92.58A3.51,3.51,0,0,0,71,88.14a3.72,3.72,0,0,0-4.32-1.79A4,4,0,0,0,64,90.24a3.2,3.2,0,0,1-1.17-.89l-.47,2.45a2.36,2.36,0,0,1-.94-1,6.6,6.6,0,0,0-.58,2.84l-.63-.15a1.88,1.88,0,0,1-1.5,2.14,5.25,5.25,0,0,1-2.86-.38,5.55,5.55,0,0,0,4.68,2.51,9.09,9.09,0,0,0,5.17-1.71,32.84,32.84,0,0,0,4.2-3.63S69.93,92.43,69.75,92.58Z"/><path class="cls-16" d="M60.9,88.71a10.47,10.47,0,0,0,2-2,4.22,4.22,0,0,0,.82-2.66,3.75,3.75,0,0,0-2.77-3.15,5.16,5.16,0,0,0-4.24.89A8.35,8.35,0,0,0,54,85.32,12.14,12.14,0,0,0,53.7,94l1-3.58A2.85,2.85,0,0,0,55.2,92a10.09,10.09,0,0,1,2-3.55,3.51,3.51,0,0,0,.56,1.74l1.3-2.64a1.32,1.32,0,0,0,1,1.18C60.62,88.82,61.22,88.54,60.9,88.71Z"/><path class="cls-8" d="M56.79,83.29a4.43,4.43,0,0,0-2.12,2.11A6.49,6.49,0,0,0,54,88.35,18.64,18.64,0,0,1,56.79,83.29Z"/><path class="cls-8" d="M66.65,94.15,66.56,94a.32.32,0,0,0-.48,0,26.13,26.13,0,0,1-4.27,2.49s.75,0,.85,0a2.45,2.45,0,0,0,.53-.09,9,9,0,0,0,3.43-1.93A.19.19,0,0,0,66.65,94.15Z"/><path class="cls-8" d="M67.65,92.81a.22.22,0,0,0-.18,0,.26.26,0,0,0-.17.12.39.39,0,0,0,0,.47.32.32,0,0,0,.33.11.35.35,0,0,0,.25-.26.36.36,0,0,0-.09-.34C67.72,92.85,67.72,92.83,67.65,92.81Z"/><path class="cls-16" d="M82.56,77.05a2.49,2.49,0,0,1-1.73.74,1.71,1.71,0,0,1-1.6-.77c-.61-1,0-2.06.51-3,.92-2,1-4.25,1.34-6.42a25.14,25.14,0,0,1,7-13.67l-5.4-4c-.23-.17-.49-.38-.5-.68s.22-.53.44-.73L86.5,45a19.42,19.42,0,0,1,3.58-2.74,6.47,6.47,0,0,1,4.35-.83,8.94,8.94,0,0,1,5.38,3.94c1.2,1.87,1.85,4.15,3.64,5.46a26.75,26.75,0,0,1-6.84,4.69,7.94,7.94,0,0,1-5.75-.06,9.08,9.08,0,0,0-2.68,2.48c-4.14,5.22-5.67,12.75-5.26,18.3A1,1,0,0,1,82.56,77.05Z"/><path class="cls-8" d="M83.15,49a.27.27,0,0,0-.37,0,.28.28,0,0,0,0,.37.24.24,0,0,0,.16,0,.23.23,0,0,0,.16-.17C83.14,49.18,83.13,49.1,83.15,49Z"/><path class="cls-8" d="M102.29,50.64c-1.42-1-1.91-2.87-2.85-4.34A7.68,7.68,0,0,0,88.84,44c-2,1.32-3.45,3.58-5.68,4.55a20.35,20.35,0,0,0,4.55-3,9.4,9.4,0,0,1,4.92-2.17,8,8,0,0,1,5.92,2.83,14.51,14.51,0,0,1,2.23,3C101.13,49.9,101.59,50.67,102.29,50.64Z"/><path class="cls-8" d="M84.25,48.35a1.73,1.73,0,0,0-.28.26.52.52,0,0,0-.12.35.72.72,0,0,0,.18.36l.48.67a2.23,2.23,0,0,0-.62-.3.81.81,0,0,1-.5-.44.63.63,0,0,1,.26-.66A1.22,1.22,0,0,1,84.25,48.35Z"/><path class="cls-8" d="M100.11,52.67A9.68,9.68,0,0,1,92,53.82a28.65,28.65,0,0,1-7.59-3.68,19.77,19.77,0,0,0,7.45,4.34A8.73,8.73,0,0,0,100.11,52.67Z"/><path class="cls-8" d="M102.1,51.13a6.24,6.24,0,0,1-2.1-2.41,11.24,11.24,0,0,0-4-3.9,6.73,6.73,0,0,0-5.47-.48c-1.82.71-3.14,2.33-4.86,3.26a4.24,4.24,0,0,0-1,.6,1,1,0,0,0-.33,1,1.42,1.42,0,0,0,.72.71,23.61,23.61,0,0,0,8.46,3.47A10.45,10.45,0,0,0,102.1,51.13Z"/><path class="cls-8" d="M90.81,55.08A4.48,4.48,0,0,1,89,54.14a.67.67,0,0,0-.46-.22.41.41,0,0,0-.32.43,1,1,0,0,0,.25.53,2,2,0,0,0,1.16.73A1.35,1.35,0,0,0,90.81,55.08Z"/><path class="cls-8" d="M86.63,59.81a.84.84,0,0,1-1,.25,2.16,2.16,0,0,1-.85-.74,1,1,0,0,0-.29-.29.32.32,0,0,0-.38,0,.36.36,0,0,0,0,.35,2,2,0,0,0,.37.6,2.46,2.46,0,0,0,.75.62,1.06,1.06,0,0,0,1,0A1.11,1.11,0,0,0,86.63,59.81Z"/><path class="cls-18" d="M93,47.34a2.49,2.49,0,0,0-1.46-2.56,3.16,3.16,0,0,0-3,.34,4.3,4.3,0,0,0-1.69,2.58A4.06,4.06,0,0,0,87,50.28,2.8,2.8,0,0,0,89,51.92a3.14,3.14,0,0,0,3-1.42A7.5,7.5,0,0,0,93,47.34Z"/><path d="M90.62,49.3a1.88,1.88,0,0,1-1.19.4,2.42,2.42,0,0,1-1.37-.43A1.69,1.69,0,0,1,87.51,48a1.53,1.53,0,0,1,.83-1.36A2.1,2.1,0,0,1,90,46.39a2,2,0,0,1,1,1.34c-.27-.19-.51-.56-.85-.65a1.2,1.2,0,0,0-1,.12,1,1,0,0,0-.51.92,1.24,1.24,0,0,0,.59,1,1.61,1.61,0,0,0,1.75-.46C90.82,48.75,90.71,49.23,90.62,49.3Z"/><path d="M94.3,36.87,94,36.54c-.26.12-.33.44-.37.72l-.28,2.06c0,.16,0,.36.11.45a.3.3,0,0,0,.34-.07.84.84,0,0,0,.17-.34A9.63,9.63,0,0,0,94.3,36.87Z"/><path d="M99.15,37.73l-1.81,2.75a.72.72,0,0,0-.13.3.25.25,0,0,0,.12.28c.13.06.28,0,.38-.14a7.56,7.56,0,0,0,1.69-2.2,1.12,1.12,0,0,0,.15-.56A.47.47,0,0,0,99.15,37.73Z"/><path d="M102.68,41.55c-.85.62-1.85,1-2.66,1.68-.15.12-.3.29-.23.46a.31.31,0,0,0,.29.18.88.88,0,0,0,.35-.1,6,6,0,0,0,2.16-1.31.91.91,0,0,0,.27-.45A.51.51,0,0,0,102.68,41.55Z"/><path d="M106.22,46.54a7.73,7.73,0,0,1-2.67,0,1.64,1.64,0,0,0-.73,0,.5.5,0,0,0-.4.52c0,.29.4.41.69.45a4.76,4.76,0,0,0,3.06-.5.42.42,0,0,0,.23-.26.33.33,0,0,0-.23-.35C106,46.36,105.87,46.38,106.22,46.54Z"/><path d="M88.65,37.87a3.82,3.82,0,0,0,.66,2.8.68.68,0,0,0,.56.36.47.47,0,0,0,.37-.31.94.94,0,0,0,.05-.5,4.86,4.86,0,0,0-.85-2,1.4,1.4,0,0,0-.28-.36.45.45,0,0,0-.43-.08C88.59,37.83,88.52,38,88.65,37.87Z"/><path d="M85.46,39.25A7.66,7.66,0,0,1,87.21,42a.83.83,0,0,1,.07.34.34.34,0,0,1-.18.29.33.33,0,0,1-.31-.07.77.77,0,0,1-.19-.28,10.22,10.22,0,0,0-1-1.86,5,5,0,0,1-.42-.52.72.72,0,0,1-.1-.63C85.28,39.18,85.45,39.2,85.46,39.25Z"/><path d="M85.08,44.3A14.45,14.45,0,0,1,83.33,42a1.52,1.52,0,0,0-.3-.37.44.44,0,0,0-.45-.06,3.64,3.64,0,0,0,.68,1.53,11.2,11.2,0,0,0,1.12,1.26.93.93,0,0,0,.27.21.33.33,0,0,0,.32,0A.34.34,0,0,0,85.08,44.3Z"/><path d="M101.73,55.39a1.36,1.36,0,0,0-.7-.29.46.46,0,0,0,0,.41,1.4,1.4,0,0,0,.26.34l1,1.07c.09.09.21.2.33.16a.24.24,0,0,0,.16-.26.67.67,0,0,0-.13-.3A5.65,5.65,0,0,0,101.73,55.39Z"/><path d="M97.69,57.41a4.8,4.8,0,0,0,.85,2.43.5.5,0,0,0,.21.17.2.2,0,0,0,.24-.07.31.31,0,0,0,0-.28l-.9-2.07A.59.59,0,0,0,98,57.4a.21.21,0,0,0-.21,0C97.68,57.38,97.66,57.49,97.69,57.41Z"/><path d="M91.82,57.9a.5.5,0,0,0-.25-.3,7.43,7.43,0,0,0-.24,2.26.84.84,0,0,0,.06.39.28.28,0,0,0,.32.16.4.4,0,0,0,.21-.35A5.1,5.1,0,0,0,91.82,57.9Z"/><path d="M84.38,52.06a.69.69,0,0,0,.2-.22.24.24,0,0,0,0-.28c-.11-.1-.29,0-.42.06A12.17,12.17,0,0,0,82.36,53a.45.45,0,0,0-.16.2c0,.08,0,.19.08.22a.32.32,0,0,0,.19,0A8.1,8.1,0,0,0,84.38,52.06Z"/><path class="cls-16" d="M70.82,74.44l-3-13.51a16.06,16.06,0,0,0-1-3.26c-1.19-2.62-3.67-4.39-6-6.42,1.3-.92,3.8-3,3.67-3.54a16.08,16.08,0,0,0-1.45-2.79,12.12,12.12,0,0,0-3.94-3.76,7.58,7.58,0,0,0-6-1,9.43,9.43,0,0,0-5.09,3.35c-1.24,1.56-2.65,3.92-2.8,5.28-.06.55-1.11,1.09-1,1.57.16.63,1.72,1.07,2.17,1.52a9.33,9.33,0,0,0,7.62,2.7c1.12-.09,3.8-1.52,4.93-1.46a5.21,5.21,0,0,1,3.53,2.24c3.53,4.42,3.39,10.52,4.24,16.11.16,1,.3,2,.38,2.94,0,.14.89,1.33,1.82,1.27S70.79,75,70.82,74.44Z"/><path class="cls-16" d="M54,56.23a.55.55,0,0,1-.29.25"/><path class="cls-8" d="M63.33,47.79a23.65,23.65,0,0,0-3.45-3.48,8,8,0,0,0-4.48-1.78A8,8,0,0,0,49.75,45a15.84,15.84,0,0,0-3.15,4.11A5.07,5.07,0,0,0,49,51a20.52,20.52,0,0,0,3.16.39,17.78,17.78,0,0,0,6.35-.68C60.9,49.87,61.34,48.91,63.33,47.79Z"/><path class="cls-8" d="M63.1,48.54a15,15,0,0,1-16.27,2.68,10.45,10.45,0,0,0,3.49,1.38A13.81,13.81,0,0,0,63.1,48.54Z"/><path class="cls-8" d="M63,46.47a9.41,9.41,0,0,0-6.8-5,8.16,8.16,0,0,0-4.93.57A8.45,8.45,0,0,0,48,45.14a17.72,17.72,0,0,0-1.84,4.18,9.37,9.37,0,0,1,7.39-7.13A9.65,9.65,0,0,1,63,46.47Z"/><path class="cls-8" d="M47.29,50.84A3.22,3.22,0,0,1,46,49.57a1,1,0,0,1-.47.62A2.59,2.59,0,0,0,47.29,50.84Z"/><path class="cls-8" d="M52.61,53.19A11.69,11.69,0,0,1,49.84,53a3.89,3.89,0,0,0,2.88.32C52.73,53.23,52.63,53.16,52.61,53.19Z"/><path class="cls-8" d="M60.46,51.24,58.27,52.9a1.8,1.8,0,0,0,1.34-.21,3.27,3.27,0,0,0,1-1,.49.49,0,0,0,.12-.3C60.72,51.31,60.57,51.15,60.46,51.24Z"/><path class="cls-8" d="M66.15,56.91l-1.76.65a.47.47,0,0,0-.12.07.2.2,0,0,0,0,.23.4.4,0,0,0,.21.12,2.13,2.13,0,0,0,1.12,0,1.44,1.44,0,0,0,.53-.21.69.69,0,0,0,.28-.48C66.42,57.12,66.3,56.92,66.15,56.91Z"/><path class="cls-18" d="M52.25,44.94a1.76,1.76,0,0,0-2.25,0,3.67,3.67,0,0,0-1.28,2.32,4.09,4.09,0,0,0,1.21,3.87,2.28,2.28,0,0,0,2.85-.17,3.71,3.71,0,0,0,1.09-3.18A4.63,4.63,0,0,0,52.25,44.94Z"/><path d="M51.84,46.53a1.27,1.27,0,0,0-1-.09,1.89,1.89,0,0,0-1,.72,1.82,1.82,0,0,0-.17,1.28,1.34,1.34,0,0,0,.9,1.05,1.4,1.4,0,0,0,1.32-.16,2,2,0,0,0,.48-1.45c-.17.24-.28.63-.52.8a.83.83,0,0,1-.81.13.88.88,0,0,1-.57-.72,1.33,1.33,0,0,1,.26-1,1.09,1.09,0,0,1,1.42,0C52.1,47,51.92,46.57,51.84,46.53Z"/><path d="M66.32,45.08a12.08,12.08,0,0,1-1.82.25c-.25,0-.59-.07-.59-.32s.26-.31.46-.36l3.26-.75c.16,0,.38,0,.43.11s0,.24-.13.33A2.6,2.6,0,0,1,66.32,45.08Z"/><path d="M66.36,53,63.9,51.47c-.12-.06-.27-.13-.38-.06s-.05.35.07.49A5.69,5.69,0,0,0,64.77,53a1.61,1.61,0,0,0,.77.36A.81.81,0,0,0,66.36,53Z"/><path d="M55,56.76l-.75-.49c-.21.4.1.86.33,1.24a3.87,3.87,0,0,1,.53,1.64,1.41,1.41,0,0,0,.14.65.39.39,0,0,0,.57.13.54.54,0,0,0,.09-.45,6.62,6.62,0,0,0-1.21-3c-.07-.09-.14-.18-.25-.19S54.23,56.36,55,56.76Z"/><path d="M50.31,56.63a1.17,1.17,0,0,0-.5-.46l-.61,2.52a.42.42,0,0,0,0,.27.25.25,0,0,0,.32.09.63.63,0,0,0,.26-.25A2.91,2.91,0,0,0,50.31,56.63Z"/><path d="M46.42,54.72l.31-.76c-.23-.15-.53,0-.72.26a5.3,5.3,0,0,0-1.25,2.57A4.63,4.63,0,0,0,46.42,54.72Z"/><path d="M44.62,46.39l0,.49-3.07-1.66c-.12-.06-.26-.15-.27-.29a.29.29,0,0,1,.27-.28.85.85,0,0,1,.41.09,12.25,12.25,0,0,1,2.33,1.34.72.72,0,0,1,.38.49C44.74,46.78,44.48,47,44.62,46.39Z"/><path d="M46.35,43.68a8.86,8.86,0,0,1-2.63-1.92c-.09-.1-.18-.27-.07-.35a.26.26,0,0,1,.23,0,5.38,5.38,0,0,1,2.75,2.08C46.46,43.63,46.22,43.69,46.35,43.68Z"/><path d="M47.62,38.17,49,40.41c.17.29.48.61.77.46s.18-.61,0-.9a10.24,10.24,0,0,0-1.13-1.57,1,1,0,0,0-.51-.37A.55.55,0,0,0,47.62,38.17Z"/><path d="M52.7,35.7l-.29,2.77c0,.23,0,.53.2.61s.47-.23.54-.49a6.38,6.38,0,0,0,.22-2.26,1.39,1.39,0,0,0-.14-.53.47.47,0,0,0-.47-.23C52.58,35.6,52.46,35.83,52.7,35.7Z"/><path d="M58.73,36.69,57,39a.34.34,0,0,0-.1.26c0,.22.37.18.56.05a4.37,4.37,0,0,0,1.62-1.91.66.66,0,0,0,0-.53C59.06,36.74,58.77,36.72,58.73,36.69Z"/><path d="M63.92,40.11l-2.29,1.68c-.19.14-.4.4-.25.58s.37.07.54,0A10.9,10.9,0,0,0,64,40.87a.9.9,0,0,0,.28-.36.36.36,0,0,0-.09-.42C64.06,40,63.84,40.09,63.92,40.11Z"/></g></g></svg>