<svg xmlns="http://www.w3.org/2000/svg" viewBox="0 0 108.04 75.19"><defs><style>.cls-1{fill:#fafafa;}.cls-2{fill:#1c1c23;}.cls-3{fill:#ebeaeb;}.cls-4{fill:#ececec;}.cls-5{fill:#d4d3d5;}</style></defs><g id="Layer_2" data-name="Layer 2"><g id="Capa_20" data-name="Capa 20"><g id="VqorNs.tif"><path class="cls-1" d="M58.06,60.2C68.52,61.48,78.83,62.64,89.11,64c10.81,1.45,17.68-3.4,18.44-14.43a207.09,207.09,0,0,0,0-28.62C106.76,9.84,97,4.1,86,7.48c-9,2.76-18,5.46-27.8,8.4.42-2.35.67-3.71.91-5.07C59.67,7.73,62,4.34,57.84,2,54-.17,50.07-1,46.1,1.62A426.57,426.57,0,0,0,1.91,35.21c-2.54,2.17-2.54,3.69,0,5.92A259.89,259.89,0,0,0,47.46,73.76c1.38.77,2.71,1.91,4.62,1.21C57.66,72.93,60.56,66.18,58.06,60.2Z"/><path class="cls-2" d="M58.06,60.2c2.5,6-.4,12.73-6,14.77-1.91.7-3.24-.44-4.62-1.21A259.89,259.89,0,0,1,1.89,41.13c-2.52-2.23-2.52-3.75,0-5.92A426.57,426.57,0,0,1,46.1,1.62C50.07-1,54-.17,57.84,2c4.11,2.34,1.83,5.73,1.29,8.81-.24,1.36-.49,2.72-.91,5.07C68,12.94,77,10.24,86,7.48,97,4.1,106.76,9.84,107.53,21a207.09,207.09,0,0,1,0,28.62c-.76,11-7.63,15.88-18.44,14.43C78.83,62.64,68.52,61.48,58.06,60.2Zm45.59-38.67c-.17-2-.31-4-1.64-5.84-2.11,1.4-4.41,2.51-6.14,4.2s-3.6,6.67-.88,6.53l8.66-4.89c-.65.83,1.52,0,.12,1.76l-8,5.1c-1.63,2.21-.58,6.31.08,7.21C105.77,27.65,104.18,31.1,103.65,21.53ZM44.5,67l1.47.3-.43-1.37c-1.11-2.66-2.2-5.34-3.33-8-.69-1.65-2.43-3.24-1-5.08s3.61-.38,5.19,0C60,56.53,74,56.65,87.75,59c3,.51,3.91-.24,3.9-3.41-.05-13.09-.37-26.15-1.45-39.21-.35-4.31-1.44-5.64-6.18-4-11.53,4-23.32,7.39-35,11-6.31,1.94-7.4.94-6.09-5.66.63-3.2,1.42-6.38,2.37-10.58C30.33,17,16.67,26.86,4,38.22,16.86,49.23,30,59,44.5,67Zm3.14-52.32c5.73.61,8.4-3.2,6.69-9.94C51.88,8.11,49,10.76,47.64,14.65Z"/><path class="cls-1" d="M44.5,67C30,59,16.86,49.23,4,38.22,16.67,26.86,30.33,17,45.29,7.12c-.95,4.2-1.74,7.38-2.37,10.58-1.31,6.6-.22,7.6,6.09,5.66,11.69-3.6,23.48-6.95,35-11,4.74-1.66,5.83-.33,6.18,4,1.08,13.06,1.4,26.12,1.45,39.21,0,3.17-.88,3.92-3.9,3.41C74,56.65,60,56.53,46.4,52.87c-1.58-.42-3.66-2-5.19,0s.31,3.43,1,5.08c1.13,2.65,2.22,5.33,3.33,8Z"/><path class="cls-3" d="M102.77,41.43c2.57,2.6,1.78,4.9-.72,7-1.53,1.27-5.35,2.81-7.14,4.19v1.77c1.88-.32,6.59-2.43,7.84-2.34-.84,3.94-3.17,6.43-7.36,8.66-.2-5.29-1.39-9.94,1-14.5A21,21,0,0,0,102.77,41.43Z"/><path class="cls-4" d="M95.65,43.71S95,40.59,95,40.16l8.65-7.65c.64,3.45,1.29,6.2-2.08,7.89A57.52,57.52,0,0,1,95.65,43.71Z"/><path class="cls-5" d="M47.64,14.65c1.31-3.89,4.24-6.54,6.69-9.94C56,11.45,53.37,15.26,47.64,14.65Z"/><path class="cls-2" d="M96.51,44.09l5-3.69,1.21,1a21,21,0,0,1-6.33,4.74Z"/><path class="cls-1" d="M45.54,65.9,46,67.27,44.5,67Z"/></g></g></g></svg>