<?xml version="1.0" encoding="utf-8"?>
<!-- Generator: Adobe Illustrator 26.0.1, SVG Export Plug-In . SVG Version: 6.00 Build 0)  -->
<svg version="1.1" id="Capa_1" xmlns="http://www.w3.org/2000/svg" xmlns:xlink="http://www.w3.org/1999/xlink" x="0px" y="0px"
	 viewBox="0 0 207.5 192.51" style="enable-background:new 0 0 207.5 192.51;" xml:space="preserve">
<style type="text/css">
	.st0{fill:#FFFFFF;}
	.st1{font-family:'Avenir-Light';}
	.st2{font-size:10px;}
	.st3{font-size:17.6171px;}
	.st4{fill:none;stroke:#FFFFFF;stroke-width:2;stroke-linecap:round;stroke-linejoin:round;stroke-miterlimit:10;}
	.st5{fill:#E93400;}
	.st6{fill:#1A1917;}
	.st7{font-family:'Moonlights-on-the-Beach';}
	.st8{font-size:68.2497px;}
	.st9{font-size:56.4822px;}
	.st10{font-size:56.4824px;}
	.st11{font-size:56.4825px;}
	.st12{font-size:56.4823px;}
</style>
<circle cx="96.48" cy="96.26" r="84.49"/>
<text transform="matrix(0.5682 -0.8229 0.8229 0.5682 35.441 63.6716)" class="st0 st1 st2">L</text>
<text transform="matrix(0.6491 -0.7607 0.7607 0.6491 40.4377 55.9792)" class="st0 st1 st2">I</text>
<text transform="matrix(0.7307 -0.6827 0.6827 0.7307 43.6837 52.3942)" class="st0 st1 st2">B</text>
<text transform="matrix(0.7203 -0.6937 0.6937 0.7203 48.8743 46.9902)" class="st0 st1 st2">É</text>
<text transform="matrix(0.8002 -0.5997 0.5997 0.8002 53.9854 42.0108)" class="st0 st1 st2">R</text>
<text transform="matrix(0.885 -0.4656 0.4656 0.885 61.1343 36.8552)" class="st0 st1 st2">A</text>
<text transform="matrix(0.94 -0.3411 0.3411 0.94 66.869 33.6158)" class="st0 st1 st2">T</text>
<text transform="matrix(1 0 0 1 86.2831 27.8188)" class="st0 st1 st2">D</text>
<text transform="matrix(1 0 0 1 94.8419 27.819)" class="st0 st1 st2">E</text>
<text transform="matrix(0.9382 0.346 -0.346 0.9382 110.6 29.4762)" class="st0 st1 st2">T</text>
<text transform="matrix(0.9264 0.3765 -0.3765 0.9264 119.1679 33.1496)" class="st0 st1 st2">U</text>
<text transform="matrix(0.8967 0.4427 -0.4427 0.8967 127.4201 36.9716)" class="st0 st1 st2">S</text>
<text transform="matrix(0.9589 -0.2837 0.2837 0.9589 74.0714 30.9051)" class="st0 st1 st2">E</text>
<text transform="matrix(0.8732 0.4873 -0.4873 0.8732 38.0037 153.0345)" class="st0 st1 st3">F</text>
<text transform="matrix(0.8559 0.5171 -0.5171 0.8559 47.3515 158.8866)" class="st0 st1 st3">I</text>
<text transform="matrix(0.9004 0.435 -0.435 0.9004 51.6707 162.6936)" class="st0 st1 st3">N</text>
<text transform="matrix(0.955 0.2965 -0.2965 0.955 64.2697 169.1258)" class="st0 st1 st3">A</text>
<text transform="matrix(0.9935 0.1135 -0.1135 0.9935 75.9417 173.1364)" class="st0 st1 st3">N</text>
<text transform="matrix(0.9955 -0.0944 0.0944 0.9955 90.9987 174.8803)" class="st0 st1 st3">C</text>
<text transform="matrix(0.9914 -0.1307 0.1307 0.9914 105.1271 174.7841)" class="st0 st1 st3">I</text>
<text transform="matrix(0.9269 -0.3753 0.3753 0.9269 123.0097 169.2059)" class="st0 st1 st3">R</text>
<text transform="matrix(0.925 0.38 -0.38 0.925 127.3858 158.936)" class="st0 st1 st3">O</text>
<text transform="matrix(0.7964 -0.6047 0.6047 0.7964 145.876 156.487)" class="st0 st1 st3">S</text>
<text transform="matrix(0.9434 -0.3316 0.3316 0.9434 112.3305 173.0997)" class="st0 st1 st3">E</text>
<path class="st4" d="M162.05,146.23c-33.58,43.48-102.23,46.88-137.12-3.74"/>
<path class="st5" d="M96.83,155.87c16.15-0.62,31.21-7.95,41.75-18.06C141.02,135.46,101.74,140.54,96.83,155.87z"/>
<g>
	<path class="st0" d="M162.26,118.08c4.1-4.99,0.87-9.7-4.43-11.64c-4.72-1.77-10.2,0.95-12.37,5.31
		c-2.22,4.28-1.29,9.95,1.76,13.61c6.6,7.36,20.59,3.37,22.94-6.07c2.52-10.17-1.44-20.09-13.5-19.5
		c-5.06,0.24-10.02,2.39-14.2,5.24c-9.45,6.24-19.53,11.35-29.81,15.91c-25.73,10.99-53.18,19.03-81.26,20.19
		c-5.61,0.15-11.28-0.11-16.79-1.39c0,0,0.21-0.98,0.21-0.98c5.43,0.91,10.99,0.79,16.49,0.42c27.52-2.56,54.29-11.32,79.42-22.54
		c10.03-4.59,19.77-9.83,28.9-15.89c7.17-5.04,17.37-8.32,26.11-4.67c7.02,2.75,10.6,10.57,10.27,17.79
		c0.02,5.48-1.83,11.29-6.13,14.96c-7.07,6.42-19.51,6.91-25.8-0.85c-3.85-4.96-4.71-12.3-1.52-17.82
		c3.05-5.49,10.27-8.48,16.13-5.89c6.18,2.74,9.68,9.03,4.29,14.52C162.97,118.78,162.26,118.08,162.26,118.08L162.26,118.08z"/>
</g>
<path class="st6" d="M133.03,134.43"/>
<path class="st0" d="M90.93,155.71c0,0-3.63-1.94-3.68-7.42c-0.02-2.22,2.72-3.25,4.16-1.56c2.34,2.75,5.84,5.99,9.95,6.94
	C101.36,153.67,98.76,158.33,90.93,155.71z"/>
<path class="st0" d="M137.62,136.65c0,0,0.56-4.08-3.84-7.34c-1.79-1.32-4.23,0.29-3.7,2.45c0.85,3.51,1.41,8.25-0.23,12.13
	C129.85,143.89,135.14,144.52,137.62,136.65z"/>
<path class="st4" d="M144.42,130.97c-10.96,15.05-28.72,24.83-48.76,24.83c-17.36,0-33-7.34-44-19.07"/>
<path class="st4" d="M36.04,92.23c1.66-31.75,27.93-56.98,60.09-56.98c24.92,0,46.31,15.15,55.44,36.75"/>
<g>
	<text transform="matrix(0.961 -0.2766 0.2766 0.961 17.1887 130.8419)" class="st0 st7 st8">M</text>
</g>
<g>
	<text transform="matrix(0.9673 -0.2537 0.2537 0.9673 96.441 104.7859)" class="st0 st7 st9">s</text>
</g>
<g>
	<text transform="matrix(0.9494 -0.3141 0.3141 0.9494 164.8089 87.2293)" class="st0 st7 st9">s</text>
</g>
<g>
	<text transform="matrix(0.9963 -0.0856 0.0856 0.9963 60.7757 117.5055)" class="st0 st7 st10">o</text>
</g>
<g>
	<text transform="matrix(0.9381 -0.3464 0.3464 0.9381 79.0248 110.9628)" class="st0 st7 st11">n</text>
</g>
<g>
	<text transform="matrix(0.95 -0.3124 0.3124 0.95 109.5482 102.3562)" class="st0 st7 st11">t</text>
</g>
<g>
	<text transform="matrix(0.9485 -0.3168 0.3168 0.9485 117.7325 99.9088)" class="st0 st7 st9">r</text>
</g>
<g>
	<text transform="matrix(0.995 -0.0999 0.0999 0.995 148.5149 90.2585)" class="st0 st7 st12">o</text>
</g>
<g>
	<text transform="matrix(0.9685 -0.249 0.249 0.9685 130.3426 96.651)" class="st0 st7 st9">u</text>
</g>
</svg>
