<svg xmlns="http://www.w3.org/2000/svg" viewBox="0 0 94.96 75.46"><defs><style>.cls-1{fill:none;stroke:#000;stroke-miterlimit:10;stroke-width:2px;}.cls-2{fill:#afafaf;}.cls-3{fill:#fff;}</style></defs><g id="Layer_2" data-name="Layer 2"><g id="home"><polyline class="cls-1" points="86.1 54.99 86.1 74.46 9.28 74.46 9.28 54.99"/><circle class="cls-2" cx="18.8" cy="33.51" r="5.26"/><circle cx="20" cy="32.17" r="1.76"/><circle class="cls-3" cx="20.79" cy="31.26" r="1.28"/><circle class="cls-2" cx="80.84" cy="33.73" r="5.26"/><circle cx="82.04" cy="32.38" r="1.76"/><circle class="cls-3" cx="82.83" cy="31.48" r="1.28"/><polyline class="cls-1" points="9.28 20.47 9.28 1 86.1 1 86.1 20.47"/><path d="M17.28,44.77h4.25v.6H17.94v2.52h3.34v.61H17.94v3.36h-.66Z"/><path d="M23,44.77h.66v7.09H23Z"/><path d="M25.79,44.77h.85L31,51h0V44.77h.66v7.09h-.85l-4.32-6.21h0v6.21h-.66Z"/><path d="M35.92,44.77h.68l3,7.09h-.74L38.07,50H34.32l-.8,1.88h-.69Zm.31.72-1.65,3.89h3.25Z"/><path d="M40.78,44.77h.85L45.94,51h0V44.77h.66v7.09h-.85l-4.31-6.21h0v6.21h-.66Z"/><path d="M54.57,50.75a3,3,0,0,1-1.18,1,3.52,3.52,0,0,1-1.45.3,3.8,3.8,0,0,1-1.49-.28A3.28,3.28,0,0,1,49.3,51a3.5,3.5,0,0,1-.75-1.18,4.27,4.27,0,0,1,0-3,3.56,3.56,0,0,1,.75-1.17,3.44,3.44,0,0,1,1.15-.78,3.8,3.8,0,0,1,1.49-.28,3.57,3.57,0,0,1,1.35.26,2.66,2.66,0,0,1,1.09.85l-.54.45a2,2,0,0,0-.84-.73,2.66,2.66,0,0,0-1.06-.23,3.13,3.13,0,0,0-1.25.24,2.75,2.75,0,0,0-.94.66,2.92,2.92,0,0,0-.6,1,3.74,3.74,0,0,0,0,2.47,2.92,2.92,0,0,0,.6,1,2.75,2.75,0,0,0,.94.66,3.13,3.13,0,0,0,1.25.24,2.2,2.2,0,0,0,.56-.07,2.59,2.59,0,0,0,.57-.2,2.73,2.73,0,0,0,.52-.34,2.08,2.08,0,0,0,.44-.49Z"/><path d="M56,44.77h.66v7.09H56Z"/><path d="M58.73,44.77h4.33v.6H59.39v2.52h3.44v.61H59.39v2.76h3.83v.6H58.73Z"/><path d="M64.83,44.77h2.25l.52.06a3.53,3.53,0,0,1,.57.16,1.87,1.87,0,0,1,.52.32,1.75,1.75,0,0,1,.38.53,1.87,1.87,0,0,1,.15.78,1.74,1.74,0,0,1-.18.84,1.56,1.56,0,0,1-.44.54,1.8,1.8,0,0,1-.58.31,5.79,5.79,0,0,1-.61.14l2.06,3.4h-.75l-2-3.36H65.49v3.36h-.66Zm.66,3.12H66.9a2.25,2.25,0,0,0,.84-.13,1.28,1.28,0,0,0,.51-.32.91.91,0,0,0,.24-.41,1.21,1.21,0,0,0,.07-.4,1.25,1.25,0,0,0-.07-.4,1,1,0,0,0-.24-.41,1.54,1.54,0,0,0-.51-.32,2.47,2.47,0,0,0-.84-.13H65.49Z"/><path d="M70.48,48.32a4,4,0,0,1,.27-1.5,3.56,3.56,0,0,1,.75-1.17,3.49,3.49,0,0,1,1.16-.78,3.75,3.75,0,0,1,1.48-.28,3.8,3.8,0,0,1,1.49.28,3.49,3.49,0,0,1,1.16.78,3.56,3.56,0,0,1,.75,1.17,4.27,4.27,0,0,1,0,3A3.5,3.5,0,0,1,76.79,51a3.32,3.32,0,0,1-1.16.77,3.8,3.8,0,0,1-1.49.28,3.75,3.75,0,0,1-1.48-.28A3.32,3.32,0,0,1,71.5,51a3.5,3.5,0,0,1-.75-1.18A4,4,0,0,1,70.48,48.32Zm.66,0a3.53,3.53,0,0,0,.21,1.23,2.92,2.92,0,0,0,.6,1,2.79,2.79,0,0,0,1,.66,3.08,3.08,0,0,0,1.24.24,3.13,3.13,0,0,0,1.25-.24,2.79,2.79,0,0,0,1-.66,2.92,2.92,0,0,0,.6-1,3.74,3.74,0,0,0,0-2.47,2.92,2.92,0,0,0-.6-1,2.79,2.79,0,0,0-1-.66,3.13,3.13,0,0,0-1.25-.24,3.08,3.08,0,0,0-1.24.24,2.79,2.79,0,0,0-1,.66,2.92,2.92,0,0,0-.6,1A3.55,3.55,0,0,0,71.14,48.32Z"/><path d="M79.65,50.55a1.68,1.68,0,0,0,.68.67,1.92,1.92,0,0,0,.94.22,1.79,1.79,0,0,0,.62-.1,1.67,1.67,0,0,0,.51-.28,1.48,1.48,0,0,0,.34-.44,1.32,1.32,0,0,0,.12-.57,1.13,1.13,0,0,0-.15-.61,1.24,1.24,0,0,0-.42-.4,3.08,3.08,0,0,0-.58-.26L81,48.56l-.68-.25a2.49,2.49,0,0,1-.58-.37,1.76,1.76,0,0,1-.42-.57,2,2,0,0,1-.15-.84,1.84,1.84,0,0,1,.18-.83,1.77,1.77,0,0,1,.5-.61,2.1,2.1,0,0,1,.73-.37,2.89,2.89,0,0,1,1.94.08,2,2,0,0,1,.85.68l-.57.41a1.59,1.59,0,0,0-.58-.52,1.69,1.69,0,0,0-.8-.18,2,2,0,0,0-.61.09,1.52,1.52,0,0,0-.51.25,1.36,1.36,0,0,0-.34.41,1.25,1.25,0,0,0-.13.59,1.14,1.14,0,0,0,.27.82,1.92,1.92,0,0,0,.68.45,6.48,6.48,0,0,0,.88.29,4.23,4.23,0,0,1,.88.34,1.87,1.87,0,0,1,.67.58,1.76,1.76,0,0,1,.27,1,1.93,1.93,0,0,1-.18.85,2,2,0,0,1-.48.62,2.23,2.23,0,0,1-.71.39,2.53,2.53,0,0,1-.83.13A3.19,3.19,0,0,1,80,51.79,2.32,2.32,0,0,1,79,51Z"/><path d="M28.34,63.14A1.33,1.33,0,0,1,29.7,64.4a17.24,17.24,0,0,0,3.08,9.12c-1,0-2.18,0-3.46,0s-2.36,0-3.3-.06c-.37-1.77-1.08-6.58,1.23-9.79a1.3,1.3,0,0,1,1.09-.58m0-1a2.3,2.3,0,0,0-1.9,1c-3.19,4.43-1.23,11.32-1.23,11.32,1.25.08,2.71.11,4.11.11,2.79,0,5.3-.11,5.3-.11C31.68,70.32,31,67.92,30.7,64.33a2.34,2.34,0,0,0-2.36-2.19Z"/><path d="M65.91,63.14a1.3,1.3,0,0,1,1.09.58c2.31,3.21,1.6,8,1.23,9.79q-1.41.06-3.3.06c-1.28,0-2.51,0-3.46,0a17.24,17.24,0,0,0,3.08-9.12,1.33,1.33,0,0,1,1.36-1.26m0-1a2.34,2.34,0,0,0-2.36,2.19c-.26,3.59-1,6-3.92,10.13,0,0,2.51.11,5.3.11,1.4,0,2.86,0,4.11-.11,0,0,2-6.89-1.23-11.32a2.3,2.3,0,0,0-1.9-1Z"/><path d="M5.38,37.16l3.69-8.88h1.7V39.2H9.66V29.76h0l-4,9.44H5.09L1.14,29.76h0V39.2H0V28.28H1.7Z"/><path d="M24.38,33.74a6,6,0,0,1-.44,2.3,5.35,5.35,0,0,1-3,3,5.76,5.76,0,0,1-2.26.44A5.84,5.84,0,0,1,16.42,39a5.39,5.39,0,0,1-1.8-1.19A5.51,5.51,0,0,1,13.42,36a6.37,6.37,0,0,1,0-4.6,5.4,5.4,0,0,1,1.2-1.81,5.57,5.57,0,0,1,1.8-1.2A5.83,5.83,0,0,1,18.68,28a5.76,5.76,0,0,1,2.26.43,5.51,5.51,0,0,1,1.81,1.2,5.23,5.23,0,0,1,1.19,1.81A5.93,5.93,0,0,1,24.38,33.74Zm-1.21,0a5.16,5.16,0,0,0-.31-1.8,4.5,4.5,0,0,0-.88-1.5,4.31,4.31,0,0,0-1.41-1A4.43,4.43,0,0,0,18.68,29a4.39,4.39,0,0,0-1.88.38,4.31,4.31,0,0,0-1.41,1,4.52,4.52,0,0,0-.89,1.5,5.35,5.35,0,0,0,0,3.59A4.57,4.57,0,0,0,15.39,37a4.28,4.28,0,0,0,1.41,1,4.39,4.39,0,0,0,1.88.39,4.44,4.44,0,0,0,1.89-.39A4.28,4.28,0,0,0,22,37a4.55,4.55,0,0,0,.88-1.51A5.15,5.15,0,0,0,23.17,33.74Z"/><path d="M34.5,37.53h0V28.28h1.11V39.2H34.25l-6.51-9.35h0V39.2H26.6V28.28H28Z"/><path d="M43.77,30.08A2.39,2.39,0,0,0,41.66,29a3.05,3.05,0,0,0-.85.11,2.37,2.37,0,0,0-.75.36,1.74,1.74,0,0,0-.53.61,1.83,1.83,0,0,0-.2.89,1.57,1.57,0,0,0,.41,1.15,3.22,3.22,0,0,0,1,.67,10.63,10.63,0,0,0,1.35.47,6.73,6.73,0,0,1,1.35.56,3.21,3.21,0,0,1,1,.91,2.62,2.62,0,0,1,.42,1.56,2.82,2.82,0,0,1-.32,1.34,3.07,3.07,0,0,1-.83,1,3.81,3.81,0,0,1-1.16.62,4.16,4.16,0,0,1-1.29.22,4.88,4.88,0,0,1-1.9-.38,3.6,3.6,0,0,1-1.54-1.24l1-.73a2.76,2.76,0,0,0,1,1,3,3,0,0,0,1.5.36,3,3,0,0,0,.83-.13,2.5,2.5,0,0,0,.74-.39,2.34,2.34,0,0,0,.55-.62,1.7,1.7,0,0,0,.21-.85,1.74,1.74,0,0,0-.24-.95,2.1,2.1,0,0,0-.63-.63,4.32,4.32,0,0,0-.89-.43l-1-.34c-.35-.11-.7-.24-1-.38a4.09,4.09,0,0,1-.9-.55,2.5,2.5,0,0,1-.63-.83,3.35,3.35,0,0,1,.06-2.63,2.77,2.77,0,0,1,.81-1,3.64,3.64,0,0,1,1.13-.57,4.69,4.69,0,0,1,1.3-.18,4.78,4.78,0,0,1,1.68.29,3.7,3.7,0,0,1,1.4,1Z"/><path d="M50.68,39.2H49.57V29.29H45.91v-1h8.43v1H50.68Z"/><path d="M57.15,39.2H56V28.28H59.4A4.3,4.3,0,0,1,62,29a2.56,2.56,0,0,1,1,2.19,2.76,2.76,0,0,1-.71,1.92,3.07,3.07,0,0,1-2.08.9l3.15,5.19H62l-3-5.08H57.15Zm0-6.1h2A4.63,4.63,0,0,0,60.38,33a2.25,2.25,0,0,0,.82-.41,1.44,1.44,0,0,0,.45-.6,2,2,0,0,0,.14-.75,2,2,0,0,0-.14-.73,1.47,1.47,0,0,0-.45-.61,2.1,2.1,0,0,0-.82-.41,4.63,4.63,0,0,0-1.26-.15h-2Z"/><path d="M73,35.13a6.82,6.82,0,0,1-.16,1.44A3.86,3.86,0,0,1,72.22,38,3.48,3.48,0,0,1,71,39.05a4.87,4.87,0,0,1-4,0A3.45,3.45,0,0,1,65.77,38a3.86,3.86,0,0,1-.61-1.41A6.82,6.82,0,0,1,65,35.13V28.28h1.11V35a5.24,5.24,0,0,0,.15,1.35,3.48,3.48,0,0,0,.41.95,2.24,2.24,0,0,0,.57.61,3.38,3.38,0,0,0,.64.35,2.9,2.9,0,0,0,.61.16c.19,0,.36,0,.5,0s.31,0,.51,0a2.9,2.9,0,0,0,.61-.16,3.71,3.71,0,0,0,.64-.35,2.24,2.24,0,0,0,.57-.61,3.48,3.48,0,0,0,.41-.95A5.24,5.24,0,0,0,71.88,35V28.28H73Z"/><path d="M86.41,33.74A6,6,0,0,1,86,36a5.64,5.64,0,0,1-1.19,1.81A5.43,5.43,0,0,1,83,39a6,6,0,0,1-4.52,0,5.43,5.43,0,0,1-1.81-1.19A5.64,5.64,0,0,1,75.46,36a6.37,6.37,0,0,1,0-4.6,5.53,5.53,0,0,1,1.19-1.81,5.61,5.61,0,0,1,1.81-1.2,6.15,6.15,0,0,1,4.52,0,5.61,5.61,0,0,1,1.81,1.2A5.53,5.53,0,0,1,86,31.44,5.93,5.93,0,0,1,86.41,33.74Zm-1.2,0a5.16,5.16,0,0,0-.31-1.8,4.36,4.36,0,0,0-.89-1.5,4.11,4.11,0,0,0-1.41-1,4.84,4.84,0,0,0-3.76,0,4.11,4.11,0,0,0-1.41,1,4.36,4.36,0,0,0-.89,1.5,5.35,5.35,0,0,0,0,3.59A4.41,4.41,0,0,0,77.43,37a4.09,4.09,0,0,0,1.41,1,4.73,4.73,0,0,0,3.76,0A4.09,4.09,0,0,0,84,37a4.41,4.41,0,0,0,.89-1.51A5.15,5.15,0,0,0,85.21,33.74Z"/><path d="M93.8,30.08A2.39,2.39,0,0,0,91.69,29a3.05,3.05,0,0,0-.85.11,2.37,2.37,0,0,0-.75.36,1.74,1.74,0,0,0-.53.61,2,2,0,0,0-.2.89,1.53,1.53,0,0,0,.42,1.15,3.17,3.17,0,0,0,1,.67,10.63,10.63,0,0,0,1.35.47,6.28,6.28,0,0,1,1.35.56,3.11,3.11,0,0,1,1,.91A2.62,2.62,0,0,1,95,36.31a2.82,2.82,0,0,1-.32,1.34,3,3,0,0,1-.83,1,3.7,3.7,0,0,1-1.16.62,4.05,4.05,0,0,1-1.28.22,4.93,4.93,0,0,1-1.91-.38,3.73,3.73,0,0,1-1.54-1.24l1-.73a2.79,2.79,0,0,0,1,1,2.94,2.94,0,0,0,1.49.36,3,3,0,0,0,.83-.13,2.43,2.43,0,0,0,.75-.39,2.14,2.14,0,0,0,.54-.62,1.71,1.71,0,0,0,.22-.85,1.74,1.74,0,0,0-.24-.95,2,2,0,0,0-.64-.63,4.32,4.32,0,0,0-.89-.43l-1-.34c-.36-.11-.7-.24-1-.38a3.8,3.8,0,0,1-.89-.55,2.38,2.38,0,0,1-.63-.83,3.35,3.35,0,0,1,.06-2.63,2.85,2.85,0,0,1,.8-1,3.64,3.64,0,0,1,1.13-.57,4.91,4.91,0,0,1,3,.11,3.7,3.7,0,0,1,1.4,1Z"/></g></g></svg>