<svg xmlns="http://www.w3.org/2000/svg" viewBox="0 0 67.8 40.09"><defs><style>.cls-1{fill:#fff;}.cls-2{fill:#1d1d1b;}</style></defs><g id="Capa_2" data-name="Capa 2"><g id="logos_mide" data-name="logos mide"><path class="cls-1" d="M6.11,30.71c0,.07,0,.15.08.23,0-.08-.05-.16-.08-.23"/><path class="cls-1" d="M11.74,35.55a1.38,1.38,0,0,1-.31,1,1,1,0,0,1-.79.33,1,1,0,0,1-.77-.34,1.44,1.44,0,0,1-.3-1V29.34a1.39,1.39,0,0,1,.3-1,1,1,0,0,1,.77-.33,1,1,0,0,1,.79.33,1.26,1.26,0,0,1,.31.91Zm-.32-8.8a1.08,1.08,0,0,1-.75.28,1.17,1.17,0,0,1-.78-.27A1,1,0,0,1,9.57,26a1,1,0,0,1,.33-.76,1.14,1.14,0,0,1,1.51,0,1,1,0,0,1,.33.79,1,1,0,0,1-.32.78"/><path class="cls-1" d="M25,35.55a1.38,1.38,0,0,1-.31,1,1,1,0,0,1-.78.33,1,1,0,0,1-.78-.34,1.44,1.44,0,0,1-.3-1V29.34a1.39,1.39,0,0,1,.3-1,1,1,0,0,1,.78-.33,1,1,0,0,1,.78.33,1.26,1.26,0,0,1,.31.91Z"/><path class="cls-1" d="M19.14,35.54c.08.14.15.27.23.39,0-.2,0-.43,0-.69q-.12.16-.24.3"/><path class="cls-1" d="M6.33,32a3.66,3.66,0,0,1-.28,1.54,2,2,0,0,1-.76.92,1.89,1.89,0,0,1-1,.3,1.82,1.82,0,0,1-1-.32,2.15,2.15,0,0,1-.76-.93A3.81,3.81,0,0,1,2.18,32a3.88,3.88,0,0,1,.26-1.46,2.09,2.09,0,0,1,.73-1,1.72,1.72,0,0,1,1.06-.34,1.87,1.87,0,0,1,1.06.33,2.28,2.28,0,0,1,.76.95l.06.16c-.28-.88-.54-1.76-.78-2.65L5.19,28a3.56,3.56,0,0,0-1.58-.32A3.32,3.32,0,0,0,1,28.8,4.68,4.68,0,0,0,0,32a6.05,6.05,0,0,0,.25,1.79A4.27,4.27,0,0,0,1,35.2a3.28,3.28,0,0,0,1.15.95,3.17,3.17,0,0,0,1.44.33,3.4,3.4,0,0,0,1.08-.17,3.29,3.29,0,0,0,.93-.48A5.3,5.3,0,0,0,6.45,35v.21a1.33,1.33,0,0,0,.29.92.94.94,0,0,0,.74.33,1,1,0,0,0,.74-.32h0a50.78,50.78,0,0,1-2-5.22A4.08,4.08,0,0,1,6.33,32"/><path class="cls-1" d="M8.5,25.66a1.45,1.45,0,0,0-.26-.93.94.94,0,0,0-.76-.31.89.89,0,0,0-.76.34,1.6,1.6,0,0,0-.27,1V29a4.57,4.57,0,0,0-1.12-.91c.24.89.5,1.77.78,2.65,0,.07,0,.15.08.23a50.78,50.78,0,0,0,2,5.22,1.34,1.34,0,0,0,.28-.93Z"/><path class="cls-1" d="M10.64,28a1,1,0,0,0-.77.33,1.39,1.39,0,0,0-.3,1v6.21a1.44,1.44,0,0,0,.3,1,1,1,0,0,0,.77.34,1,1,0,0,0,.79-.33,1.38,1.38,0,0,0,.31-1V29.28a1.26,1.26,0,0,0-.31-.91,1,1,0,0,0-.79-.33"/><path class="cls-1" d="M19.33,36.79a2.48,2.48,0,0,1-.22.9,1.34,1.34,0,0,1-.65.66,2.93,2.93,0,0,1-1.31.23,3.23,3.23,0,0,1-.73-.07,1.66,1.66,0,0,1-.54-.23,2.16,2.16,0,0,1-.42-.38l-.36-.43a1.08,1.08,0,0,0-.84-.42.91.91,0,0,0-.65.25.85.85,0,0,0-.27.65,1.47,1.47,0,0,0,.48,1,3.49,3.49,0,0,0,1.36.81,6,6,0,0,0,2,.31,7.44,7.44,0,0,0,2.05-.24,3.09,3.09,0,0,0,1.33-.76,2.71,2.71,0,0,0,.44-.57c-.57-.84-1.12-1.7-1.63-2.59,0,.37,0,.65,0,.86"/><path class="cls-1" d="M18.33,34.77a2,2,0,0,1-1,.29,1.87,1.87,0,0,1-1.49-.68,3,3,0,0,1-.58-2,3.24,3.24,0,0,1,.56-2,2,2,0,0,1,.64-.52c-.22-.56-.42-1.13-.62-1.7a3.09,3.09,0,0,0-.59.18,3.38,3.38,0,0,0-1.14.82,3.68,3.68,0,0,0-.76,1.33,5.37,5.37,0,0,0-.27,1.76,5.78,5.78,0,0,0,.44,2.32,3.55,3.55,0,0,0,1.25,1.56,3.32,3.32,0,0,0,1.91.55,3.21,3.21,0,0,0,1.56-.36,3.3,3.3,0,0,0,.92-.76l-.54-1a1.89,1.89,0,0,1-.27.2"/><path class="cls-1" d="M21.53,35.94v-6.3a2.72,2.72,0,0,0-.2-1.19.86.86,0,0,0-.84-.41.92.92,0,0,0-.71.31,1.26,1.26,0,0,0-.28.88v.29a4,4,0,0,0-1.26-1.11,3.47,3.47,0,0,0-1.6-.35,3.68,3.68,0,0,0-.82.09c.2.57.4,1.14.62,1.7a2,2,0,0,1,.86-.18,1.84,1.84,0,0,1,1.53.74,3.24,3.24,0,0,1,.59,2.06,3.07,3.07,0,0,1-.3,1.42,2.27,2.27,0,0,1-.52.68l.54,1q.12-.13.24-.3c0,.26,0,.49,0,.69.51.89,1.06,1.75,1.63,2.59a2.94,2.94,0,0,0,.3-.72,6.39,6.39,0,0,0,.23-1.86"/><path class="cls-1" d="M23.94,28a1,1,0,0,0-.78.33,1.39,1.39,0,0,0-.3,1v6.21a1.44,1.44,0,0,0,.3,1,1,1,0,0,0,.78.34,1,1,0,0,0,.78-.33,1.38,1.38,0,0,0,.31-1V29.28a1.26,1.26,0,0,0-.31-.91,1,1,0,0,0-.78-.33"/><path class="cls-1" d="M27.34,34a6.28,6.28,0,0,0,.17,1.61,1.59,1.59,0,0,0,.69,1,2.81,2.81,0,0,0,1.54.34,5,5,0,0,0,1-.08,34.51,34.51,0,0,1-3.41-4.63Z"/><path class="cls-1" d="M32,35.79a.7.7,0,0,0-.21-.52.66.66,0,0,0-.48-.21,2.41,2.41,0,0,0-.51.07,3,3,0,0,1-.51.07.65.65,0,0,1-.51-.18.85.85,0,0,1-.19-.44,7.73,7.73,0,0,1,0-.78v-4h.4a2.35,2.35,0,0,0,1-.17.64.64,0,0,0,.35-.62.74.74,0,0,0-.24-.56,1.07,1.07,0,0,0-.71-.21h-.79V26.76a4.58,4.58,0,0,0-.06-.85.94.94,0,0,0-.29-.51,1.07,1.07,0,0,0-1.28-.17,1,1,0,0,0-.36.36,1.22,1.22,0,0,0-.16.52c0,.2,0,.47,0,.82v1.31h-.23a1.21,1.21,0,0,0-.76.21.72.72,0,0,0-.25.56.75.75,0,0,0,.24.57,1.05,1.05,0,0,0,.72.22h.28v2.36a34.51,34.51,0,0,0,3.41,4.63,2.54,2.54,0,0,0,.64-.2.86.86,0,0,0,.57-.8"/><path class="cls-1" d="M42.2,28.06v7.49a1.44,1.44,0,0,0,.3,1,1,1,0,0,0,.78.34,1,1,0,0,0,.79-.33,1.43,1.43,0,0,0,.31-1V30a19.12,19.12,0,0,1-2.18-1.94"/><path class="cls-1" d="M44.07,25.15a1.11,1.11,0,0,0-1.58,0,1.48,1.48,0,0,0-.29,1v1.92A19.12,19.12,0,0,0,44.38,30V26.14a1.38,1.38,0,0,0-.31-1"/><path class="cls-1" d="M33.42,29.26A1.78,1.78,0,0,0,33,30.38a.76.76,0,0,0,.27.6.92.92,0,0,0,.63.24.73.73,0,0,0,.54-.15c.08-.1.22-.3.42-.61a2.06,2.06,0,0,1,.35-.42c-.35-.48-.69-1-1-1.45a2.44,2.44,0,0,0-.8.67"/><path class="cls-1" d="M38.17,34.46a1.9,1.9,0,0,1-.8.73,2.59,2.59,0,0,1-1.2.29,1.38,1.38,0,0,1-1-.35,1.09,1.09,0,0,1-.38-.85.9.9,0,0,1,.32-.74,1.69,1.69,0,0,1,.67-.36c.24-.07.66-.16,1.27-.29l.48-.11c-.34-.36-.68-.72-1-1.09l-.77.16c-.55.11-.9.18-1,.22a2.77,2.77,0,0,0-1.57.85,2.23,2.23,0,0,0-.56,1.52A2.34,2.34,0,0,0,33,35.68a2.44,2.44,0,0,0,1,.9,3.19,3.19,0,0,0,1.48.33,4.23,4.23,0,0,0,1.66-.31,6.67,6.67,0,0,0,1.53-.92,4.73,4.73,0,0,0,.7.91,1,1,0,0,0,.66.32,1,1,0,0,0,.72-.28A.8.8,0,0,0,41,36a1.13,1.13,0,0,0,0-.3,28.06,28.06,0,0,1-2.53-2.09,2.27,2.27,0,0,1-.25.83"/><path class="cls-1" d="M40.6,33.88c0-.44,0-.84,0-1.2v-1.3a4.64,4.64,0,0,0-.34-1.95,2.09,2.09,0,0,0-1.16-1.08A6.06,6.06,0,0,0,36.84,28a5.83,5.83,0,0,0-2.15.35,4.12,4.12,0,0,0-.47.23c.31.49.65,1,1,1.45a2,2,0,0,1,.37-.28,2.73,2.73,0,0,1,1.25-.23,1.56,1.56,0,0,1,1.28.4,2.38,2.38,0,0,1,.35,1.27c-.46.14-.89.25-1.28.34l-.64.15c.32.37.66.73,1,1.09a7.17,7.17,0,0,0,.92-.27v.32a6.35,6.35,0,0,1,0,.8A28.06,28.06,0,0,0,41,35.72c0-.15-.08-.33-.15-.56a4.25,4.25,0,0,1-.2-1.28"/><path class="cls-1" d="M67.7,14.88a10.39,10.39,0,0,0-20.57-3,9.74,9.74,0,0,0-.09,2h0s-.17,1.55,1.24,6.08a3.73,3.73,0,0,1-.81,3.94s-.4.27.17.48,11.52,2.82,17.37-4h0a10.1,10.1,0,0,0,2.69-5.53"/><path class="cls-2" d="M61.48,13.86h-6.8a4.5,4.5,0,0,0,.48,2.06,3.27,3.27,0,0,0,1.23,1.34,3.33,3.33,0,0,0,1.7.45,4.45,4.45,0,0,0,1.14-.14,3.89,3.89,0,0,0,1-.45,8.93,8.93,0,0,0,.89-.66c.27-.24.63-.55,1.06-1a1.15,1.15,0,0,1,.76-.23,1.29,1.29,0,0,1,.87.29,1,1,0,0,1,.33.81,2.2,2.2,0,0,1-.37,1.09,4.52,4.52,0,0,1-1.11,1.19,6.35,6.35,0,0,1-1.88.94,8.16,8.16,0,0,1-2.59.38A7,7,0,0,1,53,18.1,6.92,6.92,0,0,1,51.12,13a8.49,8.49,0,0,1,.46-2.81A6.18,6.18,0,0,1,52.92,8a5.81,5.81,0,0,1,2.17-1.42A7.86,7.86,0,0,1,57.94,6a6.76,6.76,0,0,1,3.49.85,5.55,5.55,0,0,1,2.19,2.19,5.69,5.69,0,0,1,.72,2.73c0,.86-.25,1.42-.75,1.67a4.65,4.65,0,0,1-2.11.38m-6.8-1.94H61a4.08,4.08,0,0,0-1-2.63,2.89,2.89,0,0,0-2.19-.87,2.81,2.81,0,0,0-2.14.88,4.41,4.41,0,0,0-1,2.62"/><path class="cls-1" d="M26.2,0a2.08,2.08,0,0,1,2.1,2.06,2.1,2.1,0,0,1-4.2,0A2.08,2.08,0,0,1,26.2,0"/><path class="cls-1" d="M26.2,4.14a2.09,2.09,0,0,0,2.1-2.07,2.1,2.1,0,0,0-4.2,0,2.09,2.09,0,0,0,2.1,2.07"/><path class="cls-1" d="M6.28,6.55A6.7,6.7,0,0,0,4.14,8.36V8a2.06,2.06,0,0,0-.52-1.5,1.76,1.76,0,0,0-1.31-.54A1.63,1.63,0,0,0,1,6.52a2.54,2.54,0,0,0-.5,1.7V19.56a2.75,2.75,0,0,0,.56,1.87,1.79,1.79,0,0,0,1.42.63,1.77,1.77,0,0,0,1.42-.63,2.8,2.8,0,0,0,.54-1.87V14.2A9.66,9.66,0,0,1,5,10.37,2.45,2.45,0,0,1,7.53,9H7.8C7.9,8,8,7,8.19,6a5.15,5.15,0,0,0-1.91.55"/><path class="cls-1" d="M8.91,9.56a2.52,2.52,0,0,1,.53,1.36,19.84,19.84,0,0,1,.1,2.32v6.32a2.81,2.81,0,0,0,.54,1.88,1.79,1.79,0,0,0,1.41.62,1.82,1.82,0,0,0,1.44-.62,2.81,2.81,0,0,0,.55-1.88V14.29a10.29,10.29,0,0,1,.42-3.55A3.18,3.18,0,0,1,15,9.49,2.54,2.54,0,0,1,16.42,9a1.79,1.79,0,0,1,1.42.52,3.18,3.18,0,0,1,.27.37,38,38,0,0,1,.58-3.87A6.77,6.77,0,0,0,17.57,6a5.24,5.24,0,0,0-2.47.59A7,7,0,0,0,13,8.36a4.65,4.65,0,0,0-1.71-1.8A4.88,4.88,0,0,0,8.81,6c-.21,0-.42,0-.62,0C8,7,7.9,8,7.8,9a1.58,1.58,0,0,1,1.11.52"/><path class="cls-1" d="M18.42,10.85a15.84,15.84,0,0,1,.1,2v6.67a2.75,2.75,0,0,0,.56,1.87,1.79,1.79,0,0,0,1.42.63,1.84,1.84,0,0,0,1.44-.62,2.83,2.83,0,0,0,.55-1.88V11.82A8.84,8.84,0,0,0,22,8.43,4.09,4.09,0,0,0,20.29,6.6a5.13,5.13,0,0,0-1.6-.55,38,38,0,0,0-.58,3.87,2.69,2.69,0,0,1,.31.93"/><path class="cls-1" d="M33.94,21.46a5.84,5.84,0,0,0,2.31.59,23.62,23.62,0,0,1-1.16-4.37,4.51,4.51,0,0,1-.57-1A6.65,6.65,0,0,1,34,14a6.73,6.73,0,0,1,.48-2.67,4.11,4.11,0,0,1,.6-1.05A23.28,23.28,0,0,1,36.2,6,6.08,6.08,0,0,0,31.82,8,8.45,8.45,0,0,0,30,13.84a11.09,11.09,0,0,0,.46,3.27,7.82,7.82,0,0,0,1.36,2.63,6.22,6.22,0,0,0,2.14,1.72"/><path class="cls-1" d="M35.84,9.52a3.34,3.34,0,0,1,2-.61,3.4,3.4,0,0,1,2,.6,4.06,4.06,0,0,1,1.42,1.74A6.47,6.47,0,0,1,41.72,14a6.69,6.69,0,0,1-.53,2.82,3.74,3.74,0,0,1-1.4,1.66,3.56,3.56,0,0,1-1.94.55,3.52,3.52,0,0,1-1.94-.57,3.42,3.42,0,0,1-.82-.75,23.62,23.62,0,0,0,1.16,4.37h.36a6.85,6.85,0,0,0,2-.29,6,6,0,0,0,1.71-.88,10.19,10.19,0,0,0,1.6-1.48v.39a2.38,2.38,0,0,0,.54,1.67,1.74,1.74,0,0,0,1.36.59,2.2,2.2,0,0,0,.64-.09A15.64,15.64,0,0,1,45.75,4.12V2.27a2.55,2.55,0,0,0-.5-1.7A1.77,1.77,0,0,0,43.84,0a1.71,1.71,0,0,0-1.41.62,2.94,2.94,0,0,0-.49,1.85v5.9a8.14,8.14,0,0,0-2.33-1.81A6.53,6.53,0,0,0,36.67,6H36.2a23.28,23.28,0,0,0-1.11,4.27,3.45,3.45,0,0,1,.75-.73"/><path class="cls-1" d="M45.75,19.8V4.12A15.64,15.64,0,0,0,44.48,22a1.77,1.77,0,0,0,.74-.47,2.44,2.44,0,0,0,.53-1.7"/><path class="cls-1" d="M27.82,6.83a2,2,0,0,0-1.71-.92s-1.9-.16-1.9,2.28V19.93A2.11,2.11,0,0,0,26.28,22a1.68,1.68,0,0,0,1.56-.84A31.39,31.39,0,0,1,27,14a31,31,0,0,1,.83-7.12"/><path class="cls-1" d="M28.18,19.91V8.2a2.85,2.85,0,0,0-.36-1.37A31,31,0,0,0,27,14a31.39,31.39,0,0,0,.85,7.24,2.74,2.74,0,0,0,.34-1.28"/><path class="cls-1" d="M24.74,26.75A1.08,1.08,0,0,1,24,27a1.15,1.15,0,0,1-.77-.27,1.09,1.09,0,0,1,0-1.55,1.09,1.09,0,0,1,.76-.3,1.13,1.13,0,0,1,.75.27,1,1,0,0,1,.33.79,1,1,0,0,1-.32.78"/></g></g></svg>