<svg xmlns="http://www.w3.org/2000/svg" xmlns:xlink="http://www.w3.org/1999/xlink" viewBox="0 0 100.14 179.21"><defs><style>.cls-1{filter:url(#filter);}.cls-2,.cls-4{stroke:#fff;}.cls-2,.cls-4,.cls-5{stroke-miterlimit:10;stroke-width:0.25px;}.cls-3,.cls-5{fill:#fff;}.cls-4{opacity:0.97;}.cls-5{stroke:#000;}</style><filter id="filter"><feOffset dx="-5" dy="3" input="SourceAlpha"/><feGaussianBlur stdDeviation="1" result="blur"/><feFlood/><feComposite operator="in" in2="blur"/><feComposite in="SourceGraphic"/></filter></defs><g id="Capa_2" data-name="Capa 2"><g id="logos_mide" data-name="logos mide"><g class="cls-1"><path class="cls-2" d="M48.74,76.11c-1.17-.82-1.12-2.23-.84-3.62a5.11,5.11,0,0,1,2.68-3.37c2-.92,3.78,0,5.31.84l31,17.67c2.13,1.22,4.36,2.57,5.07,5.09s-1,6.51-3.77,7.2a9.3,9.3,0,0,0,1.75-4.09c-1.06,2-3.59,3.17-5.18,2.43a8.84,8.84,0,0,0,4-3.19C87.48,96.75,85,97.21,84,96c1.29.79,3.44-1.45,3.38-3.17s-1.4-2.72-2.69-3.5c-8-4.75-17.56-6.83-26.91-9.12A23.43,23.43,0,0,1,48.74,76.11Z"/><path class="cls-2" d="M60.59,59.19a25.72,25.72,0,0,0,.73,6.24"/><path class="cls-2" d="M63.16,68.61A3,3,0,0,1,60,68.23a2.82,2.82,0,0,1-1.26-2.74c.24-1.6,1.77-2.63,3.16-3.46L90,45.3c1.92-1.15,4-2.33,6.24-2.15s4.41,2.43,3.62,4.52a5.46,5.46,0,0,0-2.24-2.3A3.07,3.07,0,0,1,97,49.6,5,5,0,0,0,96.48,46a2.58,2.58,0,0,1-1.59,3.51c1.2-.68.54-2.76-.78-3.18s-2.72.25-3.91.94c-7.38,4.26-13.51,10.34-19.69,16.2A26.85,26.85,0,0,1,63.16,68.61Z"/><path class="cls-2" d="M54.87,76.18a17.08,17.08,0,0,0,1.86,8.15"/><path class="cls-2" d="M56.43,149.21a88.74,88.74,0,0,1-8.31-30.09,10.9,10.9,0,0,1,.22-4.41,3.93,3.93,0,0,1,3-2.85c2.16-.25,3.8,2,4.64,4a39.67,39.67,0,0,1,2.32,10.65c.82,7.16,1.13,21.22,1.23,21.6.23.87.44,1.78,0,2.32-.24.29-.3,9.77-.73,14.64-.2,2.22-.42,4.54.39,6.6,1.18,3,4.21,4.71,7,6.18l-8.38-1-.36-3.73a14.15,14.15,0,0,0-.59,4h-1c-.38-3.46-.32-6.94-.71-10.39C54.49,160.76,53.87,154.41,56.43,149.21Z"/><path class="cls-3" d="M52.11,117.92a9.83,9.83,0,0,0-.15,7.9,8.7,8.7,0,0,1-1.77-2.63A4.81,4.81,0,0,1,50,120,3,3,0,0,1,52.11,117.92Z"/><path class="cls-3" d="M57.76,147.49a5.14,5.14,0,0,1,.21,3,3.43,3.43,0,0,0,.67-1.3,1.63,1.63,0,0,0-.12-1.3l-.12.27A2.1,2.1,0,0,1,57.76,147.49Z"/><path class="cls-2" d="M39.08,66.21C47.61,63.7,56.77,70,60.49,78S63.81,95.41,63,104.26c-.72,8-1.9,16.51-7.11,22.64s-14.2,8.79-22.15,7.06S19,126.49,15.22,119.27a36.7,36.7,0,0,1-3-23.78A37.48,37.48,0,0,1,39.08,66.21Z"/><path class="cls-3" d="M20.68,88c.67-4.82,3.27-9.14,6.15-13.06a8.23,8.23,0,0,1,2.93-2.79,3,3,0,0,1,3.7.68,3.1,3.1,0,0,1-.23,3.42,10.4,10.4,0,0,1-2.72,2.39A52.46,52.46,0,0,0,20.68,88Z"/><path class="cls-3" d="M19.78,89.81c.41,0,.67.08.77.64a18.58,18.58,0,0,1-1.87,8.67.85.85,0,0,1-.63.47c-.64.1-.89-.64-.95-1.21A17.85,17.85,0,0,1,17.35,93a4.36,4.36,0,0,1,.72-1.86,3.65,3.65,0,0,1,1-1.09A3.16,3.16,0,0,1,19.78,89.81Z"/><path class="cls-4" d="M46.45,32.94c3.15-1,6.72.19,9.16,2.44a20.47,20.47,0,0,1,5,8.48A50.84,50.84,0,0,1,63.43,63c-.14,3.28-.73,6.81-3,9.14-3,3-7.75,3.08-11.92,2.47-6.09-.9-12.58-3.31-15.51-8.72A16.43,16.43,0,0,1,31.57,55.5a48,48,0,0,1,3.17-10.13c1.2-3,2.45-6.11,4.57-8.58S44.65,32.54,46.45,32.94Z"/><path class="cls-3" d="M37.5,46.11A23.06,23.06,0,0,1,42.36,36,4.16,4.16,0,0,1,44,34.62a1.63,1.63,0,0,1,1.92.45c.62.9-.17,2.08-.92,2.88C42.49,40.63,40,43.31,37.5,46.11Z"/><path class="cls-3" d="M36.69,48.55a1.12,1.12,0,0,1,.73,1.79,1.14,1.14,0,0,1-1.86-.58C35.44,49,36.45,48.25,36.69,48.55Z"/><path class="cls-2" d="M36.52,149.37a89.79,89.79,0,0,1-8.86-31.15,11.15,11.15,0,0,1,.24-4.57,4.14,4.14,0,0,1,3.2-3c2.3-.26,4,2,4.94,4.14a40.15,40.15,0,0,1,2.47,11c.87,7.42,1.2,22,1.31,22.37.24.9.47,1.84,0,2.39-.27.3-.33,10.12-.79,15.16-.21,2.3-.44,4.7.42,6.84,1.26,3.11,4.48,4.87,7.47,6.39L38,178l-.39-3.86a14.34,14.34,0,0,0-.62,4.12h-1c-.42-3.57-.35-7.18-.77-10.75C34.45,161.32,33.79,154.75,36.52,149.37Z"/><path class="cls-3" d="M31.92,117a9.91,9.91,0,0,0-.17,8.17,9.18,9.18,0,0,1-1.88-2.73,4.85,4.85,0,0,1-.23-3.25A3.07,3.07,0,0,1,31.92,117Z"/><path class="cls-3" d="M37.93,147.58a5.19,5.19,0,0,1,.23,3.14,3.47,3.47,0,0,0,.71-1.34,1.66,1.66,0,0,0-.12-1.35l-.13.28A2.33,2.33,0,0,1,37.93,147.58Z"/><path class="cls-2" d="M39.77,66.36a3,3,0,0,1-1.23,2.89,2.78,2.78,0,0,1-3,.46c-1.47-.67-2-2.43-2.46-4L24.75,34.15c-.57-2.17-1.14-4.5-.35-6.6S28,24,29.74,25.32a5.45,5.45,0,0,0-2.82,1.53,3,3,0,0,1,3.89,1.78,5,5,0,0,0-3.63-.53,2.58,2.58,0,0,1,2.94,2.49c-.32-1.34-2.51-1.28-3.27-.13s-.51,2.68-.18,4c2.06,8.27,6.22,15.83,10.15,23.39A26.86,26.86,0,0,1,39.77,66.36Z"/><path class="cls-2" d="M37.25,65.85a18.72,18.72,0,0,0-2.82-8.24"/><path class="cls-2" d="M38.17,71.68c1.23-.73,2.49-.1,3.64.73a5.1,5.1,0,0,1,2,3.83c0,2.16-1.53,3.46-3,4.49L11.9,101.59c-2,1.43-4.14,2.91-6.73,2.51s-5.5-3.62-5-6.42a9.36,9.36,0,0,0,3,3.29c-1.36-1.78-1.4-4.58-.07-5.72a8.86,8.86,0,0,0,1.25,5C3.34,98.39,4,96,5.51,95.55c-1.25.84-.09,3.73,1.49,4.39s3.06-.14,4.3-1c7.63-5.3,13.49-13.16,19.45-20.72A23.13,23.13,0,0,1,38.17,71.68Z"/><path class="cls-2" d="M40.18,74.46a16.58,16.58,0,0,0-7.92,6.8"/><path class="cls-2" d="M53.48,26.86a10,10,0,0,1,7.09-2.39,16.16,16.16,0,0,1,7,2.51,43,43,0,0,1,10.69,8.86c1.83,2.11,3.5,4.52,3.94,7.28A10.56,10.56,0,0,1,78,52.83a14.4,14.4,0,0,1-10.5,2.57,23.12,23.12,0,0,1-10.16-4.18,22.62,22.62,0,0,1-7.16-7.63,14,14,0,0,1-1.43-10.2A11.73,11.73,0,0,1,53.48,26.86Z"/><path class="cls-3" d="M52.26,29.54c.4-.47,1.1-.38,1.16.09A8.45,8.45,0,0,1,52,32.17c-1.21,2-1.06,4.53-.88,6.88a10,10,0,0,1,.36-8.3A6.49,6.49,0,0,1,52.26,29.54Z"/><path class="cls-3" d="M53.91,27.83a.52.52,0,0,1,.57.08.88.88,0,0,1,.25.55.67.67,0,0,1-.07.44.54.54,0,0,1-.44.22.7.7,0,0,1-.68-.53A.74.74,0,0,1,53.91,27.83Z"/><path class="cls-3" d="M62.92,39.26a1.87,1.87,0,0,1,.95,1.93,2.81,2.81,0,0,1-1.25,1.87,1.82,1.82,0,0,1-.8.33.89.89,0,0,1-.79-.3c-.09-.12-.12-.31,0-.39a.4.4,0,0,1,.32,0,1.35,1.35,0,0,0,1.28-.23,1.89,1.89,0,0,0,.67-1.14A3,3,0,0,0,62.92,39.26Z"/><path class="cls-3" d="M69.48,38.07a1.39,1.39,0,0,0,.06,1.31,2.24,2.24,0,0,0,1,.88,6.82,6.82,0,0,0,1.31.4,1.72,1.72,0,0,1-1.22-.07,3.54,3.54,0,0,1-1-.71A2.27,2.27,0,0,1,69,39a1,1,0,0,1,.18-1,.32.32,0,0,1,.33-.09C69.59,37.91,69.61,38.11,69.48,38.07Z"/><path class="cls-2" d="M71.49,56.61a3.48,3.48,0,0,1-1.25-4.41,3.7,3.7,0,0,1,4.29-1.78,4,4,0,0,1,2.67,3.86,3.08,3.08,0,0,0,1.15-.88l.47,2.43a2.34,2.34,0,0,0,.94-1,6.65,6.65,0,0,1,.57,2.82l.63-.15a1.86,1.86,0,0,0,1.49,2.12,5.14,5.14,0,0,0,2.83-.37,5.48,5.48,0,0,1-4.64,2.49,9.08,9.08,0,0,1-5.14-1.7,32.94,32.94,0,0,1-4.16-3.6S71.31,56.46,71.49,56.61Z"/><path class="cls-2" d="M80.28,52.76a10,10,0,0,1-2-2,4.14,4.14,0,0,1-.82-2.64A3.74,3.74,0,0,1,80.24,45a5.13,5.13,0,0,1,4.21.89,8.22,8.22,0,0,1,2.65,3.5,12.09,12.09,0,0,1,.33,8.6l-1-3.56A2.79,2.79,0,0,1,85.94,56a10.13,10.13,0,0,0-2-3.53,3.48,3.48,0,0,1-.56,1.74L82.1,51.59a1.31,1.31,0,0,1-1,1.17C80.56,52.87,80,52.6,80.28,52.76Z"/><path class="cls-3" d="M84.36,47.38a4.48,4.48,0,0,1,2.11,2.1,6.56,6.56,0,0,1,.64,2.93A18.41,18.41,0,0,0,84.36,47.38Z"/><path class="cls-3" d="M74.57,58.17l.09-.13a.32.32,0,0,1,.48,0,26,26,0,0,0,4.24,2.47s-.74-.05-.84,0a2.45,2.45,0,0,1-.53-.09,9,9,0,0,1-3.41-1.92A.19.19,0,0,1,74.57,58.17Z"/><path class="cls-3" d="M73.58,56.83a.36.36,0,0,1,.18,0,.31.31,0,0,1,.17.13.39.39,0,0,1,0,.46.32.32,0,0,1-.33.11.35.35,0,0,1-.25-.25.4.4,0,0,1,.09-.35C73.51,56.87,73.51,56.86,73.58,56.83Z"/><path class="cls-2" d="M58.78,41.19a2.51,2.51,0,0,0,1.72.74,1.71,1.71,0,0,0,1.59-.77c.6-1-.06-2-.51-3-.91-2-1-4.22-1.34-6.37A24.93,24.93,0,0,0,53.31,18.2l5.36-4a1,1,0,0,0,.5-.67,1,1,0,0,0-.44-.73L54.87,9.33A19.07,19.07,0,0,0,51.32,6.6,6.45,6.45,0,0,0,47,5.78a8.82,8.82,0,0,0-5.34,3.91c-1.2,1.85-1.84,4.12-3.62,5.42a26.27,26.27,0,0,0,6.79,4.65,7.78,7.78,0,0,0,5.71-.06,9.3,9.3,0,0,1,2.66,2.47c4.11,5.19,5.63,12.65,5.22,18.16A1,1,0,0,0,58.78,41.19Z"/><path class="cls-3" d="M58.2,13.35a.25.25,0,1,1,.34.37.18.18,0,0,1-.31-.12A.9.9,0,0,1,58.2,13.35Z"/><path class="cls-3" d="M39.19,15c1.41-1,1.9-2.85,2.83-4.31A7.63,7.63,0,0,1,52.54,8.35c2,1.31,3.43,3.56,5.65,4.52a20.49,20.49,0,0,1-4.53-2.95,9.33,9.33,0,0,0-4.88-2.15,7.88,7.88,0,0,0-5.87,2.8,14,14,0,0,0-2.21,3C40.34,14.23,39.88,15,39.19,15Z"/><path class="cls-3" d="M57.1,12.7a1.67,1.67,0,0,1,.28.25.52.52,0,0,1,.12.36.78.78,0,0,1-.18.35l-.48.67a1.78,1.78,0,0,1,.62-.3.81.81,0,0,0,.5-.44.65.65,0,0,0-.26-.66A1.23,1.23,0,0,0,57.1,12.7Z"/><path class="cls-3" d="M41.36,17a9.63,9.63,0,0,0,8,1.14A28.41,28.41,0,0,0,57,14.48a19.58,19.58,0,0,1-7.39,4.3A8.66,8.66,0,0,1,41.36,17Z"/><path class="cls-3" d="M39.38,15.46a6.31,6.31,0,0,0,2.09-2.39,11.15,11.15,0,0,1,4-3.88,6.69,6.69,0,0,1,5.44-.47C52.71,9.42,54,11,55.72,12a3.82,3.82,0,0,1,.94.59,1,1,0,0,1,.34,1,1.55,1.55,0,0,1-.72.71,23.59,23.59,0,0,1-8.4,3.44A10.39,10.39,0,0,1,39.38,15.46Z"/><path class="cls-3" d="M50.58,19.38a4.4,4.4,0,0,0,1.84-.93.65.65,0,0,1,.45-.22.4.4,0,0,1,.32.43,1,1,0,0,1-.25.52,1.85,1.85,0,0,1-1.15.72A1.36,1.36,0,0,1,50.58,19.38Z"/><path class="cls-3" d="M54.74,24.07a.82.82,0,0,0,1,.26,2.18,2.18,0,0,0,.83-.74,1,1,0,0,1,.29-.29.32.32,0,0,1,.38.05.36.36,0,0,1,0,.35,1.83,1.83,0,0,1-.37.59,2.25,2.25,0,0,1-.75.62,1,1,0,0,1-.94,0A1.13,1.13,0,0,1,54.74,24.07Z"/><path class="cls-5" d="M48.4,11.7a2.51,2.51,0,0,1,1.45-2.55,3.14,3.14,0,0,1,3,.34,4.31,4.31,0,0,1,1.68,2.57,4,4,0,0,1-.16,2.56,2.78,2.78,0,0,1-1.93,1.62,3.09,3.09,0,0,1-3-1.41A7.38,7.38,0,0,1,48.4,11.7Z"/><path d="M50.78,13.64A1.83,1.83,0,0,0,52,14a2.39,2.39,0,0,0,1.36-.43,1.61,1.61,0,0,0,.54-1.25A1.51,1.51,0,0,0,53,11a2,2,0,0,0-1.65-.25,2,2,0,0,0-1,1.32c.27-.19.51-.55.85-.65a1.22,1.22,0,0,1,1,.13,1,1,0,0,1,.5.91,1.24,1.24,0,0,1-.58,1A1.6,1.6,0,0,1,50.47,13C50.57,13.1,50.69,13.57,50.78,13.64Z"/><path d="M47.12,1.3,47.47,1c.25.12.32.44.36.72l.28,2c0,.16,0,.36-.11.45a.29.29,0,0,1-.34-.07.8.8,0,0,1-.17-.33A10,10,0,0,1,47.12,1.3Z"/><path d="M42.31,2.15,44.1,4.89a.86.86,0,0,1,.14.29.27.27,0,0,1-.13.28c-.13.06-.27,0-.37-.14a7.25,7.25,0,0,1-1.67-2.18,1.13,1.13,0,0,1-.16-.56A.49.49,0,0,1,42.31,2.15Z"/><path d="M38.8,6c.85.61,1.84,1,2.65,1.67.14.11.29.28.22.45a.3.3,0,0,1-.29.18.83.83,0,0,1-.34-.1,6,6,0,0,1-2.15-1.3.87.87,0,0,1-.26-.44A.5.5,0,0,1,38.8,6Z"/><path d="M35.29,10.9a7.61,7.61,0,0,0,2.65,0,1.75,1.75,0,0,1,.72,0,.51.51,0,0,1,.41.52c0,.29-.4.41-.69.45a4.69,4.69,0,0,1-3-.5.42.42,0,0,1-.23-.26.31.31,0,0,1,.23-.34C35.48,10.72,35.64,10.74,35.29,10.9Z"/><path d="M52.73,2.3a3.74,3.74,0,0,1-.65,2.77.7.7,0,0,1-.56.36.51.51,0,0,1-.37-.3,1.2,1.2,0,0,1,0-.5,5.12,5.12,0,0,1,.84-2,1.45,1.45,0,0,1,.28-.36.45.45,0,0,1,.43-.08C52.79,2.25,52.87,2.45,52.73,2.3Z"/><path d="M55.9,3.66a7.49,7.49,0,0,0-1.73,2.7,1,1,0,0,0-.08.34.34.34,0,0,0,.18.28.33.33,0,0,0,.31-.07.74.74,0,0,0,.19-.27,9.31,9.31,0,0,1,.95-1.86,4.06,4.06,0,0,0,.42-.51.68.68,0,0,0,.09-.63C56.08,3.59,55.91,3.61,55.9,3.66Z"/><path d="M56.28,8.68A15.44,15.44,0,0,0,58,6.4,1.28,1.28,0,0,1,58.31,6,.42.42,0,0,1,58.76,6a3.66,3.66,0,0,1-.68,1.52A10,10,0,0,1,57,8.74a.86.86,0,0,1-.26.21.31.31,0,0,1-.32,0A.32.32,0,0,1,56.28,8.68Z"/><path d="M39.75,19.69a1.29,1.29,0,0,1,.69-.29.46.46,0,0,1,0,.41,1.64,1.64,0,0,1-.26.33l-1,1.07c-.09.09-.21.19-.33.16a.25.25,0,0,1-.16-.26.67.67,0,0,1,.13-.3A5.89,5.89,0,0,1,39.75,19.69Z"/><path d="M43.76,21.69a4.9,4.9,0,0,1-.85,2.42.53.53,0,0,1-.2.16.23.23,0,0,1-.25-.06.31.31,0,0,1,0-.28l.89-2.06a.59.59,0,0,1,.11-.19.21.21,0,0,1,.21-.05C43.76,21.67,43.79,21.77,43.76,21.69Z"/><path d="M49.59,22.18a.5.5,0,0,1,.25-.3,7.37,7.37,0,0,1,.23,2.25.8.8,0,0,1-.06.38.28.28,0,0,1-.32.16c-.13,0-.18-.2-.2-.34A5,5,0,0,1,49.59,22.18Z"/><path d="M57,16.38a.6.6,0,0,1-.2-.22.24.24,0,0,1,0-.27c.11-.11.29,0,.42,0A14.33,14.33,0,0,1,59,17.28a.48.48,0,0,1,.15.2.17.17,0,0,1-.08.22.23.23,0,0,1-.18,0A8,8,0,0,1,57,16.38Z"/><path class="cls-2" d="M70.44,38.6l2.94-13.41a16.51,16.51,0,0,1,1-3.24c1.19-2.6,3.65-4.36,6-6.37-1.29-.92-3.77-3-3.64-3.51a15.28,15.28,0,0,1,1.44-2.78A11.93,11.93,0,0,1,82,5.56a7.58,7.58,0,0,1,5.91-1,9.5,9.5,0,0,1,5,3.33c1.24,1.56,2.63,3.9,2.78,5.25.06.54,1.1,1.08,1,1.55s-1.7,1.06-2.15,1.51A9.26,9.26,0,0,1,87,18.92c-1.11-.09-3.77-1.51-4.89-1.45A5.18,5.18,0,0,0,78.6,19.7c-3.5,4.38-3.36,10.44-4.2,16-.16,1-.3,2-.39,2.92,0,.14-.87,1.32-1.8,1.26S70.46,39.16,70.44,38.6Z"/><path class="cls-2" d="M87.09,20.52a.55.55,0,0,0,.29.25"/><path class="cls-3" d="M77.87,12.14a23.24,23.24,0,0,1,3.42-3.45,7.1,7.1,0,0,1,10.07.69,15.75,15.75,0,0,1,3.12,4.08,5,5,0,0,1-2.34,1.85,19.24,19.24,0,0,1-3.14.38A17.36,17.36,0,0,1,82.69,15C80.28,14.21,79.85,13.25,77.87,12.14Z"/><path class="cls-3" d="M78.1,12.89a15.09,15.09,0,0,0,7.68,3.74,15,15,0,0,0,8.47-1.08,10.45,10.45,0,0,1-3.47,1.37A13.67,13.67,0,0,1,78.1,12.89Z"/><path class="cls-3" d="M78.19,10.83A9.38,9.38,0,0,1,85,5.88a8,8,0,0,1,4.89.57,8.26,8.26,0,0,1,3.28,3.06A17.89,17.89,0,0,1,95,13.66a9.29,9.29,0,0,0-7.34-7.07A9.58,9.58,0,0,0,78.19,10.83Z"/><path class="cls-3" d="M93.8,15.17a3.23,3.23,0,0,0,1.33-1.26.92.92,0,0,0,.46.62A2.58,2.58,0,0,1,93.8,15.17Z"/><path class="cls-3" d="M88.51,17.5a12.18,12.18,0,0,0,2.76-.2,3.9,3.9,0,0,1-2.86.31C88.4,17.54,88.49,17.47,88.51,17.5Z"/><path class="cls-3" d="M80.72,15.56l2.17,1.66A1.84,1.84,0,0,1,81.56,17a3.17,3.17,0,0,1-1-.94.59.59,0,0,1-.12-.31C80.46,15.64,80.61,15.48,80.72,15.56Z"/><path class="cls-3" d="M75.07,21.19l1.75.65a.41.41,0,0,1,.11.07.18.18,0,0,1,0,.23.51.51,0,0,1-.2.12,2.09,2.09,0,0,1-1.11,0,1.37,1.37,0,0,1-.53-.21.67.67,0,0,1-.28-.48C74.8,21.4,74.93,21.2,75.07,21.19Z"/><path class="cls-5" d="M88.87,9.31a1.75,1.75,0,0,1,2.23-.05,3.59,3.59,0,0,1,1.27,2.31,4,4,0,0,1-1.2,3.83,2.25,2.25,0,0,1-2.83-.16,3.68,3.68,0,0,1-1.08-3.16A4.59,4.59,0,0,1,88.87,9.31Z"/><path d="M89.28,10.89a1.24,1.24,0,0,1,1-.09,1.89,1.89,0,0,1,1,.72,1.84,1.84,0,0,1,.16,1.27,1.33,1.33,0,0,1-.89,1,1.38,1.38,0,0,1-1.31-.16,2.05,2.05,0,0,1-.48-1.43c.17.23.28.62.52.79a.83.83,0,0,0,.8.12.88.88,0,0,0,.57-.71,1.35,1.35,0,0,0-.26-1,1.09,1.09,0,0,0-1.41,0C89,11.34,89.2,10.93,89.28,10.89Z"/><path d="M74.9,9.45a12.18,12.18,0,0,0,1.8.25c.25,0,.59-.07.59-.32S77,9.07,76.84,9L73.6,8.28c-.16,0-.37,0-.43.11s0,.24.14.33A2.53,2.53,0,0,0,74.9,9.45Z"/><path d="M74.86,17.26l2.45-1.46c.11-.07.26-.14.37-.06s0,.34-.07.49a6.16,6.16,0,0,1-1.17,1.11,1.7,1.7,0,0,1-.76.35A.81.81,0,0,1,74.86,17.26Z"/><path d="M86.14,21.05l.74-.49c.21.39-.09.85-.32,1.23A3.82,3.82,0,0,0,86,23.42a1.41,1.41,0,0,1-.14.65.4.4,0,0,1-.57.12.52.52,0,0,1-.08-.44,6.59,6.59,0,0,1,1.2-3,.37.37,0,0,1,.24-.19C86.79,20.53,86.9,20.65,86.14,21.05Z"/><path d="M90.8,20.92a1.12,1.12,0,0,1,.5-.46l.6,2.5a.42.42,0,0,1,0,.27.25.25,0,0,1-.32.09.6.6,0,0,1-.26-.24A2.88,2.88,0,0,1,90.8,20.92Z"/><path d="M94.66,19l-.31-.75c.23-.15.53.05.71.26a5.19,5.19,0,0,1,1.24,2.54A4.6,4.6,0,0,1,94.66,19Z"/><path d="M96.45,10.75l0,.49,3-1.64c.13-.07.27-.16.28-.3A.3.3,0,0,0,99.46,9a.86.86,0,0,0-.41.1,12.63,12.63,0,0,0-2.32,1.32.83.83,0,0,0-.38.49C96.33,11.14,96.59,11.36,96.45,10.75Z"/><path d="M94.73,8.07a9.06,9.06,0,0,0,2.61-1.91c.09-.1.18-.27.07-.36a.3.3,0,0,0-.23,0,5.3,5.3,0,0,0-2.73,2.07C94.62,8,94.85,8.07,94.73,8.07Z"/><path d="M93.47,2.59,92.13,4.82c-.17.28-.48.6-.77.45s-.18-.6,0-.89a9,9,0,0,1,1.11-1.56A1,1,0,0,1,93,2.45.56.56,0,0,1,93.47,2.59Z"/><path d="M88.42.14l.29,2.75c0,.23,0,.52-.2.6S88.05,3.27,88,3A6.44,6.44,0,0,1,87.76.77,1.19,1.19,0,0,1,87.9.24.47.47,0,0,1,88.36,0C88.54,0,88.66.27,88.42.14Z"/><path d="M82.43,1.13l1.71,2.32a.42.42,0,0,1,.1.25c0,.23-.38.18-.57.06a4.32,4.32,0,0,1-1.6-1.91.64.64,0,0,1,0-.52C82.11,1.17,82.4,1.15,82.43,1.13Z"/><path d="M77.28,4.52l2.28,1.66c.19.14.4.4.25.58s-.37.07-.54,0a11,11,0,0,1-2.06-1.47,1,1,0,0,1-.29-.35A.36.36,0,0,1,77,4.5C77.14,4.41,77.36,4.49,77.28,4.52Z"/></g></g></g></svg>