<?xml version="1.0" encoding="UTF-8"?><svg xmlns="http://www.w3.org/2000/svg" viewBox="0 0 276.42 584.42"><defs><style>.d{fill:#fff;}.e{fill:#fafafa;}.f{fill:#0f1010;}.g{fill:#040404;}.h{fill:#e8e7e9;}.i{fill:#dedddd;}.j{fill:#313131;}.k{fill:#070808;}.l{fill:#4e4d4d;}.m{fill:#3a3a3a;}.n{fill:#202020;}.o{fill:#c6c4c4;}.p{fill:#171718;}.q{fill:#f1f1f1;}.r{fill:#d3d1d2;}.s{fill:#010202;}</style></defs><g id="a"/><g id="b"><g id="c"><g><path class="d" d="M242.9,244.91l-.13-.13c-.02-.64-.31-1-1-.9-.76-.56-1.51-1.12-2.27-1.68-4.7-4.79-9.04-9.96-14.75-13.67-2.6-4.4-5.94-7.88-11.15-9.07l-1.08,.85-1.24,1.01c-2.84-.92-.98-2.28-.39-3.62,8.64-19.61,6.99-39.55,1.43-59.44-3.74-13.36-12.2-24.46-18.68-36.51-5.83-10.85-14.31-17.84-26.45-20.25-3.08-2.21-6.55-.44-9.8-.97-3-2.28-3.24-6.77-6.85-8.56-.04-.4-.23-.72-.56-.95-.25-.51-.49-1.01-.74-1.52,.1-.42-.07-.68-.49-.77-3.61-3.94-7.18-7.93-13.26-7.47-.04-1.35-.08-2.69-.13-4.04,.02-.78,.04-1.56,.06-2.33,2.63-5.19,7.88-7.36,12.3-10.4,2.52-1.74,2.6-3.34,1.12-5.57,1.5-1.71,2.48,.2,3.6,.59,10.53,3.72,20.46,3.22,29.5-3.99,10.97-7.59,12.61-8.54,5.9-19.48-.53-4.83-5-7.79-5.91-12.45,2.84-1.39,5.72-2.72,8.5-4.22,.85-.46,1.53-1.44,.99-2.53-.19-.39-1.22-.85-1.35-.72-2.69,2.5-8.42,1.84-7.98,7.59-4.36-1.7-7.93-4.32-10.07-8.61,5.11-2.04,7.18-6.18,8.48-11.74-2.95,1.86-6.1,6.37-8.54,11.68-2.52,2.05-4.79-.28-7.1-.58-9.76-1.27-23.77,5.81-26.89,13.97-3.9,2.69-7.39,5.81-10.57,9.36-1.64,1.83-2.73,3.55-.13,4.78,7.59,3.6,12.62,10.66,20.01,14.44-2.03,1.12-4.79-.72-6.5,1.5-3.31,4.32-8.25,7.33-10.24,12.72-1.17,.46-1.28,1.39-1.12,2.46-.92,1.97-2.2,3.8-2.23,6.1l-.27,1.46-1.38-.24c-.02-1.24,.56-2.58-.58-3.64-3.01-2-6.03-.53-9.05-.02l-2.53,.29c-.98-.27-1.5,.37-2.01,1.02-.66,.33-1.32,.67-1.98,1l-.34-.17-.22,.35-1.6,.49-1.18,.65c-9.51,2.6-16.64,9.17-24.41,14.66l-1.34,.02c-.38-1.33-.96-2.64-1.1-3.99-1.61-16.52-6.49-31.37-20.67-41.68-1.05-.76-3.49-.74-2.49-3.21,5.82-1.12,6.02-8.15,10.84-10.32l-2.35-2.58c.05-.3,.09-.61,.12-.91-.89-.89-1.55-1.86-1.34-3.22,3.7-2.08,9.43,.83,12.02-4.71-3.42-.83-6.3,.81-9.31,.77-3.27-.05-2.6,2.18-2.58,4.1-4.34-2.52-6.38-6.57-7.55-11.22,3.51-1.02,7.32-1.65,8.11-6.24-2.62,2.18-7.04,2.01-8.1,6.25-.63,.93-1.27,.66-1.87-.02-10.22-11.57-26.69-10.97-38.75,.37-7.2,6.77-9.13,15.78-9.94,25.16-.25,.3-.75,.63-.71,.88,.53,3.27,3.98,2.75,5.88,4.38,10.65,9.17,22.47,11.32,35.32,4.82,2.11-1.07,4.34-1.83,6.01,0,5.53,6.03,12.7,10.7,15.34,19.13,3.4,10.85,6.06,21.84,7.37,33.14l-1.36,.05c-.91-4.34-3.19-1.95-4.59-.66-3.35,3.08-6.79,6.2-9.52,9.81-4.39,5.81-9.78,11.17-10.78,18.95-1.34,1.03-1.33,2.37-.87,3.81,0,.75,0,1.49-.01,2.24-.08,.13-.25,.29-.22,.39,.08,.27,.24,.52,.37,.78,.3,.65,.6,1.3,.89,1.95l.02-.13c-5.13,1.67-9.83,3.91-12.27,9.17-.36,.45-.72,.89-1.08,1.34-1.63,1.82-3.12,3.72-3.5,6.24l-.03,.1c-.89,1-1.63,2.06-1.18,3.51-.42,7.27-1.03,14.56,1.47,21.71,1.35-2.23,2.44-4.51,2.4-6.78-.07-3.79,5.07,.13,5.04-3.76,0-.63-.48-9.57,5.35-2.76,.84,.98,2.36-.54,2.56-1.71,.93-5.54,3.46-3.81,6.2-1.5,1.07,1.44,2.68,.56,4,.94-.11,.81,.41,1.03,1.06,1.11,3.49,2.23,2.82,4.2-.74,5.01-1.66,.38-1.72,1.06-2.06,2.23-3.42,11.88-3.51,11.92-15.58,11.2-.22-.01-.47,.47-.99,1.03,6.08,6.16,13.6,7.02,21.65,6.1,4.93-1.04,9.91-1.95,13.57-5.91,6-5.01,13.82-8.91,11.37-19.05-.21-.89,1.27-.37,1.96-.53,.64,6.39,4.6,6.67,9.82,5.86,5.96-.92,11.69-2.97,17.71-4.32,.26,2.89-2.42,3.65-1.89,5.69l-.59,1.23c-.19,1.27-.38,2.53-.58,3.8-2.06-.08-3.78,.3-3.76,2.91l-.04,.06c-2.36,.62-2.36,2.43-2.19,4.32l-.09,1.36c-.26,1.14-.53,2.28-.79,3.42-.13,1.34-.27,2.68-.4,4.02-.95,5.59-1.89,11.18-.07,16.79,.16,1.67,.32,3.33,.49,5,.26,1.57,.51,3.13,.77,4.7l.36,16.05c-.26,1.68,.04,3.26,.86,4.74,.15,2.9,.3,5.8,.45,8.71-.17,.34-.32,.7-.42,1.07-.27,2.15-.79,4.33,.84,6.23,.16,.4,.33,.8,.49,1.2,0,1.2,0,2.41,0,3.61-2.94,2.41,.74,4.96-.15,7.42l-1.15,3.91c-.29,.7-.58,1.41-.87,2.11l-.36,3.97c-.29,.71-.57,1.42-.86,2.13l-.44,2.52c-.26,.79-.52,1.58-.79,2.37l-.3,3.78c-.81,2.75-1.26,5.54-.87,8.42-.48,1.69-.49,3.38,.06,5.07,.24,4.82,.48,9.63,.72,14.45,.04,.86,.07,1.72,.11,2.57l.06,2.59c-.2,1.33-.4,2.66,.36,3.9-.63,1.63-.04,3.08,.64,4.53,.06,.81,.12,1.61,.18,2.42,.14,1.65,.29,3.31,.43,4.96,.2,.79,.41,1.58,.61,2.38l.23,6.1c-.18,1.31-.35,2.61,.49,3.78l.48,2.37,.13,1.18c.1,1.24,.21,2.47,.31,3.71,.28,.75,.57,1.5,.85,2.26l.26,1.36,.56,1.41,.37,.98,.22,1.3c-.28,1.35,.32,2.43,1.05,3.47-.27,2.27-.06,4.42,1.43,6.29,.93,2.47,1.86,4.94,2.79,7.41l.6,1.16c-.09,2.87,1.26,5.16,2.97,7.29l.74,1.15c.31,.51,.61,1.02,.92,1.53l-.06,.46,.39,.28c-.11,2.51,1.54,3.93,3.26,5.31v.46l.43,.18,.19,.34,.92,1.36,.68,1.14c.38,.34,.75,.69,1.13,1.03,1.33,1.45,1.68,3.92,4.23,4.13,.59,1.74,3.07,2.46,2.58,4.78-2.07,.3-2.96-1.86-4.67-2.32-1.17,1.62-1.07,3.49-1.34,5.29-2.65,17.7-1.7,35.71-4.68,53.41-.83,4.92-.68,10.1,.24,15.19,3.45,18.95,6.78,37.91,10,56.9,1.26,7.41,.78,14.19-6.05,19.53-3.86,3.01-6.28,7.77-10.72,10.4-1.13,.67-1.59,2.03-.89,3.18,.79,1.27,1.77,.02,2.59-.27,5.14-1.78,10.28-3.58,15.38-5.5,2.18-.82,4.23-2.15,5,1.58,.36,1.75,1.65,2.94,3.54,2.35,1.79-.56,1.35-2.32,1.24-3.67-.38-4.65-1.78-9.29-1.03-13.96,2.56-15.87,.28-31.6-.94-47.38-.92-11.91-3.46-23.76-1.36-35.82,2.5-14.35,3.23-29.04,7.36-43.07,1.32-4.46,.33-6.57-3.83-7.72,.42-.34,.84-.69,1.26-1.03l4.8,1.29,.97,.38,1.41,.54c.88,.09,1.76,.17,2.63,.26,.7,.21,1.41,.42,2.11,.63,.94,.19,1.88,.38,2.82,.57,1.52,.29,3.05,.58,4.57,.86,1.25,.09,2.49,.19,3.74,.28,.82,0,1.64-.01,2.46-.02,.81-.07,1.62-.13,2.43-.2l1.4-.46c.38-.12,.76-.24,1.13-.36,1.19-.05,2.39-.1,3.58-.15l2.48-.23c.72-.32,1.45-.63,2.17-.95,1.09,0,2.44,.5,2.65-1.3,.22-.33,.45-.66,.67-1,.2-.82,.41-1.65,.61-2.47l.44-1.13c1.06-2.06,.82-4.27,.69-6.46,.28-1.13,.56-2.25,.83-3.38l.58-1.25c1.4,.9,.67,2.44,1.1,3.63-.99,10.08-1.83,20.18-3.01,30.24-2.59,22.07-2.66,44.16-.99,66.3,1.05,13.97,4.02,27.71,4.24,41.79,.1,6.2-2.52,10.36-6.96,13.94-4.68,3.77-8.62,8.48-14.29,11.01-1.64,.73-3.5,2.31-2.75,4.11,.83,2,3.26,1.09,4.95,.79,3.99-.7,7.88-1.83,11.98-2.07,5.83-.34,10.38-2.32,9.57-9.56-.12-1.02-.13-2.49,1.95-2.38,.07,1.41,.11,2.82,.21,4.21,.16,2.13-.22,5.51,2.29,5.43,3.16-.11,2.81-3.71,2.36-5.92-2.7-13.11,.28-25.79,2.29-38.6,1.76-11.23,3.49-22.54-.79-33.69-3.93-10.25-2.69-20.09,1.83-29.98,6.72-14.7,12.11-29.9,15.39-45.78,1.26,.9,.27,3.11,2.15,3.64,3.71,.62,6.54-.99,8.98-3.56l.36,.12,.18-.36,.3-.11c3.48-1.13,6.62-2.77,8.8-5.84,.43,.1,.78-.03,1.03-.4,6.85-5.67,13.94-11.1,18.04-19.33l.2-.2c6.7-9.03,10.74-19.13,12.3-30.25v-.03c.23-.77,.46-1.54,.69-2.31,.16-.91,.33-1.82,.49-2.73l.69-2.15,.49-3.81c.26-1.59,.53-3.17,.79-4.76,.8-2.44,.75-4.94,.44-7.45,.87-2.04,.6-4.07-.04-6.09,.36-5.32,.36-10.64-.35-15.94,.2-1.66,.05-3.26-.78-4.74-.13-1.26-.25-2.53-.38-3.79-.28-1.17-.57-2.35-.85-3.52-.12-.86-.24-1.72-.36-2.58-.26-.83-.52-1.67-.79-2.5-.07-2.07,.36-4.21-.79-6.15l-.45-1.14c-.13-.81-.25-1.62-.38-2.43l-1-2.05-.04-.3c.06-2.71-.9-5.12-2.26-7.4l-.42-2.48c-1.09-2.42-2.18-4.83-3.26-7.25,.03-1.12-.08-2.18-1.12-2.88l.19-.27-.35-.17c-.27-.6-.54-1.2-.81-1.8l.06-.49-.46-.25c-.37-.75-.75-1.51-1.12-2.26l-.03,.2-.09-.07,.09-.36-.32-.19c-.34-.71-.68-1.42-1.03-2.13-.2-.56-.39-1.13-.59-1.69l-.58-.88-1.13-2.11,.04,.19-.12-.07-.08-.47-.45-.16c-.25-.28-.49-.57-.74-.85l-.17-.37c-.31-.46-.62-.93-.93-1.39-.18-.39-.37-.78-.55-1.16-.25-.29-.51-.58-.76-.87-.68-.96-1.35-1.93-2.03-2.89l.1-.35-.39-.04c-.39-.32-.78-.63-1.18-.95,.1-.41-.03-.73-.38-.96-.74-2.8-3.59-3.87-5-6.13,.1-.69-.25-.98-.9-1ZM190.1,33.97c4.23-.11,8.68,1.58,13.88-2.1-5.85-1.19-10.12-1.67-13.88,2.1ZM144.95,2.52c.92,5.48,1.56,9.32,5.05,13.15,.69-5.28-.36-8.86-5.05-13.15Zm-10.53,22.1l-7.3-9.4c.26,4.78,2.01,8.49,7.3,9.4ZM161.9,0c-.66,3.45-2.42,6.38-1.48,9.82,.03,.12,1.3,.21,1.55-.07,2.33-2.71,1.78-5.93,1.44-9.09,0-.09-.33-.15-1.5-.65Zm-27.11,9.24c1.08,4.4,2.78,7.23,5.9,9.18-.62-3.51-1.11-7.09-5.9-9.18ZM0,15.02c.72,4.47,4.87,4.73,6.59,7.32,.16,.23,1.25,.2,1.53-.08,.62-.62,.59-1.61-.17-2.06-2.5-1.5-4.06-4.37-7.95-5.17ZM14.73,5.34l-1.46,.84c1,1.99,1.94,4.02,3.01,5.97,.48,.88,1.43,1.82,2.38,1.19,1.2-.8,.83-2.06-.02-3.11-1.31-1.62-2.6-3.26-3.9-4.9Z"/><path class="s" d="M173.3,431.3c-.81,.07-1.62,.13-2.43,.2-.12-.8-.21-1.75-1.23-1.75-1.02,0-1.11,.96-1.22,1.76-1.25-.09-2.49-.19-3.73-.28-1.34-1.27-3.01-.75-4.57-.86-.94-.19-1.88-.38-2.82-.57-.7-.21-1.41-.42-2.11-.63-.88-.09-1.76-.17-2.63-.26-.49-5.67-3.5-5.47-7.4-3.17-2.01-.6-3.6-3.02-6.13-1.42l.13,.11c.51-2.18-.17-3.21-2.53-2.58l.1,.09c.98-2.7-1.1-2.33-2.57-2.56l.1,.24c.49-2.32-1.99-3.04-2.58-4.78-1.6-5.54-4.26-10.59-7.26-15.46-1.04-1.68-2.85-2.11-4.79-1.79-.24-.11-.5-.16-.77-.14-1.71-2.14-3.06-4.42-2.97-7.29-.2-.39-.4-.78-.6-1.16-.93-2.47-1.86-4.94-2.79-7.41,3.67-4.15,1.8-11.1-3.62-13.44l-.26-1.36c-.28-.75-.57-1.5-.85-2.26-.1-1.24-.21-2.47-.31-3.71,.78-.1,1.72-.15,1.81-1.12,.1-1.02-.82-1.17-1.6-1.32l-.82-1.1c-.85-1.17-.67-2.48-.49-3.78,4.63-1.79,4.65-3.41,.08-7.33l-.93-1.15-.43-4.96c3.24-1.54,3.27-3.17,.14-4.9-.32-.68-.64-1.37-.97-2.05-.75-1.24-.55-2.57-.35-3.9l1.76-1.34c-.61-.42-1.21-.84-1.82-1.25-.04-.86-.07-1.72-.11-2.57l.31-9.63c2.2-.42,1.92-2.15,2.12-3.77,2.38-19.11,5.15-38.11,13.8-55.68,2.2-4.46,4.94-8.74,5.7-13.81,1.65,.31,3.31,.62,4.96,.94,2.83,.58,5.66,1.17,8.49,1.75,.03,.93,.32,1.71,1.23,2.13v3.66c0,1.22,0,2.44,0,3.67,0,3.06-4.14,7.07,2,8.73-.28,1.16-.56,2.33-.84,3.49-.8,.1-1.77,.14-1.85,1.14-.08,1.04,.87,1.16,1.67,1.3-.47,3.27-.95,6.54-1.42,9.81-.2,.55-.41,1.11-.61,1.66l-.2,5.57c-1.13,3.84-2.75,7.62-3.28,11.54-1.4,10.36-3.55,20.9,3.09,30.5,3.13,4.52,7.24,6.87,12.82,5.76,5.12-1.02,4.62-6.35,6.88-9.55,1.05-1.49-.35-2.97-2.37-3.1,0-.34-.02-.67-.05-1,.12-2.02,.24-4.04,.36-6.07,.69-1.27,1.27-2.69-.66-3.23-1.5-.43-1.91,.86-2.1,2.08-1.58,2.59-4.45,3.42-6.54,2.13-2.36-1.46-1.8-4.5-.73-7,2.84-1.89,6.05-3.76,.45-6.26,.3-1.58,.61-3.16,.91-4.74,2.39-.65,2.65-1.52,.27-2.65l1.25-12.02c5.23-1,3.06-5.74,4.42-8.7,5.2-11.31,1.45-28.13,19.4-31.6,1.59,1.31,1.09,3.02,.91,4.67-1.99,.9-2.07,1.85-.07,2.85-.75,9.71-1.49,19.41-2.24,29.12-2.4,.73-2.42,1.62-.18,2.65l-3.45,23.01c-2.93,1.05-2.75,2.36-.32,3.86-.28,1.56-.56,3.13-.84,4.69-1.99,.18-2.8,1.65-2.94,3.28-.15,1.68,1.46,1.54,2.59,1.76l-1.91,13.24c-1.63,2.67-.71,5.77-1.42,8.59-.78,.12-1.71,.22-1.72,1.22,0,1,.92,1.11,1.7,1.23,.47,9.86-1.27,20.08,4.63,29.08-.82,.42-2.08,.82-1.13,1.97,.57,.69,1.32-.07,1.73-.75l2.37,.94-.11-.13c2.18,7.02,7.71,5.78,12.95,5.25,3.02,.17,3.29-.01,3.13-2.11l-.06-5.02-.13,.17c4.48-3.11,4.59-3.41,1.15-6.19-1.36-1.1,.22-1.63,.15-2.43,1.63-.91,2.29-2.33,1.49-3.98-.79-1.62-2.52-1.04-3.8-.84-5.75,.89-8.16-2.72-10.03-7.16-.26-.48-.51-.96-.77-1.44-.53-2.48-.51-4.95,.14-7.41l.6-1.48c.22-2.77,.44-5.54,.66-8.31,.14-.63,.29-1.26,.43-1.9,.72-3.39-.59-7.08,1.55-10.25,1.08-.09,2.56,.31,3.01-.92,.59-1.62-.89-2.23-2.07-2.82l.63-3.58c1.75-.43,2.57-1.11,.66-2.51,1-4.07,2.01-8.13,3.01-12.2l.75-1.31c1.71-11.19,6.57-21.63,7.87-32.92l.41-2,.78-7.77c.17-.65,.33-1.3,.5-1.95,.26-2.63,.52-5.26,.78-7.88,1.54-3.44,.37-7.07,.71-10.6,1.24-.85,2.48-1.71,3.72-2.56,1.83-1.03,4.22-1.35,4.89-3.85l-.08,.07c1.66-.07,2.55-.89,2.54-2.59l-.19,.17c1.59,.44,2.57-.96,3.91-1.28l1.11-1.47,.08,.04c.41-.34,.82-.67,1.24-1.01,.36-.28,.72-.57,1.08-.85,5.21,1.19,8.55,4.67,11.15,9.07-.06,1.37-.11,2.75-.17,4.12-.36-.18-.74-.33-1.07-.55-3.58-2.31-7.07-5.42-10.72,.03-2.97,4.45-2.51,9.75,2,12.92,10.64,7.48,18.36,17.44,25.13,28.31,2.02,3.24,4.25,6.36,6.53,9.42,.76,1.02,1.63,2.85,3.29,1.88,1.44-.85,.81-2.63,.42-3.9-1.33-4.43-2.21-8.97-4.31-13.2-3.66-7.38-6.99-14.92-10.45-22.4,.72-1.87,2.07-2.87,4.09-2.97,.76,.56,1.51,1.12,2.27,1.68l1,.9,.13,.13,.9,1c1.41,2.26,4.26,3.33,5,6.13-2.41,.52-2.54,1.96-1.44,4.4,.74-1.39,1.28-2.42,1.83-3.44,.39,.32,.78,.63,1.18,.95l.29,.39c.68,.96,1.35,1.93,2.03,2.89,.11,.42,.37,.71,.76,.87,.18,.39,.37,.78,.55,1.16,.31,.46,.62,.93,.93,1.39l.17,.37c.16,.35,.41,.64,.74,.85l.45,.16,.08,.47,.08-.11c.38,.7,.76,1.41,1.13,2.11,.06,.38,.26,.67,.58,.88,.2,.56,.39,1.13,.59,1.69,.34,.71,.68,1.42,1.03,2.13l.32,.19-.09,.36,.12-.13c.37,.75,.75,1.51,1.12,2.26,.04,.3,.18,.55,.4,.75,.27,.6,.54,1.2,.81,1.8l.16,.43c1.04,.7,1.16,1.76,1.12,2.88-.23,1.66,.6,3.58-1.21,4.84l-.28-.51-.23,.23,.51,.28c.08,3.42,3.72,.24,4.47,2.41,.14,.83,.28,1.65,.42,2.48-1.53,3.16-3.52,6.47,2.26,7.4l.04,.3c.33,.68,.66,1.36,1,2.05l.38,2.43,.45,1.14c1.15,1.93,.72,4.07,.79,6.15,.26,.83,.52,1.67,.79,2.5,.12,.86,.24,1.72,.36,2.58-.04,1.25-.23,2.54,.85,3.52,.13,1.26,.25,2.53,.38,3.79,.06,1.61-.46,3.32,.78,4.74,.71,5.3,.71,10.62,.35,15.94-3.69,2.05-3.75,4.09,.04,6.09,.3,2.51,.36,5-.44,7.45-.64,1.52-2.77,2.8-.79,4.76-.16,1.27-.33,2.54-.49,3.81-.23,.72-.46,1.43-.69,2.15-.16,.91-.33,1.82-.49,2.73-.23,.77-.46,1.54-.68,2.31v.03c-4.85,.11-4.12,4.79-4.92,7.2-2.54,7.64-8.53,14.25-7.39,23.05l-.2,.2c-7.79-.7-8.77,7.83-14.19,10.5-3.31,1.63-4.42,5.06-3.85,8.82-.25,.37-.6,.5-1.03,.4-4.6-.56-7.47,1.49-8.8,5.84l-.3,.11-.54,.24c-2.45,2.57-5.27,4.17-8.98,3.56-.07-.83-.13-1.67-.2-2.5,3.88-.29,1.85-2.46,1.32-4.15,3.41-9.72,4.6-19.85,5.48-30.03,3.11-2.05,3.13-4.1-.01-6.14-.2-1.6-.41-3.21-.61-4.81-.36-2.96-.37-6-2-8.67-.08-3.68-1.36-7.02-2.87-10.3-.9-5.57-3.8-6.4-8.28-3.5-4.24,1.92-7.43,5.01-9.82,8.96-.98,3.2-5.03,4.63-4.91,8.47-.32,.6-.64,1.19-.95,1.79-.34-.69-.75-1.34-1.63-1.15-.23,.05-.36,.55-.53,.85,.6,.35,1.2,.7,1.79,1.05,.22,1.62-1.08,2.6-1.65,3.88-.95,0-2.21-.4-2.49,.9-.2,.93,.79,1.18,1.57,1.33-.15,.82-.29,1.64-.44,2.45-.29,.23-.5,.52-.63,.86l-.06,.29c-2.68-.18-3.79,1.12-3.51,3.73,.04,1.39-.19,2.88,1.36,3.71-.29,1.26-.05,2.72-1.33,3.62-.87,.15-2.04,.1-1.91,1.36,.04,.41,1.07,.73,1.64,1.09,.18,1.53,.4,3.06-.58,4.44-.53-.48-1.02-1.02-1.61-1.39-.08-.05-.93,.66-.97,1.06-.15,1.53,.99,1.84,2.19,2,.04,1.24,.08,2.47,.12,3.71-.19,.42-.38,.84-.58,1.25-1.01,.95-.83,2.19-.83,3.38,.12,2.19,.37,4.4-.69,6.46-.15,.38-.29,.75-.44,1.13-.2,.82-.41,1.65-.61,2.47-.22,.33-.45,.66-.67,1-.21,1.8-1.56,1.29-2.65,1.3-.72,.32-1.45,.63-2.17,.95-.83,.08-1.65,.16-2.48,.23-2.62-3.32-4.84-4.16-6.12,.97Zm88.5-126.65c-1.14-3.85-1.92-7.88-4.9-10.89-1.1-1.11-2.26-2.58-4.09-1.75-1.57,.71-1.25,2.39-1.32,3.76-.4,7.53,2.84,14.09,5.62,20.76,.47,1.13,1.39,2.09,2.79,1.82,1.36-.26,2.06-1.53,2.16-2.66,.28-3.21,.27-6.44,.37-9.66l-.62-1.39Z"/><path class="k" d="M211.28,221.31l-.09-.04h.16c-3.69-2.76-4.08,.66-5.18,2.75l.19-.17c-1.57,.16-3.48-.03-2.54,2.59l.08-.07c-2.67-1.48-3.38,1.45-5.03,2.25-2.44-.21-4.19,2.47-7.21,1.53,.89-4.83-.69-9.41-5.72-10.08-5.75-.77-6.97,4.83-8.88,8.98-1.24,2.68-.23,6.01-2.57,8.32-.8,.09-1.59,.17-2.39,.26-2.41,.29-4.82,.7-7.24,.84-7.27,.4-7.71-.22-4.92-6.97,4.49-10.86,7.93-22,10.3-33.55,1.01-4.94,.09-8.25-4.12-10.75-8.26-2.99-14.83,2.07-14.39,11.09-2.79,11.56-3.92,23.38-5.31,35.14-.46,3.89-.91,6.45-5.67,6.65-2.06,.09-4.26,.8-6.45,.93-6.48-1.7-12.4-4.2-15.63-10.68-.61-1.22-1.14-2.58-2.82-2.72l-.07-.09c.05-1-.16-1.87-1.16-2.36,.31-1.81,.19-3.56-.37-5.35-3.33-10.69-3.96-21.63-2.8-32.72,.25-1.13,.51-2.27,.76-3.4,.19-1.27,.38-2.53,.58-3.8,.2-.41,.39-.82,.59-1.23-.53-2.05,2.15-2.8,1.89-5.69-6.02,1.36-11.75,3.4-17.71,4.32-5.22,.8-9.18,.53-9.82-5.86-.43-3.52-2.57-4.98-5.96-4.92-3.72-3.55-8.14-4.39-13.04-3.34-.33-.13-.26-1.22-.98-.41l.84,.58c-.16,.87-.31,1.74-.47,2.61-4.43-.39-5.17,5.74-9.57,5.42-.65-.08-1.17-.3-1.06-1.11,3.07-4.42,6.87-8.56,5.58-14.64,2.42-3.14,.36-4.18-2.31-4.94-3.2-3.85-5.39-9.54-12.25-6.79-.3-.65-.6-1.3-.89-1.95,.08-.13,.25-.29,.22-.39-.08-.27-.24-.52-.37-.78,0-.75,0-1.49,0-2.24,.29-1.27,.58-2.54,.87-3.81,1-7.78,6.39-13.14,10.78-18.95,2.73-3.61,6.16-6.73,9.52-9.81,1.4-1.28,3.68-3.67,4.59,.66-.94,4.63,.84,9.05,1.03,13.58,.1,2.51,1.52,3.46,3.77,3.64l-.16-.14c2.44,3.76,5.48,3.31,8.76,1.26l-.12,.1c6.23-4.14-.96-6.68-1.19-10.05,0-.76-.02-1.53-.02-2.29-1.21-5.69-2.42-11.38-3.63-17.07,7.78-5.49,14.9-12.06,24.41-14.66l1.18-.65,1.6-.49h.31l.25-.18,1.98-1,2.01-1.02,2.53-.29c3.02,0,6.03,.01,9.05,.02,1.14,1.06,.56,2.4,.58,3.64-1.28,3.67-4.06,6.86-3.55,11.1-.76,4.04-1.52,8.07-2.28,12.11-2.16,6.81-1.5,14.31-5.15,20.75-1.36,.06-2.84-.21-3.65,1.34-2.04,1.66-1.22,3.27,.07,4.88l-.1-.16c.03,1.06-.3,2.3,1.28,2.59l-.08-.07c1.64,1.96,3.25,4.03,5.92,1.31,2.78-.09,5.77,.42,7.6-2.54,.76-.11,1.52-.23,2.28-.34,1.17,1.46,2.35,2.92,3.72,4.62,2.73-4.63,.55-5.66-3.46-5.5-.84-7.88,.83-15.54,2.04-23.24,2.49-8.71,4.58-17.51,5.27-26.58,6.08-.46,9.65,3.53,13.26,7.47-.12,.44,.05,.7,.49,.77,.25,.51,.49,1.01,.74,1.52,.19,.32,.37,.64,.56,.95,3.61,1.8,3.85,6.28,6.85,8.56,.19,.99,.24,2.04,.59,2.97,4.5,11.85,2.83,22.85-3.62,33.69-3.36,5.64-8.03,10.24-10.98,16.16,8.07-5.41,13.5-13.21,17.68-21.63,4.86-9.79,3.87-19.91-1.68-29.79,2.97-.16,5.39-.3,7.81-.43,12.14,2.41,20.62,9.41,26.45,20.25,6.48,12.05,14.94,23.15,18.68,36.51,5.57,19.88,7.21,39.83-1.43,59.44-.59,1.34-2.45,2.7,.39,3.62Zm-77.81-59.28c-6.08,3.82-12.17,7.64-18.25,11.46,7.74-1.19,14.57-3.89,19.26-10.32,2.53-.77,4.64-1.86,4.34-5.2-3.01,.22-4.13,2.2-5.34,4.07Zm61.24-12.92c1.69-7.29-1.09-12.62-3.26-17.61-3.7-8.48-8.28-16.69-16.61-21.81-1.31-.8-2.75-1.96-4.41-.52-1.73,1.48-2.18,3.35-1.66,5.5,.51,2.12,2.03,3.62,3.65,4.73,6.14,4.22,10.06,10.41,14.94,15.78,3.51,3.86,3.07,9.38,7.36,13.93Zm-42.65-27.15c3.22-10.03,1.87-18.61-3.11-26.72-.98-1.6-2.71-3.11-4.42-1.68-1.73,1.44-.45,3.32,.81,4.73,3.88,4.32,4.72,9.59,4.91,15.12,.09,2.53-.51,5.23,1.81,8.56Zm47.68,36.17c-1.09-1.49,.33-4.65-2.81-5.04-1.63-.2-1.79,1.28-1.67,2.48,.21,2.14,.58,4.42,3.18,4.85,1.04,.17,1.58-.97,1.3-2.29Zm-55.85-69.46c.01-1.28-.28-2.54-1.71-2.69-2.45-.25-1.87,2-2.41,3.3-.51,1.26-.44,2.58,1.2,2.55,1.78-.03,2.68-1.43,2.92-3.16Zm-29.54,100.96l-.29-.38-.35,.32,.47,.49,.16-.43Z"/><path class="f" d="M195.2,388.55c.13-.35,.33-.63,.62-.86,3.55-1.86,5.75-7.48,4.33-11.09-.11-3.84,3.93-5.27,4.91-8.47,1.24,.37,2.22-.02,3.34-.69,9.1-5.41,11.63-4.52,16.38,5.54,.46,3.27,.92,6.54,1.38,9.82,.01,.81,.03,1.63,.04,2.44-.06,4.48-.12,8.96-.19,13.43l-6.11,26.94c-3.28,15.88-8.68,31.08-15.39,45.78-4.52,9.89-5.76,19.73-1.83,29.98,4.28,11.15,2.55,22.46,.79,33.69-2.01,12.81-4.99,25.49-2.29,38.6,.45,2.2,.8,5.81-2.36,5.92-2.51,.08-2.13-3.3-2.29-5.43-.1-1.4-.14-2.8-.21-4.21-2.08-.11-2.07,1.36-1.95,2.38,.81,7.24-3.73,9.22-9.57,9.56-4.1,.24-7.99,1.37-11.98,2.07-1.69,.3-4.12,1.21-4.95-.79-.75-1.79,1.11-3.38,2.75-4.11,5.67-2.53,9.61-7.24,14.29-11.01,4.44-3.58,7.06-7.73,6.96-13.94-.22-14.08-3.19-27.82-4.24-41.79-1.67-22.14-1.61-44.22,.99-66.3,1.18-10.06,2.02-20.16,3.01-30.24,1.68-8.16,3.4-16.3,4.96-24.48,.18-.94,1.39-3.04-1.39-2.76Zm21.12,4.47h-.14c0,2.81-.08,5.63,.06,8.43,.03,.67,.64,1.49,1.23,1.9,.79,.55,1.47-.13,1.93-.79,2.96-4.18,3-15.46,.45-19.78-1.02-1.73-2.28-1.43-3.54-1.31-2.34,.21-.65,1.59-.58,2.52,.22,3.01,.4,6.02,.59,9.02Z"/><path class="f" d="M144.08,427.73c4.16,1.15,5.15,3.26,3.83,7.72-4.14,14.03-4.87,28.72-7.36,43.07-2.1,12.07,.44,23.91,1.36,35.82,1.22,15.78,3.5,31.52,.94,47.38-.75,4.67,.64,9.31,1.03,13.96,.11,1.35,.55,3.11-1.24,3.67-1.89,.59-3.18-.6-3.54-2.35-.77-3.72-2.81-2.4-5-1.58-5.09,1.92-10.23,3.71-15.38,5.5-.82,.29-1.81,1.54-2.59,.27-.71-1.15-.24-2.51,.89-3.18,4.43-2.64,6.86-7.39,10.72-10.4,6.83-5.33,7.31-12.11,6.05-19.53-3.22-18.99-6.55-37.95-10-56.9-.93-5.09-1.07-10.27-.24-15.19,2.98-17.7,2.02-35.71,4.68-53.41,.27-1.8,.17-3.67,1.34-5.29,1.72,.46,2.6,2.62,4.67,2.31l-.1-.24c.14,1.58,.86,2.57,2.57,2.56l-.1-.09c.05,1.63,1.26,2.14,2.53,2.58l-.13-.11c1.14,1.97,3.14,2.64,5.08,3.42Z"/><path class="n" d="M85.3,112.72c0,.76,.02,1.53,.02,2.29-1.47,3.57,1.9,6.57,1.19,10.05l.12-.1c-2.92-.42-5.84-.84-8.76-1.26l.16,.14c-1.63-5.66-1.01-11.77-3.44-17.27-1.31-11.3-3.97-22.29-7.37-33.14-2.64-8.43-9.81-13.11-15.34-19.13-1.67-1.82-3.9-1.06-6.01,0-12.85,6.5-24.68,4.35-35.32-4.82-1.9-1.63-5.34-1.11-5.88-4.38-.04-.25,.46-.59,.71-.88,1.3-1.18,2.6-2.36,3.9-3.54-.39,4.56,3.9,4.28,6.23,6.02,1.5-.05,2.58-.74,3.19-2.13,2.5,2.92,5.83,2.33,9.06,2.15l2.67,.08c2.43,2.68,5.52,.35,8.2,1.09,1,.54,1.95,1.42,3,1.57,3.54,.49,.93-1.54,.93-2.52,3.61-1.3,6.91-3.47,10.84-3.89l.59,.07h.59c-1.17,1.87-.78,3.15,1.47,3.68-1,2.46,1.45,2.44,2.49,3.21,14.18,10.3,19.07,25.15,20.67,41.68,.13,1.35,.72,2.66,1.1,3.99,.25,5.16,1.38,10.17,2.58,15.17,.31,1.3,.8,2.25,2.38,1.88ZM26.58,51.95c4.27-1.39,9.35,3.45,14.01-2.35-5.31,.26-9.72,.47-14.13,.68-2.63-1.53-4.86-1.33-6.9,1.76,2.6,1.11,4.79,1.31,7.01-.09Zm26.95-2.54c-1.03,.02-1.17,.8-1.22,1.55-.02,.34,.2,.69,.31,1.04,.47-.46,1.02-.87,1.4-1.4,.35-.5,.2-1.01-.49-1.2Z"/><path class="p" d="M81.8,166.51c3.39-.06,5.52,1.4,5.96,4.92-.69,.16-2.18-.35-1.96,.53,2.45,10.14-5.36,14.04-11.37,19.05-.46-.47-.93-.95-1.39-1.42,.02-1.1,1.62-2.11,.49-3.17-.77-.73-1.96-.36-2.68,.43-2.63,2.89-6.11,4.22-9.63,5.56-1.12,.43-2.21,1.32-.36,2.41,0,.7,0,1.41,0,2.11-8.06,.92-15.58,.06-21.65-6.1,.52-.56,.77-1.04,.99-1.03,12.08,.72,12.16,.68,15.58-11.2,.34-1.17,.4-1.85,2.06-2.23,3.56-.81,4.24-2.78,.74-5.01,4.4,.33,5.14-5.8,9.57-5.42,3.84-1.02,7.55-1.31,10.97,1.35,.98,.76,2.27,1.1,2.68-.79Z"/><path class="p" d="M36.28,152.92c2.44-5.26,7.14-7.5,12.27-9.17,2.66,.99,4.88,2.67,7,4.49,6.15,5.29,7.23,18.23-2.05,21.07-2.74-2.32-5.27-4.05-6.2,1.5-.2,1.17-1.72,2.69-2.56,1.71-5.84-6.8-5.36,2.13-5.35,2.76,.03,3.89-5.11-.03-5.04,3.76,.04,2.26-1.05,4.55-2.4,6.78-2.5-7.15-1.89-14.44-1.47-21.71l.54-.08,.55,.02c.13,.64-.19,1.58,.92,1.58,.24,0,.7-.48,.68-.71-.09-1.07-1-.72-1.65-.82l.14-3.5,.03-.1c.37,.39,.73,.77,1.1,1.16,1,2.12,1.77,1.53,2.72-.12,1.84-3.19,3.81-6.3,5.85-9.66-2.22-.18-2.96,1.29-4.14,1.96l-.94-.91Z"/><path class="j" d="M9.3,40.68c-1.3,1.18-2.6,2.36-3.9,3.54,.8-9.38,2.73-18.39,9.94-25.16,12.07-11.34,28.53-11.94,38.75-.37,.6,.68,1.24,.95,1.87,.02h0c1.17,4.64,3.21,8.7,7.55,11.22l-.13-.15c-.22,1.35,.44,2.33,1.33,3.21-2.03,3.06-3.57,.33-4.8-.68-2.16-1.79-3.92-4.05-5.88-6.09-6.02-6.27-18.25-9.32-24.75-4.96,8.09,8.23,8.49,16.72,1.19,25.55l-2.67-.08c4.3-4.12,5.54-9.31,4.84-14.96-.34-2.78-1.22-5.88-4.3-6.76-2.93-.83-5.54-.18-8.32,2.05-2.44,1.96-3.54,5.16-6.54,6.37-.41-1.15-.92-.79-1.45-.1-1.22,2.33-2.45,4.66-2.7,7.35ZM25.5,18.74c5.55-1.27,10.86-4.07,16.94-1.92-6.34-3.09-11.31-2.55-17.53,1.18-.8,.74-2.35,.47-2.83,2.98,1.3-1.38,2.79-.64,3.42-2.23Z"/><path class="e" d="M30.45,46.8c7.3-8.83,6.91-17.32-1.19-25.55,6.5-4.36,18.73-1.3,24.75,4.96,1.96,2.04,3.72,4.3,5.88,6.09,1.23,1.02,2.77,3.75,4.8,.68-.03,.3-.07,.61-.12,.91-2.66,.17-1.39,3.88-3.83,4.25-2.93,.91-4.97,3.14-7.32,4.91-3.93,.42-7.23,2.59-10.84,3.89-1.41-.08-2.78-.05-3.93,.95-2.69-.73-5.78,1.59-8.2-1.09Z"/><path class="f" d="M106.49,242.31c-.12-5.35-.24-10.7-.36-16.05,0-1.61,.45-3.29-.77-4.7l-.49-5c.02-2.36,.17-4.73,.04-7.08-.15-2.72,.86-4.12,3.69-3.9,1.62,6.48,3.24,12.97,4.86,19.45-.02,1.57,.6,2.53,2.31,2.48l.07,.09c.06,1.86,.12,3.72,.18,5.59,.66,1.75-3.28,4.15,.77,5.43,.2,3.43,.39,6.85,.59,10.28-.17,.77-.34,1.54-.51,2.31-5.5,2.7-5.04,8.28-6.29,13.04-.63,0-1.26,0-1.89,0l-.49-1.2c0-1.78,0-3.57,0-5.35-.14-.65-.28-1.3-.42-1.95l-.45-8.71c-.03-1.63,.47-3.35-.86-4.74Z"/><path class="m" d="M181.95,55.51c-9.04,7.21-18.96,7.72-29.5,3.99-1.12-.4-2.11-2.3-3.6-.59l.04,.18c1-1.59-.78-1.41-1.29-2.04l-.3-.03c-7.4-3.8-12.42-10.86-20.01-14.45-2.6-1.23-1.51-2.95,.13-4.78,3.18-3.55,6.66-6.67,10.57-9.36,1.95,.15,2.5,1.46,2.62,3.14,.31,3.28-1.91,.86-2.74,1.31-2.77,1.5-6.07,2.96-6.01,6.84,.07,4.71,4.25,4.28,6.99,5.93,.75-1.86-.48-3.29,1.08-4.88,1.67,5.91,5.56,8.24,11.37,7.22-.1,.28-.11,.56-.04,.85-.26,1-4.79-.15-1.41,2.52,1.3,1.03,3.43,1.04,5.2,1.46,6.03,1.41,12.21,.56,18.29,1.2-.22,.88-.44,1.77-.65,2.65-6.55-.53-13.11-1.07-19.67-1.6,6.42,2.85,12.94,3.84,19.6,1.57,3.34,1.48,5.85-3.89,9.34-1.12Z"/><path class="k" d="M129.45,73.69c-.16-1.06-.05-2,1.12-2.46,1.62,1.22,3.24,2.43,4.86,3.65-.02,.78-.04,1.56-.06,2.33-2.29,2.44-.78,6.07-2.7,8.63-4.28,2.54-4.3,5.95-2.03,9.84l-.67,3.68-.64,1.23c-.11,2.4-.21,4.81-.32,7.21-3.39,7.4-2.9,15.44-3.8,23.26-2.92,3.48-5.84,.8-8.76,0,1.21-5.71,2.43-11.41,3.64-17.12,.19-.46,.38-.92,.57-1.39,.13-1.96,.26-3.92,.39-5.88,4.54-1.69,4.45-4.31,1.53-7.52,.3-1.98,.61-3.95,.91-5.93,3.77-3.23,2.47-7.93,3.45-11.97l.27-1.46c2.66-1.33,3.46-3.34,2.23-6.1Z"/><path class="n" d="M140.61,31.56c-.12-1.68-.67-2.99-2.62-3.14,3.12-8.16,17.13-15.24,26.89-13.97,2.31,.3,4.58,2.64,7.1,.58l.06,.06c2.14,4.29,5.71,6.91,10.07,8.61l-.15-.12c.9,4.65,5.36,7.62,5.9,12.45-.83,3.02-1.34,2.09-2.59,.05-2.44-3.99-3.36-4.24-6.15-2.99-2.31-2.02-4.63-4.04-6.94-6.06,.39-1.05,2.74-2.21,1.65-2.6-2.71-.97-3.27-5.03-6.75-4.4-3.89,.71-7.94-.46-11.75,1.01-1.38,.54-3.26-1.71-4.23,.71-1.11,2.75,3.15,1.49,2.85,3.7-3.14-2.28-5.25,1.74-8.08,1.32-.58-.86-.24-2.61-1.97-2.32-.65,.11-1.63,.82-1.69,1.35-.18,1.53,1.39,1.57,2.34,2.12-1.31,1.22-2.62,2.43-3.93,3.65Z"/><path class="g" d="M116.88,251.21c.17-.77,.34-1.54,.51-2.31,2.43-1.59,2.96-4.49,4.57-6.63,.9-1.19,1.52-3.74,3.66-1.15-.76,5.07-3.5,9.35-5.7,13.81-8.65,17.57-11.43,36.57-13.8,55.68-.2,1.61,.08,3.34-2.12,3.77-.34-1.6-.69-3.21-1.03-4.81-.55-1.68-.53-3.37-.06-5.07,.33-2.8,3.04-5.36,.87-8.42l.3-3.77,.79-2.37,.44-2.52,.86-2.13,.36-3.97c.29-.7,.58-1.41,.87-2.11,.38-1.3,.77-2.61,1.15-3.91,1.67-2.82,2.25-5.95,2.53-9.16l-.12,.06c2.54-4.77,4.51-9.76,5.92-14.98Z"/><path class="h" d="M167.19,101.5c-2.42,.13-4.84,.27-7.81,.43,5.55,9.88,6.54,20,1.68,29.79-4.18,8.42-9.61,16.22-17.68,21.63,2.95-5.93,7.63-10.53,10.98-16.16,6.45-10.84,8.11-21.84,3.62-33.69-.35-.93-.4-1.97-.59-2.97,3.25,.52,6.72-1.25,9.8,.97Z"/><path class="j" d="M135.43,74.88c-1.62-1.22-3.24-2.43-4.86-3.65,1.98-5.39,6.92-8.4,10.24-12.72,1.71-2.23,4.47-.39,6.5-1.5l.3,.03c-1.36,1.81,.36,1.68,1.29,2.04l-.04-.18c1.48,2.23,1.4,3.83-1.12,5.57-4.42,3.04-9.67,5.21-12.3,10.4Z"/><path class="l" d="M179.12,33.09c2.79-1.25,3.7-1,6.15,2.99,1.25,2.04,1.75,2.98,2.59-.05,6.72,10.93,5.07,11.88-5.9,19.48-3.49-2.77-6.01,2.6-9.34,1.12l.07,.03c.22-.88,.44-1.77,.66-2.65,2.04-.77,4.05-1.61,6.12-2.31,11.69-3.94,11.79-4.34,3.68-13.41-1.46-1.63-2.69-3.46-4.02-5.2Z"/><path class="f" d="M259.96,399.59c-1.14-8.8,4.85-15.4,7.39-23.05,.8-2.41,.07-7.09,4.91-7.2-1.56,11.12-5.61,21.22-12.3,30.25Z"/><path class="i" d="M226.21,385.24c-.01-.81-.03-1.63-.04-2.44,.63-.39,1.25-.78,1.88-1.16l.61,4.81c0,2.05,0,4.09,.01,6.14-.89,10.18-2.07,20.31-5.48,30.03-1.03,1.19-1.86,2.46-1.32,4.15,.07,.83,.13,1.67,.2,2.5-1.88-.53-.89-2.75-2.15-3.64,2.04-8.98,4.07-17.96,6.11-26.94,1.92-4.45,1.5-8.94,.19-13.43Z"/><path class="f" d="M241.72,419.12c-.58-3.76,.54-7.19,3.85-8.82,5.42-2.68,6.41-11.2,14.19-10.5-4.1,8.23-11.2,13.66-18.04,19.33Z"/><path class="h" d="M113.48,225.03c-1.62-6.48-3.24-12.97-4.86-19.45l-.29-3.64c-.02-3.26-.03-6.52-.05-9.78-.17-1.84,2.89-3.59,.15-5.51l.04-.06c.86,1.02,2.21-.97,3,.49-1.16,11.08-.54,22.02,2.8,32.72,.56,1.79,.68,3.54,.37,5.35-.4,.07-.78,.03-1.15-.12Z"/><path class="r" d="M53.51,169.31c9.28-2.84,8.2-15.78,2.05-21.07-2.12-1.83-4.35-3.5-7-4.49l-.02,.13c6.87-2.76,9.05,2.93,12.25,6.79l2.31,4.94c1.29,6.08-2.51,10.22-5.58,14.64-1.32-.37-2.93,.51-4-.94Z"/><path class="f" d="M224.58,232.64c.06-1.37,.11-2.75,.17-4.12,5.7,3.71,10.05,8.87,14.75,13.67-2.01,.09-3.37,1.09-4.09,2.97-3.32-4.42-6.43-9.03-10.83-12.51Z"/><path class="g" d="M119.59,397.58c1.94-.32,3.76,.1,4.79,1.79,3,4.87,5.66,9.92,7.26,15.46-2.55-.21-2.89-2.68-4.22-4.13-.38-.35-.75-.69-1.13-1.03l-.68-1.14-.92-1.36-.19-.34c-.08-.25-.22-.47-.43-.64-1.72-1.38-3.37-2.81-3.26-5.31-.03-.28-.14-.53-.33-.75l-.92-1.53c0-.34,.02-.67,.03-1.01Z"/><path class="i" d="M195.2,388.55c2.79-.28,1.57,1.82,1.39,2.76-1.57,8.18-3.29,16.32-4.96,24.48-.44-1.19,.3-2.73-1.1-3.63-.04-1.24-.08-2.47-.12-3.71l.4-1.67c.98-1.38,.75-2.91,.58-4.44,.09-.82,.18-1.63,.27-2.45,1.28-.9,1.03-2.36,1.33-3.62,1.72-1.26,.93-3.23,1.38-4.84,.92-.67,.9-1.62,.78-2.59l.06-.29Z"/><path class="r" d="M132.66,85.84c1.93-2.55,.41-6.19,2.7-8.63,.04,1.35,.08,2.69,.13,4.04-.7,9.07-2.78,17.87-5.27,26.58-.4-.07-.8-.08-1.21-.04,.11-2.4,.21-4.81,.32-7.21l.64-1.23c.22-1.23,.44-2.45,.67-3.68,1.5-3.11,1.94-6.44,2.03-9.84Z"/><path class="i" d="M74.61,106.57c2.44,5.5,1.81,11.61,3.44,17.27-2.26-.18-3.67-1.13-3.77-3.64-.19-4.54-1.97-8.96-1.03-13.58,.45-.02,.9-.03,1.36-.05Z"/><path class="l" d="M60.75,38.14c2.44-.37,1.16-4.08,3.83-4.25,.78,.86,1.56,1.72,2.35,2.58-4.82,2.17-5.02,9.19-10.84,10.32-2.25-.53-2.63-1.8-1.47-3.69,3.31-.09,6.03-.91,6.13-4.96Z"/><path class="j" d="M63.5,29.92c-.02-1.92-.7-4.14,2.58-4.1,3.01,.04,5.89-1.6,9.31-.77-2.6,5.54-8.33,2.63-12.02,4.72l.14,.15Z"/><path class="l" d="M190.1,33.97c3.76-3.77,8.03-3.29,13.88-2.1-5.2,3.68-9.65,2-13.88,2.1Z"/><path class="m" d="M144.95,2.52c4.69,4.28,5.74,7.87,5.05,13.15-3.49-3.83-4.13-7.67-5.05-13.15Z"/><path class="j" d="M171.98,15.03c2.44-5.31,5.59-9.82,8.54-11.68-1.3,5.56-3.37,9.7-8.48,11.74l-.06-.06Z"/><path class="g" d="M108.85,368.12c5.41,2.34,7.29,9.29,3.62,13.44-1.48-1.87-1.7-4.02-1.43-6.29-.02-1.26,.15-2.57-1.05-3.47l-.22-1.3c0-.37-.12-.7-.37-.98l-.56-1.41Z"/><path class="j" d="M182.11,23.71c-.44-5.75,5.28-5.1,7.98-7.59,.13-.12,1.16,.33,1.35,.72,.53,1.09-.15,2.07-.99,2.53-2.78,1.5-5.66,2.82-8.49,4.22,0,0,.16,.13,.16,.13Z"/><path class="r" d="M85.3,112.72c-1.58,.37-2.07-.58-2.38-1.88-1.21-5-2.34-10.01-2.58-15.17,.45,0,.89-.02,1.34-.02,1.21,5.69,2.42,11.38,3.63,17.07Z"/><path class="m" d="M60.86,196.92c0-.7,0-1.41,0-2.11,4.61-.47,8.17-3.38,12.18-5.23,.46,.47,.93,.95,1.39,1.42-3.66,3.96-8.64,4.88-13.57,5.91Z"/><path class="l" d="M134.42,24.62c-5.29-.91-7.04-4.62-7.3-9.4l7.3,9.4Z"/><path class="n" d="M126.95,81.25c-.98,4.04,.31,8.73-3.45,11.97l-1.47-1.11c-.52-4.24,2.27-7.43,3.55-11.1,.46,.08,.92,.16,1.38,.24Z"/><path class="m" d="M161.9,0c1.18,.5,1.49,.56,1.5,.65,.34,3.16,.89,6.39-1.44,9.09-.24,.28-1.51,.2-1.55,.07-.94-3.44,.83-6.37,1.48-9.82Z"/><path class="n" d="M108.33,201.94l.29,3.64c-2.84-.22-3.84,1.18-3.69,3.9,.13,2.35-.01,4.72-.04,7.08-1.82-5.6-.88-11.19,.07-16.79,.17,2.21,1.75,2.22,3.37,2.16Z"/><path class="f" d="M108.33,201.94c-1.62,.06-3.2,.05-3.37-2.16,.13-1.34,.27-2.68,.4-4.02,1.02-.96,.82-2.21,.79-3.42l.09-1.36c.68,.4,1.36,.79,2.03,1.19,.02,3.26,.03,6.52,.05,9.78Z"/><path class="m" d="M134.79,9.24c4.79,2.08,5.28,5.67,5.9,9.18-3.12-1.95-4.82-4.78-5.9-9.18Z"/><path class="m" d="M55.95,18.71c1.06-4.23,5.48-4.06,8.1-6.25-.79,4.59-4.6,5.22-8.11,6.24h0Z"/><path class="l" d="M0,15.02c3.89,.8,5.45,3.68,7.95,5.17,.76,.46,.79,1.44,.17,2.06-.28,.28-1.37,.32-1.53,.08-1.72-2.59-5.88-2.85-6.59-7.32Z"/><path class="l" d="M14.73,5.34c1.3,1.63,2.59,3.27,3.9,4.9,.85,1.05,1.23,2.31,.02,3.11-.95,.63-1.9-.31-2.38-1.19-1.07-1.95-2.02-3.98-3.01-5.97l1.46-.84Z"/><path class="f" d="M231.89,425.36c1.34-4.36,4.21-6.4,8.8-5.84-2.19,3.07-5.33,4.71-8.8,5.84Z"/><path class="g" d="M145.13,425.73c3.91-2.3,6.91-2.5,7.4,3.17-.47-.18-.94-.36-1.41-.54-.27-.26-.6-.38-.98-.38-1.6-.43-3.2-.86-4.8-1.29-.1-.32-.17-.64-.21-.97Z"/><path class="g" d="M106.4,346.13c4.57,3.92,4.56,5.54-.08,7.33-.08-2.03-.16-4.07-.23-6.1l.31-1.23Z"/><path class="f" d="M269.66,294.88c-5.78-.93-3.79-4.23-2.26-7.4,1.37,2.28,2.32,4.68,2.26,7.4Z"/><path class="f" d="M275.86,346.11c-3.79-2.01-3.72-4.04-.04-6.09,.63,2.03,.91,4.06,.04,6.09Z"/><path class="f" d="M262.51,282.59c1.81-1.26,.98-3.18,1.21-4.84,1.09,2.42,2.18,4.83,3.26,7.25-.75-2.17-4.39,1.01-4.47-2.41Z"/><path class="f" d="M102.97,309.56c.34,1.6,.69,3.21,1.03,4.81-.1,3.21-.21,6.42-.31,9.63-.24-4.82-.48-9.63-.72-14.45Z"/><path class="i" d="M111.08,266.13c-.29,3.21-.87,6.33-2.53,9.16,.89-2.46-2.79-5,.15-7.42,.79-.58,1.59-1.16,2.38-1.74Z"/><path class="l" d="M32.79,161.65c-.37-.39-.73-.77-1.1-1.16,.38-2.52,1.88-4.42,3.5-6.24,.03,.49,.05,.99,.08,1.48,.03,2.33-.9,4.26-2.49,5.92Z"/><path class="g" d="M173.3,431.3c1.27-5.14,3.5-4.29,6.12-.97l-3.58,.15c-.38,.12-.76,.24-1.14,.36-.47,.15-.94,.31-1.4,.46Z"/><path class="f" d="M103.78,296.08c2.18,3.06-.54,5.62-.87,8.42-.39-2.88,.06-5.67,.87-8.42Z"/><path class="r" d="M145.13,425.73c.04,.33,.11,.65,.21,.97-.42,.34-.84,.69-1.26,1.03-1.94-.78-3.94-1.45-5.08-3.42,2.52-1.6,4.11,.82,6.13,1.42Z"/><path class="n" d="M129.45,73.69c1.24,2.75,.43,4.76-2.23,6.1,.03-2.29,1.3-4.13,2.23-6.1Z"/><path class="g" d="M105.18,335.13c3.13,1.72,3.1,3.35-.14,4.9-.06-.81-.12-1.61-.18-2.42l.32-2.48Z"/><path class="n" d="M124.99,77.36c-3.02,0-6.03-.01-9.05-.02,3.02-.51,6.04-1.98,9.05,.02Z"/><path class="n" d="M108.28,192.16c-.68-.4-1.36-.79-2.03-1.19-.17-1.9-.17-3.71,2.18-4.32,2.74,1.91-.32,3.67-.15,5.51Z"/><path class="f" d="M274.63,358.32c-1.98-1.96,.16-3.24,.79-4.76-.26,1.59-.53,3.17-.79,4.76Z"/><path class="f" d="M249.18,253c-.54,1.02-1.08,2.04-1.83,3.44-1.1-2.44-.97-3.88,1.44-4.4,.35,.23,.48,.55,.38,.96Z"/><path class="n" d="M111.46,187.09c-.79-1.46-2.14,.53-3-.49-.02-2.61,1.69-2.99,3.76-2.91-.25,1.13-.51,2.27-.76,3.4Z"/><path class="i" d="M108.22,257.71c0,1.78,0,3.57,0,5.35-1.63-1.89-1.1-4.08-.84-6.23,.28,.29,.56,.58,.85,.88Z"/><path class="n" d="M111.08,266.13c-.79,.58-1.59,1.16-2.38,1.74,0-1.2,0-2.41,0-3.61,.63,0,1.26,0,1.89,0l.37,1.94,.12-.06Z"/><path class="f" d="M160.1,430.37c1.56,.11,3.23-.4,4.57,.86-1.52-.29-3.05-.58-4.57-.86Z"/><path class="f" d="M275.48,324.08c-1.23-1.42-.72-3.13-.78-4.74,.83,1.49,.97,3.09,.78,4.74Z"/><path class="g" d="M103.8,326.58c.61,.42,1.21,.84,1.82,1.25l-1.76,1.34-.06-2.59Z"/><path class="f" d="M168.41,431.51c.11-.8,.2-1.75,1.22-1.76,1.02,0,1.12,.95,1.23,1.75-.82,0-1.64,.01-2.46,.02Z"/><path class="n" d="M106.49,242.31c1.33,1.39,.83,3.12,.86,4.74-.82-1.48-1.12-3.06-.86-4.74Z"/><path class="g" d="M107.64,358.35c.78,.15,1.7,.3,1.6,1.32-.09,.97-1.03,1.02-1.81,1.12l-.13-1.18c.11-.42,.23-.84,.34-1.27Z"/><path class="n" d="M105.37,221.56c1.21,1.41,.76,3.09,.77,4.7-.26-1.57-.51-3.13-.77-4.7Z"/><path class="n" d="M106.15,192.34c.03,1.21,.23,2.46-.79,3.42,.26-1.14,.53-2.28,.79-3.42Z"/><path class="f" d="M189.12,416.79c0-1.19-.18-2.43,.83-3.38-.28,1.13-.56,2.25-.83,3.38Z"/><path class="l" d="M31.58,164.04l-.55-.02-.54,.08c-.44-1.45,.29-2.51,1.18-3.51l-.14,3.5,.05-.05Z"/><path class="f" d="M105.18,335.13l-.32,2.48c-.68-1.44-1.27-2.9-.64-4.53,.32,.68,.64,1.37,.96,2.05Z"/><path class="f" d="M109.99,371.81c1.2,.9,1.03,2.21,1.05,3.47-.73-1.04-1.33-2.12-1.05-3.47Z"/><path class="r" d="M48.37,134.71c-.29,1.27-.58,2.54-.87,3.81-.45-1.44-.46-2.78,.87-3.81Z"/><path class="f" d="M274.32,315.54c-1.08-.98-.89-2.27-.85-3.52,.28,1.17,.57,2.35,.85,3.52Z"/><path class="f" d="M104.87,289.93l-.79,2.37,.79-2.37Z"/><path class="f" d="M272.27,369.32c.23-.77,.46-1.54,.68-2.31-.23,.77-.46,1.54-.68,2.31Z"/><path class="f" d="M273.11,309.43c-.26-.83-.52-1.67-.79-2.5,.26,.83,.52,1.67,.79,2.5Z"/><path class="f" d="M270.7,297.22c-.33-.68-.66-1.36-1-2.05,.33,.68,.66,1.36,1,2.05Z"/><path class="f" d="M107.73,364.5l.85,2.26c-.28-.75-.57-1.5-.85-2.26Z"/><path class="n" d="M113.41,77.63l-2.01,1.02c.51-.65,1.03-1.29,2.01-1.02Z"/><path class="f" d="M273.45,364.28c.23-.72,.46-1.43,.69-2.15l-.69,2.15Z"/><path class="f" d="M259.76,269.22c-.34-.71-.68-1.42-1.03-2.13,.34,.71,.68,1.42,1.03,2.13Z"/><path class="f" d="M181.89,430.09c.72-.32,1.45-.63,2.17-.95-.72,.32-1.45,.63-2.17,.95Z"/><path class="f" d="M155.17,429.16c.7,.21,1.41,.42,2.11,.63-.7-.21-1.41-.42-2.11-.63Z"/><path class="f" d="M106.17,285.28c-.29,.71-.57,1.42-.86,2.13,.29-.71,.57-1.42,.86-2.13Z"/><path class="p" d="M35.28,155.74c-.03-.49-.05-.99-.08-1.48,.36-.45,.72-.89,1.08-1.34l.94,.91c-.65,.64-1.29,1.27-1.94,1.91Z"/><path class="f" d="M107.64,358.35c-.11,.42-.23,.84-.34,1.27-.16-.79-.32-1.58-.48-2.37,.27,.37,.55,.74,.82,1.1Z"/><path class="f" d="M107.39,279.19c-.29,.7-.58,1.41-.87,2.11,.29-.7,.58-1.41,.87-2.11Z"/><path class="f" d="M106.4,346.13l-.31,1.23c-.2-.79-.41-1.59-.61-2.38,.31,.38,.62,.76,.93,1.15Z"/><path class="f" d="M119.59,397.58c-.02,.34-.03,.67-.03,1.01-.25-.38-.49-.77-.74-1.15,.27-.02,.53,.03,.77,.14Z"/><path class="f" d="M120.48,400.12c.19,.21,.3,.46,.33,.75l-.39-.28,.06-.46Z"/><path class="n" d="M113.39,178.66c-.2,.41-.39,.82-.59,1.23,.2-.41,.39-.82,.59-1.23Z"/><path class="f" d="M254.92,260.66c-.31-.46-.62-.93-.93-1.39,.31,.46,.62,.93,.93,1.39Z"/><path class="f" d="M124.08,406.18c.2,.17,.35,.39,.43,.64l-.44-.18v-.46Z"/><path class="f" d="M124.7,407.16l.92,1.36c-.31-.45-.61-.91-.92-1.36Z"/><path class="f" d="M126.3,409.66c.38,.34,.75,.68,1.13,1.03-.38-.34-.75-.68-1.13-1.03Z"/><path class="f" d="M253.44,258.11c-.4-.16-.65-.46-.76-.87,.26,.29,.51,.58,.76,.87Z"/><path class="f" d="M255.82,261.88c-.33-.21-.57-.49-.74-.85,.25,.28,.49,.57,.74,.85Z"/><path class="f" d="M187.98,424.38c.15-.38,.29-.75,.44-1.13-.15,.38-.29,.75-.44,1.13Z"/><path class="f" d="M213.6,219.45c-.36,.28-.72,.57-1.08,.85l1.08-.85Z"/><path class="f" d="M109.4,369.54c.25,.28,.37,.6,.37,.98l-.37-.98Z"/><path class="r" d="M47.49,140.76c.13,.26,.29,.51,.37,.78,.03,.1-.14,.26-.22,.39-.13-.26-.29-.51-.37-.78-.03-.1,.14-.26,.22-.39Z"/><polygon class="f" points="231.05 425.7 231.58 425.47 231.4 425.83 231.05 425.7"/><path class="f" d="M186.7,427.85c.22-.33,.45-.66,.67-1-.22,.33-.45,.66-.67,1Z"/><path class="f" d="M150.15,427.98c.38,0,.7,.12,.98,.38-.33-.13-.65-.25-.98-.38Z"/><polygon class="f" points="256.43 262.4 256.35 262.51 256.47 262.59 256.43 262.4"/><path class="f" d="M271.53,300.79l-.45-1.14,.45,1.14Z"/><path class="f" d="M174.7,430.83c.38-.12,.76-.24,1.14-.36-.38,.12-.76,.24-1.14,.36Z"/><path class="n" d="M108.22,257.71c-.28-.29-.56-.58-.85-.88,.11-.37,.25-.73,.42-1.07,.14,.65,.28,1.3,.42,1.95Z"/><path class="m" d="M150.55,91.97l-.56-.95c.33,.23,.52,.55,.56,.95Z"/><path class="m" d="M149.25,89.49c-.45-.07-.61-.33-.49-.77,.43,.09,.59,.35,.49,.77Z"/><path class="n" d="M107.26,80.33l-1.18,.65,1.18-.65Z"/><polygon class="n" points="109.42 79.66 109.17 79.84 108.86 79.84 109.08 79.49 109.42 79.66"/><path class="f" d="M258.15,265.39c-.32-.2-.52-.5-.58-.88,.19,.29,.39,.58,.58,.88Z"/><polygon class="f" points="250.65 254.34 250.35 253.95 250.75 253.99 250.65 254.34"/><path class="f" d="M242.76,244.77l-1-.9c.69-.1,.98,.26,1,.9Z"/><polygon class="f" points="260.1 269.64 259.98 269.77 260.08 269.84 260.1 269.64"/><path class="f" d="M261.63,272.64c-.22-.2-.36-.45-.4-.75l.46,.25-.06,.49Z"/><polygon class="f" points="262.59 274.88 262.43 274.44 262.78 274.61 262.59 274.88"/><path class="f" d="M243.79,245.91l-.9-1c.64,.02,1,.31,.9,1Z"/><path class="f" d="M115.26,388.98l.6,1.16-.6-1.16Z"/><path class="n" d="M170.79,372.35l.11,.13c-5.38-10.26-7.07-21.1-5.1-32.51,2.24-7.4,2.55-15.11,3.41-22.71,2.43-21.25,7.68-42.16,7.93-63.68,1.02-1.18,1.08-2.55,.73-3.98,.49-2.84,.54-5.68,.05-8.53l.13-3.7c-.26-4.08,.42-7.9,2.66-11.45,1.24-1.95,2.71-4.25,4.87-3.9,2.57,.42,4.03,2.84,4.5,5.64,.36,2.13-.11,4.47,1.41,6.35,.04,18.02-3.53,35.48-8.58,52.63-5.28,17.93-8.64,36.21-10.74,54.71-1.32,11.6,1.52,15.78,12.11,20.59,.48,5.39-4.12,1.23-5.93,3.37,2.13,1.17,3.28,3.91,6.46,2.91,2.81-.88,1.51,1.41,1.87,2.42l.13-.17c-.76,1.28-3.46,.39-3.18,2.83-.32,0-.64,.02-.95,.02,.12-.07,.24-.2,.35-.19,.18,.02,.35,.14,.52,.22l3.32,2.13c.16,2.09-.11,2.28-3.13,2.11-4.7-.81-8.79-3.11-12.95-5.25Zm15.17-126.71c.93-5.04,1.61-10.09-.26-15.07-.39-1.03-1.01-1.83-2.2-1.45-.95,.31-.91,1.26-.6,1.99,2.01,4.62,.64,9.85,3.06,14.52Z"/><path class="e" d="M224.58,232.64c4.4,3.48,7.51,8.09,10.83,12.51,3.46,7.48,6.79,15.02,10.45,22.4,2.1,4.23,2.99,8.77,4.31,13.2,.38,1.27,1.02,3.06-.42,3.9-1.66,.98-2.53-.86-3.29-1.88-2.29-3.06-4.52-6.17-6.53-9.42-6.77-10.88-14.49-20.83-25.13-28.31-4.51-3.17-4.97-8.48-2-12.92,3.64-5.46,7.14-2.34,10.72-.03,.34,.22,.71,.37,1.07,.55Z"/><path class="h" d="M184.29,361.95c-10.6-4.82-13.43-8.99-12.11-20.59,2.1-18.5,5.46-36.79,10.74-54.71,5.05-17.15,8.62-34.62,8.58-52.63,.4-1.45,.53-3.45,2.68-1.31l.42,10.69c-.26,2.63-.52,5.26-.78,7.89-.17,.65-.33,1.3-.5,1.94-.26,2.59-.52,5.18-.78,7.77-.14,.67-.28,1.33-.42,2-1.3,11.29-6.16,21.73-7.87,32.92-.25,.44-.5,.87-.75,1.31-1,4.07-2.01,8.13-3.01,12.2-1.08,.61-.87,1.56-.66,2.51-.21,1.19-.42,2.39-.63,3.58-1.08,1.05-.92,2.42-.94,3.74-2.13,3.17-.82,6.87-1.55,10.25-.14,.63-.29,1.26-.43,1.9-.22,2.77-.44,5.54-.66,8.31-.2,.49-.4,.99-.6,1.48-.65,2.46-.67,4.93-.14,7.41l.77,1.44c1.87,4.44,4.28,8.06,10.03,7.16,1.28-.2,3.01-.78,3.8,.84,.8,1.65,.14,3.07-1.49,3.98-.37-.03-.74-.02-1.11,.02-.17-.71-.39-2.04-.5-2.04-1.16,.1-1.76,.96-2.16,1.99l.07-.06Z"/><path class="h" d="M177.14,253.58c-.25,21.52-5.5,42.42-7.93,63.68-.87,7.6-1.18,15.31-3.41,22.71-2.29-3.04-.31-6.55-1.07-9.76,.64-4.41,1.27-8.83,1.91-13.24,.12-1.68,.23-3.36,.35-5.04,.28-1.56,.56-3.13,.84-4.69,.11-1.29,.21-2.57,.32-3.86,1.15-7.67,2.3-15.34,3.45-23.01,.06-.88,.12-1.77,.18-2.65,.75-9.71,1.49-19.41,2.24-29.12,.02-.95,.04-1.9,.07-2.85,.18-1.65,.68-3.36-.91-4.67-.03-.4,0-.8,.11-1.19-.39-.75-.78-1.49-1.17-2.24,.8-.09,1.59-.17,2.39-.26l2.67,.02c-.11,1.3-.47,2.64,.74,3.67,.49,2.85,.44,5.69-.05,8.53-1.16,1.16-.98,2.56-.73,3.98Z"/><path class="h" d="M134.32,241c2.19-.13,4.39-.84,6.45-.93,4.76-.21,5.21-2.77,5.67-6.65,1.39-11.76,2.52-23.58,5.31-35.14,.63-.81,1.27-1.62,1.9-2.43,.03,1.01,.21,2.05,.06,3.03-2.04,13.79-3.72,27.62-5.14,41.49-1.63,15.88-4.36,31.62-8.46,47.08l-1.05-2.49c.07-1.86,.13-3.72,.2-5.57,.2-.55,.41-1.11,.61-1.66,.47-3.27,.95-6.54,1.42-9.81l.18-2.45c.28-1.16,.56-2.33,.84-3.49,1.86-5.22,1.85-10.63,1.74-16.06,.09-4.82-3.19-1.72-4.98-2.12-2.83-.58-5.66-1.17-8.49-1.75,.99-1.24,2.45-.84,3.73-1.06Z"/><path class="i" d="M139.06,284.98l1.05,2.49c-.77,6.85-1.75,13.69-2.26,20.56-.45,6.11,.16,12.22,2.81,17.83,1.68,3.56,4.65,5.06,8.92,4.73,4.33-.34,2.99-3.72,4.44-5.91-2.6-.84-5.49-.06-7.32-2.82,2.48-.94,4.72-1.8,6.95-2.65,.46,.02,.93,.04,1.39,.06,.09,.67,.3,1.18,1.14,.85,2.02,.13,3.42,1.61,2.37,3.1-2.26,3.2-1.76,8.53-6.88,9.55-5.58,1.11-9.69-1.24-12.82-5.76-6.64-9.6-4.49-20.14-3.09-30.5,.53-3.92,2.16-7.7,3.28-11.54Z"/><path class="q" d="M262.42,306.03c-.1,3.22-.09,6.45-.37,9.66-.1,1.13-.8,2.4-2.16,2.66-1.39,.27-2.32-.69-2.79-1.82-2.78-6.67-6.02-13.24-5.62-20.76,.07-1.37-.24-3.05,1.32-3.76,1.83-.83,3,.65,4.09,1.75,2.98,3,3.77,7.03,4.9,10.89,.21,.46,.42,.93,.62,1.39Z"/><path class="g" d="M173.29,239.87c-.11,.39-.15,.79-.11,1.19-17.95,3.48-14.2,20.3-19.4,31.6-1.36,2.96,.82,7.7-4.42,8.7,.16-1.64,.33-3.28,.49-4.92,3.52-9.7,3.31-20.21,6.47-29.99,.54-1.66,.56-4,2.84-4.12,4.83-.25,9.2-2.99,14.13-2.47Z"/><path class="r" d="M149.85,276.45c-.16,1.64-.33,3.28-.49,4.92-.42,4.01-.83,8.01-1.25,12.02-.09,.88-.18,1.77-.27,2.65-.3,1.58-.61,3.16-.91,4.74-.15,2.09-.3,4.17-.45,6.26-1.07,2.51-1.62,5.55,.73,7,2.09,1.29,4.95,.46,6.54-2.13,1.19-.27,1.98,.44,2.76,1.16-.12,2.02-.24,4.04-.36,6.07-.36,.09-.72,.14-1.09,.15-.46-.02-.93-.04-1.39-.06,.95-1.47,2.12-2.91,1.02-4.81-2.92,2.14-5.44,5.11-9.63,2.8-3.97-2.19-1.4-5.28-1.3-8.04,.06-1.61,.03-3.23,.12-4.85,.58-9.87,2.09-19.59,4.98-29.07,.33,.4,.66,.81,1,1.21Z"/><path class="i" d="M134.32,241c-1.28,.22-2.74-.19-3.73,1.06-1.65-.31-3.31-.62-4.96-.94-2.14-2.59-2.76-.04-3.66,1.15-1.62,2.14-2.14,5.04-4.57,6.63-.2-3.43-.39-6.85-.59-10.28,.06-1.85,.38-3.74-.77-5.43-.06-1.86-.12-3.72-.18-5.59,1.68,.14,2.21,1.5,2.82,2.72,3.23,6.47,9.16,8.97,15.63,10.68Z"/><path class="r" d="M177.18,237.4l-2.67-.02c2.34-2.31,1.33-5.64,2.57-8.32,1.91-4.15,3.13-9.74,8.88-8.98,5.03,.67,6.61,5.25,5.72,10.08,3.02,.94,4.77-1.73,7.21-1.53,.05,.53,.09,1.07,.14,1.6-1.24,.85-2.48,1.71-3.72,2.56-.36-.22-.74-.26-1.13-.1-2.15-2.15-2.28-.14-2.68,1.31-1.52-1.88-1.05-4.22-1.41-6.35-.47-2.8-1.93-5.22-4.5-5.64-2.16-.35-3.64,1.95-4.87,3.9-2.25,3.55-2.93,7.37-2.66,11.45-.29,.02-.58,.03-.87,.03Z"/><path class="h" d="M224.79,372.98c-4.75-10.06-7.28-10.95-16.38-5.54-1.12,.67-2.1,1.06-3.34,.69,2.39-3.95,5.57-7.04,9.82-8.96,3.49-.56,5.57,2.22,8.28,3.5,1.52,3.28,2.8,6.62,2.87,10.3-.42,0-.84,0-1.26,.01Z"/><path class="r" d="M164.73,330.21c.76,3.21-1.22,6.72,1.07,9.76-1.97,11.41-.29,22.25,5.1,32.51-.79-.31-1.58-.63-2.37-.94l-.6-1.22c-5.9-9-4.16-19.21-4.63-29.08,0-.82,0-1.63,.01-2.45,.72-2.82-.21-5.92,1.42-8.59Z"/><path class="g" d="M144.05,245.94c.11,5.43,.11,10.85-1.74,16.06-6.14-1.66-2-5.67-2-8.73,1.58-1.22,1.58-2.45,0-3.67v-3.66c1.25,0,2.5,0,3.75,0Z"/><path class="i" d="M186.88,362.05c.37-.04,.74-.05,1.11-.02,.06,.8-1.52,1.33-.15,2.43,3.43,2.78,3.33,3.08-1.15,6.19-.36-1.01,.94-3.3-1.87-2.42-3.18,1-4.33-1.74-6.46-2.91,1.81-2.14,6.41,2.02,5.93-3.37l-.07,.06c.86,1.72,1.77,.4,2.66,.05Z"/><path class="o" d="M170.79,372.35c4.16,2.13,8.25,4.44,12.95,5.25-5.24,.53-10.77,1.77-12.95-5.25Z"/><path class="o" d="M224.79,372.98c.42,0,.84,0,1.26-.01,1.63,2.67,1.64,5.71,2,8.67-.63,.39-1.25,.78-1.88,1.16-.46-3.27-.92-6.54-1.38-9.82Z"/><path class="o" d="M200.16,376.6c1.42,3.61-.78,9.23-4.33,11.09,.15-.82,.29-1.64,.44-2.45,.31-.74,.61-1.49,.92-2.23,.57-1.28,1.87-2.26,1.65-3.88,.33-.14,.46-.39,.37-.74,.32-.6,.64-1.19,.95-1.79Z"/><path class="f" d="M223.18,362.67c-2.71-1.29-4.79-4.07-8.28-3.5,4.48-2.9,7.38-2.06,8.28,3.5Z"/><path class="g" d="M146.48,307.03c.15-2.09,.3-4.17,.45-6.26,5.6,2.5,2.39,4.37-.45,6.26Z"/><path class="f" d="M228.67,392.58c0-2.05,0-4.09-.01-6.14,3.14,2.04,3.12,4.08,.01,6.14Z"/><path class="g" d="M166.99,311.92c-.12,1.68-.23,3.36-.35,5.04-1.13-.23-2.74-.08-2.59-1.76,.14-1.63,.95-3.1,2.94-3.28Z"/><path class="f" d="M194.17,232.7c.39-.16,.77-.13,1.13,.1-.34,3.53,.83,7.15-.71,10.6-.14-3.56-.28-7.13-.42-10.69Z"/><path class="f" d="M178.26,319.26c.02-1.32-.15-2.69,.94-3.74,1.18,.6,2.66,1.21,2.07,2.82-.45,1.23-1.92,.83-3.01,.92Z"/><path class="f" d="M144.05,245.94c-1.25,0-2.5,0-3.75,0-.91-.42-1.2-1.2-1.23-2.13,1.79,.4,5.07-2.7,4.98,2.12Z"/><path class="f" d="M194.37,391.43c-.45,1.62,.35,3.59-1.38,4.84-1.55-.84-1.32-2.32-1.36-3.71,.91-.38,1.82-.75,2.73-1.13Z"/><path class="i" d="M186.87,375.49l-3.32-2.13,.09-.06c-.28-2.45,2.42-1.55,3.17-2.83,.02,1.67,.04,3.34,.06,5.02Z"/><path class="g" d="M194.37,391.43c-.91,.38-1.82,.75-2.73,1.13-.27-2.6,.83-3.91,3.51-3.73,.12,.98,.14,1.93-.78,2.59Z"/><path class="i" d="M199.03,230.24c-.05-.53-.09-1.07-.14-1.6,1.65-.81,2.36-3.73,5.03-2.25-.67,2.5-3.05,2.83-4.89,3.85Z"/><path class="g" d="M190.81,406.78l-.4,1.67c-1.2-.16-2.34-.47-2.19-2,.04-.4,.89-1.12,.97-1.06,.6,.37,1.09,.91,1.61,1.39Z"/><path class="g" d="M156.51,313.06c-.78-.71-1.57-1.42-2.76-1.16,.19-1.22,.61-2.5,2.1-2.08,1.93,.55,1.35,1.96,.66,3.23Z"/><path class="g" d="M168.15,303.36c-.11,1.29-.21,2.57-.32,3.86-2.43-1.5-2.61-2.81,.32-3.86Z"/><path class="f" d="M221.87,426.76c-.53-1.69,.29-2.96,1.32-4.15,.53,1.69,2.56,3.86-1.32,4.15Z"/><path class="g" d="M171.78,277.7c-.06,.88-.12,1.77-.18,2.65-2.25-1.04-2.23-1.92,.18-2.65Z"/><path class="g" d="M197.19,383c-.31,.74-.61,1.49-.92,2.23-.79-.15-1.78-.4-1.57-1.33,.29-1.31,1.54-.89,2.49-.9Z"/><path class="g" d="M147.83,296.04c.09-.88,.18-1.77,.27-2.65,2.38,1.14,2.12,2-.27,2.65Z"/><path class="f" d="M179.83,311.93c-.2-.95-.41-1.9,.66-2.51,1.91,1.4,1.09,2.08-.66,2.51Z"/><path class="g" d="M167.93,370.32l.6,1.22c-.41,.69-1.16,1.44-1.73,.75-.94-1.15,.31-1.54,1.13-1.97Z"/><path class="g" d="M141.47,265.49l-.18,2.45c-.8-.14-1.75-.26-1.67-1.3,.08-1,1.05-1.04,1.85-1.14Z"/><path class="g" d="M174.08,245.74c-.02,.95-.04,1.9-.07,2.85-2-1-1.92-1.95,.07-2.85Z"/><path class="g" d="M199.21,378.38c.09,.35-.03,.6-.37,.74-.6-.35-1.2-.7-1.79-1.05,.17-.3,.3-.8,.53-.85,.89-.19,1.3,.47,1.63,1.15Z"/><path class="g" d="M163.31,338.8c0,.82,0,1.63-.01,2.45-.78-.12-1.71-.23-1.7-1.23,0-1,.93-1.1,1.72-1.22Z"/><path class="r" d="M136.7,421.93c-1.71,0-2.43-.99-2.57-2.56,1.47,.24,3.55-.13,2.57,2.56Z"/><path class="d" d="M206.18,224.03c1.1-2.09,1.49-5.51,5.18-2.77-.42,.5-.85,.99-1.27,1.49-1.34,.32-2.32,1.73-3.91,1.28Z"/><path class="g" d="M191.66,399.9c-.09,.82-.18,1.63-.27,2.45-.57-.36-1.6-.67-1.64-1.09-.13-1.26,1.04-1.21,1.91-1.36Z"/><path class="i" d="M203.83,226.45c-.94-2.62,.97-2.43,2.54-2.59,0,1.7-.88,2.52-2.54,2.59Z"/><path class="r" d="M139.13,424.41c-1.27-.44-2.48-.94-2.53-2.58,2.36-.63,3.04,.39,2.53,2.58Z"/><path class="f" d="M140.31,249.6c1.58,1.22,1.58,2.44,0,3.67,0-1.22,0-2.44,0-3.67Z"/><path class="f" d="M175.65,350.04l-.77-1.44c.26,.48,.51,.96,.77,1.44Z"/><path class="f" d="M175.02,341.19c.2-.49,.4-.99,.6-1.48l-.6,1.48Z"/><path class="f" d="M192.12,262.99c.14-.67,.28-1.33,.42-2-.14,.67-.28,1.33-.42,2Z"/><path class="f" d="M176.28,331.4c.14-.63,.29-1.26,.43-1.9-.14,.63-.29,1.26-.43,1.9Z"/><path class="f" d="M210.08,222.75c.42-.49,.85-.99,1.27-1.49h-.16c-.37,.5-.74,1-1.11,1.49Z"/><path class="g" d="M155.05,319.28c.37,0,.74-.06,1.09-.15,.03,.33,.05,.67,.05,1-.84,.33-1.05-.18-1.14-.85Z"/><path class="f" d="M183.5,297.22c.25-.44,.5-.87,.75-1.31-.25,.44-.5,.87-.75,1.31Z"/><path class="f" d="M193.32,253.22c.17-.65,.33-1.29,.5-1.94-.17,.65-.33,1.3-.5,1.94Z"/><polygon class="f" points="262.51 282.59 261.99 282.31 262.22 282.08 262.51 282.59"/><path class="f" d="M262.42,306.03c-.21-.46-.42-.93-.62-1.39l.62,1.39Z"/><path class="f" d="M139.87,277.75c-.2,.55-.41,1.11-.61,1.66,.2-.55,.41-1.11,.61-1.66Z"/><path class="q" d="M194.72,149.12c-4.29-4.55-3.85-10.07-7.36-13.93-4.88-5.36-8.8-11.56-14.94-15.78-1.63-1.12-3.14-2.62-3.65-4.73-.52-2.15-.07-4.01,1.66-5.5,1.67-1.43,3.11-.28,4.41,.52,8.32,5.12,12.91,13.33,16.61,21.81,2.17,4.99,4.95,10.32,3.26,17.61Z"/><path class="i" d="M149.85,276.45c-.33-.4-.66-.81-1-1.21-.02-11.28,3.51-22.01,5.91-32.8,3.19-14.36,8.29-28.31,12.69-42.39,1.41-4.5,1.13-8.4-2.69-11.59,.46-.42,.91-.85,1.37-1.27,4.21,2.51,5.13,5.82,4.12,10.75-2.36,11.55-5.81,22.69-10.3,33.55-2.79,6.76-2.35,7.37,4.92,6.97,2.42-.13,4.83-.55,7.24-.84,.39,.75,.78,1.49,1.17,2.24-4.94-.52-9.3,2.22-14.13,2.47-2.28,.12-2.3,2.46-2.84,4.12-3.16,9.78-2.95,20.29-6.47,29.99Z"/><path class="h" d="M152.07,121.97c-2.31-3.33-1.72-6.02-1.81-8.56-.19-5.53-1.03-10.8-4.91-15.12-1.26-1.4-2.54-3.29-.81-4.73,1.72-1.43,3.44,.09,4.42,1.68,4.98,8.12,6.33,16.7,3.11,26.72Z"/><path class="i" d="M120.1,113.92c-1.21,5.71-2.43,11.41-3.64,17.12-.47,.42-.83,1.86-1.61,.65-1.34-2.1-1.54-4.43-.25-6.73,3.65-6.44,2.99-13.94,5.15-20.75l.57,.02h.57c.05,.81,.11,1.62,.16,2.42-.13,1.96-.26,3.92-.39,5.88-.19,.46-.38,.92-.57,1.39Z"/><path class="o" d="M129.01,107.79c.4-.04,.81-.03,1.21,.04-1.21,7.7-2.89,15.36-2.04,23.24-.33,.22-.42,.52-.26,.89-.76,.11-1.52,.23-2.28,.34l-.42-1.26c.9-7.81,.41-15.85,3.8-23.26Z"/><path class="d" d="M134.48,163.17c-4.69,6.44-11.52,9.13-19.26,10.32,6.08-3.82,12.17-7.64,18.25-11.46,.33,.38,.67,.75,1,1.13Z"/><path class="n" d="M125.21,131.05l.42,1.26c-1.83,2.96-4.81,2.45-7.6,2.54-2.25,.79-3.56-2.63-5.92-1.31l.08,.07c1.08-1.61,.24-2.27-1.28-2.59l.1,.16c-.02-1.63-.05-3.25-.07-4.88,.81-1.55,2.29-1.28,3.65-1.34-1.29,2.29-1.09,4.63,.25,6.73,.78,1.22,1.14-.23,1.61-.65,2.92,.81,5.83,3.49,8.76,0Z"/><path class="o" d="M166.14,187.19c-.46,.42-.91,.85-1.37,1.27-7.23-2.83-8.13,3.86-11.12,7.4-.63,.81-1.27,1.62-1.9,2.43-.44-9.02,6.13-14.09,14.39-11.09Z"/><path class="r" d="M81.8,166.51c-.42,1.88-1.7,1.55-2.68,.79-3.43-2.66-7.14-2.37-10.97-1.35,.16-.87,.31-1.74,.47-2.61l.14-.16c4.9-1.05,9.32-.22,13.04,3.34Z"/><path class="h" d="M199.75,158.14c.28,1.32-.26,2.46-1.3,2.29-2.59-.43-2.96-2.71-3.18-4.85-.12-1.2,.05-2.69,1.67-2.48,3.14,.39,1.72,3.55,2.81,5.04Z"/><path class="r" d="M120.89,104.24h-.57l-.57-.02c.76-4.04,1.52-8.07,2.28-12.11l1.47,1.11c-.3,1.98-.61,3.95-.91,5.93-1,1.55,0,3.77-1.69,5.09Z"/><path class="m" d="M143.91,88.68c-.25,1.73-1.14,3.12-2.93,3.16-1.63,.03-1.71-1.29-1.2-2.55,.53-1.3-.05-3.55,2.41-3.3,1.43,.15,1.73,1.41,1.72,2.69Z"/><path class="r" d="M86.52,125.06c.71-3.48-2.66-6.48-1.19-10.05,.24,3.37,7.42,5.91,1.19,10.05Z"/><path class="p" d="M127.92,131.96c-.16-.37-.07-.66,.26-.89,4.01-.16,6.19,.87,3.46,5.5-1.37-1.7-2.54-3.16-3.72-4.62Z"/><path class="d" d="M133.48,162.04c1.21-1.87,2.33-3.85,5.34-4.07,.3,3.34-1.81,4.43-4.34,5.2l-1-1.13Z"/><path class="r" d="M77.89,123.7c2.92,.42,5.84,.84,8.76,1.26-3.27,2.05-6.32,2.5-8.76-1.26Z"/><path class="p" d="M63.1,155.6l-2.31-4.94c2.67,.76,4.74,1.8,2.31,4.94Z"/><path class="o" d="M112.11,133.53c2.36-1.32,3.68,2.1,5.92,1.31-2.67,2.71-4.29,.65-5.92-1.31Z"/><path class="o" d="M110.94,126.3c.02,1.63,.05,3.25,.07,4.88-1.29-1.61-2.11-3.22-.07-4.88Z"/><path class="n" d="M113.48,225.03c.37,.15,.76,.2,1.15,.12,1,.48,1.21,1.36,1.16,2.36-1.71,.05-2.34-.91-2.31-2.48Z"/><path class="o" d="M110.91,131.02c1.52,.32,2.36,.98,1.28,2.59-1.58-.29-1.26-1.53-1.28-2.59Z"/><path class="n" d="M114.36,189.64l-.16,.43-.47-.49,.35-.32,.29,.38Z"/><path class="p" d="M68.62,163.33l-.84-.58c.72-.8,.64,.29,.98,.41l-.14,.16Z"/><path class="i" d="M216.32,393.02c-.19-3.01-.37-6.02-.59-9.02-.07-.93-1.76-2.3,.58-2.52,1.25-.11,2.52-.42,3.54,1.31,2.54,4.32,2.51,15.59-.45,19.78-.47,.66-1.14,1.33-1.93,.79-.59-.41-1.2-1.23-1.23-1.9-.14-2.8-.06-5.62-.06-8.43h.14Z"/><path class="o" d="M226.21,385.24c1.31,4.5,1.73,8.98-.19,13.43l.19-13.43Z"/><path class="e" d="M13.45,33.43c3.01-1.22,4.1-4.41,6.54-6.38,2.78-2.23,5.4-2.88,8.32-2.05,3.08,.88,3.96,3.98,4.3,6.76,.7,5.65-.54,10.84-4.84,14.96-3.23,.18-6.56,.77-9.06-2.15-.99-1.36-1.98-2.71-2.98-4.07-1.4-2.22,2.55-6.36-2.59-7.24l.12,.08,.17,.08Zm12.51,2.86c-2.77-.56-3.21-1.35-3.08-3.92,.03-.51-.37-1.09-.7-1.55-.86-1.17-1.89-.58-2.56,.09-1.73,1.72-3.85,3.83-1.82,6.24,2.29,2.7,5.15,2.53,8.16-.86Z"/><path class="q" d="M9.3,40.68c.25-2.69,1.48-5.02,2.7-7.35,.43,0,.85,0,1.28,.01l-.12-.08c-.42,3.01-.08,5.9,1.5,8.56,.39,1.61,1.63,3.06,.87,4.88-2.34-1.74-6.62-1.46-6.23-6.02Z"/><path class="l" d="M26.46,50.29c4.41-.21,8.83-.42,14.13-.68-4.66,5.79-9.75,.96-14.01,2.34-.04-.56-.08-1.11-.12-1.66Z"/><path class="j" d="M26.46,50.29c.04,.55,.08,1.11,.12,1.66-2.23,1.4-4.42,1.2-7.02,.09,2.03-3.08,4.26-3.29,6.9-1.76Z"/><path class="j" d="M60.75,38.14c-.11,4.05-2.82,4.87-6.13,4.96h-.6l-.59-.05c2.35-1.76,4.39-4,7.32-4.91Z"/><path class="l" d="M15.53,46.7c.76-1.81-.49-3.27-.87-4.88,.36-.44,.73-.88,1.09-1.32,.99,1.36,1.98,2.71,2.98,4.07-.61,1.39-1.69,2.07-3.19,2.13Z"/><path class="j" d="M38.65,47.89c1.15-1,2.52-1.03,3.93-.95,0,.97,2.61,3.01-.93,2.52-1.05-.15-2-1.02-3-1.57Z"/><path class="l" d="M53.53,49.42c.69,.19,.84,.69,.49,1.2-.37,.53-.92,.94-1.4,1.4-.11-.35-.33-.7-.31-1.04,.05-.76,.19-1.53,1.22-1.55Z"/><path class="i" d="M73.03,189.58c-4.02,1.84-7.58,4.75-12.18,5.23-1.86-1.09-.77-1.98,.36-2.41,3.52-1.34,7-2.67,9.63-5.56,.72-.79,1.91-1.16,2.68-.43,1.13,1.06-.47,2.07-.49,3.17Z"/><path class="i" d="M35.28,155.74c.65-.64,1.29-1.27,1.94-1.91,1.18-.67,1.92-2.14,4.14-1.96-2.05,3.36-4.01,6.47-5.85,9.66-.95,1.64-1.71,2.24-2.72,.12,1.59-1.65,2.52-3.58,2.49-5.92Z"/><path class="l" d="M31.52,164.1c.65,.1,1.56-.25,1.65,.82,.02,.23-.44,.71-.68,.71-1.11,0-.78-.94-.92-1.58l-.05,.05Z"/><path class="r" d="M24.92,17.99c6.22-3.73,11.19-4.26,17.53-1.18-6.08-2.15-11.39,.65-16.94,1.92-.19-.25-.39-.5-.59-.74Z"/><path class="r" d="M25.5,18.74c-.62,1.6-2.11,.85-3.42,2.23,.48-2.51,2.03-2.24,2.83-2.98,.2,.25,.39,.5,.59,.74Z"/><path class="l" d="M13.28,33.34c-.43,0-.85,0-1.28-.01,.53-.7,1.04-1.05,1.45,.1l-.17-.08Z"/><path class="i" d="M110.96,266.19l-.37-1.94c1.25-4.76,.78-10.34,6.29-13.04-1.41,5.21-3.38,10.21-5.92,14.98Z"/><path class="n" d="M116.04,233.19c1.14,1.68,.82,3.58,.77,5.43-4.04-1.28-.1-3.68-.77-5.43Z"/><path class="e" d="M179.12,33.09c1.33,1.74,2.56,3.57,4.02,5.2,8.11,9.08,8.01,9.48-3.68,13.41-2.06,.7-4.08,1.54-6.12,2.31-6.08-.64-12.26,.21-18.29-1.2-1.77-.41-3.89-.43-5.2-1.46-3.37-2.67,1.15-1.52,1.41-2.52,2.84-.92,5.3-2.27,6.28-5.36,5.02-6.92,3.29-13.44-1.15-19.81,2.32,0,4.63,0,6.95,0,2.95,1.13,5.9,2.25,8.84,3.38,2.31,2.02,4.63,4.04,6.94,6.06Z"/><path class="q" d="M145.87,26.76c2.83,.42,4.94-3.6,8.08-1.32,3.36,5.12,4.56,10.52,2.16,16.4-1.6,2.05-3.2,4.09-4.81,6.14-5.81,1.02-9.7-1.31-11.37-7.22-1.56,1.59-.33,3.02-1.08,4.88-2.73-1.64-6.91-1.21-6.99-5.93-.06-3.88,3.24-5.34,6.01-6.84,.83-.45,3.04,1.97,2.74-1.31,1.31-1.22,2.62-2.43,3.93-3.65l-.02-.06,1.21-1.06,.14-.03Zm4.95,7.09c-.57-.47-1.23-1.28-2.07-1.66-1.39-.63-2.88-.38-3.89,.79-1.72,1.99-1.75,4.29-.95,6.74,.52,1.59,1.5,2.33,3.07,2.4,1.65,.07,2.74-.97,3.18-2.32,.46-1.42-.83-1.47-1.85-1.51-.84-.04-1.71-.27-1.66-1.27,.06-1.25,.87-1.7,2.07-1.3,1.31,.43,1.83-.26,2.1-1.86Z"/><path class="r" d="M172.61,56.63c-6.66,2.26-13.18,1.28-19.6-1.57,6.56,.53,13.12,1.07,19.67,1.6,0,0-.07-.03-.07-.03Z"/><path class="l" d="M151.3,47.98c1.6-2.05,3.2-4.09,4.81-6.14,.48,.54,.96,1.08,1.43,1.62-.98,3.09-3.44,4.45-6.28,5.36-.08-.29-.06-.57,.04-.85Z"/><path class="d" d="M148.89,59.09c-.93-.36-2.65-.23-1.29-2.04,.51,.63,2.29,.46,1.29,2.04Z"/><path class="n" d="M132.66,85.84c-.09,3.4-.52,6.73-2.03,9.84-2.27-3.89-2.26-7.3,2.03-9.84Z"/><path class="n" d="M120.89,104.24c1.7-1.32,.69-3.54,1.69-5.09,2.92,3.2,3.01,5.83-1.53,7.52-.05-.81-.11-1.62-.16-2.43Z"/><path class="n" d="M120.1,113.92c.19-.46,.38-.92,.57-1.39-.19,.46-.38,.92-.57,1.39Z"/><path class="n" d="M129.97,99.36c-.21,.41-.43,.82-.64,1.23,.21-.41,.43-.82,.64-1.23Z"/><path class="m" d="M157.54,43.47c-.48-.54-.96-1.08-1.43-1.62,2.4-5.88,1.19-11.28-2.16-16.4,.3-2.2-3.96-.95-2.85-3.7,.98-2.42,2.85-.17,4.23-.71,3.81-1.47,7.86-.3,11.75-1.01,3.47-.64,4.04,3.43,6.75,4.4,1.09,.39-1.26,1.55-1.65,2.6-2.95-1.13-5.9-2.25-8.84-3.38,.38-.13,.78-.24,1.14-.42,.09-.05,.08-.31,.12-.47-2.77-.01-5.73-1.77-8.2,.9,4.44,6.37,6.18,12.89,1.15,19.81Z"/><path class="m" d="M144.54,27.91c-.95-.55-2.52-.59-2.34-2.12,.06-.53,1.04-1.24,1.69-1.35,1.73-.29,1.39,1.46,1.97,2.32,0,0-.14,.03-.15,.02-1.09-.4-1.29,.17-1.2,1.07l.02,.06Z"/><path class="h" d="M185.96,245.64c-2.42-4.68-1.04-9.9-3.06-14.52-.32-.73-.35-1.69,.6-1.99,1.19-.38,1.81,.42,2.2,1.45,1.87,4.98,1.19,10.03,.26,15.07Z"/><path class="o" d="M177.18,237.4c.29,0,.58,0,.87-.03l-.13,3.7c-1.21-1.03-.86-2.37-.74-3.67Z"/><path class="o" d="M177.14,253.58c-.25-1.42-.43-2.82,.73-3.98,.35,1.44,.3,2.8-.73,3.98Z"/><path class="i" d="M183.55,373.36c-.17-.08-.34-.2-.52-.22-.11-.01-.23,.12-.35,.19,.32,0,.63-.01,.95-.02,0,0-.08,.06-.08,.06Z"/><path class="n" d="M186.88,362.05c-.89,.36-1.81,1.67-2.66-.05,.4-1.03,1.01-1.89,2.16-1.99,.11,0,.33,1.32,.5,2.04Z"/><path class="n" d="M153.65,195.86c2.99-3.54,3.89-10.23,11.12-7.4,3.82,3.19,4.09,7.09,2.69,11.59-4.4,14.08-9.51,28.03-12.69,42.39-2.4,10.79-5.93,21.52-5.91,32.8-2.9,9.48-4.4,19.2-4.98,29.07-.09,1.61-.07,3.23-.12,4.85-.1,2.76-2.68,5.85,1.3,8.04,4.19,2.31,6.71-.65,9.63-2.8,1.1,1.9-.06,3.34-1.02,4.81-2.24,.85-4.47,1.7-6.95,2.65,1.83,2.76,4.71,1.99,7.32,2.82-1.46,2.19-.11,5.58-4.44,5.91-4.27,.33-7.24-1.17-8.92-4.73-2.65-5.61-3.26-11.73-2.81-17.83,.51-6.87,1.49-13.71,2.26-20.56,4.1-15.47,6.83-31.21,8.46-47.08,1.42-13.88,3.1-27.7,5.14-41.49,.15-.99-.04-2.02-.06-3.03Zm7.55,13.28c4.65-7.02,4.6-12.62-.48-17.09,2.52,6.15,1.54,11.57,.48,17.09Z"/><path class="m" d="M25.96,36.29c-3.01,3.38-5.86,3.56-8.16,.86-2.04-2.4,.08-4.51,1.82-6.24,.67-.67,1.71-1.26,2.56-.09,.33,.45,.73,1.04,.7,1.55-.13,2.57,.31,3.36,3.08,3.92Z"/><path class="j" d="M15.75,40.5c-.36,.44-.73,.88-1.09,1.32-1.58-2.66-1.92-5.55-1.5-8.56,5.14,.88,1.19,5.02,2.59,7.24Z"/><path class="n" d="M156.38,23.66c2.47-2.67,5.43-.92,8.2-.9-.04,.16-.02,.43-.12,.47-.36,.18-.76,.29-1.14,.42-2.32,0-4.63,0-6.95,0Z"/><path class="j" d="M150.82,33.85c-.27,1.6-.78,2.29-2.1,1.86-1.21-.39-2.01,.05-2.07,1.3-.05,1,.81,1.23,1.66,1.27,1.02,.05,2.31,.09,1.85,1.51-.44,1.34-1.52,2.39-3.18,2.32-1.57-.07-2.56-.81-3.07-2.4-.8-2.45-.77-4.74,.95-6.74,1.01-1.17,2.49-1.42,3.89-.79,.85,.38,1.5,1.19,2.07,1.66Z"/><path class="n" d="M144.52,27.85c-.09-.9,.11-1.48,1.2-1.07-.4,.37-.8,.72-1.2,1.07Z"/><path class="r" d="M161.19,209.14c1.06-5.52,2.04-10.95-.48-17.09,5.07,4.47,5.12,10.08,.48,17.09Z"/></g></g></g></svg>