<?xml version="1.0" encoding="UTF-8"?><svg xmlns="http://www.w3.org/2000/svg" viewBox="0 0 33.77 12.89"><g id="a"/><g id="b"><g id="c"><g><path d="M15.74,6.15C24,7.01,32.33-.51,33.38,.68c.57,.65,.58,.65-.33,1.32l-2.6,1.92c-1.31,.82-2.67,1.58-4.02,2.35-.42,.24-.47,.52-.27,.93,.24,.48,.49,.96,.65,1.47,.08,.25-.03,.56-.05,.85-.21-.17-.47-.3-.61-.51-.26-.4-.47-.84-.67-1.28-.19-.42-.43-.45-.82-.23-.75,.42-1.5,.84-2.3,1.15-.73,.28-.74,.68-.52,1.31,.24,.7,.41,1.44,.53,2.17,.04,.23-.17,.5-.26,.75-.17-.18-.42-.33-.49-.54-.23-.74-.41-1.49-.58-2.25-.12-.53-.4-.65-.93-.56-1.5,.23-3.01,.41-4.52,.56-.49,.05-.71,.24-.84,.68-.17,.59-.36,1.18-.6,1.75-.07,.16-.35,.24-.53,.35-.07-.19-.21-.38-.18-.56,.09-.61,.23-1.21,.36-1.81,.11-.52-.06-.87-.56-1.09-1.11-.47-2.22-.95-3.31-1.46-.51-.24-.8-.08-1.05,.37-.3,.54-.6,1.08-.95,1.58-.13,.18-.41,.24-.63,.36,0-.24-.09-.51,0-.71,.36-.77,.78-1.52,1.17-2.28-.1-.12-.15-.22-.24-.27-.82-.5-1.64-1.02-2.48-1.49-1.28-.7-1.29-.69-2.26,.45-.26,.31-.49,.64-.77,.93-.18,.18-.44,.29-.66,.43l-.17-.16c.1-.2,.17-.41,.3-.58,.38-.49,.74-1,1.19-1.41,.61-.55,.44-.87-.13-1.3C1.85,2.84,.69,1.58,0,0,0,0,7.49,5.29,15.74,6.15Z"/><path d="M29.5,3.87c.06,.23,.05,.52,.19,.69,.47,.61,.98,1.19,1.51,1.74,.11,.12,.37,.09,.56,.14,.03-.17,.14-.41,.07-.49-.65-.78-1.32-1.53-1.99-2.28l-.34,.2Z"/></g></g></g></svg>