<svg xmlns="http://www.w3.org/2000/svg" viewBox="0 0 420.34 669.05"><defs><style>.cls-1,.cls-11,.cls-12,.cls-4,.cls-9{fill:#fff;}.cls-14,.cls-2{fill:#010101;}.cls-13,.cls-17,.cls-3,.cls-5,.cls-6,.cls-7,.cls-8{fill:#d9d9d9;}.cls-10,.cls-12,.cls-13,.cls-14,.cls-15,.cls-16,.cls-3,.cls-8,.cls-9{stroke:#010101;}.cls-10,.cls-11,.cls-12,.cls-13,.cls-14,.cls-15,.cls-16,.cls-17,.cls-3,.cls-4,.cls-5,.cls-7,.cls-8,.cls-9{stroke-miterlimit:10;}.cls-3{opacity:0.99;}.cls-17,.cls-4,.cls-5,.cls-7{stroke:#20201e;}.cls-10,.cls-14,.cls-5,.cls-7,.cls-8,.cls-9{stroke-width:2px;}.cls-7{opacity:0.65;}.cls-10,.cls-15,.cls-16{fill:none;}.cls-11{stroke:#fff;stroke-width:5px;}.cls-12,.cls-16{stroke-width:0.75px;}</style></defs><g id="Capa_4" data-name="Capa 4"><path class="cls-1" d="M346.15,141.16l24.67-13.72c1.72-1,3.54-1.94,5.5-1.88s4,1.6,3.89,3.55c-.08,1.17-.88,2.14-1.4,3.19s-.68,2.52.26,3.22a40.81,40.81,0,0,1,16.77-2.62,18.91,18.91,0,0,1-9,9l9.18.38c1.74.07,4,.57,4.18,2.3s-1.69,2.69-3.27,3.24L388,150.9a61.91,61.91,0,0,1,15.8,5.57c-.69,1.93-3.26,2.2-5.31,2.13l-15.09-.52,6.9,4.89c1,.7,2.08,1.58,2.12,2.79,0,1.53-1.73,2.56-3.25,2.44a12.52,12.52,0,0,1-4.23-1.69c-4.57-2.25-9.88-2.22-15-2.15l-20.77.28"/><path class="cls-2" d="M345.4,141.6,360,133.46l7.43-4.13c2.21-1.23,4.56-2.93,7.14-3.23,1.87-.22,4.18.7,4.67,2.7.54,2.21-1.93,3.73-1.73,5.9a1.71,1.71,0,0,0,.48,1.16c.27.22.39.08.72,0l1-.35c1.24-.42,2.5-.77,3.78-1.07a41.14,41.14,0,0,1,7.66-1c.73,0,1.46,0,2.19,0,.35,0,.7,0,1,0,.13,0,.37,0,.47,0s.16,0,0,.18l-.09.17a18.34,18.34,0,0,1-2,3.11,18.78,18.78,0,0,1-2.53,2.67c-.44.38-.9.74-1.37,1.08a6.17,6.17,0,0,1-.94.63s.89-.46.33-.2c-.23.11-.44.23-.67.33s-.58.33-.87.49-.64.52-.86.51l6.58.27a16.19,16.19,0,0,1,5.05.55c1.24.47,2.22,1.67,1.51,3a2.75,2.75,0,0,1-.56.71,6.25,6.25,0,0,1-.5.4c-.53.41,1.08-.59,1-.54l-.43.2c-.86.39-1.77.66-2.65,1l-7,2.45a5.77,5.77,0,0,0-.87.5c-.15.08-.7.54-.87.5a62.16,62.16,0,0,1,14.25,4.81c.31.14,1.49.57,1.52.84s-.51.81-.71,1-.76,0,.84-.46l-.28.11a4.4,4.4,0,0,1-.62.18,8,8,0,0,1-1.3.19,30.83,30.83,0,0,1-3.33,0l-4.08-.14-9.16-.32c-.22,0-.68.39-.87.5a5.58,5.58,0,0,1-.86.5l5.08,3.6c.76.54,1.54,1,2.28,1.62a4.26,4.26,0,0,1,1.52,1.77,2,2,0,0,1-.19,1.83,3.58,3.58,0,0,1-.64.65c1-.92,1.4-.71.73-.5a3.46,3.46,0,0,1-.64.13c-1.68.2-3.24-.86-4.68-1.58a24.76,24.76,0,0,0-10.32-2.23c-3.91-.13-7.84,0-11.76.08l-13.84.19c-.23,0-.67.37-.87.49s-.63.5-.86.51l13.1-.18c4.12-.06,8.26-.23,12.39-.09a25.12,25.12,0,0,1,11.08,2.57c1.46.77,3.14,1.66,4.82,1.06a12.53,12.53,0,0,0,2.07-1.12,3,3,0,0,0,1.33-1.31c.81-1.9-1.5-3.27-2.77-4.17l-6.1-4.32-1.73,1,8.91.31,4.45.15a26.14,26.14,0,0,0,3.54,0,6.4,6.4,0,0,0,2.53-.79,6.66,6.66,0,0,0,2.44-1.74c.05-.09.1-.17.14-.26s.13-.2,0-.34a3.23,3.23,0,0,0-.93-.46c-.62-.31-1.24-.6-1.87-.88-1.26-.57-2.54-1.09-3.83-1.58a63.31,63.31,0,0,0-9.06-2.6l-1.74,1L394,149a31.7,31.7,0,0,0,3-1.11c.79-.38,1.54-.84,2.29-1.29,1.21-.74,2.4-2.21,1.25-3.57s-3.11-1.25-4.6-1.31l-8.32-.34-1.73,1a22.07,22.07,0,0,0,10.16-8.76c.12-.23.25-.45.36-.68s.23-.33.22-.44-.11-.09-.3-.1c-.73,0-1.47,0-2.2,0a38.51,38.51,0,0,0-4.15.25,40.39,40.39,0,0,0-8.12,1.74,11.24,11.24,0,0,1-1.74.61c-.31,0-.17.1-.4-.08a1.57,1.57,0,0,1-.2-.25,2,2,0,0,1-.26-.74,4.74,4.74,0,0,1,.94-3.07,3.92,3.92,0,0,0,.71-3.23,3.8,3.8,0,0,0-2-2.09c-2.24-1-4.69.07-6.69,1.15-2.56,1.4-5.1,2.84-7.65,4.26l-17.69,9.84-1.19.68c-.08,0-.61.36-.3.19Z"/><path class="cls-3" d="M162.34,183.65l36.55-1.14L346.6,167.67,342.69,139l-156.73,7L154.81,128s-3.76-4.31-16.51-2"/><path class="cls-4" d="M150,355.61a2.18,2.18,0,0,0,.85,2.09"/><path class="cls-4" d="M148.8,355.05a1.3,1.3,0,0,0-1,1.33"/><path class="cls-4" d="M150,360.34a2.08,2.08,0,0,0,2-.39,6.21,6.21,0,0,0,1.34-1.63,27.1,27.1,0,0,0,3.92-7.87"/><path class="cls-4" d="M158.3,348.23a6.54,6.54,0,0,0,.73-2.52"/><path class="cls-4" d="M163.91,349.1a4.75,4.75,0,0,0,.57-2.79"/><path class="cls-4" d="M168.59,349.34a3.65,3.65,0,0,0,1-2.77"/><path class="cls-4" d="M166.32,352.82l.49-1.39"/><path class="cls-4" d="M161.32,352.13l.73-1.35"/><path class="cls-4" d="M156.72,360.57a25.88,25.88,0,0,0,3.55-6.69"/><path class="cls-4" d="M162.32,361.84a14.12,14.12,0,0,0,2.78-5.26"/><path class="cls-5" d="M173.23,329.49,170.7,270.2c-.31-7.19-1.19-15.48-7.14-19.48-4.2-2.83-10-2.5-14.35.11S142,258,140.57,262.91A42.69,42.69,0,0,0,139.51,278c1.45,18.68,8.61,36.56,9.31,55.46a20.38,20.38,0,0,0,13.34,2.31C166.69,335,170.93,332.64,173.23,329.49Z"/><path class="cls-6" d="M143.28,260.49c-2.23-3.77-1-9,2.13-12s7.78-4.15,12.13-3.8a14.19,14.19,0,0,1,8.93,3.63c2.34,2.31,3.48,6,2.2,9-2.55-4.7-8.45-7-13.69-6.06A16.21,16.21,0,0,0,143.28,260.49Z"/><path class="cls-7" d="M148.09,324a23.27,23.27,0,0,0,24.54-8.88"/><path class="cls-7" d="M152.76,324.87a9.6,9.6,0,0,0,.49,10.36"/><path class="cls-7" d="M159.41,323.6a13.48,13.48,0,0,0,.78,11.51"/><path class="cls-7" d="M165.78,321.22A13.63,13.63,0,0,0,167.57,333"/><path class="cls-6" d="M167.07,260a7.86,7.86,0,0,1-3.55,6.44,13.27,13.27,0,0,1-7.23,2.07,14.48,14.48,0,0,1-8.32-2.1c-2.42-1.6-5.58-5.44-5.63-8.35-1.3,2.3.94,6.34,2.21,8.65a16.16,16.16,0,0,0,5.35,6,12.18,12.18,0,0,0,14.1-1.13c3.8-3.33,6.73-9.57,4.67-14.21A3.47,3.47,0,0,1,167.07,260Z"/><path class="cls-8" d="M134.68,566.63l-1.25,17.62A266.61,266.61,0,0,0,170.91,608c-2-13.48-15-23-17-36.53-.42-2.93-.3-6-1.45-8.72a9.46,9.46,0,0,0-11.68-5.16C136.44,559.31,133.81,564.81,134.68,566.63Z"/><path class="cls-8" d="M145.86,582.33a10.68,10.68,0,0,1,9.68-4.31"/><path class="cls-8" d="M151,590.38a9.32,9.32,0,0,1,8.77-6"/><path class="cls-8" d="M156.07,592.14a6.26,6.26,0,0,1,5.54-2.62"/><path class="cls-8" d="M159.42,592.94a6.24,6.24,0,0,1,3.62-1.68"/><path class="cls-9" d="M151.33,573l4.49-.92,5.82-88.25c.41-6.19.65-13-2.89-17.91-4.54-6.27-14-6.35-19.89-1.57s-8.58,13-9,21A122.23,122.23,0,0,0,131,508.48a186.61,186.61,0,0,1,1.87,39.58c-.31,4.45.37,19.24.87,23.67.24,2.17,1.56,1.19,6.05,1.74A36.77,36.77,0,0,0,151.33,573Z"/><path class="cls-9" d="M156.13,557.38c-6.94,3.91-15.21,5-22.08,2.92a3.54,3.54,0,0,0-1,4.36,5.08,5.08,0,0,0,3.69,2.65,13.72,13.72,0,0,0,4.56-.14,14.57,14.57,0,0,1,4.56-.2"/><path class="cls-1" d="M160.29,488.49c-.44-4.57,1.26-11.19-.37-15.43s-4.66-8.1-8.72-9.45c-4.94-1.64-10.45,1.14-14.16,5s-3.31,6.59-5.54,11.63c1.19-6.71-1.35-9.52,2.11-15.24s13-8.14,19.24-6.94c5.61,1.08,10.25,4.72,9.83,17.32C162.48,481.57,161,480.77,160.29,488.49Z"/><path class="cls-10" d="M136.64,463.33l.17,6"/><path class="cls-10" d="M136.75,475v5.56"/><path class="cls-10" d="M136.2,487.59v5.85"/><path class="cls-10" d="M136.42,501.15l.65,6.32"/><path class="cls-10" d="M137.29,515l.21,7"/><path class="cls-10" d="M137.72,529.21l-.43,6.78"/><path class="cls-10" d="M136.85,541.84l-.21,6.31"/><path class="cls-10" d="M136.42,554.23l-.65,4.45"/><path class="cls-9" d="M146.12,490.44c2.29,4.24,9.16,3.55,12.29-.12s3.57-8.86,3.86-13.67l3.75-62.1,4.28-70.77c.42-7.06.62-14.87-3.89-20.32-6.37-7.69-19.48-6.19-26.63.78s-9.56,17.43-10.45,27.38c-.86,9.63-.62,19.33-.37,29l2,77.72c.19,7.25.41,14.68,3.13,21.4S142.58,492.43,146.12,490.44Z"/><path class="cls-9" d="M143.35,475.51a20.37,20.37,0,0,0,12.18-5.12"/><path class="cls-9" d="M147.08,480.66l8.9-3.94"/><path class="cls-9" d="M135.91,366.4l.48,6.89"/><path class="cls-9" d="M136.86,379.22l-.47,5.93"/><path class="cls-9" d="M136.62,392.27l-.23,5.93"/><path class="cls-9" d="M136.1,407.69l-.29,9.25"/><path class="cls-9" d="M135.59,425l.18,6.64"/><path class="cls-9" d="M136.15,436.88l-.24,7.12"/><path class="cls-9" d="M135.6,452.55l.43,7.35"/><path class="cls-9" d="M136.39,466.3l.23,4.51"/><path class="cls-11" d="M133.11,474.05a25.83,25.83,0,0,0,6.49,14.45,8.9,8.9,0,0,0,3,2.23,3.84,3.84,0,0,0,3.58-.2,8.83,8.83,0,0,0,8,2.25c2.81-.64,5.31-5.47,5.37-5.8"/><path class="cls-9" d="M107.85,490.07A1054.84,1054.84,0,0,1,125.72,363c1.89-9.32,3.84-19.37-.08-28-3.39-7.47-10.66-12.53-18.3-15.53-11.63-4.58-27.06-4.08-34.12,6.23-4.17,6.08-4.35,14-4.37,21.33l-.42,119.56c0,11.27.61,24.09,9.24,31.33a19.62,19.62,0,0,0,17.89,3.7C101.64,499.74,107.47,494.87,107.85,490.07Z"/><path class="cls-9" d="M76.93,361.46l.61,10.71"/><path class="cls-9" d="M77.23,379.52v11"/><path class="cls-9" d="M77.23,402.48l.61,10.41"/><path class="cls-9" d="M77.54,420.54l.61,9.19"/><path class="cls-9" d="M78.15,436.46l-.61,6.13"/><path class="cls-9" d="M77.23,450.55l-.3,6.12"/><path class="cls-9" d="M76.31,469.22l.31,7"/><path class="cls-9" d="M76.93,484.53v7"/><path class="cls-9" d="M91.31,476.26l10,.08C101.4,475.8,101.52,475.25,91.31,476.26Z"/><path class="cls-8" d="M73.42,587.53l-1.5,20.38A321.9,321.9,0,0,0,117,635.44c-2.44-15.6-18.1-26.65-20.41-42.26-.5-3.39-.36-6.95-1.74-10.09a11.54,11.54,0,0,0-14.06-6C75.54,579.06,72.37,585.43,73.42,587.53Z"/><path class="cls-8" d="M86.87,605.69a13,13,0,0,1,11.64-5"/><path class="cls-8" d="M93.09,615a11.22,11.22,0,0,1,10.55-7"/><path class="cls-8" d="M99.15,617a7.64,7.64,0,0,1,6.67-3"/><path class="cls-8" d="M103.18,618a7.63,7.63,0,0,1,4.35-1.94"/><path class="cls-9" d="M94,594.46l5.29-1,6.87-96.27c.48-6.75.76-14.21-3.42-19.54-5.35-6.83-16.5-6.92-23.45-1.71s-10.12,14.23-10.56,22.9a121.68,121.68,0,0,0,1.34,25.29c2.2,14.45,3.31,28.59,2.21,43.17-.37,4.85.43,21,1,25.82.29,2.36,1.84,1.3,7.14,1.9A46.73,46.73,0,0,0,94,594.46Z"/><path class="cls-9" d="M99.67,577.47c-8.18,4.26-17.93,5.4-26,3.18a3.69,3.69,0,0,0-1.14,4.76,6,6,0,0,0,4.35,2.89,17.37,17.37,0,0,0,5.38-.16,18.69,18.69,0,0,1,5.38-.21"/><path class="cls-1" d="M104.58,502.32c-.51-5,1.49-12.21-.44-16.83s-5.49-8.83-10.28-10.31c-5.83-1.8-12.32,1.24-16.7,5.48s-3.91,7.19-6.54,12.7C72,486,69,483,73.12,476.72s15.34-8.87,22.69-7.56c6.62,1.18,12.08,5.14,11.59,18.89C107.16,494.77,105.46,493.89,104.58,502.32Z"/><path class="cls-10" d="M76.68,474.88l.22,6.57"/><path class="cls-10" d="M76.82,487.57v6.06"/><path class="cls-10" d="M76.18,501.34v6.37"/><path class="cls-10" d="M76.43,516.13,77.2,523"/><path class="cls-10" d="M77.45,531.18l.26,7.65"/><path class="cls-10" d="M78,546.74l-.51,7.4"/><path class="cls-10" d="M76.94,560.52l-.25,6.88"/><path class="cls-10" d="M76.43,574l-.76,4.85"/><path class="cls-1" d="M125.88,362.15q12.28-5.59,24.27-11.83c6.52-3.39,13.32-7.27,16.82-13.73,2.85-5.28,3.09-11.53,3.25-17.52l.67-24c.07-2.19.07-4.55-1.21-6.32-2.22-3.06-7-2.64-10.38-1-7.16,3.53-11.89,10.8-19,14.44-9.51,4.88-21,2.29-31.33-.42l-23.42-6.11c-3.57-.93-7.27-1.87-10.92-1.3-5.84.91-10.57,5.72-12.6,11.27s-1.71,11.72-.45,17.49c1.94,8.85,6,17.09,10.25,25.1,1.36,2.57,2.81,5.2,5.08,7s5.36,2.74,8.28,3.53C98.84,362.52,114,367.55,125.88,362.15Z"/><path class="cls-1" d="M169.88,325.74a75.09,75.09,0,0,1-45.31,33.64c1,2.6,4,4,6.79,3.85s5.38-1.34,7.88-2.56c7.35-3.58,14.82-7.24,20.83-12.78S170.54,334.55,169.88,325.74Z"/><path class="cls-1" d="M123.08,360.2c-1.09,3.35-4.23,5.72-7.61,6.72a26.43,26.43,0,0,1-10.49.39c-8.65-1-17.31-3.35-24.5-8.26s-12.75-12.64-13.64-21.3c11.21,17.64,33.24,27.72,53.91,24.67A29.16,29.16,0,0,1,123.08,360.2Z"/><path class="cls-10" d="M165.07,293.11c-9.42,6-19.11,12.12-30,14.42-15.57,3.28-31.57-1.55-46.75-6.33"/><path class="cls-10" d="M132.56,321.83a79,79,0,0,0,1.38,20.76"/><path class="cls-10" d="M136.6,346.91a36.41,36.41,0,0,0,12.62-7.06"/><path class="cls-10" d="M140.49,350.38a65.2,65.2,0,0,0,13.33-8.49"/><path class="cls-10" d="M162.71,324.93a23.16,23.16,0,0,0,3.9,8.35"/><path class="cls-10" d="M134.13,352.34a49.86,49.86,0,0,1-18.77,7.22"/><path class="cls-10" d="M130,351.32a77.94,77.94,0,0,1-14.54,4.58"/><path class="cls-10" d="M124.19,349.41A71.24,71.24,0,0,1,104,353.76"/><path class="cls-10" d="M118.55,347.41l-14.81.27"/><path class="cls-10" d="M94.69,326.71c-2.21,3.77-4.78,7.46-8.33,10s-8.27,3.8-12.4,2.35"/><path class="cls-10" d="M76.81,345.93l.13,6.06"/><path class="cls-10" d="M134.36,312.74a3.08,3.08,0,0,0-4.61,0,3.05,3.05,0,0,0,1,4.47,3,3,0,0,0,4.07-2.1C135.18,313.36,133.54,311.56,134.36,312.74Z"/><path class="cls-12" d="M134.21,138.21c-1.74-5.53.35-11.53,3.1-16.63s6.21-10,7.52-15.61c1.43-6.15.13-12.58-1.5-18.67s-3.93-12.38-9.27-15.51c-3.86-2.26-8.61-2.35-13-1.85-3.19.35-6.58,1.1-8.73,3.47-2,2.14-2.5,5.17-3,8q-2.13,13.08-4.27,26.16c-1.13,7-2.24,14.32.25,20.93,3.57,9.48,15,15.18,24.75,12.31C132.46,140.11,135,138.64,134.21,138.21Z"/><path class="cls-3" d="M172.87,321l-8.52-159.77c-.39-7.28-1-15.15-5.76-20.67-3.41-4-8.85-6.59-10.18-11.65s1.19-11.79-3.32-14.15c-3.69-1.93-7.88,2.06-9.09,6s-1.17,8.55-3.84,11.75c-3.1,3.73-9,4.09-13.4,2.14s-7.82-5.68-11-9.31-6.74-9.28-3.65-13.18c1-1.19,2.48-2.15,2.56-3.67.09-1.7-1.9-2.91-3.59-2.69a8.78,8.78,0,0,0-4.37,2.51c-15.83,13.78-35.15,24.21-42.34,43.92-6.59,18.05-1.66,42.13-1.17,61.34a334,334,0,0,1-5.94,71.74c-1,5.29-2.11,11.06.39,15.84s7.46,7.48,12.44,9.16c29,9.78,64.47,30,64.12,29.63.33.5-2.74-11.35-2.64-22.77-.06,1.28-1-6.73-1-5.45.07-1.44-.71-6.27-.64-7.72,2-.44,5.82,1.5,9.61.91s7.3-2.59,9.33-3a355.38,355.38,0,0,0,.63,38.34A42.69,42.69,0,0,1,172.87,321Z"/><path class="cls-9" d="M118,134.34c5.83,18.33,5.56,109.9,3.78,164.25,0,1.33.11,5.47.11,5.47s4.71.64,6.38.78c3.75.32,6.94-.08,12.56-2.91-5-16.89.32-34.65-.4-52.14-.71-16.86-2.79-33.16-1.9-50,.66-12.42,2.19-24.88,1-37.26-1-10-4.46-19.46-6.4-29.43C133.13,133.13,123.7,137,118,134.34Z"/><path class="cls-13" d="M101.74,141.87c0-4.94,1.88-10.89,6.71-11.94,3.43-.74,7,1.57,8.72,4.6s2.17,6.65,2.49,10.15c5,54.67,2.1,159.12,2.19,158.84"/><path class="cls-8" d="M140.56,301.42h.36c-4.31-14.8-.34-30.7-.35-46.12,0-11.25-2.16-22.39-2.77-33.62-.82-15.13,1.15-30.27,1.07-45.42a167.5,167.5,0,0,0-5.12-40.18,8.3,8.3,0,0,1-.35-4.06c.88-3.39,5.89-4,8.68-1.92s3.88,5.74,5.26,8.67l.73-10.94"/><path class="cls-8" d="M102.26,141.8c.86-3.28-.59-6.75-2.61-9.47s-4.61-5-6.55-7.75S89.88,118.24,91,115"/><path class="cls-8" d="M161.11,150.81A36.64,36.64,0,0,0,159,170.49"/><path class="cls-8" d="M161.9,214.33a203,203,0,0,1-10,22.23"/><path class="cls-8" d="M164.15,289.93a56.26,56.26,0,0,0-15.81,15.47c-1.11,1.63-2.14,3.85-1,5.46"/><path class="cls-8" d="M164.72,300.06A32.53,32.53,0,0,0,151.63,317"/><path class="cls-8" d="M82.15,236.28a44.81,44.81,0,0,0,9.59,22.43"/><path class="cls-8" d="M83,250.93a43.47,43.47,0,0,0,12.76,18.26"/><path class="cls-8" d="M80.79,258.71A43.34,43.34,0,0,0,98.41,285.2"/><path class="cls-8" d="M90,179.69A32.57,32.57,0,0,0,109.84,178"/><path class="cls-8" d="M100.23,176.82a25.9,25.9,0,0,1,8.62-1.73"/><path class="cls-8" d="M84.47,180.86a29.27,29.27,0,0,0-3.75,13.19"/><path class="cls-12" d="M99.52,53a47.36,47.36,0,0,1-2.9-13.6c-.13-4.66,1-9.48,3.92-13.1s7.83-5.8,12.36-4.74c7.91-8,19.88-12.48,30.83-9.78s19.91,13.35,19.1,24.6c-.52,7.19-4.63,13.94-4.08,21.12.77,10,10.2,17.3,12.8,27,1.66,6.2.37,12.8-1.4,19-1.47,5.11-3.44,10.39-7.5,13.82-6.26,5.29-15.44,4.7-23.56,3.59-6.16-.85-12.53-1.92-17.66-5.44-5.9-4-9.4-10.86-10.89-17.85s-1.19-14.21-.88-21.34a6.55,6.55,0,0,1-6.94,2,12.81,12.81,0,0,1-6.14-4.4,24.84,24.84,0,0,1-5.31-11.48c-.55-3.17-.26-6.93,2.29-8.91s6.24-1.33,8.64.66,3.67,5,4.42,8.08,1.08,6.18,2.08,9.14"/><path class="cls-10" d="M95.15,23.23a6.47,6.47,0,0,1,5-.43,5.49,5.49,0,0,1,3.67,4.37A20.53,20.53,0,0,0,100.16,17a8.69,8.69,0,0,1,3.43,9.87"/><path class="cls-10" d="M118.48,28.08a7.42,7.42,0,0,0-4,7,5.11,5.11,0,0,1,.32-4.19A6.27,6.27,0,0,1,118.48,28.08Z"/><path class="cls-10" d="M116.19,27a10.78,10.78,0,0,0-2.44,16.29A9.87,9.87,0,0,1,111,34.93,12.88,12.88,0,0,1,116.19,27Z"/><path class="cls-10" d="M116,26.17A20.37,20.37,0,0,0,109,48.77a11,11,0,0,1-1-9.28,22.66,22.66,0,0,0-.2,14.53,26.23,26.23,0,0,1-1.42-13.53,37.12,37.12,0,0,0,3.19,24.36,27.74,27.74,0,0,1-4.78-12.17"/><path class="cls-10" d="M123.5,34.91c.53-3.61-1.7-7.44-5.18-9.57a6.2,6.2,0,0,1,7.55,7.27,6.16,6.16,0,0,0-7.75-7.83"/><path class="cls-10" d="M152.22,25.17a14.09,14.09,0,0,1,8,19.86c.4-3.94.72-8-.31-11.83S156.25,25.74,152.22,25.17Z"/><path class="cls-10" d="M161.88,34.07a14.92,14.92,0,0,0-10.34-11.94c2-1.38,5-.34,6.53,1.6S160.07,28.2,161.88,34.07Z"/><path class="cls-10" d="M151.53,20.49c.88-1.39,3.06-1.38,4.39-.41S158,22.65,151.53,20.49Z"/><path class="cls-10" d="M157.91,23.82a11.69,11.69,0,0,1,3.59,8.07l-.63-.65"/><path class="cls-10" d="M117.21,22.74a32.4,32.4,0,0,1,33.08-4.52"/><path class="cls-10" d="M150.11,20.37a26.14,26.14,0,0,0-15.78-3.23c-5.42.62-10.63,3-13.26,7.23A44.32,44.32,0,0,1,142.58,18a13.64,13.64,0,0,1,5.47.69C149.77,19.37,151.2,21,150.11,20.37Z"/><path class="cls-10" d="M125.18,26.56a38.66,38.66,0,0,1,25.62-3.77"/><path class="cls-10" d="M149.8,24.37c-7.08-1-14.36-.56-20.33,2.19C135.22,27.18,141.08,26.73,149.8,24.37Z"/><path class="cls-10" d="M130.21,27.59a55.47,55.47,0,0,0,16-1.34"/><path class="cls-10" d="M132.85,28.24a38.76,38.76,0,0,0,13.24-.54"/><path class="cls-10" d="M135,29.05a16.12,16.12,0,0,0,14.78-3.46"/><path class="cls-10" d="M142.69,29.06a25.28,25.28,0,0,0,7.55-4.62"/><path class="cls-10" d="M148.41,26.34a17.13,17.13,0,0,1-22.78-.41"/><path class="cls-10" d="M130,27.66A25.5,25.5,0,0,0,147,28"/><path class="cls-10" d="M148,24.81a42.33,42.33,0,0,1-27.41-.19"/><path class="cls-10" d="M128.51,26a52.3,52.3,0,0,0,21.61-2.52"/><path class="cls-10" d="M132.22,26.67c6.11-.69,12.13-2.13,19.38-2.32a11.82,11.82,0,0,1,6.05,0"/><path class="cls-10" d="M153.92,24.31l1.91-.1"/><path class="cls-10" d="M117.18,25.19C115,24.72,113,26.45,111.35,28a24.53,24.53,0,0,0-4.91,6.09,8.29,8.29,0,0,0-.27,7.55"/><path class="cls-10" d="M103.73,45.28a15.47,15.47,0,0,1,.21-12c1.68-3.76,4.94-6.78,6.79-8.82a16,16,0,0,0-10.46,9.33C98.47,38.29,98.9,43.62,103.73,45.28Z"/><path class="cls-10" d="M106.55,25.27a4.06,4.06,0,0,0-4,1,11.25,11.25,0,0,0-2.37,3.57,30.31,30.31,0,0,0-2.81,7.85,12.66,12.66,0,0,0,1,8.14"/><path class="cls-10" d="M104.16,26.32c-3,.44-4.68,3.6-5.45,6.49A28.28,28.28,0,0,0,101,53"/><path class="cls-10" d="M100.47,38.93A22.34,22.34,0,0,0,105,54.5C102.79,48.44,102.57,41.69,100.47,38.93Z"/><path class="cls-10" d="M110.05,29.64c-5.14,7.36-6.45,17.24-4,26.88C101.15,46.47,103.07,33.51,110.05,29.64Z"/><path class="cls-10" d="M103.5,55.56a20.89,20.89,0,0,1,1.66-24"/><path class="cls-10" d="M109.38,28.57l-5.64,7.59"/><path class="cls-10" d="M114.37,24.68a17.45,17.45,0,0,0-9.9,10.49"/><path class="cls-10" d="M100.94,40.46a33.22,33.22,0,0,1,4.84-11.7C102.68,32.16,101.31,37.06,100.94,40.46Z"/><path class="cls-10" d="M103.25,30a14.22,14.22,0,0,0-.4,13.18"/><path class="cls-10" d="M122.18,22a54.33,54.33,0,0,1,8.78-4"/><path class="cls-10" d="M119.25,22.93l5.2-2.82"/><path class="cls-10" d="M115.58,23.6a20.4,20.4,0,0,1,9-6.35"/><path class="cls-10" d="M137.36,16.36c-5,.15-10,1.47-13.12,5.81C128.51,21,132.86,20.08,137.36,16.36Z"/><path class="cls-10" d="M129.66,24l8.13-.32"/><path class="cls-10" d="M132.48,26.4l8.46-.76"/><path class="cls-10" d="M102.22,53.32a20.18,20.18,0,0,1,8.29-29.23"/><path class="cls-10" d="M100.56,30.69a19.58,19.58,0,0,1,9.4-7.41,4.6,4.6,0,0,1,3.41-.22"/><path class="cls-10" d="M114.84,23.79c-2.84-1.25-6.47-.38-8.76,3.62C109,25.71,112.35,24.83,114.84,23.79Z"/><path class="cls-10" d="M125,19.49c-2.11,1.31-4.23,2.62-5.25,4.94C122.39,22.35,125.36,20.65,125,19.49Z"/><path class="cls-10" d="M133.38,18.17c-3.75,1.59-7.4,3.43-9.1,6.14C127.58,22.38,131,20.68,133.38,18.17Z"/><path class="cls-10" d="M125.55,24.74l7.51-4.66"/><path class="cls-10" d="M130.74,17.76c-4,1.13-7.65,3.43-12.11,4.83A14.16,14.16,0,0,1,130.74,17.76Z"/><path class="cls-10" d="M127.88,15.86a58.73,58.73,0,0,0-10.48,5.07C120.78,18.36,124.49,16.22,127.88,15.86Z"/><path class="cls-10" d="M122.36,16.79a26.75,26.75,0,0,1,14.2-4.32"/><path class="cls-10" d="M129.18,18.08a23.4,23.4,0,0,1,12.64-.28"/><path class="cls-2" d="M130.13,44.27l-.66-.12c-.73-.06-1.4.9-1.49,1.28a1.92,1.92,0,0,0,.69,1.74c1,.42,1.8.56,2.09-.44.17-.56.54-1.48.1-1.88S130.31,44.29,130.13,44.27Z"/><path class="cls-2" d="M152.23,42.52a1.89,1.89,0,0,0-2,.59,2,2,0,0,0,.07,1.92,1.74,1.74,0,0,0,2.81-.35A1.84,1.84,0,0,0,152.23,42.52Z"/><path class="cls-14" d="M147,38.61a2,2,0,0,1,1.12-1.84,4,4,0,0,1,2.22-.36,11.66,11.66,0,0,1,6.36,3A56.37,56.37,0,0,0,147,38.61Z"/><path class="cls-14" d="M135.56,38.85V37.74a6.1,6.1,0,0,0-4.24.43,29.91,29.91,0,0,0-8.83,5.28C127.11,41.9,131.64,40.16,135.56,38.85Z"/><path class="cls-15" d="M145,44.06a1.91,1.91,0,0,0-2.5.83,5.56,5.56,0,0,0-.55,2.86l-.24,20.14c0,1.51.08,3.27,1.31,4.16a3.25,3.25,0,0,0,2.38.48,9.86,9.86,0,0,0,2.35-.79l5.28-2.3c.37-.17.78-.36.91-.74a1.53,1.53,0,0,0-.08-.94C151.31,59.59,148.72,51.37,145,44.06Z"/><path class="cls-15" d="M131.92,55.14l-3.78,6.64"/><path class="cls-15" d="M129.22,55.5c-1.37,2-2.67,4.13-3.88,6.26"/><path class="cls-15" d="M126.58,55.87a52.93,52.93,0,0,0-2.89,4.5"/><path class="cls-15" d="M153.21,51.7l-1.78,2.36"/><path class="cls-15" d="M154.65,52.7a9.13,9.13,0,0,0-1.88,2.84"/><path class="cls-16" d="M162.93,79.86A28.31,28.31,0,0,1,135.4,82.1"/><path class="cls-16" d="M149.53,101.6a3.75,3.75,0,0,1,6.26-1.55"/><path class="cls-16" d="M157,95.3l.86,2.89"/><path class="cls-16" d="M160,95.45l.51,3"/><path class="cls-16" d="M159.53,90.4l.79,3.61"/><path class="cls-16" d="M161.91,88.67l1.44,3"/><path class="cls-16" d="M160.32,85.29l.15,2.95"/><path class="cls-16" d="M161.47,83.27l1.3,2.88"/><path class="cls-16" d="M163.92,81.61l1.73,2.31"/><path class="cls-16" d="M164.86,79.67l1.8,1.8"/><path class="cls-16" d="M165.38,76.7l2.17,2.3"/><path class="cls-16" d="M167.54,82.69l.73,4.61"/><path class="cls-16" d="M164.65,86.87l1.51,3"/><path class="cls-16" d="M167.31,91.41l.51,3.82"/><path class="cls-16" d="M164.57,93.72l.08,3.39"/><path class="cls-16" d="M164.57,99v3.31"/><path class="cls-16" d="M167.53,97.54l-.07,3"/><path class="cls-16" d="M167,104l-.07,3.32"/><path class="cls-16" d="M165.8,105.75l-.65,4"/><path class="cls-16" d="M161.55,103.16l.14,3.17"/><path class="cls-16" d="M162,109.21l-.14,3.17"/><path class="cls-15" d="M161.19,114.62l-.22,1.65"/><path class="cls-16" d="M160,109.21l.07,3.1"/><path class="cls-15" d="M158.23,115l-.29,2.52"/><path class="cls-16" d="M156.21,112.6l-.21,2.45"/><path class="cls-15" d="M154.05,116.35l-.72,2.37"/><path class="cls-16" d="M157.51,104.74l.15,3"/><path class="cls-16" d="M154.56,105.32l.07,2.81"/><path class="cls-16" d="M158.74,100l.14,2.59"/><path class="cls-16" d="M152.54,92.85l.5,2.81"/><path class="cls-16" d="M155.35,89.25l.94,2.67"/><path class="cls-16" d="M156.79,86.73l.94,2.67"/><path class="cls-16" d="M152.52,87.3l-.3,3.25"/><path class="cls-16" d="M149.08,86.66a5.35,5.35,0,0,0,1.44,3.67l.15,3.17"/><path class="cls-16" d="M146.34,87.52l-.14,3.24"/><path class="cls-16" d="M146.93,92.2a12.06,12.06,0,0,0,.94,3.78"/><path class="cls-16" d="M144.28,92.35l-.05,3.39"/><path class="cls-16" d="M144.83,97.9l.5,2.88"/><path class="cls-16" d="M146.9,101.43l1.07,4.26"/><path class="cls-16" d="M151.39,104.31a9,9,0,0,0,.14,3.46"/><path class="cls-16" d="M152.4,109.79l-.22,3.39"/><path class="cls-16" d="M149.22,112.53l-.28,3.74"/><path class="cls-16" d="M145.91,110.73l-.22,2.3"/><path class="cls-16" d="M145.48,106.26l1.08,3.53"/><path class="cls-16" d="M143.46,102.44l.36,3.67"/><path class="cls-16" d="M141.23,99.41l.21,3.6"/><path class="cls-16" d="M139.5,93.79l.14,3.53"/><path class="cls-16" d="M141.87,87.67l-.36,3.6"/><path class="cls-16" d="M139.14,86.66l-.94,4.25"/><path class="cls-16" d="M136,86.58l-.22,2.74"/><path class="cls-16" d="M133.9,90.26l-.34,3.81"/><path class="cls-16" d="M136.83,91.85l-.5,4.1"/><path class="cls-16" d="M142,109.57l.13,4.61"/><path class="cls-15" d="M143.75,113.1l-.15,4.11"/><path class="cls-16" d="M138.53,110.65l.06,3.32"/><path class="cls-16" d="M139.64,104.24l.14,3"/><path class="cls-16" d="M135.24,103.88l-.14,3.24"/><path class="cls-16" d="M136.25,99.63V103"/><path class="cls-16" d="M132.79,98v3.25"/><path class="cls-16" d="M130.42,93.43l.21,3"/><path class="cls-16" d="M129.7,90.26l-.15,2.38"/><path class="cls-16" d="M130.37,86.07l.65,2.81"/><path class="cls-16" d="M133,82.55v2.81"/><path class="cls-16" d="M128.18,85.72l.07,2.52"/><path class="cls-16" d="M125.69,87.81a8.73,8.73,0,0,0,1.48,4.4l.29,3.74"/><path class="cls-16" d="M129.46,98.11v4"/><path class="cls-16" d="M131.07,103.37l.28,3.25"/><path class="cls-16" d="M132.72,108.64l.07,2.81"/><path class="cls-16" d="M134.6,110.65l.21,3.89"/><path class="cls-15" d="M132,115.05v2.52"/><path class="cls-15" d="M127.39,114.33l-.07,1.87"/><path class="cls-16" d="M128.38,110.22l.57,3"/><path class="cls-16" d="M124.56,109.36l.06,3"/><path class="cls-16" d="M127,105.1l.22,2.53"/><path class="cls-16" d="M125.44,101.86l-.07,3.32"/><path class="cls-16" d="M125.44,98.11l.08,2.17"/><path class="cls-16" d="M122,91.27l1.29,3"/><path class="cls-16" d="M121.63,96.17l-.22,3.31"/><path class="cls-16" d="M121.05,102.58l.22,2.16"/><path class="cls-16" d="M121.91,108l-.36,2.45"/><path class="cls-16" d="M118.72,107.41l-.23,2.88"/><path class="cls-16" d="M119,101.72v2.59"/><path class="cls-16" d="M115.57,101.93l.29,2.53"/><path class="cls-16" d="M118.67,94.73l-.07,2.66"/><path class="cls-16" d="M118.09,90.69v2.67"/><path class="cls-16" d="M114.35,90.19l.65,3"/><path class="cls-16" d="M117.64,85.22l.42,2.88"/><path class="cls-16" d="M120.83,86.15l-.14,3.25"/><path class="cls-16" d="M124,82.62l-.21,3.46"/><path class="cls-16" d="M119.9,81.11l.5,2.45"/><path class="cls-16" d="M121.05,79.09l.86,2.59"/><path class="cls-16" d="M117.3,76.71l.29,2.88"/><path class="cls-16" d="M115.14,74.41l.22,2.45"/><path class="cls-16" d="M114,78.59l.29,2.3"/><path class="cls-15" d="M109.3,77.86l4-4"/><path class="cls-16" d="M109.66,80.89l2.6-2.81"/><path class="cls-16" d="M109.45,83.85,112,81"/><path class="cls-16" d="M109.66,86.51l3.17-3.6"/><path class="cls-16" d="M109.66,89.47l3.61-3.82"/><path class="cls-16" d="M109.88,93.07l3.24-3.6"/><path class="cls-16" d="M110,96.31l3.68-3.82"/><path class="cls-16" d="M111,99.34,114.42,96"/><path class="cls-16" d="M112.19,102.44l3-3.32"/><path class="cls-16" d="M113.63,105.46l2.45-2.88"/><path class="cls-16" d="M133,78.3l-.14,2.38"/><path class="cls-16" d="M136.4,75.56l-.29,3.24"/><path class="cls-16" d="M140.14,74.33l-.72,3.54"/><path class="cls-16" d="M142.67,75.49,142,78.87"/><path class="cls-16" d="M146.05,76.21l.22,3.67"/><path class="cls-16" d="M149.58,76l.8,3.39"/><path class="cls-16" d="M152.52,75l.86,3.53"/><path class="cls-16" d="M155.42,74.77l.94,3.17"/><path class="cls-16" d="M157.73,74.41l2.16,2.52"/><path class="cls-16" d="M160.11,73.4l1.51,2.52"/><path class="cls-15" d="M105.93,70.25c-1.43-1-1.77-3-1.91-4.74s-.29-3.68-1.52-4.93a4.12,4.12,0,0,0-5.42-.06A5.23,5.23,0,0,0,95.72,66"/><path class="cls-15" d="M104,67.13c-.84.42-1.82-.11-2.6-.65s-1.7-1.12-2.58-.8a1.74,1.74,0,0,0-.75,2.4,2.57,2.57,0,0,0,2.45,1.15c.65-.06,1.35-.3,1.92,0S103.18,70.64,104,67.13Z"/><path class="cls-15" d="M105.73,50.2c1.92,3.1,3.87,6.3,4.55,9.88"/><path class="cls-15" d="M105.9,46.38a53.38,53.38,0,0,1,5.1,8.41"/><path class="cls-15" d="M112.91,48.46c-2.77-4.31-3.49-9.9-2.47-15.42A12.5,12.5,0,0,0,112.91,48.46Z"/><path class="cls-15" d="M113.23,30.26a17.63,17.63,0,0,0,1.4,11.65"/><path class="cls-15" d="M117.19,26.93a14.11,14.11,0,0,0,.53,10.3"/><path class="cls-15" d="M120,27a18.52,18.52,0,0,1,6.73,3.9"/><path class="cls-15" d="M153.4,28.36l3.54,1.44"/><path class="cls-4" d="M56,340.58c-1.65-1.6-4.55-1.15-6.26.4s-2.5,3.84-3.11,6.06c-1.12,4-1.9,8.18-2.67,12.31l-2.1,11.3c-1.16-.29-1.31-1.85-1.3-3s-.53-2.78-1.72-2.66c-.87.09-1.31,1.09-1.44,1.94a8.93,8.93,0,0,0,4.7,9.17,4.92,4.92,0,0,0,6.33.29A3.35,3.35,0,0,0,55,377.43c-.24,1.19,1.24,2.15,2.43,1.89a5.63,5.63,0,0,0,2.83-2.18c3-3.62,6.09-7.33,7.79-11.72,2.82-7.26,1.56-15.38.27-23.06a8.17,8.17,0,0,0-1.57-4.24,6.45,6.45,0,0,0-4-1.79C58.26,335.74,53.51,337.47,56,340.58Z"/><path class="cls-4" d="M41.89,370.5a2.34,2.34,0,0,0,.74,2.31"/><path class="cls-4" d="M40.66,369.8a1.39,1.39,0,0,0-1.21,1.34"/><path class="cls-4" d="M41.48,375.57a2.28,2.28,0,0,0,2.18-.26,6.67,6.67,0,0,0,1.58-1.64,29.26,29.26,0,0,0,4.88-8.11"/><path class="cls-4" d="M51.47,363.27a7,7,0,0,0,1-2.65"/><path class="cls-4" d="M57.45,364.66a5,5,0,0,0,.85-2.94"/><path class="cls-4" d="M62.49,365.31a4,4,0,0,0,1.26-2.89"/><path class="cls-4" d="M59.75,368.85l.64-1.45"/><path class="cls-4" d="M54.41,367.7l.9-1.39"/><path class="cls-4" d="M48.75,376.37a28,28,0,0,0,4.38-6.88"/><path class="cls-4" d="M54.69,378.19a15.13,15.13,0,0,0,3.42-5.41"/><path class="cls-5" d="M69.13,344.41l2.18-63.78c.27-7.73,0-16.69-6.09-21.48-4.29-3.38-10.6-3.5-15.49-1s-8.39,7.13-10.31,12.24S37,281,37,286.46c0,20.15,6.25,39.91,5.44,60.22a22.12,22.12,0,0,0,14.19,3.58C61.62,349.8,66.39,347.59,69.13,344.41Z"/><path class="cls-6" d="M42.54,268c-2.09-4.24-.35-9.71,3.3-12.71s8.73-3.8,13.4-3.08a15.39,15.39,0,0,1,9.32,4.64c2.34,2.66,3.26,6.72,1.63,9.87-2.37-5.25-8.54-8.21-14.27-7.63A17.55,17.55,0,0,0,42.54,268Z"/><path class="cls-5" d="M41.73,273a12.25,12.25,0,0,0,10.42,10.74"/><path class="cls-5" d="M46.08,270a8.73,8.73,0,0,0,12.37,7.73"/><path class="cls-7" d="M42.48,336.4a25.24,25.24,0,0,0,27.19-7.49"/><path class="cls-7" d="M47.43,337.77a10.27,10.27,0,0,0-.33,11.14"/><path class="cls-7" d="M54.71,337a14.38,14.38,0,0,0-.11,12.39"/><path class="cls-7" d="M61.78,334.92a14.61,14.61,0,0,0,.95,12.77"/><path class="cls-17" d="M71,268.53a276.2,276.2,0,0,0,8.32-82.93c-.64-12.27-2.27-25-9-35.29-1.72-2.64-4.23-5.3-7.38-5.21-4,.13-6.38,4.49-7.72,8.29-7,20.06-8.85,41.53-10.59,62.72L41.33,255.6c-.4,4.9-.77,10,1.15,14.55a15.65,15.65,0,0,0,15.6,9.17C64.51,278.64,69.72,273.33,71,268.53Z"/><path class="cls-5" d="M44.05,258a10.76,10.76,0,0,0,14.26,11.91"/><path class="cls-5" d="M47.73,260.88c1.3,2.12,2.66,4.32,4.76,5.65s5.16,1.49,6.87-.31"/><path class="cls-6" d="M68.24,269.36A8.43,8.43,0,0,1,63.88,276a14.32,14.32,0,0,1-8,1.63,15.67,15.67,0,0,1-8.79-2.94c-2.49-1.91-5.58-6.28-5.39-9.42-1.59,2.37.49,6.88,1.67,9.47a17.37,17.37,0,0,0,5.27,6.88,13.24,13.24,0,0,0,15.3,0c4.38-3.26,8-9.71,6.22-14.85C70.16,268,68.34,269.56,68.24,269.36Z"/><path class="cls-2" d="M99.08,53a47.7,47.7,0,0,1-2.9-13.6c-.13-4.66,1-9.48,3.93-13.1s7.82-5.8,12.36-4.74c7.9-8,19.88-12.48,30.83-9.78s19.9,13.35,19.09,24.6c-.51,7.19-2.42,13.16-3.58,13.84C162.44,28.08,155,29,153.4,27c-14.94,10.86-31.06-.94-34.92,1s-14.68,14.33-13.32,30C103.25,52.88,99.08,53,99.08,53Z"/></g></svg>