<?xml version="1.0" encoding="UTF-8"?><svg xmlns="http://www.w3.org/2000/svg" viewBox="0 0 325.79 167.02"><defs><style>.d{fill:#f6c67a;opacity:.8;}.e{fill:#1d1d1b;}</style></defs><g id="a"/><g id="b"><g id="c"><g><polygon class="e" points="111.04 167.02 99.57 133.99 26.61 143.62 111.04 167.02"/><polygon class="d" points="325.79 0 310.19 117.93 26.61 143.62 0 39.46 325.79 0"/></g><g><path d="M51.78,78.51l7.47-.97c1.04-.13,2.04-.17,2.99-.1,.95,.07,1.8,.29,2.56,.67,.75,.38,1.38,.93,1.89,1.66,.51,.73,.84,1.7,.99,2.89s.09,2.18-.19,3.03-.71,1.55-1.32,2.11c-.6,.56-1.35,1-2.23,1.31-.88,.32-1.86,.54-2.92,.68l-3.24,.42,1.01,7.84-4.43,.57-2.6-20.12Zm5.53,7.95l2.96-.38c.4-.05,.78-.14,1.14-.26s.67-.29,.94-.51c.27-.22,.48-.49,.62-.83,.14-.34,.18-.74,.12-1.21-.07-.51-.24-.91-.51-1.19-.28-.28-.61-.48-1-.61-.39-.12-.82-.18-1.28-.17-.46,.01-.9,.04-1.32,.1l-2.27,.29,.62,4.77Z"/><path d="M69.68,76.2l7.79-1.01c1.02-.13,2.01-.16,2.95-.08s1.79,.31,2.54,.68c.75,.37,1.38,.93,1.89,1.66,.51,.73,.84,1.69,.99,2.86,.18,1.42-.03,2.68-.64,3.77s-1.61,1.86-2.99,2.31l6.21,7.84-5.31,.69-5.24-7.5-2.19,.28,1.04,8.04-4.43,.57-2.6-20.12Zm5.51,7.75l2.61-.34c.4-.05,.82-.12,1.26-.21,.44-.09,.83-.22,1.18-.41,.34-.19,.61-.45,.81-.78,.2-.33,.26-.78,.19-1.32-.07-.51-.22-.91-.47-1.18-.25-.28-.54-.47-.89-.59-.34-.12-.73-.18-1.15-.18-.42,0-.83,.02-1.23,.07l-2.9,.37,.59,4.58Z"/><path d="M88.32,84.02c-.21-1.61-.13-3.1,.24-4.48,.37-1.38,.98-2.59,1.83-3.63,.85-1.04,1.9-1.9,3.17-2.56,1.26-.66,2.68-1.1,4.25-1.3,1.57-.2,3.05-.14,4.44,.18,1.39,.32,2.63,.88,3.71,1.67s1.98,1.81,2.69,3.05c.71,1.24,1.17,2.66,1.38,4.27s.13,3.1-.25,4.48c-.37,1.38-.98,2.59-1.83,3.63-.85,1.05-1.9,1.9-3.16,2.56-1.26,.66-2.68,1.1-4.25,1.3s-3.05,.14-4.44-.18c-1.39-.32-2.63-.88-3.71-1.67-1.08-.79-1.98-1.81-2.69-3.05-.71-1.24-1.17-2.66-1.37-4.27Zm4.6-.59c.12,.95,.38,1.8,.78,2.54,.4,.75,.9,1.38,1.53,1.88,.62,.51,1.34,.87,2.15,1.09,.81,.22,1.69,.27,2.63,.15s1.78-.39,2.51-.82c.72-.42,1.32-.95,1.8-1.6,.47-.65,.81-1.38,1-2.21,.19-.82,.23-1.71,.11-2.66s-.38-1.77-.77-2.53c-.4-.76-.91-1.39-1.53-1.9-.62-.51-1.34-.87-2.15-1.09-.81-.22-1.69-.27-2.63-.15s-1.78,.39-2.51,.81c-.73,.42-1.33,.96-1.8,1.6-.48,.65-.81,1.39-1,2.22-.19,.83-.23,1.71-.11,2.64Zm4.26-16.44l5.8-.75-4.39,4.73-3.75,.48,2.34-4.46Z"/><path d="M117.98,79.73l-7.89-8.75,5.57-.72,5.2,6.49,3.21-7.58,5.37-.69-5.28,10.36,8.64,9.66-5.57,.72-5.96-7.46-3.73,8.71-5.26,.68,5.69-11.42Z"/><path d="M132.2,68.13l4.43-.57,2.6,20.12-4.43,.57-2.6-20.12Z"/><path d="M140.66,67.03l6.71-.87,6.33,12.53h.06l2.96-13.74,6.68-.86,2.6,20.12-4.43,.57-1.99-15.43h-.06l-3.29,16.12-3.38,.44-7.08-14.77h-.06l1.99,15.44-4.43,.57-2.6-20.12Z"/><path d="M174.11,62.71l3.66-.47,11.35,18.99-5,.65-2.28-4.04-7.81,1.01-1.13,4.48-4.89,.63,6.1-21.24Zm2.46,5.63l-1.64,6.57,4.91-.63-3.28-5.93Z"/><path d="M188.54,60.85l6.71-.87,6.33,12.53h.06l2.96-13.74,6.68-.86,2.6,20.12-4.43,.57-1.99-15.43h-.06l-3.29,16.12-3.38,.44-7.08-14.77h-.06l1.99,15.44-4.43,.57-2.6-20.12Z"/><path d="M215.54,57.36l13.67-1.77,.53,4.09-9.23,1.19,.48,3.75,8.72-1.13,.53,4.09-8.72,1.13,.53,4.09,9.75-1.26,.53,4.09-14.18,1.83-2.6-20.12Z"/><path d="M233.27,55.07l6.02-.78,10.36,12.88h.06l-1.81-13.99,4.43-.57,2.6,20.12-5.8,.75-10.63-13.19h-.06l1.85,14.33-4.43,.57-2.6-20.12Z"/><path d="M260.83,55.5l-5.74,.74-.51-3.92,15.91-2.06,.51,3.92-5.74,.74,2.09,16.2-4.43,.57-2.09-16.2Z"/><path d="M272.91,49.95l13.67-1.77,.53,4.09-9.23,1.19,.48,3.75,8.72-1.13,.53,4.09-8.72,1.13,.53,4.09,9.75-1.26,.53,4.09-14.18,1.83-2.6-20.12Z"/></g></g></g></svg>