<svg xmlns="http://www.w3.org/2000/svg" viewBox="0 0 108.04 75.19"><defs><style>.cls-1{fill:#fafafa;}.cls-2{fill:#1c1c23;}.cls-3{fill:#ebeaeb;}.cls-4{fill:#ececec;}.cls-5{fill:#d4d3d5;}</style></defs><g id="Layer_2" data-name="Layer 2"><g id="Capa_20" data-name="Capa 20"><g id="VqorNs.tif"><path class="cls-1" d="M50,15c-10.46-1.28-20.77-2.45-31-3.83C8.12,9.7,1.24,14.56.48,25.58a208.82,208.82,0,0,0,0,28.63C1.27,65.35,11,71.09,22,67.71c9-2.77,18.05-5.46,27.79-8.41-.42,2.36-.66,3.72-.9,5.08-.55,3.08-2.82,6.47,1.28,8.81,3.81,2.17,7.78,3,11.75.38A427.74,427.74,0,0,0,106.13,40c2.54-2.16,2.54-3.68,0-5.92A259.84,259.84,0,0,0,60.58,1.43C59.2.66,57.86-.48,56,.22,50.38,2.25,47.48,9,50,15Z"/><path class="cls-2" d="M50,15c-2.5-6,.4-12.74,6-14.77,1.91-.7,3.25.44,4.63,1.21a259.84,259.84,0,0,1,45.57,32.62c2.52,2.24,2.52,3.76,0,5.92a427.74,427.74,0,0,1-44.19,33.6c-4,2.58-7.94,1.79-11.75-.38-4.1-2.34-1.83-5.73-1.28-8.81.24-1.36.48-2.72.9-5.08C40.07,62.25,31,64.94,22,67.71,11,71.09,1.27,65.35.5,54.21a208.82,208.82,0,0,1,0-28.63c.76-11,7.64-15.88,18.45-14.42C29.21,12.54,39.52,13.71,50,15ZM4.38,53.66c.18,2,.31,4,1.65,5.84,2.1-1.41,4.4-2.52,6.14-4.2s3.59-6.68.87-6.53L4.38,53.66c.65-.83-1.52,0-.11-1.77l8.05-5.09c1.63-2.21.58-6.32-.08-7.22C2.26,47.54,3.85,44.09,4.38,53.66ZM63.53,8.22l-1.47-.3.44,1.36c1.1,2.67,2.2,5.34,3.32,8,.7,1.64,2.44,3.24,1,5.08s-3.62.38-5.2-.05C48.08,18.66,34,18.54,20.29,16.21c-3-.51-3.91.25-3.9,3.41,0,13.09.37,26.16,1.44,39.21.36,4.31,1.44,5.65,6.18,4,11.54-4,23.32-7.39,35-11,6.32-1.94,7.4-.95,6.1,5.66-.63,3.2-1.43,6.37-2.38,10.58,15-9.87,28.62-19.74,41.33-31.11C91.18,26,78,16.17,63.53,8.22ZM60.39,60.54c-5.73-.61-8.39,3.19-6.69,9.93C56.16,67.08,59.08,64.43,60.39,60.54Z"/><path class="cls-1" d="M63.54,8.21C78,16.17,91.18,26,104.07,37,91.36,48.33,77.71,58.2,62.74,68.07c.95-4.21,1.75-7.38,2.38-10.58,1.3-6.61.22-7.6-6.1-5.66-11.69,3.6-23.47,6.94-35,11-4.74,1.66-5.82.32-6.18-4-1.07-13-1.4-26.12-1.44-39.21,0-3.16.88-3.92,3.9-3.41,13.73,2.33,27.79,2.45,41.34,6.1,1.58.43,3.67,2,5.2.05s-.31-3.44-1-5.08c-1.12-2.66-2.22-5.33-3.32-8Z"/><path class="cls-3" d="M5.27,33.76c-2.57-2.61-1.78-4.9.71-7,1.54-1.27,5.35-2.81,7.15-4.19V20.84c-1.89.32-6.59,2.43-7.85,2.33.84-3.93,3.18-6.43,7.37-8.66.19,5.3,1.39,10-1.05,14.5A20.94,20.94,0,0,0,5.27,33.76Z"/><path class="cls-4" d="M12.39,31.48S13.07,34.6,13,35L4.4,42.67c-.65-3.45-1.3-6.2,2.07-7.88A58.43,58.43,0,0,1,12.39,31.48Z"/><path class="cls-5" d="M60.39,60.54c-1.31,3.89-4.23,6.54-6.69,9.93C52,63.73,54.66,59.93,60.39,60.54Z"/><path class="cls-2" d="M11.52,31.09l-5,3.7-1.2-1A20.94,20.94,0,0,1,11.6,29Z"/><path class="cls-1" d="M62.5,9.28l-.44-1.36,1.48.29Z"/></g></g></g></svg>