<?xml version="1.0" encoding="UTF-8"?><svg xmlns="http://www.w3.org/2000/svg" viewBox="0 0 856.14 483.6"><defs><style>.e{fill:#fff;font-size:109.48px;}.e,.f{font-family:Moonlights-on-the-Beach, Moonlights on the Beach;}.g{font-size:42.42px;}.g,.h,.i{font-family:Avenir-Book, Avenir;}.g,.h,.i,.f{fill:#010101;}.h{font-size:50.63px;}.j{fill:#f6c67b;}.k{fill:#eb566a;}.i{font-size:52.21px;}.f{font-size:142.39px;}.l{letter-spacing:-.02em;}</style></defs><g id="a"/><g id="b"><g id="c"><text class="i" transform="translate(94.33 187.74)"><tspan x="0" y="0">EL MONSTRUO FINANCIERO</tspan></text><text class="f" transform="translate(273.77 108.07)"><tspan x="0" y="0">Descubre</tspan></text><rect class="j" x="98.54" y="398.47" width="667.95" height="72.55"/></g><g id="d"><path class="k" d="M539.39,270.72c26.94-.68,53.88-1.86,80.82-2.31,14.19-.23,28.38,.77,42.55,1.38,24,1.03,48.01,1.88,72.02,2.67,4.87,.16,8.7-5.12,10.61-8.79,3.16-6.07,4.54-14.47,4.39-21.21s-.87-14.95-4.39-21.21c-2.3-4.09-5.35-8.61-10.61-8.79-44.98-1.48-89.99-4.9-135-3.46-20.13,.64-40.26,1.21-60.4,1.72-4.98,.13-8.56,4.85-10.61,8.79-3.16,6.07-4.54,14.47-4.39,21.21s.87,14.95,4.39,21.21c2.21,3.92,5.43,8.92,10.61,8.79h0Z"/><text transform="translate(139.42 258.67)"><tspan><tspan class="h" x="0" y="0" xml:space="preserve">con quien haces   </tspan><tspan class="e" x="409.07" y="0">match </tspan></tspan><tspan class="h"><tspan x="-126.31" y="61.58">de acue</tspan><tspan class="l" x="53.85" y="61.58">r</tspan><tspan x="69.75" y="61.58">do a tus comportamientos y </tspan></tspan><tspan class="h"><tspan x="77.21" y="123.16">hábitos financie</tspan><tspan class="l" x="431.64" y="123.16">r</tspan><tspan x="447.54" y="123.16">os</tspan></tspan><tspan class="g"><tspan x="-9.7" y="184.74">(Y está acechando tus finanzas).</tspan></tspan></text></g></g></svg>